<?xml version="1.0" encoding="UTF-8" standalone="no"?>
<!-- Created with Inkscape (http://www.inkscape.org/) -->

<svg xmlns:dc="http://purl.org/dc/elements/1.1/" xmlns:cc="http://creativecommons.org/ns#" xmlns:rdf="http://www.w3.org/1999/02/22-rdf-syntax-ns#" xmlns:svg="http://www.w3.org/2000/svg" xmlns="http://www.w3.org/2000/svg" xmlns:sodipodi="http://sodipodi.sourceforge.net/DTD/sodipodi-0.dtd" xmlns:inkscape="http://www.inkscape.org/namespaces/inkscape" width="64" height="64" id="svg3505" sodipodi:version="0.32" inkscape:version="0.91 r13725" sodipodi:docname="01.svg" inkscape:output_extension="org.inkscape.output.svg.inkscape" version="1.1" viewBox="0 0 64 64">
  <defs id="defs3507">
    <inkscape:perspective sodipodi:type="inkscape:persp3d" inkscape:vp_x="0 : 16 : 1" inkscape:vp_y="0 : 1000 : 0" inkscape:vp_z="32 : 16 : 1" inkscape:persp3d-origin="16 : 10.666667 : 1" id="perspective2836" />
    <inkscape:perspective id="perspective2899" inkscape:persp3d-origin="0.5 : 0.33333333 : 1" inkscape:vp_z="1 : 0.5 : 1" inkscape:vp_y="0 : 1000 : 0" inkscape:vp_x="0 : 0.5 : 1" sodipodi:type="inkscape:persp3d" />
    <inkscape:perspective id="perspective3072" inkscape:persp3d-origin="0.5 : 0.33333333 : 1" inkscape:vp_z="1 : 0.5 : 1" inkscape:vp_y="0 : 1000 : 0" inkscape:vp_x="0 : 0.5 : 1" sodipodi:type="inkscape:persp3d" />
  </defs>
  <sodipodi:namedview id="base" pagecolor="#ffffff" bordercolor="#666666" borderopacity="1.0" inkscape:pageopacity="0.0" inkscape:pageshadow="2" inkscape:zoom="11.0625" inkscape:cx="32" inkscape:cy="32" inkscape:current-layer="layer1" showgrid="true" inkscape:grid-bbox="true" inkscape:document-units="px" objecttolerance="10" gridtolerance="10" guidetolerance="10" inkscape:window-width="1600" inkscape:window-height="878" inkscape:window-x="0" inkscape:window-y="0" inkscape:object-paths="true" inkscape:object-nodes="true" inkscape:snap-bbox="true" inkscape:snap-guide="true" showguides="true" inkscape:guide-bbox="true" inkscape:window-maximized="1">
    <inkscape:grid type="xygrid" id="grid3515" units="px" visible="true" enabled="true" spacingx="1px" spacingy="1px" empspacing="4" snapvisiblegridlinesonly="true" />
    <sodipodi:guide position="0,32" orientation="1,0" id="guide13419" />
    <sodipodi:guide position="32,32" orientation="1,0" id="guide13421" />
    <sodipodi:guide position="-4,32" orientation="0,1" id="guide13423" />
    <sodipodi:guide position="-4,0" orientation="0,1" id="guide13425" />
  </sodipodi:namedview>
  <metadata id="metadata3510">
    <rdf:RDF>
      <cc:Work rdf:about="">
        <dc:format>image/svg+xml</dc:format>
        <dc:type rdf:resource="http://purl.org/dc/dcmitype/StillImage" />
        <dc:title></dc:title>
        <dc:date>2015-09-03</dc:date>
        <dc:creator>
          <cc:Agent>
            <dc:title>Andreas Neudecker &lt;zapyon@gmx.net&gt;</dc:title>
          </cc:Agent>
        </dc:creator>
        <dc:rights>
          <cc:Agent>
            <dc:title>Copyright (C) 2010-2015 by Andreas Neudecker</dc:title>
          </cc:Agent>
        </dc:rights>
        <dc:publisher>
          <cc:Agent>
            <dc:title>Andreas Neudecker</dc:title>
          </cc:Agent>
        </dc:publisher>
        <dc:identifier>__empty__</dc:identifier>
        <dc:description>Template for McMinos SVG icons at a base size of 32x32 pixels.</dc:description>
      </cc:Work>
    </rdf:RDF>
  </metadata>
  <g id="layer1" inkscape:label="Layer 1" inkscape:groupmode="layer" transform="translate(0,32)">
    <g id="g14198">
      <path style="fill:yellow;fill-opacity:1;fill-rule:nonzero;stroke:black;stroke-width:2;stroke-miterlimit:4;stroke-dasharray:none;stroke-opacity:1" d="m 41,2.399557 5,-1 3.676679,1 -3.676679,1 0,3 -2,-3 -3,-1 z" id="path4098" sodipodi:nodetypes="ccccccc" inkscape:connector-curvature="0" />
      <path id="path3274" d="m 36.40625,13.537121 c 0.0225,-0.814295 0.121005,-1.687698 0.53125,-2.375 0.697336,-1.168276 1.983168,-2.58587 3.1875,-3.71875 0.64047,-0.568342 1.796011,-1.940316 2.75,-3.125 0.95399,-1.184685 1.71875,-2.21875 1.71875,-2.21875 0.172589,-0.224366 0.494384,-0.266339 0.71875,-0.09375 0.224366,0.172589 0.266339,0.494384 0.09375,0.71875 0,0 -0.785262,1.020717 -1.749999,2.21875 -0.964738,1.198032 -2.100454,2.562681 -2.875,3.25 -1.157719,1.089032 -2.402736,2.468128 -3,3.46875 -0.237055,0.397147 -0.354725,1.172462 -0.375,1.90625 -0.02028,0.733788 0.0434,1.45414 0.09375,1.78125 0.09229,0.599509 0.521603,1.451056 0.8125,1.6875 0.399889,0.325035 0.752983,0.46875 1.6875,0.46875 0.180318,-0.0025 0.34804,0.09219 0.438943,0.247936 0.0909,0.155749 0.0909,0.348379 0,0.504128 -0.0909,0.155748 -0.258625,0.250486 -0.438943,0.247936 -1.069659,0 -1.765694,-0.274299 -2.3125,-0.71875 -0.6558,-0.533042 -1.057125,-1.465575 -1.1875,-2.3125 -0.06098,-0.396108 -0.11625,-1.123205 -0.09375,-1.9375 z" style="fill:none;stroke:black;stroke-width:2;stroke-linecap:round;stroke-linejoin:round;stroke-miterlimit:4;stroke-dasharray:none;stroke-dashoffset:0;stroke-opacity:1" inkscape:connector-curvature="0" />
      <rect y="0" x="32" height="32" width="32" id="rect5439" style="opacity:1;fill:none;fill-opacity:1;fill-rule:nonzero;stroke:none;stroke-width:2;stroke-linecap:butt;stroke-linejoin:miter;stroke-miterlimit:4;stroke-dasharray:none;stroke-dashoffset:0;stroke-opacity:1" />
      <path id="ellipse5400" d="m 40,12 a 2,6 0 0 0 -2,6 2,6 0 0 0 2,6 l 20,0 a 2,6 0 0 0 2,-6 2,6 0 0 0 -2,-6 l -20,0 z" style="opacity:1;fill:#d07070;fill-opacity:1;fill-rule:nonzero;stroke:black;stroke-width:2;stroke-linecap:butt;stroke-linejoin:miter;stroke-miterlimit:4;stroke-dasharray:none;stroke-dashoffset:0;stroke-opacity:1" inkscape:connector-curvature="0" />
      <ellipse ry="6" rx="2" cy="17.999998" cx="40" id="path4715" style="opacity:1;fill:#d07070;fill-opacity:1;fill-rule:nonzero;stroke:none;stroke-width:2;stroke-linecap:butt;stroke-linejoin:miter;stroke-miterlimit:4;stroke-dasharray:none;stroke-dashoffset:0;stroke-opacity:1" />
      <path inkscape:connector-curvature="0" id="ellipse4717" d="m 40,12 a 2,6 0 0 1 2,6 2,6 0 0 1 -2,6 l 20.000001,0 a 2,6 0 0 0 2,-6 2,6 0 0 0 -2,-6 L 40,12 Z" style="opacity:1;fill:#c04040;fill-opacity:1;fill-rule:nonzero;stroke:none;stroke-width:2;stroke-linecap:butt;stroke-linejoin:miter;stroke-miterlimit:4;stroke-dasharray:none;stroke-dashoffset:0;stroke-opacity:1" />
      <ellipse style="opacity:1;fill:maroon;fill-opacity:1;fill-rule:nonzero;stroke:none;stroke-width:2;stroke-linecap:butt;stroke-linejoin:miter;stroke-miterlimit:4;stroke-dasharray:none;stroke-dashoffset:0;stroke-opacity:1" id="ellipse4726" cx="40" cy="17.999998" rx="0.33438107" ry="1.0031432" />
      <path sodipodi:nodetypes="czzzcc" id="path2402-9" d="m 40,18 c -1.002087,0 -1.526652,-0.203136 -2,-0.587879 -0.473348,-0.384743 -0.888668,-1.276783 -1,-2 -0.111331,-0.723218 -0.293764,-2.915551 0.353536,-4 0.647299,-1.084449 1.920476,-2.495779 3.101501,-3.606735 C 41.870053,6.549725 45,2.412121 45,2.412121" style="fill:none;stroke:#e00000;stroke-width:1;stroke-linecap:round;stroke-linejoin:round;stroke-miterlimit:4;stroke-dasharray:none;stroke-dashoffset:0;stroke-opacity:1" inkscape:connector-curvature="0" />
      <path id="path5405" d="M 41.730469,21 A 2,6 0 0 1 40,24 l 20,0 a 2,6 0 0 0 1.730469,-3 l -20,0 z" style="opacity:1;fill:#8a2e2e;fill-opacity:1;fill-rule:nonzero;stroke:none;stroke-width:2;stroke-linecap:butt;stroke-linejoin:miter;stroke-miterlimit:4;stroke-dasharray:none;stroke-dashoffset:0;stroke-opacity:1" inkscape:connector-curvature="0" />
      <path id="rect5411" d="m 40,12 a 2,6 0 0 1 1.488281,2 l 20,0 A 2,6 0 0 0 60,12 l -20,0 z" style="opacity:1;fill:#da8e8e;fill-opacity:1;fill-rule:nonzero;stroke:none;stroke-width:2;stroke-linecap:butt;stroke-linejoin:miter;stroke-miterlimit:4;stroke-dasharray:none;stroke-dashoffset:0;stroke-opacity:1" inkscape:connector-curvature="0" />
      <path id="path5416" d="m 41.099609,13 a 2,6 0 0 1 0.388672,1 l 20,0 a 2,6 0 0 0 -0.390625,-1 l -19.998047,0 z" style="opacity:1;fill:#d07070;fill-opacity:1;fill-rule:nonzero;stroke:none;stroke-width:2;stroke-linecap:butt;stroke-linejoin:miter;stroke-miterlimit:4;stroke-dasharray:none;stroke-dashoffset:0;stroke-opacity:1" inkscape:connector-curvature="0" />
      <path id="rect5425" d="m 40.021484,17 a 0.33438107,1.0031432 0 0 1 0.3125,1 0.33438107,1.0031432 0 0 1 -0.310546,1 L 41,19 l 0,-2 -0.978516,0 z" style="opacity:1;fill:#d07070;fill-opacity:1;fill-rule:nonzero;stroke:none;stroke-width:2;stroke-linecap:butt;stroke-linejoin:miter;stroke-miterlimit:4;stroke-dasharray:none;stroke-dashoffset:0;stroke-opacity:1" inkscape:connector-curvature="0" />
      <path id="path5433" d="M 41.099609,23 A 2,6 0 0 1 40,24 l 20,0 a 2,6 0 0 0 1.101562,-1 l -20.001953,0 z" style="opacity:1;fill:#602020;fill-opacity:1;fill-rule:nonzero;stroke:none;stroke-width:2;stroke-linecap:butt;stroke-linejoin:miter;stroke-miterlimit:4;stroke-dasharray:none;stroke-dashoffset:0;stroke-opacity:1" inkscape:connector-curvature="0" />
      <path sodipodi:nodetypes="ccccccc" id="path4094" d="m 41,2.399557 5,-1 3.676679,1 -3.676679,1 0,3 -2,-3 -3,-1 z" style="fill:yellow;fill-opacity:1;fill-rule:nonzero;stroke:none" inkscape:connector-curvature="0" />
      <rect y="0" x="32" height="32" width="32" id="rect14196" style="opacity:1;fill:none;fill-opacity:1;fill-rule:nonzero;stroke:none;stroke-width:2;stroke-linecap:butt;stroke-linejoin:miter;stroke-miterlimit:4;stroke-dasharray:none;stroke-dashoffset:0;stroke-opacity:1" />
    </g>
  </g>
</svg>
