<?xml version="1.0" encoding="UTF-8" standalone="no"?>
<!-- Created with Inkscape (http://www.inkscape.org/) -->

<svg
   xmlns:dc="http://purl.org/dc/elements/1.1/"
   xmlns:cc="http://creativecommons.org/ns#"
   xmlns:rdf="http://www.w3.org/1999/02/22-rdf-syntax-ns#"
   xmlns:svg="http://www.w3.org/2000/svg"
   xmlns="http://www.w3.org/2000/svg"
   xmlns:sodipodi="http://sodipodi.sourceforge.net/DTD/sodipodi-0.dtd"
   xmlns:inkscape="http://www.inkscape.org/namespaces/inkscape"
   width="96"
   height="96"
   id="svg3505"
   sodipodi:version="0.32"
   inkscape:version="0.47 r22583"
   sodipodi:docname="03.svg"
   inkscape:output_extension="org.inkscape.output.svg.inkscape"
   version="1.1">
  <defs
     id="defs3507">
    <inkscape:perspective
       sodipodi:type="inkscape:persp3d"
       inkscape:vp_x="0 : 16 : 1"
       inkscape:vp_y="0 : 1000 : 0"
       inkscape:vp_z="32 : 16 : 1"
       inkscape:persp3d-origin="16 : 10.666667 : 1"
       id="perspective2836" />
    <inkscape:perspective
       id="perspective2899"
       inkscape:persp3d-origin="0.5 : 0.33333333 : 1"
       inkscape:vp_z="1 : 0.5 : 1"
       inkscape:vp_y="0 : 1000 : 0"
       inkscape:vp_x="0 : 0.5 : 1"
       sodipodi:type="inkscape:persp3d" />
    <inkscape:perspective
       id="perspective3072"
       inkscape:persp3d-origin="0.5 : 0.33333333 : 1"
       inkscape:vp_z="1 : 0.5 : 1"
       inkscape:vp_y="0 : 1000 : 0"
       inkscape:vp_x="0 : 0.5 : 1"
       sodipodi:type="inkscape:persp3d" />
    <inkscape:perspective
       id="perspective3081"
       inkscape:persp3d-origin="0.5 : 0.33333333 : 1"
       inkscape:vp_z="1 : 0.5 : 1"
       inkscape:vp_y="0 : 1000 : 0"
       inkscape:vp_x="0 : 0.5 : 1"
       sodipodi:type="inkscape:persp3d" />
  </defs>
  <sodipodi:namedview
     id="base"
     pagecolor="#ffffff"
     bordercolor="#666666"
     borderopacity="1.0"
     inkscape:pageopacity="0.0"
     inkscape:pageshadow="2"
     inkscape:zoom="8.3239269"
     inkscape:cx="48"
     inkscape:cy="43.194576"
     inkscape:current-layer="layer1"
     showgrid="true"
     inkscape:grid-bbox="true"
     inkscape:document-units="px"
     objecttolerance="4"
     gridtolerance="4"
     guidetolerance="4"
     inkscape:window-width="1600"
     inkscape:window-height="840"
     inkscape:window-x="0"
     inkscape:window-y="0"
     inkscape:object-paths="true"
     inkscape:object-nodes="true"
     inkscape:snap-bbox="true"
     inkscape:snap-guide="true"
     showguides="true"
     inkscape:guide-bbox="true"
     inkscape:window-maximized="1">
    <inkscape:grid
       type="xygrid"
       id="grid3515"
       units="px"
       visible="true"
       enabled="true"
       spacingx="1px"
       spacingy="1px"
       empspacing="4"
       snapvisiblegridlinesonly="true" />
    <sodipodi:guide
       orientation="1,0"
       position="32,64"
       id="guide2868" />
    <sodipodi:guide
       orientation="0,1"
       position="0,32"
       id="guide2870" />
    <sodipodi:guide
       orientation="0,1"
       position="0,64"
       id="guide2874" />
    <sodipodi:guide
       orientation="1,0"
       position="64,64"
       id="guide2876" />
  </sodipodi:namedview>
  <metadata
     id="metadata3510">
    <rdf:RDF>
      <cc:Work
         rdf:about="">
        <dc:format>image/svg+xml</dc:format>
        <dc:type
           rdf:resource="http://purl.org/dc/dcmitype/StillImage" />
        <dc:title />
        <dc:date>2010-08-08</dc:date>
        <dc:creator>
          <cc:Agent>
            <dc:title>Andreas Neudecker &lt;zapyon@gmx.net&gt;</dc:title>
          </cc:Agent>
        </dc:creator>
        <dc:rights>
          <cc:Agent>
            <dc:title>Copyright (C) 2010 by Andreas Neudecker</dc:title>
          </cc:Agent>
        </dc:rights>
        <dc:publisher>
          <cc:Agent>
            <dc:title>Andreas Neudecker</dc:title>
          </cc:Agent>
        </dc:publisher>
        <dc:identifier>bomb-explosion-03</dc:identifier>
        <dc:description>Explosion of a bomb for McMinos</dc:description>
      </cc:Work>
    </rdf:RDF>
  </metadata>
  <g
     id="layer1"
     inkscape:label="Layer 1"
     inkscape:groupmode="layer"
     transform="translate(0,64)">
    <path
       style="fill:#c0c0c0;fill-opacity:0.50196078;fill-rule:nonzero;stroke:none"
       d="m 39.434426,-61.442623 c -12.516945,0 -22.663934,10.146989 -22.663934,22.663934 0,3.289536 0.722608,6.406461 1.983094,9.227459 C 12.861019,-25.45854 9,-18.65241 9,-10.934426 c 0,10.64965952 7.339992,19.5878218 17.240779,22.016393 4.038188,6.233402 11.041424,10.360656 19.021516,10.360656 4.399814,0 8.50312,-1.270342 11.979508,-3.440062 C 59.755474,18.963927 62.484414,19.5 65.336066,19.5 77.853011,19.5 88,9.3530108 88,-3.1639344 c 0,-4.6091488 -1.400375,-8.8870376 -3.763832,-12.4651636 1.169207,-2.733661 1.821209,-5.742393 1.821209,-8.903689 0,-12.516945 -10.146989,-22.663934 -22.663934,-22.663934 -0.964197,0 -1.900476,0.08549 -2.832992,0.202356 -3.289748,-8.456529 -11.506159,-14.448258 -21.126025,-14.448258 z"
       id="path2832" />
    <path
       style="fill:#000000;fill-opacity:1;fill-rule:nonzero;stroke:none"
       d="m 46,-28 -1,0 0,1 0,4 0,1 1,0 0.21875,0 C 42.023398,-20.284865 39,-16.301337 39,-11.5 39,-5.1629367 44.162937,3e-7 50.5,3e-7 56.837063,3e-7 62,-5.1629367 62,-11.5 62,-16.301337 58.976602,-20.284865 54.78125,-22 L 55,-22 l 1,0 0,-1 0,-4 0,-1 -1,0 -9,0 z"
       id="path3196"
       sodipodi:nodetypes="cccccccssscccccccc" />
    <path
       sodipodi:type="arc"
       style="fill:#808080;fill-opacity:1;fill-rule:nonzero;stroke:none"
       id="path2394"
       sodipodi:cx="19.5"
       sodipodi:cy="21.5"
       sodipodi:rx="10.5"
       sodipodi:ry="10.5"
       d="M 30,21.5 C 30,27.29899 25.29899,32 19.5,32 13.70101,32 9,27.29899 9,21.5 9,15.70101 13.70101,11 19.5,11 25.29899,11 30,15.70101 30,21.5 z"
       transform="translate(31,-33)" />
    <rect
       style="fill:#909090;fill-opacity:1;fill-rule:nonzero;stroke:none"
       id="rect2398"
       width="5"
       height="2"
       x="48"
       y="-23" />
    <rect
       style="fill:#909090;fill-opacity:1;fill-rule:nonzero;stroke:none"
       id="rect2400"
       width="9"
       height="4"
       x="46"
       y="-27" />
    <path
       style="fill:#606060;fill-opacity:1;fill-rule:nonzero;stroke:none"
       d="m 43.075379,-18.924621 c -4.098391,4.098391 -4.098391,10.7508513 0,14.8492423 4.098391,4.098391 10.750851,4.098391 14.849242,0 -2.537098,2.537099 -7.922424,1.269964 -12.020815,-2.828427 -4.09839,-4.0983923 -5.365527,-9.4837163 -2.828427,-12.0208153 z"
       id="path3179"
       inkscape:transform-center-y="1.5368963"
       inkscape:transform-center-x="1.5368965" />
    <path
       style="fill:#606060;fill-opacity:1;fill-rule:nonzero;stroke:none"
       d="m 48,-23 0,2 2,0 -1,-2 -1,0 z"
       id="path3190" />
    <path
       inkscape:transform-center-y="-1.5368969"
       id="path3184"
       d="m 57.924621,-4.0753787 c 4.098391,-4.098391 4.098391,-10.7508513 0,-14.8492423 -4.098391,-4.098391 -10.750851,-4.098391 -14.849242,0 2.537098,-2.537099 7.922424,-1.269964 12.020815,2.828427 4.09839,4.098392 5.365526,9.4837163 2.828427,12.0208153 z"
       style="fill:#909090;fill-opacity:1;fill-rule:nonzero;stroke:none"
       inkscape:transform-center-x="-1.536897" />
    <path
       style="fill:#606060;fill-opacity:1;fill-rule:nonzero;stroke:none"
       d="m 46,-27 0,4 4,0 -2,-4 -2,0 z"
       id="path3186" />
    <rect
       style="fill:#606060;fill-opacity:1;fill-rule:nonzero;stroke:none"
       id="rect3192"
       width="6.6747475"
       height="1"
       x="48.325253"
       y="-24" />
    <path
       style="fill:#c0c0c0;fill-opacity:1;fill-rule:nonzero;stroke:none"
       d="m 52.6875,-19.71875 -1.03125,3.875 c 1.599574,0.428604 2.758896,1.587927 3.1875,3.1875 l 3.875,-1.03125 c -0.809586,-3.021415 -3.009835,-5.221664 -6.03125,-6.03125 z"
       id="path3231" />
    <path
       transform="matrix(1.1894921,0,0,1.1011835,-8.8029531,-69.875139)"
       style="fill:#ffff00;fill-opacity:1;fill-rule:nonzero;stroke:none;stroke-width:0.87375438000000005;stroke-linecap:butt;stroke-linejoin:miter;stroke-miterlimit:4;stroke-dashoffset:0;stroke-opacity:1"
       d="M 81.381754,77.984404 54.250104,65.242438 37.665616,85.837542 38.460594,63.454582 10.763378,59.822127 30.940057,41.65985 17.488938,16.232661 41.028396,31.466452 54.479515,8.9677506 61.205075,34.394939 84.744533,41.65985 59.800216,50.893081 81.381754,77.984404 z"
       id="path3152"
       sodipodi:nodetypes="ccccccccccccc" />
    <path
       transform="matrix(0.43453686,-1.3091761,1.3091761,0.43453686,-31.963414,19.160338)"
       style="fill:#ffffff;fill-opacity:1;fill-rule:nonzero;stroke:none"
       d="M 56.178718,69.930768 44.439805,53.950729 32.87666,71.554387 34.890452,51.819327 21.360974,47.87842 35.424198,42.719626 27.955466,24.302104 42.067112,36.620412 54.45076,21.618598 51.253807,42.505657 67.709611,43.627106 52.240182,50.58952 56.178718,69.930768 z"
       id="path3926"
       sodipodi:nodetypes="ccccccccccccc" />
    <path
       style="fill:#c0c0c0;fill-opacity:0.50196078;fill-rule:nonzero;stroke:none"
       d="m 34,-38 c -9.751283,0 -17.666667,7.915384 -17.666667,17.666667 0,9.751282 7.915384,17.6666663 17.666667,17.6666663 1.292483,0 2.536497,-0.1530226 3.75,-0.4166666 -0.03792,0.4724093 -0.08333,0.934496 -0.08333,1.4166666 C 37.666667,8.084616 45.582051,16 55.333333,16 65.084616,16 73,8.084616 73,-1.6666667 c 0,-0.4392146 -0.05181,-0.8604973 -0.08333,-1.2916666 2.939445,-3.153588 4.75,-7.3905027 4.75,-12.0416667 0,-9.751283 -7.915384,-17.666667 -17.666667,-17.666667 -4.016309,0 -7.7001,1.366308 -10.666667,3.625 C 46.297544,-34.383809 40.583652,-38 34,-38 z"
       id="path3615" />
    <path
       sodipodi:type="arc"
       style="fill:#c0c0c0;fill-opacity:0.50196078;fill-rule:nonzero;stroke:none"
       id="path3878"
       sodipodi:cx="-16"
       sodipodi:cy="44"
       sodipodi:rx="8"
       sodipodi:ry="8"
       d="m -8,44 c 0,4.418278 -3.581722,8 -8,8 -4.418278,0 -8,-3.581722 -8,-8 0,-4.418278 3.581722,-8 8,-8 4.418278,0 8,3.581722 8,8 z"
       transform="translate(56,-80)" />
    <path
       style="fill:#c0c0c0;fill-opacity:0.50196078;fill-rule:nonzero;stroke:none"
       d="M 64 24 C 57.372583 24 52 29.372583 52 36 C 52 39.098074 53.197578 41.902226 55.125 44.03125 C 49.987633 44.405101 45.75331 48.028315 44.4375 52.84375 C 43.061318 52.293846 41.572466 52 40 52 C 38.578184 52 37.234399 52.264858 35.96875 52.71875 C 35.990192 52.480004 36 52.244327 36 52 C 36 47.581722 32.418278 44 28 44 C 23.581722 44 20 47.581722 20 52 C 20 56.418278 23.581722 60 28 60 C 28.244327 60 28.480004 59.990192 28.71875 59.96875 C 28.264858 61.234399 28 62.578184 28 64 C 28 70.627417 33.372583 76 40 76 C 45.529894 76 50.17197 72.245135 51.5625 67.15625 C 52.938682 67.706154 54.427534 68 56 68 C 62.627417 68 68 62.627417 68 56 C 68 52.901926 66.802422 50.097774 64.875 47.96875 C 71.089885 47.516486 76 42.33027 76 36 C 76 29.372583 70.627417 24 64 24 z "
       transform="translate(0,-64)"
       id="path3880" />
    <path
       sodipodi:type="star"
       style="fill:#ffffff;fill-opacity:1;fill-rule:nonzero;stroke:none"
       id="path4039"
       sodipodi:sides="5"
       sodipodi:cx="28.952681"
       sodipodi:cy="18.152127"
       sodipodi:r1="2.2159429"
       sodipodi:r2="1.1079715"
       sodipodi:arg1="0.39263472"
       sodipodi:arg2="1.0209533"
       inkscape:flatsided="false"
       inkscape:rounded="0"
       inkscape:randomized="0.2"
       d="m 30.644909,19.302802 -1.189217,-0.398736 -0.576974,1.723227 -0.520657,-1.415671 -1.208756,-0.663885 0.425375,-1.016245 -0.157546,-0.825539 1.284323,0.0221 1.750417,-0.279667 2.04e-4,1.232087 0.192831,1.622331 z"
       transform="translate(0,-64)" />
    <path
       sodipodi:type="star"
       style="fill:#ffffff;fill-opacity:1;fill-rule:nonzero;stroke:none"
       id="path4041"
       sodipodi:sides="5"
       sodipodi:cx="30.154037"
       sodipodi:cy="40.977892"
       sodipodi:r1="2.7379734"
       sodipodi:r2="1.3689868"
       sodipodi:arg1="0.8309049"
       sodipodi:arg2="1.4592234"
       inkscape:flatsided="false"
       inkscape:rounded="0"
       inkscape:randomized="0.2"
       d="m 31.464805,43.493151 -1.255936,-0.927741 -0.895627,0.794107 -0.60465,-1.381724 -1.27402,-1.560493 2.330878,-0.481278 0.373777,-2.13055 0.295706,2.179365 2.167589,0.409115 -1.041316,0.378582 -0.0964,2.720617 z"
       transform="translate(0,-64)" />
    <path
       sodipodi:type="star"
       style="fill:#ffe481;fill-opacity:1;fill-rule:nonzero;stroke:none"
       id="path4043"
       sodipodi:sides="5"
       sodipodi:cx="51.057632"
       sodipodi:cy="49.026978"
       sodipodi:r1="2.1971514"
       sodipodi:r2="1.0985758"
       sodipodi:arg1="-0.48636257"
       sodipodi:arg2="0.14195596"
       inkscape:flatsided="false"
       inkscape:rounded="0"
       inkscape:randomized="0.2"
       d="m 53.097393,48.056488 -1.069748,0.92545 0.559372,1.352591 -1.47931,0.05337 -0.856585,0.555175 -0.194558,-1.089581 -1.264086,-1.337636 1.776883,0.0069 -0.05746,-1.939292 0.984247,1.422204 1.601241,0.05085 z"
       transform="translate(-4.0565636,-58.853494)" />
    <path
       sodipodi:type="star"
       style="fill:#ffff00;fill-opacity:1;fill-rule:nonzero;stroke:none"
       id="path4045"
       sodipodi:sides="5"
       sodipodi:cx="66"
       sodipodi:cy="49"
       sodipodi:r1="2.8284271"
       sodipodi:r2="1.4142137"
       sodipodi:arg1="0.78539816"
       sodipodi:arg2="1.4137167"
       inkscape:flatsided="false"
       inkscape:rounded="0"
       inkscape:randomized="0.2"
       d="m 67.600901,51.453893 -1.39002,-0.930415 -0.936936,0.751463 -0.655197,-1.446503 -1.43552,-1.646483 2.167538,-0.290433 0.182654,-2.004112 0.592914,1.534669 2.591353,-0.14459 -0.884035,2.186737 -0.232751,1.989667 z"
       transform="translate(0,-64)" />
    <path
       sodipodi:type="star"
       style="fill:#ffff00;fill-opacity:1;fill-rule:nonzero;stroke:none"
       id="path4047"
       sodipodi:sides="5"
       sodipodi:cx="77.607602"
       sodipodi:cy="60.680132"
       sodipodi:r1="2.9951455"
       sodipodi:r2="1.4975729"
       sodipodi:arg1="0.64556721"
       sodipodi:arg2="1.2738857"
       inkscape:flatsided="false"
       inkscape:rounded="0"
       inkscape:randomized="0.2"
       d="m 79.419682,62.498716 -0.887876,-0.702413 -2.490423,2.079283 -0.218407,-2.163634 -1.369614,-0.797247 2.330886,-1.55998 -0.335273,-1.07321 1.546464,1.382136 2.08418,-0.968999 -1.085066,2.286286 0.425129,1.517778 z"
       transform="translate(0,-64)" />
    <path
       sodipodi:type="star"
       style="fill:#ffff00;fill-opacity:1;fill-rule:nonzero;stroke:none"
       id="path4049"
       sodipodi:sides="5"
       sodipodi:cx="70.039058"
       sodipodi:cy="23.438094"
       sodipodi:r1="2.0398604"
       sodipodi:r2="1.0199303"
       sodipodi:arg1="0.27907138"
       sodipodi:arg2="0.90738991"
       inkscape:flatsided="false"
       inkscape:rounded="0"
       inkscape:randomized="0.2"
       d="m 72.369758,23.994521 -1.871671,0.585757 -0.199413,0.991083 -0.746232,-1.070628 -1.450376,-0.494076 1.039119,-0.790537 -0.536535,-1.170382 1.700688,0.69454 1.050532,-0.974786 -0.445238,1.423126 1.459126,0.805903 z"
       transform="translate(0,-64)" />
    <path
       sodipodi:type="star"
       style="fill:#ffff00;fill-opacity:1;fill-rule:nonzero;stroke:none"
       id="path4051"
       sodipodi:sides="5"
       sodipodi:cx="24.627799"
       sodipodi:cy="64.404336"
       sodipodi:r1="2.4458439"
       sodipodi:r2="1.2229221"
       sodipodi:arg1="0.24601562"
       sodipodi:arg2="0.87433415"
       inkscape:flatsided="false"
       inkscape:rounded="0"
       inkscape:randomized="0.2"
       d="m 26.800957,65.008497 -1.384925,-0.02434 -0.400211,2.2164 -0.836719,-1.535752 -1.896566,-0.02332 1.528274,-1.831141 -0.690362,-0.966817 1.792891,0.772278 0.627252,-1.474666 0.02899,1.905517 1.231372,0.96185 z"
       transform="translate(0,-64)" />
  </g>
</svg>
