<?xml version="1.0" encoding="UTF-8" standalone="no"?>
<!-- Created with Inkscape (http://www.inkscape.org/) -->

<svg xmlns:dc="http://purl.org/dc/elements/1.1/" xmlns:cc="http://creativecommons.org/ns#" xmlns:rdf="http://www.w3.org/1999/02/22-rdf-syntax-ns#" xmlns:svg="http://www.w3.org/2000/svg" xmlns="http://www.w3.org/2000/svg" xmlns:sodipodi="http://sodipodi.sourceforge.net/DTD/sodipodi-0.dtd" xmlns:inkscape="http://www.inkscape.org/namespaces/inkscape" width="32px" height="32px" id="svg3505" sodipodi:version="0.32" inkscape:version="0.91 r13725" sodipodi:docname="00.svg" inkscape:output_extension="org.inkscape.output.svg.inkscape" version="1.1">
  <defs id="defs3507">
    <inkscape:perspective sodipodi:type="inkscape:persp3d" inkscape:vp_x="0 : 16 : 1" inkscape:vp_y="0 : 1000 : 0" inkscape:vp_z="32 : 16 : 1" inkscape:persp3d-origin="16 : 10.666667 : 1" id="perspective3513" />
    <inkscape:perspective id="perspective4690" inkscape:persp3d-origin="372.04724 : 350.78739 : 1" inkscape:vp_z="744.09448 : 526.18109 : 1" inkscape:vp_y="0 : 1000 : 0" inkscape:vp_x="0 : 526.18109 : 1" sodipodi:type="inkscape:persp3d" />
    <inkscape:perspective id="perspective2564" inkscape:persp3d-origin="372.04724 : 350.78739 : 1" inkscape:vp_z="744.09448 : 526.18109 : 1" inkscape:vp_y="0 : 1000 : 0" inkscape:vp_x="0 : 526.18109 : 1" sodipodi:type="inkscape:persp3d" />
  </defs>
  <sodipodi:namedview id="base" pagecolor="#ffffff" bordercolor="#666666" borderopacity="1.0" inkscape:pageopacity="0.0" inkscape:pageshadow="2" inkscape:zoom="22.125" inkscape:cx="16" inkscape:cy="15.779808" inkscape:current-layer="layer1" showgrid="true" inkscape:grid-bbox="true" inkscape:document-units="px" objecttolerance="4" gridtolerance="4" guidetolerance="4" inkscape:window-width="1600" inkscape:window-height="878" inkscape:window-x="0" inkscape:window-y="0" inkscape:object-paths="true" inkscape:object-nodes="true" inkscape:snap-bbox="true" inkscape:snap-guide="true" showguides="true" inkscape:guide-bbox="true" inkscape:window-maximized="1">
    <inkscape:grid type="xygrid" id="grid3515" units="px" visible="true" enabled="true" spacingx="1px" spacingy="1px" empspacing="4" />
    <sodipodi:guide orientation="-0.70710678,0.70710678" position="33.245902,33.245902" id="guide3622" />
    <sodipodi:guide orientation="0.70710678,0.70710678" position="0,32" id="guide3624" />
  </sodipodi:namedview>
  <metadata id="metadata3510">
    <rdf:RDF>
      <cc:Work rdf:about="">
        <dc:format>image/svg+xml</dc:format>
        <dc:type rdf:resource="http://purl.org/dc/dcmitype/StillImage" />
        <dc:title>Vorlage f端r 32x32-Pixel-Icons f端r McMinos</dc:title>
        <dc:date>2010-04-05</dc:date>
        <dc:creator>
          <cc:Agent>
            <dc:title>Andreas Neudecker &lt;zapyon@gmx.net&gt;</dc:title>
          </cc:Agent>
        </dc:creator>
        <dc:rights>
          <cc:Agent>
            <dc:title>Copyright (C) 2010 by Andreas Neudecker</dc:title>
          </cc:Agent>
        </dc:rights>
        <dc:publisher>
          <cc:Agent>
            <dc:title>Andreas Neudecker</dc:title>
          </cc:Agent>
        </dc:publisher>
        <dc:identifier>vorlage-32x32-mcminos</dc:identifier>
        <dc:description>Vorlage f端r 32x32-Pixel-Icons f端r McMinos. Metadaten jeweils entsprechend anpassen!</dc:description>
      </cc:Work>
    </rdf:RDF>
  </metadata>
  <g id="layer1" inkscape:label="Layer 1" inkscape:groupmode="layer">
    <g id="g15462">
      <rect y="0" x="0" height="32" width="32" id="rect15460" style="opacity:1;fill:none;fill-opacity:0.50364966;fill-rule:nonzero;stroke:none;stroke-width:2;stroke-linecap:butt;stroke-linejoin:miter;stroke-miterlimit:4;stroke-dasharray:none;stroke-dashoffset:0;stroke-opacity:1" />
      <path id="path7053" d="M 3 0 L 3 2 A 4 4 0 0 1 5.9238281 3.2792969 A 8 8 0 0 1 9.1367188 0 L 3 0 z M 16.845703 0 A 8 8 0 0 1 20.552734 4.3886719 A 8 8 0 0 1 21.619141 4.1289062 A 4 4 0 0 1 21 2 A 4 4 0 0 1 21.541016 0 L 16.845703 0 z M 28.458984 0 A 4 4 0 0 1 29 2 L 29 0 L 28.458984 0 z M 29 2 A 4 4 0 0 1 27.310547 5.2617188 A 8 8 0 0 1 29 6.7207031 L 29 2 z M 0 3 L 0 3.3613281 A 4 4 0 0 1 0.36132812 3 L 0 3 z M 0 8.6367188 L 0 8.765625 A 3 3 0 0 1 0.0625 8.7070312 A 4 4 0 0 1 0 8.6367188 z M 5.328125 9.2480469 A 4 4 0 0 1 4.6660156 9.6308594 A 3 3 0 0 1 5 11 A 3 3 0 0 1 4.1464844 13.09375 A 4 4 0 0 1 5 13 A 4 4 0 0 1 7.5742188 13.943359 A 4 4 0 0 1 8.0605469 13.292969 A 8 8 0 0 1 5.328125 9.2480469 z M 0 13.230469 L 0 19.353516 A 9 9 0 0 1 1.1699219 18.146484 A 4 4 0 0 1 1 17 A 4 4 0 0 1 2.3925781 13.970703 A 3 3 0 0 1 2 14 A 3 3 0 0 1 0 13.230469 z M 15.447266 14.611328 A 8 8 0 0 1 14.808594 14.783203 A 4 4 0 0 1 15 16 A 4 4 0 0 1 13.669922 18.972656 A 9 9 0 0 1 14.945312 20.785156 A 8 8 0 0 1 18.316406 18.474609 A 8 8 0 0 1 15.447266 14.611328 z M 29 17.277344 A 8 8 0 0 1 25.683594 19.525391 A 8 8 0 0 1 28.521484 23.304688 A 4 4 0 0 1 29 23.546875 L 29 17.277344 z M 14.261719 30.298828 A 9 9 0 0 1 12.630859 32 L 15.726562 32 A 8 8 0 0 1 14.261719 30.298828 z M 29 30.455078 A 4 4 0 0 1 27.253906 30.988281 A 8 8 0 0 1 26.28125 32 L 29 32 L 29 30.455078 z " style="fill:black;fill-opacity:1;fill-rule:nonzero;stroke:none;stroke-width:2;stroke-linecap:round;stroke-linejoin:miter;stroke-miterlimit:4;stroke-dashoffset:0;stroke-opacity:1" />
      <path id="path2570" d="M 0 8.6367188 L 0 8.765625 A 3 3 0 0 1 0.0625 8.7070312 A 4 4 0 0 1 0 8.6367188 z M 5.328125 9.2480469 A 4 4 0 0 1 4.6660156 9.6308594 A 3 3 0 0 1 5 11 A 3 3 0 0 1 4.1464844 13.09375 A 4 4 0 0 1 5 13 A 4 4 0 0 1 7.5742188 13.943359 A 4 4 0 0 1 8.0605469 13.292969 A 8 8 0 0 1 5.328125 9.2480469 z M 0 13.230469 L 0 16 L 1.1289062 16 A 4 4 0 0 1 2.3925781 13.970703 A 3 3 0 0 1 2 14 A 3 3 0 0 1 0 13.230469 z M 14.820312 14.820312 A 4 4 0 0 1 15 16 L 16 16 L 14.820312 14.820312 z " style="fill:aqua;fill-opacity:1;fill-rule:nonzero;stroke:none;stroke-width:2;stroke-linecap:round;stroke-linejoin:miter;stroke-miterlimit:4;stroke-dasharray:none;stroke-dashoffset:0;stroke-opacity:1" />
      <path id="path3342" d="M 0 16 L 0 19.353516 A 9 9 0 0 1 1.1699219 18.146484 A 4 4 0 0 1 1 17 A 4 4 0 0 1 1.1289062 16 L 0 16 z M 15 16 A 4 4 0 0 1 13.669922 18.972656 A 9 9 0 0 1 14.945312 20.785156 A 8 8 0 0 1 16 19.779297 L 16 16 L 15 16 z M 14.261719 30.298828 A 9 9 0 0 1 12.630859 32 L 15.726562 32 A 8 8 0 0 1 14.261719 30.298828 z " style="fill:blue;fill-opacity:1;fill-rule:nonzero;stroke:none;stroke-width:2;stroke-linecap:round;stroke-linejoin:miter;stroke-miterlimit:4;stroke-dasharray:none;stroke-dashoffset:0;stroke-opacity:1" />
      <path id="path3626" d="M 5.328125 9.2480469 A 4 4 0 0 1 4.6660156 9.6308594 A 3 3 0 0 1 4.8222656 10 L 5.5878906 10 A 8 8 0 0 1 5.328125 9.2480469 z M 5 11.013672 A 3 3 0 0 1 4.8203125 12.011719 L 6.7734375 12.017578 A 8 8 0 0 1 6.0976562 11.017578 L 5 11.013672 z M 4.2207031 13.009766 A 3 3 0 0 1 4.1464844 13.09375 A 4 4 0 0 1 4.7871094 13.011719 L 4.2207031 13.009766 z M 5.2578125 13.011719 A 4 4 0 0 1 7.5742188 13.943359 A 4 4 0 0 1 8.0605469 13.292969 A 8 8 0 0 1 7.7441406 13.019531 L 5.2578125 13.011719 z M 0 13.230469 L 0 14 L 2.3554688 14.005859 A 4 4 0 0 1 2.3925781 13.970703 A 3 3 0 0 1 2 14 A 3 3 0 0 1 0 13.230469 z " style="fill:#c3c3c3;fill-opacity:1;fill-rule:nonzero;stroke:none;stroke-width:2;stroke-linecap:round;stroke-linejoin:miter;stroke-miterlimit:4;stroke-dasharray:none;stroke-dashoffset:0;stroke-opacity:1" />
      <path id="path3368" d="M 0 18 L 0 19 L 0.30859375 19 A 9 9 0 0 1 1.1699219 18.146484 A 4 4 0 0 1 1.1328125 18 L 0 18 z M 14.029297 18.599609 A 4 4 0 0 1 13.669922 18.972656 A 9 9 0 0 1 14.027344 19.402344 L 14.029297 18.599609 z M 14.003906 30.632812 A 9 9 0 0 1 13 31.683594 L 13 32 L 14 32 L 14.003906 30.632812 z " style="fill:#6b6b6b;fill-opacity:1;fill-rule:nonzero;stroke:none;stroke-width:2;stroke-linecap:round;stroke-linejoin:miter;stroke-miterlimit:4;stroke-dasharray:none;stroke-dashoffset:0;stroke-opacity:1" />
      <path id="path7041" d="M 16.845703 0 A 8 8 0 0 1 20.552734 4.3886719 A 8 8 0 0 1 21.619141 4.1289062 A 4 4 0 0 1 21 2 A 4 4 0 0 1 21.541016 0 L 16.845703 0 z M 28 4.6367188 A 4 4 0 0 1 27.310547 5.2617188 A 8 8 0 0 1 28 5.7578125 L 28 4.6367188 z M 16 15.837891 L 16 19.779297 A 8 8 0 0 1 18.316406 18.474609 A 8 8 0 0 1 16 15.837891 z M 28 18.222656 A 8 8 0 0 1 25.683594 19.525391 A 8 8 0 0 1 28 22.167969 L 28 18.222656 z M 28 30.867188 A 4 4 0 0 1 27.253906 30.988281 A 8 8 0 0 1 26.28125 32 L 28 32 L 28 30.867188 z " style="fill:aqua;fill-opacity:1;fill-rule:nonzero;stroke:none;stroke-width:2;stroke-linecap:round;stroke-linejoin:miter;stroke-miterlimit:4;stroke-dasharray:none;stroke-dashoffset:0;stroke-opacity:1" />
      <path id="path7045" d="M 4 0 L 4 2.1347656 A 4 4 0 0 1 5.9238281 3.2792969 A 8 8 0 0 1 9.1367188 0 L 4 0 z M 15.447266 14.611328 A 8 8 0 0 1 14.808594 14.783203 A 4 4 0 0 1 14.820312 14.818359 L 14.820312 14.820312 L 16 16 L 16 15.837891 A 8 8 0 0 1 15.447266 14.611328 z " style="fill:blue;fill-opacity:1;fill-rule:nonzero;stroke:none;stroke-width:2;stroke-linecap:round;stroke-linejoin:miter;stroke-miterlimit:4;stroke-dasharray:none;stroke-dashoffset:0;stroke-opacity:1" />
      <path id="rect3926" d="M 16.845703 0 A 8 8 0 0 1 17 0.08203125 L 17 0 L 16.845703 0 z M 15.447266 14.611328 A 8 8 0 0 1 15 14.732422 L 15 15 L 14.867188 15 A 4 4 0 0 1 14.867188 15.001953 A 4 4 0 0 1 14.941406 15.355469 A 4 4 0 0 1 14.943359 15.361328 A 4 4 0 0 1 14.949219 15.400391 A 4 4 0 0 1 14.951172 15.419922 A 4 4 0 0 1 14.953125 15.431641 A 4 4 0 0 1 14.955078 15.443359 A 4 4 0 0 1 14.982422 15.681641 A 4 4 0 0 1 14.984375 15.695312 A 4 4 0 0 1 15 16 A 4 4 0 0 1 14.984375 16.283203 A 4 4 0 0 1 14.96875 16.458984 A 4 4 0 0 1 14.935547 16.681641 A 4 4 0 0 1 14.933594 16.697266 A 4 4 0 0 1 14.896484 16.886719 A 4 4 0 0 1 14.896484 16.888672 A 4 4 0 0 1 14.894531 16.890625 A 4 4 0 0 1 14.894531 16.892578 A 4 4 0 0 1 14.871094 16.990234 A 4 4 0 0 1 14.871094 16.994141 A 4 4 0 0 1 14.869141 17 L 15 17 L 15 20.722656 A 8 8 0 0 1 15.003906 20.716797 A 8 8 0 0 1 15.011719 20.710938 A 8 8 0 0 1 15.019531 20.703125 A 8 8 0 0 1 15.021484 20.699219 A 8 8 0 0 1 15.033203 20.685547 A 8 8 0 0 1 15.472656 20.240234 A 8 8 0 0 1 15.5625 20.148438 A 8 8 0 0 1 16.171875 19.636719 A 8 8 0 0 1 16.990234 19.095703 A 8 8 0 0 1 17 19.089844 L 17 17.271484 A 8 8 0 0 1 16.976562 17.242188 A 8 8 0 0 1 16.972656 17.236328 A 8 8 0 0 1 16.517578 16.666016 A 8 8 0 0 1 16.515625 16.664062 A 8 8 0 0 1 16.513672 16.660156 A 8 8 0 0 1 16.507812 16.650391 A 8 8 0 0 1 16.478516 16.605469 A 8 8 0 0 1 16.412109 16.505859 A 8 8 0 0 1 16.089844 16.007812 A 8 8 0 0 1 16.082031 15.996094 A 8 8 0 0 1 16.019531 15.875 A 8 8 0 0 1 16.009766 15.855469 A 8 8 0 0 1 15.984375 15.806641 A 8 8 0 0 1 15.96875 15.777344 A 8 8 0 0 1 15.724609 15.298828 A 8 8 0 0 1 15.447266 14.611328 z M 0 15 L 0 17 L 1 17 A 4 4 0 0 1 1.0175781 16.673828 A 4 4 0 0 1 1.0175781 16.667969 A 4 4 0 0 1 1.0332031 16.521484 A 4 4 0 0 1 1.0332031 16.519531 A 4 4 0 0 1 1.0351562 16.515625 A 4 4 0 0 1 1.0351562 16.511719 A 4 4 0 0 1 1.0761719 16.25 A 4 4 0 0 1 1.0976562 16.146484 A 4 4 0 0 1 1.1796875 15.835938 A 4 4 0 0 1 1.1914062 15.796875 A 4 4 0 0 1 1.1933594 15.792969 A 4 4 0 0 1 1.3066406 15.480469 A 4 4 0 0 1 1.3105469 15.46875 A 4 4 0 0 1 1.3164062 15.455078 A 4 4 0 0 1 1.3203125 15.447266 A 4 4 0 0 1 1.3242188 15.4375 A 4 4 0 0 1 1.328125 15.431641 A 4 4 0 0 1 1.3320312 15.423828 A 4 4 0 0 1 1.3320312 15.421875 A 4 4 0 0 1 1.4980469 15.083984 A 4 4 0 0 1 1.5449219 15 L 0 15 z M 15 31.265625 L 15 32 L 15.726562 32 A 8 8 0 0 1 15 31.265625 z " style="fill:#0080ff;fill-opacity:1;fill-rule:nonzero;stroke:none;stroke-width:2;stroke-linecap:round;stroke-linejoin:miter;stroke-miterlimit:4;stroke-dasharray:none;stroke-dashoffset:0;stroke-opacity:1" />
      <path id="rect4379" d="M 15 15 L 15 16 L 15 17 L 16.779297 17 A 8 8 0 0 1 15.603516 15 L 15 15 z " style="fill:#00005c;fill-opacity:1;fill-rule:nonzero;stroke:none;stroke-width:2;stroke-linecap:round;stroke-linejoin:miter;stroke-miterlimit:4;stroke-dasharray:none;stroke-dashoffset:0;stroke-opacity:1" />
      <path id="path7028" d="M 18 0 L 18 0.7734375 A 8 8 0 0 1 19 1.7246094 L 19 0 L 18 0 z M 20 0 L 20 3.1621094 A 8 8 0 0 1 20.552734 4.3886719 A 8 8 0 0 1 21 4.2675781 L 21 2 L 21 0 L 20 0 z M 18 18.220703 L 18 18.605469 A 8 8 0 0 1 18.316406 18.474609 A 8 8 0 0 1 18 18.220703 z M 27 18.910156 A 8 8 0 0 1 26 19.394531 L 26 19.779297 A 8 8 0 0 1 27 20.736328 L 27 18.910156 z M 27 31.277344 A 8 8 0 0 1 26.28125 32 L 27 32 L 27 31.277344 z " style="fill:#c3c3c3;fill-opacity:1;fill-rule:nonzero;stroke:none;stroke-width:2;stroke-linecap:round;stroke-linejoin:miter;stroke-miterlimit:4;stroke-dasharray:none;stroke-dashoffset:0;stroke-opacity:1" />
      <path id="path7034" d="M 5 0 L 5.015625 2.5527344 A 4 4 0 0 1 5.9238281 3.2792969 A 8 8 0 0 1 6.015625 3.1210938 L 6 0 L 5 0 z M 7 0 L 7.0078125 1.7226562 A 8 8 0 0 1 8.0039062 0.765625 L 8 0 L 7 0 z M 9 0 L 9 0.083984375 A 8 8 0 0 1 9.1367188 0 L 9 0 z " style="fill:#6b6b6b;fill-opacity:1;fill-rule:nonzero;stroke:none;stroke-width:2;stroke-linecap:round;stroke-linejoin:miter;stroke-miterlimit:4;stroke-dasharray:none;stroke-dashoffset:0;stroke-opacity:1" />
    </g>
    <g id="g5562">
      <rect y="0" x="36" height="32" width="32" id="rect5558" style="opacity:1;fill:blue;fill-opacity:0.50196078;fill-rule:nonzero;stroke:none;stroke-width:2;stroke-linecap:butt;stroke-linejoin:miter;stroke-miterlimit:4;stroke-dasharray:none;stroke-dashoffset:0;stroke-opacity:1" />
      <rect style="opacity:1;fill:blue;fill-opacity:0.50196078;fill-rule:nonzero;stroke:none;stroke-width:2;stroke-linecap:butt;stroke-linejoin:miter;stroke-miterlimit:4;stroke-dasharray:none;stroke-dashoffset:0;stroke-opacity:1" id="rect5560" width="26" height="26" x="39" y="3" />
    </g>
    <g id="g5575">
      <path inkscape:connector-curvature="0" id="rect5566" d="m 39,0 0,3 26,0 0,-3 -26,0 z m 26,3 0,26 3,0 0,-26 -3,0 z m 0,26 -26,0 0,3 26,0 0,-3 z m -26,0 0,-26 -3,0 0,26 3,0 z" style="opacity:1;fill:yellow;fill-opacity:0.50196078;fill-rule:nonzero;stroke:none;stroke-width:2;stroke-linecap:butt;stroke-linejoin:miter;stroke-miterlimit:4;stroke-dasharray:none;stroke-dashoffset:0;stroke-opacity:1" />
    </g>
    <circle style="opacity:1;fill:red;fill-opacity:0.50196078;fill-rule:nonzero;stroke:none;stroke-width:2;stroke-linecap:butt;stroke-linejoin:miter;stroke-miterlimit:4;stroke-dasharray:none;stroke-dashoffset:0;stroke-opacity:1" id="path4749" cx="-57" cy="26" r="8" transform="scale(-1,1)" />
    <circle style="opacity:1;fill:red;fill-opacity:0.50196078;fill-rule:nonzero;stroke:none;stroke-width:2;stroke-linecap:butt;stroke-linejoin:miter;stroke-miterlimit:4;stroke-dasharray:none;stroke-dashoffset:0;stroke-opacity:1" id="path4751" cx="-43" cy="25" r="9" transform="scale(-1,1)" />
    <circle r="8" cy="7" cx="-49" id="circle4753" style="opacity:1;fill:red;fill-opacity:0.50196078;fill-rule:nonzero;stroke:none;stroke-width:2;stroke-linecap:butt;stroke-linejoin:miter;stroke-miterlimit:4;stroke-dasharray:none;stroke-dashoffset:0;stroke-opacity:1" transform="scale(-1,1)" />
    <circle r="4" cy="27" cx="-63" id="circle4759" style="opacity:1;fill:red;fill-opacity:0.50196078;fill-rule:nonzero;stroke:none;stroke-width:2;stroke-linecap:butt;stroke-linejoin:miter;stroke-miterlimit:4;stroke-dasharray:none;stroke-dashoffset:0;stroke-opacity:1" transform="scale(-1,1)" />
    <circle style="opacity:1;fill:red;fill-opacity:0.50196078;fill-rule:nonzero;stroke:none;stroke-width:2;stroke-linecap:butt;stroke-linejoin:miter;stroke-miterlimit:4;stroke-dasharray:none;stroke-dashoffset:0;stroke-opacity:1" id="circle4761" cx="-61" cy="2" r="4" transform="scale(-1,1)" />
    <circle style="opacity:1;fill:red;fill-opacity:0.50196078;fill-rule:nonzero;stroke:none;stroke-width:2;stroke-linecap:butt;stroke-linejoin:miter;stroke-miterlimit:4;stroke-dasharray:none;stroke-dashoffset:0;stroke-opacity:1" id="circle4765" cx="-39" cy="6" r="4" transform="scale(-1,1)" />
    <circle style="opacity:1;fill:red;fill-opacity:0.50196078;fill-rule:nonzero;stroke:none;stroke-width:2;stroke-linecap:butt;stroke-linejoin:miter;stroke-miterlimit:4;stroke-dasharray:none;stroke-dashoffset:0;stroke-opacity:1" id="circle4769" cx="-47.000004" cy="16" r="4" transform="scale(-1,1)" />
    <circle style="opacity:1;fill:red;fill-opacity:0.50196078;fill-rule:nonzero;stroke:none;stroke-width:2;stroke-linecap:butt;stroke-linejoin:miter;stroke-miterlimit:4;stroke-dasharray:none;stroke-dashoffset:0;stroke-opacity:1" id="circle4771" cx="-59" cy="12" r="8" transform="scale(-1,1)" />
    <circle transform="scale(-1,1)" r="3" cy="11" cx="-38" id="circle15373" style="opacity:1;fill:red;fill-opacity:0.50196078;fill-rule:nonzero;stroke:none;stroke-width:2;stroke-linecap:butt;stroke-linejoin:miter;stroke-miterlimit:4;stroke-dasharray:none;stroke-dashoffset:0;stroke-opacity:1" />
    <circle transform="scale(-1,1)" style="opacity:1;fill:red;fill-opacity:0.50196078;fill-rule:nonzero;stroke:none;stroke-width:2;stroke-linecap:butt;stroke-linejoin:miter;stroke-miterlimit:4;stroke-dasharray:none;stroke-dashoffset:0;stroke-opacity:1" id="circle15375" cx="-41" cy="17" r="4" />
    <path inkscape:connector-curvature="0" id="path15398" d="m -11,-2 a 4,4 0 0 0 -4,4 4,4 0 0 0 0.619141,2.1289062 8,8 0 0 0 -1.066407,0.2597657 A 8,8 0 0 0 -23,-1 8,8 0 0 0 -30.076172,3.2792969 4,4 0 0 0 -33,2 4,4 0 0 0 -37,6 4,4 0 0 0 -35.9375,8.7070312 3,3 0 0 0 -37,11 a 3,3 0 0 0 3,3 3,3 0 0 0 0.392578,-0.0293 A 4,4 0 0 0 -35,17 4,4 0 0 0 -34.830078,18.146484 9,9 0 0 0 -38,25 a 9,9 0 0 0 9,9 9,9 0 0 0 7.261719,-3.701172 A 8,8 0 0 0 -15,34 8,8 0 0 0 -8.746094,30.988281 4,4 0 0 0 -5,27 4,4 0 0 0 -7.478516,23.304688 8,8 0 0 0 -10.316406,19.525391 8,8 0 0 0 -5,12 8,8 0 0 0 -8.689453,5.2617188 4,4 0 0 0 -7,2 4,4 0 0 0 -11,-2 Z M -30.671875,9.2480469 a 8,8 0 0 0 2.732422,4.0449221 4,4 0 0 0 -0.486328,0.65039 A 4,4 0 0 0 -31,13 4,4 0 0 0 -31.853516,13.09375 3,3 0 0 0 -31,11 3,3 0 0 0 -31.333984,9.6308594 4,4 0 0 0 -30.671875,9.2480469 Z m 10.119141,5.3632811 a 8,8 0 0 0 2.86914,3.863281 8,8 0 0 0 -3.371094,2.310547 9,9 0 0 0 -1.27539,-1.8125 A 4,4 0 0 0 -21,16 a 4,4 0 0 0 -0.191406,-1.216797 8,8 0 0 0 0.638672,-0.171875 z" style="opacity:1;fill:red;fill-opacity:0.50196078;fill-rule:nonzero;stroke:none;stroke-width:2;stroke-linecap:butt;stroke-linejoin:miter;stroke-miterlimit:4;stroke-dasharray:none;stroke-dashoffset:0;stroke-opacity:1" />
  </g>
</svg>
