<?xml version="1.0" encoding="UTF-8" standalone="no"?>
<!-- Created with Inkscape (http://www.inkscape.org/) -->

<svg xmlns:dc="http://purl.org/dc/elements/1.1/" xmlns:cc="http://creativecommons.org/ns#" xmlns:rdf="http://www.w3.org/1999/02/22-rdf-syntax-ns#" xmlns:svg="http://www.w3.org/2000/svg" xmlns="http://www.w3.org/2000/svg" xmlns:sodipodi="http://sodipodi.sourceforge.net/DTD/sodipodi-0.dtd" xmlns:inkscape="http://www.inkscape.org/namespaces/inkscape" width="32" height="32" id="svg4150" version="1.1" inkscape:version="0.91 r13725" viewBox="0 0 32 32" sodipodi:docname="00.svg">
  <defs id="defs4152" />
  <sodipodi:namedview id="base" pagecolor="#ffffff" bordercolor="#666666" borderopacity="1.0" inkscape:pageopacity="0.0" inkscape:pageshadow="2" inkscape:zoom="22.125" inkscape:cx="16" inkscape:cy="16" inkscape:current-layer="layer1" showgrid="true" inkscape:grid-bbox="true" inkscape:document-units="px" objecttolerance="10000" inkscape:snap-perpendicular="true" guidetolerance="10000" inkscape:window-width="1600" inkscape:window-height="878" inkscape:window-x="0" inkscape:window-y="0" inkscape:window-maximized="1" showguides="true" inkscape:guide-bbox="true" gridtolerance="10000" inkscape:snap-tangential="true">
    <inkscape:grid type="xygrid" id="grid4698" empspacing="4" />
    <sodipodi:guide position="16,32" orientation="1,0" id="guide4769" />
    <sodipodi:guide position="-4,16" orientation="0,1" id="guide4771" />
    <sodipodi:guide position="16,16" orientation="-0.70710678,0.70710678" id="guide4773" />
    <sodipodi:guide position="16,16" orientation="0.70710678,0.70710678" id="guide4775" />
  </sodipodi:namedview>
  <metadata id="metadata4155">
    <rdf:RDF>
      <cc:Work rdf:about="">
        <dc:format>image/svg+xml</dc:format>
        <dc:type rdf:resource="http://purl.org/dc/dcmitype/StillImage" />
        <dc:title></dc:title>
      </cc:Work>
    </rdf:RDF>
  </metadata>
  <g id="layer1" inkscape:label="Layer 1" inkscape:groupmode="layer">
    <rect style="fill:white;fill-opacity:1;fill-rule:nonzero;stroke:none" id="rect5494" width="32" height="31.999994" x="-32" y="0" transform="scale(-1,1)" />
    <g id="g3228" transform="matrix(-1,0,0,1,32,0)">
      <path inkscape:connector-curvature="0" id="rect5481" d="M 0,0 0,32 32,32 32,0 0,0 Z M 1,1 31,1 31,31 1,31 1,1 Z" style="fill:white;fill-opacity:1;fill-rule:nonzero;stroke:none" />
    </g>
    <path inkscape:connector-curvature="0" style="fill:black;fill-opacity:1;fill-rule:nonzero;stroke:none" d="M 31,1 31,31 1,31 1,1 31,1 Z M 30,2 2,2 2,30 30,30 30,2 Z" id="rect2448" sodipodi:nodetypes="cccccccccc" />
    <path inkscape:connector-curvature="0" style="fill:black;fill-opacity:1;fill-rule:nonzero;stroke:none" d="m 11.793895,11.520537 c 0.808038,-0.216513 1.639557,0.263566 1.85607,1.071604 0.216513,0.808038 -0.263564,1.639559 -1.071602,1.856072 -0.183567,0.04918 -0.364453,0.06581 -0.542957,0.04742 0.0069,0.0029 0.01262,0.0081 0.01934,0.01116 0.0069,0.0034 0.01253,0.0076 0.01934,0.01116 0.0602,0.02991 0.112082,0.07451 0.162844,0.119797 0.009,0.0086 0.01478,0.01732 0.02343,0.02641 0.03487,0.03409 0.08066,0.0604 0.108932,0.101556 0.04165,0.06065 0.06148,0.122256 0.08361,0.190056 l 0.77264,1.541683 1.629086,-0.812404 c 0.245949,-0.144202 0.549053,-0.136439 0.78912,0.01736 0.240066,0.153795 0.380875,0.4226 0.352686,0.706309 -0.02819,0.28371 -0.217638,0.532577 -0.483274,0.636128 l -2.308984,1.14167 c -0.37558,0.180432 -0.826376,0.0238 -1.009164,-0.350633 l -0.507652,-1.040678 -1.183229,2.049413 1.958645,0.112563 c 0.404026,0.01755 0.723084,0.349254 0.724921,0.753657 l 0.03504,2.082528 c 0.005,0.422884 -0.333764,0.769753 -0.756648,0.774752 -0.422885,0.005 -0.769753,-0.333765 -0.774752,-0.756649 L 11.668338,20.444822 9.6557762,20.31402 7.7469831,23.620147 C 7.5373755,23.983205 7.0731468,24.107595 6.7100972,23.897988 6.3470479,23.688382 6.2226582,23.224153 6.4322647,22.861102 L 10.160551,16.40352 9.1999078,16.660924 7.3067925,18.622718 C 7.0179273,18.92577 6.5380838,18.937271 6.2350319,18.648405 5.9319801,18.359541 5.9204787,17.879697 6.2093438,17.576645 l 2.0474953,-2.117561 c 0.096122,-0.100689 0.2181175,-0.172962 0.3526069,-0.208882 l 2.775192,-0.743611 c 0.05073,-0.02555 0.1074,-0.04643 0.163644,-0.0602 0.06045,-0.01442 0.115978,-0.01485 0.175903,-0.01445 -0.474878,-0.151907 -0.863332,-0.538298 -1.001874,-1.05534 -0.216513,-0.808037 0.263566,-1.639558 1.071605,-1.856071 z" id="path2416" sodipodi:nodetypes="csssssssscccssccccccccsccccsccccsccccscsc" />
    <path inkscape:connector-curvature="0" style="fill:black;fill-opacity:1;fill-rule:nonzero;stroke:none" d="M 29,3 29,29 3,29 3,3 29,3 Z M 28,4 4,4 4,28 28,28 28,4 Z" id="rect3222" sodipodi:nodetypes="cccccccccc" />
    <path style="opacity:1;fill:black;fill-opacity:1;fill-rule:nonzero;stroke:none;stroke-width:2;stroke-linecap:butt;stroke-linejoin:miter;stroke-miterlimit:4;stroke-dasharray:none;stroke-dashoffset:0;stroke-opacity:1" d="M 17 19 L 17 21 L 14 21 L 14 23 L 11 23 L 11 25 L 5 25 L 5 26 L 12 26 L 12 25.998047 L 12 25 L 12 24 L 15 24 L 15 22 L 18 22 L 18 20 L 26 20 L 26 19 L 17 19 z " id="path5533" />
    <path style="opacity:1;fill:black;fill-opacity:1;fill-rule:nonzero;stroke:none;stroke-width:2;stroke-linecap:butt;stroke-linejoin:miter;stroke-miterlimit:4;stroke-dasharray:none;stroke-dashoffset:0;stroke-opacity:1" d="M 18.000257,6.0002573 18,20 l 9,0.125 2.57e-4,-14.124228 z m 1,1 6.979253,0.021262 L 26,19.125 19,19 Z" id="rect5535" inkscape:connector-curvature="0" sodipodi:nodetypes="cccccccccc" />
    <path style="opacity:1;fill:black;fill-opacity:1;fill-rule:nonzero;stroke:none;stroke-width:2;stroke-linecap:butt;stroke-linejoin:miter;stroke-miterlimit:4;stroke-dasharray:none;stroke-dashoffset:0;stroke-opacity:1" d="m 18.99998,6.9986733 3.998394,0.978666 0.0013,10.0332577 -3.999824,0.991301 z" id="path5540" inkscape:connector-curvature="0" sodipodi:nodetypes="ccccc" />
  </g>
</svg>
