<?xml version="1.0" encoding="UTF-8" standalone="no"?>
<!-- Created with Inkscape (http://www.inkscape.org/) -->

<svg
   xmlns:dc="http://purl.org/dc/elements/1.1/"
   xmlns:cc="http://creativecommons.org/ns#"
   xmlns:rdf="http://www.w3.org/1999/02/22-rdf-syntax-ns#"
   xmlns:svg="http://www.w3.org/2000/svg"
   xmlns="http://www.w3.org/2000/svg"
   xmlns:sodipodi="http://sodipodi.sourceforge.net/DTD/sodipodi-0.dtd"
   xmlns:inkscape="http://www.inkscape.org/namespaces/inkscape"
   width="32"
   height="32"
   id="svg2"
   version="1.1"
   inkscape:version="0.48.5 r10040"
   sodipodi:docname="Neues Dokument 1">
  <defs
     id="defs4">
    <inkscape:perspective
       sodipodi:type="inkscape:persp3d"
       inkscape:vp_x="0 : 526.18109 : 1"
       inkscape:vp_y="0 : 1000 : 0"
       inkscape:vp_z="744.09448 : 526.18109 : 1"
       inkscape:persp3d-origin="372.04724 : 350.78739 : 1"
       id="perspective10" />
  </defs>
  <sodipodi:namedview
     id="base"
     pagecolor="#ffffff"
     bordercolor="#666666"
     borderopacity="1.0"
     inkscape:pageopacity="0.0"
     inkscape:pageshadow="2"
     inkscape:zoom="16.375"
     inkscape:cx="16"
     inkscape:cy="16"
     inkscape:document-units="mm"
     inkscape:current-layer="layer1"
     showgrid="true"
     units="mm"
     objecttolerance="10000"
     gridtolerance="10000"
     guidetolerance="10000"
     inkscape:window-width="1024"
     inkscape:window-height="741"
     inkscape:window-x="0"
     inkscape:window-y="2"
     inkscape:window-maximized="1"
     showguides="true"
     inkscape:guide-bbox="true">
    <inkscape:grid
       type="xygrid"
       id="grid2983"
       empspacing="4"
       visible="true"
       enabled="true"
       snapvisiblegridlinesonly="true" />
    <sodipodi:guide
       orientation="1,0"
       position="8,15"
       id="guide3093" />
    <sodipodi:guide
       orientation="1,0"
       position="16,36"
       id="guide3095" />
    <sodipodi:guide
       orientation="0,1"
       position="-4,16"
       id="guide3097" />
    <sodipodi:guide
       orientation="-0.70710678,0.70710678"
       position="36,36"
       id="guide3099" />
    <sodipodi:guide
       orientation="0.70710678,0.70710678"
       position="36,-4"
       id="guide3101" />
  </sodipodi:namedview>
  <metadata
     id="metadata7">
    <rdf:RDF>
      <cc:Work
         rdf:about="">
        <dc:format>image/svg+xml</dc:format>
        <dc:type
           rdf:resource="http://purl.org/dc/dcmitype/StillImage" />
        <dc:title></dc:title>
        <dc:creator>
          <cc:Agent>
            <dc:title>Andreas Neudecker &lt;zapyon@gmx.net&gt;</dc:title>
          </cc:Agent>
        </dc:creator>
        <dc:source />
      </cc:Work>
    </rdf:RDF>
  </metadata>
  <g
     inkscape:label="Ebene 1"
     inkscape:groupmode="layer"
     id="layer1"
     transform="translate(0,-1020.3622)">
    <g
       id="g3892">
      <rect
         transform="translate(0,1020.3622)"
         y="0"
         x="0"
         height="32"
         width="32"
         id="rect3890"
         style="fill:none;fill-opacity:1;stroke:none" />
      <path
         transform="translate(0,1020.3622)"
         d="M 31,16 A 15,15 0 1 1 1,16 15,15 0 1 1 31,16 z"
         sodipodi:ry="15"
         sodipodi:rx="15"
         sodipodi:cy="16"
         sodipodi:cx="16"
         id="path3105"
         style="fill:black;fill-opacity:1;stroke:none"
         sodipodi:type="arc" />
      <path
         transform="translate(0,1020.3622)"
         d="M 30,16 A 14,14 0 1 1 2,16 14,14 0 1 1 30,16 z"
         sodipodi:ry="14"
         sodipodi:rx="14"
         sodipodi:cy="16"
         sodipodi:cx="16"
         id="path3103"
         style="fill:red;fill-opacity:1;stroke:none"
         sodipodi:type="arc" />
      <path
         transform="translate(0,1020.3622)"
         d="m 14,6 a 2,2 0 1 1 -4,0 2,2 0 1 1 4,0 z"
         sodipodi:ry="2"
         sodipodi:rx="2"
         sodipodi:cy="6"
         sodipodi:cx="12"
         id="path3875"
         style="fill:black;fill-opacity:1;stroke:none"
         sodipodi:type="arc" />
      <path
         transform="translate(0,1020.3622)"
         d="m 22,6 a 2,2 0 1 1 -4,0 2,2 0 1 1 4,0 z"
         sodipodi:ry="2"
         sodipodi:rx="2"
         sodipodi:cy="6"
         sodipodi:cx="20"
         id="path3877"
         style="fill:black;fill-opacity:1;stroke:none"
         sodipodi:type="arc" />
      <path
         id="path3879"
         transform="translate(0,1020.3622)"
         d="M 4.40625 12.90625 C 3.8610634 14.940915 3.8610632 17.059085 4.40625 19.09375 C 6.1215519 25.495343 12.692157 29.309052 19.09375 27.59375 C 25.495343 25.878448 29.309052 19.307843 27.59375 12.90625 L 26.625 13.15625 C 28.19736 19.024377 24.711877 25.05264 18.84375 26.625 C 12.975623 28.19736 6.94736 24.711877 5.375 18.84375 C 4.8752454 16.978641 4.8752456 15.021359 5.375 13.15625 L 4.40625 12.90625 z "
         style="fill:black;fill-opacity:1;stroke:none" />
      <path
         transform="translate(0,1020.3622)"
         d="m 13,5.5 a 0.5,0.5 0 1 1 -1,0 0.5,0.5 0 1 1 1,0 z"
         sodipodi:ry="0.5"
         sodipodi:rx="0.5"
         sodipodi:cy="5.5"
         sodipodi:cx="12.5"
         id="path3886"
         style="fill:white;fill-opacity:1;stroke:none"
         sodipodi:type="arc" />
      <path
         sodipodi:type="arc"
         style="fill:white;fill-opacity:1;stroke:none"
         id="path3888"
         sodipodi:cx="12.5"
         sodipodi:cy="5.5"
         sodipodi:rx="0.5"
         sodipodi:ry="0.5"
         d="m 13,5.5 a 0.5,0.5 0 1 1 -1,0 0.5,0.5 0 1 1 1,0 z"
         transform="translate(8,1020.3622)" />
    </g>
  </g>
</svg>
