<?xml version="1.0" encoding="UTF-8" standalone="no"?>
<!-- Created with Inkscape (http://www.inkscape.org/) -->

<svg xmlns:dc="http://purl.org/dc/elements/1.1/" xmlns:cc="http://creativecommons.org/ns#" xmlns:rdf="http://www.w3.org/1999/02/22-rdf-syntax-ns#" xmlns:svg="http://www.w3.org/2000/svg" xmlns="http://www.w3.org/2000/svg" xmlns:sodipodi="http://sodipodi.sourceforge.net/DTD/sodipodi-0.dtd" xmlns:inkscape="http://www.inkscape.org/namespaces/inkscape" width="32" height="32" id="svg3505" sodipodi:version="0.32" inkscape:version="0.91 r13725" sodipodi:docname="00.svg" inkscape:output_extension="org.inkscape.output.svg.inkscape" version="1.1" viewBox="0 0 32 32">
  <defs id="defs3507">
    <inkscape:perspective sodipodi:type="inkscape:persp3d" inkscape:vp_x="0 : 16 : 1" inkscape:vp_y="0 : 1000 : 0" inkscape:vp_z="32 : 16 : 1" inkscape:persp3d-origin="16 : 10.666667 : 1" id="perspective2836" />
    <inkscape:perspective id="perspective2899" inkscape:persp3d-origin="0.5 : 0.33333333 : 1" inkscape:vp_z="1 : 0.5 : 1" inkscape:vp_y="0 : 1000 : 0" inkscape:vp_x="0 : 0.5 : 1" sodipodi:type="inkscape:persp3d" />
    <inkscape:perspective id="perspective3072" inkscape:persp3d-origin="0.5 : 0.33333333 : 1" inkscape:vp_z="1 : 0.5 : 1" inkscape:vp_y="0 : 1000 : 0" inkscape:vp_x="0 : 0.5 : 1" sodipodi:type="inkscape:persp3d" />
  </defs>
  <sodipodi:namedview id="base" pagecolor="#ffffff" bordercolor="#666666" borderopacity="1.0" inkscape:pageopacity="0.0" inkscape:pageshadow="2" inkscape:zoom="22.125" inkscape:cx="16" inkscape:cy="16" inkscape:current-layer="layer1" showgrid="true" inkscape:grid-bbox="true" inkscape:document-units="px" objecttolerance="10" gridtolerance="10" guidetolerance="10" inkscape:window-width="1600" inkscape:window-height="878" inkscape:window-x="0" inkscape:window-y="0" inkscape:object-paths="true" inkscape:object-nodes="true" inkscape:snap-bbox="true" inkscape:snap-guide="true" showguides="true" inkscape:guide-bbox="true" inkscape:window-maximized="1">
    <inkscape:grid type="xygrid" id="grid3515" units="px" visible="true" enabled="true" spacingx="1px" spacingy="1px" empspacing="4" snapvisiblegridlinesonly="true" />
  </sodipodi:namedview>
  <metadata id="metadata3510">
    <rdf:RDF>
      <cc:Work rdf:about="">
        <dc:format>image/svg+xml</dc:format>
        <dc:type rdf:resource="http://purl.org/dc/dcmitype/StillImage" />
        <dc:title></dc:title>
        <dc:date>2015-09-03</dc:date>
        <dc:creator>
          <cc:Agent>
            <dc:title>Andreas Neudecker &lt;zapyon@gmx.net&gt;</dc:title>
          </cc:Agent>
        </dc:creator>
        <dc:rights>
          <cc:Agent>
            <dc:title>Copyright (C) 2010-2015 by Andreas Neudecker</dc:title>
          </cc:Agent>
        </dc:rights>
        <dc:publisher>
          <cc:Agent>
            <dc:title>Andreas Neudecker</dc:title>
          </cc:Agent>
        </dc:publisher>
        <dc:identifier>__empty__</dc:identifier>
        <dc:description>Template for McMinos SVG icons at a base size of 32x32 pixels.</dc:description>
      </cc:Work>
    </rdf:RDF>
  </metadata>
  <g id="layer1" inkscape:label="Layer 1" inkscape:groupmode="layer">
    <g id="g5441">
      <rect y="0" x="0" height="32" width="32" id="rect5439" style="opacity:1;fill:none;fill-opacity:1;fill-rule:nonzero;stroke:none;stroke-width:2;stroke-linecap:butt;stroke-linejoin:miter;stroke-miterlimit:4;stroke-dasharray:none;stroke-dashoffset:0;stroke-opacity:1" />
      <path inkscape:connector-curvature="0" sodipodi:nodetypes="czzzcc" id="path5431" d="m 8,18 c -1.002087,0 -1.526652,-0.203136 -2,-0.587879 -0.473348,-0.384743 -0.888668,-1.276783 -1,-2 -0.111331,-0.723218 -0.293764,-2.915551 0.353536,-4 C 6.000835,10.327672 7.274012,8.9163418 8.455037,7.8053868 9.870053,6.5497248 13,2.4121208 13,2.4121208" style="fill:none;fill-opacity:1;fill-rule:nonzero;stroke:black;stroke-width:2;stroke-linecap:round;stroke-linejoin:round;stroke-miterlimit:4;stroke-dasharray:none;stroke-dashoffset:0;stroke-opacity:0.25098041" />
      <path id="ellipse5400" d="M 8 12 A 2 6 0 0 0 6 18 A 2 6 0 0 0 8 24 L 28 24 A 2 6 0 0 0 30 18 A 2 6 0 0 0 28 12 L 8 12 z " style="opacity:1;fill:#d07070;fill-opacity:1;fill-rule:nonzero;stroke:black;stroke-width:2;stroke-linecap:butt;stroke-linejoin:miter;stroke-miterlimit:4;stroke-dasharray:none;stroke-dashoffset:0;stroke-opacity:1" />
      <ellipse ry="6" rx="2" cy="17.999998" cx="8" id="path4715" style="opacity:1;fill:#d07070;fill-opacity:1;fill-rule:nonzero;stroke:none;stroke-width:2;stroke-linecap:butt;stroke-linejoin:miter;stroke-miterlimit:4;stroke-dasharray:none;stroke-dashoffset:0;stroke-opacity:1" />
      <path inkscape:connector-curvature="0" id="ellipse4717" d="M 8.0000002,12 A 2,6 0 0 1 10,18 2,6 0 0 1 8.0000002,24 l 20.0000008,0 a 2,6 0 0 0 2,-6 2,6 0 0 0 -2,-6 L 8.0000002,12 Z" style="opacity:1;fill:#c04040;fill-opacity:1;fill-rule:nonzero;stroke:none;stroke-width:2;stroke-linecap:butt;stroke-linejoin:miter;stroke-miterlimit:4;stroke-dasharray:none;stroke-dashoffset:0;stroke-opacity:1" />
      <ellipse style="opacity:1;fill:maroon;fill-opacity:1;fill-rule:nonzero;stroke:none;stroke-width:2;stroke-linecap:butt;stroke-linejoin:miter;stroke-miterlimit:4;stroke-dasharray:none;stroke-dashoffset:0;stroke-opacity:1" id="ellipse4726" cx="8" cy="17.999998" rx="0.33438107" ry="1.0031432" />
      <path style="fill:none;fill-opacity:1;fill-rule:nonzero;stroke:#e00000;stroke-width:1;stroke-linecap:round;stroke-linejoin:round;stroke-miterlimit:4;stroke-dasharray:none;stroke-dashoffset:0;stroke-opacity:1" d="m 8,18 c -1.002087,0 -1.526652,-0.203136 -2,-0.587879 -0.473348,-0.384743 -0.888668,-1.276783 -1,-2 -0.111331,-0.723218 -0.293764,-2.915551 0.353536,-4 C 6.000835,10.327672 7.274012,8.9163418 8.455037,7.8053868 9.870053,6.5497248 13,2.4121208 13,2.4121208" id="path2402" sodipodi:nodetypes="czzzcc" inkscape:connector-curvature="0" />
      <path id="path5405" d="M 9.7304688 21 A 2 6 0 0 1 8 24 L 28 24 A 2 6 0 0 0 29.730469 21 L 9.7304688 21 z " style="opacity:1;fill:#8a2e2e;fill-opacity:1;fill-rule:nonzero;stroke:none;stroke-width:2;stroke-linecap:butt;stroke-linejoin:miter;stroke-miterlimit:4;stroke-dasharray:none;stroke-dashoffset:0;stroke-opacity:1" />
      <path id="rect5411" d="M 8 12 A 2 6 0 0 1 9.4882812 14 L 29.488281 14 A 2 6 0 0 0 28 12 L 8 12 z " style="opacity:1;fill:#da8e8e;fill-opacity:1;fill-rule:nonzero;stroke:none;stroke-width:2;stroke-linecap:butt;stroke-linejoin:miter;stroke-miterlimit:4;stroke-dasharray:none;stroke-dashoffset:0;stroke-opacity:1" />
      <path id="path5416" d="M 9.0996094 13 A 2 6 0 0 1 9.4882812 14 L 29.488281 14 A 2 6 0 0 0 29.097656 13 L 9.0996094 13 z " style="opacity:1;fill:#d07070;fill-opacity:1;fill-rule:nonzero;stroke:none;stroke-width:2;stroke-linecap:butt;stroke-linejoin:miter;stroke-miterlimit:4;stroke-dasharray:none;stroke-dashoffset:0;stroke-opacity:1" />
      <path id="rect5425" d="M 8.0214844 17 A 0.33438107 1.0031432 0 0 1 8.3339844 18 A 0.33438107 1.0031432 0 0 1 8.0234375 19 L 9 19 L 9 17 L 8.0214844 17 z " style="opacity:1;fill:#d07070;fill-opacity:1;fill-rule:nonzero;stroke:none;stroke-width:2;stroke-linecap:butt;stroke-linejoin:miter;stroke-miterlimit:4;stroke-dasharray:none;stroke-dashoffset:0;stroke-opacity:1" />
      <path id="path5433" d="M 9.0996094 23 A 2 6 0 0 1 8 24 L 28 24 A 2 6 0 0 0 29.101562 23 L 9.0996094 23 z " style="opacity:1;fill:#602020;fill-opacity:1;fill-rule:nonzero;stroke:none;stroke-width:2;stroke-linecap:butt;stroke-linejoin:miter;stroke-miterlimit:4;stroke-dasharray:none;stroke-dashoffset:0;stroke-opacity:1" />
    </g>
  </g>
</svg>
