<?xml version="1.0" encoding="UTF-8" standalone="no"?>
<!-- Created with Inkscape (http://www.inkscape.org/) -->

<svg xmlns:dc="http://purl.org/dc/elements/1.1/" xmlns:cc="http://creativecommons.org/ns#" xmlns:rdf="http://www.w3.org/1999/02/22-rdf-syntax-ns#" xmlns:svg="http://www.w3.org/2000/svg" xmlns="http://www.w3.org/2000/svg" xmlns:xlink="http://www.w3.org/1999/xlink" xmlns:sodipodi="http://sodipodi.sourceforge.net/DTD/sodipodi-0.dtd" xmlns:inkscape="http://www.inkscape.org/namespaces/inkscape" width="32" height="32" id="svg4150" version="1.1" inkscape:version="0.91 r13725" viewBox="0 0 32 32" sodipodi:docname="00.svg">
  <defs id="defs4152" />
  <sodipodi:namedview id="base" pagecolor="#ffffff" bordercolor="#666666" borderopacity="1.0" inkscape:pageopacity="0.0" inkscape:pageshadow="2" inkscape:zoom="22.125" inkscape:cx="25.129944" inkscape:cy="16" inkscape:current-layer="layer1" showgrid="true" inkscape:grid-bbox="true" inkscape:document-units="px" objecttolerance="10000" inkscape:snap-perpendicular="true" guidetolerance="10000" inkscape:window-width="1600" inkscape:window-height="878" inkscape:window-x="0" inkscape:window-y="0" inkscape:window-maximized="1" showguides="true" inkscape:guide-bbox="true" inkscape:snap-path-clip="true" inkscape:snap-path-mask="true" inkscape:snap-tangential="true">
    <inkscape:grid type="xygrid" id="grid4698" empspacing="4" />
    <sodipodi:guide position="16,32" orientation="1,0" id="guide4769" />
    <sodipodi:guide position="-4,16" orientation="0,1" id="guide4771" />
    <sodipodi:guide position="16,16" orientation="-0.70710678,0.70710678" id="guide4773" />
    <sodipodi:guide position="16,16" orientation="0.70710678,0.70710678" id="guide4775" />
  </sodipodi:namedview>
  <metadata id="metadata4155">
    <rdf:RDF>
      <cc:Work rdf:about="">
        <dc:format>image/svg+xml</dc:format>
        <dc:type rdf:resource="http://purl.org/dc/dcmitype/StillImage" />
        <dc:title></dc:title>
      </cc:Work>
    </rdf:RDF>
  </metadata>
  <g id="layer1" inkscape:label="Layer 1" inkscape:groupmode="layer">
    <path style="color:black;font-style:normal;font-variant:normal;font-weight:normal;font-stretch:normal;font-size:medium;line-height:normal;font-family:sans-serif;text-indent:0;text-align:start;text-decoration:none;text-decoration-line:none;text-decoration-style:solid;text-decoration-color:black;letter-spacing:normal;word-spacing:normal;text-transform:none;direction:ltr;block-progression:tb;writing-mode:lr-tb;baseline-shift:baseline;text-anchor:start;white-space:normal;clip-rule:nonzero;display:inline;overflow:visible;visibility:visible;opacity:1;isolation:auto;mix-blend-mode:normal;color-interpolation:sRGB;color-interpolation-filters:linearRGB;solid-color:black;solid-opacity:1;fill:black;fill-opacity:1;fill-rule:nonzero;stroke:none;stroke-width:2;stroke-linecap:round;stroke-linejoin:round;stroke-miterlimit:4;stroke-dasharray:none;stroke-dashoffset:0;stroke-opacity:1;color-rendering:auto;image-rendering:auto;shape-rendering:auto;text-rendering:auto;enable-background:accumulate" d="m 15.998047,0 c -0.303178,4.1729668e-4 -0.5898,0.13834054 -0.779297,0.375 0,0 -0.968845,1.4924399 -1.615234,3.3652344 C 13.502179,3.6774573 13.444317,3.5651658 13.335938,3.5117188 12.616194,3.1567805 11.894781,3.2522413 11.222656,3.46875 10.084325,2.6996959 8.865234,2.078125 8.865234,2.078125 8.268586,1.8442335 7.609001,2.2239947 7.511719,2.8574219 c 0,0 -0.09481,1.7785486 0.28125,3.7246093 C 7.675055,6.5784712 7.570516,6.5097562 7.451172,6.5175782 6.651343,6.5700022 6.070538,7.0130855 5.595703,7.5371095 4.226439,7.4402685 2.859375,7.5117185 2.859375,7.5117185 2.225488,7.6071245 1.843758,8.2658707 2.076172,8.8632809 c 0,0 0.806815,1.5872501 2.105469,3.0839851 -0.10383,0.0559 -0.228794,0.04886 -0.328125,0.115234 -0.66814,0.446438 -0.947779,1.12046 -1.095704,1.810547 C 1.523975,14.474037 0.375,15.21875 0.375,15.21875 c -0.503106,0.399745 -0.504083,1.163423 -0.002,1.564453 0,0 1.49244,0.968845 3.365234,1.615235 -0.06222,0.100598 -0.173534,0.158093 -0.226562,0.265624 -0.354973,0.719814 -0.2613,1.441824 -0.04492,2.113282 -0.768853,1.138545 -1.390625,2.359375 -1.390625,2.359375 -0.233892,0.596648 0.14587,1.256233 0.779297,1.353515 0,0 1.779415,0.09405 3.726562,-0.283203 -0.0036,0.117914 -0.07227,0.222453 -0.06445,0.341797 0.05237,0.799095 0.494611,1.37916 1.017578,1.853516 -0.09689,1.372159 -0.02344,2.740234 -0.02344,2.740234 0.09541,0.633887 0.754152,1.015617 1.351562,0.783203 0,0 1.587201,-0.807696 3.083985,-2.107422 0.0559,0.10383 0.04886,0.228795 0.115234,0.328125 0.444905,0.665844 1.117026,0.944908 1.804688,1.09375 0.602211,1.237562 1.351562,2.386719 1.351562,2.386719 0.39973,0.501475 1.161488,0.50245 1.5625,0.002 0,0 0.970631,-1.493755 1.617188,-3.36914 0.10114,0.06276 0.157226,0.175059 0.265624,0.228515 0.719813,0.354971 1.441824,0.2613 2.113282,0.04492 1.13685,0.768304 2.355468,1.390625 2.355468,1.390625 0.596553,0.235428 1.257399,-0.143559 1.355469,-0.777344 0,0 0.0945,-1.780908 -0.283203,-3.728515 0.118651,0.0037 0.223621,0.07233 0.34375,0.06445 0.797842,-0.05229 1.37875,-0.493287 1.853516,-1.015625 1.371001,0.09663 2.738281,0.02344 2.738281,0.02344 0.633887,-0.09541 1.015617,-0.754152 0.783203,-1.351562 0,0 -0.808934,-1.587176 -2.109375,-3.083984 0.105252,-0.05646 0.231349,-0.04991 0.332031,-0.117188 0.665848,-0.444904 0.944908,-1.117026 1.09375,-1.804688 1.23587,-0.601493 2.384811,-1.347701 2.384811,-1.347701 0.503106,-0.399745 0.504083,-1.163423 0.002,-1.564453 0,0 -1.493755,-0.970631 -3.369141,-1.617187 0.0633,-0.101881 0.176612,-0.158366 0.230469,-0.267578 0.355139,-0.720152 0.259427,-1.440342 0.04297,-2.111329 0.769114,-1.138815 1.392578,-2.3593746 1.392578,-2.3593746 0.233946,-0.5973155 -0.147008,-1.2573183 -0.78125,-1.3535156 0,0 -1.7782,-0.094378 -3.724609,0.2832031 0.0037,-0.1187017 0.07234,-0.2234724 0.06445,-0.34375 -0.05237,-0.7990958 -0.494611,-1.3791601 -1.017578,-1.8535157 0.09638,-1.369844 0.02344,-2.7363281 0.02344,-2.7363281 -0.0954,-0.6339156 -0.754186,-1.0156556 -1.35161,-0.7832031 0,0 -1.585575,0.8083946 -3.082031,2.1074219 C 19.99824,4.0803538 20.004728,3.9541298 19.9375,3.8535156 19.491093,3.1854232 18.817049,2.9058184 18.126953,2.7578125 17.525932,1.5248592 16.78125,0.37695312 16.78125,0.37695312 16.591286,0.13849192 16.302924,-2.9568266e-4 15.998047,0 Z" id="path10000" inkscape:connector-curvature="0" sodipodi:nodetypes="cccsccccscccccccccsccccccccccccccsccccccccccccccscccccccccsccc" />
    <g id="g9970">
      <path inkscape:transform-center-y="-7.501725" sodipodi:nodetypes="czczc" inkscape:connector-curvature="0" id="path9724" d="m 16,16 c 0,0 2.043111,-7.412639 2,-10 -0.04311,-2.5873611 -2,-5 -2,-5 0,0 -1.956889,2.4126389 -2,5 -0.04311,2.587361 2,10 2,10 z" style="opacity:1;fill:lime;fill-opacity:1;fill-rule:nonzero;stroke:none;stroke-width:1;stroke-linecap:round;stroke-linejoin:round;stroke-miterlimit:4;stroke-dasharray:none;stroke-dashoffset:0;stroke-opacity:1" />
      <use inkscape:transform-center-x="-3.7975839" height="100%" width="100%" transform="matrix(0.8660254,0.5,-0.5,0.8660254,10.144456,-5.8561754)" id="use9726" inkscape:transform-center-y="-6.4966845" xlink:href="#path9724" y="0" x="0" />
      <use inkscape:transform-center-x="-6.4966841" height="100%" width="100%" transform="matrix(0.5,0.8660254,-0.8660254,0.5,21.8579,-5.855544)" id="use9728" inkscape:transform-center-y="-3.797584" xlink:href="#path9724" y="0" x="0" />
      <use inkscape:transform-center-x="-7.501725" height="100%" width="100%" transform="matrix(0,1,-1,0,32.001725,0.00172498)" id="use9730" xlink:href="#path9724" y="0" x="0" />
      <use inkscape:transform-center-x="-6.4966841" height="100%" width="100%" transform="matrix(-0.5,0.8660254,-0.8660254,-0.5,37.8579,10.146181)" id="use9732" inkscape:transform-center-y="3.7975839" xlink:href="#path9724" y="0" x="0" />
      <use inkscape:transform-center-x="-3.797584" height="100%" width="100%" transform="matrix(-0.8660254,0.5,-0.5,-0.8660254,37.857269,21.859625)" id="use9734" inkscape:transform-center-y="6.4966841" xlink:href="#path9724" y="0" x="0" />
      <use height="100%" width="100%" transform="matrix(-1,0,0,-1,32,32.00345)" id="use9736" inkscape:transform-center-y="7.501725" xlink:href="#path9724" y="0" x="0" />
      <use inkscape:transform-center-x="3.7975839" height="100%" width="100%" transform="matrix(-0.8660254,-0.5,0.5,-0.8660254,21.855544,37.859625)" id="use9738" inkscape:transform-center-y="6.4966841" xlink:href="#path9724" y="0" x="0" />
      <use inkscape:transform-center-x="6.4966841" height="100%" width="100%" transform="matrix(-0.5,-0.8660254,0.8660254,-0.5,10.1421,37.858994)" id="use9740" inkscape:transform-center-y="3.797584" xlink:href="#path9724" y="0" x="0" />
      <use inkscape:transform-center-x="7.501725" height="100%" width="100%" transform="matrix(0,-1,1,0,-0.00172498,32.001725)" id="use9742" xlink:href="#path9724" y="0" x="0" />
      <use inkscape:transform-center-x="6.4966844" height="100%" width="100%" transform="matrix(0.5,-0.8660254,0.8660254,0.5,-5.8579003,21.857269)" id="use9744" inkscape:transform-center-y="-3.7975839" xlink:href="#path9724" y="0" x="0" />
      <use inkscape:transform-center-x="3.797584" height="100%" width="100%" transform="matrix(0.8660254,-0.5,0.5,0.8660254,-5.857269,10.143825)" id="use9746" inkscape:transform-center-y="-6.4966841" xlink:href="#path9724" y="0" x="0" />
      <g id="g5567" transform="matrix(0.25,0,0,0.25,-35.999979,-215.09056)" inkscape:transform-center-x="37.999988">
        <path sodipodi:nodetypes="caca" id="path5569" d="m 255.99994,924.36215 c 2.75397,3.14031 1.83735,10.10276 -1.63557,12.42329 -13.30349,8.88911 -46.3644,-12.42329 -46.3644,-12.42329 0,0 37.45044,-12.02943 47.99997,0 z" inkscape:transform-center-y="6.2116532" inkscape:transform-center-x="-23.999985" style="fill:white;fill-opacity:1;fill-rule:nonzero;stroke:none" inkscape:connector-curvature="0" />
        <path sodipodi:nodetypes="caca" id="path5571" d="m 249.56917,948.36213 c 0.81485,4.09657 -3.46019,9.66792 -7.62809,9.9411 -15.96572,1.04645 -33.9411,-33.94109 -33.9411,-33.94109 0,0 38.44775,8.30744 41.56919,23.99999 z" inkscape:transform-center-y="16.970548" inkscape:transform-center-x="-20.784606" style="fill:white;fill-opacity:1;fill-rule:nonzero;stroke:none" inkscape:connector-curvature="0" />
        <path sodipodi:nodetypes="caca" id="path5573" d="m 231.99997,965.93134 c -1.3426,3.95516 -7.83057,6.64257 -11.57667,4.7952 -14.34994,-7.07661 -12.42331,-46.3644 -12.42331,-46.3644 0,0 29.143,26.41833 23.99998,41.5692 z" inkscape:transform-center-y="23.182201" inkscape:transform-center-x="-12.000011" style="fill:white;fill-opacity:1;fill-rule:nonzero;stroke:none" inkscape:connector-curvature="0" />
        <path sodipodi:nodetypes="caca" id="path5575" d="m 207.99998,972.36213 c -3.14031,2.75396 -10.10276,1.83734 -12.42329,-1.63557 -8.88911,-13.30349 12.42329,-46.3644 12.42329,-46.3644 0,0 12.02942,37.45044 0,47.99997 z" inkscape:transform-center-y="23.999994" inkscape:transform-center-x="6.2116377" style="fill:white;fill-opacity:1;fill-rule:nonzero;stroke:none" inkscape:connector-curvature="0" />
        <path sodipodi:nodetypes="caca" id="path5577" d="m 183.99999,965.93135 c -4.09657,0.81485 -9.66792,-3.46019 -9.9411,-7.62809 -1.04645,-15.96572 33.94109,-33.9411 33.94109,-33.9411 0,0 -8.30744,38.44775 -23.99999,41.56919 z" inkscape:transform-center-y="20.784607" inkscape:transform-center-x="16.970542" style="fill:white;fill-opacity:1;fill-rule:nonzero;stroke:none" inkscape:connector-curvature="0" />
        <path sodipodi:nodetypes="caca" id="path5579" d="m 166.43078,948.36214 c -3.95516,-1.3426 -6.64257,-7.83057 -4.7952,-11.57667 7.07661,-14.34994 46.3644,-12.42331 46.3644,-12.42331 0,0 -26.41833,29.143 -41.5692,23.99998 z" inkscape:transform-center-y="12.000001" inkscape:transform-center-x="23.182195" style="fill:white;fill-opacity:1;fill-rule:nonzero;stroke:none" inkscape:connector-curvature="0" />
        <path sodipodi:nodetypes="caca" id="path5581" d="m 159.99999,924.36212 c -2.75396,-3.14031 -1.83734,-10.10276 1.63557,-12.42329 13.30349,-8.88911 46.3644,12.42329 46.3644,12.42329 0,0 -37.45044,12.02942 -47.99997,0 z" inkscape:transform-center-y="-6.2116777" inkscape:transform-center-x="23.999988" style="fill:white;fill-opacity:1;fill-rule:nonzero;stroke:none" inkscape:connector-curvature="0" />
        <path sodipodi:nodetypes="caca" id="path5583" d="m 166.43079,900.36217 c -0.81485,-4.09657 3.46019,-9.66792 7.62809,-9.9411 15.96572,-1.04645 33.9411,33.94109 33.9411,33.94109 0,0 -38.44775,-8.30744 -41.56919,-23.99999 z" inkscape:transform-center-y="-16.970542" inkscape:transform-center-x="20.784581" style="fill:white;fill-opacity:1;fill-rule:nonzero;stroke:none" inkscape:connector-curvature="0" />
        <path sodipodi:nodetypes="caca" id="path5585" d="m 183.99999,882.79296 c 1.3426,-3.95516 7.83057,-6.64257 11.57667,-4.7952 14.34994,7.07661 12.42331,46.3644 12.42331,46.3644 0,0 -29.14301,-26.41833 -23.99998,-41.5692 z" inkscape:transform-center-y="-23.182195" inkscape:transform-center-x="11.999988" style="fill:white;fill-opacity:1;fill-rule:nonzero;stroke:none" inkscape:connector-curvature="0" />
        <path sodipodi:nodetypes="caca" id="path5587" d="m 207.99997,876.36223 c 3.14031,-2.75396 10.10276,-1.83734 12.42329,1.63557 8.88911,13.30349 -12.42329,46.3644 -12.42329,46.3644 0,0 -12.02942,-37.45044 0,-47.99997 z" inkscape:transform-center-y="-23.999928" inkscape:transform-center-x="-6.2116537" style="fill:white;fill-opacity:1;fill-rule:nonzero;stroke:none" inkscape:connector-curvature="0" />
        <path sodipodi:nodetypes="caca" id="path5589" d="m 231.99993,882.79304 c 4.09657,-0.81485 9.66792,3.46019 9.9411,7.62809 1.04645,15.96572 -33.94109,33.9411 -33.94109,33.9411 0,0 8.30744,-38.44775 23.99999,-41.56919 z" inkscape:transform-center-y="-20.784511" inkscape:transform-center-x="-16.970528" style="fill:white;fill-opacity:1;fill-rule:nonzero;stroke:none" inkscape:connector-curvature="0" />
        <path sodipodi:nodetypes="caca" id="path5591" d="m 249.5691,900.36222 c 3.95516,1.3426 6.64257,7.83057 4.7952,11.57667 -7.07661,14.34994 -46.3644,12.42331 -46.3644,12.42331 0,0 26.41833,-29.143 41.5692,-23.99998 z" inkscape:transform-center-y="-11.999935" inkscape:transform-center-x="-23.182141" style="fill:white;fill-opacity:1;fill-rule:nonzero;stroke:none" inkscape:connector-curvature="0" />
        <circle transform="matrix(1.2499979,0,0,1.2499979,68.000206,784.36239)" id="path5593" style="fill:yellow;fill-opacity:1;fill-rule:nonzero;stroke:none" cx="112" cy="112" r="16" />
      </g>
    </g>
  </g>
</svg>
