<?xml version="1.0" encoding="UTF-8" standalone="no"?>
<!-- Created with Inkscape (http://www.inkscape.org/) -->

<svg xmlns:dc="http://purl.org/dc/elements/1.1/" xmlns:cc="http://creativecommons.org/ns#" xmlns:rdf="http://www.w3.org/1999/02/22-rdf-syntax-ns#" xmlns:svg="http://www.w3.org/2000/svg" xmlns="http://www.w3.org/2000/svg" xmlns:sodipodi="http://sodipodi.sourceforge.net/DTD/sodipodi-0.dtd" xmlns:inkscape="http://www.inkscape.org/namespaces/inkscape" width="32px" height="32px" id="svg3505" sodipodi:version="0.32" inkscape:version="0.91 r13725" sodipodi:docname="00.svg" inkscape:output_extension="org.inkscape.output.svg.inkscape" inkscape:export-filename="/home/andreas/Dokumente/Projekte/McMinos/svg/pills/cookie-m-00-x64.png" inkscape:export-xdpi="180" inkscape:export-ydpi="180" version="1.1">
  <defs id="defs3507">
    <inkscape:perspective sodipodi:type="inkscape:persp3d" inkscape:vp_x="0 : 16 : 1" inkscape:vp_y="0 : 1000 : 0" inkscape:vp_z="32 : 16 : 1" inkscape:persp3d-origin="16 : 10.666667 : 1" id="perspective3513" />
    <inkscape:perspective id="perspective4690" inkscape:persp3d-origin="372.04724 : 350.78739 : 1" inkscape:vp_z="744.09448 : 526.18109 : 1" inkscape:vp_y="0 : 1000 : 0" inkscape:vp_x="0 : 526.18109 : 1" sodipodi:type="inkscape:persp3d" />
    <inkscape:perspective id="perspective4555" inkscape:persp3d-origin="372.04724 : 350.78739 : 1" inkscape:vp_z="744.09448 : 526.18109 : 1" inkscape:vp_y="0 : 1000 : 0" inkscape:vp_x="0 : 526.18109 : 1" sodipodi:type="inkscape:persp3d" />
    <inkscape:perspective id="perspective4596" inkscape:persp3d-origin="372.04724 : 350.78739 : 1" inkscape:vp_z="744.09448 : 526.18109 : 1" inkscape:vp_y="0 : 1000 : 0" inkscape:vp_x="0 : 526.18109 : 1" sodipodi:type="inkscape:persp3d" />
  </defs>
  <sodipodi:namedview id="base" pagecolor="#ffffff" bordercolor="#666666" borderopacity="1.0" inkscape:pageopacity="0.0" inkscape:pageshadow="2" inkscape:zoom="22.125" inkscape:cx="16" inkscape:cy="16" inkscape:current-layer="layer1" showgrid="true" inkscape:grid-bbox="true" inkscape:document-units="px" objecttolerance="4" gridtolerance="4" guidetolerance="4" inkscape:window-width="1600" inkscape:window-height="878" inkscape:window-x="0" inkscape:window-y="0" inkscape:object-paths="true" inkscape:object-nodes="true" inkscape:snap-bbox="true" inkscape:snap-guide="true" showguides="true" inkscape:guide-bbox="true" inkscape:window-maximized="1">
    <inkscape:grid type="xygrid" id="grid3515" units="px" visible="true" enabled="true" spacingx="1px" spacingy="1px" empspacing="4" />
    <sodipodi:guide orientation="1,0" position="30.5,14.811722" id="guide4618" />
  </sodipodi:namedview>
  <metadata id="metadata3510">
    <rdf:RDF>
      <cc:Work rdf:about="">
        <dc:format>image/svg+xml</dc:format>
        <dc:type rdf:resource="http://purl.org/dc/dcmitype/StillImage" />
        <dc:title>Cookie M 00</dc:title>
        <dc:date>2010-05-05</dc:date>
        <dc:creator>
          <cc:Agent>
            <dc:title>Andreas Neudecker &lt;zapyon@gmx.net&gt;</dc:title>
          </cc:Agent>
        </dc:creator>
        <dc:rights>
          <cc:Agent>
            <dc:title>Copyright (C) 2010 by Andreas Neudecker</dc:title>
          </cc:Agent>
        </dc:rights>
        <dc:publisher>
          <cc:Agent>
            <dc:title>Andreas Neudecker</dc:title>
          </cc:Agent>
        </dc:publisher>
        <dc:identifier>cookie-m-00</dc:identifier>
        <dc:description>Simple square butter cookie, the kind everyone likes. In McMinos, it is a power pill. This version has an &quot;M&quot; monogramm instead of the original's dots in the center.</dc:description>
      </cc:Work>
    </rdf:RDF>
  </metadata>
  <g id="layer1" inkscape:label="Layer 1" inkscape:groupmode="layer">
    <g id="g48341">
      <rect y="0" x="0" height="32" width="32" id="rect44218" style="opacity:1;fill:none;fill-opacity:0.1254902;fill-rule:nonzero;stroke:none;stroke-width:2;stroke-linecap:butt;stroke-linejoin:miter;stroke-miterlimit:4;stroke-dasharray:none;stroke-dashoffset:0;stroke-opacity:1" />
      <path id="path3931" d="M 5,1 C 2.8029372,1 1.0000001,2.8029372 1,5 L 1,6 C 1,6.7726441 1.3250399,7.4656783 1.8125,8 1.3250399,8.5343217 1,9.2273559 1,10 1,10.772644 1.3250399,11.465678 1.8125,12 1.3250399,12.534322 1,13.227356 1,14 1,14.772644 1.3250399,15.465678 1.8125,16 1.3250399,16.534322 1,17.227356 1,18 1,18.772644 1.3250399,19.465678 1.8125,20 1.3250399,20.534322 1,21.227356 1,22 1,22.772644 1.3250399,23.465678 1.8125,24 1.3250399,24.534322 1.0000001,25.227356 1,26 l 0,1 c 0,2.197063 1.8029373,4 4,4 l 1,0 C 6.7726441,31 7.4656783,30.67496 8,30.1875 8.5343217,30.67496 9.2273559,31 10,31 10.772644,31 11.465678,30.67496 12,30.1875 12.534322,30.67496 13.227356,31 14,31 14.772644,31 15.465678,30.67496 16,30.1875 16.534322,30.67496 17.227356,31 18,31 18.772644,31 19.465678,30.67496 20,30.1875 20.534322,30.67496 21.227356,31 22,31 22.772644,31 23.465678,30.67496 24,30.1875 24.534322,30.67496 25.227356,31 26,31 l 1,0 c 2.197063,0 4,-1.802937 4,-4 l 0,-1 C 31,25.227356 30.67496,24.534322 30.1875,24 30.67496,23.465678 31,22.772644 31,22 31,21.227356 30.67496,20.534322 30.1875,20 30.67496,19.465678 31,18.772644 31,18 31,17.227356 30.67496,16.534322 30.1875,16 30.67496,15.465678 31,14.772644 31,14 31,13.227356 30.67496,12.534322 30.1875,12 30.67496,11.465678 31,10.772644 31,10 31,9.2273559 30.67496,8.5343217 30.1875,8 30.67496,7.4656783 31,6.7726441 31,6 L 31,5 C 31,2.8029372 29.197063,1 27,1 L 26,1 C 25.227356,1 24.534322,1.3250399 24,1.8125 23.465678,1.3250399 22.772644,1 22,1 21.227356,1 20.534322,1.3250399 20,1.8125 19.465678,1.3250399 18.772644,1 18,1 17.227356,1 16.534322,1.3250399 16,1.8125 15.465678,1.3250399 14.772644,1 14,1 13.227356,1 12.534322,1.3250399 12,1.8125 11.465678,1.3250399 10.772644,1 10,1 9.2273559,1 8.5343217,1.3250399 8,1.8125 7.4656783,1.3250399 6.7726441,1 6,1 L 5,1 Z" style="fill:black;fill-opacity:1;fill-rule:nonzero;stroke:none;stroke-width:2;stroke-linecap:round;stroke-linejoin:round;stroke-miterlimit:4;stroke-dasharray:none;stroke-dashoffset:0;stroke-opacity:1" inkscape:connector-curvature="0" />
      <path id="rect3326" d="M 5,2 C 3.344,2 2.0000001,3.3439999 2,5 l 0,1 c 0,1.104 0.896,2 2,2 -1.104,0 -2,0.896 -2,2 0,1.104 0.896,2 2,2 -1.104,0 -2,0.896 -2,2 0,1.104 0.896,2 2,2 -1.104,0 -2,0.896 -2,2 0,1.104 0.896,2 2,2 -1.104,0 -2,0.896 -2,2 0,1.104 0.896,2 2,2 -1.104,0 -1.9999999,0.896 -2,2 l 0,1 c 0,1.656 1.3440001,3 3,3 l 1,0 c 1.104,0 2,-0.896 2,-2 0,1.104 0.896,2 2,2 1.104,0 2,-0.896 2,-2 0,1.104 0.896,2 2,2 1.104,0 2,-0.896 2,-2 0,1.104 0.896,2 2,2 1.104,0 2,-0.896 2,-2 0,1.104 0.896,2 2,2 1.104,0 2,-0.896 2,-2 0,1.104 0.896,2 2,2 l 1,0 c 1.656,0 3,-1.344 3,-3 l 0,-1 c 0,-1.104 -0.896,-2 -2,-2 1.104,0 2,-0.896 2,-2 0,-1.104 -0.896,-2 -2,-2 1.104,0 2,-0.896 2,-2 0,-1.104 -0.896,-2 -2,-2 1.104,0 2,-0.896 2,-2 0,-1.104 -0.896,-2 -2,-2 1.104,0 2,-0.896 2,-2 0,-1.104 -0.896,-2 -2,-2 1.104,0 2,-0.896 2,-2 L 30,5 C 30,3.344 28.656,2 27,2 L 26,2 C 24.896,2 24,2.8959999 24,4 24,2.896 23.104,2 22,2 20.896,2 20,2.896 20,4 20,2.896 19.104,2 18,2 16.896,2 16,2.896 16,4 16,2.896 15.104,2 14,2 12.896,2 12,2.896 12,4 12,2.896 11.104,2 10,2 8.896,2 8,2.896 8,4 8,2.896 7.104,2 6,2 L 5,2 Z" style="fill:#fffa55;fill-opacity:1;fill-rule:nonzero;stroke:none;stroke-width:2;stroke-linecap:butt;stroke-linejoin:miter;stroke-miterlimit:4;stroke-dasharray:none;stroke-dashoffset:0;stroke-opacity:1" inkscape:connector-curvature="0" />
      <rect style="opacity:1;fill:#dccc00;fill-opacity:1;fill-rule:nonzero;stroke:none;stroke-width:0.01;stroke-linecap:square;stroke-linejoin:bevel;stroke-miterlimit:4;stroke-dasharray:none;stroke-dashoffset:0;stroke-opacity:1" id="rect3637" width="1" height="6" x="-22.627417" y="-5.6568542" transform="matrix(-0.70710678,-0.70710678,-0.70710678,0.70710678,0,0)" />
      <path id="rect3250" d="M 9,2.25 C 8.4023873,2.5983282 8,3.2595518 8,4 L 8,5 8,6 C 8.552,6 9,5.552 9,5 L 9,4 9,2.25 Z" style="fill:#dccc00;fill-opacity:1;fill-rule:nonzero;stroke:none;stroke-width:2;stroke-linecap:butt;stroke-linejoin:miter;stroke-miterlimit:4;stroke-dasharray:none;stroke-dashoffset:0;stroke-opacity:1" inkscape:connector-curvature="0" />
      <path id="rect3252" d="M 13,2.25 C 12.402387,2.5983282 12,3.2595518 12,4 l 0,3 0,1 c 0.552,0 1,-0.448 1,-1 l 0,-3 0,-1.75 z" style="fill:#dccc00;fill-opacity:1;fill-rule:nonzero;stroke:none;stroke-width:2;stroke-linecap:butt;stroke-linejoin:miter;stroke-miterlimit:4;stroke-dasharray:none;stroke-dashoffset:0;stroke-opacity:1" inkscape:connector-curvature="0" />
      <path id="rect3254" d="M 17,2.25 C 16.402387,2.5983282 16,3.2595518 16,4 l 0,3 0,1 c 0.552,0 1,-0.448 1,-1 l 0,-3 0,-1.75 z" style="fill:#dccc00;fill-opacity:1;fill-rule:nonzero;stroke:none;stroke-width:2;stroke-linecap:butt;stroke-linejoin:miter;stroke-miterlimit:4;stroke-dasharray:none;stroke-dashoffset:0;stroke-opacity:1" inkscape:connector-curvature="0" />
      <path id="rect3256" d="M 21,2.25 C 20.402387,2.5983282 20,3.2595518 20,4 l 0,3 0,1 c 0.552,0 1,-0.448 1,-1 l 0,-3 0,-1.75 z" style="fill:#dccc00;fill-opacity:1;fill-rule:nonzero;stroke:none;stroke-width:2;stroke-linecap:butt;stroke-linejoin:miter;stroke-miterlimit:4;stroke-dasharray:none;stroke-dashoffset:0;stroke-opacity:1" inkscape:connector-curvature="0" />
      <path id="rect3266" d="m 8,26 0,1 0,1 c 0,0.966 0.6826563,1.782156 1.59375,1.96875 0.069672,0.01427 0.1466517,-0.0068 0.21875,0 C 9.3569531,29.782156 8.9999999,28.966 9,28 L 9,27 C 9,26.448 8.552,26 8,26 Z" style="fill:#dccc00;fill-opacity:1;fill-rule:nonzero;stroke:none;stroke-width:2;stroke-linecap:butt;stroke-linejoin:miter;stroke-miterlimit:4;stroke-dasharray:none;stroke-dashoffset:0;stroke-opacity:1" inkscape:connector-curvature="0" />
      <path id="rect3268" d="m 12,24 0,1 0,3 c 0,0.966 0.682656,1.782156 1.59375,1.96875 0.06967,0.01427 0.146652,-0.0068 0.21875,0 C 13.356953,29.782156 13,28.966 13,28 l 0,-3 c 0,-0.552 -0.448,-1 -1,-1 z" style="fill:#dccc00;fill-opacity:1;fill-rule:nonzero;stroke:none;stroke-width:2;stroke-linecap:butt;stroke-linejoin:miter;stroke-miterlimit:4;stroke-dasharray:none;stroke-dashoffset:0;stroke-opacity:1" inkscape:connector-curvature="0" />
      <path id="rect3270" d="m 16,24 0,1 0,3 c 0,0.966 0.682656,1.782156 1.59375,1.96875 0.06967,0.01427 0.146652,-0.0068 0.21875,0 C 17.356953,29.782156 17,28.966 17,28 l 0,-3 c 0,-0.552 -0.448,-1 -1,-1 z" style="fill:#dccc00;fill-opacity:1;fill-rule:nonzero;stroke:none;stroke-width:2;stroke-linecap:butt;stroke-linejoin:miter;stroke-miterlimit:4;stroke-dasharray:none;stroke-dashoffset:0;stroke-opacity:1" inkscape:connector-curvature="0" />
      <path id="rect3272" d="m 20,24 0,1 0,3 c 0,0.966 0.682656,1.782156 1.59375,1.96875 0.06967,0.01427 0.146652,-0.0068 0.21875,0 C 21.356953,29.782156 21,28.966 21,28 l 0,-3 c 0,-0.552 -0.448,-1 -1,-1 z" style="fill:#dccc00;fill-opacity:1;fill-rule:nonzero;stroke:none;stroke-width:2;stroke-linecap:butt;stroke-linejoin:miter;stroke-miterlimit:4;stroke-dasharray:none;stroke-dashoffset:0;stroke-opacity:1" inkscape:connector-curvature="0" />
      <path id="rect3274" d="m 2.03125,10.1875 c 0.00681,0.0721 -0.014269,0.149078 0,0.21875 C 2.217844,11.317344 3.034,12 4,12 l 3,0 1,0 C 8,11.448 7.552,11 7,11 L 4,11 C 3.034,11 2.217844,10.643047 2.03125,10.1875 Z" style="fill:#dccc00;fill-opacity:1;fill-rule:nonzero;stroke:none;stroke-width:2;stroke-linecap:butt;stroke-linejoin:miter;stroke-miterlimit:4;stroke-dasharray:none;stroke-dashoffset:0;stroke-opacity:1" inkscape:connector-curvature="0" />
      <path id="rect3276" d="m 2.03125,14.1875 c 0.00681,0.0721 -0.014269,0.149078 0,0.21875 C 2.217844,15.317344 3.034,16 4,16 l 3,0 1,0 C 8,15.448 7.552,15 7,15 L 4,15 C 3.034,15 2.217844,14.643047 2.03125,14.1875 Z" style="fill:#dccc00;fill-opacity:1;fill-rule:nonzero;stroke:none;stroke-width:2;stroke-linecap:butt;stroke-linejoin:miter;stroke-miterlimit:4;stroke-dasharray:none;stroke-dashoffset:0;stroke-opacity:1" inkscape:connector-curvature="0" />
      <path id="rect3278" d="m 2.03125,18.1875 c 0.00681,0.0721 -0.014269,0.149078 0,0.21875 C 2.217844,19.317344 3.034,20 4,20 l 3,0 1,0 C 8,19.448 7.552,19 7,19 L 4,19 C 3.034,19 2.217844,18.643047 2.03125,18.1875 Z" style="fill:#dccc00;fill-opacity:1;fill-rule:nonzero;stroke:none;stroke-width:2;stroke-linecap:butt;stroke-linejoin:miter;stroke-miterlimit:4;stroke-dasharray:none;stroke-dashoffset:0;stroke-opacity:1" inkscape:connector-curvature="0" />
      <path id="rect3280" d="m 2.03125,22.1875 c 0.00681,0.0721 -0.014269,0.149078 0,0.21875 C 2.217844,23.317344 3.034,24 4,24 l 1,0 1,0 C 6,23.448 5.552,23 5,23 L 4,23 C 3.034,23 2.217844,22.643047 2.03125,22.1875 Z" style="fill:#dccc00;fill-opacity:1;fill-rule:nonzero;stroke:none;stroke-width:2;stroke-linecap:butt;stroke-linejoin:miter;stroke-miterlimit:4;stroke-dasharray:none;stroke-dashoffset:0;stroke-opacity:1" inkscape:connector-curvature="0" />
      <path id="rect3282" d="m 25,11 c -0.552,0 -1,0.448 -1,1 l 1,0 3,0 c 0.740448,0 1.401672,-0.402387 1.75,-1 L 28,11 25,11 Z" style="fill:#dccc00;fill-opacity:1;fill-rule:nonzero;stroke:none;stroke-width:2;stroke-linecap:butt;stroke-linejoin:miter;stroke-miterlimit:4;stroke-dasharray:none;stroke-dashoffset:0;stroke-opacity:1" inkscape:connector-curvature="0" />
      <path id="rect3284" d="m 25,15 c -0.552,0 -1,0.448 -1,1 l 1,0 3,0 c 0.740448,0 1.401672,-0.402387 1.75,-1 L 28,15 25,15 Z" style="fill:#dccc00;fill-opacity:1;fill-rule:nonzero;stroke:none;stroke-width:2;stroke-linecap:butt;stroke-linejoin:miter;stroke-miterlimit:4;stroke-dasharray:none;stroke-dashoffset:0;stroke-opacity:1" inkscape:connector-curvature="0" />
      <path id="rect3286" d="m 25,19 c -0.552,0 -1,0.448 -1,1 l 1,0 3,0 c 0.740448,0 1.401672,-0.402387 1.75,-1 L 28,19 25,19 Z" style="fill:#dccc00;fill-opacity:1;fill-rule:nonzero;stroke:none;stroke-width:2;stroke-linecap:butt;stroke-linejoin:miter;stroke-miterlimit:4;stroke-dasharray:none;stroke-dashoffset:0;stroke-opacity:1" inkscape:connector-curvature="0" />
      <path id="rect3288" d="m 27,23 c -0.552,0 -1,0.448 -1,1 l 1,0 1,0 c 0.740448,0 1.401672,-0.402387 1.75,-1 L 28,23 27,23 Z" style="fill:#dccc00;fill-opacity:1;fill-rule:nonzero;stroke:none;stroke-width:2;stroke-linecap:butt;stroke-linejoin:miter;stroke-miterlimit:4;stroke-dasharray:none;stroke-dashoffset:0;stroke-opacity:1" inkscape:connector-curvature="0" />
      <path id="rect3445" d="M 2,5 2,6 C 2,7.104 2.896,8 4,8 L 5,8 6,8 C 6,7.448 5.552,7 5,7 L 4,7 C 3.448,7 3,6.552 3,6 3,5.448 2.552,5 2,5 Z" style="fill:#dccc00;fill-opacity:1;fill-rule:nonzero;stroke:none;stroke-width:2;stroke-linecap:butt;stroke-linejoin:miter;stroke-miterlimit:4;stroke-dasharray:none;stroke-dashoffset:0;stroke-opacity:1" inkscape:connector-curvature="0" />
      <path id="rect3449" d="M 25,2.25 C 24.402387,2.5983282 24,3.2595518 24,4 l 0,1 0,1 c 0.552,0 1,-0.448 1,-1 l 0,-1 0,-1.75 z" style="fill:#dccc00;fill-opacity:1;fill-rule:nonzero;stroke:none;stroke-width:2;stroke-linecap:butt;stroke-linejoin:miter;stroke-miterlimit:4;stroke-dasharray:none;stroke-dashoffset:0;stroke-opacity:1" inkscape:connector-curvature="0" />
      <path id="path3488" d="m 8,26 c -0.552,0 -1,0.448 -1,1 l 0,1 0,1.75 C 7.597613,29.401672 8,28.740448 8,28 l 0,-1 0,-1 z" style="fill:#ffffc1;fill-opacity:1;fill-rule:nonzero;stroke:none;stroke-width:2;stroke-linecap:butt;stroke-linejoin:miter;stroke-miterlimit:4;stroke-dasharray:none;stroke-dashoffset:0;stroke-opacity:1" inkscape:connector-curvature="0" />
      <path style="fill:#dccc00;fill-opacity:1;fill-rule:nonzero;stroke:none;stroke-width:2;stroke-linecap:butt;stroke-linejoin:miter;stroke-miterlimit:4;stroke-dasharray:none;stroke-dashoffset:0;stroke-opacity:1" d="m 28,7 0,1 c 0.740448,0 1.401672,-0.402387 1.75,-1 L 28,7 Z" id="path3497" inkscape:connector-curvature="0" />
      <path sodipodi:end="4.712389" sodipodi:start="3.1415927" d="m 26,8 a 1,1 0 0 1 1,-1 l 0,1 z" sodipodi:ry="1" sodipodi:rx="1" sodipodi:cy="8" sodipodi:cx="27" id="path3499" style="fill:#dccc00;fill-opacity:1;fill-rule:nonzero;stroke:none;stroke-width:2;stroke-linecap:butt;stroke-linejoin:miter;stroke-miterlimit:4;stroke-dasharray:none;stroke-dashoffset:0;stroke-opacity:1" sodipodi:type="arc" />
      <rect style="fill:#dccc00;fill-opacity:1;fill-rule:nonzero;stroke:none;stroke-width:2;stroke-linecap:butt;stroke-linejoin:miter;stroke-miterlimit:4;stroke-dasharray:none;stroke-dashoffset:0;stroke-opacity:1" id="rect3501" width="1" height="1" x="27" y="7" />
      <path id="rect3503" d="m 24,26 c -0.552,0 -1,0.448 -1,1 l 0,1 0,1.75 c 0.597613,-0.348328 1,-1.009552 1,-1.75 l 0,-1 0,-1 z" style="fill:#ffffc1;fill-opacity:1;fill-rule:nonzero;stroke:none;stroke-width:2;stroke-linecap:butt;stroke-linejoin:miter;stroke-miterlimit:4;stroke-dasharray:none;stroke-dashoffset:0;stroke-opacity:1" inkscape:connector-curvature="0" />
      <path id="rect3505" d="m 20,24 c -0.552,0 -1,0.448 -1,1 l 0,3 0,1.75 c 0.597613,-0.348328 1,-1.009552 1,-1.75 l 0,-3 0,-1 z" style="fill:#ffffc1;fill-opacity:1;fill-rule:nonzero;stroke:none;stroke-width:2;stroke-linecap:butt;stroke-linejoin:miter;stroke-miterlimit:4;stroke-dasharray:none;stroke-dashoffset:0;stroke-opacity:1" inkscape:connector-curvature="0" />
      <path id="rect3509" d="m 12,24 c -0.552,0 -1,0.448 -1,1 l 0,3 0,1.75 c 0.597613,-0.348328 1,-1.009552 1,-1.75 l 0,-3 0,-1 z" style="fill:#ffffc1;fill-opacity:1;fill-rule:nonzero;stroke:none;stroke-width:2;stroke-linecap:butt;stroke-linejoin:miter;stroke-miterlimit:4;stroke-dasharray:none;stroke-dashoffset:0;stroke-opacity:1" inkscape:connector-curvature="0" />
      <path id="rect3511" d="M 22.1875,2.03125 C 22.643047,2.217844 23,3.034 23,4 l 0,1 c 0,0.552 0.448,1 1,1 l 0,-1 0,-1 c 0,-0.966 -0.682656,-1.782156 -1.59375,-1.96875 -0.06967,-0.014269 -0.146652,0.00681 -0.21875,0 z" style="fill:#ffffc1;fill-opacity:1;fill-rule:nonzero;stroke:none;stroke-width:2;stroke-linecap:butt;stroke-linejoin:miter;stroke-miterlimit:4;stroke-dasharray:none;stroke-dashoffset:0;stroke-opacity:1" inkscape:connector-curvature="0" />
      <path id="rect3513" d="M 18.1875,2.03125 C 18.643047,2.217844 19,3.034 19,4 l 0,1 c 0,0.552 0.448,1 1,1 l 0,-1 0,-1 c 0,-0.966 -0.682656,-1.782156 -1.59375,-1.96875 -0.06967,-0.014269 -0.146652,0.00681 -0.21875,0 z" style="fill:#ffffc1;fill-opacity:1;fill-rule:nonzero;stroke:none;stroke-width:2;stroke-linecap:butt;stroke-linejoin:miter;stroke-miterlimit:4;stroke-dasharray:none;stroke-dashoffset:0;stroke-opacity:1" inkscape:connector-curvature="0" />
      <path id="rect3515" d="M 14.1875,2.03125 C 14.643047,2.217844 15,3.034 15,4 l 0,1 c 0,0.552 0.448,1 1,1 l 0,-1 0,-1 c 0,-0.966 -0.682656,-1.782156 -1.59375,-1.96875 -0.06967,-0.014269 -0.146652,0.00681 -0.21875,0 z" style="fill:#ffffc1;fill-opacity:1;fill-rule:nonzero;stroke:none;stroke-width:2;stroke-linecap:butt;stroke-linejoin:miter;stroke-miterlimit:4;stroke-dasharray:none;stroke-dashoffset:0;stroke-opacity:1" inkscape:connector-curvature="0" />
      <path id="rect3517" d="M 10.1875,2.03125 C 10.643047,2.217844 11,3.034 11,4 l 0,1 c 0,0.552 0.448,1 1,1 l 0,-1 0,-1 c 0,-0.966 -0.682656,-1.782156 -1.59375,-1.96875 -0.06967,-0.014269 -0.146652,0.00681 -0.21875,0 z" style="fill:#ffffc1;fill-opacity:1;fill-rule:nonzero;stroke:none;stroke-width:2;stroke-linecap:butt;stroke-linejoin:miter;stroke-miterlimit:4;stroke-dasharray:none;stroke-dashoffset:0;stroke-opacity:1" inkscape:connector-curvature="0" />
      <path id="rect3519" d="m 24,20 c 0,0.552 0.448,1 1,1 l 3,0 c 0.966,0 1.782156,0.356953 1.96875,0.8125 -0.0068,-0.0721 0.01427,-0.149078 0,-0.21875 C 29.782156,20.682656 28.966,20 28,20 l -3,0 -1,0 z" style="fill:#ffffc1;fill-opacity:1;fill-rule:nonzero;stroke:none;stroke-width:2;stroke-linecap:butt;stroke-linejoin:miter;stroke-miterlimit:4;stroke-dasharray:none;stroke-dashoffset:0;stroke-opacity:1" inkscape:connector-curvature="0" />
      <path id="rect3521" d="m 24,16 c 0,0.552 0.448,1 1,1 l 3,0 c 0.966,0 1.782156,0.356953 1.96875,0.8125 -0.0068,-0.0721 0.01427,-0.149078 0,-0.21875 C 29.782156,16.682656 28.966,16 28,16 l -3,0 -1,0 z" style="fill:#ffffc1;fill-opacity:1;fill-rule:nonzero;stroke:none;stroke-width:2;stroke-linecap:butt;stroke-linejoin:miter;stroke-miterlimit:4;stroke-dasharray:none;stroke-dashoffset:0;stroke-opacity:1" inkscape:connector-curvature="0" />
      <path id="rect3523" d="m 24,12 c 0,0.552 0.448,1 1,1 l 3,0 c 0.966,0 1.782156,0.356953 1.96875,0.8125 -0.0068,-0.0721 0.01427,-0.149078 0,-0.21875 C 29.782156,12.682656 28.966,12 28,12 l -3,0 -1,0 z" style="fill:#ffffc1;fill-opacity:1;fill-rule:nonzero;stroke:none;stroke-width:2;stroke-linecap:butt;stroke-linejoin:miter;stroke-miterlimit:4;stroke-dasharray:none;stroke-dashoffset:0;stroke-opacity:1" inkscape:connector-curvature="0" />
      <path id="rect3525" d="m 26,8 c 0,0.552 0.448,1 1,1 l 1,0 c 0.966,0 1.782156,0.356953 1.96875,0.8125 -0.0068,-0.072098 0.01427,-0.149078 0,-0.21875 C 29.782156,8.682656 28.966,8 28,8 l -1,0 -1,0 z" style="fill:#ffffc1;fill-opacity:1;fill-rule:nonzero;stroke:none;stroke-width:2;stroke-linecap:butt;stroke-linejoin:miter;stroke-miterlimit:4;stroke-dasharray:none;stroke-dashoffset:0;stroke-opacity:1" inkscape:connector-curvature="0" />
      <path id="rect3527" d="M 4,20 C 3.259552,20 2.598328,20.402387 2.25,21 L 4,21 7,21 c 0.552,0 1,-0.448 1,-1 l -1,0 -3,0 z" style="fill:#ffffc1;fill-opacity:1;fill-rule:nonzero;stroke:none;stroke-width:2;stroke-linecap:butt;stroke-linejoin:miter;stroke-miterlimit:4;stroke-dasharray:none;stroke-dashoffset:0;stroke-opacity:1" inkscape:connector-curvature="0" />
      <path id="rect3529" d="M 4,16 C 3.259552,16 2.598328,16.402387 2.25,17 L 4,17 7,17 c 0.552,0 1,-0.448 1,-1 l -1,0 -3,0 z" style="fill:#ffffc1;fill-opacity:1;fill-rule:nonzero;stroke:none;stroke-width:2;stroke-linecap:butt;stroke-linejoin:miter;stroke-miterlimit:4;stroke-dasharray:none;stroke-dashoffset:0;stroke-opacity:1" inkscape:connector-curvature="0" />
      <path id="rect3531" d="M 4,12 C 3.259552,12 2.598328,12.402387 2.25,13 L 4,13 7,13 c 0.552,0 1,-0.448 1,-1 l -1,0 -3,0 z" style="fill:#ffffc1;fill-opacity:1;fill-rule:nonzero;stroke:none;stroke-width:2;stroke-linecap:butt;stroke-linejoin:miter;stroke-miterlimit:4;stroke-dasharray:none;stroke-dashoffset:0;stroke-opacity:1" inkscape:connector-curvature="0" />
      <path id="rect3533" d="M 4,8 C 3.259552,8 2.598328,8.402387 2.25,9 L 4,9 5,9 C 5.552,9 6,8.552 6,8 L 5,8 4,8 Z" style="fill:#ffffc1;fill-opacity:1;fill-rule:nonzero;stroke:none;stroke-width:2;stroke-linecap:butt;stroke-linejoin:miter;stroke-miterlimit:4;stroke-dasharray:none;stroke-dashoffset:0;stroke-opacity:1" inkscape:connector-curvature="0" />
      <path id="path3539" d="m 16,24 c -0.552,0 -1,0.448 -1,1 l 0,3 0,1.75 c 0.597613,-0.348328 1,-1.009552 1,-1.75 l 0,-3 0,-1 z" style="fill:#ffffc1;fill-opacity:1;fill-rule:nonzero;stroke:none;stroke-width:2;stroke-linecap:butt;stroke-linejoin:miter;stroke-miterlimit:4;stroke-dasharray:none;stroke-dashoffset:0;stroke-opacity:1" inkscape:connector-curvature="0" />
      <path id="rect3585" d="m 26,24 c 0,0.552 0.448,1 1,1 l 1,0 c 0.552,0 1,0.448 1,1 0,0.552 0.448,1 1,1 l 0,-1 c 0,-1.104 -0.896,-2 -2,-2 l -1,0 -1,0 z" style="fill:#ffffc1;fill-opacity:1;fill-rule:nonzero;stroke:none;stroke-width:2;stroke-linecap:butt;stroke-linejoin:miter;stroke-miterlimit:4;stroke-dasharray:none;stroke-dashoffset:0;stroke-opacity:1" inkscape:connector-curvature="0" />
      <path id="path3623" d="M 4,24 C 3.259552,24 2.598328,24.402387 2.25,25 L 4,25 5,25 c 0.552,0 1,-0.448 1,-1 l -1,0 -1,0 z" style="fill:#ffffc1;fill-opacity:1;fill-rule:nonzero;stroke:none;stroke-width:2;stroke-linecap:butt;stroke-linejoin:miter;stroke-miterlimit:4;stroke-dasharray:none;stroke-dashoffset:0;stroke-opacity:1" inkscape:connector-curvature="0" />
      <path id="path3757" d="m 26,2 c 0,0.552 0.448,1 1,1 1.104152,10e-8 2,0.896 2,2 0,0.552 0.448,1 1,1 L 30,5 C 30,3.3439763 28.656254,2 27,2 l -1,0 z" style="fill:#ffffc1;fill-opacity:1;fill-rule:nonzero;stroke:none;stroke-width:2;stroke-linecap:butt;stroke-linejoin:miter;stroke-miterlimit:4;stroke-dasharray:none;stroke-dashoffset:0;stroke-opacity:1" inkscape:connector-curvature="0" />
      <path id="path3761" d="M 5,2 C 5,2.552 5.448,3 6,3 6.552,3 7,3.448 7,4 L 7,5 C 7,5.552 7.448,6 8,6 L 8,5 8,4 C 8,2.896 7.104,2 6,2 L 5,2 Z" style="fill:#ffffc1;fill-opacity:1;fill-rule:nonzero;stroke:none;stroke-width:2;stroke-linecap:butt;stroke-linejoin:miter;stroke-miterlimit:4;stroke-dasharray:none;stroke-dashoffset:0;stroke-opacity:1" inkscape:connector-curvature="0" />
      <path id="path3773" d="m 24,26 0,1 0,1 c 0,1.104 0.896,2 2,2 l 1,0 c 0,-0.552 -0.448,-1 -1,-1 -0.552,0 -1,-0.448 -1,-1 l 0,-1 c 0,-0.552 -0.448,-1 -1,-1 z" style="fill:#dccc00;fill-opacity:1;fill-rule:nonzero;stroke:none;stroke-width:2;stroke-linecap:butt;stroke-linejoin:miter;stroke-miterlimit:4;stroke-dasharray:none;stroke-dashoffset:0;stroke-opacity:1" inkscape:connector-curvature="0" />
      <path id="path3784" d="m 2,26 0,1 c 0,1.656024 1.343746,3 3,3 l 1,0 C 6,29.448 5.552,29 5,29 3.895848,29 3,28.104 3,27 3,26.448 2.552,26 2,26 Z" style="fill:#dccc00;fill-opacity:1;fill-rule:nonzero;stroke:none;stroke-width:2;stroke-linecap:butt;stroke-linejoin:miter;stroke-miterlimit:4;stroke-dasharray:none;stroke-dashoffset:0;stroke-opacity:1" inkscape:connector-curvature="0" />
      <path sodipodi:nodetypes="ccccc" id="path3602" d="m 12,20 0,-8 4,4 4,-4 0,8" style="opacity:1;fill:none;fill-opacity:1;fill-rule:nonzero;stroke:black;stroke-width:0.01;stroke-linecap:square;stroke-linejoin:bevel;stroke-miterlimit:4;stroke-dasharray:none;stroke-dashoffset:0;stroke-opacity:1" inkscape:connector-curvature="0" />
      <path sodipodi:end="3.1415927" sodipodi:start="1.5707963" d="M 12,21 A 1,1 0 0 1 11.292893,20.707107 1,1 0 0 1 11,20 l 1,0 z" sodipodi:ry="1" sodipodi:rx="1" sodipodi:cy="20" sodipodi:cx="12" id="path3604" style="opacity:1;fill:#ffffc1;fill-opacity:1;fill-rule:nonzero;stroke:none;stroke-width:0.01;stroke-linecap:square;stroke-linejoin:bevel;stroke-miterlimit:4;stroke-dasharray:none;stroke-dashoffset:0;stroke-opacity:1" sodipodi:type="arc" />
      <rect y="12" x="11" height="8" width="1" id="rect3606" style="opacity:1;fill:#ffffc1;fill-opacity:1;fill-rule:nonzero;stroke:none;stroke-width:0.01;stroke-linecap:square;stroke-linejoin:bevel;stroke-miterlimit:4;stroke-dasharray:none;stroke-dashoffset:0;stroke-opacity:1" />
      <path sodipodi:type="arc" style="opacity:1;fill:#ffffc1;fill-opacity:1;fill-rule:nonzero;stroke:none;stroke-width:0.01;stroke-linecap:square;stroke-linejoin:bevel;stroke-miterlimit:4;stroke-dasharray:none;stroke-dashoffset:0;stroke-opacity:1" id="path3608" sodipodi:cx="12" sodipodi:cy="12" sodipodi:rx="1" sodipodi:ry="1" d="m 11,12 a 1,1 0 0 1 0.292893,-0.707107 L 12,12 Z" sodipodi:start="3.1415927" sodipodi:end="3.9269908" />
      <path sodipodi:end="5.4977871" sodipodi:start="3.9269908" d="m 11.292893,11.292893 a 1,1 0 0 1 1.414214,0 L 12,12 Z" sodipodi:ry="1" sodipodi:rx="1" sodipodi:cy="12" sodipodi:cx="12" id="path3610" style="opacity:1;fill:#dccc00;fill-opacity:1;fill-rule:nonzero;stroke:none;stroke-width:0.01;stroke-linecap:square;stroke-linejoin:bevel;stroke-miterlimit:4;stroke-dasharray:none;stroke-dashoffset:0;stroke-opacity:1" sodipodi:type="arc" />
      <path sodipodi:type="arc" style="opacity:1;fill:#ffffc1;fill-opacity:1;fill-rule:nonzero;stroke:none;stroke-width:0.01;stroke-linecap:square;stroke-linejoin:bevel;stroke-miterlimit:4;stroke-dasharray:none;stroke-dashoffset:0;stroke-opacity:1" id="path3612" sodipodi:cx="16" sodipodi:cy="16" sodipodi:rx="1" sodipodi:ry="1" d="M 16.707107,16.707107 A 1,1 0 0 1 16,17 1,1 0 0 1 15.292893,16.707107 L 16,16 Z" sodipodi:start="0.78539816" sodipodi:end="2.3561945" />
      <rect style="opacity:1;fill:#dccc00;fill-opacity:1;fill-rule:nonzero;stroke:none;stroke-width:0.01;stroke-linecap:square;stroke-linejoin:bevel;stroke-miterlimit:4;stroke-dasharray:none;stroke-dashoffset:0;stroke-opacity:1" id="rect3619" width="1" height="7" x="12" y="13" />
      <path id="rect3614" d="m 12,12 0,1.40625 3.28125,3.3125 L 16,16 12,12 Z" style="opacity:1;fill:#ffffc1;fill-opacity:1;fill-rule:nonzero;stroke:none;stroke-width:0.01;stroke-linecap:square;stroke-linejoin:bevel;stroke-miterlimit:4;stroke-dasharray:none;stroke-dashoffset:0;stroke-opacity:1" inkscape:connector-curvature="0" />
      <path sodipodi:end="1.5707963" sodipodi:start="0" d="m 13,20 a 1,1 0 0 1 -1,1 l 0,-1 z" sodipodi:ry="1" sodipodi:rx="1" sodipodi:cy="20" sodipodi:cx="12" id="path3621" style="opacity:1;fill:#dccc00;fill-opacity:1;fill-rule:nonzero;stroke:none;stroke-width:0.01;stroke-linecap:square;stroke-linejoin:bevel;stroke-miterlimit:4;stroke-dasharray:none;stroke-dashoffset:0;stroke-opacity:1" sodipodi:type="arc" />
      <rect transform="matrix(0.70710678,-0.70710678,0.70710678,0.70710678,0,0)" y="16.925039" x="0" height="6" width="1" id="rect3623" style="opacity:1;fill:#dccc00;fill-opacity:1;fill-rule:nonzero;stroke:none;stroke-width:0.01;stroke-linecap:square;stroke-linejoin:bevel;stroke-miterlimit:4;stroke-dasharray:none;stroke-dashoffset:0;stroke-opacity:1" />
      <rect transform="matrix(0.70710678,0.70710678,-0.70710678,0.70710678,0,0)" y="-6" x="22.627417" height="6" width="1" id="rect3635" style="opacity:1;fill:#ffffc1;fill-opacity:1;fill-rule:nonzero;stroke:none;stroke-width:0.01;stroke-linecap:square;stroke-linejoin:bevel;stroke-miterlimit:4;stroke-dasharray:none;stroke-dashoffset:0;stroke-opacity:1" />
      <path id="rect3625" d="m 20,12 -1,1 0,7 1,0 0,-8 z" style="opacity:1;fill:#ffffc1;fill-opacity:1;fill-rule:nonzero;stroke:none;stroke-width:0.01;stroke-linecap:square;stroke-linejoin:bevel;stroke-miterlimit:4;stroke-dasharray:none;stroke-dashoffset:0;stroke-opacity:1" inkscape:connector-curvature="0" />
      <path sodipodi:type="arc" style="opacity:1;fill:#ffffc1;fill-opacity:1;fill-rule:nonzero;stroke:none;stroke-width:0.01;stroke-linecap:square;stroke-linejoin:bevel;stroke-miterlimit:4;stroke-dasharray:none;stroke-dashoffset:0;stroke-opacity:1" id="path3627" sodipodi:cx="20" sodipodi:cy="20" sodipodi:rx="1" sodipodi:ry="1" d="M 20,21 A 1,1 0 0 1 19.292893,20.707107 1,1 0 0 1 19,20 l 1,0 z" sodipodi:start="1.5707963" sodipodi:end="3.1415927" />
      <rect y="12" x="20" height="8" width="1" id="rect3629" style="opacity:1;fill:#dccc00;fill-opacity:1;fill-rule:nonzero;stroke:none;stroke-width:0.01;stroke-linecap:square;stroke-linejoin:bevel;stroke-miterlimit:4;stroke-dasharray:none;stroke-dashoffset:0;stroke-opacity:1" />
      <path sodipodi:type="arc" style="opacity:1;fill:#dccc00;fill-opacity:1;fill-rule:nonzero;stroke:none;stroke-width:0.01;stroke-linecap:square;stroke-linejoin:bevel;stroke-miterlimit:4;stroke-dasharray:none;stroke-dashoffset:0;stroke-opacity:1" id="path3631" sodipodi:cx="20" sodipodi:cy="20" sodipodi:rx="1" sodipodi:ry="1" d="m 21,20 a 1,1 0 0 1 -1,1 l 0,-1 z" sodipodi:start="0" sodipodi:end="1.5707963" />
      <path sodipodi:end="6.2831853" sodipodi:start="3.9269908" d="M 19.292893,11.292893 A 1,1 0 0 1 20.382683,11.07612 1,1 0 0 1 21,12 l -1,0 z" sodipodi:ry="1" sodipodi:rx="1" sodipodi:cy="12" sodipodi:cx="20" id="path3633" style="opacity:1;fill:#dccc00;fill-opacity:1;fill-rule:nonzero;stroke:none;stroke-width:0.01;stroke-linecap:square;stroke-linejoin:bevel;stroke-miterlimit:4;stroke-dasharray:none;stroke-dashoffset:0;stroke-opacity:1" sodipodi:type="arc" />
    </g>
  </g>
</svg>
