<?xml version="1.0" encoding="UTF-8" standalone="no"?>
<!-- Created with Inkscape (http://www.inkscape.org/) -->
<svg
   xmlns:dc="http://purl.org/dc/elements/1.1/"
   xmlns:cc="http://creativecommons.org/ns#"
   xmlns:rdf="http://www.w3.org/1999/02/22-rdf-syntax-ns#"
   xmlns:svg="http://www.w3.org/2000/svg"
   xmlns="http://www.w3.org/2000/svg"
   xmlns:sodipodi="http://sodipodi.sourceforge.net/DTD/sodipodi-0.dtd"
   xmlns:inkscape="http://www.inkscape.org/namespaces/inkscape"
   width="32px"
   height="32px"
   id="svg3505"
   sodipodi:version="0.32"
   inkscape:version="0.46"
   sodipodi:docname="cookie-m-00.svg"
   inkscape:output_extension="org.inkscape.output.svg.inkscape"
   inkscape:export-filename="/home/andreas/Dokumente/Projekte/McMinos/svg/pills/cookie-m-00-x64.png"
   inkscape:export-xdpi="180"
   inkscape:export-ydpi="180">
  <defs
     id="defs3507">
    <inkscape:perspective
       sodipodi:type="inkscape:persp3d"
       inkscape:vp_x="0 : 16 : 1"
       inkscape:vp_y="0 : 1000 : 0"
       inkscape:vp_z="32 : 16 : 1"
       inkscape:persp3d-origin="16 : 10.666667 : 1"
       id="perspective3513" />
    <inkscape:perspective
       id="perspective4690"
       inkscape:persp3d-origin="372.04724 : 350.78739 : 1"
       inkscape:vp_z="744.09448 : 526.18109 : 1"
       inkscape:vp_y="0 : 1000 : 0"
       inkscape:vp_x="0 : 526.18109 : 1"
       sodipodi:type="inkscape:persp3d" />
    <inkscape:perspective
       id="perspective4555"
       inkscape:persp3d-origin="372.04724 : 350.78739 : 1"
       inkscape:vp_z="744.09448 : 526.18109 : 1"
       inkscape:vp_y="0 : 1000 : 0"
       inkscape:vp_x="0 : 526.18109 : 1"
       sodipodi:type="inkscape:persp3d" />
    <inkscape:perspective
       id="perspective4596"
       inkscape:persp3d-origin="372.04724 : 350.78739 : 1"
       inkscape:vp_z="744.09448 : 526.18109 : 1"
       inkscape:vp_y="0 : 1000 : 0"
       inkscape:vp_x="0 : 526.18109 : 1"
       sodipodi:type="inkscape:persp3d" />
  </defs>
  <sodipodi:namedview
     id="base"
     pagecolor="#ffffff"
     bordercolor="#666666"
     borderopacity="1.0"
     inkscape:pageopacity="0.0"
     inkscape:pageshadow="2"
     inkscape:zoom="14.375"
     inkscape:cx="16"
     inkscape:cy="16"
     inkscape:current-layer="layer1"
     showgrid="true"
     inkscape:grid-bbox="true"
     inkscape:document-units="px"
     objecttolerance="4"
     gridtolerance="4"
     guidetolerance="4"
     inkscape:window-width="641"
     inkscape:window-height="678"
     inkscape:window-x="0"
     inkscape:window-y="37"
     inkscape:object-paths="true"
     inkscape:object-nodes="true"
     inkscape:snap-bbox="true"
     inkscape:snap-guide="true"
     showguides="true"
     inkscape:guide-bbox="true">
    <inkscape:grid
       type="xygrid"
       id="grid3515"
       units="px"
       visible="true"
       enabled="true"
       spacingx="1px"
       spacingy="1px" />
    <sodipodi:guide
       orientation="1,0"
       position="30.5,14.811722"
       id="guide4618" />
  </sodipodi:namedview>
  <metadata
     id="metadata3510">
    <rdf:RDF>
      <cc:Work
         rdf:about="">
        <dc:format>image/svg+xml</dc:format>
        <dc:type
           rdf:resource="http://purl.org/dc/dcmitype/StillImage" />
        <dc:title>Cookie M 00</dc:title>
        <dc:date>2010-05-05</dc:date>
        <dc:creator>
          <cc:Agent>
            <dc:title>Andreas Neudecker &lt;zapyon@gmx.net&gt;</dc:title>
          </cc:Agent>
        </dc:creator>
        <dc:rights>
          <cc:Agent>
            <dc:title>Copyright (C) 2010 by Andreas Neudecker</dc:title>
          </cc:Agent>
        </dc:rights>
        <dc:publisher>
          <cc:Agent>
            <dc:title>Andreas Neudecker</dc:title>
          </cc:Agent>
        </dc:publisher>
        <dc:identifier>cookie-m-00</dc:identifier>
        <dc:description>Simple square butter cookie, the kind everyone likes. In McMinos, it is a power pill. This version has an &quot;M&quot; monogramm instead of the original's dots in the center.</dc:description>
      </cc:Work>
    </rdf:RDF>
  </metadata>
  <g
     id="layer1"
     inkscape:label="Layer 1"
     inkscape:groupmode="layer">
    <g
       id="g5637">
      <path
         id="path3931"
         d="M 5,1 C 2.8029372,1 1.0000001,2.8029372 1,5 L 1,6 C 1,6.7726441 1.3250399,7.4656783 1.8125,8 C 1.3250399,8.5343217 1,9.2273559 1,10 C 1,10.772644 1.3250399,11.465678 1.8125,12 C 1.3250399,12.534322 1,13.227356 1,14 C 1,14.772644 1.3250399,15.465678 1.8125,16 C 1.3250399,16.534322 1,17.227356 1,18 C 1,18.772644 1.3250399,19.465678 1.8125,20 C 1.3250399,20.534322 1,21.227356 1,22 C 1,22.772644 1.3250399,23.465678 1.8125,24 C 1.3250399,24.534322 1.0000001,25.227356 1,26 L 1,27 C 1,29.197063 2.8029373,31 5,31 L 6,31 C 6.7726441,31 7.4656783,30.67496 8,30.1875 C 8.5343217,30.67496 9.2273559,31 10,31 C 10.772644,31 11.465678,30.67496 12,30.1875 C 12.534322,30.67496 13.227356,31 14,31 C 14.772644,31 15.465678,30.67496 16,30.1875 C 16.534322,30.67496 17.227356,31 18,31 C 18.772644,31 19.465678,30.67496 20,30.1875 C 20.534322,30.67496 21.227356,31 22,31 C 22.772644,31 23.465678,30.67496 24,30.1875 C 24.534322,30.67496 25.227356,31 26,31 L 27,31 C 29.197063,31 31,29.197063 31,27 L 31,26 C 31,25.227356 30.67496,24.534322 30.1875,24 C 30.67496,23.465678 31,22.772644 31,22 C 31,21.227356 30.67496,20.534322 30.1875,20 C 30.67496,19.465678 31,18.772644 31,18 C 31,17.227356 30.67496,16.534322 30.1875,16 C 30.67496,15.465678 31,14.772644 31,14 C 31,13.227356 30.67496,12.534322 30.1875,12 C 30.67496,11.465678 31,10.772644 31,10 C 31,9.2273559 30.67496,8.5343217 30.1875,8 C 30.67496,7.4656783 31,6.7726441 31,6 L 31,5 C 31,2.8029372 29.197063,1 27,1 L 26,1 C 25.227356,1 24.534322,1.3250399 24,1.8125 C 23.465678,1.3250399 22.772644,1 22,1 C 21.227356,1 20.534322,1.3250399 20,1.8125 C 19.465678,1.3250399 18.772644,1 18,1 C 17.227356,1 16.534322,1.3250399 16,1.8125 C 15.465678,1.3250399 14.772644,1 14,1 C 13.227356,1 12.534322,1.3250399 12,1.8125 C 11.465678,1.3250399 10.772644,1 10,1 C 9.2273559,1 8.5343217,1.3250399 8,1.8125 C 7.4656783,1.3250399 6.7726441,1 6,1 L 5,1 z"
         style="fill:#000000;fill-opacity:1;fill-rule:nonzero;stroke:none;stroke-width:2;stroke-linecap:round;stroke-linejoin:round;stroke-miterlimit:4;stroke-dasharray:none;stroke-dashoffset:0;stroke-opacity:1" />
      <path
         id="rect3326"
         d="M 5,2 C 3.344,2 2.0000001,3.3439999 2,5 L 2,6 C 2,7.104 2.896,8 4,8 C 2.896,8 2,8.896 2,10 C 2,11.104 2.896,12 4,12 C 2.896,12 2,12.896 2,14 C 2,15.104 2.896,16 4,16 C 2.896,16 2,16.896 2,18 C 2,19.104 2.896,20 4,20 C 2.896,20 2,20.896 2,22 C 2,23.104 2.896,24 4,24 C 2.896,24 2.0000001,24.896 2,26 L 2,27 C 2,28.656 3.3440001,30 5,30 L 6,30 C 7.104,30 8,29.104 8,28 C 8,29.104 8.896,30 10,30 C 11.104,30 12,29.104 12,28 C 12,29.104 12.896,30 14,30 C 15.104,30 16,29.104 16,28 C 16,29.104 16.896,30 18,30 C 19.104,30 20,29.104 20,28 C 20,29.104 20.896,30 22,30 C 23.104,30 24,29.104 24,28 C 24,29.104 24.896,30 26,30 L 27,30 C 28.656,30 30,28.656 30,27 L 30,26 C 30,24.896 29.104,24 28,24 C 29.104,24 30,23.104 30,22 C 30,20.896 29.104,20 28,20 C 29.104,20 30,19.104 30,18 C 30,16.896 29.104,16 28,16 C 29.104,16 30,15.104 30,14 C 30,12.896 29.104,12 28,12 C 29.104,12 30,11.104 30,10 C 30,8.896 29.104,8 28,8 C 29.104,8 30,7.104 30,6 L 30,5 C 30,3.344 28.656,2 27,2 L 26,2 C 24.896,2 24,2.8959999 24,4 C 24,2.896 23.104,2 22,2 C 20.896,2 20,2.896 20,4 C 20,2.896 19.104,2 18,2 C 16.896,2 16,2.896 16,4 C 16,2.896 15.104,2 14,2 C 12.896,2 12,2.896 12,4 C 12,2.896 11.104,2 10,2 C 8.896,2 8,2.896 8,4 C 8,2.896 7.104,2 6,2 L 5,2 z"
         style="fill:#fffa55;fill-opacity:1;fill-rule:nonzero;stroke:none;stroke-width:2;stroke-linecap:butt;stroke-linejoin:miter;stroke-miterlimit:4;stroke-dasharray:none;stroke-dashoffset:0;stroke-opacity:1" />
      <rect
         style="opacity:1;fill:#dccc00;fill-opacity:1;fill-rule:nonzero;stroke:none;stroke-width:0.01;stroke-linecap:square;stroke-linejoin:bevel;stroke-miterlimit:4;stroke-dasharray:none;stroke-dashoffset:0;stroke-opacity:1"
         id="rect3637"
         width="1"
         height="6"
         x="-22.627417"
         y="-5.6568542"
         transform="matrix(-0.7071068,-0.7071068,-0.7071068,0.7071068,0,0)" />
      <path
         id="rect3250"
         d="M 9 2.25 C 8.4023873 2.5983282 8 3.2595518 8 4 L 8 5 L 8 6 C 8.552 6 9 5.552 9 5 L 9 4 L 9 2.25 z "
         style="fill:#dccc00;fill-opacity:1;fill-rule:nonzero;stroke:none;stroke-width:2;stroke-linecap:butt;stroke-linejoin:miter;stroke-miterlimit:4;stroke-dasharray:none;stroke-dashoffset:0;stroke-opacity:1" />
      <path
         id="rect3252"
         d="M 13 2.25 C 12.402387 2.5983282 12 3.2595518 12 4 L 12 7 L 12 8 C 12.552 8 13 7.552 13 7 L 13 4 L 13 2.25 z "
         style="fill:#dccc00;fill-opacity:1;fill-rule:nonzero;stroke:none;stroke-width:2;stroke-linecap:butt;stroke-linejoin:miter;stroke-miterlimit:4;stroke-dasharray:none;stroke-dashoffset:0;stroke-opacity:1" />
      <path
         id="rect3254"
         d="M 17 2.25 C 16.402387 2.5983282 16 3.2595518 16 4 L 16 7 L 16 8 C 16.552 8 17 7.552 17 7 L 17 4 L 17 2.25 z "
         style="fill:#dccc00;fill-opacity:1;fill-rule:nonzero;stroke:none;stroke-width:2;stroke-linecap:butt;stroke-linejoin:miter;stroke-miterlimit:4;stroke-dasharray:none;stroke-dashoffset:0;stroke-opacity:1" />
      <path
         id="rect3256"
         d="M 21 2.25 C 20.402387 2.5983282 20 3.2595518 20 4 L 20 7 L 20 8 C 20.552 8 21 7.552 21 7 L 21 4 L 21 2.25 z "
         style="fill:#dccc00;fill-opacity:1;fill-rule:nonzero;stroke:none;stroke-width:2;stroke-linecap:butt;stroke-linejoin:miter;stroke-miterlimit:4;stroke-dasharray:none;stroke-dashoffset:0;stroke-opacity:1" />
      <path
         id="rect3266"
         d="M 8 26 L 8 27 L 8 28 C 8 28.966 8.6826563 29.782156 9.59375 29.96875 C 9.6634219 29.983019 9.7404017 29.96194 9.8125 29.96875 C 9.3569531 29.782156 8.9999999 28.966 9 28 L 9 27 C 9 26.448 8.552 26 8 26 z "
         style="fill:#dccc00;fill-opacity:1;fill-rule:nonzero;stroke:none;stroke-width:2;stroke-linecap:butt;stroke-linejoin:miter;stroke-miterlimit:4;stroke-dasharray:none;stroke-dashoffset:0;stroke-opacity:1" />
      <path
         id="rect3268"
         d="M 12 24 L 12 25 L 12 28 C 12 28.966 12.682656 29.782156 13.59375 29.96875 C 13.663422 29.983019 13.740402 29.96194 13.8125 29.96875 C 13.356953 29.782156 13 28.966 13 28 L 13 25 C 13 24.448 12.552 24 12 24 z "
         style="fill:#dccc00;fill-opacity:1;fill-rule:nonzero;stroke:none;stroke-width:2;stroke-linecap:butt;stroke-linejoin:miter;stroke-miterlimit:4;stroke-dasharray:none;stroke-dashoffset:0;stroke-opacity:1" />
      <path
         id="rect3270"
         d="M 16 24 L 16 25 L 16 28 C 16 28.966 16.682656 29.782156 17.59375 29.96875 C 17.663422 29.983019 17.740402 29.96194 17.8125 29.96875 C 17.356953 29.782156 17 28.966 17 28 L 17 25 C 17 24.448 16.552 24 16 24 z "
         style="fill:#dccc00;fill-opacity:1;fill-rule:nonzero;stroke:none;stroke-width:2;stroke-linecap:butt;stroke-linejoin:miter;stroke-miterlimit:4;stroke-dasharray:none;stroke-dashoffset:0;stroke-opacity:1" />
      <path
         id="rect3272"
         d="M 20 24 L 20 25 L 20 28 C 20 28.966 20.682656 29.782156 21.59375 29.96875 C 21.663422 29.983019 21.740402 29.96194 21.8125 29.96875 C 21.356953 29.782156 21 28.966 21 28 L 21 25 C 21 24.448 20.552 24 20 24 z "
         style="fill:#dccc00;fill-opacity:1;fill-rule:nonzero;stroke:none;stroke-width:2;stroke-linecap:butt;stroke-linejoin:miter;stroke-miterlimit:4;stroke-dasharray:none;stroke-dashoffset:0;stroke-opacity:1" />
      <path
         id="rect3274"
         d="M 2.03125 10.1875 C 2.03806 10.259598 2.016981 10.336578 2.03125 10.40625 C 2.217844 11.317344 3.034 12 4 12 L 7 12 L 8 12 C 8 11.448 7.552 11 7 11 L 4 11 C 3.034 11 2.217844 10.643047 2.03125 10.1875 z "
         style="fill:#dccc00;fill-opacity:1;fill-rule:nonzero;stroke:none;stroke-width:2;stroke-linecap:butt;stroke-linejoin:miter;stroke-miterlimit:4;stroke-dasharray:none;stroke-dashoffset:0;stroke-opacity:1" />
      <path
         id="rect3276"
         d="M 2.03125 14.1875 C 2.03806 14.259598 2.016981 14.336578 2.03125 14.40625 C 2.217844 15.317344 3.034 16 4 16 L 7 16 L 8 16 C 8 15.448 7.552 15 7 15 L 4 15 C 3.034 15 2.217844 14.643047 2.03125 14.1875 z "
         style="fill:#dccc00;fill-opacity:1;fill-rule:nonzero;stroke:none;stroke-width:2;stroke-linecap:butt;stroke-linejoin:miter;stroke-miterlimit:4;stroke-dasharray:none;stroke-dashoffset:0;stroke-opacity:1" />
      <path
         id="rect3278"
         d="M 2.03125 18.1875 C 2.03806 18.259598 2.016981 18.336578 2.03125 18.40625 C 2.217844 19.317344 3.034 20 4 20 L 7 20 L 8 20 C 8 19.448 7.552 19 7 19 L 4 19 C 3.034 19 2.217844 18.643047 2.03125 18.1875 z "
         style="fill:#dccc00;fill-opacity:1;fill-rule:nonzero;stroke:none;stroke-width:2;stroke-linecap:butt;stroke-linejoin:miter;stroke-miterlimit:4;stroke-dasharray:none;stroke-dashoffset:0;stroke-opacity:1" />
      <path
         id="rect3280"
         d="M 2.03125 22.1875 C 2.03806 22.259598 2.016981 22.336578 2.03125 22.40625 C 2.217844 23.317344 3.034 24 4 24 L 5 24 L 6 24 C 6 23.448 5.552 23 5 23 L 4 23 C 3.034 23 2.217844 22.643047 2.03125 22.1875 z "
         style="fill:#dccc00;fill-opacity:1;fill-rule:nonzero;stroke:none;stroke-width:2;stroke-linecap:butt;stroke-linejoin:miter;stroke-miterlimit:4;stroke-dasharray:none;stroke-dashoffset:0;stroke-opacity:1" />
      <path
         id="rect3282"
         d="M 25 11 C 24.448 11 24 11.448 24 12 L 25 12 L 28 12 C 28.740448 12 29.401672 11.597613 29.75 11 L 28 11 L 25 11 z "
         style="fill:#dccc00;fill-opacity:1;fill-rule:nonzero;stroke:none;stroke-width:2;stroke-linecap:butt;stroke-linejoin:miter;stroke-miterlimit:4;stroke-dasharray:none;stroke-dashoffset:0;stroke-opacity:1" />
      <path
         id="rect3284"
         d="M 25 15 C 24.448 15 24 15.448 24 16 L 25 16 L 28 16 C 28.740448 16 29.401672 15.597613 29.75 15 L 28 15 L 25 15 z "
         style="fill:#dccc00;fill-opacity:1;fill-rule:nonzero;stroke:none;stroke-width:2;stroke-linecap:butt;stroke-linejoin:miter;stroke-miterlimit:4;stroke-dasharray:none;stroke-dashoffset:0;stroke-opacity:1" />
      <path
         id="rect3286"
         d="M 25 19 C 24.448 19 24 19.448 24 20 L 25 20 L 28 20 C 28.740448 20 29.401672 19.597613 29.75 19 L 28 19 L 25 19 z "
         style="fill:#dccc00;fill-opacity:1;fill-rule:nonzero;stroke:none;stroke-width:2;stroke-linecap:butt;stroke-linejoin:miter;stroke-miterlimit:4;stroke-dasharray:none;stroke-dashoffset:0;stroke-opacity:1" />
      <path
         id="rect3288"
         d="M 27 23 C 26.448 23 26 23.448 26 24 L 27 24 L 28 24 C 28.740448 24 29.401672 23.597613 29.75 23 L 28 23 L 27 23 z "
         style="fill:#dccc00;fill-opacity:1;fill-rule:nonzero;stroke:none;stroke-width:2;stroke-linecap:butt;stroke-linejoin:miter;stroke-miterlimit:4;stroke-dasharray:none;stroke-dashoffset:0;stroke-opacity:1" />
      <path
         id="rect3445"
         d="M 2 5 L 2 6 C 2 7.104 2.896 8 4 8 L 5 8 L 6 8 C 6 7.448 5.552 7 5 7 L 4 7 C 3.448 7 3 6.552 3 6 C 3 5.448 2.552 5 2 5 z "
         style="fill:#dccc00;fill-opacity:1;fill-rule:nonzero;stroke:none;stroke-width:2;stroke-linecap:butt;stroke-linejoin:miter;stroke-miterlimit:4;stroke-dasharray:none;stroke-dashoffset:0;stroke-opacity:1" />
      <path
         id="rect3449"
         d="M 25 2.25 C 24.402387 2.5983282 24 3.2595518 24 4 L 24 5 L 24 6 C 24.552 6 25 5.552 25 5 L 25 4 L 25 2.25 z "
         style="fill:#dccc00;fill-opacity:1;fill-rule:nonzero;stroke:none;stroke-width:2;stroke-linecap:butt;stroke-linejoin:miter;stroke-miterlimit:4;stroke-dasharray:none;stroke-dashoffset:0;stroke-opacity:1" />
      <path
         id="path3488"
         d="M 8 26 C 7.448 26 7 26.448 7 27 L 7 28 L 7 29.75 C 7.597613 29.401672 8 28.740448 8 28 L 8 27 L 8 26 z "
         style="fill:#ffffc1;fill-opacity:1;fill-rule:nonzero;stroke:none;stroke-width:2;stroke-linecap:butt;stroke-linejoin:miter;stroke-miterlimit:4;stroke-dasharray:none;stroke-dashoffset:0;stroke-opacity:1" />
      <path
         style="fill:#dccc00;fill-opacity:1;fill-rule:nonzero;stroke:none;stroke-width:2;stroke-linecap:butt;stroke-linejoin:miter;stroke-miterlimit:4;stroke-dasharray:none;stroke-dashoffset:0;stroke-opacity:1"
         d="M 28,7 L 28,8 C 28.740448,8 29.401672,7.597613 29.75,7 L 28,7 z"
         id="path3497" />
      <path
         transform="translate(14,-16)"
         sodipodi:end="4.712389"
         sodipodi:start="3.1415927"
         d="M 12,24 A 1,1 0 0 1 13,23 L 13,24 z"
         sodipodi:ry="1"
         sodipodi:rx="1"
         sodipodi:cy="24"
         sodipodi:cx="13"
         id="path3499"
         style="fill:#dccc00;fill-opacity:1;fill-rule:nonzero;stroke:none;stroke-width:2;stroke-linecap:butt;stroke-linejoin:miter;stroke-miterlimit:4;stroke-dasharray:none;stroke-dashoffset:0;stroke-opacity:1"
         sodipodi:type="arc" />
      <rect
         style="fill:#dccc00;fill-opacity:1;fill-rule:nonzero;stroke:none;stroke-width:2;stroke-linecap:butt;stroke-linejoin:miter;stroke-miterlimit:4;stroke-dasharray:none;stroke-dashoffset:0;stroke-opacity:1"
         id="rect3501"
         width="1"
         height="1"
         x="27"
         y="7" />
      <path
         id="rect3503"
         d="M 24 26 C 23.448 26 23 26.448 23 27 L 23 28 L 23 29.75 C 23.597613 29.401672 24 28.740448 24 28 L 24 27 L 24 26 z "
         style="fill:#ffffc1;fill-opacity:1;fill-rule:nonzero;stroke:none;stroke-width:2;stroke-linecap:butt;stroke-linejoin:miter;stroke-miterlimit:4;stroke-dasharray:none;stroke-dashoffset:0;stroke-opacity:1" />
      <path
         id="rect3505"
         d="M 20 24 C 19.448 24 19 24.448 19 25 L 19 28 L 19 29.75 C 19.597613 29.401672 20 28.740448 20 28 L 20 25 L 20 24 z "
         style="fill:#ffffc1;fill-opacity:1;fill-rule:nonzero;stroke:none;stroke-width:2;stroke-linecap:butt;stroke-linejoin:miter;stroke-miterlimit:4;stroke-dasharray:none;stroke-dashoffset:0;stroke-opacity:1" />
      <path
         id="rect3509"
         d="M 12 24 C 11.448 24 11 24.448 11 25 L 11 28 L 11 29.75 C 11.597613 29.401672 12 28.740448 12 28 L 12 25 L 12 24 z "
         style="fill:#ffffc1;fill-opacity:1;fill-rule:nonzero;stroke:none;stroke-width:2;stroke-linecap:butt;stroke-linejoin:miter;stroke-miterlimit:4;stroke-dasharray:none;stroke-dashoffset:0;stroke-opacity:1" />
      <path
         id="rect3511"
         d="M 22.1875 2.03125 C 22.643047 2.217844 23 3.034 23 4 L 23 5 C 23 5.552 23.448 6 24 6 L 24 5 L 24 4 C 24 3.034 23.317344 2.217844 22.40625 2.03125 C 22.336578 2.016981 22.259598 2.03806 22.1875 2.03125 z "
         style="fill:#ffffc1;fill-opacity:1;fill-rule:nonzero;stroke:none;stroke-width:2;stroke-linecap:butt;stroke-linejoin:miter;stroke-miterlimit:4;stroke-dasharray:none;stroke-dashoffset:0;stroke-opacity:1" />
      <path
         id="rect3513"
         d="M 18.1875 2.03125 C 18.643047 2.217844 19 3.034 19 4 L 19 5 C 19 5.552 19.448 6 20 6 L 20 5 L 20 4 C 20 3.034 19.317344 2.217844 18.40625 2.03125 C 18.336578 2.016981 18.259598 2.03806 18.1875 2.03125 z "
         style="fill:#ffffc1;fill-opacity:1;fill-rule:nonzero;stroke:none;stroke-width:2;stroke-linecap:butt;stroke-linejoin:miter;stroke-miterlimit:4;stroke-dasharray:none;stroke-dashoffset:0;stroke-opacity:1" />
      <path
         id="rect3515"
         d="M 14.1875 2.03125 C 14.643047 2.217844 15 3.034 15 4 L 15 5 C 15 5.552 15.448 6 16 6 L 16 5 L 16 4 C 16 3.034 15.317344 2.217844 14.40625 2.03125 C 14.336578 2.016981 14.259598 2.03806 14.1875 2.03125 z "
         style="fill:#ffffc1;fill-opacity:1;fill-rule:nonzero;stroke:none;stroke-width:2;stroke-linecap:butt;stroke-linejoin:miter;stroke-miterlimit:4;stroke-dasharray:none;stroke-dashoffset:0;stroke-opacity:1" />
      <path
         id="rect3517"
         d="M 10.1875 2.03125 C 10.643047 2.217844 11 3.034 11 4 L 11 5 C 11 5.552 11.448 6 12 6 L 12 5 L 12 4 C 12 3.034 11.317344 2.217844 10.40625 2.03125 C 10.336578 2.016981 10.259598 2.03806 10.1875 2.03125 z "
         style="fill:#ffffc1;fill-opacity:1;fill-rule:nonzero;stroke:none;stroke-width:2;stroke-linecap:butt;stroke-linejoin:miter;stroke-miterlimit:4;stroke-dasharray:none;stroke-dashoffset:0;stroke-opacity:1" />
      <path
         id="rect3519"
         d="M 24 20 C 24 20.552 24.448 21 25 21 L 28 21 C 28.966 21 29.782156 21.356953 29.96875 21.8125 C 29.96194 21.740402 29.983019 21.663422 29.96875 21.59375 C 29.782156 20.682656 28.966 20 28 20 L 25 20 L 24 20 z "
         style="fill:#ffffc1;fill-opacity:1;fill-rule:nonzero;stroke:none;stroke-width:2;stroke-linecap:butt;stroke-linejoin:miter;stroke-miterlimit:4;stroke-dasharray:none;stroke-dashoffset:0;stroke-opacity:1" />
      <path
         id="rect3521"
         d="M 24 16 C 24 16.552 24.448 17 25 17 L 28 17 C 28.966 17 29.782156 17.356953 29.96875 17.8125 C 29.96194 17.740402 29.983019 17.663422 29.96875 17.59375 C 29.782156 16.682656 28.966 16 28 16 L 25 16 L 24 16 z "
         style="fill:#ffffc1;fill-opacity:1;fill-rule:nonzero;stroke:none;stroke-width:2;stroke-linecap:butt;stroke-linejoin:miter;stroke-miterlimit:4;stroke-dasharray:none;stroke-dashoffset:0;stroke-opacity:1" />
      <path
         id="rect3523"
         d="M 24 12 C 24 12.552 24.448 13 25 13 L 28 13 C 28.966 13 29.782156 13.356953 29.96875 13.8125 C 29.96194 13.740402 29.983019 13.663422 29.96875 13.59375 C 29.782156 12.682656 28.966 12 28 12 L 25 12 L 24 12 z "
         style="fill:#ffffc1;fill-opacity:1;fill-rule:nonzero;stroke:none;stroke-width:2;stroke-linecap:butt;stroke-linejoin:miter;stroke-miterlimit:4;stroke-dasharray:none;stroke-dashoffset:0;stroke-opacity:1" />
      <path
         id="rect3525"
         d="M 26 8 C 26 8.552 26.448 9 27 9 L 28 9 C 28.966 9 29.782156 9.356953 29.96875 9.8125 C 29.96194 9.740402 29.983019 9.663422 29.96875 9.59375 C 29.782156 8.682656 28.966 8 28 8 L 27 8 L 26 8 z "
         style="fill:#ffffc1;fill-opacity:1;fill-rule:nonzero;stroke:none;stroke-width:2;stroke-linecap:butt;stroke-linejoin:miter;stroke-miterlimit:4;stroke-dasharray:none;stroke-dashoffset:0;stroke-opacity:1" />
      <path
         id="rect3527"
         d="M 4 20 C 3.259552 20 2.598328 20.402387 2.25 21 L 4 21 L 7 21 C 7.552 21 8 20.552 8 20 L 7 20 L 4 20 z "
         style="fill:#ffffc1;fill-opacity:1;fill-rule:nonzero;stroke:none;stroke-width:2;stroke-linecap:butt;stroke-linejoin:miter;stroke-miterlimit:4;stroke-dasharray:none;stroke-dashoffset:0;stroke-opacity:1" />
      <path
         id="rect3529"
         d="M 4 16 C 3.259552 16 2.598328 16.402387 2.25 17 L 4 17 L 7 17 C 7.552 17 8 16.552 8 16 L 7 16 L 4 16 z "
         style="fill:#ffffc1;fill-opacity:1;fill-rule:nonzero;stroke:none;stroke-width:2;stroke-linecap:butt;stroke-linejoin:miter;stroke-miterlimit:4;stroke-dasharray:none;stroke-dashoffset:0;stroke-opacity:1" />
      <path
         id="rect3531"
         d="M 4 12 C 3.259552 12 2.598328 12.402387 2.25 13 L 4 13 L 7 13 C 7.552 13 8 12.552 8 12 L 7 12 L 4 12 z "
         style="fill:#ffffc1;fill-opacity:1;fill-rule:nonzero;stroke:none;stroke-width:2;stroke-linecap:butt;stroke-linejoin:miter;stroke-miterlimit:4;stroke-dasharray:none;stroke-dashoffset:0;stroke-opacity:1" />
      <path
         id="rect3533"
         d="M 4 8 C 3.259552 8 2.598328 8.402387 2.25 9 L 4 9 L 5 9 C 5.552 9 6 8.552 6 8 L 5 8 L 4 8 z "
         style="fill:#ffffc1;fill-opacity:1;fill-rule:nonzero;stroke:none;stroke-width:2;stroke-linecap:butt;stroke-linejoin:miter;stroke-miterlimit:4;stroke-dasharray:none;stroke-dashoffset:0;stroke-opacity:1" />
      <path
         id="path3539"
         d="M 16 24 C 15.448 24 15 24.448 15 25 L 15 28 L 15 29.75 C 15.597613 29.401672 16 28.740448 16 28 L 16 25 L 16 24 z "
         style="fill:#ffffc1;fill-opacity:1;fill-rule:nonzero;stroke:none;stroke-width:2;stroke-linecap:butt;stroke-linejoin:miter;stroke-miterlimit:4;stroke-dasharray:none;stroke-dashoffset:0;stroke-opacity:1" />
      <path
         id="rect3585"
         d="M 26 24 C 26 24.552 26.448 25 27 25 L 28 25 C 28.552 25 29 25.448 29 26 C 29 26.552 29.448 27 30 27 L 30 26 C 30 24.896 29.104 24 28 24 L 27 24 L 26 24 z "
         style="fill:#ffffc1;fill-opacity:1;fill-rule:nonzero;stroke:none;stroke-width:2;stroke-linecap:butt;stroke-linejoin:miter;stroke-miterlimit:4;stroke-dasharray:none;stroke-dashoffset:0;stroke-opacity:1" />
      <path
         id="path3623"
         d="M 4 24 C 3.259552 24 2.598328 24.402387 2.25 25 L 4 25 L 5 25 C 5.552 25 6 24.552 6 24 L 5 24 L 4 24 z "
         style="fill:#ffffc1;fill-opacity:1;fill-rule:nonzero;stroke:none;stroke-width:2;stroke-linecap:butt;stroke-linejoin:miter;stroke-miterlimit:4;stroke-dasharray:none;stroke-dashoffset:0;stroke-opacity:1" />
      <path
         id="path3757"
         d="M 26 2 C 26 2.552 26.448 3 27 3 C 28.104152 3.0000001 29 3.896 29 5 C 29 5.552 29.448 6 30 6 L 30 5 C 30 3.3439763 28.656254 2 27 2 L 26 2 z "
         style="fill:#ffffc1;fill-opacity:1;fill-rule:nonzero;stroke:none;stroke-width:2;stroke-linecap:butt;stroke-linejoin:miter;stroke-miterlimit:4;stroke-dasharray:none;stroke-dashoffset:0;stroke-opacity:1" />
      <path
         id="path3761"
         d="M 5 2 C 5 2.552 5.448 3 6 3 C 6.552 3 7 3.448 7 4 L 7 5 C 7 5.552 7.448 6 8 6 L 8 5 L 8 4 C 8 2.896 7.104 2 6 2 L 5 2 z "
         style="fill:#ffffc1;fill-opacity:1;fill-rule:nonzero;stroke:none;stroke-width:2;stroke-linecap:butt;stroke-linejoin:miter;stroke-miterlimit:4;stroke-dasharray:none;stroke-dashoffset:0;stroke-opacity:1" />
      <path
         id="path3773"
         d="M 24 26 L 24 27 L 24 28 C 24 29.104 24.896 30 26 30 L 27 30 C 27 29.448 26.552 29 26 29 C 25.448 29 25 28.552 25 28 L 25 27 C 25 26.448 24.552 26 24 26 z "
         style="fill:#dccc00;fill-opacity:1;fill-rule:nonzero;stroke:none;stroke-width:2;stroke-linecap:butt;stroke-linejoin:miter;stroke-miterlimit:4;stroke-dasharray:none;stroke-dashoffset:0;stroke-opacity:1" />
      <path
         id="path3784"
         d="M 2 26 L 2 27 C 2 28.656024 3.343746 30 5 30 L 6 30 C 6 29.448 5.552 29 5 29 C 3.895848 29 3 28.104 3 27 C 3 26.448 2.552 26 2 26 z "
         style="fill:#dccc00;fill-opacity:1;fill-rule:nonzero;stroke:none;stroke-width:2;stroke-linecap:butt;stroke-linejoin:miter;stroke-miterlimit:4;stroke-dasharray:none;stroke-dashoffset:0;stroke-opacity:1" />
      <path
         sodipodi:nodetypes="ccccc"
         id="path3602"
         d="M 12,20 L 12,12 L 16,16 L 20,12 L 20,20"
         style="opacity:1;fill:none;fill-opacity:1;fill-rule:nonzero;stroke:#000000;stroke-width:0.01;stroke-linecap:square;stroke-linejoin:bevel;stroke-miterlimit:4;stroke-dasharray:none;stroke-dashoffset:0;stroke-opacity:1" />
      <path
         sodipodi:end="3.1415927"
         sodipodi:start="1.5707963"
         d="M 12,21 A 1,1 0 0 1 11,20 L 12,20 z"
         sodipodi:ry="1"
         sodipodi:rx="1"
         sodipodi:cy="20"
         sodipodi:cx="12"
         id="path3604"
         style="opacity:1;fill:#ffffc1;fill-opacity:1;fill-rule:nonzero;stroke:none;stroke-width:0.01;stroke-linecap:square;stroke-linejoin:bevel;stroke-miterlimit:4;stroke-dasharray:none;stroke-dashoffset:0;stroke-opacity:1"
         sodipodi:type="arc" />
      <rect
         y="12"
         x="11"
         height="8"
         width="1"
         id="rect3606"
         style="opacity:1;fill:#ffffc1;fill-opacity:1;fill-rule:nonzero;stroke:none;stroke-width:0.01;stroke-linecap:square;stroke-linejoin:bevel;stroke-miterlimit:4;stroke-dasharray:none;stroke-dashoffset:0;stroke-opacity:1" />
      <path
         transform="translate(-2.6794897e-8,-8)"
         sodipodi:type="arc"
         style="opacity:1;fill:#ffffc1;fill-opacity:1;fill-rule:nonzero;stroke:none;stroke-width:0.01;stroke-linecap:square;stroke-linejoin:bevel;stroke-miterlimit:4;stroke-dasharray:none;stroke-dashoffset:0;stroke-opacity:1"
         id="path3608"
         sodipodi:cx="12"
         sodipodi:cy="20"
         sodipodi:rx="1"
         sodipodi:ry="1"
         d="M 11,20 A 1,1 0 0 1 11.292893,19.292893 L 12,20 z"
         sodipodi:start="3.1415927"
         sodipodi:end="3.9269908" />
      <path
         sodipodi:end="5.4977871"
         sodipodi:start="3.9269908"
         d="M 11.292893,19.292893 A 1,1 0 0 1 12.707107,19.292893 L 12,20 z"
         sodipodi:ry="1"
         sodipodi:rx="1"
         sodipodi:cy="20"
         sodipodi:cx="12"
         id="path3610"
         style="opacity:1;fill:#dccc00;fill-opacity:1;fill-rule:nonzero;stroke:none;stroke-width:0.01000000000000000;stroke-linecap:square;stroke-linejoin:bevel;stroke-miterlimit:4;stroke-dasharray:none;stroke-dashoffset:0;stroke-opacity:1"
         sodipodi:type="arc"
         transform="translate(-2.6794897e-8,-8)" />
      <path
         transform="translate(4,-4)"
         sodipodi:type="arc"
         style="opacity:1;fill:#ffffc1;fill-opacity:1;fill-rule:nonzero;stroke:none;stroke-width:0.01;stroke-linecap:square;stroke-linejoin:bevel;stroke-miterlimit:4;stroke-dasharray:none;stroke-dashoffset:0;stroke-opacity:1"
         id="path3612"
         sodipodi:cx="12"
         sodipodi:cy="20"
         sodipodi:rx="1"
         sodipodi:ry="1"
         d="M 12.707107,20.707107 A 1,1 0 0 1 11.292893,20.707107 L 12,20 z"
         sodipodi:start="0.78539816"
         sodipodi:end="2.3561945" />
      <rect
         style="opacity:1;fill:#dccc00;fill-opacity:1;fill-rule:nonzero;stroke:none;stroke-width:0.01000000000000000;stroke-linecap:square;stroke-linejoin:bevel;stroke-miterlimit:4;stroke-dasharray:none;stroke-dashoffset:0;stroke-opacity:1"
         id="rect3619"
         width="1"
         height="7"
         x="12"
         y="13" />
      <path
         id="rect3614"
         d="M 12 12 L 12 13.40625 L 15.28125 16.71875 L 16 16 L 12 12 z "
         style="opacity:1;fill:#ffffc1;fill-opacity:1;fill-rule:nonzero;stroke:none;stroke-width:0.01;stroke-linecap:square;stroke-linejoin:bevel;stroke-miterlimit:4;stroke-dasharray:none;stroke-dashoffset:0;stroke-opacity:1" />
      <path
         sodipodi:end="1.5707963"
         sodipodi:start="0"
         d="M 13,20 A 1,1 0 0 1 12,21 L 12,20 z"
         sodipodi:ry="1"
         sodipodi:rx="1"
         sodipodi:cy="20"
         sodipodi:cx="12"
         id="path3621"
         style="opacity:1;fill:#dccc00;fill-opacity:1;fill-rule:nonzero;stroke:none;stroke-width:0.01;stroke-linecap:square;stroke-linejoin:bevel;stroke-miterlimit:4;stroke-dasharray:none;stroke-dashoffset:0;stroke-opacity:1"
         sodipodi:type="arc" />
      <rect
         transform="matrix(0.7071068,-0.7071068,0.7071068,0.7071068,0,0)"
         y="16.925039"
         x="0"
         height="6"
         width="1"
         id="rect3623"
         style="opacity:1;fill:#dccc00;fill-opacity:1;fill-rule:nonzero;stroke:none;stroke-width:0.01;stroke-linecap:square;stroke-linejoin:bevel;stroke-miterlimit:4;stroke-dasharray:none;stroke-dashoffset:0;stroke-opacity:1" />
      <rect
         transform="matrix(0.7071068,0.7071068,-0.7071068,0.7071068,0,0)"
         y="-6"
         x="22.627417"
         height="6"
         width="1"
         id="rect3635"
         style="opacity:1;fill:#ffffc1;fill-opacity:1;fill-rule:nonzero;stroke:none;stroke-width:0.01;stroke-linecap:square;stroke-linejoin:bevel;stroke-miterlimit:4;stroke-dasharray:none;stroke-dashoffset:0;stroke-opacity:1" />
      <path
         id="rect3625"
         d="M 20 12 L 19 13 L 19 20 L 20 20 L 20 12 z "
         style="opacity:1;fill:#ffffc1;fill-opacity:1;fill-rule:nonzero;stroke:none;stroke-width:0.01;stroke-linecap:square;stroke-linejoin:bevel;stroke-miterlimit:4;stroke-dasharray:none;stroke-dashoffset:0;stroke-opacity:1" />
      <path
         transform="translate(8,0)"
         sodipodi:type="arc"
         style="opacity:1;fill:#ffffc1;fill-opacity:1;fill-rule:nonzero;stroke:none;stroke-width:0.01;stroke-linecap:square;stroke-linejoin:bevel;stroke-miterlimit:4;stroke-dasharray:none;stroke-dashoffset:0;stroke-opacity:1"
         id="path3627"
         sodipodi:cx="12"
         sodipodi:cy="20"
         sodipodi:rx="1"
         sodipodi:ry="1"
         d="M 12,21 A 1,1 0 0 1 11,20 L 12,20 z"
         sodipodi:start="1.5707963"
         sodipodi:end="3.1415927" />
      <rect
         y="12"
         x="20"
         height="8"
         width="1"
         id="rect3629"
         style="opacity:1;fill:#dccc00;fill-opacity:1;fill-rule:nonzero;stroke:none;stroke-width:0.01;stroke-linecap:square;stroke-linejoin:bevel;stroke-miterlimit:4;stroke-dasharray:none;stroke-dashoffset:0;stroke-opacity:1" />
      <path
         transform="translate(8,0)"
         sodipodi:type="arc"
         style="opacity:1;fill:#dccc00;fill-opacity:1;fill-rule:nonzero;stroke:none;stroke-width:0.01;stroke-linecap:square;stroke-linejoin:bevel;stroke-miterlimit:4;stroke-dasharray:none;stroke-dashoffset:0;stroke-opacity:1"
         id="path3631"
         sodipodi:cx="12"
         sodipodi:cy="20"
         sodipodi:rx="1"
         sodipodi:ry="1"
         d="M 13,20 A 1,1 0 0 1 12,21 L 12,20 z"
         sodipodi:start="0"
         sodipodi:end="1.5707963" />
      <path
         sodipodi:end="6.2831853"
         sodipodi:start="3.9269908"
         d="M 11.292893,19.292893 A 1,1 0 0 1 13,20 L 12,20 z"
         sodipodi:ry="1"
         sodipodi:rx="1"
         sodipodi:cy="20"
         sodipodi:cx="12"
         id="path3633"
         style="opacity:1;fill:#dccc00;fill-opacity:1;fill-rule:nonzero;stroke:none;stroke-width:0.01;stroke-linecap:square;stroke-linejoin:bevel;stroke-miterlimit:4;stroke-dasharray:none;stroke-dashoffset:0;stroke-opacity:1"
         sodipodi:type="arc"
         transform="translate(8,-8)" />
    </g>
  </g>
</svg>
