<?xml version="1.0" encoding="UTF-8" standalone="no"?>
<!-- Created with Inkscape (http://www.inkscape.org/) -->

<svg xmlns:dc="http://purl.org/dc/elements/1.1/" xmlns:cc="http://creativecommons.org/ns#" xmlns:rdf="http://www.w3.org/1999/02/22-rdf-syntax-ns#" xmlns:svg="http://www.w3.org/2000/svg" xmlns="http://www.w3.org/2000/svg" xmlns:xlink="http://www.w3.org/1999/xlink" xmlns:sodipodi="http://sodipodi.sourceforge.net/DTD/sodipodi-0.dtd" xmlns:inkscape="http://www.inkscape.org/namespaces/inkscape" width="32" height="32" id="svg4150" version="1.1" inkscape:version="0.91 r13725" viewBox="0 0 32 32" sodipodi:docname="00.svg">
  <defs id="defs4152" />
  <sodipodi:namedview id="base" pagecolor="#ffffff" bordercolor="#666666" borderopacity="1.0" inkscape:pageopacity="0.0" inkscape:pageshadow="2" inkscape:zoom="22.125" inkscape:cx="16" inkscape:cy="16" inkscape:current-layer="g22559" showgrid="false" inkscape:grid-bbox="true" inkscape:document-units="px" objecttolerance="10000" inkscape:snap-perpendicular="true" guidetolerance="10000" inkscape:window-width="1600" inkscape:window-height="878" inkscape:window-x="0" inkscape:window-y="0" inkscape:window-maximized="1" showguides="false" inkscape:guide-bbox="true" inkscape:snap-path-clip="true" inkscape:snap-path-mask="true" inkscape:snap-tangential="true">
    <inkscape:grid type="xygrid" id="grid4698" empspacing="8" spacingx="0.5" spacingy="0.5" />
    <sodipodi:guide position="16,32" orientation="1,0" id="guide4769" />
    <sodipodi:guide position="-4,16" orientation="0,1" id="guide4771" />
    <sodipodi:guide position="16,16" orientation="-0.70710678,0.70710678" id="guide4773" />
    <sodipodi:guide position="16,16" orientation="0.70710678,0.70710678" id="guide4775" />
  </sodipodi:namedview>
  <metadata id="metadata4155">
    <rdf:RDF>
      <cc:Work rdf:about="">
        <dc:format>image/svg+xml</dc:format>
        <dc:type rdf:resource="http://purl.org/dc/dcmitype/StillImage" />
        <dc:title></dc:title>
      </cc:Work>
    </rdf:RDF>
  </metadata>
  <g id="layer1" inkscape:label="Layer 1" inkscape:groupmode="layer">
    <g id="g5756" transform="matrix(-1,0,0,-1,32,32)">
      <g id="g22559" transform="matrix(2.6196318,1.5124451,-1.512464,2.6196646,-86.918797,79.891704)">
        <path style="color:black;font-style:normal;font-variant:normal;font-weight:normal;font-stretch:normal;font-size:medium;line-height:normal;font-family:sans-serif;text-indent:0;text-align:start;text-decoration:none;text-decoration-line:none;text-decoration-style:solid;text-decoration-color:black;letter-spacing:normal;word-spacing:normal;text-transform:none;direction:ltr;block-progression:tb;writing-mode:lr-tb;baseline-shift:baseline;text-anchor:start;white-space:normal;clip-rule:nonzero;display:inline;overflow:visible;visibility:visible;opacity:1;isolation:auto;mix-blend-mode:normal;color-interpolation:sRGB;color-interpolation-filters:linearRGB;solid-color:black;solid-opacity:1;fill:black;fill-opacity:1;fill-rule:nonzero;stroke:none;stroke-width:2;stroke-linecap:round;stroke-linejoin:round;stroke-miterlimit:4;stroke-dasharray:none;stroke-dashoffset:0;stroke-opacity:1;color-rendering:auto;image-rendering:auto;shape-rendering:auto;text-rendering:auto;enable-background:accumulate" d="m 19.698474,-29.654393 c 0.01298,-0.0078 0.02541,-0.01646 0.03721,-0.02595 0.574623,-0.456895 0.924226,-1.161929 1.091614,-1.939445 0.393033,0.114784 0.80094,0.170429 1.207333,0.108908 0.118467,-0.01788 0.217994,-0.09844 0.26015,-0.210586 0.144321,-0.384113 0.174591,-0.793983 0.144254,-1.201628 0.79542,-0.0029 1.558107,-0.199018 2.12377,-0.666972 0.108642,-0.08972 0.148488,-0.238427 0.09926,-0.370444 -0.256874,-0.687284 -0.81952,-1.237999 -1.506781,-1.637399 0.230563,-0.33857 0.409208,-0.709376 0.476044,-1.11509 0.01957,-0.118198 -0.02634,-0.237733 -0.120001,-0.312447 -0.320789,-0.255844 -0.701418,-0.41099 -1.098508,-0.507986 0.243387,-0.75755 0.292456,-1.543578 0.02228,-2.226441 -0.05185,-0.130995 -0.18101,-0.214747 -0.321762,-0.208636 -0.733325,0.03221 -1.43051,0.397788 -2.022735,0.928487 -0.250673,-0.324268 -0.548092,-0.609033 -0.913436,-0.798246 -0.106391,-0.05507 -0.234248,-0.04828 -0.334208,0.01775 -0.342144,0.225964 -0.607026,0.539363 -0.82184,0.88678 -0.645303,-0.465513 -1.377974,-0.7553 -2.110917,-0.709302 -0.140767,0.0089 -0.260394,0.106098 -0.297891,0.242068 -0.196222,0.707279 -0.06445,1.483258 0.257075,2.210541 -0.385491,0.138156 -0.747893,0.332952 -1.040541,0.621624 -0.0851,0.08404 -0.118179,0.207486 -0.0865,0.322816 0.108932,0.395768 0.324583,0.745134 0.588791,1.057251 -0.641957,0.469852 -1.143602,1.077518 -1.326304,1.788644 -0.03479,0.136297 0.02048,0.279682 0.137741,0.357376 0.612102,0.405074 1.390974,0.519751 2.182031,0.438612 0.01221,0.409316 0.08533,0.814459 0.269394,1.182008 0.05365,0.106846 0.160805,0.176404 0.280238,0.181911 0.409992,0.01856 0.809242,-0.07897 1.187626,-0.233856 0.24841,0.755917 0.670618,1.420788 1.29061,1.814393 0.105129,0.0668 0.238879,0.06885 0.346004,0.0053 z" id="path10138" inkscape:connector-curvature="0" sodipodi:nodetypes="ccccccccccccccccccccccccccccccccc" />
        <g id="g5929" inkscape:transform-center-x="-0.77300638" inkscape:transform-center-y="0.77233379" transform="matrix(0.6630946,0.66307619,-0.66312041,0.66310201,-16.693125,-24.335413)">
          <path style="opacity:1;fill:lime;fill-opacity:1;fill-rule:nonzero;stroke:none;stroke-width:1;stroke-linecap:round;stroke-linejoin:round;stroke-miterlimit:4;stroke-dasharray:none;stroke-dashoffset:0;stroke-opacity:1" d="m 18.967753,-32.194084 a 2.6447193,3.2548971 24.001304 0 0 -0.06288,-3.109887 2.6447194,3.2548971 24.001307 0 0 -2.353202,2.034187 2.6447194,3.2548971 24.001307 0 0 0.06352,3.108435 2.6447193,3.2548971 24.001304 0 0 2.352523,-2.032789 z" id="path5871" inkscape:connector-curvature="0" inkscape:transform-center-x="-6.8871657" inkscape:transform-center-y="-5.0058401" />
          <use height="100%" width="100%" transform="matrix(0.309017,-0.95104461,0.95106842,0.30901698,46.639336,-6.4157101)" id="use5873" inkscape:transform-center-y="-8.0969826" inkscape:transform-center-x="2.6325567" xlink:href="#path5871" y="0" x="0" />
          <use height="100%" width="100%" transform="matrix(-0.80901699,-0.5877779,0.58779261,-0.809017,54.949905,-52.754363)" id="use5875" inkscape:transform-center-y="0.0016682326" inkscape:transform-center-x="8.5142098" xlink:href="#path5871" y="0" x="0" />
          <use height="100%" width="100%" transform="matrix(-0.809017,0.5877779,-0.58779261,-0.80901699,13.446783,-74.977516)" id="use5877" inkscape:transform-center-y="8.0980082" inkscape:transform-center-x="2.6294543" xlink:href="#path5871" y="0" x="0" />
          <use height="100%" width="100%" transform="matrix(0.30901698,0.95104461,-0.95106842,0.309017,-20.514126,-42.373526)" id="use5879" inkscape:transform-center-y="5.0031815" inkscape:transform-center-x="-6.8891148" xlink:href="#path5871" y="0" x="0" />
          <path inkscape:transform-center-y="-0.00167726" inkscape:transform-center-x="-7.0000662" inkscape:connector-curvature="0" id="path5827" d="m 17.561149,-33.001163 a 2.6447,2.676076 60.02631 0 0 1.343485,-2.302564 2.6447001,2.676076 60.026375 0 0 -2.665846,0.01219 2.6447001,2.676076 60.026375 0 0 -1.342351,2.301911 2.6447,2.676076 60.02631 0 0 2.664713,-0.01159 z" style="opacity:1;fill:red;fill-opacity:1;fill-rule:nonzero;stroke:none;stroke-width:1;stroke-linecap:round;stroke-linejoin:round;stroke-miterlimit:4;stroke-dasharray:none;stroke-dashoffset:0;stroke-opacity:1" />
          <use height="100%" width="100%" transform="matrix(0.309017,-0.95104461,0.95106842,0.30901698,46.639331,-6.4157125)" id="use5839" inkscape:transform-center-y="-6.6579777" inkscape:transform-center-x="-2.1615467" xlink:href="#path5827" y="0" x="0" />
          <use transform="matrix(-0.80901699,-0.5877779,0.58779261,-0.809017,54.949896,-52.754361)" height="100%" width="100%" id="use5841" inkscape:transform-center-y="-4.1131795" inkscape:transform-center-x="5.6641514" xlink:href="#path5827" y="0" x="0" />
          <use height="100%" width="100%" transform="matrix(-0.809017,0.5877779,-0.58779261,-0.80901699,13.446776,-74.977509)" id="use5843" inkscape:transform-center-y="4.1158636" inkscape:transform-center-x="5.6621852" xlink:href="#path5827" y="0" x="0" />
          <use height="100%" width="100%" transform="matrix(0.30901698,0.95104461,-0.95106842,0.309017,-20.514127,-42.37352)" id="use5845" inkscape:transform-center-y="6.6569384" inkscape:transform-center-x="-2.1646848" xlink:href="#path5827" y="0" x="0" />
          <path inkscape:transform-center-y="-1.3816883" inkscape:transform-center-x="-1.7135106" inkscape:connector-curvature="0" id="path5851" d="m 18.803253,-34.263249 a 0.33058637,0.33059051 0 0 0 -0.07213,-0.37137 l 0.173515,-0.669108 -0.381147,0.576665 a 0.33058637,0.33059051 0 0 0 -0.324253,0.19489 0.33058637,0.33059051 0 0 0 0.167546,0.436467 0.33058637,0.33059051 0 0 0 0.436473,-0.167544 z" style="opacity:1;fill:yellow;fill-opacity:1;fill-rule:nonzero;stroke:none;stroke-width:1;stroke-linecap:round;stroke-linejoin:round;stroke-miterlimit:4;stroke-dasharray:none;stroke-dashoffset:0;stroke-opacity:1" />
          <use height="100%" width="100%" transform="matrix(0.309017,-0.95104461,0.95106842,0.30901698,46.63904,-6.4151261)" id="use5854" inkscape:transform-center-y="-1.9265741" inkscape:transform-center-x="0.92729928" xlink:href="#path5851" y="0" x="0" />
          <use height="100%" width="100%" transform="matrix(-0.80901699,-0.5877779,0.58779261,-0.809017,54.950073,-52.753317)" id="use5856" inkscape:transform-center-y="1.040949e-05" inkscape:transform-center-x="1.9999941" xlink:href="#path5851" y="0" x="0" />
          <use height="100%" width="100%" transform="matrix(-0.809017,0.5877779,-0.58779261,-0.80901699,13.447533,-74.976768)" id="use5858" inkscape:transform-center-y="1.9265867" inkscape:transform-center-x="0.92728264" xlink:href="#path5851" y="0" x="0" />
          <use height="100%" width="100%" transform="matrix(0.30901698,0.95104461,-0.95106842,0.309017,-20.513479,-42.373425)" id="use5860" inkscape:transform-center-y="1.3816596" inkscape:transform-center-x="-1.7135323" xlink:href="#path5851" y="0" x="0" />
          <path inkscape:transform-center-x="-0.1357468" inkscape:transform-center-y="-0.00079117827" transform="matrix(0.32336631,-0.06873277,0.06873363,0.32336227,12.631557,-39.377557)" d="m 16,17.5 c -0.233266,0 -0.07579,-0.998832 -0.264503,-1.135942 -0.188717,-0.137111 -1.089999,0.321317 -1.162082,0.09947 -0.07208,-0.22185 0.926526,-0.380734 0.99861,-0.602584 0.07208,-0.221849 -0.642419,-0.937357 -0.453703,-1.074467 C 15.307038,14.649364 15.766734,15.55 16,15.55 c 0.233266,0 0.692962,-0.900636 0.881678,-0.763526 0.188716,0.137111 -0.525786,0.852619 -0.453703,1.074468 0.07208,0.22185 1.070693,0.380734 0.99861,0.602583 -0.07208,0.22185 -0.973365,-0.236578 -1.162082,-0.09947 C 16.075787,16.501168 16.233266,17.5 16,17.5 Z" inkscape:randomized="0" inkscape:rounded="0.2" inkscape:flatsided="false" sodipodi:arg2="2.1991149" sodipodi:arg1="1.5707963" sodipodi:r2="0.44999999" sodipodi:r1="1.5" sodipodi:cy="16" sodipodi:cx="16" sodipodi:sides="5" id="path5862" style="opacity:1;fill:#fc0;fill-opacity:1;fill-rule:nonzero;stroke:none;stroke-width:1;stroke-linecap:round;stroke-linejoin:round;stroke-miterlimit:4;stroke-dasharray:none;stroke-dashoffset:0;stroke-opacity:1" sodipodi:type="star" />
        </g>
      </g>
    </g>
  </g>
</svg>
