<?xml version="1.0" encoding="UTF-8" standalone="no"?>
<!-- Created with Inkscape (http://www.inkscape.org/) -->

<svg
   xmlns:dc="http://purl.org/dc/elements/1.1/"
   xmlns:cc="http://creativecommons.org/ns#"
   xmlns:rdf="http://www.w3.org/1999/02/22-rdf-syntax-ns#"
   xmlns:svg="http://www.w3.org/2000/svg"
   xmlns="http://www.w3.org/2000/svg"
   xmlns:xlink="http://www.w3.org/1999/xlink"
   xmlns:sodipodi="http://sodipodi.sourceforge.net/DTD/sodipodi-0.dtd"
   xmlns:inkscape="http://www.inkscape.org/namespaces/inkscape"
   width="32px"
   height="32px"
   id="svg3505"
   sodipodi:version="0.32"
   inkscape:version="0.48.5 r10040"
   sodipodi:docname="00.svg"
   inkscape:output_extension="org.inkscape.output.svg.inkscape"
   version="1.1">
  <defs
     id="defs3507">
    <inkscape:perspective
       sodipodi:type="inkscape:persp3d"
       inkscape:vp_x="0 : 16 : 1"
       inkscape:vp_y="0 : 1000 : 0"
       inkscape:vp_z="32 : 16 : 1"
       inkscape:persp3d-origin="16 : 10.666667 : 1"
       id="perspective3513" />
    <inkscape:perspective
       id="perspective4690"
       inkscape:persp3d-origin="372.04724 : 350.78739 : 1"
       inkscape:vp_z="744.09448 : 526.18109 : 1"
       inkscape:vp_y="0 : 1000 : 0"
       inkscape:vp_x="0 : 526.18109 : 1"
       sodipodi:type="inkscape:persp3d" />
    <inkscape:perspective
       id="perspective2564"
       inkscape:persp3d-origin="372.04724 : 350.78739 : 1"
       inkscape:vp_z="744.09448 : 526.18109 : 1"
       inkscape:vp_y="0 : 1000 : 0"
       inkscape:vp_x="0 : 526.18109 : 1"
       sodipodi:type="inkscape:persp3d" />
    <linearGradient
       inkscape:collect="always"
       xlink:href="#linearGradient8649"
       id="linearGradient8655"
       x1="19"
       y1="13"
       x2="13"
       y2="19"
       gradientUnits="userSpaceOnUse" />
    <linearGradient
       id="linearGradient8649">
      <stop
         style="stop-color:black;stop-opacity:0.50196081;"
         offset="0"
         id="stop8651" />
      <stop
         style="stop-color:white;stop-opacity:0.50196081;"
         offset="1"
         id="stop8653" />
    </linearGradient>
    <linearGradient
       y2="19"
       x2="13"
       y1="13"
       x1="19"
       gradientUnits="userSpaceOnUse"
       id="linearGradient8680"
       xlink:href="#linearGradient8649"
       inkscape:collect="always" />
    <linearGradient
       inkscape:collect="always"
       xlink:href="#linearGradient8649"
       id="linearGradient9404"
       gradientUnits="userSpaceOnUse"
       x1="19"
       y1="13"
       x2="13"
       y2="19" />
  </defs>
  <sodipodi:namedview
     id="base"
     pagecolor="#ffffff"
     bordercolor="#666666"
     borderopacity="1.0"
     inkscape:pageopacity="0.0"
     inkscape:pageshadow="2"
     inkscape:zoom="17.352995"
     inkscape:cx="13.928755"
     inkscape:cy="16"
     inkscape:current-layer="layer1"
     showgrid="true"
     inkscape:grid-bbox="true"
     inkscape:document-units="px"
     objecttolerance="10000"
     gridtolerance="10000"
     guidetolerance="10000"
     inkscape:window-width="1024"
     inkscape:window-height="741"
     inkscape:window-x="0"
     inkscape:window-y="2"
     inkscape:object-paths="true"
     inkscape:object-nodes="true"
     inkscape:snap-bbox="true"
     inkscape:snap-guide="true"
     showguides="true"
     inkscape:guide-bbox="true"
     inkscape:window-maximized="1">
    <inkscape:grid
       type="xygrid"
       id="grid3515"
       units="px"
       visible="true"
       enabled="true"
       spacingx="1px"
       spacingy="1px"
       empspacing="4"
       snapvisiblegridlinesonly="true" />
    <sodipodi:guide
       orientation="-0.70710678,0.70710678"
       position="33.245902,33.245902"
       id="guide3622" />
    <sodipodi:guide
       orientation="0.70710678,0.70710678"
       position="0,32"
       id="guide3624" />
  </sodipodi:namedview>
  <metadata
     id="metadata3510">
    <rdf:RDF>
      <cc:Work
         rdf:about="">
        <dc:format>image/svg+xml</dc:format>
        <dc:type
           rdf:resource="http://purl.org/dc/dcmitype/StillImage" />
        <dc:title>Vorlage f端r 32x32-Pixel-Icons f端r McMinos</dc:title>
        <dc:date>2010-04-05</dc:date>
        <dc:creator>
          <cc:Agent>
            <dc:title>Andreas Neudecker &lt;zapyon@gmx.net&gt;</dc:title>
          </cc:Agent>
        </dc:creator>
        <dc:rights>
          <cc:Agent>
            <dc:title>Copyright (C) 2010 by Andreas Neudecker</dc:title>
          </cc:Agent>
        </dc:rights>
        <dc:publisher>
          <cc:Agent>
            <dc:title>Andreas Neudecker</dc:title>
          </cc:Agent>
        </dc:publisher>
        <dc:identifier>vorlage-32x32-mcminos</dc:identifier>
        <dc:description>Vorlage f端r 32x32-Pixel-Icons f端r McMinos. Metadaten jeweils entsprechend anpassen!</dc:description>
      </cc:Work>
    </rdf:RDF>
  </metadata>
  <g
     id="layer1"
     inkscape:label="Layer 1"
     inkscape:groupmode="layer">
    <g
       id="g9956">
      <rect
         y="1"
         x="1"
         height="30"
         width="30"
         id="rect5175"
         style="fill:black;fill-opacity:1;stroke:none" />
      <path
         id="path7053"
         d="m 3,0 0,3 -3,0 0,26 3,0 0,3 26,0 0,-3 3,0 L 32,3 29,3 29,0 3,0 z"
         style="fill:black;fill-opacity:1;fill-rule:nonzero;stroke:none"
         inkscape:connector-curvature="0" />
      <path
         sodipodi:nodetypes="ccccc"
         id="path2570"
         d="M 16,16 0,16 0,4 4,4 16,16 z"
         style="fill:#00ffff;fill-opacity:1;fill-rule:nonzero;stroke:none"
         inkscape:connector-curvature="0" />
      <path
         sodipodi:nodetypes="ccccccc"
         style="fill:blue;fill-opacity:1;fill-rule:nonzero;stroke:none"
         d="M 16,32 4,32 4,28 0,28 0,16 16,16 16,32 z"
         id="path3342"
         inkscape:connector-curvature="0" />
      <path
         d="m 17,16 a 1,1 0 1 1 -2,0 1,1 0 1 1 2,0 z"
         sodipodi:ry="1"
         sodipodi:rx="1"
         sodipodi:cy="16"
         sodipodi:cx="16"
         id="path3344"
         style="fill:silver;fill-opacity:1;fill-rule:nonzero;stroke:none"
         sodipodi:type="arc" />
      <path
         sodipodi:nodetypes="ccccccccccccccccccccccccc"
         id="path3626"
         d="m 0,14 14,0.03125 -1,-1 L 0,13 0,14 z m 0,-2 12,0.03125 -1,-1 L 0,11 0,12 z M 0,10 10,10 9,9 0,9 0,10 z m 0,-1.96875 8,0 -1,-1 L 0,7 0,8.03125 z M 0,6 6,6.03125 4.9999996,5.03125 0,5 0,6 z"
         style="fill:#c3c3c3;fill-opacity:1;fill-rule:nonzero;stroke:none"
         inkscape:connector-curvature="0" />
      <path
         sodipodi:nodetypes="ccccccccccccccccccccccccccccccccccc"
         id="path3368"
         d="M 14,32 14.03125,18 0,18 0,19 13.03125,19 13,32 14,32 z M 12,32 12.03125,20 0,20 0,21 11.03125,21 11,32 l 1,0 z m -2,0 0,-10 -10,0 0,1 9,0 0,9 1,0 z M 8,32 8.0312499,24 -1e-7,24 0,25 7.0312499,25 7,32 8,32 z M 6,32 6.0312499,26 0,26 0,27 5.0312499,27 5,32 6,32 z"
         style="fill:#6b6b6b;fill-opacity:1;fill-rule:nonzero;stroke:none"
         inkscape:connector-curvature="0" />
      <path
         transform="matrix(-1,0,0,-1,32,32)"
         sodipodi:type="arc"
         style="fill:#00005c;fill-opacity:1;fill-rule:nonzero;stroke:none"
         id="path3366"
         sodipodi:cx="16"
         sodipodi:cy="16"
         sodipodi:rx="1"
         sodipodi:ry="1"
         d="m 17,16 a 1,1 0 1 1 -2,0 1,1 0 1 1 2,0 z" />
      <path
         id="path7041"
         d="M 16,0 16,16 32,16 32,4 28,4 28,0 16,0 z"
         style="fill:#00ffff;fill-opacity:1;fill-rule:nonzero;stroke:none"
         inkscape:connector-curvature="0" />
      <path
         id="path7043"
         d="m 32,16 0,12 -4,0 -12,-12 16,0 z"
         style="fill:blue;fill-opacity:1;fill-rule:nonzero;stroke:none"
         sodipodi:nodetypes="ccccc"
         inkscape:connector-curvature="0" />
      <path
         sodipodi:nodetypes="ccccc"
         style="fill:blue;fill-opacity:1;fill-rule:nonzero;stroke:none"
         d="M 16,0 4,0 4,4 16,16 16,0 z"
         id="path7045"
         inkscape:connector-curvature="0" />
      <path
         style="fill:#00ffff;fill-opacity:1;fill-rule:nonzero;stroke:none"
         d="m 16,16 0,16 12,0 0,-4 -12,-12 z"
         id="path7051"
         sodipodi:nodetypes="ccccc"
         inkscape:connector-curvature="0" />
      <path
         id="rect3926"
         d="m 15,0 0,15 -15,0 0,2 15,0 0,15 2,0 0,-15 15,0 0,-2 -15,0 0,-15 -2,0 z"
         style="fill:#0080ff;fill-opacity:1;fill-rule:nonzero;stroke:none"
         inkscape:connector-curvature="0" />
      <path
         id="path7028"
         d="M 18.03125,0 18,14 l 14,0 0,-1 -13,0 0.03125,-13 -1,0 z m 2,0 L 20,12 l 12,0 0,-1 -11,0 0.03125,-11 -1,0 z m 2,0 0,9.9375 0,0.03125 0.03125,0 L 32,10 32,9 23.03125,8.96875 l 0,-8.96875 -1,0 z M 24,0 24,8 32,8.03125 32,7 25,7 25.03125,0 24,0 z M 26.03125,0 26,6 l 6,0 0,-1 -5,0 0.03125,-5 -1,0 z"
         style="fill:#c3c3c3;fill-opacity:1;fill-rule:nonzero;stroke:none"
         inkscape:connector-curvature="0" />
      <path
         sodipodi:nodetypes="ccccccccccccccccccccccccc"
         id="path7032"
         d="m 18,32 -0.03125,-14 1,1 L 19,32 18,32 z m 2,0 -0.03125,-12 1,1 L 21,32 20,32 z m 2,0 0,-10 1,1 0,9 -1,0 z m 1.96875,0 0,-8 1,1 L 25,32 23.96875,32 z M 26,32 l -0.03125,-6 1,1 L 27,32 26,32 z"
         style="fill:#c3c3c3;fill-opacity:1;fill-rule:nonzero;stroke:none"
         inkscape:connector-curvature="0" />
      <path
         style="fill:#6b6b6b;fill-opacity:1;fill-rule:nonzero;stroke:none"
         d="m 14,0 0.03125,14 -1,-1 L 13,0 14,0 z m -2,0 0.03125,12 -1,-1 L 11,0 12,0 z m -2,0 0,10 -0.9999999,-1 0,-9 L 10,0 z m -1.9999999,0 0.03125,8 -1,-1 -0.03125,-7 1,0 z m -2,0 0.03125,6 -1,-1 -0.03125,-5 1,0 z"
         id="path7034"
         sodipodi:nodetypes="ccccccccccccccccccccccccc"
         inkscape:connector-curvature="0" />
      <path
         sodipodi:nodetypes="ccccccccccccccccccccccccc"
         id="path7039"
         d="M 32,18.03125 18,18 l 1,1 13,0.03125 0,-1 z m 0,2 L 20,20 l 1,1 11,0.03125 0,-1 z m 0,2 -10,0 1,1 9,0 0,-1 z m 0,2 L 24,24 l 1,1 7,0.03125 0,-1 z m 0,2 L 26,26 l 1,1 5,0.03125 0,-1 z"
         style="fill:#6b6b6b;fill-opacity:1;fill-rule:nonzero;stroke:none"
         inkscape:connector-curvature="0" />
      <rect
         y="2"
         x="2"
         height="28"
         width="28"
         id="rect5112"
         style="fill:#ccc;fill-opacity:1;stroke:none" />
      <use
         height="32"
         width="32"
         transform="translate(0,8.9999998)"
         id="use8973"
         xlink:href="#path8647"
         y="0"
         x="0" />
      <use
         height="32"
         width="32"
         transform="translate(0,-9.0000002)"
         id="use8971"
         xlink:href="#path8647"
         y="0"
         x="0" />
      <use
         height="32"
         width="32"
         transform="translate(-9.0000001,0)"
         id="use8969"
         xlink:href="#path8647"
         y="0"
         x="0" />
      <use
         height="32"
         width="32"
         transform="translate(8.9999999,0)"
         id="use8967"
         xlink:href="#path8647"
         y="0"
         x="0" />
      <path
         transform="matrix(1.0031299,0,0,1.0031299,-0.05007824,-0.05007824)"
         d="m 19.98752,16 a 3.9875195,3.9875195 0 1 1 -7.97504,0 3.9875195,3.9875195 0 1 1 7.97504,0 z"
         sodipodi:ry="3.9875195"
         sodipodi:rx="3.9875195"
         sodipodi:cy="16"
         sodipodi:cx="16"
         id="path8647"
         style="fill:url(#linearGradient9404);fill-opacity:1;stroke:none"
         sodipodi:type="arc" />
      <path
         inkscape:connector-curvature="0"
         id="path5114"
         d="M 2,20 2,30 12,30 12,20 2,20 z"
         style="fill:black;fill-opacity:0.50196081;stroke:none" />
      <path
         sodipodi:nodetypes="cccc"
         inkscape:transform-center-y="-7.2222222"
         inkscape:transform-center-x="7.2222222"
         inkscape:connector-curvature="0"
         id="path5173"
         d="m 2,2 0,10 10,0 z"
         style="fill:#c3c3c3;fill-opacity:1;stroke:none" />
      <path
         sodipodi:nodetypes="cccc"
         inkscape:transform-center-y="7.2222222"
         inkscape:transform-center-x="-7.2222222"
         inkscape:connector-curvature="0"
         id="path5171"
         d="M 30,30 20,30 20,20 z"
         style="fill:white;fill-opacity:0.50196081000000004;stroke:none" />
      <path
         id="path5169"
         d="M 20,2 20,12 30,12 30,2 20,2 z"
         style="fill:white;fill-opacity:0.50196081000000004;stroke:none"
         inkscape:connector-curvature="0" />
      <path
         sodipodi:nodetypes="cccc"
         inkscape:transform-center-y="-7.2222222"
         inkscape:transform-center-x="7.2222222"
         inkscape:connector-curvature="0"
         id="path5110"
         d="m 2,2 10,0 0,10 z"
         style="fill:black;fill-opacity:0.50196081;stroke:none" />
      <path
         sodipodi:nodetypes="cccc"
         inkscape:transform-center-y="7.2222222"
         inkscape:transform-center-x="-7.2222222"
         inkscape:connector-curvature="0"
         id="path5116"
         d="M 30,30 30,20 20,20 z"
         style="fill:black;fill-opacity:0.50196081;stroke:none" />
      <use
         height="32"
         width="32"
         transform="matrix(0.49987592,-0.86581049,0.86581049,0.49987592,-14.850983,21.854953)"
         id="use5165"
         xlink:href="#g4361"
         y="0"
         x="0" />
      <g
         id="g4361"
         transform="translate(8,0)">
        <path
           sodipodi:type="arc"
           style="fill:#a0a0a0;fill-opacity:1;stroke:none"
           id="path4371"
           sodipodi:cx="10"
           sodipodi:cy="10"
           sodipodi:rx="2"
           sodipodi:ry="2"
           d="m 12,10 c 0,1.104569 -0.895431,2 -2,2 -1.1045695,0 -2,-0.895431 -2,-2 0,-1.1045695 0.8954305,-2 2,-2 1.104569,0 2,0.8954305 2,2 z"
           transform="matrix(1.0606602,-1.0606602,1.0606602,1.0606602,-13.213204,16)" />
        <path
           sodipodi:open="true"
           sodipodi:end="4.712389"
           sodipodi:start="1.5707963"
           sodipodi:type="arc"
           style="fill:#6b6b6b;fill-opacity:1;stroke:none"
           id="path4369"
           sodipodi:cx="10"
           sodipodi:cy="10"
           sodipodi:rx="2"
           sodipodi:ry="2"
           d="M 10,12 C 8.8954306,12 8,11.10457 8,10 8,8.8954306 8.8954304,8 9.9999999,8 10,8 10,8 10,8"
           transform="matrix(1.0606602,-1.0606602,1.0606602,1.0606602,-13.213204,16)" />
        <path
           style="fill:#6b6b6b;fill-opacity:1;stroke:none"
           d="m 6.2812499,13.5625 c -0.139926,0.09889 -0.2854232,0.191673 -0.40625,0.3125 L 10.125,18.125 c 0.120827,-0.120826 0.213609,-0.266324 0.3125,-0.40625 L 6.2812499,13.5625 z"
           id="path3783"
           inkscape:connector-curvature="0" />
        <path
           style="fill:#c3c3c3;fill-opacity:1;stroke:none"
           d="m 5.8749999,13.875 c -0.1208269,0.120827 -0.213609,0.266324 -0.3125,0.40625 L 9.71875,18.4375 C 9.858676,18.33861 10.004173,18.245827 10.125,18.125 l -4.2500001,-4.25 z"
           id="path3010"
           inkscape:connector-curvature="0" />
      </g>
      <use
         height="32"
         width="32"
         transform="matrix(0.70588234,-0.70710678,0.70588234,0.70710678,2.411765,16)"
         id="use5161"
         xlink:href="#g4361"
         y="0"
         x="0" />
      <use
         height="32"
         width="32"
         transform="matrix(0.86581049,-0.49987592,0.49987592,0.86581049,-5.8509826,1.1450467)"
         id="use5179"
         xlink:href="#g4361"
         y="0"
         x="0" />
      <use
         height="32"
         width="32"
         transform="matrix(0.96576454,-0.25877583,0.25877583,0.96576454,-3.592646,13.68818)"
         id="use5183"
         xlink:href="#g4361"
         y="0"
         x="0" />
      <rect
         y="4"
         x="1"
         height="24"
         width="1"
         id="rect9444"
         style="fill:#000000;stroke:none;fill-opacity:0.50196081" />
      <rect
         y="30"
         x="4"
         height="1"
         width="24"
         id="rect9954"
         style="fill:#000000;fill-opacity:0.50196081;stroke:none" />
    </g>
  </g>
</svg>
