<?xml version="1.0" encoding="UTF-8" standalone="no"?>
<!-- Created with Inkscape (http://www.inkscape.org/) -->

<svg
   xmlns:dc="http://purl.org/dc/elements/1.1/"
   xmlns:cc="http://creativecommons.org/ns#"
   xmlns:rdf="http://www.w3.org/1999/02/22-rdf-syntax-ns#"
   xmlns:svg="http://www.w3.org/2000/svg"
   xmlns="http://www.w3.org/2000/svg"
   xmlns:xlink="http://www.w3.org/1999/xlink"
   xmlns:sodipodi="http://sodipodi.sourceforge.net/DTD/sodipodi-0.dtd"
   xmlns:inkscape="http://www.inkscape.org/namespaces/inkscape"
   width="32px"
   height="32px"
   id="svg3505"
   sodipodi:version="0.32"
   inkscape:version="0.47 r22583"
   sodipodi:docname="new-game-00.svg"
   inkscape:output_extension="org.inkscape.output.svg.inkscape"
   version="1.1">
  <title
     id="title2865">New Game Symbol</title>
  <defs
     id="defs3507">
    <inkscape:perspective
       sodipodi:type="inkscape:persp3d"
       inkscape:vp_x="0 : 16 : 1"
       inkscape:vp_y="0 : 1000 : 0"
       inkscape:vp_z="32 : 16 : 1"
       inkscape:persp3d-origin="16 : 10.666667 : 1"
       id="perspective3513" />
    <inkscape:perspective
       id="perspective4690"
       inkscape:persp3d-origin="372.04724 : 350.78739 : 1"
       inkscape:vp_z="744.09448 : 526.18109 : 1"
       inkscape:vp_y="0 : 1000 : 0"
       inkscape:vp_x="0 : 526.18109 : 1"
       sodipodi:type="inkscape:persp3d" />
    <inkscape:perspective
       id="perspective3695"
       inkscape:persp3d-origin="372.04724 : 350.78739 : 1"
       inkscape:vp_z="744.09448 : 526.18109 : 1"
       inkscape:vp_y="0 : 1000 : 0"
       inkscape:vp_x="0 : 526.18109 : 1"
       sodipodi:type="inkscape:persp3d" />
    <inkscape:perspective
       id="perspective3846"
       inkscape:persp3d-origin="0.5 : 0.33333333 : 1"
       inkscape:vp_z="1 : 0.5 : 1"
       inkscape:vp_y="0 : 1000 : 0"
       inkscape:vp_x="0 : 0.5 : 1"
       sodipodi:type="inkscape:persp3d" />
  </defs>
  <sodipodi:namedview
     id="base"
     pagecolor="#ffffff"
     bordercolor="#666666"
     borderopacity="1.0"
     inkscape:pageopacity="0.0"
     inkscape:pageshadow="2"
     inkscape:zoom="18.5"
     inkscape:cx="16.324324"
     inkscape:cy="16"
     inkscape:current-layer="layer1"
     showgrid="true"
     inkscape:grid-bbox="true"
     inkscape:document-units="px"
     objecttolerance="4"
     gridtolerance="4"
     guidetolerance="4"
     inkscape:window-width="754"
     inkscape:window-height="833"
     inkscape:window-x="0"
     inkscape:window-y="0"
     inkscape:object-paths="true"
     inkscape:object-nodes="true"
     inkscape:snap-bbox="true"
     inkscape:snap-guide="true"
     inkscape:window-maximized="0">
    <inkscape:grid
       type="xygrid"
       id="grid3515"
       units="px"
       visible="true"
       enabled="true"
       spacingx="1px"
       spacingy="1px" />
  </sodipodi:namedview>
  <metadata
     id="metadata3510">
    <rdf:RDF>
      <cc:Work
         rdf:about="">
        <dc:format>image/svg+xml</dc:format>
        <dc:type
           rdf:resource="http://purl.org/dc/dcmitype/StillImage" />
        <dc:title>New Game Symbol</dc:title>
        <dc:date>2010-04-05</dc:date>
        <dc:creator>
          <cc:Agent>
            <dc:title>Andreas Neudecker &lt;zapyon@gmx.net&gt;</dc:title>
          </cc:Agent>
        </dc:creator>
        <dc:rights>
          <cc:Agent>
            <dc:title>Copyright (C) 2010 by Andreas Neudecker</dc:title>
          </cc:Agent>
        </dc:rights>
        <dc:publisher>
          <cc:Agent>
            <dc:title>Andreas Neudecker</dc:title>
          </cc:Agent>
        </dc:publisher>
        <dc:identifier>new-game-00</dc:identifier>
        <dc:description>New game symbol for McMinos menus.

2010-10-28: Filled in metadata. Added light blue shine to walls; replaced light blue ghost with white miniature version of ghost &quot;Alpha&quot;.
2010-10-29: added missing pills at left and right exits.</dc:description>
      </cc:Work>
    </rdf:RDF>
  </metadata>
  <g
     id="layer1"
     inkscape:label="Layer 1"
     inkscape:groupmode="layer">
    <g
       id="g2918">
      <rect
         y="0"
         x="0"
         height="32"
         width="32"
         id="rect3266"
         style="fill:#000000;fill-opacity:1;fill-rule:nonzero;stroke:none" />
      <rect
         style="fill:#202020;fill-opacity:1;fill-rule:nonzero;stroke:none"
         id="rect3656"
         width="30"
         height="30"
         x="1"
         y="1" />
      <path
         id="rect2383"
         d="m 1,1 0,18 2,0 0,-16 26,0 0,14 -6,0 0,-8 -2,0 0,8 -10,0 0,-6 5,0 0,-2 -7,0 0,2 0,8 2,0 10,0 0,4 2,0 0,-4 6,0 2,0 L 31,3 31,1 3,1 1,1 z"
         style="fill:#0000ff;fill-opacity:1;fill-rule:nonzero;stroke:none" />
      <g
         id="g3721"
         transform="translate(-11,0)">
        <path
           style="fill:#ffffff;fill-opacity:1;fill-rule:nonzero;stroke:none"
           d="M 17.000002,24 C 15.896002,24 15,24.865104 15,25.931034 l 0,1.517242 C 15,27.752828 15.256,28 15.571429,28 c 0.315429,0 0.571429,-0.247172 0.571429,-0.551724 0,-0.07614 0.06401,-0.13794 0.142867,-0.13794 0.07886,0 0.142846,0.0618 0.142846,0.13794 C 16.428571,27.752828 16.684571,28 17,28 c 0.315429,0 0.571429,-0.247172 0.571429,-0.551724 0,-0.07614 0.06401,-0.13794 0.142867,-0.13794 0.07886,0 0.142846,0.0618 0.142846,0.13794 C 17.857142,27.752828 18.113144,28 18.428571,28 18.744,28 19,27.752828 19,27.448276 l 0,-1.517242 C 19.000004,24.865104 18.104004,24 17.000002,24 z"
           id="path2857"
           sodipodi:nodetypes="cccsssssssssccc" />
        <path
           sodipodi:type="arc"
           style="fill:#000000;fill-opacity:1;fill-rule:nonzero;stroke:none"
           id="path3717"
           sodipodi:cx="16.5"
           sodipodi:cy="25.5"
           sodipodi:rx="0.5"
           sodipodi:ry="0.5"
           d="M 17,25.5 C 17,25.776142 16.776142,26 16.5,26 16.223858,26 16,25.776142 16,25.5 16,25.223858 16.223858,25 16.5,25 c 0.276142,0 0.5,0.223858 0.5,0.5 z"
           transform="translate(-0.5,0)" />
        <path
           transform="translate(1.5,0)"
           d="M 17,25.5 C 17,25.776142 16.776142,26 16.5,26 16.223858,26 16,25.776142 16,25.5 16,25.223858 16.223858,25 16.5,25 c 0.276142,0 0.5,0.223858 0.5,0.5 z"
           sodipodi:ry="0.5"
           sodipodi:rx="0.5"
           sodipodi:cy="25.5"
           sodipodi:cx="16.5"
           id="path3719"
           style="fill:#000000;fill-opacity:1;fill-rule:nonzero;stroke:none"
           sodipodi:type="arc" />
      </g>
      <path
         id="rect2401"
         d="m 1,25 0,4 0,2 30,0 0,-2 0,-4 -2,0 0,4 -14,0 0,-4 -2,0 0,4 -10,0 0,-4 -2,0 z"
         style="fill:#0000ff;fill-opacity:1;fill-rule:nonzero;stroke:none" />
      <path
         d="M 7,6 A 1,1 0 1 1 5,6 1,1 0 1 1 7,6 z"
         sodipodi:ry="1"
         sodipodi:rx="1"
         sodipodi:cy="6"
         sodipodi:cx="6"
         id="path2409"
         style="fill:#00ff00;fill-opacity:1;fill-rule:nonzero;stroke:none"
         sodipodi:type="arc" />
      <use
         height="32"
         width="32"
         transform="translate(0,4)"
         id="use3201"
         xlink:href="#path2409"
         y="0"
         x="0" />
      <use
         x="0"
         y="0"
         xlink:href="#path2409"
         id="use3203"
         transform="translate(4,0)"
         width="32"
         height="32" />
      <use
         height="32"
         width="32"
         transform="translate(8,0)"
         id="use3205"
         xlink:href="#path2409"
         y="0"
         x="0" />
      <use
         x="0"
         y="0"
         xlink:href="#path2409"
         id="use3207"
         transform="translate(12,0)"
         width="32"
         height="32" />
      <use
         height="32"
         width="32"
         transform="translate(16,0)"
         id="use3209"
         xlink:href="#path2409"
         y="0"
         x="0" />
      <use
         x="0"
         y="0"
         xlink:href="#path2409"
         id="use3211"
         transform="translate(12,4)"
         width="32"
         height="32" />
      <use
         height="32"
         width="32"
         transform="translate(12,8)"
         id="use3213"
         xlink:href="#path2409"
         y="0"
         x="0" />
      <use
         x="0"
         y="0"
         xlink:href="#path2409"
         id="use3215"
         transform="translate(20,4)"
         width="32"
         height="32" />
      <use
         height="32"
         width="32"
         transform="translate(0,8)"
         id="use3217"
         xlink:href="#path2409"
         y="0"
         x="0" />
      <use
         x="0"
         y="0"
         xlink:href="#path2409"
         id="use3219"
         transform="translate(0,12)"
         width="32"
         height="32" />
      <use
         height="32"
         width="32"
         transform="translate(0,16)"
         id="use3221"
         xlink:href="#path2409"
         y="0"
         x="0" />
      <use
         x="0"
         y="0"
         xlink:href="#path2409"
         id="use3223"
         transform="translate(4,16)"
         width="32"
         height="32" />
      <use
         height="32"
         width="32"
         transform="translate(8,16)"
         id="use3225"
         xlink:href="#path2409"
         y="0"
         x="0" />
      <use
         x="0"
         y="0"
         xlink:href="#path2409"
         id="use3227"
         transform="translate(12,16)"
         width="32"
         height="32" />
      <use
         height="32"
         width="32"
         transform="translate(20,16)"
         id="use3229"
         xlink:href="#path2409"
         y="0"
         x="0" />
      <use
         x="0"
         y="0"
         xlink:href="#path2409"
         id="use3231"
         transform="translate(4,20)"
         width="32"
         height="32" />
      <use
         height="32"
         width="32"
         transform="translate(12,20)"
         id="use3233"
         xlink:href="#path2409"
         y="0"
         x="0" />
      <use
         x="0"
         y="0"
         xlink:href="#path2409"
         id="use3235"
         transform="translate(16,20)"
         width="32"
         height="32" />
      <use
         height="32"
         width="32"
         transform="translate(20,20)"
         id="use3237"
         xlink:href="#path2409"
         y="0"
         x="0" />
      <use
         x="0"
         y="0"
         xlink:href="#path2409"
         id="use3239"
         transform="translate(20,20)"
         width="32"
         height="32" />
      <path
         d="m 28,14 a 2,2 0 1 1 -4,0 2,2 0 1 1 4,0 z"
         sodipodi:ry="2"
         sodipodi:rx="2"
         sodipodi:cy="14"
         sodipodi:cx="26"
         id="path3241"
         style="fill:#ff0000;fill-opacity:1;fill-rule:nonzero;stroke:none"
         sodipodi:type="arc" />
      <path
         transform="translate(-0.5,0)"
         d="m 26,13.5 a 0.5,0.5 0 1 1 -1,0 0.5,0.5 0 1 1 1,0 z"
         sodipodi:ry="0.5"
         sodipodi:rx="0.5"
         sodipodi:cy="13.5"
         sodipodi:cx="25.5"
         id="path3243"
         style="fill:#000000;fill-opacity:1;fill-rule:nonzero;stroke:none"
         sodipodi:type="arc" />
      <path
         transform="translate(0.5,0)"
         d="m 27,13.5 a 0.5,0.5 0 1 1 -1,0 0.5,0.5 0 1 1 1,0 z"
         sodipodi:ry="0.5"
         sodipodi:rx="0.5"
         sodipodi:cy="13.5"
         sodipodi:cx="26.5"
         id="path3245"
         style="fill:#000000;fill-opacity:1;fill-rule:nonzero;stroke:none"
         sodipodi:type="arc" />
      <rect
         y="6"
         x="24"
         height="2"
         width="4"
         id="rect3258"
         style="fill:#c0c0c0;fill-opacity:1;fill-rule:nonzero;stroke:none" />
      <path
         sodipodi:nodetypes="ccccc"
         id="path3262"
         d="m 13.5,12 0,2 1,0 0,-2 -1,0 z"
         style="fill:#e4b800;fill-opacity:1;fill-rule:nonzero;stroke:none" />
      <path
         d="m 16,14.663935 a 1.8688525,1.6639345 0 1 1 -3.737705,0 1.8688525,1.6639345 0 1 1 3.737705,0 z"
         sodipodi:ry="1.6639345"
         sodipodi:rx="1.8688525"
         sodipodi:cy="14.663935"
         sodipodi:cx="14.131147"
         id="path3260"
         style="fill:#00ff00;fill-opacity:1;fill-rule:nonzero;stroke:none"
         sodipodi:type="arc" />
      <path
         sodipodi:nodetypes="cc"
         id="path3264"
         d="M 26,4 24,6"
         style="fill:#00ff00;fill-opacity:1;fill-rule:nonzero;stroke:#e4b800;stroke-width:1;stroke-linecap:round;stroke-linejoin:round;stroke-miterlimit:4;stroke-opacity:1;stroke-dasharray:none;stroke-dashoffset:0" />
      <path
         sodipodi:nodetypes="ccccc"
         id="path2852"
         d="M 2,2 3,3 3,19 2,18 2,2 z"
         style="fill:#00ffff;fill-opacity:1;fill-rule:nonzero;stroke:none" />
      <path
         id="path3626"
         d="M 1.0810811,1.027027 2,2 30,2 31,1 1.0810811,1.027027 z"
         style="fill:#00ffff;fill-opacity:1;fill-rule:nonzero;stroke:none" />
      <path
         id="path3628"
         d="m 30,2 0,16 1,1 0,-18 -1,1 z"
         style="fill:#00ffff;fill-opacity:1;fill-rule:nonzero;stroke:none" />
      <path
         id="path3630"
         d="m 21,9 1,1 0,8 1,-1 0,-8 -2,0 z"
         style="fill:#00ffff;fill-opacity:1;fill-rule:nonzero;stroke:none" />
      <path
         sodipodi:nodetypes="cccccc"
         id="path3632"
         d="m 16,11 -1,-1 -5,0 -1,-1 7,0 0,2 z"
         style="fill:#00ffff;fill-opacity:1;fill-rule:nonzero;stroke:none" />
      <path
         sodipodi:nodetypes="ccccccc"
         id="path3634"
         d="m 10,10 1,1 0,6 10,0 1,1 -12,0 0,-8 z"
         style="fill:#00ffff;fill-opacity:1;fill-rule:nonzero;stroke:none" />
      <path
         id="path3636"
         d="m 22,18 1,1 0,4 -1,-1 0,-4 z"
         style="fill:#00ffff;fill-opacity:1;fill-rule:nonzero;stroke:none" />
      <path
         id="path3638"
         d="m 23,17 -1,1 8,0 -1,-1 -6,0 z"
         style="fill:#00ffff;fill-opacity:1;fill-rule:nonzero;stroke:none" />
      <path
         id="path3640"
         d="m 1,25 1,1 0,4 12,0 -1,-1 -10,0 0,-4 -2,0 z"
         style="fill:#00ffff;fill-opacity:1;fill-rule:nonzero;stroke:none" />
      <path
         id="path3642"
         d="m 13,25 2,0 0,4 -1,1 0,-4 -1,-1 z"
         style="fill:#00ffff;fill-opacity:1;fill-rule:nonzero;stroke:none" />
      <path
         id="path3644"
         d="m 15,29 14,0 1,1 -16,0 1,-1 z"
         style="fill:#00ffff;fill-opacity:1;fill-rule:nonzero;stroke:none" />
      <path
         id="path3646"
         d="m 29,25 1,1 0,4 1,1 0,-6 -2,0 z"
         style="fill:#00ffff;fill-opacity:1;fill-rule:nonzero;stroke:none" />
      <use
         x="0"
         y="0"
         xlink:href="#path2409"
         id="use2914"
         transform="translate(-4,16)"
         width="32"
         height="32" />
      <use
         x="0"
         y="0"
         xlink:href="#path2409"
         id="use2916"
         transform="translate(24,16)"
         width="32"
         height="32" />
    </g>
  </g>
</svg>
