<?xml version="1.0" encoding="UTF-8" standalone="no"?>
<!-- Created with Inkscape (http://www.inkscape.org/) -->

<svg
   xmlns:dc="http://purl.org/dc/elements/1.1/"
   xmlns:cc="http://creativecommons.org/ns#"
   xmlns:rdf="http://www.w3.org/1999/02/22-rdf-syntax-ns#"
   xmlns:svg="http://www.w3.org/2000/svg"
   xmlns="http://www.w3.org/2000/svg"
   xmlns:sodipodi="http://sodipodi.sourceforge.net/DTD/sodipodi-0.dtd"
   xmlns:inkscape="http://www.inkscape.org/namespaces/inkscape"
   width="32"
   height="32"
   id="svg4150"
   version="1.1"
   inkscape:version="0.48.5 r10040"
   viewBox="0 0 32 32"
   sodipodi:docname="Neues Dokument 26">
  <defs
     id="defs4152" />
  <sodipodi:namedview
     id="base"
     pagecolor="#ffffff"
     bordercolor="#666666"
     borderopacity="1.0"
     inkscape:pageopacity="0.0"
     inkscape:pageshadow="2"
     inkscape:zoom="16.5"
     inkscape:cx="16"
     inkscape:cy="16"
     inkscape:current-layer="layer1"
     showgrid="true"
     inkscape:grid-bbox="true"
     inkscape:document-units="px"
     objecttolerance="10000"
     inkscape:snap-perpendicular="true"
     guidetolerance="10000"
     inkscape:window-width="1024"
     inkscape:window-height="741"
     inkscape:window-x="0"
     inkscape:window-y="2"
     inkscape:window-maximized="1"
     showguides="true"
     inkscape:guide-bbox="true">
    <inkscape:grid
       type="xygrid"
       id="grid4698"
       empspacing="4" />
    <sodipodi:guide
       position="16,32"
       orientation="1,0"
       id="guide4769" />
    <sodipodi:guide
       position="-4,16"
       orientation="0,1"
       id="guide4771" />
    <sodipodi:guide
       position="16,16"
       orientation="-0.70710678,0.70710678"
       id="guide4773" />
    <sodipodi:guide
       position="16,16"
       orientation="0.70710678,0.70710678"
       id="guide4775" />
  </sodipodi:namedview>
  <metadata
     id="metadata4155">
    <rdf:RDF>
      <cc:Work
         rdf:about="">
        <dc:format>image/svg+xml</dc:format>
        <dc:type
           rdf:resource="http://purl.org/dc/dcmitype/StillImage" />
        <dc:title></dc:title>
      </cc:Work>
    </rdf:RDF>
  </metadata>
  <g
     id="layer1"
     inkscape:label="Layer 1"
     inkscape:groupmode="layer">
    <g
       id="g8179">
      <path
         id="path8170"
         d="M 16 0 C 7.163444 1.7763568e-15 2.6212348e-18 7.163444 0 16 C 0 24.836556 7.163444 32 16 32 C 24.836556 32 32 24.836556 32 16 C 32 7.163444 24.836556 -3.5500924e-15 16 0 z M 16 1 C 24.284271 1 31 7.7157288 31 16 C 31 24.284271 24.284271 31 16 31 C 7.7157288 31 1 24.284271 1 16 C 1 7.7157288 7.7157288 1 16 1 z "
         style="fill:black;fill-opacity:1;stroke:none" />
      <path
         d="M 32,16 A 16,16 0 1 1 0,16 16,16 0 1 1 32,16 z"
         sodipodi:ry="16"
         sodipodi:rx="16"
         sodipodi:cy="16"
         sodipodi:cx="16"
         id="path8174"
         style="fill:#d40000;fill-opacity:1;stroke:none"
         sodipodi:type="arc"
         transform="matrix(0.9375,0,0,0.9375,1,1)" />
      <rect
         y="12"
         x="4"
         height="8"
         width="24"
         id="rect8176"
         style="fill:white;fill-opacity:1;stroke:none" />
    </g>
  </g>
</svg>
