<?xml version="1.0" encoding="UTF-8" standalone="no"?>
<!-- Created with Inkscape (http://www.inkscape.org/) -->

<svg
   xmlns:dc="http://purl.org/dc/elements/1.1/"
   xmlns:cc="http://creativecommons.org/ns#"
   xmlns:rdf="http://www.w3.org/1999/02/22-rdf-syntax-ns#"
   xmlns:svg="http://www.w3.org/2000/svg"
   xmlns="http://www.w3.org/2000/svg"
   xmlns:xlink="http://www.w3.org/1999/xlink"
   xmlns:sodipodi="http://sodipodi.sourceforge.net/DTD/sodipodi-0.dtd"
   xmlns:inkscape="http://www.inkscape.org/namespaces/inkscape"
   width="96"
   height="96"
   id="svg2"
   version="1.1"
   inkscape:version="0.48.5 r10040"
   sodipodi:docname="04.svg"
   inkscape:export-filename="/home/andreas/Dokumente/Projekte/McMinos/repository/extra/images-incoming/mcminos-cheering-front/mcminos-cheering-front-384x384.png"
   inkscape:export-xdpi="360"
   inkscape:export-ydpi="360">
  <defs
     id="defs4" />
  <sodipodi:namedview
     id="base"
     pagecolor="#ffffff"
     bordercolor="#666666"
     borderopacity="1.0"
     inkscape:pageopacity="0.0"
     inkscape:pageshadow="2"
     inkscape:zoom="5.4583333"
     inkscape:cx="48"
     inkscape:cy="48"
     inkscape:document-units="px"
     inkscape:current-layer="layer1"
     showgrid="true"
     gridtolerance="20"
     guidetolerance="20"
     showguides="true"
     inkscape:guide-bbox="true"
     inkscape:window-width="1024"
     inkscape:window-height="741"
     inkscape:window-x="0"
     inkscape:window-y="2"
     inkscape:window-maximized="1"
     fit-margin-top="0"
     fit-margin-left="0"
     fit-margin-right="0"
     fit-margin-bottom="0">
    <inkscape:grid
       type="xygrid"
       id="grid2985"
       empspacing="8"
       visible="true"
       enabled="true"
       snapvisiblegridlinesonly="true"
       spacingx="0.5px"
       spacingy="0.5px"
       originx="32px"
       originy="31.999983px" />
    <sodipodi:guide
       orientation="1,0"
       position="48,67.999983"
       id="guide2987" />
    <sodipodi:guide
       orientation="0,1"
       position="28,47.999983"
       id="guide2989" />
    <sodipodi:guide
       orientation="0.70710678,0.70710678"
       position="48,47.999983"
       id="guide2993" />
    <sodipodi:guide
       orientation="-0.70710678,0.70710678"
       position="0,-1.7e-05"
       id="guide3055" />
    <sodipodi:guide
       orientation="1,0"
       position="32,100"
       id="guide3057" />
    <sodipodi:guide
       orientation="1,0"
       position="64,99.999983"
       id="guide3059" />
    <sodipodi:guide
       orientation="0,1"
       position="-8,63.999983"
       id="guide3061" />
    <sodipodi:guide
       orientation="0,1"
       position="0,31.999983"
       id="guide3063" />
  </sodipodi:namedview>
  <metadata
     id="metadata7">
    <rdf:RDF>
      <cc:Work
         rdf:about="">
        <dc:format>image/svg+xml</dc:format>
        <dc:type
           rdf:resource="http://purl.org/dc/dcmitype/StillImage" />
        <dc:title></dc:title>
      </cc:Work>
    </rdf:RDF>
  </metadata>
  <g
     inkscape:label="Ebene 1"
     inkscape:groupmode="layer"
     id="layer1"
     transform="translate(32,-988.36218)">
    <g
       id="g8353">
      <use
         height="96"
         width="96"
         transform="matrix(-1,0,0,1,32.0873,0)"
         id="use7939"
         xlink:href="#path7937"
         y="0"
         x="0" />
      <path
         transform="translate(-32,988.36218)"
         d="m 25,31.53125 c -2.307356,0 -3.96875,2.23136 -3.96875,4.71875 0,2.48739 1.661394,4.71875 3.96875,4.71875 0.383451,0 0.718221,-0.130805 1.0625,-0.25 0.294693,0.107758 0.584792,0.25 0.9375,0.25 0.155793,0 0.290424,-0.07024 0.4375,-0.09375 l 6.40625,4.71875 A 0.96301827,0.96301827 0 0 0 35.1875,45.375 L 36.375,43.75 a 0.96301827,0.96301827 0 0 0 -0.21875,-1.34375 l -6.1875,-4.5 c -5.78e-4,-0.01187 7.31e-4,-0.01976 0,-0.03125 l 0.3125,-0.5 0,-0.03125 0.5,-0.8125 a 0.96301827,0.96301827 0 0 0 0,-0.03125 c 0.405423,-0.702184 0.130604,-1.599759 -0.5625,-2 C 29.701669,34.201617 29.140558,34.3596 28.6875,34.6875 28.158034,32.909552 26.800964,31.53125 25,31.53125 z"
         id="path7937"
         style="fill:black;fill-opacity:1;stroke:none"
         inkscape:original="M 25 32.5 C 23.343146 32.5 22 34.178931 22 36.25 C 22 38.321069 23.343146 40 25 40 C 25.380344 40 25.727672 39.91138 26.0625 39.75 C 26.343055 39.899946 26.659659 40 27 40 C 27.241625 40 27.473074 39.95351 27.6875 39.875 L 34.40625 44.8125 L 35.59375 43.1875 L 28.96875 38.34375 C 28.988013 38.2323 29 38.116954 29 38 C 29 37.893604 28.98475 37.789402 28.96875 37.6875 L 29.4375 36.875 L 29.9375 36.03125 C 30.07555 35.79215 29.98915 35.48185 29.75 35.34375 C 29.510854 35.20575 29.20055 35.29225 29.0625 35.53125 L 28.5625 36.375 L 28.4375 36.625 C 28.307145 36.48868 28.16424 36.376466 28 36.28125 C 28.000072 36.27056 28 36.26071 28 36.25 C 28 34.178931 26.656854 32.5 25 32.5 z "
         inkscape:radius="0.96292198"
         sodipodi:type="inkscape:offset" />
      <rect
         inkscape:export-ydpi="360"
         inkscape:export-xdpi="360"
         y="988.36218"
         x="-32"
         height="96"
         width="96"
         id="rect6815"
         style="fill:none;stroke:none" />
      <path
         sodipodi:type="arc"
         style="fill:black;fill-opacity:1;fill-rule:nonzero;stroke:none"
         id="path6742"
         sodipodi:cx="8"
         sodipodi:cy="5"
         sodipodi:rx="1"
         sodipodi:ry="1"
         d="M 9,5 A 1,1 0 1 1 7,5 1,1 0 1 1 9,5 z"
         transform="matrix(5,0,0,5,-31,1003.3622)" />
      <path
         transform="matrix(5,0,0,5,-17,1003.3622)"
         d="M 9,5 A 1,1 0 1 1 7,5 1,1 0 1 1 9,5 z"
         sodipodi:ry="1"
         sodipodi:rx="1"
         sodipodi:cy="5"
         sodipodi:cx="8"
         id="path6744"
         style="fill:black;fill-opacity:1;fill-rule:nonzero;stroke:none"
         sodipodi:type="arc" />
      <rect
         y="1020.3622"
         x="0"
         height="32"
         width="32"
         id="rect6614"
         style="fill:none;stroke:none" />
      <path
         transform="matrix(1.0440591,0,0,0.9999439,-255.76471,900.30671)"
         d="m 274.6633,136.06313 a 14.367003,15.000842 0 1 1 -28.73401,0 14.367003,15.000842 0 1 1 28.73401,0 z"
         sodipodi:ry="15.000842"
         sodipodi:rx="14.367003"
         sodipodi:cy="136.06313"
         sodipodi:cx="260.2963"
         id="path4818"
         style="fill:black;fill-opacity:1;fill-rule:nonzero;stroke:none"
         sodipodi:type="arc" />
      <path
         transform="matrix(2.0024876,0,0,2.0024876,0.04974722,1020.3423)"
         d="M 14.956522,8 A 6.9913044,6.9913044 0 1 1 0.97391319,8 6.9913044,6.9913044 0 1 1 14.956522,8 z"
         sodipodi:ry="6.9913044"
         sodipodi:rx="6.9913044"
         sodipodi:cy="8"
         sodipodi:cx="7.9652176"
         id="path3403"
         style="fill:red;fill-opacity:1;fill-rule:nonzero;stroke:none"
         sodipodi:type="arc" />
      <path
         sodipodi:open="true"
         sodipodi:end="9.6865773"
         sodipodi:start="6.0213859"
         transform="matrix(3.127226,0,0,3.3996825,-72.05343,860.17746)"
         d="m 32.172431,50.834189 a 4.1570387,3.8238845 0 1 1 -8.030782,0"
         sodipodi:ry="3.8238845"
         sodipodi:rx="4.1570387"
         sodipodi:cy="51.823883"
         sodipodi:cx="28.15704"
         id="path3429"
         style="fill:maroon;fill-opacity:1;fill-rule:nonzero;stroke:none"
         sodipodi:type="arc" />
      <path
         transform="matrix(0.9375,0,0,0.91014433,1,1021.2492)"
         d="M 24,21 A 8,4.944272 0 1 1 8,21 8,4.944272 0 1 1 24,21 z"
         sodipodi:ry="4.944272"
         sodipodi:rx="8"
         sodipodi:cy="21"
         sodipodi:cx="16"
         id="path5770"
         style="fill:#500;fill-opacity:1;stroke:none"
         sodipodi:type="arc" />
      <path
         inkscape:connector-curvature="0"
         id="path5689"
         d="m 3,1035.9882 c 0,-1.0312 0.1168267,-2.0381 0.34375,-3 l 25.3125,0 c 0.226923,0.9619 0.34375,1.9688 0.34375,3 l -26,0 z"
         style="fill:white;fill-opacity:1;fill-rule:nonzero;stroke:none" />
      <path
         d="M 10,5 A 2,2 0 1 1 6,5 2,2 0 1 1 10,5 z"
         sodipodi:ry="2"
         sodipodi:rx="2"
         sodipodi:cy="5"
         sodipodi:cx="8"
         id="path3407"
         style="fill:white;fill-opacity:1;fill-rule:nonzero;stroke:none"
         sodipodi:type="arc"
         transform="matrix(2,0,0,2,-7.0000028,1018.3622)" />
      <path
         transform="matrix(2,0,0,2,6.999997,1018.3622)"
         sodipodi:type="arc"
         style="fill:white;fill-opacity:1;fill-rule:nonzero;stroke:none"
         id="path3425"
         sodipodi:cx="8"
         sodipodi:cy="5"
         sodipodi:rx="2"
         sodipodi:ry="2"
         d="M 10,5 A 2,2 0 1 1 6,5 2,2 0 1 1 10,5 z" />
      <path
         transform="matrix(2,0,0,2,-7,1018.3622)"
         d="M 9,5 A 1,1 0 1 1 7,5 1,1 0 1 1 9,5 z"
         sodipodi:ry="1"
         sodipodi:rx="1"
         sodipodi:cy="5"
         sodipodi:cx="8"
         id="path3409"
         style="fill:black;fill-opacity:1;fill-rule:nonzero;stroke:none"
         sodipodi:type="arc" />
      <path
         sodipodi:type="arc"
         style="fill:black;fill-opacity:1;fill-rule:nonzero;stroke:none"
         id="path3427"
         sodipodi:cx="8"
         sodipodi:cy="5"
         sodipodi:rx="1"
         sodipodi:ry="1"
         d="M 9,5 A 1,1 0 1 1 7,5 1,1 0 1 1 9,5 z"
         transform="matrix(2,0,0,2,7,1018.3622)" />
      <path
         transform="matrix(1,0,0,1.0000056,0,1016.362)"
         d="m 17,22 a 1,2 0 1 1 -2,0 1,2 0 1 1 2,0 z"
         sodipodi:ry="2"
         sodipodi:rx="1"
         sodipodi:cy="22"
         sodipodi:cx="16"
         id="path5707"
         style="fill:red;fill-opacity:1;stroke:none"
         sodipodi:type="arc" />
      <path
         inkscape:connector-curvature="0"
         id="rect3449"
         d="m 3,1035.9882 c 0,-1.0385 0.1400316,-2.0313 0.375,-3 l 0.625,0 0,3 -1,0 z m 5,0 0,-3 4,0 0,3 -4,0 z m 8,0 0,-3 4,0 0,3 -4,0 z m 8,0 0,-3 4,0 0,3 -4,0 z"
         style="fill:#f0ffff;fill-opacity:1;fill-rule:nonzero;stroke:none" />
      <path
         sodipodi:open="true"
         sodipodi:type="arc"
         style="fill:white;fill-opacity:1;fill-rule:nonzero;stroke:none"
         id="path3443"
         sodipodi:cx="28.15704"
         sodipodi:cy="51.823883"
         sodipodi:rx="4.1570387"
         sodipodi:ry="0.76477689"
         d="m 24.000001,51.823883 a 4.1570387,0.76477689 0 0 1 8.314077,0"
         transform="matrix(3.3677824,0,0,1.7603396e-6,-78.826783,1036.3621)"
         sodipodi:start="3.1415927"
         sodipodi:end="6.2831853" />
      <path
         sodipodi:nodetypes="caaacc"
         inkscape:connector-curvature="0"
         id="path5768"
         d="m 8,1047.3622 c 0,0 3.237334,-1.6605 5,-2 0.981956,-0.1891 2,0 3,0 1,0 2.018044,-0.1891 3,0 1.762666,0.3395 5,2 5,2 z"
         style="fill:red;fill-opacity:1;stroke:none" />
      <path
         inkscape:connector-curvature="0"
         id="path5694"
         d="m 7.6875,1046.3622 c 2.2521156,1.8716 5.155375,3 8.3125,3 3.157125,0 6.060384,-1.1284 8.3125,-3 l -16.625,0 z"
         style="fill:white;fill-opacity:1;fill-rule:nonzero;stroke:none" />
      <path
         inkscape:connector-curvature="0"
         id="path5699"
         d="m 8,1046.3622 0,0.25 c 1.1865572,0.9262 2.535541,1.653 4,2.125 l 0,-2.375 -4,0 z m 8,0 0,3 c 1.390897,0 2.743253,-0.22 4,-0.625 l 0,-2.375 -4,0 z m 8,0 0,0.25 c 0.104328,-0.081 0.210925,-0.1655 0.3125,-0.25 l -0.3125,0 z"
         style="fill:#f0ffff;fill-opacity:1;fill-rule:nonzero;stroke:none" />
      <g
         id="g7964">
        <rect
           style="fill:red;fill-opacity:1;stroke:none"
           id="rect6748"
           width="9.0000019"
           height="2.0000174"
           x="602.84198"
           y="830.52271"
           inkscape:transform-center-x="3.6322813"
           transform="matrix(0.80717183,0.59031655,-0.59031655,0.80717183,0,0)"
           inkscape:transform-center-y="-2.6564579" />
        <path
           transform="translate(-43,1021.3622)"
           d="m 40,5 c 0,1.1045695 -0.895431,2 -2,2 -1.104569,0 -2,-0.8954305 -2,-2 0,-1.1045695 0.895431,-2 2,-2 1.104569,0 2,0.8954305 2,2 z"
           sodipodi:ry="2"
           sodipodi:rx="2"
           sodipodi:cy="5"
           sodipodi:cx="38"
           id="path6756"
           style="fill:red;fill-opacity:1;stroke:none"
           sodipodi:type="arc" />
        <path
           sodipodi:type="arc"
           style="fill:red;fill-opacity:1;stroke:none"
           id="path6758"
           sodipodi:cx="38"
           sodipodi:cy="5"
           sodipodi:rx="2"
           sodipodi:ry="2"
           d="m 40,5 c 0,1.1045695 -0.895431,2 -2,2 -1.104569,0 -2,-0.8954305 -2,-2 0,-1.1045695 0.895431,-2 2,-2 1.104569,0 2,0.8954305 2,2 z"
           transform="matrix(1.5,0,0,1.8750008,-64,1015.2372)" />
        <path
           style="fill:red;fill-opacity:1;stroke:none"
           d="m -2.25,1023.6971 c -0.2391462,-0.138 -0.5449627,-0.056 -0.6830127,0.183 l -0.5,0.8661 -0.5,0.866 c -0.13805,0.2391 -0.056134,0.5449 0.1830127,0.683 0.2391463,0.1381 0.5449627,0.056 0.6830127,-0.183 l 0.5,-0.866 0.5,-0.8661 c 0.13805,-0.2391 0.056134,-0.5449 -0.1830127,-0.683 z"
           id="rect6762"
           inkscape:connector-curvature="0"
           inkscape:transform-center-y="-0.86602778"
           inkscape:transform-center-x="-0.5" />
      </g>
      <use
         height="96"
         width="96"
         transform="matrix(-1,0,0,1,32.090314,0)"
         id="use7970"
         xlink:href="#g7964"
         y="0"
         x="0" />
    </g>
  </g>
</svg>
