<?xml version="1.0" encoding="UTF-8" standalone="no"?>
<!-- Created with Inkscape (http://www.inkscape.org/) -->

<svg xmlns:dc="http://purl.org/dc/elements/1.1/" xmlns:cc="http://creativecommons.org/ns#" xmlns:rdf="http://www.w3.org/1999/02/22-rdf-syntax-ns#" xmlns:svg="http://www.w3.org/2000/svg" xmlns="http://www.w3.org/2000/svg" xmlns:sodipodi="http://sodipodi.sourceforge.net/DTD/sodipodi-0.dtd" xmlns:inkscape="http://www.inkscape.org/namespaces/inkscape" width="32px" height="32px" id="svg3505" sodipodi:version="0.32" inkscape:version="0.91 r13725" sodipodi:docname="02.svg" inkscape:output_extension="org.inkscape.output.svg.inkscape" version="1.1">
  <defs id="defs3507">
    <inkscape:perspective sodipodi:type="inkscape:persp3d" inkscape:vp_x="0 : 16 : 1" inkscape:vp_y="0 : 1000 : 0" inkscape:vp_z="32 : 16 : 1" inkscape:persp3d-origin="16 : 10.666667 : 1" id="perspective3513" />
    <inkscape:perspective id="perspective4690" inkscape:persp3d-origin="372.04724 : 350.78739 : 1" inkscape:vp_z="744.09448 : 526.18109 : 1" inkscape:vp_y="0 : 1000 : 0" inkscape:vp_x="0 : 526.18109 : 1" sodipodi:type="inkscape:persp3d" />
  </defs>
  <sodipodi:namedview id="base" pagecolor="#ffffff" bordercolor="#666666" borderopacity="1.0" inkscape:pageopacity="0.0" inkscape:pageshadow="2" inkscape:zoom="20.972656" inkscape:cx="15.16558" inkscape:cy="16" inkscape:current-layer="layer1" showgrid="true" inkscape:grid-bbox="true" inkscape:document-units="px" objecttolerance="4" gridtolerance="4" guidetolerance="4" inkscape:window-width="1600" inkscape:window-height="878" inkscape:window-x="0" inkscape:window-y="0" inkscape:object-paths="true" inkscape:object-nodes="true" inkscape:snap-bbox="true" inkscape:snap-guide="true" inkscape:window-maximized="1">
    <inkscape:grid type="xygrid" id="grid3515" units="px" visible="true" enabled="true" spacingx="1px" spacingy="1px" />
  </sodipodi:namedview>
  <metadata id="metadata3510">
    <rdf:RDF>
      <cc:Work rdf:about="">
        <dc:format>image/svg+xml</dc:format>
        <dc:type rdf:resource="http://purl.org/dc/dcmitype/StillImage" />
        <dc:title></dc:title>
        <dc:date>2010-04-26</dc:date>
        <dc:creator>
          <cc:Agent>
            <dc:title>Andreas Neudecker &lt;zapyon@gmx.net&gt;</dc:title>
          </cc:Agent>
        </dc:creator>
        <dc:rights>
          <cc:Agent>
            <dc:title>Copyright (C) 2010 by Andreas Neudecker</dc:title>
          </cc:Agent>
        </dc:rights>
        <dc:publisher>
          <cc:Agent>
            <dc:title>Andreas Neudecker</dc:title>
          </cc:Agent>
        </dc:publisher>
        <dc:identifier>vorlage-32x32-mcminos</dc:identifier>
        <dc:description>Vorlage für 32x32-Pixel-Icons für McMinos. Metadaten jeweils entsprechend anpassen!</dc:description>
      </cc:Work>
    </rdf:RDF>
  </metadata>
  <g id="layer1" inkscape:label="Layer 1" inkscape:groupmode="layer">
    <g id="g4672" transform="matrix(-1,0,0,1,32,0)">
      <rect y="0" x="0" height="32" width="32" id="rect4670" style="fill:none;fill-opacity:1;stroke:none" />
      <rect y="0" x="0" height="32" width="32" id="rect6553" style="fill:none;stroke:none" />
      <g transform="matrix(0,-0.26666667,0.26666667,0,11.733333,20.266666)" id="g10077">
        <path inkscape:connector-curvature="0" style="fill:black;fill-opacity:1;stroke:none" d="M 16,1 C 13.263761,1 10.708535,1.7514313 8.5,3.03125 4.8675138,3.2877787 2,6.302232 2,10 2,10.199682 2.0148591,10.398304 2.03125,10.59375 1.3825198,12.271489 1,14.093333 1,16 1,24.284272 7.7157284,31 16,31 24.284272,31 31,24.284272 31,16 31,7.7157285 24.284272,1 16,1 Z" id="path6549" />
        <circle transform="matrix(1.1169306,0,0,1.1169306,12.947625,-1.1693055)" id="path6551" style="fill:black;fill-opacity:1;stroke:none" cx="9" cy="10" r="6.2671757" />
        <circle style="fill:red;fill-opacity:1;fill-rule:nonzero;stroke:none" id="path3403" transform="matrix(2.0024876,0,0,2.0024876,0.04974722,-0.01990512)" cx="7.9652176" cy="8" r="6.9913044" />
        <path sodipodi:type="arc" style="fill:maroon;fill-opacity:1;fill-rule:nonzero;stroke:none" id="path3429" sodipodi:cx="28.15704" sodipodi:cy="51.823883" sodipodi:rx="4.1570387" sodipodi:ry="3.8238845" d="m 32.314078,51.823883 a 4.1570387,3.8238845 0 0 1 -2.078519,3.311581 4.1570387,3.8238845 0 0 1 -4.157039,0 4.1570387,3.8238845 0 0 1 -2.078519,-3.311581" transform="matrix(3.127226,0,0,3.3996825,-72.05343,-160.18474)" sodipodi:start="0" sodipodi:end="3.1415927" sodipodi:open="true" />
        <ellipse style="fill:#500;fill-opacity:1;stroke:none" id="path5770" cx="16" cy="21" rx="8" ry="4.944272" />
        <circle transform="matrix(3.0000014,0,0,3.0000014,-15.000014,-5.0000123)" style="fill:white;fill-opacity:1;fill-rule:nonzero;stroke:none" id="path3407" cx="8" cy="5" r="2" />
        <circle id="path3425" style="fill:white;fill-opacity:1;fill-rule:nonzero;stroke:none" transform="matrix(3.0000015,0,0,3.0000015,-1.000015,-5.0000126)" cx="8" cy="5" r="2" />
        <circle style="fill:black;fill-opacity:1;fill-rule:nonzero;stroke:none" id="path3409" transform="matrix(3,0,0,3,-15,-5)" cx="8" cy="5" r="1" />
        <circle transform="matrix(3,0,0,3,-1,-5)" id="path3427" style="fill:black;fill-opacity:1;fill-rule:nonzero;stroke:none" cx="8" cy="5" r="1" />
        <ellipse style="fill:red;fill-opacity:1;stroke:none" id="path5707" transform="translate(0,-1.6946565)" cx="16" cy="22" rx="1" ry="2" />
        <path sodipodi:end="6.2831853" sodipodi:start="3.1415927" transform="matrix(3.3677824,0,0,1.7603396e-6,-78.826783,15.999905)" d="m 24.000001,51.823883 a 4.1570387,0.76477689 0 0 1 4.157039,-0.764777 4.1570387,0.76477689 0 0 1 4.157038,0.764777" sodipodi:ry="0.76477689" sodipodi:rx="4.1570387" sodipodi:cy="51.823883" sodipodi:cx="28.15704" id="path3443" style="fill:white;fill-opacity:1;fill-rule:nonzero;stroke:none" sodipodi:type="arc" sodipodi:open="true" />
        <ellipse style="fill:#500;fill-opacity:1;stroke:none" id="path5772" cx="16.553375" cy="16.27804" rx="0.0037570808" ry="0.21050936" />
      </g>
    </g>
  </g>
</svg>
