<?xml version="1.0" encoding="UTF-8" standalone="no"?>
<!-- Created with Inkscape (http://www.inkscape.org/) -->

<svg xmlns:dc="http://purl.org/dc/elements/1.1/" xmlns:cc="http://creativecommons.org/ns#" xmlns:rdf="http://www.w3.org/1999/02/22-rdf-syntax-ns#" xmlns:svg="http://www.w3.org/2000/svg" xmlns="http://www.w3.org/2000/svg" xmlns:xlink="http://www.w3.org/1999/xlink" xmlns:sodipodi="http://sodipodi.sourceforge.net/DTD/sodipodi-0.dtd" xmlns:inkscape="http://www.inkscape.org/namespaces/inkscape" width="32" height="32" id="svg4150" version="1.1" inkscape:version="0.91 r13725" viewBox="0 0 32 32" sodipodi:docname="button-tutorial-00.svg">
  <defs id="defs4152">
    <linearGradient id="linearGradient4030">
      <stop id="stop4032" offset="0" style="stop-color:#ffcc01;stop-opacity:1;" />
      <stop style="stop-color:#ffea95;stop-opacity:1;" offset="0.5" id="stop4036" />
      <stop id="stop4046" offset="0.75" style="stop-color:#ffcc01;stop-opacity:1;" />
      <stop id="stop4034" offset="1" style="stop-color:#c09a00;stop-opacity:1;" />
    </linearGradient>
    <linearGradient inkscape:collect="always" xlink:href="#linearGradient4030" id="linearGradient3721" gradientUnits="userSpaceOnUse" x1="16" y1="4" x2="16" y2="16" />
  </defs>
  <sodipodi:namedview id="base" pagecolor="#ffffff" bordercolor="#666666" borderopacity="1.0" inkscape:pageopacity="0.0" inkscape:pageshadow="2" inkscape:zoom="22.125" inkscape:cx="16" inkscape:cy="16" inkscape:current-layer="g3707" showgrid="true" inkscape:grid-bbox="true" inkscape:document-units="px" objecttolerance="10000" inkscape:snap-perpendicular="true" guidetolerance="10000" inkscape:window-width="1024" inkscape:window-height="741" inkscape:window-x="0" inkscape:window-y="2" inkscape:window-maximized="1" showguides="true" inkscape:guide-bbox="true">
    <inkscape:grid type="xygrid" id="grid4698" empspacing="4" />
    <sodipodi:guide position="16,32" orientation="1,0" id="guide4769" />
    <sodipodi:guide position="-4,16" orientation="0,1" id="guide4771" />
    <sodipodi:guide position="16,16" orientation="-0.70710678,0.70710678" id="guide4773" />
    <sodipodi:guide position="16,16" orientation="0.70710678,0.70710678" id="guide4775" />
  </sodipodi:namedview>
  <metadata id="metadata4155">
    <rdf:RDF>
      <cc:Work rdf:about="">
        <dc:format>image/svg+xml</dc:format>
        <dc:type rdf:resource="http://purl.org/dc/dcmitype/StillImage" />
        <dc:title></dc:title>
      </cc:Work>
    </rdf:RDF>
  </metadata>
  <g id="layer1" inkscape:label="button" inkscape:groupmode="layer" sodipodi:insensitive="true">
    <rect ry="4" y="0" x="0" height="32" width="32" id="rect3767" style="fill:#fc0;fill-opacity:1;stroke:none" />
    <path style="fill:black;fill-opacity:1;stroke:none" d="M 4,0 C 1.784,0 0,1.784 0,4 l 0,24 c 0,2.216 1.784,4 4,4 l 24,0 c 2.216,0 4,-1.784 4,-4 L 32,4 C 32,1.784 30.216,0 28,0 L 4,0 z m 0,1 24,0 c 1.662,0 3,1.338 3,3 l 0,24 c 0,1.662 -1.338,3 -3,3 L 4,31 C 2.338,31 1,29.662 1,28 L 1,4 C 1,2.338 2.338,1 4,1 z" id="rect2993" inkscape:connector-curvature="0" />
  </g>
  <g inkscape:groupmode="layer" id="layer2" inkscape:label="symbol">
    <g id="g3707" transform="matrix(0.9375,0,0,0.9375,1,1)">
      <g transform="matrix(1.2879011,-0.34509205,0.34509205,1.2879011,-9.0926143,-0.74462142)" id="g16440">
        <path inkscape:connector-curvature="0" id="path5462" d="m 16,12 c -3.882729,0 -7.0312498,3.581722 -7.03125,8 0,-0.552285 3.148521,-1 7.03125,-1 3.882729,0 7.03125,0.447715 7.03125,1 0,-4.418278 -3.148521,-8 -7.03125,-8 z" style="fill:black;fill-opacity:1;stroke:none" />
        <path style="fill:#d40000;fill-opacity:1;stroke:none" d="M 7.122865,13.079872 6.1626409,12.843029 5.9766954,13.515096 5.0719676,16.832131 c -0.3265882,0.09344 -0.5971883,0.345724 -0.6915063,0.697724 -0.1116044,0.416513 0.062111,0.830752 0.3952722,1.065368 L 2.8567753,21.268956 5.7557489,22.047787 5.4478007,18.781169 C 5.8493163,18.740656 6.1994178,18.450615 6.3100602,18.037691 6.4051166,17.682936 6.2813566,17.34744 6.0413424,17.103124 L 7.122865,13.079872 Z" id="path5484" inkscape:connector-curvature="0" inkscape:transform-center-x="0.28848603" inkscape:transform-center-y="4.9812915" />
        <path inkscape:connector-curvature="0" id="path5478" d="M 16,10 4,13 16,16 28,13 Z" style="fill:black;fill-opacity:1;stroke:none" />
        <ellipse ry="1" rx="7" cy="20" cx="16" id="path5494" style="fill:maroon;fill-opacity:1;stroke:none" />
      </g>
    </g>
  </g>
  <g inkscape:groupmode="layer" id="layer3" inkscape:label="shading" sodipodi:insensitive="true">
    <path inkscape:connector-curvature="0" style="fill:black;fill-opacity:0.37647059;stroke:none" d="M 1.875,1.875 C 1.33275,2.41725 1,3.169 1,4 l 0,24 c 0,1.662 1.338,3 3,3 l 24,0 c 0.831,0 1.58275,-0.33275 2.125,-0.875 L 29.40625,29.40625 C 29.04475,29.76775 28.554,30 28,30 L 4,30 C 2.892,30 2,29.108 2,28 L 2,4 C 2,3.446 2.23225,2.95525 2.59375,2.59375 L 1.875,1.875 z" id="rect2997" />
    <path style="fill:white;fill-opacity:0.37647059;stroke:none" d="M 4,1 C 3.169,1 2.41725,1.33275 1.875,1.875 L 2.59375,2.59375 C 2.95525,2.23225 3.446,2 4,2 l 24,0 c 1.108,0 2,0.892 2,2 l 0,24 c 0,0.554 -0.23225,1.04475 -0.59375,1.40625 L 30.125,30.125 C 30.66725,29.58275 31,28.831 31,28 L 31,4 C 31,2.338 29.662,1 28,1 L 4,1 z" id="rect3774" inkscape:connector-curvature="0" />
    <rect style="fill:white;fill-opacity:0.50196078;stroke:none" id="rect3793" width="26" height="2" x="3" y="2" ry="1" rx="1" />
    <rect style="fill:white;fill-opacity:0.50196078;stroke:none" id="rect3795" width="24" height="1" x="4" y="2" ry="0.5" rx="0.5" />
  </g>
</svg>
