<?xml version="1.0" encoding="UTF-8" standalone="no"?>
<!-- Created with Inkscape (http://www.inkscape.org/) -->

<svg
   xmlns:dc="http://purl.org/dc/elements/1.1/"
   xmlns:cc="http://creativecommons.org/ns#"
   xmlns:rdf="http://www.w3.org/1999/02/22-rdf-syntax-ns#"
   xmlns:svg="http://www.w3.org/2000/svg"
   xmlns="http://www.w3.org/2000/svg"
   xmlns:xlink="http://www.w3.org/1999/xlink"
   xmlns:sodipodi="http://sodipodi.sourceforge.net/DTD/sodipodi-0.dtd"
   xmlns:inkscape="http://www.inkscape.org/namespaces/inkscape"
   width="32"
   height="32"
   id="svg4150"
   version="1.1"
   inkscape:version="0.48.5 r10040"
   viewBox="0 0 32 32"
   sodipodi:docname="button-ultimate-00.svg">
  <defs
     id="defs4152">
    <linearGradient
       inkscape:collect="always"
       xlink:href="#linearGradient4030"
       id="linearGradient4054"
       x1="16"
       y1="4"
       x2="16"
       y2="16"
       gradientUnits="userSpaceOnUse" />
    <linearGradient
       id="linearGradient4030">
      <stop
         id="stop4032"
         offset="0"
         style="stop-color:#ffcc01;stop-opacity:1;" />
      <stop
         style="stop-color:#ffea95;stop-opacity:1;"
         offset="0.5"
         id="stop4036" />
      <stop
         id="stop4046"
         offset="0.75"
         style="stop-color:#ffcc01;stop-opacity:1;" />
      <stop
         id="stop4034"
         offset="1"
         style="stop-color:#c09a00;stop-opacity:1;" />
    </linearGradient>
  </defs>
  <sodipodi:namedview
     id="base"
     pagecolor="#ffffff"
     bordercolor="#666666"
     borderopacity="1.0"
     inkscape:pageopacity="0.0"
     inkscape:pageshadow="2"
     inkscape:zoom="16.5"
     inkscape:cx="16"
     inkscape:cy="16"
     inkscape:current-layer="layer2"
     showgrid="true"
     inkscape:grid-bbox="true"
     inkscape:document-units="px"
     objecttolerance="10000"
     inkscape:snap-perpendicular="true"
     guidetolerance="10000"
     inkscape:window-width="1024"
     inkscape:window-height="741"
     inkscape:window-x="0"
     inkscape:window-y="2"
     inkscape:window-maximized="1"
     showguides="true"
     inkscape:guide-bbox="true">
    <inkscape:grid
       type="xygrid"
       id="grid4698"
       empspacing="4"
       visible="true"
       enabled="true"
       snapvisiblegridlinesonly="true" />
    <sodipodi:guide
       position="16,32"
       orientation="1,0"
       id="guide4769" />
    <sodipodi:guide
       position="-4,16"
       orientation="0,1"
       id="guide4771" />
    <sodipodi:guide
       position="16,16"
       orientation="-0.70710678,0.70710678"
       id="guide4773" />
    <sodipodi:guide
       position="16,16"
       orientation="0.70710678,0.70710678"
       id="guide4775" />
  </sodipodi:namedview>
  <metadata
     id="metadata4155">
    <rdf:RDF>
      <cc:Work
         rdf:about="">
        <dc:format>image/svg+xml</dc:format>
        <dc:type
           rdf:resource="http://purl.org/dc/dcmitype/StillImage" />
        <dc:title></dc:title>
      </cc:Work>
    </rdf:RDF>
  </metadata>
  <g
     id="layer1"
     inkscape:label="button"
     inkscape:groupmode="layer"
     sodipodi:insensitive="true">
    <rect
       ry="4"
       y="0"
       x="0"
       height="32"
       width="32"
       id="rect3767"
       style="fill:#fc0;fill-opacity:1;stroke:none" />
    <path
       style="fill:black;fill-opacity:1;stroke:none"
       d="M 4,0 C 1.784,0 0,1.784 0,4 l 0,24 c 0,2.216 1.784,4 4,4 l 24,0 c 2.216,0 4,-1.784 4,-4 L 32,4 C 32,1.784 30.216,0 28,0 L 4,0 z m 0,1 24,0 c 1.662,0 3,1.338 3,3 l 0,24 c 0,1.662 -1.338,3 -3,3 L 4,31 C 2.338,31 1,29.662 1,28 L 1,4 C 1,2.338 2.338,1 4,1 z"
       id="rect2993"
       inkscape:connector-curvature="0" />
  </g>
  <g
     inkscape:groupmode="layer"
     id="layer2"
     inkscape:label="symbol">
    <rect
       style="fill:none;stroke:none"
       id="rect6553"
       width="30"
       height="30"
       x="1"
       y="1" />
    <path
       sodipodi:type="arc"
       style="fill:red;fill-opacity:1;fill-rule:nonzero;stroke:none"
       id="path3403"
       sodipodi:cx="7.9652176"
       sodipodi:cy="8"
       sodipodi:rx="6.9913044"
       sodipodi:ry="6.9913044"
       d="M 14.956522,8 A 6.9913044,6.9913044 0 1 1 0.97391319,8 6.9913044,6.9913044 0 1 1 14.956522,8 z"
       transform="matrix(1.8773321,0,0,1.8773321,1.046638,0.98133895)" />
    <path
       sodipodi:type="arc"
       style="fill:maroon;fill-opacity:1;fill-rule:nonzero;stroke:none"
       id="path3429"
       sodipodi:cx="28.15704"
       sodipodi:cy="51.823883"
       sodipodi:rx="4.1570387"
       sodipodi:ry="3.8238845"
       d="m 32.314078,51.823883 a 4.1570387,3.8238845 0 1 1 -8.314077,0"
       transform="matrix(2.9317744,0,0,3.1872023,-66.550091,-149.17319)"
       sodipodi:start="0"
       sodipodi:end="3.1415927"
       sodipodi:open="true" />
    <path
       sodipodi:type="arc"
       style="fill:#500;fill-opacity:1;stroke:none"
       id="path5770"
       sodipodi:cx="16"
       sodipodi:cy="21"
       sodipodi:rx="8"
       sodipodi:ry="4.944272"
       d="M 24,21 A 8,4.944272 0 1 1 8,21 8,4.944272 0 1 1 24,21 z"
       transform="matrix(0.9375,0,0,0.9375,1,1)" />
    <path
       style="fill:red;fill-opacity:1;stroke:none"
       d="m 8.5,25.890267 c 0,0 2.982109,-1.980553 4.6875,-2.390267 0.911562,-0.218999 1.875,0 2.8125,0 0.9375,0 1.893107,-0.183365 2.8125,0 1.841666,0.367304 5.202767,2.16126 5.202767,2.16126 0,0 -5.515267,3.034351 -8.015267,3.034351 -2.5,0 -7.5,-2.805344 -7.5,-2.805344 z"
       id="path5768"
       inkscape:connector-curvature="0"
       sodipodi:nodetypes="caaaczc" />
    <path
       transform="matrix(2.8125013,0,0,2.8125013,-13.062513,-3.6875115)"
       sodipodi:type="arc"
       style="fill:white;fill-opacity:1;fill-rule:nonzero;stroke:none"
       id="path3407"
       sodipodi:cx="8"
       sodipodi:cy="5"
       sodipodi:rx="2"
       sodipodi:ry="2"
       d="M 10,5 A 2,2 0 1 1 6,5 2,2 0 1 1 10,5 z" />
    <path
       d="M 10,5 A 2,2 0 1 1 6,5 2,2 0 1 1 10,5 z"
       sodipodi:ry="2"
       sodipodi:rx="2"
       sodipodi:cy="5"
       sodipodi:cx="8"
       id="path3425"
       style="fill:white;fill-opacity:1;fill-rule:nonzero;stroke:none"
       sodipodi:type="arc"
       transform="matrix(2.8125014,0,0,2.8125014,0.06248594,-3.6875118)" />
    <path
       sodipodi:type="arc"
       style="fill:black;fill-opacity:1;fill-rule:nonzero;stroke:none"
       id="path3409"
       sodipodi:cx="8"
       sodipodi:cy="5"
       sodipodi:rx="1"
       sodipodi:ry="1"
       d="M 9,5 A 1,1 0 1 1 7,5 1,1 0 1 1 9,5 z"
       transform="matrix(2.8125,0,0,2.8125,-13.0625,-3.6875)" />
    <path
       transform="matrix(2.8125,0,0,2.8125,0.0625,-3.6875)"
       d="M 9,5 A 1,1 0 1 1 7,5 1,1 0 1 1 9,5 z"
       sodipodi:ry="1"
       sodipodi:rx="1"
       sodipodi:cy="5"
       sodipodi:cx="8"
       id="path3427"
       style="fill:black;fill-opacity:1;fill-rule:nonzero;stroke:none"
       sodipodi:type="arc" />
    <path
       sodipodi:type="arc"
       style="fill:red;fill-opacity:1;stroke:none"
       id="path5707"
       sodipodi:cx="16"
       sodipodi:cy="22"
       sodipodi:rx="1"
       sodipodi:ry="2"
       d="m 17,22 a 1,2 0 1 1 -2,0 1,2 0 1 1 2,0 z"
       transform="matrix(0.9375,0,0,0.9375,1,-0.58874047)" />
    <path
       sodipodi:end="6.2831853"
       sodipodi:start="3.1415927"
       transform="matrix(3.157296,0,0,1.6503184e-6,-72.900109,15.999911)"
       d="m 24.000001,51.823883 a 4.1570387,0.76477689 0 0 1 8.314077,0"
       sodipodi:ry="0.76477689"
       sodipodi:rx="4.1570387"
       sodipodi:cy="51.823883"
       sodipodi:cx="28.15704"
       id="path3443"
       style="fill:white;fill-opacity:1;fill-rule:nonzero;stroke:none"
       sodipodi:type="arc"
       sodipodi:open="true" />
    <path
       sodipodi:type="arc"
       style="fill:#500;fill-opacity:1;stroke:none"
       id="path5772"
       sodipodi:cx="16.553375"
       sodipodi:cy="16.27804"
       sodipodi:rx="0.0037570808"
       sodipodi:ry="0.21050936"
       d="m 16.557132,16.27804 a 0.00375708,0.21050936 0 1 1 -0.0075,0 0.00375708,0.21050936 0 1 1 0.0075,0 z"
       transform="matrix(0.9375,0,0,0.9375,1,1)" />
  </g>
  <g
     inkscape:groupmode="layer"
     id="layer3"
     inkscape:label="shading"
     sodipodi:insensitive="true">
    <path
       inkscape:connector-curvature="0"
       style="fill:black;fill-opacity:0.37647059;stroke:none"
       d="M 1.875,1.875 C 1.33275,2.41725 1,3.169 1,4 l 0,24 c 0,1.662 1.338,3 3,3 l 24,0 c 0.831,0 1.58275,-0.33275 2.125,-0.875 L 29.40625,29.40625 C 29.04475,29.76775 28.554,30 28,30 L 4,30 C 2.892,30 2,29.108 2,28 L 2,4 C 2,3.446 2.23225,2.95525 2.59375,2.59375 L 1.875,1.875 z"
       id="rect2997" />
    <path
       style="fill:white;fill-opacity:0.37647059;stroke:none"
       d="M 4,1 C 3.169,1 2.41725,1.33275 1.875,1.875 L 2.59375,2.59375 C 2.95525,2.23225 3.446,2 4,2 l 24,0 c 1.108,0 2,0.892 2,2 l 0,24 c 0,0.554 -0.23225,1.04475 -0.59375,1.40625 L 30.125,30.125 C 30.66725,29.58275 31,28.831 31,28 L 31,4 C 31,2.338 29.662,1 28,1 L 4,1 z"
       id="rect3774"
       inkscape:connector-curvature="0" />
    <rect
       style="fill:white;fill-opacity:0.50196078;stroke:none"
       id="rect3793"
       width="26"
       height="2"
       x="3"
       y="2"
       ry="1"
       rx="1" />
    <rect
       style="fill:white;fill-opacity:0.50196078;stroke:none"
       id="rect3795"
       width="24"
       height="1"
       x="4"
       y="2"
       ry="0.5"
       rx="0.5" />
  </g>
</svg>
