<?xml version="1.0" encoding="UTF-8" standalone="no"?>
<!-- Created with Inkscape (http://www.inkscape.org/) -->

<svg
   xmlns:dc="http://purl.org/dc/elements/1.1/"
   xmlns:cc="http://creativecommons.org/ns#"
   xmlns:rdf="http://www.w3.org/1999/02/22-rdf-syntax-ns#"
   xmlns:svg="http://www.w3.org/2000/svg"
   xmlns="http://www.w3.org/2000/svg"
   xmlns:xlink="http://www.w3.org/1999/xlink"
   xmlns:sodipodi="http://sodipodi.sourceforge.net/DTD/sodipodi-0.dtd"
   xmlns:inkscape="http://www.inkscape.org/namespaces/inkscape"
   width="32"
   height="32"
   id="svg4150"
   version="1.1"
   inkscape:version="0.48.5 r10040"
   viewBox="0 0 32 32"
   sodipodi:docname="button-black-daddy-00.svg">
  <defs
     id="defs4152">
    <linearGradient
       inkscape:collect="always"
       xlink:href="#linearGradient4030"
       id="linearGradient4054"
       x1="16"
       y1="4"
       x2="16"
       y2="16"
       gradientUnits="userSpaceOnUse" />
    <linearGradient
       id="linearGradient4030">
      <stop
         id="stop4032"
         offset="0"
         style="stop-color:#ffcc01;stop-opacity:1;" />
      <stop
         style="stop-color:#ffea95;stop-opacity:1;"
         offset="0.5"
         id="stop4036" />
      <stop
         id="stop4046"
         offset="0.75"
         style="stop-color:#ffcc01;stop-opacity:1;" />
      <stop
         id="stop4034"
         offset="1"
         style="stop-color:#c09a00;stop-opacity:1;" />
    </linearGradient>
    <linearGradient
       inkscape:collect="always"
       xlink:href="#linearGradient4030"
       id="linearGradient3721"
       gradientUnits="userSpaceOnUse"
       x1="16"
       y1="4"
       x2="16"
       y2="16" />
  </defs>
  <sodipodi:namedview
     id="base"
     pagecolor="#ffffff"
     bordercolor="#666666"
     borderopacity="1.0"
     inkscape:pageopacity="0.0"
     inkscape:pageshadow="2"
     inkscape:zoom="16.5"
     inkscape:cx="16"
     inkscape:cy="16"
     inkscape:current-layer="g3707"
     showgrid="false"
     inkscape:grid-bbox="true"
     inkscape:document-units="px"
     objecttolerance="10000"
     inkscape:snap-perpendicular="true"
     guidetolerance="10000"
     inkscape:window-width="1024"
     inkscape:window-height="741"
     inkscape:window-x="0"
     inkscape:window-y="2"
     inkscape:window-maximized="1"
     showguides="false"
     inkscape:guide-bbox="true">
    <inkscape:grid
       type="xygrid"
       id="grid4698"
       empspacing="4" />
    <sodipodi:guide
       position="16,32"
       orientation="1,0"
       id="guide4769" />
    <sodipodi:guide
       position="-4,16"
       orientation="0,1"
       id="guide4771" />
    <sodipodi:guide
       position="16,16"
       orientation="-0.70710678,0.70710678"
       id="guide4773" />
    <sodipodi:guide
       position="16,16"
       orientation="0.70710678,0.70710678"
       id="guide4775" />
  </sodipodi:namedview>
  <metadata
     id="metadata4155">
    <rdf:RDF>
      <cc:Work
         rdf:about="">
        <dc:format>image/svg+xml</dc:format>
        <dc:type
           rdf:resource="http://purl.org/dc/dcmitype/StillImage" />
        <dc:title></dc:title>
      </cc:Work>
    </rdf:RDF>
  </metadata>
  <g
     id="layer1"
     inkscape:label="button"
     inkscape:groupmode="layer"
     sodipodi:insensitive="true">
    <rect
       ry="4"
       y="0"
       x="0"
       height="32"
       width="32"
       id="rect3767"
       style="fill:#fc0;fill-opacity:1;stroke:none" />
    <path
       style="fill:black;fill-opacity:1;stroke:none"
       d="M 4,0 C 1.784,0 0,1.784 0,4 l 0,24 c 0,2.216 1.784,4 4,4 l 24,0 c 2.216,0 4,-1.784 4,-4 L 32,4 C 32,1.784 30.216,0 28,0 L 4,0 z m 0,1 24,0 c 1.662,0 3,1.338 3,3 l 0,24 c 0,1.662 -1.338,3 -3,3 L 4,31 C 2.338,31 1,29.662 1,28 L 1,4 C 1,2.338 2.338,1 4,1 z"
       id="rect2993"
       inkscape:connector-curvature="0" />
  </g>
  <g
     inkscape:groupmode="layer"
     id="layer2"
     inkscape:label="symbol">
    <g
       id="g3707"
       transform="matrix(0.9375,0,0,0.9375,1,1)">
      <rect
         style="fill:none;stroke:none"
         id="rect5378"
         width="32"
         height="32"
         x="0"
         y="0" />
      <path
         sodipodi:type="arc"
         style="fill:black;fill-opacity:0.25098041;fill-rule:nonzero;stroke:none"
         id="path4818"
         sodipodi:cx="260.2963"
         sodipodi:cy="136.06313"
         sodipodi:rx="14.367003"
         sodipodi:ry="15.000842"
         d="m 274.6633,136.06313 c 0,8.28473 -6.43233,15.00084 -14.367,15.00084 -7.93468,0 -14.36701,-6.71611 -14.36701,-15.00084 0,-8.28474 6.43233,-15.00085 14.36701,-15.00085 7.93467,0 14.367,6.71611 14.367,15.00085 z"
         transform="matrix(1.0440591,0,0,0.9999439,-255.76471,-120.05549)" />
      <path
         sodipodi:type="arc"
         style="fill:#1a1a1a;fill-opacity:1;fill-rule:nonzero;stroke:none"
         id="path3403"
         sodipodi:cx="7.9652176"
         sodipodi:cy="8"
         sodipodi:rx="6.9913044"
         sodipodi:ry="6.9913044"
         d="m 14.956522,8 c 0,3.861191 -3.130114,6.991304 -6.9913044,6.991304 -3.8611908,0 -6.99130441,-3.130113 -6.99130441,-6.991304 0,-3.8611908 3.13011361,-6.9913044 6.99130441,-6.9913044 3.8611904,0 6.9913044,3.1301136 6.9913044,6.9913044 z"
         transform="matrix(2.0024876,0,0,2.0024876,0.0497472,-0.01990512)" />
      <path
         sodipodi:type="arc"
         style="fill:#e1fff9;fill-opacity:1;fill-rule:nonzero;stroke:none"
         id="path3429"
         sodipodi:cx="28.15704"
         sodipodi:cy="51.823883"
         sodipodi:rx="4.1570387"
         sodipodi:ry="3.8238845"
         d="m 32.314078,51.823883 c 0,2.111873 -1.861169,3.823885 -4.157038,3.823885 -2.295869,0 -4.157039,-1.712012 -4.157039,-3.823885 0,0 0,0 0,0"
         transform="matrix(3.127226,0,0,3.3996825,-72.05343,-160.18474)"
         sodipodi:start="0"
         sodipodi:end="3.1415927"
         sodipodi:open="true" />
      <path
         transform="matrix(2,0,0,2,-7.0000028,-5.1161847e-6)"
         sodipodi:type="arc"
         style="fill:white;fill-opacity:1;fill-rule:nonzero;stroke:none"
         id="path3407"
         sodipodi:cx="8"
         sodipodi:cy="5"
         sodipodi:rx="2"
         sodipodi:ry="2"
         d="M 10,5 C 10,6.1045695 9.1045695,7 8,7 6.8954305,7 6,6.1045695 6,5 6,3.8954305 6.8954305,3 8,3 c 1.1045695,0 2,0.8954305 2,2 z" />
      <path
         d="M 10,5 C 10,6.1045695 9.1045695,7 8,7 6.8954305,7 6,6.1045695 6,5 6,3.8954305 6.8954305,3 8,3 c 1.1045695,0 2,0.8954305 2,2 z"
         sodipodi:ry="2"
         sodipodi:rx="2"
         sodipodi:cy="5"
         sodipodi:cx="8"
         id="path3425"
         style="fill:white;fill-opacity:1;fill-rule:nonzero;stroke:none"
         sodipodi:type="arc"
         transform="matrix(2,0,0,2,6.999997,-5.1161847e-6)" />
      <path
         sodipodi:type="arc"
         style="fill:black;fill-opacity:1;fill-rule:nonzero;stroke:none"
         id="path3409"
         sodipodi:cx="8"
         sodipodi:cy="5"
         sodipodi:rx="1"
         sodipodi:ry="1"
         d="M 9,5 C 9,5.5522847 8.5522847,6 8,6 7.4477153,6 7,5.5522847 7,5 7,4.4477153 7.4477153,4 8,4 8.5522847,4 9,4.4477153 9,5 z"
         transform="matrix(2,0,0,2,-7,1)" />
      <path
         transform="matrix(2,0,0,2,7,1)"
         d="M 9,5 C 9,5.5522847 8.5522847,6 8,6 7.4477153,6 7,5.5522847 7,5 7,4.4477153 7.4477153,4 8,4 8.5522847,4 9,4.4477153 9,5 z"
         sodipodi:ry="1"
         sodipodi:rx="1"
         sodipodi:cy="5"
         sodipodi:cx="8"
         id="path3427"
         style="fill:black;fill-opacity:1;fill-rule:nonzero;stroke:none"
         sodipodi:type="arc" />
      <path
         sodipodi:end="6.2831853"
         sodipodi:start="3.1415927"
         transform="matrix(3.3677824,0,0,1.7603396e-6,-78.826783,15.999905)"
         d="m 24.000001,51.823883 c 0,-0.422375 1.86117,-0.764777 4.157039,-0.764777 2.295869,0 4.157038,0.342402 4.157038,0.764777"
         sodipodi:ry="0.76477689"
         sodipodi:rx="4.1570387"
         sodipodi:cy="51.823883"
         sodipodi:cx="28.15704"
         id="path3443"
         style="fill:white;fill-opacity:1;fill-rule:nonzero;stroke:none"
         sodipodi:type="arc"
         sodipodi:open="true" />
      <path
         id="rect3904"
         d="m 3,16 c 0,1.759902 0.3662779,3.437908 1,4.96875 L 4,16 3,16 z m 6,0 0,10.9375 c 0.634046,0.406313 1.297129,0.76966 2,1.0625 l 0,-12 -2,0 z m 7,0 0,13 c 0.678455,0 1.349587,-0.05607 2,-0.15625 L 18,16 16,16 z m 7,0 0,10.9375 c 0.716806,-0.459347 1.388534,-0.9755 2,-1.5625 L 25,16 23,16 z"
         style="fill:#81e6ff;fill-opacity:0.25098039;stroke:none"
         inkscape:connector-curvature="0" />
      <path
         id="rect3912"
         d="m 7,16 0,9.375 c 0.611466,0.587 1.283194,1.103153 2,1.5625 L 9,16 7,16 z m 7,0 0,12.84375 C 14.650413,28.943931 15.321545,29 16,29 l 0,-13 -2,0 z m 7,0 0,12 c 0.702871,-0.29284 1.365954,-0.656187 2,-1.0625 L 23,16 21,16 z m 7,0 0,4.96875 C 28.633722,19.437908 29,17.759902 29,16 l -1,0 z"
         style="fill:white;fill-opacity:1;stroke:none"
         inkscape:connector-curvature="0" />
      <path
         id="path3241"
         d="m 9,4 c -3.3137085,0 -6,2.6862915 -6,6 0,3.313708 2.6862915,6 6,6 3.313708,0 6,-2.686292 6,-6 0,-0.2725973 -0.02729,-0.5495407 -0.0625,-0.8125 0.677184,-0.2532957 1.447816,-0.2532958 2.125,0 C 17.027288,9.4504593 17,9.7274027 17,10 c 0,3.313708 2.686291,6 6,6 3.313708,0 6,-2.686292 6,-6 C 29,6.6862915 26.313708,4 23,4 20.307611,4 18.040919,5.7763386 17.28125,8.21875 16.867154,8.080555 16.431624,8 16,8 15.568376,8 15.132846,8.080555 14.71875,8.21875 13.959081,5.7763386 11.692388,4 9,4 z m 0,1 c 2.761424,0 5,2.2385763 5,5 0,2.761424 -2.238576,5 -5,5 C 6.2385763,15 4,12.761424 4,10 4,7.2385763 6.2385763,5 9,5 z m 14,0 c 2.761424,0 5,2.2385763 5,5 0,2.761424 -2.238576,5 -5,5 -2.761424,0 -5,-2.238576 -5,-5 0,-2.7614237 2.238576,-5 5,-5 z"
         style="fill:url(#linearGradient3721);fill-opacity:1;stroke:none"
         inkscape:connector-curvature="0" />
    </g>
  </g>
  <g
     inkscape:groupmode="layer"
     id="layer3"
     inkscape:label="shading"
     sodipodi:insensitive="true">
    <path
       inkscape:connector-curvature="0"
       style="fill:black;fill-opacity:0.37647059;stroke:none"
       d="M 1.875,1.875 C 1.33275,2.41725 1,3.169 1,4 l 0,24 c 0,1.662 1.338,3 3,3 l 24,0 c 0.831,0 1.58275,-0.33275 2.125,-0.875 L 29.40625,29.40625 C 29.04475,29.76775 28.554,30 28,30 L 4,30 C 2.892,30 2,29.108 2,28 L 2,4 C 2,3.446 2.23225,2.95525 2.59375,2.59375 L 1.875,1.875 z"
       id="rect2997" />
    <path
       style="fill:white;fill-opacity:0.37647059;stroke:none"
       d="M 4,1 C 3.169,1 2.41725,1.33275 1.875,1.875 L 2.59375,2.59375 C 2.95525,2.23225 3.446,2 4,2 l 24,0 c 1.108,0 2,0.892 2,2 l 0,24 c 0,0.554 -0.23225,1.04475 -0.59375,1.40625 L 30.125,30.125 C 30.66725,29.58275 31,28.831 31,28 L 31,4 C 31,2.338 29.662,1 28,1 L 4,1 z"
       id="rect3774"
       inkscape:connector-curvature="0" />
    <rect
       style="fill:white;fill-opacity:0.50196078;stroke:none"
       id="rect3793"
       width="26"
       height="2"
       x="3"
       y="2"
       ry="1"
       rx="1" />
    <rect
       style="fill:white;fill-opacity:0.50196078;stroke:none"
       id="rect3795"
       width="24"
       height="1"
       x="4"
       y="2"
       ry="0.5"
       rx="0.5" />
  </g>
</svg>
