<?xml version="1.0" encoding="UTF-8" standalone="no"?>
<!-- Created with Inkscape (http://www.inkscape.org/) -->

<svg xmlns:dc="http://purl.org/dc/elements/1.1/" xmlns:cc="http://creativecommons.org/ns#" xmlns:rdf="http://www.w3.org/1999/02/22-rdf-syntax-ns#" xmlns:svg="http://www.w3.org/2000/svg" xmlns="http://www.w3.org/2000/svg" xmlns:sodipodi="http://sodipodi.sourceforge.net/DTD/sodipodi-0.dtd" xmlns:inkscape="http://www.inkscape.org/namespaces/inkscape" width="32" height="32" id="svg4150" version="1.1" inkscape:version="0.91 r13725" viewBox="0 0 32 32" sodipodi:docname="symbol-level-forge-with-outline-00.svg">
  <defs id="defs4152" />
  <sodipodi:namedview id="base" pagecolor="#ffffff" bordercolor="#666666" borderopacity="1.0" inkscape:pageopacity="0.0" inkscape:pageshadow="2" inkscape:zoom="22.125" inkscape:cx="16" inkscape:cy="16" inkscape:current-layer="layer1" showgrid="true" inkscape:grid-bbox="true" inkscape:document-units="px" objecttolerance="10000" inkscape:snap-perpendicular="true" guidetolerance="10000" inkscape:window-width="1600" inkscape:window-height="878" inkscape:window-x="0" inkscape:window-y="0" inkscape:window-maximized="1" showguides="true" inkscape:guide-bbox="true">
    <inkscape:grid type="xygrid" id="grid4698" empspacing="4" />
    <sodipodi:guide position="16,32" orientation="1,0" id="guide4769" />
    <sodipodi:guide position="-4,16" orientation="0,1" id="guide4771" />
    <sodipodi:guide position="16,16" orientation="-0.70710678,0.70710678" id="guide4773" />
    <sodipodi:guide position="16,16" orientation="0.70710678,0.70710678" id="guide4775" />
  </sodipodi:namedview>
  <metadata id="metadata4155">
    <rdf:RDF>
      <cc:Work rdf:about="">
        <dc:format>image/svg+xml</dc:format>
        <dc:type rdf:resource="http://purl.org/dc/dcmitype/StillImage" />
        <dc:title></dc:title>
      </cc:Work>
    </rdf:RDF>
  </metadata>
  <g id="layer1" inkscape:label="Layer 1" inkscape:groupmode="layer">
    <g id="g7166" transform="translate(0.9999844,2)">
      <path sodipodi:nodetypes="ccccccccccccccccccccccccccc" inkscape:connector-curvature="0" id="rect7102" d="m 10,11 0,1 -8.8339844,0 0.9941406,1.541016 c 1.2358597,1.917408 3.1570959,3.382463 5.3183594,4.675781 0.1603432,0.09779 0.3220335,0.195644 0.4882813,0.292969 l 0.00391,0.002 0.00195,0.002 c 0.071025,0.04092 0.1374042,0.07646 0.1953126,0.109375 C 8.7332991,18.948921 9.3633557,19.274471 10,19.599609 L 10,21 l 0.806641,0 c -0.0707,0.613341 -0.08459,1.220298 -0.38086,1.859375 -0.6847784,1.373853 -1.9972596,2.840904 -4.019531,4.335937 L 6,27.496094 6,30 24,30 24,27.498047 23.597656,27.197266 C 20.473523,24.869377 19.360407,22.889522 19.109375,21 L 20,21 l 0,-1.382812 8,-4 L 28,12 l -8,0 0,-1 z" style="color:black;font-style:normal;font-variant:normal;font-weight:normal;font-stretch:normal;font-size:medium;line-height:normal;font-family:sans-serif;text-indent:0;text-align:start;text-decoration:none;text-decoration-line:none;text-decoration-style:solid;text-decoration-color:black;letter-spacing:normal;word-spacing:normal;text-transform:none;direction:ltr;block-progression:tb;writing-mode:lr-tb;baseline-shift:baseline;text-anchor:start;white-space:normal;clip-rule:nonzero;display:inline;overflow:visible;visibility:visible;opacity:1;isolation:auto;mix-blend-mode:normal;color-interpolation:sRGB;color-interpolation-filters:linearRGB;solid-color:black;solid-opacity:1;fill:black;fill-opacity:1;fill-rule:nonzero;stroke:none;stroke-width:2;stroke-linecap:butt;stroke-linejoin:miter;stroke-miterlimit:4;stroke-dasharray:none;stroke-dashoffset:0;stroke-opacity:1;color-rendering:auto;image-rendering:auto;shape-rendering:auto;text-rendering:auto;enable-background:accumulate" />
      <g transform="translate(-1,4.0000003)" id="g3841">
        <rect style="fill:#666;fill-opacity:1;stroke:none" id="rect3040" width="8" height="8" x="12" y="8" />
        <path sodipodi:nodetypes="ccccc" style="fill:#666;fill-opacity:1;stroke:none" d="M 12,9 4,9 4,9 c 1.369682,2.036027 3.9858877,4.037429 8,6 z" id="path3042" inkscape:connector-curvature="0" />
        <path style="fill:#666;fill-opacity:1;stroke:none" d="m 20,9 0,6 8,-4 0,-2 z" id="path3044" inkscape:connector-curvature="0" sodipodi:nodetypes="ccccc" />
        <path style="fill:#666;fill-opacity:1;stroke:none" d="m 13,16 c 0.120249,2.59519 -1.090732,5.243629 -5,8 l 16,0 c -3.819564,-2.846075 -5.048772,-5.476287 -5,-8 z" id="path3046" inkscape:connector-curvature="0" sodipodi:nodetypes="ccccc" />
        <rect style="fill:black;fill-opacity:1;stroke:none" id="rect3048" width="16" height="1" x="8" y="24" />
        <path sodipodi:nodetypes="ccccc" style="fill:white;fill-opacity:0.25098039;stroke:none" d="m 20,9 0,1 8,0 0,-1 z" id="path3050" inkscape:connector-curvature="0" />
        <path sodipodi:nodetypes="cccc" inkscape:connector-curvature="0" id="path3831" d="M 12,9 12,10 4,9 Z" style="fill:white;fill-opacity:0.25098039;stroke:none" />
        <path style="fill:black;fill-opacity:0.25098039;stroke:none" d="m 4,9 c 2.200282,1.102022 3.8415906,2.326319 8,3 l 0,3 C 8.6517861,13.312376 5.6032468,11.487401 4,9 Z" id="path3833" inkscape:connector-curvature="0" sodipodi:nodetypes="cccc" />
        <path sodipodi:nodetypes="cccc" inkscape:connector-curvature="0" id="path3835" d="m 28,11 -8,1 0,3 z" style="fill:black;fill-opacity:0.25098039;stroke:none" />
        <path style="fill:black;fill-opacity:0.25098039;stroke:none" d="m 15,16 -2,8 -5,0 c 3.574429,-2.642518 5.270338,-5.308814 5,-8 z" id="path3837" inkscape:connector-curvature="0" sodipodi:nodetypes="ccccc" />
        <path style="fill:black;fill-opacity:0.25098039;stroke:none" d="m 12,8 0,8 8,0 C 11.928836,15.800604 13.100805,11.381517 12,8 Z" id="path3839" inkscape:connector-curvature="0" sodipodi:nodetypes="cccc" />
      </g>
    </g>
    <g id="g7154" transform="translate(1.2655367,0.03389831)">
      <path style="color:black;font-style:normal;font-variant:normal;font-weight:normal;font-stretch:normal;font-size:medium;line-height:normal;font-family:sans-serif;text-indent:0;text-align:start;text-decoration:none;text-decoration-line:none;text-decoration-style:solid;text-decoration-color:black;letter-spacing:normal;word-spacing:normal;text-transform:none;direction:ltr;block-progression:tb;writing-mode:lr-tb;baseline-shift:baseline;text-anchor:start;white-space:normal;clip-rule:nonzero;display:inline;overflow:visible;visibility:visible;opacity:1;isolation:auto;mix-blend-mode:normal;color-interpolation:sRGB;color-interpolation-filters:linearRGB;solid-color:black;solid-opacity:1;fill:black;fill-opacity:1;fill-rule:nonzero;stroke:none;stroke-width:2;stroke-linecap:butt;stroke-linejoin:miter;stroke-miterlimit:4;stroke-dasharray:none;stroke-dashoffset:0;stroke-opacity:1;color-rendering:auto;image-rendering:auto;shape-rendering:auto;text-rendering:auto;enable-background:accumulate" d="M 12.773438,2.0507812 C 11.99811,2.1577931 11.328255,2.7259616 11.117188,3.5136719 L 10.75,4.8847656 C 10.114999,5.0841142 9.5554828,5.4714846 9.3730469,6.1523438 9.1910097,6.8317148 9.4801498,7.4491351 9.9296875,7.9394531 L 9.5625,9.3085938 C 9.2796508,10.364199 9.9256946,11.477663 10.978516,11.759766 L 13.875,12.537109 c 1.053412,0.282262 2.168912,-0.360655 2.451172,-1.414062 l 0.257812,-0.966797 11.591797,3.105469 c 1.053408,0.28107 2.168505,-0.359127 2.451172,-1.414063 0.282262,-1.053412 -0.360654,-2.1689112 -1.414062,-2.4511716 L 17.619141,6.2910156 17.878906,5.3261719 C 18.161168,4.2727595 17.518252,3.1572599 16.464844,2.875 l -0.002,0 -2.894532,-0.7753906 -0.002,0 c -0.263941,-0.070444 -0.533619,-0.084624 -0.792968,-0.048828 z" id="rect7140" inkscape:connector-curvature="0" sodipodi:nodetypes="cccscccccccsccccccccc" />
      <g transform="translate(-6,2.0000003)" id="g3865">
        <g transform="matrix(0.96592583,0.25881905,-0.25881905,0.96592583,4.1118754,-4.0412862)" id="g3870">
          <rect rx="0.99999994" ry="1" y="4" x="14" height="2" width="20" id="rect3854" style="fill:#c8ab37;fill-opacity:1;stroke:none" />
          <path sodipodi:nodetypes="sccss" inkscape:connector-curvature="0" id="rect3858" d="M 15,6 C 14.446,6 14,5.554 14,5 l 20,0 c 0,0.554 -0.446,1 -1,1 z" style="fill:black;fill-opacity:0.25098039;stroke:none" />
          <rect ry="1" y="1" x="15" height="8" width="5" id="rect3863" style="fill:#333;fill-opacity:1;stroke:none" rx="1" />
        </g>
      </g>
    </g>
  </g>
</svg>
