<?xml version="1.0" encoding="UTF-8" standalone="no"?>
<!-- Created with Inkscape (http://www.inkscape.org/) -->

<svg xmlns:dc="http://purl.org/dc/elements/1.1/" xmlns:cc="http://creativecommons.org/ns#" xmlns:rdf="http://www.w3.org/1999/02/22-rdf-syntax-ns#" xmlns:svg="http://www.w3.org/2000/svg" xmlns="http://www.w3.org/2000/svg" xmlns:xlink="http://www.w3.org/1999/xlink" xmlns:sodipodi="http://sodipodi.sourceforge.net/DTD/sodipodi-0.dtd" xmlns:inkscape="http://www.inkscape.org/namespaces/inkscape" width="32" height="32" id="svg4150" version="1.1" inkscape:version="0.91 r13725" viewBox="0 0 32 32" sodipodi:docname="symbol-kids2-w-outline.svg">
  <defs id="defs4152" />
  <sodipodi:namedview id="base" pagecolor="#ffffff" bordercolor="#666666" borderopacity="1.0" inkscape:pageopacity="0.0" inkscape:pageshadow="2" inkscape:zoom="11.313708" inkscape:cx="16" inkscape:cy="16" inkscape:current-layer="g7100" showgrid="true" inkscape:grid-bbox="true" inkscape:document-units="px" objecttolerance="10000" inkscape:snap-perpendicular="true" guidetolerance="10000" inkscape:window-width="1600" inkscape:window-height="878" inkscape:window-x="0" inkscape:window-y="0" inkscape:window-maximized="1" showguides="false" inkscape:guide-bbox="true">
    <inkscape:grid type="xygrid" id="grid4698" empspacing="4" spacingx="1" spacingy="1" />
    <sodipodi:guide position="16,32" orientation="1,0" id="guide4769" />
    <sodipodi:guide position="33,16" orientation="0,1" id="guide4771" />
    <sodipodi:guide position="16,16" orientation="-0.70710678,0.70710678" id="guide4773" />
    <sodipodi:guide position="16,16" orientation="0.70710678,0.70710678" id="guide4775" />
  </sodipodi:namedview>
  <metadata id="metadata4155">
    <rdf:RDF>
      <cc:Work rdf:about="">
        <dc:format>image/svg+xml</dc:format>
        <dc:type rdf:resource="http://purl.org/dc/dcmitype/StillImage" />
        <dc:title></dc:title>
      </cc:Work>
    </rdf:RDF>
  </metadata>
  <g id="layer1" inkscape:label="Layer 1" inkscape:groupmode="layer">
    <g id="g4791" transform="matrix(0.99998247,0,0,0.99998247,-12.999719,-0.99943904)">
      <g id="g7100">
        <path id="circle4876" transform="matrix(1.0000175,0,0,1.0000175,12.999947,0.99945656)" d="M 16 1 A 4.9999123 4.9999123 0 0 0 15.585938 1.0214844 A 4.9999123 4.9999123 0 0 0 15.28125 1.0585938 A 4.9999123 4.9999123 0 0 0 15.099609 1.0859375 A 4.9999123 4.9999123 0 0 0 14.800781 1.1523438 A 4.9999123 4.9999123 0 0 0 14.595703 1.2050781 A 4.9999123 4.9999123 0 0 0 14.363281 1.28125 A 4.9999123 4.9999123 0 0 0 14.121094 1.3691406 A 4.9999123 4.9999123 0 0 0 13.886719 1.4746094 A 4.9999123 4.9999123 0 0 0 13.666016 1.5820312 A 4.9999123 4.9999123 0 0 0 13.451172 1.7070312 A 4.9999123 4.9999123 0 0 0 13.248047 1.828125 A 4.9999123 4.9999123 0 0 0 13.023438 1.9902344 A 4.9999123 4.9999123 0 0 0 13.005859 2.0019531 A 4.9999123 4.9999123 0 0 1 13.003906 2.0039062 A 4.9999123 4.9999123 0 0 0 12.998047 2.0078125 A 4.9999123 4.9999123 0 0 0 12.845703 2.125 A 4.9999123 4.9999123 0 0 0 12.636719 2.3085938 A 4.9999123 4.9999123 0 0 0 12.621094 2.3222656 A 4.9999123 4.9999123 0 0 0 12.466797 2.4667969 A 4.9999123 4.9999123 0 0 0 12.294922 2.6503906 A 4.9999123 4.9999123 0 0 0 12.283203 2.6640625 A 4.9999123 4.9999123 0 0 0 12.263672 2.6835938 A 4.9999123 4.9999123 0 0 0 12.128906 2.8417969 A 4.9999123 4.9999123 0 0 0 11.998047 3.0136719 A 4.9999123 4.9999123 0 0 0 11.992188 3.0214844 A 4.9999123 4.9999123 0 0 0 11.939453 3.0898438 A 4.9999123 4.9999123 0 0 0 11.832031 3.2441406 A 4.9999123 4.9999123 0 0 0 11.710938 3.4414062 A 4.9999123 4.9999123 0 0 0 11.701172 3.4570312 A 4.9999123 4.9999123 0 0 0 11.677734 3.4941406 A 4.9999123 4.9999123 0 0 0 11.580078 3.6699219 A 4.9999123 4.9999123 0 0 0 11.482422 3.8710938 A 4.9999123 4.9999123 0 0 0 11.476562 3.8808594 A 4.9999123 4.9999123 0 0 0 11.445312 3.9492188 A 4.9999123 4.9999123 0 0 0 11.365234 4.1308594 A 4.9999123 4.9999123 0 0 0 11.300781 4.3085938 A 4.9999123 4.9999123 0 0 0 11.294922 4.3222656 A 4.9999123 4.9999123 0 0 0 11.257812 4.4277344 A 4.9999123 4.9999123 0 0 0 11.205078 4.5917969 A 4.9999123 4.9999123 0 0 0 11.148438 4.8105469 A 4.9999123 4.9999123 0 0 0 11.123047 4.9140625 A 4.9999123 4.9999123 0 0 0 11.089844 5.0722656 A 4.9999123 4.9999123 0 0 0 11.056641 5.2773438 A 4.9999123 4.9999123 0 0 0 11.035156 5.4335938 A 4.9999123 4.9999123 0 0 0 11.021484 5.5605469 A 4.9999123 4.9999123 0 0 0 11.005859 5.8007812 A 4.9999123 4.9999123 0 0 0 11 6 A 4.9999123 4.9999123 0 0 0 11.021484 6.4414062 A 4.9999123 4.9999123 0 0 0 11.025391 6.5 A 4.9999123 4.9999123 0 0 0 11.046875 6.6503906 A 4.9999123 4.9999123 0 0 0 11.089844 6.9257812 A 4.9999123 4.9999123 0 0 0 11.142578 7.1621094 A 4.9999123 4.9999123 0 0 0 11.203125 7.4042969 A 4.9999123 4.9999123 0 0 0 11.257812 7.5722656 A 4.9999123 4.9999123 0 0 0 11.314453 7.7363281 L 11.314453 7.7382812 A 4.9999123 4.9999123 0 0 0 11.369141 7.8789062 A 4.9999123 4.9999123 0 0 0 11.470703 8.1074219 A 4.9999123 4.9999123 0 0 0 11.576172 8.3242188 A 4.9999123 4.9999123 0 0 0 11.726562 8.5839844 A 4.9999123 4.9999123 0 0 0 11.826172 8.7460938 A 4.9999123 4.9999123 0 0 0 11.988281 8.9746094 A 4.9999123 4.9999123 0 0 0 12.136719 9.1699219 A 4.9999123 4.9999123 0 0 0 12.279297 9.3320312 A 4.9999123 4.9999123 0 0 0 12.466797 9.5332031 A 4.9999123 4.9999123 0 0 0 12.669922 9.7226562 A 4.9999123 4.9999123 0 0 0 12.828125 9.8613281 A 4.9999123 4.9999123 0 0 0 13.03125 10.017578 A 4.9999123 4.9999123 0 0 0 13.25 10.171875 A 4.9999123 4.9999123 0 0 0 13.433594 10.285156 A 4.9999123 4.9999123 0 0 0 13.667969 10.419922 A 4.9999123 4.9999123 0 0 0 13.902344 10.533203 A 4.9999123 4.9999123 0 0 0 14.121094 10.630859 A 4.9999123 4.9999123 0 0 0 14.345703 10.712891 A 4.9999123 4.9999123 0 0 0 14.595703 10.796875 A 4.9999123 4.9999123 0 0 0 14.837891 10.857422 A 4.9999123 4.9999123 0 0 0 15.074219 10.910156 A 4.9999123 4.9999123 0 0 0 15.349609 10.953125 A 4.9999123 4.9999123 0 0 0 15.558594 10.978516 A 4.9999123 4.9999123 0 0 0 16 11 A 4.9999123 4.9999123 0 0 0 16.441406 10.976562 A 4.9999123 4.9999123 0 0 0 16.621094 10.955078 A 4.9999123 4.9999123 0 0 0 16.955078 10.904297 A 4.9999123 4.9999123 0 0 0 17.080078 10.876953 A 4.9999123 4.9999123 0 0 0 17.435547 10.785156 A 4.9999123 4.9999123 0 0 0 17.574219 10.740234 A 4.9999123 4.9999123 0 0 0 17.912109 10.615234 A 4.9999123 4.9999123 0 0 0 18.013672 10.570312 A 4.9999123 4.9999123 0 0 0 18.375 10.396484 A 4.9999123 4.9999123 0 0 0 18.451172 10.351562 A 4.9999123 4.9999123 0 0 0 18.798828 10.136719 A 4.9999123 4.9999123 0 0 0 18.863281 10.091797 A 4.9999123 4.9999123 0 0 0 19.21875 9.8203125 A 4.9999123 4.9999123 0 0 0 19.224609 9.8144531 A 4.9999123 4.9999123 0 0 0 19.914062 9.1035156 A 4.9999123 4.9999123 0 0 0 19.994141 8.9980469 A 4.9999123 4.9999123 0 0 0 21 6 A 4.9999123 4.9999123 0 0 0 20.978516 5.5820312 A 4.9999123 4.9999123 0 0 0 20.949219 5.3359375 A 4.9999123 4.9999123 0 0 0 20.910156 5.0703125 A 4.9999123 4.9999123 0 0 0 20.861328 4.8554688 A 4.9999123 4.9999123 0 0 0 20.794922 4.5898438 A 4.9999123 4.9999123 0 0 0 20.712891 4.3457031 A 4.9999123 4.9999123 0 0 0 20.634766 4.1328125 A 4.9999123 4.9999123 0 0 0 20.521484 3.8789062 A 4.9999123 4.9999123 0 0 0 20.417969 3.6660156 A 4.9999123 4.9999123 0 0 0 20.300781 3.4609375 A 4.9999123 4.9999123 0 0 0 20.166016 3.2402344 A 4.9999123 4.9999123 0 0 0 20.009766 3.0234375 A 4.9999123 4.9999123 0 0 0 19.875 2.8457031 A 4.9999123 4.9999123 0 0 0 19.691406 2.6367188 A 4.9999123 4.9999123 0 0 0 19.533203 2.4667969 A 4.9999123 4.9999123 0 0 0 19.363281 2.3085938 A 4.9999123 4.9999123 0 0 0 19.154297 2.125 A 4.9999123 4.9999123 0 0 0 18.976562 1.9902344 A 4.9999123 4.9999123 0 0 0 18.759766 1.8339844 A 4.9999123 4.9999123 0 0 0 18.539062 1.6992188 A 4.9999123 4.9999123 0 0 0 18.333984 1.5820312 A 4.9999123 4.9999123 0 0 0 18.113281 1.4746094 A 4.9999123 4.9999123 0 0 0 17.878906 1.3710938 A 4.9999123 4.9999123 0 0 0 17.623047 1.2773438 A 4.9999123 4.9999123 0 0 0 17.412109 1.2070312 A 4.9999123 4.9999123 0 0 0 17.183594 1.1484375 A 4.9999123 4.9999123 0 0 0 16.904297 1.0859375 A 4.9999123 4.9999123 0 0 0 16.708984 1.0566406 A 4.9999123 4.9999123 0 0 0 16.414062 1.0214844 A 4.9999123 4.9999123 0 0 0 16 1 z M 25.5 5.5 A 1.9999649 1.9999649 0 0 0 24.677734 5.6796875 A 1.9998259 1.9999649 0 0 0 24.667969 5.6855469 A 1.9999649 1.9999649 0 0 0 24.507812 5.7675781 A 1.9998259 1.9999649 0 0 0 24.492188 5.7773438 A 1.9999649 1.9999649 0 0 0 24.351562 5.8671875 A 1.9998259 1.9999649 0 0 0 24.320312 5.8886719 A 1.9999649 1.9999649 0 0 0 24.179688 6 A 1.9998259 1.9999649 0 0 0 24.171875 6.0078125 A 1.9999649 1.9999649 0 0 0 24.037109 6.140625 A 1.9998259 1.9999649 0 0 0 24.029297 6.1503906 A 1.9999649 1.9999649 0 0 0 23.925781 6.2714844 A 1.9998259 1.9999649 0 0 0 23.886719 6.3222656 A 1.9999649 1.9999649 0 0 0 23.808594 6.4375 A 1.9998259 1.9999649 0 0 0 23.779297 6.484375 A 1.9999649 1.9999649 0 0 0 23.712891 6.6074219 A 1.9998259 1.9999649 0 0 0 23.681641 6.671875 A 1.9999649 1.9999649 0 0 0 23.636719 6.7773438 A 1.9998259 1.9999649 0 0 0 23.605469 6.8671875 A 1.9999649 1.9999649 0 0 0 23.576172 6.9648438 A 1.9998259 1.9999649 0 0 0 23.554688 7.046875 A 1.9999649 1.9999649 0 0 0 23.527344 7.1777344 A 1.9998259 1.9999649 0 0 0 23.517578 7.2441406 A 1.9999649 1.9999649 0 0 0 23.507812 7.3574219 A 1.9998259 1.9999649 0 0 0 23.5 7.5 A 1.9999649 1.9999649 0 0 0 23.509766 7.6816406 A 1.9998259 1.9999649 0 0 0 23.521484 7.7773438 A 1.9999649 1.9999649 0 0 0 23.529297 7.8398438 L 22.746094 7.0585938 L 17.806641 12 L 13.054688 12 L 7.1796875 8.6074219 L 6.8339844 9.2070312 A 1.9999649 1.9999649 0 0 0 5 8 A 1.9999649 1.9999649 0 0 0 4.1777344 8.1796875 A 1.9999649 1.9999649 0 0 0 4.1601562 8.1894531 A 1.9999649 1.9999649 0 0 0 4.0175781 8.2617188 A 1.9999649 1.9999649 0 0 0 3.984375 8.28125 A 1.9999649 1.9999649 0 0 0 3.8515625 8.3671875 A 1.9999649 1.9999649 0 0 0 3.8203125 8.3886719 A 1.9999649 1.9999649 0 0 0 3.6894531 8.4921875 A 1.9999649 1.9999649 0 0 0 3.6621094 8.5175781 A 1.9999649 1.9999649 0 0 0 3.5488281 8.6289062 A 1.9999649 1.9999649 0 0 0 3.5214844 8.6601562 A 1.9999649 1.9999649 0 0 0 3.4257812 8.7714844 A 1.9999649 1.9999649 0 0 0 3.3867188 8.8222656 A 1.9999649 1.9999649 0 0 0 3.3085938 8.9375 A 1.9999649 1.9999649 0 0 0 3.28125 8.9804688 A 1.9999649 1.9999649 0 0 0 3.1992188 9.1347656 A 1.9999649 1.9999649 0 0 0 3.1953125 9.1425781 A 1.9999649 1.9999649 0 0 0 3.1347656 9.2851562 A 1.9999649 1.9999649 0 0 0 3.1054688 9.3671875 A 1.9999649 1.9999649 0 0 0 3.0761719 9.4648438 A 1.9999649 1.9999649 0 0 0 3.0546875 9.546875 A 1.9999649 1.9999649 0 0 0 3.0273438 9.6777344 A 1.9999649 1.9999649 0 0 0 3.0175781 9.7441406 A 1.9999649 1.9999649 0 0 0 3.0078125 9.8574219 A 1.9999649 1.9999649 0 0 0 3 10 A 1.9999649 1.9999649 0 0 0 3.0078125 10.158203 A 1.9999649 1.9999649 0 0 0 3.0253906 10.298828 A 1.9999649 1.9999649 0 0 0 3.0332031 10.355469 A 1.9999649 1.9999649 0 0 0 3.0585938 10.472656 A 1.9999649 1.9999649 0 0 0 3.0839844 10.570312 A 1.9999649 1.9999649 0 0 0 3.1152344 10.662109 A 1.9999649 1.9999649 0 0 0 3.1464844 10.746094 A 1.9999649 1.9999649 0 0 0 3.1855469 10.835938 A 1.9999649 1.9999649 0 0 0 3.234375 10.9375 A 1.9999649 1.9999649 0 0 0 3.2753906 11.009766 A 1.9999649 1.9999649 0 0 0 3.3378906 11.111328 A 1.9999649 1.9999649 0 0 0 3.3789062 11.167969 A 1.9999649 1.9999649 0 0 0 3.4570312 11.271484 A 1.9999649 1.9999649 0 0 0 3.5 11.320312 A 1.9999649 1.9999649 0 0 0 3.5976562 11.425781 A 1.9999649 1.9999649 0 0 0 3.6464844 11.46875 A 1.9999649 1.9999649 0 0 0 3.7304688 11.544922 A 1.9999649 1.9999649 0 0 0 3.8320312 11.621094 A 1.9999649 1.9999649 0 0 0 3.8886719 11.662109 A 1.9999649 1.9999649 0 0 0 3.9804688 11.71875 A 1.9999649 1.9999649 0 0 0 4.0722656 11.769531 A 1.9999649 1.9999649 0 0 0 4.1738281 11.818359 A 1.9999649 1.9999649 0 0 0 4.234375 11.847656 A 1.9999649 1.9999649 0 0 0 4.3769531 11.898438 A 1.9999649 1.9999649 0 0 0 4.4238281 11.914062 A 1.9999649 1.9999649 0 0 0 4.5351562 11.943359 A 1.9999649 1.9999649 0 0 0 4.640625 11.966797 A 1.9999649 1.9999649 0 0 0 4.7246094 11.978516 A 1.9999649 1.9999649 0 0 0 4.8203125 11.992188 A 1.9999649 1.9999649 0 0 0 5 12 A 1.9999649 1.9999649 0 0 0 5.1796875 11.992188 A 1.9999649 1.9999649 0 0 0 5.2285156 11.986328 L 4.6796875 12.9375 L 11 16.585938 L 11 20.6875 L 7.6796875 26.4375 L 8.8867188 27.134766 A 2.9999474 2.9999474 0 0 0 8 27 A 2.9999474 2.9999474 0 0 0 5 30 L 5 31 L 11 31 L 11 30 A 2.9999474 2.9999474 0 0 0 10.023438 27.791016 L 12.009766 28.9375 L 16.009766 22.009766 L 15.992188 22 L 16.066406 22 L 15.994141 22.125 L 22.921875 26.125 L 23.861328 24.498047 A 2.9999474 2.9999474 0 0 0 25.230469 27.962891 L 26.095703 28.462891 L 29.095703 23.265625 L 28.230469 22.765625 A 2.9999474 2.9999474 0 0 0 24.544922 23.314453 L 25.421875 21.794922 L 21 19.242188 L 21 19 L 21 15.876953 L 26.28125 10.59375 L 25.160156 9.4707031 A 1.9998259 1.9999649 0 0 0 25.222656 9.4785156 A 1.9999649 1.9999649 0 0 0 25.318359 9.4902344 A 1.9998259 1.9999649 0 0 0 25.5 9.5 A 1.9999649 1.9999649 0 0 0 25.679688 9.4921875 A 1.9998259 1.9999649 0 0 0 25.775391 9.4785156 A 1.9999649 1.9999649 0 0 0 25.859375 9.4667969 A 1.9998259 1.9999649 0 0 0 25.958984 9.4433594 A 1.9999649 1.9999649 0 0 0 26.458984 9.2539062 A 1.9998259 1.9999649 0 0 0 26.484375 9.2382812 A 1.9999649 1.9999649 0 0 0 26.611328 9.1621094 A 1.9998259 1.9999649 0 0 0 26.677734 9.1132812 A 1.9999649 1.9999649 0 0 0 26.767578 9.0429688 A 1.9998259 1.9999649 0 0 0 26.818359 9 A 1.9999649 1.9999649 0 0 0 26.933594 8.8925781 A 1.9998259 1.9999649 0 0 0 26.945312 8.8789062 A 1.9999649 1.9999649 0 0 0 27.181641 8.5800781 A 1.9998259 1.9999649 0 0 0 27.205078 8.5390625 A 1.9999649 1.9999649 0 0 0 27.271484 8.4238281 A 1.9998259 1.9999649 0 0 0 27.322266 8.3203125 A 1.9999649 1.9999649 0 0 0 27.5 7.5 A 1.9999649 1.9999649 0 0 0 25.5 5.5 z " style="opacity:1;fill:none;fill-opacity:1;fill-rule:nonzero;stroke:black;stroke-width:2.00000006;stroke-linecap:butt;stroke-linejoin:miter;stroke-miterlimit:4;stroke-dasharray:none;stroke-dashoffset:0;stroke-opacity:1" />
        <circle r="5" cy="7" cx="29" id="circle4793" style="opacity:1;fill:#fca;fill-opacity:1;fill-rule:nonzero;stroke:none;stroke-width:2;stroke-linecap:round;stroke-linejoin:round;stroke-miterlimit:4;stroke-dasharray:none;stroke-dashoffset:0;stroke-opacity:1" />
        <circle r="2" cy="11" cx="18" id="circle4795" style="opacity:1;fill:#fca;fill-opacity:1;fill-rule:nonzero;stroke:none;stroke-width:2;stroke-linecap:round;stroke-linejoin:round;stroke-miterlimit:4;stroke-dasharray:none;stroke-dashoffset:0;stroke-opacity:1" />
        <path inkscape:connector-curvature="0" id="circle4831" d="M 17.177734,9.179688 A 2,2 0 0 0 16,11 2,2 0 0 0 18,13 2,2 0 0 0 19.822266,11.820312 2,2 0 0 1 19,12 2,2 0 0 1 17,10 2,2 0 0 1 17.177734,9.179688 Z" style="opacity:1;fill:red;fill-opacity:0.25098039;fill-rule:nonzero;stroke:none;stroke-width:2;stroke-linecap:round;stroke-linejoin:round;stroke-miterlimit:4;stroke-dasharray:none;stroke-dashoffset:0;stroke-opacity:1" />
        <circle style="opacity:1;fill:#fca;fill-opacity:1;fill-rule:nonzero;stroke:none;stroke-width:2;stroke-linecap:round;stroke-linejoin:round;stroke-miterlimit:4;stroke-dasharray:none;stroke-dashoffset:0;stroke-opacity:1" id="use4797" cx="38.5" cy="8.5" r="2" />
        <use height="100%" width="100%" transform="matrix(0.99993051,0,0,1,20.501112,-2.5)" id="use4836" xlink:href="#circle4831" y="0" x="0" />
        <g transform="translate(14,0)" id="g4817">
          <path style="opacity:1;fill:navy;fill-opacity:1;fill-rule:nonzero;stroke:none;stroke-width:2;stroke-linecap:round;stroke-linejoin:round;stroke-miterlimit:4;stroke-dasharray:none;stroke-dashoffset:0;stroke-opacity:1" id="path4819" sodipodi:type="arc" sodipodi:cx="7" sodipodi:cy="31" sodipodi:rx="3" sodipodi:ry="3" sodipodi:start="3.1415927" sodipodi:end="0" d="M 4,31 A 3,3 0 0 1 7.0000001,28 3,3 0 0 1 10,31" sodipodi:open="true" />
          <rect style="opacity:1;fill:white;fill-opacity:1;fill-rule:nonzero;stroke:none;stroke-width:2;stroke-linecap:round;stroke-linejoin:round;stroke-miterlimit:4;stroke-dasharray:none;stroke-dashoffset:0;stroke-opacity:1" id="rect4821" width="6" height="1" x="4" y="31" />
        </g>
        <g id="use4823" transform="matrix(0.5,-0.8660254,0.8660254,0.5,9.3836448,16.926584)">
          <path sodipodi:open="true" d="M 4,31 A 3,3 0 0 1 7.0000001,28 3,3 0 0 1 10,31" sodipodi:end="0" sodipodi:start="3.1415927" sodipodi:ry="3" sodipodi:rx="3" sodipodi:cy="31" sodipodi:cx="7" sodipodi:type="arc" id="path4870" style="opacity:1;fill:navy;fill-opacity:1;fill-rule:nonzero;stroke:none;stroke-width:2;stroke-linecap:round;stroke-linejoin:round;stroke-miterlimit:4;stroke-dasharray:none;stroke-dashoffset:0;stroke-opacity:1" />
          <rect y="31" x="4" height="1" width="6" id="rect4872" style="opacity:1;fill:white;fill-opacity:1;fill-rule:nonzero;stroke:none;stroke-width:2;stroke-linecap:round;stroke-linejoin:round;stroke-miterlimit:4;stroke-dasharray:none;stroke-dashoffset:0;stroke-opacity:1" />
        </g>
        <path inkscape:connector-curvature="0" id="path4801" d="M 35.746094,8.0585938 30.806641,13 l -4.751953,0 -5.875,-3.3925781 -2.5,4.3300781 L 24,17.585938 l 0,4.101562 -3.320312,5.75 4.330078,2.5 4,-6.927734 -0.01758,-0.0098 0.07422,0 -0.07227,0.125 6.927734,4 2.5,-4.330078 L 34,20.242188 34,16.876953 39.28125,11.59375 35.746094,8.0585938 Z" style="opacity:1;fill:aqua;fill-opacity:1;fill-rule:nonzero;stroke:none;stroke-width:2;stroke-linecap:round;stroke-linejoin:round;stroke-miterlimit:4;stroke-dasharray:none;stroke-dashoffset:0;stroke-opacity:1" />
        <path d="m 31.5,9.5 a 1.5,1.5 0 0 1 -0.75,1.299038 1.5,1.5 0 0 1 -1.5,0 A 1.5,1.5 0 0 1 28.5,9.4999999 L 30,9.5 Z" sodipodi:end="3.1415927" sodipodi:start="0" sodipodi:ry="1.5" sodipodi:rx="1.5" sodipodi:cy="9.5" sodipodi:cx="30" sodipodi:type="arc" id="path4807" style="opacity:1;fill:red;fill-opacity:1;fill-rule:nonzero;stroke:none;stroke-width:2;stroke-linecap:round;stroke-linejoin:round;stroke-miterlimit:4;stroke-dasharray:none;stroke-dashoffset:0;stroke-opacity:1" />
        <path d="M 30.732051,18 A 2,2 0 0 1 28.482362,18.931852 2,2 0 0 1 27,17 2,2 0 0 1 28.482362,15.068148 2,2 0 0 1 30.732051,16 L 29,17 Z" sodipodi:end="5.7595865" sodipodi:start="0.52359878" sodipodi:ry="2" sodipodi:rx="2" sodipodi:cy="17" sodipodi:cx="29" sodipodi:type="arc" id="path4809" style="opacity:1;fill:red;fill-opacity:1;fill-rule:nonzero;stroke:none;stroke-width:2;stroke-linecap:round;stroke-linejoin:round;stroke-miterlimit:4;stroke-dasharray:none;stroke-dashoffset:0;stroke-opacity:1" />
        <path inkscape:connector-curvature="0" id="path4813" d="M 18.974609,11.695312 17.679688,13.9375 24,17.585938 l 0,4.101562 -3.320312,5.75 4.330078,2.5 4,-6.927734 -0.01758,-0.0098 0.07422,0 -0.07227,0.125 6.927734,4 1.003906,-1.738281 L 31,22 26,22 25,16 18.974609,11.695312 Z" style="opacity:1;fill:black;fill-opacity:0.25098039;fill-rule:nonzero;stroke:none;stroke-width:2;stroke-linecap:round;stroke-linejoin:round;stroke-miterlimit:4;stroke-dasharray:none;stroke-dashoffset:0;stroke-opacity:1" />
        <path inkscape:connector-curvature="0" id="path4815" d="M 39.164062,11.476562 33,15 l 1,5 0,-3.123047 5.28125,-5.283203 -0.117188,-0.117188 z" style="opacity:1;fill:black;fill-opacity:0.25098039;fill-rule:nonzero;stroke:none;stroke-width:2;stroke-linecap:round;stroke-linejoin:round;stroke-miterlimit:4;stroke-dasharray:none;stroke-dashoffset:0;stroke-opacity:1" />
        <path inkscape:connector-curvature="0" id="circle4825" d="M 26.005859,3.0019531 A 5,5 0 0 0 24,7 5,5 0 0 0 29,12 5,5 0 0 0 32.994141,9.998047 5,5 0 0 1 30,11 5,5 0 0 1 25,6 5,5 0 0 1 26.005859,3.0019531 Z" style="opacity:1;fill:red;fill-opacity:0.25098039;fill-rule:nonzero;stroke:none;stroke-width:2;stroke-linecap:round;stroke-linejoin:round;stroke-miterlimit:4;stroke-dasharray:none;stroke-dashoffset:0;stroke-opacity:1" />
        <path inkscape:connector-curvature="0" id="path4799" d="m 29,2 a 5,5 0 0 0 -5,5 5,5 0 0 0 0.314453,1.7382812 L 25,6 l 1,1 1,-3 1,1 1,-1 1,1 1,-1 1,2 0,-2 2,3 A 5,5 0 0 0 29,2 Z" style="opacity:1;fill:#803300;fill-opacity:1;fill-rule:nonzero;stroke:none;stroke-width:2;stroke-linecap:round;stroke-linejoin:round;stroke-miterlimit:4;stroke-dasharray:none;stroke-dashoffset:0;stroke-opacity:1" />
        <circle style="opacity:1;fill:white;fill-opacity:1;fill-rule:nonzero;stroke:none;stroke-width:2.00003505;stroke-linecap:butt;stroke-linejoin:miter;stroke-miterlimit:4;stroke-dasharray:none;stroke-dashoffset:0;stroke-opacity:1" id="path7023" cx="29.000227" cy="15.999719" r="0.50000876" />
        <circle style="opacity:1;fill:black;fill-opacity:1;fill-rule:nonzero;stroke:none;stroke-width:2;stroke-linecap:butt;stroke-linejoin:miter;stroke-miterlimit:4;stroke-dasharray:none;stroke-dashoffset:0;stroke-opacity:1" id="path7027" cx="29.000227" cy="15.999719" r="0.25000438" />
        <g id="g7244">
          <circle r="1" cy="7" cx="28" id="circle4805" style="opacity:1;fill:white;fill-opacity:1;fill-rule:nonzero;stroke:none;stroke-width:2;stroke-linecap:round;stroke-linejoin:round;stroke-miterlimit:4;stroke-dasharray:none;stroke-dashoffset:0;stroke-opacity:1" />
          <circle r="0.50000876" cy="6.9995618" cx="28.00021" id="path7242" style="opacity:1;fill:black;fill-opacity:1;fill-rule:nonzero;stroke:none;stroke-width:2;stroke-linecap:butt;stroke-linejoin:miter;stroke-miterlimit:4;stroke-dasharray:none;stroke-dashoffset:0;stroke-opacity:1" />
        </g>
        <use x="0" y="0" xlink:href="#g7244" id="use7248" transform="translate(4.0000702,0)" width="100%" height="100%" />
      </g>
    </g>
  </g>
</svg>
