<?xml version="1.0" encoding="UTF-8" standalone="no"?>
<!-- Created with Inkscape (http://www.inkscape.org/) -->
<svg
   xmlns:dc="http://purl.org/dc/elements/1.1/"
   xmlns:cc="http://creativecommons.org/ns#"
   xmlns:rdf="http://www.w3.org/1999/02/22-rdf-syntax-ns#"
   xmlns:svg="http://www.w3.org/2000/svg"
   xmlns="http://www.w3.org/2000/svg"
   xmlns:sodipodi="http://sodipodi.sourceforge.net/DTD/sodipodi-0.dtd"
   xmlns:inkscape="http://www.inkscape.org/namespaces/inkscape"
   width="32px"
   height="32px"
   id="svg3505"
   sodipodi:version="0.32"
   inkscape:version="0.46"
   sodipodi:docname="sand-01.svg"
   inkscape:output_extension="org.inkscape.output.svg.inkscape">
  <defs
     id="defs3507">
    <inkscape:perspective
       sodipodi:type="inkscape:persp3d"
       inkscape:vp_x="0 : 16 : 1"
       inkscape:vp_y="0 : 1000 : 0"
       inkscape:vp_z="32 : 16 : 1"
       inkscape:persp3d-origin="16 : 10.666667 : 1"
       id="perspective3513" />
    <inkscape:perspective
       id="perspective4690"
       inkscape:persp3d-origin="372.04724 : 350.78739 : 1"
       inkscape:vp_z="744.09448 : 526.18109 : 1"
       inkscape:vp_y="0 : 1000 : 0"
       inkscape:vp_x="0 : 526.18109 : 1"
       sodipodi:type="inkscape:persp3d" />
  </defs>
  <sodipodi:namedview
     id="base"
     pagecolor="#ffffff"
     bordercolor="#666666"
     borderopacity="1.0"
     inkscape:pageopacity="0.0"
     inkscape:pageshadow="2"
     inkscape:zoom="4"
     inkscape:cx="16"
     inkscape:cy="1.1623495"
     inkscape:current-layer="layer1"
     showgrid="true"
     inkscape:grid-bbox="true"
     inkscape:document-units="px"
     objecttolerance="4"
     gridtolerance="4"
     guidetolerance="4"
     inkscape:window-width="1280"
     inkscape:window-height="713"
     inkscape:window-x="0"
     inkscape:window-y="37"
     inkscape:object-paths="true"
     inkscape:object-nodes="true"
     inkscape:snap-bbox="true"
     inkscape:snap-guide="true">
    <inkscape:grid
       type="xygrid"
       id="grid3515"
       units="px"
       visible="true"
       enabled="true"
       spacingx="1px"
       spacingy="1px" />
  </sodipodi:namedview>
  <metadata
     id="metadata3510">
    <rdf:RDF>
      <cc:Work
         rdf:about="">
        <dc:format>image/svg+xml</dc:format>
        <dc:type
           rdf:resource="http://purl.org/dc/dcmitype/StillImage" />
        <dc:title>Vorlage f端r 32x32-Pixel-Icons f端r McMinos</dc:title>
        <dc:date>2010-04-05</dc:date>
        <dc:creator>
          <cc:Agent>
            <dc:title>Andreas Neudecker &lt;zapyon@gmx.net&gt;</dc:title>
          </cc:Agent>
        </dc:creator>
        <dc:rights>
          <cc:Agent>
            <dc:title>Copyright (C) 2010 by Andreas Neudecker</dc:title>
          </cc:Agent>
        </dc:rights>
        <dc:publisher>
          <cc:Agent>
            <dc:title>Andreas Neudecker</dc:title>
          </cc:Agent>
        </dc:publisher>
        <dc:identifier>vorlage-32x32-mcminos</dc:identifier>
        <dc:description>Vorlage f端r 32x32-Pixel-Icons f端r McMinos. Metadaten jeweils entsprechend anpassen!</dc:description>
      </cc:Work>
    </rdf:RDF>
  </metadata>
  <g
     id="layer1"
     inkscape:label="Layer 1"
     inkscape:groupmode="layer">
    <g
       id="g6723">
      <path
         transform="matrix(1.2138989,0,0,1.3332939,33.930461,-9.3328207)"
         sodipodi:end="6.2831853"
         sodipodi:start="3.1415927"
         d="M 1.704918,14.5 A 1.6475409,1.5 0 0 1 4.9999999,14.5 L 3.352459,14.5 z"
         sodipodi:ry="1.5"
         sodipodi:rx="1.6475409"
         sodipodi:cy="14.5"
         sodipodi:cx="3.352459"
         id="path6672"
         style="opacity:1;fill:#c2b882;fill-opacity:1;fill-rule:nonzero;stroke:none;stroke-width:2;stroke-linecap:round;stroke-linejoin:miter;stroke-miterlimit:4;stroke-dasharray:none;stroke-dashoffset:0;stroke-opacity:1"
         sodipodi:type="arc" />
      <path
         sodipodi:type="arc"
         style="opacity:1;fill:#c2b882;fill-opacity:1;fill-rule:nonzero;stroke:none;stroke-width:2;stroke-linecap:round;stroke-linejoin:miter;stroke-miterlimit:4;stroke-dasharray:none;stroke-dashoffset:0;stroke-opacity:1"
         id="path6674"
         sodipodi:cx="3.352459"
         sodipodi:cy="14.5"
         sodipodi:rx="1.6475409"
         sodipodi:ry="1.5"
         d="M 4.9999999,14.5 A 1.6475409,1.5 0 1 1 1.704918,14.5 L 3.352459,14.5 z"
         sodipodi:start="0"
         sodipodi:end="3.1415927"
         transform="matrix(1.2138946,0,0,0.3333333,33.930527,5.1666081)" />
    </g>
    <g
       id="g6727">
      <rect
         y="0"
         x="0"
         height="32"
         width="32"
         id="rect6670"
         style="opacity:1;fill:#f0e68c;fill-opacity:1;fill-rule:nonzero;stroke:none;stroke-width:2;stroke-linecap:round;stroke-linejoin:miter;stroke-miterlimit:4;stroke-dasharray:none;stroke-dashoffset:0;stroke-opacity:1" />
      <path
         style="opacity:1;fill:#ffe300;fill-opacity:1;fill-rule:nonzero;stroke:none;stroke-width:2;stroke-linecap:round;stroke-linejoin:miter;stroke-miterlimit:4;stroke-dasharray:none;stroke-dashoffset:0;stroke-opacity:1"
         d="M 11,26.75 C 10.448015,26.75 10.000001,27.198016 10,27.75 C 10,27.888 10.448017,28 11,28 C 11.551984,28 12,27.888 12,27.75 C 12,27.198016 11.551985,26.75 11,26.75 z"
         id="path6707" />
      <path
         id="path6676"
         d="M 6,9 C 4.896029,8.9999999 4.000002,9.8960325 4,11 C 4,11.276 4.896034,11.5 6,11.5 C 7.103967,11.5 8,11.276 8,11 C 8,9.8960327 7.103971,9.0000001 6,9 z"
         style="opacity:1;fill:#c2b882;fill-opacity:1;fill-rule:nonzero;stroke:none;stroke-width:2;stroke-linecap:round;stroke-linejoin:miter;stroke-miterlimit:4;stroke-dasharray:none;stroke-dashoffset:0;stroke-opacity:1" />
      <path
         id="path6715"
         d="M 20,17.606557 C 19.448015,17.606557 19.000001,18.054573 19,18.606557 C 19,18.744557 19.448017,18.856557 20,18.856557 C 20.551984,18.856557 21,18.744557 21,18.606557 C 21,18.054573 20.551985,17.606557 20,17.606557 z"
         style="opacity:1;fill:#ffffed;fill-opacity:1;fill-rule:nonzero;stroke:none;stroke-width:2;stroke-linecap:round;stroke-linejoin:miter;stroke-miterlimit:4;stroke-dasharray:none;stroke-dashoffset:0;stroke-opacity:1" />
      <path
         style="opacity:1;fill:#c2b882;fill-opacity:1;fill-rule:nonzero;stroke:none;stroke-width:2;stroke-linecap:round;stroke-linejoin:miter;stroke-miterlimit:4;stroke-dasharray:none;stroke-dashoffset:0;stroke-opacity:1"
         d="M 18,16.5 C 16.896029,16.5 16.000002,17.396033 16,18.5 C 16,18.776 16.896034,19 18,19 C 19.103967,19 20,18.776 20,18.5 C 20,17.396033 19.103971,16.5 18,16.5 z"
         id="path6681" />
      <path
         id="path6685"
         d="M 5.639344,18 C 4.73445,18 4.000002,18.734453 4,19.639344 C 4,19.865573 4.734454,20.04918 5.639344,20.04918 C 6.544235,20.04918 7.278688,19.865573 7.278688,19.639344 C 7.278688,18.734453 6.544238,18 5.639344,18 z"
         style="opacity:1;fill:#d0b837;fill-opacity:1;fill-rule:nonzero;stroke:none;stroke-width:2;stroke-linecap:round;stroke-linejoin:miter;stroke-miterlimit:4;stroke-dasharray:none;stroke-dashoffset:0;stroke-opacity:1" />
      <path
         style="opacity:1;fill:#d0b837;fill-opacity:1;fill-rule:nonzero;stroke:none;stroke-width:2;stroke-linecap:round;stroke-linejoin:miter;stroke-miterlimit:4;stroke-dasharray:none;stroke-dashoffset:0;stroke-opacity:1"
         d="M 25.639344,5.95082 C 24.73445,5.95082 24.000002,6.685273 24,7.590164 C 24,7.816393 24.734454,8 25.639344,8 C 26.544235,8 27.278688,7.816393 27.278688,7.590164 C 27.278688,6.685273 26.544238,5.95082 25.639344,5.95082 z"
         id="path6687" />
      <path
         style="opacity:1;fill:#ffe300;fill-opacity:1;fill-rule:nonzero;stroke:none;stroke-width:2;stroke-linecap:round;stroke-linejoin:miter;stroke-miterlimit:4;stroke-dasharray:none;stroke-dashoffset:0;stroke-opacity:1"
         d="M 20.278689,24.75 C 19.726704,24.75 19.27869,25.198016 19.278689,25.75 C 19.278689,25.888 19.726706,26 20.278689,26 C 20.830673,26 21.278689,25.888 21.278689,25.75 C 21.278689,25.198016 20.830674,24.75 20.278689,24.75 z"
         id="path6709" />
      <path
         id="path6689"
         d="M 21.639344,24 C 20.73445,24 20.000002,24.734453 20,25.639344 C 20,25.865573 20.734454,26.04918 21.639344,26.04918 C 22.544235,26.04918 23.278688,25.865573 23.278688,25.639344 C 23.278688,24.734453 22.544238,24 21.639344,24 z"
         style="opacity:1;fill:#d0b837;fill-opacity:1;fill-rule:nonzero;stroke:none;stroke-width:2;stroke-linecap:round;stroke-linejoin:miter;stroke-miterlimit:4;stroke-dasharray:none;stroke-dashoffset:0;stroke-opacity:1" />
      <path
         style="opacity:1;fill:#876c00;fill-opacity:1;fill-rule:nonzero;stroke:none;stroke-width:2;stroke-linecap:round;stroke-linejoin:miter;stroke-miterlimit:4;stroke-dasharray:none;stroke-dashoffset:0;stroke-opacity:1"
         d="M 13,7 C 12.448015,7 12.000001,7.448016 12,8 C 12,8.138 12.448017,8.25 13,8.25 C 13.551984,8.25 14,8.138 14,8 C 14,7.448016 13.551985,7 13,7 z"
         id="path6691" />
      <path
         id="path6693"
         d="M 30,30 C 29.448015,30 29.000001,30.448016 29,31 C 29,31.138 29.448017,31.25 30,31.25 C 30.551984,31.25 31,31.138 31,31 C 31,30.448016 30.551985,30 30,30 z"
         style="opacity:1;fill:#876c00;fill-opacity:1;fill-rule:nonzero;stroke:none;stroke-width:2;stroke-linecap:round;stroke-linejoin:miter;stroke-miterlimit:4;stroke-dasharray:none;stroke-dashoffset:0;stroke-opacity:1" />
      <path
         style="opacity:1;fill:#876c00;fill-opacity:1;fill-rule:nonzero;stroke:none;stroke-width:2;stroke-linecap:round;stroke-linejoin:miter;stroke-miterlimit:4;stroke-dasharray:none;stroke-dashoffset:0;stroke-opacity:1"
         d="M 24,15.377049 C 23.448015,15.377049 23.000001,15.825065 23,16.377049 C 23,16.515049 23.448017,16.627049 24,16.627049 C 24.551984,16.627049 25,16.515049 25,16.377049 C 25,15.825065 24.551985,15.377049 24,15.377049 z"
         id="path6695" />
      <path
         style="opacity:1;fill:#876c00;fill-opacity:1;fill-rule:nonzero;stroke:none;stroke-width:2;stroke-linecap:round;stroke-linejoin:miter;stroke-miterlimit:4;stroke-dasharray:none;stroke-dashoffset:0;stroke-opacity:1"
         d="M 10,27 C 9.448015,27 9.000001,27.448016 9,28 C 9,28.138 9.448017,28.25 10,28.25 C 10.551984,28.25 11,28.138 11,28 C 11,27.448016 10.551985,27 10,27 z"
         id="path6697" />
      <path
         id="path6683"
         d="M 8,26.5 C 6.896029,26.5 6.000002,27.396033 6,28.5 C 6,28.776 6.896034,29 8,29 C 9.103967,29 10,28.776 10,28.5 C 10,27.396033 9.103971,26.5 8,26.5 z"
         style="opacity:1;fill:#c2b882;fill-opacity:1;fill-rule:nonzero;stroke:none;stroke-width:2;stroke-linecap:round;stroke-linejoin:miter;stroke-miterlimit:4;stroke-dasharray:none;stroke-dashoffset:0;stroke-opacity:1" />
      <path
         style="opacity:1;fill:#d0b837;fill-opacity:1;fill-rule:nonzero;stroke:none;stroke-width:2;stroke-linecap:round;stroke-linejoin:miter;stroke-miterlimit:4;stroke-dasharray:none;stroke-dashoffset:0;stroke-opacity:1"
         d="M 16.055631,18.029937 C 15.150737,18.029937 14.416289,18.76439 14.416287,19.669281 C 14.416287,19.89551 15.150741,20.079117 16.055631,20.079117 C 16.960522,20.079117 17.694975,19.89551 17.694975,19.669281 C 17.694975,18.76439 16.960525,18.029937 16.055631,18.029937 z"
         id="path6699" />
      <path
         id="path6701"
         d="M 27,6.75 C 26.448015,6.75 26.000001,7.198016 26,7.75 C 26,7.888 26.448017,8 27,8 C 27.551984,8 28,7.888 28,7.75 C 28,7.198016 27.551985,6.75 27,6.75 z"
         style="opacity:1;fill:#876c00;fill-opacity:1;fill-rule:nonzero;stroke:none;stroke-width:2;stroke-linecap:round;stroke-linejoin:miter;stroke-miterlimit:4;stroke-dasharray:none;stroke-dashoffset:0;stroke-opacity:1" />
      <path
         style="opacity:1;fill:#c2b882;fill-opacity:1;fill-rule:nonzero;stroke:none;stroke-width:2;stroke-linecap:round;stroke-linejoin:miter;stroke-miterlimit:4;stroke-dasharray:none;stroke-dashoffset:0;stroke-opacity:1"
         d="M 10,10 C 8.896029,9.9999999 8.000002,10.896033 8,12 C 8,12.276 8.896034,12.5 10,12.5 C 11.103967,12.5 12,12.276 12,12 C 12,10.896033 11.103971,10 10,10 z"
         id="path6703" />
      <path
         id="path6705"
         d="M 25,16 C 24.448015,16 24.000001,16.448016 24,17 C 24,17.138 24.448017,17.25 25,17.25 C 25.551984,17.25 26,17.138 26,17 C 26,16.448016 25.551985,16 25,16 z"
         style="opacity:1;fill:#ffe300;fill-opacity:1;fill-rule:nonzero;stroke:none;stroke-width:2;stroke-linecap:round;stroke-linejoin:miter;stroke-miterlimit:4;stroke-dasharray:none;stroke-dashoffset:0;stroke-opacity:1" />
      <path
         style="opacity:1;fill:#ffe300;fill-opacity:1;fill-rule:nonzero;stroke:none;stroke-width:2;stroke-linecap:round;stroke-linejoin:miter;stroke-miterlimit:4;stroke-dasharray:none;stroke-dashoffset:0;stroke-opacity:1"
         d="M 7,11 C 6.448015,11 6.000001,11.448016 6,12 C 6,12.138 6.448017,12.25 7,12.25 C 7.551984,12.25 8,12.138 8,12 C 8,11.448016 7.551985,11 7,11 z"
         id="path6711" />
      <path
         style="opacity:1;fill:#ffffed;fill-opacity:1;fill-rule:nonzero;stroke:none;stroke-width:2;stroke-linecap:round;stroke-linejoin:miter;stroke-miterlimit:4;stroke-dasharray:none;stroke-dashoffset:0;stroke-opacity:1"
         d="M 8,14 C 7.448015,14 7.000001,14.448016 7,15 C 7,15.138 7.448017,15.25 8,15.25 C 8.551984,15.25 9,15.138 9,15 C 9,14.448016 8.551985,14 8,14 z"
         id="path6713" />
      <path
         id="path6717"
         d="M 1,2 C 0.448015,2 1e-06,2.448016 0,3 C 0,3.138 0.448017,3.25 1,3.25 C 1.551984,3.25 2,3.138 2,3 C 2,2.448016 1.551985,2 1,2 z"
         style="opacity:1;fill:#ffffed;fill-opacity:1;fill-rule:nonzero;stroke:none;stroke-width:2;stroke-linecap:round;stroke-linejoin:miter;stroke-miterlimit:4;stroke-dasharray:none;stroke-dashoffset:0;stroke-opacity:1" />
      <path
         style="opacity:1;fill:#ffffed;fill-opacity:1;fill-rule:nonzero;stroke:none;stroke-width:2;stroke-linecap:round;stroke-linejoin:miter;stroke-miterlimit:4;stroke-dasharray:none;stroke-dashoffset:0;stroke-opacity:1"
         d="M 13.721311,30.75 C 13.169326,30.75 12.721312,31.198016 12.721311,31.75 C 12.721311,31.888 13.169328,32 13.721311,32 C 14.273295,32 14.721311,31.888 14.721311,31.75 C 14.721311,31.198016 14.273296,30.75 13.721311,30.75 z"
         id="path6719" />
      <path
         style="opacity:1;fill:#ffe300;fill-opacity:1;fill-rule:nonzero;stroke:none;stroke-width:2;stroke-linecap:round;stroke-linejoin:miter;stroke-miterlimit:4;stroke-dasharray:none;stroke-dashoffset:0;stroke-opacity:1"
         d="M 18,0 C 17.448015,0 17.000001,0.448016 17,1 C 17,1.138 17.448017,1.25 18,1.25 C 18.551984,1.25 19,1.138 19,1 C 19,0.448016 18.551985,0 18,0 z"
         id="path6721" />
    </g>
  </g>
</svg>
