<?xml version="1.0" encoding="UTF-8" standalone="no"?>
<!-- Created with Inkscape (http://www.inkscape.org/) -->

<svg xmlns:dc="http://purl.org/dc/elements/1.1/" xmlns:cc="http://creativecommons.org/ns#" xmlns:rdf="http://www.w3.org/1999/02/22-rdf-syntax-ns#" xmlns:svg="http://www.w3.org/2000/svg" xmlns="http://www.w3.org/2000/svg" xmlns:sodipodi="http://sodipodi.sourceforge.net/DTD/sodipodi-0.dtd" xmlns:inkscape="http://www.inkscape.org/namespaces/inkscape" width="32px" height="32px" id="svg3505" sodipodi:version="0.32" inkscape:version="0.91 r13725" sodipodi:docname="00.svg" inkscape:output_extension="org.inkscape.output.svg.inkscape" version="1.1">
  <defs id="defs3507">
    <inkscape:perspective sodipodi:type="inkscape:persp3d" inkscape:vp_x="0 : 16 : 1" inkscape:vp_y="0 : 1000 : 0" inkscape:vp_z="32 : 16 : 1" inkscape:persp3d-origin="16 : 10.666667 : 1" id="perspective3513" />
    <inkscape:perspective id="perspective4690" inkscape:persp3d-origin="372.04724 : 350.78739 : 1" inkscape:vp_z="744.09448 : 526.18109 : 1" inkscape:vp_y="0 : 1000 : 0" inkscape:vp_x="0 : 526.18109 : 1" sodipodi:type="inkscape:persp3d" />
    <inkscape:perspective id="perspective2564" inkscape:persp3d-origin="372.04724 : 350.78739 : 1" inkscape:vp_z="744.09448 : 526.18109 : 1" inkscape:vp_y="0 : 1000 : 0" inkscape:vp_x="0 : 526.18109 : 1" sodipodi:type="inkscape:persp3d" />
  </defs>
  <sodipodi:namedview id="base" pagecolor="#ffffff" bordercolor="#666666" borderopacity="1.0" inkscape:pageopacity="0.0" inkscape:pageshadow="2" inkscape:zoom="22.125" inkscape:cx="16" inkscape:cy="16" inkscape:current-layer="layer1" showgrid="true" inkscape:grid-bbox="true" inkscape:document-units="px" objecttolerance="4" gridtolerance="4" guidetolerance="4" inkscape:window-width="1600" inkscape:window-height="878" inkscape:window-x="0" inkscape:window-y="0" inkscape:object-paths="true" inkscape:object-nodes="true" inkscape:snap-bbox="true" inkscape:snap-guide="true" showguides="true" inkscape:guide-bbox="true" inkscape:window-maximized="1">
    <inkscape:grid type="xygrid" id="grid3515" units="px" visible="true" enabled="true" spacingx="1px" spacingy="1px" empspacing="4" />
    <sodipodi:guide orientation="-0.70710678,0.70710678" position="33.245902,33.245902" id="guide3622" />
    <sodipodi:guide orientation="0.70710678,0.70710678" position="0,32" id="guide3624" />
  </sodipodi:namedview>
  <metadata id="metadata3510">
    <rdf:RDF>
      <cc:Work rdf:about="">
        <dc:format>image/svg+xml</dc:format>
        <dc:type rdf:resource="http://purl.org/dc/dcmitype/StillImage" />
        <dc:title>Vorlage f端r 32x32-Pixel-Icons f端r McMinos</dc:title>
        <dc:date>2010-04-05</dc:date>
        <dc:creator>
          <cc:Agent>
            <dc:title>Andreas Neudecker &lt;zapyon@gmx.net&gt;</dc:title>
          </cc:Agent>
        </dc:creator>
        <dc:rights>
          <cc:Agent>
            <dc:title>Copyright (C) 2010 by Andreas Neudecker</dc:title>
          </cc:Agent>
        </dc:rights>
        <dc:publisher>
          <cc:Agent>
            <dc:title>Andreas Neudecker</dc:title>
          </cc:Agent>
        </dc:publisher>
        <dc:identifier>vorlage-32x32-mcminos</dc:identifier>
        <dc:description>Vorlage f端r 32x32-Pixel-Icons f端r McMinos. Metadaten jeweils entsprechend anpassen!</dc:description>
      </cc:Work>
    </rdf:RDF>
  </metadata>
  <g id="layer1" inkscape:label="Layer 1" inkscape:groupmode="layer">
    <g id="g12960">
      <rect y="0" x="0" height="32" width="32" id="rect12958" style="opacity:1;fill:none;fill-opacity:0.50364966;fill-rule:nonzero;stroke:none;stroke-width:2;stroke-linecap:butt;stroke-linejoin:miter;stroke-miterlimit:4;stroke-dasharray:none;stroke-dashoffset:0;stroke-opacity:1" />
      <path id="path3635" d="M 6.4589844 3 A 4 4 0 0 1 7 5 A 4 4 0 0 1 6.9863281 5.2617188 A 8 8 0 0 1 9 5 A 8 8 0 0 1 12.324219 5.7304688 A 12 12 0 0 1 16.236328 3 L 6.4589844 3 z M 25.759766 3 A 12 12 0 0 1 32 9.2167969 L 32 3 L 29 3 L 25.759766 3 z M 0 7.6367188 L 0 15.240234 A 12 12 0 0 1 1.0117188 13.359375 A 8 8 0 0 1 1 13 A 8 8 0 0 1 2.1386719 8.9023438 A 4 4 0 0 1 0 7.6367188 z M 32 18.738281 A 12 12 0 0 1 28.816406 23.085938 A 4 4 0 0 1 32 27 L 32 18.738281 z M 32 27 A 4 4 0 0 1 31.458984 29 L 32 29 L 32 27 z M 0 24.783203 L 0 29 L 3 29 L 3.0859375 29 A 12 12 0 0 1 0 24.783203 z M 24.224609 28.310547 A 8 8 0 0 1 21 29 L 24.542969 29 A 4 4 0 0 1 24.224609 28.310547 z M 21 29 A 8 8 0 0 1 19.167969 28.777344 A 12 12 0 0 1 18.916016 29 L 21 29 z " style="fill:black;fill-opacity:1;fill-rule:nonzero;stroke:none;stroke-width:2;stroke-linecap:round;stroke-linejoin:miter;stroke-miterlimit:4;stroke-dashoffset:0;stroke-opacity:1" />
      <path id="path3648" d="M 6.8671875 4 A 4 4 0 0 1 7 5 A 4 4 0 0 1 6.9863281 5.2617188 A 8 8 0 0 1 9 5 A 8 8 0 0 1 12.324219 5.7304688 A 12 12 0 0 1 14.402344 4 L 6.8671875 4 z M 27.621094 4 A 12 12 0 0 1 32 9.2167969 L 32 4 L 27.621094 4 z M 0 7.6367188 L 0 15.240234 A 12 12 0 0 1 1.0117188 13.359375 A 8 8 0 0 1 1 13 A 8 8 0 0 1 2.1386719 8.9023438 A 4 4 0 0 1 0 7.6367188 z " style="fill:aqua;fill-opacity:1;fill-rule:nonzero;stroke:none;stroke-width:2;stroke-linecap:round;stroke-linejoin:miter;stroke-miterlimit:4;stroke-dasharray:none;stroke-dashoffset:0;stroke-opacity:1" />
      <path id="path3644" d="M 32 18.738281 A 12 12 0 0 1 28.816406 23.085938 A 4 4 0 0 1 32 27 L 32 18.738281 z M 32 27 A 4 4 0 0 1 31.869141 28 L 32 28 L 32 27 z M 0 24.783203 L 0 28 L 2.0722656 28 A 12 12 0 0 1 0 24.783203 z " style="fill:blue;fill-opacity:1;fill-rule:nonzero;stroke:none;stroke-width:2;stroke-linecap:round;stroke-linejoin:miter;stroke-miterlimit:4;stroke-dasharray:none;stroke-dashoffset:0;stroke-opacity:1" />
      <path id="path3626" d="M 7 5 A 4 4 0 0 1 6.9863281 5.2617188 A 8 8 0 0 1 9 5 L 7 5 z M 9 5 A 8 8 0 0 1 12.324219 5.7304688 A 12 12 0 0 1 13.095703 5 L 9 5 z M 28.914062 5 A 12 12 0 0 1 29.927734 6 L 32 6 L 32 5 L 28.914062 5 z M 30.734375 7 A 12 12 0 0 1 31.380859 8 L 32 8 L 32 7 L 30.734375 7 z M 0 7.6367188 L 0 8.03125 L 0.40039062 8.03125 A 4 4 0 0 1 0 7.6367188 z M 0 9 L 0 10 L 1.6015625 10 A 8 8 0 0 1 2.0859375 9 L 0 9 z M 31.894531 9 A 12 12 0 0 1 32 9.2167969 L 32 9 L 31.894531 9 z M 0 11 L 0 12 L 1.0683594 12 A 8 8 0 0 1 1.2617188 11 L 0 11 z M 0 13 L 0 14 L 0.63085938 14 A 12 12 0 0 1 1.0117188 13.359375 A 8 8 0 0 1 1 13 L 0 13 z " style="fill:#c3c3c3;fill-opacity:1;fill-rule:nonzero;stroke:none;stroke-width:2;stroke-linecap:round;stroke-linejoin:miter;stroke-miterlimit:4;stroke-dasharray:none;stroke-dashoffset:0;stroke-opacity:1" />
      <path id="path3638" d="M 32 18.738281 A 12 12 0 0 1 31.886719 19 L 32 19 L 32 18.738281 z M 31.365234 20 A 12 12 0 0 1 30.714844 21 L 32 21 L 32 20 L 31.365234 20 z M 29.910156 22 A 12 12 0 0 1 28.90625 23 L 32 23 L 32 22 L 29.910156 22 z M 30.636719 24 A 4 4 0 0 1 31.458984 25 L 32 25 L 32 24 L 30.636719 24 z M 0 24.783203 L 0 25 L 0.10546875 25 A 12 12 0 0 1 0 24.783203 z M 0 26 L 0 27 L 1.265625 27 A 12 12 0 0 1 0.61914062 26 L 0 26 z M 31.867188 26 A 4 4 0 0 1 32 27 L 32 26 L 31.867188 26 z " style="fill:#6b6b6b;fill-opacity:1;fill-rule:nonzero;stroke:none;stroke-width:2;stroke-linecap:round;stroke-linejoin:miter;stroke-miterlimit:4;stroke-dasharray:none;stroke-dashoffset:0;stroke-opacity:1" />
      <path id="rect3926" d="M 0 15 L 0 15.240234 A 12 12 0 0 1 0.11328125 15 L 0 15 z " style="fill:#0080ff;fill-opacity:1;fill-rule:nonzero;stroke:none;stroke-width:2;stroke-linecap:round;stroke-linejoin:miter;stroke-miterlimit:4;stroke-dasharray:none;stroke-dashoffset:0;stroke-opacity:1" />
    </g>
    <g id="g5562">
      <rect y="0" x="36" height="32" width="32" id="rect5558" style="opacity:1;fill:blue;fill-opacity:0.50196078;fill-rule:nonzero;stroke:none;stroke-width:2;stroke-linecap:butt;stroke-linejoin:miter;stroke-miterlimit:4;stroke-dasharray:none;stroke-dashoffset:0;stroke-opacity:1" />
      <rect style="opacity:1;fill:blue;fill-opacity:0.50196078;fill-rule:nonzero;stroke:none;stroke-width:2;stroke-linecap:butt;stroke-linejoin:miter;stroke-miterlimit:4;stroke-dasharray:none;stroke-dashoffset:0;stroke-opacity:1" id="rect5560" width="26" height="26" x="39" y="3" />
    </g>
    <g id="g5575">
      <path inkscape:connector-curvature="0" id="rect5566" d="m 39,0 0,3 26,0 0,-3 -26,0 z m 26,3 0,26 3,0 0,-26 -3,0 z m 0,26 -26,0 0,3 26,0 0,-3 z m -26,0 0,-26 -3,0 0,26 3,0 z" style="opacity:1;fill:yellow;fill-opacity:0.50196078;fill-rule:nonzero;stroke:none;stroke-width:2;stroke-linecap:butt;stroke-linejoin:miter;stroke-miterlimit:4;stroke-dasharray:none;stroke-dashoffset:0;stroke-opacity:1" />
    </g>
    <circle style="opacity:1;fill:red;fill-opacity:0.50196078;fill-rule:nonzero;stroke:none;stroke-width:2;stroke-linecap:butt;stroke-linejoin:miter;stroke-miterlimit:4;stroke-dasharray:none;stroke-dashoffset:0;stroke-opacity:1" id="path4749" cx="21.000002" cy="-57" r="8" transform="matrix(0,1,-1,0,0,0)" />
    <circle style="opacity:1;fill:red;fill-opacity:0.50196078;fill-rule:nonzero;stroke:none;stroke-width:2;stroke-linecap:butt;stroke-linejoin:miter;stroke-miterlimit:4;stroke-dasharray:none;stroke-dashoffset:0;stroke-opacity:1" id="path4751" cx="14.000001" cy="-57" r="12" transform="matrix(0,1,-1,0,0,0)" />
    <circle r="8" cy="-45" cx="13.000001" id="circle4753" style="opacity:1;fill:red;fill-opacity:0.50196078;fill-rule:nonzero;stroke:none;stroke-width:2;stroke-linecap:butt;stroke-linejoin:miter;stroke-miterlimit:4;stroke-dasharray:none;stroke-dashoffset:0;stroke-opacity:1" transform="matrix(0,1,-1,0,0,0)" />
    <circle r="4" cy="-64" cx="27.000002" id="circle4759" style="opacity:1;fill:red;fill-opacity:0.50196078;fill-rule:nonzero;stroke:none;stroke-width:2;stroke-linecap:butt;stroke-linejoin:miter;stroke-miterlimit:4;stroke-dasharray:none;stroke-dashoffset:0;stroke-opacity:1" transform="matrix(0,1,-1,0,0,0)" />
    <circle style="opacity:1;fill:red;fill-opacity:0.50196078;fill-rule:nonzero;stroke:none;stroke-width:2;stroke-linecap:butt;stroke-linejoin:miter;stroke-miterlimit:4;stroke-dasharray:none;stroke-dashoffset:0;stroke-opacity:1" id="circle4761" cx="23.000002" cy="-41" r="4" transform="matrix(0,1,-1,0,0,0)" />
    <circle style="opacity:1;fill:red;fill-opacity:0.50196078;fill-rule:nonzero;stroke:none;stroke-width:2;stroke-linecap:butt;stroke-linejoin:miter;stroke-miterlimit:4;stroke-dasharray:none;stroke-dashoffset:0;stroke-opacity:1" id="circle4765" cx="5.000001" cy="-39" r="4" transform="matrix(0,1,-1,0,0,0)" />
    <circle style="opacity:1;fill:red;fill-opacity:0.50196078;fill-rule:nonzero;stroke:none;stroke-width:2;stroke-linecap:butt;stroke-linejoin:miter;stroke-miterlimit:4;stroke-dasharray:none;stroke-dashoffset:0;stroke-opacity:1" id="circle4769" cx="7.0000029" cy="-55" r="4" transform="matrix(0,1,-1,0,0,0)" />
    <circle style="opacity:1;fill:red;fill-opacity:0.50196078;fill-rule:nonzero;stroke:none;stroke-width:2;stroke-linecap:butt;stroke-linejoin:miter;stroke-miterlimit:4;stroke-dasharray:none;stroke-dashoffset:0;stroke-opacity:1" id="circle4771" cx="23.000002" cy="-49" r="8" transform="matrix(0,1,-1,0,0,0)" />
    <circle transform="matrix(0,1,-1,0,0,0)" r="12" cy="-47" cx="20" id="circle12910" style="opacity:1;fill:red;fill-opacity:0.50196078;fill-rule:nonzero;stroke:none;stroke-width:2;stroke-linecap:butt;stroke-linejoin:miter;stroke-miterlimit:4;stroke-dasharray:none;stroke-dashoffset:0;stroke-opacity:1" />
    <path inkscape:connector-curvature="0" id="path12931" d="m -33,1 a 4,4 0 0 0 -4,4 4,4 0 0 0 3.138672,3.9023438 A 8,8 0 0 0 -35,13 8,8 0 0 0 -34.988281,13.359375 12,12 0 0 0 -37,20 12,12 0 0 0 -25,32 12,12 0 0 0 -16.832031,28.777344 8,8 0 0 0 -15,29 8,8 0 0 0 -11.775391,28.310547 4,4 0 0 0 -8,31 4,4 0 0 0 -4,27 4,4 0 0 0 -7.183594,23.085938 12,12 0 0 0 -3,14 12,12 0 0 0 -15,2 12,12 0 0 0 -23.675781,5.7304688 8,8 0 0 0 -27,5 8,8 0 0 0 -29.013672,5.2617188 4,4 0 0 0 -29,5 4,4 0 0 0 -33,1 Z" style="opacity:1;fill:red;fill-opacity:0.50196078;fill-rule:nonzero;stroke:none;stroke-width:2;stroke-linecap:butt;stroke-linejoin:miter;stroke-miterlimit:4;stroke-dasharray:none;stroke-dashoffset:0;stroke-opacity:1" />
  </g>
</svg>
