<?xml version="1.0" encoding="UTF-8" standalone="no"?>
<svg xmlns:dc="http://purl.org/dc/elements/1.1/" xmlns:cc="http://creativecommons.org/ns#" xmlns:rdf="http://www.w3.org/1999/02/22-rdf-syntax-ns#" xmlns:svg="http://www.w3.org/2000/svg" xmlns="http://www.w3.org/2000/svg" xmlns:sodipodi="http://sodipodi.sourceforge.net/DTD/sodipodi-0.dtd" xmlns:inkscape="http://www.inkscape.org/namespaces/inkscape" width="32" height="32" id="svg3505" version="1.1" viewBox="0 0 32 32" inkscape:version="0.91 r13725" sodipodi:docname="00.svg">
  <sodipodi:namedview pagecolor="#ffffff" bordercolor="#666666" borderopacity="1" objecttolerance="10" gridtolerance="10" guidetolerance="10" inkscape:pageopacity="0" inkscape:pageshadow="2" inkscape:window-width="1600" inkscape:window-height="878" id="namedview4249" showgrid="true" inkscape:zoom="22.15625" inkscape:cx="16" inkscape:cy="16" inkscape:window-x="0" inkscape:window-y="0" inkscape:window-maximized="1" inkscape:current-layer="g9668">
    <inkscape:grid type="xygrid" id="grid4791" />
  </sodipodi:namedview>
  <defs id="defs3507" />
  <metadata id="metadata3510">
    <rdf:RDF>
      <cc:Work rdf:about="">
        <dc:format>image/svg+xml</dc:format>
        <dc:type rdf:resource="http://purl.org/dc/dcmitype/StillImage" />
        <dc:title></dc:title>
        <dc:date>2015-09-03</dc:date>
        <dc:creator>
          <cc:Agent>
            <dc:title>Andreas Neudecker &lt;zapyon@gmx.net&gt;</dc:title>
          </cc:Agent>
        </dc:creator>
        <dc:rights>
          <cc:Agent>
            <dc:title>Copyright (C) 2010-2015 by Andreas Neudecker</dc:title>
          </cc:Agent>
        </dc:rights>
        <dc:publisher>
          <cc:Agent>
            <dc:title>Andreas Neudecker</dc:title>
          </cc:Agent>
        </dc:publisher>
        <dc:identifier>__empty__</dc:identifier>
        <dc:description>Template for McMinos SVG icons at a base size of 32x32 pixels.</dc:description>
      </cc:Work>
    </rdf:RDF>
  </metadata>
  <g id="layer1">
    <g id="g4881">
      <g id="g8280">
        <g id="g8678">
          <g id="g8738">
            <g id="g9210">
              <g id="g9668">
                <g id="g9968">
                  <path id="circle9509" d="M 12.498047 15 C 11.066898 15.0016 9.9482962 15.973966 9.4160156 17.255859 C 9.3052211 17.293239 9.2040552 17.348259 9.0976562 17.396484 C 9.0834543 17.390984 9.0691275 17.385739 9.0546875 17.380859 L 9.09375 17.398438 C 9.081995 17.403737 9.0702888 17.408593 9.0585938 17.414062 C 8.5729023 17.169082 8.0475462 17.001248 7.5019531 17 L 7.5 17 C 6.1702643 17.001296 5.1552328 17.873658 4.5664062 19.007812 C 4.5460239 19.007336 4.526256 19.00012 4.5058594 19 L 4.5 19 C 2.7500665 19 1.2981765 20.314589 1.0507812 22 L 31.949219 22 C 31.973425 21.835095 32 21.671219 32 21.5 L 32 21.496094 C 31.999729 21.435904 31.997541 21.374552 31.994141 21.314453 L 31.994141 21.298828 C 31.989341 21.228118 31.981706 21.156218 31.972656 21.085938 L 31.96875 21.056641 C 31.96485 21.023511 31.961851 20.990041 31.957031 20.957031 C 31.955831 20.948531 31.954525 20.940091 31.953125 20.931641 C 31.942225 20.868361 31.928422 20.806725 31.914062 20.744141 C 31.904042 20.698351 31.892709 20.652771 31.880859 20.607422 L 31.882812 20.607422 C 31.855692 20.503007 31.823749 20.400293 31.787109 20.298828 C 31.783909 20.291628 31.780744 20.284464 31.777344 20.277344 C 31.532984 19.622585 31.098579 19.05585 30.529297 18.650391 L 30.521484 18.644531 L 30.513672 18.638672 C 30.510572 18.636472 30.507006 18.635013 30.503906 18.632812 L 30.498047 18.628906 C 30.412557 18.569336 30.324844 18.51265 30.234375 18.460938 L 30.228516 18.458984 C 29.702767 18.159451 29.107079 18.001384 28.501953 18 L 28.5 18 C 28.068303 18.000347 27.724719 18.292922 27.328125 18.445312 C 27.312215 18.423392 27.29766 18.400466 27.28125 18.378906 L 27.277344 18.373047 C 27.228154 18.309347 27.174548 18.249601 27.121094 18.189453 C 27.117694 18.185653 27.114728 18.181554 27.111328 18.177734 C 27.093468 18.154124 27.074568 18.131315 27.054688 18.109375 C 26.974947 18.024115 26.890595 17.944061 26.802734 17.867188 L 26.798828 17.863281 C 26.732718 17.806141 26.663943 17.751245 26.59375 17.699219 L 26.574219 17.683594 C 26.555219 17.668564 26.535665 17.654235 26.515625 17.640625 L 26.507812 17.636719 C 26.506312 17.635719 26.505406 17.633813 26.503906 17.632812 L 26.498047 17.628906 C 26.439277 17.588496 26.377527 17.550416 26.316406 17.513672 L 26.292969 17.498047 C 26.271339 17.484177 26.249192 17.471144 26.226562 17.458984 C 26.199262 17.443344 26.171228 17.429006 26.142578 17.416016 C 26.134178 17.412016 26.125708 17.408117 26.117188 17.404297 C 26.052678 17.370627 25.988377 17.334277 25.921875 17.304688 C 25.709572 17.210348 25.488472 17.138402 25.261719 17.087891 C 25.147949 17.062111 25.033743 17.041644 24.917969 17.027344 L 24.910156 17.025391 C 24.822226 17.015151 24.734931 17.009409 24.646484 17.005859 L 24.613281 17.003906 C 24.586041 17.002406 24.55852 17.0008 24.53125 17 C 24.52018 16.999816 24.509117 16.999816 24.498047 17 C 24.012718 17.00077 23.619291 17.310249 23.181641 17.501953 C 22.965397 17.212023 22.827113 16.862504 22.529297 16.650391 L 22.513672 16.638672 C 22.423472 16.575112 22.330176 16.515698 22.234375 16.460938 L 22.228516 16.458984 C 21.702875 16.159461 21.107079 16.001384 20.501953 16 L 20.498047 16 C 20.025569 16.000613 19.619008 16.256576 19.189453 16.439453 C 19.146033 16.416643 19.100983 16.397059 19.054688 16.380859 L 19.185547 16.439453 C 19.181547 16.441153 19.177848 16.443513 19.173828 16.445312 C 18.660554 16.16369 18.087987 16.00134 17.501953 16 L 17.5 16 C 17.027282 15.999951 16.595605 16.203197 16.164062 16.386719 C 16.109443 16.385519 16.054712 16.384766 16 16.384766 C 15.716372 16.384808 15.46003 16.43701 15.191406 16.46875 C 14.977939 16.186119 14.820247 15.857911 14.529297 15.650391 L 14.521484 15.644531 L 14.513672 15.638672 C 14.510572 15.636472 14.507006 15.635013 14.503906 15.632812 L 14.498047 15.628906 C 14.412557 15.569336 14.324844 15.51265 14.234375 15.460938 L 14.228516 15.458984 C 13.702904 15.159504 13.107079 15.001384 12.501953 15 L 12.498047 15 z " style="color:black;font-style:normal;font-variant:normal;font-weight:normal;font-stretch:normal;font-size:medium;line-height:normal;font-family:sans-serif;text-indent:0;text-align:start;text-decoration:none;text-decoration-line:none;text-decoration-style:solid;text-decoration-color:black;letter-spacing:normal;word-spacing:normal;text-transform:none;direction:ltr;block-progression:tb;writing-mode:lr-tb;baseline-shift:baseline;text-anchor:start;white-space:normal;clip-rule:nonzero;display:inline;overflow:visible;visibility:visible;opacity:1;isolation:auto;mix-blend-mode:normal;color-interpolation:sRGB;color-interpolation-filters:linearRGB;solid-color:black;solid-opacity:1;fill:black;fill-opacity:1;fill-rule:nonzero;stroke:none;stroke-width:2;stroke-linecap:butt;stroke-linejoin:round;stroke-miterlimit:4;stroke-dasharray:none;stroke-dashoffset:0;stroke-opacity:1;color-rendering:auto;image-rendering:auto;shape-rendering:auto;text-rendering:auto;enable-background:accumulate" />
                  <g id="g9024">
                    <circle r="2.5" cy="20.5" cx="24.5" id="circle8224" style="opacity:1;fill:#604020;fill-opacity:1;fill-rule:nonzero;stroke:none;stroke-width:2;stroke-linecap:butt;stroke-linejoin:round;stroke-miterlimit:4;stroke-dasharray:none;stroke-dashoffset:0;stroke-opacity:1" />
                    <path inkscape:connector-curvature="0" style="opacity:1;fill:#c07f40;fill-opacity:1;fill-rule:nonzero;stroke:none;stroke-width:2;stroke-linecap:butt;stroke-linejoin:round;stroke-miterlimit:4;stroke-dasharray:none;stroke-dashoffset:0;stroke-opacity:1" d="m 24.582031,18.003906 a 2.1920905,2.1920905 0 0 0 -1.960937,2.177735 2.1920905,2.1920905 0 0 0 2.193359,2.191406 2.1920905,2.1920905 0 0 0 2.181641,-2.001953 2.5,2.5 0 0 0 -2.414063,-2.367188 z" id="path8226" />
                    <circle style="opacity:1;fill:none;fill-opacity:1;fill-rule:nonzero;stroke:none;stroke-width:2;stroke-linecap:butt;stroke-linejoin:round;stroke-miterlimit:4;stroke-dasharray:none;stroke-dashoffset:0;stroke-opacity:1" id="circle8228" cx="25.486168" cy="19.5" r="0.5" />
                  </g>
                  <path inkscape:connector-curvature="0" style="color:black;font-style:normal;font-variant:normal;font-weight:normal;font-stretch:normal;font-size:medium;line-height:normal;font-family:sans-serif;text-indent:0;text-align:start;text-decoration:none;text-decoration-line:none;text-decoration-style:solid;text-decoration-color:black;letter-spacing:normal;word-spacing:normal;text-transform:none;direction:ltr;block-progression:tb;writing-mode:lr-tb;baseline-shift:baseline;text-anchor:start;white-space:normal;clip-rule:nonzero;display:inline;overflow:visible;visibility:visible;opacity:1;isolation:auto;mix-blend-mode:normal;color-interpolation:sRGB;color-interpolation-filters:linearRGB;solid-color:black;solid-opacity:1;fill:black;fill-opacity:1;fill-rule:nonzero;stroke:none;stroke-width:2;stroke-linecap:butt;stroke-linejoin:miter;stroke-miterlimit:4;stroke-dasharray:none;stroke-dashoffset:0;stroke-opacity:1;color-rendering:auto;image-rendering:auto;shape-rendering:auto;text-rendering:auto;enable-background:accumulate" d="m 15.869141,11.695312 c -0.333416,0.01023 -0.632331,0.05106 -0.931641,0.152344 -0.149655,0.05064 -0.300574,0.110189 -0.482422,0.251953 C 14.273231,12.241374 14.001463,12.54506 14,12.996094 l 0,0.002 0,0.0039 0,4.929688 0,0.0039 c 1.17e-4,0.02277 0.0064,0.04227 0.0078,0.06445 l 3.984376,0 c 0.0015,-0.02218 0.0077,-0.04168 0.0078,-0.06445 l 0,-0.0039 0,-4.929688 0,-0.01172 0,-0.0098 C 17.9906,12.499485 17.691389,12.203976 17.501953,12.068359 17.312518,11.932773 17.154105,11.876269 16.996094,11.828125 16.680071,11.731836 16.357486,11.69531 16,11.695312 c -0.03821,-4.44e-4 -0.07703,-5.83e-4 -0.115234,0 l -0.0078,0 -0.0078,0 z" id="path4793" />
                  <rect style="opacity:1;fill:none;fill-opacity:1;fill-rule:nonzero;stroke:none;stroke-width:2;stroke-linecap:butt;stroke-linejoin:round;stroke-miterlimit:4;stroke-dasharray:none;stroke-dashoffset:0;stroke-opacity:1" id="rect4879" width="32" height="32" x="0" y="0" />
                  <ellipse ry="0.61512572" rx="1.9991585" cy="-18" cx="16" id="ellipse4805" style="opacity:1;fill:gray;fill-opacity:1;fill-rule:nonzero;stroke:none;stroke-width:2;stroke-linecap:butt;stroke-linejoin:miter;stroke-miterlimit:4;stroke-dasharray:none;stroke-dashoffset:0;stroke-opacity:1" transform="scale(1,-1)" />
                  <ellipse transform="scale(1,-1)" style="opacity:1;fill:#404040;fill-opacity:1;fill-rule:nonzero;stroke:none;stroke-width:2;stroke-linecap:butt;stroke-linejoin:miter;stroke-miterlimit:4;stroke-dasharray:none;stroke-dashoffset:0;stroke-opacity:1" id="ellipse4811" cx="16" cy="-18" rx="1.9991585" ry="0.61512572" />
                  <path inkscape:connector-curvature="0" style="opacity:1;fill:gray;fill-opacity:1;fill-rule:nonzero;stroke:none;stroke-width:2;stroke-linecap:butt;stroke-linejoin:miter;stroke-miterlimit:4;stroke-dasharray:none;stroke-dashoffset:0;stroke-opacity:1" d="m 15,13 0,4.928798 a 1,0.37769018 0 0 0 1,0.377843 1,0.37769018 0 0 0 1,-0.377843 L 17,13 15,13 Z" id="rect4821" />
                  <path style="opacity:1;fill:#404040;fill-opacity:1;fill-rule:nonzero;stroke:none;stroke-width:2;stroke-linecap:butt;stroke-linejoin:miter;stroke-miterlimit:4;stroke-dasharray:none;stroke-dashoffset:0;stroke-opacity:1" d="M 15 13 L 15 17.929688 A 1 0.37769018 0 0 0 16 18.306641 L 16 13 L 15 13 z " id="path8729" />
                  <ellipse transform="scale(1,-1)" style="opacity:1;fill:#ccc;fill-opacity:1;fill-rule:nonzero;stroke:none;stroke-width:2;stroke-linecap:butt;stroke-linejoin:miter;stroke-miterlimit:4;stroke-dasharray:none;stroke-dashoffset:0;stroke-opacity:1" id="ellipse4819" cx="16" cy="-13.001025" rx="1" ry="0.30651706" />
                  <g id="g8989" transform="translate(0,1)">
                    <circle style="opacity:1;fill:#605f20;fill-opacity:1;fill-rule:nonzero;stroke:none;stroke-width:2;stroke-linecap:butt;stroke-linejoin:round;stroke-miterlimit:4;stroke-dasharray:none;stroke-dashoffset:0;stroke-opacity:1" id="circle8091" cx="7.5" cy="19.5" r="2.5" />
                    <path id="path4806" d="M 7.582031,17.003906 A 2.1920905,2.1920905 0 0 0 5.621094,19.181641 2.1920905,2.1920905 0 0 0 7.814453,21.373047 2.1920905,2.1920905 0 0 0 9.996094,19.371094 2.5,2.5 0 0 0 7.582031,17.003906 Z" style="opacity:1;fill:#c0bf40;fill-opacity:1;fill-rule:nonzero;stroke:none;stroke-width:2;stroke-linecap:butt;stroke-linejoin:round;stroke-miterlimit:4;stroke-dasharray:none;stroke-dashoffset:0;stroke-opacity:1" inkscape:connector-curvature="0" />
                    <circle r="0.5" cy="18.5" cx="8.486167" id="path8089" style="opacity:1;fill:none;fill-opacity:1;fill-rule:nonzero;stroke:none;stroke-width:2;stroke-linecap:butt;stroke-linejoin:round;stroke-miterlimit:4;stroke-dasharray:none;stroke-dashoffset:0;stroke-opacity:1" />
                  </g>
                  <g id="g9035">
                    <circle r="2.5" cy="18.5" cx="12.5" id="circle8216" style="opacity:1;fill:gray;fill-opacity:1;fill-rule:nonzero;stroke:none;stroke-width:2;stroke-linecap:butt;stroke-linejoin:round;stroke-miterlimit:4;stroke-dasharray:none;stroke-dashoffset:0;stroke-opacity:1" />
                    <path inkscape:connector-curvature="0" style="opacity:1;fill:#b3b3b3;fill-opacity:1;fill-rule:nonzero;stroke:none;stroke-width:2;stroke-linecap:butt;stroke-linejoin:round;stroke-miterlimit:4;stroke-dasharray:none;stroke-dashoffset:0;stroke-opacity:1" d="m 12.582031,16.003906 a 2.1920905,2.1920905 0 0 0 -1.960937,2.177735 2.1920905,2.1920905 0 0 0 2.193359,2.191406 2.1920905,2.1920905 0 0 0 2.181641,-2.001953 2.5,2.5 0 0 0 -2.414063,-2.367188 z" id="path8218" />
                    <circle style="opacity:1;fill:none;fill-opacity:1;fill-rule:nonzero;stroke:none;stroke-width:2;stroke-linecap:butt;stroke-linejoin:round;stroke-miterlimit:4;stroke-dasharray:none;stroke-dashoffset:0;stroke-opacity:1" id="circle8220" cx="13.486167" cy="17.5" r="0.5" />
                  </g>
                  <g id="g8984">
                    <circle r="2.5" cy="22.5" cx="4.5" id="circle8136" style="opacity:1;fill:gray;fill-opacity:1;fill-rule:nonzero;stroke:none;stroke-width:2;stroke-linecap:butt;stroke-linejoin:round;stroke-miterlimit:4;stroke-dasharray:none;stroke-dashoffset:0;stroke-opacity:1" />
                    <path inkscape:connector-curvature="0" style="opacity:1;fill:#b3b3b3;fill-opacity:1;fill-rule:nonzero;stroke:none;stroke-width:2;stroke-linecap:butt;stroke-linejoin:round;stroke-miterlimit:4;stroke-dasharray:none;stroke-dashoffset:0;stroke-opacity:1" d="M 4.582031,20.003906 A 2.1920905,2.1920905 0 0 0 2.621094,22.181641 2.1920905,2.1920905 0 0 0 4.814453,24.373047 2.1920905,2.1920905 0 0 0 6.996094,22.371094 2.5,2.5 0 0 0 4.582031,20.003906 Z" id="path8138" />
                    <circle style="opacity:1;fill:none;fill-opacity:1;fill-rule:nonzero;stroke:none;stroke-width:2;stroke-linecap:butt;stroke-linejoin:round;stroke-miterlimit:4;stroke-dasharray:none;stroke-dashoffset:0;stroke-opacity:1" id="circle8140" cx="5.486167" cy="21.5" r="0.5" />
                  </g>
                  <g id="g8994">
                    <circle r="2.5" cy="20.5" cx="10.5" id="circle8208" style="opacity:1;fill:#604020;fill-opacity:1;fill-rule:nonzero;stroke:none;stroke-width:2;stroke-linecap:butt;stroke-linejoin:round;stroke-miterlimit:4;stroke-dasharray:none;stroke-dashoffset:0;stroke-opacity:1" />
                    <path inkscape:connector-curvature="0" style="opacity:1;fill:#c07f40;fill-opacity:1;fill-rule:nonzero;stroke:none;stroke-width:2;stroke-linecap:butt;stroke-linejoin:round;stroke-miterlimit:4;stroke-dasharray:none;stroke-dashoffset:0;stroke-opacity:1" d="m 10.582031,18.003906 a 2.1920905,2.1920905 0 0 0 -1.960937,2.177735 2.1920905,2.1920905 0 0 0 2.193359,2.191406 2.1920905,2.1920905 0 0 0 2.181641,-2.001953 2.5,2.5 0 0 0 -2.414063,-2.367188 z" id="path8210" />
                    <circle style="opacity:1;fill:none;fill-opacity:1;fill-rule:nonzero;stroke:none;stroke-width:2;stroke-linecap:butt;stroke-linejoin:round;stroke-miterlimit:4;stroke-dasharray:none;stroke-dashoffset:0;stroke-opacity:1" id="circle8212" cx="11.486167" cy="19.5" r="0.5" />
                  </g>
                  <g transform="translate(0,1)" id="g9029">
                    <circle r="2.5" cy="18.5" cx="20.5" id="circle8232" style="opacity:1;fill:#404040;fill-opacity:1;fill-rule:nonzero;stroke:none;stroke-width:2;stroke-linecap:butt;stroke-linejoin:round;stroke-miterlimit:4;stroke-dasharray:none;stroke-dashoffset:0;stroke-opacity:1" />
                    <path inkscape:connector-curvature="0" style="opacity:1;fill:gray;fill-opacity:1;fill-rule:nonzero;stroke:none;stroke-width:2;stroke-linecap:butt;stroke-linejoin:round;stroke-miterlimit:4;stroke-dasharray:none;stroke-dashoffset:0;stroke-opacity:1" d="m 20.582031,16.003906 a 2.1920905,2.1920905 0 0 0 -1.960937,2.177735 2.1920905,2.1920905 0 0 0 2.193359,2.191406 2.1920905,2.1920905 0 0 0 2.181641,-2.001953 2.5,2.5 0 0 0 -2.414063,-2.367188 z" id="path8234" />
                    <circle style="opacity:1;fill:none;fill-opacity:1;fill-rule:nonzero;stroke:none;stroke-width:2;stroke-linecap:butt;stroke-linejoin:round;stroke-miterlimit:4;stroke-dasharray:none;stroke-dashoffset:0;stroke-opacity:1" id="circle8236" cx="21.486168" cy="17.5" r="0.5" />
                    <circle style="opacity:1;fill:none;fill-opacity:1;fill-rule:nonzero;stroke:none;stroke-width:2;stroke-linecap:butt;stroke-linejoin:round;stroke-miterlimit:4;stroke-dasharray:none;stroke-dashoffset:0;stroke-opacity:1" id="circle8204" cx="18.486168" cy="18.5" r="0.5" />
                  </g>
                  <g id="g9045">
                    <circle r="2.5" cy="20.5" cx="14.5" id="circle8192" style="opacity:1;fill:#605520;fill-opacity:1;fill-rule:nonzero;stroke:none;stroke-width:2;stroke-linecap:butt;stroke-linejoin:round;stroke-miterlimit:4;stroke-dasharray:none;stroke-dashoffset:0;stroke-opacity:1" />
                    <path inkscape:connector-curvature="0" style="opacity:1;fill:#bfab41;fill-opacity:1;fill-rule:nonzero;stroke:none;stroke-width:2;stroke-linecap:butt;stroke-linejoin:round;stroke-miterlimit:4;stroke-dasharray:none;stroke-dashoffset:0;stroke-opacity:1" d="m 14.582031,18.003906 a 2.1920905,2.1920905 0 0 0 -1.960937,2.177735 2.1920905,2.1920905 0 0 0 2.193359,2.191406 2.1920905,2.1920905 0 0 0 2.181641,-2.001953 2.5,2.5 0 0 0 -2.414063,-2.367188 z" id="path8194" />
                  </g>
                  <g id="g9040">
                    <circle r="2.5" cy="19.5" cx="17.5" id="circle8200" style="opacity:1;fill:gray;fill-opacity:1;fill-rule:nonzero;stroke:none;stroke-width:2;stroke-linecap:butt;stroke-linejoin:round;stroke-miterlimit:4;stroke-dasharray:none;stroke-dashoffset:0;stroke-opacity:1" />
                    <path inkscape:connector-curvature="0" style="opacity:1;fill:#b3b3b3;fill-opacity:1;fill-rule:nonzero;stroke:none;stroke-width:2;stroke-linecap:butt;stroke-linejoin:round;stroke-miterlimit:4;stroke-dasharray:none;stroke-dashoffset:0;stroke-opacity:1" d="m 17.582031,17.003906 a 2.1920905,2.1920905 0 0 0 -1.960937,2.177735 2.1920905,2.1920905 0 0 0 2.193359,2.191406 2.1920905,2.1920905 0 0 0 2.181641,-2.001953 2.5,2.5 0 0 0 -2.414063,-2.367188 z" id="path8202" />
                    <circle style="opacity:1;fill:none;fill-opacity:1;fill-rule:nonzero;stroke:none;stroke-width:2;stroke-linecap:butt;stroke-linejoin:round;stroke-miterlimit:4;stroke-dasharray:none;stroke-dashoffset:0;stroke-opacity:1" id="circle8196" cx="15.486167" cy="19.5" r="0.5" />
                  </g>
                  <g transform="translate(-1,0)" id="g9014">
                    <circle r="2.5" cy="22.5" cx="20.5" id="circle8184" style="opacity:1;fill:#605f20;fill-opacity:1;fill-rule:nonzero;stroke:none;stroke-width:2;stroke-linecap:butt;stroke-linejoin:round;stroke-miterlimit:4;stroke-dasharray:none;stroke-dashoffset:0;stroke-opacity:1" />
                    <path inkscape:connector-curvature="0" style="opacity:1;fill:#c0bf40;fill-opacity:1;fill-rule:nonzero;stroke:none;stroke-width:2;stroke-linecap:butt;stroke-linejoin:round;stroke-miterlimit:4;stroke-dasharray:none;stroke-dashoffset:0;stroke-opacity:1" d="m 20.582031,20.003906 a 2.1920905,2.1920905 0 0 0 -1.960937,2.177735 2.1920905,2.1920905 0 0 0 2.193359,2.191406 2.1920905,2.1920905 0 0 0 2.181641,-2.001953 2.5,2.5 0 0 0 -2.414063,-2.367188 z" id="path8186" />
                    <circle style="opacity:1;fill:none;fill-opacity:1;fill-rule:nonzero;stroke:none;stroke-width:2;stroke-linecap:butt;stroke-linejoin:round;stroke-miterlimit:4;stroke-dasharray:none;stroke-dashoffset:0;stroke-opacity:1" id="circle8188" cx="21.486168" cy="21.5" r="0.5" />
                  </g>
                  <g transform="translate(0,-2)" id="g9004">
                    <circle r="2.5" cy="23.5" cx="16.5" id="circle8176" style="opacity:1;fill:#604020;fill-opacity:1;fill-rule:nonzero;stroke:none;stroke-width:2;stroke-linecap:butt;stroke-linejoin:round;stroke-miterlimit:4;stroke-dasharray:none;stroke-dashoffset:0;stroke-opacity:1" />
                    <path inkscape:connector-curvature="0" style="opacity:1;fill:#c07f40;fill-opacity:1;fill-rule:nonzero;stroke:none;stroke-width:2;stroke-linecap:butt;stroke-linejoin:round;stroke-miterlimit:4;stroke-dasharray:none;stroke-dashoffset:0;stroke-opacity:1" d="m 16.582031,21.003906 a 2.1920905,2.1920905 0 0 0 -1.960937,2.177735 2.1920905,2.1920905 0 0 0 2.193359,2.191406 2.1920905,2.1920905 0 0 0 2.181641,-2.001953 2.5,2.5 0 0 0 -2.414063,-2.367188 z" id="path8178" />
                    <circle style="opacity:1;fill:none;fill-opacity:1;fill-rule:nonzero;stroke:none;stroke-width:2;stroke-linecap:butt;stroke-linejoin:round;stroke-miterlimit:4;stroke-dasharray:none;stroke-dashoffset:0;stroke-opacity:1" id="circle8180" cx="17.486168" cy="22.5" r="0.5" />
                  </g>
                  <g transform="translate(0,-2)" id="g8999">
                    <circle r="2.5" cy="24.5" cx="12.5" id="circle8144" style="opacity:1;fill:#404040;fill-opacity:1;fill-rule:nonzero;stroke:none;stroke-width:2;stroke-linecap:butt;stroke-linejoin:round;stroke-miterlimit:4;stroke-dasharray:none;stroke-dashoffset:0;stroke-opacity:1" />
                    <path inkscape:connector-curvature="0" style="opacity:1;fill:gray;fill-opacity:1;fill-rule:nonzero;stroke:none;stroke-width:2;stroke-linecap:butt;stroke-linejoin:round;stroke-miterlimit:4;stroke-dasharray:none;stroke-dashoffset:0;stroke-opacity:1" d="m 12.582031,22.003906 a 2.1920905,2.1920905 0 0 0 -1.960937,2.177735 2.1920905,2.1920905 0 0 0 2.193359,2.191406 2.1920905,2.1920905 0 0 0 2.181641,-2.001953 2.5,2.5 0 0 0 -2.414063,-2.367188 z" id="path8146" />
                    <circle style="opacity:1;fill:none;fill-opacity:1;fill-rule:nonzero;stroke:none;stroke-width:2;stroke-linecap:butt;stroke-linejoin:round;stroke-miterlimit:4;stroke-dasharray:none;stroke-dashoffset:0;stroke-opacity:1" id="circle8148" cx="13.486167" cy="23.5" r="0.5" />
                  </g>
                  <g transform="translate(0,-2)" id="g8979">
                    <circle r="2.5" cy="23.5" cx="8.5" id="circle8168" style="opacity:1;fill:#605f20;fill-opacity:1;fill-rule:nonzero;stroke:none;stroke-width:2;stroke-linecap:butt;stroke-linejoin:round;stroke-miterlimit:4;stroke-dasharray:none;stroke-dashoffset:0;stroke-opacity:1" />
                    <path inkscape:connector-curvature="0" style="opacity:1;fill:#c1bd3f;fill-opacity:1;fill-rule:nonzero;stroke:none;stroke-width:2;stroke-linecap:butt;stroke-linejoin:round;stroke-miterlimit:4;stroke-dasharray:none;stroke-dashoffset:0;stroke-opacity:1" d="m 8.582031,21.003906 a 2.1920905,2.1920905 0 0 0 -1.960937,2.177735 2.1920905,2.1920905 0 0 0 2.193359,2.191406 2.1920905,2.1920905 0 0 0 2.181641,-2.001953 2.5,2.5 0 0 0 -2.414063,-2.367188 z" id="path8170" />
                    <circle style="opacity:1;fill:none;fill-opacity:1;fill-rule:nonzero;stroke:none;stroke-width:2;stroke-linecap:butt;stroke-linejoin:round;stroke-miterlimit:4;stroke-dasharray:none;stroke-dashoffset:0;stroke-opacity:1" id="circle8172" cx="9.486167" cy="22.5" r="0.5" />
                  </g>
                  <g id="g9019">
                    <circle r="2.5" cy="21.5" cx="28.5" id="circle8160" style="opacity:1;fill:#604020;fill-opacity:1;fill-rule:nonzero;stroke:none;stroke-width:2;stroke-linecap:butt;stroke-linejoin:round;stroke-miterlimit:4;stroke-dasharray:none;stroke-dashoffset:0;stroke-opacity:1" />
                    <path inkscape:connector-curvature="0" style="opacity:1;fill:#c07f40;fill-opacity:1;fill-rule:nonzero;stroke:none;stroke-width:2;stroke-linecap:butt;stroke-linejoin:round;stroke-miterlimit:4;stroke-dasharray:none;stroke-dashoffset:0;stroke-opacity:1" d="m 28.582031,19.003906 a 2.1920905,2.1920905 0 0 0 -1.960937,2.177735 2.1920905,2.1920905 0 0 0 2.193359,2.191406 2.1920905,2.1920905 0 0 0 2.181641,-2.001953 2.5,2.5 0 0 0 -2.414063,-2.367188 z" id="path8162" />
                    <circle style="opacity:1;fill:none;fill-opacity:1;fill-rule:nonzero;stroke:none;stroke-width:2;stroke-linecap:butt;stroke-linejoin:round;stroke-miterlimit:4;stroke-dasharray:none;stroke-dashoffset:0;stroke-opacity:1" id="circle8164" cx="29.486168" cy="20.5" r="0.5" />
                  </g>
                  <g transform="translate(-1,-2)" id="g9009">
                    <circle r="2.5" cy="23.5" cx="24.5" id="circle8152" style="opacity:1;fill:#605f20;fill-opacity:1;fill-rule:nonzero;stroke:none;stroke-width:2;stroke-linecap:butt;stroke-linejoin:round;stroke-miterlimit:4;stroke-dasharray:none;stroke-dashoffset:0;stroke-opacity:1" />
                    <path inkscape:connector-curvature="0" style="opacity:1;fill:#c0bf40;fill-opacity:1;fill-rule:nonzero;stroke:none;stroke-width:2;stroke-linecap:butt;stroke-linejoin:round;stroke-miterlimit:4;stroke-dasharray:none;stroke-dashoffset:0;stroke-opacity:1" d="m 24.582031,21.003906 a 2.1920905,2.1920905 0 0 0 -1.960937,2.177735 2.1920905,2.1920905 0 0 0 2.193359,2.191406 2.1920905,2.1920905 0 0 0 2.181641,-2.001953 2.5,2.5 0 0 0 -2.414063,-2.367188 z" id="path8154" />
                    <circle style="opacity:1;fill:none;fill-opacity:1;fill-rule:nonzero;stroke:none;stroke-width:2;stroke-linecap:butt;stroke-linejoin:round;stroke-miterlimit:4;stroke-dasharray:none;stroke-dashoffset:0;stroke-opacity:1" id="circle8156" cx="25.486168" cy="22.5" r="0.5" />
                  </g>
                </g>
              </g>
            </g>
          </g>
        </g>
      </g>
    </g>
  </g>
</svg>
