<?xml version="1.0" encoding="UTF-8" standalone="no"?>
<!-- Created with Inkscape (http://www.inkscape.org/) -->

<svg
   xmlns:dc="http://purl.org/dc/elements/1.1/"
   xmlns:cc="http://creativecommons.org/ns#"
   xmlns:rdf="http://www.w3.org/1999/02/22-rdf-syntax-ns#"
   xmlns:svg="http://www.w3.org/2000/svg"
   xmlns="http://www.w3.org/2000/svg"
   xmlns:sodipodi="http://sodipodi.sourceforge.net/DTD/sodipodi-0.dtd"
   xmlns:inkscape="http://www.inkscape.org/namespaces/inkscape"
   id="svg2985"
   version="1.1"
   inkscape:version="0.48.5 r10040"
   width="32"
   height="32"
   sodipodi:docname="perry-00d.svg">
  <metadata
     id="metadata2991">
    <rdf:RDF>
      <cc:Work
         rdf:about="">
        <dc:format>image/svg+xml</dc:format>
        <dc:type
           rdf:resource="http://purl.org/dc/dcmitype/StillImage" />
        <dc:title></dc:title>
      </cc:Work>
    </rdf:RDF>
  </metadata>
  <defs
     id="defs2989" />
  <sodipodi:namedview
     pagecolor="#ffffff"
     bordercolor="#666666"
     borderopacity="1"
     objecttolerance="10"
     gridtolerance="10"
     guidetolerance="10"
     inkscape:pageopacity="0"
     inkscape:pageshadow="2"
     inkscape:window-width="1024"
     inkscape:window-height="741"
     id="namedview2987"
     showgrid="true"
     inkscape:zoom="16.375"
     inkscape:cx="16"
     inkscape:cy="16"
     inkscape:window-x="0"
     inkscape:window-y="2"
     inkscape:window-maximized="1"
     inkscape:current-layer="layer4"
     showguides="true"
     inkscape:guide-bbox="true">
    <inkscape:grid
       type="xygrid"
       id="grid2995"
       empspacing="8"
       visible="true"
       enabled="true"
       snapvisiblegridlinesonly="true"
       spacingx="0.5px"
       spacingy="0.5px" />
    <sodipodi:guide
       orientation="1,0"
       position="16,33.038168"
       id="guide3966" />
    <sodipodi:guide
       orientation="0,1"
       position="-4,16"
       id="guide3968" />
  </sodipodi:namedview>
  <g
     inkscape:groupmode="layer"
     id="layer3"
     inkscape:label="Pixelbild"
     style="display:inline" />
  <g
     inkscape:groupmode="layer"
     id="layer4"
     inkscape:label="Vektorbild"
     style="display:inline">
    <g
       id="g4812">
      <rect
         style="fill:none;stroke:none"
         id="rect4548"
         width="32"
         height="32"
         x="0"
         y="0" />
      <g
         id="g4844"
         transform="translate(0,2)">
        <path
           style="fill:#ff8000;fill-opacity:1;stroke:none"
           d="M 10.5,6 C 8.5670034,6 7,7.5670034 7,9.5 c 0,1.765265 1.3009988,3.228659 3,3.46875 L 10,17 c -4.4182779,0 -7.9999998,3.581722 -8,8 l 1,0 c 0,-0.552285 0.4477153,-1 1,-1 0.5522847,0 1,0.447715 1,1 l 1,0 c 0,0.552285 0.4477153,1 1,1 0.5522847,0 1,-0.447715 1,-1 l 1,0 c 0,-0.552285 0.4477153,-1 1,-1 0.552285,0 1,0.447715 1,1 l 1,0 c 0,0.552285 0.447715,1 1,1 0.552285,0 1,-0.447715 1,-1 l 1,0 c 0,-0.552285 0.447715,-1 1,-1 0.552285,0 1,0.447715 1,1 l 1,0 c 0,0.552285 0.447715,1 1,1 0.552285,0 1,-0.447715 1,-1 l 1,0 c 0,-0.552285 0.447715,-1 1,-1 0.552285,0 1,0.447715 1,1 l 1,0 c 0,0.552285 0.447715,1 1,1 0.552285,0 1,-0.447715 1,-1 l 1,0 c 0,-0.552285 0.447715,-1 1,-1 0.552285,0 1,0.447715 1,1 l 1,0 c 0,-4.418278 -3.581722,-8 -8,-8 l 0,-4.03125 C 23.699001,12.728659 25,11.265265 25,9.5 25,7.5670034 23.432997,6 21.5,6 19.567003,6 18,7.5670034 18,9.5 c 0,1.765265 1.300999,3.228659 3,3.46875 L 21,17 11,17 11,12.96875 C 12.699001,12.728659 14,11.265265 14,9.5 14,7.5670034 12.432997,6 10.5,6 z"
           id="rect2991"
           inkscape:connector-curvature="0" />
        <path
           transform="translate(0,2)"
           d="M 14,7.5 C 14,9.4329966 12.432997,11 10.5,11 8.5670034,11 7,9.4329966 7,7.5 7,5.5670034 8.5670034,4 10.5,4 12.432997,4 14,5.5670034 14,7.5 z"
           sodipodi:ry="3.5"
           sodipodi:rx="3.5"
           sodipodi:cy="7.5"
           sodipodi:cx="10.5"
           id="path3817"
           style="fill:white;fill-opacity:1;stroke:none"
           sodipodi:type="arc" />
        <path
           transform="translate(11,2)"
           sodipodi:type="arc"
           style="fill:white;fill-opacity:1;stroke:none"
           id="path3819"
           sodipodi:cx="10.5"
           sodipodi:cy="7.5"
           sodipodi:rx="3.5"
           sodipodi:ry="3.5"
           d="M 14,7.5 C 14,9.4329966 12.432997,11 10.5,11 8.5670034,11 7,9.4329966 7,7.5 7,5.5670034 8.5670034,4 10.5,4 12.432997,4 14,5.5670034 14,7.5 z" />
        <path
           style="font-size:medium;font-style:normal;font-variant:normal;font-weight:normal;font-stretch:normal;text-indent:0;text-align:start;text-decoration:none;line-height:normal;letter-spacing:normal;word-spacing:normal;text-transform:none;direction:ltr;block-progression:tb;writing-mode:lr-tb;text-anchor:start;baseline-shift:baseline;color:black;fill:black;fill-opacity:1;fill-rule:nonzero;stroke:none;stroke-width:2;marker:none;visibility:visible;display:inline;overflow:visible;enable-background:accumulate;font-family:Sans;-inkscape-font-specification:Sans"
           d="M 10.5,5 C 8.0265633,5 6,7.0265633 6,9.5 c 0,1.933208 1.2732483,3.524012 3,4.15625 l 0,2.5625 C 4.5332827,16.741269 1.0000002,20.396411 1,25 c 5.24e-5,0.523584 0.4764155,0.999948 1,1 0.5522847,0 1,-0.447715 1,-1 0,-0.552285 0.4477153,-1 1,-1 0.5522847,0 1,0.447715 1,1 0,1.104569 0.8954305,2 2,2 1.1045695,0 2,-0.895431 2,-2 0,-0.552285 0.4477153,-1 1,-1 0.552285,0 1,0.447715 1,1 0,1.104569 0.895431,2 2,2 1.104569,0 2,-0.895431 2,-2 0,-0.552285 0.447715,-1 1,-1 0.552285,0 1,0.447715 1,1 0,1.104569 0.895431,2 2,2 1.104569,0 2,-0.895431 2,-2 0,-0.552285 0.447715,-1 1,-1 0.552285,0 1,0.447715 1,1 0,1.104569 0.895431,2 2,2 1.104569,0 2,-0.895431 2,-2 0,-0.552285 0.447715,-1 1,-1 0.552285,0 1,0.447715 1,1 0,0.552285 0.447715,1 1,1 0.523584,-5.2e-5 0.999948,-0.476416 1,-1 0,-4.603589 -3.533283,-8.258731 -8,-8.78125 l 0,-2.5625 C 24.726752,13.024012 26,11.433208 26,9.5 26,7.0265634 23.973437,5 21.5,5 19.026563,5 17,7.0265634 17,9.5 c 0,1.933208 1.273248,3.524012 3,4.15625 L 20,16 12,16 12,13.65625 C 13.726752,13.024012 15,11.433208 15,9.5 15,7.0265634 12.973437,5 10.5,5 z m 0,1 c 1.932997,0 3.5,1.5670034 3.5,3.5 0,1.765265 -1.300999,3.228659 -3,3.46875 L 11,17 21,17 21,12.96875 C 19.300999,12.728659 18,11.265265 18,9.5 18,7.5670034 19.567003,6 21.5,6 23.432997,6 25,7.5670034 25,9.5 c 0,1.765265 -1.300999,3.228659 -3,3.46875 L 22,17 c 4.280003,0 7.754183,3.367075 7.96875,7.59375 C 29.782257,23.682384 28.966498,23 28,23 c -1.104569,0 -2,0.895431 -2,2 0,0.552285 -0.447715,1 -1,1 -0.552285,0 -1,-0.447715 -1,-1 0,-1.104569 -0.895431,-2 -2,-2 -1.104569,0 -2,0.895431 -2,2 0,0.552285 -0.447715,1 -1,1 -0.552285,0 -1,-0.447715 -1,-1 0,-1.104569 -0.895431,-2 -2,-2 -1.104569,0 -2,0.895431 -2,2 0,0.552285 -0.447715,1 -1,1 -0.552285,0 -1,-0.447715 -1,-1 0,-1.104569 -0.895431,-2 -2,-2 -1.1045695,0 -2,0.895431 -2,2 0,0.552285 -0.4477153,1 -1,1 C 6.4477153,26 6,25.552285 6,25 6,23.895431 5.1045695,23 4,23 3.0335017,23 2.2177425,23.682384 2.03125,24.59375 2.2458176,20.367075 5.7199972,17 10,17 l 0,-4.03125 C 8.3009988,12.728659 7,11.265265 7,9.5 7,7.5670034 8.5670034,6 10.5,6 z"
           id="path3929"
           inkscape:connector-curvature="0" />
        <path
           sodipodi:end="3.1415927"
           sodipodi:start="0"
           d="m 14,23 c 0,0.552285 -0.447715,1 -1,1 -0.552285,0 -1,-0.447715 -1,-1 0,0 0,0 0,0 l 1,0 z"
           sodipodi:ry="1"
           sodipodi:rx="1"
           sodipodi:cy="23"
           sodipodi:cx="13"
           id="path4003"
           style="fill:white;fill-opacity:1;stroke:none"
           sodipodi:type="arc"
           transform="translate(-6,2)" />
        <path
           inkscape:connector-curvature="0"
           style="fill:yellow;fill-opacity:1;stroke:none"
           d="m 6,25 c 0,0.552285 0.4477153,1 1,1 0.5522847,0 1,-0.447715 1,-1 0,0.276142 -0.4477153,0.5 -1,0.5 -0.5522847,0 -1,-0.223858 -1,-0.5 z"
           id="path3975" />
        <path
           transform="translate(0,2)"
           sodipodi:type="arc"
           style="fill:white;fill-opacity:1;stroke:none"
           id="path3999"
           sodipodi:cx="13"
           sodipodi:cy="23"
           sodipodi:rx="1"
           sodipodi:ry="1"
           d="m 14,23 c 0,0.552285 -0.447715,1 -1,1 -0.552285,0 -1,-0.447715 -1,-1 0,0 0,0 0,0 l 1,0 z"
           sodipodi:start="0"
           sodipodi:end="3.1415927" />
        <path
           id="path3983"
           d="m 12,25 c 0,0.552285 0.447715,1 1,1 0.552285,0 1,-0.447715 1,-1 0,0.276142 -0.447715,0.5 -1,0.5 -0.552285,0 -1,-0.223858 -1,-0.5 z"
           style="fill:yellow;fill-opacity:1;stroke:none"
           inkscape:connector-curvature="0" />
        <path
           sodipodi:type="arc"
           style="fill:white;fill-opacity:1;stroke:none"
           id="path4005"
           sodipodi:cx="13"
           sodipodi:cy="23"
           sodipodi:rx="1"
           sodipodi:ry="1"
           d="m 14,23 c 0,0.552285 -0.447715,1 -1,1 -0.552285,0 -1,-0.447715 -1,-1 0,0 0,0 0,0 l 1,0 z"
           sodipodi:start="0"
           sodipodi:end="3.1415927"
           transform="translate(6,2)" />
        <path
           inkscape:connector-curvature="0"
           style="fill:yellow;fill-opacity:1;stroke:none"
           d="m 18,25 c 0,0.552285 0.447715,1 1,1 0.552285,0 1,-0.447715 1,-1 0,0.276142 -0.447715,0.5 -1,0.5 -0.552285,0 -1,-0.223858 -1,-0.5 z"
           id="path3985" />
        <path
           sodipodi:end="3.1415927"
           sodipodi:start="0"
           d="m 14,23 c 0,0.552285 -0.447715,1 -1,1 -0.552285,0 -1,-0.447715 -1,-1 0,0 0,0 0,0 l 1,0 z"
           sodipodi:ry="1"
           sodipodi:rx="1"
           sodipodi:cy="23"
           sodipodi:cx="13"
           id="path4007"
           style="fill:white;fill-opacity:1;stroke:none"
           sodipodi:type="arc"
           transform="translate(12,2)" />
        <path
           id="path3987"
           d="m 24,25 c 0,0.552285 0.447715,1 1,1 0.552285,0 1,-0.447715 1,-1 0,0.276142 -0.447715,0.5 -1,0.5 -0.552285,0 -1,-0.223858 -1,-0.5 z"
           style="fill:yellow;fill-opacity:1;stroke:none"
           inkscape:connector-curvature="0" />
        <path
           inkscape:connector-curvature="0"
           id="path4478"
           d="m 7.03125,10 c 0.2400911,1.699001 1.7034853,3 3.46875,3 1.765265,0 3.228659,-1.300999 3.46875,-3 L 13.9375,10 C 13.611138,11.139208 12.191372,12 10.5,12 8.808628,12 7.3888619,11.139208 7.0625,10 l -0.03125,0 z"
           style="fill:aqua;fill-opacity:1;stroke:none" />
        <path
           inkscape:connector-curvature="0"
           style="fill:aqua;fill-opacity:1;stroke:none"
           d="m 18.031,10 c 0.240091,1.699001 1.703485,3 3.46875,3 1.765265,0 3.228659,-1.300999 3.46875,-3 l -0.03125,0 c -0.326362,1.139208 -1.746128,2 -3.4375,2 -1.691372,0 -3.111138,-0.860792 -3.4375,-2 L 18.031,10 z"
           id="path4488" />
        <path
           transform="translate(-3,2)"
           sodipodi:type="arc"
           style="fill:black;fill-opacity:1;stroke:none"
           id="path3821"
           sodipodi:cx="11"
           sodipodi:cy="8"
           sodipodi:rx="1"
           sodipodi:ry="1"
           d="m 12,8 a 1,1 0 1 1 -2,0 1,1 0 1 1 2,0 z" />
        <path
           transform="translate(-3,2)"
           sodipodi:type="arc"
           style="fill:black;fill-opacity:1;stroke:none"
           id="path3823"
           sodipodi:cx="22"
           sodipodi:cy="8"
           sodipodi:rx="1"
           sodipodi:ry="1"
           d="m 23,8 a 1,1 0 1 1 -2,0 1,1 0 1 1 2,0 z" />
      </g>
      <g
         id="g4075">
        <path
           style="fill:#ff8000;fill-opacity:1;stroke:none"
           d="m 4,26 c -0.5522847,0 -1,0.447715 -1,1 l -1,0 c 0,1.656854 1.3431458,3 3,3 l 22,0 c 1.656854,0 3,-1.343146 3,-3 l -1,0 c 0,-0.552285 -0.447715,-1 -1,-1 -0.552285,0 -1,0.447715 -1,1 l -1,0 c 0,0.552285 -0.447715,1 -1,1 -0.552285,0 -1,-0.447715 -1,-1 l -0.5,0 -0.5,0 c 0,-0.552285 -0.447715,-1 -1,-1 -0.552285,0 -1,0.447715 -1,1 l -1,0 c 0,0.552285 -0.447715,1 -1,1 -0.552285,0 -1,-0.447715 -1,-1 l -0.5,0 -0.5,0 c 0,-0.552285 -0.447715,-1 -1,-1 -0.552285,0 -1,0.447715 -1,1 l -1,0 c 0,0.552285 -0.447715,1 -1,1 -0.552285,0 -1,-0.447715 -1,-1 l -0.5,0 -0.5,0 c 0,-0.552285 -0.447715,-1 -1,-1 -0.5522847,0 -1,0.447715 -1,1 L 8,27 C 8,27.552285 7.5522847,28 7,28 6.4477153,28 6,27.552285 6,27 L 5.5,27 5,27 C 5,26.447715 4.5522847,26 4,26 z"
           id="rect3769"
           inkscape:connector-curvature="0" />
        <path
           transform="matrix(1,0,0,-1,-9,50)"
           sodipodi:type="arc"
           style="fill:white;fill-opacity:1;stroke:none"
           id="path4009"
           sodipodi:cx="13"
           sodipodi:cy="23"
           sodipodi:rx="1"
           sodipodi:ry="1"
           d="m 14,23 a 1,1 0 1 1 -2,0 l 1,0 z"
           sodipodi:start="0"
           sodipodi:end="3.1415927" />
        <path
           inkscape:connector-curvature="0"
           style="font-size:medium;font-style:normal;font-variant:normal;font-weight:normal;font-stretch:normal;text-indent:0;text-align:start;text-decoration:none;line-height:normal;letter-spacing:normal;word-spacing:normal;text-transform:none;direction:ltr;block-progression:tb;writing-mode:lr-tb;text-anchor:start;baseline-shift:baseline;color:black;fill:black;fill-opacity:1;fill-rule:nonzero;stroke:none;stroke-width:2;marker:none;visibility:visible;display:inline;overflow:visible;enable-background:accumulate;font-family:Sans;-inkscape-font-specification:Sans"
           d="M 4,25 C 3.2603957,25 2.6272926,25.403104 2.28125,26 L 2,26 c -0.5235845,5.2e-5 -0.9999476,0.476416 -1,1 0,2.197294 1.8027056,4 4,4 l 22,0 c 2.197294,0 4,-1.802706 4,-4 -5.2e-5,-0.523584 -0.476416,-0.999948 -1,-1 l -0.28125,0 C 29.372707,25.403104 28.739604,25 28,25 c -1.104569,0 -2,0.895431 -2,2 0,0.552285 -0.447715,1 -1,1 -0.552285,0 -1,-0.447715 -1,-1 0,-1.104569 -0.895431,-2 -2,-2 -1.104569,0 -2,0.895431 -2,2 0,0.552285 -0.447715,1 -1,1 -0.552285,0 -1,-0.447715 -1,-1 0,-1.104569 -0.895431,-2 -2,-2 -1.104569,0 -2,0.895431 -2,2 0,0.552285 -0.447715,1 -1,1 -0.552285,0 -1,-0.447715 -1,-1 0,-1.104569 -0.895431,-2 -2,-2 -1.1045695,0 -2,0.895431 -2,2 0,0.552285 -0.4477153,1 -1,1 C 6.4477153,28 6,27.552285 6,27 6,25.895431 5.1045695,25 4,25 z m 0,1 c 0.5522847,0 1,0.447715 1,1 0,1.104569 0.8954305,2 2,2 1.1045695,0 2,-0.895431 2,-2 0,-0.552285 0.4477153,-1 1,-1 0.552285,0 1,0.447715 1,1 0,1.104569 0.895431,2 2,2 1.104569,0 2,-0.895431 2,-2 0,-0.552285 0.447715,-1 1,-1 0.552285,0 1,0.447715 1,1 0,1.104569 0.895431,2 2,2 1.104569,0 2,-0.895431 2,-2 0,-0.552285 0.447715,-1 1,-1 0.552285,0 1,0.447715 1,1 0,1.104569 0.895431,2 2,2 1.104569,0 2,-0.895431 2,-2 0,-0.552285 0.447715,-1 1,-1 0.552285,0 1,0.447715 1,1 l 1,0 c 0,1.656854 -1.343146,3 -3,3 L 5,30 C 3.3431458,30 2,28.656854 2,27 l 1,0 c 0,-0.552285 0.4477153,-1 1,-1 z"
           id="path3931" />
        <path
           sodipodi:end="3.1415927"
           sodipodi:start="0"
           d="m 14,23 a 1,1 0 1 1 -2,0 l 1,0 z"
           sodipodi:ry="1"
           sodipodi:rx="1"
           sodipodi:cy="23"
           sodipodi:cx="13"
           id="path4011"
           style="fill:white;fill-opacity:1;stroke:none"
           sodipodi:type="arc"
           transform="matrix(1,0,0,-1,-3,50)" />
        <path
           id="path3989"
           d="m 3,27 c 0,-0.552285 0.4477153,-1 1,-1 0.5522847,0 1,0.447715 1,1 0,-0.276142 -0.4477153,-0.5 -1,-0.5 -0.5522847,0 -1,0.223858 -1,0.5 z"
           style="fill:yellow;fill-opacity:1;stroke:none"
           inkscape:connector-curvature="0" />
        <path
           transform="matrix(1,0,0,-1,3,50)"
           sodipodi:end="3.1415927"
           sodipodi:start="0"
           d="m 14,23 a 1,1 0 1 1 -2,0 l 1,0 z"
           sodipodi:ry="1"
           sodipodi:rx="1"
           sodipodi:cy="23"
           sodipodi:cx="13"
           id="path4013"
           style="fill:white;fill-opacity:1;stroke:none"
           sodipodi:type="arc" />
        <path
           inkscape:connector-curvature="0"
           style="fill:yellow;fill-opacity:1;stroke:none"
           d="m 9,27 c 0,-0.552285 0.447715,-1 1,-1 0.552285,0 1,0.447715 1,1 0,-0.276142 -0.447715,-0.5 -1,-0.5 -0.552285,0 -1,0.223858 -1,0.5 z"
           id="path3991" />
        <path
           transform="matrix(1,0,0,-1,9,50)"
           sodipodi:type="arc"
           style="fill:white;fill-opacity:1;stroke:none"
           id="path4015"
           sodipodi:cx="13"
           sodipodi:cy="23"
           sodipodi:rx="1"
           sodipodi:ry="1"
           d="m 14,23 a 1,1 0 1 1 -2,0 l 1,0 z"
           sodipodi:start="0"
           sodipodi:end="3.1415927" />
        <path
           id="path3993"
           d="m 15,27 c 0,-0.552285 0.447715,-1 1,-1 0.552285,0 1,0.447715 1,1 0,-0.276142 -0.447715,-0.5 -1,-0.5 -0.552285,0 -1,0.223858 -1,0.5 z"
           style="fill:yellow;fill-opacity:1;stroke:none"
           inkscape:connector-curvature="0" />
        <path
           inkscape:connector-curvature="0"
           style="fill:yellow;fill-opacity:1;stroke:none"
           d="m 21,27 c 0,-0.552285 0.447715,-1 1,-1 0.552285,0 1,0.447715 1,1 0,-0.276142 -0.447715,-0.5 -1,-0.5 -0.552285,0 -1,0.223858 -1,0.5 z"
           id="path3995" />
        <path
           sodipodi:end="3.1415927"
           sodipodi:start="0"
           d="m 14,23 a 1,1 0 1 1 -2,0 l 1,0 z"
           sodipodi:ry="1"
           sodipodi:rx="1"
           sodipodi:cy="23"
           sodipodi:cx="13"
           id="path4019"
           style="fill:white;fill-opacity:1;stroke:none"
           sodipodi:type="arc"
           transform="matrix(1,0,0,-1,15,50)" />
        <path
           id="path3997"
           d="m 27,27 c 0,-0.552285 0.447715,-1 1,-1 0.552285,0 1,0.447715 1,1 0,-0.276142 -0.447715,-0.5 -1,-0.5 -0.552285,0 -1,0.223858 -1,0.5 z"
           style="fill:yellow;fill-opacity:1;stroke:none"
           inkscape:connector-curvature="0" />
      </g>
    </g>
  </g>
</svg>
