<?xml version="1.0" encoding="UTF-8" standalone="no"?>
<!-- Created with Inkscape (http://www.inkscape.org/) -->

<svg xmlns:dc="http://purl.org/dc/elements/1.1/" xmlns:cc="http://creativecommons.org/ns#" xmlns:rdf="http://www.w3.org/1999/02/22-rdf-syntax-ns#" xmlns:svg="http://www.w3.org/2000/svg" xmlns="http://www.w3.org/2000/svg" xmlns:sodipodi="http://sodipodi.sourceforge.net/DTD/sodipodi-0.dtd" xmlns:inkscape="http://www.inkscape.org/namespaces/inkscape" width="32px" height="32px" id="svg3505" sodipodi:version="0.32" inkscape:version="0.91 r13725" sodipodi:docname="00.svg" inkscape:output_extension="org.inkscape.output.svg.inkscape" version="1.1">
  <defs id="defs3507">
    <inkscape:perspective sodipodi:type="inkscape:persp3d" inkscape:vp_x="0 : 16 : 1" inkscape:vp_y="0 : 1000 : 0" inkscape:vp_z="32 : 16 : 1" inkscape:persp3d-origin="16 : 10.666667 : 1" id="perspective3513" />
    <inkscape:perspective id="perspective4690" inkscape:persp3d-origin="372.04724 : 350.78739 : 1" inkscape:vp_z="744.09448 : 526.18109 : 1" inkscape:vp_y="0 : 1000 : 0" inkscape:vp_x="0 : 526.18109 : 1" sodipodi:type="inkscape:persp3d" />
    <inkscape:perspective id="perspective2564" inkscape:persp3d-origin="372.04724 : 350.78739 : 1" inkscape:vp_z="744.09448 : 526.18109 : 1" inkscape:vp_y="0 : 1000 : 0" inkscape:vp_x="0 : 526.18109 : 1" sodipodi:type="inkscape:persp3d" />
  </defs>
  <sodipodi:namedview id="base" pagecolor="#ffffff" bordercolor="#666666" borderopacity="1.0" inkscape:pageopacity="0.0" inkscape:pageshadow="2" inkscape:zoom="22.125" inkscape:cx="16" inkscape:cy="16" inkscape:current-layer="layer1" showgrid="true" inkscape:grid-bbox="true" inkscape:document-units="px" objecttolerance="4" gridtolerance="4" guidetolerance="4" inkscape:window-width="1600" inkscape:window-height="878" inkscape:window-x="0" inkscape:window-y="0" inkscape:object-paths="true" inkscape:object-nodes="true" inkscape:snap-bbox="true" inkscape:snap-guide="true" showguides="true" inkscape:guide-bbox="true" inkscape:window-maximized="1">
    <inkscape:grid type="xygrid" id="grid3515" units="px" visible="true" enabled="true" spacingx="1px" spacingy="1px" empspacing="4" />
    <sodipodi:guide orientation="-0.70710678,0.70710678" position="33.245902,33.245902" id="guide3622" />
    <sodipodi:guide orientation="0.70710678,0.70710678" position="0,32" id="guide3624" />
  </sodipodi:namedview>
  <metadata id="metadata3510">
    <rdf:RDF>
      <cc:Work rdf:about="">
        <dc:format>image/svg+xml</dc:format>
        <dc:type rdf:resource="http://purl.org/dc/dcmitype/StillImage" />
        <dc:title>Vorlage f端r 32x32-Pixel-Icons f端r McMinos</dc:title>
        <dc:date>2010-04-05</dc:date>
        <dc:creator>
          <cc:Agent>
            <dc:title>Andreas Neudecker &lt;zapyon@gmx.net&gt;</dc:title>
          </cc:Agent>
        </dc:creator>
        <dc:rights>
          <cc:Agent>
            <dc:title>Copyright (C) 2010 by Andreas Neudecker</dc:title>
          </cc:Agent>
        </dc:rights>
        <dc:publisher>
          <cc:Agent>
            <dc:title>Andreas Neudecker</dc:title>
          </cc:Agent>
        </dc:publisher>
        <dc:identifier>vorlage-32x32-mcminos</dc:identifier>
        <dc:description>Vorlage f端r 32x32-Pixel-Icons f端r McMinos. Metadaten jeweils entsprechend anpassen!</dc:description>
      </cc:Work>
    </rdf:RDF>
  </metadata>
  <g id="layer1" inkscape:label="Layer 1" inkscape:groupmode="layer">
    <g id="g11357">
      <rect y="0" x="0" height="32" width="32" id="rect11355" style="opacity:1;fill:none;fill-opacity:0.50364966;fill-rule:nonzero;stroke:none;stroke-width:2;stroke-linecap:butt;stroke-linejoin:miter;stroke-miterlimit:4;stroke-dasharray:none;stroke-dashoffset:0;stroke-opacity:1" />
      <path id="path3635" d="M 0 3 L 0 6.7304688 A 8 8 0 0 1 5.0019531 4.0722656 A 4 4 0 0 1 5 4 A 4 4 0 0 1 5.1308594 3 L 2.71875 3 L 0 3 z M 12.867188 3 A 4 4 0 0 1 13 4 A 4 4 0 0 1 11.962891 6.6796875 A 8 8 0 0 1 13.015625 8.1738281 A 7.5 7.5 0 0 1 15.423828 3 L 12.867188 3 z M 25.589844 3 A 7.5 7.5 0 0 1 28 8.5 A 7.5 7.5 0 0 1 27.396484 11.443359 A 12 12 0 0 1 29 13.398438 L 29 3 L 26.28125 3 L 25.589844 3 z M 0 17.28125 L 0 26.5 A 4.5 4.5 0 0 1 4.5 22 A 4.5 4.5 0 0 1 7.4042969 23.064453 A 12 12 0 0 1 7 20 A 12 12 0 0 1 7.0039062 19.925781 A 8 8 0 0 1 6 20 A 8 8 0 0 1 0 17.28125 z M 0 26.5 L 0 29 L 0.75976562 29 A 4.5 4.5 0 0 1 0 26.5 z M 8.9941406 26.613281 A 4.5 4.5 0 0 1 8.2324219 29 L 11.091797 29 A 12 12 0 0 1 8.9941406 26.613281 z M 29 26.621094 A 12 12 0 0 1 26.921875 29 L 29 29 L 29 26.621094 z " style="fill:black;fill-opacity:1;fill-rule:nonzero;stroke:none;stroke-width:2;stroke-linecap:round;stroke-linejoin:miter;stroke-miterlimit:4;stroke-dashoffset:0;stroke-opacity:1" />
      <path id="path3648" d="M 0 4 L 0 6.7304688 A 8 8 0 0 1 5.0019531 4.0722656 A 4 4 0 0 1 5 4 L 0 4 z M 13 4 A 4 4 0 0 1 11.962891 6.6796875 A 8 8 0 0 1 13.015625 8.1738281 A 7.5 7.5 0 0 1 14.517578 4 L 13 4 z M 26.488281 4 A 7.5 7.5 0 0 1 28 8.5 L 28 4 L 26.488281 4 z M 28 8.5253906 A 7.5 7.5 0 0 1 27.396484 11.443359 A 12 12 0 0 1 28 12.091797 L 28 8.5253906 z " style="fill:aqua;fill-opacity:1;fill-rule:nonzero;stroke:none;stroke-width:2;stroke-linecap:round;stroke-linejoin:miter;stroke-miterlimit:4;stroke-dasharray:none;stroke-dashoffset:0;stroke-opacity:1" />
      <path id="path3644" d="M 0 17.28125 L 0 26.5 A 4.5 4.5 0 0 1 4.5 22 A 4.5 4.5 0 0 1 7.4042969 23.064453 A 12 12 0 0 1 7 20 A 12 12 0 0 1 7.0039062 19.925781 A 8 8 0 0 1 6 20 A 8 8 0 0 1 0 17.28125 z M 0 26.5 L 0 28 L 0.26367188 28 A 4.5 4.5 0 0 1 0 26.5 z M 8.9941406 26.613281 A 4.5 4.5 0 0 1 8.7324219 28 L 10.083984 28 A 12 12 0 0 1 8.9941406 26.613281 z M 27.960938 27.960938 A 12 12 0 0 1 27.925781 28 L 28 28 L 27.960938 27.960938 z " style="fill:blue;fill-opacity:1;fill-rule:nonzero;stroke:none;stroke-width:2;stroke-linecap:round;stroke-linejoin:miter;stroke-miterlimit:4;stroke-dasharray:none;stroke-dashoffset:0;stroke-opacity:1" />
      <path id="path3626" d="M 0 5 L 0 6 L 0.72265625 6 A 8 8 0 0 1 2.1621094 5 L 0 5 z M 12.867188 5 A 4 4 0 0 1 12.457031 6 L 13.445312 6 A 7.5 7.5 0 0 1 13.880859 5 L 12.867188 5 z M 12.224609 7 A 8 8 0 0 1 12.908203 8 L 13.025391 8 A 7.5 7.5 0 0 1 13.169922 7 L 12.224609 7 z " style="fill:#c3c3c3;fill-opacity:1;fill-rule:nonzero;stroke:none;stroke-width:2;stroke-linecap:round;stroke-linejoin:miter;stroke-miterlimit:4;stroke-dasharray:none;stroke-dashoffset:0;stroke-opacity:1" />
      <path id="path3638" d="M 0 18 L 0 19 L 2.1464844 19 A 8 8 0 0 1 0.72265625 18 L 0 18 z M 0 20 L 0 21 L 7.0527344 21 A 12 12 0 0 1 7 20 L 6 20 L 0 20 z M 0 22 L 0 23 L 1.6777344 23 A 4.5 4.5 0 0 1 4.5 22 L 0 22 z M 4.5078125 22 A 4.5 4.5 0 0 1 7.3203125 23 L 7.3886719 23 A 12 12 0 0 1 7.1855469 22 L 4.5078125 22 z M 0 24 L 0 25 L 0.26367188 25 A 4.5 4.5 0 0 1 0.76171875 24 L 0 24 z M 0 26 L 0 26.5 A 4.5 4.5 0 0 1 0.033203125 26 L 0 26 z M 0 26.5 L 0 27 L 0.03125 27 A 4.5 4.5 0 0 1 0 26.5 z M 8.9941406 26.613281 A 4.5 4.5 0 0 1 8.9628906 27 L 9.2792969 27 A 12 12 0 0 1 8.9941406 26.613281 z " style="fill:#6b6b6b;fill-opacity:1;fill-rule:nonzero;stroke:none;stroke-width:2;stroke-linecap:round;stroke-linejoin:miter;stroke-miterlimit:4;stroke-dasharray:none;stroke-dashoffset:0;stroke-opacity:1" />
    </g>
    <g id="g5562">
      <rect y="0" x="36" height="32" width="32" id="rect5558" style="opacity:1;fill:blue;fill-opacity:0.50196078;fill-rule:nonzero;stroke:none;stroke-width:2;stroke-linecap:butt;stroke-linejoin:miter;stroke-miterlimit:4;stroke-dasharray:none;stroke-dashoffset:0;stroke-opacity:1" />
      <rect style="opacity:1;fill:blue;fill-opacity:0.50196078;fill-rule:nonzero;stroke:none;stroke-width:2;stroke-linecap:butt;stroke-linejoin:miter;stroke-miterlimit:4;stroke-dasharray:none;stroke-dashoffset:0;stroke-opacity:1" id="rect5560" width="26" height="26" x="39" y="3" />
    </g>
    <g id="g5575">
      <path inkscape:connector-curvature="0" id="rect5566" d="m 39,0 0,3 26,0 0,-3 -26,0 z m 26,3 0,26 3,0 0,-26 -3,0 z m 0,26 -26,0 0,3 26,0 0,-3 z m -26,0 0,-26 -3,0 0,26 3,0 z" style="opacity:1;fill:yellow;fill-opacity:0.50196078;fill-rule:nonzero;stroke:none;stroke-width:2;stroke-linecap:butt;stroke-linejoin:miter;stroke-miterlimit:4;stroke-dasharray:none;stroke-dashoffset:0;stroke-opacity:1" />
    </g>
    <circle style="opacity:1;fill:red;fill-opacity:0.50196078;fill-rule:nonzero;stroke:none;stroke-width:2;stroke-linecap:butt;stroke-linejoin:miter;stroke-miterlimit:4;stroke-dasharray:none;stroke-dashoffset:0;stroke-opacity:1" id="path4751" cx="-55" cy="-20" r="12" transform="scale(-1,-1)" />
    <circle r="7.5" cy="-8.5" cx="-56.5" id="circle4753" style="opacity:1;fill:red;fill-opacity:0.50196078;fill-rule:nonzero;stroke:none;stroke-width:2;stroke-linecap:butt;stroke-linejoin:miter;stroke-miterlimit:4;stroke-dasharray:none;stroke-dashoffset:0;stroke-opacity:1" transform="scale(-1,-1)" />
    <circle r="4.5" cy="-26.5" cx="-40.5" id="circle4759" style="opacity:1;fill:red;fill-opacity:0.50196078;fill-rule:nonzero;stroke:none;stroke-width:2;stroke-linecap:butt;stroke-linejoin:miter;stroke-miterlimit:4;stroke-dasharray:none;stroke-dashoffset:0;stroke-opacity:1" transform="scale(-1,-1)" />
    <circle style="opacity:1;fill:red;fill-opacity:0.50196078;fill-rule:nonzero;stroke:none;stroke-width:2;stroke-linecap:butt;stroke-linejoin:miter;stroke-miterlimit:4;stroke-dasharray:none;stroke-dashoffset:0;stroke-opacity:1" id="circle4761" cx="-45" cy="-4" r="4" transform="scale(-1,-1)" />
    <circle style="opacity:1;fill:red;fill-opacity:0.50196078;fill-rule:nonzero;stroke:none;stroke-width:2;stroke-linecap:butt;stroke-linejoin:miter;stroke-miterlimit:4;stroke-dasharray:none;stroke-dashoffset:0;stroke-opacity:1" id="circle4765" cx="-58" cy="-6" r="4" transform="scale(-1,-1)" />
    <circle style="opacity:1;fill:red;fill-opacity:0.50196078;fill-rule:nonzero;stroke:none;stroke-width:2;stroke-linecap:butt;stroke-linejoin:miter;stroke-miterlimit:4;stroke-dasharray:none;stroke-dashoffset:0;stroke-opacity:1" id="circle4769" cx="-62" cy="-18" r="4" transform="scale(-1,-1)" />
    <circle style="opacity:1;fill:red;fill-opacity:0.50196078;fill-rule:nonzero;stroke:none;stroke-width:2;stroke-linecap:butt;stroke-linejoin:miter;stroke-miterlimit:4;stroke-dasharray:none;stroke-dashoffset:0;stroke-opacity:1" id="circle4771" cx="-42" cy="-12" r="8" transform="scale(-1,-1)" />
    <path inkscape:connector-curvature="0" id="path11325" d="m -27,0 a 4,4 0 0 0 -4,4 4,4 0 0 0 0.002,0.072266 A 8,8 0 0 0 -38,12 a 8,8 0 0 0 8,8 8,8 0 0 0 1.003906,-0.07422 A 12,12 0 0 0 -29,20 12,12 0 0 0 -28.595703,23.064453 4.5,4.5 0 0 0 -31.5,22 4.5,4.5 0 0 0 -36,26.5 4.5,4.5 0 0 0 -31.5,31 4.5,4.5 0 0 0 -27.005859,26.613281 12,12 0 0 0 -17,32 12,12 0 0 0 -5,20 12,12 0 0 0 -8.603516,11.443359 7.5,7.5 0 0 0 -8,8.5 7.5,7.5 0 0 0 -15.5,1 7.5,7.5 0 0 0 -22.984375,8.1738281 8,8 0 0 0 -24.037109,6.6796875 4,4 0 0 0 -23,4 4,4 0 0 0 -27,0 Z" style="opacity:1;fill:red;fill-opacity:0.50196078;fill-rule:nonzero;stroke:none;stroke-width:2;stroke-linecap:butt;stroke-linejoin:miter;stroke-miterlimit:4;stroke-dasharray:none;stroke-dashoffset:0;stroke-opacity:1" />
  </g>
</svg>
