<?xml version="1.0" encoding="UTF-8" standalone="no"?>
<!-- Created with Inkscape (http://www.inkscape.org/) -->

<svg
   xmlns:dc="http://purl.org/dc/elements/1.1/"
   xmlns:cc="http://creativecommons.org/ns#"
   xmlns:rdf="http://www.w3.org/1999/02/22-rdf-syntax-ns#"
   xmlns:svg="http://www.w3.org/2000/svg"
   xmlns="http://www.w3.org/2000/svg"
   xmlns:sodipodi="http://sodipodi.sourceforge.net/DTD/sodipodi-0.dtd"
   xmlns:inkscape="http://www.inkscape.org/namespaces/inkscape"
   width="96"
   height="96"
   id="svg3505"
   sodipodi:version="0.32"
   inkscape:version="0.48.5 r10040"
   sodipodi:docname="01.svg"
   inkscape:output_extension="org.inkscape.output.svg.inkscape"
   version="1.1">
  <title
     id="title3074">Ghost Hanky, warp-in</title>
  <defs
     id="defs3507">
    <inkscape:perspective
       sodipodi:type="inkscape:persp3d"
       inkscape:vp_x="0 : 16 : 1"
       inkscape:vp_y="0 : 1000 : 0"
       inkscape:vp_z="32 : 16 : 1"
       inkscape:persp3d-origin="16 : 10.666667 : 1"
       id="perspective3159" />
  </defs>
  <sodipodi:namedview
     id="base"
     pagecolor="#ffffff"
     bordercolor="#666666"
     borderopacity="1.0"
     inkscape:pageopacity="0.0"
     inkscape:pageshadow="2"
     inkscape:zoom="5.4583333"
     inkscape:cx="48"
     inkscape:cy="48"
     inkscape:current-layer="layer1"
     showgrid="true"
     inkscape:grid-bbox="true"
     inkscape:document-units="px"
     objecttolerance="10000"
     gridtolerance="10000"
     guidetolerance="10000"
     inkscape:window-width="1024"
     inkscape:window-height="741"
     inkscape:window-x="0"
     inkscape:window-y="2"
     inkscape:object-paths="true"
     inkscape:object-nodes="true"
     inkscape:snap-bbox="true"
     inkscape:snap-guide="true"
     showguides="true"
     inkscape:guide-bbox="true"
     inkscape:window-maximized="1">
    <inkscape:grid
       type="xygrid"
       id="grid3515"
       units="px"
       visible="true"
       enabled="true"
       spacingx="1px"
       spacingy="1px"
       empspacing="4"
       snapvisiblegridlinesonly="true" />
    <sodipodi:guide
       orientation="1,0"
       position="16,36"
       id="guide3073" />
    <sodipodi:guide
       orientation="0,1"
       position="32,16"
       id="guide3075" />
    <sodipodi:guide
       orientation="-0.70710678,0.70710678"
       position="32,32"
       id="guide3077" />
    <sodipodi:guide
       orientation="0.70710678,0.70710678"
       position="0,96"
       id="guide3079" />
    <sodipodi:guide
       orientation="1,0"
       position="32,96"
       id="guide4470" />
    <sodipodi:guide
       orientation="-0.70710678,0.70710678"
       position="16,16"
       id="guide4472" />
    <sodipodi:guide
       orientation="1,0"
       position="64,96"
       id="guide4474" />
    <sodipodi:guide
       orientation="0,1"
       position="-16,32"
       id="guide4476" />
    <sodipodi:guide
       orientation="0,1"
       position="-20,64"
       id="guide4478" />
  </sodipodi:namedview>
  <metadata
     id="metadata3510">
    <rdf:RDF>
      <cc:Work
         rdf:about="">
        <dc:format>image/svg+xml</dc:format>
        <dc:type
           rdf:resource="http://purl.org/dc/dcmitype/StillImage" />
        <dc:title>Ghost Hanky, warp-in</dc:title>
        <dc:date>2015-10-10</dc:date>
        <dc:creator>
          <cc:Agent>
            <dc:title>Andreas Neudecker &lt;zapyon@gmx.net&gt;</dc:title>
          </cc:Agent>
        </dc:creator>
        <dc:rights>
          <cc:Agent>
            <dc:title>Copyright (C) 2010 by Andreas Neudecker</dc:title>
          </cc:Agent>
        </dc:rights>
        <dc:publisher>
          <cc:Agent>
            <dc:title>Andreas Neudecker</dc:title>
          </cc:Agent>
        </dc:publisher>
        <dc:identifier>ghost-hanky-warp-in-00</dc:identifier>
        <dc:description>Fall back for missing icons.
2015-10-09: going to abuse this as template; added some guides, fixed the grid (4 pixels, not 5)</dc:description>
      </cc:Work>
    </rdf:RDF>
  </metadata>
  <g
     id="layer1"
     inkscape:label="Layer 1"
     inkscape:groupmode="layer"
     transform="translate(0,64)">
    <g
       id="g4505">
      <rect
         transform="translate(0,-64)"
         y="0"
         x="0"
         height="96"
         width="96"
         id="rect4503"
         style="fill:none;fill-opacity:1;stroke:none" />
      <g
         transform="translate(32,-32)"
         id="g4058">
        <path
           inkscape:connector-curvature="0"
           id="path3821"
           d="M 16,1 C 11.584,1 8,4.584 8,9 L 8,10 7,4 C 7,2.344 5.656,1 4,1 2.344,1 1,2.344 1,4 l 0,20 9.75,5.0625 C 12.153893,30.280539 13.996861,31 16,31 c 2.003139,0 3.846107,-0.719461 5.25,-1.9375 L 31,24 31,4 C 31,2.344 29.656,1 28,1 26.344,1 25,2.344 25,4 l -1,6 0,-1 C 24,4.584 20.416,1 16,1 z"
           style="fill:white;fill-opacity:1;fill-rule:nonzero;stroke:black;stroke-width:2;stroke-linecap:round;stroke-linejoin:miter;stroke-miterlimit:4;stroke-opacity:1;stroke-dasharray:none;stroke-dashoffset:0;display:inline"
           sodipodi:nodetypes="ccccscccscccscccc" />
        <path
           inkscape:connector-curvature="0"
           style="fill:white;fill-opacity:1;fill-rule:nonzero;stroke:none;display:inline"
           d="M 16,1 C 11.584,1 8,4.584 8,9 L 7,9 7,4 C 7,2.344 5.656,1 4,1 2.344,1 1,2.344 1,4 l 0,20 9.75,5.0625 C 12.153893,30.280539 13.996861,31 16,31 c 2.003139,0 3.846107,-0.719461 5.25,-1.9375 L 31,24 31,4 C 31,2.344 29.656,1 28,1 26.344,1 25,2.344 25,4 l 0,5 -1,0 C 24,4.584 20.416,1 16,1 z"
           id="path3802"
           sodipodi:nodetypes="ccccscccscccscccc" />
        <path
           sodipodi:type="arc"
           style="fill:black;fill-opacity:0.99356911;fill-rule:nonzero;stroke:none;display:inline"
           id="path3768"
           sodipodi:cx="11.5"
           sodipodi:cy="8.5"
           sodipodi:rx="1.5"
           sodipodi:ry="2.5"
           d="M 13,8.5 C 13,9.8807119 12.328427,11 11.5,11 10.671573,11 10,9.8807119 10,8.5 10,7.1192881 10.671573,6 11.5,6 12.328427,6 13,7.1192881 13,8.5 z"
           transform="matrix(1.4,0,0,1.4,-3.2,-5.4)" />
        <path
           sodipodi:type="arc"
           style="fill:black;fill-opacity:0.99356911;fill-rule:nonzero;stroke:none;display:inline"
           id="path3770"
           sodipodi:cx="16.5"
           sodipodi:cy="8.5"
           sodipodi:rx="1.5"
           sodipodi:ry="2.5"
           d="M 18,8.5 C 18,9.8807119 17.328427,11 16.5,11 15.671573,11 15,9.8807119 15,8.5 15,7.1192881 15.671573,6 16.5,6 17.328427,6 18,7.1192881 18,8.5 z"
           transform="matrix(1.4,0,0,1.4,-4,-5.4)" />
        <path
           inkscape:connector-curvature="0"
           style="fill:silver;fill-opacity:1;fill-rule:nonzero;stroke:none;display:inline"
           d="M 7,4 C 7,5.656 5.656,7 4,7 L 4,8 C 6.2079999,8 7.9999998,6.208 8,4 L 7,4 z"
           id="path3806" />
        <path
           inkscape:connector-curvature="0"
           id="path3809"
           d="m 25,4 c 0,1.656 1.344,3 3,3 l 0,1 C 25.792,8 24,6.208 24,4 l 1,0 z"
           style="fill:silver;fill-opacity:1;fill-rule:nonzero;stroke:none;display:inline" />
        <rect
           style="fill:silver;fill-opacity:1;fill-rule:nonzero;stroke:none;display:inline"
           id="rect6061"
           width="1"
           height="8"
           x="26"
           y="17" />
        <rect
           y="17"
           x="5"
           height="8"
           width="1"
           id="rect6063"
           style="fill:silver;fill-opacity:1;fill-rule:nonzero;stroke:none;display:inline" />
        <rect
           y="20"
           x="22"
           height="7"
           width="1"
           id="rect10110"
           style="fill:silver;fill-opacity:1;fill-rule:nonzero;stroke:none;display:inline" />
        <rect
           style="fill:silver;fill-opacity:1;fill-rule:nonzero;stroke:none;display:inline"
           id="rect10112"
           width="1"
           height="7"
           x="9"
           y="20" />
        <path
           sodipodi:type="arc"
           style="fill:black;fill-opacity:1;stroke:none;display:inline"
           id="path3240"
           sodipodi:cx="16.5"
           sodipodi:cy="15.5"
           sodipodi:rx="3.5"
           sodipodi:ry="3.5"
           d="M 20,15.5 C 20,17.432997 18.432997,19 16.5,19 14.567003,19 13,17.432997 13,15.5 13,13.567003 14.567003,12 16.5,12 c 1.932997,0 3.5,1.567003 3.5,3.5 z"
           transform="matrix(1.1428571,0,0,1.1428571,-2.8571429,-3.7142857)" />
      </g>
    </g>
  </g>
</svg>
