<?xml version="1.0" encoding="UTF-8" standalone="no"?>
<!-- Created with Inkscape (http://www.inkscape.org/) -->

<svg
   xmlns:dc="http://purl.org/dc/elements/1.1/"
   xmlns:cc="http://creativecommons.org/ns#"
   xmlns:rdf="http://www.w3.org/1999/02/22-rdf-syntax-ns#"
   xmlns:svg="http://www.w3.org/2000/svg"
   xmlns="http://www.w3.org/2000/svg"
   xmlns:sodipodi="http://sodipodi.sourceforge.net/DTD/sodipodi-0.dtd"
   xmlns:inkscape="http://www.inkscape.org/namespaces/inkscape"
   width="64"
   height="64"
   id="svg3505"
   sodipodi:version="0.32"
   inkscape:version="0.47 r22583"
   sodipodi:docname="02.svg"
   inkscape:output_extension="org.inkscape.output.svg.inkscape"
   version="1.1">
  <defs
     id="defs3507">
    <inkscape:perspective
       sodipodi:type="inkscape:persp3d"
       inkscape:vp_x="0 : 16 : 1"
       inkscape:vp_y="0 : 1000 : 0"
       inkscape:vp_z="32 : 16 : 1"
       inkscape:persp3d-origin="16 : 10.666667 : 1"
       id="perspective3303" />
  </defs>
  <sodipodi:namedview
     id="base"
     pagecolor="#ffffff"
     bordercolor="#666666"
     borderopacity="1.0"
     inkscape:pageopacity="0.0"
     inkscape:pageshadow="2"
     inkscape:zoom="9.359375"
     inkscape:cx="32"
     inkscape:cy="32"
     inkscape:current-layer="layer1"
     showgrid="true"
     inkscape:grid-bbox="true"
     inkscape:document-units="px"
     objecttolerance="4"
     gridtolerance="4"
     guidetolerance="4"
     inkscape:window-width="1600"
     inkscape:window-height="840"
     inkscape:window-x="0"
     inkscape:window-y="0"
     inkscape:object-paths="true"
     inkscape:object-nodes="true"
     inkscape:snap-bbox="true"
     inkscape:snap-guide="true"
     showguides="true"
     inkscape:guide-bbox="true"
     inkscape:window-maximized="1">
    <inkscape:grid
       type="xygrid"
       id="grid3515"
       units="px"
       visible="true"
       enabled="true"
       spacingx="1px"
       spacingy="1px"
       empspacing="4"
       snapvisiblegridlinesonly="true" />
  </sodipodi:namedview>
  <metadata
     id="metadata3510">
    <rdf:RDF>
      <cc:Work
         rdf:about="">
        <dc:format>image/svg+xml</dc:format>
        <dc:type
           rdf:resource="http://purl.org/dc/dcmitype/StillImage" />
        <dc:title></dc:title>
        <dc:date>2010-08-05</dc:date>
        <dc:creator>
          <cc:Agent>
            <dc:title>Andreas Neudecker &lt;zapyon@gmx.net&gt;</dc:title>
          </cc:Agent>
        </dc:creator>
        <dc:rights>
          <cc:Agent>
            <dc:title>Copyright (C) 2010 by Andreas Neudecker</dc:title>
          </cc:Agent>
        </dc:rights>
        <dc:publisher>
          <cc:Agent>
            <dc:title>Andreas Neudecker</dc:title>
          </cc:Agent>
        </dc:publisher>
        <dc:identifier>bomb-fused-02</dc:identifier>
        <dc:description>Bomb, fused</dc:description>
      </cc:Work>
    </rdf:RDF>
  </metadata>
  <g
     id="layer1"
     inkscape:label="Layer 1"
     inkscape:groupmode="layer"
     transform="translate(0,32)">
    <g
       id="g4311"
       transform="translate(31.987436,0)">
      <path
         style="fill:#ffff00;fill-opacity:1;fill-rule:nonzero;stroke:#000000;stroke-width:2;stroke-miterlimit:4;stroke-opacity:1;stroke-dasharray:none"
         d="M 3,5 3,8 2,9 4,10 5,11 5,10 8,8 5,8 3,5 z"
         id="path4098"
         sodipodi:nodetypes="ccccccccc" />
      <path
         sodipodi:nodetypes="cccccccssscccccccc"
         id="path3196"
         d="m 14.012564,4 -1,0 0,1 0,4 0,1 1,0 0.21875,0 c -4.195352,1.715135 -7.2187504,5.698663 -7.2187504,10.5 0,6.337063 5.1629374,11.5 11.5000004,11.5 6.337063,0 11.5,-5.162937 11.5,-11.5 0,-4.801337 -3.023398,-8.784865 -7.21875,-10.5 l 0.21875,0 1,0 0,-1 0,-4 0,-1 -1,0 -9,0 z"
         style="fill:#000000;fill-opacity:1;fill-rule:nonzero;stroke:none" />
      <path
         sodipodi:nodetypes="czzzcc"
         id="path2402"
         d="m 18.600443,5 c 0,-1.0020874 -0.203136,-1.526652 -0.587879,-2 -0.384743,-0.473348 -1.276783,-0.8886685 -2,-1 -0.723218,-0.1113315 -2.915551,-0.2937645 -4,0.3535354 C 10.928115,3.0008352 9.5167846,4.2740117 8.4058287,5.4550371 7.1501676,6.8700529 4,9 4,9"
         style="fill:none;stroke:#e00000;stroke-width:1;stroke-linecap:round;stroke-linejoin:round;stroke-miterlimit:4;stroke-opacity:1;stroke-dasharray:none;stroke-dashoffset:0" />
      <path
         transform="translate(-0.9874364,-1)"
         d="M 30,21.5 C 30,27.29899 25.29899,32 19.5,32 13.70101,32 9,27.29899 9,21.5 9,15.70101 13.70101,11 19.5,11 25.29899,11 30,15.70101 30,21.5 z"
         sodipodi:ry="10.5"
         sodipodi:rx="10.5"
         sodipodi:cy="21.5"
         sodipodi:cx="19.5"
         id="path2394"
         style="fill:#808080;fill-opacity:1;fill-rule:nonzero;stroke:none"
         sodipodi:type="arc" />
      <rect
         y="9"
         x="16.012564"
         height="2"
         width="5"
         id="rect2398"
         style="fill:#909090;fill-opacity:1;fill-rule:nonzero;stroke:none" />
      <path
         id="path4123"
         d="M 14.125,1.40625 C 13.310705,1.4287501 12.437302,1.5272546 11.75,1.9375 10.581724,2.6348355 9.1641301,3.9206676 8.03125,5.125 6.8858137,6.4158025 3.71875,8.59375 3.71875,8.59375 a 0.50005,0.50005 0 1 0 0.5625,0.8125 c 0,0 3.095968,-2.0872304 4.46875,-3.625 L 8.78125,5.8125 c 1.0890317,-1.1577184 2.499378,-2.4339859 3.5,-3.03125 0.397147,-0.2370545 1.141212,-0.3547245 1.875,-0.375 C 14.890038,2.385975 15.61039,2.449645 15.9375,2.5 16.537009,2.592288 17.388556,3.0216037 17.625,3.3125 17.950035,3.7123897 18.09375,4.0654836 18.09375,5 a 0.50005,0.50005 0 1 0 1,0 c 0,-1.0696584 -0.243049,-1.7656937 -0.6875,-2.3125 C 17.873208,2.0317003 16.940675,1.630375 16.09375,1.5 15.697642,1.4390236 14.939295,1.3837499 14.125,1.40625 z"
         style="font-size:medium;font-style:normal;font-variant:normal;font-weight:normal;font-stretch:normal;text-indent:0;text-align:start;text-decoration:none;line-height:normal;letter-spacing:normal;word-spacing:normal;text-transform:none;direction:ltr;block-progression:tb;writing-mode:lr-tb;text-anchor:start;color:#000000;fill:none;stroke:#000000;stroke-width:2;stroke-miterlimit:4;stroke-opacity:1;stroke-dasharray:none;marker:none;visibility:visible;display:inline;overflow:visible;enable-background:accumulate;font-family:Bitstream Vera Sans;-inkscape-font-specification:Bitstream Vera Sans" />
      <path
         style="fill:none;stroke:#e00000;stroke-width:1;stroke-linecap:round;stroke-linejoin:round;stroke-miterlimit:4;stroke-opacity:1;stroke-dasharray:none;stroke-dashoffset:0"
         d="m 18.600443,5 c 0,-1.0020874 -0.203136,-1.526652 -0.587879,-2 -0.384743,-0.473348 -1.276783,-0.8886685 -2,-1 -0.723218,-0.1113315 -2.915551,-0.2937645 -4,0.3535354 C 10.928115,3.0008352 9.5167846,4.2740117 8.4058287,5.4550371 7.1501676,6.8700529 4,9 4,9"
         id="path4121"
         sodipodi:nodetypes="czzzcc" />
      <path
         sodipodi:nodetypes="ccccccccc"
         id="path4094"
         d="M 3,5 3,8 2,9 4,10 5,11 5,10 8,8 5,8 3,5 z"
         style="fill:#ffff00;fill-opacity:1;fill-rule:nonzero;stroke:none" />
      <rect
         y="5"
         x="14.012564"
         height="4"
         width="9"
         id="rect2400"
         style="fill:#909090;fill-opacity:1;fill-rule:nonzero;stroke:none" />
      <path
         inkscape:transform-center-x="1.5368965"
         inkscape:transform-center-y="1.5368963"
         id="path3179"
         d="m 11.087943,13.075379 c -4.0983915,4.098391 -4.0983915,10.750851 0,14.849242 4.098391,4.098391 10.750851,4.098391 14.849242,0 C 23.400087,30.46172 18.014761,29.194585 13.91637,25.096194 9.8179796,20.997802 8.5508433,15.612478 11.087943,13.075379 z"
         style="fill:#606060;fill-opacity:1;fill-rule:nonzero;stroke:none" />
      <path
         id="path3190"
         d="m 16.012564,9 0,2 2,0 -1,-2 -1,0 z"
         style="fill:#606060;fill-opacity:1;fill-rule:nonzero;stroke:none" />
      <path
         inkscape:transform-center-x="-1.536897"
         style="fill:#909090;fill-opacity:1;fill-rule:nonzero;stroke:none"
         d="m 25.937185,27.924621 c 4.098391,-4.098391 4.098391,-10.750851 0,-14.849242 -4.098391,-4.0983911 -10.750851,-4.0983911 -14.849242,0 2.537098,-2.537099 7.922424,-1.269964 12.020815,2.828427 4.09839,4.098392 5.365526,9.483716 2.828427,12.020815 z"
         id="path3184"
         inkscape:transform-center-y="-1.5368969" />
      <path
         id="path3186"
         d="m 14.012564,5 0,4 4,0 -2,-4 -2,0 z"
         style="fill:#606060;fill-opacity:1;fill-rule:nonzero;stroke:none" />
      <rect
         y="8"
         x="16.337816"
         height="1"
         width="6.6747475"
         id="rect3192"
         style="fill:#606060;fill-opacity:1;fill-rule:nonzero;stroke:none" />
      <path
         id="path3231"
         d="m 20.700064,12.28125 -1.03125,3.875 c 1.599574,0.428604 2.758896,1.587927 3.1875,3.1875 l 3.875,-1.03125 c -0.809586,-3.021415 -3.009835,-5.221664 -6.03125,-6.03125 z"
         style="fill:#c0c0c0;fill-opacity:1;fill-rule:nonzero;stroke:none" />
    </g>
  </g>
</svg>
