<?xml version="1.0" encoding="UTF-8" standalone="no"?>
<!-- Created with Inkscape (http://www.inkscape.org/) -->

<svg
   xmlns:dc="http://purl.org/dc/elements/1.1/"
   xmlns:cc="http://creativecommons.org/ns#"
   xmlns:rdf="http://www.w3.org/1999/02/22-rdf-syntax-ns#"
   xmlns:svg="http://www.w3.org/2000/svg"
   xmlns="http://www.w3.org/2000/svg"
   xmlns:sodipodi="http://sodipodi.sourceforge.net/DTD/sodipodi-0.dtd"
   xmlns:inkscape="http://www.inkscape.org/namespaces/inkscape"
   width="64"
   height="64"
   id="svg3505"
   sodipodi:version="0.32"
   inkscape:version="0.47 r22583"
   sodipodi:docname="15.svg"
   inkscape:output_extension="org.inkscape.output.svg.inkscape"
   version="1.1">
  <defs
     id="defs3507">
    <inkscape:perspective
       sodipodi:type="inkscape:persp3d"
       inkscape:vp_x="0 : 16 : 1"
       inkscape:vp_y="0 : 1000 : 0"
       inkscape:vp_z="32 : 16 : 1"
       inkscape:persp3d-origin="16 : 10.666667 : 1"
       id="perspective3303" />
    <inkscape:perspective
       id="perspective7342"
       inkscape:persp3d-origin="0.5 : 0.33333333 : 1"
       inkscape:vp_z="1 : 0.5 : 1"
       inkscape:vp_y="0 : 1000 : 0"
       inkscape:vp_x="0 : 0.5 : 1"
       sodipodi:type="inkscape:persp3d" />
    <inkscape:perspective
       id="perspective7998"
       inkscape:persp3d-origin="0.5 : 0.33333333 : 1"
       inkscape:vp_z="1 : 0.5 : 1"
       inkscape:vp_y="0 : 1000 : 0"
       inkscape:vp_x="0 : 0.5 : 1"
       sodipodi:type="inkscape:persp3d" />
  </defs>
  <sodipodi:namedview
     id="base"
     pagecolor="#ffffff"
     bordercolor="#666666"
     borderopacity="1.0"
     inkscape:pageopacity="0.0"
     inkscape:pageshadow="2"
     inkscape:zoom="37.4375"
     inkscape:cx="54.234342"
     inkscape:cy="29.496472"
     inkscape:current-layer="layer1"
     showgrid="true"
     inkscape:grid-bbox="true"
     inkscape:document-units="px"
     objecttolerance="4"
     gridtolerance="4"
     guidetolerance="4"
     inkscape:window-width="1600"
     inkscape:window-height="840"
     inkscape:window-x="0"
     inkscape:window-y="0"
     inkscape:object-paths="true"
     inkscape:object-nodes="true"
     inkscape:snap-bbox="true"
     inkscape:snap-guide="true"
     showguides="true"
     inkscape:guide-bbox="true"
     inkscape:window-maximized="1">
    <inkscape:grid
       type="xygrid"
       id="grid3515"
       units="px"
       visible="true"
       enabled="true"
       spacingx="1px"
       spacingy="1px"
       empspacing="4"
       snapvisiblegridlinesonly="true" />
    <sodipodi:guide
       orientation="1,0"
       position="32,32"
       id="guide11493" />
    <sodipodi:guide
       orientation="1,0"
       position="64,64"
       id="guide11497" />
    <sodipodi:guide
       orientation="0,1"
       position="32,64"
       id="guide11499" />
  </sodipodi:namedview>
  <metadata
     id="metadata3510">
    <rdf:RDF>
      <cc:Work
         rdf:about="">
        <dc:format>image/svg+xml</dc:format>
        <dc:type
           rdf:resource="http://purl.org/dc/dcmitype/StillImage" />
        <dc:title />
        <dc:date>2010-08-05</dc:date>
        <dc:creator>
          <cc:Agent>
            <dc:title>Andreas Neudecker &lt;zapyon@gmx.net&gt;</dc:title>
          </cc:Agent>
        </dc:creator>
        <dc:rights>
          <cc:Agent>
            <dc:title>Copyright (C) 2010 by Andreas Neudecker</dc:title>
          </cc:Agent>
        </dc:rights>
        <dc:publisher>
          <cc:Agent>
            <dc:title>Andreas Neudecker</dc:title>
          </cc:Agent>
        </dc:publisher>
        <dc:identifier>bomb-fused-15</dc:identifier>
        <dc:description>Bomb, fused</dc:description>
      </cc:Work>
    </rdf:RDF>
  </metadata>
  <g
     id="layer1"
     inkscape:label="Layer 1"
     inkscape:groupmode="layer"
     transform="translate(0,32)">
    <path
       style="fill:#000000;fill-opacity:1;fill-rule:nonzero;stroke:none"
       d="m 46,4 -1,0 0,1 0,4 0,1 1,0 0.21875,0 C 42.023398,11.715135 39,15.698663 39,20.5 39,26.837063 44.162937,32 50.5,32 56.837063,32 62,26.837063 62,20.5 62,15.698663 58.976602,11.715135 54.78125,10 L 55,10 l 1,0 0,-1 0,-4 0,-1 -1,0 -9,0 z"
       id="path3196"
       sodipodi:nodetypes="cccccccssscccccccc" />
    <path
       sodipodi:type="arc"
       style="fill:#808080;fill-opacity:1;fill-rule:nonzero;stroke:none"
       id="path2394"
       sodipodi:cx="19.5"
       sodipodi:cy="21.5"
       sodipodi:rx="10.5"
       sodipodi:ry="10.5"
       d="M 30,21.5 C 30,27.29899 25.29899,32 19.5,32 13.70101,32 9,27.29899 9,21.5 9,15.70101 13.70101,11 19.5,11 25.29899,11 30,15.70101 30,21.5 z"
       transform="translate(31,-1)" />
    <rect
       style="fill:#909090;fill-opacity:1;fill-rule:nonzero;stroke:none"
       id="rect2398"
       width="5"
       height="2"
       x="48"
       y="9" />
    <path
       sodipodi:nodetypes="ccccccccc"
       id="path11651"
       d="m 56,4 -3,-3 0,-4 -3,3 -4,-2 2,3 -3,3 5,-1 6,1 z"
       style="fill:#ffff00;fill-opacity:1;fill-rule:nonzero;stroke:#000000;stroke-opacity:1;stroke-width:2;stroke-miterlimit:4;stroke-dasharray:none" />
    <path
       sodipodi:nodetypes="cz"
       id="path4121"
       d="M 50.587879,5 C 50.587879,3.9979126 50.384743,3.473348 50,3"
       style="fill:none;stroke:#e00000;stroke-width:1;stroke-linecap:round;stroke-linejoin:round;stroke-miterlimit:4;stroke-opacity:1;stroke-dasharray:none;stroke-dashoffset:0" />
    <rect
       style="fill:#909090;fill-opacity:1;fill-rule:nonzero;stroke:none"
       id="rect2400"
       width="9"
       height="4"
       x="46"
       y="5" />
    <path
       style="fill:#606060;fill-opacity:1;fill-rule:nonzero;stroke:none"
       d="m 43.075379,13.075379 c -4.098391,4.098391 -4.098391,10.750851 0,14.849242 4.098391,4.098391 10.750851,4.098391 14.849242,0 -2.537098,2.537099 -7.922424,1.269964 -12.020815,-2.828427 -4.09839,-4.098392 -5.365527,-9.483716 -2.828427,-12.020815 z"
       id="path3179"
       inkscape:transform-center-y="1.5368963"
       inkscape:transform-center-x="1.5368965" />
    <path
       style="fill:#606060;fill-opacity:1;fill-rule:nonzero;stroke:none"
       d="m 48,9 0,2 2,0 -1,-2 -1,0 z"
       id="path3190" />
    <path
       inkscape:transform-center-y="-1.5368969"
       id="path3184"
       d="m 57.924621,27.924621 c 4.098391,-4.098391 4.098391,-10.750851 0,-14.849242 -4.098391,-4.0983911 -10.750851,-4.0983911 -14.849242,0 2.537098,-2.537099 7.922424,-1.269964 12.020815,2.828427 4.09839,4.098392 5.365526,9.483716 2.828427,12.020815 z"
       style="fill:#909090;fill-opacity:1;fill-rule:nonzero;stroke:none"
       inkscape:transform-center-x="-1.536897" />
    <path
       style="fill:#606060;fill-opacity:1;fill-rule:nonzero;stroke:none"
       d="m 46,5 0,4 4,0 -2,-4 -2,0 z"
       id="path3186" />
    <rect
       style="fill:#606060;fill-opacity:1;fill-rule:nonzero;stroke:none"
       id="rect3192"
       width="6.6747475"
       height="1"
       x="48.325253"
       y="8" />
    <path
       style="fill:#c0c0c0;fill-opacity:1;fill-rule:nonzero;stroke:none"
       d="m 52.6875,12.28125 -1.03125,3.875 c 1.599574,0.428604 2.758896,1.587927 3.1875,3.1875 l 3.875,-1.03125 C 57.909164,15.291085 55.708915,13.090836 52.6875,12.28125 z"
       id="path3231" />
    <path
       style="fill:#ffff00;fill-opacity:1;fill-rule:nonzero;stroke:none"
       d="m 56,4 -3,-3 0,-4 -3,3 -4,-2 2,3 -3,3 5,-1 6,1 z"
       id="path4094-3"
       sodipodi:nodetypes="ccccccccc" />
  </g>
</svg>
