<?xml version="1.0" encoding="UTF-8" standalone="no"?>
<!-- Created with Inkscape (http://www.inkscape.org/) -->

<svg
   xmlns:dc="http://purl.org/dc/elements/1.1/"
   xmlns:cc="http://creativecommons.org/ns#"
   xmlns:rdf="http://www.w3.org/1999/02/22-rdf-syntax-ns#"
   xmlns:svg="http://www.w3.org/2000/svg"
   xmlns="http://www.w3.org/2000/svg"
   xmlns:sodipodi="http://sodipodi.sourceforge.net/DTD/sodipodi-0.dtd"
   xmlns:inkscape="http://www.inkscape.org/namespaces/inkscape"
   width="32px"
   height="32px"
   id="svg3505"
   sodipodi:version="0.32"
   inkscape:version="0.47 r22583"
   sodipodi:docname="03.svg"
   inkscape:output_extension="org.inkscape.output.svg.inkscape"
   version="1.1"
   inkscape:export-filename="/home/andreas/Dokumente/Projekte/McMinos/svg/mcminos/poisoned/front/03.png"
   inkscape:export-xdpi="135"
   inkscape:export-ydpi="135">
  <defs
     id="defs3507">
    <inkscape:perspective
       sodipodi:type="inkscape:persp3d"
       inkscape:vp_x="0 : 16 : 1"
       inkscape:vp_y="0 : 1000 : 0"
       inkscape:vp_z="32 : 16 : 1"
       inkscape:persp3d-origin="16 : 10.666667 : 1"
       id="perspective3513" />
    <inkscape:perspective
       id="perspective4690"
       inkscape:persp3d-origin="372.04724 : 350.78739 : 1"
       inkscape:vp_z="744.09448 : 526.18109 : 1"
       inkscape:vp_y="0 : 1000 : 0"
       inkscape:vp_x="0 : 526.18109 : 1"
       sodipodi:type="inkscape:persp3d" />
    <inkscape:perspective
       id="perspective4609"
       inkscape:persp3d-origin="0.5 : 0.33333333 : 1"
       inkscape:vp_z="1 : 0.5 : 1"
       inkscape:vp_y="0 : 1000 : 0"
       inkscape:vp_x="0 : 0.5 : 1"
       sodipodi:type="inkscape:persp3d" />
    <inkscape:perspective
       id="perspective2837"
       inkscape:persp3d-origin="0.5 : 0.33333333 : 1"
       inkscape:vp_z="1 : 0.5 : 1"
       inkscape:vp_y="0 : 1000 : 0"
       inkscape:vp_x="0 : 0.5 : 1"
       sodipodi:type="inkscape:persp3d" />
  </defs>
  <sodipodi:namedview
     id="base"
     pagecolor="#ffffff"
     bordercolor="#666666"
     borderopacity="1.0"
     inkscape:pageopacity="0.0"
     inkscape:pageshadow="2"
     inkscape:zoom="18.71875"
     inkscape:cx="16"
     inkscape:cy="16"
     inkscape:current-layer="layer1"
     showgrid="true"
     inkscape:grid-bbox="true"
     inkscape:document-units="px"
     objecttolerance="4"
     gridtolerance="4"
     guidetolerance="4"
     inkscape:window-width="1600"
     inkscape:window-height="840"
     inkscape:window-x="0"
     inkscape:window-y="0"
     inkscape:object-paths="true"
     inkscape:object-nodes="true"
     inkscape:snap-bbox="true"
     inkscape:snap-guide="true"
     inkscape:window-maximized="1">
    <inkscape:grid
       type="xygrid"
       id="grid3515"
       units="px"
       visible="true"
       enabled="true"
       spacingx="1px"
       spacingy="1px" />
  </sodipodi:namedview>
  <metadata
     id="metadata3510">
    <rdf:RDF>
      <cc:Work
         rdf:about="">
        <dc:format>image/svg+xml</dc:format>
        <dc:type
           rdf:resource="http://purl.org/dc/dcmitype/StillImage" />
        <dc:title>McMinos, poisoned, front view</dc:title>
        <dc:date>2010-08-11</dc:date>
        <dc:creator>
          <cc:Agent>
            <dc:title>Andreas Neudecker &lt;zapyon@gmx.net&gt;</dc:title>
          </cc:Agent>
        </dc:creator>
        <dc:rights>
          <cc:Agent>
            <dc:title>Copyright (C) 2010 by Andreas Neudecker</dc:title>
          </cc:Agent>
        </dc:rights>
        <dc:publisher>
          <cc:Agent>
            <dc:title>Andreas Neudecker</dc:title>
          </cc:Agent>
        </dc:publisher>
        <dc:identifier>mcminos-poisoned-front-03</dc:identifier>
        <dc:description>McMinos poisoned, frontal, animation step 01.</dc:description>
      </cc:Work>
    </rdf:RDF>
  </metadata>
  <g
     id="layer1"
     inkscape:label="Layer 1"
     inkscape:groupmode="layer">
    <path
       sodipodi:type="arc"
       style="fill:#bf4040;fill-opacity:1;fill-rule:nonzero;stroke:none"
       id="path3403"
       sodipodi:cx="7.9652176"
       sodipodi:cy="8"
       sodipodi:rx="6.9913044"
       sodipodi:ry="6.9913044"
       d="M 14.956522,8 A 6.9913044,6.9913044 0 1 1 0.97391319,8 6.9913044,6.9913044 0 1 1 14.956522,8 z"
       transform="matrix(2.0024876,0,0,2.0024876,0.04975091,-0.0199008)" />
    <path
       id="path3636"
       style="fill:none;stroke:#000000;stroke-width:1;stroke-linecap:round;stroke-linejoin:round;stroke-miterlimit:4;stroke-opacity:1;stroke-dasharray:none;stroke-dashoffset:0"
       d="m 28,18 c -2.006523,0 -1.990913,-2 -4,-2 -2.009087,0 -2.011014,4.004642 -4,4 -1.988986,-0.0046 -1.990843,-3.9578 -4,-4 -2.009158,-0.0422 -2.014788,4.004167 -4,4 -1.985212,-0.0042 -1.981638,-4 -4,-4 -2.0183617,0 -1.9557563,2 -4,2"
       sodipodi:nodetypes="czzzzzz" />
    <path
       style="fill:#000000;fill-opacity:1;fill-rule:nonzero;stroke:none;stroke-width:1;stroke-linecap:butt;stroke-linejoin:miter;stroke-miterlimit:4;stroke-dasharray:none;stroke-dashoffset:0;stroke-opacity:1"
       d="M 16 1 C 7.7157284 1 1 7.7157285 1 16 C 1 24.284272 7.7157284 31 16 31 C 24.284272 31 31 24.284272 31 16 C 31 7.7157285 24.284272 1 16 1 z M 16 2 C 23.731987 2 30 8.2680133 30 16 C 30 23.731987 23.731987 30 16 30 C 8.2680133 30 2 23.731987 2 16 C 2 8.2680133 8.2680133 2 16 2 z "
       id="path4818" />
    <path
       d="M 10,5 A 2,2 0 1 1 6,5 2,2 0 1 1 10,5 z"
       sodipodi:ry="2"
       sodipodi:rx="2"
       sodipodi:cy="5"
       sodipodi:cx="8"
       id="path3618"
       style="fill:#00ff00;fill-opacity:1;fill-rule:nonzero;stroke:none"
       sodipodi:type="arc"
       transform="matrix(2.4999974,0,0,2.4999974,-10.999979,-2.4999924)" />
    <path
       sodipodi:type="arc"
       style="fill:#ffffff;fill-opacity:1;fill-rule:nonzero;stroke:none"
       id="path3429"
       sodipodi:cx="28.15704"
       sodipodi:cy="51.823883"
       sodipodi:rx="4.1570387"
       sodipodi:ry="3.8238845"
       d="m 32.314078,51.823883 a 4.1570387,3.8238845 0 1 1 -8.314077,0"
       transform="matrix(3.127226,0,0,-1.8245378e-6,-72.053427,16.000102)"
       sodipodi:start="0"
       sodipodi:end="3.1415927"
       sodipodi:open="true" />
    <path
       transform="matrix(2,0,0,2,-6.9999998,-5.2e-6)"
       sodipodi:type="arc"
       style="fill:#0000ff;fill-opacity:1;fill-rule:nonzero;stroke:none"
       id="path3407"
       sodipodi:cx="8"
       sodipodi:cy="5"
       sodipodi:rx="2"
       sodipodi:ry="2"
       d="M 10,5 A 2,2 0 1 1 6,5 2,2 0 1 1 10,5 z" />
    <path
       transform="matrix(2.5000026,0,0,2.5000026,2.9999795,-2.500018)"
       sodipodi:type="arc"
       style="fill:#00ff00;fill-opacity:1;fill-rule:nonzero;stroke:none"
       id="path3620"
       sodipodi:cx="8"
       sodipodi:cy="5"
       sodipodi:rx="2"
       sodipodi:ry="2"
       d="M 10,5 A 2,2 0 1 1 6,5 2,2 0 1 1 10,5 z" />
    <path
       d="M 10,5 A 2,2 0 1 1 6,5 2,2 0 1 1 10,5 z"
       sodipodi:ry="2"
       sodipodi:rx="2"
       sodipodi:cy="5"
       sodipodi:cx="8"
       id="path3425"
       style="fill:#0000ff;fill-opacity:1;fill-rule:nonzero;stroke:none"
       sodipodi:type="arc"
       transform="matrix(2,0,0,2,7,-5.2e-6)" />
    <path
       sodipodi:end="6.2831853"
       sodipodi:start="3.1415927"
       transform="matrix(3.3677824,0,0,1.7603396e-6,-78.82678,15.999905)"
       d="m 24.000001,51.823883 a 4.1570387,0.76477689 0 0 1 8.314077,0"
       sodipodi:ry="0.76477689"
       sodipodi:rx="4.1570387"
       sodipodi:cy="51.823883"
       sodipodi:cx="28.15704"
       id="path3443"
       style="fill:#ffffff;fill-opacity:1;fill-rule:nonzero;stroke:none"
       sodipodi:type="arc"
       sodipodi:open="true" />
    <path
       d="M 10,5 A 2,2 0 1 1 6,5 2,2 0 1 1 10,5 z"
       sodipodi:ry="2"
       sodipodi:rx="2"
       sodipodi:cy="5"
       sodipodi:cx="8"
       id="path3606"
       style="fill:#00ff00;fill-opacity:1;fill-rule:nonzero;stroke:none"
       sodipodi:type="arc"
       transform="matrix(1.4999974,0,0,1.4999974,-2.9999793,2.5000078)" />
    <path
       transform="matrix(1.4999974,0,0,1.4999974,11.00002,2.5000078)"
       sodipodi:type="arc"
       style="fill:#00ff00;fill-opacity:1;fill-rule:nonzero;stroke:none"
       id="path3608"
       sodipodi:cx="8"
       sodipodi:cy="5"
       sodipodi:rx="2"
       sodipodi:ry="2"
       d="M 10,5 A 2,2 0 1 1 6,5 2,2 0 1 1 10,5 z" />
    <path
       d="M 10,5 A 2,2 0 1 1 6,5 2,2 0 1 1 10,5 z"
       sodipodi:ry="2"
       sodipodi:rx="2"
       sodipodi:cy="5"
       sodipodi:cx="8"
       id="path3610"
       style="fill:#0000ff;fill-opacity:1;fill-rule:nonzero;stroke:none"
       sodipodi:type="arc"
       transform="matrix(0.99999744,0,0,0.99999744,1.0000207,5.0000078)" />
    <path
       transform="matrix(0.4999974,0,0,0.4999974,5.0000208,7.5000078)"
       sodipodi:type="arc"
       style="fill:#00ff00;fill-opacity:1;fill-rule:nonzero;stroke:none"
       id="path3612"
       sodipodi:cx="8"
       sodipodi:cy="5"
       sodipodi:rx="2"
       sodipodi:ry="2"
       d="M 10,5 A 2,2 0 1 1 6,5 2,2 0 1 1 10,5 z" />
    <path
       transform="matrix(0.99999744,0,0,0.99999744,15.000029,5.0000128)"
       sodipodi:type="arc"
       style="fill:#0000ff;fill-opacity:1;fill-rule:nonzero;stroke:none"
       id="path3614"
       sodipodi:cx="8"
       sodipodi:cy="5"
       sodipodi:rx="2"
       sodipodi:ry="2"
       d="M 10,5 A 2,2 0 1 1 6,5 2,2 0 1 1 10,5 z" />
    <path
       d="M 10,5 A 2,2 0 1 1 6,5 2,2 0 1 1 10,5 z"
       sodipodi:ry="2"
       sodipodi:rx="2"
       sodipodi:cy="5"
       sodipodi:cx="8"
       id="path3616"
       style="fill:#00ff00;fill-opacity:1;fill-rule:nonzero;stroke:none"
       sodipodi:type="arc"
       transform="matrix(0.4999974,0,0,0.4999974,19.000029,7.5000128)" />
  </g>
</svg>
