<?xml version="1.0" encoding="UTF-8" standalone="no"?>
<!-- Created with Inkscape (http://www.inkscape.org/) -->

<svg
   xmlns:dc="http://purl.org/dc/elements/1.1/"
   xmlns:cc="http://creativecommons.org/ns#"
   xmlns:rdf="http://www.w3.org/1999/02/22-rdf-syntax-ns#"
   xmlns:svg="http://www.w3.org/2000/svg"
   xmlns="http://www.w3.org/2000/svg"
   xmlns:sodipodi="http://sodipodi.sourceforge.net/DTD/sodipodi-0.dtd"
   xmlns:inkscape="http://www.inkscape.org/namespaces/inkscape"
   width="32px"
   height="32px"
   id="svg3505"
   sodipodi:version="0.32"
   inkscape:version="0.48.5 r10040"
   sodipodi:docname="00.svg"
   inkscape:output_extension="org.inkscape.output.svg.inkscape"
   inkscape:export-filename="/home/andreas/Dokumente/Projekte/McMinos/svg/pills/cookie-m-00-x64.png"
   inkscape:export-xdpi="180"
   inkscape:export-ydpi="180"
   version="1.1">
  <defs
     id="defs3507">
    <inkscape:perspective
       sodipodi:type="inkscape:persp3d"
       inkscape:vp_x="0 : 16 : 1"
       inkscape:vp_y="0 : 1000 : 0"
       inkscape:vp_z="32 : 16 : 1"
       inkscape:persp3d-origin="16 : 10.666667 : 1"
       id="perspective3513" />
    <inkscape:perspective
       id="perspective4690"
       inkscape:persp3d-origin="372.04724 : 350.78739 : 1"
       inkscape:vp_z="744.09448 : 526.18109 : 1"
       inkscape:vp_y="0 : 1000 : 0"
       inkscape:vp_x="0 : 526.18109 : 1"
       sodipodi:type="inkscape:persp3d" />
    <inkscape:perspective
       id="perspective4555"
       inkscape:persp3d-origin="372.04724 : 350.78739 : 1"
       inkscape:vp_z="744.09448 : 526.18109 : 1"
       inkscape:vp_y="0 : 1000 : 0"
       inkscape:vp_x="0 : 526.18109 : 1"
       sodipodi:type="inkscape:persp3d" />
    <inkscape:perspective
       id="perspective4596"
       inkscape:persp3d-origin="372.04724 : 350.78739 : 1"
       inkscape:vp_z="744.09448 : 526.18109 : 1"
       inkscape:vp_y="0 : 1000 : 0"
       inkscape:vp_x="0 : 526.18109 : 1"
       sodipodi:type="inkscape:persp3d" />
    <inkscape:perspective
       id="perspective5729"
       inkscape:persp3d-origin="372.04724 : 350.78739 : 1"
       inkscape:vp_z="744.09448 : 526.18109 : 1"
       inkscape:vp_y="0 : 1000 : 0"
       inkscape:vp_x="0 : 526.18109 : 1"
       sodipodi:type="inkscape:persp3d" />
  </defs>
  <sodipodi:namedview
     id="base"
     pagecolor="#ffffff"
     bordercolor="#666666"
     borderopacity="1.0"
     inkscape:pageopacity="0.0"
     inkscape:pageshadow="2"
     inkscape:zoom="16.375"
     inkscape:cx="16"
     inkscape:cy="16"
     inkscape:current-layer="layer1"
     showgrid="true"
     inkscape:grid-bbox="true"
     inkscape:document-units="px"
     objecttolerance="10000"
     gridtolerance="10000"
     guidetolerance="10000"
     inkscape:window-width="1024"
     inkscape:window-height="741"
     inkscape:window-x="0"
     inkscape:window-y="2"
     inkscape:object-paths="true"
     inkscape:object-nodes="true"
     inkscape:snap-bbox="true"
     inkscape:snap-guide="true"
     showguides="true"
     inkscape:guide-bbox="true"
     inkscape:window-maximized="1">
    <inkscape:grid
       type="xygrid"
       id="grid3515"
       units="px"
       visible="true"
       enabled="true"
       spacingx="1px"
       spacingy="1px"
       empspacing="4"
       snapvisiblegridlinesonly="true" />
    <sodipodi:guide
       orientation="1,0"
       position="32,0"
       id="guide4618" />
    <sodipodi:guide
       orientation="1,0"
       position="16,4.5"
       id="guide5174" />
    <sodipodi:guide
       orientation="0,1"
       position="5,16"
       id="guide5176" />
    <sodipodi:guide
       orientation="-0.70710678,0.70710678"
       position="4,4"
       id="guide5178" />
    <sodipodi:guide
       orientation="0.70710678,0.70710678"
       position="13,19"
       id="guide5180" />
    <sodipodi:guide
       orientation="1,0"
       position="0,32"
       id="guide8928" />
    <sodipodi:guide
       orientation="0,1"
       position="0,32"
       id="guide8930" />
    <sodipodi:guide
       orientation="0,1"
       position="0,0"
       id="guide8932" />
  </sodipodi:namedview>
  <metadata
     id="metadata3510">
    <rdf:RDF>
      <cc:Work
         rdf:about="">
        <dc:format>image/svg+xml</dc:format>
        <dc:type
           rdf:resource="http://purl.org/dc/dcmitype/StillImage" />
        <dc:title>Mushroom 00</dc:title>
        <dc:date>2010-05-07</dc:date>
        <dc:creator>
          <cc:Agent>
            <dc:title>Andreas Neudecker &lt;zapyon@gmx.net&gt;</dc:title>
          </cc:Agent>
        </dc:creator>
        <dc:rights>
          <cc:Agent>
            <dc:title>Copyright (C) 2010 by Andreas Neudecker</dc:title>
          </cc:Agent>
        </dc:rights>
        <dc:publisher>
          <cc:Agent>
            <dc:title>Andreas Neudecker</dc:title>
          </cc:Agent>
        </dc:publisher>
        <dc:identifier>mushroom-00</dc:identifier>
        <dc:description>Power pill &quot;mushroom&quot;, will poison McMinos.</dc:description>
      </cc:Work>
    </rdf:RDF>
  </metadata>
  <g
     id="layer1"
     inkscape:label="Layer 1"
     inkscape:groupmode="layer">
    <g
       id="g5184">
      <rect
         y="0"
         x="0"
         height="32"
         width="32"
         id="rect5182"
         style="fill:none;fill-opacity:0.25098039000000000;stroke:none" />
      <path
         inkscape:connector-curvature="0"
         id="path6583"
         d="M 17,3 C 15.322951,2.9729579 12.719283,3.4537917 11,4 9.2807173,4.5462083 7.1560446,5.5225069 6,7 4.8439554,8.4774931 4,10 4,12 c 0,2 0.578894,3.45786 1,4 0.7353448,0.735345 1.9679394,1.030614 3,1.0625 C 8.03234,17.307334 8.2463784,17.5 8.5,17.5 8.776,17.5 9,17.276 9,17 9.4336786,16.930205 9.7466235,16.645604 10,16.3125 L 10,17 c 0,0.276 0.224,0.5 0.5,0.5 0.276,0 0.5,-0.224 0.5,-0.5 l 0,-2 c 0,0 0.334566,2.192285 0,3 -0.334566,0.807715 -1.5558106,1.38372 -2,2 -0.4441894,0.61628 -0.8195497,1.2356 -1,2 -0.1804503,0.7644 -0.1804503,2.2356 0,3 0.1804503,0.7644 0.5256584,1.525658 1,2 0.4743416,0.474342 1.251887,0.690121 2,1 0.748113,0.309879 2.087594,0.851937 3,1 0.912406,0.148063 2.2356,0.18045 3,0 0.7644,-0.18045 1.38372,-0.555811 2,-1 0.61628,-0.444189 1.527575,-1.2356 2,-2 0.472425,-0.7644 0.958062,-1.907998 1,-3 0.04194,-1.092002 -0.590765,-3.277214 -1,-4 -0.409235,-0.722786 -0.7,-0.7 -1,-1 -0.3,-0.3 -0.781554,-0.472624 -1,-1 l 0,-2.40625 0,-0.0625 c 0.347957,0.165124 0.677141,0.36464 1,0.59375 L 20,17 c 0,0.276 0.224,0.5 0.5,0.5 0.276,0 0.5,-0.224 0.5,-0.5 l 0,-1 c 0.194827,0.140423 0.602544,0.340148 1,0.53125 L 22,17 c 0,0.276 0.224,0.5 0.5,0.5 0.276,0 0.5,-0.224 0.5,-0.5 1.575025,0.298873 2.750489,0.132659 4,-1 1.249511,-1.132659 1.396131,-3.414601 1,-5 C 27.054835,7.6970314 25.004655,5.5136937 22,4 20.66816,3.5069351 18.677049,3.0270421 17,3 z"
         style="fill:none;stroke:black;stroke-width:2;stroke-linecap:round;stroke-linejoin:round;stroke-miterlimit:4;stroke-opacity:1;stroke-dasharray:none;stroke-dashoffset:0" />
      <path
         sodipodi:nodetypes="czzzzzzzzzzzzzzcccc"
         id="path6507"
         d="M 11,15 C 11,15 11.334566,17.192285 11,18 C 10.665434,18.807715 9.4441894,19.38372 9,20 C 8.5558106,20.61628 8.1804503,21.2356 8,22 C 7.8195497,22.7644 7.8195497,24.2356 8,25 C 8.1804503,25.7644 8.5256584,26.525658 9,27 C 9.4743416,27.474342 10.251887,27.690121 11,28 C 11.748113,28.309879 13.087594,28.851937 14,29 C 14.912406,29.148063 16.2356,29.18045 17,29 C 17.7644,28.81955 18.38372,28.444189 19,28 C 19.61628,27.555811 20.527575,26.7644 21,26 C 21.472425,25.2356 21.958062,24.092002 22,23 C 22.041938,21.907998 21.409235,19.722786 21,19 C 20.590765,18.277214 20.3,18.3 20,18 C 19.7,17.7 19.218446,17.527376 19,17 C 18.781554,16.472624 19,14.608696 19,14.608696 L 19,13 L 11,13 L 11,15 z"
         style="opacity:1;fill:#ffffd5;fill-opacity:1;fill-rule:nonzero;stroke:none;stroke-width:2;stroke-linecap:round;stroke-linejoin:miter;stroke-miterlimit:4;stroke-dasharray:none;stroke-dashoffset:0;stroke-opacity:1" />
      <path
         sodipodi:nodetypes="ccscccccscccccscccccscccccscccccscccccscccccsccc"
         id="rect6509"
         d="M 8,13 L 8,17 C 8,17.276 8.224,17.5 8.5,17.5 C 8.776,17.5 9,17.276 9,17 L 9,13 L 8,13 z M 10,13 L 10,17 C 10,17.276 10.224,17.5 10.5,17.5 C 10.776,17.5 11,17.276 11,17 L 11,13 L 10,13 z M 12,13 L 12,17 C 12,17.276 12.224,17.5 12.5,17.5 C 12.776,17.5 13,17.276 13,17 L 13,13 L 12,13 z M 14,13 L 14,17 C 14,17.276 14.224,17.5 14.5,17.5 C 14.776,17.5 15,17.276 15,17 L 15,13 L 14,13 z M 16,13 L 16,17 C 16,17.276 16.224,17.5 16.5,17.5 C 16.776,17.5 17,17.276 17,17 L 17,13 L 16,13 z M 18,13 L 18,17 C 18,17.276 18.224,17.5 18.5,17.5 C 18.776,17.5 19,17.276 19,17 L 19,13 L 18,13 z M 20,13 L 20,17 C 20,17.276 20.224,17.5 20.5,17.5 C 20.776,17.5 21,17.276 21,17 L 21,13 L 20,13 z M 22,13 L 22,17 C 22,17.276 22.224,17.5 22.5,17.5 C 22.776,17.5 23,17.276 23,17 L 23,13 L 22,13 z"
         style="opacity:1;fill:#ffd555;fill-opacity:1;fill-rule:nonzero;stroke:none;stroke-width:2;stroke-linecap:round;stroke-linejoin:miter;stroke-miterlimit:4;stroke-dasharray:none;stroke-dashoffset:0;stroke-opacity:1" />
      <path
         sodipodi:type="arc"
         style="fill:#d5aa55;fill-opacity:1;fill-rule:nonzero;stroke:none"
         id="path6615"
         sodipodi:cx="11.343478"
         sodipodi:cy="21.5"
         sodipodi:rx="0.34347826"
         sodipodi:ry="0.5"
         d="M 11.686956,21.5 A 0.34347826,0.5 0 1 1 11,21.5 a 0.34347826,0.5 0 1 1 0.686956,0 z"
         transform="matrix(1.4556963,0,0,1,-7.0126592,2)" />
      <path
         transform="matrix(0,-1.4556963,1,0,-11,36.012659)"
         d="M 11.686956,21.5 A 0.34347826,0.5 0 1 1 11,21.5 a 0.34347826,0.5 0 1 1 0.686956,0 z"
         sodipodi:ry="0.5"
         sodipodi:rx="0.34347826"
         sodipodi:cy="21.5"
         sodipodi:cx="11.343478"
         id="path8940"
         style="fill:#d5aa55;fill-opacity:1;fill-rule:nonzero;stroke:none"
         sodipodi:type="arc" />
      <path
         sodipodi:type="arc"
         style="fill:#d5aa55;fill-opacity:1;fill-rule:nonzero;stroke:none"
         id="path8942"
         sodipodi:cx="11.343478"
         sodipodi:cy="21.5"
         sodipodi:rx="0.34347826"
         sodipodi:ry="0.5"
         d="M 11.686956,21.5 A 0.34347826,0.5 0 1 1 11,21.5 a 0.34347826,0.5 0 1 1 0.686956,0 z"
         transform="matrix(0,-1.4556963,1,0,-12,38.012659)" />
      <path
         sodipodi:type="arc"
         style="fill:#d5aa55;fill-opacity:1;fill-rule:nonzero;stroke:none"
         id="path8944"
         sodipodi:cx="11.343478"
         sodipodi:cy="21.5"
         sodipodi:rx="0.34347826"
         sodipodi:ry="0.5"
         d="M 11.686956,21.5 A 0.34347826,0.5 0 1 1 11,21.5 a 0.34347826,0.5 0 1 1 0.686956,0 z"
         transform="matrix(0,-1.4556963,1,0,-11.5,43.012659)" />
      <path
         sodipodi:nodetypes="ccssssssssczzzscc"
         id="path6578"
         d="m 11,14 0,1 c 0,0 0.334566,2.192285 0,3 -0.334566,0.807715 -1.5558106,1.38372 -2,2 -0.4441894,0.61628 -0.8195497,1.2356 -1,2 -0.1804503,0.7644 -0.1804503,2.2356 0,3 0.1804503,0.7644 0.5256584,1.525658 1,2 0.4743416,0.474342 1.251887,0.690121 2,1 0.748113,0.309879 2.087594,0.851937 3,1 0.912406,0.148063 2.2356,0.18045 3,0 0.334425,-0.07895 0.646719,-0.200747 0.9375,-0.34375 0,0 -4.511413,-0.65625 -5.9375,-1.65625 -1.426087,-1 -2,-2.5 -2,-4 0,-1.5 0.73913,-2.25 1,-3 0.26087,-0.75 1.793478,-1.625 2,-3 0.206522,-1.375 3,-4 3,-4 z"
         style="fill:#000000;fill-opacity:0.25098041;fill-rule:nonzero;stroke:none"
         inkscape:connector-curvature="0" />
      <path
         style="opacity:1;fill:#d5aa55;fill-opacity:1;fill-rule:nonzero;stroke:none;stroke-width:2;stroke-linecap:round;stroke-linejoin:miter;stroke-miterlimit:4;stroke-dasharray:none;stroke-dashoffset:0;stroke-opacity:1"
         d="M 9,12.5 L 9,16.5 C 9,16.776 9.224,17 9.5,17 C 9.776,17 10,16.776 10,16.5 L 10,12.5 L 9,12.5 z M 11,12.5 L 11,16.5 C 11,16.776 11.224,17 11.5,17 C 11.776,17 12,16.776 12,16.5 L 12,12.5 L 11,12.5 z M 13,12.5 L 13,16.5 C 13,16.776 13.224,17 13.5,17 C 13.776,17 14,16.776 14,16.5 L 14,12.5 L 13,12.5 z M 15,12.5 L 15,16.5 C 15,16.776 15.224,17 15.5,17 C 15.776,17 16,16.776 16,16.5 L 16,12.5 L 15,12.5 z M 17,12.5 L 17,16.5 C 17,16.776 17.224,17 17.5,17 C 17.776,17 18,16.776 18,16.5 L 18,12.5 L 17,12.5 z M 19,12.5 L 19,16.5 C 19,16.776 19.224,17 19.5,17 C 19.776,17 20,16.776 20,16.5 L 20,12.5 L 19,12.5 z M 21,12.5 L 21,16.5 C 21,16.776 21.224,17 21.5,17 C 21.776,17 22,16.776 22,16.5 L 22,12.5 L 21,12.5 z M 23,12.5 L 23,16.5 C 23,16.776 23.224,17 23.5,17 C 23.776,17 24,16.776 24,16.5 L 24,12.5 L 23,12.5 z"
         id="path6611"
         sodipodi:nodetypes="ccscccccscccccscccccscccccscccccscccccscccccsccc" />
      <path
         sodipodi:nodetypes="czzzczczzcczccz"
         id="path5735"
         d="M 17,3 C 15.322951,2.9729579 12.719283,3.4537917 11,4 C 9.2807173,4.5462083 7.1560446,5.5225069 6,7 C 4.8439554,8.4774931 4,10 4,12 C 4,14 4.578894,15.45786 5,16 C 6,17 7.9057462,17.176105 9,17 C 10.094254,16.823895 10.4,15.3 11,15 C 11.6,14.7 12.042643,14.226001 13,14 C 13.957357,13.773999 16.030896,13.787561 17.321739,14 C 18.612582,14.212439 19.992666,14.907268 21,16 C 21.444189,16.320154 23,17 23,17 C 24.575025,17.298873 25.750489,17.132659 27,16 C 28.249511,14.867341 28.396131,12.585399 28,11 C 27.054835,7.6970314 25.004655,5.5136937 22,4 C 20.66816,3.5069351 18.677049,3.0270421 17,3 z"
         style="opacity:1;fill:#ff0000;fill-opacity:1;fill-rule:nonzero;stroke:none;stroke-width:2;stroke-linecap:round;stroke-linejoin:miter;stroke-miterlimit:4;stroke-dasharray:none;stroke-dashoffset:0;stroke-opacity:1" />
      <path
         transform="matrix(0.66666667,0,0,0.66666667,2.3333333,2.3333333)"
         d="m 10,8.5 a 1.5,1.5 0 1 1 -3,0 1.5,1.5 0 1 1 3,0 z"
         sodipodi:ry="1.5"
         sodipodi:rx="1.5"
         sodipodi:cy="8.5"
         sodipodi:cx="8.5"
         id="path6554"
         style="fill:white;fill-opacity:1;fill-rule:nonzero;stroke:none"
         sodipodi:type="arc" />
      <path
         sodipodi:open="true"
         sodipodi:end="9.424778"
         sodipodi:start="5.7595865"
         transform="matrix(1.3333333,0,0,1.3333333,0.93461622,-7.1272261)"
         sodipodi:type="arc"
         style="fill:white;fill-opacity:1;fill-rule:nonzero;stroke:none"
         id="path6556"
         sodipodi:cx="8.5"
         sodipodi:cy="8.5"
         sodipodi:rx="1.5"
         sodipodi:ry="1.5"
         d="M 9.7990381,7.75 A 1.5,1.5 0 1 1 7,8.4999999" />
      <path
         d="m 10,8.5 a 1.5,1.5 0 1 1 -3,0 1.5,1.5 0 1 1 3,0 z"
         sodipodi:ry="1.5"
         sodipodi:rx="1.5"
         sodipodi:cy="8.5"
         sodipodi:cx="8.5"
         id="path6558"
         style="fill:white;fill-opacity:1;fill-rule:nonzero;stroke:none"
         sodipodi:type="arc"
         transform="translate(11,-3)" />
      <path
         transform="translate(15,1)"
         sodipodi:type="arc"
         style="fill:white;fill-opacity:1;fill-rule:nonzero;stroke:none"
         id="path6560"
         sodipodi:cx="8.5"
         sodipodi:cy="8.5"
         sodipodi:rx="1.5"
         sodipodi:ry="1.5"
         d="m 10,8.5 a 1.5,1.5 0 1 1 -3,0 1.5,1.5 0 1 1 3,0 z" />
      <path
         d="m 10,8.5 a 1.5,1.5 0 1 1 -3,0 1.5,1.5 0 1 1 3,0 z"
         sodipodi:ry="1.5"
         sodipodi:rx="1.5"
         sodipodi:cy="8.5"
         sodipodi:cx="8.5"
         id="path6562"
         style="fill:white;fill-opacity:1;fill-rule:nonzero;stroke:none"
         sodipodi:type="arc"
         transform="matrix(1.3333333,0,0,1.3333333,6.6666667,-0.33333333)" />
      <path
         transform="matrix(0.66666667,0,0,0.66666667,18.333333,8.3333333)"
         sodipodi:type="arc"
         style="fill:white;fill-opacity:1;fill-rule:nonzero;stroke:none"
         id="path6564"
         sodipodi:cx="8.5"
         sodipodi:cy="8.5"
         sodipodi:rx="1.5"
         sodipodi:ry="1.5"
         d="m 10,8.5 a 1.5,1.5 0 1 1 -3,0 1.5,1.5 0 1 1 3,0 z" />
      <path
         transform="matrix(1.3333333,0,0,1.3333333,-4.3333333,1.6666667)"
         sodipodi:type="arc"
         style="fill:white;fill-opacity:1;fill-rule:nonzero;stroke:none"
         id="path6566"
         sodipodi:cx="8.5"
         sodipodi:cy="8.5"
         sodipodi:rx="1.5"
         sodipodi:ry="1.5"
         d="m 10,8.5 a 1.5,1.5 0 1 1 -3,0 1.5,1.5 0 1 1 3,0 z" />
      <path
         d="M 10,8.5 A 1.5,1.5 0 1 1 7,8.5 A 1.5,1.5 0 1 1 10,8.5 z"
         sodipodi:ry="1.5"
         sodipodi:rx="1.5"
         sodipodi:cy="8.5"
         sodipodi:cx="8.5"
         id="path6568"
         style="opacity:1;fill:#ffffff;fill-opacity:1;fill-rule:nonzero;stroke:none;stroke-width:2;stroke-linecap:round;stroke-linejoin:miter;stroke-miterlimit:4;stroke-dasharray:none;stroke-dashoffset:0;stroke-opacity:1"
         sodipodi:type="arc"
         transform="translate(3,3)" />
      <path
         transform="matrix(1.4556963,0,0,1,-5.0126591,0)"
         d="M 11.686956,21.5 A 0.34347826,0.5 0 1 1 11,21.5 A 0.34347826,0.5 0 1 1 11.686956,21.5 z"
         sodipodi:ry="0.5"
         sodipodi:rx="0.34347826"
         sodipodi:cy="21.5"
         sodipodi:cx="11.343478"
         id="path6613"
         style="opacity:1;fill:#d5aa55;fill-opacity:1;fill-rule:nonzero;stroke:none;stroke-width:2;stroke-linecap:round;stroke-linejoin:round;stroke-miterlimit:4;stroke-dasharray:none;stroke-dashoffset:0;stroke-opacity:1"
         sodipodi:type="arc" />
      <path
         transform="matrix(1.4556963,0,0,1,-5.0126592,4)"
         d="M 11.686956,21.5 A 0.34347826,0.5 0 1 1 11,21.5 a 0.34347826,0.5 0 1 1 0.686956,0 z"
         sodipodi:ry="0.5"
         sodipodi:rx="0.34347826"
         sodipodi:cy="21.5"
         sodipodi:cx="11.343478"
         id="path6617"
         style="fill:#d5aa55;fill-opacity:1;fill-rule:nonzero;stroke:none"
         sodipodi:type="arc" />
      <path
         sodipodi:type="arc"
         style="opacity:1;fill:#d5aa55;fill-opacity:1;fill-rule:nonzero;stroke:none;stroke-width:2;stroke-linecap:round;stroke-linejoin:round;stroke-miterlimit:4;stroke-dasharray:none;stroke-dashoffset:0;stroke-opacity:1"
         id="path6619"
         sodipodi:cx="11.343478"
         sodipodi:cy="21.5"
         sodipodi:rx="0.34347826"
         sodipodi:ry="0.5"
         d="M 11.686956,21.5 A 0.34347826,0.5 0 1 1 11,21.5 A 0.34347826,0.5 0 1 1 11.686956,21.5 z"
         transform="matrix(1.4556963,0,0,1,-3.0126592,5)" />
      <path
         transform="matrix(1.4556963,0,0,1,-2.5126592,3)"
         d="M 11.686956,21.5 A 0.34347826,0.5 0 1 1 11,21.5 a 0.34347826,0.5 0 1 1 0.686956,0 z"
         sodipodi:ry="0.5"
         sodipodi:rx="0.34347826"
         sodipodi:cy="21.5"
         sodipodi:cx="11.343478"
         id="path6621"
         style="fill:#d5aa55;fill-opacity:1;fill-rule:nonzero;stroke:none"
         sodipodi:type="arc" />
      <path
         sodipodi:type="arc"
         style="fill:#d5aa55;fill-opacity:1;fill-rule:nonzero;stroke:none"
         id="path6623"
         sodipodi:cx="11.343478"
         sodipodi:cy="21.5"
         sodipodi:rx="0.34347826"
         sodipodi:ry="0.5"
         d="M 11.686956,21.5 A 0.34347826,0.5 0 1 1 11,21.5 a 0.34347826,0.5 0 1 1 0.686956,0 z"
         transform="matrix(1.4556963,0,0,1,-0.0126592,2)" />
      <path
         transform="matrix(1.4556963,0,0,1,-3.0126593,-2)"
         d="M 11.686956,21.5 A 0.34347826,0.5 0 1 1 11,21.5 a 0.34347826,0.5 0 1 1 0.686956,0 z"
         sodipodi:ry="0.5"
         sodipodi:rx="0.34347826"
         sodipodi:cy="21.5"
         sodipodi:cx="11.343478"
         id="path6625"
         style="fill:#d5aa55;fill-opacity:1;fill-rule:nonzero;stroke:none"
         sodipodi:type="arc" />
      <path
         sodipodi:type="arc"
         style="opacity:1;fill:#d5aa55;fill-opacity:1;fill-rule:nonzero;stroke:none;stroke-width:2;stroke-linecap:round;stroke-linejoin:round;stroke-miterlimit:4;stroke-dasharray:none;stroke-dashoffset:0;stroke-opacity:1"
         id="path6627"
         sodipodi:cx="11.343478"
         sodipodi:cy="21.5"
         sodipodi:rx="0.34347826"
         sodipodi:ry="0.5"
         d="M 11.686956,21.5 A 0.34347826,0.5 0 1 1 11,21.5 A 0.34347826,0.5 0 1 1 11.686956,21.5 z"
         transform="matrix(1.4556963,0,0,1,0.9873407,-1)" />
      <path
         transform="matrix(1.4556963,0,0,1,1.9612537,1)"
         d="M 11.686956,21.5 A 0.34347826,0.5 0 1 1 11,21.5 A 0.34347826,0.5 0 1 1 11.686956,21.5 z"
         sodipodi:ry="0.5"
         sodipodi:rx="0.34347826"
         sodipodi:cy="21.5"
         sodipodi:cx="11.343478"
         id="path6629"
         style="opacity:1;fill:#d5aa55;fill-opacity:1;fill-rule:nonzero;stroke:none;stroke-width:2;stroke-linecap:round;stroke-linejoin:round;stroke-miterlimit:4;stroke-dasharray:none;stroke-dashoffset:0;stroke-opacity:1"
         sodipodi:type="arc" />
      <path
         sodipodi:type="arc"
         style="opacity:1;fill:#d5aa55;fill-opacity:1;fill-rule:nonzero;stroke:none;stroke-width:2;stroke-linecap:round;stroke-linejoin:round;stroke-miterlimit:4;stroke-dasharray:none;stroke-dashoffset:0;stroke-opacity:1"
         id="path6631"
         sodipodi:cx="11.343478"
         sodipodi:cy="21.5"
         sodipodi:rx="0.34347826"
         sodipodi:ry="0.5"
         d="M 11.686956,21.5 A 0.34347826,0.5 0 1 1 11,21.5 A 0.34347826,0.5 0 1 1 11.686956,21.5 z"
         transform="matrix(1.4556963,0,0,1,-0.5126592,5.5)" />
      <path
         transform="matrix(1.4556963,0,0,1,0.48734079,4)"
         d="M 11.686956,21.5 A 0.34347826,0.5 0 1 1 11,21.5 a 0.34347826,0.5 0 1 1 0.686956,0 z"
         sodipodi:ry="0.5"
         sodipodi:rx="0.34347826"
         sodipodi:cy="21.5"
         sodipodi:cx="11.343478"
         id="path6633"
         style="fill:#d5aa55;fill-opacity:1;fill-rule:nonzero;stroke:none"
         sodipodi:type="arc" />
      <path
         sodipodi:type="arc"
         style="opacity:1;fill:#d5aa55;fill-opacity:1;fill-rule:nonzero;stroke:none;stroke-width:2;stroke-linecap:round;stroke-linejoin:round;stroke-miterlimit:4;stroke-dasharray:none;stroke-dashoffset:0;stroke-opacity:1"
         id="path6635"
         sodipodi:cx="11.343478"
         sodipodi:cy="21.5"
         sodipodi:rx="0.34347826"
         sodipodi:ry="0.5"
         d="M 11.686956,21.5 A 0.34347826,0.5 0 1 1 11,21.5 A 0.34347826,0.5 0 1 1 11.686956,21.5 z"
         transform="matrix(1.4556963,0,0,1,-2.0126593,0)" />
      <path
         inkscape:connector-curvature="0"
         style="fill:black;fill-opacity:0.25098039;fill-rule:nonzero;stroke:none"
         d="m 4,12 c 0,0 -0.162316,2.867171 1,4 1.162316,1.132829 2.6258347,0.976367 4,1 1.594412,0.02742 3.092444,-0.832405 4.678261,-1 1.432602,-0.151402 2.88817,-0.141951 4.321739,0 1.691401,0.167482 3.300599,0.969566 5,1 1.432331,0.02565 2.278876,0.771967 4,-1 1.721124,-1.771967 1,-5 1,-5 -3.237105,7.163315 -7.361249,1.411557 -11.180536,1.105767 C 12.85248,11.788152 6.0337034,17.442567 4,12 z"
         id="path4664"
         sodipodi:nodetypes="czaaaszcsc" />
      <path
         transform="matrix(0,-1.4556963,1,0,-8,39.012659)"
         d="M 11.686956,21.5 A 0.34347826,0.5 0 1 1 11,21.5 a 0.34347826,0.5 0 1 1 0.686956,0 z"
         sodipodi:ry="0.5"
         sodipodi:rx="0.34347826"
         sodipodi:cy="21.5"
         sodipodi:cx="11.343478"
         id="path8934"
         style="fill:#d5aa55;fill-opacity:1;fill-rule:nonzero;stroke:none"
         sodipodi:type="arc" />
      <path
         sodipodi:type="arc"
         style="fill:#d5aa55;fill-opacity:1;fill-rule:nonzero;stroke:none"
         id="path8936"
         sodipodi:cx="11.343478"
         sodipodi:cy="21.5"
         sodipodi:rx="0.34347826"
         sodipodi:ry="0.5"
         d="M 11.686956,21.5 A 0.34347826,0.5 0 1 1 11,21.5 a 0.34347826,0.5 0 1 1 0.686956,0 z"
         transform="matrix(0,-1.4556963,1,0,-9.5,41.012659)" />
      <path
         sodipodi:type="arc"
         style="fill:#d5aa55;fill-opacity:1;fill-rule:nonzero;stroke:none"
         id="path8938"
         sodipodi:cx="11.343478"
         sodipodi:cy="21.5"
         sodipodi:rx="0.34347826"
         sodipodi:ry="0.5"
         d="M 11.686956,21.5 A 0.34347826,0.5 0 1 1 11,21.5 a 0.34347826,0.5 0 1 1 0.686956,0 z"
         transform="matrix(0,-1.4556963,1,0,-5.5,35.012659)" />
    </g>
  </g>
</svg>
