<?xml version="1.0" encoding="UTF-8" standalone="no"?>
<!-- Created with Inkscape (http://www.inkscape.org/) -->

<svg
   xmlns:dc="http://purl.org/dc/elements/1.1/"
   xmlns:cc="http://creativecommons.org/ns#"
   xmlns:rdf="http://www.w3.org/1999/02/22-rdf-syntax-ns#"
   xmlns:svg="http://www.w3.org/2000/svg"
   xmlns="http://www.w3.org/2000/svg"
   xmlns:sodipodi="http://sodipodi.sourceforge.net/DTD/sodipodi-0.dtd"
   xmlns:inkscape="http://www.inkscape.org/namespaces/inkscape"
   width="32"
   height="32"
   id="svg4150"
   version="1.1"
   inkscape:version="0.48.5 r10040"
   viewBox="0 0 32 32"
   sodipodi:docname="button-alive-00.svg">
  <defs
     id="defs4152">
    <linearGradient
       id="linearGradient4030">
      <stop
         id="stop4032"
         offset="0"
         style="stop-color:#ffcc01;stop-opacity:1;" />
      <stop
         style="stop-color:#ffea95;stop-opacity:1;"
         offset="0.5"
         id="stop4036" />
      <stop
         id="stop4046"
         offset="0.75"
         style="stop-color:#ffcc01;stop-opacity:1;" />
      <stop
         id="stop4034"
         offset="1"
         style="stop-color:#c09a00;stop-opacity:1;" />
    </linearGradient>
  </defs>
  <sodipodi:namedview
     id="base"
     pagecolor="#ffffff"
     bordercolor="#666666"
     borderopacity="1.0"
     inkscape:pageopacity="0.0"
     inkscape:pageshadow="2"
     inkscape:zoom="16.5"
     inkscape:cx="16"
     inkscape:cy="16"
     inkscape:current-layer="g3707"
     showgrid="true"
     inkscape:grid-bbox="true"
     inkscape:document-units="px"
     objecttolerance="10000"
     inkscape:snap-perpendicular="true"
     guidetolerance="10000"
     inkscape:window-width="1024"
     inkscape:window-height="741"
     inkscape:window-x="0"
     inkscape:window-y="2"
     inkscape:window-maximized="1"
     showguides="true"
     inkscape:guide-bbox="true">
    <inkscape:grid
       type="xygrid"
       id="grid4698"
       empspacing="4" />
    <sodipodi:guide
       position="16,32"
       orientation="1,0"
       id="guide4769" />
    <sodipodi:guide
       position="-4,16"
       orientation="0,1"
       id="guide4771" />
    <sodipodi:guide
       position="16,16"
       orientation="-0.70710678,0.70710678"
       id="guide4773" />
    <sodipodi:guide
       position="16,16"
       orientation="0.70710678,0.70710678"
       id="guide4775" />
  </sodipodi:namedview>
  <metadata
     id="metadata4155">
    <rdf:RDF>
      <cc:Work
         rdf:about="">
        <dc:format>image/svg+xml</dc:format>
        <dc:type
           rdf:resource="http://purl.org/dc/dcmitype/StillImage" />
        <dc:title></dc:title>
      </cc:Work>
    </rdf:RDF>
  </metadata>
  <g
     id="layer1"
     inkscape:label="button"
     inkscape:groupmode="layer"
     sodipodi:insensitive="true">
    <rect
       ry="4"
       y="0"
       x="0"
       height="32"
       width="32"
       id="rect3767"
       style="fill:#fc0;fill-opacity:1;stroke:none" />
    <path
       style="fill:black;fill-opacity:1;stroke:none"
       d="M 4,0 C 1.784,0 0,1.784 0,4 l 0,24 c 0,2.216 1.784,4 4,4 l 24,0 c 2.216,0 4,-1.784 4,-4 L 32,4 C 32,1.784 30.216,0 28,0 L 4,0 z m 0,1 24,0 c 1.662,0 3,1.338 3,3 l 0,24 c 0,1.662 -1.338,3 -3,3 L 4,31 C 2.338,31 1,29.662 1,28 L 1,4 C 1,2.338 2.338,1 4,1 z"
       id="rect2993"
       inkscape:connector-curvature="0" />
  </g>
  <g
     inkscape:groupmode="layer"
     id="layer2"
     inkscape:label="symbol">
    <g
       id="g3707"
       transform="matrix(0.9375,0,0,0.9375,1,1)">
      <g
         id="g3249"
         transform="matrix(1.0666667,0,0,1.0666667,-0.53333343,-0.53333427)">
        <path
           style="fill:red;fill-opacity:1;fill-rule:nonzero;stroke:black;stroke-width:2;stroke-linecap:round;stroke-linejoin:miter;stroke-miterlimit:4;stroke-opacity:1;stroke-dasharray:none;stroke-dashoffset:0"
           d="M 11,5 C 8,5 4,6 4,12 4,18 16,27 16,27 16,27 28,18 28,12 28,6 24,5 21,5 18,5 16.13913,7.4434783 16.13913,7.4434783 16.13913,7.4434783 14,5 11,5 z"
           id="path3223"
           sodipodi:nodetypes="czczzcz"
           inkscape:connector-curvature="0" />
        <path
           sodipodi:nodetypes="czczzcz"
           id="path2449"
           d="M 11,5 C 8,5 4,6 4,12 4,18 16,27 16,27 16,27 28,18 28,12 28,6 24,5 21,5 18,5 16.13913,7.4434783 16.13913,7.4434783 16.13913,7.4434783 14,5 11,5 z"
           style="fill:red;fill-opacity:1;fill-rule:nonzero;stroke:none"
           inkscape:connector-curvature="0" />
        <path
           style="fill:#c00000;fill-opacity:1;fill-rule:nonzero;stroke:none"
           d="M 5.0069176,7.7379506 C 4.5264488,8.4645131 4,10.101562 4,12 4,13.898438 4.657924,14.989505 5.782924,16.735599 6.907924,18.481692 8.5,20.25 10,21.75 c 1.5,1.5 3,2.8125 4.125,3.75 C 15.25,26.4375 16,27 16,27 16,27 16.357105,26.879556 17.482105,25.824868 14,25 4.6369911,16 5.0069176,7.7379506 z"
           id="path3245"
           sodipodi:nodetypes="czsssccc"
           inkscape:connector-curvature="0" />
        <path
           sodipodi:nodetypes="csccscc"
           id="path3247"
           d="m 26.150497,10.093427 c 0,0 -0.150497,3.12846 -1.451491,5.009675 C 23.914792,16.237061 22,18.657791 22,18.657791 l -1,-1.748723 c 0,0 1.814287,-1.949669 2.342918,-3.160441 C 24,12.243655 24,9.9964099 24,9.9964099 l 2.150497,0.097017 z"
           style="fill:white;fill-opacity:0.70588235;fill-rule:nonzero;stroke:none"
           inkscape:connector-curvature="0" />
      </g>
    </g>
  </g>
  <g
     inkscape:groupmode="layer"
     id="layer3"
     inkscape:label="shading"
     sodipodi:insensitive="true">
    <path
       inkscape:connector-curvature="0"
       style="fill:black;fill-opacity:0.37647059;stroke:none"
       d="M 1.875,1.875 C 1.33275,2.41725 1,3.169 1,4 l 0,24 c 0,1.662 1.338,3 3,3 l 24,0 c 0.831,0 1.58275,-0.33275 2.125,-0.875 L 29.40625,29.40625 C 29.04475,29.76775 28.554,30 28,30 L 4,30 C 2.892,30 2,29.108 2,28 L 2,4 C 2,3.446 2.23225,2.95525 2.59375,2.59375 L 1.875,1.875 z"
       id="rect2997" />
    <path
       style="fill:white;fill-opacity:0.37647059;stroke:none"
       d="M 4,1 C 3.169,1 2.41725,1.33275 1.875,1.875 L 2.59375,2.59375 C 2.95525,2.23225 3.446,2 4,2 l 24,0 c 1.108,0 2,0.892 2,2 l 0,24 c 0,0.554 -0.23225,1.04475 -0.59375,1.40625 L 30.125,30.125 C 30.66725,29.58275 31,28.831 31,28 L 31,4 C 31,2.338 29.662,1 28,1 L 4,1 z"
       id="rect3774"
       inkscape:connector-curvature="0" />
    <rect
       style="fill:white;fill-opacity:0.50196078;stroke:none"
       id="rect3793"
       width="26"
       height="2"
       x="3"
       y="2"
       ry="1"
       rx="1" />
    <rect
       style="fill:white;fill-opacity:0.50196078;stroke:none"
       id="rect3795"
       width="24"
       height="1"
       x="4"
       y="2"
       ry="0.5"
       rx="0.5" />
  </g>
</svg>
