<?xml version="1.0" encoding="UTF-8" standalone="no"?>
<!-- Created with Inkscape (http://www.inkscape.org/) -->

<svg xmlns:dc="http://purl.org/dc/elements/1.1/" xmlns:cc="http://creativecommons.org/ns#" xmlns:rdf="http://www.w3.org/1999/02/22-rdf-syntax-ns#" xmlns:svg="http://www.w3.org/2000/svg" xmlns="http://www.w3.org/2000/svg" xmlns:xlink="http://www.w3.org/1999/xlink" xmlns:sodipodi="http://sodipodi.sourceforge.net/DTD/sodipodi-0.dtd" xmlns:inkscape="http://www.inkscape.org/namespaces/inkscape" width="32" height="32" id="svg4150" version="1.1" inkscape:version="0.91 r13725" viewBox="0 0 32 32" sodipodi:docname="symbol-black-daddy-00.svg">
  <defs id="defs4152">
    <linearGradient gradientTransform="matrix(0.9375,0,0,0.9375,1,1)" inkscape:collect="always" xlink:href="#linearGradient4030" id="linearGradient3721" gradientUnits="userSpaceOnUse" x1="16" y1="4" x2="16" y2="16" />
    <linearGradient id="linearGradient4030">
      <stop id="stop4032" offset="0" style="stop-color:#ffcc01;stop-opacity:1;" />
      <stop style="stop-color:#ffea95;stop-opacity:1;" offset="0.5" id="stop4036" />
      <stop id="stop4046" offset="0.75" style="stop-color:#ffcc01;stop-opacity:1;" />
      <stop id="stop4034" offset="1" style="stop-color:#c09a00;stop-opacity:1;" />
    </linearGradient>
  </defs>
  <sodipodi:namedview id="base" pagecolor="#ffffff" bordercolor="#666666" borderopacity="1.0" inkscape:pageopacity="0.0" inkscape:pageshadow="2" inkscape:zoom="21.832661" inkscape:cx="15.198449" inkscape:cy="16" inkscape:current-layer="layer1" showgrid="true" inkscape:grid-bbox="true" inkscape:document-units="px" objecttolerance="10000" inkscape:snap-perpendicular="true" guidetolerance="10000" inkscape:window-width="1600" inkscape:window-height="878" inkscape:window-x="0" inkscape:window-y="0" inkscape:window-maximized="1" showguides="true" inkscape:guide-bbox="true">
    <inkscape:grid type="xygrid" id="grid4698" empspacing="4" />
    <sodipodi:guide position="16,32" orientation="1,0" id="guide4769" />
    <sodipodi:guide position="-4,16" orientation="0,1" id="guide4771" />
    <sodipodi:guide position="16,16" orientation="-0.70710678,0.70710678" id="guide4773" />
    <sodipodi:guide position="16,16" orientation="0.70710678,0.70710678" id="guide4775" />
  </sodipodi:namedview>
  <metadata id="metadata4155">
    <rdf:RDF>
      <cc:Work rdf:about="">
        <dc:format>image/svg+xml</dc:format>
        <dc:type rdf:resource="http://purl.org/dc/dcmitype/StillImage" />
        <dc:title></dc:title>
      </cc:Work>
    </rdf:RDF>
  </metadata>
  <g id="layer1" inkscape:label="Layer 1" inkscape:groupmode="layer">
    <g id="g6094">
      <rect y="1" x="1" height="30" width="30" id="rect5378" style="fill:none;stroke:none" />
      <circle id="path4818" style="fill:black;fill-opacity:0.25098039;fill-rule:nonzero;stroke:none" cx="16.000002" cy="16.000004" r="14.062501" />
      <circle id="path3403" style="fill:#1a1a1a;fill-opacity:1;fill-rule:nonzero;stroke:none" cx="15.999997" cy="15.999996" r="13.125" />
      <path sodipodi:open="true" sodipodi:end="3.1415927" sodipodi:start="0" d="m 28.187497,16.00001 a 12.1875,12.187493 0 0 1 -6.09375,10.554678 12.1875,12.187493 0 0 1 -12.1875002,0 12.1875,12.187493 0 0 1 -6.0937497,-10.554679" sodipodi:ry="12.187493" sodipodi:rx="12.1875" sodipodi:cy="16.00001" sodipodi:cx="15.999997" id="path3429" style="fill:#e1fff9;fill-opacity:1;fill-rule:nonzero;stroke:none" sodipodi:type="arc" />
      <circle id="path3407" style="fill:white;fill-opacity:1;fill-rule:nonzero;stroke:none" cx="9.4374971" cy="10.374995" r="3.75" />
      <circle style="fill:white;fill-opacity:1;fill-rule:nonzero;stroke:none" id="path3425" cx="22.562498" cy="10.374995" r="3.75" />
      <circle id="path3409" style="fill:black;fill-opacity:1;fill-rule:nonzero;stroke:none" cx="9.4375" cy="11.3125" r="1.875" />
      <circle style="fill:black;fill-opacity:1;fill-rule:nonzero;stroke:none" id="path3427" cx="22.5625" cy="11.3125" r="1.875" />
      <path sodipodi:open="true" sodipodi:type="arc" style="fill:white;fill-opacity:1;fill-rule:nonzero;stroke:none" id="path3443" sodipodi:cx="16" sodipodi:cy="15.999996" sodipodi:rx="13.125002" sodipodi:ry="1.2621254e-06" sodipodi:start="3.1415927" sodipodi:end="6.2831853" />
      <path inkscape:connector-curvature="0" style="fill:#81e6ff;fill-opacity:0.25098039;stroke:none" d="m 3.8125,16 c 0,1.649908 0.3433855,3.223039 0.9375,4.658203 L 4.75,16 3.8125,16 Z m 5.625,0 0,10.253906 c 0.594418,0.380919 1.216058,0.721557 1.875,0.996094 l 0,-11.25 -1.875,0 z M 16,16 16,28.1875 c 0.636052,0 1.265238,-0.05257 1.875,-0.146484 L 17.875,16 16,16 Z m 6.5625,0 0,10.253906 c 0.672006,-0.430638 1.301751,-0.914531 1.875,-1.464844 l 0,-8.789062 -1.875,0 z" id="rect3904" />
      <path inkscape:connector-curvature="0" style="fill:white;fill-opacity:1;stroke:none" d="m 7.5625,16 0,8.789062 c 0.5732494,0.550313 1.2029944,1.034206 1.875,1.464844 L 9.4375,16 7.5625,16 Z m 6.5625,0 0,12.041016 C 14.734762,28.134935 15.363948,28.1875 16,28.1875 L 16,16 14.125,16 Z m 6.5625,0 0,11.25 c 0.658942,-0.274537 1.280582,-0.615175 1.875,-0.996094 l 0,-10.253906 -1.875,0 z m 6.5625,0 0,4.658203 C 27.844114,19.223039 28.1875,17.649908 28.1875,16 L 27.25,16 Z" id="rect3912" />
      <path inkscape:connector-curvature="0" style="fill:url(#linearGradient3721);fill-opacity:1;stroke:none" d="m 9.4375,4.75 c -3.1066017,0 -5.625,2.5183983 -5.625,5.625 0,3.106601 2.5183983,5.625 5.625,5.625 3.106601,0 5.625,-2.518399 5.625,-5.625 0,-0.25556 -0.02558,-0.5151944 -0.05859,-0.7617187 0.63486,-0.2374648 1.357328,-0.2374649 1.992188,0 -0.03302,0.2465243 -0.0586,0.5061587 -0.0586,0.7617187 0,3.106601 2.518398,5.625 5.625,5.625 3.106601,0 5.625,-2.518399 5.625,-5.625 0,-3.1066017 -2.518399,-5.625 -5.625,-5.625 -2.524115,0 -4.649138,1.6653174 -5.361328,3.9550781 C 16.812957,8.5755203 16.404647,8.5 16,8.5 15.595353,8.5 15.187043,8.5755203 14.798828,8.7050781 14.086638,6.4153174 11.961614,4.75 9.4375,4.75 Z m 0,0.9375 c 2.588835,0 4.6875,2.0986653 4.6875,4.6875 0,2.588835 -2.098665,4.6875 -4.6875,4.6875 -2.5888347,0 -4.6875,-2.098665 -4.6875,-4.6875 0,-2.5888347 2.0986653,-4.6875 4.6875,-4.6875 z m 13.125,0 c 2.588835,0 4.6875,2.0986653 4.6875,4.6875 0,2.588835 -2.098665,4.6875 -4.6875,4.6875 -2.588835,0 -4.6875,-2.098665 -4.6875,-4.6875 0,-2.5888347 2.098665,-4.6875 4.6875,-4.6875 z" id="path3241" />
    </g>
  </g>
</svg>
