<?xml version="1.0" encoding="UTF-8" standalone="no"?>
<!-- Created with Inkscape (http://www.inkscape.org/) -->

<svg xmlns:dc="http://purl.org/dc/elements/1.1/" xmlns:cc="http://creativecommons.org/ns#" xmlns:rdf="http://www.w3.org/1999/02/22-rdf-syntax-ns#" xmlns:svg="http://www.w3.org/2000/svg" xmlns="http://www.w3.org/2000/svg" xmlns:sodipodi="http://sodipodi.sourceforge.net/DTD/sodipodi-0.dtd" xmlns:inkscape="http://www.inkscape.org/namespaces/inkscape" width="32" height="32" id="svg4150" version="1.1" inkscape:version="0.91 r13725" viewBox="0 0 32 32" sodipodi:docname="symbol-level-up-00.svg">
  <defs id="defs4152" />
  <sodipodi:namedview id="base" pagecolor="#ffffff" bordercolor="#666666" borderopacity="1.0" inkscape:pageopacity="0.0" inkscape:pageshadow="2" inkscape:zoom="22.125" inkscape:cx="16" inkscape:cy="16" inkscape:current-layer="layer1" showgrid="true" inkscape:grid-bbox="true" inkscape:document-units="px" objecttolerance="10000" inkscape:snap-perpendicular="true" guidetolerance="10000" inkscape:window-width="1600" inkscape:window-height="878" inkscape:window-x="0" inkscape:window-y="0" inkscape:window-maximized="1" showguides="true" inkscape:guide-bbox="true">
    <inkscape:grid type="xygrid" id="grid4698" empspacing="4" />
    <sodipodi:guide position="16,32" orientation="1,0" id="guide4769" />
    <sodipodi:guide position="-4,16" orientation="0,1" id="guide4771" />
    <sodipodi:guide position="16,16" orientation="-0.70710678,0.70710678" id="guide4773" />
    <sodipodi:guide position="16,16" orientation="0.70710678,0.70710678" id="guide4775" />
  </sodipodi:namedview>
  <metadata id="metadata4155">
    <rdf:RDF>
      <cc:Work rdf:about="">
        <dc:format>image/svg+xml</dc:format>
        <dc:type rdf:resource="http://purl.org/dc/dcmitype/StillImage" />
        <dc:title></dc:title>
      </cc:Work>
    </rdf:RDF>
  </metadata>
  <g id="layer1" inkscape:label="Layer 1" inkscape:groupmode="layer">
    <g id="g3442" transform="matrix(0.9375,0,0,0.9375,1,1)">
      <rect style="fill:none;stroke:none" id="rect5378" width="32" height="32" x="0" y="0" />
      <circle r="6.9913044" cy="8" cx="7.9652176" style="fill:red;fill-opacity:1;fill-rule:nonzero;stroke:none" id="path3403" transform="matrix(2.0024876,0,0,2.0024876,0.0497472,-0.01990512)" />
      <path sodipodi:type="arc" style="fill:#e1fff9;fill-opacity:1;fill-rule:nonzero;stroke:none" id="path3429" sodipodi:cx="28.15704" sodipodi:cy="51.823883" sodipodi:rx="4.1570387" sodipodi:ry="3.8238845" d="m 32.314078,51.823883 a 4.1570387,3.8238845 0 0 1 -2.078519,3.311581 4.1570387,3.8238845 0 0 1 -4.157039,0 4.1570387,3.8238845 0 0 1 -2.078519,-3.311581" transform="matrix(3.127226,0,0,3.3996825,-72.05343,-160.18474)" sodipodi:start="0" sodipodi:end="3.1415927" sodipodi:open="true" />
      <circle r="2" cy="5" cx="8" transform="matrix(2,0,0,2,-7.0000028,-5.1161847e-6)" style="fill:white;fill-opacity:1;fill-rule:nonzero;stroke:none" id="path3407" />
      <circle r="2" cy="5" cx="8" id="path3425" style="fill:white;fill-opacity:1;fill-rule:nonzero;stroke:none" transform="matrix(2,0,0,2,6.999997,-5.1161847e-6)" />
      <circle r="1" cy="5" cx="8" style="fill:black;fill-opacity:1;fill-rule:nonzero;stroke:none" id="path3409" transform="matrix(2,0,0,2,-7,0)" />
      <circle r="1" cy="5" cx="8" transform="matrix(2,0,0,2,7,0)" id="path3427" style="fill:black;fill-opacity:1;fill-rule:nonzero;stroke:none" />
      <path sodipodi:end="6.2831853" sodipodi:start="3.1415927" transform="matrix(3.3677824,0,0,1.7603396e-6,-78.826783,15.999905)" d="m 24.000001,51.823883 a 4.1570387,0.76477689 0 0 1 4.157039,-0.764777 4.1570387,0.76477689 0 0 1 4.157038,0.764777" sodipodi:ry="0.76477689" sodipodi:rx="4.1570387" sodipodi:cy="51.823883" sodipodi:cx="28.15704" id="path3443" style="fill:white;fill-opacity:1;fill-rule:nonzero;stroke:none" sodipodi:type="arc" sodipodi:open="true" />
      <path id="rect3904" d="m 3,16 c 0,1.759902 0.3662779,3.437908 1,4.96875 L 4,16 3,16 Z m 6,0 0,10.9375 c 0.634046,0.406313 1.297129,0.76966 2,1.0625 l 0,-12 -2,0 z m 7,0 0,13 c 0.678455,0 1.349587,-0.05607 2,-0.15625 L 18,16 16,16 Z m 7,0 0,10.9375 c 0.716806,-0.459347 1.388534,-0.9755 2,-1.5625 L 25,16 23,16 Z" style="fill:#81e6ff;fill-opacity:0.25098039;stroke:none" inkscape:connector-curvature="0" />
      <path id="rect3912" d="m 7,16 0,9.375 c 0.611466,0.587 1.283194,1.103153 2,1.5625 L 9,16 7,16 Z m 7,0 0,12.84375 C 14.650413,28.943931 15.321545,29 16,29 l 0,-13 -2,0 z m 7,0 0,12 c 0.702871,-0.29284 1.365954,-0.656187 2,-1.0625 L 23,16 21,16 Z m 7,0 0,4.96875 C 28.633722,19.437908 29,17.759902 29,16 l -1,0 z" style="fill:white;fill-opacity:1;stroke:none" inkscape:connector-curvature="0" />
      <path transform="translate(-7.000005,4.000005)" d="M 16,15.999995 15.811438,12.188562 12.000005,12 15.811438,11.811438 16,8.000005 16.188562,11.811438 19.999995,12 16.188562,12.188562 Z" inkscape:randomized="0" inkscape:rounded="0" inkscape:flatsided="false" sodipodi:arg2="2.3561946" sodipodi:arg1="1.5707964" sodipodi:r2="0.26666632" sodipodi:r1="3.999995" sodipodi:cy="12" sodipodi:cx="16" sodipodi:sides="4" id="path3963" style="fill:aqua;fill-opacity:1;stroke:none" sodipodi:type="star" />
    </g>
  </g>
</svg>
