<?xml version="1.0" encoding="UTF-8" standalone="no"?>
<!-- Created with Inkscape (http://www.inkscape.org/) -->

<svg xmlns:dc="http://purl.org/dc/elements/1.1/" xmlns:cc="http://creativecommons.org/ns#" xmlns:rdf="http://www.w3.org/1999/02/22-rdf-syntax-ns#" xmlns:svg="http://www.w3.org/2000/svg" xmlns="http://www.w3.org/2000/svg" xmlns:sodipodi="http://sodipodi.sourceforge.net/DTD/sodipodi-0.dtd" xmlns:inkscape="http://www.inkscape.org/namespaces/inkscape" width="32" height="32" id="svg4150" version="1.1" inkscape:version="0.91 r13725" viewBox="0 0 32 32" sodipodi:docname="symbol-green-list-00.svg">
  <defs id="defs4152" />
  <sodipodi:namedview id="base" pagecolor="#ffffff" bordercolor="#666666" borderopacity="1.0" inkscape:pageopacity="0.0" inkscape:pageshadow="2" inkscape:zoom="21.832661" inkscape:cx="15.198449" inkscape:cy="16" inkscape:current-layer="layer1" showgrid="true" inkscape:grid-bbox="true" inkscape:document-units="px" objecttolerance="10000" inkscape:snap-perpendicular="true" guidetolerance="10000" inkscape:window-width="1600" inkscape:window-height="878" inkscape:window-x="0" inkscape:window-y="0" inkscape:window-maximized="1" showguides="true" inkscape:guide-bbox="true">
    <inkscape:grid type="xygrid" id="grid4698" empspacing="4" />
    <sodipodi:guide position="16,32" orientation="1,0" id="guide4769" />
    <sodipodi:guide position="-4,16" orientation="0,1" id="guide4771" />
    <sodipodi:guide position="16,16" orientation="-0.70710678,0.70710678" id="guide4773" />
    <sodipodi:guide position="16,16" orientation="0.70710678,0.70710678" id="guide4775" />
  </sodipodi:namedview>
  <metadata id="metadata4155">
    <rdf:RDF>
      <cc:Work rdf:about="">
        <dc:format>image/svg+xml</dc:format>
        <dc:type rdf:resource="http://purl.org/dc/dcmitype/StillImage" />
        <dc:title></dc:title>
      </cc:Work>
    </rdf:RDF>
  </metadata>
  <g id="layer1" inkscape:label="Layer 1" inkscape:groupmode="layer">
    <rect style="fill:black;fill-opacity:0.50196078;stroke:none" id="rect4890" width="20" height="26" x="5" y="3.9999998" />
    <rect y="3" x="6" height="26" width="20" id="rect4866" style="fill:#9f5;fill-opacity:1;stroke:none" />
    <rect y="3" x="6" height="4" width="20" id="rect4868" style="fill:black;fill-opacity:1;stroke:none" />
    <rect y="7" x="6" height="22" width="2" id="rect4892" style="fill:green;fill-opacity:0.50196078;stroke:none" />
    <g transform="scale(0.9999885,1.0000115)" style="font-style:normal;font-variant:normal;font-weight:normal;font-stretch:normal;font-size:109.99873352px;line-height:125%;font-family:Elegante;-inkscape-font-specification:Elegante;text-align:start;writing-mode:lr-tb;text-anchor:start;fill:#250;fill-opacity:1;stroke:none" id="text5873">
      <path d="m 9.9925346,10.710326 -0.3771972,0 0,-1.0327146 c -6e-7,-0.021158 -6e-7,-0.046386 0,-0.075684 8.132e-4,-0.03011 0.00163,-0.061034 0.00244,-0.092773 0.00163,-0.032551 0.00285,-0.065103 0.00366,-0.097656 0.00163,-0.032551 0.00285,-0.062254 0.00366,-0.089111 -0.00407,0.00488 -0.010987,0.012208 -0.020752,0.021973 -0.00977,0.00977 -0.020752,0.020753 -0.032959,0.032959 -0.012208,0.011394 -0.024822,0.023195 -0.037842,0.0354 -0.013021,0.012208 -0.025635,0.023195 -0.037842,0.032959 L 9.2906303,9.6104727 9.1075249,9.3834219 9.682476,8.9256582 l 0.3100586,0 0,1.7846678" style="font-weight:bold;font-size:2.5px;font-family:'Droid Sans';-inkscape-font-specification:'Droid Sans Bold';fill:#250" id="path5901" inkscape:connector-curvature="0" />
      <path d="m 10.514996,10.535766 c -10e-7,-0.03825 0.0053,-0.07039 0.01587,-0.09644 0.01139,-0.02685 0.02685,-0.04842 0.04639,-0.0647 0.01953,-0.01628 0.04232,-0.02808 0.06836,-0.0354 0.02604,-0.0073 0.05412,-0.01099 0.08423,-0.01099 0.02848,0 0.05534,0.0037 0.08057,0.01099 0.02604,0.0073 0.04883,0.01912 0.06836,0.0354 0.01953,0.01628 0.03499,0.03784 0.04639,0.0647 0.01139,0.02604 0.01709,0.05819 0.01709,0.09644 -1e-6,0.03662 -0.0057,0.06795 -0.01709,0.09399 -0.01139,0.02604 -0.02686,0.04761 -0.04639,0.0647 -0.01953,0.01709 -0.04232,0.0293 -0.06836,0.03662 -0.02523,0.0081 -0.05208,0.01221 -0.08057,0.01221 -0.03011,0 -0.05819,-0.0041 -0.08423,-0.01221 -0.02604,-0.0073 -0.04883,-0.01953 -0.06836,-0.03662 -0.01953,-0.01709 -0.03499,-0.03866 -0.04639,-0.0647 -0.01058,-0.02604 -0.01587,-0.05737 -0.01587,-0.09399" style="font-weight:bold;font-size:2.5px;font-family:'Droid Sans';-inkscape-font-specification:'Droid Sans Bold';fill:#250" id="path5903" inkscape:connector-curvature="0" />
      <path d="m 12.977154,10.710326 -0.122071,-0.424804 -0.615234,0 -0.123291,0.424804 -0.38208,0 0.579834,-1.791992 0.462646,0 0.582276,1.791992 -0.38208,0 M 12.767193,9.9681387 12.652447,9.5775137 c -0.0049,-0.014647 -0.01221,-0.038654 -0.02197,-0.072021 -0.0098,-0.033365 -0.02035,-0.069986 -0.03174,-0.1098633 -0.01058,-0.040689 -0.02075,-0.081379 -0.03052,-0.1220703 -0.0098,-0.040689 -0.01668,-0.075275 -0.02075,-0.1037597 -0.0033,0.017905 -0.0077,0.039064 -0.01343,0.063477 -0.0049,0.024415 -0.01099,0.050457 -0.01831,0.078125 -0.0065,0.026857 -0.01343,0.054119 -0.02075,0.081787 -0.0073,0.027671 -0.01424,0.053712 -0.02075,0.078125 -0.0065,0.024415 -0.01262,0.045981 -0.01831,0.064697 -0.0049,0.018719 -0.0085,0.032553 -0.01099,0.041504 l -0.113525,0.390625 0.435791,0" style="font-weight:bold;font-size:2.5px;font-family:'Droid Sans';-inkscape-font-specification:'Droid Sans Bold';fill:#250" id="path5905" inkscape:connector-curvature="0" />
      <path d="m 14.598248,10.710326 -0.104981,-0.477295 c -0.0033,-0.01383 -0.0077,-0.03336 -0.01343,-0.05859 -0.0049,-0.02604 -0.01058,-0.05493 -0.01709,-0.08667 -0.0065,-0.03255 -0.01343,-0.06673 -0.02075,-0.1025395 -0.0065,-0.03662 -0.01343,-0.072834 -0.02075,-0.1086425 -0.01628,-0.083821 -0.03418,-0.1741527 -0.05371,-0.2709961 l -0.0073,0 c -0.01872,0.096843 -0.03581,0.1875823 -0.05127,0.2722168 -0.0065,0.035808 -0.01343,0.072022 -0.02075,0.1086425 -0.0065,0.036622 -0.01302,0.071209 -0.01953,0.1037598 -0.0065,0.03174 -0.01262,0.06063 -0.01831,0.08667 -0.0049,0.02604 -0.009,0.04639 -0.01221,0.06104 l -0.109863,0.472412 -0.400391,0 -0.367431,-1.3647459 0.369873,0 0.137939,0.604248 c 0.0073,0.031739 0.01465,0.069988 0.02197,0.1147459 0.0081,0.04395 0.01546,0.0887 0.02197,0.134278 0.0073,0.04476 0.01383,0.08748 0.01953,0.128173 0.0057,0.03988 0.01017,0.07161 0.01343,0.09521 l 0.0073,0 c 8.13e-4,-0.01546 0.0024,-0.0354 0.0049,-0.05981 0.0033,-0.02523 0.0069,-0.05208 0.01099,-0.08057 0.0041,-0.02848 0.0081,-0.05737 0.01221,-0.08667 0.0049,-0.03011 0.0094,-0.05819 0.01343,-0.08423 0.0049,-0.02604 0.009,-0.04883 0.01221,-0.06836 0.0041,-0.02035 0.0073,-0.03459 0.0098,-0.042725 l 0.148926,-0.6542969 0.410156,0 0.142822,0.6542969 c 0.0041,0.017904 0.0094,0.045574 0.01587,0.083008 0.0065,0.03744 0.01302,0.07772 0.01953,0.120849 0.0073,0.04232 0.01343,0.08382 0.01831,0.124512 0.0049,0.03988 0.0077,0.07121 0.0085,0.09399 l 0.0073,0 c 0.0024,-0.02034 0.0065,-0.05046 0.01221,-0.09033 0.0065,-0.03988 0.01343,-0.0826 0.02075,-0.128174 0.0073,-0.04639 0.01505,-0.09237 0.02319,-0.137939 0.0089,-0.04557 0.01709,-0.084228 0.02441,-0.1159669 l 0.142822,-0.604248 0.36499,0 -0.372314,1.3647459 -0.405273,0" style="font-weight:bold;font-size:2.5px;font-family:'Droid Sans';-inkscape-font-specification:'Droid Sans Bold';fill:#250" id="path5907" inkscape:connector-curvature="0" />
      <path d="m 16.364605,10.710326 -0.07202,-0.185547 -0.01099,0 c -0.02686,0.03662 -0.05371,0.06836 -0.08057,0.09521 -0.02686,0.02604 -0.05615,0.04761 -0.08789,0.0647 -0.03174,0.01709 -0.06755,0.0297 -0.107422,0.03784 -0.03906,0.0081 -0.08464,0.01221 -0.136719,0.01221 -0.05534,0 -0.106608,-0.0085 -0.153808,-0.02564 -0.0472,-0.0179 -0.0883,-0.04435 -0.123291,-0.07935 -0.03418,-0.03581 -0.06104,-0.08057 -0.08057,-0.134278 -0.01953,-0.05452 -0.0293,-0.118814 -0.0293,-0.192871 -1e-6,-0.144856 0.04639,-0.251464 0.13916,-0.3198239 0.09277,-0.069172 0.231526,-0.107421 0.41626,-0.1147461 l 0.217285,-0.00732 0,-0.102539 c -10e-7,-0.056151 -0.01628,-0.097655 -0.04883,-0.1245118 -0.03255,-0.026854 -0.07813,-0.040282 -0.136719,-0.040283 -0.0586,1.2e-6 -0.115968,0.00855 -0.172119,0.025635 -0.05534,0.017091 -0.111085,0.039877 -0.167237,0.068359 L 15.60899,9.4407949 c 0.06836,-0.038247 0.144042,-0.068358 0.22705,-0.090332 0.08301,-0.021971 0.170085,-0.032958 0.261231,-0.032959 0.170084,1.4e-6 0.300292,0.039878 0.390625,0.1196289 0.09115,0.079754 0.136717,0.2010102 0.136719,0.3637696 l 0,0.9094236 -0.26001,0 m -0.109863,-0.632324 -0.123291,0.0049 c -0.04964,0.0016 -0.09155,0.0081 -0.125733,0.01953 -0.03418,0.01139 -0.06185,0.02686 -0.08301,0.04639 -0.02035,0.01872 -0.0354,0.0415 -0.04517,0.06836 -0.009,0.02604 -0.01343,0.05534 -0.01343,0.08789 -10e-7,0.05697 0.01383,0.09766 0.0415,0.12207 0.02767,0.0236 0.06388,0.0354 0.108642,0.0354 0.03418,1e-6 0.06592,-0.0057 0.09521,-0.01709 0.0293,-0.01221 0.05452,-0.0297 0.07568,-0.05249 0.02197,-0.0236 0.03906,-0.05208 0.05127,-0.08545 0.01221,-0.03418 0.01831,-0.07324 0.01831,-0.117187 l 0,-0.112305" style="font-weight:bold;font-size:2.5px;font-family:'Droid Sans';-inkscape-font-specification:'Droid Sans Bold';fill:#250" id="path5909" inkscape:connector-curvature="0" />
      <path d="m 17.365582,9.9681387 0.136718,-0.2075195 0.333252,-0.4150391 0.419922,0 -0.493164,0.592041 0.524902,0.7727049 -0.429687,0 -0.332031,-0.524902 -0.145264,0.100098 0,0.424804 -0.372315,0 0,-1.8994139 0.372315,0 0,0.847168 -0.01953,0.3100586 0.0049,0" style="font-weight:bold;font-size:2.5px;font-family:'Droid Sans';-inkscape-font-specification:'Droid Sans Bold';fill:#250" id="path5911" inkscape:connector-curvature="0" />
      <path d="m 19.034283,9.5848379 c -0.06592,1.1e-6 -0.120851,0.023195 -0.164795,0.06958 -0.04313,0.046388 -0.06795,0.1192229 -0.07446,0.2185059 l 0.474853,0 c -8.14e-4,-0.041503 -0.0061,-0.079752 -0.01587,-0.1147461 -0.0098,-0.034992 -0.02442,-0.065103 -0.04395,-0.090332 -0.01953,-0.026041 -0.04395,-0.046386 -0.07324,-0.061035 -0.0293,-0.014647 -0.06348,-0.021972 -0.102539,-0.021973 m 0.04761,1.1499023 c -0.09766,0 -0.187582,-0.01424 -0.269775,-0.04272 -0.08219,-0.02848 -0.152995,-0.07121 -0.212403,-0.128174 -0.05941,-0.05778 -0.105794,-0.130208 -0.13916,-0.217285 -0.03255,-0.08789 -0.04883,-0.190836 -0.04883,-0.308838 0,-0.1196285 0.01506,-0.224202 0.04517,-0.3137211 0.03011,-0.089517 0.07202,-0.16398 0.125733,-0.2233887 0.05452,-0.06022 0.119628,-0.1053861 0.195312,-0.135498 0.0765,-0.030109 0.161132,-0.045165 0.253906,-0.045166 0.09033,1.4e-6 0.171712,0.013836 0.244141,0.041504 0.07324,0.026857 0.13509,0.066733 0.185547,0.1196289 0.05127,0.052898 0.09033,0.1180025 0.117187,0.1953125 0.02767,0.076498 0.0415,0.1643889 0.0415,0.2636719 l 0,0.1806645 -0.832519,0 c 0.0016,0.05208 0.0098,0.09928 0.02441,0.141601 0.01546,0.0415 0.03662,0.07691 0.06348,0.106201 0.02767,0.02848 0.06063,0.05046 0.09888,0.06592 0.03906,0.01546 0.08341,0.02319 0.133057,0.02319 0.0415,0 0.08057,-0.002 0.117187,-0.0061 0.03743,-0.0049 0.07365,-0.0118 0.108643,-0.02075 0.03499,-0.009 0.06958,-0.01994 0.10376,-0.03296 0.03418,-0.01383 0.06917,-0.0297 0.10498,-0.04761 l 0,0.288086 c -0.03255,0.01709 -0.06551,0.03174 -0.09888,0.04394 -0.03255,0.01139 -0.06714,0.02116 -0.10376,0.0293 -0.03662,0.0081 -0.07609,0.01384 -0.118408,0.01709 -0.04232,0.0041 -0.08871,0.0061 -0.13916,0.0061" style="font-weight:bold;font-size:2.5px;font-family:'Droid Sans';-inkscape-font-specification:'Droid Sans Bold';fill:#250" id="path5913" inkscape:connector-curvature="0" />
      <path d="m 21.121685,10.710326 -0.372314,0 0,-0.7971189 c -1e-6,-0.098469 -0.01506,-0.1721182 -0.04517,-0.2209473 -0.0293,-0.049641 -0.0765,-0.074462 -0.141602,-0.074463 -0.04883,1.1e-6 -0.08952,0.00977 -0.12207,0.029297 -0.03255,0.019532 -0.05859,0.048422 -0.07813,0.08667 -0.01872,0.03825 -0.03215,0.08545 -0.04028,0.1416016 -0.0081,0.056153 -0.01221,0.1204434 -0.01221,0.1928706 l 0,0.64209 -0.372314,0 0,-1.3647458 0.284424,0 0.05005,0.1745605 0.02075,0 c 0.01953,-0.034992 0.04313,-0.065103 0.0708,-0.090332 0.02848,-0.025226 0.05941,-0.045978 0.09277,-0.062256 0.03336,-0.016275 0.06876,-0.028075 0.106201,-0.0354 0.03743,-0.00814 0.07568,-0.012206 0.114746,-0.012207 0.06673,1.4e-6 0.127359,0.00977 0.181885,0.029297 0.05452,0.018719 0.101317,0.048422 0.140381,0.089111 0.03906,0.040691 0.06917,0.092775 0.09033,0.15625 0.02116,0.062664 0.03174,0.1379405 0.03174,0.2258301 l 0,0.8898922" style="font-weight:bold;font-size:2.5px;font-family:'Droid Sans';-inkscape-font-specification:'Droid Sans Bold';fill:#250" id="path5915" inkscape:connector-curvature="0" />
      <path d="m 21.489117,8.9927969 c -1e-6,-0.034992 0.0053,-0.063882 0.01587,-0.08667 0.01058,-0.023599 0.02482,-0.042316 0.04272,-0.056152 0.01872,-0.014646 0.04028,-0.024819 0.0647,-0.030518 0.02523,-0.00569 0.05168,-0.00854 0.07935,-0.00854 0.02767,1.9e-6 0.05371,0.00285 0.07813,0.00854 0.02441,0.0057 0.04557,0.015871 0.06348,0.030518 0.01872,0.013837 0.03336,0.032554 0.04395,0.056152 0.01139,0.022788 0.01709,0.051678 0.01709,0.08667 0,0.034181 -0.0057,0.063071 -0.01709,0.08667 -0.01058,0.023602 -0.02523,0.042726 -0.04395,0.057373 -0.0179,0.013836 -0.03906,0.024009 -0.06348,0.030518 -0.02441,0.0057 -0.05046,0.00855 -0.07813,0.00854 -0.02767,1.5e-6 -0.05412,-0.00285 -0.07935,-0.00854 -0.02441,-0.00651 -0.04598,-0.016681 -0.0647,-0.030518 -0.0179,-0.014647 -0.03214,-0.033771 -0.04272,-0.057373 -0.01058,-0.023599 -0.01587,-0.052489 -0.01587,-0.08667 m 0.388183,1.7175291 -0.372314,0 0,-1.3647459 0.372314,0 0,1.3647459" style="font-weight:bold;font-size:2.5px;font-family:'Droid Sans';-inkscape-font-specification:'Droid Sans Bold';fill:#250" id="path5917" inkscape:connector-curvature="0" />
      <path d="m 23.450787,10.710326 -0.372315,0 0,-0.7971189 c -1e-6,-0.098469 -0.01506,-0.1721182 -0.04517,-0.2209473 -0.0293,-0.049641 -0.0765,-0.074462 -0.141601,-0.074463 -0.04883,1.1e-6 -0.08952,0.00977 -0.122071,0.029297 -0.03255,0.019532 -0.05859,0.048422 -0.07813,0.08667 -0.01872,0.03825 -0.03215,0.08545 -0.04028,0.1416016 -0.0081,0.056153 -0.01221,0.1204434 -0.01221,0.1928706 l 0,0.64209 -0.372314,0 0,-1.3647458 0.284423,0 0.05005,0.1745605 0.02075,0 c 0.01953,-0.034992 0.04313,-0.065103 0.0708,-0.090332 0.02848,-0.025226 0.05941,-0.045978 0.09277,-0.062256 0.03337,-0.016275 0.06877,-0.028075 0.106202,-0.0354 0.03743,-0.00814 0.07568,-0.012206 0.114746,-0.012207 0.06673,1.4e-6 0.127359,0.00977 0.181884,0.029297 0.05452,0.018719 0.101318,0.048422 0.140381,0.089111 0.03906,0.040691 0.06917,0.092775 0.09033,0.15625 0.02116,0.062664 0.03174,0.1379405 0.03174,0.2258301 l 0,0.8898922" style="font-weight:bold;font-size:2.5px;font-family:'Droid Sans';-inkscape-font-specification:'Droid Sans Bold';fill:#250" id="path5919" inkscape:connector-curvature="0" />
      <path d="m 24.963238,9.3480215 0,0.2026367 -0.198975,0.062256 c 0.01628,0.02767 0.02767,0.05656 0.03418,0.08667 0.0065,0.029298 0.0098,0.061036 0.0098,0.095215 -1e-6,0.069174 -0.01099,0.1326505 -0.03296,0.1904296 -0.02197,0.056966 -0.05452,0.1057942 -0.09766,0.1464842 -0.04313,0.04069 -0.09725,0.07243 -0.162353,0.09521 -0.0651,0.02197 -0.140789,0.03296 -0.227051,0.03296 -0.01872,0 -0.03906,-8.14e-4 -0.06104,-0.0024 -0.02197,-0.0024 -0.03825,-0.0049 -0.04883,-0.0073 -0.01628,0.01384 -0.0293,0.02848 -0.03906,0.04395 -0.009,0.01465 -0.01343,0.03255 -0.01343,0.05371 0,0.01709 0.0053,0.03092 0.01587,0.0415 0.01058,0.0098 0.02441,0.0179 0.0415,0.02441 0.01709,0.0057 0.03703,0.0098 0.05982,0.01221 0.02279,0.0016 0.04639,0.0024 0.0708,0.0024 l 0.212402,0 c 0.06592,0 0.124918,0.0077 0.177002,0.02319 0.05208,0.01465 0.09603,0.03744 0.131836,0.06836 0.03662,0.03092 0.0647,0.07039 0.08423,0.118408 0.01953,0.0472 0.0293,0.103759 0.0293,0.169677 -1e-6,0.07731 -0.01546,0.146891 -0.04639,0.208741 -0.03093,0.06266 -0.07731,0.115559 -0.139161,0.158691 -0.06104,0.04395 -0.137126,0.07731 -0.228271,0.100098 -0.09115,0.0236 -0.196534,0.0354 -0.316162,0.0354 -0.09277,0 -0.173747,-0.009 -0.24292,-0.02685 -0.06917,-0.01709 -0.126953,-0.04232 -0.17334,-0.07568 -0.04639,-0.03255 -0.08138,-0.07202 -0.10498,-0.118408 -0.02279,-0.04639 -0.03418,-0.09888 -0.03418,-0.157471 0,-0.04964 0.0085,-0.09277 0.02564,-0.129394 0.01709,-0.03662 0.03988,-0.06795 0.06836,-0.094 0.02848,-0.02604 0.06063,-0.0472 0.09644,-0.06348 0.03662,-0.01628 0.07406,-0.02889 0.112304,-0.03784 -0.01709,-0.0073 -0.03418,-0.0175 -0.05127,-0.03052 -0.01628,-0.01302 -0.03133,-0.02808 -0.04517,-0.04517 -0.01302,-0.01709 -0.02401,-0.03581 -0.03296,-0.05615 -0.0081,-0.02116 -0.01221,-0.04313 -0.01221,-0.06592 0,-0.02604 0.0037,-0.04964 0.01099,-0.0708 0.0081,-0.02116 0.01953,-0.04069 0.03418,-0.05859 0.01465,-0.01872 0.03296,-0.03621 0.05493,-0.05249 0.02197,-0.01627 0.04679,-0.03296 0.07446,-0.05005 -0.07161,-0.03092 -0.128581,-0.08057 -0.170898,-0.148926 -0.0415,-0.068359 -0.06226,-0.1489248 -0.06226,-0.2416991 0,-0.073241 0.01139,-0.1387522 0.03418,-0.1965332 0.02279,-0.057779 0.05615,-0.1066068 0.100097,-0.1464843 0.04395,-0.040689 0.09847,-0.071613 0.163575,-0.092773 0.0651,-0.021157 0.139973,-0.031737 0.224609,-0.031738 0.01628,1.4e-6 0.03459,0.00122 0.05493,0.00366 0.02034,0.00163 0.04028,0.00407 0.05981,0.00732 0.02034,0.00244 0.03906,0.00529 0.05615,0.00854 0.01709,0.00326 0.03052,0.0061 0.04028,0.00854 l 0.463867,0 m -0.976563,1.5551756 c 0,0.02034 0.0041,0.03988 0.01221,0.05859 0.009,0.01953 0.02319,0.03662 0.04273,0.05127 0.01953,0.01465 0.04517,0.02604 0.0769,0.03418 0.03174,0.009 0.0708,0.01343 0.117188,0.01343 0.126952,0 0.222574,-0.0179 0.286865,-0.05371 0.06429,-0.03581 0.09643,-0.08382 0.09643,-0.144043 0,-0.05127 -0.01994,-0.08545 -0.05981,-0.102539 -0.03988,-0.01709 -0.101726,-0.02563 -0.185547,-0.02563 l -0.172119,0 c -0.02197,0 -0.04557,0.0024 -0.0708,0.0073 -0.02523,0.0057 -0.04842,0.01506 -0.06958,0.02808 -0.02116,0.01302 -0.03906,0.03011 -0.05371,0.05127 -0.01384,0.02197 -0.02075,0.04923 -0.02075,0.08179 m 0.134278,-1.1108397 c -1e-6,0.074057 0.01383,0.1314299 0.0415,0.1721192 0.02767,0.040688 0.06958,0.061034 0.125732,0.061034 0.05859,0 0.100911,-0.02035 0.126953,-0.061034 0.02604,-0.040689 0.03906,-0.098062 0.03906,-0.1721192 -10e-7,-0.073241 -0.01302,-0.1314279 -0.03906,-0.1745605 -0.02523,-0.04313 -0.06755,-0.064696 -0.126953,-0.064697 -0.111491,1.2e-6 -0.167237,0.079754 -0.167236,0.2392578" style="font-weight:bold;font-size:2.5px;font-family:'Droid Sans';-inkscape-font-specification:'Droid Sans Bold';fill:#250" id="path5921" inkscape:connector-curvature="0" />
      <path d="m 10.292828,13.835326 -1.1975102,0 0,-0.262451 0.4199219,-0.452881 c 0.052897,-0.05696 0.1009109,-0.109455 0.144043,-0.157471 0.043131,-0.04801 0.080159,-0.09481 0.111084,-0.14038 0.030924,-0.04557 0.054931,-0.09196 0.072021,-0.139161 0.017089,-0.0472 0.025634,-0.09806 0.025635,-0.152587 -9e-7,-0.06022 -0.018311,-0.107014 -0.054932,-0.140381 -0.035808,-0.03336 -0.084229,-0.05005 -0.1452637,-0.05005 -0.064291,10e-7 -0.1261399,0.01587 -0.1855469,0.04761 -0.059408,0.03174 -0.1216637,0.07691 -0.1867675,0.135498 L 9.090435,12.28015 c 0.036621,-0.03336 0.07487,-0.0651 0.1147461,-0.09521 0.039876,-0.03092 0.083821,-0.05819 0.131836,-0.08179 0.048014,-0.0236 0.100911,-0.04231 0.1586914,-0.05615 0.057779,-0.01465 0.1224766,-0.02197 0.1940918,-0.02197 0.085448,2e-6 0.1619457,0.0118 0.2294921,0.0354 0.068358,0.0236 0.1265456,0.05738 0.1745606,0.101318 0.04801,0.04313 0.08463,0.09562 0.109863,0.157471 0.02604,0.06185 0.03906,0.13143 0.03906,0.20874 -10e-7,0.06999 -0.01221,0.137127 -0.03662,0.201416 -0.02442,0.06348 -0.05778,0.12614 -0.100098,0.187988 -0.04232,0.06104 -0.09155,0.122072 -0.1477051,0.183106 -0.055339,0.06022 -0.1147469,0.121664 -0.1782226,0.184326 l -0.2148438,0.216065 0,0.01709 0.7275395,0 0,0.317383" style="font-weight:bold;font-size:2.5px;font-family:'Droid Sans';-inkscape-font-specification:'Droid Sans Bold';fill:#250" id="path5923" inkscape:connector-curvature="0" />
      <path d="m 10.514996,13.660766 c -10e-7,-0.03825 0.0053,-0.07039 0.01587,-0.09644 0.01139,-0.02685 0.02685,-0.04842 0.04639,-0.0647 0.01953,-0.01628 0.04232,-0.02808 0.06836,-0.0354 0.02604,-0.0073 0.05412,-0.01099 0.08423,-0.01099 0.02848,0 0.05534,0.0037 0.08057,0.01099 0.02604,0.0073 0.04883,0.01912 0.06836,0.0354 0.01953,0.01628 0.03499,0.03784 0.04639,0.0647 0.01139,0.02604 0.01709,0.05819 0.01709,0.09644 -1e-6,0.03662 -0.0057,0.06795 -0.01709,0.09399 -0.01139,0.02604 -0.02686,0.04761 -0.04639,0.0647 -0.01953,0.01709 -0.04232,0.0293 -0.06836,0.03662 -0.02523,0.0081 -0.05208,0.01221 -0.08057,0.01221 -0.03011,0 -0.05819,-0.0041 -0.08423,-0.01221 -0.02604,-0.0073 -0.04883,-0.01953 -0.06836,-0.03662 -0.01953,-0.01709 -0.03499,-0.03866 -0.04639,-0.0647 -0.01058,-0.02604 -0.01587,-0.05737 -0.01587,-0.09399" style="font-weight:bold;font-size:2.5px;font-family:'Droid Sans';-inkscape-font-specification:'Droid Sans Bold';fill:#250" id="path5925" inkscape:connector-curvature="0" />
      <path d="m 13.321392,13.835326 -0.377197,0 0,-0.770263 -0.60669,0 0,0.770263 -0.378418,0 0,-1.784668 0.378418,0 0,0.699463 0.60669,0 0,-0.699463 0.377197,0 0,1.784668" style="font-weight:bold;font-size:2.5px;font-family:'Droid Sans';-inkscape-font-specification:'Droid Sans Bold';fill:#250" id="path5927" inkscape:connector-curvature="0" />
      <path d="m 14.633648,13.835326 -0.05005,-0.17456 -0.01953,0 c -0.02035,0.03499 -0.04476,0.0651 -0.07324,0.09033 -0.02767,0.02441 -0.05819,0.04476 -0.09155,0.06103 -0.03337,0.01628 -0.06877,0.02808 -0.106201,0.0354 -0.03744,0.0081 -0.07569,0.01221 -0.114746,0.01221 -0.06673,0 -0.127361,-0.0094 -0.181885,-0.02808 -0.05452,-0.01953 -0.101319,-0.04964 -0.140381,-0.09033 -0.03906,-0.04069 -0.06917,-0.09237 -0.09033,-0.155029 -0.02116,-0.06266 -0.03174,-0.137939 -0.03174,-0.22583 l 0,-0.889893 0.372314,0 0,0.797119 c 0,0.09847 0.01465,0.172527 0.04395,0.222168 0.03011,0.04883 0.07772,0.07324 0.142823,0.07324 0.04883,1e-6 0.08952,-0.0098 0.12207,-0.0293 0.03255,-0.01953 0.05819,-0.04842 0.0769,-0.08667 0.01953,-0.03825 0.03336,-0.08545 0.0415,-0.141602 0.0081,-0.05615 0.01221,-0.120442 0.01221,-0.192871 l 0,-0.64209 0.372315,0 0,1.364746 -0.284424,0" style="font-weight:bold;font-size:2.5px;font-family:'Droid Sans';-inkscape-font-specification:'Droid Sans Bold';fill:#250" id="path5929" inkscape:connector-curvature="0" />
      <path d="m 16.492779,13.835326 -0.372315,0 0,-0.797119 c -10e-7,-0.09847 -0.01506,-0.172118 -0.04517,-0.220947 -0.0293,-0.04964 -0.0765,-0.07446 -0.141601,-0.07446 -0.04883,10e-7 -0.08952,0.0098 -0.122071,0.0293 -0.03255,0.01953 -0.05859,0.04842 -0.07813,0.08667 -0.01872,0.03825 -0.03214,0.08545 -0.04028,0.141601 -0.0081,0.05615 -0.01221,0.120444 -0.01221,0.192871 l 0,0.64209 -0.372314,0 0,-1.364746 0.284424,0 0.05005,0.174561 0.02075,0 c 0.01953,-0.03499 0.04313,-0.0651 0.0708,-0.09033 0.02848,-0.02523 0.05941,-0.04598 0.09277,-0.06226 0.03336,-0.01627 0.06877,-0.02807 0.106201,-0.0354 0.03743,-0.0081 0.07568,-0.0122 0.114746,-0.01221 0.06673,2e-6 0.127359,0.0098 0.181885,0.0293 0.05452,0.01872 0.101317,0.04842 0.14038,0.08911 0.03906,0.04069 0.06917,0.09277 0.09033,0.15625 0.02116,0.06266 0.03174,0.13794 0.03174,0.22583 l 0,0.889892" style="font-weight:bold;font-size:2.5px;font-family:'Droid Sans';-inkscape-font-specification:'Droid Sans Bold';fill:#250" id="path5931" inkscape:connector-curvature="0" />
      <path d="m 17.430279,13.563109 c 0.03662,10e-7 0.07121,-0.0041 0.10376,-0.01221 0.03336,-0.0081 0.06714,-0.01831 0.101318,-0.03052 l 0,0.277099 c -0.03499,0.0179 -0.07853,0.03255 -0.130615,0.04395 -0.05127,0.01221 -0.107423,0.01831 -0.168457,0.01831 -0.05941,0 -0.114747,-0.0069 -0.166016,-0.02075 -0.05127,-0.01383 -0.09562,-0.03784 -0.133057,-0.07202 -0.03743,-0.03499 -0.06714,-0.08138 -0.08911,-0.13916 -0.02116,-0.05859 -0.03174,-0.131836 -0.03174,-0.219727 l 0,-0.657959 -0.178223,0 0,-0.157471 0.205078,-0.124511 0.107422,-0.288086 0.238037,0 0,0.290527 0.332031,0 0,0.279541 -0.332031,0 0,0.657959 c 0,0.0529 0.01302,0.09196 0.03906,0.117188 0.02604,0.02523 0.06022,0.03784 0.102539,0.03784" style="font-weight:bold;font-size:2.5px;font-family:'Droid Sans';-inkscape-font-specification:'Droid Sans Bold';fill:#250" id="path5933" inkscape:connector-curvature="0" />
      <path d="m 17.895367,12.117797 c -1e-6,-0.03499 0.0053,-0.06388 0.01587,-0.08667 0.01058,-0.0236 0.02482,-0.04232 0.04272,-0.05615 0.01872,-0.01465 0.04028,-0.02482 0.0647,-0.03052 0.02523,-0.0057 0.05168,-0.0085 0.07935,-0.0085 0.02767,2e-6 0.05371,0.0029 0.07813,0.0085 0.02441,0.0057 0.04557,0.01587 0.06348,0.03052 0.01872,0.01384 0.03336,0.03255 0.04395,0.05615 0.01139,0.02279 0.01709,0.05168 0.01709,0.08667 0,0.03418 -0.0057,0.06307 -0.01709,0.08667 -0.01058,0.0236 -0.02523,0.04273 -0.04395,0.05737 -0.0179,0.01384 -0.03906,0.02401 -0.06348,0.03052 -0.02441,0.0057 -0.05046,0.0085 -0.07813,0.0085 -0.02767,2e-6 -0.05412,-0.0028 -0.07935,-0.0085 -0.02441,-0.0065 -0.04598,-0.01668 -0.0647,-0.03052 -0.0179,-0.01465 -0.03214,-0.03377 -0.04272,-0.05737 -0.01058,-0.0236 -0.01587,-0.05249 -0.01587,-0.08667 m 0.388183,1.717529 -0.372314,0 0,-1.364746 0.372314,0 0,1.364746" style="font-weight:bold;font-size:2.5px;font-family:'Droid Sans';-inkscape-font-specification:'Droid Sans Bold';fill:#250" id="path5935" inkscape:connector-curvature="0" />
      <path d="m 19.857037,13.835326 -0.372315,0 0,-0.797119 c -1e-6,-0.09847 -0.01506,-0.172118 -0.04517,-0.220947 -0.0293,-0.04964 -0.0765,-0.07446 -0.141601,-0.07446 -0.04883,10e-7 -0.08952,0.0098 -0.122071,0.0293 -0.03255,0.01953 -0.05859,0.04842 -0.07813,0.08667 -0.01872,0.03825 -0.03215,0.08545 -0.04028,0.141601 -0.0081,0.05615 -0.01221,0.120444 -0.01221,0.192871 l 0,0.64209 -0.372314,0 0,-1.364746 0.284423,0 0.05005,0.174561 0.02075,0 c 0.01953,-0.03499 0.04313,-0.0651 0.0708,-0.09033 0.02848,-0.02523 0.05941,-0.04598 0.09277,-0.06226 0.03337,-0.01627 0.06877,-0.02807 0.106202,-0.0354 0.03743,-0.0081 0.07568,-0.0122 0.114746,-0.01221 0.06673,2e-6 0.127359,0.0098 0.181884,0.0293 0.05452,0.01872 0.101318,0.04842 0.140381,0.08911 0.03906,0.04069 0.06917,0.09277 0.09033,0.15625 0.02116,0.06266 0.03174,0.13794 0.03174,0.22583 l 0,0.889892" style="font-weight:bold;font-size:2.5px;font-family:'Droid Sans';-inkscape-font-specification:'Droid Sans Bold';fill:#250" id="path5937" inkscape:connector-curvature="0" />
      <path d="m 21.369488,12.473022 0,0.202636 -0.198975,0.06226 c 0.01628,0.02767 0.02767,0.05656 0.03418,0.08667 0.0065,0.0293 0.0098,0.06104 0.0098,0.09521 -1e-6,0.06917 -0.01099,0.13265 -0.03296,0.19043 -0.02197,0.05697 -0.05452,0.105794 -0.09766,0.146484 -0.04313,0.04069 -0.09725,0.07243 -0.162353,0.09521 -0.0651,0.02197 -0.140789,0.03296 -0.227051,0.03296 -0.01872,0 -0.03906,-8.14e-4 -0.06104,-0.0024 -0.02197,-0.0024 -0.03825,-0.0049 -0.04883,-0.0073 -0.01628,0.01384 -0.0293,0.02848 -0.03906,0.04395 -0.009,0.01465 -0.01343,0.03255 -0.01343,0.05371 0,0.01709 0.0053,0.03092 0.01587,0.0415 0.01058,0.0098 0.02441,0.0179 0.0415,0.02441 0.01709,0.0057 0.03703,0.0098 0.05982,0.01221 0.02279,0.0016 0.04639,0.0024 0.0708,0.0024 l 0.212402,0 c 0.06592,0 0.124918,0.0077 0.177002,0.02319 0.05208,0.01465 0.09603,0.03744 0.131836,0.06836 0.03662,0.03092 0.0647,0.07039 0.08423,0.118408 0.01953,0.0472 0.0293,0.103759 0.0293,0.169677 -1e-6,0.07731 -0.01546,0.146891 -0.04639,0.208741 -0.03093,0.06266 -0.07731,0.115559 -0.139161,0.158691 -0.06104,0.04395 -0.137126,0.07731 -0.228271,0.100098 -0.09115,0.0236 -0.196534,0.0354 -0.316162,0.0354 -0.09277,0 -0.173747,-0.009 -0.24292,-0.02685 -0.06917,-0.01709 -0.126953,-0.04232 -0.17334,-0.07568 -0.04639,-0.03255 -0.08138,-0.07202 -0.10498,-0.118408 -0.02279,-0.04639 -0.03418,-0.09888 -0.03418,-0.157471 0,-0.04964 0.0085,-0.09277 0.02564,-0.129394 0.01709,-0.03662 0.03988,-0.06795 0.06836,-0.094 0.02848,-0.02604 0.06063,-0.0472 0.09644,-0.06348 0.03662,-0.01628 0.07406,-0.02889 0.112304,-0.03784 -0.01709,-0.0073 -0.03418,-0.0175 -0.05127,-0.03052 -0.01628,-0.01302 -0.03133,-0.02808 -0.04517,-0.04517 -0.01302,-0.01709 -0.02401,-0.03581 -0.03296,-0.05615 -0.0081,-0.02116 -0.01221,-0.04313 -0.01221,-0.06592 0,-0.02604 0.0037,-0.04964 0.01099,-0.0708 0.0081,-0.02116 0.01953,-0.04069 0.03418,-0.05859 0.01465,-0.01872 0.03296,-0.03621 0.05493,-0.05249 0.02197,-0.01627 0.04679,-0.03296 0.07446,-0.05005 -0.07161,-0.03092 -0.128581,-0.08057 -0.170898,-0.148926 -0.0415,-0.06836 -0.06226,-0.148925 -0.06226,-0.241699 0,-0.07324 0.01139,-0.138753 0.03418,-0.196534 0.02279,-0.05778 0.05615,-0.106606 0.100097,-0.146484 0.04395,-0.04069 0.09847,-0.07161 0.163575,-0.09277 0.0651,-0.02116 0.139973,-0.03174 0.224609,-0.03174 0.01628,2e-6 0.03459,0.0012 0.05493,0.0037 0.02034,0.0016 0.04028,0.0041 0.05981,0.0073 0.02034,0.0024 0.03906,0.0053 0.05615,0.0085 0.01709,0.0033 0.03052,0.0061 0.04028,0.0085 l 0.463867,0 m -0.976563,1.555175 c 0,0.02034 0.0041,0.03988 0.01221,0.05859 0.009,0.01953 0.02319,0.03662 0.04273,0.05127 0.01953,0.01465 0.04517,0.02604 0.0769,0.03418 0.03174,0.009 0.0708,0.01343 0.117188,0.01343 0.126952,0 0.222574,-0.0179 0.286865,-0.05371 0.06429,-0.03581 0.09643,-0.08382 0.09643,-0.144043 0,-0.05127 -0.01994,-0.08545 -0.05981,-0.102539 -0.03988,-0.01709 -0.101726,-0.02563 -0.185547,-0.02563 l -0.172119,0 c -0.02197,0 -0.04557,0.0024 -0.0708,0.0073 -0.02523,0.0057 -0.04842,0.01506 -0.06958,0.02808 -0.02116,0.01302 -0.03906,0.03011 -0.05371,0.05127 -0.01384,0.02197 -0.02075,0.04923 -0.02075,0.08179 m 0.134278,-1.11084 c -1e-6,0.07406 0.01383,0.13143 0.0415,0.17212 0.02767,0.04069 0.06958,0.06104 0.125732,0.06104 0.05859,0 0.100911,-0.02035 0.126953,-0.06104 0.02604,-0.04069 0.03906,-0.09806 0.03906,-0.17212 -10e-7,-0.07324 -0.01302,-0.131428 -0.03906,-0.17456 -0.02523,-0.04313 -0.06755,-0.0647 -0.126953,-0.0647 -0.111491,10e-7 -0.167237,0.07975 -0.167236,0.239257" style="font-weight:bold;font-size:2.5px;font-family:'Droid Sans';-inkscape-font-specification:'Droid Sans Bold';fill:#250" id="path5939" inkscape:connector-curvature="0" />
      <path d="m 10.223248,15.574828 c -2e-6,0.06185 -0.01017,0.117596 -0.03052,0.167236 -0.01953,0.04883 -0.04679,0.09196 -0.08179,0.129395 -0.03418,0.03662 -0.07487,0.06755 -0.1220705,0.09277 -0.046388,0.02441 -0.096843,0.04313 -0.1513672,0.05615 l 0,0.0073 c 0.144042,0.0179 0.2530917,0.06185 0.3271487,0.131836 0.07405,0.06917 0.111082,0.162761 0.111084,0.280762 -2e-6,0.07813 -0.01424,0.150553 -0.04273,0.217285 -0.02767,0.06592 -0.0708,0.123291 -0.129394,0.172119 -0.05778,0.04883 -0.1310235,0.08708 -0.2197269,0.114746 -0.087892,0.02686 -0.1916511,0.04028 -0.3112793,0.04028 -0.096029,0 -0.1863611,-0.0081 -0.2709961,-0.02441 -0.084636,-0.01546 -0.1635744,-0.03947 -0.2368164,-0.07202 l 0,-0.321045 c 0.036621,0.01953 0.075276,0.03662 0.1159668,0.05127 0.04069,0.01465 0.08138,0.02726 0.1220703,0.03784 0.04069,0.0098 0.080566,0.01709 0.1196289,0.02197 0.039876,0.0049 0.077311,0.0073 0.1123047,0.0073 0.069986,0 0.1281731,-0.0065 0.1745605,-0.01953 0.046386,-0.01302 0.083414,-0.03133 0.111084,-0.05493 0.027668,-0.0236 0.0472,-0.05168 0.058594,-0.08423 0.012206,-0.03337 0.01831,-0.06958 0.018311,-0.108643 -9e-7,-0.03662 -0.00773,-0.06958 -0.023193,-0.09888 -0.014649,-0.03011 -0.039063,-0.05534 -0.073242,-0.07568 -0.033367,-0.02116 -0.077312,-0.03743 -0.1318359,-0.04883 -0.054525,-0.01139 -0.121664,-0.01709 -0.201416,-0.01709 l -0.1269531,0 0,-0.264892 0.1245117,0 c 0.074869,10e-7 0.137125,-0.0065 0.1867676,-0.01953 0.049641,-0.01383 0.089111,-0.03214 0.1184082,-0.05493 0.03011,-0.0236 0.051269,-0.05086 0.063477,-0.08179 0.012206,-0.03092 0.01831,-0.06388 0.018311,-0.09888 -9e-7,-0.06348 -0.019939,-0.113117 -0.059814,-0.148926 -0.039063,-0.03581 -0.101319,-0.05371 -0.1867676,-0.05371 -0.039063,2e-6 -0.075684,0.0041 -0.1098632,0.01221 -0.033366,0.0073 -0.064698,0.01709 -0.093994,0.0293 -0.028483,0.0114 -0.054932,0.02442 -0.079346,0.03906 -0.023601,0.01384 -0.045166,0.02767 -0.064697,0.0415 L 9.0672417,15.325805 c 0.03418,-0.02523 0.071207,-0.04842 0.111084,-0.06958 0.04069,-0.02116 0.084635,-0.03947 0.1318359,-0.05493 0.0472,-0.01627 0.098063,-0.02889 0.1525879,-0.03784 0.054524,-0.009 0.112711,-0.01343 0.1745605,-0.01343 0.08789,2e-6 0.1676424,0.0098 0.2392578,0.0293 0.072427,0.01872 0.1342762,0.04639 0.1855472,0.08301 0.05127,0.03581 0.09074,0.08016 0.118408,0.133057 0.02848,0.05208 0.04272,0.111899 0.04272,0.179443" style="font-weight:bold;font-size:2.5px;font-family:'Droid Sans';-inkscape-font-specification:'Droid Sans Bold';fill:#250" id="path5941" inkscape:connector-curvature="0" />
      <path d="m 10.514996,16.785766 c -10e-7,-0.03825 0.0053,-0.07039 0.01587,-0.09644 0.01139,-0.02686 0.02685,-0.04842 0.04639,-0.0647 0.01953,-0.01628 0.04232,-0.02808 0.06836,-0.0354 0.02604,-0.0073 0.05412,-0.01099 0.08423,-0.01099 0.02848,0 0.05534,0.0037 0.08057,0.01099 0.02604,0.0073 0.04883,0.01913 0.06836,0.0354 0.01953,0.01628 0.03499,0.03784 0.04639,0.0647 0.01139,0.02604 0.01709,0.05819 0.01709,0.09644 -1e-6,0.03662 -0.0057,0.06795 -0.01709,0.09399 -0.01139,0.02604 -0.02686,0.04761 -0.04639,0.0647 -0.01953,0.01709 -0.04232,0.0293 -0.06836,0.03662 -0.02523,0.0081 -0.05208,0.01221 -0.08057,0.01221 -0.03011,0 -0.05819,-0.0041 -0.08423,-0.01221 -0.02604,-0.0073 -0.04883,-0.01953 -0.06836,-0.03662 -0.01953,-0.01709 -0.03499,-0.03865 -0.04639,-0.0647 -0.01058,-0.02604 -0.01587,-0.05737 -0.01587,-0.09399" style="font-weight:bold;font-size:2.5px;font-family:'Droid Sans';-inkscape-font-specification:'Droid Sans Bold';fill:#250" id="path5943" inkscape:connector-curvature="0" />
      <path d="m 12.337505,15.967895 0.102539,0 c 0.10498,10e-7 0.180257,-0.02075 0.22583,-0.06226 0.04557,-0.04232 0.06836,-0.104166 0.06836,-0.185547 -1e-6,-0.08463 -0.02442,-0.144856 -0.07324,-0.180664 -0.04883,-0.03581 -0.124513,-0.05371 -0.227051,-0.05371 l -0.09644,0 0,0.482178 m 0,0.307617 0,0.684814 -0.378418,0 0,-1.784668 0.488282,0 c 0.228677,2e-6 0.397541,0.04435 0.506591,0.133057 0.109049,0.08789 0.163573,0.221762 0.163575,0.401611 -2e-6,0.06104 -0.0081,0.116375 -0.02441,0.166016 -0.01628,0.04964 -0.03825,0.094 -0.06592,0.133056 -0.02686,0.03825 -0.05819,0.07202 -0.09399,0.101319 -0.03499,0.02848 -0.07202,0.05249 -0.111084,0.07202 0.09033,0.144858 0.171305,0.274252 0.24292,0.388184 0.03092,0.04883 0.06063,0.09644 0.08911,0.142822 0.02929,0.04639 0.05534,0.08789 0.07813,0.124512 0.02278,0.03662 0.0415,0.06592 0.05615,0.08789 l 0.02075,0.03418 -0.419922,0 -0.386963,-0.684814 -0.164795,0" style="font-weight:bold;font-size:2.5px;font-family:'Droid Sans';-inkscape-font-specification:'Droid Sans Bold';fill:#250" id="path5945" inkscape:connector-curvature="0" />
      <path d="m 14.399273,16.960326 -0.05005,-0.17456 -0.01953,0 c -0.02035,0.03499 -0.04476,0.0651 -0.07324,0.09033 -0.02767,0.02441 -0.05819,0.04476 -0.09155,0.06104 -0.03337,0.01628 -0.06877,0.02808 -0.106201,0.0354 -0.03744,0.0081 -0.07569,0.01221 -0.114746,0.01221 -0.06673,0 -0.127361,-0.0094 -0.181885,-0.02808 -0.05452,-0.01953 -0.101319,-0.04964 -0.140381,-0.09033 -0.03906,-0.04069 -0.06917,-0.09237 -0.09033,-0.155029 -0.02116,-0.06266 -0.03174,-0.137939 -0.03174,-0.22583 l 0,-0.889893 0.372314,0 0,0.797119 c 0,0.09847 0.01465,0.172527 0.04395,0.222168 0.03011,0.04883 0.07772,0.07324 0.142823,0.07324 0.04883,1e-6 0.08952,-0.0098 0.12207,-0.0293 0.03255,-0.01953 0.05819,-0.04842 0.0769,-0.08667 0.01953,-0.03825 0.03336,-0.08545 0.0415,-0.141602 0.0081,-0.05615 0.01221,-0.120442 0.01221,-0.192871 l 0,-0.64209 0.372315,0 0,1.364746 -0.284424,0" style="font-weight:bold;font-size:2.5px;font-family:'Droid Sans';-inkscape-font-specification:'Droid Sans Bold';fill:#250" id="path5947" inkscape:connector-curvature="0" />
      <path d="m 16.258404,16.960326 -0.372315,0 0,-0.797119 c -10e-7,-0.09847 -0.01506,-0.172118 -0.04517,-0.220947 -0.0293,-0.04964 -0.0765,-0.07446 -0.141601,-0.07446 -0.04883,10e-7 -0.08952,0.0098 -0.122071,0.0293 -0.03255,0.01953 -0.05859,0.04842 -0.07813,0.08667 -0.01872,0.03825 -0.03214,0.08545 -0.04028,0.141601 -0.0081,0.05615 -0.01221,0.120444 -0.01221,0.192871 l 0,0.64209 -0.372314,0 0,-1.364746 0.284424,0 0.05005,0.174561 0.02075,0 c 0.01953,-0.03499 0.04313,-0.0651 0.0708,-0.09033 0.02848,-0.02523 0.05941,-0.04598 0.09277,-0.06226 0.03336,-0.01627 0.06877,-0.02807 0.106201,-0.0354 0.03743,-0.0081 0.07568,-0.0122 0.114746,-0.01221 0.06673,2e-6 0.127359,0.0098 0.181885,0.0293 0.05452,0.01872 0.101317,0.04842 0.14038,0.08911 0.03906,0.04069 0.06917,0.09277 0.09033,0.15625 0.02116,0.06266 0.03174,0.13794 0.03174,0.22583 l 0,0.889892" style="font-weight:bold;font-size:2.5px;font-family:'Droid Sans';-inkscape-font-specification:'Droid Sans Bold';fill:#250" id="path5949" inkscape:connector-curvature="0" />
      <path d="m 17.825787,16.960326 -0.372315,0 0,-0.797119 c -1e-6,-0.09847 -0.01506,-0.172118 -0.04517,-0.220947 -0.0293,-0.04964 -0.0765,-0.07446 -0.141601,-0.07446 -0.04883,10e-7 -0.08952,0.0098 -0.122071,0.0293 -0.03255,0.01953 -0.05859,0.04842 -0.07813,0.08667 -0.01872,0.03825 -0.03215,0.08545 -0.04028,0.141601 -0.0081,0.05615 -0.01221,0.120444 -0.01221,0.192871 l 0,0.64209 -0.372314,0 0,-1.364746 0.284423,0 0.05005,0.174561 0.02075,0 c 0.01953,-0.03499 0.04313,-0.0651 0.0708,-0.09033 0.02848,-0.02523 0.05941,-0.04598 0.09277,-0.06226 0.03337,-0.01627 0.06877,-0.02807 0.106202,-0.0354 0.03743,-0.0081 0.07568,-0.0122 0.114746,-0.01221 0.06673,2e-6 0.127359,0.0098 0.181884,0.0293 0.05452,0.01872 0.101318,0.04842 0.140381,0.08911 0.03906,0.04069 0.06917,0.09277 0.09033,0.15625 0.02116,0.06266 0.03174,0.13794 0.03174,0.22583 l 0,0.889892" style="font-weight:bold;font-size:2.5px;font-family:'Droid Sans';-inkscape-font-specification:'Droid Sans Bold';fill:#250" id="path5951" inkscape:connector-curvature="0" />
      <path d="m 18.193218,15.242797 c 0,-0.03499 0.0053,-0.06388 0.01587,-0.08667 0.01058,-0.0236 0.02482,-0.04232 0.04273,-0.05615 0.01872,-0.01465 0.04028,-0.02482 0.0647,-0.03052 0.02523,-0.0057 0.05168,-0.0085 0.07935,-0.0085 0.02767,2e-6 0.05371,0.0029 0.07813,0.0085 0.02441,0.0057 0.04557,0.01587 0.06348,0.03052 0.01872,0.01384 0.03336,0.03255 0.04395,0.05615 0.01139,0.02279 0.01709,0.05168 0.01709,0.08667 -10e-7,0.03418 -0.0057,0.06307 -0.01709,0.08667 -0.01058,0.0236 -0.02523,0.04273 -0.04395,0.05737 -0.0179,0.01384 -0.03906,0.02401 -0.06348,0.03052 -0.02442,0.0057 -0.05046,0.0085 -0.07813,0.0085 -0.02767,2e-6 -0.05412,-0.0028 -0.07935,-0.0085 -0.02441,-0.0065 -0.04598,-0.01668 -0.0647,-0.03052 -0.0179,-0.01465 -0.03214,-0.03377 -0.04273,-0.05737 -0.01058,-0.0236 -0.01587,-0.05249 -0.01587,-0.08667 m 0.388184,1.717529 -0.372315,0 0,-1.364746 0.372315,0 0,1.364746" style="font-weight:bold;font-size:2.5px;font-family:'Droid Sans';-inkscape-font-specification:'Droid Sans Bold';fill:#250" id="path5953" inkscape:connector-curvature="0" />
      <path d="m 20.154888,16.960326 -0.372314,0 0,-0.797119 c -1e-6,-0.09847 -0.01506,-0.172118 -0.04517,-0.220947 -0.0293,-0.04964 -0.0765,-0.07446 -0.141602,-0.07446 -0.04883,10e-7 -0.08952,0.0098 -0.12207,0.0293 -0.03255,0.01953 -0.0586,0.04842 -0.07813,0.08667 -0.01872,0.03825 -0.03215,0.08545 -0.04028,0.141601 -0.0081,0.05615 -0.01221,0.120444 -0.01221,0.192871 l 0,0.64209 -0.372315,0 0,-1.364746 0.284424,0 0.05005,0.174561 0.02075,0 c 0.01953,-0.03499 0.04313,-0.0651 0.0708,-0.09033 0.02848,-0.02523 0.05941,-0.04598 0.09277,-0.06226 0.03336,-0.01627 0.06876,-0.02807 0.106201,-0.0354 0.03743,-0.0081 0.07568,-0.0122 0.114746,-0.01221 0.06673,2e-6 0.127359,0.0098 0.181885,0.0293 0.05452,0.01872 0.101317,0.04842 0.140381,0.08911 0.03906,0.04069 0.06917,0.09277 0.09033,0.15625 0.02116,0.06266 0.03174,0.13794 0.03174,0.22583 l 0,0.889892" style="font-weight:bold;font-size:2.5px;font-family:'Droid Sans';-inkscape-font-specification:'Droid Sans Bold';fill:#250" id="path5955" inkscape:connector-curvature="0" />
      <path d="m 21.667339,15.598022 0,0.202636 -0.198974,0.06226 c 0.01628,0.02767 0.02767,0.05656 0.03418,0.08667 0.0065,0.0293 0.0098,0.06104 0.0098,0.09522 -1e-6,0.06917 -0.01099,0.13265 -0.03296,0.19043 -0.02197,0.05697 -0.05453,0.105794 -0.09766,0.146484 -0.04313,0.04069 -0.09725,0.07243 -0.162354,0.09521 -0.0651,0.02197 -0.140788,0.03296 -0.227051,0.03296 -0.01872,0 -0.03906,-8.14e-4 -0.06104,-0.0024 -0.02197,-0.0024 -0.03825,-0.0049 -0.04883,-0.0073 -0.01628,0.01384 -0.0293,0.02848 -0.03906,0.04395 -0.009,0.01465 -0.01343,0.03255 -0.01343,0.05371 -1e-6,0.01709 0.0053,0.03092 0.01587,0.0415 0.01058,0.0098 0.02441,0.0179 0.0415,0.02441 0.01709,0.0057 0.03703,0.0098 0.05981,0.01221 0.02279,0.0016 0.04639,0.0024 0.0708,0.0024 l 0.212403,0 c 0.06592,0 0.124917,0.0077 0.177002,0.02319 0.05208,0.01465 0.09603,0.03744 0.131835,0.06836 0.03662,0.03092 0.0647,0.07039 0.08423,0.118408 0.01953,0.0472 0.0293,0.103759 0.0293,0.169677 -10e-7,0.07731 -0.01546,0.146891 -0.04639,0.208741 -0.03093,0.06266 -0.07731,0.115559 -0.13916,0.158691 -0.06104,0.04395 -0.137127,0.07731 -0.228271,0.100098 -0.09115,0.0236 -0.196534,0.0354 -0.316163,0.0354 -0.09277,0 -0.173747,-0.009 -0.24292,-0.02685 -0.06917,-0.01709 -0.126953,-0.04232 -0.173339,-0.07568 -0.04639,-0.03255 -0.08138,-0.07202 -0.104981,-0.118408 -0.02279,-0.04639 -0.03418,-0.09888 -0.03418,-0.157471 0,-0.04964 0.0085,-0.09277 0.02564,-0.129394 0.01709,-0.03662 0.03988,-0.06795 0.06836,-0.09399 0.02848,-0.02604 0.06063,-0.0472 0.09643,-0.06348 0.03662,-0.01628 0.07406,-0.02889 0.112305,-0.03784 -0.01709,-0.0073 -0.03418,-0.0175 -0.05127,-0.03052 -0.01628,-0.01302 -0.03133,-0.02808 -0.04517,-0.04517 -0.01302,-0.01709 -0.02401,-0.03581 -0.03296,-0.05615 -0.0081,-0.02116 -0.01221,-0.04313 -0.01221,-0.06592 0,-0.02604 0.0037,-0.04964 0.01099,-0.0708 0.0081,-0.02116 0.01953,-0.04069 0.03418,-0.05859 0.01465,-0.01872 0.03296,-0.03621 0.05493,-0.05249 0.02197,-0.01628 0.04679,-0.03296 0.07446,-0.05005 -0.07162,-0.03092 -0.128581,-0.08057 -0.170899,-0.148926 -0.0415,-0.06836 -0.06226,-0.148925 -0.06225,-0.241699 -1e-6,-0.07324 0.01139,-0.138753 0.03418,-0.196534 0.02279,-0.05778 0.05615,-0.106606 0.100098,-0.146484 0.04395,-0.04069 0.09847,-0.07161 0.163574,-0.09277 0.0651,-0.02116 0.139974,-0.03174 0.224609,-0.03174 0.01628,2e-6 0.03459,0.0012 0.05493,0.0037 0.02034,0.0016 0.04028,0.0041 0.05981,0.0073 0.02034,0.0024 0.03906,0.0053 0.05615,0.0085 0.01709,0.0033 0.03052,0.0061 0.04028,0.0085 l 0.463867,0 m -0.976562,1.555175 c -1e-6,0.02035 0.0041,0.03988 0.01221,0.05859 0.009,0.01953 0.02319,0.03662 0.04272,0.05127 0.01953,0.01465 0.04517,0.02604 0.07691,0.03418 0.03174,0.009 0.0708,0.01343 0.117187,0.01343 0.126953,0 0.222574,-0.0179 0.286865,-0.05371 0.06429,-0.03581 0.09643,-0.08382 0.09644,-0.144043 -1e-6,-0.05127 -0.01994,-0.08545 -0.05981,-0.102539 -0.03988,-0.01709 -0.101726,-0.02564 -0.185547,-0.02564 l -0.172119,0 c -0.02197,0 -0.04557,0.0024 -0.0708,0.0073 -0.02523,0.0057 -0.04842,0.01506 -0.06958,0.02808 -0.02116,0.01302 -0.03906,0.03011 -0.05371,0.05127 -0.01384,0.02197 -0.02075,0.04923 -0.02075,0.08179 m 0.134277,-1.11084 c 0,0.07406 0.01383,0.13143 0.0415,0.17212 0.02767,0.04069 0.06958,0.06104 0.125732,0.06104 0.05859,0 0.100911,-0.02034 0.126954,-0.06104 0.02604,-0.04069 0.03906,-0.09806 0.03906,-0.17212 -1e-6,-0.07324 -0.01302,-0.131428 -0.03906,-0.17456 -0.02523,-0.04313 -0.06755,-0.0647 -0.126954,-0.0647 -0.111491,10e-7 -0.167236,0.07975 -0.167236,0.239257" style="font-weight:bold;font-size:2.5px;font-family:'Droid Sans';-inkscape-font-specification:'Droid Sans Bold';fill:#250" id="path5957" inkscape:connector-curvature="0" />
      <path d="m 10.319683,19.715453 -0.214844,0 0,0.369873 -0.3674313,0 0,-0.369873 -0.7373047,0 0,-0.262451 0.7580566,-1.152344 0.3466794,0 0,1.121826 0.214844,0 0,0.292969 m -0.5822753,-0.292969 0,-0.302734 c -8e-7,-0.01058 -8e-7,-0.02563 0,-0.04517 8.13e-4,-0.02034 0.00163,-0.04313 0.00244,-0.06836 8.13e-4,-0.02523 0.00163,-0.05127 0.00244,-0.07813 0.00163,-0.02686 0.00285,-0.05249 0.00366,-0.07691 0.00163,-0.02441 0.00285,-0.04557 0.00366,-0.06348 0.00163,-0.01872 0.00285,-0.03214 0.00366,-0.04028 l -0.010986,0 c -0.014649,0.03418 -0.031332,0.0704 -0.050049,0.108642 -0.017904,0.03825 -0.038656,0.0765 -0.062256,0.114746 l -0.2978516,0.45166 0.4052735,0" style="font-weight:bold;font-size:2.5px;font-family:'Droid Sans';-inkscape-font-specification:'Droid Sans Bold';fill:#250" id="path5959" inkscape:connector-curvature="0" />
      <path d="m 10.514996,19.910766 c -10e-7,-0.03825 0.0053,-0.07039 0.01587,-0.09644 0.01139,-0.02686 0.02685,-0.04842 0.04639,-0.0647 0.01953,-0.01628 0.04232,-0.02808 0.06836,-0.0354 0.02604,-0.0073 0.05412,-0.01099 0.08423,-0.01099 0.02848,0 0.05534,0.0037 0.08057,0.01099 0.02604,0.0073 0.04883,0.01913 0.06836,0.0354 0.01953,0.01628 0.03499,0.03784 0.04639,0.0647 0.01139,0.02604 0.01709,0.05819 0.01709,0.09644 -1e-6,0.03662 -0.0057,0.06795 -0.01709,0.09399 -0.01139,0.02604 -0.02686,0.04761 -0.04639,0.0647 -0.01953,0.01709 -0.04232,0.0293 -0.06836,0.03662 -0.02523,0.0081 -0.05208,0.01221 -0.08057,0.01221 -0.03011,0 -0.05819,-0.0041 -0.08423,-0.01221 -0.02604,-0.0073 -0.04883,-0.01953 -0.06836,-0.03662 -0.01953,-0.01709 -0.03499,-0.03865 -0.04639,-0.0647 -0.01058,-0.02604 -0.01587,-0.05737 -0.01587,-0.09399" style="font-weight:bold;font-size:2.5px;font-family:'Droid Sans';-inkscape-font-specification:'Droid Sans Bold';fill:#250" id="path5961" inkscape:connector-curvature="0" />
      <path d="m 11.732037,20.610229 c -0.0529,-1e-6 -0.09928,-0.0028 -0.139161,-0.0085 -0.03988,-0.0049 -0.07365,-0.01099 -0.101318,-0.01831 l 0,-0.314941 c 0.03011,0.0065 0.06185,0.01221 0.09522,0.01709 0.03255,0.0049 0.06836,0.0073 0.107422,0.0073 0.03743,0 0.07202,-0.0041 0.10376,-0.01221 0.03255,-0.0081 0.06063,-0.02238 0.08423,-0.04273 0.02441,-0.01953 0.04313,-0.04598 0.05615,-0.07935 0.01384,-0.03337 0.02075,-0.07528 0.02075,-0.125732 l 0,-1.732178 0.378418,0 0,1.719971 c 0,0.102539 -0.01506,0.190836 -0.04517,0.264893 -0.0293,0.07406 -0.0708,0.13509 -0.124511,0.183105 -0.0529,0.04883 -0.116374,0.08463 -0.19043,0.107422 -0.07406,0.02279 -0.155843,0.03418 -0.245361,0.03418" style="font-weight:bold;font-size:2.5px;font-family:'Droid Sans';-inkscape-font-specification:'Droid Sans Bold';fill:#250" id="path5963" inkscape:connector-curvature="0" />
      <path d="m 13.652203,20.085326 -0.05005,-0.17456 -0.01953,0 c -0.02035,0.03499 -0.04476,0.0651 -0.07324,0.09033 -0.02767,0.02441 -0.05819,0.04476 -0.09155,0.06104 -0.03337,0.01628 -0.06877,0.02808 -0.106202,0.0354 -0.03744,0.0081 -0.07568,0.01221 -0.114746,0.01221 -0.06673,0 -0.12736,-0.0094 -0.181884,-0.02808 -0.05453,-0.01953 -0.101319,-0.04964 -0.140381,-0.09033 -0.03906,-0.04069 -0.06917,-0.09237 -0.09033,-0.155029 -0.02116,-0.06266 -0.03174,-0.137939 -0.03174,-0.22583 l 0,-0.889893 0.372315,0 0,0.797119 c -10e-7,0.09847 0.01465,0.172527 0.04394,0.222168 0.03011,0.04883 0.07772,0.07324 0.142822,0.07324 0.04883,1e-6 0.08952,-0.0098 0.122071,-0.0293 0.03255,-0.01953 0.05819,-0.04842 0.0769,-0.08667 0.01953,-0.03825 0.03336,-0.08545 0.0415,-0.141602 0.0081,-0.05615 0.01221,-0.120442 0.01221,-0.192871 l 0,-0.64209 0.372314,0 0,1.364746 -0.284423,0" style="font-weight:bold;font-size:2.5px;font-family:'Droid Sans';-inkscape-font-specification:'Droid Sans Bold';fill:#250" id="path5965" inkscape:connector-curvature="0" />
      <path d="m 15.499126,20.085326 -0.372314,0 0,-0.797119 c -10e-7,-0.09847 -0.01465,-0.172118 -0.04394,-0.220947 -0.0293,-0.04964 -0.07528,-0.07446 -0.13794,-0.07446 -0.0472,1e-6 -0.08667,0.0098 -0.118408,0.0293 -0.03092,0.01953 -0.05575,0.04842 -0.07446,0.08667 -0.01872,0.03825 -0.03215,0.08545 -0.04028,0.141601 -0.0081,0.05615 -0.01221,0.120444 -0.01221,0.192871 l 0,0.64209 -0.372315,0 0,-1.364746 0.284424,0 0.05005,0.174561 0.02075,0 c 0.01953,-0.03499 0.04272,-0.0651 0.06958,-0.09033 0.02767,-0.02523 0.05778,-0.04598 0.09033,-0.06226 0.03255,-0.01628 0.06714,-0.02808 0.10376,-0.0354 0.03662,-0.0081 0.07365,-0.01221 0.111084,-0.01221 0.09359,2e-6 0.172932,0.01628 0.238037,0.04883 0.06592,0.03174 0.116372,0.0822 0.151367,0.151368 l 0.03052,0 c 0.01953,-0.03499 0.04313,-0.0651 0.0708,-0.09033 0.02767,-0.02523 0.05818,-0.04598 0.09155,-0.06226 0.03336,-0.01628 0.06836,-0.02808 0.104981,-0.0354 0.03743,-0.0081 0.07487,-0.01221 0.112304,-0.01221 0.146483,2e-6 0.256753,0.03988 0.330811,0.119629 0.07487,0.07894 0.112303,0.205893 0.112305,0.38086 l 0,0.889892 -0.373535,0 0,-0.797119 c -2e-6,-0.09847 -0.01465,-0.172118 -0.04395,-0.220947 -0.0293,-0.04964 -0.07528,-0.07446 -0.137939,-0.07446 -0.08871,1e-6 -0.151776,0.0354 -0.189209,0.106201 -0.03744,0.06999 -0.05615,0.170492 -0.05615,0.301514 l 0,0.684814" style="font-weight:bold;font-size:2.5px;font-family:'Droid Sans';-inkscape-font-specification:'Droid Sans Bold';fill:#250" id="path5967" inkscape:connector-curvature="0" />
      <path d="m 17.39854,20.10974 c -0.04476,0 -0.08504,-0.0049 -0.120849,-0.01465 -0.03499,-0.0098 -0.06633,-0.02279 -0.09399,-0.03906 -0.02767,-0.01628 -0.05208,-0.03459 -0.07324,-0.05493 -0.02116,-0.02116 -0.04028,-0.04313 -0.05737,-0.06592 l -0.01953,0 c 0.0033,0.02848 0.0065,0.05534 0.0098,0.08057 0.0024,0.02116 0.0045,0.04313 0.0061,0.06592 0.0024,0.02197 0.0037,0.03906 0.0037,0.05127 l 0,0.552978 -0.372315,0 0,-1.965332 0.302734,0 0.05249,0.177002 0.01709,0 c 0.01709,-0.02767 0.03662,-0.05371 0.05859,-0.07813 0.02197,-0.02441 0.0472,-0.04557 0.07568,-0.06348 0.0293,-0.01872 0.06226,-0.03336 0.09888,-0.04395 0.03662,-0.01139 0.07731,-0.01709 0.12207,-0.01709 0.0708,2e-6 0.13509,0.01506 0.192871,0.04517 0.05778,0.03011 0.107421,0.07487 0.148926,0.134278 0.0415,0.05941 0.07365,0.133057 0.09644,0.220947 0.02278,0.08789 0.03418,0.189617 0.03418,0.305176 -1e-6,0.116374 -0.0118,0.218913 -0.0354,0.307617 -0.0236,0.08789 -0.05697,0.161947 -0.100098,0.222168 -0.04232,0.05941 -0.09318,0.104167 -0.152588,0.134277 -0.05859,0.03011 -0.123292,0.04517 -0.194092,0.04517 m -0.115966,-1.116943 c -0.04151,1e-6 -0.07691,0.0077 -0.106201,0.02319 -0.02848,0.01465 -0.05168,0.03703 -0.06958,0.06714 -0.0179,0.03011 -0.03092,0.06836 -0.03906,0.114746 -0.0081,0.04557 -0.01302,0.09888 -0.01465,0.159912 l 0,0.04028 c -1e-6,0.06592 0.0037,0.124513 0.01099,0.175782 0.0081,0.05127 0.02116,0.0944 0.03906,0.129394 0.0179,0.03418 0.0415,0.06022 0.0708,0.07813 0.03011,0.0179 0.06714,0.02686 0.111084,0.02686 0.07405,0 0.128173,-0.03499 0.162354,-0.104981 0.03499,-0.0708 0.05249,-0.173339 0.05249,-0.307617 -10e-7,-0.134277 -0.0175,-0.234781 -0.05249,-0.301514 -0.03418,-0.06754 -0.08911,-0.101317 -0.164795,-0.101318" style="font-weight:bold;font-size:2.5px;font-family:'Droid Sans';-inkscape-font-specification:'Droid Sans Bold';fill:#250" id="path5969" inkscape:connector-curvature="0" />
      <path d="m 18.183453,18.367797 c -1e-6,-0.03499 0.0053,-0.06388 0.01587,-0.08667 0.01058,-0.0236 0.02482,-0.04232 0.04272,-0.05615 0.01872,-0.01465 0.04028,-0.02482 0.0647,-0.03052 0.02523,-0.0057 0.05168,-0.0085 0.07935,-0.0085 0.02767,2e-6 0.05371,0.0029 0.07813,0.0085 0.02441,0.0057 0.04557,0.01587 0.06348,0.03052 0.01872,0.01384 0.03336,0.03255 0.04395,0.05615 0.01139,0.02279 0.01709,0.05168 0.01709,0.08667 -1e-6,0.03418 -0.0057,0.06307 -0.01709,0.08667 -0.01058,0.0236 -0.02523,0.04273 -0.04395,0.05737 -0.0179,0.01384 -0.03906,0.02401 -0.06348,0.03052 -0.02441,0.0057 -0.05046,0.0085 -0.07813,0.0085 -0.02767,2e-6 -0.05412,-0.0028 -0.07935,-0.0085 -0.02441,-0.0065 -0.04598,-0.01668 -0.0647,-0.03052 -0.0179,-0.01465 -0.03214,-0.03377 -0.04272,-0.05737 -0.01058,-0.0236 -0.01587,-0.05249 -0.01587,-0.08667 m 0.388183,1.717529 -0.372314,0 0,-1.364746 0.372314,0 0,1.364746" style="font-weight:bold;font-size:2.5px;font-family:'Droid Sans';-inkscape-font-specification:'Droid Sans Bold';fill:#250" id="path5971" inkscape:connector-curvature="0" />
      <path d="m 20.145123,20.085326 -0.372315,0 0,-0.797119 c -1e-6,-0.09847 -0.01506,-0.172118 -0.04517,-0.220947 -0.0293,-0.04964 -0.0765,-0.07446 -0.141602,-0.07446 -0.04883,1e-6 -0.08952,0.0098 -0.12207,0.0293 -0.03255,0.01953 -0.05859,0.04842 -0.07813,0.08667 -0.01872,0.03825 -0.03215,0.08545 -0.04028,0.141601 -0.0081,0.05615 -0.01221,0.120444 -0.01221,0.192871 l 0,0.64209 -0.372315,0 0,-1.364746 0.284424,0 0.05005,0.174561 0.02075,0 c 0.01953,-0.03499 0.04313,-0.0651 0.0708,-0.09033 0.02848,-0.02523 0.05941,-0.04598 0.09277,-0.06226 0.03337,-0.01628 0.06877,-0.02808 0.106201,-0.0354 0.03743,-0.0081 0.07568,-0.01221 0.114747,-0.01221 0.06673,2e-6 0.127359,0.0098 0.181884,0.0293 0.05452,0.01872 0.101317,0.04842 0.140381,0.08911 0.03906,0.04069 0.06917,0.09277 0.09033,0.15625 0.02116,0.06266 0.03174,0.13794 0.03174,0.22583 l 0,0.889892" style="font-weight:bold;font-size:2.5px;font-family:'Droid Sans';-inkscape-font-specification:'Droid Sans Bold';fill:#250" id="path5973" inkscape:connector-curvature="0" />
      <path d="m 21.657574,18.723022 0,0.202636 -0.198975,0.06226 c 0.01628,0.02767 0.02767,0.05656 0.03418,0.08667 0.0065,0.0293 0.0098,0.06104 0.0098,0.09521 -1e-6,0.06917 -0.01099,0.13265 -0.03296,0.19043 -0.02197,0.05697 -0.05452,0.105794 -0.09766,0.146484 -0.04313,0.04069 -0.09725,0.07243 -0.162353,0.09521 -0.0651,0.02197 -0.140789,0.03296 -0.227051,0.03296 -0.01872,0 -0.03906,-8.14e-4 -0.06104,-0.0024 -0.02197,-0.0024 -0.03825,-0.0049 -0.04883,-0.0073 -0.01628,0.01384 -0.0293,0.02848 -0.03906,0.04395 -0.009,0.01465 -0.01343,0.03255 -0.01343,0.05371 0,0.01709 0.0053,0.03092 0.01587,0.0415 0.01058,0.0098 0.02441,0.0179 0.0415,0.02441 0.01709,0.0057 0.03703,0.0098 0.05982,0.01221 0.02279,0.0016 0.04639,0.0024 0.0708,0.0024 l 0.212402,0 c 0.06592,0 0.124918,0.0077 0.177002,0.02319 0.05208,0.01465 0.09603,0.03744 0.131836,0.06836 0.03662,0.03092 0.0647,0.07039 0.08423,0.118408 0.01953,0.0472 0.0293,0.103759 0.0293,0.169677 -1e-6,0.07731 -0.01546,0.146891 -0.04639,0.208741 -0.03093,0.06266 -0.07731,0.115559 -0.139161,0.158691 -0.06104,0.04395 -0.137126,0.07731 -0.228271,0.100098 -0.09115,0.0236 -0.196534,0.0354 -0.316162,0.0354 -0.09277,0 -0.173747,-0.009 -0.24292,-0.02685 -0.06917,-0.01709 -0.126953,-0.04232 -0.17334,-0.07568 -0.04639,-0.03255 -0.08138,-0.07202 -0.10498,-0.118408 -0.02279,-0.04639 -0.03418,-0.09888 -0.03418,-0.157471 0,-0.04964 0.0085,-0.09277 0.02564,-0.129394 0.01709,-0.03662 0.03988,-0.06795 0.06836,-0.09399 0.02848,-0.02604 0.06063,-0.0472 0.09644,-0.06348 0.03662,-0.01628 0.07405,-0.02889 0.112304,-0.03784 -0.01709,-0.0073 -0.03418,-0.0175 -0.05127,-0.03052 -0.01628,-0.01302 -0.03133,-0.02808 -0.04517,-0.04517 -0.01302,-0.01709 -0.02401,-0.03581 -0.03296,-0.05615 -0.0081,-0.02116 -0.01221,-0.04313 -0.01221,-0.06592 -1e-6,-0.02604 0.0037,-0.04964 0.01099,-0.0708 0.0081,-0.02116 0.01953,-0.04069 0.03418,-0.05859 0.01465,-0.01872 0.03296,-0.03621 0.05493,-0.05249 0.02197,-0.01628 0.04679,-0.03296 0.07446,-0.05005 -0.07162,-0.03092 -0.128581,-0.08057 -0.170898,-0.148926 -0.0415,-0.06836 -0.06226,-0.148925 -0.06226,-0.241699 0,-0.07324 0.01139,-0.138753 0.03418,-0.196534 0.02279,-0.05778 0.05615,-0.106606 0.100097,-0.146484 0.04395,-0.04069 0.09847,-0.07161 0.163574,-0.09277 0.0651,-0.02116 0.139974,-0.03174 0.22461,-0.03174 0.01628,2e-6 0.03459,0.0012 0.05493,0.0037 0.02034,0.0016 0.04028,0.0041 0.05981,0.0073 0.02034,0.0024 0.03906,0.0053 0.05615,0.0085 0.01709,0.0033 0.03052,0.0061 0.04028,0.0085 l 0.463867,0 m -0.976563,1.555175 c 0,0.02035 0.0041,0.03988 0.01221,0.05859 0.009,0.01953 0.02319,0.03662 0.04272,0.05127 0.01953,0.01465 0.04517,0.02604 0.0769,0.03418 0.03174,0.009 0.0708,0.01343 0.117188,0.01343 0.126952,0 0.222574,-0.0179 0.286865,-0.05371 0.06429,-0.03581 0.09643,-0.08382 0.09643,-0.144043 -10e-7,-0.05127 -0.01994,-0.08545 -0.05981,-0.102539 -0.03988,-0.01709 -0.101726,-0.02564 -0.185547,-0.02564 l -0.172119,0 c -0.02197,0 -0.04557,0.0024 -0.0708,0.0073 -0.02523,0.0057 -0.04842,0.01506 -0.06958,0.02808 -0.02116,0.01302 -0.03906,0.03011 -0.05371,0.05127 -0.01384,0.02197 -0.02075,0.04923 -0.02075,0.08179 m 0.134278,-1.11084 c -1e-6,0.07406 0.01383,0.13143 0.0415,0.17212 0.02767,0.04069 0.06958,0.06104 0.125733,0.06104 0.05859,0 0.100911,-0.02034 0.126953,-0.06104 0.02604,-0.04069 0.03906,-0.09806 0.03906,-0.17212 0,-0.07324 -0.01302,-0.131428 -0.03906,-0.17456 -0.02523,-0.04313 -0.06755,-0.0647 -0.126953,-0.0647 -0.111492,1e-6 -0.167237,0.07975 -0.167236,0.239257" style="font-weight:bold;font-size:2.5px;font-family:'Droid Sans';-inkscape-font-specification:'Droid Sans Bold';fill:#250" id="path5975" inkscape:connector-curvature="0" />
      <path d="m 9.7252007,22.070189 c 0.076496,2e-6 0.1477042,0.0118 0.213623,0.0354 0.065917,0.0236 0.1232903,0.05819 0.1721193,0.10376 0.04883,0.04557 0.08707,0.10254 0.114746,0.170898 0.02767,0.06755 0.0415,0.145264 0.0415,0.233154 -10e-7,0.09684 -0.01506,0.18392 -0.04517,0.261231 -0.03011,0.0765 -0.07446,0.141602 -0.133057,0.195312 -0.0586,0.0529 -0.1314298,0.09359 -0.2185057,0.122071 -0.086264,0.02848 -0.1855475,0.04272 -0.2978515,0.04272 -0.04476,0 -0.089112,-0.002 -0.1330567,-0.0061 -0.043946,-0.0041 -0.086263,-0.01017 -0.1269531,-0.01831 -0.039877,-0.0073 -0.078125,-0.01709 -0.1147461,-0.0293 -0.035807,-0.01221 -0.068359,-0.02645 -0.097656,-0.04272 l 0,-0.325928 c 0.028483,0.01628 0.061442,0.03174 0.098877,0.04639 0.037435,0.01384 0.07609,0.02604 0.1159668,0.03662 0.04069,0.0098 0.08138,0.0179 0.1220703,0.02441 0.04069,0.0057 0.079345,0.0085 0.1159668,0.0085 0.1090488,0 0.1920566,-0.02238 0.2490234,-0.06714 0.056965,-0.04557 0.085448,-0.117594 0.085449,-0.216064 -9e-7,-0.08789 -0.028077,-0.154622 -0.084229,-0.200196 -0.055339,-0.04639 -0.1411954,-0.06958 -0.2575684,-0.06958 -0.021159,1e-6 -0.043946,0.0012 -0.068359,0.0037 -0.023601,0.0024 -0.047201,0.0057 -0.070801,0.0098 -0.022787,0.0041 -0.044759,0.0085 -0.065918,0.01343 -0.021159,0.0041 -0.03947,0.0085 -0.054932,0.01343 l -0.1501465,-0.08057 0.067139,-0.909424 0.9423837,0 0,0.319824 -0.6152352,0 -0.029297,0.350342 c 0.026041,-0.0057 0.056152,-0.01139 0.090332,-0.01709 0.034993,-0.0057 0.079752,-0.0085 0.1342774,-0.0085" style="font-weight:bold;font-size:2.5px;font-family:'Droid Sans';-inkscape-font-specification:'Droid Sans Bold';fill:#250" id="path5977" inkscape:connector-curvature="0" />
      <path d="m 10.514996,23.035766 c -10e-7,-0.03825 0.0053,-0.07039 0.01587,-0.09644 0.01139,-0.02686 0.02685,-0.04842 0.04639,-0.0647 0.01953,-0.01628 0.04232,-0.02808 0.06836,-0.0354 0.02604,-0.0073 0.05412,-0.01099 0.08423,-0.01099 0.02848,0 0.05534,0.0037 0.08057,0.01099 0.02604,0.0073 0.04883,0.01913 0.06836,0.0354 0.01953,0.01628 0.03499,0.03784 0.04639,0.0647 0.01139,0.02604 0.01709,0.05819 0.01709,0.09644 -1e-6,0.03662 -0.0057,0.06795 -0.01709,0.09399 -0.01139,0.02604 -0.02686,0.04761 -0.04639,0.0647 -0.01953,0.01709 -0.04232,0.0293 -0.06836,0.03662 -0.02523,0.0081 -0.05208,0.01221 -0.08057,0.01221 -0.03011,0 -0.05819,-0.0041 -0.08423,-0.01221 -0.02604,-0.0073 -0.04883,-0.01953 -0.06836,-0.03662 -0.01953,-0.01709 -0.03499,-0.03865 -0.04639,-0.0647 -0.01058,-0.02604 -0.01587,-0.05737 -0.01587,-0.09399" style="font-weight:bold;font-size:2.5px;font-family:'Droid Sans';-inkscape-font-specification:'Droid Sans Bold';fill:#250" id="path5979" inkscape:connector-curvature="0" />
      <path d="m 12.717144,21.714965 c -0.07243,1e-6 -0.13672,0.01424 -0.192871,0.04272 -0.05534,0.02767 -0.102133,0.06795 -0.140381,0.12085 -0.03744,0.05209 -0.06592,0.115968 -0.08545,0.19165 -0.01953,0.07487 -0.0293,0.1591 -0.0293,0.252686 -1e-6,0.09522 0.0085,0.179851 0.02564,0.253906 0.0179,0.07406 0.04476,0.13672 0.08057,0.187989 0.03662,0.05046 0.08301,0.08911 0.13916,0.115966 0.05697,0.02604 0.124511,0.03906 0.202637,0.03906 0.07243,0 0.144856,-0.0081 0.217285,-0.02441 0.07324,-0.01628 0.152587,-0.03947 0.238037,-0.06958 l 0,0.317383 c -0.03906,0.01628 -0.07772,0.03011 -0.115967,0.0415 -0.03825,0.01139 -0.07731,0.02075 -0.117187,0.02808 -0.03988,0.0073 -0.08097,0.01261 -0.123291,0.01587 -0.0415,0.0041 -0.08626,0.0061 -0.134277,0.0061 -0.137534,0 -0.256756,-0.02197 -0.357666,-0.06592 -0.100912,-0.04394 -0.184327,-0.105794 -0.250245,-0.185547 -0.06592,-0.07975 -0.114746,-0.17578 -0.146484,-0.288086 -0.03174,-0.112304 -0.04761,-0.237222 -0.04761,-0.374755 0,-0.135091 0.01831,-0.258788 0.05493,-0.371094 0.03662,-0.113117 0.09033,-0.210367 0.161133,-0.291748 0.0708,-0.08138 0.158284,-0.144448 0.262451,-0.189209 0.104166,-0.04557 0.223795,-0.06836 0.358887,-0.06836 0.0887,2e-6 0.177408,0.0114 0.266113,0.03418 0.08952,0.02198 0.174966,0.05249 0.256348,0.09155 l -0.12207,0.307617 c -0.06673,-0.03174 -0.133872,-0.05941 -0.201416,-0.08301 -0.06755,-0.0236 -0.133872,-0.0354 -0.198975,-0.0354" style="font-weight:bold;font-size:2.5px;font-family:'Droid Sans';-inkscape-font-specification:'Droid Sans Bold';fill:#250" id="path5981" inkscape:connector-curvature="0" />
      <path d="m 14.313824,23.210326 -0.07202,-0.185547 -0.01099,0 c -0.02686,0.03662 -0.05371,0.06836 -0.08057,0.09521 -0.02686,0.02604 -0.05615,0.04761 -0.08789,0.0647 -0.03174,0.01709 -0.06755,0.0297 -0.107422,0.03784 -0.03906,0.0081 -0.08464,0.01221 -0.136719,0.01221 -0.05534,0 -0.106608,-0.0085 -0.153808,-0.02563 -0.0472,-0.0179 -0.0883,-0.04435 -0.123291,-0.07935 -0.03418,-0.03581 -0.06104,-0.08057 -0.08057,-0.134278 -0.01953,-0.05452 -0.0293,-0.118814 -0.0293,-0.192871 0,-0.144856 0.04639,-0.251464 0.13916,-0.319824 0.09277,-0.06917 0.231527,-0.107421 0.41626,-0.114746 l 0.217285,-0.0073 0,-0.102539 c 0,-0.05615 -0.01628,-0.09765 -0.04883,-0.124512 -0.03255,-0.02685 -0.07813,-0.04028 -0.136718,-0.04028 -0.0586,10e-7 -0.115968,0.0085 -0.17212,0.02564 -0.05534,0.01709 -0.111084,0.03988 -0.167236,0.06836 l -0.12085,-0.246582 c 0.06836,-0.03825 0.144043,-0.06836 0.227051,-0.09033 0.08301,-0.02197 0.170084,-0.03296 0.261231,-0.03296 0.170083,10e-7 0.300292,0.03988 0.390625,0.119629 0.09114,0.07975 0.136717,0.20101 0.136718,0.363769 l 0,0.909424 -0.260009,0 m -0.109864,-0.632324 -0.123291,0.0049 c -0.04964,0.0016 -0.09155,0.0081 -0.125732,0.01953 -0.03418,0.01139 -0.06185,0.02686 -0.08301,0.04639 -0.02034,0.01872 -0.0354,0.0415 -0.04517,0.06836 -0.009,0.02604 -0.01343,0.05534 -0.01343,0.08789 0,0.05697 0.01384,0.09766 0.0415,0.12207 0.02767,0.0236 0.06388,0.0354 0.108643,0.0354 0.03418,10e-7 0.06592,-0.0057 0.09521,-0.01709 0.0293,-0.01221 0.05452,-0.0297 0.07568,-0.05249 0.02197,-0.0236 0.03906,-0.05208 0.05127,-0.08545 0.01221,-0.03418 0.01831,-0.07324 0.01831,-0.117187 l 0,-0.112305" style="font-weight:bold;font-size:2.5px;font-family:'Droid Sans';-inkscape-font-specification:'Droid Sans Bold';fill:#250" id="path5983" inkscape:connector-curvature="0" />
      <path d="m 15.866558,22.805053 c -10e-7,0.07161 -0.01302,0.134277 -0.03906,0.187988 -0.02604,0.05371 -0.06307,0.09847 -0.111084,0.134277 -0.04802,0.03581 -0.106202,0.06266 -0.174561,0.08057 -0.06836,0.0179 -0.144857,0.02685 -0.229492,0.02685 -0.04476,0 -0.08626,-0.0016 -0.124512,-0.0049 -0.03825,-0.0024 -0.07446,-0.0069 -0.108642,-0.01343 -0.03418,-0.0065 -0.06714,-0.01465 -0.09888,-0.02441 -0.03174,-0.0098 -0.06388,-0.02197 -0.09644,-0.03662 l 0,-0.307618 c 0.03418,0.01709 0.06999,0.03255 0.107422,0.04639 0.03825,0.01384 0.07609,0.02604 0.113525,0.03662 0.03744,0.0098 0.07365,0.0175 0.108643,0.02319 0.03581,0.0057 0.06877,0.0085 0.09888,0.0085 0.03336,1e-6 0.06185,-0.0028 0.08545,-0.0085 0.0236,-0.0065 0.04272,-0.01506 0.05737,-0.02564 0.01546,-0.01139 0.02645,-0.02441 0.03296,-0.03906 0.0073,-0.01546 0.01099,-0.03174 0.01099,-0.04883 0,-0.01709 -0.0028,-0.03214 -0.0085,-0.04517 -0.0049,-0.01383 -0.01668,-0.02808 -0.0354,-0.04272 -0.01872,-0.01546 -0.04639,-0.03255 -0.08301,-0.05127 -0.03581,-0.01953 -0.08423,-0.04313 -0.145263,-0.0708 -0.05941,-0.02686 -0.111085,-0.0533 -0.15503,-0.07935 -0.04313,-0.02686 -0.07894,-0.05656 -0.107422,-0.08911 -0.02767,-0.03255 -0.04842,-0.06958 -0.06226,-0.111084 -0.01384,-0.04232 -0.02075,-0.09236 -0.02075,-0.150146 0,-0.06348 0.01221,-0.118814 0.03662,-0.166016 0.02441,-0.04801 0.059,-0.08789 0.10376,-0.119629 0.04476,-0.03174 0.09847,-0.05534 0.161132,-0.0708 0.06348,-0.01627 0.13387,-0.02441 0.211182,-0.02441 0.08138,2e-6 0.158691,0.0094 0.231934,0.02808 0.07324,0.01872 0.148517,0.04679 0.22583,0.08423 l -0.112305,0.263672 c -0.06185,-0.0293 -0.120851,-0.0533 -0.177002,-0.07202 -0.05615,-0.01872 -0.112305,-0.02807 -0.168457,-0.02808 -0.05046,1e-6 -0.08708,0.009 -0.109863,0.02686 -0.02197,0.0179 -0.03296,0.04232 -0.03296,0.07324 -10e-7,0.01628 0.0028,0.03092 0.0085,0.04395 0.0057,0.01221 0.01709,0.02523 0.03418,0.03906 0.01709,0.01302 0.0411,0.02767 0.07202,0.04395 0.03092,0.01546 0.07121,0.03459 0.120849,0.05737 0.05778,0.02523 0.109863,0.05046 0.15625,0.07568 0.04639,0.02441 0.08626,0.05249 0.119629,0.08423 0.03336,0.03174 0.059,0.06877 0.07691,0.111084 0.0179,0.04232 0.02685,0.09359 0.02685,0.153809" style="font-weight:bold;font-size:2.5px;font-family:'Droid Sans';-inkscape-font-specification:'Droid Sans Bold';fill:#250" id="path5985" inkscape:connector-curvature="0" />
      <path d="m 16.712505,22.938109 c 0.03662,1e-6 0.07121,-0.0041 0.10376,-0.01221 0.03336,-0.0081 0.06714,-0.01831 0.101318,-0.03052 l 0,0.277099 c -0.03499,0.0179 -0.07853,0.03255 -0.130615,0.04395 -0.05127,0.01221 -0.107422,0.01831 -0.168457,0.01831 -0.05941,0 -0.114746,-0.0069 -0.166015,-0.02075 -0.05127,-0.01383 -0.09562,-0.03784 -0.133057,-0.07202 -0.03743,-0.03499 -0.06714,-0.08138 -0.08911,-0.13916 -0.02116,-0.05859 -0.03174,-0.131836 -0.03174,-0.219727 l 0,-0.657959 -0.178222,0 0,-0.157471 0.205078,-0.124511 0.107422,-0.288086 0.238037,0 0,0.290527 0.332031,0 0,0.279541 -0.332031,0 0,0.657959 c -10e-7,0.0529 0.01302,0.09196 0.03906,0.117188 0.02604,0.02523 0.06022,0.03784 0.102539,0.03784" style="font-weight:bold;font-size:2.5px;font-family:'Droid Sans';-inkscape-font-specification:'Droid Sans Bold';fill:#250" id="path5987" inkscape:connector-curvature="0" />
      <path d="m 17.565777,23.210326 -0.372315,0 0,-1.899414 0.372315,0 0,1.899414" style="font-weight:bold;font-size:2.5px;font-family:'Droid Sans';-inkscape-font-specification:'Droid Sans Bold';fill:#250" id="path5989" inkscape:connector-curvature="0" />
      <path d="m 18.506939,22.084838 c -0.06592,10e-7 -0.12085,0.02319 -0.164795,0.06958 -0.04313,0.04639 -0.06795,0.119223 -0.07446,0.218506 l 0.474854,0 c -8.15e-4,-0.0415 -0.0061,-0.07975 -0.01587,-0.114746 -0.0098,-0.03499 -0.02442,-0.0651 -0.04395,-0.09033 -0.01953,-0.02604 -0.04395,-0.04639 -0.07324,-0.06104 -0.0293,-0.01465 -0.06348,-0.02197 -0.102539,-0.02197 m 0.04761,1.149902 c -0.09766,0 -0.187582,-0.01424 -0.269775,-0.04272 -0.08219,-0.02848 -0.152995,-0.07121 -0.212402,-0.128174 -0.05941,-0.05778 -0.105795,-0.130208 -0.139161,-0.217285 -0.03255,-0.08789 -0.04883,-0.190836 -0.04883,-0.308838 0,-0.119628 0.01506,-0.224202 0.04517,-0.313721 0.03011,-0.08952 0.07202,-0.16398 0.125733,-0.223389 0.05452,-0.06022 0.119628,-0.105386 0.195312,-0.135498 0.0765,-0.03011 0.161132,-0.04516 0.253907,-0.04517 0.09033,2e-6 0.171711,0.01384 0.24414,0.0415 0.07324,0.02686 0.13509,0.06673 0.185547,0.119629 0.05127,0.0529 0.09033,0.118003 0.117188,0.195313 0.02767,0.0765 0.0415,0.164389 0.0415,0.263672 l 0,0.180664 -0.832519,0 c 0.0016,0.05208 0.0098,0.09928 0.02441,0.141601 0.01546,0.0415 0.03662,0.07691 0.06348,0.106201 0.02767,0.02848 0.06063,0.05046 0.09888,0.06592 0.03906,0.01546 0.08341,0.02319 0.133057,0.02319 0.0415,0 0.08057,-0.002 0.117188,-0.0061 0.03743,-0.0049 0.07365,-0.0118 0.108642,-0.02075 0.03499,-0.009 0.06958,-0.01994 0.10376,-0.03296 0.03418,-0.01383 0.06917,-0.0297 0.10498,-0.04761 l 0,0.288086 c -0.03255,0.01709 -0.06551,0.03174 -0.09888,0.04395 -0.03255,0.01139 -0.06714,0.02116 -0.103759,0.0293 -0.03662,0.0081 -0.07609,0.01384 -0.118408,0.01709 -0.04232,0.0041 -0.08871,0.0061 -0.139161,0.0061" style="font-weight:bold;font-size:2.5px;font-family:'Droid Sans';-inkscape-font-specification:'Droid Sans Bold';fill:#250" id="path5991" inkscape:connector-curvature="0" />
      <path d="m 20.847027,21.714965 c -0.07243,1e-6 -0.13672,0.01424 -0.192871,0.04272 -0.05534,0.02767 -0.102133,0.06795 -0.140381,0.12085 -0.03744,0.05209 -0.06592,0.115968 -0.08545,0.19165 -0.01953,0.07487 -0.0293,0.1591 -0.0293,0.252686 -1e-6,0.09522 0.0085,0.179851 0.02564,0.253906 0.0179,0.07406 0.04476,0.13672 0.08057,0.187989 0.03662,0.05046 0.08301,0.08911 0.13916,0.115966 0.05696,0.02604 0.124511,0.03906 0.202637,0.03906 0.07243,0 0.144855,-0.0081 0.217285,-0.02441 0.07324,-0.01628 0.152587,-0.03947 0.238037,-0.06958 l 0,0.317383 c -0.03906,0.01628 -0.07772,0.03011 -0.115967,0.0415 -0.03825,0.01139 -0.07731,0.02075 -0.117187,0.02808 -0.03988,0.0073 -0.08098,0.01261 -0.123291,0.01587 -0.0415,0.0041 -0.08626,0.0061 -0.134278,0.0061 -0.137533,0 -0.256755,-0.02197 -0.357666,-0.06592 -0.100912,-0.04394 -0.184326,-0.105794 -0.250244,-0.185547 -0.06592,-0.07975 -0.114746,-0.17578 -0.146484,-0.288086 -0.03174,-0.112304 -0.04761,-0.237222 -0.04761,-0.374755 0,-0.135091 0.01831,-0.258788 0.05493,-0.371094 0.03662,-0.113117 0.09033,-0.210367 0.161133,-0.291748 0.0708,-0.08138 0.158284,-0.144448 0.262451,-0.189209 0.104166,-0.04557 0.223795,-0.06836 0.358887,-0.06836 0.0887,2e-6 0.177408,0.0114 0.266113,0.03418 0.08952,0.02198 0.174966,0.05249 0.256348,0.09155 l -0.122071,0.307617 c -0.06673,-0.03174 -0.133871,-0.05941 -0.201416,-0.08301 -0.06755,-0.0236 -0.133871,-0.0354 -0.198974,-0.0354" style="font-weight:bold;font-size:2.5px;font-family:'Droid Sans';-inkscape-font-specification:'Droid Sans Bold';fill:#250" id="path5993" inkscape:connector-curvature="0" />
      <path d="m 22.443707,23.210326 -0.07202,-0.185547 -0.01099,0 c -0.02686,0.03662 -0.05371,0.06836 -0.08057,0.09521 -0.02686,0.02604 -0.05615,0.04761 -0.08789,0.0647 -0.03174,0.01709 -0.06755,0.0297 -0.107422,0.03784 -0.03906,0.0081 -0.08464,0.01221 -0.136719,0.01221 -0.05534,0 -0.106608,-0.0085 -0.153809,-0.02563 -0.0472,-0.0179 -0.0883,-0.04435 -0.123291,-0.07935 -0.03418,-0.03581 -0.06104,-0.08057 -0.08057,-0.134278 -0.01953,-0.05452 -0.0293,-0.118814 -0.0293,-0.192871 0,-0.144856 0.04639,-0.251464 0.13916,-0.319824 0.09277,-0.06917 0.231527,-0.107421 0.41626,-0.114746 l 0.217285,-0.0073 0,-0.102539 c -1e-6,-0.05615 -0.01628,-0.09765 -0.04883,-0.124512 -0.03255,-0.02685 -0.07813,-0.04028 -0.136719,-0.04028 -0.05859,10e-7 -0.115967,0.0085 -0.172119,0.02564 -0.05534,0.01709 -0.111084,0.03988 -0.167236,0.06836 l -0.12085,-0.246582 c 0.06836,-0.03825 0.144043,-0.06836 0.227051,-0.09033 0.08301,-0.02197 0.170084,-0.03296 0.261231,-0.03296 0.170083,10e-7 0.300291,0.03988 0.390625,0.119629 0.09114,0.07975 0.136717,0.20101 0.136718,0.363769 l 0,0.909424 -0.260009,0 m -0.109864,-0.632324 -0.123291,0.0049 c -0.04964,0.0016 -0.09155,0.0081 -0.125732,0.01953 -0.03418,0.01139 -0.06185,0.02686 -0.08301,0.04639 -0.02035,0.01872 -0.0354,0.0415 -0.04517,0.06836 -0.009,0.02604 -0.01343,0.05534 -0.01343,0.08789 0,0.05697 0.01383,0.09766 0.0415,0.12207 0.02767,0.0236 0.06388,0.0354 0.108643,0.0354 0.03418,10e-7 0.06592,-0.0057 0.09522,-0.01709 0.0293,-0.01221 0.05452,-0.0297 0.07568,-0.05249 0.02197,-0.0236 0.03906,-0.05208 0.05127,-0.08545 0.01221,-0.03418 0.01831,-0.07324 0.01831,-0.117187 l 0,-0.112305" style="font-weight:bold;font-size:2.5px;font-family:'Droid Sans';-inkscape-font-specification:'Droid Sans Bold';fill:#250" id="path5995" inkscape:connector-curvature="0" />
      <path d="m 23.459332,23.210326 -0.372315,0 0,-1.899414 0.372315,0 0,1.899414" style="font-weight:bold;font-size:2.5px;font-family:'Droid Sans';-inkscape-font-specification:'Droid Sans Bold';fill:#250" id="path5997" inkscape:connector-curvature="0" />
      <path d="m 24.22105,23.210326 -0.372314,0 0,-1.899414 0.372314,0 0,1.899414" style="font-weight:bold;font-size:2.5px;font-family:'Droid Sans';-inkscape-font-specification:'Droid Sans Bold';fill:#250" id="path5999" inkscape:connector-curvature="0" />
      <path d="m 9.0879936,25.57727 c -1e-7,-0.08545 0.00448,-0.170491 0.013428,-0.255127 0.00977,-0.08464 0.026448,-0.165608 0.050049,-0.24292 0.024414,-0.07812 0.056966,-0.150552 0.097656,-0.217285 0.041504,-0.06673 0.093587,-0.124511 0.15625,-0.17334 0.063476,-0.04964 0.1391596,-0.0883 0.2270508,-0.115967 0.088704,-0.02848 0.1920565,-0.04272 0.3100586,-0.04273 0.017089,2e-6 0.035806,4.09e-4 0.056152,0.0012 0.020344,8.16e-4 0.040689,0.002 0.061035,0.0037 0.02116,8.16e-4 0.0415,0.0024 0.06104,0.0049 0.01953,0.0024 0.03703,0.0053 0.05249,0.0085 l 0,0.301513 c -0.03093,-0.0073 -0.06389,-0.01302 -0.09888,-0.01709 -0.03418,-0.0049 -0.06877,-0.0073 -0.10376,-0.0073 -0.1098642,2e-6 -0.2001961,0.01384 -0.2709961,0.0415 -0.070801,0.02686 -0.1269537,0.0647 -0.168457,0.113526 -0.041504,0.04883 -0.071208,0.107423 -0.089111,0.175781 -0.01709,0.06836 -0.02767,0.144044 -0.031738,0.227051 l 0.014648,0 c 0.016276,-0.0293 0.035807,-0.05656 0.058594,-0.08179 0.0236,-0.02604 0.050862,-0.04801 0.081787,-0.06592 0.030924,-0.01872 0.065511,-0.03336 0.1037598,-0.04395 0.039062,-0.01058 0.0826,-0.01587 0.1306152,-0.01587 0.07731,1e-6 0.1468904,0.01262 0.2087401,0.03784 0.06185,0.02523 0.113931,0.06185 0.15625,0.109863 0.04313,0.04802 0.07609,0.107016 0.09888,0.177002 0.02278,0.06999 0.03418,0.150147 0.03418,0.240479 -1e-6,0.09684 -0.01384,0.183513 -0.0415,0.26001 -0.02686,0.0765 -0.06551,0.141601 -0.115967,0.195312 -0.05046,0.0529 -0.111492,0.09359 -0.1831054,0.12207 -0.071615,0.02767 -0.1521818,0.0415 -0.2416992,0.0415 -0.087891,0 -0.1700852,-0.01546 -0.246582,-0.04639 C 9.3923552,26.281615 9.3256235,26.233601 9.2686577,26.169311 9.2125051,26.10502 9.168153,26.024047 9.135601,25.926391 9.1038627,25.827921 9.0879935,25.711548 9.0879936,25.57727 m 0.6201172,0.480957 c 0.033365,0 0.063476,-0.0061 0.090332,-0.01831 0.027669,-0.01302 0.051269,-0.03214 0.070801,-0.05737 0.020344,-0.02604 0.035806,-0.05859 0.046387,-0.09766 0.011392,-0.03906 0.017089,-0.08545 0.01709,-0.13916 -1e-6,-0.08708 -0.018312,-0.155436 -0.054932,-0.205079 -0.035808,-0.05045 -0.09074,-0.07568 -0.1647949,-0.07568 -0.037436,1e-6 -0.071615,0.0073 -0.102539,0.02197 -0.030925,0.01465 -0.057374,0.03377 -0.079346,0.05737 -0.021973,0.0236 -0.039063,0.05005 -0.05127,0.07935 -0.011394,0.0293 -0.01709,0.059 -0.01709,0.08911 -5e-7,0.0415 0.00488,0.08301 0.014648,0.124511 0.010579,0.04069 0.026041,0.07772 0.046387,0.111084 0.021158,0.03255 0.046793,0.059 0.076904,0.07935 0.030924,0.02034 0.066731,0.03052 0.1074219,0.03052" style="font-weight:bold;font-size:2.5px;font-family:'Droid Sans';-inkscape-font-specification:'Droid Sans Bold';fill:#250" id="path6001" inkscape:connector-curvature="0" />
      <path d="m 10.514996,26.160766 c -10e-7,-0.03825 0.0053,-0.07039 0.01587,-0.09644 0.01139,-0.02686 0.02685,-0.04842 0.04639,-0.0647 0.01953,-0.01628 0.04232,-0.02808 0.06836,-0.0354 0.02604,-0.0073 0.05412,-0.01099 0.08423,-0.01099 0.02848,0 0.05534,0.0037 0.08057,0.01099 0.02604,0.0073 0.04883,0.01913 0.06836,0.0354 0.01953,0.01628 0.03499,0.03784 0.04639,0.0647 0.01139,0.02604 0.01709,0.05819 0.01709,0.09644 -1e-6,0.03662 -0.0057,0.06795 -0.01709,0.09399 -0.01139,0.02604 -0.02686,0.04761 -0.04639,0.0647 -0.01953,0.01709 -0.04232,0.0293 -0.06836,0.03662 -0.02523,0.0081 -0.05208,0.01221 -0.08057,0.01221 -0.03011,0 -0.05819,-0.0041 -0.08423,-0.01221 -0.02604,-0.0073 -0.04883,-0.01953 -0.06836,-0.03662 -0.01953,-0.01709 -0.03499,-0.03865 -0.04639,-0.0647 -0.01058,-0.02604 -0.01587,-0.05737 -0.01587,-0.09399" style="font-weight:bold;font-size:2.5px;font-family:'Droid Sans';-inkscape-font-specification:'Droid Sans Bold';fill:#250" id="path6003" inkscape:connector-curvature="0" />
      <path d="m 11.8773,26.160766 c 0,-0.03825 0.0053,-0.07039 0.01587,-0.09644 0.01139,-0.02686 0.02686,-0.04842 0.04639,-0.0647 0.01953,-0.01628 0.04232,-0.02808 0.06836,-0.0354 0.02604,-0.0073 0.05412,-0.01099 0.08423,-0.01099 0.02848,0 0.05534,0.0037 0.08057,0.01099 0.02604,0.0073 0.04883,0.01913 0.06836,0.0354 0.01953,0.01628 0.03499,0.03784 0.04639,0.0647 0.01139,0.02604 0.01709,0.05819 0.01709,0.09644 0,0.03662 -0.0057,0.06795 -0.01709,0.09399 -0.01139,0.02604 -0.02686,0.04761 -0.04639,0.0647 -0.01953,0.01709 -0.04232,0.0293 -0.06836,0.03662 -0.02523,0.0081 -0.05208,0.01221 -0.08057,0.01221 -0.03011,0 -0.05819,-0.0041 -0.08423,-0.01221 -0.02604,-0.0073 -0.04883,-0.01953 -0.06836,-0.03662 -0.01953,-0.01709 -0.03499,-0.03865 -0.04639,-0.0647 -0.01058,-0.02604 -0.01587,-0.05737 -0.01587,-0.09399" style="font-weight:bold;font-size:2.5px;font-family:'Droid Sans';-inkscape-font-specification:'Droid Sans Bold';fill:#250" id="path6005" inkscape:connector-curvature="0" />
      <path d="m 12.590191,26.160766 c 0,-0.03825 0.0053,-0.07039 0.01587,-0.09644 0.01139,-0.02686 0.02686,-0.04842 0.04639,-0.0647 0.01953,-0.01628 0.04232,-0.02808 0.06836,-0.0354 0.02604,-0.0073 0.05412,-0.01099 0.08423,-0.01099 0.02848,0 0.05534,0.0037 0.08057,0.01099 0.02604,0.0073 0.04883,0.01913 0.06836,0.0354 0.01953,0.01628 0.03499,0.03784 0.04639,0.0647 0.01139,0.02604 0.01709,0.05819 0.01709,0.09644 -10e-7,0.03662 -0.0057,0.06795 -0.01709,0.09399 -0.01139,0.02604 -0.02686,0.04761 -0.04639,0.0647 -0.01953,0.01709 -0.04232,0.0293 -0.06836,0.03662 -0.02523,0.0081 -0.05208,0.01221 -0.08057,0.01221 -0.03011,0 -0.05819,-0.0041 -0.08423,-0.01221 -0.02604,-0.0073 -0.04883,-0.01953 -0.06836,-0.03662 -0.01953,-0.01709 -0.03499,-0.03865 -0.04639,-0.0647 -0.01058,-0.02604 -0.01587,-0.05737 -0.01587,-0.09399" style="font-weight:bold;font-size:2.5px;font-family:'Droid Sans';-inkscape-font-specification:'Droid Sans Bold';fill:#250" id="path6007" inkscape:connector-curvature="0" />
      <path d="m 13.303082,26.160766 c -10e-7,-0.03825 0.0053,-0.07039 0.01587,-0.09644 0.01139,-0.02686 0.02685,-0.04842 0.04639,-0.0647 0.01953,-0.01628 0.04232,-0.02808 0.06836,-0.0354 0.02604,-0.0073 0.05412,-0.01099 0.08423,-0.01099 0.02848,0 0.05534,0.0037 0.08057,0.01099 0.02604,0.0073 0.04883,0.01913 0.06836,0.0354 0.01953,0.01628 0.03499,0.03784 0.04639,0.0647 0.01139,0.02604 0.01709,0.05819 0.01709,0.09644 -1e-6,0.03662 -0.0057,0.06795 -0.01709,0.09399 -0.01139,0.02604 -0.02686,0.04761 -0.04639,0.0647 -0.01953,0.01709 -0.04232,0.0293 -0.06836,0.03662 -0.02523,0.0081 -0.05208,0.01221 -0.08057,0.01221 -0.03011,0 -0.05819,-0.0041 -0.08423,-0.01221 -0.02604,-0.0073 -0.04883,-0.01953 -0.06836,-0.03662 -0.01953,-0.01709 -0.03499,-0.03865 -0.04639,-0.0647 -0.01058,-0.02604 -0.01587,-0.05737 -0.01587,-0.09399" style="font-weight:bold;font-size:2.5px;font-family:'Droid Sans';-inkscape-font-specification:'Droid Sans Bold';fill:#250" id="path6009" inkscape:connector-curvature="0" />
    </g>
    <g style="font-style:normal;font-variant:normal;font-weight:bold;font-stretch:normal;font-size:4px;line-height:125%;font-family:'Droid Sans';-inkscape-font-specification:'Droid Sans Bold';text-align:start;writing-mode:lr-tb;text-anchor:start;fill:black;fill-opacity:1;stroke:none" id="text5887">
      <path d="m 7.9082031,4.7680664 0.8496094,0 0,1.1103516 C 8.70117,5.8969727 8.6440412,5.9140626 8.5864258,5.9296875 8.5288069,5.944336 8.4687484,5.9570313 8.40625,5.9677734 8.344725,5.9775391 8.2797837,5.9853515 8.2114258,5.9912109 8.1440417,5.9970703 8.0722644,6 7.9960938,6 7.8359365,6 7.6938468,5.9765625 7.5698242,5.9296875 7.4467767,5.881836 7.3427729,5.8115236 7.2578125,5.71875 7.1738278,5.6250003 7.109863,5.5097661 7.065918,5.3730469 7.0219725,5.2353523 6.9999998,5.0766611 7,4.8969727 6.9999998,4.7290051 7.0244139,4.5771498 7.0732422,4.4414062 7.12207,4.3056657 7.1938473,4.1904315 7.2885742,4.0957031 7.3842768,4.000002 7.5014642,3.9267599 7.6401367,3.8759766 7.7797842,3.8242209 7.939452,3.798342 8.1191406,3.7983398 c 0.1142564,2.2e-6 0.2260727,0.012209 0.3354492,0.036621 0.1093733,0.024416 0.2094709,0.056154 0.300293,0.095215 L 8.6040039,4.293457 C 8.5375959,4.2602556 8.4624007,4.2324236 8.378418,4.2099609 8.2954087,4.1875018 8.2080064,4.1762713 8.1162109,4.1762695 c -0.099611,1.8e-6 -0.1894542,0.01758 -0.2695312,0.052734 -0.079103,0.034181 -0.1469735,0.083009 -0.2036133,0.1464844 -0.056641,0.063478 -0.1000984,0.1401382 -0.1303711,0.2299805 -0.030274,0.089845 -0.045411,0.1899425 -0.04541,0.3002929 -7e-7,0.1054697 0.010253,0.2021493 0.030762,0.2900391 0.021484,0.086915 0.054687,0.16211 0.099609,0.2255859 0.044921,0.063477 0.1025381,0.1127934 0.1728515,0.1479492 0.071288,0.035157 0.1562489,0.052735 0.2548828,0.052734 0.064452,4e-7 0.1186511,-0.00293 0.1625977,-0.00879 0.04492,-0.00586 0.086913,-0.012695 0.1259765,-0.020508 l 0,-0.4467773 -0.4057617,0 0,-0.3779297" style="font-size:3px;fill:lime" id="path6012" inkscape:connector-curvature="0" />
      <path d="m 10.087891,4.3022461 c 0.01172,1.7e-6 0.02441,4.899e-4 0.03809,0.00146 0.01465,1.7e-6 0.02832,9.783e-4 0.04101,0.00293 0.01367,9.783e-4 0.02588,0.00244 0.03662,0.00439 0.01172,9.782e-4 0.02051,0.00244 0.02637,0.00439 l 0,0.4189453 c -0.0078,-0.00195 -0.01855,-0.0039 -0.03223,-0.00586 -0.01367,-0.00195 -0.02832,-0.00342 -0.04394,-0.00439 -0.01465,-0.00195 -0.0293,-0.00293 -0.04395,-0.00293 -0.01465,-9.753e-4 -0.02686,-0.00146 -0.03662,-0.00146 -0.05762,1.2e-6 -0.1108406,0.00733 -0.1596678,0.021973 -0.047852,0.01465 -0.089356,0.038575 -0.1245117,0.071777 -0.03418,0.032228 -0.061036,0.075196 -0.080566,0.1289062 -0.018555,0.052735 -0.027833,0.1176767 -0.027832,0.1948242 l 0,0.8334961 -0.4467774,0 0,-1.6376953 0.3383789,0 0.065918,0.2460938 0.021973,0 c 0.023437,-0.041991 0.048827,-0.080077 0.076172,-0.1142579 0.027343,-0.034178 0.057616,-0.062987 0.09082,-0.086426 0.034179,-0.024412 0.072265,-0.042967 0.1142579,-0.055664 0.042968,-0.01367 0.091796,-0.020506 0.1464851,-0.020508" style="font-size:3px;fill:lime" id="path6014" inkscape:connector-curvature="0" />
      <path d="m 11.196777,4.6201172 c -0.0791,1.3e-6 -0.14502,0.027833 -0.197754,0.083496 -0.05176,0.055665 -0.08154,0.1430675 -0.08935,0.262207 l 0.569824,0 c -9.78e-4,-0.049804 -0.0073,-0.095702 -0.01904,-0.1376953 -0.01172,-0.041991 -0.0293,-0.078124 -0.05273,-0.1083984 -0.02344,-0.031249 -0.05274,-0.055663 -0.08789,-0.073242 -0.03516,-0.017577 -0.07617,-0.026366 -0.123047,-0.026367 M 11.253906,6 C 11.136718,6 11.028808,5.98291 10.930176,5.94873 10.831546,5.91455 10.746582,5.863281 10.675293,5.7949214 10.604003,5.7255854 10.54834,5.6386717 10.508301,5.5341792 10.469241,5.428711 10.449711,5.3051759 10.449711,5.1635737 c 0,-0.1435537 0.01807,-0.2690419 0.0542,-0.3764648 0.03613,-0.1074206 0.08643,-0.196776 0.150879,-0.2680664 0.06543,-0.072264 0.143554,-0.1264633 0.234375,-0.1625977 0.0918,-0.036131 0.193359,-0.054197 0.304688,-0.054199 0.108397,1.7e-6 0.206053,0.016603 0.292968,0.049805 0.08789,0.032228 0.162108,0.08008 0.222657,0.1435547 0.06152,0.063478 0.108397,0.1416029 0.140625,0.234375 0.0332,0.091798 0.0498,0.1972666 0.0498,0.3164062 l 0,0.2167969 -0.999023,0 c 0.002,0.062501 0.01172,0.1191412 0.0293,0.1699219 0.01855,0.049805 0.04394,0.092286 0.07617,0.1274414 0.0332,0.03418 0.07275,0.060547 0.118652,0.079101 0.04687,0.018555 0.100097,0.027832 0.159668,0.027832 0.0498,3e-7 0.09668,-0.00244 0.140625,-0.00732 0.04492,-0.00586 0.08838,-0.01416 0.130371,-0.024902 0.04199,-0.010742 0.08349,-0.023925 0.124512,-0.039551 0.04101,-0.016601 0.08301,-0.035644 0.125976,-0.057129 l 0,0.3457031 c -0.03906,0.020508 -0.07861,0.038086 -0.118652,0.052734 -0.03906,0.013672 -0.08057,0.025391 -0.124512,0.035156 C 11.51904,5.981941 11.47168,5.988773 11.4209,5.992679 11.370116,5.9975586 11.314452,6 11.253906,6" style="font-size:3px;fill:lime" id="path6016" inkscape:connector-curvature="0" />
      <path d="m 12.942871,4.6201172 c -0.0791,1.3e-6 -0.14502,0.027833 -0.197754,0.083496 -0.05176,0.055665 -0.08154,0.1430675 -0.08936,0.262207 l 0.569824,0 c -9.78e-4,-0.049804 -0.0073,-0.095702 -0.01904,-0.1376953 -0.01172,-0.041991 -0.0293,-0.078124 -0.05273,-0.1083984 -0.02344,-0.031249 -0.05274,-0.055663 -0.08789,-0.073242 -0.03516,-0.017577 -0.07617,-0.026366 -0.123047,-0.026367 M 13,6 C 12.882812,6 12.774902,5.98291 12.67627,5.94873 12.57764,5.91455 12.492675,5.863281 12.421387,5.7949214 12.350097,5.7255854 12.294433,5.6386717 12.254395,5.5341792 12.215335,5.428711 12.195805,5.3051759 12.195805,5.1635737 c 0,-0.1435537 0.01807,-0.2690419 0.0542,-0.3764648 0.03613,-0.1074206 0.08643,-0.196776 0.150879,-0.2680664 0.06543,-0.072264 0.143554,-0.1264633 0.234375,-0.1625977 0.0918,-0.036131 0.193358,-0.054197 0.304687,-0.054199 0.108398,1.7e-6 0.206054,0.016603 0.292969,0.049805 0.08789,0.032228 0.162108,0.08008 0.222656,0.1435547 0.06152,0.063478 0.108397,0.1416029 0.140625,0.234375 0.0332,0.091798 0.0498,0.1972666 0.04981,0.3164062 l 0,0.2167969 -0.999023,0 c 0.002,0.062501 0.01172,0.1191412 0.0293,0.1699219 0.01855,0.049805 0.04394,0.092286 0.07617,0.1274414 0.0332,0.03418 0.07275,0.060547 0.118653,0.079101 0.04687,0.018555 0.100096,0.027832 0.159668,0.027832 0.0498,3e-7 0.09668,-0.00244 0.140625,-0.00732 0.04492,-0.00586 0.08838,-0.01416 0.130371,-0.024902 0.04199,-0.010742 0.0835,-0.023925 0.124512,-0.039551 0.04101,-0.016601 0.08301,-0.035644 0.125976,-0.057129 l 0,0.3457031 c -0.03906,0.020508 -0.07862,0.038086 -0.118652,0.052734 -0.03906,0.013672 -0.08057,0.025391 -0.124512,0.035156 -0.04395,0.00977 -0.09131,0.016602 -0.14209,0.020508 C 13.11621,5.9975586 13.060546,6 13,6" style="font-size:3px;fill:lime" id="path6018" inkscape:connector-curvature="0" />
      <path d="m 15.447754,5.9707031 -0.446777,0 0,-0.9565429 c -2e-6,-0.118163 -0.01807,-0.2065418 -0.0542,-0.2651368 -0.03516,-0.059569 -0.0918,-0.089354 -0.169922,-0.089355 -0.05859,1.3e-6 -0.107422,0.01172 -0.146484,0.035156 -0.03906,0.023439 -0.07031,0.058107 -0.09375,0.1040039 -0.02246,0.0459 -0.03857,0.1025402 -0.04834,0.1699219 -0.0098,0.067384 -0.01465,0.1445321 -0.01465,0.2314453 l 0,0.7705078 -0.446778,0 0,-1.6376953 0.341309,0 0.06006,0.2094727 0.0249,0 c 0.02344,-0.041991 0.05176,-0.078124 0.08496,-0.1083985 0.03418,-0.030272 0.07129,-0.055174 0.111328,-0.074707 0.04004,-0.01953 0.08252,-0.03369 0.127441,-0.04248 0.04492,-0.00976 0.09082,-0.014647 0.137696,-0.014648 0.08008,1.7e-6 0.152831,0.01172 0.218261,0.035156 0.06543,0.022463 0.121581,0.058107 0.168458,0.1069336 0.04687,0.04883 0.08301,0.1113296 0.108398,0.1875 0.02539,0.075197 0.03808,0.1655286 0.03809,0.2709961 l 0,1.0678711" style="font-size:3px;fill:lime" id="path6020" inkscape:connector-curvature="0" />
      <path d="m 16.722168,5.9707031 0,-2.1416015 0.454102,0 0,1.7666015 0.779296,0 0,0.375 -1.233398,0" style="font-size:3px;fill:lime" id="path6022" inkscape:connector-curvature="0" />
      <path d="m 18.273438,3.909668 c -10e-7,-0.04199 0.0063,-0.076658 0.01904,-0.1040039 0.0127,-0.028318 0.02979,-0.050779 0.05127,-0.067383 0.02246,-0.017576 0.04834,-0.029783 0.07764,-0.036621 0.03027,-0.00683 0.06201,-0.010252 0.09521,-0.010254 0.0332,2.2e-6 0.06445,0.00342 0.09375,0.010254 0.0293,0.00684 0.05469,0.019045 0.07617,0.036621 0.02246,0.016604 0.04004,0.039065 0.05273,0.067383 0.01367,0.027346 0.02051,0.062014 0.02051,0.1040039 -1e-6,0.041018 -0.0068,0.075686 -0.02051,0.1040039 -0.0127,0.028322 -0.03027,0.051271 -0.05273,0.068848 -0.02149,0.016603 -0.04687,0.02881 -0.07617,0.036621 -0.0293,0.00684 -0.06055,0.010256 -0.09375,0.010254 -0.0332,1.9e-6 -0.06494,-0.00342 -0.09521,-0.010254 -0.0293,-0.00781 -0.05518,-0.020018 -0.07764,-0.036621 -0.02148,-0.017576 -0.03857,-0.040525 -0.05127,-0.068848 -0.0127,-0.028318 -0.01904,-0.062986 -0.01904,-0.1040039 m 0.46582,2.0610351 -0.446778,0 0,-1.6376953 0.446778,0 0,1.6376953" style="font-size:3px;fill:lime" id="path6024" inkscape:connector-curvature="0" />
      <path d="m 20.297852,5.484375 c -2e-6,0.085938 -0.01563,0.1611331 -0.04687,0.2255859 -0.03125,0.064453 -0.07569,0.1181642 -0.133301,0.1611329 -0.05762,0.042969 -0.127443,0.075195 -0.209473,0.09668 C 19.826171,5.9892578 19.734374,6 19.632812,6 19.579102,6 19.529296,5.99805 19.483398,5.99414 19.437498,5.99121 19.394038,5.98584 19.353027,5.978027 19.312007,5.970217 19.272457,5.960449 19.234375,5.94873 19.196285,5.937011 19.157715,5.922363 19.118652,5.904785 l 0,-0.3691407 c 0.04102,0.020508 0.08398,0.039063 0.128907,0.055664 0.0459,0.016602 0.09131,0.03125 0.13623,0.043945 0.04492,0.011719 0.08838,0.020996 0.130371,0.027832 0.04297,0.00684 0.08252,0.010254 0.118652,0.010254 0.04004,3e-7 0.07422,-0.00342 0.10254,-0.010254 0.02832,-0.00781 0.05127,-0.018066 0.06885,-0.030762 0.01855,-0.013672 0.03174,-0.029297 0.03955,-0.046875 0.0088,-0.018554 0.01318,-0.038086 0.01318,-0.058594 -1e-6,-0.020507 -0.0034,-0.038574 -0.01025,-0.054199 -0.0059,-0.016601 -0.02002,-0.033691 -0.04248,-0.05127 -0.02246,-0.018554 -0.05567,-0.039062 -0.09961,-0.061523 -0.04297,-0.023437 -0.101075,-0.051757 -0.174317,-0.084961 -0.07129,-0.032226 -0.133301,-0.063964 -0.186035,-0.095215 -0.05176,-0.032226 -0.09473,-0.06787 -0.128906,-0.1069336 -0.0332,-0.039062 -0.05811,-0.083495 -0.07471,-0.1333008 -0.0166,-0.05078 -0.0249,-0.1108387 -0.0249,-0.1801758 0,-0.07617 0.01465,-0.1425767 0.04395,-0.1992187 0.0293,-0.057616 0.0708,-0.1054672 0.124512,-0.1435547 0.05371,-0.038084 0.118163,-0.066405 0.193359,-0.084961 0.07617,-0.01953 0.160644,-0.029295 0.253418,-0.029297 0.09765,1.7e-6 0.190429,0.011232 0.27832,0.033691 0.08789,0.022462 0.178222,0.056154 0.270996,0.1010742 L 20.145508,4.753418 c -0.07422,-0.035155 -0.145021,-0.063964 -0.212403,-0.086426 -0.06738,-0.02246 -0.134766,-0.03369 -0.202148,-0.033691 -0.06055,1.3e-6 -0.104493,0.010744 -0.131836,0.032227 -0.02637,0.021486 -0.03955,0.050783 -0.03955,0.087891 0,0.019532 0.0034,0.03711 0.01025,0.052734 0.0068,0.01465 0.02051,0.030275 0.04102,0.046875 0.02051,0.015626 0.04932,0.033204 0.08643,0.052734 0.03711,0.018556 0.08545,0.041505 0.145019,0.068848 0.06933,0.030274 0.131835,0.060548 0.1875,0.09082 0.05566,0.029298 0.103515,0.062989 0.143555,0.1010742 0.04004,0.038087 0.0708,0.08252 0.09229,0.1333008 0.02148,0.050782 0.03223,0.1123052 0.03223,0.1845703" style="font-size:3px;fill:lime" id="path6026" inkscape:connector-curvature="0" />
      <path d="m 21.312988,5.644043 c 0.04395,3e-7 0.08545,-0.00488 0.124512,-0.014648 0.04004,-0.00977 0.08057,-0.021972 0.121582,-0.036621 l 0,0.3325196 c -0.04199,0.021484 -0.09424,0.039063 -0.156738,0.052734 C 21.340819,5.9926758 21.273437,6 21.200195,6 21.128905,6 21.062499,5.9917 21.000977,5.975098 20.939457,5.958496 20.88623,5.929688 20.841309,5.888672 20.796389,5.84668 20.760739,5.791016 20.734375,5.7216798 20.708985,5.6513678 20.696285,5.5634771 20.696285,5.4580079 l 0,-0.7895508 -0.213867,0 0,-0.1889648 0.246094,-0.1494141 0.128906,-0.3457031 0.285644,0 0,0.3486328 0.398438,0 0,0.3354492 -0.398438,0 0,0.7895508 c 0,0.063477 0.01563,0.110352 0.04687,0.140625 0.03125,0.030274 0.07226,0.045411 0.123047,0.04541" style="font-size:3px;fill:lime" id="path6028" inkscape:connector-curvature="0" />
    </g>
  </g>
</svg>
