<?xml version="1.0" encoding="UTF-8" standalone="no"?>
<!-- Created with Inkscape (http://www.inkscape.org/) -->

<svg
   xmlns:dc="http://purl.org/dc/elements/1.1/"
   xmlns:cc="http://creativecommons.org/ns#"
   xmlns:rdf="http://www.w3.org/1999/02/22-rdf-syntax-ns#"
   xmlns:svg="http://www.w3.org/2000/svg"
   xmlns="http://www.w3.org/2000/svg"
   xmlns:xlink="http://www.w3.org/1999/xlink"
   xmlns:sodipodi="http://sodipodi.sourceforge.net/DTD/sodipodi-0.dtd"
   xmlns:inkscape="http://www.inkscape.org/namespaces/inkscape"
   width="32px"
   height="32px"
   id="svg3505"
   sodipodi:version="0.32"
   inkscape:version="0.48.5 r10040"
   sodipodi:docname="58.svg"
   inkscape:output_extension="org.inkscape.output.svg.inkscape"
   version="1.1">
  <defs
     id="defs3507">
    <linearGradient
       id="linearGradient4030">
      <stop
         id="stop4032"
         offset="0"
         style="stop-color:#ffcc01;stop-opacity:1;" />
      <stop
         style="stop-color:#ffea95;stop-opacity:1;"
         offset="0.5"
         id="stop4036" />
      <stop
         id="stop4046"
         offset="0.75"
         style="stop-color:#ffcc01;stop-opacity:1;" />
      <stop
         id="stop4034"
         offset="1"
         style="stop-color:#c09a00;stop-opacity:1;" />
    </linearGradient>
    <linearGradient
       id="linearGradient4022">
      <stop
         style="stop-color:#fc0;stop-opacity:1;"
         offset="0"
         id="stop4024" />
      <stop
         style="stop-color:#fc0;stop-opacity:0;"
         offset="1"
         id="stop4026" />
    </linearGradient>
    <inkscape:perspective
       sodipodi:type="inkscape:persp3d"
       inkscape:vp_x="0 : 16 : 1"
       inkscape:vp_y="0 : 1000 : 0"
       inkscape:vp_z="32 : 16 : 1"
       inkscape:persp3d-origin="16 : 10.666667 : 1"
       id="perspective3513" />
    <inkscape:perspective
       id="perspective4690"
       inkscape:persp3d-origin="372.04724 : 350.78739 : 1"
       inkscape:vp_z="744.09448 : 526.18109 : 1"
       inkscape:vp_y="0 : 1000 : 0"
       inkscape:vp_x="0 : 526.18109 : 1"
       sodipodi:type="inkscape:persp3d" />
    <linearGradient
       inkscape:collect="always"
       xlink:href="#linearGradient4030"
       id="linearGradient4054"
       x1="16"
       y1="4"
       x2="16"
       y2="16"
       gradientUnits="userSpaceOnUse" />
  </defs>
  <sodipodi:namedview
     id="base"
     pagecolor="#ffffff"
     bordercolor="#666666"
     borderopacity="1.0"
     inkscape:pageopacity="0.0"
     inkscape:pageshadow="2"
     inkscape:zoom="9.44"
     inkscape:cx="30.565022"
     inkscape:cy="16"
     inkscape:current-layer="g5380"
     showgrid="true"
     inkscape:grid-bbox="true"
     inkscape:document-units="px"
     objecttolerance="10000"
     gridtolerance="10000"
     guidetolerance="10000"
     inkscape:window-width="1024"
     inkscape:window-height="741"
     inkscape:window-x="0"
     inkscape:window-y="2"
     inkscape:object-paths="true"
     inkscape:object-nodes="true"
     inkscape:snap-bbox="true"
     inkscape:snap-guide="true"
     inkscape:window-maximized="1"
     showguides="false">
    <inkscape:grid
       type="xygrid"
       id="grid3515"
       units="px"
       visible="true"
       enabled="true"
       spacingx="1px"
       spacingy="1px"
       empspacing="4"
       snapvisiblegridlinesonly="true" />
  </sodipodi:namedview>
  <metadata
     id="metadata3510">
    <rdf:RDF>
      <cc:Work
         rdf:about="">
        <dc:format>image/svg+xml</dc:format>
        <dc:type
           rdf:resource="http://purl.org/dc/dcmitype/StillImage" />
        <dc:title></dc:title>
        <dc:date>2010-04-26</dc:date>
        <dc:creator>
          <cc:Agent>
            <dc:title>Andreas Neudecker &lt;zapyon@gmx.net&gt;</dc:title>
          </cc:Agent>
        </dc:creator>
        <dc:rights>
          <cc:Agent>
            <dc:title>Copyright (C) 2010 by Andreas Neudecker</dc:title>
          </cc:Agent>
        </dc:rights>
        <dc:publisher>
          <cc:Agent>
            <dc:title>Andreas Neudecker</dc:title>
          </cc:Agent>
        </dc:publisher>
        <dc:identifier>vorlage-32x32-mcminos</dc:identifier>
        <dc:description>Vorlage für 32x32-Pixel-Icons für McMinos. Metadaten jeweils entsprechend anpassen!</dc:description>
      </cc:Work>
    </rdf:RDF>
  </metadata>
  <g
     id="layer1"
     inkscape:label="Layer 1"
     inkscape:groupmode="layer">
    <g
       id="g5380">
      <rect
         y="0"
         x="0"
         height="32"
         width="32"
         id="rect5378"
         style="opacity:1;fill:none;fill-opacity:1;fill-rule:nonzero;stroke:none;stroke-width:2;stroke-linecap:butt;stroke-linejoin:miter;stroke-miterlimit:4;stroke-dasharray:none;stroke-dashoffset:0;stroke-opacity:1" />
      <path
         transform="matrix(1.0440591,0,0,0.9999439,-255.76471,-120.05549)"
         d="M 274.6633,136.06313 A 14.367003,15.000842 0 1 1 245.92929,136.06313 A 14.367003,15.000842 0 1 1 274.6633,136.06313 z"
         sodipodi:ry="15.000842"
         sodipodi:rx="14.367003"
         sodipodi:cy="136.06313"
         sodipodi:cx="260.2963"
         id="path4818"
         style="fill:#000000;fill-opacity:1;fill-rule:nonzero;stroke:none;stroke-width:1;stroke-linecap:butt;stroke-linejoin:miter;stroke-miterlimit:4;stroke-dasharray:none;stroke-dashoffset:0;stroke-opacity:1"
         sodipodi:type="arc" />
      <path
         transform="matrix(2.0024876,0,0,2.0024876,4.9747218e-2,-1.9905116e-2)"
         d="M 14.956522,8 A 6.9913044,6.9913044 0 1 1 0.97391319,8 A 6.9913044,6.9913044 0 1 1 14.956522,8 z"
         sodipodi:ry="6.9913044"
         sodipodi:rx="6.9913044"
         sodipodi:cy="8"
         sodipodi:cx="7.9652176"
         id="path3403"
         style="fill:#1a1a1a;fill-opacity:1;fill-rule:nonzero;stroke:none;stroke-width:0.10000000000000001;stroke-linecap:round;stroke-linejoin:round;stroke-miterlimit:4;stroke-dasharray:none;stroke-dashoffset:0;stroke-opacity:1"
         sodipodi:type="arc" />
      <path
         sodipodi:open="true"
         sodipodi:end="3.1415927"
         sodipodi:start="0"
         transform="matrix(3.127226,0,0,3.3996825,-72.05343,-160.18474)"
         d="M 32.314078,51.823883 A 4.1570387,3.8238845 0 1 1 24.000001,51.823883"
         sodipodi:ry="3.8238845"
         sodipodi:rx="4.1570387"
         sodipodi:cy="51.823883"
         sodipodi:cx="28.15704"
         id="path3429"
         style="fill:#e1fff9;fill-opacity:1;fill-rule:nonzero;stroke:none;stroke-width:1;stroke-linecap:butt;stroke-linejoin:miter;stroke-miterlimit:4;stroke-dasharray:none;stroke-dashoffset:0;stroke-opacity:1"
         sodipodi:type="arc" />
      <path
         d="M 10,5 A 2,2 0 1 1 6,5 A 2,2 0 1 1 10,5 z"
         sodipodi:ry="2"
         sodipodi:rx="2"
         sodipodi:cy="5"
         sodipodi:cx="8"
         id="path3407"
         style="fill:#ffffff;fill-opacity:1;fill-rule:nonzero;stroke:none;stroke-width:0.1;stroke-linecap:round;stroke-linejoin:round;stroke-miterlimit:4;stroke-dasharray:none;stroke-dashoffset:0;stroke-opacity:1"
         sodipodi:type="arc"
         transform="matrix(2,0,0,2,-7.0000028,-5.1161847e-6)" />
      <path
         transform="matrix(2,0,0,2,6.999997,-5.1161847e-6)"
         sodipodi:type="arc"
         style="fill:#ffffff;fill-opacity:1;fill-rule:nonzero;stroke:none;stroke-width:0.1;stroke-linecap:round;stroke-linejoin:round;stroke-miterlimit:4;stroke-dasharray:none;stroke-dashoffset:0;stroke-opacity:1"
         id="path3425"
         sodipodi:cx="8"
         sodipodi:cy="5"
         sodipodi:rx="2"
         sodipodi:ry="2"
         d="M 10,5 A 2,2 0 1 1 6,5 A 2,2 0 1 1 10,5 z" />
      <path
         transform="matrix(2,0,0,2,-7,1)"
         d="M 9,5 A 1,1 0 1 1 7,5 1,1 0 1 1 9,5 z"
         sodipodi:ry="1"
         sodipodi:rx="1"
         sodipodi:cy="5"
         sodipodi:cx="8"
         id="path3409"
         style="fill:black;fill-opacity:1;fill-rule:nonzero;stroke:none"
         sodipodi:type="arc" />
      <path
         sodipodi:type="arc"
         style="fill:black;fill-opacity:1;fill-rule:nonzero;stroke:none"
         id="path3427"
         sodipodi:cx="8"
         sodipodi:cy="5"
         sodipodi:rx="1"
         sodipodi:ry="1"
         d="M 9,5 A 1,1 0 1 1 7,5 1,1 0 1 1 9,5 z"
         transform="matrix(2,0,0,2,7,1)" />
      <path
         sodipodi:open="true"
         sodipodi:type="arc"
         style="fill:#ffffff;fill-opacity:1;fill-rule:nonzero;stroke:none;stroke-width:1;stroke-linecap:butt;stroke-linejoin:miter;stroke-miterlimit:4;stroke-dasharray:none;stroke-dashoffset:0;stroke-opacity:1"
         id="path3443"
         sodipodi:cx="28.15704"
         sodipodi:cy="51.823883"
         sodipodi:rx="4.1570387"
         sodipodi:ry="0.76477689"
         d="M 24.000001,51.823883 A 4.1570387,0.76477689 0 0 1 32.314078,51.823883"
         transform="matrix(3.3677824,0,0,1.7603396e-6,-78.826783,15.999905)"
         sodipodi:start="3.1415927"
         sodipodi:end="6.2831853" />
      <path
         style="fill:#81e6ff;fill-opacity:0.25098041;stroke:none"
         d="M 3 16 C 3 17.759902 3.3662779 19.437908 4 20.96875 L 4 16 L 3 16 z M 9 16 L 9 26.9375 C 9.634046 27.343813 10.297129 27.70716 11 28 L 11 16 L 9 16 z M 16 16 L 16 29 C 16.678455 29 17.349587 28.943931 18 28.84375 L 18 16 L 16 16 z M 23 16 L 23 26.9375 C 23.716806 26.478153 24.388534 25.962 25 25.375 L 25 16 L 23 16 z "
         id="rect3904" />
      <path
         style="fill:white;fill-opacity:1;stroke:none"
         d="M 7 16 L 7 25.375 C 7.611466 25.962 8.283194 26.478153 9 26.9375 L 9 16 L 7 16 z M 14 16 L 14 28.84375 C 14.650413 28.943931 15.321545 29 16 29 L 16 16 L 14 16 z M 21 16 L 21 28 C 21.702871 27.70716 22.365954 27.343813 23 26.9375 L 23 16 L 21 16 z M 28 16 L 28 20.96875 C 28.633722 19.437908 29 17.759902 29 16 L 28 16 z "
         id="rect3912" />
      <path
         style="fill:url(#linearGradient4054);fill-opacity:1;stroke:none"
         d="M 9 4 C 5.6862915 4 3 6.6862915 3 10 C 3 13.313708 5.6862915 16 9 16 C 12.313708 16 15 13.313708 15 10 C 15 9.7274027 14.972712 9.4504593 14.9375 9.1875 C 15.614684 8.9342043 16.385316 8.9342042 17.0625 9.1875 C 17.027288 9.4504593 17 9.7274027 17 10 C 17 13.313708 19.686291 16 23 16 C 26.313708 16 29 13.313708 29 10 C 29 6.6862915 26.313708 4 23 4 C 20.307611 4 18.040919 5.7763386 17.28125 8.21875 C 16.867154 8.080555 16.431624 8 16 8 C 15.568376 8 15.132846 8.080555 14.71875 8.21875 C 13.959081 5.7763386 11.692388 4 9 4 z M 9 5 C 11.761424 5 14 7.2385763 14 10 C 14 12.761424 11.761424 15 9 15 C 6.2385763 15 4 12.761424 4 10 C 4 7.2385763 6.2385763 5 9 5 z M 23 5 C 25.761424 5 28 7.2385763 28 10 C 28 12.761424 25.761424 15 23 15 C 20.238576 15 18 12.761424 18 10 C 18 7.2385763 20.238576 5 23 5 z "
         id="path3241" />
    </g>
  </g>
</svg>
