<?xml version="1.0" encoding="UTF-8" standalone="no"?>
<!-- Created with Inkscape (http://www.inkscape.org/) -->

<svg
   xmlns:dc="http://purl.org/dc/elements/1.1/"
   xmlns:cc="http://creativecommons.org/ns#"
   xmlns:rdf="http://www.w3.org/1999/02/22-rdf-syntax-ns#"
   xmlns:svg="http://www.w3.org/2000/svg"
   xmlns="http://www.w3.org/2000/svg"
   xmlns:sodipodi="http://sodipodi.sourceforge.net/DTD/sodipodi-0.dtd"
   xmlns:inkscape="http://www.inkscape.org/namespaces/inkscape"
   width="32px"
   height="32px"
   id="svg3505"
   sodipodi:version="0.32"
   inkscape:version="0.47 r22583"
   sodipodi:docname="medicine-00.svg"
   inkscape:output_extension="org.inkscape.output.svg.inkscape"
   version="1.1">
  <defs
     id="defs3507">
    <inkscape:perspective
       sodipodi:type="inkscape:persp3d"
       inkscape:vp_x="0 : 16 : 1"
       inkscape:vp_y="0 : 1000 : 0"
       inkscape:vp_z="32 : 16 : 1"
       inkscape:persp3d-origin="16 : 10.666667 : 1"
       id="perspective3513" />
    <inkscape:perspective
       id="perspective4690"
       inkscape:persp3d-origin="372.04724 : 350.78739 : 1"
       inkscape:vp_z="744.09448 : 526.18109 : 1"
       inkscape:vp_y="0 : 1000 : 0"
       inkscape:vp_x="0 : 526.18109 : 1"
       sodipodi:type="inkscape:persp3d" />
    <inkscape:perspective
       id="perspective2415"
       inkscape:persp3d-origin="372.04724 : 350.78739 : 1"
       inkscape:vp_z="744.09448 : 526.18109 : 1"
       inkscape:vp_y="0 : 1000 : 0"
       inkscape:vp_x="0 : 526.18109 : 1"
       sodipodi:type="inkscape:persp3d" />
    <inkscape:perspective
       id="perspective5551"
       inkscape:persp3d-origin="372.04724 : 350.78739 : 1"
       inkscape:vp_z="744.09448 : 526.18109 : 1"
       inkscape:vp_y="0 : 1000 : 0"
       inkscape:vp_x="0 : 526.18109 : 1"
       sodipodi:type="inkscape:persp3d" />
    <inkscape:perspective
       id="perspective5594"
       inkscape:persp3d-origin="372.04724 : 350.78739 : 1"
       inkscape:vp_z="744.09448 : 526.18109 : 1"
       inkscape:vp_y="0 : 1000 : 0"
       inkscape:vp_x="0 : 526.18109 : 1"
       sodipodi:type="inkscape:persp3d" />
    <inkscape:perspective
       id="perspective3253"
       inkscape:persp3d-origin="372.04724 : 350.78739 : 1"
       inkscape:vp_z="744.09448 : 526.18109 : 1"
       inkscape:vp_y="0 : 1000 : 0"
       inkscape:vp_x="0 : 526.18109 : 1"
       sodipodi:type="inkscape:persp3d" />
    <inkscape:perspective
       id="perspective3722"
       inkscape:persp3d-origin="372.04724 : 350.78739 : 1"
       inkscape:vp_z="744.09448 : 526.18109 : 1"
       inkscape:vp_y="0 : 1000 : 0"
       inkscape:vp_x="0 : 526.18109 : 1"
       sodipodi:type="inkscape:persp3d" />
  </defs>
  <sodipodi:namedview
     id="base"
     pagecolor="#ffffff"
     bordercolor="#666666"
     borderopacity="1.0"
     inkscape:pageopacity="0.0"
     inkscape:pageshadow="2"
     inkscape:zoom="17.34375"
     inkscape:cx="16"
     inkscape:cy="16"
     inkscape:current-layer="layer1"
     showgrid="true"
     inkscape:grid-bbox="true"
     inkscape:document-units="px"
     objecttolerance="4"
     gridtolerance="4"
     guidetolerance="4"
     inkscape:window-width="770"
     inkscape:window-height="796"
     inkscape:window-x="0"
     inkscape:window-y="0"
     inkscape:object-paths="true"
     inkscape:object-nodes="true"
     inkscape:snap-bbox="true"
     inkscape:snap-guide="true"
     showguides="true"
     inkscape:guide-bbox="true"
     inkscape:window-maximized="0">
    <inkscape:grid
       type="xygrid"
       id="grid3515"
       units="px"
       visible="true"
       enabled="true"
       spacingx="1px"
       spacingy="1px" />
  </sodipodi:namedview>
  <metadata
     id="metadata3510">
    <rdf:RDF>
      <cc:Work
         rdf:about="">
        <dc:format>image/svg+xml</dc:format>
        <dc:type
           rdf:resource="http://purl.org/dc/dcmitype/StillImage" />
        <dc:title>Skull 00</dc:title>
        <dc:date>2010-05-06</dc:date>
        <dc:creator>
          <cc:Agent>
            <dc:title>Andreas Neudecker &lt;zapyon@gmx.net&gt;</dc:title>
          </cc:Agent>
        </dc:creator>
        <dc:rights>
          <cc:Agent>
            <dc:title>Copyright (C) 2010 by Andreas Neudecker</dc:title>
          </cc:Agent>
        </dc:rights>
        <dc:publisher>
          <cc:Agent>
            <dc:title>Andreas Neudecker</dc:title>
          </cc:Agent>
        </dc:publisher>
        <dc:identifier>skull-00</dc:identifier>
        <dc:description>Poisonous skull.</dc:description>
      </cc:Work>
    </rdf:RDF>
  </metadata>
  <g
     id="layer1"
     inkscape:label="Layer 1"
     inkscape:groupmode="layer">
    <g
       id="g3882">
      <path
         id="path3851"
         d="M 11,1 L 12,5 L 10,5 C 9.448,5 9,5.448 9,6 L 9,8 C 9,8.552 9.448,9 10,9 L 12,9 L 12,10 L 12,11 C 11.861418,11.334566 11.722786,11.590765 11,12 C 10.277214,12.409235 7.9073835,13.486248 7,14 C 6.0926165,14.513752 5,15 5,17 C 5,18 5,18 5,18 L 5,28 C 5,29.656 6.344,31 8,31 L 23,31 C 23.282734,31 23.554451,30.949845 23.8125,30.875 C 23.907328,30.847879 24.003006,30.817225 24.09375,30.78125 C 24.115907,30.772351 24.134355,30.759413 24.15625,30.75 C 25.232875,30.294375 26,29.242 26,28 L 26,18 C 26,18 26,18 26,17 C 26,15 24.907383,14.513752 24,14 C 23.092617,13.486248 20.722786,12.409235 20,12 C 19.277214,11.590765 19.138582,11.334566 19,11 L 19,10 L 19,9 L 21,9 C 21.552,9 22,8.552 22,8 L 22,6 C 22,5.448 21.552,5 21,5 L 19,5 L 20,1 L 11,1 z"
         style="opacity:1;fill:none;fill-opacity:1;fill-rule:nonzero;stroke:#000000;stroke-width:2;stroke-linecap:round;stroke-linejoin:miter;stroke-miterlimit:4;stroke-dasharray:none;stroke-dashoffset:0;stroke-opacity:1" />
      <path
         id="rect3748"
         d="M 10,5 C 9.448,5 9,5.448 9,6 L 9,8 C 9,8.552 9.448,9 10,9 L 21,9 C 21.552,9 22,8.552 22,8 L 22,6 C 22,5.448 21.552,5 21,5 L 10,5 z"
         style="opacity:1;fill:#008000;fill-opacity:1;fill-rule:nonzero;stroke:none;stroke-width:4;stroke-linecap:round;stroke-linejoin:round;stroke-miterlimit:4;stroke-dasharray:none;stroke-dashoffset:0;stroke-opacity:1" />
      <path
         id="path3763"
         d="M 11,1 L 12,5 L 19,5 L 20,1 L 11,1 z"
         style="opacity:1;fill:#ffaa00;fill-opacity:1;fill-rule:nonzero;stroke:none;stroke-width:4;stroke-linecap:round;stroke-linejoin:round;stroke-miterlimit:4;stroke-dasharray:none;stroke-dashoffset:0;stroke-opacity:1" />
      <path
         sodipodi:nodetypes="ccccc"
         id="path3765"
         d="M 11,1 L 12,5 L 14,5 L 14,1 L 11,1 z"
         style="opacity:1;fill:#aa5500;fill-opacity:1;fill-rule:nonzero;stroke:none;stroke-width:4;stroke-linecap:round;stroke-linejoin:round;stroke-miterlimit:4;stroke-dasharray:none;stroke-dashoffset:0;stroke-opacity:1" />
      <path
         sodipodi:nodetypes="cccsssccccccssscccc"
         id="path3769"
         d="M 12,9 L 12,10 L 12,11 C 11.861418,11.334566 11.722786,11.590765 11,12 C 10.277214,12.409235 7.9073835,13.486248 7,14 C 6.0926165,14.513752 5,15 5,17 C 5,18 5,18 5,18 L 5,28 C 5,29.656 6.344,31 8,31 L 23,31 C 24.656,31 26,29.656 26,28 L 26,18 C 26,18 26,18 26,17 C 26,15 24.907383,14.513752 24,14 C 23.092617,13.486248 20.722786,12.409235 20,12 C 19.277214,11.590765 19.138582,11.334566 19,11 L 19,10 L 19,9 L 12,9 z"
         style="opacity:1;fill:#008000;fill-opacity:1;fill-rule:nonzero;stroke:none;stroke-width:4;stroke-linecap:round;stroke-linejoin:round;stroke-miterlimit:4;stroke-dasharray:none;stroke-dashoffset:0;stroke-opacity:1" />
      <path
         id="path3784"
         d="M 12,9 L 12,10 L 12,11 C 11.861418,11.334566 11.722786,11.590765 11,12 C 10.277214,12.409235 7.9073835,13.486248 7,14 C 6.0926165,14.513752 5,15 5,17 C 5,18 5,18 5,18 L 5,28 C 5,29.656 6.344,31 8,31 L 23,31 C 23.771988,31 24.468171,30.698356 25,30.21875 L 25,30 C 25,30 18,29 16,29 C 14,29 9,30 8,29 C 7,28 7,27 7,27 C 7,27 7,18 7,17 C 7,16 11,14 12,13 C 13,12 13,9 13,9 L 12,9 z"
         style="opacity:1;fill:#005500;fill-opacity:1;fill-rule:nonzero;stroke:none;stroke-width:4;stroke-linecap:round;stroke-linejoin:round;stroke-miterlimit:4;stroke-dasharray:none;stroke-dashoffset:0;stroke-opacity:1" />
      <path
         id="path3789"
         d="M 10,5 C 9.448,5 9,5.448 9,6 L 9,8 C 9,8.552 9.448,9 10,9 L 21,9 C 21.552,9 22,8.552 22,8 C 22,8 12,8 11,8 C 10,8 10,5 10,5 z"
         style="opacity:1;fill:#005500;fill-opacity:1;fill-rule:nonzero;stroke:none;stroke-width:4;stroke-linecap:round;stroke-linejoin:round;stroke-miterlimit:4;stroke-dasharray:none;stroke-dashoffset:0;stroke-opacity:1" />
      <path
         d="M 16,3.5 A 0.5,0.5 0 1 1 15,3.5 A 0.5,0.5 0 1 1 16,3.5 z"
         sodipodi:ry="0.5"
         sodipodi:rx="0.5"
         sodipodi:cy="3.5"
         sodipodi:cx="15.5"
         id="path3794"
         style="opacity:1;fill:#aa5500;fill-opacity:1;fill-rule:nonzero;stroke:none;stroke-width:4;stroke-linecap:round;stroke-linejoin:round;stroke-miterlimit:4;stroke-dasharray:none;stroke-dashoffset:0;stroke-opacity:1"
         sodipodi:type="arc" />
      <path
         d="M 18,2.5 A 0.5,0.5 0 1 1 17,2.5 A 0.5,0.5 0 1 1 18,2.5 z"
         sodipodi:ry="0.5"
         sodipodi:rx="0.5"
         sodipodi:cy="2.5"
         sodipodi:cx="17.5"
         id="path3796"
         style="opacity:1;fill:#aa5500;fill-opacity:1;fill-rule:nonzero;stroke:none;stroke-width:4;stroke-linecap:round;stroke-linejoin:round;stroke-miterlimit:4;stroke-dasharray:none;stroke-dashoffset:0;stroke-opacity:1"
         sodipodi:type="arc" />
      <path
         d="M 19,4.5 A 0.5,0.5 0 1 1 18,4.5 A 0.5,0.5 0 1 1 19,4.5 z"
         sodipodi:ry="0.5"
         sodipodi:rx="0.5"
         sodipodi:cy="4.5"
         sodipodi:cx="18.5"
         id="path3798"
         style="opacity:1;fill:#aa5500;fill-opacity:1;fill-rule:nonzero;stroke:none;stroke-width:4;stroke-linecap:round;stroke-linejoin:round;stroke-miterlimit:4;stroke-dasharray:none;stroke-dashoffset:0;stroke-opacity:1"
         sodipodi:type="arc" />
      <rect
         y="14"
         x="10"
         height="14"
         width="11"
         id="rect3800"
         style="opacity:1;fill:#ffffff;fill-opacity:1;fill-rule:nonzero;stroke:none;stroke-width:4;stroke-linecap:round;stroke-linejoin:round;stroke-miterlimit:4;stroke-dasharray:none;stroke-dashoffset:0;stroke-opacity:1" />
      <path
         sodipodi:nodetypes="ccccccccccccc"
         id="rect3802"
         d="M 14,15 L 14,16 L 13,16 L 13,17 L 14,17 L 14,27 L 15,27 L 15,17 L 16,17 L 16,16 L 15,16 L 15,15 L 14,15 z"
         style="opacity:1;fill:#000000;fill-opacity:1;fill-rule:nonzero;stroke:none;stroke-width:4;stroke-linecap:round;stroke-linejoin:round;stroke-miterlimit:4;stroke-dasharray:none;stroke-dashoffset:0;stroke-opacity:1" />
      <path
         id="path3815"
         d="M 18,16.5 C 17.488055,16.5 16.984073,16.703427 16.59375,17.09375 C 16.332722,17.354778 16.148966,17.666561 16.0625,18 L 15,18 L 14,18 C 12.896,18 12,18.896001 12,20 C 12,21.104 12.896,22 14,22 L 14,21 C 13.448,21.000001 13,20.552 13,20 C 13,19.448001 13.448,19 14,19 L 15,19 L 16.0625,19 C 16.148966,19.333439 16.332721,19.645221 16.59375,19.90625 C 17.374396,20.686896 18.625605,20.686895 19.40625,19.90625 L 18,18.5 L 19.40625,17.09375 C 19.015927,16.703427 18.511945,16.5 18,16.5 z M 15,21 L 15,22 C 15.552,22 16,22.448 16,23 C 15.999999,23.552 15.552,24 15,24 L 14,24 C 12.896,24 12,24.896001 12,26 C 12,26.739223 12.403107,27.37258 13,27.71875 L 13,26 C 13,25.448001 13.448,25 14,25 L 15,25 C 16.104,25 17,24.104 17,23 C 17,21.896 16.104,21 15,21 z"
         style="opacity:1;fill:#ff0000;fill-opacity:1;fill-rule:nonzero;stroke:none;stroke-width:1;stroke-linecap:round;stroke-linejoin:round;stroke-miterlimit:4;stroke-dasharray:none;stroke-dashoffset:0;stroke-opacity:1" />
      <path
         transform="translate(0,-2)"
         d="M 19,18.5 A 0.5,0.5 0 1 1 18,18.5 A 0.5,0.5 0 1 1 19,18.5 z"
         sodipodi:ry="0.5"
         sodipodi:rx="0.5"
         sodipodi:cy="18.5"
         sodipodi:cx="18.5"
         id="path3831"
         style="opacity:1;fill:#000000;fill-opacity:1;fill-rule:nonzero;stroke:none;stroke-width:1;stroke-linecap:round;stroke-linejoin:round;stroke-miterlimit:4;stroke-dasharray:none;stroke-dashoffset:0;stroke-opacity:1"
         sodipodi:type="arc" />
      <path
         id="path3841"
         d="M 19,17.532609 L 19.417392,17.115217 L 19.415218,18 L 19,17.532609 z"
         style="opacity:1;fill:#000000;fill-opacity:1;fill-rule:nonzero;stroke:none;stroke-width:1;stroke-linecap:round;stroke-linejoin:round;stroke-miterlimit:4;stroke-dasharray:none;stroke-dashoffset:0;stroke-opacity:1" />
      <path
         style="opacity:1;fill:#000000;fill-opacity:1;fill-rule:nonzero;stroke:none;stroke-width:1;stroke-linecap:round;stroke-linejoin:round;stroke-miterlimit:4;stroke-dasharray:none;stroke-dashoffset:0;stroke-opacity:1"
         d="M 19,19.467391 L 19.417392,19.884783 L 19.415218,19 L 19,19.467391 z"
         id="path3843" />
    </g>
  </g>
</svg>
