<?xml version="1.0" encoding="UTF-8" standalone="no"?>
<!-- Created with Inkscape (http://www.inkscape.org/) -->

<svg
   xmlns:dc="http://purl.org/dc/elements/1.1/"
   xmlns:cc="http://creativecommons.org/ns#"
   xmlns:rdf="http://www.w3.org/1999/02/22-rdf-syntax-ns#"
   xmlns:svg="http://www.w3.org/2000/svg"
   xmlns="http://www.w3.org/2000/svg"
   xmlns:sodipodi="http://sodipodi.sourceforge.net/DTD/sodipodi-0.dtd"
   xmlns:inkscape="http://www.inkscape.org/namespaces/inkscape"
   width="32px"
   height="32px"
   id="svg3505"
   sodipodi:version="0.32"
   inkscape:version="0.48.5 r10040"
   sodipodi:docname="00.svg"
   inkscape:output_extension="org.inkscape.output.svg.inkscape"
   version="1.1">
  <defs
     id="defs3507" />
  <sodipodi:namedview
     id="base"
     pagecolor="#ffffff"
     bordercolor="#666666"
     borderopacity="1.0"
     inkscape:pageopacity="0.0"
     inkscape:pageshadow="2"
     inkscape:zoom="16.5"
     inkscape:cx="16"
     inkscape:cy="16"
     inkscape:current-layer="layer1"
     showgrid="true"
     inkscape:grid-bbox="true"
     inkscape:document-units="px"
     objecttolerance="4"
     gridtolerance="4"
     guidetolerance="4"
     inkscape:window-width="1024"
     inkscape:window-height="741"
     inkscape:window-x="0"
     inkscape:window-y="2"
     inkscape:object-paths="true"
     inkscape:object-nodes="true"
     inkscape:snap-bbox="true"
     inkscape:snap-guide="true"
     showguides="true"
     inkscape:guide-bbox="true"
     inkscape:window-maximized="1">
    <inkscape:grid
       type="xygrid"
       id="grid3515"
       units="px"
       visible="true"
       enabled="true"
       spacingx="1px"
       spacingy="1px" />
  </sodipodi:namedview>
  <metadata
     id="metadata3510">
    <rdf:RDF>
      <cc:Work
         rdf:about="">
        <dc:format>image/svg+xml</dc:format>
        <dc:type
           rdf:resource="http://purl.org/dc/dcmitype/StillImage" />
        <dc:title>Skull 00</dc:title>
        <dc:date>2010-05-06</dc:date>
        <dc:creator>
          <cc:Agent>
            <dc:title>Andreas Neudecker &lt;zapyon@gmx.net&gt;</dc:title>
          </cc:Agent>
        </dc:creator>
        <dc:rights>
          <cc:Agent>
            <dc:title>Copyright (C) 2010 by Andreas Neudecker</dc:title>
          </cc:Agent>
        </dc:rights>
        <dc:publisher>
          <cc:Agent>
            <dc:title>Andreas Neudecker</dc:title>
          </cc:Agent>
        </dc:publisher>
        <dc:identifier>skull-00</dc:identifier>
        <dc:description>Poisonous skull.</dc:description>
      </cc:Work>
    </rdf:RDF>
  </metadata>
  <g
     id="layer1"
     inkscape:label="Layer 1"
     inkscape:groupmode="layer">
    <rect
       style="fill:none;stroke:none"
       id="rect21362"
       width="32"
       height="32"
       x="0"
       y="0" />
    <path
       style="font-size:medium;font-style:normal;font-variant:normal;font-weight:normal;font-stretch:normal;text-indent:0;text-align:start;text-decoration:none;line-height:normal;letter-spacing:normal;word-spacing:normal;text-transform:none;direction:ltr;block-progression:tb;writing-mode:lr-tb;text-anchor:start;baseline-shift:baseline;color:black;fill:black;fill-opacity:1;fill-rule:nonzero;stroke:none;stroke-width:2;marker:none;visibility:visible;display:inline;overflow:visible;enable-background:accumulate;font-family:Sans;-inkscape-font-specification:Sans"
       d="M 7.8125,2 A 1.0001,1.0001 0 0 0 7.09375,2.5625 L 6.375,4 5,4 A 1.0001,1.0001 0 0 0 4.28125,4.28125 l -2,2 A 1.0001,1.0001 0 0 0 2,7 l 0,6.75 -0.90625,1.8125 A 1.0001,1.0001 0 0 0 1,16 l 0,3 a 1.0001,1.0001 0 0 0 0.09375,0.4375 L 2,21.25 2,22.75 1.09375,24.5625 A 1.0001,1.0001 0 0 0 1,25 l 0,1 a 1.0001,1.0001 0 0 0 0.28125,0.71875 L 2,27.4375 2,28 a 1.0001,1.0001 0 0 0 1,1 l 2,0 1,0 a 1.0001,1.0001 0 0 0 0.4375,-0.125 l 0.03125,0 0.8125,0.84375 A 1.0001,1.0001 0 0 0 8,30 l 2,0 1,0 a 1.0001,1.0001 0 0 0 0.71875,-0.28125 L 12,29.4375 12.28125,29.71875 A 1.0001,1.0001 0 0 0 13,30 l 2,0 1.5625,0 0.71875,0.71875 A 1.0001,1.0001 0 0 0 18,31 l 3,0 a 1.0001,1.0001 0 0 0 0.46875,-0.125 1.0001,1.0001 0 0 0 0.03125,0 A 1.0001,1.0001 0 0 0 22,31 l 2,0 a 1.0001,1.0001 0 0 0 0.71875,-0.28125 L 25.4375,30 28,30 a 1.0001,1.0001 0 0 0 1,-1 l 0,-0.21875 C 29.550911,28.557544 30,28.123071 30,27.5 30,27.43292 29.94639,27.40725 29.9375,27.34375 A 1.0001,1.0001 0 0 0 30,26.9375 l 0,-1 a 1.0001,1.0001 0 0 0 -0.28125,-0.71875 l -0.5,-0.5 0.6875,-1.34375 A 1.0001,1.0001 0 0 0 30,22.9375 L 30,22 l 0,-1 0,-0.0625 a 1.0001,1.0001 0 0 0 -0.28125,-0.71875 l -0.5,-0.5 0.6875,-1.34375 A 1.0001,1.0001 0 0 0 30,17.9375 l 0,-1 a 1.0001,1.0001 0 0 0 -0.28125,-0.71875 l -1,-1 a 1.0001,1.0001 0 0 0 -0.25,-0.15625 L 27,14.25 26.8125,14 27,14 a 1.0001,1.0001 0 0 0 0.71875,-0.28125 l 2,-2 A 1.0001,1.0001 0 0 0 30,11 L 30,9 A 1.0001,1.0001 0 0 0 29.71875,8.3125 l 0,-0.03125 L 29.6875,8.25 28.1875,6.5 A 1.0001,1.0001 0 0 0 28,6.25 l -2.34375,-2 A 1.0001,1.0001 0 0 0 25,4 L 23.4375,4 23.375,4 23.21875,4 21.4375,3.09375 A 1.0001,1.0001 0 0 0 21.3125,3.0625 l -3,-1 A 1.0001,1.0001 0 0 0 18,2 l -4,0 a 1.0001,1.0001 0 0 0 -0.4375,0.09375 l -1.34375,0.6875 -0.5,-0.5 A 1.0001,1.0001 0 0 0 11,2 L 8,2 A 1.0001,1.0001 0 0 0 7.90625,2 1.0001,1.0001 0 0 0 7.8125,2 z M 8,3 l 3,0 1,1 2,-1 4,0 3,1 2,1 2,0 2.34375,2 L 28,8 l 1,1 0,2 -2,2 -2,0 1.28125,2 1.71875,0.9375 1,1 0,1 -1,2 1,1 0,2 -1,2 1,1 0,1 -2,2 -1,0 0,-0.9375 -2,2 -2,0 -1,-1 0,1 -3,0 -2,-2 -1,1 -2,0 -1,-1 -1,1 L 9,29 7,27 6,28 4,28 2,26 2,25 3,23 3,21 2,19 2,16 3,14 3,7 5,5 7,5 8,3 z"
       id="path3391"
       inkscape:connector-curvature="0" />
    <path
       inkscape:connector-curvature="0"
       style="fill:#b3b3b3;fill-opacity:1;fill-rule:nonzero;stroke:none"
       d="m 3,7 2,-2 2,0 1,-2 3,0 1,1 2,-1 4,0 3,1 2,1 2,0 2.33913,2 L 28,8 l 1,1 0,2 -2,2 -2,0 1.295652,2 1.709254,0.930546 1,1 0,1 -1,2 1,1 0,2 -1,2 1,1 0,1 -2,2 -1,0 L 26,28 l -2,2 -2,0 -1,-1 0,1 -3,0 -2,-2 -1,1 -2,0 -1,-1 -1,1 L 9,29 7,27 6,28 4,28 2,26 2,25 3,23 3,21 2,19 2,16 3,14 3,7 z"
       id="path3259"
       sodipodi:nodetypes="cccccccccccccccccccccccccccccccccccccccccccccccccccc" />
    <path
       inkscape:connector-curvature="0"
       style="fill:#666;fill-opacity:1;fill-rule:nonzero;stroke:none"
       d="m 23,15 1,0 1,1 2,0 1,1 0.01565,2.968696 L 29,21 l 0,1 -2,2 1,1 -1,1 -1,-1 0,1 1,0 0,1 -1,1 2,0 0,1 -4,0 -1,1 -6,-1 -4,0 -1,-1 -2,1 L 8,29 7.1347826,28.134783 6,27 l -1,1 -2,0 0,-4 1,-2 1,0 3,4 1,-1 -4,-3 1,-4 1,3 0,1 1,-1 -1,-1 1,-1 2,2 2,-2 2,1 0,-1 2,1 0,1 -3,1 1,2 2,2 0,-3 2,-1 2,-1 0,2 -1,1 1,1 -1,1 -2,-1 1,1 0,1 3,-2 -1,-1 3,-5 2,2 1,1 1,-1 -2,-1 -1,-3 -1,-2 z"
       id="path3261"
       sodipodi:nodetypes="ccccccccccccccccccccccccccccccccccccccccccccccccccccccccccccccccccccc" />
    <path
       sodipodi:type="arc"
       style="fill:#333;fill-opacity:1;fill-rule:nonzero;stroke:none"
       id="path3263"
       sodipodi:cx="10.5"
       sodipodi:cy="13.5"
       sodipodi:rx="0.5"
       sodipodi:ry="0.5"
       d="m 11,13.5 a 0.5,0.5 0 1 1 -1,0 0.5,0.5 0 1 1 1,0 z" />
    <path
       sodipodi:type="arc"
       style="fill:gray;fill-opacity:1;fill-rule:nonzero;stroke:none"
       id="path3265"
       sodipodi:cx="14.5"
       sodipodi:cy="11.5"
       sodipodi:rx="0.5"
       sodipodi:ry="0.5"
       d="m 15,11.5 a 0.5,0.5 0 1 1 -1,0 0.5,0.5 0 1 1 1,0 z" />
    <path
       inkscape:connector-curvature="0"
       style="fill:#666;fill-opacity:1;fill-rule:nonzero;stroke:none"
       d="m 17,3 -2,1 -1,1 -3,0 1,2 -3,2 -1,2 2,-1 1,-1 2,1 -4,4 5,-3 -1,-2 1,-1 2,3 2,-2 -1,-1 1,-2 -2,-2 1,-1 z"
       id="path3287" />
    <path
       sodipodi:type="arc"
       style="fill:#e6e6e6;fill-opacity:1;fill-rule:nonzero;stroke:none"
       id="path3267"
       sodipodi:cx="13.5"
       sodipodi:cy="8.5"
       sodipodi:rx="0.5"
       sodipodi:ry="0.5"
       d="m 14,8.5 a 0.5,0.5 0 1 1 -1,0 0.5,0.5 0 1 1 1,0 z"
       transform="translate(-2,1)" />
    <path
       sodipodi:type="arc"
       style="fill:#e6e6e6;fill-opacity:1;fill-rule:nonzero;stroke:none"
       id="path3269"
       sodipodi:cx="8.5"
       sodipodi:cy="4.5"
       sodipodi:rx="0.5"
       sodipodi:ry="0.5"
       d="m 9,4.5 a 0.5,0.5 0 1 1 -1,0 0.5,0.5 0 1 1 1,0 z" />
    <path
       sodipodi:type="arc"
       style="fill:gray;fill-opacity:1;fill-rule:nonzero;stroke:none"
       id="path3271"
       sodipodi:cx="3.5"
       sodipodi:cy="16.5"
       sodipodi:rx="0.5"
       sodipodi:ry="0.5"
       d="m 4,16.5 a 0.5,0.5 0 1 1 -1,0 0.5,0.5 0 1 1 1,0 z" />
    <path
       sodipodi:type="arc"
       style="fill:#333;fill-opacity:1;fill-rule:nonzero;stroke:none"
       id="path3273"
       sodipodi:cx="16.5"
       sodipodi:cy="17.5"
       sodipodi:rx="0.5"
       sodipodi:ry="0.5"
       d="m 17,17.5 a 0.5,0.5 0 1 1 -1,0 0.5,0.5 0 1 1 1,0 z" />
    <path
       sodipodi:type="arc"
       style="fill:gray;fill-opacity:1;fill-rule:nonzero;stroke:none"
       id="path3275"
       sodipodi:cx="6.5"
       sodipodi:cy="26.5"
       sodipodi:rx="0.5"
       sodipodi:ry="0.5"
       d="m 7,26.5 a 0.5,0.5 0 1 1 -1,0 0.5,0.5 0 1 1 1,0 z" />
    <path
       sodipodi:type="arc"
       style="fill:#333;fill-opacity:1;fill-rule:nonzero;stroke:none"
       id="path3277"
       sodipodi:cx="28.5"
       sodipodi:cy="27.5"
       sodipodi:rx="0.5"
       sodipodi:ry="0.5"
       d="m 29,27.5 a 0.5,0.5 0 1 1 -1,0 0.5,0.5 0 1 1 1,0 z" />
    <path
       inkscape:connector-curvature="0"
       style="fill:#4d4d4d;fill-opacity:1;fill-rule:nonzero;stroke:none"
       d="m 22,24 2,1 0,2 -1,-1 -1,0 0,-2 z"
       id="path3279" />
    <path
       inkscape:connector-curvature="0"
       style="fill:#4d4d4d;fill-opacity:1;fill-rule:nonzero;stroke:none"
       d="m 24,22 -1,1 1,1 1,0 0,-1 -1,-1 z"
       id="path3281" />
    <path
       inkscape:connector-curvature="0"
       style="fill:#4d4d4d;fill-opacity:1;fill-rule:nonzero;stroke:none"
       d="m 28,16 -1,2 2,-1 -1,-1 z"
       id="path3283" />
    <path
       inkscape:connector-curvature="0"
       style="fill:#f2f2f2;fill-opacity:1;fill-rule:nonzero;stroke:none"
       d="m 22.94087,4.9704348 2.203275,0.1528119 2.30298,2.0401658 1.509397,1.7931092 L 29,11 27,8.626087 26.365217,10.713043 21.565217,12 26,10 24,9 24,7 26,9 27,8 25,7 25.321739,6 22.94087,4.9704348 z"
       id="path3289"
       sodipodi:nodetypes="cccccccccccccccc" />
    <path
       inkscape:connector-curvature="0"
       style="fill:gray;fill-opacity:1;fill-rule:nonzero;stroke:none"
       d="M 3,7 6.4,10.365217 7,9 l 1,1 -2,1 1,1 -1,1 -1,-2 0,-1 -1,1 0,2 1,1 -1,1 -2,1 1,-2 0,-7 z"
       id="path3291" />
    <path
       inkscape:connector-curvature="0"
       style="fill:#e6e6e6;fill-opacity:1;fill-rule:nonzero;stroke:none"
       d="m 13,12 -1,2 1,0 -1,1 -1,0 -1,-1 2,4 0,-2 1,0 1,1 0,-3 3,0 -3,-1 1,-1 -2,0 z"
       id="path3293" />
    <path
       inkscape:connector-curvature="0"
       style="fill:#e6e6e6;fill-opacity:1;fill-rule:nonzero;stroke:none"
       d="M 26,22 26.921739,21.078261 25,20 24,17 21,19 22,19 21.114066,22.143223 23,19 l 3,3 z"
       id="path3295" />
    <path
       inkscape:connector-curvature="0"
       style="fill:#e6e6e6;fill-opacity:1;fill-rule:nonzero;stroke:none"
       d="m 13,22 6,-2 -2,2 -2,0 1,4 -3,-4 z"
       id="path3297" />
    <path
       inkscape:connector-curvature="0"
       style="fill:#e6e6e6;fill-opacity:1;fill-rule:nonzero;stroke:none"
       d="M 11,5 8.88,9.24 11.947826,6.8956522 11,5 z"
       id="path3299" />
    <path
       inkscape:connector-curvature="0"
       style="fill:#e6e6e6;fill-opacity:1;fill-rule:nonzero;stroke:none"
       d="M 18,6 17,8 17.926087,8.926087 21,8 18,7 20,6 19,5 18,6 z"
       id="path3301" />
    <path
       d="m 14,8.5 a 0.5,0.5 0 1 1 -1,0 0.5,0.5 0 1 1 1,0 z"
       sodipodi:ry="0.5"
       sodipodi:rx="0.5"
       sodipodi:cy="8.5"
       sodipodi:cx="13.5"
       id="path3303"
       style="fill:#e6e6e6;fill-opacity:1;fill-rule:nonzero;stroke:none"
       sodipodi:type="arc"
       transform="translate(-1,-3.5)" />
    <path
       sodipodi:type="arc"
       style="fill:#e6e6e6;fill-opacity:1;fill-rule:nonzero;stroke:none"
       id="path3305"
       sodipodi:cx="13.5"
       sodipodi:cy="8.5"
       sodipodi:rx="0.5"
       sodipodi:ry="0.5"
       d="m 14,8.5 a 0.5,0.5 0 1 1 -1,0 0.5,0.5 0 1 1 1,0 z"
       transform="translate(6,4)" />
    <path
       d="m 14,8.5 a 0.5,0.5 0 1 1 -1,0 0.5,0.5 0 1 1 1,0 z"
       sodipodi:ry="0.5"
       sodipodi:rx="0.5"
       sodipodi:cy="8.5"
       sodipodi:cx="13.5"
       id="path3307"
       style="fill:#e6e6e6;fill-opacity:1;fill-rule:nonzero;stroke:none"
       sodipodi:type="arc"
       transform="translate(2,-2)" />
    <path
       transform="translate(8,6)"
       d="m 14,8.5 a 0.5,0.5 0 1 1 -1,0 0.5,0.5 0 1 1 1,0 z"
       sodipodi:ry="0.5"
       sodipodi:rx="0.5"
       sodipodi:cy="8.5"
       sodipodi:cx="13.5"
       id="path3309"
       style="fill:#e6e6e6;fill-opacity:1;fill-rule:nonzero;stroke:none"
       sodipodi:type="arc" />
    <path
       sodipodi:type="arc"
       style="fill:#e6e6e6;fill-opacity:1;fill-rule:nonzero;stroke:none"
       id="path3311"
       sodipodi:cx="13.5"
       sodipodi:cy="8.5"
       sodipodi:rx="0.5"
       sodipodi:ry="0.5"
       d="m 14,8.5 a 0.5,0.5 0 1 1 -1,0 0.5,0.5 0 1 1 1,0 z"
       transform="translate(5,15)" />
    <path
       transform="translate(-2.5,17)"
       d="m 14,8.5 a 0.5,0.5 0 1 1 -1,0 0.5,0.5 0 1 1 1,0 z"
       sodipodi:ry="0.5"
       sodipodi:rx="0.5"
       sodipodi:cy="8.5"
       sodipodi:cx="13.5"
       id="path3313"
       style="fill:#e6e6e6;fill-opacity:1;fill-rule:nonzero;stroke:none"
       sodipodi:type="arc" />
    <path
       d="m 17,17.5 a 0.5,0.5 0 1 1 -1,0 0.5,0.5 0 1 1 1,0 z"
       sodipodi:ry="0.5"
       sodipodi:rx="0.5"
       sodipodi:cy="17.5"
       sodipodi:cx="16.5"
       id="path3315"
       style="fill:#333;fill-opacity:1;fill-rule:nonzero;stroke:none"
       sodipodi:type="arc"
       transform="translate(2,12)" />
    <path
       transform="translate(2,10)"
       sodipodi:type="arc"
       style="fill:#333;fill-opacity:1;fill-rule:nonzero;stroke:none"
       id="path3317"
       sodipodi:cx="16.5"
       sodipodi:cy="17.5"
       sodipodi:rx="0.5"
       sodipodi:ry="0.5"
       d="m 17,17.5 a 0.5,0.5 0 1 1 -1,0 0.5,0.5 0 1 1 1,0 z" />
    <path
       d="m 17,17.5 a 0.5,0.5 0 1 1 -1,0 0.5,0.5 0 1 1 1,0 z"
       sodipodi:ry="0.5"
       sodipodi:rx="0.5"
       sodipodi:cy="17.5"
       sodipodi:cx="16.5"
       id="path3319"
       style="fill:#333;fill-opacity:1;fill-rule:nonzero;stroke:none"
       sodipodi:type="arc"
       transform="translate(5,6)" />
    <path
       transform="translate(10,-7)"
       sodipodi:type="arc"
       style="fill:#333;fill-opacity:1;fill-rule:nonzero;stroke:none"
       id="path3321"
       sodipodi:cx="16.5"
       sodipodi:cy="17.5"
       sodipodi:rx="0.5"
       sodipodi:ry="0.5"
       d="m 17,17.5 a 0.5,0.5 0 1 1 -1,0 0.5,0.5 0 1 1 1,0 z" />
    <path
       transform="translate(4,11.095652)"
       sodipodi:type="arc"
       style="fill:#333;fill-opacity:1;fill-rule:nonzero;stroke:none"
       id="path3323"
       sodipodi:cx="16.5"
       sodipodi:cy="17.5"
       sodipodi:rx="0.5"
       sodipodi:ry="0.5"
       d="m 17,17.5 a 0.5,0.5 0 1 1 -1,0 0.5,0.5 0 1 1 1,0 z" />
    <path
       d="m 17,17.5 a 0.5,0.5 0 1 1 -1,0 0.5,0.5 0 1 1 1,0 z"
       sodipodi:ry="0.5"
       sodipodi:rx="0.5"
       sodipodi:cy="17.5"
       sodipodi:cx="16.5"
       id="path3325"
       style="fill:#333;fill-opacity:1;fill-rule:nonzero;stroke:none"
       sodipodi:type="arc"
       transform="translate(-2,10.121739)" />
    <path
       transform="translate(-7,10)"
       sodipodi:type="arc"
       style="fill:#333;fill-opacity:1;fill-rule:nonzero;stroke:none"
       id="path3327"
       sodipodi:cx="16.5"
       sodipodi:cy="17.5"
       sodipodi:rx="0.5"
       sodipodi:ry="0.5"
       d="m 17,17.5 a 0.5,0.5 0 1 1 -1,0 0.5,0.5 0 1 1 1,0 z" />
    <path
       d="m 17,17.5 a 0.5,0.5 0 1 1 -1,0 0.5,0.5 0 1 1 1,0 z"
       sodipodi:ry="0.5"
       sodipodi:rx="0.5"
       sodipodi:cy="17.5"
       sodipodi:cx="16.5"
       id="path3329"
       style="fill:#333;fill-opacity:1;fill-rule:nonzero;stroke:none"
       sodipodi:type="arc"
       transform="translate(-12,7.1478261)" />
    <path
       transform="translate(-12,4)"
       sodipodi:type="arc"
       style="fill:#333;fill-opacity:1;fill-rule:nonzero;stroke:none"
       id="path3331"
       sodipodi:cx="16.5"
       sodipodi:cy="17.5"
       sodipodi:rx="0.5"
       sodipodi:ry="0.5"
       d="m 17,17.5 a 0.5,0.5 0 1 1 -1,0 0.5,0.5 0 1 1 1,0 z" />
    <path
       d="m 17,17.5 a 0.5,0.5 0 1 1 -1,0 0.5,0.5 0 1 1 1,0 z"
       sodipodi:ry="0.5"
       sodipodi:rx="0.5"
       sodipodi:cy="17.5"
       sodipodi:cx="16.5"
       id="path3333"
       style="fill:#333;fill-opacity:1;fill-rule:nonzero;stroke:none"
       sodipodi:type="arc"
       transform="translate(-9.0782609,1)" />
    <path
       transform="translate(-8,0)"
       sodipodi:type="arc"
       style="fill:#333;fill-opacity:1;fill-rule:nonzero;stroke:none"
       id="path3335"
       sodipodi:cx="16.5"
       sodipodi:cy="17.5"
       sodipodi:rx="0.5"
       sodipodi:ry="0.5"
       d="m 17,17.5 a 0.5,0.5 0 1 1 -1,0 0.5,0.5 0 1 1 1,0 z" />
    <path
       d="m 17,17.5 a 0.5,0.5 0 1 1 -1,0 0.5,0.5 0 1 1 1,0 z"
       sodipodi:ry="0.5"
       sodipodi:rx="0.5"
       sodipodi:cy="17.5"
       sodipodi:cx="16.5"
       id="path3337"
       style="fill:#333;fill-opacity:1;fill-rule:nonzero;stroke:none"
       sodipodi:type="arc"
       transform="translate(-9,-1)" />
    <path
       transform="translate(-6,-1)"
       sodipodi:type="arc"
       style="fill:#333;fill-opacity:1;fill-rule:nonzero;stroke:none"
       id="path3339"
       sodipodi:cx="16.5"
       sodipodi:cy="17.5"
       sodipodi:rx="0.5"
       sodipodi:ry="0.5"
       d="m 17,17.5 a 0.5,0.5 0 1 1 -1,0 0.5,0.5 0 1 1 1,0 z" />
    <path
       d="m 17,17.5 a 0.5,0.5 0 1 1 -1,0 0.5,0.5 0 1 1 1,0 z"
       sodipodi:ry="0.5"
       sodipodi:rx="0.5"
       sodipodi:cy="17.5"
       sodipodi:cx="16.5"
       id="path3341"
       style="fill:#333;fill-opacity:1;fill-rule:nonzero;stroke:none"
       sodipodi:type="arc"
       transform="translate(-4,0)" />
    <path
       d="m 15,11.5 a 0.5,0.5 0 1 1 -1,0 0.5,0.5 0 1 1 1,0 z"
       sodipodi:ry="0.5"
       sodipodi:rx="0.5"
       sodipodi:cy="11.5"
       sodipodi:cx="14.5"
       id="path3343"
       style="fill:gray;fill-opacity:1;fill-rule:nonzero;stroke:none"
       sodipodi:type="arc"
       transform="translate(5,-2)" />
    <path
       transform="translate(6,-1)"
       sodipodi:type="arc"
       style="fill:gray;fill-opacity:1;fill-rule:nonzero;stroke:none"
       id="path3345"
       sodipodi:cx="14.5"
       sodipodi:cy="11.5"
       sodipodi:rx="0.5"
       sodipodi:ry="0.5"
       d="m 15,11.5 a 0.5,0.5 0 1 1 -1,0 0.5,0.5 0 1 1 1,0 z" />
    <path
       d="m 15,11.5 a 0.5,0.5 0 1 1 -1,0 0.5,0.5 0 1 1 1,0 z"
       sodipodi:ry="0.5"
       sodipodi:rx="0.5"
       sodipodi:cy="11.5"
       sodipodi:cx="14.5"
       id="path3347"
       style="fill:gray;fill-opacity:1;fill-rule:nonzero;stroke:none"
       sodipodi:type="arc"
       transform="translate(6.9043478,-2)" />
    <path
       transform="translate(6,2)"
       sodipodi:type="arc"
       style="fill:gray;fill-opacity:1;fill-rule:nonzero;stroke:none"
       id="path3349"
       sodipodi:cx="14.5"
       sodipodi:cy="11.5"
       sodipodi:rx="0.5"
       sodipodi:ry="0.5"
       d="m 15,11.5 a 0.5,0.5 0 1 1 -1,0 0.5,0.5 0 1 1 1,0 z" />
    <path
       d="m 15,11.5 a 0.5,0.5 0 1 1 -1,0 0.5,0.5 0 1 1 1,0 z"
       sodipodi:ry="0.5"
       sodipodi:rx="0.5"
       sodipodi:cy="11.5"
       sodipodi:cx="14.5"
       id="path3351"
       style="fill:gray;fill-opacity:1;fill-rule:nonzero;stroke:none"
       sodipodi:type="arc"
       transform="translate(4,2)" />
    <path
       transform="translate(5,3)"
       sodipodi:type="arc"
       style="fill:gray;fill-opacity:1;fill-rule:nonzero;stroke:none"
       id="path3353"
       sodipodi:cx="14.5"
       sodipodi:cy="11.5"
       sodipodi:rx="0.5"
       sodipodi:ry="0.5"
       d="m 15,11.5 a 0.5,0.5 0 1 1 -1,0 0.5,0.5 0 1 1 1,0 z" />
    <path
       d="m 15,11.5 a 0.5,0.5 0 1 1 -1,0 0.5,0.5 0 1 1 1,0 z"
       sodipodi:ry="0.5"
       sodipodi:rx="0.5"
       sodipodi:cy="11.5"
       sodipodi:cx="14.5"
       id="path3355"
       style="fill:gray;fill-opacity:1;fill-rule:nonzero;stroke:none"
       sodipodi:type="arc"
       transform="translate(4,4)" />
    <path
       transform="translate(3,5)"
       sodipodi:type="arc"
       style="fill:gray;fill-opacity:1;fill-rule:nonzero;stroke:none"
       id="path3357"
       sodipodi:cx="14.5"
       sodipodi:cy="11.5"
       sodipodi:rx="0.5"
       sodipodi:ry="0.5"
       d="m 15,11.5 a 0.5,0.5 0 1 1 -1,0 0.5,0.5 0 1 1 1,0 z" />
    <path
       d="m 15,11.5 a 0.5,0.5 0 1 1 -1,0 0.5,0.5 0 1 1 1,0 z"
       sodipodi:ry="0.5"
       sodipodi:rx="0.5"
       sodipodi:cy="11.5"
       sodipodi:cx="14.5"
       id="path3359"
       style="fill:gray;fill-opacity:1;fill-rule:nonzero;stroke:none"
       sodipodi:type="arc"
       transform="translate(1,7)" />
    <path
       transform="translate(0,6.0956522)"
       sodipodi:type="arc"
       style="fill:gray;fill-opacity:1;fill-rule:nonzero;stroke:none"
       id="path3361"
       sodipodi:cx="14.5"
       sodipodi:cy="11.5"
       sodipodi:rx="0.5"
       sodipodi:ry="0.5"
       d="m 15,11.5 a 0.5,0.5 0 1 1 -1,0 0.5,0.5 0 1 1 1,0 z" />
    <path
       transform="translate(-1.1652174,11)"
       sodipodi:type="arc"
       style="fill:#333;fill-opacity:1;fill-rule:nonzero;stroke:none"
       id="path3363"
       sodipodi:cx="16.5"
       sodipodi:cy="17.5"
       sodipodi:rx="0.5"
       sodipodi:ry="0.5"
       d="m 17,17.5 a 0.5,0.5 0 1 1 -1,0 0.5,0.5 0 1 1 1,0 z" />
    <path
       d="m 17,17.5 a 0.5,0.5 0 1 1 -1,0 0.5,0.5 0 1 1 1,0 z"
       sodipodi:ry="0.5"
       sodipodi:rx="0.5"
       sodipodi:cy="17.5"
       sodipodi:cx="16.5"
       id="path3365"
       style="fill:#333;fill-opacity:1;fill-rule:nonzero;stroke:none"
       sodipodi:type="arc"
       transform="translate(0,10.095652)" />
    <path
       transform="translate(1,11)"
       sodipodi:type="arc"
       style="fill:#333;fill-opacity:1;fill-rule:nonzero;stroke:none"
       id="path3367"
       sodipodi:cx="16.5"
       sodipodi:cy="17.5"
       sodipodi:rx="0.5"
       sodipodi:ry="0.5"
       d="m 17,17.5 a 0.5,0.5 0 1 1 -1,0 0.5,0.5 0 1 1 1,0 z" />
    <path
       d="m 17,17.5 a 0.5,0.5 0 1 1 -1,0 0.5,0.5 0 1 1 1,0 z"
       sodipodi:ry="0.5"
       sodipodi:rx="0.5"
       sodipodi:cy="17.5"
       sodipodi:cx="16.5"
       id="path3369"
       style="fill:#333;fill-opacity:1;fill-rule:nonzero;stroke:none"
       sodipodi:type="arc"
       transform="translate(-2.9652174,11)" />
    <path
       transform="translate(-2.9652174,11)"
       sodipodi:type="arc"
       style="fill:#333;fill-opacity:1;fill-rule:nonzero;stroke:none"
       id="path3371"
       sodipodi:cx="16.5"
       sodipodi:cy="17.5"
       sodipodi:rx="0.5"
       sodipodi:ry="0.5"
       d="m 17,17.5 a 0.5,0.5 0 1 1 -1,0 0.5,0.5 0 1 1 1,0 z" />
    <path
       transform="translate(5,5)"
       sodipodi:type="arc"
       style="fill:gray;fill-opacity:1;fill-rule:nonzero;stroke:none"
       id="path3373"
       sodipodi:cx="14.5"
       sodipodi:cy="11.5"
       sodipodi:rx="0.5"
       sodipodi:ry="0.5"
       d="m 15,11.5 a 0.5,0.5 0 1 1 -1,0 0.5,0.5 0 1 1 1,0 z" />
    <path
       d="m 15,11.5 a 0.5,0.5 0 1 1 -1,0 0.5,0.5 0 1 1 1,0 z"
       sodipodi:ry="0.5"
       sodipodi:rx="0.5"
       sodipodi:cy="11.5"
       sodipodi:cx="14.5"
       id="path3375"
       style="fill:gray;fill-opacity:1;fill-rule:nonzero;stroke:none"
       sodipodi:type="arc"
       transform="translate(4,6)" />
    <path
       transform="translate(5,7)"
       sodipodi:type="arc"
       style="fill:gray;fill-opacity:1;fill-rule:nonzero;stroke:none"
       id="path3377"
       sodipodi:cx="14.5"
       sodipodi:cy="11.5"
       sodipodi:rx="0.5"
       sodipodi:ry="0.5"
       d="m 15,11.5 a 0.5,0.5 0 1 1 -1,0 0.5,0.5 0 1 1 1,0 z" />
    <path
       sodipodi:type="arc"
       style="fill:#e6e6e6;fill-opacity:1;fill-rule:nonzero;stroke:none"
       id="path3379"
       sodipodi:cx="13.5"
       sodipodi:cy="8.5"
       sodipodi:rx="0.5"
       sodipodi:ry="0.5"
       d="m 14,8.5 a 0.5,0.5 0 1 1 -1,0 0.5,0.5 0 1 1 1,0 z"
       transform="translate(7,7)" />
    <path
       transform="translate(8,8)"
       d="m 14,8.5 a 0.5,0.5 0 1 1 -1,0 0.5,0.5 0 1 1 1,0 z"
       sodipodi:ry="0.5"
       sodipodi:rx="0.5"
       sodipodi:cy="8.5"
       sodipodi:cx="13.5"
       id="path3381"
       style="fill:#e6e6e6;fill-opacity:1;fill-rule:nonzero;stroke:none"
       sodipodi:type="arc" />
    <path
       sodipodi:type="arc"
       style="fill:#e6e6e6;fill-opacity:1;fill-rule:nonzero;stroke:none"
       id="path3383"
       sodipodi:cx="13.5"
       sodipodi:cy="8.5"
       sodipodi:rx="0.5"
       sodipodi:ry="0.5"
       d="m 14,8.5 a 0.5,0.5 0 1 1 -1,0 0.5,0.5 0 1 1 1,0 z"
       transform="translate(9,8)" />
    <path
       transform="translate(9,9)"
       d="m 14,8.5 a 0.5,0.5 0 1 1 -1,0 0.5,0.5 0 1 1 1,0 z"
       sodipodi:ry="0.5"
       sodipodi:rx="0.5"
       sodipodi:cy="8.5"
       sodipodi:cx="13.5"
       id="path3385"
       style="fill:#e6e6e6;fill-opacity:1;fill-rule:nonzero;stroke:none"
       sodipodi:type="arc" />
    <path
       sodipodi:type="arc"
       style="fill:#e6e6e6;fill-opacity:1;fill-rule:nonzero;stroke:none"
       id="path3387"
       sodipodi:cx="13.5"
       sodipodi:cy="8.5"
       sodipodi:rx="0.5"
       sodipodi:ry="0.5"
       d="m 14,8.5 a 0.5,0.5 0 1 1 -1,0 0.5,0.5 0 1 1 1,0 z"
       transform="translate(9,9)" />
    <path
       inkscape:connector-curvature="0"
       style="fill:#f9f9f9;fill-opacity:1;fill-rule:nonzero;stroke:none"
       d="M 18,3 16.086957,3.9130435 18,6 18,4 21.076522,4.0382609 18,3 z"
       id="path3520"
       sodipodi:nodetypes="cccccc" />
    <path
       inkscape:connector-curvature="0"
       style="fill:#f2f2f2;fill-opacity:1;fill-rule:nonzero;stroke:none"
       d="m 13.886957,8.1130435 0.0087,2.6782605 L 13,9 13.886957,8.1130435 z"
       id="path3522" />
    <path
       inkscape:connector-curvature="0"
       style="fill:white;fill-opacity:1;fill-rule:nonzero;stroke:none"
       d="M 19.951304,6.0243478 22,6 21,8 18,7 19.951304,6.0243478 z"
       id="path3524"
       sodipodi:nodetypes="ccccc" />
    <path
       inkscape:connector-curvature="0"
       style="fill:white;fill-opacity:1;fill-rule:nonzero;stroke:none"
       d="M 12.097391,3.9513043 17,3 14,3 12.097391,3.9513043 z"
       id="path3526" />
    <path
       inkscape:connector-curvature="0"
       style="fill:white;fill-opacity:1;fill-rule:nonzero;stroke:none"
       d="M 27,8 24.082609,7.0826087 25.96087,8.9608696 27,8 z"
       id="path3528" />
    <path
       inkscape:connector-curvature="0"
       style="fill:white;fill-opacity:1;fill-rule:nonzero;stroke:none"
       d="M 25.273194,6.1508839 21.912436,6.0010407 23,5 25.273194,6.1508839 z"
       id="path3530" />
    <path
       inkscape:connector-curvature="0"
       style="fill:white;fill-opacity:1;fill-rule:nonzero;stroke:none"
       d="M 8,10 8,9 7,9 8,10 z"
       id="path3532" />
    <path
       inkscape:connector-curvature="0"
       style="fill:white;fill-opacity:1;fill-rule:nonzero;stroke:none"
       d="M 8,3 12,4 11.06087,3.0608696 8,3 z"
       id="path3534" />
  </g>
</svg>
