<?xml version="1.0" encoding="UTF-8" standalone="no"?>
<!-- Created with Inkscape (http://www.inkscape.org/) -->

<svg
   xmlns:dc="http://purl.org/dc/elements/1.1/"
   xmlns:cc="http://creativecommons.org/ns#"
   xmlns:rdf="http://www.w3.org/1999/02/22-rdf-syntax-ns#"
   xmlns:svg="http://www.w3.org/2000/svg"
   xmlns="http://www.w3.org/2000/svg"
   xmlns:sodipodi="http://sodipodi.sourceforge.net/DTD/sodipodi-0.dtd"
   xmlns:inkscape="http://www.inkscape.org/namespaces/inkscape"
   width="8"
   height="8"
   id="svg2"
   sodipodi:version="0.32"
   inkscape:version="0.48.5 r10040"
   version="1.0"
   sodipodi:docname="04.svg"
   inkscape:output_extension="org.inkscape.output.svg.inkscape"
   viewBox="0 0 8 8">
  <defs
     id="defs4">
    <inkscape:perspective
       sodipodi:type="inkscape:persp3d"
       inkscape:vp_x="0 : 526.18109 : 1"
       inkscape:vp_y="0 : 1000 : 0"
       inkscape:vp_z="744.09448 : 526.18109 : 1"
       inkscape:persp3d-origin="372.04724 : 350.78739 : 1"
       id="perspective10" />
  </defs>
  <sodipodi:namedview
     id="base"
     pagecolor="#ffffff"
     bordercolor="#666666"
     borderopacity="1.0"
     inkscape:pageopacity="0.0"
     inkscape:pageshadow="2"
     inkscape:zoom="65.5"
     inkscape:cx="4"
     inkscape:cy="4"
     inkscape:document-units="px"
     inkscape:current-layer="g4023"
     showgrid="true"
     objecttolerance="10000"
     gridtolerance="10000"
     guidetolerance="10000"
     inkscape:window-width="1024"
     inkscape:window-height="741"
     inkscape:window-x="0"
     inkscape:window-y="2"
     inkscape:snap-perpendicular="true"
     inkscape:snap-tangential="true"
     showguides="true"
     inkscape:guide-bbox="true"
     inkscape:window-maximized="1">
    <inkscape:grid
       type="xygrid"
       id="grid2383"
       units="px"
       visible="true"
       enabled="true"
       empspacing="4"
       spacingx="1"
       spacingy="1" />
    <sodipodi:guide
       position="4,12"
       orientation="1,0"
       id="guide5299" />
    <sodipodi:guide
       position="12,4"
       orientation="0,1"
       id="guide5301" />
    <sodipodi:guide
       position="12,12"
       orientation="-0.70710678,0.70710678"
       id="guide5303" />
    <sodipodi:guide
       position="-4,12"
       orientation="0.70710678,0.70710678"
       id="guide5305" />
  </sodipodi:namedview>
  <metadata
     id="metadata7">
    <rdf:RDF>
      <cc:Work
         rdf:about="">
        <dc:format>image/svg+xml</dc:format>
        <dc:type
           rdf:resource="http://purl.org/dc/dcmitype/StillImage" />
        <dc:title></dc:title>
      </cc:Work>
    </rdf:RDF>
  </metadata>
  <g
     inkscape:label="Ebene 1"
     inkscape:groupmode="layer"
     id="layer1"
     transform="translate(0,-8)">
    <g
       id="g4023">
      <circle
         sodipodi:ry="4"
         sodipodi:rx="4"
         sodipodi:cy="12"
         sodipodi:cx="4"
         d="M 8,12 C 8,14.209139 6.209139,16 4,16 1.790861,16 0,14.209139 0,12 0,9.790861 1.790861,8 4,8 6.209139,8 8,9.790861 8,12 z"
         r="4"
         cy="12"
         cx="4"
         id="path4701"
         style="fill:red;fill-opacity:1;fill-rule:nonzero;stroke:none" />
      <circle
         d="M 4,10.5 C 4,11.328427 3.3284271,12 2.5,12 1.6715729,12 1,11.328427 1,10.5 1,9.6715729 1.6715729,9 2.5,9 3.3284271,9 4,9.6715729 4,10.5 z"
         r="1.5"
         cy="10.5"
         cx="2.5"
         id="path4703"
         style="opacity:1;fill:white;fill-opacity:1;fill-rule:nonzero;stroke:none;stroke-width:2;stroke-linecap:butt;stroke-linejoin:miter;stroke-miterlimit:4;stroke-dasharray:none;stroke-dashoffset:0;stroke-opacity:1" />
      <circle
         d="M 7,10.5 C 7,11.328427 6.3284271,12 5.5,12 4.6715729,12 4,11.328427 4,10.5 4,9.6715729 4.6715729,9 5.5,9 6.3284271,9 7,9.6715729 7,10.5 z"
         style="opacity:1;fill:white;fill-opacity:1;fill-rule:nonzero;stroke:none;stroke-width:2;stroke-linecap:butt;stroke-linejoin:miter;stroke-miterlimit:4;stroke-dasharray:none;stroke-dashoffset:0;stroke-opacity:1"
         id="circle4705"
         cx="5.5"
         cy="10.5"
         r="1.5" />
      <circle
         d="M 3,10.5 C 3,10.776142 2.7761424,11 2.5,11 2.2238576,11 2,10.776142 2,10.5 2,10.223858 2.2238576,10 2.5,10 2.7761424,10 3,10.223858 3,10.5 z"
         r="0.5"
         cy="10.5"
         cx="2.5"
         id="path4709"
         style="opacity:1;fill:black;fill-opacity:1;fill-rule:nonzero;stroke:none;stroke-width:2;stroke-linecap:butt;stroke-linejoin:miter;stroke-miterlimit:4;stroke-dasharray:none;stroke-dashoffset:0;stroke-opacity:1" />
      <circle
         d="M 6,10.5 C 6,10.776142 5.7761424,11 5.5,11 5.2238576,11 5,10.776142 5,10.5 5,10.223858 5.2238576,10 5.5,10 5.7761424,10 6,10.223858 6,10.5 z"
         style="opacity:1;fill:black;fill-opacity:1;fill-rule:nonzero;stroke:none;stroke-width:2;stroke-linecap:butt;stroke-linejoin:miter;stroke-miterlimit:4;stroke-dasharray:none;stroke-dashoffset:0;stroke-opacity:1"
         id="circle4711"
         cx="5.5"
         cy="10.5"
         r="0.5" />
    </g>
  </g>
</svg>
