<?xml version="1.0" encoding="UTF-8" standalone="no"?>
<!-- Created with Inkscape (http://www.inkscape.org/) -->

<svg
   xmlns:dc="http://purl.org/dc/elements/1.1/"
   xmlns:cc="http://creativecommons.org/ns#"
   xmlns:rdf="http://www.w3.org/1999/02/22-rdf-syntax-ns#"
   xmlns:svg="http://www.w3.org/2000/svg"
   xmlns="http://www.w3.org/2000/svg"
   xmlns:sodipodi="http://sodipodi.sourceforge.net/DTD/sodipodi-0.dtd"
   xmlns:inkscape="http://www.inkscape.org/namespaces/inkscape"
   width="32px"
   height="32px"
   id="svg3505"
   sodipodi:version="0.32"
   inkscape:version="0.47 r22583"
   sodipodi:docname="02.svg"
   inkscape:output_extension="org.inkscape.output.svg.inkscape"
   version="1.1">
  <defs
     id="defs3507">
    <inkscape:perspective
       sodipodi:type="inkscape:persp3d"
       inkscape:vp_x="0 : 16 : 1"
       inkscape:vp_y="0 : 1000 : 0"
       inkscape:vp_z="32 : 16 : 1"
       inkscape:persp3d-origin="16 : 10.666667 : 1"
       id="perspective3513" />
    <inkscape:perspective
       id="perspective4690"
       inkscape:persp3d-origin="372.04724 : 350.78739 : 1"
       inkscape:vp_z="744.09448 : 526.18109 : 1"
       inkscape:vp_y="0 : 1000 : 0"
       inkscape:vp_x="0 : 526.18109 : 1"
       sodipodi:type="inkscape:persp3d" />
  </defs>
  <sodipodi:namedview
     id="base"
     pagecolor="#ffffff"
     bordercolor="#666666"
     borderopacity="1.0"
     inkscape:pageopacity="0.0"
     inkscape:pageshadow="2"
     inkscape:zoom="15.25"
     inkscape:cx="23.112338"
     inkscape:cy="18.622951"
     inkscape:current-layer="layer1"
     showgrid="true"
     inkscape:grid-bbox="true"
     inkscape:document-units="px"
     objecttolerance="4"
     gridtolerance="4"
     guidetolerance="4"
     inkscape:window-width="1280"
     inkscape:window-height="713"
     inkscape:window-x="0"
     inkscape:window-y="37"
     inkscape:object-paths="true"
     inkscape:object-nodes="true"
     inkscape:snap-bbox="true"
     inkscape:snap-guide="true"
     inkscape:window-maximized="0">
    <inkscape:grid
       type="xygrid"
       id="grid3515"
       units="px"
       visible="true"
       enabled="true"
       spacingx="1px"
       spacingy="1px" />
  </sodipodi:namedview>
  <metadata
     id="metadata3510">
    <rdf:RDF>
      <cc:Work
         rdf:about="">
        <dc:format>image/svg+xml</dc:format>
        <dc:type
           rdf:resource="http://purl.org/dc/dcmitype/StillImage" />
        <dc:title>McMinos doped left 02</dc:title>
        <dc:date>2010-08-11</dc:date>
        <dc:creator>
          <cc:Agent>
            <dc:title>Andreas Neudecker &lt;zapyon@gmx.net&gt;</dc:title>
          </cc:Agent>
        </dc:creator>
        <dc:rights>
          <cc:Agent>
            <dc:title>Copyright (C) 2010 by Andreas Neudecker</dc:title>
          </cc:Agent>
        </dc:rights>
        <dc:publisher>
          <cc:Agent>
            <dc:title>Andreas Neudecker</dc:title>
          </cc:Agent>
        </dc:publisher>
        <dc:identifier>mcminos-doped-left-02</dc:identifier>
        <dc:description>McMinos moving left, animation step 02.</dc:description>
      </cc:Work>
    </rdf:RDF>
  </metadata>
  <g
     id="layer1"
     inkscape:label="Layer 1"
     inkscape:groupmode="layer">
    <g
       id="g3447"
       transform="translate(-154,-80.000759)">
      <path
         transform="matrix(2.0024876,0,0,2.0023789,154.04975,79.980968)"
         d="M 1.0005172,7.3906678 C 1.3370421,3.54417 4.728052,0.69877473 8.5745498,1.0352996 12.421048,1.3718245 15.266443,4.7628344 14.929918,8.6093322 14.593393,12.45583 11.202383,15.301225 7.3558854,14.9647 3.9759605,14.668995 1.2962223,11.989257 1.0005172,8.6093323 L 7.9652176,8 z"
         sodipodi:ry="6.9913044"
         sodipodi:rx="6.9913044"
         sodipodi:cy="8"
         sodipodi:cx="7.9652176"
         id="path3438"
         style="fill:#ff7e00;fill-opacity:1;fill-rule:nonzero;stroke:#000000;stroke-width:0.99878484;stroke-linecap:round;stroke-linejoin:miter;stroke-miterlimit:4;stroke-dasharray:none;stroke-dashoffset:0;stroke-opacity:1"
         sodipodi:type="arc"
         sodipodi:start="3.2288591"
         sodipodi:end="9.3375115" />
      <g
         id="g3224"
         transform="matrix(2,0,0,1.9998914,154,80.000868)">
        <path
           transform="matrix(1.0012438,0,0,1.0012438,2.4875454e-2,-9.9504e-3)"
           d="M 1.0005172,7.3906678 C 1.3370421,3.54417 4.728052,0.69877473 8.5745498,1.0352996 12.421048,1.3718245 15.266443,4.7628344 14.929918,8.6093322 14.593393,12.45583 11.202383,15.301225 7.3558854,14.9647 3.9759605,14.668995 1.2962223,11.989257 1.0005172,8.6093323 L 7.9652176,8 z"
           sodipodi:ry="6.9913044"
           sodipodi:rx="6.9913044"
           sodipodi:cy="8"
           sodipodi:cx="7.9652176"
           id="path3226"
           style="fill:#ff7e00;fill-opacity:1;fill-rule:nonzero;stroke:none;stroke-width:0.1;stroke-linecap:round;stroke-linejoin:round;stroke-miterlimit:4;stroke-dasharray:none;stroke-dashoffset:0;stroke-opacity:1"
           sodipodi:type="arc"
           sodipodi:start="3.2288591"
           sodipodi:end="9.3375115" />
        <path
           d="M 10,5 C 10,6.1045695 9.1045695,7 8,7 6.8954305,7 6,6.1045695 6,5 6,3.8954305 6.8954305,3 8,3 c 1.1045695,0 2,0.8954305 2,2 z"
           sodipodi:ry="2"
           sodipodi:rx="2"
           sodipodi:cy="5"
           sodipodi:cx="8"
           id="path3228"
           style="fill:#ffffff;fill-opacity:1;fill-rule:nonzero;stroke:none;stroke-width:0.1;stroke-linecap:round;stroke-linejoin:round;stroke-miterlimit:4;stroke-dasharray:none;stroke-dashoffset:0;stroke-opacity:1"
           sodipodi:type="arc" />
        <path
           transform="translate(-1,0)"
           d="M 9,5 C 9,5.5522847 8.5522847,6 8,6 7.4477153,6 7,5.5522847 7,5 7,4.4477153 7.4477153,4 8,4 8.5522847,4 9,4.4477153 9,5 z"
           sodipodi:ry="1"
           sodipodi:rx="1"
           sodipodi:cy="5"
           sodipodi:cx="8"
           id="path3230"
           style="fill:#000000;fill-opacity:1;fill-rule:nonzero;stroke:none;stroke-width:0.1;stroke-linecap:round;stroke-linejoin:round;stroke-miterlimit:4;stroke-dasharray:none;stroke-dashoffset:0;stroke-opacity:1"
           sodipodi:type="arc" />
      </g>
    </g>
    <path
       sodipodi:type="star"
       style="fill:#ffff00;fill-opacity:1;fill-rule:nonzero;stroke:none"
       id="path3693"
       sodipodi:sides="5"
       sodipodi:cx="23"
       sodipodi:cy="11"
       sodipodi:r1="2.4006741"
       sodipodi:r2="0.96026957"
       sodipodi:arg1="0.58610867"
       sodipodi:arg2="1.2144272"
       inkscape:flatsided="false"
       inkscape:rounded="0"
       inkscape:randomized="0.17"
       d="m 24.644672,12.550206 -1.280261,-0.96144 -1.23782,1.678246 0.374707,-1.790915 -1.521232,-0.265894 0.816949,-1.11144 0.200431,-1.4292644 1.224365,1.4000404 2.029543,-0.8521174 -1.179736,1.4515374 0.573054,1.881247 z"
       transform="matrix(1.2337567,0,0,1.2337567,-24.405528,13.422651)" />
    <path
       sodipodi:type="star"
       style="fill:#ffff00;fill-opacity:1;fill-rule:nonzero;stroke:none"
       id="path3695"
       sodipodi:sides="5"
       sodipodi:cx="22"
       sodipodi:cy="1"
       sodipodi:r1="2.1977608"
       sodipodi:r2="0.87910438"
       sodipodi:arg1="0.70619909"
       sodipodi:arg2="1.3345176"
       inkscape:flatsided="false"
       inkscape:rounded="0"
       inkscape:randomized="0.17"
       d="M 23.343677,2.5775972 22.112344,1.761575 21.33545,3.2062278 20.963336,1.6978764 19.686076,0.8242658 21.2629,0.23684822 21.532127,-1.350669 22.017092,0.46984265 23.84189,0.07242769 23.082074,1.2499631 23.343677,2.5775972 z"
       transform="matrix(1.3845219,0,0,1.3845219,-2.2498028,3.2693987)" />
    <path
       sodipodi:type="star"
       style="fill:#ffff00;fill-opacity:1;fill-rule:nonzero;stroke:none"
       id="path3697"
       sodipodi:sides="5"
       sodipodi:cx="15.737705"
       sodipodi:cy="23.409836"
       sodipodi:r1="2.379761"
       sodipodi:r2="0.95190442"
       sodipodi:arg1="0.73179104"
       sodipodi:arg2="1.3601096"
       inkscape:flatsided="false"
       inkscape:rounded="0"
       inkscape:randomized="0.17"
       d="m 17.602724,25.117332 -1.796306,-0.754047 -1.281177,0.990441 0.42124,-1.494267 -1.752929,-0.37264 1.780505,-1.109275 0.204723,-1.143578 1.128771,1.354195 1.72755,-0.359205 -1.301626,1.339663 0.869249,1.548713 z"
       transform="matrix(1.3148407,0,0,1.3148407,3.3477594,-7.3599283)" />
  </g>
</svg>
