<?xml version="1.0" encoding="UTF-8" standalone="no"?>
<!-- Created with Inkscape (http://www.inkscape.org/) -->

<svg xmlns:dc="http://purl.org/dc/elements/1.1/" xmlns:cc="http://creativecommons.org/ns#" xmlns:rdf="http://www.w3.org/1999/02/22-rdf-syntax-ns#" xmlns:svg="http://www.w3.org/2000/svg" xmlns="http://www.w3.org/2000/svg" xmlns:sodipodi="http://sodipodi.sourceforge.net/DTD/sodipodi-0.dtd" xmlns:inkscape="http://www.inkscape.org/namespaces/inkscape" width="32px" height="32px" id="svg3505" sodipodi:version="0.32" inkscape:version="0.91 r13725" sodipodi:docname="00.svg" inkscape:output_extension="org.inkscape.output.svg.inkscape" version="1.1">
  <defs id="defs3507" />
  <sodipodi:namedview id="base" pagecolor="#ffffff" bordercolor="#666666" borderopacity="1.0" inkscape:pageopacity="0.0" inkscape:pageshadow="2" inkscape:zoom="16.96875" inkscape:cx="16" inkscape:cy="16" inkscape:current-layer="layer1" showgrid="true" inkscape:grid-bbox="true" inkscape:document-units="px" objecttolerance="4" gridtolerance="4" guidetolerance="4" inkscape:window-width="1280" inkscape:window-height="713" inkscape:window-x="0" inkscape:window-y="37" inkscape:object-paths="true" inkscape:object-nodes="true" inkscape:snap-bbox="true" inkscape:snap-guide="true" showguides="true" inkscape:guide-bbox="true" inkscape:window-maximized="0">
    <inkscape:grid type="xygrid" id="grid3515" units="px" visible="true" enabled="true" spacingx="1px" spacingy="1px" />
  </sodipodi:namedview>
  <metadata id="metadata3510">
    <rdf:RDF>
      <cc:Work rdf:about="">
        <dc:format>image/svg+xml</dc:format>
        <dc:type rdf:resource="http://purl.org/dc/dcmitype/StillImage" />
        <dc:title>Bomb, unfused</dc:title>
        <dc:date>2010-05-08</dc:date>
        <dc:creator>
          <cc:Agent>
            <dc:title>Andreas Neudecker &lt;zapyon@gmx.net&gt;</dc:title>
          </cc:Agent>
        </dc:creator>
        <dc:rights>
          <cc:Agent>
            <dc:title>Copyright (C) 2010 by Andreas Neudecker</dc:title>
          </cc:Agent>
        </dc:rights>
        <dc:publisher>
          <cc:Agent>
            <dc:title>Andreas Neudecker</dc:title>
          </cc:Agent>
        </dc:publisher>
        <dc:identifier>bomb-00</dc:identifier>
        <dc:description>Bomb, new, unfused</dc:description>
      </cc:Work>
    </rdf:RDF>
  </metadata>
  <g id="layer1" inkscape:label="Layer 1" inkscape:groupmode="layer">
    <g id="g11458">
      <rect y="0" x="0" height="32" width="32" id="rect11456" style="opacity:1;fill:none;fill-opacity:1;fill-rule:nonzero;stroke:none;stroke-width:2;stroke-linecap:butt;stroke-linejoin:miter;stroke-miterlimit:4;stroke-dasharray:none;stroke-dashoffset:0;stroke-opacity:1" />
      <g transform="translate(-0.9874364,0)" id="g3280">
        <path style="fill:#c00000;fill-opacity:1;fill-rule:nonzero;stroke:#000000;stroke-width:1;stroke-linecap:round;stroke-linejoin:round;stroke-miterlimit:4;stroke-dasharray:none;stroke-dashoffset:0;stroke-opacity:0.25098039" d="M 15.125,1.40625 C 14.310705,1.4287501 13.437302,1.5272546 12.75,1.9375 C 11.581724,2.6348356 10.16413,3.9206677 9.03125,5.125 C 8.4629081,5.7654698 7.0909349,6.9210104 5.90625,7.875 C 4.7215651,8.8289896 3.6875,9.59375 3.6875,9.59375 C 3.4631343,9.766339 3.421161,10.088134 3.59375,10.3125 C 3.766339,10.536866 4.0881343,10.578839 4.3125,10.40625 C 4.3125,10.40625 5.3332175,9.6209879 6.53125,8.65625 C 7.7292825,7.6915121 9.0939311,6.555796 9.78125,5.78125 C 10.870282,4.6235315 12.249378,3.378514 13.25,2.78125 C 13.647147,2.5441955 14.422462,2.4265255 15.15625,2.40625 C 15.890038,2.3859745 16.61039,2.4496449 16.9375,2.5 C 17.537009,2.592288 18.388556,3.0216037 18.625,3.3125 C 18.950035,3.7123897 19.09375,4.0654835 19.09375,5 C 19.0912,5.180318 19.185938,5.3480407 19.341686,5.4389439 C 19.497435,5.529847 19.690065,5.529847 19.845814,5.4389439 C 20.001562,5.3480407 20.0963,5.180318 20.09375,5 C 20.09375,3.9303417 19.819451,3.2343063 19.375,2.6875 C 18.841958,2.0317003 17.909425,1.630375 17.0625,1.5 C 16.666392,1.4390236 15.939295,1.3837499 15.125,1.40625 z" id="path3274" />
        <path style="fill:none;fill-opacity:1;fill-rule:nonzero;stroke:#e00000;stroke-width:1;stroke-linecap:round;stroke-linejoin:round;stroke-miterlimit:4;stroke-dasharray:none;stroke-dashoffset:0;stroke-opacity:1" d="M 19.587879,5 C 19.587879,3.9979126 19.384743,3.473348 19,3 C 18.615257,2.526652 17.723217,2.1113315 17,2 C 16.276782,1.8886685 14.084449,1.7062355 13,2.3535354 C 11.915551,3.0008352 10.504221,4.2740117 9.3932651,5.4550371 C 8.137604,6.8700529 4,10 4,10" id="path2402" sodipodi:nodetypes="czzzcc" />
        <path style="fill:#000000;fill-opacity:1;fill-rule:nonzero;stroke:none;stroke-width:2;stroke-linecap:round;stroke-linejoin:miter;stroke-miterlimit:4;stroke-dasharray:none;stroke-dashoffset:0;stroke-opacity:1" d="M 15,4 L 14,4 L 14,5 L 14,9 L 14,10 L 15,10 L 15.21875,10 C 11.023398,11.715135 8,15.698663 8,20.5 C 8,26.837063 13.162937,32 19.5,32 C 25.837063,32 31,26.837063 31,20.5 C 31,15.698663 27.976602,11.715135 23.78125,10 L 24,10 L 25,10 L 25,9 L 25,5 L 25,4 L 24,4 L 15,4 z" id="path3196" sodipodi:nodetypes="cccccccssscccccccc" />
        <path sodipodi:type="arc" style="fill:#808080;fill-opacity:1;fill-rule:nonzero;stroke:none;stroke-width:1;stroke-linecap:round;stroke-linejoin:round;stroke-miterlimit:4;stroke-dasharray:none;stroke-dashoffset:0;stroke-opacity:1" id="path2394" sodipodi:cx="19.5" sodipodi:cy="21.5" sodipodi:rx="10.5" sodipodi:ry="10.5" d="M 30,21.5 A 10.5,10.5 0 0 1 19.5,32 10.5,10.5 0 0 1 9,21.5 10.5,10.5 0 0 1 19.5,11 10.5,10.5 0 0 1 30,21.5 Z" transform="translate(0,-1)" />
        <rect style="fill:#909090;fill-opacity:1;fill-rule:nonzero;stroke:none;stroke-width:1;stroke-linecap:round;stroke-linejoin:round;stroke-miterlimit:4;stroke-dasharray:none;stroke-dashoffset:0;stroke-opacity:1" id="rect2398" width="5" height="2" x="17" y="9" />
        <rect style="fill:#909090;fill-opacity:1;fill-rule:nonzero;stroke:none;stroke-width:1;stroke-linecap:round;stroke-linejoin:round;stroke-miterlimit:4;stroke-dasharray:none;stroke-dashoffset:0;stroke-opacity:1" id="rect2400" width="9" height="4" x="15" y="5" />
        <path style="fill:#606060;fill-opacity:1;fill-rule:nonzero;stroke:none;stroke-width:1;stroke-linecap:round;stroke-linejoin:round;stroke-miterlimit:4;stroke-dasharray:none;stroke-dashoffset:0;stroke-opacity:1" d="M 12.075379,13.075379 C 7.9769879,17.17377 7.9769879,23.82623 12.075379,27.924621 C 16.17377,32.023012 22.82623,32.023012 26.924621,27.924621 C 24.387523,30.46172 19.002197,29.194585 14.903806,25.096194 C 10.805416,20.997802 9.5382797,15.612478 12.075379,13.075379 z" id="path3179" inkscape:transform-center-y="1.5368963" inkscape:transform-center-x="1.5368965" />
        <path style="fill:#606060;fill-opacity:1;fill-rule:nonzero;stroke:none;stroke-width:1;stroke-linecap:round;stroke-linejoin:round;stroke-miterlimit:4;stroke-dasharray:none;stroke-dashoffset:0;stroke-opacity:1" d="M 17,9 L 17,11 L 19,11 L 18,9 L 17,9 z" id="path3190" />
        <path inkscape:transform-center-y="-1.5368969" id="path3184" d="M 26.924621,27.924621 C 31.023012,23.82623 31.023012,17.17377 26.924621,13.075379 C 22.82623,8.9769879 16.17377,8.9769879 12.075379,13.075379 C 14.612477,10.53828 19.997803,11.805415 24.096194,15.903806 C 28.194584,20.002198 29.46172,25.387522 26.924621,27.924621 z" style="fill:#909090;fill-opacity:1;fill-rule:nonzero;stroke:none;stroke-width:1;stroke-linecap:round;stroke-linejoin:round;stroke-miterlimit:4;stroke-dasharray:none;stroke-dashoffset:0;stroke-opacity:1" inkscape:transform-center-x="-1.536897" />
        <path style="fill:#606060;fill-opacity:1;fill-rule:nonzero;stroke:none;stroke-width:1;stroke-linecap:round;stroke-linejoin:round;stroke-miterlimit:4;stroke-dasharray:none;stroke-dashoffset:0;stroke-opacity:1" d="M 15,5 L 15,9 L 19,9 L 17,5 L 15,5 z" id="path3186" />
        <rect style="fill:#606060;fill-opacity:1;fill-rule:nonzero;stroke:none;stroke-width:1;stroke-linecap:round;stroke-linejoin:round;stroke-miterlimit:4;stroke-dasharray:none;stroke-dashoffset:0;stroke-opacity:1" id="rect3192" width="6.6747475" height="1" x="17.325253" y="8" />
        <path style="fill:#c0c0c0;fill-opacity:1;fill-rule:nonzero;stroke:none;stroke-width:2;stroke-linecap:round;stroke-linejoin:miter;stroke-miterlimit:4;stroke-dasharray:none;stroke-dashoffset:0;stroke-opacity:1" d="M 21.6875,12.28125 L 20.65625,16.15625 C 22.255824,16.584854 23.415146,17.744177 23.84375,19.34375 L 27.71875,18.3125 C 26.909164,15.291085 24.708915,13.090836 21.6875,12.28125 z" id="path3231" />
      </g>
    </g>
  </g>
</svg>
