<?xml version="1.0" encoding="UTF-8" standalone="no"?>
<!-- Created with Inkscape (http://www.inkscape.org/) -->

<svg xmlns:dc="http://purl.org/dc/elements/1.1/" xmlns:cc="http://creativecommons.org/ns#" xmlns:rdf="http://www.w3.org/1999/02/22-rdf-syntax-ns#" xmlns:svg="http://www.w3.org/2000/svg" xmlns="http://www.w3.org/2000/svg" xmlns:sodipodi="http://sodipodi.sourceforge.net/DTD/sodipodi-0.dtd" xmlns:inkscape="http://www.inkscape.org/namespaces/inkscape" width="96" height="32" id="svg3505" sodipodi:version="0.32" inkscape:version="0.91 r13725" sodipodi:docname="00.svg" inkscape:output_extension="org.inkscape.output.svg.inkscape" version="1.0">
  <title id="title2839">Open door (horizontal)</title>
  <defs id="defs3507">
    <inkscape:perspective sodipodi:type="inkscape:persp3d" inkscape:vp_x="0 : 48 : 1" inkscape:vp_y="0 : 1000 : 0" inkscape:vp_z="96 : 48 : 1" inkscape:persp3d-origin="48 : 32 : 1" id="perspective46" />
  </defs>
  <sodipodi:namedview id="base" pagecolor="#ffffff" bordercolor="#666666" borderopacity="1.0" inkscape:pageopacity="0.0" inkscape:pageshadow="2" inkscape:zoom="11.614583" inkscape:cx="48" inkscape:cy="16" inkscape:current-layer="layer1" showgrid="true" inkscape:grid-bbox="true" inkscape:document-units="px" objecttolerance="4" gridtolerance="4" guidetolerance="4" inkscape:window-width="1600" inkscape:window-height="878" inkscape:window-x="0" inkscape:window-y="0" inkscape:object-paths="true" inkscape:object-nodes="true" inkscape:snap-bbox="true" inkscape:snap-guide="true" showguides="true" inkscape:guide-bbox="true" inkscape:window-maximized="1">
    <inkscape:grid type="xygrid" id="grid3515" units="px" visible="true" enabled="true" spacingx="1px" spacingy="1px" empspacing="4" snapvisiblegridlinesonly="true" />
    <sodipodi:guide orientation="1,0" position="32,13" id="guide3905" />
    <sodipodi:guide orientation="1,0" position="64,2" id="guide3907" />
    <sodipodi:guide orientation="0,1" position="-50,64" id="guide3909" />
    <sodipodi:guide orientation="0,1" position="-60,32" id="guide3911" />
  </sodipodi:namedview>
  <metadata id="metadata3510">
    <rdf:RDF>
      <cc:Work rdf:about="">
        <dc:format>image/svg+xml</dc:format>
        <dc:type rdf:resource="http://purl.org/dc/dcmitype/StillImage" />
        <dc:title>Open door (horizontal)</dc:title>
        <dc:date>2010-008-09</dc:date>
        <dc:creator>
          <cc:Agent>
            <dc:title>Andreas Neudecker &lt;zapyon@gmx.net&gt;</dc:title>
          </cc:Agent>
        </dc:creator>
        <dc:rights>
          <cc:Agent>
            <dc:title>Copyright (C) 2010 by Andreas Neudecker</dc:title>
          </cc:Agent>
        </dc:rights>
        <dc:publisher>
          <cc:Agent>
            <dc:title>Andreas Neudecker</dc:title>
          </cc:Agent>
        </dc:publisher>
        <dc:identifier>door-horizontal-open</dc:identifier>
        <dc:description>Open door.</dc:description>
      </cc:Work>
    </rdf:RDF>
  </metadata>
  <g id="layer1" inkscape:label="Layer 1" inkscape:groupmode="layer" transform="translate(0,-64)">
    <g id="g5100">
      <rect y="64" x="0" height="32" width="96" id="rect5098" style="opacity:1;fill:none;fill-opacity:1;fill-rule:nonzero;stroke:none;stroke-width:2;stroke-linecap:butt;stroke-linejoin:miter;stroke-miterlimit:4;stroke-dasharray:none;stroke-dashoffset:0;stroke-opacity:1" />
      <g transform="matrix(0,2,-1,0,155,-44)" id="g14568">
        <rect style="fill:black;fill-opacity:1;fill-rule:nonzero;stroke:none" id="rect14570" width="4" height="4" x="64" y="87" />
        <rect style="fill:silver;fill-opacity:1;fill-rule:nonzero;stroke:none" id="rect14572" width="3" height="1" x="64.5" y="88" />
        <rect y="89" x="64.5" height="1" width="3" id="rect14574" style="fill:gray;fill-opacity:1;fill-rule:nonzero;stroke:none" />
      </g>
      <g transform="matrix(0,1.2,-1,0,144,-2.6000015)" id="g14598">
        <rect style="fill:black;fill-opacity:1;fill-rule:nonzero;stroke:none" id="rect14600" width="6.6666656" height="4" x="62.166668" y="76" />
        <rect style="fill:silver;fill-opacity:1;fill-rule:nonzero;stroke:none" id="rect14602" width="5" height="1" x="63" y="77" />
        <rect y="78" x="63" height="1" width="4.9999986" id="rect14604" style="fill:gray;fill-opacity:1;fill-rule:nonzero;stroke:none" />
      </g>
      <g transform="translate(0,32)" id="g3391">
        <path style="fill:#000000;fill-opacity:1;fill-rule:nonzero;stroke:none" d="m 61,32 0,32 5,0 0,-32 -5,0 z m 1,1 3,0 0,30 -3,0 0,-30 z" id="rect3342" />
        <rect style="fill:#000000;fill-opacity:1;fill-rule:nonzero;stroke:none" id="rect5826" width="3" height="13" x="28" y="45" />
        <rect style="fill:#c0c0c0;fill-opacity:1;fill-rule:nonzero;stroke:none" id="rect5870" width="2" height="11" x="28" y="46" />
        <rect style="fill:#d0aa00;fill-opacity:1;fill-rule:nonzero;stroke:none" id="rect2545" width="3" height="30" x="62" y="33" />
        <path style="fill:#805500;fill-opacity:1;fill-rule:nonzero;stroke:none" d="m 62,33 0,30 1,0 2,0 -1,-1 -1,0 0,-28 -1,-1 z" id="path3361" sodipodi:nodetypes="cccccccc" />
        <path sodipodi:nodetypes="ccccccc" id="path3363" d="m 64,34 -1,0 -1,-1 3,0 0,30 -1,-1 0,-28 z" style="fill:#e6be00;fill-opacity:1;fill-rule:nonzero;stroke:none" />
        <rect y="46" x="61" height="11" width="4" id="rect3344" style="fill:#c0c0c0;fill-opacity:1;fill-rule:nonzero;stroke:none" />
        <rect style="fill:#404040;fill-opacity:1;fill-rule:nonzero;stroke:none" id="rect3346" width="2" height="7.2706494" x="62" y="48" />
        <rect style="fill:#000000;fill-opacity:1;fill-rule:nonzero;stroke:none" id="rect3353" width="1" height="1" x="60" y="45" />
        <rect y="57" x="60" height="1" width="1" id="rect3355" style="fill:#000000;fill-opacity:1;fill-rule:nonzero;stroke:none" />
        <rect style="fill:#000000;fill-opacity:1;fill-rule:nonzero;stroke:none" id="rect3357" width="1" height="11" x="60" y="46" />
        <path style="fill:#909090;fill-opacity:1;fill-rule:nonzero;stroke:none" d="m 56,48 0,1 3,0 0,1 1,0 0,-2 -1,0 -3,0 z" id="rect3365" sodipodi:nodetypes="cccccccc" />
        <path style="fill:#000000;fill-opacity:1;fill-rule:nonzero;stroke:none" d="m 55,47 0,1 0,2 1,0 2,0 0,1 1,0 1,0 0,-1 -1,0 0,-1 -3,0 0,-1 4,0 0,-1 -5,0 z" id="rect3370" />
        <path inkscape:connector-curvature="0" sodipodi:nodetypes="cccccccc" id="path3384" d="m 66,48 0,1 -3,0 0,1 -1,0 0,-2 1,0 3,0 z" style="fill:silver;fill-opacity:1;fill-rule:nonzero;stroke:none" />
        <path inkscape:connector-curvature="0" id="path3386" d="m 67,47 0,1 0,2 -1,0 -2,0 0,1 -1,0 -1,0 0,-1 1,0 0,-1 3,0 0,-1 -4,0 0,-1 5,0 z" style="fill:black;fill-opacity:1;fill-rule:nonzero;stroke:none" />
      </g>
    </g>
  </g>
</svg>
