<?xml version="1.0" encoding="UTF-8" standalone="no"?>
<!-- Created with Inkscape (http://www.inkscape.org/) -->

<svg xmlns:dc="http://purl.org/dc/elements/1.1/" xmlns:cc="http://creativecommons.org/ns#" xmlns:rdf="http://www.w3.org/1999/02/22-rdf-syntax-ns#" xmlns:svg="http://www.w3.org/2000/svg" xmlns="http://www.w3.org/2000/svg" xmlns:sodipodi="http://sodipodi.sourceforge.net/DTD/sodipodi-0.dtd" xmlns:inkscape="http://www.inkscape.org/namespaces/inkscape" width="32" height="32" id="svg4150" version="1.1" inkscape:version="0.91 r13725" viewBox="0 0 32 32" sodipodi:docname="00.svg" inkscape:export-filename="/home/andreas/Dokumente/Projekte/McMinos/repository/extra/images-incoming/background-punched-plate-02/00.png" inkscape:export-xdpi="360" inkscape:export-ydpi="360">
  <defs id="defs4152" />
  <sodipodi:namedview id="base" pagecolor="#ffffff" bordercolor="#666666" borderopacity="1.0" inkscape:pageopacity="0.0" inkscape:pageshadow="2" inkscape:zoom="16.375" inkscape:cx="16" inkscape:cy="16" inkscape:current-layer="layer1" showgrid="false" inkscape:grid-bbox="true" inkscape:document-units="px" objecttolerance="10000" inkscape:snap-perpendicular="true" guidetolerance="10000" inkscape:window-width="1600" inkscape:window-height="878" inkscape:window-x="0" inkscape:window-y="0" inkscape:window-maximized="1" showguides="false" inkscape:guide-bbox="true">
    <inkscape:grid type="xygrid" id="grid4698" empspacing="4" />
    <sodipodi:guide position="16,32" orientation="1,0" id="guide4769" />
    <sodipodi:guide position="-4,16" orientation="0,1" id="guide4771" />
    <sodipodi:guide position="-4,-4" orientation="-0.70710678,0.70710678" id="guide4773" />
    <sodipodi:guide position="16,16" orientation="0.70710678,0.70710678" id="guide4775" />
  </sodipodi:namedview>
  <metadata id="metadata4155">
    <rdf:RDF>
      <cc:Work rdf:about="">
        <dc:format>image/svg+xml</dc:format>
        <dc:type rdf:resource="http://purl.org/dc/dcmitype/StillImage" />
        <dc:title></dc:title>
      </cc:Work>
    </rdf:RDF>
  </metadata>
  <g id="layer1" inkscape:label="Layer 1" inkscape:groupmode="layer">
    <rect style="fill:black;fill-opacity:1;stroke:none" id="rect4838" width="32" height="32" x="0" y="0" />
    <path style="fill:#b3b3b3;fill-opacity:0.50196081;stroke:none" d="M 0 0 L 0 32 L 4 32 C 2.3431458 32 1 30.656854 1 29 C 1 27.343146 2.3431458 26 4 26 C 5.6568542 26 7 27.343146 7 29 C 7 30.656854 5.6568542 32 4 32 L 9.1875 32 C 9.6030105 30.841652 10.698679 30 12 30 C 13.301321 30 14.396989 30.841652 14.8125 32 L 20 32 C 18.343146 32 17 30.656854 17 29 C 17 27.343146 18.343146 26 20 26 C 21.656854 26 23 27.343146 23 29 C 23 30.656854 21.656854 32 20 32 L 25.1875 32 C 25.603011 30.841652 26.698679 30 28 30 C 29.301321 30 30.396989 30.841652 30.8125 32 L 32 32 L 32 0 L 30.8125 0 C 30.926021 0.31647169 31 0.64446669 31 1 C 31 2.6568542 29.656854 4 28 4 C 26.343146 4 25 2.6568542 25 1 C 25 0.64446669 25.073979 0.31647169 25.1875 0 L 14.8125 0 C 14.926021 0.31647169 15 0.64446669 15 1 C 15 2.6568542 13.656854 4 12 4 C 10.343146 4 9 2.6568542 9 1 C 9 0.64446669 9.0739786 0.31647169 9.1875 0 L 0 0 z M 4 2 C 5.6568542 2 7 3.3431458 7 5 C 7 6.6568542 5.6568542 8 4 8 C 2.3431458 8 1 6.6568542 1 5 C 1 3.3431458 2.3431458 2 4 2 z M 20 2 C 21.656854 2 23 3.3431458 23 5 C 23 6.6568542 21.656854 8 20 8 C 18.343146 8 17 6.6568542 17 5 C 17 3.3431458 18.343146 2 20 2 z M 12 6 C 13.656854 6 15 7.3431458 15 9 C 15 10.656854 13.656854 12 12 12 C 10.343146 12 9 10.656854 9 9 C 9 7.3431458 10.343146 6 12 6 z M 28 6 C 29.656854 6 31 7.3431458 31 9 C 31 10.656854 29.656854 12 28 12 C 26.343146 12 25 10.656854 25 9 C 25 7.3431458 26.343146 6 28 6 z M 4 10 C 5.6568542 10 7 11.343146 7 13 C 7 14.656854 5.6568542 16 4 16 C 2.3431458 16 1 14.656854 1 13 C 1 11.343146 2.3431458 10 4 10 z M 20 10 C 21.656854 10 23 11.343146 23 13 C 23 14.656854 21.656854 16 20 16 C 18.343146 16 17 14.656854 17 13 C 17 11.343146 18.343146 10 20 10 z M 12 14 C 13.656854 14 15 15.343146 15 17 C 15 18.656854 13.656854 20 12 20 C 10.343146 20 9 18.656854 9 17 C 9 15.343146 10.343146 14 12 14 z M 28 14 C 29.656854 14 31 15.343146 31 17 C 31 18.656854 29.656854 20 28 20 C 26.343146 20 25 18.656854 25 17 C 25 15.343146 26.343146 14 28 14 z M 4 18 C 5.6568542 18 7 19.343146 7 21 C 7 22.656854 5.6568542 24 4 24 C 2.3431458 24 1 22.656854 1 21 C 1 19.343146 2.3431458 18 4 18 z M 20 18 C 21.656854 18 23 19.343146 23 21 C 23 22.656854 21.656854 24 20 24 C 18.343146 24 17 22.656854 17 21 C 17 19.343146 18.343146 18 20 18 z M 12 22 C 13.656854 22 15 23.343146 15 25 C 15 26.656854 13.656854 28 12 28 C 10.343146 28 9 26.656854 9 25 C 9 23.343146 10.343146 22 12 22 z M 28 22 C 29.656854 22 31 23.343146 31 25 C 31 26.656854 29.656854 28 28 28 C 26.343146 28 25 26.656854 25 25 C 25 23.343146 26.343146 22 28 22 z " id="rect4207" />
    <path transform="translate(35,0)" d="M 8,5 A 3,3 0 1 1 2,5 3,3 0 1 1 8,5 z" sodipodi:ry="3" sodipodi:rx="3" sodipodi:cy="5" sodipodi:cx="5" id="path4793" style="fill:red;fill-opacity:0.25157231;stroke:none" sodipodi:type="arc" />
    <path transform="translate(35,8)" sodipodi:type="arc" style="fill:red;fill-opacity:0.25157231;stroke:none" id="path4795" sodipodi:cx="5" sodipodi:cy="5" sodipodi:rx="3" sodipodi:ry="3" d="M 8,5 A 3,3 0 1 1 2,5 3,3 0 1 1 8,5 z" />
    <path d="M 8,5 A 3,3 0 1 1 2,5 3,3 0 1 1 8,5 z" sodipodi:ry="3" sodipodi:rx="3" sodipodi:cy="5" sodipodi:cx="5" id="path4797" style="fill:red;fill-opacity:0.25157231;stroke:none" sodipodi:type="arc" transform="translate(43,4)" />
    <path transform="translate(43,-4)" sodipodi:type="arc" style="fill:red;fill-opacity:0.25157231;stroke:none" id="path4799" sodipodi:cx="5" sodipodi:cy="5" sodipodi:rx="3" sodipodi:ry="3" d="M 8,5 A 3,3 0 1 1 2,5 3,3 0 1 1 8,5 z" />
    <path d="M 8,5 A 3,3 0 1 1 2,5 3,3 0 1 1 8,5 z" sodipodi:ry="3" sodipodi:rx="3" sodipodi:cy="5" sodipodi:cx="5" id="path4801" style="fill:red;fill-opacity:0.25157231;stroke:none" sodipodi:type="arc" transform="translate(43,12)" />
    <path transform="translate(43,20)" sodipodi:type="arc" style="fill:red;fill-opacity:0.25157231;stroke:none" id="path4803" sodipodi:cx="5" sodipodi:cy="5" sodipodi:rx="3" sodipodi:ry="3" d="M 8,5 A 3,3 0 1 1 2,5 3,3 0 1 1 8,5 z" />
    <path d="M 8,5 A 3,3 0 1 1 2,5 3,3 0 1 1 8,5 z" sodipodi:ry="3" sodipodi:rx="3" sodipodi:cy="5" sodipodi:cx="5" id="path4805" style="fill:red;fill-opacity:0.25157231;stroke:none" sodipodi:type="arc" transform="translate(35,16)" />
    <path transform="translate(35,24)" sodipodi:type="arc" style="fill:red;fill-opacity:0.25157231;stroke:none" id="path4807" sodipodi:cx="5" sodipodi:cy="5" sodipodi:rx="3" sodipodi:ry="3" d="M 8,5 A 3,3 0 1 1 2,5 3,3 0 1 1 8,5 z" />
    <path transform="translate(51,0)" sodipodi:type="arc" style="fill:red;fill-opacity:0.25157231;stroke:none" id="path4809" sodipodi:cx="5" sodipodi:cy="5" sodipodi:rx="3" sodipodi:ry="3" d="M 8,5 A 3,3 0 1 1 2,5 3,3 0 1 1 8,5 z" />
    <path d="M 8,5 A 3,3 0 1 1 2,5 3,3 0 1 1 8,5 z" sodipodi:ry="3" sodipodi:rx="3" sodipodi:cy="5" sodipodi:cx="5" id="path4811" style="fill:red;fill-opacity:0.25157231;stroke:none" sodipodi:type="arc" transform="translate(51,8)" />
    <path transform="translate(59,4)" sodipodi:type="arc" style="fill:red;fill-opacity:0.25157231;stroke:none" id="path4813" sodipodi:cx="5" sodipodi:cy="5" sodipodi:rx="3" sodipodi:ry="3" d="M 8,5 A 3,3 0 1 1 2,5 3,3 0 1 1 8,5 z" />
    <path d="M 8,5 A 3,3 0 1 1 2,5 3,3 0 1 1 8,5 z" sodipodi:ry="3" sodipodi:rx="3" sodipodi:cy="5" sodipodi:cx="5" id="path4815" style="fill:red;fill-opacity:0.25157231;stroke:none" sodipodi:type="arc" transform="translate(59,-4)" />
    <path transform="translate(59,12)" sodipodi:type="arc" style="fill:red;fill-opacity:0.25157231;stroke:none" id="path4817" sodipodi:cx="5" sodipodi:cy="5" sodipodi:rx="3" sodipodi:ry="3" d="M 8,5 A 3,3 0 1 1 2,5 3,3 0 1 1 8,5 z" />
    <path d="M 8,5 A 3,3 0 1 1 2,5 3,3 0 1 1 8,5 z" sodipodi:ry="3" sodipodi:rx="3" sodipodi:cy="5" sodipodi:cx="5" id="path4819" style="fill:red;fill-opacity:0.25157231;stroke:none" sodipodi:type="arc" transform="translate(59,20)" />
    <path transform="translate(51,16)" sodipodi:type="arc" style="fill:red;fill-opacity:0.25157231;stroke:none" id="path4821" sodipodi:cx="5" sodipodi:cy="5" sodipodi:rx="3" sodipodi:ry="3" d="M 8,5 A 3,3 0 1 1 2,5 3,3 0 1 1 8,5 z" />
    <path d="M 8,5 A 3,3 0 1 1 2,5 3,3 0 1 1 8,5 z" sodipodi:ry="3" sodipodi:rx="3" sodipodi:cy="5" sodipodi:cx="5" id="path4823" style="fill:red;fill-opacity:0.25157231;stroke:none" sodipodi:type="arc" transform="translate(51,24)" />
    <path d="M 8,5 A 3,3 0 1 1 2,5 3,3 0 1 1 8,5 z" sodipodi:ry="3" sodipodi:rx="3" sodipodi:cy="5" sodipodi:cx="5" id="path4825" style="fill:red;fill-opacity:0.25157231;stroke:none" sodipodi:type="arc" transform="translate(43,28)" />
    <path transform="translate(59,28)" sodipodi:type="arc" style="fill:red;fill-opacity:0.25157231;stroke:none" id="path4827" sodipodi:cx="5" sodipodi:cy="5" sodipodi:rx="3" sodipodi:ry="3" d="M 8,5 A 3,3 0 1 1 2,5 3,3 0 1 1 8,5 z" />
    <path style="fill:#4d4d4d;fill-opacity:0.50196081;stroke:none" d="M 9.15625 0 C 9.0444787 0.30886578 9 0.65063006 9 1 C 9 2.6568543 10.343146 4 12 4 C 13.356549 4 14.472797 3.0795027 14.84375 1.84375 C 14.570186 1.9258692 14.300305 2 14 2 C 12.698679 2 11.603011 1.1583479 11.1875 0 L 9.15625 0 z M 25.15625 0 C 25.044479 0.30886578 25 0.65063006 25 1 C 25 2.6568543 26.343146 4 28 4 C 29.356549 4 30.472797 3.0795027 30.84375 1.84375 C 30.570186 1.9258692 30.300305 2 30 2 C 28.698679 2 27.603011 1.1583479 27.1875 0 L 25.15625 0 z M 3.15625 2.15625 C 1.9204973 2.5272025 1 3.6434506 1 5 C 1 6.6568542 2.3431458 8 4 8 C 5.3565494 8 6.4727975 7.0795027 6.84375 5.84375 C 6.5701864 5.9258693 6.3003048 6 6 6 C 4.3431458 6 3 4.6568542 3 3 C 3 2.6996952 3.0741307 2.4298136 3.15625 2.15625 z M 19.15625 2.15625 C 17.920497 2.5272025 17 3.6434506 17 5 C 17 6.6568542 18.343146 8 20 8 C 21.356549 8 22.472797 7.0795027 22.84375 5.84375 C 22.570186 5.9258693 22.300305 6 22 6 C 20.343146 6 19 4.6568542 19 3 C 19 2.6996952 19.074131 2.4298136 19.15625 2.15625 z M 11.15625 6.15625 C 9.9204974 6.5272025 9 7.6434506 9 9 C 9 10.656854 10.343146 12 12 12 C 13.356549 12 14.472797 11.079503 14.84375 9.84375 C 14.570186 9.9258693 14.300305 10 14 10 C 12.343146 10 11 8.656854 11 7 C 11 6.6996952 11.074131 6.4298136 11.15625 6.15625 z M 27.15625 6.15625 C 25.920497 6.5272025 25 7.6434506 25 9 C 25 10.656854 26.343146 12 28 12 C 29.356549 12 30.472797 11.079503 30.84375 9.84375 C 30.570186 9.9258693 30.300305 10 30 10 C 28.343146 10 27 8.656854 27 7 C 27 6.6996952 27.074131 6.4298136 27.15625 6.15625 z M 3.15625 10.15625 C 1.9204973 10.527203 1 11.643451 1 13 C 1 14.656854 2.3431458 16 4 16 C 5.3565494 16 6.4727975 15.079503 6.84375 13.84375 C 6.5701864 13.925869 6.3003048 14 6 14 C 4.3431458 14 3 12.656854 3 11 C 3 10.699695 3.0741307 10.429814 3.15625 10.15625 z M 19.15625 10.15625 C 17.920497 10.527203 17 11.643451 17 13 C 17 14.656854 18.343146 16 20 16 C 21.356549 16 22.472797 15.079503 22.84375 13.84375 C 22.570186 13.925869 22.300305 14 22 14 C 20.343146 14 19 12.656854 19 11 C 19 10.699695 19.074131 10.429814 19.15625 10.15625 z M 11.15625 14.15625 C 9.9204974 14.527203 9 15.643451 9 17 C 9 18.656854 10.343146 20 12 20 C 13.356549 20 14.472797 19.079503 14.84375 17.84375 C 14.570186 17.925869 14.300305 18 14 18 C 12.343146 18 11 16.656854 11 15 C 11 14.699695 11.074131 14.429814 11.15625 14.15625 z M 27.15625 14.15625 C 25.920497 14.527203 25 15.643451 25 17 C 25 18.656854 26.343146 20 28 20 C 29.356549 20 30.472797 19.079503 30.84375 17.84375 C 30.570186 17.925869 30.300305 18 30 18 C 28.343146 18 27 16.656854 27 15 C 27 14.699695 27.074131 14.429814 27.15625 14.15625 z M 3.15625 18.15625 C 1.9204973 18.527203 1 19.643451 1 21 C 1 22.656854 2.3431458 24 4 24 C 5.3565494 24 6.4727975 23.079503 6.84375 21.84375 C 6.5701864 21.925869 6.3003048 22 6 22 C 4.3431458 22 3 20.656854 3 19 C 3 18.699695 3.0741307 18.429814 3.15625 18.15625 z M 19.15625 18.15625 C 17.920497 18.527203 17 19.643451 17 21 C 17 22.656854 18.343146 24 20 24 C 21.356549 24 22.472797 23.079503 22.84375 21.84375 C 22.570186 21.925869 22.300305 22 22 22 C 20.343146 22 19 20.656854 19 19 C 19 18.699695 19.074131 18.429814 19.15625 18.15625 z M 11.15625 22.15625 C 9.9204974 22.527203 9 23.643451 9 25 C 9 26.656854 10.343146 28 12 28 C 13.356549 28 14.472797 27.079503 14.84375 25.84375 C 14.570186 25.925869 14.300305 26 14 26 C 12.343146 26 11 24.656854 11 23 C 11 22.699695 11.074131 22.429814 11.15625 22.15625 z M 27.15625 22.15625 C 25.920497 22.527203 25 23.643451 25 25 C 25 26.656854 26.343146 28 28 28 C 29.356549 28 30.472797 27.079503 30.84375 25.84375 C 30.570186 25.925869 30.300305 26 30 26 C 28.343146 26 27 24.656854 27 23 C 27 22.699695 27.074131 22.429814 27.15625 22.15625 z M 3.15625 26.15625 C 1.9204973 26.527203 1 27.643451 1 29 C 1 30.656854 2.3431458 32 4 32 C 5.3565494 32 6.4727975 31.079503 6.84375 29.84375 C 6.5701864 29.925869 6.3003048 30 6 30 C 4.3431458 30 3 28.656854 3 27 C 3 26.699695 3.0741307 26.429814 3.15625 26.15625 z M 19.15625 26.15625 C 17.920497 26.527203 17 27.643451 17 29 C 17 30.656854 18.343146 32 20 32 C 21.356549 32 22.472797 31.079503 22.84375 29.84375 C 22.570186 29.925869 22.300305 30 22 30 C 20.343146 30 19 28.656854 19 27 C 19 26.699695 19.074131 26.429814 19.15625 26.15625 z M 11.15625 30.15625 C 10.238757 30.431667 9.4784694 31.109588 9.15625 32 L 11.1875 32 C 11.073979 31.683528 11 31.355533 11 31 C 11 30.699695 11.074131 30.429814 11.15625 30.15625 z M 27.15625 30.15625 C 26.238757 30.431667 25.478469 31.109588 25.15625 32 L 27.1875 32 C 27.073979 31.683528 27 31.355533 27 31 C 27 30.699695 27.074131 30.429814 27.15625 30.15625 z " id="path4840" />
  </g>
</svg>
