<?xml version="1.0" encoding="UTF-8" standalone="no"?>
<!-- Created with Inkscape (http://www.inkscape.org/) -->

<svg
   xmlns:dc="http://purl.org/dc/elements/1.1/"
   xmlns:cc="http://creativecommons.org/ns#"
   xmlns:rdf="http://www.w3.org/1999/02/22-rdf-syntax-ns#"
   xmlns:svg="http://www.w3.org/2000/svg"
   xmlns="http://www.w3.org/2000/svg"
   xmlns:sodipodi="http://sodipodi.sourceforge.net/DTD/sodipodi-0.dtd"
   xmlns:inkscape="http://www.inkscape.org/namespaces/inkscape"
   width="64"
   height="64"
   id="svg3505"
   sodipodi:version="0.32"
   inkscape:version="0.47 r22583"
   sodipodi:docname="castle.svg"
   inkscape:output_extension="org.inkscape.output.svg.inkscape"
   version="1.0">
  <title
     id="title2851">Ghosts' Castle for McMinos</title>
  <defs
     id="defs3507">
    <inkscape:perspective
       sodipodi:type="inkscape:persp3d"
       inkscape:vp_x="0 : 16 : 1"
       inkscape:vp_y="0 : 1000 : 0"
       inkscape:vp_z="32 : 16 : 1"
       inkscape:persp3d-origin="16 : 10.666667 : 1"
       id="perspective3513" />
    <inkscape:perspective
       id="perspective4690"
       inkscape:persp3d-origin="372.04724 : 350.78739 : 1"
       inkscape:vp_z="744.09448 : 526.18109 : 1"
       inkscape:vp_y="0 : 1000 : 0"
       inkscape:vp_x="0 : 526.18109 : 1"
       sodipodi:type="inkscape:persp3d" />
    <inkscape:perspective
       id="perspective7260"
       inkscape:persp3d-origin="372.04724 : 350.78739 : 1"
       inkscape:vp_z="744.09448 : 526.18109 : 1"
       inkscape:vp_y="0 : 1000 : 0"
       inkscape:vp_x="0 : 526.18109 : 1"
       sodipodi:type="inkscape:persp3d" />
  </defs>
  <sodipodi:namedview
     id="base"
     pagecolor="#ffffff"
     bordercolor="#666666"
     borderopacity="1.0"
     inkscape:pageopacity="0.0"
     inkscape:pageshadow="2"
     inkscape:zoom="9.5932419"
     inkscape:cx="32.262295"
     inkscape:cy="32"
     inkscape:current-layer="layer1"
     showgrid="true"
     inkscape:grid-bbox="true"
     inkscape:document-units="px"
     objecttolerance="4"
     gridtolerance="4"
     guidetolerance="4"
     inkscape:window-width="1600"
     inkscape:window-height="840"
     inkscape:window-x="0"
     inkscape:window-y="0"
     inkscape:object-paths="true"
     inkscape:object-nodes="true"
     inkscape:snap-bbox="true"
     inkscape:snap-guide="true"
     inkscape:bbox-paths="true"
     inkscape:bbox-nodes="true"
     showguides="true"
     inkscape:guide-bbox="true"
     inkscape:window-maximized="1">
    <inkscape:grid
       type="xygrid"
       id="grid3515"
       units="px"
       visible="true"
       enabled="true"
       spacingx="1px"
       spacingy="1px"
       empspacing="4"
       snapvisiblegridlinesonly="true" />
    <sodipodi:guide
       orientation="1,0"
       position="32,64"
       id="guide2843" />
    <sodipodi:guide
       orientation="0,1"
       position="0,32"
       id="guide2845" />
  </sodipodi:namedview>
  <metadata
     id="metadata3510">
    <rdf:RDF>
      <cc:Work
         rdf:about="">
        <dc:format>image/svg+xml</dc:format>
        <dc:type
           rdf:resource="http://purl.org/dc/dcmitype/StillImage" />
        <dc:title>Ghosts' Castle for McMinos</dc:title>
        <dc:date>2010-08-08</dc:date>
        <dc:creator>
          <cc:Agent>
            <dc:title>Andreas Neudecker &lt;zapyon@gmx.net&gt;</dc:title>
          </cc:Agent>
        </dc:creator>
        <dc:rights>
          <cc:Agent>
            <dc:title>Copyright (C) 2010 by Andreas Neudecker</dc:title>
          </cc:Agent>
        </dc:rights>
        <dc:publisher>
          <cc:Agent>
            <dc:title>Andreas Neudecker</dc:title>
          </cc:Agent>
        </dc:publisher>
        <dc:identifier>castle-00</dc:identifier>
        <dc:description>Ghosts' Castle for McMinos</dc:description>
      </cc:Work>
    </rdf:RDF>
  </metadata>
  <g
     id="layer1"
     inkscape:label="Schloss NEU"
     inkscape:groupmode="layer"
     style="display:inline">
    <g
       id="g5199">
      <path
         style="opacity:1;fill:#c0c0c0;fill-opacity:1;fill-rule:nonzero;stroke:#000000;stroke-width:2;stroke-linecap:round;stroke-linejoin:round;stroke-miterlimit:4;stroke-dasharray:none;stroke-dashoffset:0;stroke-opacity:1"
         d="M 28,1 C 26.338,1 25,2.3353079 25,3.9939637 L 25,8.1106638 L 16,8.1106638 L 16,4.1187122 C 16,2.4600563 14.662,1.1247485 13,1.1247485 L 4,1.1247485 C 2.338,1.1247485 1,2.4600563 1,4.1187122 L 1,15.096579 C 1,16.755235 2.338,18.090543 4,18.090543 L 7,18.090543 L 7,46.813882 C 6.3916789,47.361083 6,48.142738 6,49.028168 L 6,60.006035 C 6,61.66469 7.338,62.999998 9,62.999998 L 18,62.999998 L 54,62.999998 L 55,62.999998 C 56.662,62.999998 58,61.66469 58,60.006035 L 58,49.028168 C 58,48.142738 57.608321,47.361083 57,46.813882 L 57,18.090543 L 60,18.090543 C 61.662,18.090543 63,16.755235 63,15.096579 L 63,4.1187122 C 63,2.4600563 61.662,1.1247485 60,1.1247485 L 51,1.1247485 C 49.338,1.1247485 48,2.4600563 48,4.1187122 L 48,8.1106638 L 40,8.1106638 L 40,3.9939637 C 40,2.3353078 38.662,1 37,1 L 28,1 z"
         id="path5012" />
      <path
         id="rect4169"
         d="M 28,1 C 26.338,1 25,2.3353079 25,3.9939638 L 25,8.110664 L 16,8.110664 L 16,4.1187123 C 16,2.4600563 14.662,1.1247485 13,1.1247485 L 4,1.1247485 C 2.338,1.1247485 1,2.4600563 1,4.1187123 L 1,15.096579 C 1,16.755235 2.338,18.090543 4,18.090543 L 7,18.090543 L 7,46.813883 C 6.3916789,47.361084 6,48.142739 6,49.028169 L 6,60.006036 C 6,61.664692 7.338,63 9,63 L 18,63 L 54,63 L 55,63 C 56.662,63 58,61.664692 58,60.006036 L 58,49.028169 C 58,48.142739 57.608321,47.361084 57,46.813883 L 57,18.090543 L 60,18.090543 C 61.662,18.090543 63,16.755235 63,15.096579 L 63,4.1187123 C 63,2.4600563 61.662,1.1247485 60,1.1247485 L 51,1.1247485 C 49.338,1.1247485 48,2.4600563 48,4.1187123 L 48,8.110664 L 40,8.110664 L 40,3.9939638 C 40,2.3353078 38.662,1 37,1 L 28,1 z"
         style="opacity:1;fill:#c0c0c0;fill-opacity:1;fill-rule:nonzero;stroke:none;stroke-width:2;stroke-linecap:round;stroke-linejoin:miter;stroke-miterlimit:4;stroke-dasharray:none;stroke-dashoffset:0;stroke-opacity:0.50196078" />
      <path
         style="opacity:1;fill:#000082;fill-opacity:1;fill-rule:nonzero;stroke:none;stroke-width:2;stroke-linecap:round;stroke-linejoin:miter;stroke-miterlimit:4;stroke-dasharray:none;stroke-dashoffset:0;stroke-opacity:0.50196078"
         d="M 35.5,32.5 L 48.5,32.5 C 48.5,32.5 48.5,19.5 42,19.5 C 35.792672,19.5 35.5,32.5 35.5,32.5 z"
         id="path4953"
         sodipodi:nodetypes="cczc" />
      <path
         id="path5078"
         d="M 42.015589,19 C 40.238047,19 38.819925,19.99061 37.868596,21.28125 C 36.917268,22.57189 36.314033,24.177923 35.904231,25.75 C 35.08463,28.894154 35.03118,31.96875 35.03118,31.96875 L 35,33 L 36.028953,33 L 48.002225,33 L 48.999998,33 L 48.999998,32 C 48.999998,32 49.006778,28.902179 48.220488,25.75 C 47.827344,24.17391 47.256889,22.576917 46.287304,21.28125 C 45.317718,19.985583 43.844839,19 42.015589,19 z M 41.485522,20.03125 C 41.495381,20.029919 41.506809,20.032505 41.516703,20.03125 L 41.516703,25.5 L 36.995545,25.5 C 37.754496,22.859424 39.110561,20.351886 41.485522,20.03125 z M 42.514476,20.03125 C 45.00999,20.334479 46.356059,22.853537 47.097994,25.5 L 42.514476,25.5 L 42.514476,20.03125 z M 36.777283,26.5 L 41.516703,26.5 L 41.516703,32 L 36.028953,32 C 36.028953,32 36.114844,29.324319 36.777283,26.5 z M 42.514476,26.5 L 47.378617,26.5 C 48.008722,29.31826 48.002225,32 48.002225,32 L 42.514476,32 L 42.514476,26.5 z"
         style="opacity:1;fill:#603600;fill-opacity:1;fill-rule:nonzero;stroke:none;stroke-width:2;stroke-linecap:round;stroke-linejoin:miter;stroke-miterlimit:4;stroke-dasharray:none;stroke-dashoffset:0;stroke-opacity:1" />
      <path
         sodipodi:nodetypes="cczc"
         id="path4951"
         d="M 12,60 L 36,60 C 36,60 36,36 24,36 C 12.540319,36 12,60 12,60 z"
         style="fill:#ff0000;fill-opacity:0.50196078;fill-rule:nonzero;stroke:#603600;stroke-width:2;stroke-linecap:round;stroke-linejoin:miter;stroke-miterlimit:4;stroke-dasharray:none;stroke-dashoffset:0;stroke-opacity:1" />
      <path
         id="rect5018"
         d="M 24,36 L 24,60 L 27,60 L 27,36.5625 C 26.093247,36.196929 25.09875,36 24,36 z M 22.96875,36.0625 C 21.879185,36.209271 20.884084,36.599859 20,37.15625 L 20,60 L 23,60 L 23,36.0625 C 22.989803,36.063831 22.978928,36.061129 22.96875,36.0625 z M 28,37.0625 L 28,60 L 31,60 L 31,39.84375 C 30.150765,38.691239 29.162527,37.735272 28,37.0625 z M 19,37.875 C 17.807144,38.889821 16.822548,40.257927 16,41.8125 L 16,60 L 19,60 L 19,37.875 z M 32,41.40625 L 32,60 L 35,60 L 35,50.25 C 34.413818,47.235352 33.469525,44.013828 32,41.40625 z M 15,44.03125 C 12.211744,51.00839 12,60 12,60 L 15,60 L 15,44.03125 z"
         style="fill:#c07000;fill-opacity:1;fill-rule:nonzero;stroke:none;stroke-width:2;stroke-linecap:round;stroke-linejoin:round;stroke-miterlimit:4;stroke-dasharray:none;stroke-dashoffset:0;stroke-opacity:1" />
      <path
         id="rect5016"
         d="M 24,36 C 23.652697,36 23.327533,36.019749 23,36.0625 L 23,60 L 24,60 L 24,36 z M 27,36.5625 L 27,60 L 28,60 L 28,37.0625 C 27.681017,36.8779 27.344925,36.701562 27,36.5625 z M 20,37.15625 C 19.656022,37.37273 19.315121,37.606911 19,37.875 L 19,60 L 20,60 L 20,37.15625 z M 31,39.84375 L 31,60 L 32,60 L 32,41.40625 C 31.68928,40.854896 31.361016,40.333691 31,39.84375 z M 16,41.8125 C 15.627611,42.516296 15.306664,43.263876 15,44.03125 L 15,60 L 16,60 L 16,41.8125 z M 35,50.25 L 35,60 L 36,60 C 36,60 36.004883,55.417969 35,50.25 z"
         style="fill:#804b00;fill-opacity:1;fill-rule:nonzero;stroke:none;stroke-width:2;stroke-linecap:round;stroke-linejoin:round;stroke-miterlimit:4;stroke-dasharray:none;stroke-dashoffset:0;stroke-opacity:1" />
      <path
         sodipodi:type="arc"
         style="fill:#a0a0a0;fill-opacity:1;fill-rule:nonzero;stroke:#303030;stroke-width:2;stroke-linecap:round;stroke-linejoin:miter;stroke-miterlimit:4;stroke-dasharray:none;stroke-dashoffset:0;stroke-opacity:1"
         id="path5192"
         sodipodi:cx="24"
         sodipodi:cy="52"
         sodipodi:rx="2.0983605"
         sodipodi:ry="2.0983605"
         d="M 26.098361,52 A 2.0983605,2.0983605 0 1 1 21.901639,52 A 2.0983605,2.0983605 0 1 1 26.098361,52 z"
         transform="matrix(0.9531251,0,0,0.9531251,1.1249987,2.4374947)" />
      <path
         transform="matrix(0.9531251,0,0,0.9531251,1.1249987,2.4374947)"
         d="M 26.098361,52 A 2.0983605,2.0983605 0 1 1 21.901639,52 A 2.0983605,2.0983605 0 1 1 26.098361,52 z"
         sodipodi:ry="2.0983605"
         sodipodi:rx="2.0983605"
         sodipodi:cy="52"
         sodipodi:cx="24"
         id="path4957"
         style="fill:#a0a0a0;fill-opacity:1;fill-rule:nonzero;stroke:none;stroke-width:2;stroke-linecap:round;stroke-linejoin:miter;stroke-miterlimit:4;stroke-dasharray:none;stroke-dashoffset:0;stroke-opacity:0.50196078"
         sodipodi:type="arc" />
      <path
         id="path4959"
         d="M 23.1875,50.1875 C 22.490371,50.500109 21.999999,51.186943 22,52 C 22,53.104 22.895999,54 24,54 C 24.813057,54 25.49989,53.509628 25.8125,52.8125 C 25.563041,52.924363 25.290943,53 25,53 C 23.896,53 23,52.104 23,51 C 23,50.709057 23.075637,50.436959 23.1875,50.1875 z"
         style="fill:#606060;fill-opacity:1;fill-rule:nonzero;stroke:none;stroke-width:2;stroke-linecap:round;stroke-linejoin:miter;stroke-miterlimit:4;stroke-dasharray:none;stroke-dashoffset:0;stroke-opacity:0.50196078" />
      <rect
         ry="3"
         rx="3"
         y="1"
         x="1"
         height="9"
         width="15"
         id="rect5105"
         style="opacity:1;fill:#a0a0a0;fill-opacity:1;fill-rule:nonzero;stroke:none;stroke-width:2;stroke-linecap:round;stroke-linejoin:round;stroke-miterlimit:4;stroke-dasharray:none;stroke-dashoffset:0;stroke-opacity:1" />
      <path
         id="rect5107"
         d="M 1,11 L 1,15 C 1,16.662 2.338,18 4,18 L 7,18 L 8,18 C 9.662,18 11,16.662 11,15 L 11,14 C 11,12.338 9.662,11 8,11 L 1,11 z"
         style="opacity:1;fill:#f0f0f0;fill-opacity:1;fill-rule:nonzero;stroke:none;stroke-width:2;stroke-linecap:round;stroke-linejoin:round;stroke-miterlimit:4;stroke-dasharray:none;stroke-dashoffset:0;stroke-opacity:1" />
      <path
         id="rect5111"
         d="M 28,1 C 26.338,1 25,2.3413441 25,4 L 25,8.125 L 20.25,8.125 C 20.697722,9.2168769 21.743113,10 23,10 L 32,10 C 33.662,10 35,8.662 35,7 L 35,4 C 35,2.338 33.662,1 32,1 L 28,1 z"
         style="opacity:1;fill:#a0a0a0;fill-opacity:1;fill-rule:nonzero;stroke:none;stroke-width:2;stroke-linecap:round;stroke-linejoin:round;stroke-miterlimit:4;stroke-dasharray:none;stroke-dashoffset:0;stroke-opacity:1" />
      <path
         id="rect5116"
         d="M 7,20 L 7,27 L 12,27 C 13.662,27 15,25.662 15,24 L 15,23 C 15,21.338 13.662,20 12,20 L 7,20 z"
         style="opacity:1;fill:#dedede;fill-opacity:1;fill-rule:nonzero;stroke:none;stroke-width:2;stroke-linecap:round;stroke-linejoin:round;stroke-miterlimit:4;stroke-dasharray:none;stroke-dashoffset:0;stroke-opacity:1" />
      <rect
         ry="3"
         rx="3"
         y="9.04918"
         x="48"
         height="9"
         width="15"
         id="rect5121"
         style="opacity:1;fill:#dedede;fill-opacity:1;fill-rule:nonzero;stroke:none;stroke-width:2;stroke-linecap:round;stroke-linejoin:round;stroke-miterlimit:4;stroke-dasharray:none;stroke-dashoffset:0;stroke-opacity:1" />
      <path
         id="rect5123"
         d="M 7,28 L 7,37 L 8,37 C 9.662,37 11,35.662 11,34 L 11,31 C 11,29.338 9.662,28 8,28 L 7,28 z"
         style="opacity:1;fill:#a0a0a0;fill-opacity:1;fill-rule:nonzero;stroke:none;stroke-width:2;stroke-linecap:round;stroke-linejoin:round;stroke-miterlimit:4;stroke-dasharray:none;stroke-dashoffset:0;stroke-opacity:1" />
      <path
         id="rect5125"
         d="M 38,1.1875 C 36.840521,1.6018343 36,2.6946375 36,4 L 36,5 C 36,6.662 37.338,8 39,8 L 40,8 L 40,4 C 40,2.697264 39.159479,1.6010006 38,1.1875 z M 49.625,1.46875 C 48.666894,1.9675469 48,2.9678633 48,4.125 L 48,8 C 49.662,8 51,6.662 51,5 L 51,4 C 51,2.9365319 50.454998,2.0012478 49.625,1.46875 z"
         style="opacity:1;fill:#dedede;fill-opacity:1;fill-rule:nonzero;stroke:none;stroke-width:2;stroke-linecap:round;stroke-linejoin:round;stroke-miterlimit:4;stroke-dasharray:none;stroke-dashoffset:0;stroke-opacity:1" />
      <path
         id="rect5133"
         d="M 54.21875,1.125 C 52.947222,1.4731944 52,2.615 52,4 L 52,5 C 52,6.662 53.338,8 55,8 L 63,8 L 63,4.125 C 63,2.4663439 61.662,1.125 60,1.125 L 54.21875,1.125 z"
         style="opacity:1;fill:#a0a0a0;fill-opacity:1;fill-rule:nonzero;stroke:none;stroke-width:2;stroke-linecap:round;stroke-linejoin:round;stroke-miterlimit:4;stroke-dasharray:none;stroke-dashoffset:0;stroke-opacity:1" />
      <path
         id="rect5138"
         d="M 7,37.5 L 7,46.5 L 9,46.5 C 10.662,46.5 12,45.162 12,43.5 L 12,40.5 C 12,38.838 10.662,37.5 9,37.5 L 7,37.5 z"
         style="opacity:1;fill:#dedede;fill-opacity:1;fill-rule:nonzero;stroke:none;stroke-width:2;stroke-linecap:round;stroke-linejoin:round;stroke-miterlimit:4;stroke-dasharray:none;stroke-dashoffset:0;stroke-opacity:1" />
      <path
         id="rect5140"
         d="M 6.1875,48 C 6.0700349,48.316591 6,48.671679 6,49.03125 L 6,60 C 6,61.347659 6.9023081,62.465804 8.125,62.84375 C 9.3476919,62.465042 10.25,61.350375 10.25,60 L 10.25,51 C 10.25,49.338 8.912,48 7.25,48 L 6.1875,48 z"
         style="opacity:1;fill:#808080;fill-opacity:1;fill-rule:nonzero;stroke:none;stroke-width:2;stroke-linecap:round;stroke-linejoin:round;stroke-miterlimit:4;stroke-dasharray:none;stroke-dashoffset:0;stroke-opacity:1" />
      <rect
         ry="3"
         rx="3"
         y="54"
         x="43.016392"
         height="9"
         width="15"
         id="rect5148"
         style="opacity:1;fill:#808080;fill-opacity:1;fill-rule:nonzero;stroke:none;stroke-width:2;stroke-linecap:round;stroke-linejoin:round;stroke-miterlimit:4;stroke-dasharray:none;stroke-dashoffset:0;stroke-opacity:1" />
      <path
         id="rect5150"
         d="M 56,20 C 54.338,20 53,21.338 53,23 L 53,26 C 53,27.662 54.338,29 56,29 L 57,29 L 57,20 L 56,20 z"
         style="opacity:1;fill:#808080;fill-opacity:1;fill-rule:nonzero;stroke:none;stroke-width:2;stroke-linecap:round;stroke-linejoin:round;stroke-miterlimit:4;stroke-dasharray:none;stroke-dashoffset:0;stroke-opacity:1" />
      <path
         id="rect5155"
         d="M 55,30 C 53.338,30 52,31.338 52,33 L 52,34 C 52,35.662 53.338,37 55,37 L 57,37 L 57,30 L 55,30 z"
         style="opacity:1;fill:#a0a0a0;fill-opacity:1;fill-rule:nonzero;stroke:none;stroke-width:2;stroke-linecap:round;stroke-linejoin:round;stroke-miterlimit:4;stroke-dasharray:none;stroke-dashoffset:0;stroke-opacity:1" />
      <path
         id="rect5157"
         d="M 53.15625,38 C 51.49425,38 50.15625,39.338 50.15625,41 L 50.15625,42 C 50.15625,43.662 51.49425,45 53.15625,45 L 57,45 L 57,38 L 53.15625,38 z"
         style="opacity:1;fill:#dedede;fill-opacity:1;fill-rule:nonzero;stroke:none;stroke-width:2;stroke-linecap:round;stroke-linejoin:round;stroke-miterlimit:4;stroke-dasharray:none;stroke-dashoffset:0;stroke-opacity:1" />
      <rect
         style="opacity:1;fill:#a0a0a0;fill-opacity:1;fill-rule:nonzero;stroke:none;stroke-width:2;stroke-linecap:round;stroke-linejoin:round;stroke-miterlimit:4;stroke-dasharray:none;stroke-dashoffset:0;stroke-opacity:1"
         id="rect5165"
         width="15"
         height="7"
         x="16"
         y="19.016394"
         rx="3"
         ry="3" />
      <path
         id="rect5167"
         d="M 57.1875,47.03125 C 55.709227,47.219633 54.5625,48.468911 54.5625,50 L 54.5625,51 C 54.5625,52.662 55.9005,54 57.5625,54 L 58,54 L 58,49.03125 C 58,48.248634 57.678629,47.56148 57.1875,47.03125 z"
         style="opacity:1;fill:#a0a0a0;fill-opacity:1;fill-rule:nonzero;stroke:none;stroke-width:2;stroke-linecap:round;stroke-linejoin:round;stroke-miterlimit:4;stroke-dasharray:none;stroke-dashoffset:0;stroke-opacity:1" />
      <path
         transform="matrix(0.8424989,0,0,0.8359442,3.780027,8.5309019)"
         d="M 25.780418,51.10281 A 0.8902089,0.89718908 0 1 1 24,51.10281 A 0.8902089,0.89718908 0 1 1 25.780418,51.10281 z"
         sodipodi:ry="0.89718908"
         sodipodi:rx="0.8902089"
         sodipodi:cy="51.10281"
         sodipodi:cx="24.890209"
         id="path5190"
         style="opacity:1;fill:#ffffff;fill-opacity:1;fill-rule:nonzero;stroke:none;stroke-width:2;stroke-linecap:round;stroke-linejoin:round;stroke-miterlimit:4;stroke-dasharray:none;stroke-dashoffset:0;stroke-opacity:1"
         sodipodi:type="arc" />
    </g>
  </g>
</svg>
