<?xml version="1.0" encoding="UTF-8" standalone="no"?>
<!-- Created with Inkscape (http://www.inkscape.org/) -->

<svg
   xmlns:dc="http://purl.org/dc/elements/1.1/"
   xmlns:cc="http://creativecommons.org/ns#"
   xmlns:rdf="http://www.w3.org/1999/02/22-rdf-syntax-ns#"
   xmlns:svg="http://www.w3.org/2000/svg"
   xmlns="http://www.w3.org/2000/svg"
   xmlns:sodipodi="http://sodipodi.sourceforge.net/DTD/sodipodi-0.dtd"
   xmlns:inkscape="http://www.inkscape.org/namespaces/inkscape"
   width="32px"
   height="32px"
   id="svg3505"
   sodipodi:version="0.32"
   inkscape:version="0.47 r22583"
   sodipodi:docname="__version-2-shine-through-00.svg"
   inkscape:output_extension="org.inkscape.output.svg.inkscape"
   version="1.1">
  <title
     id="title9320">McMinos Disguised as Ghost With a Cloak (version 2)</title>
  <defs
     id="defs3507">
    <inkscape:perspective
       sodipodi:type="inkscape:persp3d"
       inkscape:vp_x="0 : 16 : 1"
       inkscape:vp_y="0 : 1000 : 0"
       inkscape:vp_z="32 : 16 : 1"
       inkscape:persp3d-origin="16 : 10.666667 : 1"
       id="perspective2836" />
    <inkscape:perspective
       id="perspective2899"
       inkscape:persp3d-origin="0.5 : 0.33333333 : 1"
       inkscape:vp_z="1 : 0.5 : 1"
       inkscape:vp_y="0 : 1000 : 0"
       inkscape:vp_x="0 : 0.5 : 1"
       sodipodi:type="inkscape:persp3d" />
    <inkscape:perspective
       id="perspective3072"
       inkscape:persp3d-origin="0.5 : 0.33333333 : 1"
       inkscape:vp_z="1 : 0.5 : 1"
       inkscape:vp_y="0 : 1000 : 0"
       inkscape:vp_x="0 : 0.5 : 1"
       sodipodi:type="inkscape:persp3d" />
    <inkscape:perspective
       id="perspective3411"
       inkscape:persp3d-origin="0.5 : 0.33333333 : 1"
       inkscape:vp_z="1 : 0.5 : 1"
       inkscape:vp_y="0 : 1000 : 0"
       inkscape:vp_x="0 : 0.5 : 1"
       sodipodi:type="inkscape:persp3d" />
    <inkscape:perspective
       id="perspective3678"
       inkscape:persp3d-origin="0.5 : 0.33333333 : 1"
       inkscape:vp_z="1 : 0.5 : 1"
       inkscape:vp_y="0 : 1000 : 0"
       inkscape:vp_x="0 : 0.5 : 1"
       sodipodi:type="inkscape:persp3d" />
  </defs>
  <sodipodi:namedview
     id="base"
     pagecolor="#ffffff"
     bordercolor="#666666"
     borderopacity="1.0"
     inkscape:pageopacity="0.0"
     inkscape:pageshadow="2"
     inkscape:zoom="18.59375"
     inkscape:cx="16"
     inkscape:cy="16"
     inkscape:current-layer="layer1"
     showgrid="true"
     inkscape:grid-bbox="true"
     inkscape:document-units="px"
     objecttolerance="4"
     gridtolerance="4"
     guidetolerance="4"
     inkscape:window-width="822"
     inkscape:window-height="836"
     inkscape:window-x="0"
     inkscape:window-y="0"
     inkscape:object-paths="true"
     inkscape:object-nodes="true"
     inkscape:snap-bbox="true"
     inkscape:snap-guide="true"
     showguides="true"
     inkscape:guide-bbox="true"
     inkscape:window-maximized="0">
    <inkscape:grid
       type="xygrid"
       id="grid3515"
       units="px"
       visible="true"
       enabled="true"
       spacingx="1px"
       spacingy="1px"
       empspacing="4"
       snapvisiblegridlinesonly="true" />
  </sodipodi:namedview>
  <metadata
     id="metadata3510">
    <rdf:RDF>
      <cc:Work
         rdf:about="">
        <dc:format>image/svg+xml</dc:format>
        <dc:type
           rdf:resource="http://purl.org/dc/dcmitype/StillImage" />
        <dc:title>McMinos Disguised as Ghost With a Cloak (version 2)</dc:title>
        <dc:date>2010-10-25</dc:date>
        <dc:creator>
          <cc:Agent>
            <dc:title>Andreas Neudecker &lt;zapyon@gmx.net&gt;</dc:title>
          </cc:Agent>
        </dc:creator>
        <dc:rights>
          <cc:Agent>
            <dc:title>Copyright (C) 2010 by Andreas Neudecker</dc:title>
          </cc:Agent>
        </dc:rights>
        <dc:publisher>
          <cc:Agent>
            <dc:title>Andreas Neudecker</dc:title>
          </cc:Agent>
        </dc:publisher>
        <dc:identifier>mcminos-cloaked-front-00</dc:identifier>
        <dc:description>McMinos disguised as ghost with cloak (version 2).</dc:description>
      </cc:Work>
    </rdf:RDF>
  </metadata>
  <g
     id="layer1"
     inkscape:label="Layer 1"
     inkscape:groupmode="layer">
    <g
       id="g6534">
      <path
         id="path3790"
         d="M 16 0 C 7.1752911 -4.0479005e-07 4.2609478e-07 7.1752912 0 16 L 0 29 L 0 30 L 1 30 C 1.7100589 30 2.2670244 29.553587 2.59375 29.15625 C 2.9204756 28.758913 3.1403472 28.339131 3.34375 27.96875 C 3.5471528 27.598369 3.7335437 27.286266 3.875 27.125 C 4.0164563 26.963734 4 27 4 27 C 4 27 3.961952 26.96863 4.09375 27.125 C 4.2255483 27.281369 4.4267767 27.59375 4.625 27.96875 C 4.8232233 28.34375 5.0326866 28.781369 5.375 29.1875 C 5.7173134 29.593631 6.2928932 30 7 30 C 7.6383 30 8.1965603 29.642805 8.53125 29.28125 C 8.6243678 29.180658 8.6430771 29.071707 8.71875 28.96875 C 10.887861 30.195778 13.327298 31 16 31 C 18.672702 31 21.112139 30.195778 23.28125 28.96875 C 23.35692 29.071707 23.37563 29.180658 23.46875 29.28125 C 23.80344 29.642805 24.3617 30 25 30 C 25.707107 30 26.282687 29.593631 26.625 29.1875 C 26.967313 28.781369 27.176777 28.34375 27.375 27.96875 C 27.573223 27.59375 27.774452 27.281369 27.90625 27.125 C 28.038048 26.968631 28 27 28 27 C 28 27 27.98778 26.96585 28.125 27.125 C 28.262223 27.284151 28.455096 27.596386 28.65625 27.96875 C 28.857404 28.341114 29.072711 28.755001 29.40625 29.15625 C 29.739789 29.557499 30.291991 30 31 30 L 32 30 L 32 29 L 32 16 C 32 7.1752914 24.824709 4.2609479e-07 16 0 z M 16 1 C 24.284268 1.0000004 31 7.715732 31 16 L 31 29 C 29.655462 29 29.414214 26 28 26 C 26.585786 26 26.414214 29 25 29 C 23.585786 29 23.414214 26 22 26 C 20.585786 26 20.414214 29 19 29 C 17.585786 29 17.414214 26 16 26 C 14.585786 26 14.414214 29 13 29 C 11.585786 29 11.414214 26 10 26 C 8.5857864 26 8.4142136 29 7 29 C 5.5857864 29 5.4142136 26 4 26 C 2.5857864 26 2.2907563 29 1 29 L 1 16 C 1.0000004 7.7157317 7.7157317 0.99999962 16 1 z M 9 5 C 6.2385763 5 4 7.2385763 4 10 C 4 12.761424 6.2385763 15 9 15 C 11.761424 15 14 12.761424 14 10 C 14 7.2385763 11.761424 5 9 5 z M 23 5 C 20.238576 5 18 7.2385763 18 10 C 18 12.761424 20.238576 15 23 15 C 25.761424 15 28 12.761424 28 10 C 28 7.2385763 25.761424 5 23 5 z "
         style="font-size:medium;font-style:normal;font-variant:normal;font-weight:normal;font-stretch:normal;text-indent:0;text-align:start;text-decoration:none;line-height:normal;letter-spacing:normal;word-spacing:normal;text-transform:none;direction:ltr;block-progression:tb;writing-mode:lr-tb;text-anchor:start;color:#000000;fill:#000000;fill-opacity:1;fill-rule:nonzero;stroke:none;stroke-width:2;marker:none;visibility:visible;display:inline;overflow:visible;enable-background:accumulate;font-family:Bitstream Vera Sans;-inkscape-font-specification:Bitstream Vera Sans" />
      <path
         transform="matrix(1.0440591,0,0,0.9999439,-255.76471,-120.05549)"
         d="m 274.6633,136.06313 a 14.367003,15.000842 0 1 1 -28.73401,0 14.367003,15.000842 0 1 1 28.73401,0 z"
         sodipodi:ry="15.000842"
         sodipodi:rx="14.367003"
         sodipodi:cy="136.06313"
         sodipodi:cx="260.2963"
         id="path4818"
         style="fill:#000000;fill-opacity:1;fill-rule:nonzero;stroke:none"
         sodipodi:type="arc" />
      <path
         transform="matrix(2.0024876,0,0,2.0024876,0.04974722,-0.01990512)"
         d="M 14.956522,8 A 6.9913044,6.9913044 0 1 1 0.97391319,8 6.9913044,6.9913044 0 1 1 14.956522,8 z"
         sodipodi:ry="6.9913044"
         sodipodi:rx="6.9913044"
         sodipodi:cy="8"
         sodipodi:cx="7.9652176"
         id="path3403"
         style="fill:#ff0000;fill-opacity:1;fill-rule:nonzero;stroke:none"
         sodipodi:type="arc" />
      <path
         sodipodi:open="true"
         sodipodi:end="3.1415927"
         sodipodi:start="0"
         transform="matrix(3.127226,0,0,-1.8245378e-6,-72.05343,16.000102)"
         d="m 32.314078,51.823883 a 4.1570387,3.8238845 0 1 1 -8.314077,0"
         sodipodi:ry="3.8238845"
         sodipodi:rx="4.1570387"
         sodipodi:cy="51.823883"
         sodipodi:cx="28.15704"
         id="path3429"
         style="fill:#ffffff;fill-opacity:1;fill-rule:nonzero;stroke:none"
         sodipodi:type="arc" />
      <path
         d="M 10,5 A 2,2 0 1 1 6,5 2,2 0 1 1 10,5 z"
         sodipodi:ry="2"
         sodipodi:rx="2"
         sodipodi:cy="5"
         sodipodi:cx="8"
         id="path3407"
         style="fill:#ffffff;fill-opacity:1;fill-rule:nonzero;stroke:none"
         sodipodi:type="arc"
         transform="matrix(1.4999974,0,0,1.4999974,-2.9999823,2.5000077)" />
      <path
         transform="matrix(1.4999974,0,0,1.4999974,11.000017,2.5000077)"
         sodipodi:type="arc"
         style="fill:#ffffff;fill-opacity:1;fill-rule:nonzero;stroke:none"
         id="path3425"
         sodipodi:cx="8"
         sodipodi:cy="5"
         sodipodi:rx="2"
         sodipodi:ry="2"
         d="M 10,5 A 2,2 0 1 1 6,5 2,2 0 1 1 10,5 z" />
      <path
         transform="matrix(2,0,0,2,-7,0)"
         d="M 9,5 A 1,1 0 1 1 7,5 1,1 0 1 1 9,5 z"
         sodipodi:ry="1"
         sodipodi:rx="1"
         sodipodi:cy="5"
         sodipodi:cx="8"
         id="path3409"
         style="fill:#000000;fill-opacity:1;fill-rule:nonzero;stroke:none"
         sodipodi:type="arc" />
      <path
         sodipodi:type="arc"
         style="fill:#000000;fill-opacity:1;fill-rule:nonzero;stroke:none"
         id="path3427"
         sodipodi:cx="8"
         sodipodi:cy="5"
         sodipodi:rx="1"
         sodipodi:ry="1"
         d="M 9,5 A 1,1 0 1 1 7,5 1,1 0 1 1 9,5 z"
         transform="matrix(2,0,0,2,7,0)" />
      <path
         sodipodi:open="true"
         sodipodi:type="arc"
         style="fill:#ffffff;fill-opacity:1;fill-rule:nonzero;stroke:none"
         id="path3443"
         sodipodi:cx="28.15704"
         sodipodi:cy="51.823883"
         sodipodi:rx="4.1570387"
         sodipodi:ry="0.76477689"
         d="m 24.000001,51.823883 a 4.1570387,0.76477689 0 0 1 8.314077,0"
         transform="matrix(3.3677824,0,0,1.7603396e-6,-78.826783,15.999905)"
         sodipodi:start="3.1415927"
         sodipodi:end="6.2831853" />
      <path
         id="path4358"
         d="M 9,5 C 7.3688926,5 5.9126784,5.7915163 5,7 5.8374488,6.3675368 6.8696836,6 8,6 c 2.761424,0 5,2.2385763 5,5 0,1.130316 -0.367537,2.162551 -1,3 1.208484,-0.912678 2,-2.368893 2,-4 C 14,7.2385763 11.761424,5 9,5 z"
         style="fill:#000000;fill-opacity:0.62745098;fill-rule:nonzero;stroke:none" />
      <path
         style="fill:#000000;fill-opacity:0.62745098;fill-rule:nonzero;stroke:none"
         d="m 23,5 c -1.631107,0 -3.087322,0.7915163 -4,2 0.837449,-0.6324632 1.869684,-1 3,-1 2.761424,0 5,2.2385763 5,5 0,1.130316 -0.367537,2.162551 -1,3 1.208484,-0.912678 2,-2.368893 2,-4 0,-2.7614237 -2.238576,-5 -5,-5 z"
         id="path4363" />
      <path
         sodipodi:nodetypes="cccsssssssssccccsssccsssc"
         id="path3479"
         d="M 16,1 C 7.7157317,0.99999962 1.0000004,7.7157317 1,16 l 0,13 c 1.2907563,0 1.5857864,-3 3,-3 1.4142136,0 1.5857864,3 3,3 1.4142136,0 1.5857864,-3 3,-3 1.414214,0 1.585786,3 3,3 1.414214,0 1.585786,-3 3,-3 1.414214,0 1.585786,3 3,3 1.414214,0 1.585786,-3 3,-3 1.414214,0 1.585786,3 3,3 1.414214,0 1.585786,-3 3,-3 1.414214,0 1.655462,3 3,3 L 31,16 C 31,7.715732 24.284268,1.0000004 16,1 z M 9,5 c 2.761424,0 5,2.2385763 5,5 0,2.761424 -2.238576,5 -5,5 C 6.2385763,15 4,12.761424 4,10 4,7.2385763 6.2385763,5 9,5 z m 14,0 c 2.761424,0 5,2.2385763 5,5 0,2.761424 -2.238576,5 -5,5 -2.761424,0 -5,-2.238576 -5,-5 0,-2.7614237 2.238576,-5 5,-5 z"
         style="fill:#ffffff;fill-opacity:0.87797618;stroke:none" />
      <path
         id="path3804"
         d="M 10,26 C 9.438817,26 9.075133,26.461375 8.75,27.03125 8.829287,27.009277 8.9116116,27 9,27 c 0.8572005,0 1.283684,1.100517 1.78125,1.96875 0.647252,0.261396 1.308951,0.49305 2,0.65625 C 12.956438,29.445057 13.104498,29.223777 13.25,28.96875 13.170713,28.990723 13.088388,29 13,29 11.585786,29 11.414214,26 10,26 z m 6,0 c -0.561183,0 -0.924867,0.461375 -1.25,1.03125 C 14.829287,27.009277 14.911612,27 15,27 c 1.274012,0 1.550943,2.423516 2.625,2.90625 0.340748,-0.03936 0.667155,-0.09287 1,-0.15625 0.239311,-0.188994 0.439961,-0.456924 0.625,-0.78125 C 19.170713,28.990723 19.088388,29 19,29 17.585786,29 17.414214,26 16,26 z m 6,0 c -0.561183,0 -0.924867,0.461375 -1.25,1.03125 C 20.829287,27.009277 20.911612,27 21,27 c 0.687928,0 1.082834,0.708379 1.46875,1.4375 0.406029,-0.21139 0.774764,-0.469944 1.15625,-0.71875 C 23.186483,26.90323 22.776317,26 22,26 z"
         style="fill:#000000;fill-opacity:0.62745098;stroke:none" />
    </g>
  </g>
</svg>
