<?xml version="1.0" encoding="UTF-8" standalone="no"?>
<!-- Created with Inkscape (http://www.inkscape.org/) -->

<svg
   xmlns:dc="http://purl.org/dc/elements/1.1/"
   xmlns:cc="http://creativecommons.org/ns#"
   xmlns:rdf="http://www.w3.org/1999/02/22-rdf-syntax-ns#"
   xmlns:svg="http://www.w3.org/2000/svg"
   xmlns="http://www.w3.org/2000/svg"
   xmlns:xlink="http://www.w3.org/1999/xlink"
   xmlns:sodipodi="http://sodipodi.sourceforge.net/DTD/sodipodi-0.dtd"
   xmlns:inkscape="http://www.inkscape.org/namespaces/inkscape"
   width="32"
   height="32"
   id="svg4150"
   version="1.1"
   inkscape:version="0.48.5 r10040"
   viewBox="0 0 32 32"
   sodipodi:docname="button-screenshot-00.svg">
  <defs
     id="defs4152">
    <linearGradient
       id="linearGradient4213">
      <stop
         id="stop4215"
         offset="0"
         style="stop-color:#000060;stop-opacity:1;" />
      <stop
         id="stop4217"
         offset="1"
         style="stop-color:silver;stop-opacity:1;" />
    </linearGradient>
    <linearGradient
       inkscape:collect="always"
       xlink:href="#linearGradient4030"
       id="linearGradient4054"
       x1="16"
       y1="4"
       x2="16"
       y2="16"
       gradientUnits="userSpaceOnUse" />
    <linearGradient
       id="linearGradient4030">
      <stop
         id="stop4032"
         offset="0"
         style="stop-color:#ffcc01;stop-opacity:1;" />
      <stop
         style="stop-color:#ffea95;stop-opacity:1;"
         offset="0.5"
         id="stop4036" />
      <stop
         id="stop4046"
         offset="0.75"
         style="stop-color:#ffcc01;stop-opacity:1;" />
      <stop
         id="stop4034"
         offset="1"
         style="stop-color:#c09a00;stop-opacity:1;" />
    </linearGradient>
    <linearGradient
       id="linearGradient3811">
      <stop
         style="stop-color:black;stop-opacity:1;"
         offset="0"
         id="stop3813" />
      <stop
         style="stop-color:silver;stop-opacity:1;"
         offset="1"
         id="stop3815" />
    </linearGradient>
    <linearGradient
       id="linearGradient3803">
      <stop
         style="stop-color:#202020;stop-opacity:1;"
         offset="0"
         id="stop3805" />
      <stop
         style="stop-color:#999;stop-opacity:0;"
         offset="1"
         id="stop3807" />
    </linearGradient>
    <filter
       color-interpolation-filters="sRGB"
       inkscape:collect="always"
       id="filter3841">
      <feGaussianBlur
         inkscape:collect="always"
         stdDeviation="0.37940952"
         id="feGaussianBlur3843" />
    </filter>
    <filter
       color-interpolation-filters="sRGB"
       inkscape:collect="always"
       id="filter3982"
       x="-0.054199267"
       width="1.1083986"
       y="-0.10721166"
       height="1.2144233">
      <feGaussianBlur
         inkscape:collect="always"
         stdDeviation="0.35737229"
         id="feGaussianBlur3984" />
    </filter>
    <linearGradient
       id="linearGradient3791">
      <stop
         style="stop-color:white;stop-opacity:1;"
         offset="0"
         id="stop3793" />
      <stop
         style="stop-color:aqua;stop-opacity:0;"
         offset="1"
         id="stop3795" />
    </linearGradient>
    <filter
       color-interpolation-filters="sRGB"
       inkscape:collect="always"
       id="filter3950"
       x="-0.11025"
       width="1.2205"
       y="-0.20752941"
       height="1.4150589">
      <feGaussianBlur
         inkscape:collect="always"
         stdDeviation="1.28625"
         id="feGaussianBlur3952" />
    </filter>
    <radialGradient
       inkscape:collect="always"
       xlink:href="#linearGradient3783"
       id="radialGradient3789"
       cx="84"
       cy="41.153091"
       fx="84"
       fy="41.153091"
       r="14"
       gradientTransform="matrix(1.4285714,0,0,0.85714301,-35.999999,12.725917)"
       gradientUnits="userSpaceOnUse" />
    <linearGradient
       id="linearGradient3783">
      <stop
         style="stop-color:white;stop-opacity:1;"
         offset="0"
         id="stop3785" />
      <stop
         style="stop-color:#c000ff;stop-opacity:0.51851851;"
         offset="1"
         id="stop3787" />
    </linearGradient>
    <filter
       color-interpolation-filters="sRGB"
       inkscape:collect="always"
       id="filter3894"
       x="-0.11025"
       width="1.2205"
       y="-0.20752941"
       height="1.4150589">
      <feGaussianBlur
         inkscape:collect="always"
         stdDeviation="1.28625"
         id="feGaussianBlur3896" />
    </filter>
    <linearGradient
       inkscape:collect="always"
       xlink:href="#linearGradient3811"
       id="linearGradient4205"
       gradientUnits="userSpaceOnUse"
       x1="80"
       y1="69"
       x2="80"
       y2="44" />
    <linearGradient
       inkscape:collect="always"
       xlink:href="#linearGradient3803"
       id="linearGradient4207"
       gradientUnits="userSpaceOnUse"
       x1="80"
       y1="64"
       x2="80"
       y2="84" />
    <radialGradient
       inkscape:collect="always"
       xlink:href="#linearGradient3791"
       id="radialGradient4209"
       gradientUnits="userSpaceOnUse"
       gradientTransform="matrix(1.4285714,7.792206e-8,-1.7142856e-7,3.1428575,-83.999985,-236.43323)"
       cx="84"
       cy="85.728745"
       fx="84"
       fy="85.728745"
       r="14" />
    <radialGradient
       inkscape:collect="always"
       xlink:href="#linearGradient3783"
       id="radialGradient4211"
       gradientUnits="userSpaceOnUse"
       gradientTransform="matrix(1.4285714,0,0,0.85714301,-83.999999,-34.274083)"
       cx="84"
       cy="41.153091"
       fx="84"
       fy="41.153091"
       r="14" />
  </defs>
  <sodipodi:namedview
     id="base"
     pagecolor="#ffffff"
     bordercolor="#666666"
     borderopacity="1.0"
     inkscape:pageopacity="0.0"
     inkscape:pageshadow="2"
     inkscape:zoom="6.675088"
     inkscape:cx="16"
     inkscape:cy="18.181818"
     inkscape:current-layer="g4183"
     showgrid="true"
     inkscape:grid-bbox="true"
     inkscape:document-units="px"
     objecttolerance="10000"
     inkscape:snap-perpendicular="true"
     guidetolerance="10000"
     inkscape:window-width="1024"
     inkscape:window-height="741"
     inkscape:window-x="0"
     inkscape:window-y="2"
     inkscape:window-maximized="1"
     showguides="false"
     inkscape:guide-bbox="true">
    <inkscape:grid
       type="xygrid"
       id="grid4698"
       empspacing="4"
       visible="true"
       enabled="true"
       snapvisiblegridlinesonly="true" />
    <sodipodi:guide
       position="16,32"
       orientation="1,0"
       id="guide4769" />
    <sodipodi:guide
       position="-4,16"
       orientation="0,1"
       id="guide4771" />
    <sodipodi:guide
       position="16,16"
       orientation="-0.70710678,0.70710678"
       id="guide4773" />
    <sodipodi:guide
       position="16,16"
       orientation="0.70710678,0.70710678"
       id="guide4775" />
  </sodipodi:namedview>
  <metadata
     id="metadata4155">
    <rdf:RDF>
      <cc:Work
         rdf:about="">
        <dc:format>image/svg+xml</dc:format>
        <dc:type
           rdf:resource="http://purl.org/dc/dcmitype/StillImage" />
        <dc:title></dc:title>
      </cc:Work>
    </rdf:RDF>
  </metadata>
  <g
     id="layer1"
     inkscape:label="button"
     inkscape:groupmode="layer"
     sodipodi:insensitive="true">
    <rect
       ry="4"
       y="0"
       x="0"
       height="32"
       width="32"
       id="rect3767"
       style="fill:#fc0;fill-opacity:1;stroke:none" />
    <path
       style="fill:black;fill-opacity:1;stroke:none"
       d="M 4,0 C 1.784,0 0,1.784 0,4 l 0,24 c 0,2.216 1.784,4 4,4 l 24,0 c 2.216,0 4,-1.784 4,-4 L 32,4 C 32,1.784 30.216,0 28,0 L 4,0 z m 0,1 24,0 c 1.662,0 3,1.338 3,3 l 0,24 c 0,1.662 -1.338,3 -3,3 L 4,31 C 2.338,31 1,29.662 1,28 L 1,4 C 1,2.338 2.338,1 4,1 z"
       id="rect2993"
       inkscape:connector-curvature="0" />
  </g>
  <g
     inkscape:groupmode="layer"
     id="layer2"
     inkscape:label="symbol">
    <g
       id="g4153">
      <g
         id="g4183"
         transform="matrix(0.23333333,0,0,0.23333784,12.266667,12.266595)">
        <rect
           style="fill:#d40000;fill-opacity:0.86350157;fill-rule:nonzero;stroke:none"
           id="rect4019"
           width="16"
           height="4"
           x="-24"
           y="-21"
           rx="2"
           ry="2" />
        <rect
           style="fill:#e6e6e6;fill-opacity:1;fill-rule:nonzero;stroke:none"
           id="rect2961"
           width="120"
           height="72"
           x="-44"
           y="-19"
           ry="8"
           rx="8" />
        <path
           style="opacity:0.4;fill:white;fill-opacity:1;fill-rule:nonzero;stroke:none"
           d="m -36,-19 c -2.216,0 -4.21025,0.89775 -5.65625,2.34375 l 2.8125,2.8125 C -38.119892,-14.567608 -37.10457,-15 -36,-15 l 106,0 c 0.55228,0 1.04432,0.231821 1.40625,0.59375 l 2.25,-2.25 C 72.21025,-18.10225 70.216,-19 68,-19 l -104,0 z"
           id="path4023"
           inkscape:connector-curvature="0" />
        <path
           style="fill:black;fill-opacity:0.50196081;fill-rule:nonzero;stroke:none"
           d="M 28.84375 23.5 C 28.688865 23.801009 28.361817 24 28 24 L 3.71875 24 C 3.4279744 24 3.1711721 23.864705 3 23.65625 L 2.5625 24.09375 C 2.8999 24.431157 3.3579333 24.625 3.875 24.625 L 28.125 24.625 C 28.642067 24.625 29.1001 24.431157 29.4375 24.09375 L 28.84375 23.5 z "
           transform="matrix(4.2857143,0,0,4.2856315,-52.57143,-52.570106)"
           id="path4021" />
        <path
           style="fill:black;fill-opacity:0.50196078;fill-rule:nonzero;stroke:none"
           d="m 73.589284,-16.677942 -2.142857,2.276742 c 0.361929,0.361928 0.535715,0.786975 0.535715,1.339259 l 0,34.0172 c -1.338879,0.403274 -2.684366,0.857105 -4.017858,1.205334 l 0,1.071408 c 1.156492,-0.308137 2.321593,-0.587924 3.482143,-0.937482 l 0,23.972751 c 0,0.658492 -0.119901,1.327149 -0.401785,1.874964 l 2.544642,2.544594 c 1.446005,-1.446002 2.410715,-3.40889 2.410715,-5.624891 l 0,-56.114988 c 0,-2.216 -0.96471,-4.178891 -2.410715,-5.624891 z"
           id="path4027"
           inkscape:connector-curvature="0" />
        <path
           style="opacity:0.20000000000000001;fill:white;fill-opacity:0.62745097999999999;fill-rule:nonzero;stroke:none"
           d="m -35.734698,-14.40166 c -2.19786,0 -3.979589,1.79084 -3.979589,3.999988 l 0,11.9999998 C -3.8507741,21.38127 32.771199,33.38818 71.714287,21.59834 l 0,-34 c 0,-1.10458 -0.890855,-2 -1.989795,-2 l -105.45919,0 z"
           id="path3751"
           inkscape:connector-curvature="0" />
        <path
           style="fill:black;fill-opacity:0.50196078;fill-rule:nonzero;stroke:none"
           d="M 2.5625 8.375 C 2.2251 8.7124065 2 9.1704233 2 9.6875 L 2 22.78125 C 2 23.298327 2.2251 23.756343 2.5625 24.09375 L 3 23.65625 L 3 8.8125 L 2.5625 8.375 z "
           transform="matrix(4.2857143,0,0,4.2856315,-52.57143,-52.570106)"
           id="path4025" />
        <path
           style="fill:black;fill-opacity:0.37647059;fill-rule:nonzero;stroke:none"
           d="m -40.571428,1.5058446 0,44.0000004 c 0,2.20914 1.790861,4 4,4 l 104,0 c 2.20914,0 4,-1.79086 4,-4 l 0,-24 c -39.142795,11.78985 -75.9525762,-0.21706 -112,-20.0000004 z"
           id="path4029"
           inkscape:connector-curvature="0" />
        <rect
           style="fill:maroon;fill-opacity:1;fill-rule:nonzero;stroke:none"
           id="rect3741"
           width="24"
           height="64"
           x="-40"
           y="-15"
           rx="4"
           ry="4" />
        <rect
           ry="3.9999998"
           rx="4"
           y="-15"
           x="-36"
           height="64"
           width="12"
           id="rect3747"
           style="fill:black;fill-opacity:0.25098039;fill-rule:nonzero;stroke:none" />
        <rect
           style="fill:#ccc;fill-opacity:1;fill-rule:nonzero;stroke:none"
           id="rect3753"
           width="19.824818"
           height="11.532846"
           x="-12"
           y="-14.532845"
           rx="4"
           ry="3.5328484" />
        <path
           sodipodi:type="arc"
           style="fill:#1a1a1a;fill-opacity:1;fill-rule:nonzero;stroke:none"
           id="path3801"
           sodipodi:cx="84"
           sodipodi:cy="64"
           sodipodi:rx="28"
           sodipodi:ry="28"
           d="M 56,63.999999 C 56.000001,48.536026 68.536028,35.999999 84.000001,36 99.463974,36.000001 112,48.536027 112,64"
           sodipodi:start="3.1415927"
           sodipodi:end="6.2831853"
           sodipodi:open="true"
           transform="translate(-48,-47)" />
        <path
           sodipodi:type="arc"
           style="fill:url(#linearGradient4205);fill-opacity:1.0;fill-rule:nonzero;stroke:none"
           id="path3799"
           sodipodi:cx="80"
           sodipodi:cy="64"
           sodipodi:rx="20"
           sodipodi:ry="20"
           d="m 100,64 a 20,20 0 1 1 -40,0 20,20 0 1 1 40,0 z"
           transform="matrix(1.6,0,0,1.6,-92.000001,-85.4)" />
        <path
           sodipodi:type="arc"
           style="fill:url(#linearGradient4207);fill-opacity:1;fill-rule:nonzero;stroke:none"
           id="path3735"
           sodipodi:cx="80"
           sodipodi:cy="64"
           sodipodi:rx="20"
           sodipodi:ry="20"
           d="M 100,64 C 100,75.045695 91.045695,84 80,84 68.954305,84 60,75.045695 60,64 60,52.954305 68.954305,44 80,44 c 11.045695,0 20,8.954305 20,20 z"
           transform="matrix(1.4,0,0,1.4,-76,-72.6)" />
        <path
           transform="matrix(0.77274065,0,0,1.35,-25.819252,-69.4)"
           d="m 74.823619,44.681483 c 3.391108,-0.908644 6.961654,-0.908644 10.352763,10e-7 L 80,64 z"
           sodipodi:ry="20"
           sodipodi:rx="20"
           sodipodi:cy="64"
           sodipodi:cx="80"
           id="path3819"
           style="fill:white;fill-opacity:0.86350157;fill-rule:nonzero;stroke:none;filter:url(#filter3841)"
           sodipodi:type="arc"
           sodipodi:start="4.4505896"
           sodipodi:end="4.9741884"
           inkscape:transform-center-y="-13.5" />
        <path
           inkscape:transform-center-y="13.5"
           sodipodi:end="4.9741884"
           sodipodi:start="4.4505896"
           sodipodi:type="arc"
           style="fill:white;fill-opacity:0.86350157;fill-rule:nonzero;stroke:none;filter:url(#filter3841)"
           id="path3845"
           sodipodi:cx="80"
           sodipodi:cy="64"
           sodipodi:rx="20"
           sodipodi:ry="20"
           d="m 74.823619,44.681483 c 3.391108,-0.908644 6.961654,-0.908644 10.352763,10e-7 L 80,64 z"
           transform="matrix(-1.35,0,0,-1.35,144,103.4)" />
        <path
           d="M 100,64 C 100,75.045695 91.045695,84 80,84 68.954305,84 60,75.045695 60,64 60,52.954305 68.954305,44 80,44 c 11.045695,0 20,8.954305 20,20 z"
           sodipodi:ry="20"
           sodipodi:rx="20"
           sodipodi:cy="64"
           sodipodi:cx="80"
           id="path3737"
           style="fill:black;fill-opacity:1;fill-rule:nonzero;stroke:none"
           sodipodi:type="arc"
           transform="translate(-44,-47)" />
        <rect
           ry="3.5328486"
           rx="4.5786695"
           y="34.233578"
           x="38"
           height="8.0000019"
           width="15.824818"
           id="rect3755"
           style="fill:white;fill-opacity:1;fill-rule:nonzero;stroke:none;filter:url(#filter3982)"
           transform="matrix(0.87361624,0,0,1,-42.197417,-47)" />
        <path
           style="opacity:0.70999995;fill:url(#radialGradient4209);fill-opacity:1;fill-rule:nonzero;stroke:none;filter:url(#filter3950)"
           d="m 50,23.444927 c 0,3.865993 -6.268013,10.5 -14,10.5 -7.731987,0 -14,-6.634007 -14,-10.5 0,-3.865994 6.268013,-4.375 14,-4.375 7.731987,0 14,0.509006 14,4.375 z"
           id="path3776"
           sodipodi:nodetypes="csssc"
           inkscape:transform-center-y="8.7453626"
           inkscape:connector-curvature="0" />
        <path
           sodipodi:nodetypes="csssc"
           id="path3781"
           d="m 22,10.587091 c 0,-3.865993 6.268013,-10.5 14,-10.5 7.731987,0 14,6.634007 14,10.5 0,3.865994 -6.268013,4.375 -14,4.375 -7.731987,0 -14,-0.509006 -14,-4.375 z"
           style="opacity:0.70999995;fill:url(#radialGradient4211);fill-opacity:1;fill-rule:nonzero;stroke:none;filter:url(#filter3894)"
           inkscape:transform-center-y="-8.7453626"
           inkscape:connector-curvature="0" />
      </g>
    </g>
  </g>
  <g
     inkscape:groupmode="layer"
     id="layer3"
     inkscape:label="shading"
     sodipodi:insensitive="true">
    <path
       inkscape:connector-curvature="0"
       style="fill:black;fill-opacity:0.37647059;stroke:none"
       d="M 1.875,1.875 C 1.33275,2.41725 1,3.169 1,4 l 0,24 c 0,1.662 1.338,3 3,3 l 24,0 c 0.831,0 1.58275,-0.33275 2.125,-0.875 L 29.40625,29.40625 C 29.04475,29.76775 28.554,30 28,30 L 4,30 C 2.892,30 2,29.108 2,28 L 2,4 C 2,3.446 2.23225,2.95525 2.59375,2.59375 L 1.875,1.875 z"
       id="rect2997" />
    <path
       style="fill:white;fill-opacity:0.37647059;stroke:none"
       d="M 4,1 C 3.169,1 2.41725,1.33275 1.875,1.875 L 2.59375,2.59375 C 2.95525,2.23225 3.446,2 4,2 l 24,0 c 1.108,0 2,0.892 2,2 l 0,24 c 0,0.554 -0.23225,1.04475 -0.59375,1.40625 L 30.125,30.125 C 30.66725,29.58275 31,28.831 31,28 L 31,4 C 31,2.338 29.662,1 28,1 L 4,1 z"
       id="rect3774"
       inkscape:connector-curvature="0" />
    <rect
       style="fill:white;fill-opacity:0.50196078;stroke:none"
       id="rect3793"
       width="26"
       height="2"
       x="3"
       y="2"
       ry="1"
       rx="1" />
    <rect
       style="fill:white;fill-opacity:0.50196078;stroke:none"
       id="rect3795"
       width="24"
       height="1"
       x="4"
       y="2"
       ry="0.5"
       rx="0.5" />
  </g>
</svg>
