<?xml version="1.0" encoding="UTF-8" standalone="no"?>
<!-- Created with Inkscape (http://www.inkscape.org/) -->

<svg
   xmlns:dc="http://purl.org/dc/elements/1.1/"
   xmlns:cc="http://creativecommons.org/ns#"
   xmlns:rdf="http://www.w3.org/1999/02/22-rdf-syntax-ns#"
   xmlns:svg="http://www.w3.org/2000/svg"
   xmlns="http://www.w3.org/2000/svg"
   xmlns:xlink="http://www.w3.org/1999/xlink"
   xmlns:sodipodi="http://sodipodi.sourceforge.net/DTD/sodipodi-0.dtd"
   xmlns:inkscape="http://www.inkscape.org/namespaces/inkscape"
   width="32px"
   height="32px"
   id="svg3505"
   sodipodi:version="0.32"
   inkscape:version="0.48.5 r10040"
   sodipodi:docname="level-new-00.svg"
   inkscape:output_extension="org.inkscape.output.svg.inkscape"
   version="1.1">
  <title
     id="title2865">New Game Symbol</title>
  <defs
     id="defs3507">
    <inkscape:perspective
       sodipodi:type="inkscape:persp3d"
       inkscape:vp_x="0 : 16 : 1"
       inkscape:vp_y="0 : 1000 : 0"
       inkscape:vp_z="32 : 16 : 1"
       inkscape:persp3d-origin="16 : 10.666667 : 1"
       id="perspective3513" />
    <inkscape:perspective
       id="perspective4690"
       inkscape:persp3d-origin="372.04724 : 350.78739 : 1"
       inkscape:vp_z="744.09448 : 526.18109 : 1"
       inkscape:vp_y="0 : 1000 : 0"
       inkscape:vp_x="0 : 526.18109 : 1"
       sodipodi:type="inkscape:persp3d" />
    <inkscape:perspective
       id="perspective3695"
       inkscape:persp3d-origin="372.04724 : 350.78739 : 1"
       inkscape:vp_z="744.09448 : 526.18109 : 1"
       inkscape:vp_y="0 : 1000 : 0"
       inkscape:vp_x="0 : 526.18109 : 1"
       sodipodi:type="inkscape:persp3d" />
    <inkscape:perspective
       id="perspective3846"
       inkscape:persp3d-origin="0.5 : 0.33333333 : 1"
       inkscape:vp_z="1 : 0.5 : 1"
       inkscape:vp_y="0 : 1000 : 0"
       inkscape:vp_x="0 : 0.5 : 1"
       sodipodi:type="inkscape:persp3d" />
  </defs>
  <sodipodi:namedview
     id="base"
     pagecolor="#ffffff"
     bordercolor="#666666"
     borderopacity="1.0"
     inkscape:pageopacity="0.0"
     inkscape:pageshadow="2"
     inkscape:zoom="16.5"
     inkscape:cx="16"
     inkscape:cy="16"
     inkscape:current-layer="layer1"
     showgrid="true"
     inkscape:grid-bbox="true"
     inkscape:document-units="px"
     objecttolerance="10000"
     gridtolerance="10000"
     guidetolerance="10000"
     inkscape:window-width="1024"
     inkscape:window-height="741"
     inkscape:window-x="0"
     inkscape:window-y="2"
     inkscape:object-paths="true"
     inkscape:object-nodes="true"
     inkscape:snap-bbox="true"
     inkscape:snap-guide="true"
     inkscape:window-maximized="1">
    <inkscape:grid
       type="xygrid"
       id="grid3515"
       units="px"
       visible="true"
       enabled="true"
       spacingx="1px"
       spacingy="1px"
       empspacing="4"
       snapvisiblegridlinesonly="true" />
  </sodipodi:namedview>
  <metadata
     id="metadata3510">
    <rdf:RDF>
      <cc:Work
         rdf:about="">
        <dc:format>image/svg+xml</dc:format>
        <dc:type
           rdf:resource="http://purl.org/dc/dcmitype/StillImage" />
        <dc:title>New Game Symbol</dc:title>
        <dc:date>2010-04-05</dc:date>
        <dc:creator>
          <cc:Agent>
            <dc:title>Andreas Neudecker &lt;zapyon@gmx.net&gt;</dc:title>
          </cc:Agent>
        </dc:creator>
        <dc:rights>
          <cc:Agent>
            <dc:title>Copyright (C) 2010 by Andreas Neudecker</dc:title>
          </cc:Agent>
        </dc:rights>
        <dc:publisher>
          <cc:Agent>
            <dc:title>Andreas Neudecker</dc:title>
          </cc:Agent>
        </dc:publisher>
        <dc:identifier>new-game-00</dc:identifier>
        <dc:description>New game symbol for McMinos menus.

2010-10-28: Filled in metadata. Added light blue shine to walls; replaced light blue ghost with white miniature version of ghost &quot;Alpha&quot;.</dc:description>
      </cc:Work>
    </rdf:RDF>
  </metadata>
  <g
     id="layer1"
     inkscape:label="Layer 1"
     inkscape:groupmode="layer">
    <rect
       style="fill:black;fill-opacity:1;fill-rule:nonzero;stroke:none"
       id="rect3266"
       width="32"
       height="32"
       x="0"
       y="0" />
    <rect
       y="1"
       x="1"
       height="30"
       width="30"
       id="rect3656"
       style="fill:black;fill-opacity:1;fill-rule:nonzero;stroke:none" />
    <path
       style="fill:aqua;fill-opacity:1;fill-rule:nonzero;stroke:none"
       d="m 1,1 0,18 2,0 0,-16 26,0 0,14 -6,0 0,-8 -2,0 0,14 2,0 0,-4 8,0 0,-18 z m 8,8 0,10 6,0 0,-2 -4,0 0,-6 4,0 0,-2 z"
       id="rect2383"
       inkscape:connector-curvature="0"
       sodipodi:nodetypes="cccccccccccccccccccccccc" />
    <path
       inkscape:connector-curvature="0"
       style="fill:aqua;fill-opacity:1;fill-rule:nonzero;stroke:none"
       d="m 1,25 0,6 30,0 0,-6 -2,0 0,4 -14,0 0,-4 -2,0 0,4 -10,0 0,-4 z"
       id="rect2401"
       sodipodi:nodetypes="ccccccccccccc" />
    <path
       sodipodi:type="arc"
       style="fill:lime;fill-opacity:1;fill-rule:nonzero;stroke:none"
       id="path2409"
       sodipodi:cx="6"
       sodipodi:cy="6"
       sodipodi:rx="1"
       sodipodi:ry="1"
       d="M 7,6 A 1,1 0 1 1 5,6 1,1 0 1 1 7,6 z" />
    <use
       x="0"
       y="0"
       xlink:href="#path2409"
       id="use3201"
       transform="translate(0,4)"
       width="32"
       height="32" />
    <use
       height="32"
       width="32"
       transform="translate(4,0)"
       id="use3203"
       xlink:href="#path2409"
       y="0"
       x="0" />
    <use
       x="0"
       y="0"
       xlink:href="#path2409"
       id="use3205"
       transform="translate(8,0)"
       width="32"
       height="32" />
    <use
       height="32"
       width="32"
       transform="translate(12,0)"
       id="use3207"
       xlink:href="#path2409"
       y="0"
       x="0" />
    <use
       x="0"
       y="0"
       xlink:href="#path2409"
       id="use3209"
       transform="translate(16,0)"
       width="32"
       height="32" />
    <use
       height="32"
       width="32"
       transform="translate(12,4)"
       id="use3211"
       xlink:href="#path2409"
       y="0"
       x="0" />
    <use
       x="0"
       y="0"
       xlink:href="#path2409"
       id="use3213"
       transform="translate(12,8)"
       width="32"
       height="32" />
    <use
       height="32"
       width="32"
       transform="translate(20,4)"
       id="use3215"
       xlink:href="#path2409"
       y="0"
       x="0" />
    <use
       x="0"
       y="0"
       xlink:href="#path2409"
       id="use3217"
       transform="translate(0,8)"
       width="32"
       height="32" />
    <use
       height="32"
       width="32"
       transform="translate(0,12)"
       id="use3219"
       xlink:href="#path2409"
       y="0"
       x="0" />
    <use
       x="0"
       y="0"
       xlink:href="#path2409"
       id="use3225"
       transform="translate(8,16)"
       width="32"
       height="32" />
    <use
       x="0"
       y="0"
       xlink:href="#path2409"
       id="use3229"
       transform="translate(20,16)"
       width="32"
       height="32" />
    <use
       x="0"
       y="0"
       xlink:href="#path2409"
       id="use3233"
       transform="translate(12,16)"
       width="32"
       height="32" />
    <use
       height="32"
       width="32"
       transform="translate(16,20)"
       id="use3235"
       xlink:href="#path2409"
       y="0"
       x="0" />
    <use
       x="0"
       y="0"
       xlink:href="#path2409"
       id="use3237"
       transform="translate(20,20)"
       width="32"
       height="32" />
    <use
       height="32"
       width="32"
       transform="translate(20,20)"
       id="use3239"
       xlink:href="#path2409"
       y="0"
       x="0" />
    <path
       sodipodi:type="arc"
       style="fill:red;fill-opacity:1;fill-rule:nonzero;stroke:none"
       id="path3241"
       sodipodi:cx="26"
       sodipodi:cy="14"
       sodipodi:rx="2"
       sodipodi:ry="2"
       d="m 28,14 a 2,2 0 1 1 -4,0 2,2 0 1 1 4,0 z" />
    <use
       height="32"
       width="32"
       transform="translate(24,16)"
       id="use2890"
       xlink:href="#path2409"
       y="0"
       x="0" />
    <use
       height="32"
       width="32"
       transform="translate(-4,16)"
       id="use2892"
       xlink:href="#path2409"
       y="0"
       x="0" />
    <path
       style="fill:blue;fill-opacity:1;stroke:none"
       d="M 1,1 2,2 2,18 1,19 z"
       id="path3370"
       inkscape:connector-curvature="0"
       sodipodi:nodetypes="ccccc" />
    <path
       style="fill:blue;fill-opacity:1;stroke:none"
       d="M 2,2 30,2 29,3 3,3 z"
       id="path3372"
       inkscape:connector-curvature="0" />
    <path
       style="fill:blue;fill-opacity:1;stroke:none"
       d="M 30,2 30,18 29,17 29,3 z"
       id="path3374"
       inkscape:connector-curvature="0" />
    <path
       style="fill:blue;fill-opacity:1;stroke:none"
       d="m 31,19 -1,-1 -8,0 1,1 z"
       id="path3376"
       inkscape:connector-curvature="0" />
    <path
       style="fill:blue;fill-opacity:1;stroke:none"
       d="m 9,9 0,10 6,0 -1,-1 -4,0 0,-8 z m 12,0 0,14 2,0 -1,-1 0,-12 z"
       id="path3378"
       inkscape:connector-curvature="0"
       sodipodi:nodetypes="ccccccccccccc" />
    <path
       style="fill:blue;fill-opacity:1;stroke:none"
       d="m 10,10 1,1 4,0 -1,-1 z"
       id="path3380"
       inkscape:connector-curvature="0"
       sodipodi:nodetypes="ccccc" />
    <path
       style="fill:blue;fill-opacity:1;stroke:none"
       d="M 1,25 1,31 31,31 30,30 2,30 2,26 1,25 z"
       id="path3384"
       inkscape:connector-curvature="0" />
    <path
       style="fill:blue;fill-opacity:1;stroke:none"
       d="m 13,25 1,1 0,4 -1,-1 0,-4 z"
       id="path3386"
       inkscape:connector-curvature="0" />
    <use
       x="0"
       y="0"
       xlink:href="#path3386"
       id="use3388"
       transform="translate(16,0)"
       width="32"
       height="32" />
    <g
       transform="translate(12,-1036.3622)"
       id="g5262">
      <rect
         ry="1"
         transform="translate(0,1048.3622)"
         y="0"
         x="0"
         height="4"
         width="4"
         id="rect4541"
         style="fill:#fffa55;fill-opacity:1;stroke:none" />
      <rect
         ry="1"
         transform="translate(0,1048.3622)"
         y="1"
         x="1"
         height="2"
         width="2"
         id="rect5260"
         style="fill:#dccc00;fill-opacity:1;stroke:none" />
    </g>
    <use
       x="0"
       y="0"
       xlink:href="#path2409"
       id="use3601"
       transform="translate(20,0)"
       width="32"
       height="32" />
    <path
       style="fill:#ccc;fill-opacity:1;stroke:none"
       d="M 4 20 L 4 22 L 5 22 L 5 28 L 11 28 L 11 22 L 12 22 L 12 20 L 10 20 L 10 21 L 9 21 L 9 20 L 7 20 L 7 21 L 6 21 L 6 20 L 4 20 z "
       id="rect3957" />
    <path
       style="fill:#c08900;fill-opacity:1;stroke:none"
       d="m 8,24 c -1.1045695,0 -2,0.895431 -2,2 l 0,2 2,0 2,0 0,-2 C 10,24.895431 9.1045695,24 8,24 z"
       id="path3968"
       inkscape:connector-curvature="0" />
    <path
       sodipodi:type="arc"
       style="fill:#fc0;fill-opacity:1;stroke:none"
       id="path5249"
       sodipodi:cx="7.5"
       sodipodi:cy="26.5"
       sodipodi:rx="0.5"
       sodipodi:ry="0.5"
       d="m 8,26.5 a 0.5,0.5 0 1 1 -1,0 0.5,0.5 0 1 1 1,0 z"
       transform="translate(0.5,-0.5)" />
    <path
       style="fill:black;fill-opacity:0.25098041;stroke:none"
       d="m 4,20 1,0 0,1 1,1 0,6 -1,0 0,-6 -1,0 z"
       id="path5278"
       inkscape:connector-curvature="0" />
    <path
       style="fill:black;fill-opacity:0.25098039;stroke:none"
       d="m 11,23 -5,-1 5,0 z"
       id="path5280"
       inkscape:connector-curvature="0" />
    <path
       style="fill:black;fill-opacity:0.25098039;stroke:none"
       d="m 7,20 0,1 1,0 0,-1 z"
       id="path5282"
       inkscape:connector-curvature="0" />
    <path
       style="fill:black;fill-opacity:0.25098039;stroke:none"
       d="m 10,20 0,1 1,0 0,-1 -1,0 z"
       id="path5284"
       inkscape:connector-curvature="0" />
    <g
       transform="translate(20,-8)"
       id="g3839">
      <rect
         ry="1"
         y="24"
         x="-4"
         height="4"
         width="4"
         id="rect3064"
         style="fill:#ccc;fill-opacity:1;stroke:none" />
      <path
         inkscape:connector-curvature="0"
         id="rect3066"
         d="m -3,24 c -0.554,0 -1,0.446 -1,1 l 0,2 c 0,0.554 0.446,1 1,1 l 2,0 c 0.554,0 1,-0.446 1,-1 l -2,0 c -0.554,0 -1,-0.446 -1,-1 l 0,-2 z"
         style="fill:black;fill-opacity:0.25490196;stroke:none" />
    </g>
    <path
       inkscape:connector-curvature="0"
       style="fill:white;fill-opacity:1;stroke:none"
       d="m 18,24 c -0.552285,0 -1,0.447715 -1,1 -0.552285,0 -1,0.447715 -1,1 l 0,2 4,0 0,-2 c 0,-0.552285 -0.447715,-1 -1,-1 0,-0.552285 -0.447715,-1 -1,-1 z"
       id="path15497" />
  </g>
</svg>
