<?xml version="1.0" encoding="UTF-8" standalone="no"?>
<!-- Created with Inkscape (http://www.inkscape.org/) -->

<svg
   xmlns:dc="http://purl.org/dc/elements/1.1/"
   xmlns:cc="http://creativecommons.org/ns#"
   xmlns:rdf="http://www.w3.org/1999/02/22-rdf-syntax-ns#"
   xmlns:svg="http://www.w3.org/2000/svg"
   xmlns="http://www.w3.org/2000/svg"
   xmlns:sodipodi="http://sodipodi.sourceforge.net/DTD/sodipodi-0.dtd"
   xmlns:inkscape="http://www.inkscape.org/namespaces/inkscape"
   width="32"
   height="32"
   id="svg4150"
   version="1.1"
   inkscape:version="0.48.5 r10040"
   viewBox="0 0 32 32"
   sodipodi:docname="Neues Dokument 2">
  <defs
     id="defs4152" />
  <sodipodi:namedview
     id="base"
     pagecolor="#ffffff"
     bordercolor="#666666"
     borderopacity="1.0"
     inkscape:pageopacity="0.0"
     inkscape:pageshadow="2"
     inkscape:zoom="16.5"
     inkscape:cx="16"
     inkscape:cy="16"
     inkscape:current-layer="layer1"
     showgrid="true"
     inkscape:grid-bbox="true"
     inkscape:document-units="px"
     objecttolerance="10000"
     inkscape:snap-perpendicular="true"
     guidetolerance="10000"
     inkscape:window-width="1024"
     inkscape:window-height="741"
     inkscape:window-x="0"
     inkscape:window-y="2"
     inkscape:window-maximized="1"
     showguides="true"
     inkscape:guide-bbox="true">
    <inkscape:grid
       type="xygrid"
       id="grid4698"
       empspacing="4" />
    <sodipodi:guide
       position="16,32"
       orientation="1,0"
       id="guide4769" />
    <sodipodi:guide
       position="-4,16"
       orientation="0,1"
       id="guide4771" />
    <sodipodi:guide
       position="16,16"
       orientation="-0.70710678,0.70710678"
       id="guide4773" />
    <sodipodi:guide
       position="16,16"
       orientation="0.70710678,0.70710678"
       id="guide4775" />
  </sodipodi:namedview>
  <metadata
     id="metadata4155">
    <rdf:RDF>
      <cc:Work
         rdf:about="">
        <dc:format>image/svg+xml</dc:format>
        <dc:type
           rdf:resource="http://purl.org/dc/dcmitype/StillImage" />
        <dc:title></dc:title>
      </cc:Work>
    </rdf:RDF>
  </metadata>
  <g
     id="layer1"
     inkscape:label="Layer 1"
     inkscape:groupmode="layer">
    <g
       id="g3020">
      <g
         id="g4847">
        <path
           style="font-size:medium;font-style:normal;font-variant:normal;font-weight:normal;font-stretch:normal;text-indent:0;text-align:start;text-decoration:none;line-height:normal;letter-spacing:normal;word-spacing:normal;text-transform:none;direction:ltr;block-progression:tb;writing-mode:lr-tb;text-anchor:start;baseline-shift:baseline;color:black;fill:black;fill-opacity:1;fill-rule:nonzero;stroke:none;stroke-width:2;marker:none;visibility:visible;display:inline;overflow:visible;enable-background:accumulate;font-family:Sans;-inkscape-font-specification:Sans"
           d="m 16,3.5 c -0.751993,0 -1.283919,0.5008972 -1.625,1.125 L 9.8125,6 9.5,6 C 8.6862972,6 8,6.6862972 8,7.5 c 0,0.5753697 0.3863076,0.9996265 0.875,1.25 0.07368,2.735209 0.4665806,5.301632 1.21875,7.40625 0.711853,1.99181 1.74252,3.508558 3,4.5625 C 13.075073,20.823447 13,20.887868 13,21 c 0,0.665576 0.39445,1.166178 0.90625,1.53125 C 13.690562,24.558342 12.405406,26 11,26 l -0.5,0 C 9.6862972,26 9,26.686297 9,27.5 9,28.313703 9.6862972,29 10.5,29 l 11,0 C 22.313703,29 23,28.313703 23,27.5 23,26.686297 22.313703,26 21.5,26 L 21,26 C 19.594594,26 18.309438,24.558342 18.09375,22.53125 18.60555,22.166178 19,21.665576 19,21 c 0,-0.112132 -0.07507,-0.176553 -0.09375,-0.28125 1.25748,-1.053942 2.288147,-2.57069 3,-4.5625 C 22.658419,14.051632 23.05132,11.485209 23.125,8.75 23.613692,8.4996265 24,8.0753697 24,7.5 24,6.6862972 23.313703,6 22.5,6 L 22.1875,6 17.625,4.625 C 17.283919,4.0008972 16.751993,3.5 16,3.5 z"
           id="rect4221"
           inkscape:connector-curvature="0"
           sodipodi:nodetypes="sccsscscscsssssssscscscssccs" />
        <g
           id="g4818"
           transform="translate(-26,0)">
          <path
             style="fill:#fc0;fill-opacity:1;stroke:none"
             d="m 41,22 c 0,2.761424 -1.790861,5 -4,5 l 10,0 c -2.209139,0 -4,-2.238576 -4,-5 l -2,0 z"
             id="path4741"
             inkscape:connector-curvature="0" />
          <path
             sodipodi:type="arc"
             style="fill:#fc0;fill-opacity:1;stroke:none"
             id="path4743"
             sodipodi:cx="16"
             sodipodi:cy="12"
             sodipodi:rx="6.1803398"
             sodipodi:ry="10"
             d="m 22.18034,12 c 0,5.522847 -2.767033,10 -6.18034,10 -3.413307,0 -6.1803398,-4.477153 -6.1803398,-10 0,0 0,0 0,0 L 16,12 z"
             sodipodi:start="0"
             sodipodi:end="3.1415927"
             transform="matrix(1,0,0,1.3,26,-7.6000005)" />
          <rect
             style="fill:#fc0;fill-opacity:1;stroke:none"
             id="rect4747"
             width="12"
             height="1"
             x="36"
             y="27"
             ry="0.5"
             rx="0.5" />
          <rect
             style="fill:#fc0;fill-opacity:1;stroke:none"
             id="rect4749"
             width="14"
             height="1"
             x="35"
             y="7"
             rx="0.5"
             ry="0.5" />
          <path
             style="fill:#fc0;fill-opacity:1;stroke:none"
             d="m 36,7 5,-1.5 2,0 5,1.5 z"
             id="path4751"
             inkscape:connector-curvature="0" />
          <path
             sodipodi:end="6.2831853"
             sodipodi:start="3.1415927"
             transform="translate(26,0)"
             sodipodi:type="arc"
             style="fill:#fc0;fill-opacity:1;stroke:none"
             id="path4753"
             sodipodi:cx="16"
             sodipodi:cy="5.5"
             sodipodi:rx="1"
             sodipodi:ry="1"
             d="m 15,5.5 c 0,-0.5522848 0.447715,-1 1,-1 0.552285,0 1,0.4477153 1,1 l -1,0 z" />
          <rect
             y="10"
             x="37.5"
             height="4"
             width="9"
             id="rect4814"
             style="fill:#ccc;fill-opacity:1;stroke:none" />
          <path
             id="path4762"
             d="m 35.8125,8 c 0,7.179702 2.774193,13 6.1875,13 -2.208814,-0.0015 -4,-5.821353 -4,-13 l -2.1875,0 z"
             style="fill:black;fill-opacity:0.25098039;stroke:none"
             inkscape:connector-curvature="0" />
          <path
             inkscape:transform-center-x="-3.09375"
             inkscape:connector-curvature="0"
             style="fill:white;fill-opacity:0.37647059;stroke:none"
             d="m 48.1875,8 c 0,7.179702 -2.774193,13 -6.1875,13 2.208814,-0.0015 4,-5.821353 4,-13 l 2.1875,0 z"
             id="path4765" />
          <rect
             rx="1"
             ry="1"
             y="20"
             x="40"
             height="2"
             width="4"
             id="rect4780"
             style="fill:#fc0;fill-opacity:1;stroke:none" />
          <path
             inkscape:connector-curvature="0"
             id="rect4745"
             d="m 42,20 c 0.554,0 1,0.446 1,1 0,0.554 -0.446,1 -1,1 l 1,0 c 0.554,0 1,-0.446 1,-1 0,-0.554 -0.446,-1 -1,-1 l -1,0 z"
             style="fill:white;fill-opacity:0.37647059;stroke:none" />
          <path
             id="rect4767"
             d="M 35.15625,7.15625 C 35.065875,7.246625 35,7.3615 35,7.5 35,7.777 35.223,8 35.5,8 l 13,0 c 0.1385,0 0.253375,-0.065875 0.34375,-0.15625 L 48.5,7.5 l -13,0 -0.34375,-0.34375 z"
             style="fill:black;fill-opacity:0.37647059;stroke:none"
             inkscape:connector-curvature="0" />
          <path
             inkscape:connector-curvature="0"
             id="path4772"
             d="m 41,5.5 -5,1.5 2.5,0 3,-1.5 z"
             style="fill:black;fill-opacity:0.37647059;stroke:none" />
          <path
             style="fill:white;fill-opacity:0.50196078;stroke:none"
             d="M 43,5.5 48,7 45.5,7 42.5,5.5 z"
             id="path4774"
             inkscape:connector-curvature="0" />
          <path
             inkscape:transform-center-y="-0.078125"
             inkscape:transform-center-x="-0.078125"
             inkscape:connector-curvature="0"
             style="fill:white;fill-opacity:0.37647059;stroke:none"
             d="M 48.84375,7.84375 C 48.934125,7.753375 49,7.6385 49,7.5 49,7.223 48.777,7 48.5,7 l -13,0 C 35.3615,7 35.246625,7.065875 35.15625,7.15625 L 35.5,7.5 l 13,0 0.34375,0.34375 z"
             id="path4776" />
          <path
             inkscape:connector-curvature="0"
             id="path4785"
             d="m 41,20 c -0.554,0 -1,0.446 -1,1 0,0.554 0.446,1 1,1 l 1,0 c -0.554,0 -1,-0.446 -1,-1 0,-0.554 0.446,-1 1,-1 l -1,0 z"
             style="fill:black;fill-opacity:0.37647059;stroke:none" />
          <path
             id="path4801"
             d="m 41,22 c 0,2.761424 -1.790861,5 -4,5 l 3,0 c 0.828427,0 1.5,-2.238576 1.5,-5 L 41,22 z"
             style="fill:black;fill-opacity:0.37647059;stroke:none"
             inkscape:connector-curvature="0" />
          <path
             inkscape:connector-curvature="0"
             style="fill:white;fill-opacity:0.37647059;stroke:none"
             d="m 43,22 c 0,2.761424 1.790861,5 4,5 l -3,0 c -0.828427,0 -1.5,-2.238576 -1.5,-5 l 0.5,0 z"
             id="path4804" />
          <path
             inkscape:transform-center-y="0.0780625"
             inkscape:transform-center-x="0.0780625"
             sodipodi:nodetypes="cssscccc"
             inkscape:connector-curvature="0"
             style="fill:black;fill-opacity:0.37647059;stroke:none"
             d="M 36.15625,27.156125 C 36.065875,27.2465 36,27.361375 36,27.499875 c 0,0.277 0.223,0.499997 0.5,0.5 L 47.500125,28 c 0.1385,2e-6 0.253375,-0.06588 0.34375,-0.15625 L 47.500125,27.5 36.5,27.499875 z"
             id="path4806" />
          <path
             id="path4810"
             d="M 47.84375,27.843875 C 47.934125,27.7535 48,27.638625 48,27.500125 c 0,-0.277 -0.223,-0.499997 -0.5,-0.5 L 36.499875,27 c -0.1385,-2e-6 -0.253375,0.06588 -0.34375,0.15625 L 36.499875,27.5 47.5,27.500125 z"
             style="fill:white;fill-opacity:0.37647059;stroke:none"
             inkscape:connector-curvature="0"
             sodipodi:nodetypes="cssscccc"
             inkscape:transform-center-x="-0.0780625"
             inkscape:transform-center-y="-0.0780625" />
        </g>
      </g>
    </g>
  </g>
</svg>
