<?xml version="1.0" encoding="UTF-8" standalone="no"?>
<!-- Created with Inkscape (http://www.inkscape.org/) -->

<svg xmlns:dc="http://purl.org/dc/elements/1.1/" xmlns:cc="http://creativecommons.org/ns#" xmlns:rdf="http://www.w3.org/1999/02/22-rdf-syntax-ns#" xmlns:svg="http://www.w3.org/2000/svg" xmlns="http://www.w3.org/2000/svg" xmlns:sodipodi="http://sodipodi.sourceforge.net/DTD/sodipodi-0.dtd" xmlns:inkscape="http://www.inkscape.org/namespaces/inkscape" width="32" height="32" id="svg4150" version="1.1" inkscape:version="0.91 r13725" viewBox="0 0 32 32" sodipodi:docname="symbol-hiscore-00.svg">
  <defs id="defs4152" />
  <sodipodi:namedview id="base" pagecolor="#ffffff" bordercolor="#666666" borderopacity="1.0" inkscape:pageopacity="0.0" inkscape:pageshadow="2" inkscape:zoom="22.125" inkscape:cx="16" inkscape:cy="16" inkscape:current-layer="layer1" showgrid="true" inkscape:grid-bbox="true" inkscape:document-units="px" objecttolerance="10000" inkscape:snap-perpendicular="true" guidetolerance="10000" inkscape:window-width="1600" inkscape:window-height="878" inkscape:window-x="0" inkscape:window-y="0" inkscape:window-maximized="1" showguides="true" inkscape:guide-bbox="true">
    <inkscape:grid type="xygrid" id="grid4698" empspacing="4" />
    <sodipodi:guide position="16,32" orientation="1,0" id="guide4769" />
    <sodipodi:guide position="-4,16" orientation="0,1" id="guide4771" />
    <sodipodi:guide position="16,16" orientation="-0.70710678,0.70710678" id="guide4773" />
    <sodipodi:guide position="16,16" orientation="0.70710678,0.70710678" id="guide4775" />
  </sodipodi:namedview>
  <metadata id="metadata4155">
    <rdf:RDF>
      <cc:Work rdf:about="">
        <dc:format>image/svg+xml</dc:format>
        <dc:type rdf:resource="http://purl.org/dc/dcmitype/StillImage" />
        <dc:title></dc:title>
      </cc:Work>
    </rdf:RDF>
  </metadata>
  <g id="layer1" inkscape:label="Layer 1" inkscape:groupmode="layer">
    <g id="g6231">
      <g id="g3425" transform="translate(-1,-1)">
        <path sodipodi:nodetypes="ccccccccc" style="fill:navy;fill-opacity:1;fill-rule:nonzero;stroke:none" d="m 4,23 0,6 25,0 0,-6 -8,0 0,-4 -9,0 0,4 z" id="path2404" inkscape:connector-curvature="0" />
        <path style="fill:white;fill-opacity:1;fill-rule:nonzero;stroke:none" d="m 15,20 3,0 0,1 -1,0 0,2 1,0 0,1 -3,0 0,-1 1,0 0,-2 -1,0 0,-1 z" id="path3176" inkscape:connector-curvature="0" />
        <path style="fill:white;fill-opacity:1;fill-rule:nonzero;stroke:none" d="m 6,24 0,1 1,0 0,2 -1,0 0,1 5,0 0,-1 -1,0 0,-2 1,0 0,-1 -5,0 z m 2,1 1,0 0,2 -1,0 0,-2 z" id="path3178" inkscape:connector-curvature="0" />
        <path style="fill:white;fill-opacity:1;fill-rule:nonzero;stroke:none" d="m 21,24 0,1 1,0 0,2 -1,0 0,1 7,0 0,-1 -1,0 0,-2 1,0 0,-1 -7,0 z m 2,1 1,0 0,2 -1,0 0,-2 z m 2,0 1,0 0,2 -1,0 0,-2 z" id="path3182" inkscape:connector-curvature="0" />
      </g>
      <path sodipodi:end="3.1415927" sodipodi:start="1.5707963" d="M 13,15 A 1,2 0 0 1 12.292893,14.414214 1,2 0 0 1 12,13 l 1,0 z" sodipodi:ry="2" sodipodi:rx="1" sodipodi:cy="13" sodipodi:cx="13" id="path3211" style="fill:#803300;fill-opacity:1;fill-rule:nonzero;stroke:none" sodipodi:type="arc" />
      <path sodipodi:type="arc" style="fill:#803300;fill-opacity:1;fill-rule:nonzero;stroke:none" id="path3213" sodipodi:cx="18" sodipodi:cy="13" sodipodi:rx="1" sodipodi:ry="2" d="m 19,13 a 1,2 0 0 1 -1,2 l 0,-2 z" sodipodi:start="0" sodipodi:end="1.5707963" />
      <path sodipodi:end="6.2831853" sodipodi:start="3.1415927" d="m 12.5,18 a 1.5,1 0 0 1 1.5,-1 1.5,1 0 0 1 1.5,1 L 14,18 Z" sodipodi:ry="1" sodipodi:rx="1.5" sodipodi:cy="18" sodipodi:cx="14" id="path3215" style="fill:#a00;fill-opacity:1;fill-rule:nonzero;stroke:none" sodipodi:type="arc" />
      <path sodipodi:type="arc" style="fill:#a00;fill-opacity:1;fill-rule:nonzero;stroke:none" id="path3217" sodipodi:cx="17" sodipodi:cy="18" sodipodi:rx="1.5" sodipodi:ry="1" d="m 15.5,18 a 1.5,1 0 0 1 1.5,-1 1.5,1 0 0 1 1.5,1 L 17,18 Z" sodipodi:start="3.1415927" sodipodi:end="6.2831853" />
      <g id="g4582" style="fill:#f60" transform="translate(-1,-1)">
        <ellipse id="path3241" style="fill:#f60;fill-opacity:1;fill-rule:nonzero;stroke:none" transform="matrix(1,0,0,0.8,-8,8.4)" cx="16.5" cy="4.5" rx="1.5" ry="2.5" />
        <circle transform="matrix(2,0,0,1,-31,8)" id="path3243" style="fill:#f60;fill-opacity:1;fill-rule:nonzero;stroke:none" cx="20.5" cy="4.5" r="0.5" />
        <circle style="fill:#f60;fill-opacity:1;fill-rule:nonzero;stroke:none" id="path3245" transform="matrix(2,0,0,1,-34,8)" cx="20.5" cy="4.5" r="0.5" />
      </g>
      <path inkscape:connector-curvature="0" style="fill:#803300;fill-opacity:1;fill-rule:nonzero;stroke:none" d="M 6.5,9 C 6.224,9 6,9.224 6,9.5 L 6,11 7,10 9,11 9,9.5 C 9,9.224 8.776,9 8.5,9 l -1,0 -1,0 z" id="path3251" />
      <path inkscape:connector-curvature="0" style="fill:green;fill-opacity:1;fill-rule:nonzero;stroke:none" d="m 7,13 -2,0 -1,4 1,0 1,-2 0,2 3,0 0,-2 1,2 1,0 -1,-4 -2,0 z" id="path3253" sodipodi:nodetypes="ccccccccccccc" />
      <path inkscape:connector-curvature="0" style="fill:navy;fill-opacity:1;fill-rule:nonzero;stroke:none" d="M 6,17 5,21 7,21 7.459016,19 8,21 10,21 9,17 Z" id="path3255" sodipodi:nodetypes="cccccccc" />
      <path sodipodi:type="arc" style="fill:#f60;fill-opacity:1;fill-rule:nonzero;stroke:none" id="path3257" sodipodi:cx="5" sodipodi:cy="17" sodipodi:rx="1" sodipodi:ry="2" d="M 5,19 A 1,2 0 0 1 4.2928932,18.414214 1,2 0 0 1 4,17 l 1,0 z" sodipodi:start="1.5707963" sodipodi:end="3.1415927" />
      <path sodipodi:end="1.5707963" sodipodi:start="0" d="m 11,17 a 1,2 0 0 1 -1,2 l 0,-2 z" sodipodi:ry="2" sodipodi:rx="1" sodipodi:cy="17" sodipodi:cx="10" id="path3259" style="fill:#f60;fill-opacity:1;fill-rule:nonzero;stroke:none" sodipodi:type="arc" />
      <path sodipodi:type="arc" style="fill:#050;fill-opacity:1;fill-rule:nonzero;stroke:none" id="path3261" sodipodi:cx="6" sodipodi:cy="22" sodipodi:rx="1.5" sodipodi:ry="1" d="M 4.5,22 A 1.5,1 0 0 1 6,21 1.5,1 0 0 1 7.5,22 L 6,22 Z" sodipodi:start="3.1415927" sodipodi:end="6.2831853" />
      <path sodipodi:end="6.2831853" sodipodi:start="3.1415927" d="M 7.5,22 A 1.5,1 0 0 1 9,21 1.5,1 0 0 1 10.5,22 L 9,22 Z" sodipodi:ry="1" sodipodi:rx="1.5" sodipodi:cy="22" sodipodi:cx="9" id="path3263" style="fill:#050;fill-opacity:1;fill-rule:nonzero;stroke:none" sodipodi:type="arc" />
      <path inkscape:connector-curvature="0" sodipodi:nodetypes="ccccccccccccc" id="path3279" d="m 23,13 -2,0 -1,4 1,0 1,-2 0,2 3,0 0,-2 1,2 1,0 -1,-4 -2,0 z" style="fill:black;fill-opacity:1;fill-rule:nonzero;stroke:none" />
      <path sodipodi:end="3.1415927" sodipodi:start="1.5707963" d="M 21,19 A 1,2 0 0 1 20.292893,18.414214 1,2 0 0 1 20,17 l 1,0 z" sodipodi:ry="2" sodipodi:rx="1" sodipodi:cy="17" sodipodi:cx="21" id="path3283" style="fill:#784421;fill-opacity:1;fill-rule:nonzero;stroke:none" sodipodi:type="arc" />
      <path sodipodi:type="arc" style="fill:#784421;fill-opacity:1;fill-rule:nonzero;stroke:none" id="path3285" sodipodi:cx="26" sodipodi:cy="17" sodipodi:rx="1" sodipodi:ry="2" d="m 27,17 a 1,2 0 0 1 -1,2 l 0,-2 z" sodipodi:start="0" sodipodi:end="1.5707963" />
      <path sodipodi:end="6.2831853" sodipodi:start="3.1415927" d="m 20.5,22 a 1.5,1 0 0 1 1.5,-1 1.5,1 0 0 1 1.5,1 L 22,22 Z" sodipodi:ry="1" sodipodi:rx="1.5" sodipodi:cy="22" sodipodi:cx="22" id="path3287" style="fill:black;fill-opacity:1;fill-rule:nonzero;stroke:none" sodipodi:type="arc" />
      <path sodipodi:type="arc" style="fill:black;fill-opacity:1;fill-rule:nonzero;stroke:none" id="path3289" sodipodi:cx="25" sodipodi:cy="22" sodipodi:rx="1.5" sodipodi:ry="1" d="m 23.5,22 a 1.5,1 0 0 1 1.5,-1 1.5,1 0 0 1 1.5,1 L 25,22 Z" sodipodi:start="3.1415927" sodipodi:end="6.2831853" />
      <path sodipodi:nodetypes="ccccccccccccc" id="use3810" d="m 15,9 -2,0 -1,4 1,0 1,-2 0,2 3,0 0,-2 1,2 1,0 -1,-4 -2,0 z" style="fill:red;fill-opacity:1;stroke:none" inkscape:connector-curvature="0" />
      <circle id="path3674" style="fill:#fc0;fill-opacity:1;fill-rule:nonzero;stroke:none" cx="15.5" cy="11" r="1.0000004" />
      <circle style="fill:#ccc;fill-opacity:1;fill-rule:nonzero;stroke:none" id="path3676" cx="7.5" cy="15" r="1.0000004" />
      <ellipse id="path3678" style="fill:#a0892c;fill-opacity:1;fill-rule:nonzero;stroke:none" cx="23.5" cy="15" rx="1" ry="1.0000004" />
      <path sodipodi:nodetypes="cccccccc" id="use3806" d="m 14,13 -1,4 2,0 0.459016,-2 L 16,17 l 2,0 -1,-4 z" style="fill:black;fill-opacity:1;fill-rule:nonzero;stroke:none" inkscape:connector-curvature="0" />
      <path sodipodi:nodetypes="cccccccc" id="use3808" d="m 22,17 -1,4 2,0 0.459016,-2 L 24,21 l 2,0 -1,-4 z" style="fill:blue;fill-opacity:1;fill-rule:nonzero;stroke:none" inkscape:connector-curvature="0" />
      <g style="fill:#803300" id="use4587" transform="translate(7,-5)">
        <ellipse transform="matrix(1,0,0,0.8,-8,8.4)" style="fill:#803300;fill-opacity:1;fill-rule:nonzero;stroke:none" id="path5002" cx="16.5" cy="4.5" rx="1.5" ry="2.5" />
        <circle r="0.5" cy="4.5" cx="20.5" style="fill:#803300;fill-opacity:1;fill-rule:nonzero;stroke:none" id="circle5004" transform="matrix(2,0,0,1,-31,8)" />
        <circle r="0.5" cy="4.5" cx="20.5" transform="matrix(2,0,0,1,-34,8)" id="circle5006" style="fill:#803300;fill-opacity:1;fill-rule:nonzero;stroke:none" />
      </g>
      <path inkscape:connector-curvature="0" id="path3203" d="M 14.5,5 C 14.224,5 14,5.224 14,5.5 L 14,7 15,6 17,7 17,5.5 C 17,5.224 16.776,5 16.5,5 l -1,0 -1,0 z" style="fill:black;fill-opacity:1;fill-rule:nonzero;stroke:none" />
      <g style="fill:#784421" id="use4589" transform="translate(15,-1)">
        <ellipse transform="matrix(1,0,0,0.8,-8,8.4)" style="fill:#784421;fill-opacity:1;fill-rule:nonzero;stroke:none" id="path4994" cx="16.5" cy="4.5" rx="1.5" ry="2.5" />
        <circle r="0.5" cy="4.5" cx="20.5" style="fill:#784421;fill-opacity:1;fill-rule:nonzero;stroke:none" id="circle4996" transform="matrix(2,0,0,1,-31,8)" />
        <circle r="0.5" cy="4.5" cx="20.5" transform="matrix(2,0,0,1,-34,8)" id="circle4998" style="fill:#784421;fill-opacity:1;fill-rule:nonzero;stroke:none" />
      </g>
      <path inkscape:connector-curvature="0" id="path3277" d="M 22.5,9 C 22.224,9 22,9.224 22,9.5 l 0,1.5 1,-1 2,1 0,-1.5 C 25,9.224 24.776,9 24.5,9 l -1,0 -1,0 z" style="fill:#28170b;fill-opacity:1;fill-rule:nonzero;stroke:none" />
    </g>
  </g>
</svg>
