<?xml version="1.0" encoding="UTF-8" standalone="no"?>
<!-- Created with Inkscape (http://www.inkscape.org/) -->

<svg
   xmlns:dc="http://purl.org/dc/elements/1.1/"
   xmlns:cc="http://creativecommons.org/ns#"
   xmlns:rdf="http://www.w3.org/1999/02/22-rdf-syntax-ns#"
   xmlns:svg="http://www.w3.org/2000/svg"
   xmlns="http://www.w3.org/2000/svg"
   xmlns:sodipodi="http://sodipodi.sourceforge.net/DTD/sodipodi-0.dtd"
   xmlns:inkscape="http://www.inkscape.org/namespaces/inkscape"
   width="32"
   height="32"
   id="svg4150"
   version="1.1"
   inkscape:version="0.48.5 r10040"
   viewBox="0 0 32 32"
   sodipodi:docname="lorbeerkranz-00.svg">
  <defs
     id="defs4152" />
  <sodipodi:namedview
     id="base"
     pagecolor="#ffffff"
     bordercolor="#666666"
     borderopacity="1.0"
     inkscape:pageopacity="0.0"
     inkscape:pageshadow="2"
     inkscape:zoom="16.5"
     inkscape:cx="16"
     inkscape:cy="16"
     inkscape:current-layer="layer1"
     showgrid="true"
     inkscape:grid-bbox="true"
     inkscape:document-units="px"
     objecttolerance="10000"
     inkscape:snap-perpendicular="true"
     guidetolerance="10000"
     inkscape:window-width="1024"
     inkscape:window-height="741"
     inkscape:window-x="0"
     inkscape:window-y="2"
     inkscape:window-maximized="1"
     showguides="true"
     inkscape:guide-bbox="true">
    <inkscape:grid
       type="xygrid"
       id="grid4698"
       empspacing="4" />
    <sodipodi:guide
       position="16,32"
       orientation="1,0"
       id="guide4769" />
    <sodipodi:guide
       position="-4,16"
       orientation="0,1"
       id="guide4771" />
    <sodipodi:guide
       position="16,16"
       orientation="-0.70710678,0.70710678"
       id="guide4773" />
    <sodipodi:guide
       position="16,16"
       orientation="0.70710678,0.70710678"
       id="guide4775" />
  </sodipodi:namedview>
  <metadata
     id="metadata4155">
    <rdf:RDF>
      <cc:Work
         rdf:about="">
        <dc:format>image/svg+xml</dc:format>
        <dc:type
           rdf:resource="http://purl.org/dc/dcmitype/StillImage" />
        <dc:title></dc:title>
      </cc:Work>
    </rdf:RDF>
  </metadata>
  <g
     id="layer1"
     inkscape:label="Layer 1"
     inkscape:groupmode="layer">
    <g
       transform="translate(29.859375,-0.1875)"
       id="g4055">
      <path
         sodipodi:nodetypes="ccsccccscccscccscccscccccccccccscccscssccscccccccccccscccscccscccsccscsccscsccssccccscccccccccccccccssccscscc"
         inkscape:connector-curvature="0"
         id="path4049"
         d="m -20.59375,4.03125 c -0.309432,0.037471 -0.596399,0.2287826 -0.75,0.5 0,0 -0.289684,0.5017443 -0.5625,1.15625 -0.170733,0.4096024 -0.230697,0.9608794 -0.34375,1.46875 -0.04252,-0.032764 -0.08345,-0.093487 -0.125,-0.125 -0.566187,-0.4293981 -1.0625,-0.75 -1.0625,-0.75 -0.61631,-0.3564642 -1.528851,0.1948624 -1.5,0.90625 0,0 0.0281,0.5491242 0.125,1.25 0.0642,0.4643288 0.260416,1.0086774 0.4375,1.53125 -0.282656,-0.094923 -0.6875,-0.25 -0.6875,-0.25 -0.69072,-0.2125407 -1.462541,0.55928 -1.25,1.25 0,0 0.161744,0.537287 0.4375,1.1875 0.145841,0.343883 0.438033,0.721888 0.65625,1.09375 -0.302511,-0.01961 -0.75,-0.0625 -0.75,-0.0625 -0.709085,0.0026 -1.22035,0.930433 -0.84375,1.53125 0,0 0.289295,0.473514 0.71875,1.03125 0.163051,0.211756 0.454891,0.401815 0.65625,0.625 -0.357556,0.06673 -0.8125,0.15625 -0.8125,0.15625 -0.682161,0.180557 -0.946007,1.198251 -0.4375,1.6875 0,0 0.41049,0.385665 0.96875,0.8125 0.316678,0.242126 0.780743,0.431874 1.1875,0.65625 -0.347288,0.16534 -0.78125,0.375 -0.78125,0.375 -0.621399,0.343956 -0.621399,1.406044 0,1.75 0,0 0.501745,0.289684 1.15625,0.5625 0.08648,0.03605 0.22102,0.02613 0.3125,0.0625 -0.222114,0.19651 -0.53125,0.5 -0.53125,0.5 -0.508507,0.489249 -0.244661,1.506943 0.4375,1.6875 0,0 0.547358,0.125176 1.25,0.21875 0.05474,0.0073 0.130997,-0.007 0.1875,0 C -22.52844,24.870911 -22.6875,25 -22.6875,25 c -0.508507,0.489249 -0.244661,1.506943 0.4375,1.6875 0,0 0.547358,0.125176 1.25,0.21875 0.392437,0.05226 0.884377,-0.02537 1.34375,-0.03125 -0.195407,0.594097 0.312141,1.304664 0.9375,1.3125 0,0 0.578504,-0.0051 1.28125,-0.09375 0.702746,-0.08863 1.550546,-0.216339 2.3125,-0.65625 0.583075,-0.33664 0.899043,-0.81 1.25,-1.25 0.353242,0.445005 0.690886,0.909152 1.28125,1.25 0.761956,0.439914 1.609753,0.567623 2.3125,0.65625 C -9.578503,28.18238 -9,28.1875 -9,28.1875 c 0.625359,-0.0078 1.1329069,-0.718403 0.9375,-1.3125 0.4593732,0.0059 0.9513134,0.08351 1.34375,0.03125 0.7026416,-0.09357 1.25,-0.21875 1.25,-0.21875 0.6821607,-0.180557 0.9460072,-1.198251 0.4375,-1.6875 0,0 -0.15906,-0.129089 -0.1875,-0.15625 0.056503,-0.007 0.1327579,0.0073 0.1875,0 0.7026416,-0.09357 1.25,-0.21875 1.25,-0.21875 0.6821607,-0.180557 0.9460072,-1.198251 0.4375,-1.6875 0,0 -0.3091355,-0.30349 -0.53125,-0.5 0.09148,-0.03637 0.2260249,-0.02645 0.3125,-0.0625 0.6545045,-0.272816 1.15625,-0.5625 1.15625,-0.5625 0.6213988,-0.343956 0.6213988,-1.406044 0,-1.75 0,0 -0.433962,-0.20966 -0.78125,-0.375 0.4067573,-0.224376 0.8708222,-0.414124 1.1875,-0.65625 0.5582602,-0.426835 0.96875,-0.8125 0.96875,-0.8125 0.5085073,-0.489249 0.2446607,-1.506943 -0.4375,-1.6875 0,0 -0.4549435,-0.08952 -0.8125,-0.15625 0.2013591,-0.223185 0.4931985,-0.413244 0.65625,-0.625 0.4294548,-0.557736 0.71875,-1.03125 0.71875,-1.03125 0.3766002,-0.600817 -0.1346647,-1.528668 -0.84375,-1.53125 0,0 -0.4474888,0.04289 -0.75,0.0625 0.2179813,-0.376188 0.5135318,-0.746514 0.65625,-1.09375 0.2680584,-0.652191 0.4375,-1.1875 0.4375,-1.1875 0.2125407,-0.69072 -0.5592804,-1.4625407 -1.25,-1.25 0,0 -0.3926578,0.162259 -0.65625,0.25 0.1747254,-0.5256299 0.3787853,-1.0656806 0.4375,-1.53125 0.088626,-0.7027485 0.09375,-1.28125 0.09375,-1.28125 0.00619,-0.7010728 -0.8927846,-1.2254722 -1.5,-0.875 0,0 -0.4963134,0.3206019 -1.0625,0.75 -0.041551,0.031513 -0.082483,0.092236 -0.125,0.125 C -5.5818025,6.6483795 -5.6417666,6.0971024 -5.8125,5.6875 -6.0853158,5.0329943 -6.375,4.53125 -6.375,4.53125 c -0.3439563,-0.6213988 -1.4060437,-0.6213988 -1.75,0 0,0 -0.289684,0.5017443 -0.5625,1.15625 -0.193021,0.4630719 -0.300672,1.0705455 -0.40625,1.65625 -0.480083,-0.3244139 -0.983348,-0.659498 -1.4375,-0.84375 -0.660085,-0.2678004 -1.1875,-0.4375 -1.1875,-0.4375 -0.69072,-0.2125407 -1.462541,0.5592804 -1.25,1.25 0,0 0.169442,0.5353089 0.4375,1.1875 0.268058,0.6521911 0.598808,1.4425684 1.21875,2.0625 0.09427,0.09427 0.163006,0.120567 0.25,0.1875 0.01607,0.265871 0.0329,0.489579 0.09375,0.84375 0.0015,0.0088 -0.0016,0.0224 0,0.03125 -0.316406,0.167913 -0.528238,0.516813 -0.53125,0.875 0,0 0.0051,0.578501 0.09375,1.28125 0.01203,0.09537 0.07935,0.212378 0.09375,0.3125 -0.5989,-0.154886 -1.269642,0.381708 -1.25,1 0,0 0.08626,0.514429 0.09375,0.65625 -0.23137,0.134332 -0.404575,0.365272 -0.46875,0.625 0,0 -0.06847,0.430543 -0.125,0.71875 -0.299181,-0.02492 -0.607127,0.09352 -0.8125,0.3125 -0.198615,-0.210607 -0.492179,-0.328033 -0.78125,-0.3125 -0.05653,-0.288207 -0.125,-0.71875 -0.125,-0.71875 -0.06418,-0.259728 -0.23738,-0.490668 -0.46875,-0.625 0.0075,-0.141821 0.09375,-0.65625 0.09375,-0.65625 0.01964,-0.618292 -0.6511,-1.154886 -1.25,-1 0.0144,-0.100122 0.08172,-0.21713 0.09375,-0.3125 0.08863,-0.702749 0.09375,-1.28125 0.09375,-1.28125 -0.003,-0.358187 -0.214844,-0.707087 -0.53125,-0.875 0.06717,-0.356201 0.07383,-0.601659 0.09375,-0.875 0.08019,-0.06649 0.172322,-0.109823 0.25,-0.1875 0.619942,-0.6199316 0.950692,-1.4103089 1.21875,-2.0625 0.268058,-0.6521911 0.4375,-1.1875 0.4375,-1.1875 0.212541,-0.6907196 -0.55928,-1.4625407 -1.25,-1.25 0,0 -0.527415,0.1696996 -1.1875,0.4375 -0.454152,0.184252 -0.957417,0.5193361 -1.4375,0.84375 -0.105578,-0.5857045 -0.213229,-1.1931781 -0.40625,-1.65625 -0.272816,-0.6545057 -0.5625,-1.15625 -0.5625,-1.15625 -0.19444,-0.3443584 -0.607849,-0.5510632 -1,-0.5 z"
         style="font-size:medium;font-style:normal;font-variant:normal;font-weight:normal;font-stretch:normal;text-indent:0;text-align:start;text-decoration:none;line-height:normal;letter-spacing:normal;word-spacing:normal;text-transform:none;direction:ltr;block-progression:tb;writing-mode:lr-tb;text-anchor:start;baseline-shift:baseline;color:black;fill:black;fill-opacity:1;fill-rule:nonzero;stroke:none;stroke-width:2;marker:none;visibility:visible;display:inline;overflow:visible;enable-background:accumulate;font-family:Sans;-inkscape-font-specification:Sans" />
      <path
         inkscape:connector-curvature="0"
         id="path3864"
         d="m -20.46875,5.03125 c 0,0 -1,1.7981499 -1,3 1e-6,1.1158818 0.814173,2.616283 0.9375,2.84375 -0.155291,0.442523 -0.317416,0.923794 -0.40625,1.40625 -0.0021,-0.105353 -0.0402,-2.018364 -0.625,-3.03125 -0.600934,-1.0408329 -2.375,-2.09375 -2.375,-2.09375 0,0 0.05532,2.0529168 0.65625,3.09375 0.600935,1.040832 2.34375,2.09375 2.34375,2.09375 -0.146165,0.821375 -0.201082,1.675356 -0.15625,2.5625 0.03751,0.74231 0.141678,1.500369 0.3125,2.25 -0.03771,-0.06259 -1.071989,-1.753844 -2.09375,-2.34375 -1.040849,-0.600924 -3.09375,-0.625 -3.09375,-0.625 0,0 1.052901,1.742825 2.09375,2.34375 1.027239,0.593067 3.041169,0.655307 3.09375,0.65625 6.97e-4,1.2e-5 0.03125,0 0.03125,0 0.03519,0.152462 0.05306,0.316887 0.09375,0.46875 0.127913,0.477371 0.264685,0.931028 0.4375,1.375 0.223884,0.575172 0.492432,1.114717 0.78125,1.625 -0.598795,-0.2927 -1.523818,-0.71875 -2.375,-0.71875 -1.201869,0 -3,1 -3,1 0,0 1.798131,1 3,1 0.987371,0 2.160364,-0.571597 2.625,-0.8125 0.187857,0.299903 0.417606,0.572448 0.625,0.84375 -0.654885,-0.127734 -1.678992,-0.282485 -2.5,-0.0625 -1.160917,0.311062 -2.625,1.75 -2.625,1.75 0,0 1.995334,0.498562 3.15625,0.1875 0.937269,-0.251137 1.875256,-1.099965 2.28125,-1.46875 0.622194,0.738375 1.301879,1.326649 2.03125,1.78125 0.09116,0.05682 0.190974,0.0977 0.28125,0.15625 0.0047,0.003 -0.0047,0.02825 0,0.03125 a 0.43972235,0.63438496 0.00456946 0 0 0.03125,0.1875 c -0.260557,0.08477 -0.510584,0.192315 -0.71875,0.3125 -1.040833,0.600925 -2.09375,2.34375 -2.09375,2.34375 0,0 2.052917,-0.02408 3.09375,-0.625 0.577625,-0.333493 1.070506,-0.955897 1.46875,-1.5 0.0036,-0.0049 0.02767,0.0049 0.03125,0 0.08499,-0.007 0.164786,-0.01988 0.25,-0.03125 0.09573,0.01336 0.185805,0.02336 0.28125,0.03125 0.0036,0.0049 0.02765,-0.0049 0.03125,0 0.398244,0.544103 0.891125,1.166507 1.46875,1.5 1.040833,0.600924 3.09375,0.625 3.09375,0.625 0,0 -1.052917,-1.742825 -2.09375,-2.34375 -0.111518,-0.06439 -0.24748,-0.130788 -0.375,-0.1875 a 0.86799177,0.60164634 0.02284611 0 0 0.125,-0.375 c 0.219868,0.210386 1.4085605,1.340927 2.46875,1.625 1.1609165,0.311062 3.15625,-0.1875 3.15625,-0.1875 0,0 -1.4640835,-1.438938 -2.625,-1.75 -1.0974673,-0.29406 -2.833054,0.108425 -3.03125,0.15625 a 0.86799177,0.60164634 0.02284611 0 0 -0.03125,-0.03125 c 0.693657,-0.446021 1.342249,-1.012349 1.9375,-1.71875 0.4059936,0.368785 1.3439811,1.217613 2.28125,1.46875 1.1609165,0.311062 3.15625,-0.1875 3.15625,-0.1875 0,0 -1.4640835,-1.438938 -2.625,-1.75 -0.8210084,-0.219985 -1.8451155,-0.06523 -2.5,0.0625 0.2073939,-0.271302 0.4371431,-0.543847 0.625,-0.84375 0.4646362,0.240903 1.637629,0.8125 2.625,0.8125 1.2018691,0 3,-1 3,-1 0,0 -1.7981308,-1 -3,-1 -0.851182,0 -1.7762045,0.42605 -2.375,0.71875 0.288818,-0.510283 0.5573657,-1.049828 0.78125,-1.625 0.1728151,-0.443972 0.3095869,-0.897629 0.4375,-1.375 0.041317,-0.154194 0.089361,-0.313941 0.125,-0.46875 0.1747703,-0.759164 0.2744984,-1.529362 0.3125,-2.28125 0.044839,-0.887172 -0.010081,-1.7411 -0.15625,-2.5625 0,0 1.774065,-1.052918 2.375,-2.09375 0.6009343,-1.0408332 0.625,-3.09375 0.625,-3.09375 0,0 -1.7740657,1.0529171 -2.375,2.09375 -0.5847988,1.012886 -0.6228976,2.925897 -0.625,3.03125 -0.092462,-0.502163 -0.210538,-1.010121 -0.375,-1.46875 0.1636033,-0.305257 0.9062495,-1.7011173 0.90625,-2.78125 -3e-7,-1.2018501 -1,-3 -1,-3 0,0 -1.0000003,1.7981499 -1,3 2e-7,0.9195654 0.478412,1.9631807 0.75,2.5 a 0.41631901,0.60062107 0.00456946 0 0 -0.4375,0.1875 C -8.1339569,10.126922 -8.5193253,9.0744153 -9.15625,8.4375 -10.0061,7.5876638 -12,7.03125 -12,7.03125 c 0,0 0.5564,1.9626638 1.40625,2.8125 0.134611,0.1346086 0.321099,0.255823 0.5,0.375 0.02823,0.564486 0.1147096,1.795291 0.59375,2.625 0.4852056,0.840387 1.5387854,1.54711 2,1.84375 -0.00708,0.531587 -0.036353,1.081874 -0.125,1.625 -0.089418,-0.597244 -0.2311821,-1.253151 -0.5,-1.71875 C -8.7259348,13.552918 -10.5,12.5 -10.5,12.5 c 0,0 0.02407,2.052918 0.625,3.09375 0.4852056,0.840387 1.5387854,1.54711 2,1.84375 -0.1943658,0.725371 -0.4438823,1.400179 -0.75,2.03125 -0.055201,-0.688123 -0.1645664,-1.623269 -0.5625,-2.3125 -0.6009348,-1.040832 -2.375,-2.09375 -2.375,-2.09375 0,0 0.04609,1.419756 0.40625,2.5 -0.415768,-0.54776 -0.8125,-0.9375 -0.8125,-0.9375 0,0 -0.498567,1.995352 -0.1875,3.15625 0.272979,1.018756 1.288475,2.143484 1.5625,2.4375 -0.709351,0.674744 -1.504142,1.165886 -2.3125,1.4375 0.261074,-0.510698 0.781249,-1.610894 0.78125,-2.5625 0,-1.20185 -1,-3 -1,-3 0,0 -0.453737,0.82334 -0.75,1.71875 -0.296292,-0.891354 -0.71875,-1.71875 -0.71875,-1.71875 0,0 -1,1.79815 -1,3 10e-7,0.951606 0.520176,2.051802 0.78125,2.5625 -0.810704,-0.272402 -1.601525,-0.759749 -2.3125,-1.4375 0.270627,-0.290166 1.288884,-1.416369 1.5625,-2.4375 0.311067,-1.160898 -0.1875,-3.15625 -0.1875,-3.15625 0,0 -0.396733,0.38974 -0.8125,0.9375 0.360155,-1.080244 0.40625,-2.5 0.40625,-2.5 0,0 -1.774065,1.052918 -2.375,2.09375 -0.389866,0.675257 -0.504632,1.589688 -0.5625,2.28125 -0.299055,-0.621837 -0.55903,-1.287303 -0.75,-2 0.461215,-0.29664 1.514795,-1.003363 2,-1.84375 0.600935,-1.040832 0.625,-3.09375 0.625,-3.09375 0,0 -1.742815,1.052918 -2.34375,2.09375 -0.268818,0.465599 -0.441832,1.121506 -0.53125,1.71875 -0.08865,-0.543126 -0.117919,-1.093413 -0.125,-1.625 0.451547,-0.289576 1.510648,-0.996181 2,-1.84375 0.479264,-0.830098 0.596841,-2.061104 0.625,-2.625 0.170523,-0.115055 0.339508,-0.2457604 0.46875,-0.375 0.84985,-0.8498362 1.40625,-2.8125 1.40625,-2.8125 0,0 -1.9939,0.5564138 -2.84375,1.40625 -0.655371,0.6553618 -1.030818,1.770907 -1.21875,2.34375 A 0.60062107,0.41631901 0.02284611 0 0 -20.34375,10.75 c 0.197876,-0.373734 0.875,-1.6743661 0.875,-2.71875 0,-1.2018501 -1,-3 -1,-3 z m 13.84375,9.875 c 0,0 1.9939,-0.556415 2.84375,-1.40625 0.8498496,-0.849837 1.40625,-2.8125 1.40625,-2.8125 0,0 -1.9939004,0.556413 -2.84375,1.40625 -0.8498495,0.849836 -1.40625,2.8125 -1.40625,2.8125 z m -0.3125,2.28125 c 0,0 2.0529008,-0.05532 3.09375,-0.65625 C -2.802901,15.930325 -1.75,14.1875 -1.75,14.1875 c 0,0 -2.052901,0.02408 -3.09375,0.625 -1.040849,0.600926 -2.09375,2.375 -2.09375,2.375 z M -7.5,19.03125 c 0,0 1.9953338,0.498561 3.15625,0.1875 1.1609163,-0.311062 2.625,-1.71875 2.625,-1.71875 0,0 -1.9953336,-0.498562 -3.15625,-0.1875 -1.1609162,0.311062 -2.625,1.71875 -2.625,1.71875 z m -8.71875,5.125 c 0,0 -1.995334,-0.498561 -3.15625,-0.1875 -1.160917,0.311062 -2.625,1.75 -2.625,1.75 0,0 1.995334,0.498562 3.15625,0.1875 1.160916,-0.311062 2.625,-1.75 2.625,-1.75 z m -4,-5.125 c 0,0 -1.464084,-1.407688 -2.625,-1.71875 C -24.004666,17.001438 -26,17.5 -26,17.5 c 0,0 1.464084,1.407688 2.625,1.71875 1.160916,0.311061 3.15625,-0.1875 3.15625,-0.1875 z m -0.875,-4.125 c 0,0 -0.5564,-1.962664 -1.40625,-2.8125 -0.849849,-0.849837 -2.84375,-1.40625 -2.84375,-1.40625 0,0 0.58765,1.962663 1.4375,2.8125 0.84985,0.849835 2.8125,1.40625 2.8125,1.40625 z m 1.78125,-3.84375 c -0.07052,0.06924 -0.153596,0.117216 -0.21875,0.1875 A 0.60062107,0.41631901 0.02284611 0 0 -19.5,11.125 c 0.05914,-0.01917 0.11131,-0.03625 0.1875,-0.0625 z m 10.90625,0 c 0.1523795,0.0525 0.2983768,0.101485 0.375,0.125 A 0.41631901,0.60062107 0.00456946 0 0 -8,11.53125 C -8.122546,11.372531 -8.2527579,11.213227 -8.40625,11.0625 z m -8.90625,7.75 c -0.06891,0.151517 -0.148617,0.323638 -0.1875,0.46875 -0.243539,0.908887 -0.02798,2.082313 0.09375,2.65625 -0.521227,-0.548071 -1.000311,-1.207551 -1.40625,-1.9375 0.32714,-0.20943 0.917771,-0.588161 1.5,-1.1875 z m 6.9375,0.03125 c 0.5856053,0.593098 1.1545779,0.986997 1.46875,1.1875 -0.402102,0.717333 -0.8924002,1.365936 -1.40625,1.90625 0.121729,-0.573937 0.3372889,-1.747363 0.09375,-2.65625 -0.03655,-0.136406 -0.09291,-0.295249 -0.15625,-0.4375 z m -3.5,3.53125 c 0.198088,0.589733 0.461411,1.121805 0.59375,1.375 -0.1727,0.04305 -0.358983,0.07135 -0.53125,0.09375 -0.03216,-0.0034 -0.06158,0.0042 -0.09375,0 -0.172267,-0.0224 -0.35855,-0.0507 -0.53125,-0.09375 0.131631,-0.251841 0.364756,-0.789169 0.5625,-1.375 z"
         style="font-size:medium;font-style:normal;font-variant:normal;font-weight:normal;font-stretch:normal;text-indent:0;text-align:start;text-decoration:none;line-height:normal;letter-spacing:normal;word-spacing:normal;text-transform:none;direction:ltr;block-progression:tb;writing-mode:lr-tb;text-anchor:start;baseline-shift:baseline;color:black;fill:green;fill-opacity:1;stroke:none;stroke-width:1.11005664;marker:none;visibility:visible;display:inline;overflow:visible;enable-background:accumulate;font-family:Sans;-inkscape-font-specification:Sans" />
      <path
         inkscape:connector-curvature="0"
         style="font-size:medium;font-style:normal;font-variant:normal;font-weight:normal;font-stretch:normal;text-indent:0;text-align:start;text-decoration:none;line-height:normal;letter-spacing:normal;word-spacing:normal;text-transform:none;direction:ltr;block-progression:tb;writing-mode:lr-tb;text-anchor:start;baseline-shift:baseline;color:black;fill:green;fill-opacity:1;stroke:none;stroke-width:1.11005664;marker:none;visibility:visible;display:inline;overflow:visible;enable-background:accumulate;font-family:Sans;-inkscape-font-specification:Sans"
         d="m -20.46875,5.03125 c 0,0 -1,1.7981499 -1,3 1e-6,1.1158818 0.814173,2.616283 0.9375,2.84375 -0.155291,0.442523 -0.317416,0.923794 -0.40625,1.40625 -0.0021,-0.105353 -0.0402,-2.018364 -0.625,-3.03125 -0.600934,-1.0408329 -2.375,-2.09375 -2.375,-2.09375 0,0 0.05532,2.0529168 0.65625,3.09375 0.600935,1.040832 2.34375,2.09375 2.34375,2.09375 -0.146165,0.821375 -0.201082,1.675356 -0.15625,2.5625 0.03751,0.74231 0.141678,1.500369 0.3125,2.25 -0.03771,-0.06259 -1.071989,-1.753844 -2.09375,-2.34375 -1.040849,-0.600924 -3.09375,-0.625 -3.09375,-0.625 0,0 1.052901,1.742825 2.09375,2.34375 1.027239,0.593067 3.041169,0.655307 3.09375,0.65625 6.97e-4,1.2e-5 0.03125,0 0.03125,0 0.03519,0.152462 0.05306,0.316887 0.09375,0.46875 0.127913,0.477371 0.264685,0.931028 0.4375,1.375 0.223884,0.575172 0.492432,1.114717 0.78125,1.625 -0.598795,-0.2927 -1.523818,-0.71875 -2.375,-0.71875 -1.201869,0 -3,1 -3,1 0,0 1.798131,1 3,1 0.987371,0 2.160364,-0.571597 2.625,-0.8125 0.187857,0.299903 0.417606,0.572448 0.625,0.84375 -0.654885,-0.127734 -1.678992,-0.282485 -2.5,-0.0625 -1.160917,0.311062 -2.625,1.75 -2.625,1.75 0,0 1.995334,0.498562 3.15625,0.1875 0.937269,-0.251137 1.875256,-1.099965 2.28125,-1.46875 0.622194,0.738375 1.301879,1.326649 2.03125,1.78125 0.09116,0.05682 0.190974,0.0977 0.28125,0.15625 0.0047,0.003 -0.0047,0.02825 0,0.03125 a 0.43972235,0.63438496 0.00456946 0 0 0.03125,0.1875 c -0.260557,0.08477 -0.510584,0.192315 -0.71875,0.3125 -1.040833,0.600925 -2.09375,2.34375 -2.09375,2.34375 0,0 2.052917,-0.02408 3.09375,-0.625 0.577625,-0.333493 1.070506,-0.955897 1.46875,-1.5 0.0036,-0.0049 0.02767,0.0049 0.03125,0 0.08499,-0.007 0.164786,-0.01988 0.25,-0.03125 0.09573,0.01336 0.185805,0.02336 0.28125,0.03125 0.0036,0.0049 0.02765,-0.0049 0.03125,0 0.398244,0.544103 0.891125,1.166507 1.46875,1.5 1.040833,0.600924 3.09375,0.625 3.09375,0.625 0,0 -1.052917,-1.742825 -2.09375,-2.34375 -0.111518,-0.06439 -0.24748,-0.130788 -0.375,-0.1875 a 0.86799177,0.60164634 0.02284611 0 0 0.125,-0.375 c 0.219868,0.210386 1.4085605,1.340927 2.46875,1.625 1.1609165,0.311062 3.15625,-0.1875 3.15625,-0.1875 0,0 -1.4640835,-1.438938 -2.625,-1.75 -1.0974673,-0.29406 -2.833054,0.108425 -3.03125,0.15625 a 0.86799177,0.60164634 0.02284611 0 0 -0.03125,-0.03125 c 0.693657,-0.446021 1.342249,-1.012349 1.9375,-1.71875 0.4059936,0.368785 1.3439811,1.217613 2.28125,1.46875 1.1609165,0.311062 3.15625,-0.1875 3.15625,-0.1875 0,0 -1.4640835,-1.438938 -2.625,-1.75 -0.8210084,-0.219985 -1.8451155,-0.06523 -2.5,0.0625 0.2073939,-0.271302 0.4371431,-0.543847 0.625,-0.84375 0.4646362,0.240903 1.637629,0.8125 2.625,0.8125 1.2018691,0 3,-1 3,-1 0,0 -1.7981308,-1 -3,-1 -0.851182,0 -1.7762045,0.42605 -2.375,0.71875 0.288818,-0.510283 0.5573657,-1.049828 0.78125,-1.625 0.1728151,-0.443972 0.3095869,-0.897629 0.4375,-1.375 0.041317,-0.154194 0.089361,-0.313941 0.125,-0.46875 0.1747703,-0.759164 0.2744984,-1.529362 0.3125,-2.28125 0.044839,-0.887172 -0.010081,-1.7411 -0.15625,-2.5625 0,0 1.774065,-1.052918 2.375,-2.09375 0.6009343,-1.0408332 0.625,-3.09375 0.625,-3.09375 0,0 -1.7740657,1.0529171 -2.375,2.09375 -0.5847988,1.012886 -0.6228976,2.925897 -0.625,3.03125 -0.092462,-0.502163 -0.210538,-1.010121 -0.375,-1.46875 0.1636033,-0.305257 0.9062495,-1.7011173 0.90625,-2.78125 -3e-7,-1.2018501 -1,-3 -1,-3 0,0 -1.0000003,1.7981499 -1,3 2e-7,0.9195654 0.478412,1.9631807 0.75,2.5 a 0.41631901,0.60062107 0.00456946 0 0 -0.4375,0.1875 C -8.1339569,10.126922 -8.5193253,9.0744153 -9.15625,8.4375 -10.0061,7.5876638 -12,7.03125 -12,7.03125 c 0,0 0.5564,1.9626638 1.40625,2.8125 0.134611,0.1346086 0.321099,0.255823 0.5,0.375 0.02823,0.564486 0.1147096,1.795291 0.59375,2.625 0.4852056,0.840387 1.5387854,1.54711 2,1.84375 -0.00708,0.531587 -0.036353,1.081874 -0.125,1.625 -0.089418,-0.597244 -0.2311821,-1.253151 -0.5,-1.71875 C -8.7259348,13.552918 -10.5,12.5 -10.5,12.5 c 0,0 0.02407,2.052918 0.625,3.09375 0.4852056,0.840387 1.5387854,1.54711 2,1.84375 -0.1943658,0.725371 -0.4438823,1.400179 -0.75,2.03125 -0.055201,-0.688123 -0.1645664,-1.623269 -0.5625,-2.3125 -0.6009348,-1.040832 -2.375,-2.09375 -2.375,-2.09375 0,0 0.04609,1.419756 0.40625,2.5 -0.415768,-0.54776 -0.8125,-0.9375 -0.8125,-0.9375 0,0 -0.498567,1.995352 -0.1875,3.15625 0.272979,1.018756 1.288475,2.143484 1.5625,2.4375 -0.709351,0.674744 -1.504142,1.165886 -2.3125,1.4375 0.261074,-0.510698 0.781249,-1.610894 0.78125,-2.5625 0,-1.20185 -1,-3 -1,-3 0,0 -0.453737,0.82334 -0.75,1.71875 -0.296292,-0.891354 -0.71875,-1.71875 -0.71875,-1.71875 0,0 -1,1.79815 -1,3 10e-7,0.951606 0.520176,2.051802 0.78125,2.5625 -0.810704,-0.272402 -1.601525,-0.759749 -2.3125,-1.4375 0.270627,-0.290166 1.288884,-1.416369 1.5625,-2.4375 0.311067,-1.160898 -0.1875,-3.15625 -0.1875,-3.15625 0,0 -0.396733,0.38974 -0.8125,0.9375 0.360155,-1.080244 0.40625,-2.5 0.40625,-2.5 0,0 -1.774065,1.052918 -2.375,2.09375 -0.389866,0.675257 -0.504632,1.589688 -0.5625,2.28125 -0.299055,-0.621837 -0.55903,-1.287303 -0.75,-2 0.461215,-0.29664 1.514795,-1.003363 2,-1.84375 0.600935,-1.040832 0.625,-3.09375 0.625,-3.09375 0,0 -1.742815,1.052918 -2.34375,2.09375 -0.268818,0.465599 -0.441832,1.121506 -0.53125,1.71875 -0.08865,-0.543126 -0.117919,-1.093413 -0.125,-1.625 0.451547,-0.289576 1.510648,-0.996181 2,-1.84375 0.479264,-0.830098 0.596841,-2.061104 0.625,-2.625 0.170523,-0.115055 0.339508,-0.2457604 0.46875,-0.375 0.84985,-0.8498362 1.40625,-2.8125 1.40625,-2.8125 0,0 -1.9939,0.5564138 -2.84375,1.40625 -0.655371,0.6553618 -1.030818,1.770907 -1.21875,2.34375 A 0.60062107,0.41631901 0.02284611 0 0 -20.34375,10.75 c 0.197876,-0.373734 0.875,-1.6743661 0.875,-2.71875 0,-1.2018501 -1,-3 -1,-3 z m 13.84375,9.875 c 0,0 1.9939,-0.556415 2.84375,-1.40625 0.8498496,-0.849837 1.40625,-2.8125 1.40625,-2.8125 0,0 -1.9939004,0.556413 -2.84375,1.40625 -0.8498495,0.849836 -1.40625,2.8125 -1.40625,2.8125 z m -0.3125,2.28125 c 0,0 2.0529008,-0.05532 3.09375,-0.65625 C -2.802901,15.930325 -1.75,14.1875 -1.75,14.1875 c 0,0 -2.052901,0.02408 -3.09375,0.625 -1.040849,0.600926 -2.09375,2.375 -2.09375,2.375 z M -7.5,19.03125 c 0,0 1.9953338,0.498561 3.15625,0.1875 1.1609163,-0.311062 2.625,-1.71875 2.625,-1.71875 0,0 -1.9953336,-0.498562 -3.15625,-0.1875 -1.1609162,0.311062 -2.625,1.71875 -2.625,1.71875 z m -8.71875,5.125 c 0,0 -1.995334,-0.498561 -3.15625,-0.1875 -1.160917,0.311062 -2.625,1.75 -2.625,1.75 0,0 1.995334,0.498562 3.15625,0.1875 1.160916,-0.311062 2.625,-1.75 2.625,-1.75 z m -4,-5.125 c 0,0 -1.464084,-1.407688 -2.625,-1.71875 C -24.004666,17.001438 -26,17.5 -26,17.5 c 0,0 1.464084,1.407688 2.625,1.71875 1.160916,0.311061 3.15625,-0.1875 3.15625,-0.1875 z m -0.875,-4.125 c 0,0 -0.5564,-1.962664 -1.40625,-2.8125 -0.849849,-0.849837 -2.84375,-1.40625 -2.84375,-1.40625 0,0 0.58765,1.962663 1.4375,2.8125 0.84985,0.849835 2.8125,1.40625 2.8125,1.40625 z m 1.78125,-3.84375 c -0.07052,0.06924 -0.153596,0.117216 -0.21875,0.1875 A 0.60062107,0.41631901 0.02284611 0 0 -19.5,11.125 c 0.05914,-0.01917 0.11131,-0.03625 0.1875,-0.0625 z m 10.90625,0 c 0.1523795,0.0525 0.2983768,0.101485 0.375,0.125 A 0.41631901,0.60062107 0.00456946 0 0 -8,11.53125 C -8.122546,11.372531 -8.2527579,11.213227 -8.40625,11.0625 z m -8.90625,7.75 c -0.06891,0.151517 -0.148617,0.323638 -0.1875,0.46875 -0.243539,0.908887 -0.02798,2.082313 0.09375,2.65625 -0.521227,-0.548071 -1.000311,-1.207551 -1.40625,-1.9375 0.32714,-0.20943 0.917771,-0.588161 1.5,-1.1875 z m 6.9375,0.03125 c 0.5856053,0.593098 1.1545779,0.986997 1.46875,1.1875 -0.402102,0.717333 -0.8924002,1.365936 -1.40625,1.90625 0.121729,-0.573937 0.3372889,-1.747363 0.09375,-2.65625 -0.03655,-0.136406 -0.09291,-0.295249 -0.15625,-0.4375 z m -3.5,3.53125 c 0.198088,0.589733 0.461411,1.121805 0.59375,1.375 -0.1727,0.04305 -0.358983,0.07135 -0.53125,0.09375 -0.03216,-0.0034 -0.06158,0.0042 -0.09375,0 -0.172267,-0.0224 -0.35855,-0.0507 -0.53125,-0.09375 0.131631,-0.251841 0.364756,-0.789169 0.5625,-1.375 z"
         id="path4051" />
    </g>
  </g>
</svg>
