<?xml version="1.0" encoding="UTF-8" standalone="no"?>
<!-- Created with Inkscape (http://www.inkscape.org/) -->

<svg xmlns:dc="http://purl.org/dc/elements/1.1/" xmlns:cc="http://creativecommons.org/ns#" xmlns:rdf="http://www.w3.org/1999/02/22-rdf-syntax-ns#" xmlns:svg="http://www.w3.org/2000/svg" xmlns="http://www.w3.org/2000/svg" xmlns:xlink="http://www.w3.org/1999/xlink" xmlns:sodipodi="http://sodipodi.sourceforge.net/DTD/sodipodi-0.dtd" xmlns:inkscape="http://www.inkscape.org/namespaces/inkscape" width="32" height="32" id="svg4150" version="1.1" inkscape:version="0.91 r13725" viewBox="0 0 32 32" sodipodi:docname="symbol-lang-en.svg">
  <defs id="defs4152" />
  <sodipodi:namedview id="base" pagecolor="#ffffff" bordercolor="#666666" borderopacity="1.0" inkscape:pageopacity="0.0" inkscape:pageshadow="2" inkscape:zoom="22.125" inkscape:cx="16" inkscape:cy="16" inkscape:current-layer="layer1" showgrid="true" inkscape:grid-bbox="true" inkscape:document-units="px" objecttolerance="10000" inkscape:snap-perpendicular="true" guidetolerance="10000" inkscape:window-width="1600" inkscape:window-height="878" inkscape:window-x="0" inkscape:window-y="0" inkscape:window-maximized="1" showguides="true" inkscape:guide-bbox="true">
    <inkscape:grid type="xygrid" id="grid4698" empspacing="4" />
    <sodipodi:guide position="16,32" orientation="1,0" id="guide4769" />
    <sodipodi:guide position="-4,16" orientation="0,1" id="guide4771" />
    <sodipodi:guide position="16,16" orientation="-0.70710678,0.70710678" id="guide4773" />
    <sodipodi:guide position="16,16" orientation="0.70710678,0.70710678" id="guide4775" />
  </sodipodi:namedview>
  <metadata id="metadata4155">
    <rdf:RDF>
      <cc:Work rdf:about="">
        <dc:format>image/svg+xml</dc:format>
        <dc:type rdf:resource="http://purl.org/dc/dcmitype/StillImage" />
        <dc:title></dc:title>
      </cc:Work>
    </rdf:RDF>
  </metadata>
  <g id="layer1" inkscape:label="Layer 1" inkscape:groupmode="layer">
    <g id="g4208">
      <rect y="10" x="2" height="14" width="26" id="rect4206" style="opacity:1;fill:black;fill-opacity:0.50196078;fill-rule:nonzero;stroke:none;stroke-width:1;stroke-linecap:round;stroke-linejoin:round;stroke-miterlimit:4;stroke-dasharray:none;stroke-dashoffset:0;stroke-opacity:1" />
      <g transform="matrix(0.00350877,0,0,0.00358984,3,8.9996258)" id="g5444">
        <rect style="fill:#b22234" y="0" x="0" width="7410" height="3900" id="rect4" />
        <path inkscape:connector-curvature="0" style="color:black;font-style:normal;font-variant:normal;font-weight:normal;font-stretch:normal;font-size:medium;line-height:normal;font-family:sans-serif;text-indent:0;text-align:start;text-decoration:none;text-decoration-line:none;text-decoration-style:solid;text-decoration-color:black;letter-spacing:normal;word-spacing:normal;text-transform:none;direction:ltr;block-progression:tb;writing-mode:lr-tb;baseline-shift:baseline;text-anchor:start;white-space:normal;clip-rule:nonzero;display:inline;overflow:visible;visibility:visible;opacity:1;isolation:auto;mix-blend-mode:normal;color-interpolation:sRGB;color-interpolation-filters:linearRGB;solid-color:black;solid-opacity:1;fill:white;fill-opacity:1;fill-rule:nonzero;stroke:none;stroke-width:300;stroke-linecap:butt;stroke-linejoin:miter;stroke-miterlimit:4;stroke-dasharray:none;stroke-dashoffset:0;stroke-opacity:1;color-rendering:auto;image-rendering:auto;shape-rendering:auto;text-rendering:auto;enable-background:accumulate" d="m 0,300 0,300 7410,0 0,-300 -7410,0 z m 0,600 0,300 7410,0 0,-300 -7410,0 z m 0,600 0,300 7410,0 0,-300 -7410,0 z m 0,600 0,300 7410,0 0,-300 -7410,0 z m 0,600 0,300 7410,0 0,-300 -7410,0 z m 0,600 0,300 7410,0 0,-300 -7410,0 z" id="path6" />
        <rect style="fill:#3c3b6e" y="0" x="0" width="2964" height="2100" id="rect8" />
        <g id="g4493">
          <path inkscape:connector-curvature="0" id="s" d="m 247,90 70.53423,217.08204 -184.66101,-134.16408 228.25356,0 -184.66101,134.16408 z" style="fill:white" />
          <use xlink:href="#s" y="420" id="use17" x="0" width="100%" height="100%" style="fill:none" />
          <use xlink:href="#s" y="840" id="use19" x="0" width="100%" height="100%" style="fill:none" />
          <use xlink:href="#s" y="1260" id="use21" x="0" width="100%" height="100%" style="fill:none" />
          <use height="100%" width="100%" x="0" id="use23" y="1680" xlink:href="#s" style="fill:none" />
          <use style="fill:none" height="100%" width="100%" transform="translate(0,-420)" id="use4473" xlink:href="#use4405" y="0" x="0" />
          <use transform="translate(247,210)" height="100%" width="100%" x="0" id="use4405" y="420" xlink:href="#s" style="fill:none" />
          <use transform="translate(247,210)" height="100%" width="100%" x="0" id="use4407" y="840" xlink:href="#s" style="fill:none" />
          <use transform="translate(247,210)" height="100%" width="100%" x="0" id="use4409" y="1260" xlink:href="#s" style="fill:none" />
          <use style="fill:none" height="100%" width="100%" transform="translate(0,-420)" id="use4475" xlink:href="#use4225" y="0" x="0" />
          <use style="fill:none" height="100%" width="100%" transform="translate(0,-420)" id="use4477" xlink:href="#use4415" y="0" x="0" />
          <use transform="translate(494,0)" height="100%" width="100%" x="0" id="use4225" y="420" xlink:href="#s" style="fill:none" />
          <use transform="translate(494,0)" height="100%" width="100%" x="0" id="use4227" y="840" xlink:href="#s" style="fill:none" />
          <use transform="translate(494,0)" height="100%" width="100%" x="0" id="use4229" y="1260" xlink:href="#s" style="fill:none" />
          <use transform="translate(494,0)" xlink:href="#s" y="1680" id="use4231" x="0" width="100%" height="100%" style="fill:none" />
          <use style="fill:none" height="100%" width="100%" transform="translate(0,-420)" id="use4479" xlink:href="#use4195" y="0" x="0" />
          <use transform="translate(741,210)" height="100%" width="100%" x="0" id="use4415" y="420" xlink:href="#s" style="fill:none" />
          <use transform="translate(741,210)" height="100%" width="100%" x="0" id="use4417" y="840" xlink:href="#s" style="fill:none" />
          <use transform="translate(741,210)" height="100%" width="100%" x="0" id="use4419" y="1260" xlink:href="#s" style="fill:none" />
          <use style="fill:none" height="100%" width="100%" transform="translate(0,-420)" id="use4481" xlink:href="#use4395" y="0" x="0" />
          <use style="fill:none" height="100%" width="100%" transform="translate(0,-420)" id="use4483" xlink:href="#use4283" y="0" x="0" />
          <use transform="translate(988,0)" height="100%" width="100%" x="0" id="use4195" y="420" xlink:href="#s" style="fill:none" />
          <use transform="translate(988,0)" height="100%" width="100%" x="0" id="use4197" y="840" xlink:href="#s" style="fill:none" />
          <use transform="translate(988,0)" height="100%" width="100%" x="0" id="use4199" y="1260" xlink:href="#s" style="fill:none" />
          <use transform="translate(988,0)" xlink:href="#s" y="1680" id="use4201" x="0" width="100%" height="100%" style="fill:none" />
          <use style="fill:none" height="100%" width="100%" transform="translate(0,-420)" id="use4485" xlink:href="#use4385" y="0" x="0" />
          <use transform="translate(1235,210)" height="100%" width="100%" x="0" id="use4395" y="420" xlink:href="#s" style="fill:none" />
          <use transform="translate(1235,210)" height="100%" width="100%" x="0" id="use4397" y="840" xlink:href="#s" style="fill:none" />
          <use transform="translate(1235,210)" height="100%" width="100%" x="0" id="use4399" y="1260" xlink:href="#s" style="fill:none" />
          <use style="fill:none" height="100%" width="100%" transform="translate(0,-420)" id="use4487" xlink:href="#use4243" y="0" x="0" />
          <use style="fill:none" height="100%" width="100%" transform="translate(0,-420)" id="use4489" xlink:href="#use4375" y="0" x="0" />
          <use transform="translate(1482,0)" xlink:href="#s" y="420" id="use4283" x="0" width="100%" height="100%" style="fill:none" />
          <use transform="translate(1482,0)" xlink:href="#s" y="840" id="use4285" x="0" width="100%" height="100%" style="fill:none" />
          <use transform="translate(1482,0)" xlink:href="#s" y="1260" id="use4287" x="0" width="100%" height="100%" style="fill:none" />
          <use transform="translate(1482,0)" height="100%" width="100%" x="0" id="use4289" y="1680" xlink:href="#s" style="fill:none" />
          <use style="fill:none" height="100%" width="100%" transform="translate(0,-420)" id="use4491" xlink:href="#use4259" y="0" x="0" />
          <use transform="translate(1729,210)" height="100%" width="100%" x="0" id="use4385" y="420" xlink:href="#s" style="fill:none" />
          <use transform="translate(1729,210)" height="100%" width="100%" x="0" id="use4387" y="840" xlink:href="#s" style="fill:none" />
          <use transform="translate(1729,210)" height="100%" width="100%" x="0" id="use4389" y="1260" xlink:href="#s" style="fill:none" />
          <use transform="translate(1976,0)" height="100%" width="100%" x="0" id="use4243" y="420" xlink:href="#s" style="fill:none" />
          <use transform="translate(1976,0)" height="100%" width="100%" x="0" id="use4245" y="840" xlink:href="#s" style="fill:none" />
          <use transform="translate(1976,0)" height="100%" width="100%" x="0" id="use4247" y="1260" xlink:href="#s" style="fill:none" />
          <use transform="translate(1976,0)" xlink:href="#s" y="1680" id="use4249" x="0" width="100%" height="100%" style="fill:none" />
          <use transform="translate(2223,210)" height="100%" width="100%" x="0" id="use4375" y="420" xlink:href="#s" style="fill:none" />
          <use transform="translate(2223,210)" height="100%" width="100%" x="0" id="use4377" y="840" xlink:href="#s" style="fill:none" />
          <use transform="translate(2223,210)" height="100%" width="100%" x="0" id="use4379" y="1260" xlink:href="#s" style="fill:none" />
          <use transform="translate(2470,0)" xlink:href="#s" y="420" id="use4259" x="0" width="100%" height="100%" style="fill:none" />
          <use transform="translate(2470,0)" xlink:href="#s" y="840" id="use4261" x="0" width="100%" height="100%" style="fill:none" />
          <use transform="translate(2470,0)" xlink:href="#s" y="1260" id="use4263" x="0" width="100%" height="100%" style="fill:none" />
          <use transform="translate(2470,0)" height="100%" width="100%" x="0" id="use4265" y="1680" xlink:href="#s" style="fill:none" />
        </g>
      </g>
      <g transform="matrix(0.43329626,0,0,0.46664343,3,8.9999999)" id="g6449">
        <path inkscape:connector-curvature="0" id="path5778" d="M 0,0 0,30 60,30 60,0 Z" style="fill:#00247d" />
        <path inkscape:connector-curvature="0" id="path5780" d="M 0,0 0,3.3544922 23.291015,15 0,26.645508 0,30 6.709375,30 30,18.355469 53.290625,30 60,30 60,26.645508 36.708985,15 60,3.3544922 60,0 53.290625,0 30,11.644531 6.709375,0 0,0 Z" style="color:black;font-style:normal;font-variant:normal;font-weight:normal;font-stretch:normal;font-size:medium;line-height:normal;font-family:sans-serif;text-indent:0;text-align:start;text-decoration:none;text-decoration-line:none;text-decoration-style:solid;text-decoration-color:black;letter-spacing:normal;word-spacing:normal;text-transform:none;direction:ltr;block-progression:tb;writing-mode:lr-tb;baseline-shift:baseline;text-anchor:start;white-space:normal;clip-rule:nonzero;display:inline;overflow:visible;visibility:visible;opacity:1;isolation:auto;mix-blend-mode:normal;color-interpolation:sRGB;color-interpolation-filters:linearRGB;solid-color:black;solid-opacity:1;fill:white;fill-opacity:1;fill-rule:nonzero;stroke:none;stroke-width:6;stroke-linecap:butt;stroke-linejoin:miter;stroke-miterlimit:4;stroke-dasharray:none;stroke-dashoffset:0;stroke-opacity:1;color-rendering:auto;image-rendering:auto;shape-rendering:auto;text-rendering:auto;enable-background:accumulate" />
        <path inkscape:connector-curvature="0" id="path6430" d="m 0,0 20.005134,10.001494 -4.48046,-0.0012 L 0,2.2381847 Z" style="opacity:1;fill:#cf142b;fill-opacity:1;fill-rule:nonzero;stroke:none;stroke-width:1;stroke-linecap:round;stroke-linejoin:round;stroke-miterlimit:4;stroke-dasharray:none;stroke-dashoffset:0;stroke-opacity:1" />
        <path inkscape:connector-curvature="0" id="path5784" d="m 25,0 0,10 -25,0 0,10 25,0 0,10 10,0 0,-10 25,0 0,-10 -25,0 0,-10 -10,0 z" style="color:black;font-style:normal;font-variant:normal;font-weight:normal;font-stretch:normal;font-size:medium;line-height:normal;font-family:sans-serif;text-indent:0;text-align:start;text-decoration:none;text-decoration-line:none;text-decoration-style:solid;text-decoration-color:black;letter-spacing:normal;word-spacing:normal;text-transform:none;direction:ltr;block-progression:tb;writing-mode:lr-tb;baseline-shift:baseline;text-anchor:start;white-space:normal;clip-rule:nonzero;display:inline;overflow:visible;visibility:visible;opacity:1;isolation:auto;mix-blend-mode:normal;color-interpolation:sRGB;color-interpolation-filters:linearRGB;solid-color:black;solid-opacity:1;fill:white;fill-opacity:1;fill-rule:nonzero;stroke:none;stroke-width:10;stroke-linecap:butt;stroke-linejoin:miter;stroke-miterlimit:4;stroke-dasharray:none;stroke-dashoffset:0;stroke-opacity:1;color-rendering:auto;image-rendering:auto;shape-rendering:auto;text-rendering:auto;enable-background:accumulate" />
        <path inkscape:connector-curvature="0" id="path5786" d="m 27,0 0,12 -27,0 0,6 27,0 0,12 6,0 0,-12 27,0 0,-6 -27,0 0,-12 -6,0 z" style="color:black;font-style:normal;font-variant:normal;font-weight:normal;font-stretch:normal;font-size:medium;line-height:normal;font-family:sans-serif;text-indent:0;text-align:start;text-decoration:none;text-decoration-line:none;text-decoration-style:solid;text-decoration-color:black;letter-spacing:normal;word-spacing:normal;text-transform:none;direction:ltr;block-progression:tb;writing-mode:lr-tb;baseline-shift:baseline;text-anchor:start;white-space:normal;clip-rule:nonzero;display:inline;overflow:visible;visibility:visible;opacity:1;isolation:auto;mix-blend-mode:normal;color-interpolation:sRGB;color-interpolation-filters:linearRGB;solid-color:black;solid-opacity:1;fill:#cf142b;fill-opacity:1;fill-rule:nonzero;stroke:none;stroke-width:6;stroke-linecap:butt;stroke-linejoin:miter;stroke-miterlimit:4;stroke-dasharray:none;stroke-dashoffset:0;stroke-opacity:1;color-rendering:auto;image-rendering:auto;shape-rendering:auto;text-rendering:auto;enable-background:accumulate" />
        <path inkscape:connector-curvature="0" style="opacity:1;fill:#cf142b;fill-opacity:1;fill-rule:nonzero;stroke:none;stroke-width:1;stroke-linecap:round;stroke-linejoin:round;stroke-miterlimit:4;stroke-dasharray:none;stroke-dashoffset:0;stroke-opacity:1" d="M 60.005134,30.001494 40,20 l 4.48046,0.0012 15.524674,7.762109 z" id="path6432" />
        <path inkscape:connector-curvature="0" id="path6434" d="m 60,0 -4.5,0 -20,10 4.5,0 z" style="opacity:1;fill:#cf142b;fill-opacity:1;fill-rule:nonzero;stroke:none;stroke-width:1;stroke-linecap:round;stroke-linejoin:round;stroke-miterlimit:4;stroke-dasharray:none;stroke-dashoffset:0;stroke-opacity:1" />
        <path inkscape:connector-curvature="0" id="path6436" d="M 0,30 4.4754643,30 24.468454,20 20,20 Z" style="opacity:1;fill:#cf142b;fill-opacity:1;fill-rule:nonzero;stroke:none;stroke-width:1;stroke-linecap:round;stroke-linejoin:round;stroke-miterlimit:4;stroke-dasharray:none;stroke-dashoffset:0;stroke-opacity:1" />
      </g>
    </g>
  </g>
</svg>
