<?xml version="1.0" encoding="UTF-8" standalone="no"?>
<!-- Created with Inkscape (http://www.inkscape.org/) -->

<svg
   xmlns:dc="http://purl.org/dc/elements/1.1/"
   xmlns:cc="http://creativecommons.org/ns#"
   xmlns:rdf="http://www.w3.org/1999/02/22-rdf-syntax-ns#"
   xmlns:svg="http://www.w3.org/2000/svg"
   xmlns="http://www.w3.org/2000/svg"
   xmlns:sodipodi="http://sodipodi.sourceforge.net/DTD/sodipodi-0.dtd"
   xmlns:inkscape="http://www.inkscape.org/namespaces/inkscape"
   width="96"
   height="32"
   id="svg3505"
   sodipodi:version="0.32"
   inkscape:version="0.47 r22583"
   sodipodi:docname="door-horizontal-open-00.svg"
   inkscape:output_extension="org.inkscape.output.svg.inkscape"
   version="1.0">
  <title
     id="title2839">Open door (horizontal)</title>
  <defs
     id="defs3507">
    <inkscape:perspective
       sodipodi:type="inkscape:persp3d"
       inkscape:vp_x="0 : 48 : 1"
       inkscape:vp_y="0 : 1000 : 0"
       inkscape:vp_z="96 : 48 : 1"
       inkscape:persp3d-origin="48 : 32 : 1"
       id="perspective46" />
  </defs>
  <sodipodi:namedview
     id="base"
     pagecolor="#ffffff"
     bordercolor="#666666"
     borderopacity="1.0"
     inkscape:pageopacity="0.0"
     inkscape:pageshadow="2"
     inkscape:zoom="4.9166667"
     inkscape:cx="48"
     inkscape:cy="15.457627"
     inkscape:current-layer="layer1"
     showgrid="true"
     inkscape:grid-bbox="true"
     inkscape:document-units="px"
     objecttolerance="4"
     gridtolerance="4"
     guidetolerance="4"
     inkscape:window-width="1280"
     inkscape:window-height="713"
     inkscape:window-x="0"
     inkscape:window-y="37"
     inkscape:object-paths="true"
     inkscape:object-nodes="true"
     inkscape:snap-bbox="true"
     inkscape:snap-guide="true"
     showguides="true"
     inkscape:guide-bbox="true"
     inkscape:window-maximized="0">
    <inkscape:grid
       type="xygrid"
       id="grid3515"
       units="px"
       visible="true"
       enabled="true"
       spacingx="1px"
       spacingy="1px"
       empspacing="4"
       snapvisiblegridlinesonly="true" />
    <sodipodi:guide
       orientation="1,0"
       position="32,13"
       id="guide3905" />
    <sodipodi:guide
       orientation="1,0"
       position="64,2"
       id="guide3907" />
    <sodipodi:guide
       orientation="0,1"
       position="-50,64"
       id="guide3909" />
    <sodipodi:guide
       orientation="0,1"
       position="-60,32"
       id="guide3911" />
  </sodipodi:namedview>
  <metadata
     id="metadata3510">
    <rdf:RDF>
      <cc:Work
         rdf:about="">
        <dc:format>image/svg+xml</dc:format>
        <dc:type
           rdf:resource="http://purl.org/dc/dcmitype/StillImage" />
        <dc:title>Open door (horizontal)</dc:title>
        <dc:date>2010-008-09</dc:date>
        <dc:creator>
          <cc:Agent>
            <dc:title>Andreas Neudecker &lt;zapyon@gmx.net&gt;</dc:title>
          </cc:Agent>
        </dc:creator>
        <dc:rights>
          <cc:Agent>
            <dc:title>Copyright (C) 2010 by Andreas Neudecker</dc:title>
          </cc:Agent>
        </dc:rights>
        <dc:publisher>
          <cc:Agent>
            <dc:title>Andreas Neudecker</dc:title>
          </cc:Agent>
        </dc:publisher>
        <dc:identifier>door-horizontal-open</dc:identifier>
        <dc:description>Open door.</dc:description>
      </cc:Work>
    </rdf:RDF>
  </metadata>
  <g
     id="layer1"
     inkscape:label="Layer 1"
     inkscape:groupmode="layer"
     transform="translate(0,-64)">
    <g
       id="g3391"
       transform="translate(0,32)">
      <path
         id="rect3342"
         d="m 61,32 0,32 5,0 0,-32 -5,0 z m 1,1 3,0 0,30 -3,0 0,-30 z"
         style="fill:#000000;fill-opacity:1;fill-rule:nonzero;stroke:none" />
      <rect
         style="fill:#000000;fill-opacity:1;fill-rule:nonzero;stroke:none"
         id="rect3226"
         width="5"
         height="4"
         x="63"
         y="44" />
      <rect
         y="45"
         x="28"
         height="13"
         width="3"
         id="rect5826"
         style="fill:#000000;fill-opacity:1;fill-rule:nonzero;stroke:none" />
      <rect
         style="fill:#c0c0c0;fill-opacity:1;fill-rule:nonzero;stroke:none"
         id="rect5830"
         width="5"
         height="1"
         x="63"
         y="45" />
      <rect
         y="46"
         x="63"
         height="1"
         width="5"
         id="rect5832"
         style="fill:#909090;fill-opacity:1;fill-rule:nonzero;stroke:none" />
      <rect
         y="55"
         x="64"
         height="4"
         width="4"
         id="rect5864"
         style="fill:#000000;fill-opacity:1;fill-rule:nonzero;stroke:none" />
      <rect
         y="56"
         x="64"
         height="1"
         width="4"
         id="rect5866"
         style="fill:#c0c0c0;fill-opacity:1;fill-rule:nonzero;stroke:none" />
      <rect
         style="fill:#909090;fill-opacity:1;fill-rule:nonzero;stroke:none"
         id="rect5868"
         width="4"
         height="1"
         x="64"
         y="57" />
      <rect
         y="46"
         x="28"
         height="11"
         width="2"
         id="rect5870"
         style="fill:#c0c0c0;fill-opacity:1;fill-rule:nonzero;stroke:none" />
      <rect
         y="33"
         x="62"
         height="30"
         width="3"
         id="rect2545"
         style="fill:#d0aa00;fill-opacity:1;fill-rule:nonzero;stroke:none" />
      <path
         sodipodi:nodetypes="cccccccc"
         id="path3361"
         d="m 62,33 0,30 1,0 2,0 -1,-1 -1,0 0,-28 -1,-1 z"
         style="fill:#805500;fill-opacity:1;fill-rule:nonzero;stroke:none" />
      <path
         style="fill:#e6be00;fill-opacity:1;fill-rule:nonzero;stroke:none"
         d="m 64,34 -1,0 -1,-1 3,0 0,30 -1,-1 0,-28 z"
         id="path3363"
         sodipodi:nodetypes="ccccccc" />
      <rect
         style="fill:#c0c0c0;fill-opacity:1;fill-rule:nonzero;stroke:none"
         id="rect3344"
         width="4"
         height="11"
         x="61"
         y="46" />
      <rect
         y="48"
         x="62"
         height="7.2706494"
         width="2"
         id="rect3346"
         style="fill:#404040;fill-opacity:1;fill-rule:nonzero;stroke:none" />
      <rect
         y="45"
         x="60"
         height="1"
         width="1"
         id="rect3353"
         style="fill:#000000;fill-opacity:1;fill-rule:nonzero;stroke:none" />
      <rect
         style="fill:#000000;fill-opacity:1;fill-rule:nonzero;stroke:none"
         id="rect3355"
         width="1"
         height="1"
         x="60"
         y="57" />
      <rect
         y="46"
         x="60"
         height="11"
         width="1"
         id="rect3357"
         style="fill:#000000;fill-opacity:1;fill-rule:nonzero;stroke:none" />
      <path
         sodipodi:nodetypes="cccccccc"
         id="rect3365"
         d="m 56,48 0,1 3,0 0,1 1,0 0,-2 -1,0 -3,0 z"
         style="fill:#909090;fill-opacity:1;fill-rule:nonzero;stroke:none" />
      <path
         id="rect3370"
         d="m 55,47 0,1 0,2 1,0 2,0 0,1 1,0 1,0 0,-1 -1,0 0,-1 -3,0 0,-1 4,0 0,-1 -5,0 z"
         style="fill:#000000;fill-opacity:1;fill-rule:nonzero;stroke:none" />
      <path
         style="fill:#c0c0c0;fill-opacity:1;fill-rule:nonzero;stroke:none"
         d="m 70,48 0,1 -3,0 0,1 -1,0 0,-2 1,0 3,0 z"
         id="path3384"
         sodipodi:nodetypes="cccccccc" />
      <path
         style="fill:#000000;fill-opacity:1;fill-rule:nonzero;stroke:none"
         d="m 71,47 0,1 0,2 -1,0 -2,0 0,1 -1,0 -1,0 0,-1 1,0 0,-1 3,0 0,-1 -4,0 0,-1 5,0 z"
         id="path3386" />
    </g>
  </g>
</svg>
