<?xml version="1.0" encoding="UTF-8" standalone="no"?>
<!-- Created with Inkscape (http://www.inkscape.org/) -->

<svg
   xmlns:dc="http://purl.org/dc/elements/1.1/"
   xmlns:cc="http://creativecommons.org/ns#"
   xmlns:rdf="http://www.w3.org/1999/02/22-rdf-syntax-ns#"
   xmlns:svg="http://www.w3.org/2000/svg"
   xmlns="http://www.w3.org/2000/svg"
   xmlns:sodipodi="http://sodipodi.sourceforge.net/DTD/sodipodi-0.dtd"
   xmlns:inkscape="http://www.inkscape.org/namespaces/inkscape"
   width="8"
   height="8"
   id="svg2"
   version="1.1"
   inkscape:version="0.48.5 r10040"
   sodipodi:docname="field-rock-me-00.svg">
  <defs
     id="defs4" />
  <sodipodi:namedview
     id="base"
     pagecolor="#ffffff"
     bordercolor="#666666"
     borderopacity="1.0"
     inkscape:pageopacity="0.0"
     inkscape:pageshadow="2"
     inkscape:zoom="65.5"
     inkscape:cx="4"
     inkscape:cy="4"
     inkscape:document-units="px"
     inkscape:current-layer="layer1"
     showgrid="true"
     objecttolerance="10000"
     guidetolerance="10000"
     showguides="true"
     inkscape:guide-bbox="true"
     inkscape:window-width="1024"
     inkscape:window-height="741"
     inkscape:window-x="0"
     inkscape:window-y="2"
     inkscape:window-maximized="1">
    <inkscape:grid
       type="xygrid"
       id="grid3004"
       empspacing="8"
       visible="true"
       enabled="true"
       snapvisiblegridlinesonly="true"
       spacingx="0.5px"
       spacingy="0.5px" />
    <sodipodi:guide
       orientation="0,1"
       position="-2,4"
       id="guide3006" />
    <sodipodi:guide
       orientation="-0.70710678,0.70710678"
       position="0,0"
       id="guide3008" />
    <sodipodi:guide
       orientation="0.70710678,0.70710678"
       position="4,4"
       id="guide3010" />
    <sodipodi:guide
       orientation="0,1"
       position="-2,6"
       id="guide3624" />
    <sodipodi:guide
       orientation="1,0"
       position="0,10"
       id="guide3626" />
    <sodipodi:guide
       orientation="1,0"
       position="8,10"
       id="guide3628" />
    <sodipodi:guide
       orientation="0,1"
       position="-2,2"
       id="guide3630" />
    <sodipodi:guide
       orientation="1,0"
       position="2,10"
       id="guide3632" />
    <sodipodi:guide
       orientation="1,0"
       position="6,10"
       id="guide3634" />
  </sodipodi:namedview>
  <metadata
     id="metadata7">
    <rdf:RDF>
      <cc:Work
         rdf:about="">
        <dc:format>image/svg+xml</dc:format>
        <dc:type
           rdf:resource="http://purl.org/dc/dcmitype/StillImage" />
        <dc:title></dc:title>
      </cc:Work>
    </rdf:RDF>
  </metadata>
  <g
     inkscape:label="Ebene 1"
     inkscape:groupmode="layer"
     id="layer1"
     transform="translate(0,-1044.3622)">
    <g
       id="g6614"
       transform="matrix(0.25,0,0,0.25,0,1044.3622)">
      <rect
         y="0"
         x="0"
         height="32"
         width="32"
         id="rect6612"
         style="fill:none;stroke:none" />
      <g
         transform="translate(0,-3.8293454e-6)"
         id="g4994"
         inkscape:label="Layer 1"
         style="display:inline">
        <path
           inkscape:connector-curvature="0"
           style="fill:red;fill-opacity:1;fill-rule:nonzero;stroke:none"
           d="M 7.8125,1 C 7.128655,1.0666513 6.5268827,1.4796322 6.21875,2.09375 L 5.75,3 5,3 C 4.471191,3.004238 3.9655795,3.2177184 3.59375,3.59375 l -2,2 C 1.2177184,5.9655795 1.004238,6.471191 1,7 l 0,6.53125 -0.78125,1.5625 C 0.07546917,15.374386 5.1676813e-4,15.684903 0,16 l 0,3 c 5.1676813e-4,0.315097 0.07546917,0.625614 0.21875,0.90625 L 1,21.46875 l 0,1.0625 -0.78125,1.5625 C 0.07546917,24.374386 5.1676813e-4,24.684903 0,25 l 0,1 c 0.004238,0.528809 0.21771839,1.03442 0.59375,1.40625 L 1,27.8125 1,28 c 1.104e-4,1.104524 0.8954762,1.99989 2,2 l 2,0 1,0 c 0.062466,0.0029 0.1250344,0.0029 0.1875,0 l 0.40625,0.40625 C 6.9655795,30.782282 7.471191,30.995762 8,31 l 2,0 1,0 c 0.352286,-0.004 0.697253,-0.101068 1,-0.28125 0.302747,0.180182 0.647714,0.277204 1,0.28125 l 2,0 1.1875,0 0.40625,0.40625 C 16.96558,31.782282 17.471191,31.995762 18,32 l 3,0 c 0.168635,3.27e-4 0.336634,-0.02067 0.5,-0.0625 0.163366,0.04183 0.331365,0.06283 0.5,0.0625 l 2,0 c 0.528809,-0.0042 1.03442,-0.217718 1.40625,-0.59375 L 25.8125,31 28,31 c 0.961528,0.0019 1.788387,-0.680537 1.96875,-1.625 C 30.557807,28.913447 31,28.288827 31,27.5 c 0,-0.05768 -0.02723,-0.100149 -0.03125,-0.15625 -7.65e-4,-0.01069 9.05e-4,-0.02062 0,-0.03125 0.02218,-0.12374 0.03264,-0.249296 0.03125,-0.375 l 0,-1 c -0.004,-0.51355 -0.205432,-1.005876 -0.5625,-1.375 l 0.34375,-0.71875 C 30.924531,23.563114 30.999483,23.252597 31,22.9375 L 31,22 l 0,-1 0,-0.0625 c -0.004,-0.51355 -0.205432,-1.005876 -0.5625,-1.375 l 0.34375,-0.71875 C 30.924531,18.563114 30.999483,18.252597 31,17.9375 l 0,-1 c -0.0042,-0.528809 -0.217718,-1.03442 -0.59375,-1.40625 l -1,-1 C 29.277143,14.396844 29.129886,14.281142 28.96875,14.1875 L 28.75,14.0625 30.40625,12.40625 C 30.782282,12.03442 30.995762,11.528809 31,11 L 31,9 C 30.997466,8.516444 30.81984,8.0501774 30.5,7.6875 L 30.40625,7.59375 30.375,7.5625 29.15625,6.125 29.09375,6.03125 29.0625,5.96875 C 29.032295,5.9364726 29.001027,5.9052054 28.96875,5.875 28.882436,5.7267424 28.777407,5.5902051 28.65625,5.46875 l -2.34375,-2 C 25.945344,3.1602038 25.479548,2.9938482 25,3 l -1.46875,0 -0.0625,0 -1.5625,-0.78125 C 21.81585,2.169922 21.721821,2.128131 21.625,2.09375 l -3,-1 C 18.422951,1.0295765 18.211985,0.99793161 18,1 l -4,0 c -0.315097,5.168e-4 -0.625614,0.075469 -0.90625,0.21875 L 12.375,1.5625 C 12.005876,1.2054323 11.51355,1.0040264 11,1 L 8,1 C 7.937534,0.997069 7.8749656,0.997069 7.8125,1 z m 1.4375,4 0.9375,0 0.40625,0.40625 c 0.609333,0.6105618 1.541446,0.7617154 2.3125,0.375 L 14.46875,5 l 3.1875,0 2.625,0.875 L 20.375,5.90625 22.03125,6.75 c 0.233191,0.1215057 0.488052,0.19584 0.75,0.21875 L 23.21875,7 c 0.05206,0.00204 0.104187,0.00204 0.15625,0 l 0.875,0 1.59375,1.34375 0.03125,0.0625 c 0.0103,0.010531 0.02072,0.020949 0.03125,0.03125 L 27,9.71875 27,10.1875 26.1875,11 25,11 c -0.736511,-0.0047 -1.416008,0.395767 -1.768695,1.042359 -0.352687,0.646593 -0.321494,1.434696 0.0812,2.051391 l 1.28125,2 c 0.181897,0.274592 0.428789,0.500015 0.71875,0.65625 l 1.5,0.8125 0.09375,0.0625 0,0.03125 -0.65625,1.3125 c -0.143281,0.280636 -0.218233,0.591153 -0.21875,0.90625 l 0,0.09375 c 0.0042,0.528809 0.217718,1.03442 0.59375,1.40625 L 27,21.75 27,22 l 0,0.46875 -0.78125,1.5625 c -0.386715,0.771054 -0.235562,1.703167 0.375,2.3125 l 0.09375,0.09375 -0.15625,0.15625 C 26.410093,26.715205 26.305064,26.851742 26.21875,27 L 25,27 c -0.528809,0.0042 -1.03442,0.217718 -1.40625,0.59375 L 23.1875,28 22.65625,28 C 22.507058,27.928744 22.349607,27.87626 22.1875,27.84375 L 21.375,27.6875 C 20.853341,27.58844 20.313701,27.70087 19.875,28 l -1.0625,0 -0.40625,-0.40625 C 18.03442,27.217718 17.528809,27.004238 17,27 l -2,0 -1.1875,0 -0.40625,-0.40625 c -0.779237,-0.770382 -2.033263,-0.770382 -2.8125,0 L 10.1875,27 10,27 8.8125,27 8.53125,26.71875 l -0.625,-0.625 C 7.1640314,25.35617 5.9787628,25.315298 5.1875,26 L 5,26 4.71875,26 C 4.632436,25.851742 4.5274072,25.715205 4.40625,25.59375 l -0.3125,-0.3125 0.6875,-1.375 C 4.9245308,23.625614 4.9994832,23.315097 5,23 L 5,21 C 4.9994832,20.684903 4.9245308,20.374386 4.78125,20.09375 L 4,18.53125 4,16.46875 4.78125,14.90625 C 4.9245308,14.625614 4.9994832,14.315097 5,14 L 5,7.8125 5.8125,7 7,7 C 7.752172,6.9993355 8.4403811,6.5767509 8.78125,5.90625 L 9.25,5 z"
           id="path3536" />
      </g>
    </g>
    <g
       id="g6633">
      <path
         style="fill:#b3b3b3;fill-opacity:1;fill-rule:nonzero;stroke:none"
         d="m 2,1045.1122 -0.25,0.5 -0.5,0 -0.5,0.5 0,1.75 -0.25,0.5 0,0.75 0.25,0.5 0,0.5 -0.25,0.5 0,0.25 0.25,0.25 0,0.25 0.5,0 0.25,0 0.125,-0.125 0.15625,0.1563 0.21875,0.2187 0.5,0 0.25,0 0.25,-0.25 0.25,0.25 0.5,0 0.5,0 0.25,0.25 0.75,0 0,-0.086 0.203125,0.039 0.046875,0.047 0.5,0 0.25,-0.25 0.75,0 0,-0.25 -0.015625,0 0.046875,-0.047 c 0.022935,0.027 0.055464,0.047 0.09375,0.047 0.069,0 0.125,-0.056 0.125,-0.125 0,-0.038 -0.019737,-0.071 -0.046875,-0.094 l 0.046875,-0.047 0,-0.25 -0.25,-0.25 0.25,-0.5 0,-0.2344 0,-0.25 0,-0.016 -0.2421875,-0.2422 0,-0.023 0.2421875,-0.4844 0,-0.25 -0.25,-0.25 -0.4296875,-0.2344 -0.3203125,-0.5 0.5,0 0.5,-0.5 0,-0.5 -0.00781,-0.01 -0.3828125,-0.4531 -0.023438,-0.039 -0.5859375,-0.5 -0.40625,0 -0.109375,-0.01 -0.484375,-0.2422 -0.75,-0.25 -1,0 -0.5,0.25 -0.25,-0.25 -0.75,0 z"
         id="path5827"
         inkscape:connector-curvature="0" />
      <path
         transform="translate(0,1044.3622)"
         inkscape:connector-curvature="0"
         id="path6610"
         d="M 7,5 6,3.5 5,4 3.5,3.5 2.5,4.5 3,5.5 3.5,3.5 5,5 6,4 7,6 z"
         style="fill:white;fill-opacity:1;stroke:none" />
      <path
         transform="translate(0,1044.3622)"
         inkscape:connector-curvature="0"
         id="path6608"
         d="M 3.5,1 4,2 5,1.5 6,2.5 5.5,1 3.5,1 z"
         style="fill:white;fill-opacity:1;stroke:none" />
      <path
         transform="translate(0,1044.3622)"
         inkscape:connector-curvature="0"
         id="path6606"
         d="m 0.5,6.5 2,-2 0.5,1 1,0 L 4.5,5 5,7 7,5 7,7 5.5,7.5 4.5,7.5 3,7 1.5,7 z"
         style="fill:gray;fill-opacity:1;stroke:none" />
      <path
         transform="translate(0,1044.3622)"
         inkscape:connector-curvature="0"
         id="path6602"
         d="m 3.5,1 -1,0.5 0,1 L 3,3 4,2 z"
         style="fill:gray;fill-opacity:1;stroke:none" />
      <rect
         y="1044.3622"
         x="0"
         height="8"
         width="8"
         id="rect5416"
         style="fill:none;stroke:none" />
      <path
         inkscape:connector-curvature="0"
         id="path3391"
         d="m 1.96875,1044.8438 a 0.250025,0.250025 0 0 0 -0.03125,0.031 0.250025,0.250025 0 0 0 -0.09375,0.031 0.250025,0.250025 0 0 0 -0.03125,0.031 0.250025,0.250025 0 0 0 -0.03125,0.063 l -0.03125,0.031 a 0.250025,0.250025 0 0 0 0,0.063 l -0.15625,0.2812 -0.34375,0 a 0.250025,0.250025 0 0 0 -0.0625,0 0.250025,0.250025 0 0 0 -0.09375,0.031 0.250025,0.250025 0 0 0 -0.03125,0.031 l -0.5,0.5 A 0.250025,0.250025 0 0 0 0.5,1046.125 l 0,1.6875 -0.21875,0.4375 a 0.250025,0.250025 0 0 0 -0.03125,0.063 0.250025,0.250025 0 0 0 0,0.063 l 0,0.75 a 0.250025,0.250025 0 0 0 0.03125,0.094 l 0.21875,0.4062 0,0.031 0,0.4063 -0.21875,0.4375 a 0.250025,0.250025 0 0 0 -0.03125,0.063 0.250025,0.250025 0 0 0 0,0.063 l 0,0.25 a 0.250025,0.250025 0 0 0 0.03125,0.094 0.250025,0.250025 0 0 0 0.03125,0.062 l 0.1875,0.1876 0,0.1562 a 0.250025,0.250025 0 0 0 0.03125,0.094 0.250025,0.250025 0 0 0 0.03125,0.062 0.250025,0.250025 0 0 0 0.1875,0.094 l 0.5,0 0.25,0 a 0.250025,0.250025 0 0 0 0.0625,-0.031 0.250025,0.250025 0 0 0 0.03125,0 l 0.03125,0 0.1875,0.1874 A 0.250025,0.250025 0 0 0 2,1051.875 l 0.5,0 0.25,0 a 0.250025,0.250025 0 0 0 0.0625,-0.031 0.250025,0.250025 0 0 0 0.09375,-0.031 0.250025,0.250025 0 0 0 0.03125,-0.031 L 3,1051.72 l 0.0625,0.062 a 0.250025,0.250025 0 0 0 0.1875,0.094 l 0.5,0 0.40625,0 0.15625,0.1562 a 0.250025,0.250025 0 0 0 0.1875,0.094 l 0.75,0 a 0.250025,0.250025 0 0 0 0.0625,-0.031 0.250025,0.250025 0 0 0 0.0625,0 0.250025,0.250025 0 0 0 0.03125,0 0.250025,0.250025 0 0 0 0.09375,0.031 l 0.5,0 a 0.250025,0.250025 0 0 0 0.0625,-0.031 0.250025,0.250025 0 0 0 0.09375,-0.031 0.250025,0.250025 0 0 0 0.03125,-0.031 l 0.15625,-0.1562 0.65625,0 a 0.250025,0.250025 0 0 0 0.0625,-0.031 0.250025,0.250025 0 0 0 0.09375,-0.031 0.250025,0.250025 0 0 0 0.03125,-0.031 0.250025,0.250025 0 0 0 0.0625,-0.1562 l 0,-0.125 c 0.090278,-0.053 0.165541,-0.1138 0.1875,-0.2188 0.00507,-0.024 0.0625,-0.01 0.0625,-0.031 0,-0.015 -0.029492,-0.017 -0.03125,-0.031 a 0.250025,0.250025 0 0 0 0,-0.031 0.250025,0.250025 0 0 0 0.03125,-0.031 0.250025,0.250025 0 0 0 0,-0.062 l 0,-0.25 a 0.250025,0.250025 0 0 0 0,-0.063 0.250025,0.250025 0 0 0 -0.03125,-0.062 0.250025,0.250025 0 0 0 -0.03125,-0.063 l -0.125,-0.125 0.15625,-0.3124 a 0.250025,0.250025 0 0 0 0.03125,-0.094 0.250025,0.250025 0 0 0 0,-0.031 l 0,-0.2188 0,-0.25 0,-0.031 a 0.250025,0.250025 0 0 0 0,-0.063 0.250025,0.250025 0 0 0 -0.03125,-0.062 0.250025,0.250025 0 0 0 -0.03125,-0.063 l -0.125,-0.125 0.15625,-0.3124 a 0.250025,0.250025 0 0 0 0.03125,-0.094 0.250025,0.250025 0 0 0 0,-0.031 l 0,-0.25 a 0.250025,0.250025 0 0 0 0,-0.063 0.250025,0.250025 0 0 0 -0.03125,-0.062 0.250025,0.250025 0 0 0 -0.03125,-0.063 l -0.25,-0.25 a 0.250025,0.250025 0 0 0 -0.0625,-0.031 l -0.34375,-0.1562 0,-0.031 -0.0625,-0.063 0.03125,0 a 0.250025,0.250025 0 0 0 0.0625,-0.031 0.250025,0.250025 0 0 0 0.09375,-0.031 0.250025,0.250025 0 0 0 0.03125,-0.031 l 0.5,-0.5 a 0.250025,0.250025 0 0 0 0.03125,-0.062 0.250025,0.250025 0 0 0 0.03125,-0.094 l 0,-0.5 a 0.250025,0.250025 0 0 0 -0.03125,-0.125 0.250025,0.250025 0 0 0 -0.03125,-0.031 l 0,-0.031 -0.375,-0.4063 0,-0.031 0,-0.031 A 0.250025,0.250025 0 0 0 7,1045.9062 l -0.59375,-0.5 a 0.250025,0.250025 0 0 0 -0.09375,-0.031 0.250025,0.250025 0 0 0 -0.0625,0 l -0.375,0 -0.03125,0 -0.09375,-0.031 -0.375,-0.2188 a 0.250025,0.250025 0 0 0 -0.03125,0 l -0.75,-0.25 A 0.250025,0.250025 0 0 0 4.5,1044.8438 l -1,0 a 0.250025,0.250025 0 0 0 -0.0625,0.031 0.250025,0.250025 0 0 0 -0.0625,0 l -0.34375,0.1562 -0.09375,-0.094 A 0.250025,0.250025 0 0 0 2.75,1044.843 l -0.75,0 a 0.250025,0.250025 0 0 0 -0.03125,0 z m 0.1875,0.5 0.46875,0 0.1875,0.1874 a 0.250025,0.250025 0 0 0 0.15625,0.063 0.250025,0.250025 0 0 0 0.09375,0 0.250025,0.250025 0 0 0 0.0625,0 l 0.5,-0.25 0.78125,0 0.71875,0.25 0.03125,0 0.46875,0.2187 a 0.250025,0.250025 0 0 0 0.03125,0.031 0.250025,0.250025 0 0 0 0.0625,0 l 0.09375,0 a 0.250025,0.250025 0 0 0 0.03125,0.031 l 0.3125,0 0.46875,0.375 0.03125,0.031 a 0.250025,0.250025 0 0 0 0,0.031 L 7,1046.6875 7,1047 l -0.375,0.375 -0.375,0 a 0.250025,0.250025 0 0 0 -0.0625,0 0.250025,0.250025 0 0 0 -0.09375,0.031 0.250025,0.250025 0 0 0 -0.09375,0.25 0.250025,0.250025 0 0 0 0.03125,0.094 l 0.34375,0.5 a 0.250025,0.250025 0 0 0 0.0625,0.094 l 0.375,0.1874 0.0625,0.031 0.125,0.1563 0,0.094 0,0.031 -0.21875,0.375 a 0.250025,0.250025 0 0 0 0,0.031 0.250025,0.250025 0 0 0 -0.03125,0.094 0.250025,0.250025 0 0 0 0.03125,0.094 0.250025,0.250025 0 0 0 0.03125,0.063 0.250025,0.250025 0 0 0 0.03125,0.031 L 7,1049.7188 l 0,0.1562 0,0.1875 0,0.031 -0.21875,0.4062 a 0.250025,0.250025 0 0 0 -0.03125,0.094 0.250025,0.250025 0 0 0 0.0625,0.1562 0.250025,0.250025 0 0 0 0,0.031 L 7,1050.9688 a 0.250025,0.250025 0 0 0 0,0.031 0.250025,0.250025 0 0 0 -0.03125,0.063 0.250025,0.250025 0 0 0 0,0.031 0.250025,0.250025 0 0 0 -0.03125,0 0.250025,0.250025 0 0 0 -0.0625,0.031 0.250025,0.250025 0 0 0 -0.03125,0 l -0.03125,0.063 a 0.250025,0.250025 0 0 0 -0.03125,0.031 0.250025,0.250025 0 0 0 -0.03125,0.062 0.250025,0.250025 0 0 0 0,0.094 l -0.5,0 a 0.250025,0.250025 0 0 0 -0.0625,0 0.250025,0.250025 0 0 0 -0.09375,0.031 0.250025,0.250025 0 0 0 -0.03125,0.031 l -0.1875,0.1875 -0.25,0 a 0.250025,0.250025 0 0 0 -0.0625,-0.031 0.250025,0.250025 0 0 0 -0.0625,-0.031 l -0.1875,-0.031 a 0.250025,0.250025 0 0 0 -0.125,0 0.250025,0.250025 0 0 0 -0.125,0.094 l -0.4375,0 -0.1875,-0.1875 a 0.250025,0.250025 0 0 0 -0.0625,-0.031 0.250025,0.250025 0 0 0 -0.09375,-0.031 0.250025,0.250025 0 0 0 -0.03125,0 l -0.5,0 -0.375,0 -0.1875,-0.1875 a 0.250025,0.250025 0 0 0 -0.0625,-0.031 0.250025,0.250025 0 0 0 -0.09375,-0.031 0.250025,0.250025 0 0 0 -0.09375,0 0.250025,0.250025 0 0 0 -0.125,0.063 l -0.1875,0.1875 -0.125,0 -0.375,0 -0.15625,-0.1562 -0.15625,-0.1563 a 0.250025,0.250025 0 0 0 -0.0625,-0.033 0.250025,0.250025 0 0 0 -0.09375,-0.031 0.250025,0.250025 0 0 0 -0.09375,0 0.250025,0.250025 0 0 0 -0.125,0.063 l -0.0625,0.063 -0.125,0 -0.25,0 a 0.250025,0.250025 0 0 0 -0.03125,-0.126 0.250025,0.250025 0 0 0 -0.03125,-0.063 l -0.1875,-0.1875 0,-0.094 0,-0.031 0.21875,-0.4062 A 0.250025,0.250025 0 0 0 1,1050.125 l 0,-0.5 A 0.250025,0.250025 0 0 0 0.96875,1049.5 l -0.21875,-0.4375 0,-0.6563 0,-0.031 0.21875,-0.4062 A 0.250025,0.250025 0 0 0 1,1047.875 l 0,-1.6562 0.34375,-0.3438 0.40625,0 a 0.250025,0.250025 0 0 0 0.0625,-0.031 0.250025,0.250025 0 0 0 0.09375,-0.031 0.250025,0.250025 0 0 0 0.03125,-0.031 0.250025,0.250025 0 0 0 0.03125,-0.062 l 0.1875,-0.375 z"
         style="font-size:medium;font-style:normal;font-variant:normal;font-weight:normal;font-stretch:normal;text-indent:0;text-align:start;text-decoration:none;line-height:normal;letter-spacing:normal;word-spacing:normal;text-transform:none;direction:ltr;block-progression:tb;writing-mode:lr-tb;text-anchor:start;baseline-shift:baseline;color:black;fill:black;fill-opacity:1;stroke:none;stroke-width:0.5;marker:none;visibility:visible;display:inline;overflow:visible;enable-background:accumulate;font-family:Sans;-inkscape-font-specification:Sans" />
      <path
         transform="translate(0,1044.3622)"
         inkscape:connector-curvature="0"
         id="path6604"
         d="M 1,2 2,3 0.5,4.5 0.5,4 z"
         style="fill:gray;fill-opacity:1;stroke:none" />
      <path
         style="font-size:medium;font-style:normal;font-variant:normal;font-weight:normal;font-stretch:normal;text-indent:0;text-align:start;text-decoration:none;line-height:normal;letter-spacing:normal;word-spacing:normal;text-transform:none;direction:ltr;block-progression:tb;writing-mode:lr-tb;text-anchor:start;baseline-shift:baseline;color:black;fill:black;fill-opacity:1;stroke:none;stroke-width:0.5;marker:none;visibility:visible;display:inline;overflow:visible;enable-background:accumulate;font-family:Sans;-inkscape-font-specification:Sans"
         d="m 1.96875,1044.8438 a 0.250025,0.250025 0 0 0 -0.03125,0.031 0.250025,0.250025 0 0 0 -0.09375,0.031 0.250025,0.250025 0 0 0 -0.03125,0.031 0.250025,0.250025 0 0 0 -0.03125,0.063 l -0.03125,0.031 a 0.250025,0.250025 0 0 0 0,0.063 l -0.15625,0.2812 -0.34375,0 a 0.250025,0.250025 0 0 0 -0.0625,0 0.250025,0.250025 0 0 0 -0.09375,0.031 0.250025,0.250025 0 0 0 -0.03125,0.031 l -0.5,0.5 A 0.250025,0.250025 0 0 0 0.5,1046.125 l 0,1.6875 -0.21875,0.4375 a 0.250025,0.250025 0 0 0 -0.03125,0.063 0.250025,0.250025 0 0 0 0,0.063 l 0,0.75 a 0.250025,0.250025 0 0 0 0.03125,0.094 l 0.21875,0.4062 0,0.031 0,0.4063 -0.21875,0.4375 a 0.250025,0.250025 0 0 0 -0.03125,0.063 0.250025,0.250025 0 0 0 0,0.063 l 0,0.25 a 0.250025,0.250025 0 0 0 0.03125,0.094 0.250025,0.250025 0 0 0 0.03125,0.062 l 0.1875,0.1876 0,0.1562 a 0.250025,0.250025 0 0 0 0.03125,0.094 0.250025,0.250025 0 0 0 0.03125,0.062 0.250025,0.250025 0 0 0 0.1875,0.094 l 0.5,0 0.25,0 a 0.250025,0.250025 0 0 0 0.0625,-0.031 0.250025,0.250025 0 0 0 0.03125,0 l 0.03125,0 0.1875,0.1874 A 0.250025,0.250025 0 0 0 2,1051.875 l 0.5,0 0.25,0 a 0.250025,0.250025 0 0 0 0.0625,-0.031 0.250025,0.250025 0 0 0 0.09375,-0.031 0.250025,0.250025 0 0 0 0.03125,-0.031 L 3,1051.72 l 0.0625,0.062 a 0.250025,0.250025 0 0 0 0.1875,0.094 l 0.5,0 0.40625,0 0.15625,0.1562 a 0.250025,0.250025 0 0 0 0.1875,0.094 l 0.75,0 a 0.250025,0.250025 0 0 0 0.0625,-0.031 0.250025,0.250025 0 0 0 0.0625,0 0.250025,0.250025 0 0 0 0.03125,0 0.250025,0.250025 0 0 0 0.09375,0.031 l 0.5,0 a 0.250025,0.250025 0 0 0 0.0625,-0.031 0.250025,0.250025 0 0 0 0.09375,-0.031 0.250025,0.250025 0 0 0 0.03125,-0.031 l 0.15625,-0.1562 0.65625,0 a 0.250025,0.250025 0 0 0 0.0625,-0.031 0.250025,0.250025 0 0 0 0.09375,-0.031 0.250025,0.250025 0 0 0 0.03125,-0.031 0.250025,0.250025 0 0 0 0.0625,-0.1562 l 0,-0.125 c 0.090278,-0.053 0.165541,-0.1138 0.1875,-0.2188 0.00507,-0.024 0.0625,-0.01 0.0625,-0.031 0,-0.015 -0.029492,-0.017 -0.03125,-0.031 a 0.250025,0.250025 0 0 0 0,-0.031 0.250025,0.250025 0 0 0 0.03125,-0.031 0.250025,0.250025 0 0 0 0,-0.062 l 0,-0.25 a 0.250025,0.250025 0 0 0 0,-0.063 0.250025,0.250025 0 0 0 -0.03125,-0.062 0.250025,0.250025 0 0 0 -0.03125,-0.063 l -0.125,-0.125 0.15625,-0.3124 a 0.250025,0.250025 0 0 0 0.03125,-0.094 0.250025,0.250025 0 0 0 0,-0.031 l 0,-0.2188 0,-0.25 0,-0.031 a 0.250025,0.250025 0 0 0 0,-0.063 0.250025,0.250025 0 0 0 -0.03125,-0.062 0.250025,0.250025 0 0 0 -0.03125,-0.063 l -0.125,-0.125 0.15625,-0.3124 a 0.250025,0.250025 0 0 0 0.03125,-0.094 0.250025,0.250025 0 0 0 0,-0.031 l 0,-0.25 a 0.250025,0.250025 0 0 0 0,-0.063 0.250025,0.250025 0 0 0 -0.03125,-0.062 0.250025,0.250025 0 0 0 -0.03125,-0.063 l -0.25,-0.25 a 0.250025,0.250025 0 0 0 -0.0625,-0.031 l -0.34375,-0.1562 0,-0.031 -0.0625,-0.063 0.03125,0 a 0.250025,0.250025 0 0 0 0.0625,-0.031 0.250025,0.250025 0 0 0 0.09375,-0.031 0.250025,0.250025 0 0 0 0.03125,-0.031 l 0.5,-0.5 a 0.250025,0.250025 0 0 0 0.03125,-0.062 0.250025,0.250025 0 0 0 0.03125,-0.094 l 0,-0.5 a 0.250025,0.250025 0 0 0 -0.03125,-0.125 0.250025,0.250025 0 0 0 -0.03125,-0.031 l 0,-0.031 -0.375,-0.4063 0,-0.031 0,-0.031 A 0.250025,0.250025 0 0 0 7,1045.9062 l -0.59375,-0.5 a 0.250025,0.250025 0 0 0 -0.09375,-0.031 0.250025,0.250025 0 0 0 -0.0625,0 l -0.375,0 -0.03125,0 -0.09375,-0.031 -0.375,-0.2188 a 0.250025,0.250025 0 0 0 -0.03125,0 l -0.75,-0.25 A 0.250025,0.250025 0 0 0 4.5,1044.8438 l -1,0 a 0.250025,0.250025 0 0 0 -0.0625,0.031 0.250025,0.250025 0 0 0 -0.0625,0 l -0.34375,0.1562 -0.09375,-0.094 A 0.250025,0.250025 0 0 0 2.75,1044.843 l -0.75,0 a 0.250025,0.250025 0 0 0 -0.03125,0 z m 0.1875,0.5 0.46875,0 0.1875,0.1874 a 0.250025,0.250025 0 0 0 0.15625,0.063 0.250025,0.250025 0 0 0 0.09375,0 0.250025,0.250025 0 0 0 0.0625,0 l 0.5,-0.25 0.78125,0 0.71875,0.25 0.03125,0 0.46875,0.2187 a 0.250025,0.250025 0 0 0 0.03125,0.031 0.250025,0.250025 0 0 0 0.0625,0 l 0.09375,0 a 0.250025,0.250025 0 0 0 0.03125,0.031 l 0.3125,0 0.46875,0.375 0.03125,0.031 a 0.250025,0.250025 0 0 0 0,0.031 L 7,1046.6875 7,1047 l -0.375,0.375 -0.375,0 a 0.250025,0.250025 0 0 0 -0.0625,0 0.250025,0.250025 0 0 0 -0.09375,0.031 0.250025,0.250025 0 0 0 -0.09375,0.25 0.250025,0.250025 0 0 0 0.03125,0.094 l 0.34375,0.5 a 0.250025,0.250025 0 0 0 0.0625,0.094 l 0.375,0.1874 0.0625,0.031 0.125,0.1563 0,0.094 0,0.031 -0.21875,0.375 a 0.250025,0.250025 0 0 0 0,0.031 0.250025,0.250025 0 0 0 -0.03125,0.094 0.250025,0.250025 0 0 0 0.03125,0.094 0.250025,0.250025 0 0 0 0.03125,0.063 0.250025,0.250025 0 0 0 0.03125,0.031 L 7,1049.7188 l 0,0.1562 0,0.1875 0,0.031 -0.21875,0.4062 a 0.250025,0.250025 0 0 0 -0.03125,0.094 0.250025,0.250025 0 0 0 0.0625,0.1562 0.250025,0.250025 0 0 0 0,0.031 L 7,1050.9688 a 0.250025,0.250025 0 0 0 0,0.031 0.250025,0.250025 0 0 0 -0.03125,0.063 0.250025,0.250025 0 0 0 0,0.031 0.250025,0.250025 0 0 0 -0.03125,0 0.250025,0.250025 0 0 0 -0.0625,0.031 0.250025,0.250025 0 0 0 -0.03125,0 l -0.03125,0.063 a 0.250025,0.250025 0 0 0 -0.03125,0.031 0.250025,0.250025 0 0 0 -0.03125,0.062 0.250025,0.250025 0 0 0 0,0.094 l -0.5,0 a 0.250025,0.250025 0 0 0 -0.0625,0 0.250025,0.250025 0 0 0 -0.09375,0.031 0.250025,0.250025 0 0 0 -0.03125,0.031 l -0.1875,0.1875 -0.25,0 a 0.250025,0.250025 0 0 0 -0.0625,-0.031 0.250025,0.250025 0 0 0 -0.0625,-0.031 l -0.1875,-0.031 a 0.250025,0.250025 0 0 0 -0.125,0 0.250025,0.250025 0 0 0 -0.125,0.094 l -0.4375,0 -0.1875,-0.1875 a 0.250025,0.250025 0 0 0 -0.0625,-0.031 0.250025,0.250025 0 0 0 -0.09375,-0.031 0.250025,0.250025 0 0 0 -0.03125,0 l -0.5,0 -0.375,0 -0.1875,-0.1875 a 0.250025,0.250025 0 0 0 -0.0625,-0.031 0.250025,0.250025 0 0 0 -0.09375,-0.031 0.250025,0.250025 0 0 0 -0.09375,0 0.250025,0.250025 0 0 0 -0.125,0.063 l -0.1875,0.1875 -0.125,0 -0.375,0 -0.15625,-0.1562 -0.15625,-0.1563 a 0.250025,0.250025 0 0 0 -0.0625,-0.033 0.250025,0.250025 0 0 0 -0.09375,-0.031 0.250025,0.250025 0 0 0 -0.09375,0 0.250025,0.250025 0 0 0 -0.125,0.063 l -0.0625,0.063 -0.125,0 -0.25,0 a 0.250025,0.250025 0 0 0 -0.03125,-0.126 0.250025,0.250025 0 0 0 -0.03125,-0.063 l -0.1875,-0.1875 0,-0.094 0,-0.031 0.21875,-0.4062 A 0.250025,0.250025 0 0 0 1,1050.125 l 0,-0.5 A 0.250025,0.250025 0 0 0 0.96875,1049.5 l -0.21875,-0.4375 0,-0.6563 0,-0.031 0.21875,-0.4062 A 0.250025,0.250025 0 0 0 1,1047.875 l 0,-1.6562 0.34375,-0.3438 0.40625,0 a 0.250025,0.250025 0 0 0 0.0625,-0.031 0.250025,0.250025 0 0 0 0.09375,-0.031 0.250025,0.250025 0 0 0 0.03125,-0.031 0.250025,0.250025 0 0 0 0.03125,-0.062 l 0.1875,-0.375 z"
         id="path6599"
         inkscape:connector-curvature="0" />
    </g>
  </g>
</svg>
