<?xml version="1.0" encoding="UTF-8" standalone="no"?>
<!-- Created with Inkscape (http://www.inkscape.org/) -->

<svg
   xmlns:dc="http://purl.org/dc/elements/1.1/"
   xmlns:cc="http://creativecommons.org/ns#"
   xmlns:rdf="http://www.w3.org/1999/02/22-rdf-syntax-ns#"
   xmlns:svg="http://www.w3.org/2000/svg"
   xmlns="http://www.w3.org/2000/svg"
   xmlns:sodipodi="http://sodipodi.sourceforge.net/DTD/sodipodi-0.dtd"
   xmlns:inkscape="http://www.inkscape.org/namespaces/inkscape"
   width="32px"
   height="32px"
   id="svg3505"
   sodipodi:version="0.32"
   inkscape:version="0.48.5 r10040"
   sodipodi:docname="08.svg"
   inkscape:output_extension="org.inkscape.output.svg.inkscape"
   version="1.1">
  <defs
     id="defs3507">
    <inkscape:perspective
       sodipodi:type="inkscape:persp3d"
       inkscape:vp_x="0 : 16 : 1"
       inkscape:vp_y="0 : 1000 : 0"
       inkscape:vp_z="32 : 16 : 1"
       inkscape:persp3d-origin="16 : 10.666667 : 1"
       id="perspective3513" />
    <inkscape:perspective
       id="perspective4690"
       inkscape:persp3d-origin="372.04724 : 350.78739 : 1"
       inkscape:vp_z="744.09448 : 526.18109 : 1"
       inkscape:vp_y="0 : 1000 : 0"
       inkscape:vp_x="0 : 526.18109 : 1"
       sodipodi:type="inkscape:persp3d" />
  </defs>
  <sodipodi:namedview
     id="base"
     pagecolor="#ffffff"
     bordercolor="#666666"
     borderopacity="1.0"
     inkscape:pageopacity="0.0"
     inkscape:pageshadow="2"
     inkscape:zoom="16.375"
     inkscape:cx="16"
     inkscape:cy="16"
     inkscape:current-layer="g5380"
     showgrid="true"
     inkscape:grid-bbox="true"
     inkscape:document-units="px"
     objecttolerance="10000"
     gridtolerance="10000"
     guidetolerance="10000"
     inkscape:window-width="1024"
     inkscape:window-height="741"
     inkscape:window-x="0"
     inkscape:window-y="2"
     inkscape:object-paths="true"
     inkscape:object-nodes="true"
     inkscape:snap-bbox="true"
     inkscape:snap-guide="true"
     inkscape:window-maximized="1">
    <inkscape:grid
       type="xygrid"
       id="grid3515"
       units="px"
       visible="true"
       enabled="true"
       spacingx="1px"
       spacingy="1px"
       empspacing="4"
       snapvisiblegridlinesonly="true" />
  </sodipodi:namedview>
  <metadata
     id="metadata3510">
    <rdf:RDF>
      <cc:Work
         rdf:about="">
        <dc:format>image/svg+xml</dc:format>
        <dc:type
           rdf:resource="http://purl.org/dc/dcmitype/StillImage" />
        <dc:title />
        <dc:date>2010-04-26</dc:date>
        <dc:creator>
          <cc:Agent>
            <dc:title>Andreas Neudecker &lt;zapyon@gmx.net&gt;</dc:title>
          </cc:Agent>
        </dc:creator>
        <dc:rights>
          <cc:Agent>
            <dc:title>Copyright (C) 2010 by Andreas Neudecker</dc:title>
          </cc:Agent>
        </dc:rights>
        <dc:publisher>
          <cc:Agent>
            <dc:title>Andreas Neudecker</dc:title>
          </cc:Agent>
        </dc:publisher>
        <dc:identifier>vorlage-32x32-mcminos</dc:identifier>
        <dc:description>Vorlage für 32x32-Pixel-Icons für McMinos. Metadaten jeweils entsprechend anpassen!</dc:description>
      </cc:Work>
    </rdf:RDF>
  </metadata>
  <g
     id="layer1"
     inkscape:label="Layer 1"
     inkscape:groupmode="layer">
    <g
       id="g5380">
      <g
         id="g5474">
        <rect
           y="0"
           x="0"
           height="32"
           width="32"
           id="rect4535"
           style="fill:none;stroke:none" />
        <rect
           style="fill:none;stroke:none"
           id="rect5378"
           width="32"
           height="32"
           x="0"
           y="0" />
        <path
           sodipodi:type="arc"
           style="fill:black;fill-opacity:1;fill-rule:nonzero;stroke:none"
           id="path4818"
           sodipodi:cx="260.2963"
           sodipodi:cy="136.06313"
           sodipodi:rx="14.367003"
           sodipodi:ry="15.000842"
           d="m 274.6633,136.06313 a 14.367003,15.000842 0 1 1 -28.73401,0 14.367003,15.000842 0 1 1 28.73401,0 z"
           transform="matrix(1.0440591,0,0,0.9999439,-255.76471,-120.05549)" />
        <path
           sodipodi:type="arc"
           style="fill:#ff8000;fill-opacity:1;fill-rule:nonzero;stroke:none"
           id="path3403"
           sodipodi:cx="7.9652176"
           sodipodi:cy="8"
           sodipodi:rx="6.9913044"
           sodipodi:ry="6.9913044"
           d="M 14.956522,8 A 6.9913044,6.9913044 0 1 1 0.97391319,8 6.9913044,6.9913044 0 1 1 14.956522,8 z"
           transform="matrix(2.0024876,0,0,2.0024876,0.04974722,-0.01990512)" />
        <path
           sodipodi:type="arc"
           style="fill:maroon;fill-opacity:1;fill-rule:nonzero;stroke:none"
           id="path3429"
           sodipodi:cx="28.15704"
           sodipodi:cy="51.823883"
           sodipodi:rx="4.1570387"
           sodipodi:ry="3.8238845"
           d="m 32.314078,51.823883 a 4.1570387,3.8238845 0 1 1 -8.314077,0"
           transform="matrix(3.127226,0,0,3.3996825,-72.05343,-160.18474)"
           sodipodi:start="0"
           sodipodi:end="3.1415927"
           sodipodi:open="true" />
        <path
           transform="matrix(2,0,0,2,-7.0000028,-5.1161847e-6)"
           sodipodi:type="arc"
           style="fill:white;fill-opacity:1;fill-rule:nonzero;stroke:none"
           id="path3407"
           sodipodi:cx="8"
           sodipodi:cy="5"
           sodipodi:rx="2"
           sodipodi:ry="2"
           d="M 10,5 A 2,2 0 1 1 6,5 2,2 0 1 1 10,5 z" />
        <path
           d="M 10,5 A 2,2 0 1 1 6,5 2,2 0 1 1 10,5 z"
           sodipodi:ry="2"
           sodipodi:rx="2"
           sodipodi:cy="5"
           sodipodi:cx="8"
           id="path3425"
           style="fill:white;fill-opacity:1;fill-rule:nonzero;stroke:none"
           sodipodi:type="arc"
           transform="matrix(2,0,0,2,6.999997,-5.1161847e-6)" />
        <path
           sodipodi:type="arc"
           style="fill:black;fill-opacity:1;fill-rule:nonzero;stroke:none"
           id="path3409"
           sodipodi:cx="8"
           sodipodi:cy="5"
           sodipodi:rx="1"
           sodipodi:ry="1"
           d="M 9,5 A 1,1 0 1 1 7,5 1,1 0 1 1 9,5 z"
           transform="matrix(2,0,0,2,-7,0)" />
        <path
           transform="matrix(2,0,0,2,7,0)"
           d="M 9,5 A 1,1 0 1 1 7,5 1,1 0 1 1 9,5 z"
           sodipodi:ry="1"
           sodipodi:rx="1"
           sodipodi:cy="5"
           sodipodi:cx="8"
           id="path3427"
           style="fill:black;fill-opacity:1;fill-rule:nonzero;stroke:none"
           sodipodi:type="arc" />
        <path
           sodipodi:end="6.2831853"
           sodipodi:start="3.1415927"
           transform="matrix(3.3677824,0,0,1.7603396e-6,-78.826783,15.999905)"
           d="m 24.000001,51.823883 a 4.1570387,0.76477689 0 0 1 8.314077,0"
           sodipodi:ry="0.76477689"
           sodipodi:rx="4.1570387"
           sodipodi:cy="51.823883"
           sodipodi:cx="28.15704"
           id="path3443"
           style="fill:white;fill-opacity:1;fill-rule:nonzero;stroke:none"
           sodipodi:type="arc"
           sodipodi:open="true" />
        <path
           sodipodi:type="arc"
           style="fill:#500;fill-opacity:1;stroke:none"
           id="path5770"
           sodipodi:cx="16"
           sodipodi:cy="21"
           sodipodi:rx="8"
           sodipodi:ry="4.944272"
           d="M 24,21 A 8,4.944272 0 1 1 8,21 8,4.944272 0 1 1 24,21 z"
           transform="matrix(0.625,0,0,0.70788987,6,4.6343126)" />
        <path
           transform="matrix(0.75,0,0,1,4,-4)"
           d="m 17,22 a 1,2 0 1 1 -2,0 1,2 0 1 1 2,0 z"
           sodipodi:ry="2"
           sodipodi:rx="1"
           sodipodi:cy="22"
           sodipodi:cx="16"
           id="path5707"
           style="fill:#ff0001;fill-opacity:1;stroke:none"
           sodipodi:type="arc" />
        <path
           transform="translate(21.203788,-8.0845087)"
           d="M 5.1345882,14.972891 2.6733324,13.782779 1.4575124,16.626995 0.31968082,13.567009 -1.9740686,13.031844 0.81407962,12.53529 1.2228406,9.8852061 1.7962122,12.084509 4.9342686,10.530887 2.8711997,12.392229 z"
           inkscape:randomized="0.17"
           inkscape:rounded="0"
           inkscape:flatsided="false"
           sodipodi:arg2="1.2163211"
           sodipodi:arg1="0.5880026"
           sodipodi:r2="1.4422204"
           sodipodi:r1="3.6055512"
           sodipodi:cy="13"
           sodipodi:cx="2"
           sodipodi:sides="5"
           id="path5483"
           style="fill:yellow;fill-opacity:1;fill-rule:nonzero;stroke:none"
           sodipodi:type="star" />
        <path
           d="M 10.787296,16.059377 9.0218445,15.248993 6.9920261,18.080938 6.9100407,15.049814 4.2486485,14.709582 6.5047112,13.517845 6.3687983,11.09276 7.8024917,12.761338 10.075618,11.999932 9.4141554,13.776728 z"
           inkscape:randomized="0.15"
           inkscape:rounded="0"
           inkscape:flatsided="false"
           sodipodi:arg2="1.1451075"
           sodipodi:arg1="0.51678902"
           sodipodi:r2="1.380246"
           sodipodi:r1="3.4506152"
           sodipodi:cy="14.295082"
           sodipodi:cx="8"
           sodipodi:sides="5"
           id="path5730"
           style="fill:yellow;fill-opacity:1;fill-rule:nonzero;stroke:none"
           sodipodi:type="star"
           transform="translate(-1.9100407,7.9501855)" />
      </g>
    </g>
  </g>
</svg>
