<?xml version="1.0" encoding="UTF-8" standalone="no"?>
<!-- Created with Inkscape (http://www.inkscape.org/) -->

<svg xmlns:dc="http://purl.org/dc/elements/1.1/" xmlns:cc="http://creativecommons.org/ns#" xmlns:rdf="http://www.w3.org/1999/02/22-rdf-syntax-ns#" xmlns:svg="http://www.w3.org/2000/svg" xmlns="http://www.w3.org/2000/svg" xmlns:xlink="http://www.w3.org/1999/xlink" xmlns:sodipodi="http://sodipodi.sourceforge.net/DTD/sodipodi-0.dtd" xmlns:inkscape="http://www.inkscape.org/namespaces/inkscape" width="64" height="32" id="svg4150" version="1.1" inkscape:version="0.91 r13725" viewBox="0 0 64 32" sodipodi:docname="00.svg">
  <defs id="defs4152">
    <inkscape:path-effect effect="envelope" id="path-effect5667" is_visible="true" yy="true" xx="true" bendpath1="m 0,15 32,0" bendpath2="m 32,15 0,2" bendpath3="m 0,17 32,0" bendpath4="m 0,15 0,2" />
    <inkscape:path-effect effect="sketch" id="path-effect5665" is_visible="true" nbiter_approxstrokes="1" strokelength="100" strokelength_rdm="0.3;1" strokeoverlap="0.3" strokeoverlap_rdm="0.3;1" ends_tolerance="0.1;1" parallel_offset="5;1" tremble_size="5;1" tremble_frequency="1" nbtangents="5" tgt_places_rdmness="1;1" tgtscale="10" tgtlength="100" tgtlength_rdm="0.3;1" />
    <inkscape:path-effect effect="rough_hatches" id="path-effect5663" is_visible="true" direction="16,11 , 8,0" dist_rdm="20;1" growth="0" do_bend="true" bender="16,16 , 5,0" bottom_edge_variation="0.2;1" top_edge_variation="0.2;1" bottom_tgt_variation="0.2;1" top_tgt_variation="0.2;1" scale_bf="2" scale_bb="1" scale_tf="1" scale_tb="1" top_smth_variation="100;1" bottom_smth_variation="100;1" fat_output="true" stroke_width_top="1" stroke_width_bottom="1" front_thickness="1" back_thickness="0.25" />
  </defs>
  <sodipodi:namedview id="base" pagecolor="#ffffff" bordercolor="#666666" borderopacity="1.0" inkscape:pageopacity="0.0" inkscape:pageshadow="2" inkscape:zoom="21.875" inkscape:cx="32" inkscape:cy="16" inkscape:current-layer="layer1" showgrid="true" inkscape:grid-bbox="true" inkscape:document-units="px" objecttolerance="10000" inkscape:snap-perpendicular="true" guidetolerance="10000" inkscape:window-width="1600" inkscape:window-height="878" inkscape:window-x="0" inkscape:window-y="0" inkscape:window-maximized="1" showguides="true" inkscape:guide-bbox="true">
    <inkscape:grid type="xygrid" id="grid4698" empspacing="4" />
    <sodipodi:guide position="16,32" orientation="1,0" id="guide4769" />
    <sodipodi:guide position="24,24" orientation="-0.70710678,0.70710678" id="guide4773" />
    <sodipodi:guide position="16,16" orientation="0.70710678,0.70710678" id="guide4775" />
    <sodipodi:guide position="5,26" orientation="1,0" id="guide5798" />
    <sodipodi:guide position="45,37" orientation="0,1" id="guide8681" />
    <sodipodi:guide position="44,32" orientation="0,1" id="guide8685" />
    <sodipodi:guide position="32,32" orientation="1,0" id="guide14251" />
  </sodipodi:namedview>
  <metadata id="metadata4155">
    <rdf:RDF>
      <cc:Work rdf:about="">
        <dc:format>image/svg+xml</dc:format>
        <dc:type rdf:resource="http://purl.org/dc/dcmitype/StillImage" />
        <dc:title></dc:title>
      </cc:Work>
    </rdf:RDF>
  </metadata>
  <g id="layer1" inkscape:label="Layer 1" inkscape:groupmode="layer">
    <g id="g13846" transform="matrix(0,-1,-1,0,48,32)">
      <rect y="0" x="0" height="32" width="32" id="rect13844" style="opacity:1;fill:none;fill-opacity:0.5;fill-rule:nonzero;stroke:none;stroke-width:2;stroke-linecap:square;stroke-linejoin:miter;stroke-miterlimit:4;stroke-dasharray:none;stroke-dashoffset:0;stroke-opacity:0.25098039" />
      <path id="path6168" d="M 14.136719,9.425781 12.5625,14.148438 12,13.585938 11.273438,14.3125 9.8144531,11.392578 l -1,3 L 8.2734375,13.3125 8,13.585938 l 0,-1 -2,2 L 6,13 4.0507812,12.683594 3.5625,14.148438 2.9921875,13.578125 2.2773438,14.308594 0.99414062,11.775391 0,13.763672 0,16 l 4,0 1,1 2,-1 2,1 1,-1 4,0 1,1 1,0 1,1 1,-1 1,0 1,-1 2,1 2,-1 2,0 1,1 1,-1 1,0 1,1 1,-1 1,0 0,-2.191406 -1.189453,-2.316406 -0.802735,2.367187 L 29.185547,11.392578 27.726562,14.3125 26,12.585938 l 0,1.111328 -2,-3 0,2.888672 -1,1 L 23,14 21.25,13.587891 19.863281,9.425781 18.685547,14.134766 17.814453,12.392578 17,14.835938 16.185547,12.392578 15.314453,14.134766 14.136719,9.425781 Z" style="color:black;font-style:normal;font-variant:normal;font-weight:normal;font-stretch:normal;font-size:medium;line-height:normal;font-family:sans-serif;text-indent:0;text-align:start;text-decoration:none;text-decoration-line:none;text-decoration-style:solid;text-decoration-color:black;letter-spacing:normal;word-spacing:normal;text-transform:none;direction:ltr;block-progression:tb;writing-mode:lr-tb;baseline-shift:baseline;text-anchor:start;white-space:normal;clip-rule:nonzero;display:inline;overflow:visible;visibility:visible;opacity:1;isolation:auto;mix-blend-mode:normal;color-interpolation:sRGB;color-interpolation-filters:linearRGB;solid-color:black;solid-opacity:1;fill:black;fill-opacity:0.25098039;fill-rule:nonzero;stroke:none;stroke-width:2;stroke-linecap:square;stroke-linejoin:miter;stroke-miterlimit:4;stroke-dasharray:none;stroke-dashoffset:0;stroke-opacity:1;color-rendering:auto;image-rendering:auto;shape-rendering:auto;text-rendering:auto;enable-background:accumulate" inkscape:connector-curvature="0" />
      <path id="path6162" d="M 0,16 0,19.414062 0.7265625,18.6875 1.1054688,19.447266 3,19 3,17.417969 3.2949219,17.708984 4,18.414062 l 0,1 0.5,-0.5 0.3027344,0.302735 L 6,18.617188 6,20.414062 7.7265625,18.6875 9.1855469,21.607422 10.4375,17.851562 11,18.414062 11.726562,17.6875 13,20.236328 l 0.814453,-1.628906 1,3 L 16,19.236328 l 1,2 1.273438,-2.548828 0.904296,0.904297 0.136719,0.273437 0.154297,-0.61914 0.792969,-1.490235 L 21,19.234375 l 0,0.179687 0.06055,-0.06055 0.816406,1.634765 2,-3 L 25,20.236328 25.814453,18.607422 27,22.162109 27.746094,19.921875 28,20.302734 28,19.164062 28.287109,18.304688 28.894531,18.447266 29,18.236328 l 0.792969,1.585938 0.06641,-0.08008 0.132813,0.396484 L 30.3125,19.191406 31.017578,18.337891 32,19.763672 32,16 l -1,0 -1,1 -1,-1 -1,0 -1,1 -1,-1 -2,0 -2,1 -2,-1 -1,1 -1,0 -1,1 -1,-1 -1,0 -1,-1 -4,0 -1,1 -2,-1 -2,1 -1,-1 -4,0 z" style="color:black;font-style:normal;font-variant:normal;font-weight:normal;font-stretch:normal;font-size:medium;line-height:normal;font-family:sans-serif;text-indent:0;text-align:start;text-decoration:none;text-decoration-line:none;text-decoration-style:solid;text-decoration-color:black;letter-spacing:normal;word-spacing:normal;text-transform:none;direction:ltr;block-progression:tb;writing-mode:lr-tb;baseline-shift:baseline;text-anchor:start;white-space:normal;clip-rule:nonzero;display:inline;overflow:visible;visibility:visible;opacity:1;isolation:auto;mix-blend-mode:normal;color-interpolation:sRGB;color-interpolation-filters:linearRGB;solid-color:black;solid-opacity:1;fill:white;fill-opacity:0.25098039;fill-rule:nonzero;stroke:none;stroke-width:2;stroke-linecap:square;stroke-linejoin:miter;stroke-miterlimit:4;stroke-dasharray:none;stroke-dashoffset:0;stroke-opacity:1;color-rendering:auto;image-rendering:auto;shape-rendering:auto;text-rendering:auto;enable-background:accumulate" inkscape:connector-curvature="0" />
      <path sodipodi:nodetypes="cccccccccccccccccccccccccccccccccccccccccccccccccccccccccccccccccccccc" inkscape:connector-curvature="0" id="path5770" d="M 0,16 1,14 2.015449,16.00565 3,15 l 1,1 1,-3 0,4 2,-2 0,1 1,-1 1,2 1,-3 1,2 1,-1 1,1 1,-3 1,4 1,-2 1,3 1,-3 1,2 1,-4 1,3 1,-2 0,3 2,-2 1,1 0,-2 2,3 0,-2 1,1 1,-2 1,3 1,-2.949153 L 32,16 32,18 31.090395,16.677966 30,18 l -1,-2 -1,2 0,-2 -1,3 -1,-3 -1,2 -1,-2 -2,3 L 21,17 20.090395,15.949153 19,18 18,17 17,19 16,17 15,19 14,16 13,18 12,16 11,17 10,16 9,19 8,17 7,18 7,17 5,18 4,17 3.0020428,16.013342 2,17 2,19 1,17 0,18 Z" style="opacity:1;fill:black;fill-opacity:1;fill-rule:nonzero;stroke:none;stroke-width:2;stroke-linecap:butt;stroke-linejoin:miter;stroke-miterlimit:4;stroke-dasharray:none;stroke-dashoffset:0;stroke-opacity:1" />
      <g transform="translate(-0.99999983,0)" id="g5874">
        <g transform="translate(-4,16)" id="g5868">
          <path inkscape:connector-curvature="0" style="opacity:1;fill:white;fill-opacity:0.5;fill-rule:nonzero;stroke:none;stroke-width:2;stroke-linecap:round;stroke-linejoin:miter;stroke-miterlimit:4;stroke-dasharray:none;stroke-dashoffset:0;stroke-opacity:1" d="M 9,6 A 2,2 0 0 0 7,8 2,2 0 0 0 9,10 2,2 0 0 0 11,8 2,2 0 0 0 9,6 Z M 9,7 A 1,1 0 0 1 10,8 1,1 0 0 1 9,9 1,1 0 0 1 8,8 1,1 0 0 1 9,7 Z" id="path5870" />
          <path inkscape:connector-curvature="0" style="opacity:1;fill:black;fill-opacity:0.50196078;fill-rule:nonzero;stroke:none;stroke-width:2;stroke-linecap:round;stroke-linejoin:miter;stroke-miterlimit:4;stroke-dasharray:none;stroke-dashoffset:0;stroke-opacity:1" d="M 9.0292969,6 A 2,2 0 0 0 7.5859375,6.5859375 L 8.2929688,7.2929688 A 1,1 0 0 1 9.2597656,7.0332031 1,1 0 0 1 9.9667969,7.7402344 1,1 0 0 1 9.7070312,8.7070312 L 10.414062,9.4140625 A 2,2 0 0 0 10.931641,7.4824219 2,2 0 0 0 9.5175781,6.0683594 2,2 0 0 0 9.0292969,6 Z" id="path5872" />
        </g>
        <g id="g5864" transform="translate(-4,0)">
          <path id="path5858" d="M 9,6 A 2,2 0 0 0 7,8 2,2 0 0 0 9,10 2,2 0 0 0 11,8 2,2 0 0 0 9,6 Z M 9,7 A 1,1 0 0 1 10,8 1,1 0 0 1 9,9 1,1 0 0 1 8,8 1,1 0 0 1 9,7 Z" style="opacity:1;fill:white;fill-opacity:0.5;fill-rule:nonzero;stroke:none;stroke-width:2;stroke-linecap:round;stroke-linejoin:miter;stroke-miterlimit:4;stroke-dasharray:none;stroke-dashoffset:0;stroke-opacity:1" inkscape:connector-curvature="0" />
          <path id="path5852" d="M 9.0292969,6 A 2,2 0 0 0 7.5859375,6.5859375 L 8.2929688,7.2929688 A 1,1 0 0 1 9.2597656,7.0332031 1,1 0 0 1 9.9667969,7.7402344 1,1 0 0 1 9.7070312,8.7070312 L 10.414062,9.4140625 A 2,2 0 0 0 10.931641,7.4824219 2,2 0 0 0 9.5175781,6.0683594 2,2 0 0 0 9.0292969,6 Z" style="opacity:1;fill:black;fill-opacity:0.50196078;fill-rule:nonzero;stroke:none;stroke-width:2;stroke-linecap:round;stroke-linejoin:miter;stroke-miterlimit:4;stroke-dasharray:none;stroke-dashoffset:0;stroke-opacity:1" inkscape:connector-curvature="0" />
        </g>
        <path style="opacity:1;fill:black;fill-opacity:0.50196078;fill-rule:nonzero;stroke:none;stroke-width:2;stroke-linecap:round;stroke-linejoin:miter;stroke-miterlimit:4;stroke-dasharray:none;stroke-dashoffset:0;stroke-opacity:1" d="M 4.2929688,7.2929688 3,8.5839844 3,24 a 2,2 0 0 0 1.4785156,1.931641 L 5.7050781,24.705078 5,24 5,8 4.2929688,7.2929688 Z" id="path5830" inkscape:connector-curvature="0" />
        <path style="opacity:1;fill:red;fill-opacity:1;fill-rule:nonzero;stroke:none;stroke-width:2;stroke-linecap:round;stroke-linejoin:miter;stroke-miterlimit:4;stroke-dasharray:none;stroke-dashoffset:0;stroke-opacity:1" d="M 5,7 A 1,1 0 0 0 4,8 l 0,16 a 1,1 0 0 0 1,1 1,1 0 0 0 1,-1 L 6,8 A 1,1 0 0 0 5,7 Z" id="path5816" inkscape:connector-curvature="0" />
        <path style="opacity:1;fill:black;fill-opacity:0.50196078;fill-rule:nonzero;stroke:none;stroke-width:2;stroke-linecap:round;stroke-linejoin:miter;stroke-miterlimit:4;stroke-dasharray:none;stroke-dashoffset:0;stroke-opacity:1" id="path5806" sodipodi:type="arc" sodipodi:cx="5" sodipodi:cy="8" sodipodi:rx="1" sodipodi:ry="1" sodipodi:start="3.1415927" sodipodi:end="3.9269908" d="M 4,8 A 1,1 0 0 1 4.2928932,7.2928932 L 5,8 Z" />
        <path style="opacity:1;fill:black;fill-opacity:0.50196078;fill-rule:nonzero;stroke:none;stroke-width:2;stroke-linecap:round;stroke-linejoin:miter;stroke-miterlimit:4;stroke-dasharray:none;stroke-dashoffset:0;stroke-opacity:1" id="path5808" sodipodi:type="arc" sodipodi:cx="5" sodipodi:cy="24" sodipodi:rx="1" sodipodi:ry="1" sodipodi:start="0.78539816" sodipodi:end="3.1415927" d="M 5.7071068,24.707107 A 1,1 0 0 1 4.6173165,24.92388 1,1 0 0 1 4,24 l 1,0 z" />
        <rect style="opacity:1;fill:black;fill-opacity:0.50196078;fill-rule:nonzero;stroke:none;stroke-width:2;stroke-linecap:round;stroke-linejoin:miter;stroke-miterlimit:4;stroke-dasharray:none;stroke-dashoffset:0;stroke-opacity:1" id="rect5812" width="1" height="16" x="4" y="8" />
      </g>
      <g transform="translate(-21,16)" id="g8722">
        <g id="g8648" transform="translate(32,-4)">
          <path id="path8650" d="M 9,6 A 2,2 0 0 0 7,8 2,2 0 0 0 9,10 2,2 0 0 0 11,8 2,2 0 0 0 9,6 Z M 9,7 A 1,1 0 0 1 10,8 1,1 0 0 1 9,9 1,1 0 0 1 8,8 1,1 0 0 1 9,7 Z" style="opacity:1;fill:white;fill-opacity:0.5;fill-rule:nonzero;stroke:none;stroke-width:2;stroke-linecap:round;stroke-linejoin:miter;stroke-miterlimit:4;stroke-dasharray:none;stroke-dashoffset:0;stroke-opacity:1" inkscape:connector-curvature="0" />
          <path id="path8652" d="M 9.0292969,6 A 2,2 0 0 0 7.5859375,6.5859375 L 8.2929688,7.2929688 A 1,1 0 0 1 9.2597656,7.0332031 1,1 0 0 1 9.9667969,7.7402344 1,1 0 0 1 9.7070312,8.7070312 L 10.414062,9.4140625 A 2,2 0 0 0 10.931641,7.4824219 2,2 0 0 0 9.5175781,6.0683594 2,2 0 0 0 9.0292969,6 Z" style="opacity:1;fill:black;fill-opacity:0.50196078;fill-rule:nonzero;stroke:none;stroke-width:2;stroke-linecap:round;stroke-linejoin:miter;stroke-miterlimit:4;stroke-dasharray:none;stroke-dashoffset:0;stroke-opacity:1" inkscape:connector-curvature="0" />
        </g>
        <g transform="translate(32,-12)" id="g8654">
          <path inkscape:connector-curvature="0" style="opacity:1;fill:white;fill-opacity:0.5;fill-rule:nonzero;stroke:none;stroke-width:2;stroke-linecap:round;stroke-linejoin:miter;stroke-miterlimit:4;stroke-dasharray:none;stroke-dashoffset:0;stroke-opacity:1" d="M 9,6 A 2,2 0 0 0 7,8 2,2 0 0 0 9,10 2,2 0 0 0 11,8 2,2 0 0 0 9,6 Z M 9,7 A 1,1 0 0 1 10,8 1,1 0 0 1 9,9 1,1 0 0 1 8,8 1,1 0 0 1 9,7 Z" id="path8656" />
          <path inkscape:connector-curvature="0" style="opacity:1;fill:black;fill-opacity:0.50196078;fill-rule:nonzero;stroke:none;stroke-width:2;stroke-linecap:round;stroke-linejoin:miter;stroke-miterlimit:4;stroke-dasharray:none;stroke-dashoffset:0;stroke-opacity:1" d="M 9.0292969,6 A 2,2 0 0 0 7.5859375,6.5859375 L 8.2929688,7.2929688 A 1,1 0 0 1 9.2597656,7.0332031 1,1 0 0 1 9.9667969,7.7402344 1,1 0 0 1 9.7070312,8.7070312 L 10.414062,9.4140625 A 2,2 0 0 0 10.931641,7.4824219 2,2 0 0 0 9.5175781,6.0683594 2,2 0 0 0 9.0292969,6 Z" id="path8658" />
        </g>
        <path inkscape:connector-curvature="0" id="path8660" d="M 40.292969,-4.7070312 39,-3.4160156 39,4 c -3.72e-4,0.9040373 0.605751,1.6959206 1.478516,1.931641 L 41.705078,4.705078 41,4 41,-4 Z" style="opacity:1;fill:black;fill-opacity:0.50196078;fill-rule:nonzero;stroke:none;stroke-width:2;stroke-linecap:round;stroke-linejoin:miter;stroke-miterlimit:4;stroke-dasharray:none;stroke-dashoffset:0;stroke-opacity:1" sodipodi:nodetypes="cccccccc" />
        <path inkscape:connector-curvature="0" id="path8703" d="m 41,-5 c -0.552285,0 -1,0.4477153 -1,1 l 0,8 c 0,0.5522847 0.447715,1 1,1 0.552285,0 1,-0.4477153 1,-1 l 0,-8 c 0,-0.5522847 -0.447715,-1 -1,-1 z" style="opacity:1;fill:red;fill-opacity:1;fill-rule:nonzero;stroke:none;stroke-width:2;stroke-linecap:round;stroke-linejoin:miter;stroke-miterlimit:4;stroke-dasharray:none;stroke-dashoffset:0;stroke-opacity:1" sodipodi:nodetypes="sssssss" />
        <path d="m 40,-4 a 1,1 0 0 1 0.292893,-0.7071068 L 41,-4 Z" sodipodi:end="3.9269908" sodipodi:start="3.1415927" sodipodi:ry="1" sodipodi:rx="1" sodipodi:cy="-4" sodipodi:cx="41" sodipodi:type="arc" id="path8664" style="opacity:1;fill:black;fill-opacity:0.50196078;fill-rule:nonzero;stroke:none;stroke-width:2;stroke-linecap:round;stroke-linejoin:miter;stroke-miterlimit:4;stroke-dasharray:none;stroke-dashoffset:0;stroke-opacity:1" />
        <path d="M 41.707107,4.7071068 A 1,1 0 0 1 40.617317,4.9238795 1,1 0 0 1 40,4 l 1,0 z" sodipodi:end="3.1415927" sodipodi:start="0.78539816" sodipodi:ry="1" sodipodi:rx="1" sodipodi:cy="4" sodipodi:cx="41" sodipodi:type="arc" id="path8666" style="opacity:1;fill:black;fill-opacity:0.50196078;fill-rule:nonzero;stroke:none;stroke-width:2;stroke-linecap:round;stroke-linejoin:miter;stroke-miterlimit:4;stroke-dasharray:none;stroke-dashoffset:0;stroke-opacity:1" />
        <rect y="-3.982636" x="40" height="7.965271" width="1" id="rect8668" style="opacity:1;fill:black;fill-opacity:0.50196078;fill-rule:nonzero;stroke:none;stroke-width:2;stroke-linecap:round;stroke-linejoin:miter;stroke-miterlimit:4;stroke-dasharray:none;stroke-dashoffset:0;stroke-opacity:1" />
      </g>
      <g id="g8786" transform="translate(-30,12)">
        <g transform="translate(30,0)" id="g8788">
          <path inkscape:connector-curvature="0" style="opacity:1;fill:white;fill-opacity:0.5;fill-rule:nonzero;stroke:none;stroke-width:2;stroke-linecap:round;stroke-linejoin:miter;stroke-miterlimit:4;stroke-dasharray:none;stroke-dashoffset:0;stroke-opacity:1" d="M 9,6 A 2,2 0 0 0 7,8 2,2 0 0 0 9,10 2,2 0 0 0 11,8 2,2 0 0 0 9,6 Z M 9,7 A 1,1 0 0 1 10,8 1,1 0 0 1 9,9 1,1 0 0 1 8,8 1,1 0 0 1 9,7 Z" id="path8790" />
          <path inkscape:connector-curvature="0" style="opacity:1;fill:black;fill-opacity:0.50196078;fill-rule:nonzero;stroke:none;stroke-width:2;stroke-linecap:round;stroke-linejoin:miter;stroke-miterlimit:4;stroke-dasharray:none;stroke-dashoffset:0;stroke-opacity:1" d="M 9.0292969,6 A 2,2 0 0 0 7.5859375,6.5859375 L 8.2929688,7.2929688 A 1,1 0 0 1 9.2597656,7.0332031 1,1 0 0 1 9.9667969,7.7402344 1,1 0 0 1 9.7070312,8.7070312 L 10.414062,9.4140625 A 2,2 0 0 0 10.931641,7.4824219 2,2 0 0 0 9.5175781,6.0683594 2,2 0 0 0 9.0292969,6 Z" id="path8792" />
        </g>
        <g id="g8794" transform="translate(30,-12)">
          <path id="path8796" d="M 9,6 A 2,2 0 0 0 7,8 2,2 0 0 0 9,10 2,2 0 0 0 11,8 2,2 0 0 0 9,6 Z M 9,7 A 1,1 0 0 1 10,8 1,1 0 0 1 9,9 1,1 0 0 1 8,8 1,1 0 0 1 9,7 Z" style="opacity:1;fill:white;fill-opacity:0.5;fill-rule:nonzero;stroke:none;stroke-width:2;stroke-linecap:round;stroke-linejoin:miter;stroke-miterlimit:4;stroke-dasharray:none;stroke-dashoffset:0;stroke-opacity:1" inkscape:connector-curvature="0" />
          <path id="path8798" d="M 9.0292969,6 A 2,2 0 0 0 7.5859375,6.5859375 L 8.2929688,7.2929688 A 1,1 0 0 1 9.2597656,7.0332031 1,1 0 0 1 9.9667969,7.7402344 1,1 0 0 1 9.7070312,8.7070312 L 10.414062,9.4140625 A 2,2 0 0 0 10.931641,7.4824219 2,2 0 0 0 9.5175781,6.0683594 2,2 0 0 0 9.0292969,6 Z" style="opacity:1;fill:black;fill-opacity:0.50196078;fill-rule:nonzero;stroke:none;stroke-width:2;stroke-linecap:round;stroke-linejoin:miter;stroke-miterlimit:4;stroke-dasharray:none;stroke-dashoffset:0;stroke-opacity:1" inkscape:connector-curvature="0" />
        </g>
        <path sodipodi:nodetypes="cccccccc" style="opacity:1;fill:black;fill-opacity:0.50196078;fill-rule:nonzero;stroke:none;stroke-width:2;stroke-linecap:round;stroke-linejoin:miter;stroke-miterlimit:4;stroke-dasharray:none;stroke-dashoffset:0;stroke-opacity:1" d="M 38.292969,-4.7070312 37,-3.4160156 37,8 c -3.72e-4,0.9040373 0.605751,1.6959206 1.478516,1.931641 L 39.705078,8.705078 39,8 39,-4 Z" id="path8800" inkscape:connector-curvature="0" />
        <path sodipodi:nodetypes="sssssss" style="opacity:1;fill:red;fill-opacity:1;fill-rule:nonzero;stroke:none;stroke-width:2;stroke-linecap:round;stroke-linejoin:miter;stroke-miterlimit:4;stroke-dasharray:none;stroke-dashoffset:0;stroke-opacity:1" d="m 39,-5 c -0.552285,0 -1,0.4477153 -1,1 l 0,12 c 0,0.5522847 0.447715,1 1,1 0.552285,0 1,-0.4477153 1,-1 l 0,-12 c 0,-0.5522847 -0.447715,-1 -1,-1 z" id="path8802" inkscape:connector-curvature="0" />
        <path style="opacity:1;fill:black;fill-opacity:0.50196078;fill-rule:nonzero;stroke:none;stroke-width:2;stroke-linecap:round;stroke-linejoin:miter;stroke-miterlimit:4;stroke-dasharray:none;stroke-dashoffset:0;stroke-opacity:1" id="path8804" sodipodi:type="arc" sodipodi:cx="39" sodipodi:cy="-4" sodipodi:rx="1" sodipodi:ry="1" sodipodi:start="3.1415927" sodipodi:end="3.9269908" d="m 38,-4 a 1,1 0 0 1 0.292893,-0.7071068 L 39,-4 Z" />
        <path style="opacity:1;fill:black;fill-opacity:0.50196078;fill-rule:nonzero;stroke:none;stroke-width:2;stroke-linecap:round;stroke-linejoin:miter;stroke-miterlimit:4;stroke-dasharray:none;stroke-dashoffset:0;stroke-opacity:1" id="path8806" sodipodi:type="arc" sodipodi:cx="39" sodipodi:cy="8" sodipodi:rx="1" sodipodi:ry="1" sodipodi:start="0.78539816" sodipodi:end="3.1415927" d="M 39.707107,8.7071068 A 1,1 0 0 1 38.617317,8.9238795 1,1 0 0 1 38,8 l 1,0 z" />
        <rect style="opacity:1;fill:black;fill-opacity:0.50196078;fill-rule:nonzero;stroke:none;stroke-width:2;stroke-linecap:round;stroke-linejoin:miter;stroke-miterlimit:4;stroke-dasharray:none;stroke-dashoffset:0;stroke-opacity:1" id="rect8808" width="1" height="12" x="38" y="-4" />
      </g>
      <use height="100%" width="100%" transform="translate(4.9999998,2)" id="use8842" xlink:href="#g8786" y="0" x="0" />
      <use height="100%" width="100%" transform="translate(10,0)" id="use13840" xlink:href="#g8722" y="0" x="0" />
      <use height="100%" width="100%" transform="translate(11,-2)" id="use13842" xlink:href="#use8842" y="0" x="0" />
    </g>
  </g>
</svg>
