<?xml version="1.0" encoding="UTF-8" standalone="no"?>
<!-- Created with Inkscape (http://www.inkscape.org/) -->

<svg
   xmlns:dc="http://purl.org/dc/elements/1.1/"
   xmlns:cc="http://creativecommons.org/ns#"
   xmlns:rdf="http://www.w3.org/1999/02/22-rdf-syntax-ns#"
   xmlns:svg="http://www.w3.org/2000/svg"
   xmlns="http://www.w3.org/2000/svg"
   xmlns:sodipodi="http://sodipodi.sourceforge.net/DTD/sodipodi-0.dtd"
   xmlns:inkscape="http://www.inkscape.org/namespaces/inkscape"
   width="32"
   height="32"
   id="svg2"
   version="1.1"
   inkscape:version="0.48.5 r10040"
   sodipodi:docname="00.svg">
  <defs
     id="defs4">
    <inkscape:perspective
       sodipodi:type="inkscape:persp3d"
       inkscape:vp_x="0 : 526.18109 : 1"
       inkscape:vp_y="0 : 1000 : 0"
       inkscape:vp_z="744.09448 : 526.18109 : 1"
       inkscape:persp3d-origin="372.04724 : 350.78739 : 1"
       id="perspective10" />
  </defs>
  <sodipodi:namedview
     id="base"
     pagecolor="#ffffff"
     bordercolor="#666666"
     borderopacity="1.0"
     inkscape:pageopacity="0.0"
     inkscape:pageshadow="2"
     inkscape:zoom="16.375"
     inkscape:cx="16"
     inkscape:cy="16"
     inkscape:document-units="px"
     inkscape:current-layer="layer1"
     showgrid="true"
     units="px"
     objecttolerance="10000"
     gridtolerance="10000"
     guidetolerance="10000"
     inkscape:window-width="1024"
     inkscape:window-height="741"
     inkscape:window-x="0"
     inkscape:window-y="2"
     inkscape:window-maximized="1"
     showguides="true"
     inkscape:guide-bbox="true">
    <inkscape:grid
       type="xygrid"
       id="grid2983"
       empspacing="8"
       visible="true"
       enabled="true"
       snapvisiblegridlinesonly="true"
       spacingx="0.5px"
       spacingy="0.5px" />
    <sodipodi:guide
       orientation="0,1"
       position="-4,16"
       id="guide2985" />
    <sodipodi:guide
       orientation="1,0"
       position="16,32"
       id="guide2987" />
    <sodipodi:guide
       orientation="0.70710678,0.70710678"
       position="24,23"
       id="guide3963" />
  </sodipodi:namedview>
  <metadata
     id="metadata7">
    <rdf:RDF>
      <cc:Work
         rdf:about="">
        <dc:format>image/svg+xml</dc:format>
        <dc:type
           rdf:resource="http://purl.org/dc/dcmitype/StillImage" />
        <dc:title />
        <dc:creator>
          <cc:Agent>
            <dc:title>Andreas Neudecker &lt;zapyon@gmx.net&gt;</dc:title>
          </cc:Agent>
        </dc:creator>
        <dc:source />
      </cc:Work>
    </rdf:RDF>
  </metadata>
  <g
     inkscape:label="Ebene 1"
     inkscape:groupmode="layer"
     id="layer1"
     transform="translate(0,-1020.3622)">
    <g
       id="g22399">
      <path
         sodipodi:nodetypes="sssssssss"
         inkscape:connector-curvature="0"
         id="rect3831"
         d="m 3,1027.3622 c -1.6447124,0 -3,1.3553 -3,3 l 0,12 c 0,1.6447 1.3552876,3 3,3 l 26,0 c 1.644712,0 3,-1.3553 3,-3 l 0,-12 c 0,-1.6447 -1.355288,-3 -3,-3 z"
         style="font-size:medium;font-style:normal;font-variant:normal;font-weight:normal;font-stretch:normal;text-indent:0;text-align:start;text-decoration:none;line-height:normal;letter-spacing:normal;word-spacing:normal;text-transform:none;direction:ltr;block-progression:tb;writing-mode:lr-tb;text-anchor:start;baseline-shift:baseline;color:black;fill:black;fill-opacity:1;fill-rule:nonzero;stroke:none;stroke-width:2;marker:none;visibility:visible;display:inline;overflow:visible;enable-background:accumulate;font-family:Sans;-inkscape-font-specification:Sans" />
      <rect
         ry="2.0000174"
         y="1028.3622"
         x="1"
         height="16"
         width="30"
         id="rect2989"
         style="fill:blue;stroke:none" />
      <rect
         y="1031.3622"
         x="2"
         height="9.9999828"
         width="21"
         id="rect2995"
         style="fill:white;fill-opacity:1;stroke:none" />
      <path
         id="path2997"
         transform="translate(0,1020.3622)"
         d="M 22.65625 8.9375 C 22.523321 8.9155 22.376834 8.93775 22.25 8.96875 C 21.996333 9.03675 21.766682 9.22325 21.625 9.46875 C 21.52707 9.63835 21.495488 9.8169 21.5 10 L 21.5 11 L 21.5 21 L 21.5 22 C 21.495488 22.1831 21.52707 22.36175 21.625 22.53125 C 21.766682 22.77675 21.996333 22.96325 22.25 23.03125 C 22.376834 23.06195 22.523321 23.0845 22.65625 23.0625 C 22.789179 23.0405 22.908549 22.97725 23.03125 22.90625 C 23.109248 22.86125 23.18686 22.813 23.25 22.75 L 25 21 L 30 16 L 25 11 L 23.25 9.25 C 23.18686 9.187 23.109248 9.13875 23.03125 9.09375 C 22.908549 9.02275 22.789179 8.9595 22.65625 8.9375 z "
         style="fill:white;fill-opacity:1;stroke:none" />
      <g
         id="text2999"
         style="font-size:8px;font-style:normal;font-variant:normal;font-weight:bold;font-stretch:normal;text-align:start;text-anchor:start;fill:black;fill-opacity:1;stroke:none;font-family:Impact;-inkscape-font-specification:Impact Bold">
        <path
           id="path4062"
           style="letter-spacing:1px;fill:black;-inkscape-font-specification:Impact Bold"
           d="m 6.6679688,1033.2 0,6.3242 -1.578125,0 0,-3.3907 c -1.2e-6,-0.4895 -0.01172,-0.7838 -0.035156,-0.8828 -0.023439,-0.099 -0.088543,-0.1731 -0.1953125,-0.2226 -0.1041675,-0.052 -0.3385422,-0.078 -0.703125,-0.078 l -0.15625,0 0,-0.7383 c 0.76302,-0.1641 1.3424465,-0.5013 1.7382813,-1.0117 l 0.9296875,0"
           inkscape:connector-curvature="0" />
        <path
           id="path4064"
           style="letter-spacing:1px;fill:black;-inkscape-font-specification:Impact Bold"
           d="m 14.515625,1033.2 -0.730469,6.3242 -2.054687,0 c -0.187504,-0.9714 -0.352868,-2.0755 -0.496094,-3.3125 -0.06511,0.5286 -0.217451,1.6328 -0.457031,3.3125 l -2.042969,0 L 8,1033.2 l 1.5976563,0 0.1679687,2.207 0.171875,2.1289 c 0.059894,-1.1016 0.210935,-2.5469 0.453125,-4.3359 l 1.710938,0 c 0.02343,0.1849 0.08333,0.8802 0.179687,2.0859 l 0.179688,2.4023 c 0.09114,-1.5286 0.243484,-3.0247 0.457031,-4.4882 l 1.597656,0"
           inkscape:connector-curvature="0" />
        <path
           id="path4066"
           style="letter-spacing:1px;fill:black;-inkscape-font-specification:Impact Bold"
           d="m 18.613281,1033.2 0.941406,6.3242 -1.683593,0 -0.08203,-1.1367 -0.589843,0 -0.09766,1.1367 -1.703125,0 0.835937,-6.3242 2.378906,0 m -0.871094,4.0664 c -0.08334,-0.7162 -0.166668,-1.6003 -0.249999,-2.6524 -0.166669,1.2084 -0.270836,2.0925 -0.3125,2.6524 l 0.562499,0"
           inkscape:connector-curvature="0" />
        <path
           id="path4068"
           style="letter-spacing:1px;fill:black;-inkscape-font-specification:Impact Bold"
           d="m 23.855469,1033.2 -1.199219,4.0351 0,2.2891 -1.523437,0 0,-2.2891 -1.156251,-4.0351 1.511719,0 c 0.236978,1.2317 0.36979,2.0612 0.398438,2.4882 0.09114,-0.6744 0.243487,-1.5039 0.457031,-2.4882 l 1.511719,0"
           inkscape:connector-curvature="0" />
      </g>
      <rect
         y="1020.3622"
         x="0"
         height="32"
         width="32"
         id="rect4059"
         style="fill:none;stroke:none" />
    </g>
  </g>
</svg>
