<?xml version="1.0" encoding="UTF-8" standalone="no"?>
<!-- Created with Inkscape (http://www.inkscape.org/) -->

<svg xmlns:dc="http://purl.org/dc/elements/1.1/" xmlns:cc="http://creativecommons.org/ns#" xmlns:rdf="http://www.w3.org/1999/02/22-rdf-syntax-ns#" xmlns:svg="http://www.w3.org/2000/svg" xmlns="http://www.w3.org/2000/svg" xmlns:xlink="http://www.w3.org/1999/xlink" xmlns:sodipodi="http://sodipodi.sourceforge.net/DTD/sodipodi-0.dtd" xmlns:inkscape="http://www.inkscape.org/namespaces/inkscape" width="32" height="32" id="svg4150" version="1.1" inkscape:version="0.91 r13725" viewBox="0 0 32 32" sodipodi:docname="00.svg">
  <defs id="defs4152" />
  <sodipodi:namedview id="base" pagecolor="#ffffff" bordercolor="#666666" borderopacity="1.0" inkscape:pageopacity="0.0" inkscape:pageshadow="2" inkscape:zoom="22.125" inkscape:cx="16" inkscape:cy="16" inkscape:current-layer="layer1" showgrid="true" inkscape:grid-bbox="true" inkscape:document-units="px" objecttolerance="10000" inkscape:snap-perpendicular="true" guidetolerance="10000" inkscape:window-width="1600" inkscape:window-height="878" inkscape:window-x="0" inkscape:window-y="0" inkscape:window-maximized="1" showguides="true" inkscape:guide-bbox="true">
    <inkscape:grid type="xygrid" id="grid4698" empspacing="4" />
    <sodipodi:guide position="16,32" orientation="1,0" id="guide4769" />
    <sodipodi:guide position="-4,16" orientation="0,1" id="guide4771" />
    <sodipodi:guide position="16,16" orientation="-0.70710678,0.70710678" id="guide4773" />
    <sodipodi:guide position="16,16" orientation="0.70710678,0.70710678" id="guide4775" />
  </sodipodi:namedview>
  <metadata id="metadata4155">
    <rdf:RDF>
      <cc:Work rdf:about="">
        <dc:format>image/svg+xml</dc:format>
        <dc:type rdf:resource="http://purl.org/dc/dcmitype/StillImage" />
        <dc:title></dc:title>
      </cc:Work>
    </rdf:RDF>
  </metadata>
  <g id="layer1" inkscape:label="Layer 1" inkscape:groupmode="layer">
    <rect style="opacity:1;fill:#520;fill-opacity:1;fill-rule:nonzero;stroke:none;stroke-width:2;stroke-linecap:round;stroke-linejoin:round;stroke-miterlimit:4;stroke-dasharray:none;stroke-dashoffset:0;stroke-opacity:1" id="rect4711" width="32" height="32" x="0" y="0" />
    <path style="opacity:1;fill:#803300;fill-opacity:1;fill-rule:nonzero;stroke:none;stroke-width:2;stroke-linecap:round;stroke-linejoin:round;stroke-miterlimit:4;stroke-dasharray:none;stroke-dashoffset:0;stroke-opacity:1" d="M 10 12 A 2 2 0 0 0 8 14 A 2 1 0 0 0 9 14.865234 A 2 1 0 0 0 11 14.865234 A 2 1 0 0 0 12 14 A 2 2 0 0 0 10 12 z " id="path4702" />
    <use x="0" y="0" xlink:href="#path4702" id="use4713" transform="translate(12,8.0007914)" width="100%" height="100%" />
    <use x="0" y="0" xlink:href="#path4702" id="use4715" transform="translate(18,-8)" width="100%" height="100%" />
    <use x="0" y="0" xlink:href="#path4702" id="use4717" transform="translate(-4,12)" width="100%" height="100%" />
    <use x="0" y="0" xlink:href="#path4702" id="use4719" transform="translate(-4,-8)" width="100%" height="100%" />
    <path id="path4721" d="m 18,2 a 2,2 0 0 0 -2,2 2,1 0 0 0 1,0.865234 2,1 0 0 0 2,0 A 2,1 0 0 0 20,4 2,2 0 0 0 18,2 Z" style="opacity:1;fill:#2b1100;fill-opacity:1;fill-rule:nonzero;stroke:none;stroke-width:2;stroke-linecap:round;stroke-linejoin:round;stroke-miterlimit:4;stroke-dasharray:none;stroke-dashoffset:0;stroke-opacity:1" inkscape:connector-curvature="0" />
    <use x="0" y="0" xlink:href="#path4721" id="use4723" transform="translate(-8,24)" width="100%" height="100%" />
    <use x="0" y="0" xlink:href="#use4723" id="use4725" transform="translate(18,0)" width="100%" height="100%" />
    <use x="0" y="0" xlink:href="#use4725" id="use4727" transform="translate(2,-18)" width="100%" height="100%" />
    <use x="0" y="0" xlink:href="#use4727" id="use4729" transform="translate(-28,6)" width="100%" height="100%" />
    <path id="path4731" d="m 18,9.9999996 a 2,2.0005277 0 0 0 -2,2.0005274 2,1.0002639 0 0 0 1,0.865463 2,1.0002639 0 0 0 2,0 2,1.0002639 0 0 0 1,-0.865463 2,2.0005277 0 0 0 -2,-2.0005274 z" style="opacity:1;fill:#784421;fill-opacity:1;fill-rule:nonzero;stroke:none;stroke-width:2;stroke-linecap:round;stroke-linejoin:round;stroke-miterlimit:4;stroke-dasharray:none;stroke-dashoffset:0;stroke-opacity:1" inkscape:connector-curvature="0" />
    <use x="0" y="0" xlink:href="#path4731" id="use4733" transform="translate(8,5.999209)" width="100%" height="100%" />
    <use x="0" y="0" xlink:href="#use4733" id="use4735" transform="translate(-16,2)" width="100%" height="100%" />
    <use x="0" y="0" xlink:href="#use4735" id="use4737" transform="translate(0,-16)" width="100%" height="100%" />
    <use x="0" y="0" xlink:href="#path4731" id="use4741" transform="translate(2,18)" width="100%" height="100%" />
    <use x="0" y="0" xlink:href="#use4741" id="use4743" />
  </g>
</svg>
