<?xml version="1.0" encoding="UTF-8" standalone="no"?>
<!-- Created with Inkscape (http://www.inkscape.org/) -->

<svg
   xmlns:dc="http://purl.org/dc/elements/1.1/"
   xmlns:cc="http://creativecommons.org/ns#"
   xmlns:rdf="http://www.w3.org/1999/02/22-rdf-syntax-ns#"
   xmlns:svg="http://www.w3.org/2000/svg"
   xmlns="http://www.w3.org/2000/svg"
   xmlns:sodipodi="http://sodipodi.sourceforge.net/DTD/sodipodi-0.dtd"
   xmlns:inkscape="http://www.inkscape.org/namespaces/inkscape"
   width="32"
   height="32"
   id="svg3259"
   version="1.1"
   inkscape:version="0.48.5 r10040"
   sodipodi:docname="00.svg">
  <defs
     id="defs3261" />
  <sodipodi:namedview
     id="base"
     pagecolor="#ffffff"
     bordercolor="#666666"
     borderopacity="1.0"
     inkscape:pageopacity="0.0"
     inkscape:pageshadow="2"
     inkscape:zoom="16.375"
     inkscape:cx="16"
     inkscape:cy="16"
     inkscape:document-units="px"
     inkscape:current-layer="layer1"
     showgrid="true"
     gridtolerance="10"
     showguides="true"
     inkscape:guide-bbox="true"
     inkscape:window-width="1024"
     inkscape:window-height="741"
     inkscape:window-x="0"
     inkscape:window-y="2"
     inkscape:window-maximized="1">
    <inkscape:grid
       type="xygrid"
       id="grid3267"
       empspacing="8"
       visible="true"
       enabled="true"
       snapvisiblegridlinesonly="true"
       spacingx="0.5px"
       spacingy="0.5px" />
    <sodipodi:guide
       orientation="1,0"
       position="16,36"
       id="guide3269" />
    <sodipodi:guide
       orientation="0,1"
       position="-4,16"
       id="guide3271" />
  </sodipodi:namedview>
  <metadata
     id="metadata3264">
    <rdf:RDF>
      <cc:Work
         rdf:about="">
        <dc:format>image/svg+xml</dc:format>
        <dc:type
           rdf:resource="http://purl.org/dc/dcmitype/StillImage" />
        <dc:title></dc:title>
      </cc:Work>
    </rdf:RDF>
  </metadata>
  <g
     inkscape:label="Ebene 1"
     inkscape:groupmode="layer"
     id="layer1"
     transform="translate(0,-1020.3622)">
    <rect
       style="fill:none;stroke:none"
       id="rect5069"
       width="32"
       height="32"
       x="0"
       y="1020.3622" />
    <path
       sodipodi:type="arc"
       style="fill:white;fill-opacity:1;stroke:none"
       id="path4038"
       sodipodi:cx="16"
       sodipodi:cy="16"
       sodipodi:rx="16"
       sodipodi:ry="16"
       d="M 32,16 A 16,16 0 1 1 0,16 16,16 0 1 1 32,16 z"
       transform="translate(0,1020.3622)" />
    <path
       style="fill:black;fill-opacity:0.94670847;fill-rule:nonzero;stroke:none;display:inline"
       d="m 9.6,1028.3622 c -0.8832,0 -1.6,0.7168 -1.6,1.6 l 0,10.6666 5.2,2.7 c 0.748743,0.6496 1.731659,1.0334 2.8,1.0334 1.068341,0 2.051257,-0.3838 2.8,-1.0334 l 5.2,-2.7 0,-10.6666 c 0,-0.8832 -0.7168,-1.6 -1.6,-1.6 -0.8832,0 -1.6,0.7168 -1.6,1.6 l 0,2.6666 -0.533334,0 c 0,-2.3552 -1.911466,-4.2666 -4.266666,-4.2666 -2.3552,0 -4.266666,1.9114 -4.266666,4.2666 l -0.533334,0 0,-2.6666 c 0,-0.8832 -0.7168,-1.6 -1.6,-1.6 z m 5.066666,2.6666 c 0.441828,0 0.8,0.597 0.8,1.3334 0,0.7364 -0.358172,1.3334 -0.8,1.3334 -0.441827,0 -0.8,-0.597 -0.8,-1.3334 0,-0.7364 0.358173,-1.3334 0.8,-1.3334 z m 2.666668,0 c 0.441827,0 0.8,0.597 0.8,1.3334 0,0.7364 -0.358173,1.3334 -0.8,1.3334 -0.441828,0 -0.8,-0.597 -0.8,-1.3334 0,-0.7364 0.358172,-1.3334 0.8,-1.3334 z"
       id="path5061"
       inkscape:connector-curvature="0" />
    <path
       style="fill:black;fill-opacity:1;fill-rule:nonzero;stroke:none;display:inline"
       d="m 16,1054.3622 c -2.3552,0 -4.266667,1.9115 -4.266667,4.2667 l 0,1.0666 c 0,1.1776 -0.955733,2.1334 -2.133333,2.1334 l 0,-0.5334 c 0.8832,0 1.6,-0.7168 1.6,-1.6 0,-0.8832 -0.7168,-1.6 -1.6,-1.6 -0.8832,0 -1.6,0.7168 -1.6,1.6 l 0,10.6667 5.2,-1.0333 c 0.748742,0.6495 1.731659,1.0333 2.8,1.0333 1.068341,0 2.051257,-0.3838 2.8,-1.0333 l 5.2,1.0333 0,-10.6667 c 0,-0.8832 -0.7168,-1.6 -1.6,-1.6 -0.8832,0 -1.6,0.7168 -1.6,1.6 0,0.8832 0.7168,1.6 1.6,1.6 l 0,0.5334 c -1.1776,0 -2.133333,-0.9558 -2.133333,-2.1334 l 0,-1.0666 c 0,-2.3552 -1.911467,-4.2667 -4.266667,-4.2667 z m -1.333333,2.6667 c 0.441828,0 0.8,0.597 0.8,1.3333 0,0.7363 -0.358172,1.3333 -0.8,1.3333 -0.441829,0 -0.8,-0.597 -0.8,-1.3333 0,-0.7363 0.358171,-1.3333 0.8,-1.3333 z m 2.666666,0 c 0.441829,0 0.8,0.597 0.8,1.3333 0,0.7363 -0.358171,1.3333 -0.8,1.3333 -0.441828,0 -0.8,-0.597 -0.8,-1.3333 0,-0.7363 0.358172,-1.3333 0.8,-1.3333 z m -4.533333,3.2 c 0,0 2.046224,1.0666 3.2,1.0666 1.153776,0 3.2,-1.0666 3.2,-1.0666 0,0 -1.6,4.2666 -3.2,4.2666 -1.6,0 -3.2,-4.2666 -3.2,-4.2666 z"
       id="path5334"
       inkscape:connector-curvature="0" />
    <path
       inkscape:connector-curvature="0"
       style="fill:red;fill-opacity:1;stroke:none"
       d="m 16,1021.3622 c -8.2842712,0 -15,6.7157 -15,15 0,8.2843 6.7157288,15 15,15 8.284271,0 15,-6.7157 15,-15 0,-8.2843 -6.715729,-15 -15,-15 z m 0,3.5 c 6.351275,0 11.5,5.1487 11.5,11.5 0,2.4475 -0.75915,4.7292 -2.0625,6.5938 L 9.40625,1026.9247 c 1.864529,-1.3034 4.146241,-2.0625 6.59375,-2.0625 z m -9.4375,4.9063 16.03125,16.0312 c -1.864529,1.3033 -4.146241,2.0625 -6.59375,2.0625 -6.3512746,0 -11.5,-5.1487 -11.5,-11.5 0,-2.4475 0.7591495,-4.7292 2.0625,-6.5937 z"
       id="path4040" />
  </g>
</svg>
