<?xml version="1.0" encoding="UTF-8" standalone="no"?>
<!-- Created with Inkscape (http://www.inkscape.org/) -->

<svg
   xmlns:dc="http://purl.org/dc/elements/1.1/"
   xmlns:cc="http://creativecommons.org/ns#"
   xmlns:rdf="http://www.w3.org/1999/02/22-rdf-syntax-ns#"
   xmlns:svg="http://www.w3.org/2000/svg"
   xmlns="http://www.w3.org/2000/svg"
   xmlns:sodipodi="http://sodipodi.sourceforge.net/DTD/sodipodi-0.dtd"
   xmlns:inkscape="http://www.inkscape.org/namespaces/inkscape"
   width="32"
   height="32"
   id="svg4150"
   version="1.1"
   inkscape:version="0.48.5 r10040"
   viewBox="0 0 32 32"
   sodipodi:docname="00.svg">
  <defs
     id="defs4152" />
  <sodipodi:namedview
     id="base"
     pagecolor="#ffffff"
     bordercolor="#666666"
     borderopacity="1.0"
     inkscape:pageopacity="0.0"
     inkscape:pageshadow="2"
     inkscape:zoom="16.375"
     inkscape:cx="16"
     inkscape:cy="16"
     inkscape:current-layer="layer1"
     showgrid="true"
     inkscape:grid-bbox="true"
     inkscape:document-units="px"
     objecttolerance="10000"
     inkscape:snap-perpendicular="true"
     guidetolerance="10000"
     inkscape:window-width="1024"
     inkscape:window-height="741"
     inkscape:window-x="0"
     inkscape:window-y="2"
     inkscape:window-maximized="1"
     showguides="true"
     inkscape:guide-bbox="true">
    <inkscape:grid
       type="xygrid"
       id="grid4698"
       empspacing="4"
       visible="true"
       enabled="true"
       snapvisiblegridlinesonly="true" />
    <sodipodi:guide
       position="16,32"
       orientation="1,0"
       id="guide4769" />
    <sodipodi:guide
       position="-4,16"
       orientation="0,1"
       id="guide4771" />
    <sodipodi:guide
       position="16,16"
       orientation="-0.70710678,0.70710678"
       id="guide4773" />
    <sodipodi:guide
       position="16,16"
       orientation="0.70710678,0.70710678"
       id="guide4775" />
  </sodipodi:namedview>
  <metadata
     id="metadata4155">
    <rdf:RDF>
      <cc:Work
         rdf:about="">
        <dc:format>image/svg+xml</dc:format>
        <dc:type
           rdf:resource="http://purl.org/dc/dcmitype/StillImage" />
        <dc:title></dc:title>
      </cc:Work>
    </rdf:RDF>
  </metadata>
  <g
     id="layer1"
     inkscape:label="Layer 1"
     inkscape:groupmode="layer">
    <g
       id="g4862"
       transform="translate(-22,-10)">
      <path
         d="M 28,16 C 28,22.627417 22.627417,28 16,28 9.372583,28 4,22.627417 4,16 4,9.372583 9.372583,4 16,4 22.627417,4 28,9.372583 28,16 z"
         sodipodi:ry="12"
         sodipodi:rx="12"
         sodipodi:cy="16"
         sodipodi:cx="16"
         id="path4696"
         style="fill:black;fill-opacity:1;stroke:none"
         sodipodi:type="arc"
         transform="matrix(0.50000009,0,0,0.50000009,35.999998,7.9999996)" />
      <g
         transform="matrix(0.35714285,0,0,0.35714285,38.285712,10.285714)"
         id="g4698">
        <path
           d="M 28,16 C 28,22.627417 22.627417,28 16,28 9.372583,28 4,22.627417 4,16 4,9.372583 9.372583,4 16,4 22.627417,4 28,9.372583 28,16 z"
           sodipodi:ry="12"
           sodipodi:rx="12"
           sodipodi:cy="16"
           sodipodi:cx="16"
           id="path4700"
           style="fill:#ffb400;fill-opacity:1;stroke:none"
           sodipodi:type="arc"
           transform="matrix(1.1666667,0,0,1.1666667,-2.6666667,-2.6666667)" />
        <path
           style="fill:#a07100;fill-opacity:1;stroke:none"
           d="M 16,4 C 13.997431,4 11.988242,4.5036877 10.1875,5.5 14.643896,4.2178603 19.64516,5.3326599 23.15625,8.84375 26.66734,12.35484 27.78214,17.356104 26.5,21.8125 29.024221,17.250205 28.371054,11.371054 24.5,7.5 22.156854,5.1568543 19.071068,3.9999999 16,4 z"
           id="path4702"
           inkscape:connector-curvature="0" />
        <path
           id="path4704"
           d="m 16,28 c 2.002569,0 4.011758,-0.503688 5.8125,-1.5 C 17.356104,27.78214 12.35484,26.66734 8.84375,23.15625 5.33266,19.64516 4.21786,14.643896 5.5,10.1875 2.975779,14.749795 3.628946,20.628946 7.5,24.5 9.843146,26.843146 12.928932,28 16,28 z"
           style="fill:#ffda81;fill-opacity:1;stroke:none"
           inkscape:connector-curvature="0"
           inkscape:transform-center-x="3.0944821"
           inkscape:transform-center-y="3.09375" />
        <text
           id="text4706"
           y="22"
           x="17.000437"
           style="font-size:56px;font-style:normal;font-variant:normal;font-weight:normal;font-stretch:normal;text-align:center;text-anchor:middle;fill:#ffda81;fill-opacity:1;stroke:none;font-family:Droid Sans Mono;-inkscape-font-specification:Droid Sans Mono"
           xml:space="preserve"><tspan
             style="font-size:20px;font-style:normal;font-variant:normal;font-weight:bold;font-stretch:normal;fill:#ffda81;fill-opacity:1;font-family:Liberation Serif;-inkscape-font-specification:Liberation Serif Bold"
             y="22"
             x="17.000437"
             id="tspan4708"
             sodipodi:role="line">1</tspan></text>
        <text
           id="text4710"
           y="23"
           x="15.000438"
           style="font-size:56px;font-style:normal;font-variant:normal;font-weight:normal;font-stretch:normal;text-align:center;text-anchor:middle;fill:#a07100;fill-opacity:1;stroke:none;font-family:Droid Sans Mono;-inkscape-font-specification:Droid Sans Mono"
           xml:space="preserve"><tspan
             style="font-size:20px;font-style:normal;font-variant:normal;font-weight:bold;font-stretch:normal;fill:#a07100;fill-opacity:1;font-family:Liberation Serif;-inkscape-font-specification:Liberation Serif Bold"
             y="23"
             x="15.000438"
             id="tspan4712"
             sodipodi:role="line">1</tspan></text>
        <text
           xml:space="preserve"
           style="font-size:56px;font-style:normal;font-variant:normal;font-weight:normal;font-stretch:normal;text-align:center;text-anchor:middle;fill:#ffb400;fill-opacity:1;stroke:none;font-family:Droid Sans Mono;-inkscape-font-specification:Droid Sans Mono"
           x="16"
           y="22"
           id="text4714"><tspan
             sodipodi:role="line"
             id="tspan4716"
             x="16"
             y="22"
             style="font-size:20px;font-style:normal;font-variant:normal;font-weight:bold;font-stretch:normal;fill:#ffb400;fill-opacity:1;font-family:Liberation Serif;-inkscape-font-specification:Liberation Serif Bold">1</tspan></text>
      </g>
    </g>
    <path
       sodipodi:type="inkscape:offset"
       inkscape:radius="0.97047043"
       inkscape:original="M 17.5 6 C 10.976136 6 5.5400746 9.4431687 4.28125 14 L 1 14 L 1 21 L 8.6875 23.5625 C 9.6763184 24.195132 10.791962 24.724526 12 25.125 L 12 30 L 16 30 L 17.34375 26 C 17.39645 26.000449 17.447156 26 17.5 26 C 19.246719 26 20.905307 25.759833 22.4375 25.3125 L 24 30 L 28 30 L 28.96875 21.25 C 30.243676 19.723344 31 17.927045 31 16 C 31 10.477153 24.955844 6 17.5 6 z "
       style="fill:black;fill-opacity:1;stroke:none"
       id="path3899"
       d="m 17.5,5.03125 c -6.516041,0 -12.0151001,3.2877138 -13.78125,8 L 1,13.03125 A 0.97056748,0.97056748 0 0 0 0.03125,14 l 0,7 A 0.97056748,0.97056748 0 0 0 0.6875,21.90625 L 8.15625,24.375 8.375,24.46875 c 0.8100981,0.500168 1.718987,0.892198 2.65625,1.25 l 0,4.28125 A 0.97056748,0.97056748 0 0 0 12,30.96875 l 4,0 a 0.97056748,0.97056748 0 0 0 0.90625,-0.65625 l 1.15625,-3.40625 c 1.295567,-0.03841 2.529607,-0.250718 3.71875,-0.53125 l 1.3125,3.9375 A 0.97056748,0.97056748 0 0 0 24,30.96875 l 4,0 a 0.97056748,0.97056748 0 0 0 0.96875,-0.875 l 0.9375,-8.53125 c 1.256959,-1.611624 2.0625,-3.505323 2.0625,-5.5625 0,-3.115448 -1.711009,-5.893571 -4.34375,-7.84375 -2.632741,-1.9501789 -6.202826,-3.125 -10.125,-3.125 z" />
    <path
       sodipodi:type="arc"
       style="fill:#ff8162;fill-opacity:1;stroke:none"
       id="path3102"
       sodipodi:cx="16"
       sodipodi:cy="16"
       sodipodi:rx="16.18034"
       sodipodi:ry="10"
       d="M 32.18034,16 A 16.18034,10 0 1 1 -0.18033981,16 16.18034,10 0 1 1 32.18034,16 z"
       transform="matrix(0.83434588,0,0,1,4.1504658,0)" />
    <path
       transform="matrix(1.0000312,0,0,1,-0.50068151,3.000112)"
       d="m 27.28125,8.53125 c 0.0075,-0.00138 -0.101191,0.03311 -0.09375,0.03125 0.0074,-0.00186 -0.06981,0.033587 -0.0625,0.03125 0.0073,-0.00234 -0.10089,0.0028 -0.09375,0 0.01019,-0.0038 -0.103551,0.06722 -0.09375,0.0625 0.0098,-0.00472 -0.134328,0.068097 -0.125,0.0625 0.0093,-0.0056 -0.102527,0.068927 -0.09375,0.0625 0.0034,-0.00247 -0.0123,0.015932 -0.03125,0.03125 -0.03033,0.024508 -0.06752,0.035682 -0.0625,0.03125 l 0,0.03125 c -1.385516,1.0495626 -1.903701,3.114793 -0.75,4.625 0.905436,1.185225 2.750087,1.605971 4.03125,0.53125 0.462078,-0.387621 0.754609,-0.935223 0.84375,-1.53125 0.09322,-0.623253 -0.08709,-1.291471 -0.5625,-1.8125 -0.01305,-0.01589 -0.03429,-0.06603 -0.03125,-0.0625 0.0041,0.0047 -0.03555,-0.03574 -0.03125,-0.03125 0.0043,0.0045 -0.06703,-0.06676 -0.0625,-0.0625 0.0045,0.0043 -0.06724,-0.03527 -0.0625,-0.03125 0.0047,0.004 -0.0362,-0.06627 -0.03125,-0.0625 0.0049,0.0038 -0.06764,-0.03475 -0.0625,-0.03125 0.0051,0.0035 -0.06781,-0.03448 -0.0625,-0.03125 0.0053,0.0032 -0.06798,-0.0342 -0.0625,-0.03125 0.0055,0.0029 -0.06812,-0.03391 -0.0625,-0.03125 0.0056,0.0027 -0.06825,-0.03361 -0.0625,-0.03125 0.0058,0.0024 -0.06837,-0.0333 -0.0625,-0.03125 0.0059,0.0021 -0.06847,-0.03299 -0.0625,-0.03125 0.006,0.0017 -0.0998,-0.0014 -0.09375,0 0.0061,0.0014 -0.06862,-0.03236 -0.0625,-0.03125 0.0061,0.0011 -0.06867,-7.87e-4 -0.0625,0 0.0062,7.87e-4 -0.0687,-4.63e-4 -0.0625,0 0.0062,4.63e-4 -0.09997,-0.03139 -0.09375,-0.03125 0.0062,1.38e-4 -0.06872,1.87e-4 -0.0625,0 0.0062,-1.87e-4 -0.0687,0.03176 -0.0625,0.03125 0.0062,-5.12e-4 -0.06866,8.36e-4 -0.0625,0 0.0062,-8.36e-4 -0.09986,0.0012 -0.09375,0 0.0037,-6.94e-4 -0.0097,0.02659 -0.03125,0.03125 0.0077,-0.02844 0.001,-0.06715 0,-0.0625 -0.0022,0.0099 0.0014,-0.103781 0,-0.09375 -0.0014,0.01003 0.03175,-0.13511 0.03125,-0.125 -5.01e-4,0.01011 -3.61e-4,-0.135116 0,-0.125 3.61e-4,0.010116 -0.03247,-0.1037985 -0.03125,-0.09375 0.0012,0.010048 -0.0021,-0.134908 0,-0.125 0.0021,0.00991 -0.03416,-0.1346956 -0.03125,-0.125 0.0029,0.0097 -0.03497,-0.1031627 -0.03125,-0.09375 0.0037,0.00941 -0.06701,-0.1028115 -0.0625,-0.09375 0.0045,0.00906 -0.06777,-0.1336445 -0.0625,-0.125 0.0053,0.00864 -0.06848,-0.1019146 -0.0625,-0.09375 0.006,0.00816 -0.06916,-0.1013755 -0.0625,-0.09375 0.0067,0.00763 -0.101032,-0.069531 -0.09375,-0.0625 0.0073,0.00703 -0.07035,-0.1001355 -0.0625,-0.09375 0.0079,0.00639 -0.102119,-0.068194 -0.09375,-0.0625 0.0084,0.00569 -0.102574,-0.06746 -0.09375,-0.0625 0.0088,0.00496 -0.134214,-0.066691 -0.125,-0.0625 0.0092,0.00419 -0.103287,-0.034641 -0.09375,-0.03125 0.0095,0.00339 -0.134792,-0.033817 -0.125,-0.03125 0.0098,0.00257 -0.103725,-0.032974 -0.09375,-0.03125 0.01,0.00172 -0.135085,-8.684e-4 -0.125,0 0.01009,8.684e-4 -0.135122,-6.6e-6 -0.125,0 0.01012,6.6e-6 -0.103836,8.553e-4 -0.09375,0 a 0.85636756,0.85636756 0 0 0 -0.03125,0 c 0.0076,-8.861e-4 -0.101296,0.00138 -0.09375,0 z"
       id="path3959"
       style="font-size:medium;font-style:normal;font-variant:normal;font-weight:normal;font-stretch:normal;text-indent:0;text-align:start;text-decoration:none;line-height:normal;letter-spacing:normal;word-spacing:normal;text-transform:none;direction:ltr;block-progression:tb;writing-mode:lr-tb;text-anchor:start;baseline-shift:baseline;color:black;fill:#e02c00;fill-opacity:1;stroke:none;stroke-width:1;marker:none;visibility:visible;display:inline;overflow:visible;enable-background:accumulate;font-family:Sans;-inkscape-font-specification:Sans"
       inkscape:original="M 27.46875 9.375 A 0.50005 0.50005 0 0 0 27.34375 9.40625 A 0.50005 0.50005 0 0 0 27.1875 9.5 C 26.111925 10.270266 25.7018 11.842084 26.5625 12.96875 C 27.197673 13.800198 28.463681 14.113258 29.34375 13.375 C 29.650089 13.118023 29.847714 12.766393 29.90625 12.375 C 29.96479 11.983607 29.85061 11.546909 29.53125 11.21875 A 0.50005 0.50005 0 1 0 28.8125 11.90625 C 28.89932 11.99546 28.926946 12.080367 28.90625 12.21875 C 28.88555 12.357133 28.795964 12.534013 28.6875 12.625 C 28.295499 12.953835 27.663357 12.793369 27.34375 12.375 C 26.859124 11.740619 27.100094 10.777925 27.75 10.3125 A 0.50005 0.50005 0 0 0 27.46875 9.375 z "
       inkscape:radius="0.85628194"
       sodipodi:type="inkscape:offset" />
    <path
       transform="matrix(1.3299492,0,0,1.3299492,-5.9593903,-0.649746)"
       sodipodi:end="1.5707963"
       sodipodi:start="0"
       d="M 18.015267,5 A 6.0152674,6.0152674 0 0 1 12,11.015267 L 12,5 z"
       sodipodi:ry="6.0152674"
       sodipodi:rx="6.0152674"
       sodipodi:cy="5"
       sodipodi:cx="12"
       id="path3886"
       style="fill:#ff8162;fill-opacity:1;stroke:black;stroke-opacity:1;stroke-width:1.50381684;stroke-miterlimit:4;stroke-dasharray:none"
       sodipodi:type="arc" />
    <path
       style="fill:#ff8162;fill-opacity:1;stroke:none"
       d="m 1,14 4,0 5,6 0,4 -9,-3 z"
       id="path3872"
       inkscape:connector-curvature="0"
       sodipodi:nodetypes="cccccc" />
    <path
       sodipodi:type="arc"
       style="fill:black;fill-opacity:1;stroke:none"
       id="path3876"
       sodipodi:cx="8.5"
       sodipodi:cy="12.5"
       sodipodi:rx="1.5"
       sodipodi:ry="1.5"
       d="m 10,12.5 a 1.5,1.5 0 1 1 -3,0 1.5,1.5 0 1 1 3,0 z"
       transform="translate(-1,0)" />
    <path
       sodipodi:type="arc"
       style="fill:white;fill-opacity:1;stroke:none"
       id="path3878"
       sodipodi:cx="9.5"
       sodipodi:cy="12.5"
       sodipodi:rx="0.5"
       sodipodi:ry="0.5"
       d="m 10,12.5 a 0.5,0.5 0 1 1 -1,0 0.5,0.5 0 1 1 1,0 z"
       transform="translate(-1,-0.5)" />
    <path
       style="fill:#e02c00;fill-opacity:1;stroke:none"
       d="m 18,24 -2,6 -4,0 0,-6 z"
       id="path3880"
       inkscape:connector-curvature="0"
       sodipodi:nodetypes="ccccc" />
    <path
       inkscape:connector-curvature="0"
       id="path3882"
       d="m 22,24 2,6 4,0 1,-9 z"
       style="fill:#e02c00;fill-opacity:1;stroke:none"
       sodipodi:nodetypes="ccccc" />
    <path
       sodipodi:type="arc"
       style="fill:#ff8162;fill-opacity:1;stroke:none"
       id="path3884"
       sodipodi:cx="12"
       sodipodi:cy="5"
       sodipodi:rx="6.0152674"
       sodipodi:ry="6.0152674"
       d="M 18.015267,5 A 6.0152674,6.0152674 0 0 1 12,11.015267 L 12,5 z"
       sodipodi:start="0"
       sodipodi:end="1.5707963"
       transform="matrix(1.3299492,0,0,1.3299492,-5.9593903,-0.649746)" />
    <path
       sodipodi:type="inkscape:offset"
       inkscape:radius="0.85628194"
       inkscape:original="M 27.46875 9.375 A 0.50005 0.50005 0 0 0 27.34375 9.40625 A 0.50005 0.50005 0 0 0 27.1875 9.5 C 26.111925 10.270266 25.7018 11.842084 26.5625 12.96875 C 27.197673 13.800198 28.463681 14.113258 29.34375 13.375 C 29.650089 13.118023 29.847714 12.766393 29.90625 12.375 C 29.96479 11.983607 29.85061 11.546909 29.53125 11.21875 A 0.50005 0.50005 0 1 0 28.8125 11.90625 C 28.89932 11.99546 28.926946 12.080367 28.90625 12.21875 C 28.88555 12.357133 28.795964 12.534013 28.6875 12.625 C 28.295499 12.953835 27.663357 12.793369 27.34375 12.375 C 26.859124 11.740619 27.100094 10.777925 27.75 10.3125 A 0.50005 0.50005 0 0 0 27.46875 9.375 z "
       style="font-size:medium;font-style:normal;font-variant:normal;font-weight:normal;font-stretch:normal;text-indent:0;text-align:start;text-decoration:none;line-height:normal;letter-spacing:normal;word-spacing:normal;text-transform:none;direction:ltr;block-progression:tb;writing-mode:lr-tb;text-anchor:start;baseline-shift:baseline;color:black;fill:black;fill-opacity:1;stroke:none;stroke-width:1;marker:none;visibility:visible;display:inline;overflow:visible;enable-background:accumulate;font-family:Sans;-inkscape-font-specification:Sans"
       id="path3909"
       d="m 27.28125,8.53125 c 0.0075,-0.00138 -0.101191,0.03311 -0.09375,0.03125 0.0074,-0.00186 -0.06981,0.033587 -0.0625,0.03125 0.0073,-0.00234 -0.10089,0.0028 -0.09375,0 0.01019,-0.0038 -0.103551,0.06722 -0.09375,0.0625 0.0098,-0.00472 -0.134328,0.068097 -0.125,0.0625 0.0093,-0.0056 -0.102527,0.068927 -0.09375,0.0625 0.0034,-0.00247 -0.0123,0.015932 -0.03125,0.03125 -0.03033,0.024508 -0.06752,0.035682 -0.0625,0.03125 l 0,0.03125 c -1.385516,1.0495626 -1.903701,3.114793 -0.75,4.625 0.905436,1.185225 2.750087,1.605971 4.03125,0.53125 0.462078,-0.387621 0.754609,-0.935223 0.84375,-1.53125 0.09322,-0.623253 -0.08709,-1.291471 -0.5625,-1.8125 -0.01305,-0.01589 -0.03429,-0.06603 -0.03125,-0.0625 0.0041,0.0047 -0.03555,-0.03574 -0.03125,-0.03125 0.0043,0.0045 -0.06703,-0.06676 -0.0625,-0.0625 0.0045,0.0043 -0.06724,-0.03527 -0.0625,-0.03125 0.0047,0.004 -0.0362,-0.06627 -0.03125,-0.0625 0.0049,0.0038 -0.06764,-0.03475 -0.0625,-0.03125 0.0051,0.0035 -0.06781,-0.03448 -0.0625,-0.03125 0.0053,0.0032 -0.06798,-0.0342 -0.0625,-0.03125 0.0055,0.0029 -0.06812,-0.03391 -0.0625,-0.03125 0.0056,0.0027 -0.06825,-0.03361 -0.0625,-0.03125 0.0058,0.0024 -0.06837,-0.0333 -0.0625,-0.03125 0.0059,0.0021 -0.06847,-0.03299 -0.0625,-0.03125 0.006,0.0017 -0.0998,-0.0014 -0.09375,0 0.0061,0.0014 -0.06862,-0.03236 -0.0625,-0.03125 0.0061,0.0011 -0.06867,-7.87e-4 -0.0625,0 0.0062,7.87e-4 -0.0687,-4.63e-4 -0.0625,0 0.0062,4.63e-4 -0.09997,-0.03139 -0.09375,-0.03125 0.0062,1.38e-4 -0.06872,1.87e-4 -0.0625,0 0.0062,-1.87e-4 -0.0687,0.03176 -0.0625,0.03125 0.0062,-5.12e-4 -0.06866,8.36e-4 -0.0625,0 0.0062,-8.36e-4 -0.09986,0.0012 -0.09375,0 0.0037,-6.94e-4 -0.0097,0.02659 -0.03125,0.03125 0.0077,-0.02844 0.001,-0.06715 0,-0.0625 -0.0022,0.0099 0.0014,-0.103781 0,-0.09375 -0.0014,0.01003 0.03175,-0.13511 0.03125,-0.125 -5.01e-4,0.01011 -3.61e-4,-0.135116 0,-0.125 3.61e-4,0.010116 -0.03247,-0.1037985 -0.03125,-0.09375 0.0012,0.010048 -0.0021,-0.134908 0,-0.125 0.0021,0.00991 -0.03416,-0.1346956 -0.03125,-0.125 0.0029,0.0097 -0.03497,-0.1031627 -0.03125,-0.09375 0.0037,0.00941 -0.06701,-0.1028115 -0.0625,-0.09375 0.0045,0.00906 -0.06777,-0.1336445 -0.0625,-0.125 0.0053,0.00864 -0.06848,-0.1019146 -0.0625,-0.09375 0.006,0.00816 -0.06916,-0.1013755 -0.0625,-0.09375 0.0067,0.00763 -0.101032,-0.069531 -0.09375,-0.0625 0.0073,0.00703 -0.07035,-0.1001355 -0.0625,-0.09375 0.0079,0.00639 -0.102119,-0.068194 -0.09375,-0.0625 0.0084,0.00569 -0.102574,-0.06746 -0.09375,-0.0625 0.0088,0.00496 -0.134214,-0.066691 -0.125,-0.0625 0.0092,0.00419 -0.103287,-0.034641 -0.09375,-0.03125 0.0095,0.00339 -0.134792,-0.033817 -0.125,-0.03125 0.0098,0.00257 -0.103725,-0.032974 -0.09375,-0.03125 0.01,0.00172 -0.135085,-8.684e-4 -0.125,0 0.01009,8.684e-4 -0.135122,-6.6e-6 -0.125,0 0.01012,6.6e-6 -0.103836,8.553e-4 -0.09375,0 a 0.85636756,0.85636756 0 0 0 -0.03125,0 c 0.0076,-8.861e-4 -0.101296,0.00138 -0.09375,0 z"
       transform="translate(0,2)" />
    <path
       style="font-size:medium;font-style:normal;font-variant:normal;font-weight:normal;font-stretch:normal;text-indent:0;text-align:start;text-decoration:none;line-height:normal;letter-spacing:normal;word-spacing:normal;text-transform:none;direction:ltr;block-progression:tb;writing-mode:lr-tb;text-anchor:start;baseline-shift:baseline;color:black;fill:#ff8162;fill-opacity:1;stroke:none;stroke-width:1;marker:none;visibility:visible;display:inline;overflow:visible;enable-background:accumulate;font-family:Sans;-inkscape-font-specification:Sans"
       d="m 27.330669,11.411338 a 0.50005,0.50005 0 0 0 -0.15625,0.09375 c -1.075575,0.770266 -1.4857,2.342084 -0.625,3.46875 0.635173,0.831448 1.901181,1.144508 2.78125,0.40625 0.306339,-0.256977 0.503964,-0.608607 0.5625,-1 0.05854,-0.391393 -0.05564,-0.828091 -0.375,-1.15625 a 0.50005,0.50005 0 1 0 -0.71875,0.6875 c 0.08682,0.08921 0.114446,0.174117 0.09375,0.3125 -0.0207,0.138383 -0.110286,0.315263 -0.21875,0.40625 -0.392001,0.328835 -1.024143,0.168369 -1.34375,-0.25 -0.484626,-0.634381 -0.243656,-1.597075 0.40625,-2.0625 a 0.50005,0.50005 0 0 0 -0.40625,-0.90625 z"
       id="path3901"
       inkscape:connector-curvature="0" />
    <path
       sodipodi:nodetypes="cccc"
       style="fill:#ff8162;fill-opacity:1;stroke:none"
       d="m 29,21 -4,9 3,0 z"
       id="path3955"
       inkscape:connector-curvature="0" />
    <path
       sodipodi:nodetypes="cccc"
       inkscape:connector-curvature="0"
       id="path3957"
       d="m 18,24 -2,6 -1,0 z"
       style="fill:#ff8162;fill-opacity:1;stroke:none" />
    <path
       style="fill:#e02c00;fill-opacity:1;stroke:none"
       d="m 6.3381078,21.627402 c 0.8110416,0.87939 1.8066015,1.658364 2.9452175,2.306157 C 11.560557,25.229143 14.410014,26 17.5,26 c 6.179971,0 11.397828,-3.083427 13,-7.28125 -1.185623,1.565376 -3.011568,2.885688 -5.253136,3.814657 C 23.005297,23.462375 20.348108,24 17.5,24 14.651892,24 11.994703,23.462375 9.7531358,22.533407 z"
       id="path3930"
       inkscape:connector-curvature="0"
       sodipodi:nodetypes="csscsscc" />
    <path
       sodipodi:nodetypes="ccccc"
       inkscape:connector-curvature="0"
       id="path3935"
       d="m 1,19 10,4 -1,1 -9,-3 z"
       style="fill:#e02c00;fill-opacity:1;stroke:none" />
  </g>
</svg>
