<?xml version="1.0" encoding="UTF-8" standalone="no"?>
<!-- Created with Inkscape (http://www.inkscape.org/) -->

<svg xmlns:dc="http://purl.org/dc/elements/1.1/" xmlns:cc="http://creativecommons.org/ns#" xmlns:rdf="http://www.w3.org/1999/02/22-rdf-syntax-ns#" xmlns:svg="http://www.w3.org/2000/svg" xmlns="http://www.w3.org/2000/svg" xmlns:xlink="http://www.w3.org/1999/xlink" xmlns:sodipodi="http://sodipodi.sourceforge.net/DTD/sodipodi-0.dtd" xmlns:inkscape="http://www.inkscape.org/namespaces/inkscape" width="4" height="4" id="svg2" sodipodi:version="0.32" inkscape:version="0.91 r13725" version="1.0" sodipodi:docname="mini.svg" inkscape:output_extension="org.inkscape.output.svg.inkscape" viewBox="0 0 4 4">
  <defs id="defs4">
    <inkscape:perspective sodipodi:type="inkscape:persp3d" inkscape:vp_x="0 : 526.18109 : 1" inkscape:vp_y="0 : 1000 : 0" inkscape:vp_z="744.09448 : 526.18109 : 1" inkscape:persp3d-origin="372.04724 : 350.78739 : 1" id="perspective10" />
  </defs>
  <sodipodi:namedview id="base" pagecolor="#ffffff" bordercolor="#666666" borderopacity="1.0" inkscape:pageopacity="0.0" inkscape:pageshadow="2" inkscape:zoom="177" inkscape:cx="2" inkscape:cy="2" inkscape:document-units="px" inkscape:current-layer="layer1" showgrid="true" objecttolerance="10000" gridtolerance="10000" guidetolerance="10000" inkscape:window-width="1600" inkscape:window-height="878" inkscape:window-x="0" inkscape:window-y="0" inkscape:snap-perpendicular="true" inkscape:snap-tangential="true" showguides="true" inkscape:guide-bbox="true" inkscape:window-maximized="1">
    <inkscape:grid type="xygrid" id="grid2383" units="px" visible="true" enabled="true" empspacing="4" spacingx="1" spacingy="1" />
    <sodipodi:guide position="2,8" orientation="1,0" id="guide5299" />
    <sodipodi:guide position="-1,2" orientation="0,1" id="guide5301" />
    <sodipodi:guide position="12,12" orientation="-0.70710678,0.70710678" id="guide5303" />
    <sodipodi:guide position="0,4" orientation="0.70710678,0.70710678" id="guide5305" />
  </sodipodi:namedview>
  <metadata id="metadata7">
    <rdf:RDF>
      <cc:Work rdf:about="">
        <dc:format>image/svg+xml</dc:format>
        <dc:type rdf:resource="http://purl.org/dc/dcmitype/StillImage" />
        <dc:title></dc:title>
      </cc:Work>
    </rdf:RDF>
  </metadata>
  <g inkscape:label="Ebene 1" inkscape:groupmode="layer" id="layer1" transform="translate(0,-12)">
    <g transform="matrix(-0.11906601,-0.44434358,0.44436596,-0.119063,20.041867,18.299456)" id="g7423">
      <path style="opacity:1;fill:red;fill-opacity:1;fill-rule:nonzero;stroke:none;stroke-width:1;stroke-linecap:round;stroke-linejoin:round;stroke-miterlimit:4;stroke-dasharray:none;stroke-dashoffset:0;stroke-opacity:1" d="m 17.561149,-33.001163 a 2.6447,2.676076 60.02631 0 0 1.343485,-2.302564 2.6447001,2.676076 60.026375 0 0 -2.665846,0.01219 2.6447001,2.676076 60.026375 0 0 -1.342351,2.301911 2.6447,2.676076 60.02631 0 0 2.664713,-0.01159 z" id="path5827" inkscape:connector-curvature="0" inkscape:transform-center-x="-7.0000662" inkscape:transform-center-y="-0.00167726" />
      <use x="0" y="0" xlink:href="#path5827" inkscape:transform-center-x="-2.1615467" inkscape:transform-center-y="-6.6579777" id="use5839" transform="matrix(0.309017,-0.95104461,0.95106842,0.30901698,46.639331,-6.4157125)" width="100%" height="100%" />
      <use x="0" y="0" xlink:href="#path5827" inkscape:transform-center-x="5.6641514" inkscape:transform-center-y="-4.1131795" id="use5841" width="100%" height="100%" transform="matrix(-0.80901699,-0.5877779,0.58779261,-0.809017,54.949896,-52.754361)" />
      <use x="0" y="0" xlink:href="#path5827" inkscape:transform-center-x="5.6621852" inkscape:transform-center-y="4.1158636" id="use5843" transform="matrix(-0.809017,0.5877779,-0.58779261,-0.80901699,13.446776,-74.977509)" width="100%" height="100%" />
      <use x="0" y="0" xlink:href="#path5827" inkscape:transform-center-x="-2.1646848" inkscape:transform-center-y="6.6569384" id="use5845" transform="matrix(0.30901698,0.95104461,-0.95106842,0.309017,-20.514127,-42.37352)" width="100%" height="100%" />
      <path style="opacity:1;fill:yellow;fill-opacity:1;fill-rule:nonzero;stroke:none;stroke-width:1;stroke-linecap:round;stroke-linejoin:round;stroke-miterlimit:4;stroke-dasharray:none;stroke-dashoffset:0;stroke-opacity:1" d="m 18.803253,-34.263249 a 0.33058637,0.33059051 0 0 0 -0.07213,-0.37137 l 0.173515,-0.669108 -0.381147,0.576665 a 0.33058637,0.33059051 0 0 0 -0.324253,0.19489 0.33058637,0.33059051 0 0 0 0.167546,0.436467 0.33058637,0.33059051 0 0 0 0.436473,-0.167544 z" id="path5851" inkscape:connector-curvature="0" inkscape:transform-center-x="-1.7135106" inkscape:transform-center-y="-1.3816883" />
      <use x="0" y="0" xlink:href="#path5851" inkscape:transform-center-x="0.92729928" inkscape:transform-center-y="-1.9265741" id="use5854" transform="matrix(0.309017,-0.95104461,0.95106842,0.30901698,46.63904,-6.4151261)" width="100%" height="100%" />
      <use x="0" y="0" xlink:href="#path5851" inkscape:transform-center-x="1.9999941" inkscape:transform-center-y="1.040949e-05" id="use5856" transform="matrix(-0.80901699,-0.5877779,0.58779261,-0.809017,54.950073,-52.753317)" width="100%" height="100%" />
      <use x="0" y="0" xlink:href="#path5851" inkscape:transform-center-x="0.92728264" inkscape:transform-center-y="1.9265867" id="use5858" transform="matrix(-0.809017,0.5877779,-0.58779261,-0.80901699,13.447533,-74.976768)" width="100%" height="100%" />
      <use x="0" y="0" xlink:href="#path5851" inkscape:transform-center-x="-1.7135323" inkscape:transform-center-y="1.3816596" id="use5860" transform="matrix(0.30901698,0.95104461,-0.95106842,0.309017,-20.513479,-42.373425)" width="100%" height="100%" />
      <path sodipodi:type="star" style="opacity:1;fill:#fc0;fill-opacity:1;fill-rule:nonzero;stroke:none;stroke-width:1;stroke-linecap:round;stroke-linejoin:round;stroke-miterlimit:4;stroke-dasharray:none;stroke-dashoffset:0;stroke-opacity:1" id="path5862" sodipodi:sides="5" sodipodi:cx="16" sodipodi:cy="16" sodipodi:r1="1.5" sodipodi:r2="0.44999999" sodipodi:arg1="1.5707963" sodipodi:arg2="2.1991149" inkscape:flatsided="false" inkscape:rounded="0.2" inkscape:randomized="0" d="m 16,17.5 c -0.233266,0 -0.07579,-0.998832 -0.264503,-1.135942 -0.188717,-0.137111 -1.089999,0.321317 -1.162082,0.09947 -0.07208,-0.22185 0.926526,-0.380734 0.99861,-0.602584 0.07208,-0.221849 -0.642419,-0.937357 -0.453703,-1.074467 C 15.307038,14.649364 15.766734,15.55 16,15.55 c 0.233266,0 0.692962,-0.900636 0.881678,-0.763526 0.188716,0.137111 -0.525786,0.852619 -0.453703,1.074468 0.07208,0.22185 1.070693,0.380734 0.99861,0.602583 -0.07208,0.22185 -0.973365,-0.236578 -1.162082,-0.09947 C 16.075787,16.501168 16.233266,17.5 16,17.5 Z" transform="matrix(0.32336631,-0.06873277,0.06873363,0.32336227,12.631557,-39.377557)" inkscape:transform-center-y="-0.00079117827" inkscape:transform-center-x="-0.1357468" />
    </g>
  </g>
</svg>
