<?xml version="1.0" encoding="UTF-8" standalone="no"?>
<svg xmlns:dc="http://purl.org/dc/elements/1.1/" xmlns:cc="http://creativecommons.org/ns#" xmlns:rdf="http://www.w3.org/1999/02/22-rdf-syntax-ns#" xmlns:svg="http://www.w3.org/2000/svg" xmlns="http://www.w3.org/2000/svg" xmlns:sodipodi="http://sodipodi.sourceforge.net/DTD/sodipodi-0.dtd" xmlns:inkscape="http://www.inkscape.org/namespaces/inkscape" width="32" height="32" id="svg3505" version="1.1" viewBox="0 0 32 32" inkscape:version="0.91 r13725" sodipodi:docname="00.svg">
  <sodipodi:namedview pagecolor="#ffffff" bordercolor="#666666" borderopacity="1" objecttolerance="10" gridtolerance="10000" guidetolerance="10000" inkscape:pageopacity="0" inkscape:pageshadow="2" inkscape:window-width="1600" inkscape:window-height="878" id="namedview4249" showgrid="true" inkscape:zoom="22.125" inkscape:cx="16" inkscape:cy="16" inkscape:window-x="0" inkscape:window-y="0" inkscape:window-maximized="1" inkscape:current-layer="g9192" inkscape:snap-perpendicular="true" inkscape:snap-tangential="true">
    <inkscape:grid type="xygrid" id="grid4791" empspacing="4" />
  </sodipodi:namedview>
  <defs id="defs3507" />
  <metadata id="metadata3510">
    <rdf:RDF>
      <cc:Work rdf:about="">
        <dc:format>image/svg+xml</dc:format>
        <dc:type rdf:resource="http://purl.org/dc/dcmitype/StillImage" />
        <dc:title></dc:title>
        <dc:date>2015-09-03</dc:date>
        <dc:creator>
          <cc:Agent>
            <dc:title>Andreas Neudecker &lt;zapyon@gmx.net&gt;</dc:title>
          </cc:Agent>
        </dc:creator>
        <dc:rights>
          <cc:Agent>
            <dc:title>Copyright (C) 2010-2015 by Andreas Neudecker</dc:title>
          </cc:Agent>
        </dc:rights>
        <dc:publisher>
          <cc:Agent>
            <dc:title>Andreas Neudecker</dc:title>
          </cc:Agent>
        </dc:publisher>
        <dc:identifier>__empty__</dc:identifier>
        <dc:description>Template for McMinos SVG icons at a base size of 32x32 pixels.</dc:description>
      </cc:Work>
    </rdf:RDF>
  </metadata>
  <g id="layer1">
    <g id="g4881">
      <g id="g8280">
        <g id="g8678">
          <g id="g8738">
            <g id="g9210">
              <g id="g9668">
                <g id="g5678">
                  <rect style="opacity:1;fill:none;fill-opacity:1;fill-rule:nonzero;stroke:none;stroke-width:2;stroke-linecap:butt;stroke-linejoin:round;stroke-miterlimit:4;stroke-dasharray:none;stroke-dashoffset:0;stroke-opacity:1" id="rect4879" width="32" height="32" x="0" y="0" />
                  <g id="g9192" transform="translate(0,2)">
                    <path id="ellipse5618" d="m 13.998047,15 c -0.882277,0.0014 -1.60005,0.482449 -2.158203,1.123047 -0.01947,-0.0056 -0.03901,-0.01235 -0.05859,-0.01758 l -0.002,0 c -0.02725,-0.0072 -0.05459,-0.01308 -0.08203,-0.01953 l 0.01563,0.002 c -0.08513,-0.02134 -0.171145,-0.03894 -0.257813,-0.05273 l -0.002,0 -0.002,0 c -0.02729,-0.0043 -0.05463,-0.0082 -0.08203,-0.01172 l -0.0039,0 -0.05859,-0.0078 -0.0625,0 -0.0039,0 C 11.161847,16.008992 11.082712,16.000373 11.003906,16 l -0.002,0 L 11,16 c -1.6450096,0 -3,1.35499 -3,3 0,0.351851 0.073942,0.685106 0.1875,1 l 16.625,0 C 24.926058,19.685106 25,19.351851 25,19 l 0,-0.002 c -9.58e-4,-0.832224 -0.3493,-1.626896 -0.958984,-2.193359 l 0,-0.002 -0.01758,-0.01563 c -0.06943,-0.06292 -0.141781,-0.123535 -0.216797,-0.179687 l -0.002,-0.002 -0.0059,-0.0039 c -0.07379,-0.05579 -0.149887,-0.107513 -0.228516,-0.15625 l -0.02148,-0.01367 -0.03711,-0.02148 0.0293,0.01953 c -0.07713,-0.04651 -0.155333,-0.08952 -0.236328,-0.128907 l -0.0332,-0.01758 -0.03906,-0.01367 -0.01367,-0.0059 c -0.04452,-0.01993 -0.08932,-0.04085 -0.134766,-0.05859 -0.03683,-0.0144 -0.07395,-0.02808 -0.111328,-0.04102 l -0.0039,-0.002 -0.002,0 c -0.06091,-0.02053 -0.123444,-0.04007 -0.185547,-0.05664 l -0.002,0 c -0.02725,-0.0072 -0.05459,-0.01308 -0.08203,-0.01953 l 0.01563,0.002 c -0.08512,-0.02134 -0.171145,-0.03894 -0.257813,-0.05273 l -0.002,0 -0.002,0 c -0.02729,-0.0043 -0.05464,-0.0082 -0.08203,-0.01172 l -0.0039,0 -0.05859,-0.0078 -0.0625,0 -0.0039,0 C 22.161967,16.009212 22.082712,16.000373 22.003906,16 l -0.002,0 -0.0039,0 c -0.245724,3.64e-4 -0.453566,0.151798 -0.689453,0.210938 -0.099,-0.128507 -0.144404,-0.292802 -0.263672,-0.404297 l -0.0039,-0.0039 -0.01758,-0.01563 c -0.06943,-0.06292 -0.141781,-0.123535 -0.216797,-0.179687 l -0.002,-0.002 -0.0059,-0.0039 c -0.07379,-0.05579 -0.149887,-0.107514 -0.228516,-0.15625 l -0.02148,-0.01367 -0.03711,-0.02149 0.0293,0.01953 c -0.07713,-0.04651 -0.155333,-0.08952 -0.236328,-0.128907 l -0.0332,-0.01758 -0.03906,-0.01367 -0.01367,-0.0059 c -0.04452,-0.01993 -0.08932,-0.04085 -0.134766,-0.05859 -0.03683,-0.0144 -0.07395,-0.02808 -0.111328,-0.04102 l -0.0039,-0.002 -0.002,0 c -0.06091,-0.02053 -0.123444,-0.04007 -0.185547,-0.05664 l -0.002,0 c -0.02725,-0.0072 -0.05459,-0.01308 -0.08203,-0.01953 l 0.01563,0.002 c -0.08512,-0.02134 -0.171145,-0.03894 -0.257813,-0.05274 l -0.002,0 -0.002,0 c -0.02729,-0.0043 -0.05464,-0.0082 -0.08203,-0.01172 l -0.0039,0 -0.05859,-0.0078 -0.0625,0 -0.0039,0 C 19.162002,15.009132 19.082712,15.000373 19.003906,15 l -0.002,0 L 19,15 c -0.846515,-4.5e-5 -1.57553,0.433295 -2.136719,1.041016 -0.196831,0.0097 -0.364888,0.122337 -0.554687,0.169922 -0.099,-0.128507 -0.144404,-0.292802 -0.263672,-0.404297 l -0.0039,-0.0039 -0.01758,-0.01563 c -0.06943,-0.06292 -0.141781,-0.123535 -0.216797,-0.179687 l -0.002,-0.002 -0.0059,-0.0039 c -0.07379,-0.05579 -0.149886,-0.107514 -0.228516,-0.15625 l -0.02148,-0.01367 -0.03711,-0.02149 0.0293,0.01953 c -0.07713,-0.04651 -0.155332,-0.08952 -0.236328,-0.128907 l -0.0332,-0.01758 -0.03906,-0.01367 -0.01367,-0.0059 c -0.04452,-0.01993 -0.08932,-0.04085 -0.134766,-0.05859 -0.03683,-0.0144 -0.07395,-0.02808 -0.111328,-0.04102 l -0.0039,-0.002 -0.002,0 c -0.06091,-0.02053 -0.123444,-0.04007 -0.185547,-0.05664 l -0.002,0 c -0.02725,-0.0072 -0.05459,-0.01308 -0.08203,-0.01953 l 0.01563,0.002 c -0.08513,-0.02134 -0.171145,-0.03894 -0.257813,-0.05274 l -0.002,0 -0.002,0 c -0.02729,-0.0043 -0.05463,-0.0082 -0.08203,-0.01172 l -0.0039,0 -0.05859,-0.0078 -0.0625,0 -0.0039,0 C 14.161961,15.009132 14.082712,15.000373 14.003906,15 l -0.002,0 -0.0039,0 z" style="color:black;font-style:normal;font-variant:normal;font-weight:normal;font-stretch:normal;font-size:medium;line-height:normal;font-family:sans-serif;text-indent:0;text-align:start;text-decoration:none;text-decoration-line:none;text-decoration-style:solid;text-decoration-color:black;letter-spacing:normal;word-spacing:normal;text-transform:none;direction:ltr;block-progression:tb;writing-mode:lr-tb;baseline-shift:baseline;text-anchor:start;white-space:normal;clip-rule:nonzero;display:inline;overflow:visible;visibility:visible;opacity:1;isolation:auto;mix-blend-mode:normal;color-interpolation:sRGB;color-interpolation-filters:linearRGB;solid-color:black;solid-opacity:1;fill:black;fill-opacity:0.50196081;fill-rule:nonzero;stroke:none;stroke-width:2;stroke-linecap:butt;stroke-linejoin:miter;stroke-miterlimit:4;stroke-dasharray:none;stroke-dashoffset:0;stroke-opacity:1;color-rendering:auto;image-rendering:auto;shape-rendering:auto;text-rendering:auto;enable-background:accumulate" inkscape:connector-curvature="0" />
                    <path sodipodi:nodetypes="ccscccccccccccccsccccc" id="path4793" d="m 15.869141,12.690706 c -0.333416,0.01023 -0.632331,0.05106 -0.931641,0.152344 -0.149655,0.05064 -0.300574,0.110189 -0.482422,0.251953 C 14.273231,13.236768 14.001463,13.540454 14,13.991488 l 0,0.002 0,0.0039 0,3.934294 0,0.0039 c 1.17e-4,0.02277 0.0064,0.04227 0.0078,0.06445 l 3.984376,0 c 0.0015,-0.02218 0.0077,-0.04168 0.0078,-0.06445 l 0,-0.0039 0,-3.934294 0,-0.01172 0,-0.0098 C 17.9906,13.494879 17.691389,13.19937 17.501953,13.063753 17.312518,12.928167 17.154105,12.871663 16.996094,12.823519 16.680071,12.72723 16.357486,12.690704 16,12.690706 c -0.03821,-4.44e-4 -0.07703,-5.83e-4 -0.115234,0 l -0.0078,0 -0.0078,0 z" style="color:black;font-style:normal;font-variant:normal;font-weight:normal;font-stretch:normal;font-size:medium;line-height:normal;font-family:sans-serif;text-indent:0;text-align:start;text-decoration:none;text-decoration-line:none;text-decoration-style:solid;text-decoration-color:black;letter-spacing:normal;word-spacing:normal;text-transform:none;direction:ltr;block-progression:tb;writing-mode:lr-tb;baseline-shift:baseline;text-anchor:start;white-space:normal;clip-rule:nonzero;display:inline;overflow:visible;visibility:visible;opacity:1;isolation:auto;mix-blend-mode:normal;color-interpolation:sRGB;color-interpolation-filters:linearRGB;solid-color:black;solid-opacity:1;fill:black;fill-opacity:1;fill-rule:nonzero;stroke:none;stroke-width:2;stroke-linecap:butt;stroke-linejoin:miter;stroke-miterlimit:4;stroke-dasharray:none;stroke-dashoffset:0;stroke-opacity:1;color-rendering:auto;image-rendering:auto;shape-rendering:auto;text-rendering:auto;enable-background:accumulate" inkscape:connector-curvature="0" />
                    <ellipse transform="scale(1,-1)" style="opacity:1;fill:gray;fill-opacity:1;fill-rule:nonzero;stroke:none;stroke-width:2;stroke-linecap:butt;stroke-linejoin:miter;stroke-miterlimit:4;stroke-dasharray:none;stroke-dashoffset:0;stroke-opacity:1" id="ellipse4805" cx="16" cy="-18" rx="1.9991585" ry="0.61512572" />
                    <ellipse ry="0.61512572" rx="1.9991585" cy="-18" cx="16" id="ellipse4811" style="opacity:1;fill:#404040;fill-opacity:1;fill-rule:nonzero;stroke:none;stroke-width:2;stroke-linecap:butt;stroke-linejoin:miter;stroke-miterlimit:4;stroke-dasharray:none;stroke-dashoffset:0;stroke-opacity:1" transform="scale(1,-1)" />
                    <g id="g5561" transform="translate(2,-2)">
                      <circle r="2" style="opacity:1;fill:#918f2f;fill-opacity:1;fill-rule:nonzero;stroke:none;stroke-width:2;stroke-linecap:butt;stroke-linejoin:round;stroke-miterlimit:4;stroke-dasharray:none;stroke-dashoffset:0;stroke-opacity:1" id="circle5563" cx="17" cy="20" />
                      <path inkscape:connector-curvature="0" id="path5565" d="M 17.242188,18.015625 A 1.5031479,1.5051637 0 0 0 16,19.496094 1.5031479,1.5051637 0 0 0 17.503906,21 1.5031479,1.5051637 0 0 0 18.982422,19.759766 2,2 0 0 0 17.242188,18.015625 Z" style="opacity:1;fill:#c0be40;fill-opacity:1;fill-rule:nonzero;stroke:none;stroke-width:2;stroke-linecap:butt;stroke-linejoin:round;stroke-miterlimit:4;stroke-dasharray:none;stroke-dashoffset:0;stroke-opacity:1" />
                    </g>
                    <path id="rect4821" d="m 15,13.995394 0,4.004278 a 1,0.30684489 0 0 0 1,0.306969 1,0.30684489 0 0 0 1,-0.306969 l 0,-4.004278 -2,0 z" style="opacity:1;fill:gray;fill-opacity:1;fill-rule:nonzero;stroke:none;stroke-width:2;stroke-linecap:butt;stroke-linejoin:miter;stroke-miterlimit:4;stroke-dasharray:none;stroke-dashoffset:0;stroke-opacity:1" inkscape:connector-curvature="0" />
                    <path inkscape:connector-curvature="0" id="path8729" d="m 15,13.986091 0,4.013643 a 1,0.30750699 0 0 0 1,0.306907 l 0,-4.32055 -1,0 z" style="opacity:1;fill:#404040;fill-opacity:1;fill-rule:nonzero;stroke:none;stroke-width:2;stroke-linecap:butt;stroke-linejoin:miter;stroke-miterlimit:4;stroke-dasharray:none;stroke-dashoffset:0;stroke-opacity:1" />
                    <ellipse ry="0.30651706" rx="1" cy="-14.001483" cx="16" id="ellipse4819" style="opacity:1;fill:#ccc;fill-opacity:1;fill-rule:nonzero;stroke:none;stroke-width:2;stroke-linecap:butt;stroke-linejoin:miter;stroke-miterlimit:4;stroke-dasharray:none;stroke-dashoffset:0;stroke-opacity:1" transform="scale(1,-1)" />
                    <circle style="opacity:1;fill:none;fill-opacity:1;fill-rule:nonzero;stroke:none;stroke-width:2;stroke-linecap:butt;stroke-linejoin:round;stroke-miterlimit:4;stroke-dasharray:none;stroke-dashoffset:0;stroke-opacity:1" id="circle8196" cx="15.486167" cy="19.5" r="0.5" />
                    <g id="g4920" transform="translate(5,-1)">
                      <circle r="2" style="opacity:1;fill:#606060;fill-opacity:1;fill-rule:nonzero;stroke:none;stroke-width:2;stroke-linecap:butt;stroke-linejoin:round;stroke-miterlimit:4;stroke-dasharray:none;stroke-dashoffset:0;stroke-opacity:1" id="circle4922" cx="17" cy="20" />
                      <path inkscape:connector-curvature="0" id="path4924" d="M 17.242188,18.015625 A 1.5031479,1.5051637 0 0 0 16,19.496094 1.5031479,1.5051637 0 0 0 17.503906,21 1.5031479,1.5051637 0 0 0 18.982422,19.759766 2,2 0 0 0 17.242188,18.015625 Z" style="opacity:1;fill:gray;fill-opacity:1;fill-rule:nonzero;stroke:none;stroke-width:2;stroke-linecap:butt;stroke-linejoin:round;stroke-miterlimit:4;stroke-dasharray:none;stroke-dashoffset:0;stroke-opacity:1" />
                    </g>
                    <g id="g4926" transform="translate(-3,-2)">
                      <circle r="2" style="opacity:1;fill:#904a30;fill-opacity:1;fill-rule:nonzero;stroke:none;stroke-width:2;stroke-linecap:butt;stroke-linejoin:round;stroke-miterlimit:4;stroke-dasharray:none;stroke-dashoffset:0;stroke-opacity:1" id="circle4928" cx="17" cy="20" />
                      <path inkscape:connector-curvature="0" id="path4930" d="M 17.242188,18.015625 A 1.5031479,1.5051637 0 0 0 16,19.496094 1.5031479,1.5051637 0 0 0 17.503906,21 1.5031479,1.5051637 0 0 0 18.982422,19.759766 2,2 0 0 0 17.242188,18.015625 Z" style="opacity:1;fill:#c05e40;fill-opacity:1;fill-rule:nonzero;stroke:none;stroke-width:2;stroke-linecap:butt;stroke-linejoin:round;stroke-miterlimit:4;stroke-dasharray:none;stroke-dashoffset:0;stroke-opacity:1" />
                    </g>
                    <g transform="translate(0,-1)" id="g4910">
                      <circle r="2" style="opacity:1;fill:#bf7c41;fill-opacity:1;fill-rule:nonzero;stroke:none;stroke-width:2;stroke-linecap:butt;stroke-linejoin:round;stroke-miterlimit:4;stroke-dasharray:none;stroke-dashoffset:0;stroke-opacity:1" id="circle8200" cx="17" cy="20" />
                      <path inkscape:connector-curvature="0" id="circle4890" d="M 17.242188,18.015625 A 1.5031479,1.5051637 0 0 0 16,19.496094 1.5031479,1.5051637 0 0 0 17.503906,21 1.5031479,1.5051637 0 0 0 18.982422,19.759766 2,2 0 0 0 17.242188,18.015625 Z" style="opacity:1;fill:#e6cab2;fill-opacity:1;fill-rule:nonzero;stroke:none;stroke-width:2;stroke-linecap:butt;stroke-linejoin:round;stroke-miterlimit:4;stroke-dasharray:none;stroke-dashoffset:0;stroke-opacity:1" />
                    </g>
                    <g transform="translate(-6,-1)" id="g4932">
                      <circle cy="20" cx="17" id="circle4934" style="opacity:1;fill:#918f2f;fill-opacity:1;fill-rule:nonzero;stroke:none;stroke-width:2;stroke-linecap:butt;stroke-linejoin:round;stroke-miterlimit:4;stroke-dasharray:none;stroke-dashoffset:0;stroke-opacity:1" r="2" />
                      <path style="opacity:1;fill:#c0be40;fill-opacity:1;fill-rule:nonzero;stroke:none;stroke-width:2;stroke-linecap:butt;stroke-linejoin:round;stroke-miterlimit:4;stroke-dasharray:none;stroke-dashoffset:0;stroke-opacity:1" d="M 17.242188,18.015625 A 1.5031479,1.5051637 0 0 0 16,19.496094 1.5031479,1.5051637 0 0 0 17.503906,21 1.5031479,1.5051637 0 0 0 18.982422,19.759766 2,2 0 0 0 17.242188,18.015625 Z" id="path4936" inkscape:connector-curvature="0" />
                    </g>
                    <g transform="translate(-3,0)" id="g4938">
                      <circle cy="20" cx="17" id="circle4940" style="opacity:1;fill:gray;fill-opacity:1;fill-rule:nonzero;stroke:none;stroke-width:2;stroke-linecap:butt;stroke-linejoin:round;stroke-miterlimit:4;stroke-dasharray:none;stroke-dashoffset:0;stroke-opacity:1" r="2" />
                      <path style="opacity:1;fill:#ccc;fill-opacity:1;fill-rule:nonzero;stroke:none;stroke-width:2;stroke-linecap:butt;stroke-linejoin:round;stroke-miterlimit:4;stroke-dasharray:none;stroke-dashoffset:0;stroke-opacity:1" d="M 17.242188,18.015625 A 1.5031479,1.5051637 0 0 0 16,19.496094 1.5031479,1.5051637 0 0 0 17.503906,21 1.5031479,1.5051637 0 0 0 18.982422,19.759766 2,2 0 0 0 17.242188,18.015625 Z" id="path4942" inkscape:connector-curvature="0" />
                    </g>
                  </g>
                </g>
              </g>
            </g>
          </g>
        </g>
      </g>
    </g>
  </g>
</svg>
