<?xml version="1.0" encoding="UTF-8" standalone="no"?>
<!-- Created with Inkscape (http://www.inkscape.org/) -->

<svg
   xmlns:dc="http://purl.org/dc/elements/1.1/"
   xmlns:cc="http://creativecommons.org/ns#"
   xmlns:rdf="http://www.w3.org/1999/02/22-rdf-syntax-ns#"
   xmlns:svg="http://www.w3.org/2000/svg"
   xmlns="http://www.w3.org/2000/svg"
   xmlns:sodipodi="http://sodipodi.sourceforge.net/DTD/sodipodi-0.dtd"
   xmlns:inkscape="http://www.inkscape.org/namespaces/inkscape"
   width="32"
   height="64"
   id="svg3505"
   sodipodi:version="0.32"
   inkscape:version="0.48.5 r10040"
   sodipodi:docname="04.svg"
   inkscape:output_extension="org.inkscape.output.svg.inkscape"
   inkscape:export-filename="/home/andreas/Dokumente/Projekte/McMinos/svg/ghosts/ghost-hanky-04-x48.png"
   inkscape:export-xdpi="135"
   inkscape:export-ydpi="135"
   version="1.1">
  <title
     id="title2867">Ghost Hanky (1st ghost ever) for McMinos</title>
  <defs
     id="defs3507">
    <inkscape:perspective
       sodipodi:type="inkscape:persp3d"
       inkscape:vp_x="0 : 16 : 1"
       inkscape:vp_y="0 : 1000 : 0"
       inkscape:vp_z="32 : 16 : 1"
       inkscape:persp3d-origin="16 : 10.666667 : 1"
       id="perspective3513" />
    <inkscape:perspective
       id="perspective4690"
       inkscape:persp3d-origin="372.04724 : 350.78739 : 1"
       inkscape:vp_z="744.09448 : 526.18109 : 1"
       inkscape:vp_y="0 : 1000 : 0"
       inkscape:vp_x="0 : 526.18109 : 1"
       sodipodi:type="inkscape:persp3d" />
    <inkscape:perspective
       id="perspective3736"
       inkscape:persp3d-origin="372.04724 : 350.78739 : 1"
       inkscape:vp_z="744.09448 : 526.18109 : 1"
       inkscape:vp_y="0 : 1000 : 0"
       inkscape:vp_x="0 : 526.18109 : 1"
       sodipodi:type="inkscape:persp3d" />
  </defs>
  <sodipodi:namedview
     id="base"
     pagecolor="#ffffff"
     bordercolor="#666666"
     borderopacity="1.0"
     inkscape:pageopacity="0.0"
     inkscape:pageshadow="2"
     inkscape:zoom="8.25"
     inkscape:cx="16"
     inkscape:cy="32"
     inkscape:current-layer="layer4"
     showgrid="true"
     inkscape:grid-bbox="true"
     inkscape:document-units="px"
     objecttolerance="4"
     gridtolerance="4"
     guidetolerance="4"
     inkscape:window-width="1024"
     inkscape:window-height="741"
     inkscape:window-x="0"
     inkscape:window-y="2"
     inkscape:object-paths="true"
     inkscape:object-nodes="true"
     inkscape:snap-bbox="true"
     inkscape:snap-guide="true"
     inkscape:window-maximized="1">
    <inkscape:grid
       type="xygrid"
       id="grid3515"
       units="px"
       visible="true"
       enabled="true"
       spacingx="1px"
       spacingy="1px"
       empspacing="5"
       snapvisiblegridlinesonly="true" />
  </sodipodi:namedview>
  <metadata
     id="metadata3510">
    <rdf:RDF>
      <cc:Work
         rdf:about="">
        <dc:format>image/svg+xml</dc:format>
        <dc:type
           rdf:resource="http://purl.org/dc/dcmitype/StillImage" />
        <dc:title>Ghost Hanky (1st ghost ever) for McMinos</dc:title>
        <dc:date>2010-08-08</dc:date>
        <dc:creator>
          <cc:Agent>
            <dc:title>Andreas Neudecker &lt;zapyon@gmx.net&gt;</dc:title>
          </cc:Agent>
        </dc:creator>
        <dc:rights>
          <cc:Agent>
            <dc:title>Copyright (C) 2010 by Andreas Neudecker</dc:title>
          </cc:Agent>
        </dc:rights>
        <dc:publisher>
          <cc:Agent>
            <dc:title>Andreas Neudecker</dc:title>
          </cc:Agent>
        </dc:publisher>
        <dc:identifier>ghost-hanky-04</dc:identifier>
        <dc:description>Ghost Hanky (1st ghost ever) for McMinos</dc:description>
      </cc:Work>
    </rdf:RDF>
  </metadata>
  <g
     inkscape:groupmode="layer"
     id="layer4"
     inkscape:label="Geist geometrisch"
     style="display:inline"
     transform="translate(0,32)">
    <path
       sodipodi:type="inkscape:offset"
       inkscape:radius="0"
       inkscape:original="M 15.40625 -7.5625 L 15.40625 -6.5625 L 13.40625 -5.5625 L 14.40625 -4.5625 L 14.90625 -3.5625 C 13.23599 -1.9678547 10.825482 -0.60688393 9.84375 1 L 9.40625 1.4375 L 9.40625 0.4375 L 8.40625 1.4375 L 6.40625 0.4375 L 7.40625 2.4375 L 6.40625 2.4375 L 7.40625 4.4375 L 8.40625 3.4375 L 9.40625 4.4375 L 10.40625 2.4375 L 10.40625 3.4375 L 11.40625 2.4375 L 11.40625 4.4375 L 12.40625 2.4375 L 13.40625 4.4375 L 14.40625 2.4375 L 15.40625 3.4375 L 15.40625 2.4375 L 17.40625 3.4375 L 17.40625 2.4375 L 18.40625 3.4375 L 19.40625 2.4375 L 20.40625 4.4375 L 21.40625 3.4375 L 22.40625 4.4375 L 23.40625 3.4375 L 25.40625 4.4375 L 24.40625 2.4375 L 25.40625 1.4375 L 24.40625 1.4375 L 24.40625 0.4375 L 23.40625 1.4375 L 22.65625 0.6875 C 21.661466 -1.6693754 20.36576 -4.64378 18.3125 -5.46875 L 18.40625 -5.5625 L 17.96875 -5.5625 C 17.8985 -5.581755 17.822431 -5.611723 17.75 -5.625 C 17.639942 -5.646271 17.520191 -5.647915 17.40625 -5.65625 L 17.40625 -7.5625 L 16.40625 -6.5625 L 15.40625 -7.5625 z "
       style="fill:none;stroke:black;stroke-width:2;stroke-linejoin:round;stroke-miterlimit:4;stroke-opacity:1;stroke-dasharray:none;display:inline"
       id="path3050"
       d="m 15.40625,-7.5625 0,1 -2,1 1,1 0.5,1 C 13.23599,-1.9678547 10.825482,-0.60688393 9.84375,1 l -0.4375,0.4375 0,-1 -1,1 -2,-1 1,2 -1,0 1,2 1,-1 1,1 1,-2 0,1 1,-1 0,2 1,-2 1,2 1,-2 1,1 0,-1 2,1 0,-1 1,1 1,-1 1,2 1,-1 1,1 1,-1 2,1 -1,-2 1,-1 -1,0 0,-1 -1,1 -0.75,-0.75 C 21.661466,-1.6693754 20.36576,-4.64378 18.3125,-5.46875 l 0.09375,-0.09375 -0.4375,0 C 17.8985,-5.581755 17.822431,-5.611723 17.75,-5.625 17.639942,-5.646271 17.520191,-5.647915 17.40625,-5.65625 l 0,-1.90625 -1,1 -1,-1 z"
       transform="matrix(0.96592583,-0.25881905,0.25881905,0.96592583,-1.0536029,6.0635827)" />
    <path
       id="path3821"
       d="M 16,1 C 11.584,1 8,4.584 8,9 L 8,10 7,8 C 7,6.344 5.656,5 4,5 2.344,5 1,6.344 1,8 l 0,20 9.75,1.0625 C 12.153893,30.280539 13.996861,31 16,31 c 2.003139,0 3.846107,-0.719461 5.25,-1.9375 L 31,28 31,8 C 31,6.344 29.656,5 28,5 26.344,5 25,6.344 25,8 l -1,2 0,-1 C 24,4.584 20.416,1 16,1 z"
       style="fill:white;fill-opacity:1;fill-rule:nonzero;stroke:black;stroke-width:2;stroke-linecap:round;stroke-linejoin:miter;stroke-miterlimit:4;stroke-opacity:1;stroke-dasharray:none;stroke-dashoffset:0;display:inline"
       sodipodi:nodetypes="ccccscccscccscccc"
       inkscape:connector-curvature="0" />
    <path
       style="fill:white;fill-opacity:1;fill-rule:nonzero;stroke:none;display:inline"
       d="M 16,1 C 11.584,1 8,4.584 8,9 L 7,9 7,8 C 7,6.344 5.656,5 4,5 2.344,5 1,6.344 1,8 l 0,20 9.75,1.0625 C 12.153893,30.280539 13.996861,31 16,31 c 2.003139,0 3.846107,-0.719461 5.25,-1.9375 L 31,28 31,8 C 31,6.344 29.656,5 28,5 26.344,5 25,6.344 25,8 l 0,1 -1,0 C 24,4.584 20.416,1 16,1 z"
       id="path3802"
       sodipodi:nodetypes="ccccscccscccscccc"
       inkscape:connector-curvature="0" />
    <path
       sodipodi:type="arc"
       style="fill:black;fill-opacity:0.99356911;fill-rule:nonzero;stroke:none;display:inline"
       id="path3768"
       sodipodi:cx="11.5"
       sodipodi:cy="8.5"
       sodipodi:rx="1.5"
       sodipodi:ry="2.5"
       d="M 13,8.5 C 13,9.8807119 12.328427,11 11.5,11 10.671573,11 10,9.8807119 10,8.5 10,7.1192881 10.671573,6 11.5,6 12.328427,6 13,7.1192881 13,8.5 z"
       transform="translate(2,0)" />
    <path
       sodipodi:type="arc"
       style="fill:black;fill-opacity:0.99356911;fill-rule:nonzero;stroke:none;display:inline"
       id="path3770"
       sodipodi:cx="16.5"
       sodipodi:cy="8.5"
       sodipodi:rx="1.5"
       sodipodi:ry="2.5"
       d="M 18,8.5 C 18,9.8807119 17.328427,11 16.5,11 15.671573,11 15,9.8807119 15,8.5 15,7.1192881 15.671573,6 16.5,6 17.328427,6 18,7.1192881 18,8.5 z"
       transform="translate(2,0)" />
    <path
       style="fill:silver;fill-opacity:1;fill-rule:nonzero;stroke:none"
       d="m 7,8 c 0,1.656 -1.344,3 -3,3 l 0,1 C 6.2079999,12 7.9999998,10.208 8,8 L 7,8 z"
       id="path3806"
       inkscape:connector-curvature="0" />
    <path
       id="path3809"
       d="m 25,8 c 0,1.656 1.344,3 3,3 l 0,1 c -2.208,0 -4,-1.792 -4,-4 l 1,0 z"
       style="fill:silver;fill-opacity:1;fill-rule:nonzero;stroke:none"
       inkscape:connector-curvature="0" />
    <path
       style="fill:black;fill-opacity:1;fill-rule:nonzero;stroke:none"
       d="m 10,12 c 0,0 3,5 6,5 3,0 6,-5 6,-5 0,0 -3.836669,1 -6,1 -2.163331,0 -6,-1 -6,-1 z"
       id="path3813"
       sodipodi:nodetypes="czczc"
       inkscape:connector-curvature="0" />
    <rect
       style="fill:silver;fill-opacity:1;fill-rule:nonzero;stroke:none"
       id="rect3823"
       width="1"
       height="8"
       x="5"
       y="19" />
    <rect
       y="19"
       x="26"
       height="8"
       width="1"
       id="rect3829"
       style="fill:silver;fill-opacity:1;fill-rule:nonzero;stroke:none" />
    <rect
       style="fill:silver;fill-opacity:1;fill-rule:nonzero;stroke:none"
       id="rect6061"
       width="1"
       height="7"
       x="22"
       y="21" />
    <rect
       y="21"
       x="9"
       height="7"
       width="1"
       id="rect6063"
       style="fill:silver;fill-opacity:1;fill-rule:nonzero;stroke:none" />
    <g
       style="display:inline"
       id="g3021"
       transform="matrix(0.96592583,-0.25881905,0.25881905,0.96592583,4.5338132,-7.8568753)">
      <path
         style="fill:#d40000;fill-opacity:1;stroke:none"
         d="M 7.4090909,6.4242429 C 6.1717839,9.5496578 0.40909091,11.424243 0.40909091,14.424242 l 14.00000009,0 C 13.109412,11.654417 11.241603,5.4416137 7.4090909,6.4242429 z"
         id="path2993"
         inkscape:connector-curvature="0"
         sodipodi:nodetypes="cccc" />
      <path
         style="fill:black;fill-opacity:0.25098039;stroke:none"
         d="m 8.0965909,6.3304929 c -0.224524,0.0078 -0.447968,0.032336 -0.6875,0.09375 l 1.5625,0 c -0.276958,-0.075908 -0.572202,-0.1042656 -0.875,-0.09375 z m -0.6875,0.09375 C 6.1717839,9.5496578 0.40909091,11.424243 0.40909091,14.424242 l 1.99999999,0 c -0.831519,-3.147571 4.869163,-4.372146 5,-7.9999991 z"
         id="path3858"
         inkscape:connector-curvature="0" />
      <path
         style="fill:white;fill-opacity:1;stroke:none"
         d="m 8.4090909,4.4242429 -1,1 -1,-1 0,1 -2,1 1,1 1,2 1,-1 1,0 0,-1 1,-1 -1,0 z"
         id="path2995"
         inkscape:connector-curvature="0"
         sodipodi:nodetypes="ccccccccccccc" />
      <path
         style="fill:white;fill-opacity:1;stroke:none"
         d="m -0.59090909,13.424242 1,-1 0,1 0.99999999,-1 1,1 1,-1.999999 1,1.999999 1,-1 1,1 1,-1 0,1 2,-1 0,1 1.0000001,-1 1,1 1,-1.999999 0,1.999999 1,-1 1,1 1,-1 0,1 1,0 -1,1 1,2 -2,-1 -1,1 -1,-1 -1,1 -1,-2 -1.0000001,1 -1,-1 0,1 -2,-1 0,1 -1,-1 -1,2 -1,-2 -1,2 0,-2 -1,1 0,-1 -0.99999999,2 -1,-1 -1.00000001,1 0,-1 -1,-1 1,0 -1,-2 z"
         id="path2997"
         inkscape:connector-curvature="0"
         sodipodi:nodetypes="ccccccccccccccccccccccccccccccccccccccccccccccccc" />
      <path
         style="fill:black;fill-opacity:0.25098039;stroke:none"
         d="m 6.4090909,5.4242429 -1,1 1,0 -1,1 1,0 0,1 1,-1 1,1 -1,0 -1,1 -1,-2 -1,-1 z"
         id="path3868"
         inkscape:connector-curvature="0" />
      <path
         style="fill:black;fill-opacity:0.25098039;stroke:none"
         d="m -1.5909091,14.424242 1.00000001,1 0,-1 1,0 0.99999999,-1 0,1 2,-1 1,1 1,-1 1,1 2,-1 1,1 2.0000001,-1 1,1 1,0 1,1 0,-1 2,-1 -1,1 1,2 -2,-1 -1,1 -1,-1 -1,1 -1,-2 -1.0000001,1 -1,-1 0,1 -2,-1 0,1 -1,-1 -1,2 -1,-2 -1,2 0,-2 -1,1 0,-1 -0.99999999,0 -1,1 0,0 -1.00000001,1 -1,-2 z"
         id="path3870"
         inkscape:connector-curvature="0"
         sodipodi:nodetypes="ccccccccccccccccccccccccccccccccccccccccccc" />
    </g>
  </g>
</svg>
