<?xml version="1.0" encoding="UTF-8" standalone="no"?>
<!-- Created with Inkscape (http://www.inkscape.org/) -->

<svg xmlns:dc="http://purl.org/dc/elements/1.1/" xmlns:cc="http://creativecommons.org/ns#" xmlns:rdf="http://www.w3.org/1999/02/22-rdf-syntax-ns#" xmlns:svg="http://www.w3.org/2000/svg" xmlns="http://www.w3.org/2000/svg" xmlns:sodipodi="http://sodipodi.sourceforge.net/DTD/sodipodi-0.dtd" xmlns:inkscape="http://www.inkscape.org/namespaces/inkscape" width="64" height="64" id="svg3505" sodipodi:version="0.32" inkscape:version="0.91 r13725" sodipodi:docname="00.svg" inkscape:output_extension="org.inkscape.output.svg.inkscape" version="1.1" viewBox="0 0 64 64">
  <defs id="defs3507">
    <inkscape:perspective sodipodi:type="inkscape:persp3d" inkscape:vp_x="0 : 16 : 1" inkscape:vp_y="0 : 1000 : 0" inkscape:vp_z="32 : 16 : 1" inkscape:persp3d-origin="16 : 10.666667 : 1" id="perspective2836" />
    <inkscape:perspective id="perspective2899" inkscape:persp3d-origin="0.5 : 0.33333333 : 1" inkscape:vp_z="1 : 0.5 : 1" inkscape:vp_y="0 : 1000 : 0" inkscape:vp_x="0 : 0.5 : 1" sodipodi:type="inkscape:persp3d" />
    <inkscape:perspective id="perspective3072" inkscape:persp3d-origin="0.5 : 0.33333333 : 1" inkscape:vp_z="1 : 0.5 : 1" inkscape:vp_y="0 : 1000 : 0" inkscape:vp_x="0 : 0.5 : 1" sodipodi:type="inkscape:persp3d" />
  </defs>
  <sodipodi:namedview id="base" pagecolor="#ffffff" bordercolor="#666666" borderopacity="1.0" inkscape:pageopacity="0.0" inkscape:pageshadow="2" inkscape:zoom="11.0625" inkscape:cx="32" inkscape:cy="19.155665" inkscape:current-layer="layer1" showgrid="true" inkscape:grid-bbox="true" inkscape:document-units="px" objecttolerance="10" gridtolerance="10" guidetolerance="10" inkscape:window-width="1600" inkscape:window-height="878" inkscape:window-x="0" inkscape:window-y="0" inkscape:object-paths="true" inkscape:object-nodes="true" inkscape:snap-bbox="true" inkscape:snap-guide="true" showguides="true" inkscape:guide-bbox="true" inkscape:window-maximized="1">
    <inkscape:grid type="xygrid" id="grid3515" units="px" visible="true" enabled="true" spacingx="1px" spacingy="1px" empspacing="4" snapvisiblegridlinesonly="true" />
    <sodipodi:guide position="0,32" orientation="1,0" id="guide13419" />
    <sodipodi:guide position="32,32" orientation="1,0" id="guide13421" />
    <sodipodi:guide position="-4,32" orientation="0,1" id="guide13423" />
    <sodipodi:guide position="-4,0" orientation="0,1" id="guide13425" />
  </sodipodi:namedview>
  <metadata id="metadata3510">
    <rdf:RDF>
      <cc:Work rdf:about="">
        <dc:format>image/svg+xml</dc:format>
        <dc:type rdf:resource="http://purl.org/dc/dcmitype/StillImage" />
        <dc:title></dc:title>
        <dc:date>2015-09-03</dc:date>
        <dc:creator>
          <cc:Agent>
            <dc:title>Andreas Neudecker &lt;zapyon@gmx.net&gt;</dc:title>
          </cc:Agent>
        </dc:creator>
        <dc:rights>
          <cc:Agent>
            <dc:title>Copyright (C) 2010-2015 by Andreas Neudecker</dc:title>
          </cc:Agent>
        </dc:rights>
        <dc:publisher>
          <cc:Agent>
            <dc:title>Andreas Neudecker</dc:title>
          </cc:Agent>
        </dc:publisher>
        <dc:identifier>__empty__</dc:identifier>
        <dc:description>Template for McMinos SVG icons at a base size of 32x32 pixels.</dc:description>
      </cc:Work>
    </rdf:RDF>
  </metadata>
  <g id="layer1" inkscape:label="Layer 1" inkscape:groupmode="layer" transform="translate(0,32)">
    <rect style="opacity:1;fill:none;fill-opacity:1;fill-rule:nonzero;stroke:none;stroke-width:2;stroke-linecap:butt;stroke-linejoin:miter;stroke-miterlimit:4;stroke-dasharray:none;stroke-dashoffset:0;stroke-opacity:1" id="rect5439" width="32" height="32" x="32" y="0" />
    <path style="fill:none;fill-opacity:1;fill-rule:nonzero;stroke:black;stroke-width:2;stroke-linecap:round;stroke-linejoin:round;stroke-miterlimit:4;stroke-dasharray:none;stroke-dashoffset:0;stroke-opacity:0.25098039" d="m 40,18 c -1.002087,0 -1.526652,-0.203136 -2,-0.587879 -0.473348,-0.384743 -0.888668,-1.276783 -1,-2 -0.111331,-0.723218 -0.293764,-2.915551 0.353536,-4 0.647299,-1.084449 1.920476,-2.4957792 3.101501,-3.6067342 C 41.870053,6.5497248 45,2.4121208 45,2.4121208" id="path5431" sodipodi:nodetypes="czzzcc" inkscape:connector-curvature="0" />
    <path inkscape:connector-curvature="0" style="opacity:1;fill:#d07070;fill-opacity:1;fill-rule:nonzero;stroke:black;stroke-width:2;stroke-linecap:butt;stroke-linejoin:miter;stroke-miterlimit:4;stroke-dasharray:none;stroke-dashoffset:0;stroke-opacity:1" d="m 40,12 a 2,6 0 0 0 -2,6 2,6 0 0 0 2,6 l 20,0 a 2,6 0 0 0 2,-6 2,6 0 0 0 -2,-6 l -20,0 z" id="ellipse5400" />
    <ellipse style="opacity:1;fill:#d07070;fill-opacity:1;fill-rule:nonzero;stroke:none;stroke-width:2;stroke-linecap:butt;stroke-linejoin:miter;stroke-miterlimit:4;stroke-dasharray:none;stroke-dashoffset:0;stroke-opacity:1" id="path4715" cx="40" cy="17.999998" rx="2" ry="6" />
    <path style="opacity:1;fill:#c04040;fill-opacity:1;fill-rule:nonzero;stroke:none;stroke-width:2;stroke-linecap:butt;stroke-linejoin:miter;stroke-miterlimit:4;stroke-dasharray:none;stroke-dashoffset:0;stroke-opacity:1" d="m 40,12 a 2,6 0 0 1 2,6 2,6 0 0 1 -2,6 l 20.000001,0 a 2,6 0 0 0 2,-6 2,6 0 0 0 -2,-6 L 40,12 Z" id="ellipse4717" inkscape:connector-curvature="0" />
    <ellipse ry="1.0031432" rx="0.33438107" cy="17.999998" cx="40" id="ellipse4726" style="opacity:1;fill:maroon;fill-opacity:1;fill-rule:nonzero;stroke:none;stroke-width:2;stroke-linecap:butt;stroke-linejoin:miter;stroke-miterlimit:4;stroke-dasharray:none;stroke-dashoffset:0;stroke-opacity:1" />
    <path inkscape:connector-curvature="0" sodipodi:nodetypes="czzzcc" id="path2402" d="m 40,18 c -1.002087,0 -1.526652,-0.203136 -2,-0.587879 -0.473348,-0.384743 -0.888668,-1.276783 -1,-2 -0.111331,-0.723218 -0.293764,-2.915551 0.353536,-4 0.647299,-1.084449 1.920476,-2.4957792 3.101501,-3.6067342 C 41.870053,6.5497248 45,2.4121208 45,2.4121208" style="fill:none;fill-opacity:1;fill-rule:nonzero;stroke:#e00000;stroke-width:1;stroke-linecap:round;stroke-linejoin:round;stroke-miterlimit:4;stroke-dasharray:none;stroke-dashoffset:0;stroke-opacity:1" />
    <path inkscape:connector-curvature="0" style="opacity:1;fill:#8a2e2e;fill-opacity:1;fill-rule:nonzero;stroke:none;stroke-width:2;stroke-linecap:butt;stroke-linejoin:miter;stroke-miterlimit:4;stroke-dasharray:none;stroke-dashoffset:0;stroke-opacity:1" d="M 41.730469,21 A 2,6 0 0 1 40,24 l 20,0 a 2,6 0 0 0 1.730469,-3 l -20,0 z" id="path5405" />
    <path inkscape:connector-curvature="0" style="opacity:1;fill:#da8e8e;fill-opacity:1;fill-rule:nonzero;stroke:none;stroke-width:2;stroke-linecap:butt;stroke-linejoin:miter;stroke-miterlimit:4;stroke-dasharray:none;stroke-dashoffset:0;stroke-opacity:1" d="m 40,12 a 2,6 0 0 1 1.488281,2 l 20,0 A 2,6 0 0 0 60,12 l -20,0 z" id="rect5411" />
    <path inkscape:connector-curvature="0" style="opacity:1;fill:#d07070;fill-opacity:1;fill-rule:nonzero;stroke:none;stroke-width:2;stroke-linecap:butt;stroke-linejoin:miter;stroke-miterlimit:4;stroke-dasharray:none;stroke-dashoffset:0;stroke-opacity:1" d="m 41.099609,13 a 2,6 0 0 1 0.388672,1 l 20,0 a 2,6 0 0 0 -0.390625,-1 l -19.998047,0 z" id="path5416" />
    <path inkscape:connector-curvature="0" style="opacity:1;fill:#d07070;fill-opacity:1;fill-rule:nonzero;stroke:none;stroke-width:2;stroke-linecap:butt;stroke-linejoin:miter;stroke-miterlimit:4;stroke-dasharray:none;stroke-dashoffset:0;stroke-opacity:1" d="m 40.021484,17 a 0.33438107,1.0031432 0 0 1 0.3125,1 0.33438107,1.0031432 0 0 1 -0.310546,1 L 41,19 l 0,-2 -0.978516,0 z" id="rect5425" />
    <path inkscape:connector-curvature="0" style="opacity:1;fill:#602020;fill-opacity:1;fill-rule:nonzero;stroke:none;stroke-width:2;stroke-linecap:butt;stroke-linejoin:miter;stroke-miterlimit:4;stroke-dasharray:none;stroke-dashoffset:0;stroke-opacity:1" d="M 41.099609,23 A 2,6 0 0 1 40,24 l 20,0 a 2,6 0 0 0 1.101562,-1 l -20.001953,0 z" id="path5433" />
  </g>
</svg>
