<?xml version="1.0" encoding="UTF-8" standalone="no"?>
<!-- Created with Inkscape (http://www.inkscape.org/) -->

<svg xmlns:dc="http://purl.org/dc/elements/1.1/" xmlns:cc="http://creativecommons.org/ns#" xmlns:rdf="http://www.w3.org/1999/02/22-rdf-syntax-ns#" xmlns:svg="http://www.w3.org/2000/svg" xmlns="http://www.w3.org/2000/svg" xmlns:sodipodi="http://sodipodi.sourceforge.net/DTD/sodipodi-0.dtd" xmlns:inkscape="http://www.inkscape.org/namespaces/inkscape" version="1.1" inkscape:output_extension="org.inkscape.output.svg.inkscape" sodipodi:docname="00.svg" inkscape:version="0.91 r13725" sodipodi:version="0.32" id="svg3505" height="32px" width="32px">
  <defs id="defs3507" />
  <sodipodi:namedview inkscape:window-maximized="1" inkscape:guide-bbox="true" showguides="true" inkscape:snap-guide="true" inkscape:snap-bbox="true" inkscape:object-nodes="true" inkscape:object-paths="true" inkscape:window-y="0" inkscape:window-x="0" inkscape:window-height="878" inkscape:window-width="1600" guidetolerance="4" gridtolerance="4" objecttolerance="4" inkscape:document-units="px" inkscape:grid-bbox="true" showgrid="true" inkscape:current-layer="layer1" inkscape:cy="16" inkscape:cx="19.823454" inkscape:zoom="22.125" inkscape:pageshadow="2" inkscape:pageopacity="0.0" borderopacity="1.0" bordercolor="#666666" pagecolor="#ffffff" id="base">
    <inkscape:grid type="xygrid" id="grid3515" units="px" visible="true" enabled="true" spacingx="1px" spacingy="1px" empspacing="4" />
    <sodipodi:guide orientation="-0.70710678,0.70710678" position="33.245902,33.245902" id="guide3622" />
    <sodipodi:guide orientation="0.70710678,0.70710678" position="0,32" id="guide3624" />
  </sodipodi:namedview>
  <metadata id="metadata3510">
    <rdf:RDF>
      <cc:Work rdf:about="">
        <dc:format>image/svg+xml</dc:format>
        <dc:type rdf:resource="http://purl.org/dc/dcmitype/StillImage" />
        <dc:title>Vorlage f端r 32x32-Pixel-Icons f端r McMinos</dc:title>
        <dc:date>2010-04-05</dc:date>
        <dc:creator>
          <cc:Agent>
            <dc:title>Andreas Neudecker &lt;zapyon@gmx.net&gt;</dc:title>
          </cc:Agent>
        </dc:creator>
        <dc:rights>
          <cc:Agent>
            <dc:title>Copyright (C) 2010 by Andreas Neudecker</dc:title>
          </cc:Agent>
        </dc:rights>
        <dc:publisher>
          <cc:Agent>
            <dc:title>Andreas Neudecker</dc:title>
          </cc:Agent>
        </dc:publisher>
        <dc:identifier>vorlage-32x32-mcminos</dc:identifier>
        <dc:description>Vorlage f端r 32x32-Pixel-Icons f端r McMinos. Metadaten jeweils entsprechend anpassen!</dc:description>
      </cc:Work>
    </rdf:RDF>
  </metadata>
  <g id="layer1" inkscape:label="Layer 1" inkscape:groupmode="layer">
    <path inkscape:connector-curvature="0" id="path5433" d="m 36,4 4,0 0,-4 24,0 0,4 4,0 0,24 -4,0 0,4 -24,0 0,-4 -4,0 z" style="opacity:1;fill:#b3b3b3;fill-opacity:0.50196078;fill-rule:nonzero;stroke:none;stroke-width:2;stroke-linecap:butt;stroke-linejoin:miter;stroke-miterlimit:4;stroke-dasharray:none;stroke-dashoffset:0;stroke-opacity:1" />
    <g id="g4860">
      <path inkscape:connector-curvature="0" style="opacity:1;fill:none;fill-opacity:0.50196078;fill-rule:nonzero;stroke:none;stroke-width:2;stroke-linecap:butt;stroke-linejoin:miter;stroke-miterlimit:4;stroke-dasharray:none;stroke-dashoffset:0;stroke-opacity:1" d="M 20,0 A 4,4 0 0 0 16.591797,1.9179688 12,12 0 0 0 12,1 12,12 0 0 0 0,13 12,12 0 0 0 2.486328,20.300781 4,4 0 0 0 0,24 4,4 0 0 0 4,28 4,4 0 0 0 6.228516,27.318359 4,4 0 0 0 10,30 4,4 0 0 0 12.228516,29.318359 4,4 0 0 0 16,32 4,4 0 0 0 19.771484,29.318359 4,4 0 0 0 22,30 4,4 0 0 0 22.839844,29.90625 8,8 0 0 0 24,30 8,8 0 0 0 32,22 8,8 0 0 0 30.791016,17.78125 8,8 0 0 0 31,16 8,8 0 0 0 28.962891,10.679688 4,4 0 0 0 30,8 4,4 0 0 0 26,4 4,4 0 0 0 23.955078,4.5683594 4,4 0 0 0 24,4 4,4 0 0 0 20,0 Z" id="path4836" />
      <path id="path7053" d="M 3 0 L 3 3 L 0 3 L 0 13 A 12 12 0 0 1 12 1 A 12 12 0 0 1 16.591797 1.9179688 A 4 4 0 0 1 20 0 L 3 0 z M 20 0 A 4 4 0 0 1 24 4 A 4 4 0 0 1 23.955078 4.5683594 A 4 4 0 0 1 26 4 A 4 4 0 0 1 30 8 A 4 4 0 0 1 28.962891 10.679688 A 8 8 0 0 1 31 16 A 8 8 0 0 1 30.791016 17.78125 A 8 8 0 0 1 32 22 L 32 3 L 29 3 L 29 0 L 20 0 z M 32 22 A 8 8 0 0 1 24 30 A 8 8 0 0 1 22.839844 29.90625 A 4 4 0 0 1 22 30 A 4 4 0 0 1 19.771484 29.318359 A 4 4 0 0 1 16 32 L 29 32 L 29 29 L 32 29 L 32 22 z M 16 32 A 4 4 0 0 1 12.228516 29.318359 A 4 4 0 0 1 10 30 A 4 4 0 0 1 6.2285156 27.318359 A 4 4 0 0 1 4 28 A 4 4 0 0 1 0 24 L 0 29 L 3 29 L 3 32 L 16 32 z M 0 24 A 4 4 0 0 1 2.4863281 20.300781 A 12 12 0 0 1 0 13 L 0 24 z " style="fill:black;fill-opacity:1;fill-rule:nonzero;stroke:none;stroke-width:2;stroke-linecap:round;stroke-linejoin:miter;stroke-miterlimit:4;stroke-dashoffset:0;stroke-opacity:1" />
      <path id="path2570" d="M 16 0 L 16 1.7050781 A 12 12 0 0 1 16.591797 1.9179688 A 4 4 0 0 1 20 0 L 16 0 z M 20 0 A 4 4 0 0 1 24 4 A 4 4 0 0 1 23.955078 4.5683594 A 4 4 0 0 1 26 4 A 4 4 0 0 1 30 8 A 4 4 0 0 1 28.962891 10.679688 A 8 8 0 0 1 31 16 L 32 16 L 32 4 L 28 4 L 28 0 L 20 0 z M 0 4 L 0 13 A 12 12 0 0 1 4.0371094 4.0371094 L 4 4 L 0 4 z M 0 13 L 0 16 L 0.40039062 16 A 12 12 0 0 1 0 13 z M 28 28.919922 A 8 8 0 0 1 24 30 A 8 8 0 0 1 22.839844 29.90625 A 4 4 0 0 1 22 30 A 4 4 0 0 1 19.771484 29.318359 A 4 4 0 0 1 16 32 L 28 32 L 28 28.919922 z " style="fill:aqua;fill-opacity:1;fill-rule:nonzero;stroke:none;stroke-width:2;stroke-linecap:round;stroke-linejoin:miter;stroke-miterlimit:4;stroke-dasharray:none;stroke-dashoffset:0;stroke-opacity:1" />
      <path id="path3342" d="M 4 0 L 4 4 L 4.0371094 4.0371094 A 12 12 0 0 1 4.0488281 4.0273438 A 12 12 0 0 1 4.921875 3.3261719 A 12 12 0 0 1 4.9921875 3.2714844 A 12 12 0 0 1 5.8886719 2.6875 A 12 12 0 0 1 6.0097656 2.6132812 A 12 12 0 0 1 6.9257812 2.140625 A 12 12 0 0 1 7.0898438 2.0625 A 12 12 0 0 1 7.9609375 1.7148438 A 12 12 0 0 1 8.2363281 1.6152344 A 12 12 0 0 1 9.0527344 1.3808594 A 12 12 0 0 1 9.4082031 1.2910156 A 12 12 0 0 1 10.167969 1.15625 A 12 12 0 0 1 10.623047 1.0878906 A 12 12 0 0 1 11.259766 1.0371094 A 12 12 0 0 1 12 1 A 12 12 0 0 1 13.189453 1.0644531 A 12 12 0 0 1 13.197266 1.0644531 A 12 12 0 0 1 13.257812 1.0742188 A 12 12 0 0 1 15.953125 1.6894531 A 12 12 0 0 1 16 1.7050781 L 16 0 L 4 0 z M 0 16 L 0 24 A 4 4 0 0 1 0.017578125 23.646484 A 4 4 0 0 1 0.048828125 23.410156 A 4 4 0 0 1 0.07421875 23.246094 A 4 4 0 0 1 0.1171875 23.058594 A 4 4 0 0 1 0.17382812 22.84375 A 4 4 0 0 1 0.2265625 22.689453 A 4 4 0 0 1 0.3046875 22.478516 A 4 4 0 0 1 0.38476562 22.304688 A 4 4 0 0 1 0.47851562 22.109375 A 4 4 0 0 1 0.56640625 21.960938 A 4 4 0 0 1 0.68359375 21.771484 A 4 4 0 0 1 0.79492188 21.619141 A 4 4 0 0 1 0.921875 21.453125 A 4 4 0 0 1 1.0566406 21.300781 A 4 4 0 0 1 1.1875 21.160156 A 4 4 0 0 1 1.3691406 20.996094 A 4 4 0 0 1 1.4785156 20.898438 A 4 4 0 0 1 1.7011719 20.734375 A 4 4 0 0 1 1.7988281 20.664062 A 4 4 0 0 1 2.0097656 20.539062 A 4 4 0 0 1 2.1601562 20.455078 A 4 4 0 0 1 2.4863281 20.300781 A 12 12 0 0 1 1.9316406 19.494141 A 12 12 0 0 1 1.6992188 19.119141 A 12 12 0 0 1 1.2929688 18.375 A 12 12 0 0 1 1.1757812 18.130859 A 12 12 0 0 1 0.7890625 17.222656 A 12 12 0 0 1 0.73828125 17.087891 A 12 12 0 0 1 0.40039062 16 L 0 16 z M 0 24 L 0 28 L 4 28 A 4 4 0 0 1 3.6621094 27.982422 A 4 4 0 0 1 3.4511719 27.957031 A 4 4 0 0 1 3.265625 27.929688 A 4 4 0 0 1 3.0429688 27.878906 A 4 4 0 0 1 2.8886719 27.839844 A 4 4 0 0 1 2.6738281 27.769531 A 4 4 0 0 1 2.4941406 27.703125 A 4 4 0 0 1 2.3203125 27.625 A 4 4 0 0 1 2.1347656 27.535156 A 4 4 0 0 1 1.9707031 27.441406 A 4 4 0 0 1 1.7832031 27.326172 A 4 4 0 0 1 1.6484375 27.228516 A 4 4 0 0 1 1.4628906 27.087891 A 4 4 0 0 1 1.3339844 26.974609 A 4 4 0 0 1 1.1738281 26.826172 A 4 4 0 0 1 1.0253906 26.666016 A 4 4 0 0 1 0.91210938 26.537109 A 4 4 0 0 1 0.77148438 26.351562 A 4 4 0 0 1 0.67382812 26.216797 A 4 4 0 0 1 0.55859375 26.029297 A 4 4 0 0 1 0.46484375 25.865234 A 4 4 0 0 1 0.375 25.679688 A 4 4 0 0 1 0.296875 25.505859 A 4 4 0 0 1 0.23046875 25.326172 A 4 4 0 0 1 0.16015625 25.111328 A 4 4 0 0 1 0.12109375 24.957031 A 4 4 0 0 1 0.0703125 24.734375 A 4 4 0 0 1 0.04296875 24.548828 A 4 4 0 0 1 0.017578125 24.337891 A 4 4 0 0 1 0 24 z M 4 28 L 4 32 L 16 32 A 4 4 0 0 1 15.746094 31.988281 A 4 4 0 0 1 15.513672 31.966797 A 4 4 0 0 1 15.371094 31.945312 A 4 4 0 0 1 15.134766 31.902344 A 4 4 0 0 1 14.955078 31.855469 A 4 4 0 0 1 14.751953 31.794922 A 4 4 0 0 1 14.564453 31.726562 A 4 4 0 0 1 14.380859 31.652344 A 4 4 0 0 1 14.216797 31.572266 A 4 4 0 0 1 14.015625 31.466797 A 4 4 0 0 1 13.869141 31.376953 A 4 4 0 0 1 13.683594 31.253906 A 4 4 0 0 1 13.542969 31.148438 A 4 4 0 0 1 13.367188 31.003906 A 4 4 0 0 1 13.21875 30.863281 A 4 4 0 0 1 13.101562 30.748047 A 4 4 0 0 1 12.9375 30.560547 A 4 4 0 0 1 12.832031 30.429688 A 4 4 0 0 1 12.710938 30.259766 A 4 4 0 0 1 12.603516 30.099609 A 4 4 0 0 1 12.507812 29.933594 A 4 4 0 0 1 12.408203 29.746094 A 4 4 0 0 1 12.328125 29.564453 A 4 4 0 0 1 12.228516 29.318359 A 4 4 0 0 1 11.917969 29.507812 A 4 4 0 0 1 11.90625 29.513672 A 4 4 0 0 1 11.652344 29.636719 A 4 4 0 0 1 11.556641 29.681641 A 4 4 0 0 1 11.546875 29.685547 A 4 4 0 0 1 11.353516 29.757812 A 4 4 0 0 1 11.160156 29.826172 A 4 4 0 0 1 11.148438 29.830078 A 4 4 0 0 1 11.041016 29.855469 A 4 4 0 0 1 10.765625 29.923828 A 4 4 0 0 1 10.759766 29.925781 A 4 4 0 0 1 10.710938 29.933594 A 4 4 0 0 1 10.365234 29.982422 A 4 4 0 0 1 10.363281 29.982422 A 4 4 0 0 1 10 30 A 4 4 0 0 1 9.7460938 29.988281 A 4 4 0 0 1 9.5136719 29.966797 A 4 4 0 0 1 9.3710938 29.945312 A 4 4 0 0 1 9.1347656 29.902344 A 4 4 0 0 1 8.9550781 29.855469 A 4 4 0 0 1 8.7519531 29.794922 A 4 4 0 0 1 8.5644531 29.726562 A 4 4 0 0 1 8.3808594 29.652344 A 4 4 0 0 1 8.2167969 29.572266 A 4 4 0 0 1 8.015625 29.466797 A 4 4 0 0 1 7.8691406 29.376953 A 4 4 0 0 1 7.6835938 29.253906 A 4 4 0 0 1 7.5429688 29.148438 A 4 4 0 0 1 7.3671875 29.003906 A 4 4 0 0 1 7.21875 28.863281 A 4 4 0 0 1 7.1015625 28.748047 A 4 4 0 0 1 6.9375 28.560547 A 4 4 0 0 1 6.8320312 28.429688 A 4 4 0 0 1 6.7109375 28.259766 A 4 4 0 0 1 6.6035156 28.099609 A 4 4 0 0 1 6.5078125 27.933594 A 4 4 0 0 1 6.4082031 27.746094 A 4 4 0 0 1 6.328125 27.564453 A 4 4 0 0 1 6.2285156 27.318359 A 4 4 0 0 1 5.9179688 27.507812 A 4 4 0 0 1 5.90625 27.513672 A 4 4 0 0 1 5.6523438 27.636719 A 4 4 0 0 1 5.5566406 27.681641 A 4 4 0 0 1 5.546875 27.685547 A 4 4 0 0 1 5.3535156 27.757812 A 4 4 0 0 1 5.1601562 27.826172 A 4 4 0 0 1 5.1484375 27.830078 A 4 4 0 0 1 5.0410156 27.855469 A 4 4 0 0 1 4.765625 27.923828 A 4 4 0 0 1 4.7597656 27.925781 A 4 4 0 0 1 4.7109375 27.933594 A 4 4 0 0 1 4.3652344 27.982422 A 4 4 0 0 1 4.3632812 27.982422 A 4 4 0 0 1 4 28 z M 31 16 A 8 8 0 0 1 30.974609 16.46875 A 8 8 0 0 1 30.941406 16.904297 A 8 8 0 0 1 30.882812 17.273438 A 8 8 0 0 1 30.791016 17.78125 A 8 8 0 0 1 31.089844 18.320312 A 8 8 0 0 1 31.265625 18.679688 A 8 8 0 0 1 31.429688 19.060547 A 8 8 0 0 1 31.5625 19.421875 A 8 8 0 0 1 31.683594 19.802734 A 8 8 0 0 1 31.789062 20.216797 A 8 8 0 0 1 31.861328 20.566406 A 8 8 0 0 1 31.925781 20.990234 A 8 8 0 0 1 31.96875 21.384766 A 8 8 0 0 1 32 22 L 32 16 L 31 16 z M 32 22 A 8 8 0 0 1 31.964844 22.699219 A 8 8 0 0 1 31.921875 23.037109 A 8 8 0 0 1 31.851562 23.498047 A 8 8 0 0 1 31.787109 23.785156 A 8 8 0 0 1 31.660156 24.291016 A 8 8 0 0 1 31.580078 24.53125 A 8 8 0 0 1 31.390625 25.048828 A 8 8 0 0 1 31.292969 25.265625 A 8 8 0 0 1 31.039062 25.787109 A 8 8 0 0 1 30.957031 25.929688 A 8 8 0 0 1 30.619141 26.482422 A 8 8 0 0 1 30.541016 26.589844 A 8 8 0 0 1 30.136719 27.121094 A 8 8 0 0 1 30.050781 27.21875 A 8 8 0 0 1 29.580078 27.722656 A 8 8 0 0 1 29.566406 27.736328 A 8 8 0 0 1 29.361328 27.925781 A 8 8 0 0 1 29.28125 28 L 32 28 L 32 22 z " style="fill:blue;fill-opacity:1;fill-rule:nonzero;stroke:none;stroke-width:2;stroke-linecap:round;stroke-linejoin:miter;stroke-miterlimit:4;stroke-dasharray:none;stroke-dashoffset:0;stroke-opacity:1" />
      <path id="rect3926" d="M 15 0 L 15 1.3984375 A 12 12 0 0 1 16.591797 1.9179688 A 4 4 0 0 1 17 1.3710938 L 17 0 L 15 0 z M 0 15 L 0 17 L 0.70703125 17 A 12 12 0 0 1 0.18359375 15 L 0 15 z M 30.927734 15 A 8 8 0 0 1 31 16 A 8 8 0 0 1 30.931641 17 L 32 17 L 32 15 L 30.927734 15 z M 17 31.867188 A 4 4 0 0 1 16 32 L 17 32 L 17 31.867188 z M 16 32 A 4 4 0 0 1 15 31.869141 L 15 32 L 16 32 z " style="fill:#0080ff;fill-opacity:1;fill-rule:nonzero;stroke:none;stroke-width:2;stroke-linecap:round;stroke-linejoin:miter;stroke-miterlimit:4;stroke-dasharray:none;stroke-dashoffset:0;stroke-opacity:1" />
      <path id="path3368" d="M 5 0 L 5.0195312 3.2519531 A 12 12 0 0 1 6.0136719 2.6113281 L 6 0 L 5 0 z M 7 0 L 7.0097656 2.0996094 A 12 12 0 0 1 8.0058594 1.6992188 L 8 0 L 7 0 z M 9 0 L 9 1.3945312 A 12 12 0 0 1 10 1.1816406 L 10 0 L 9 0 z M 11 0 L 11.003906 1.0507812 A 12 12 0 0 1 12 1 A 12 12 0 0 1 12.001953 1 L 12 0 L 11 0 z M 13 0 L 13.001953 1.046875 A 12 12 0 0 1 14.001953 1.1816406 L 14 0 L 13 0 z M 0 18 L 0 19 L 1.6269531 19 A 12 12 0 0 1 1.1113281 18 L 0 18 z M 30.935547 18.029297 A 8 8 0 0 1 31.417969 19.029297 L 32 19.03125 L 32 18.03125 L 30.935547 18.029297 z M 0 20 L 0 21 L 1.3652344 21 A 4 4 0 0 1 2.4863281 20.300781 A 12 12 0 0 1 2.2675781 20 L 0 20 z M 31.740234 20.03125 A 8 8 0 0 1 31.933594 21.03125 L 32 21.03125 L 32 20.03125 L 31.740234 20.03125 z M 0 22 L 0 23 L 0.13085938 23 A 4 4 0 0 1 0.54296875 22 L 0 22 z M 31.998047 22.03125 A 8 8 0 0 1 31.923828 23.03125 L 32 23.03125 L 32 22.03125 L 31.998047 22.03125 z M 0 24 L 0 25 L 0.1328125 25 A 4 4 0 0 1 0 24 z M 31.734375 24.029297 A 8 8 0 0 1 31.398438 25.029297 L 32 25.03125 L 32 24.03125 L 31.734375 24.029297 z M 0 26 L 0 27 L 1.3613281 27 A 4 4 0 0 1 0.54101562 26 L 0 26 z M 30.902344 26.025391 A 8 8 0 0 1 30.226562 27.019531 L 32 27.03125 L 32 26.03125 L 30.902344 26.025391 z M 6.0234375 27.443359 A 4 4 0 0 1 5.0253906 27.861328 L 5 32 L 6 32 L 6.0234375 27.443359 z M 7.015625 28.65625 L 7 32 L 8 32 L 8.0097656 29.464844 A 4 4 0 0 1 7.015625 28.65625 z M 12.005859 29.453125 A 4 4 0 0 1 11.005859 29.865234 L 11 32 L 12 32 L 12.005859 29.453125 z M 9 29.869141 L 9 32 L 10 32 L 10 30 A 4 4 0 0 1 9 29.869141 z M 13.003906 30.640625 L 13 32 L 14 32 L 14.001953 31.458984 A 4 4 0 0 1 13.003906 30.640625 z " style="fill:#6b6b6b;fill-opacity:1;fill-rule:nonzero;stroke:none;stroke-width:2;stroke-linecap:round;stroke-linejoin:miter;stroke-miterlimit:4;stroke-dasharray:none;stroke-dashoffset:0;stroke-opacity:1" />
      <path id="path3626" d="M 18.03125 0 L 18.029297 0.52539062 A 4 4 0 0 1 19.03125 0.12695312 L 19.03125 0 L 18.03125 0 z M 20.03125 0 L 20.03125 0.001953125 A 4 4 0 0 1 21.03125 0.13671875 L 21.03125 0 L 20.03125 0 z M 22.03125 0 L 22.03125 0.56054688 A 4 4 0 0 1 23.03125 1.3945312 L 23.03125 0 L 22.03125 0 z M 24 0 L 24 4 L 24 4.5429688 A 4 4 0 0 1 25.013672 4.1308594 L 25.03125 0 L 24 0 z M 26.03125 0 L 26.009766 4 A 4 4 0 0 1 27.005859 4.1328125 L 27.03125 0 L 26.03125 0 z M 0 5 L 0 6 L 2.2636719 6.0117188 A 12 12 0 0 1 3.0585938 5.0195312 L 0 5 z M 28.638672 5 A 4 4 0 0 1 29.458984 6 L 32 6 L 32 5 L 28.638672 5 z M 0 7 L 0 8.03125 L 1.09375 8.03125 A 12 12 0 0 1 1.6191406 7.0078125 L 0 7 z M 29.867188 7 A 4 4 0 0 1 30 8 A 4 4 0 0 1 30 8.0234375 L 32 8.03125 L 32 7 L 29.867188 7 z M 29.871094 8.9921875 A 4 4 0 0 1 29.460938 9.9921875 L 32 10 L 32 9 L 29.871094 8.9921875 z M 0 9 L 0 10 L 0.390625 10 A 12 12 0 0 1 0.70117188 9 L 0 9 z M 0 11 L 0 12 L 0.046875 12 A 12 12 0 0 1 0.16992188 11 L 0 11 z M 29.226562 11 A 8 8 0 0 1 29.912109 12 L 32 12 L 32 11 L 29.226562 11 z M 0 13 L 0 14 L 0.05078125 14 A 12 12 0 0 1 0 13 z M 30.40625 13 A 8 8 0 0 1 30.732422 14 L 32 14 L 32 13 L 30.40625 13 z M 26.984375 29.416016 A 8 8 0 0 1 25.988281 29.738281 L 26 32 L 27 32 L 26.984375 29.416016 z M 19.994141 29.453125 L 20 32 L 21 32 L 20.994141 29.865234 A 4 4 0 0 1 19.994141 29.453125 z M 22.839844 29.90625 A 4 4 0 0 1 22 30 L 22 32 L 23 32 L 23 29.921875 A 8 8 0 0 1 22.839844 29.90625 z M 24.990234 29.931641 A 8 8 0 0 1 24 30 A 8 8 0 0 1 23.96875 29.998047 L 23.96875 32 L 25 32 L 24.990234 29.931641 z M 18.996094 30.634766 A 4 4 0 0 1 17.998047 31.458984 L 18 32 L 19 32 L 18.996094 30.634766 z " style="fill:#c3c3c3;fill-opacity:1;fill-rule:nonzero;stroke:none;stroke-width:2;stroke-linecap:round;stroke-linejoin:miter;stroke-miterlimit:4;stroke-dasharray:none;stroke-dashoffset:0;stroke-opacity:1" />
    </g>
    <circle style="opacity:1;fill:red;fill-opacity:0.50196078;fill-rule:nonzero;stroke:none;stroke-width:2;stroke-linecap:butt;stroke-linejoin:miter;stroke-miterlimit:4;stroke-dasharray:none;stroke-dashoffset:0;stroke-opacity:1" id="path4749" cx="52" cy="16" r="8" />
    <circle style="opacity:1;fill:red;fill-opacity:0.50196078;fill-rule:nonzero;stroke:none;stroke-width:2;stroke-linecap:butt;stroke-linejoin:miter;stroke-miterlimit:4;stroke-dasharray:none;stroke-dashoffset:0;stroke-opacity:1" id="path4751" cx="48" cy="13" r="12" />
    <circle r="8" cy="20" cx="48" id="circle4753" style="opacity:1;fill:red;fill-opacity:0.50196078;fill-rule:nonzero;stroke:none;stroke-width:2;stroke-linecap:butt;stroke-linejoin:miter;stroke-miterlimit:4;stroke-dasharray:none;stroke-dashoffset:0;stroke-opacity:1" />
    <circle style="opacity:1;fill:red;fill-opacity:0.50196078;fill-rule:nonzero;stroke:none;stroke-width:2;stroke-linecap:butt;stroke-linejoin:miter;stroke-miterlimit:4;stroke-dasharray:none;stroke-dashoffset:0;stroke-opacity:1" id="circle4755" cx="59" cy="16" r="8" />
    <circle style="opacity:1;fill:red;fill-opacity:0.50196078;fill-rule:nonzero;stroke:none;stroke-width:2;stroke-linecap:butt;stroke-linejoin:miter;stroke-miterlimit:4;stroke-dasharray:none;stroke-dashoffset:0;stroke-opacity:1" id="path4757" cx="56" cy="4" r="4" />
    <circle r="4" cy="8" cx="62" id="circle4759" style="opacity:1;fill:red;fill-opacity:0.50196078;fill-rule:nonzero;stroke:none;stroke-width:2;stroke-linecap:butt;stroke-linejoin:miter;stroke-miterlimit:4;stroke-dasharray:none;stroke-dashoffset:0;stroke-opacity:1" />
    <circle style="opacity:1;fill:red;fill-opacity:0.50196078;fill-rule:nonzero;stroke:none;stroke-width:2;stroke-linecap:butt;stroke-linejoin:miter;stroke-miterlimit:4;stroke-dasharray:none;stroke-dashoffset:0;stroke-opacity:1" id="circle4761" cx="58" cy="26" r="4" />
    <circle r="4" cy="28" cx="52" id="circle4763" style="opacity:1;fill:red;fill-opacity:0.50196078;fill-rule:nonzero;stroke:none;stroke-width:2;stroke-linecap:butt;stroke-linejoin:miter;stroke-miterlimit:4;stroke-dasharray:none;stroke-dashoffset:0;stroke-opacity:1" />
    <circle style="opacity:1;fill:red;fill-opacity:0.50196078;fill-rule:nonzero;stroke:none;stroke-width:2;stroke-linecap:butt;stroke-linejoin:miter;stroke-miterlimit:4;stroke-dasharray:none;stroke-dashoffset:0;stroke-opacity:1" id="circle4765" cx="46" cy="26" r="4" />
    <circle r="4" cy="24" cx="40" id="circle4767" style="opacity:1;fill:red;fill-opacity:0.50196078;fill-rule:nonzero;stroke:none;stroke-width:2;stroke-linecap:butt;stroke-linejoin:miter;stroke-miterlimit:4;stroke-dasharray:none;stroke-dashoffset:0;stroke-opacity:1" />
    <circle style="opacity:1;fill:red;fill-opacity:0.50196078;fill-rule:nonzero;stroke:none;stroke-width:2;stroke-linecap:butt;stroke-linejoin:miter;stroke-miterlimit:4;stroke-dasharray:none;stroke-dashoffset:0;stroke-opacity:1" id="circle4769" cx="42" cy="18" r="4" />
    <circle style="opacity:1;fill:red;fill-opacity:0.50196078;fill-rule:nonzero;stroke:none;stroke-width:2;stroke-linecap:butt;stroke-linejoin:miter;stroke-miterlimit:4;stroke-dasharray:none;stroke-dashoffset:0;stroke-opacity:1" id="circle4771" cx="60" cy="22" r="8" />
    <path style="opacity:1;fill:red;fill-opacity:0.50196078;fill-rule:nonzero;stroke:none;stroke-width:2;stroke-linecap:butt;stroke-linejoin:miter;stroke-miterlimit:4;stroke-dasharray:none;stroke-dashoffset:0;stroke-opacity:1" d="M 56 0 A 4 4 0 0 0 52.591797 1.9179688 A 12 12 0 0 0 48 1 A 12 12 0 0 0 36 13 A 12 12 0 0 0 38.486328 20.300781 A 4 4 0 0 0 36 24 A 4 4 0 0 0 40 28 A 4 4 0 0 0 42.228516 27.318359 A 4 4 0 0 0 46 30 A 4 4 0 0 0 48.228516 29.318359 A 4 4 0 0 0 52 32 A 4 4 0 0 0 55.771484 29.318359 A 4 4 0 0 0 58 30 A 4 4 0 0 0 58.839844 29.90625 A 8 8 0 0 0 60 30 A 8 8 0 0 0 68 22 A 8 8 0 0 0 66.791016 17.78125 A 8 8 0 0 0 67 16 A 8 8 0 0 0 64.962891 10.679688 A 4 4 0 0 0 66 8 A 4 4 0 0 0 62 4 A 4 4 0 0 0 59.955078 4.5683594 A 4 4 0 0 0 60 4 A 4 4 0 0 0 56 0 z " id="circle4811" />
  </g>
</svg>
