<?xml version="1.0" encoding="UTF-8" standalone="no"?>
<!-- Created with Inkscape (http://www.inkscape.org/) -->

<svg xmlns:dc="http://purl.org/dc/elements/1.1/" xmlns:cc="http://creativecommons.org/ns#" xmlns:rdf="http://www.w3.org/1999/02/22-rdf-syntax-ns#" xmlns:svg="http://www.w3.org/2000/svg" xmlns="http://www.w3.org/2000/svg" xmlns:sodipodi="http://sodipodi.sourceforge.net/DTD/sodipodi-0.dtd" xmlns:inkscape="http://www.inkscape.org/namespaces/inkscape" width="32" height="32" id="svg4150" version="1.1" inkscape:version="0.91 r13725" viewBox="0 0 32 32" sodipodi:docname="15.svg">
  <defs id="defs4152" />
  <sodipodi:namedview id="base" pagecolor="#ffffff" bordercolor="#666666" borderopacity="1.0" inkscape:pageopacity="0.0" inkscape:pageshadow="2" inkscape:zoom="22.125" inkscape:cx="6.8700565" inkscape:cy="16" inkscape:current-layer="g6648" showgrid="true" inkscape:grid-bbox="true" inkscape:document-units="px" objecttolerance="12" inkscape:snap-perpendicular="true" guidetolerance="10" inkscape:window-width="1600" inkscape:window-height="878" inkscape:window-x="0" inkscape:window-y="0" inkscape:window-maximized="1" showguides="true" inkscape:guide-bbox="true" inkscape:snap-tangential="true" gridtolerance="15">
    <inkscape:grid type="xygrid" id="grid4698" empspacing="4" />
    <sodipodi:guide position="16,17" orientation="1,0" id="guide6597" />
    <sodipodi:guide position="18,16" orientation="0,1" id="guide6599" />
  </sodipodi:namedview>
  <metadata id="metadata4155">
    <rdf:RDF>
      <cc:Work rdf:about="">
        <dc:format>image/svg+xml</dc:format>
        <dc:type rdf:resource="http://purl.org/dc/dcmitype/StillImage" />
        <dc:title></dc:title>
      </cc:Work>
    </rdf:RDF>
  </metadata>
  <g id="layer1" inkscape:label="Layer 1" inkscape:groupmode="layer">
    <g id="g6648">
      <rect y="0" x="0" height="32" width="32" id="rect6646" style="opacity:1;fill:none;fill-opacity:0.50196078;fill-rule:nonzero;stroke:none;stroke-width:2;stroke-linecap:butt;stroke-linejoin:miter;stroke-miterlimit:4;stroke-dasharray:none;stroke-dashoffset:0;stroke-opacity:1" />
      <path id="path7053" d="M 3 0 L 3 3 L 0 3 L 0 4 L 1 4 L 2 4 L 4 4 L 4 2 L 4 1 L 4 0 L 3 0 z M 28 0 L 28 1 L 28 2 L 28 4 L 30 4 L 31 4 L 32 4 L 32 3 L 29 3 L 29 0 L 28 0 z M 0 28 L 0 29 L 3 29 L 3 32 L 4 32 L 4 31 L 4 30 L 4 28 L 2 28 L 1 28 L 0 28 z M 28 28 L 28 30 L 28 31 L 28 32 L 29 32 L 29 29 L 32 29 L 32 28 L 31 28 L 30 28 L 28 28 z " style="fill:black;fill-opacity:0.1254902;fill-rule:nonzero;stroke:none;stroke-width:2;stroke-linecap:round;stroke-linejoin:miter;stroke-miterlimit:4;stroke-dashoffset:0;stroke-opacity:1" />
      <path style="opacity:1;fill:#8181ff;fill-opacity:0.1254902;fill-rule:nonzero;stroke:none;stroke-width:2;stroke-linecap:butt;stroke-linejoin:miter;stroke-miterlimit:4;stroke-dasharray:none;stroke-dashoffset:0;stroke-opacity:1" d="M 4 0 L 4 4 L 16 16 L 16 0 L 4 0 z M 16 16 L 28 28 L 32 28 L 32 16 L 16 16 z M 16 16 L 0 16 L 0 28 L 4 28 L 4 32 L 16 32 L 16 16 z " id="path6589" />
      <path style="opacity:1;fill:navy;fill-opacity:0.12408759;fill-rule:nonzero;stroke:none;stroke-width:2;stroke-linecap:butt;stroke-linejoin:miter;stroke-miterlimit:4;stroke-dasharray:none;stroke-dashoffset:0;stroke-opacity:1" d="M 16 0 L 16 16 L 32 16 L 32 4 L 28 4 L 28 0 L 16 0 z M 16 16 L 16 32 L 28 32 L 28 28 L 16 16 z M 16 16 L 4 4 L 0 4 L 0 16 L 16 16 z " id="path6591" />
    </g>
  </g>
</svg>
