<?xml version="1.0" encoding="UTF-8" standalone="no"?>
<!-- Created with Inkscape (http://www.inkscape.org/) -->

<svg xmlns:dc="http://purl.org/dc/elements/1.1/" xmlns:cc="http://creativecommons.org/ns#" xmlns:rdf="http://www.w3.org/1999/02/22-rdf-syntax-ns#" xmlns:svg="http://www.w3.org/2000/svg" xmlns="http://www.w3.org/2000/svg" xmlns:sodipodi="http://sodipodi.sourceforge.net/DTD/sodipodi-0.dtd" xmlns:inkscape="http://www.inkscape.org/namespaces/inkscape" width="256" height="256" id="svg3505" sodipodi:version="0.32" inkscape:version="0.91 r13725" sodipodi:docname="icon.svg" inkscape:output_extension="org.inkscape.output.svg.inkscape" version="1.1">
  <sodipodi:namedview id="base" pagecolor="#ffffff" bordercolor="#666666" borderopacity="1.0" inkscape:pageopacity="0.0" inkscape:pageshadow="2" inkscape:zoom="2.765625" inkscape:cx="128" inkscape:cy="128" inkscape:current-layer="g12759" showgrid="true" inkscape:grid-bbox="true" inkscape:document-units="px" objecttolerance="10000" gridtolerance="10000" guidetolerance="10000" inkscape:window-width="1477" inkscape:window-height="827" inkscape:window-x="1861" inkscape:window-y="125" inkscape:object-paths="true" inkscape:object-nodes="true" inkscape:snap-bbox="true" inkscape:snap-guide="true" showguides="true" inkscape:guide-bbox="true" inkscape:window-maximized="0">
    <inkscape:grid type="xygrid" id="grid3515" units="px" visible="true" enabled="true" spacingx="1px" spacingy="1px" empspacing="4" snapvisiblegridlinesonly="true" />
  </sodipodi:namedview>
  <defs id="defs3507">
    <inkscape:path-effect effect="envelope" id="path-effect6170" is_visible="true" yy="true" xx="true" bendpath1="m -32,-16 32,0" bendpath2="M 0,-16 0,16" bendpath3="M -32,16 0,16" bendpath4="m -32,-16 0,32" />
    <inkscape:perspective sodipodi:type="inkscape:persp3d" inkscape:vp_x="0 : 16 : 1" inkscape:vp_y="0 : 1000 : 0" inkscape:vp_z="32 : 16 : 1" inkscape:persp3d-origin="16 : 10.666667 : 1" id="perspective2836" />
    <inkscape:perspective id="perspective2899" inkscape:persp3d-origin="0.5 : 0.33333333 : 1" inkscape:vp_z="1 : 0.5 : 1" inkscape:vp_y="0 : 1000 : 0" inkscape:vp_x="0 : 0.5 : 1" sodipodi:type="inkscape:persp3d" />
    <inkscape:perspective id="perspective3072" inkscape:persp3d-origin="0.5 : 0.33333333 : 1" inkscape:vp_z="1 : 0.5 : 1" inkscape:vp_y="0 : 1000 : 0" inkscape:vp_x="0 : 0.5 : 1" sodipodi:type="inkscape:persp3d" />
  </defs>
  <metadata id="metadata3510">
    <rdf:RDF>
      <cc:Work rdf:about="">
        <dc:format>image/svg+xml</dc:format>
        <dc:type rdf:resource="http://purl.org/dc/dcmitype/StillImage" />
        <dc:title></dc:title>
        <dc:date>2010-05-08</dc:date>
        <dc:creator>
          <cc:Agent>
            <dc:title>Andreas Neudecker &lt;zapyon@gmx.net&gt;</dc:title>
          </cc:Agent>
        </dc:creator>
        <dc:rights>
          <cc:Agent>
            <dc:title>Copyright (C) 2010 by Andreas Neudecker</dc:title>
          </cc:Agent>
        </dc:rights>
        <dc:publisher>
          <cc:Agent>
            <dc:title>Andreas Neudecker</dc:title>
          </cc:Agent>
        </dc:publisher>
        <dc:identifier>__empty__</dc:identifier>
        <dc:description>Template for McMinos SVG icons at a base size of 32x32 pixels.</dc:description>
      </cc:Work>
    </rdf:RDF>
  </metadata>
  <g id="layer1" inkscape:label="Layer 1" inkscape:groupmode="layer" transform="translate(0,224)">
    <g id="g12819">
      <rect transform="translate(0,-224)" y="0" x="0" height="256" width="256" id="rect12817" style="fill:none;fill-opacity:0.25098039000000000;stroke:none" />
      <g transform="matrix(1.0198877,0,0,1.0198877,-6.8195692e-8,1.9092174)" id="g12759">
        <g id="g44249" transform="matrix(4.5960943,0,0,4.5960943,107.85501,-221.50427)">
          <rect y="0" x="0" height="32" width="32" id="rect44218" style="opacity:1;fill:none;fill-opacity:0.1254902;fill-rule:nonzero;stroke:none;stroke-width:2;stroke-linecap:butt;stroke-linejoin:miter;stroke-miterlimit:4;stroke-dasharray:none;stroke-dashoffset:0;stroke-opacity:1" />
          <path inkscape:connector-curvature="0" style="fill:black;fill-opacity:1;fill-rule:nonzero;stroke:black;stroke-width:2;stroke-linecap:round;stroke-linejoin:miter;stroke-miterlimit:4;stroke-dasharray:none;stroke-dashoffset:0;stroke-opacity:1" d="M 2.0347838,25 C 0.04412913,18.975221 8.1866267,1 16,1 23.813372,1 31.990654,18.975221 30,25 28.009345,31.024779 20.454309,31 16,31 11.545691,31 4.0254384,31.02478 2.0347838,25 Z" id="path4706" sodipodi:nodetypes="czzzz" />
          <path inkscape:connector-curvature="0" sodipodi:nodetypes="czzzz" id="path4696" d="M 2,25 C 0.00686929,18.967574 8.1769084,1 16,1 23.823091,1 31.99313,18.967574 30,25 28.006869,31.032425 20.459849,31 16,31 11.540151,31 3.9931306,31.03242 2,25 Z" style="fill:yellow;fill-opacity:1;fill-rule:nonzero;stroke:none" />
          <ellipse ry="5.5" rx="6" cy="10.5" cx="16" style="fill:#c0c000;fill-opacity:1;fill-rule:nonzero;stroke:none" id="path4700" transform="matrix(1.1687347,0,0,1.2749395,-2.6996583,-1.4252614)" />
          <ellipse ry="5.5" rx="6" cy="10.5" cx="16" transform="matrix(1.0000062,0,0,1.0908783,-4.3499888e-6,0.5073808)" id="path4698" style="fill:white;fill-opacity:1;fill-rule:nonzero;stroke:none" />
          <circle r="2" cy="13" cx="16" inkscape:transform-center-x="3" transform="matrix(1.0000062,0,0,1,-3.0000992,-1)" id="path4702" style="fill:black;fill-opacity:1;fill-rule:nonzero;stroke:none" />
          <path inkscape:connector-curvature="0" sodipodi:nodetypes="ccccc" id="rect4727" d="m 8,21.5 0,4.5 6,0 0,-3 -6,-1.5 z" style="color:black;font-style:normal;font-variant:normal;font-weight:normal;font-stretch:normal;font-size:medium;line-height:normal;font-family:'Bitstream Vera Sans';-inkscape-font-specification:'Bitstream Vera Sans';text-indent:0;text-align:start;text-decoration:none;text-decoration-line:none;letter-spacing:normal;word-spacing:normal;text-transform:none;direction:ltr;block-progression:tb;writing-mode:lr-tb;text-anchor:start;display:inline;overflow:visible;visibility:visible;fill:black;fill-opacity:1;fill-rule:nonzero;stroke:none;stroke-width:2;marker:none;enable-background:accumulate" />
          <path inkscape:connector-curvature="0" sodipodi:nodetypes="ccccc" id="rect4723" d="m 9,22 4,1 0,2 -4,0 0,-3 z" style="fill:white;fill-opacity:1;fill-rule:nonzero;stroke:none" />
          <path inkscape:connector-curvature="0" sodipodi:nodetypes="ccccc" id="rect4725" d="m 11,22.5 2,0.5 0,2 -2,0 0,-2.5 z" style="fill:#f0ffff;fill-opacity:1;fill-rule:nonzero;stroke:none" />
          <path inkscape:connector-curvature="0" sodipodi:nodetypes="czczc" id="path4704" d="m 28,19 c -1e-6,0 -4.011003,4 -12,4 -7.9889968,0 -12.0000002,-4 -12,-4 0,0 4.011967,4 12,4 7.988033,0 12,-4 12,-4 z" style="fill:#400000;fill-opacity:1;fill-rule:nonzero;stroke:maroon;stroke-width:1.0000031;stroke-linecap:round;stroke-linejoin:round;stroke-miterlimit:4;stroke-dashoffset:0;stroke-opacity:1" />
        </g>
        <g id="g10434" transform="matrix(1.0666666,0,0,1.0666666,162.89371,-0.33278515)">
          <circle r="91.92189" cy="-68.545982" cx="-60.79097" style="fill:black;fill-opacity:1;fill-rule:nonzero;stroke:none" id="path4818" />
          <circle r="85.793762" cy="-68.546021" cx="-60.791016" style="fill:#ff8000;fill-opacity:1;fill-rule:nonzero;stroke:none" id="path3403" />
          <path sodipodi:type="arc" style="fill:maroon;fill-opacity:1;fill-rule:nonzero;stroke:none" id="path3429" sodipodi:cx="-60.791023" sodipodi:cy="-68.545898" sodipodi:rx="79.665634" sodipodi:ry="79.665596" d="M 18.874611,-68.545898 A 79.665634,79.665596 0 0 1 -20.958207,0.44653213 79.665634,79.665596 0 0 1 -100.62384,0.44653028 79.665634,79.665596 0 0 1 -140.45666,-68.545902" sodipodi:start="0" sodipodi:end="3.1415927" sodipodi:open="true" />
          <circle r="24.512503" cy="-105.31478" cx="-103.6879" style="fill:white;fill-opacity:1;fill-rule:nonzero;stroke:none" id="path3407" />
          <circle r="24.512503" cy="-105.31478" cx="-17.89414" id="path3425" style="fill:white;fill-opacity:1;fill-rule:nonzero;stroke:none" />
          <circle r="12.256251" cy="-105.31476" cx="-103.68788" style="fill:black;fill-opacity:1;fill-rule:nonzero;stroke:none" id="path3409" />
          <circle r="12.256251" cy="-105.31476" cx="-17.894125" id="path3427" style="fill:black;fill-opacity:1;fill-rule:nonzero;stroke:none" />
          <ellipse ry="21.448441" rx="30.640629" cy="-47.097561" cx="-60.791" style="fill:#500;fill-opacity:1;stroke:none" id="path5770" />
          <ellipse ry="12.256251" rx="4.5960941" cy="-56.289745" cx="-60.791" id="path5707" style="fill:#ff0001;fill-opacity:1;stroke:none" />
          <path transform="translate(-28.90153,-216.1389)" d="M 29.803796,93.180107 14.817434,89.083468 4.7326456,100.06858 7.3198095,82.56186 -9.0146473,82.12954 4.1087786,71.090573 1.9915764,62.315657 15.7957,70.65078 29.750584,67.319823 23.979179,79.986948 Z" inkscape:randomized="0.17" inkscape:rounded="0" inkscape:flatsided="false" sodipodi:arg2="1.2163211" sodipodi:arg1="0.5880026" sodipodi:r2="8.8381081" sodipodi:r1="22.09527" sodipodi:cy="79.665634" sodipodi:cx="12.256251" sodipodi:sides="5" id="path5483" style="fill:yellow;fill-opacity:1;fill-rule:nonzero;stroke:none" sodipodi:type="star" />
          <path d="M 68.310067,100.76132 52.941615,94.037246 42.110712,107.29631 43.840759,91.765778 30.877761,90.722325 43.91691,84.144385 42.798554,68.844081 51.059713,80.761517 62.681276,71.508439 57.986289,88.478358 Z" inkscape:randomized="0.15" inkscape:rounded="0" inkscape:flatsided="false" sodipodi:arg2="1.1451075" sodipodi:arg1="0.51678902" sodipodi:r2="8.4583216" sodipodi:r1="21.145803" sodipodi:cy="87.602058" sodipodi:cx="49.025005" sodipodi:sides="5" id="path5730" style="fill:yellow;fill-opacity:1;fill-rule:nonzero;stroke:none" sodipodi:type="star" transform="translate(-170.54598,-117.87627)" />
        </g>
        <path sodipodi:open="true" sodipodi:type="arc" style="fill:white;fill-opacity:1;fill-rule:nonzero;stroke:none" id="path3443" sodipodi:cx="98.050018" sodipodi:cy="-68.546021" sodipodi:rx="85.79377" sodipodi:ry="8.2500937e-06" sodipodi:start="3.1415927" sodipodi:end="6.2831853" />
        <g transform="matrix(5.2632784,0,0,5.2632784,-42.309894,-85.677108)" id="g9509">
          <path inkscape:connector-curvature="0" style="fill:none;stroke:black;stroke-width:3;stroke-linecap:round;stroke-linejoin:round;stroke-miterlimit:4;stroke-dasharray:none;stroke-opacity:1" d="m 14,11 -2.5,1.5 3,1 c 0,0 -1.274583,0.828752 -2,1 -0.648833,0.153169 -2,0 -2,0" id="path5189" sodipodi:nodetypes="cccac" />
          <path inkscape:connector-curvature="0" sodipodi:nodetypes="cccac" id="path3101" d="m 14,11 -2.5,1.5 3,1 c 0,0 -1.274583,0.828752 -2,1 -0.648833,0.153169 -2,0 -2,0" style="fill:none;stroke:red;stroke-linecap:round;stroke-linejoin:round;stroke-opacity:1" />
          <path inkscape:connector-curvature="0" style="fill:none;stroke:black;stroke-width:3;stroke-linecap:round;stroke-linejoin:round;stroke-miterlimit:4;stroke-dasharray:none;stroke-dashoffset:0;stroke-opacity:1" d="m 17,11 2,2 -2.5,1.5 c 0,0 1.333333,0.666667 2,1 0.666667,0.333333 2,1 2,1" id="path5191" sodipodi:nodetypes="cccac" />
          <path inkscape:connector-curvature="0" sodipodi:nodetypes="cccac" id="path3875" d="m 17,11 2,2 -2.5,1.5 c 0,0 1.333333,0.666667 2,1 0.666667,0.333333 2,1 2,1" style="fill:none;stroke:red;stroke-width:1;stroke-linecap:round;stroke-linejoin:round;stroke-miterlimit:4;stroke-dasharray:none;stroke-dashoffset:0;stroke-opacity:1" />
          <g transform="translate(0,-9)" id="g3526">
            <path inkscape:connector-curvature="0" sodipodi:nodetypes="czzzz" id="path3524" d="m 15,11 c -3,0 -4,1.275739 -4,4 0,3 1,5 4,5 3,0 5,-2 5,-5 0,-3 -2,-4 -5,-4 z" style="fill:lime;fill-opacity:1;fill-rule:nonzero;stroke:black;stroke-width:2;stroke-linecap:round;stroke-linejoin:round;stroke-miterlimit:4;stroke-dasharray:none;stroke-dashoffset:0;stroke-opacity:1" />
            <path inkscape:connector-curvature="0" style="fill:lime;fill-opacity:1;fill-rule:nonzero;stroke:none" d="m 15,11 c -3,0 -4,1.275739 -4,4 0,3 1,5 4,5 3,0 5,-2 5,-5 0,-3 -2,-4 -5,-4 z" id="path2735" sodipodi:nodetypes="czzzz" />
            <path inkscape:connector-curvature="0" style="fill:#00c000;fill-opacity:1;fill-rule:nonzero;stroke:none" d="m 14,13 -2.9375,1.21875 C 11.041108,14.464326 11,14.725104 11,15 c 0,3 1,5 4,5 1.258567,0 2.323516,-0.369839 3.15625,-1 C 17.280225,18.953125 15.425204,18.75 14.6875,18 13.703893,17 15,16 15,16 15,16 13.012807,16.605533 12.40625,15.6875 11.799692,14.769467 14,13 14,13 Z" id="path3507" />
            <path inkscape:connector-curvature="0" style="fill:#80ff00;fill-opacity:1;fill-rule:nonzero;stroke:none" d="m 15,11 c -0.667647,0 -1.206943,0.09048 -1.6875,0.21875 C 13.561078,11.195502 15,11.082317 15,12 c 0,0.842105 0,1.674301 0,2 0.04687,-0.663934 0.25,-2 1,-2 0.989012,0 2.772834,0.03034 2.8125,0.03125 C 17.933111,11.29631 16.614329,11 15,11 Z" id="path3512" />
            <path inkscape:connector-curvature="0" style="fill:#80ff00;fill-opacity:1;fill-rule:nonzero;stroke:none" d="M 18.71875,11.9375 18.625,12 19.1875,12.40625 C 19.044956,12.236802 18.895244,12.072998 18.71875,11.9375 Z m 0.46875,0.46875 c 0,0 -1.908811,0.434939 -2.1875,1.15625 -0.278689,0.721312 1,0.875 1,0.875 0,0 -1,0.5625 -1,1.5625 0,1 0.5,2.4375 0.5,2.4375 -1e-6,1e-6 -0.5,-1.978484 0.5,-2.4375 1,-0.459016 1.875,0.1875 1.875,0.1875 C 19.951185,15.808259 20,15.421493 20,15 20,13.864583 19.706252,13.022915 19.1875,12.40625 Z" id="path3519" />
          </g>
        </g>
      </g>
      <path inkscape:connector-curvature="0" id="path6172" d="" style="fill:red;fill-opacity:0.25157231;stroke:none" />
    </g>
    <g transform="matrix(4.6990856,0,0,4.6990957,104.82178,-118.37106)" id="g7800">
      <g transform="translate(0.9999844,2)" id="g7166">
        <path style="color:black;font-style:normal;font-variant:normal;font-weight:normal;font-stretch:normal;font-size:medium;line-height:normal;font-family:sans-serif;text-indent:0;text-align:start;text-decoration:none;text-decoration-line:none;text-decoration-style:solid;text-decoration-color:black;letter-spacing:normal;word-spacing:normal;text-transform:none;direction:ltr;block-progression:tb;writing-mode:lr-tb;baseline-shift:baseline;text-anchor:start;white-space:normal;clip-rule:nonzero;display:inline;overflow:visible;visibility:visible;opacity:1;isolation:auto;mix-blend-mode:normal;color-interpolation:sRGB;color-interpolation-filters:linearRGB;solid-color:black;solid-opacity:1;fill:black;fill-opacity:1;fill-rule:nonzero;stroke:none;stroke-width:2;stroke-linecap:butt;stroke-linejoin:miter;stroke-miterlimit:4;stroke-dasharray:none;stroke-dashoffset:0;stroke-opacity:1;color-rendering:auto;image-rendering:auto;shape-rendering:auto;text-rendering:auto;enable-background:accumulate" d="m 10,11 0,1 -8.8339844,0 0.9941406,1.541016 c 1.2358597,1.917408 3.1570959,3.382463 5.3183594,4.675781 0.1603432,0.09779 0.3220335,0.195644 0.4882813,0.292969 l 0.00391,0.002 0.00195,0.002 c 0.071025,0.04092 0.1374042,0.07646 0.1953126,0.109375 C 8.7332991,18.948921 9.3633557,19.274471 10,19.599609 L 10,21 l 0.806641,0 c -0.0707,0.613341 -0.08459,1.220298 -0.38086,1.859375 -0.6847784,1.373853 -1.9972596,2.840904 -4.019531,4.335937 L 6,27.496094 6,30 24,30 24,27.498047 23.597656,27.197266 C 20.473523,24.869377 19.360407,22.889522 19.109375,21 L 20,21 l 0,-1.382812 8,-4 L 28,12 l -8,0 0,-1 z" id="rect7102" inkscape:connector-curvature="0" sodipodi:nodetypes="ccccccccccccccccccccccccccc" />
        <g id="g3841" transform="translate(-1,4.0000003)">
          <rect y="8" x="12" height="8" width="8" id="rect3040" style="fill:#666;fill-opacity:1;stroke:none" />
          <path inkscape:connector-curvature="0" id="path3042" d="M 12,9 4,9 4,9 c 1.369682,2.036027 3.9858877,4.037429 8,6 z" style="fill:#666;fill-opacity:1;stroke:none" sodipodi:nodetypes="ccccc" />
          <path sodipodi:nodetypes="ccccc" inkscape:connector-curvature="0" id="path3044" d="m 20,9 0,6 8,-4 0,-2 z" style="fill:#666;fill-opacity:1;stroke:none" />
          <path sodipodi:nodetypes="ccccc" inkscape:connector-curvature="0" id="path3046" d="m 13,16 c 0.120249,2.59519 -1.090732,5.243629 -5,8 l 16,0 c -3.819564,-2.846075 -5.048772,-5.476287 -5,-8 z" style="fill:#666;fill-opacity:1;stroke:none" />
          <rect y="24" x="8" height="1" width="16" id="rect3048" style="fill:black;fill-opacity:1;stroke:none" />
          <path inkscape:connector-curvature="0" id="path3050" d="m 20,9 0,1 8,0 0,-1 z" style="fill:white;fill-opacity:0.25098039;stroke:none" sodipodi:nodetypes="ccccc" />
          <path style="fill:white;fill-opacity:0.25098039;stroke:none" d="M 12,9 12,10 4,9 Z" id="path3831" inkscape:connector-curvature="0" sodipodi:nodetypes="cccc" />
          <path sodipodi:nodetypes="cccc" inkscape:connector-curvature="0" id="path3833" d="m 4,9 c 2.200282,1.102022 3.8415906,2.326319 8,3 l 0,3 C 8.6517861,13.312376 5.6032468,11.487401 4,9 Z" style="fill:black;fill-opacity:0.25098039;stroke:none" />
          <path style="fill:black;fill-opacity:0.25098039;stroke:none" d="m 28,11 -8,1 0,3 z" id="path3835" inkscape:connector-curvature="0" sodipodi:nodetypes="cccc" />
          <path sodipodi:nodetypes="ccccc" inkscape:connector-curvature="0" id="path3837" d="m 15,16 -2,8 -5,0 c 3.574429,-2.642518 5.270338,-5.308814 5,-8 z" style="fill:black;fill-opacity:0.25098039;stroke:none" />
          <path sodipodi:nodetypes="cccc" inkscape:connector-curvature="0" id="path3839" d="m 12,8 0,8 8,0 C 11.928836,15.800604 13.100805,11.381517 12,8 Z" style="fill:black;fill-opacity:0.25098039;stroke:none" />
        </g>
      </g>
      <g transform="translate(1.2655367,0.03389831)" id="g7154">
        <path sodipodi:nodetypes="cccscccccccsccccccccc" inkscape:connector-curvature="0" id="rect7140" d="M 12.773438,2.0507812 C 11.99811,2.1577931 11.328255,2.7259616 11.117188,3.5136719 L 10.75,4.8847656 C 10.114999,5.0841142 9.5554828,5.4714846 9.3730469,6.1523438 9.1910097,6.8317148 9.4801498,7.4491351 9.9296875,7.9394531 L 9.5625,9.3085938 C 9.2796508,10.364199 9.9256946,11.477663 10.978516,11.759766 L 13.875,12.537109 c 1.053412,0.282262 2.168912,-0.360655 2.451172,-1.414062 l 0.257812,-0.966797 11.591797,3.105469 c 1.053408,0.28107 2.168505,-0.359127 2.451172,-1.414063 0.282262,-1.053412 -0.360654,-2.1689112 -1.414062,-2.4511716 L 17.619141,6.2910156 17.878906,5.3261719 C 18.161168,4.2727595 17.518252,3.1572599 16.464844,2.875 l -0.002,0 -2.894532,-0.7753906 -0.002,0 c -0.263941,-0.070444 -0.533619,-0.084624 -0.792968,-0.048828 z" style="color:black;font-style:normal;font-variant:normal;font-weight:normal;font-stretch:normal;font-size:medium;line-height:normal;font-family:sans-serif;text-indent:0;text-align:start;text-decoration:none;text-decoration-line:none;text-decoration-style:solid;text-decoration-color:black;letter-spacing:normal;word-spacing:normal;text-transform:none;direction:ltr;block-progression:tb;writing-mode:lr-tb;baseline-shift:baseline;text-anchor:start;white-space:normal;clip-rule:nonzero;display:inline;overflow:visible;visibility:visible;opacity:1;isolation:auto;mix-blend-mode:normal;color-interpolation:sRGB;color-interpolation-filters:linearRGB;solid-color:black;solid-opacity:1;fill:black;fill-opacity:1;fill-rule:nonzero;stroke:none;stroke-width:2;stroke-linecap:butt;stroke-linejoin:miter;stroke-miterlimit:4;stroke-dasharray:none;stroke-dashoffset:0;stroke-opacity:1;color-rendering:auto;image-rendering:auto;shape-rendering:auto;text-rendering:auto;enable-background:accumulate" />
        <g id="g3865" transform="translate(-6,2.0000003)">
          <g id="g3870" transform="matrix(0.96592583,0.25881905,-0.25881905,0.96592583,4.1118754,-4.0412862)">
            <rect style="fill:#c8ab37;fill-opacity:1;stroke:none" id="rect3854" width="20" height="2" x="14" y="4" ry="1" rx="0.99999994" />
            <path style="fill:black;fill-opacity:0.25098039;stroke:none" d="M 15,6 C 14.446,6 14,5.554 14,5 l 20,0 c 0,0.554 -0.446,1 -1,1 z" id="rect3858" inkscape:connector-curvature="0" sodipodi:nodetypes="sccss" />
            <rect rx="1" style="fill:#333;fill-opacity:1;stroke:none" id="rect3863" width="5" height="8" x="15" y="1" ry="1" />
          </g>
        </g>
      </g>
    </g>
  </g>
</svg>
