<?xml version="1.0" encoding="UTF-8" standalone="no"?>
<!-- Created with Inkscape (http://www.inkscape.org/) -->

<svg xmlns:dc="http://purl.org/dc/elements/1.1/" xmlns:cc="http://creativecommons.org/ns#" xmlns:rdf="http://www.w3.org/1999/02/22-rdf-syntax-ns#" xmlns:svg="http://www.w3.org/2000/svg" xmlns="http://www.w3.org/2000/svg" xmlns:sodipodi="http://sodipodi.sourceforge.net/DTD/sodipodi-0.dtd" xmlns:inkscape="http://www.inkscape.org/namespaces/inkscape" width="32" height="32" id="svg4150" version="1.1" inkscape:version="0.91 r13725" viewBox="0 0 32 32" sodipodi:docname="black-in-white-shortbread-cookie-00.svg">
  <defs id="defs4152" />
  <sodipodi:namedview id="base" pagecolor="#ffffff" bordercolor="#666666" borderopacity="1.0" inkscape:pageopacity="0.0" inkscape:pageshadow="2" inkscape:zoom="22.125" inkscape:cx="16" inkscape:cy="16" inkscape:current-layer="layer1" showgrid="true" inkscape:grid-bbox="true" inkscape:document-units="px" objecttolerance="10000" inkscape:snap-perpendicular="true" guidetolerance="10000" inkscape:window-width="1600" inkscape:window-height="878" inkscape:window-x="0" inkscape:window-y="0" inkscape:window-maximized="1" showguides="true" inkscape:guide-bbox="true">
    <inkscape:grid type="xygrid" id="grid4698" empspacing="4" />
    <sodipodi:guide position="16,32" orientation="1,0" id="guide4769" />
    <sodipodi:guide position="-4,16" orientation="0,1" id="guide4771" />
    <sodipodi:guide position="16,16" orientation="-0.70710678,0.70710678" id="guide4773" />
    <sodipodi:guide position="16,16" orientation="0.70710678,0.70710678" id="guide4775" />
  </sodipodi:namedview>
  <metadata id="metadata4155">
    <rdf:RDF>
      <cc:Work rdf:about="">
        <dc:format>image/svg+xml</dc:format>
        <dc:type rdf:resource="http://purl.org/dc/dcmitype/StillImage" />
        <dc:title></dc:title>
      </cc:Work>
    </rdf:RDF>
  </metadata>
  <g id="layer1" inkscape:label="Layer 1" inkscape:groupmode="layer">
    <g id="g6742">
      <circle r="9" cy="16" cx="16" id="path6740" style="opacity:1;fill:black;fill-opacity:1;fill-rule:nonzero;stroke:none;stroke-width:2;stroke-linecap:round;stroke-linejoin:round;stroke-miterlimit:4;stroke-dasharray:none;stroke-dashoffset:0;stroke-opacity:1" />
      <circle r="8" cy="16" cx="16" id="path6718" style="opacity:1;fill:#ffa000;fill-opacity:1;fill-rule:nonzero;stroke:none;stroke-width:2;stroke-linecap:round;stroke-linejoin:round;stroke-miterlimit:4;stroke-dasharray:none;stroke-dashoffset:0;stroke-opacity:1" />
      <path inkscape:connector-curvature="0" id="circle6724" d="m 11.500249,10.554608 c -0.181074,0.179722 -0.354664,0.370827 -0.519282,0.574525 -2.2037751,2.726941 -2.0188664,6.959408 0.872835,9.197912 2.341937,1.812922 5.947598,1.622954 7.78508,-0.910124 1.420066,-1.957645 1.220903,-4.951979 -0.97089,-6.376391 -0.788201,-0.512238 -1.734238,-0.704173 -2.648889,-0.555189 -0.914651,0.148983 -1.831278,0.695201 -2.320194,1.640709 -0.314896,0.608971 -0.390406,1.287181 -0.215447,1.963878 0.17496,0.676697 0.742137,1.404668 1.593752,1.593753 0.653054,0.144998 0.997924,-0.01426 1.437694,-0.327312 0.219884,-0.156528 0.487297,-0.404567 0.581428,-0.849359 0.09413,-0.444788 -0.122859,-0.948737 -0.38808,-1.213958 a 1.0001,1.0001 0 0 0 -1.242961,-0.151917 c 0.0086,-0.02845 -5.87e-4,-0.07546 0.0097,-0.0953 0.179123,-0.346403 0.463006,-0.521328 0.86593,-0.586954 0.402921,-0.06563 0.891514,0.03435 1.236056,0.258259 1.132895,0.73625 1.242431,2.421486 0.443323,3.523105 -1.120328,1.544438 -3.441402,1.666375 -4.942842,0.504089 -1.944795,-1.505491 -2.073583,-4.462495 -0.541379,-6.358436 1.890879,-2.339764 5.486393,-2.4738437 7.774031,-0.567619 2.73176,2.276298 2.869858,6.513354 0.586954,9.191007 a 1.0001,1.0001 0 0 0 -0.02486,1.325828 8,8 0 0 0 0.785827,-0.678104 8,8 0 0 0 0.0055,-11.308184 c -0.002,-0.0017 -0.0035,-0.0038 -0.0055,-0.0055 a 8,8 0 0 0 -0.06628,-0.06077 C 18.674067,7.8513473 14.216359,7.8587825 11.500249,10.554608 Z" style="opacity:1;fill:#520;fill-opacity:1;fill-rule:nonzero;stroke:none;stroke-width:2;stroke-linecap:round;stroke-linejoin:round;stroke-miterlimit:4;stroke-dasharray:none;stroke-dashoffset:0;stroke-opacity:1" inkscape:transform-center-x="-0.74279474" inkscape:transform-center-y="-0.58387768" />
      <path inkscape:transform-center-y="-1.1768185" inkscape:transform-center-x="-1.1712349" inkscape:connector-curvature="0" id="circle6729" d="m 16.117188,8 a 8,8 0 0 0 -5.773438,2.34375 l 0.707031,0.707031 A 7,7 0 0 1 17.8125,9.2382812 7,7 0 0 1 22.761719,14.1875 a 7,7 0 0 1 -1.8125,6.761719 L 21.65625,21.65625 A 8,8 0 0 0 23.726562,13.929688 8,8 0 0 0 18.070312,8.2734375 8,8 0 0 0 16.117188,8 Z" style="opacity:1;fill:#fc0;fill-opacity:0.25098039;fill-rule:nonzero;stroke:none;stroke-width:2;stroke-linecap:round;stroke-linejoin:round;stroke-miterlimit:4;stroke-dasharray:none;stroke-dashoffset:0;stroke-opacity:1" />
      <path style="opacity:1;fill:#520;fill-opacity:0.25098039;fill-rule:nonzero;stroke:none;stroke-width:2;stroke-linecap:round;stroke-linejoin:round;stroke-miterlimit:4;stroke-dasharray:none;stroke-dashoffset:0;stroke-opacity:1" d="m 15.88312,24.009058 a 8,8 0 0 0 5.773438,-2.34375 l -0.707031,-0.707031 a 7,7 0 0 1 -6.761719,1.8125 7,7 0 0 1 -4.9492191,-4.949219 7,7 0 0 1 1.8125001,-6.761719 l -0.707031,-0.707031 a 8,8 0 0 0 -2.0703121,7.726562 8,8 0 0 0 5.6562501,5.656251 8,8 0 0 0 1.953124,0.273437 z" id="path6738" inkscape:connector-curvature="0" inkscape:transform-center-x="1.1712349" inkscape:transform-center-y="1.1768183" />
    </g>
  </g>
</svg>
