<?xml version="1.0" encoding="UTF-8" standalone="no"?>
<!-- Created with Inkscape (http://www.inkscape.org/) -->

<svg
   xmlns:dc="http://purl.org/dc/elements/1.1/"
   xmlns:cc="http://creativecommons.org/ns#"
   xmlns:rdf="http://www.w3.org/1999/02/22-rdf-syntax-ns#"
   xmlns:svg="http://www.w3.org/2000/svg"
   xmlns="http://www.w3.org/2000/svg"
   xmlns:sodipodi="http://sodipodi.sourceforge.net/DTD/sodipodi-0.dtd"
   xmlns:inkscape="http://www.inkscape.org/namespaces/inkscape"
   width="8"
   height="8"
   id="svg2"
   version="1.1"
   inkscape:version="0.48.5 r10040"
   sodipodi:docname="rock-00.svg">
  <defs
     id="defs4" />
  <sodipodi:namedview
     id="base"
     pagecolor="#ffffff"
     bordercolor="#666666"
     borderopacity="1.0"
     inkscape:pageopacity="0.0"
     inkscape:pageshadow="2"
     inkscape:zoom="65.5"
     inkscape:cx="4"
     inkscape:cy="4"
     inkscape:document-units="px"
     inkscape:current-layer="layer1"
     showgrid="true"
     objecttolerance="10000"
     guidetolerance="10000"
     showguides="true"
     inkscape:guide-bbox="true"
     inkscape:window-width="1024"
     inkscape:window-height="741"
     inkscape:window-x="0"
     inkscape:window-y="2"
     inkscape:window-maximized="1">
    <inkscape:grid
       type="xygrid"
       id="grid3004"
       empspacing="8"
       visible="true"
       enabled="true"
       snapvisiblegridlinesonly="true"
       spacingx="0.5px"
       spacingy="0.5px" />
    <sodipodi:guide
       orientation="0,1"
       position="-2,4"
       id="guide3006" />
    <sodipodi:guide
       orientation="-0.70710678,0.70710678"
       position="0,0"
       id="guide3008" />
    <sodipodi:guide
       orientation="0.70710678,0.70710678"
       position="4,4"
       id="guide3010" />
    <sodipodi:guide
       orientation="0,1"
       position="-2,6"
       id="guide3624" />
    <sodipodi:guide
       orientation="1,0"
       position="0,10"
       id="guide3626" />
    <sodipodi:guide
       orientation="1,0"
       position="8,10"
       id="guide3628" />
    <sodipodi:guide
       orientation="0,1"
       position="-2,2"
       id="guide3630" />
    <sodipodi:guide
       orientation="1,0"
       position="2,10"
       id="guide3632" />
    <sodipodi:guide
       orientation="1,0"
       position="6,10"
       id="guide3634" />
  </sodipodi:namedview>
  <metadata
     id="metadata7">
    <rdf:RDF>
      <cc:Work
         rdf:about="">
        <dc:format>image/svg+xml</dc:format>
        <dc:type
           rdf:resource="http://purl.org/dc/dcmitype/StillImage" />
        <dc:title></dc:title>
      </cc:Work>
    </rdf:RDF>
  </metadata>
  <g
     inkscape:label="Ebene 1"
     inkscape:groupmode="layer"
     id="layer1"
     transform="translate(0,-1044.3622)">
    <g
       id="g6633">
      <path
         style="fill:#b3b3b3;fill-opacity:1;fill-rule:nonzero;stroke:none"
         d="m 2,1045.1122 -0.25,0.5 -0.5,0 -0.5,0.5 0,1.75 -0.25,0.5 0,0.75 0.25,0.5 0,0.5 -0.25,0.5 0,0.25 0.25,0.25 0,0.25 0.5,0 0.25,0 0.125,-0.125 0.15625,0.1563 0.21875,0.2187 0.5,0 0.25,0 0.25,-0.25 0.25,0.25 0.5,0 0.5,0 0.25,0.25 0.75,0 0,-0.086 0.203125,0.039 0.046875,0.047 0.5,0 0.25,-0.25 0.75,0 0,-0.25 -0.015625,0 0.046875,-0.047 c 0.022935,0.027 0.055464,0.047 0.09375,0.047 0.069,0 0.125,-0.056 0.125,-0.125 0,-0.038 -0.019737,-0.071 -0.046875,-0.094 l 0.046875,-0.047 0,-0.25 -0.25,-0.25 0.25,-0.5 0,-0.2344 0,-0.25 0,-0.016 -0.2421875,-0.2422 0,-0.023 0.2421875,-0.4844 0,-0.25 -0.25,-0.25 -0.4296875,-0.2344 -0.3203125,-0.5 0.5,0 0.5,-0.5 0,-0.5 -0.00781,-0.01 -0.3828125,-0.4531 -0.023438,-0.039 -0.5859375,-0.5 -0.40625,0 -0.109375,-0.01 -0.484375,-0.2422 -0.75,-0.25 -1,0 -0.5,0.25 -0.25,-0.25 -0.75,0 z"
         id="path5827"
         inkscape:connector-curvature="0" />
      <path
         transform="translate(0,1044.3622)"
         inkscape:connector-curvature="0"
         id="path6610"
         d="M 7,5 6,3.5 5,4 3.5,3.5 2.5,4.5 3,5.5 3.5,3.5 5,5 6,4 7,6 z"
         style="fill:white;fill-opacity:1;stroke:none" />
      <path
         transform="translate(0,1044.3622)"
         inkscape:connector-curvature="0"
         id="path6608"
         d="M 3.5,1 4,2 5,1.5 6,2.5 5.5,1 3.5,1 z"
         style="fill:white;fill-opacity:1;stroke:none" />
      <path
         transform="translate(0,1044.3622)"
         inkscape:connector-curvature="0"
         id="path6606"
         d="m 0.5,6.5 2,-2 0.5,1 1,0 L 4.5,5 5,7 7,5 7,7 5.5,7.5 4.5,7.5 3,7 1.5,7 z"
         style="fill:gray;fill-opacity:1;stroke:none" />
      <path
         transform="translate(0,1044.3622)"
         inkscape:connector-curvature="0"
         id="path6602"
         d="m 3.5,1 -1,0.5 0,1 L 3,3 4,2 z"
         style="fill:gray;fill-opacity:1;stroke:none" />
      <rect
         y="1044.3622"
         x="0"
         height="8"
         width="8"
         id="rect5416"
         style="fill:none;stroke:none" />
      <path
         inkscape:connector-curvature="0"
         id="path3391"
         d="m 1.96875,1044.8438 a 0.250025,0.250025 0 0 0 -0.03125,0.031 0.250025,0.250025 0 0 0 -0.09375,0.031 0.250025,0.250025 0 0 0 -0.03125,0.031 0.250025,0.250025 0 0 0 -0.03125,0.063 l -0.03125,0.031 a 0.250025,0.250025 0 0 0 0,0.063 l -0.15625,0.2812 -0.34375,0 a 0.250025,0.250025 0 0 0 -0.0625,0 0.250025,0.250025 0 0 0 -0.09375,0.031 0.250025,0.250025 0 0 0 -0.03125,0.031 l -0.5,0.5 A 0.250025,0.250025 0 0 0 0.5,1046.125 l 0,1.6875 -0.21875,0.4375 a 0.250025,0.250025 0 0 0 -0.03125,0.063 0.250025,0.250025 0 0 0 0,0.063 l 0,0.75 a 0.250025,0.250025 0 0 0 0.03125,0.094 l 0.21875,0.4062 0,0.031 0,0.4063 -0.21875,0.4375 a 0.250025,0.250025 0 0 0 -0.03125,0.063 0.250025,0.250025 0 0 0 0,0.063 l 0,0.25 a 0.250025,0.250025 0 0 0 0.03125,0.094 0.250025,0.250025 0 0 0 0.03125,0.062 l 0.1875,0.1876 0,0.1562 a 0.250025,0.250025 0 0 0 0.03125,0.094 0.250025,0.250025 0 0 0 0.03125,0.062 0.250025,0.250025 0 0 0 0.1875,0.094 l 0.5,0 0.25,0 a 0.250025,0.250025 0 0 0 0.0625,-0.031 0.250025,0.250025 0 0 0 0.03125,0 l 0.03125,0 0.1875,0.1874 A 0.250025,0.250025 0 0 0 2,1051.875 l 0.5,0 0.25,0 a 0.250025,0.250025 0 0 0 0.0625,-0.031 0.250025,0.250025 0 0 0 0.09375,-0.031 0.250025,0.250025 0 0 0 0.03125,-0.031 L 3,1051.72 l 0.0625,0.062 a 0.250025,0.250025 0 0 0 0.1875,0.094 l 0.5,0 0.40625,0 0.15625,0.1562 a 0.250025,0.250025 0 0 0 0.1875,0.094 l 0.75,0 a 0.250025,0.250025 0 0 0 0.0625,-0.031 0.250025,0.250025 0 0 0 0.0625,0 0.250025,0.250025 0 0 0 0.03125,0 0.250025,0.250025 0 0 0 0.09375,0.031 l 0.5,0 a 0.250025,0.250025 0 0 0 0.0625,-0.031 0.250025,0.250025 0 0 0 0.09375,-0.031 0.250025,0.250025 0 0 0 0.03125,-0.031 l 0.15625,-0.1562 0.65625,0 a 0.250025,0.250025 0 0 0 0.0625,-0.031 0.250025,0.250025 0 0 0 0.09375,-0.031 0.250025,0.250025 0 0 0 0.03125,-0.031 0.250025,0.250025 0 0 0 0.0625,-0.1562 l 0,-0.125 c 0.090278,-0.053 0.165541,-0.1138 0.1875,-0.2188 0.00507,-0.024 0.0625,-0.01 0.0625,-0.031 0,-0.015 -0.029492,-0.017 -0.03125,-0.031 a 0.250025,0.250025 0 0 0 0,-0.031 0.250025,0.250025 0 0 0 0.03125,-0.031 0.250025,0.250025 0 0 0 0,-0.062 l 0,-0.25 a 0.250025,0.250025 0 0 0 0,-0.063 0.250025,0.250025 0 0 0 -0.03125,-0.062 0.250025,0.250025 0 0 0 -0.03125,-0.063 l -0.125,-0.125 0.15625,-0.3124 a 0.250025,0.250025 0 0 0 0.03125,-0.094 0.250025,0.250025 0 0 0 0,-0.031 l 0,-0.2188 0,-0.25 0,-0.031 a 0.250025,0.250025 0 0 0 0,-0.063 0.250025,0.250025 0 0 0 -0.03125,-0.062 0.250025,0.250025 0 0 0 -0.03125,-0.063 l -0.125,-0.125 0.15625,-0.3124 a 0.250025,0.250025 0 0 0 0.03125,-0.094 0.250025,0.250025 0 0 0 0,-0.031 l 0,-0.25 a 0.250025,0.250025 0 0 0 0,-0.063 0.250025,0.250025 0 0 0 -0.03125,-0.062 0.250025,0.250025 0 0 0 -0.03125,-0.063 l -0.25,-0.25 a 0.250025,0.250025 0 0 0 -0.0625,-0.031 l -0.34375,-0.1562 0,-0.031 -0.0625,-0.063 0.03125,0 a 0.250025,0.250025 0 0 0 0.0625,-0.031 0.250025,0.250025 0 0 0 0.09375,-0.031 0.250025,0.250025 0 0 0 0.03125,-0.031 l 0.5,-0.5 a 0.250025,0.250025 0 0 0 0.03125,-0.062 0.250025,0.250025 0 0 0 0.03125,-0.094 l 0,-0.5 a 0.250025,0.250025 0 0 0 -0.03125,-0.125 0.250025,0.250025 0 0 0 -0.03125,-0.031 l 0,-0.031 -0.375,-0.4063 0,-0.031 0,-0.031 A 0.250025,0.250025 0 0 0 7,1045.9062 l -0.59375,-0.5 a 0.250025,0.250025 0 0 0 -0.09375,-0.031 0.250025,0.250025 0 0 0 -0.0625,0 l -0.375,0 -0.03125,0 -0.09375,-0.031 -0.375,-0.2188 a 0.250025,0.250025 0 0 0 -0.03125,0 l -0.75,-0.25 A 0.250025,0.250025 0 0 0 4.5,1044.8438 l -1,0 a 0.250025,0.250025 0 0 0 -0.0625,0.031 0.250025,0.250025 0 0 0 -0.0625,0 l -0.34375,0.1562 -0.09375,-0.094 A 0.250025,0.250025 0 0 0 2.75,1044.843 l -0.75,0 a 0.250025,0.250025 0 0 0 -0.03125,0 z m 0.1875,0.5 0.46875,0 0.1875,0.1874 a 0.250025,0.250025 0 0 0 0.15625,0.063 0.250025,0.250025 0 0 0 0.09375,0 0.250025,0.250025 0 0 0 0.0625,0 l 0.5,-0.25 0.78125,0 0.71875,0.25 0.03125,0 0.46875,0.2187 a 0.250025,0.250025 0 0 0 0.03125,0.031 0.250025,0.250025 0 0 0 0.0625,0 l 0.09375,0 a 0.250025,0.250025 0 0 0 0.03125,0.031 l 0.3125,0 0.46875,0.375 0.03125,0.031 a 0.250025,0.250025 0 0 0 0,0.031 L 7,1046.6875 7,1047 l -0.375,0.375 -0.375,0 a 0.250025,0.250025 0 0 0 -0.0625,0 0.250025,0.250025 0 0 0 -0.09375,0.031 0.250025,0.250025 0 0 0 -0.09375,0.25 0.250025,0.250025 0 0 0 0.03125,0.094 l 0.34375,0.5 a 0.250025,0.250025 0 0 0 0.0625,0.094 l 0.375,0.1874 0.0625,0.031 0.125,0.1563 0,0.094 0,0.031 -0.21875,0.375 a 0.250025,0.250025 0 0 0 0,0.031 0.250025,0.250025 0 0 0 -0.03125,0.094 0.250025,0.250025 0 0 0 0.03125,0.094 0.250025,0.250025 0 0 0 0.03125,0.063 0.250025,0.250025 0 0 0 0.03125,0.031 L 7,1049.7188 l 0,0.1562 0,0.1875 0,0.031 -0.21875,0.4062 a 0.250025,0.250025 0 0 0 -0.03125,0.094 0.250025,0.250025 0 0 0 0.0625,0.1562 0.250025,0.250025 0 0 0 0,0.031 L 7,1050.9688 a 0.250025,0.250025 0 0 0 0,0.031 0.250025,0.250025 0 0 0 -0.03125,0.063 0.250025,0.250025 0 0 0 0,0.031 0.250025,0.250025 0 0 0 -0.03125,0 0.250025,0.250025 0 0 0 -0.0625,0.031 0.250025,0.250025 0 0 0 -0.03125,0 l -0.03125,0.063 a 0.250025,0.250025 0 0 0 -0.03125,0.031 0.250025,0.250025 0 0 0 -0.03125,0.062 0.250025,0.250025 0 0 0 0,0.094 l -0.5,0 a 0.250025,0.250025 0 0 0 -0.0625,0 0.250025,0.250025 0 0 0 -0.09375,0.031 0.250025,0.250025 0 0 0 -0.03125,0.031 l -0.1875,0.1875 -0.25,0 a 0.250025,0.250025 0 0 0 -0.0625,-0.031 0.250025,0.250025 0 0 0 -0.0625,-0.031 l -0.1875,-0.031 a 0.250025,0.250025 0 0 0 -0.125,0 0.250025,0.250025 0 0 0 -0.125,0.094 l -0.4375,0 -0.1875,-0.1875 a 0.250025,0.250025 0 0 0 -0.0625,-0.031 0.250025,0.250025 0 0 0 -0.09375,-0.031 0.250025,0.250025 0 0 0 -0.03125,0 l -0.5,0 -0.375,0 -0.1875,-0.1875 a 0.250025,0.250025 0 0 0 -0.0625,-0.031 0.250025,0.250025 0 0 0 -0.09375,-0.031 0.250025,0.250025 0 0 0 -0.09375,0 0.250025,0.250025 0 0 0 -0.125,0.063 l -0.1875,0.1875 -0.125,0 -0.375,0 -0.15625,-0.1562 -0.15625,-0.1563 a 0.250025,0.250025 0 0 0 -0.0625,-0.033 0.250025,0.250025 0 0 0 -0.09375,-0.031 0.250025,0.250025 0 0 0 -0.09375,0 0.250025,0.250025 0 0 0 -0.125,0.063 l -0.0625,0.063 -0.125,0 -0.25,0 a 0.250025,0.250025 0 0 0 -0.03125,-0.126 0.250025,0.250025 0 0 0 -0.03125,-0.063 l -0.1875,-0.1875 0,-0.094 0,-0.031 0.21875,-0.4062 A 0.250025,0.250025 0 0 0 1,1050.125 l 0,-0.5 A 0.250025,0.250025 0 0 0 0.96875,1049.5 l -0.21875,-0.4375 0,-0.6563 0,-0.031 0.21875,-0.4062 A 0.250025,0.250025 0 0 0 1,1047.875 l 0,-1.6562 0.34375,-0.3438 0.40625,0 a 0.250025,0.250025 0 0 0 0.0625,-0.031 0.250025,0.250025 0 0 0 0.09375,-0.031 0.250025,0.250025 0 0 0 0.03125,-0.031 0.250025,0.250025 0 0 0 0.03125,-0.062 l 0.1875,-0.375 z"
         style="font-size:medium;font-style:normal;font-variant:normal;font-weight:normal;font-stretch:normal;text-indent:0;text-align:start;text-decoration:none;line-height:normal;letter-spacing:normal;word-spacing:normal;text-transform:none;direction:ltr;block-progression:tb;writing-mode:lr-tb;text-anchor:start;baseline-shift:baseline;color:black;fill:black;fill-opacity:1;stroke:none;stroke-width:0.5;marker:none;visibility:visible;display:inline;overflow:visible;enable-background:accumulate;font-family:Sans;-inkscape-font-specification:Sans" />
      <path
         transform="translate(0,1044.3622)"
         inkscape:connector-curvature="0"
         id="path6604"
         d="M 1,2 2,3 0.5,4.5 0.5,4 z"
         style="fill:gray;fill-opacity:1;stroke:none" />
      <path
         style="font-size:medium;font-style:normal;font-variant:normal;font-weight:normal;font-stretch:normal;text-indent:0;text-align:start;text-decoration:none;line-height:normal;letter-spacing:normal;word-spacing:normal;text-transform:none;direction:ltr;block-progression:tb;writing-mode:lr-tb;text-anchor:start;baseline-shift:baseline;color:black;fill:black;fill-opacity:1;stroke:none;stroke-width:0.5;marker:none;visibility:visible;display:inline;overflow:visible;enable-background:accumulate;font-family:Sans;-inkscape-font-specification:Sans"
         d="m 1.96875,1044.8438 a 0.250025,0.250025 0 0 0 -0.03125,0.031 0.250025,0.250025 0 0 0 -0.09375,0.031 0.250025,0.250025 0 0 0 -0.03125,0.031 0.250025,0.250025 0 0 0 -0.03125,0.063 l -0.03125,0.031 a 0.250025,0.250025 0 0 0 0,0.063 l -0.15625,0.2812 -0.34375,0 a 0.250025,0.250025 0 0 0 -0.0625,0 0.250025,0.250025 0 0 0 -0.09375,0.031 0.250025,0.250025 0 0 0 -0.03125,0.031 l -0.5,0.5 A 0.250025,0.250025 0 0 0 0.5,1046.125 l 0,1.6875 -0.21875,0.4375 a 0.250025,0.250025 0 0 0 -0.03125,0.063 0.250025,0.250025 0 0 0 0,0.063 l 0,0.75 a 0.250025,0.250025 0 0 0 0.03125,0.094 l 0.21875,0.4062 0,0.031 0,0.4063 -0.21875,0.4375 a 0.250025,0.250025 0 0 0 -0.03125,0.063 0.250025,0.250025 0 0 0 0,0.063 l 0,0.25 a 0.250025,0.250025 0 0 0 0.03125,0.094 0.250025,0.250025 0 0 0 0.03125,0.062 l 0.1875,0.1876 0,0.1562 a 0.250025,0.250025 0 0 0 0.03125,0.094 0.250025,0.250025 0 0 0 0.03125,0.062 0.250025,0.250025 0 0 0 0.1875,0.094 l 0.5,0 0.25,0 a 0.250025,0.250025 0 0 0 0.0625,-0.031 0.250025,0.250025 0 0 0 0.03125,0 l 0.03125,0 0.1875,0.1874 A 0.250025,0.250025 0 0 0 2,1051.875 l 0.5,0 0.25,0 a 0.250025,0.250025 0 0 0 0.0625,-0.031 0.250025,0.250025 0 0 0 0.09375,-0.031 0.250025,0.250025 0 0 0 0.03125,-0.031 L 3,1051.72 l 0.0625,0.062 a 0.250025,0.250025 0 0 0 0.1875,0.094 l 0.5,0 0.40625,0 0.15625,0.1562 a 0.250025,0.250025 0 0 0 0.1875,0.094 l 0.75,0 a 0.250025,0.250025 0 0 0 0.0625,-0.031 0.250025,0.250025 0 0 0 0.0625,0 0.250025,0.250025 0 0 0 0.03125,0 0.250025,0.250025 0 0 0 0.09375,0.031 l 0.5,0 a 0.250025,0.250025 0 0 0 0.0625,-0.031 0.250025,0.250025 0 0 0 0.09375,-0.031 0.250025,0.250025 0 0 0 0.03125,-0.031 l 0.15625,-0.1562 0.65625,0 a 0.250025,0.250025 0 0 0 0.0625,-0.031 0.250025,0.250025 0 0 0 0.09375,-0.031 0.250025,0.250025 0 0 0 0.03125,-0.031 0.250025,0.250025 0 0 0 0.0625,-0.1562 l 0,-0.125 c 0.090278,-0.053 0.165541,-0.1138 0.1875,-0.2188 0.00507,-0.024 0.0625,-0.01 0.0625,-0.031 0,-0.015 -0.029492,-0.017 -0.03125,-0.031 a 0.250025,0.250025 0 0 0 0,-0.031 0.250025,0.250025 0 0 0 0.03125,-0.031 0.250025,0.250025 0 0 0 0,-0.062 l 0,-0.25 a 0.250025,0.250025 0 0 0 0,-0.063 0.250025,0.250025 0 0 0 -0.03125,-0.062 0.250025,0.250025 0 0 0 -0.03125,-0.063 l -0.125,-0.125 0.15625,-0.3124 a 0.250025,0.250025 0 0 0 0.03125,-0.094 0.250025,0.250025 0 0 0 0,-0.031 l 0,-0.2188 0,-0.25 0,-0.031 a 0.250025,0.250025 0 0 0 0,-0.063 0.250025,0.250025 0 0 0 -0.03125,-0.062 0.250025,0.250025 0 0 0 -0.03125,-0.063 l -0.125,-0.125 0.15625,-0.3124 a 0.250025,0.250025 0 0 0 0.03125,-0.094 0.250025,0.250025 0 0 0 0,-0.031 l 0,-0.25 a 0.250025,0.250025 0 0 0 0,-0.063 0.250025,0.250025 0 0 0 -0.03125,-0.062 0.250025,0.250025 0 0 0 -0.03125,-0.063 l -0.25,-0.25 a 0.250025,0.250025 0 0 0 -0.0625,-0.031 l -0.34375,-0.1562 0,-0.031 -0.0625,-0.063 0.03125,0 a 0.250025,0.250025 0 0 0 0.0625,-0.031 0.250025,0.250025 0 0 0 0.09375,-0.031 0.250025,0.250025 0 0 0 0.03125,-0.031 l 0.5,-0.5 a 0.250025,0.250025 0 0 0 0.03125,-0.062 0.250025,0.250025 0 0 0 0.03125,-0.094 l 0,-0.5 a 0.250025,0.250025 0 0 0 -0.03125,-0.125 0.250025,0.250025 0 0 0 -0.03125,-0.031 l 0,-0.031 -0.375,-0.4063 0,-0.031 0,-0.031 A 0.250025,0.250025 0 0 0 7,1045.9062 l -0.59375,-0.5 a 0.250025,0.250025 0 0 0 -0.09375,-0.031 0.250025,0.250025 0 0 0 -0.0625,0 l -0.375,0 -0.03125,0 -0.09375,-0.031 -0.375,-0.2188 a 0.250025,0.250025 0 0 0 -0.03125,0 l -0.75,-0.25 A 0.250025,0.250025 0 0 0 4.5,1044.8438 l -1,0 a 0.250025,0.250025 0 0 0 -0.0625,0.031 0.250025,0.250025 0 0 0 -0.0625,0 l -0.34375,0.1562 -0.09375,-0.094 A 0.250025,0.250025 0 0 0 2.75,1044.843 l -0.75,0 a 0.250025,0.250025 0 0 0 -0.03125,0 z m 0.1875,0.5 0.46875,0 0.1875,0.1874 a 0.250025,0.250025 0 0 0 0.15625,0.063 0.250025,0.250025 0 0 0 0.09375,0 0.250025,0.250025 0 0 0 0.0625,0 l 0.5,-0.25 0.78125,0 0.71875,0.25 0.03125,0 0.46875,0.2187 a 0.250025,0.250025 0 0 0 0.03125,0.031 0.250025,0.250025 0 0 0 0.0625,0 l 0.09375,0 a 0.250025,0.250025 0 0 0 0.03125,0.031 l 0.3125,0 0.46875,0.375 0.03125,0.031 a 0.250025,0.250025 0 0 0 0,0.031 L 7,1046.6875 7,1047 l -0.375,0.375 -0.375,0 a 0.250025,0.250025 0 0 0 -0.0625,0 0.250025,0.250025 0 0 0 -0.09375,0.031 0.250025,0.250025 0 0 0 -0.09375,0.25 0.250025,0.250025 0 0 0 0.03125,0.094 l 0.34375,0.5 a 0.250025,0.250025 0 0 0 0.0625,0.094 l 0.375,0.1874 0.0625,0.031 0.125,0.1563 0,0.094 0,0.031 -0.21875,0.375 a 0.250025,0.250025 0 0 0 0,0.031 0.250025,0.250025 0 0 0 -0.03125,0.094 0.250025,0.250025 0 0 0 0.03125,0.094 0.250025,0.250025 0 0 0 0.03125,0.063 0.250025,0.250025 0 0 0 0.03125,0.031 L 7,1049.7188 l 0,0.1562 0,0.1875 0,0.031 -0.21875,0.4062 a 0.250025,0.250025 0 0 0 -0.03125,0.094 0.250025,0.250025 0 0 0 0.0625,0.1562 0.250025,0.250025 0 0 0 0,0.031 L 7,1050.9688 a 0.250025,0.250025 0 0 0 0,0.031 0.250025,0.250025 0 0 0 -0.03125,0.063 0.250025,0.250025 0 0 0 0,0.031 0.250025,0.250025 0 0 0 -0.03125,0 0.250025,0.250025 0 0 0 -0.0625,0.031 0.250025,0.250025 0 0 0 -0.03125,0 l -0.03125,0.063 a 0.250025,0.250025 0 0 0 -0.03125,0.031 0.250025,0.250025 0 0 0 -0.03125,0.062 0.250025,0.250025 0 0 0 0,0.094 l -0.5,0 a 0.250025,0.250025 0 0 0 -0.0625,0 0.250025,0.250025 0 0 0 -0.09375,0.031 0.250025,0.250025 0 0 0 -0.03125,0.031 l -0.1875,0.1875 -0.25,0 a 0.250025,0.250025 0 0 0 -0.0625,-0.031 0.250025,0.250025 0 0 0 -0.0625,-0.031 l -0.1875,-0.031 a 0.250025,0.250025 0 0 0 -0.125,0 0.250025,0.250025 0 0 0 -0.125,0.094 l -0.4375,0 -0.1875,-0.1875 a 0.250025,0.250025 0 0 0 -0.0625,-0.031 0.250025,0.250025 0 0 0 -0.09375,-0.031 0.250025,0.250025 0 0 0 -0.03125,0 l -0.5,0 -0.375,0 -0.1875,-0.1875 a 0.250025,0.250025 0 0 0 -0.0625,-0.031 0.250025,0.250025 0 0 0 -0.09375,-0.031 0.250025,0.250025 0 0 0 -0.09375,0 0.250025,0.250025 0 0 0 -0.125,0.063 l -0.1875,0.1875 -0.125,0 -0.375,0 -0.15625,-0.1562 -0.15625,-0.1563 a 0.250025,0.250025 0 0 0 -0.0625,-0.033 0.250025,0.250025 0 0 0 -0.09375,-0.031 0.250025,0.250025 0 0 0 -0.09375,0 0.250025,0.250025 0 0 0 -0.125,0.063 l -0.0625,0.063 -0.125,0 -0.25,0 a 0.250025,0.250025 0 0 0 -0.03125,-0.126 0.250025,0.250025 0 0 0 -0.03125,-0.063 l -0.1875,-0.1875 0,-0.094 0,-0.031 0.21875,-0.4062 A 0.250025,0.250025 0 0 0 1,1050.125 l 0,-0.5 A 0.250025,0.250025 0 0 0 0.96875,1049.5 l -0.21875,-0.4375 0,-0.6563 0,-0.031 0.21875,-0.4062 A 0.250025,0.250025 0 0 0 1,1047.875 l 0,-1.6562 0.34375,-0.3438 0.40625,0 a 0.250025,0.250025 0 0 0 0.0625,-0.031 0.250025,0.250025 0 0 0 0.09375,-0.031 0.250025,0.250025 0 0 0 0.03125,-0.031 0.250025,0.250025 0 0 0 0.03125,-0.062 l 0.1875,-0.375 z"
         id="path6599"
         inkscape:connector-curvature="0" />
    </g>
  </g>
</svg>
