<?xml version="1.0" encoding="UTF-8" standalone="no"?>
<!-- Created with Inkscape (http://www.inkscape.org/) -->
<svg
   xmlns:dc="http://purl.org/dc/elements/1.1/"
   xmlns:cc="http://creativecommons.org/ns#"
   xmlns:rdf="http://www.w3.org/1999/02/22-rdf-syntax-ns#"
   xmlns:svg="http://www.w3.org/2000/svg"
   xmlns="http://www.w3.org/2000/svg"
   xmlns:xlink="http://www.w3.org/1999/xlink"
   xmlns:sodipodi="http://sodipodi.sourceforge.net/DTD/sodipodi-0.dtd"
   xmlns:inkscape="http://www.inkscape.org/namespaces/inkscape"
   width="32px"
   height="32px"
   id="svg3505"
   sodipodi:version="0.32"
   inkscape:version="0.46"
   sodipodi:docname="pavement-03.svg"
   inkscape:output_extension="org.inkscape.output.svg.inkscape">
  <defs
     id="defs3507">
    <inkscape:perspective
       sodipodi:type="inkscape:persp3d"
       inkscape:vp_x="0 : 16 : 1"
       inkscape:vp_y="0 : 1000 : 0"
       inkscape:vp_z="32 : 16 : 1"
       inkscape:persp3d-origin="16 : 10.666667 : 1"
       id="perspective3513" />
    <inkscape:perspective
       id="perspective4690"
       inkscape:persp3d-origin="372.04724 : 350.78739 : 1"
       inkscape:vp_z="744.09448 : 526.18109 : 1"
       inkscape:vp_y="0 : 1000 : 0"
       inkscape:vp_x="0 : 526.18109 : 1"
       sodipodi:type="inkscape:persp3d" />
  </defs>
  <sodipodi:namedview
     id="base"
     pagecolor="#ffffff"
     bordercolor="#666666"
     borderopacity="1.0"
     inkscape:pageopacity="0.0"
     inkscape:pageshadow="2"
     inkscape:zoom="15.25"
     inkscape:cx="16"
     inkscape:cy="16"
     inkscape:current-layer="layer1"
     showgrid="true"
     inkscape:grid-bbox="true"
     inkscape:document-units="px"
     objecttolerance="4"
     gridtolerance="4"
     guidetolerance="4"
     inkscape:window-width="1280"
     inkscape:window-height="713"
     inkscape:window-x="0"
     inkscape:window-y="37"
     inkscape:object-paths="true"
     inkscape:object-nodes="true"
     inkscape:snap-bbox="true"
     inkscape:snap-guide="true">
    <inkscape:grid
       type="xygrid"
       id="grid3515"
       units="px"
       visible="true"
       enabled="true"
       spacingx="1px"
       spacingy="1px" />
  </sodipodi:namedview>
  <metadata
     id="metadata3510">
    <rdf:RDF>
      <cc:Work
         rdf:about="">
        <dc:format>image/svg+xml</dc:format>
        <dc:type
           rdf:resource="http://purl.org/dc/dcmitype/StillImage" />
        <dc:title>Vorlage f端r 32x32-Pixel-Icons f端r McMinos</dc:title>
        <dc:date>2010-04-05</dc:date>
        <dc:creator>
          <cc:Agent>
            <dc:title>Andreas Neudecker &lt;zapyon@gmx.net&gt;</dc:title>
          </cc:Agent>
        </dc:creator>
        <dc:rights>
          <cc:Agent>
            <dc:title>Copyright (C) 2010 by Andreas Neudecker</dc:title>
          </cc:Agent>
        </dc:rights>
        <dc:publisher>
          <cc:Agent>
            <dc:title>Andreas Neudecker</dc:title>
          </cc:Agent>
        </dc:publisher>
        <dc:identifier>vorlage-32x32-mcminos</dc:identifier>
        <dc:description>Vorlage f端r 32x32-Pixel-Icons f端r McMinos. Metadaten jeweils entsprechend anpassen!</dc:description>
      </cc:Work>
    </rdf:RDF>
  </metadata>
  <g
     id="layer1"
     inkscape:label="Layer 1"
     inkscape:groupmode="layer">
    <g
       id="g5484">
      <g
         inkscape:tile-y0="0"
         inkscape:tile-x0="0"
         inkscape:tile-h="16"
         inkscape:tile-w="16"
         inkscape:tile-cy="8"
         inkscape:tile-cx="8"
         id="g5407">
        <rect
           y="0"
           x="0"
           height="16"
           width="16"
           id="rect5348"
           style="fill:#8c8c8c;fill-opacity:1;fill-rule:nonzero;stroke:none;stroke-width:2;stroke-linecap:round;stroke-linejoin:round;stroke-miterlimit:4;stroke-dasharray:none;stroke-dashoffset:0;stroke-opacity:1" />
        <g
           id="g5394">
          <g
             id="g4172">
            <rect
               style="opacity:1;fill:#e6e6e2;fill-opacity:1;fill-rule:nonzero;stroke:none;stroke-width:2;stroke-linecap:round;stroke-linejoin:round;stroke-miterlimit:4;stroke-dasharray:none;stroke-dashoffset:0;stroke-opacity:1"
               id="rect3200"
               width="7"
               height="7"
               x="1"
               y="1"
               ry="1"
               rx="1" />
            <rect
               style="opacity:1;fill:#f0f0f0;fill-opacity:1;fill-rule:nonzero;stroke:none;stroke-width:2;stroke-linecap:round;stroke-linejoin:round;stroke-miterlimit:4;stroke-dasharray:none;stroke-dashoffset:0;stroke-opacity:1"
               id="rect4164"
               width="5"
               height="0.99985605"
               x="2"
               y="1.000144"
               rx="0.49999997"
               ry="0.5" />
            <rect
               ry="0.5"
               rx="0.49999997"
               y="-8"
               x="2"
               height="0.99985605"
               width="5"
               id="rect4166"
               style="opacity:1;fill:#f0f0f0;fill-opacity:1;fill-rule:nonzero;stroke:none;stroke-width:2;stroke-linecap:round;stroke-linejoin:round;stroke-miterlimit:4;stroke-dasharray:none;stroke-dashoffset:0;stroke-opacity:1"
               transform="matrix(0,1,-1,0,0,0)" />
            <rect
               ry="0.5"
               rx="0.49999997"
               y="1.0000005"
               x="-7.000144"
               height="0.99985605"
               width="5"
               id="rect4168"
               style="opacity:1;fill:#b4b4b4;fill-opacity:1;fill-rule:nonzero;stroke:none;stroke-width:2;stroke-linecap:round;stroke-linejoin:round;stroke-miterlimit:4;stroke-dasharray:none;stroke-dashoffset:0;stroke-opacity:1"
               transform="matrix(0,-1,1,0,0,0)" />
            <rect
               style="opacity:1;fill:#b4b4b4;fill-opacity:1;fill-rule:nonzero;stroke:none;stroke-width:2;stroke-linecap:round;stroke-linejoin:round;stroke-miterlimit:4;stroke-dasharray:none;stroke-dashoffset:0;stroke-opacity:1"
               id="rect4170"
               width="5"
               height="0.99985605"
               x="2"
               y="7.000144"
               rx="0.49999997"
               ry="0.5" />
          </g>
          <rect
             style="fill:#e6e6e2;fill-opacity:1;fill-rule:nonzero;stroke:none;stroke-width:2;stroke-linecap:round;stroke-linejoin:round;stroke-miterlimit:4;stroke-dasharray:none;stroke-dashoffset:0;stroke-opacity:1"
             id="rect5352"
             width="15"
             height="15"
             x="1"
             y="1"
             ry="1"
             rx="1" />
          <rect
             style="fill:#f0f0f0;fill-opacity:1;fill-rule:nonzero;stroke:none;stroke-width:2;stroke-linecap:round;stroke-linejoin:round;stroke-miterlimit:4;stroke-dasharray:none;stroke-dashoffset:0;stroke-opacity:1"
             id="rect5354"
             width="13"
             height="0.99985605"
             x="2"
             y="1.000144"
             rx="0.49999997"
             ry="0.5" />
          <rect
             ry="0.5"
             rx="0.49999997"
             y="-15.999856"
             x="2"
             height="0.99985605"
             width="13"
             id="rect5356"
             style="fill:#f0f0f0;fill-opacity:1;fill-rule:nonzero;stroke:none;stroke-width:2;stroke-linecap:round;stroke-linejoin:round;stroke-miterlimit:4;stroke-dasharray:none;stroke-dashoffset:0;stroke-opacity:1"
             transform="matrix(0,1,-1,0,0,0)" />
          <rect
             ry="0.5"
             rx="0.49999997"
             y="1.0000005"
             x="-15"
             height="0.99985605"
             width="12.999856"
             id="rect5358"
             style="fill:#b4b4b4;fill-opacity:1;fill-rule:nonzero;stroke:none;stroke-width:2;stroke-linecap:round;stroke-linejoin:round;stroke-miterlimit:4;stroke-dasharray:none;stroke-dashoffset:0;stroke-opacity:1"
             transform="matrix(0,-1,1,0,0,0)" />
          <rect
             style="fill:#b4b4b4;fill-opacity:1;fill-rule:nonzero;stroke:none;stroke-width:2;stroke-linecap:round;stroke-linejoin:round;stroke-miterlimit:4;stroke-dasharray:none;stroke-dashoffset:0;stroke-opacity:1"
             id="rect5360"
             width="13"
             height="0.99985605"
             x="2"
             y="15.000144"
             rx="0.49999997"
             ry="0.5" />
        </g>
      </g>
      <use
         id="use5422"
         xlink:href="#g5407"
         inkscape:tiled-clone-of="#g5407"
         y="0"
         x="0" />
      <use
         id="use5424"
         transform="translate(0,16)"
         xlink:href="#g5407"
         inkscape:tiled-clone-of="#g5407"
         y="0"
         x="0" />
      <use
         style="fill:#000000;fill-opacity:0.25098041"
         id="use5426"
         transform="translate(16,0)"
         xlink:href="#g5407"
         inkscape:tiled-clone-of="#g5407"
         y="0"
         x="0" />
      <use
         id="use5428"
         transform="translate(16,16)"
         xlink:href="#g5407"
         inkscape:tiled-clone-of="#g5407"
         y="0"
         x="0" />
      <path
         id="path5430"
         d="M 1,7.3663487 C 1,7.3663487 2.1474835,6.4073831 5.7729711,5.3444026 C 9.3984581,4.2814223 9.3986021,6.0183846 9.3986021,6.0183846 L 9.3984581,6.7834526 C 9.3984581,6.7834526 9.1317281,4.7299412 5.9497471,5.7111539 C 2.767767,6.6923665 1,7.4387464 1,7.3663487 z"
         style="opacity:1;fill:#000000;fill-opacity:0.1254902;fill-rule:nonzero;stroke:none;stroke-width:2;stroke-linecap:round;stroke-linejoin:round;stroke-miterlimit:4;stroke-dasharray:none;stroke-dashoffset:0;stroke-opacity:1" />
      <path
         id="path5432"
         d="M 27.184342,6.629417 C 27.184342,6.629417 22.283459,10.285944 19.813155,11.423842 C 17.342851,12.561741 15.981112,13.000239 15.981112,13.000239 C 15.981112,13.000239 19.87093,11.747662 22.671738,10.154957 C 25.472545,8.5622512 27.273378,6.5791768 27.184342,6.629417 z"
         style="opacity:1;fill:#000000;fill-opacity:0.1254902;fill-rule:nonzero;stroke:none;stroke-width:2;stroke-linecap:round;stroke-linejoin:round;stroke-miterlimit:4;stroke-dasharray:none;stroke-dashoffset:0;stroke-opacity:1" />
      <path
         style="opacity:1;fill:#000000;fill-opacity:0.1254902;fill-rule:nonzero;stroke:none;stroke-width:2;stroke-linecap:round;stroke-linejoin:round;stroke-miterlimit:4;stroke-dasharray:none;stroke-dashoffset:0;stroke-opacity:1"
         d="M 8.4797576,31.839165 C 8.4797576,31.839165 6.2883516,30.057271 6.1759429,29.242175 C 6.0635342,28.42708 6.2671487,28 6.2671487,28 C 6.2671487,28 5.6855221,29.219956 6.2386741,30.179748 C 6.791826,31.139539 8.4967914,31.869631 8.4797576,31.839165 z"
         id="path5434" />
      <path
         d="M 5,21.5 A 0.5,0.5 0 1 1 4,21.5 A 0.5,0.5 0 1 1 5,21.5 z"
         sodipodi:ry="0.5"
         sodipodi:rx="0.5"
         sodipodi:cy="21.5"
         sodipodi:cx="4.5"
         id="path5436"
         style="opacity:1;fill:#000000;fill-opacity:0.1254902;fill-rule:nonzero;stroke:none;stroke-width:2;stroke-linecap:round;stroke-linejoin:round;stroke-miterlimit:4;stroke-dasharray:none;stroke-dashoffset:0;stroke-opacity:1"
         sodipodi:type="arc" />
      <path
         transform="translate(19,1)"
         sodipodi:type="arc"
         style="opacity:1;fill:#000000;fill-opacity:0.1254902;fill-rule:nonzero;stroke:none;stroke-width:2;stroke-linecap:round;stroke-linejoin:round;stroke-miterlimit:4;stroke-dasharray:none;stroke-dashoffset:0;stroke-opacity:1"
         id="path5438"
         sodipodi:cx="4.5"
         sodipodi:cy="21.5"
         sodipodi:rx="0.5"
         sodipodi:ry="0.5"
         d="M 5,21.5 A 0.5,0.5 0 1 1 4,21.5 A 0.5,0.5 0 1 1 5,21.5 z" />
      <path
         d="M 5,21.5 A 0.5,0.5 0 1 1 4,21.5 A 0.5,0.5 0 1 1 5,21.5 z"
         sodipodi:ry="0.5"
         sodipodi:rx="0.5"
         sodipodi:cy="21.5"
         sodipodi:cx="4.5"
         id="path5440"
         style="opacity:1;fill:#000000;fill-opacity:0.1254902;fill-rule:nonzero;stroke:none;stroke-width:2;stroke-linecap:round;stroke-linejoin:round;stroke-miterlimit:4;stroke-dasharray:none;stroke-dashoffset:0;stroke-opacity:1"
         sodipodi:type="arc"
         transform="translate(22.889087,-9)" />
      <path
         transform="translate(4,-12)"
         sodipodi:type="arc"
         style="opacity:1;fill:#000000;fill-opacity:0.1254902;fill-rule:nonzero;stroke:none;stroke-width:2;stroke-linecap:round;stroke-linejoin:round;stroke-miterlimit:4;stroke-dasharray:none;stroke-dashoffset:0;stroke-opacity:1"
         id="path5442"
         sodipodi:cx="4.5"
         sodipodi:cy="21.5"
         sodipodi:rx="0.5"
         sodipodi:ry="0.5"
         d="M 5,21.5 A 0.5,0.5 0 1 1 4,21.5 A 0.5,0.5 0 1 1 5,21.5 z" />
      <path
         d="M 5,21.5 A 0.5,0.5 0 1 1 4,21.5 A 0.5,0.5 0 1 1 5,21.5 z"
         sodipodi:ry="0.5"
         sodipodi:rx="0.5"
         sodipodi:cy="21.5"
         sodipodi:cx="4.5"
         id="path5444"
         style="opacity:1;fill:#000000;fill-opacity:0.1254902;fill-rule:nonzero;stroke:none;stroke-width:2;stroke-linecap:round;stroke-linejoin:round;stroke-miterlimit:4;stroke-dasharray:none;stroke-dashoffset:0;stroke-opacity:1"
         sodipodi:type="arc"
         transform="translate(25.5,9)" />
      <path
         transform="translate(27,-14.5)"
         sodipodi:type="arc"
         style="opacity:1;fill:#000000;fill-opacity:0.1254902;fill-rule:nonzero;stroke:none;stroke-width:2;stroke-linecap:round;stroke-linejoin:round;stroke-miterlimit:4;stroke-dasharray:none;stroke-dashoffset:0;stroke-opacity:1"
         id="path5446"
         sodipodi:cx="4.5"
         sodipodi:cy="21.5"
         sodipodi:rx="0.5"
         sodipodi:ry="0.5"
         d="M 5,21.5 A 0.5,0.5 0 1 1 4,21.5 A 0.5,0.5 0 1 1 5,21.5 z" />
      <path
         transform="translate(17.143844,-5)"
         sodipodi:type="arc"
         style="opacity:1;fill:#000000;fill-opacity:0.1254902;fill-rule:nonzero;stroke:none;stroke-width:2;stroke-linecap:round;stroke-linejoin:round;stroke-miterlimit:4;stroke-dasharray:none;stroke-dashoffset:0;stroke-opacity:1"
         id="path5448"
         sodipodi:cx="4.5"
         sodipodi:cy="21.5"
         sodipodi:rx="0.5"
         sodipodi:ry="0.5"
         d="M 5,21.5 A 0.5,0.5 0 1 1 4,21.5 A 0.5,0.5 0 1 1 5,21.5 z" />
      <path
         d="M 5,21.5 A 0.5,0.5 0 1 1 4,21.5 A 0.5,0.5 0 1 1 5,21.5 z"
         sodipodi:ry="0.5"
         sodipodi:rx="0.5"
         sodipodi:cy="21.5"
         sodipodi:cx="4.5"
         id="path5450"
         style="opacity:1;fill:#000000;fill-opacity:0.3764706;fill-rule:nonzero;stroke:none;stroke-width:2;stroke-linecap:round;stroke-linejoin:round;stroke-miterlimit:4;stroke-dasharray:none;stroke-dashoffset:0;stroke-opacity:1"
         sodipodi:type="arc"
         transform="translate(16,-6)" />
      <path
         transform="translate(15,2)"
         sodipodi:type="arc"
         style="opacity:1;fill:#000000;fill-opacity:0.1254902;fill-rule:nonzero;stroke:none;stroke-width:2;stroke-linecap:round;stroke-linejoin:round;stroke-miterlimit:4;stroke-dasharray:none;stroke-dashoffset:0;stroke-opacity:1"
         id="path5452"
         sodipodi:cx="4.5"
         sodipodi:cy="21.5"
         sodipodi:rx="0.5"
         sodipodi:ry="0.5"
         d="M 5,21.5 A 0.5,0.5 0 1 1 4,21.5 A 0.5,0.5 0 1 1 5,21.5 z" />
      <path
         style="opacity:1;fill:#000000;fill-opacity:0.25098041;fill-rule:nonzero;stroke:none;stroke-width:2;stroke-linecap:round;stroke-linejoin:round;stroke-miterlimit:4;stroke-dasharray:none;stroke-dashoffset:0;stroke-opacity:1"
         d="M 31.031152,7.1740168 C 31.031152,7.1740168 25.388962,9.5308248 22.716264,10.034709 C 20.043566,10.538593 18.616102,10.633247 18.616102,10.633247 C 18.616102,10.633247 22.693666,10.362865 25.797428,9.4980582 C 28.90119,8.6332503 31.129723,7.1469043 31.031152,7.1740168 z"
         id="path5454" />
      <path
         style="opacity:1;fill:#000000;fill-opacity:0.1254902;fill-rule:nonzero;stroke:none;stroke-width:2;stroke-linecap:round;stroke-linejoin:round;stroke-miterlimit:4;stroke-dasharray:none;stroke-dashoffset:0;stroke-opacity:1"
         d="M 2.6262256,6.8113056 C 2.6262256,6.8113056 3.7737091,5.85234 7.3991967,4.7893595 C 11.024684,3.7263792 11.024828,5.4633415 11.024828,5.4633415 L 11.024684,6.2284095 C 11.024684,6.2284095 10.757954,4.1748981 7.5759727,5.1561108 C 4.3939926,6.1373234 2.6262256,6.8837033 2.6262256,6.8113056 z"
         id="path5456" />
      <path
         id="path5462"
         d="M 17.466667,15 C 17.262022,15 17.089419,15.13072 17,15.3 C 17.103715,15.635523 17.364477,15.896285 17.7,16 C 17.86928,15.910581 18,15.737978 18,15.533333 C 18,15.238933 17.761067,15 17.466667,15 z"
         style="opacity:1;fill:#808080;fill-opacity:1;fill-rule:nonzero;stroke:none;stroke-width:2;stroke-linecap:round;stroke-linejoin:round;stroke-miterlimit:4;stroke-dasharray:none;stroke-dashoffset:0;stroke-opacity:1" />
      <path
         style="opacity:1;fill:#808080;fill-opacity:1;fill-rule:nonzero;stroke:none;stroke-width:2;stroke-linecap:round;stroke-linejoin:round;stroke-miterlimit:4;stroke-dasharray:none;stroke-dashoffset:0;stroke-opacity:1"
         d="M 1.466667,15 C 1.262022,15 1.089419,15.13072 1,15.3 C 1.103715,15.635523 1.364477,15.896285 1.7,16 C 1.86928,15.910581 2,15.737978 2,15.533333 C 2,15.238933 1.761067,15 1.466667,15 z"
         id="path5465" />
      <path
         id="path5467"
         d="M 1.466667,31 C 1.262022,31 1.089419,31.13072 1,31.3 C 1.103715,31.635523 1.364477,31.896285 1.7,32 C 1.86928,31.910581 2,31.737978 2,31.533333 C 2,31.238933 1.761067,31 1.466667,31 z"
         style="opacity:1;fill:#808080;fill-opacity:1;fill-rule:nonzero;stroke:none;stroke-width:2;stroke-linecap:round;stroke-linejoin:round;stroke-miterlimit:4;stroke-dasharray:none;stroke-dashoffset:0;stroke-opacity:1" />
      <path
         style="opacity:1;fill:#808080;fill-opacity:1;fill-rule:nonzero;stroke:none;stroke-width:2;stroke-linecap:round;stroke-linejoin:round;stroke-miterlimit:4;stroke-dasharray:none;stroke-dashoffset:0;stroke-opacity:1"
         d="M 17.466667,31 C 17.262022,31 17.089419,31.13072 17,31.3 C 17.103715,31.635523 17.364477,31.896285 17.7,32 C 17.86928,31.910581 18,31.737978 18,31.533333 C 18,31.238933 17.761067,31 17.466667,31 z"
         id="path5469" />
      <path
         id="path5471"
         d="M 15.533333,2 C 15.737978,2 15.910581,1.86928 16,1.7 C 15.896285,1.364477 15.635523,1.103715 15.3,1 C 15.13072,1.089419 15,1.262022 15,1.466667 C 15,1.761067 15.238933,2 15.533333,2 z"
         style="opacity:1;fill:#ffffff;fill-opacity:1;fill-rule:nonzero;stroke:none;stroke-width:2;stroke-linecap:round;stroke-linejoin:round;stroke-miterlimit:4;stroke-dasharray:none;stroke-dashoffset:0;stroke-opacity:1" />
      <path
         style="opacity:1;fill:#ffffff;fill-opacity:1;fill-rule:nonzero;stroke:none;stroke-width:2;stroke-linecap:round;stroke-linejoin:round;stroke-miterlimit:4;stroke-dasharray:none;stroke-dashoffset:0;stroke-opacity:1"
         d="M 31.533333,2 C 31.737978,2 31.910581,1.86928 32,1.7 C 31.896285,1.364477 31.635523,1.103715 31.3,1 C 31.13072,1.089419 31,1.262022 31,1.466667 C 31,1.761067 31.238933,2 31.533333,2 z"
         id="path5473" />
      <path
         id="path5475"
         d="M 31.533333,18 C 31.737978,18 31.910581,17.86928 32,17.7 C 31.896285,17.364477 31.635523,17.103715 31.3,17 C 31.13072,17.089419 31,17.262022 31,17.466667 C 31,17.761067 31.238933,18 31.533333,18 z"
         style="opacity:1;fill:#ffffff;fill-opacity:1;fill-rule:nonzero;stroke:none;stroke-width:2;stroke-linecap:round;stroke-linejoin:round;stroke-miterlimit:4;stroke-dasharray:none;stroke-dashoffset:0;stroke-opacity:1" />
      <path
         style="opacity:1;fill:#ffffff;fill-opacity:1;fill-rule:nonzero;stroke:none;stroke-width:2;stroke-linecap:round;stroke-linejoin:round;stroke-miterlimit:4;stroke-dasharray:none;stroke-dashoffset:0;stroke-opacity:1"
         d="M 15.533333,18 C 15.737978,18 15.910581,17.86928 16,17.7 C 15.896285,17.364477 15.635523,17.103715 15.3,17 C 15.13072,17.089419 15,17.262022 15,17.466667 C 15,17.761067 15.238933,18 15.533333,18 z"
         id="path5477" />
      <path
         d="M 5,21.5 A 0.5,0.5 0 1 1 4,21.5 A 0.5,0.5 0 1 1 5,21.5 z"
         sodipodi:ry="0.5"
         sodipodi:rx="0.5"
         sodipodi:cy="21.5"
         sodipodi:cx="4.5"
         id="path5479"
         style="opacity:1;fill:#000000;fill-opacity:0.50196081;fill-rule:nonzero;stroke:none;stroke-width:2;stroke-linecap:round;stroke-linejoin:round;stroke-miterlimit:4;stroke-dasharray:none;stroke-dashoffset:0;stroke-opacity:1"
         sodipodi:type="arc"
         transform="translate(3,-5)" />
      <path
         d="M 5,21.5 A 0.5,0.5 0 1 1 4,21.5 A 0.5,0.5 0 1 1 5,21.5 z"
         sodipodi:ry="0.5"
         sodipodi:rx="0.5"
         sodipodi:cy="21.5"
         sodipodi:cx="4.5"
         id="path5481"
         style="opacity:1;fill:#000000;fill-opacity:0.36078432;fill-rule:nonzero;stroke:none;stroke-width:2;stroke-linecap:round;stroke-linejoin:round;stroke-miterlimit:4;stroke-dasharray:none;stroke-dashoffset:0;stroke-opacity:1"
         sodipodi:type="arc"
         transform="translate(12,6)" />
    </g>
  </g>
</svg>
