<?xml version="1.0" encoding="UTF-8" standalone="no"?>
<!-- Created with Inkscape (http://www.inkscape.org/) -->
<svg
   xmlns:dc="http://purl.org/dc/elements/1.1/"
   xmlns:cc="http://creativecommons.org/ns#"
   xmlns:rdf="http://www.w3.org/1999/02/22-rdf-syntax-ns#"
   xmlns:svg="http://www.w3.org/2000/svg"
   xmlns="http://www.w3.org/2000/svg"
   xmlns:sodipodi="http://sodipodi.sourceforge.net/DTD/sodipodi-0.dtd"
   xmlns:inkscape="http://www.inkscape.org/namespaces/inkscape"
   width="32px"
   height="32px"
   id="svg3505"
   sodipodi:version="0.32"
   inkscape:version="0.46"
   sodipodi:docname="field-rock-me-00.svg"
   inkscape:output_extension="org.inkscape.output.svg.inkscape">
  <defs
     id="defs3507">
    <inkscape:perspective
       sodipodi:type="inkscape:persp3d"
       inkscape:vp_x="0 : 16 : 1"
       inkscape:vp_y="0 : 1000 : 0"
       inkscape:vp_z="32 : 16 : 1"
       inkscape:persp3d-origin="16 : 10.666667 : 1"
       id="perspective3513" />
    <inkscape:perspective
       id="perspective4690"
       inkscape:persp3d-origin="372.04724 : 350.78739 : 1"
       inkscape:vp_z="744.09448 : 526.18109 : 1"
       inkscape:vp_y="0 : 1000 : 0"
       inkscape:vp_x="0 : 526.18109 : 1"
       sodipodi:type="inkscape:persp3d" />
    <inkscape:perspective
       id="perspective2415"
       inkscape:persp3d-origin="372.04724 : 350.78739 : 1"
       inkscape:vp_z="744.09448 : 526.18109 : 1"
       inkscape:vp_y="0 : 1000 : 0"
       inkscape:vp_x="0 : 526.18109 : 1"
       sodipodi:type="inkscape:persp3d" />
    <inkscape:perspective
       id="perspective5551"
       inkscape:persp3d-origin="372.04724 : 350.78739 : 1"
       inkscape:vp_z="744.09448 : 526.18109 : 1"
       inkscape:vp_y="0 : 1000 : 0"
       inkscape:vp_x="0 : 526.18109 : 1"
       sodipodi:type="inkscape:persp3d" />
    <inkscape:perspective
       id="perspective5594"
       inkscape:persp3d-origin="372.04724 : 350.78739 : 1"
       inkscape:vp_z="744.09448 : 526.18109 : 1"
       inkscape:vp_y="0 : 1000 : 0"
       inkscape:vp_x="0 : 526.18109 : 1"
       sodipodi:type="inkscape:persp3d" />
  </defs>
  <sodipodi:namedview
     id="base"
     pagecolor="#ffffff"
     bordercolor="#666666"
     borderopacity="1.0"
     inkscape:pageopacity="0.0"
     inkscape:pageshadow="2"
     inkscape:zoom="14.375"
     inkscape:cx="16"
     inkscape:cy="16"
     inkscape:current-layer="g3701"
     showgrid="true"
     inkscape:grid-bbox="true"
     inkscape:document-units="px"
     objecttolerance="4"
     gridtolerance="4"
     guidetolerance="4"
     inkscape:window-width="641"
     inkscape:window-height="678"
     inkscape:window-x="0"
     inkscape:window-y="37"
     inkscape:object-paths="true"
     inkscape:object-nodes="true"
     inkscape:snap-bbox="true"
     inkscape:snap-guide="true"
     showguides="true"
     inkscape:guide-bbox="true">
    <inkscape:grid
       type="xygrid"
       id="grid3515"
       units="px"
       visible="true"
       enabled="true"
       spacingx="1px"
       spacingy="1px" />
    <sodipodi:guide
       orientation="1,0"
       position="15.5,14.451495"
       id="guide3315" />
    <sodipodi:guide
       orientation="1,0"
       position="16.5,14.18633"
       id="guide3317" />
  </sodipodi:namedview>
  <metadata
     id="metadata3510">
    <rdf:RDF>
      <cc:Work
         rdf:about="">
        <dc:format>image/svg+xml</dc:format>
        <dc:type
           rdf:resource="http://purl.org/dc/dcmitype/StillImage" />
        <dc:title>Skull 00</dc:title>
        <dc:date>2010-05-06</dc:date>
        <dc:creator>
          <cc:Agent>
            <dc:title>Andreas Neudecker &lt;zapyon@gmx.net&gt;</dc:title>
          </cc:Agent>
        </dc:creator>
        <dc:rights>
          <cc:Agent>
            <dc:title>Copyright (C) 2010 by Andreas Neudecker</dc:title>
          </cc:Agent>
        </dc:rights>
        <dc:publisher>
          <cc:Agent>
            <dc:title>Andreas Neudecker</dc:title>
          </cc:Agent>
        </dc:publisher>
        <dc:identifier>skull-00</dc:identifier>
        <dc:description>Poisonous skull.</dc:description>
      </cc:Work>
    </rdf:RDF>
  </metadata>
  <g
     id="layer1"
     inkscape:label="Layer 1"
     inkscape:groupmode="layer">
    <g
       id="g3701">
      <g
         id="g3711">
        <path
           style="opacity:1;fill:#ffffff;fill-opacity:1;fill-rule:nonzero;stroke:none;stroke-width:4;stroke-linecap:round;stroke-linejoin:round;stroke-miterlimit:4;stroke-dasharray:none;stroke-dashoffset:0;stroke-opacity:1"
           d="M 7.8125,1 C 7.128655,1.0666513 6.5268827,1.4796322 6.21875,2.09375 L 5.75,3 L 5,3 C 4.471191,3.004238 3.9655795,3.2177184 3.59375,3.59375 L 1.59375,5.59375 C 1.2177184,5.9655795 1.004238,6.471191 1,7 L 1,13.53125 L 0.21875,15.09375 C 0.075469169,15.374386 0.00051676813,15.684903 -8.2190743e-17,16 L 0,19 C 0.00051676813,19.315097 0.075469169,19.625614 0.21875,19.90625 L 1,21.46875 L 1,22.53125 L 0.21875,24.09375 C 0.075469169,24.374386 0.00051676813,24.684903 -7.6443897e-17,25 L 0,26 C 0.0042379969,26.528809 0.21771839,27.03442 0.59375,27.40625 L 1,27.8125 L 1,28 C 1.0001104,29.104524 1.8954762,29.99989 3,30 L 5,30 L 6,30 C 6.0624656,30.002931 6.1250344,30.002931 6.1875,30 L 6.59375,30.40625 C 6.9655795,30.782282 7.471191,30.995762 8,31 L 10,31 L 11,31 C 11.352286,30.995954 11.697253,30.898932 12,30.71875 C 12.302747,30.898932 12.647714,30.995954 13,31 L 15,31 L 16.1875,31 L 16.59375,31.40625 C 16.96558,31.782282 17.471191,31.995762 18,32 L 21,32 C 21.168635,32.000327 21.336634,31.979327 21.5,31.9375 C 21.663366,31.979327 21.831365,32.000327 22,32 L 24,32 C 24.528809,31.995762 25.03442,31.782282 25.40625,31.40625 L 25.8125,31 L 28,31 C 28.961528,31.001949 29.788387,30.319463 29.96875,29.375 C 30.557807,28.913447 31,28.288827 31,27.5 C 31,27.442318 30.972767,27.399851 30.96875,27.34375 C 30.967985,27.333064 30.969655,27.323127 30.96875,27.3125 C 30.990928,27.18876 31.001391,27.063204 31,26.9375 L 31,25.9375 C 30.995974,25.42395 30.794568,24.931624 30.4375,24.5625 L 30.78125,23.84375 C 30.924531,23.563114 30.999483,23.252597 31,22.9375 L 31,22 L 31,21 L 31,20.9375 C 30.995974,20.42395 30.794568,19.931624 30.4375,19.5625 L 30.78125,18.84375 C 30.924531,18.563114 30.999483,18.252597 31,17.9375 L 31,16.9375 C 30.995762,16.408691 30.782282,15.90308 30.40625,15.53125 L 29.40625,14.53125 C 29.277143,14.396844 29.129886,14.281142 28.96875,14.1875 L 28.75,14.0625 L 30.40625,12.40625 C 30.782282,12.03442 30.995762,11.528809 31,11 L 31,9 C 30.997466,8.516444 30.81984,8.0501774 30.5,7.6875 L 30.40625,7.59375 L 30.375,7.5625 L 29.15625,6.125 L 29.09375,6.03125 L 29.0625,5.96875 C 29.032295,5.9364726 29.001027,5.9052054 28.96875,5.875 C 28.882436,5.7267424 28.777407,5.5902051 28.65625,5.46875 L 26.3125,3.46875 C 25.945344,3.1602038 25.479548,2.9938482 25,3 L 23.53125,3 L 23.46875,3 L 21.90625,2.21875 C 21.81585,2.1699217 21.721821,2.1281313 21.625,2.09375 L 18.625,1.09375 C 18.422951,1.0295765 18.211985,0.99793161 18,1 L 14,1 C 13.684903,1.0005168 13.374386,1.0754692 13.09375,1.21875 L 12.375,1.5625 C 12.005876,1.2054323 11.51355,1.0040264 11,1 L 8,1 C 7.9375344,0.99706899 7.8749656,0.99706899 7.8125,1 z M 9.25,5 L 10.1875,5 L 10.59375,5.40625 C 11.203083,6.0168118 12.135196,6.1679654 12.90625,5.78125 L 14.46875,5 L 17.65625,5 L 20.28125,5.875 L 20.375,5.90625 L 22.03125,6.75 C 22.264441,6.8715057 22.519302,6.94584 22.78125,6.96875 L 23.21875,7 C 23.270813,7.0020351 23.322937,7.0020351 23.375,7 L 24.25,7 L 25.84375,8.34375 L 25.875,8.40625 C 25.885301,8.4167814 25.895719,8.4271987 25.90625,8.4375 L 27,9.71875 L 27,10.1875 L 26.1875,11 L 25,11 C 24.263489,10.995313 23.583992,11.395767 23.231305,12.042359 C 22.878618,12.688952 22.909811,13.477055 23.3125,14.09375 L 24.59375,16.09375 C 24.775647,16.368342 25.022539,16.593765 25.3125,16.75 L 26.8125,17.5625 L 26.90625,17.625 L 26.90625,17.65625 L 26.25,18.96875 C 26.106719,19.249386 26.031767,19.559903 26.03125,19.875 L 26.03125,19.96875 C 26.035488,20.497559 26.248968,21.00317 26.625,21.375 L 27,21.75 L 27,22 L 27,22.46875 L 26.21875,24.03125 C 25.832035,24.802304 25.983188,25.734417 26.59375,26.34375 L 26.6875,26.4375 L 26.53125,26.59375 C 26.410093,26.715205 26.305064,26.851742 26.21875,27 L 25,27 C 24.471191,27.004238 23.96558,27.217718 23.59375,27.59375 L 23.1875,28 L 22.65625,28 C 22.507058,27.928744 22.349607,27.87626 22.1875,27.84375 L 21.375,27.6875 C 20.853341,27.58844 20.313701,27.700865 19.875,28 L 18.8125,28 L 18.40625,27.59375 C 18.03442,27.217718 17.528809,27.004238 17,27 L 15,27 L 13.8125,27 L 13.40625,26.59375 C 12.627013,25.823368 11.372987,25.823368 10.59375,26.59375 L 10.1875,27 L 10,27 L 8.8125,27 L 8.53125,26.71875 L 7.90625,26.09375 C 7.1640314,25.35617 5.9787628,25.315298 5.1875,26 L 5,26 L 4.71875,26 C 4.632436,25.851742 4.5274072,25.715205 4.40625,25.59375 L 4.09375,25.28125 L 4.78125,23.90625 C 4.9245308,23.625614 4.9994832,23.315097 5,23 L 5,21 C 4.9994832,20.684903 4.9245308,20.374386 4.78125,20.09375 L 4,18.53125 L 4,16.46875 L 4.78125,14.90625 C 4.9245308,14.625614 4.9994832,14.315097 5,14 L 5,7.8125 L 5.8125,7 L 7,7 C 7.752172,6.9993355 8.4403811,6.5767509 8.78125,5.90625 L 9.25,5 z"
           id="path3536" />
        <path
           style="opacity:1;fill:#ff0000;fill-opacity:1;fill-rule:nonzero;stroke:none;stroke-width:2;stroke-linecap:round;stroke-linejoin:round;stroke-miterlimit:4;stroke-dasharray:none;stroke-dashoffset:0;stroke-opacity:1"
           d="M 7.9047737,2.0011007 C 7.553751,2.0323521 7.245085,2.2460439 7.0922737,2.5636007 L 6.3735237,4.0011006 L 4.9985237,4.0011006 C 4.730959,3.9949018 4.4720732,4.0962049 4.2797737,4.2823506 L 2.2797737,6.2823507 C 2.093628,6.4746502 1.9923249,6.733536 1.9985237,7.0011007 L 1.9985237,13.751101 L 1.092274,15.563601 C 1.028384,15.700483 0.99633202,15.850059 0.99852402,16.001101 L 0.99852402,19.001101 C 0.99633202,19.152143 1.028384,19.301719 1.092274,19.438601 L 1.9985237,21.251101 L 1.9985237,22.751101 L 1.092274,24.563601 C 1.028384,24.700483 0.99633202,24.850059 0.99852402,25.001101 L 0.99852402,26.001101 C 0.99232502,26.268666 1.093628,26.527552 1.279774,26.719851 L 1.9985237,27.438601 L 1.9985237,28.001101 C 1.9985789,28.553363 2.4462618,29.001046 2.9985237,29.001101 L 4.9985237,29.001101 L 5.9985237,29.001101 C 6.1520242,28.993603 6.3017317,28.950829 6.4360237,28.876101 L 6.4672737,28.876101 L 7.2797737,29.719851 C 7.4720732,29.905997 7.730959,30.0073 7.9985237,30.001101 L 9.9985237,30.001101 L 10.998524,30.001101 C 11.266089,30.0073 11.524975,29.905997 11.717274,29.719851 L 11.998524,29.438601 L 12.279774,29.719851 C 12.472073,29.905997 12.730959,30.0073 12.998524,30.001101 L 14.998524,30.001101 L 16.561024,30.001101 L 17.279774,30.719851 C 17.472073,30.905997 17.730959,31.0073 17.998524,31.001101 L 20.998524,31.001101 C 21.162665,30.998537 21.323651,30.955608 21.467274,30.876101 C 21.47769,30.876264 21.488108,30.876264 21.498524,30.876101 C 21.651408,30.960734 21.823799,31.003832 21.998524,31.001101 L 23.998524,31.001101 C 24.266089,31.0073 24.524975,30.905997 24.717274,30.719851 L 25.436024,30.001101 L 27.998524,30.001101 C 28.550786,30.001046 28.998469,29.553363 28.998524,29.001101 L 28.998524,28.782351 C 29.549435,28.558645 29.998524,28.124172 29.998524,27.501101 C 29.998524,27.434022 29.944918,27.408354 29.936024,27.344851 C 29.98476,27.215222 30.006043,27.076884 29.998524,26.938601 L 29.998524,25.938601 C 30.004723,25.671036 29.90342,25.41215 29.717274,25.219851 L 29.217274,24.719851 L 29.904774,23.376101 C 29.968664,23.239219 30.000716,23.089643 29.998524,22.938601 L 29.998524,22.001101 L 29.998524,21.001101 L 29.998524,20.938601 C 30.004723,20.671036 29.90342,20.41215 29.717274,20.219851 L 29.217274,19.719851 L 29.904774,18.376101 C 29.968664,18.239219 30.000716,18.089643 29.998524,17.938601 L 29.998524,16.938601 C 30.004723,16.671036 29.90342,16.41215 29.717274,16.219851 L 28.717274,15.219851 C 28.642117,15.155704 28.557869,15.103048 28.467274,15.063601 L 26.998524,14.251101 L 26.811024,14.001101 L 26.998524,14.001101 C 27.266089,14.0073 27.524975,13.905997 27.717274,13.719851 L 29.717274,11.719851 C 29.90342,11.527552 30.004723,11.268666 29.998524,11.001101 L 29.998524,9.0011007 C 29.996511,8.7443256 29.895808,8.4981628 29.717274,8.3136007 L 29.717274,8.2823507 L 29.686024,8.2511007 L 28.186024,6.5011007 C 28.13701,6.4084572 28.073738,6.3240942 27.998524,6.2511007 L 25.654774,4.2511006 C 25.473435,4.0911804 25.240302,4.0023677 24.998524,4.0011006 L 23.436024,4.0011006 L 23.373524,4.0011006 L 23.217274,4.0011006 L 21.436024,3.0948507 C 21.395072,3.081758 21.353319,3.0713197 21.311024,3.0636007 L 18.311024,2.0636007 C 18.210868,2.0261979 18.105362,2.0050967 17.998524,2.0011007 L 13.998524,2.0011007 C 13.847482,1.9989091 13.697906,2.0309611 13.561024,2.0948507 L 12.217274,2.7823507 L 11.717274,2.2823507 C 11.524975,2.096205 11.266089,1.9949019 10.998524,2.0011007 L 7.9985237,2.0011007 C 7.9672909,1.9996352 7.9360065,1.9996352 7.9047737,2.0011007 z M 8.6235237,4.0011006 L 10.561024,4.0011006 L 11.279774,4.7198506 C 11.58444,5.0251315 12.050497,5.1007083 12.436024,4.9073506 L 14.248524,4.0011006 L 17.873524,4.0011006 L 20.561024,4.9073506 L 22.498524,5.8761007 C 22.616238,5.9314396 22.743617,5.9632843 22.873524,5.9698507 L 23.311024,6.0011007 C 23.331852,6.0017518 23.352696,6.0017518 23.373524,6.0011007 L 24.623524,6.0011007 L 26.592274,7.6573507 L 26.592274,7.6886007 C 26.620216,7.7326485 26.651562,7.7744427 26.686024,7.8136007 L 27.998524,9.3761007 L 27.998524,10.563601 L 26.561024,12.001101 L 24.998524,12.001101 C 24.635384,12.002423 24.301494,12.200487 24.12624,12.518541 C 23.950985,12.836596 23.961908,13.224658 24.154774,13.532351 L 25.436024,15.532351 C 25.529305,15.677342 25.658484,15.795756 25.811024,15.876101 L 27.279774,16.657351 L 27.311024,16.688601 L 27.998524,17.376101 L 27.998524,17.688601 L 27.123524,19.438601 C 27.059634,19.575483 27.027582,19.725059 27.029774,19.876101 L 27.029774,19.969851 C 27.023575,20.237416 27.124878,20.496302 27.311024,20.688601 L 27.998524,21.376101 L 27.998524,22.001101 L 27.998524,22.688601 L 27.092274,24.501101 C 26.898916,24.886628 26.974493,25.352685 27.279774,25.657351 L 27.998524,26.376101 L 27.998524,26.532351 C 27.928508,26.626543 27.875618,26.732323 27.842274,26.844851 C 27.842111,26.855267 27.842111,26.865685 27.842274,26.876101 C 27.680582,26.911681 27.530253,26.986846 27.404774,27.094851 L 27.217274,27.282351 C 27.031128,27.47465 26.929825,27.733536 26.936024,28.001101 L 24.998524,28.001101 C 24.730959,27.994902 24.472073,28.096205 24.279774,28.282351 L 23.561024,29.001101 L 22.404774,29.001101 C 22.282471,28.919824 22.14377,28.866477 21.998524,28.844851 L 21.186024,28.688601 C 20.840292,28.620316 20.484139,28.739034 20.248524,29.001101 L 18.436024,29.001101 L 17.717274,28.282351 C 17.524975,28.096205 17.266089,27.994902 16.998524,28.001101 L 14.998524,28.001101 L 13.436024,28.001101 L 12.717274,27.282351 C 12.528859,27.087613 12.26949,26.977663 11.998524,26.977663 C 11.727558,26.977663 11.468189,27.087613 11.279774,27.282351 L 10.561024,28.001101 L 9.9985237,28.001101 L 8.4360237,28.001101 L 7.8422737,27.407351 L 7.2172737,26.782351 C 7.0288592,26.587613 6.7694901,26.477663 6.4985237,26.477663 C 6.2275573,26.477663 5.9681882,26.587613 5.7797737,26.782351 L 5.5610237,27.001101 L 4.9985237,27.001101 L 3.9985237,27.001101 C 4.0047225,26.733536 3.9034194,26.47465 3.7172737,26.282351 L 2.9985237,25.563601 L 2.9985237,25.251101 L 3.9047737,23.438601 C 3.9686633,23.301719 4.0007153,23.152143 3.9985237,23.001101 L 3.9985237,21.001101 C 4.0007153,20.850059 3.9686633,20.700483 3.9047737,20.563601 L 2.9985237,18.751101 L 2.9985237,16.251101 L 3.9047737,14.438601 C 3.9686633,14.301719 4.0007153,14.152143 3.9985237,14.001101 L 3.9985237,7.4386007 L 5.4360237,6.0011007 L 6.9985237,6.0011007 C 7.3837279,6.0037805 7.7362304,5.7849858 7.9047737,5.4386006 L 8.6235237,4.0011006 z"
           id="path3694" />
      </g>
    </g>
  </g>
</svg>
