<?xml version="1.0" encoding="UTF-8" standalone="no"?>
<!-- Created with Inkscape (http://www.inkscape.org/) -->

<svg
   xmlns:dc="http://purl.org/dc/elements/1.1/"
   xmlns:cc="http://creativecommons.org/ns#"
   xmlns:rdf="http://www.w3.org/1999/02/22-rdf-syntax-ns#"
   xmlns:svg="http://www.w3.org/2000/svg"
   xmlns="http://www.w3.org/2000/svg"
   xmlns:sodipodi="http://sodipodi.sourceforge.net/DTD/sodipodi-0.dtd"
   xmlns:inkscape="http://www.inkscape.org/namespaces/inkscape"
   width="32px"
   height="32px"
   id="svg3505"
   sodipodi:version="0.32"
   inkscape:version="0.48.5 r10040"
   sodipodi:docname="field-speed-default-00.svg"
   inkscape:output_extension="org.inkscape.output.svg.inkscape"
   version="1.1">
  <defs
     id="defs3507">
    <inkscape:perspective
       sodipodi:type="inkscape:persp3d"
       inkscape:vp_x="0 : 16 : 1"
       inkscape:vp_y="0 : 1000 : 0"
       inkscape:vp_z="32 : 16 : 1"
       inkscape:persp3d-origin="16 : 10.666667 : 1"
       id="perspective3513" />
    <inkscape:perspective
       id="perspective4690"
       inkscape:persp3d-origin="372.04724 : 350.78739 : 1"
       inkscape:vp_z="744.09448 : 526.18109 : 1"
       inkscape:vp_y="0 : 1000 : 0"
       inkscape:vp_x="0 : 526.18109 : 1"
       sodipodi:type="inkscape:persp3d" />
    <inkscape:perspective
       id="perspective2415"
       inkscape:persp3d-origin="372.04724 : 350.78739 : 1"
       inkscape:vp_z="744.09448 : 526.18109 : 1"
       inkscape:vp_y="0 : 1000 : 0"
       inkscape:vp_x="0 : 526.18109 : 1"
       sodipodi:type="inkscape:persp3d" />
    <inkscape:perspective
       id="perspective5551"
       inkscape:persp3d-origin="372.04724 : 350.78739 : 1"
       inkscape:vp_z="744.09448 : 526.18109 : 1"
       inkscape:vp_y="0 : 1000 : 0"
       inkscape:vp_x="0 : 526.18109 : 1"
       sodipodi:type="inkscape:persp3d" />
    <inkscape:perspective
       id="perspective5594"
       inkscape:persp3d-origin="372.04724 : 350.78739 : 1"
       inkscape:vp_z="744.09448 : 526.18109 : 1"
       inkscape:vp_y="0 : 1000 : 0"
       inkscape:vp_x="0 : 526.18109 : 1"
       sodipodi:type="inkscape:persp3d" />
  </defs>
  <sodipodi:namedview
     id="base"
     pagecolor="#ffffff"
     bordercolor="#666666"
     borderopacity="1.0"
     inkscape:pageopacity="0.0"
     inkscape:pageshadow="2"
     inkscape:zoom="16.375"
     inkscape:cx="16"
     inkscape:cy="16"
     inkscape:current-layer="layer1"
     showgrid="true"
     inkscape:grid-bbox="true"
     inkscape:document-units="px"
     objecttolerance="4"
     gridtolerance="4"
     guidetolerance="4"
     inkscape:window-width="1024"
     inkscape:window-height="741"
     inkscape:window-x="0"
     inkscape:window-y="2"
     inkscape:object-paths="true"
     inkscape:object-nodes="true"
     inkscape:snap-bbox="true"
     inkscape:snap-guide="true"
     showguides="true"
     inkscape:guide-bbox="true"
     inkscape:window-maximized="1">
    <inkscape:grid
       type="xygrid"
       id="grid3515"
       units="px"
       visible="true"
       enabled="true"
       spacingx="1px"
       spacingy="1px" />
    <sodipodi:guide
       orientation="1,0"
       position="15.5,14.451495"
       id="guide3315" />
    <sodipodi:guide
       orientation="1,0"
       position="16.5,14.18633"
       id="guide3317" />
  </sodipodi:namedview>
  <metadata
     id="metadata3510">
    <rdf:RDF>
      <cc:Work
         rdf:about="">
        <dc:format>image/svg+xml</dc:format>
        <dc:type
           rdf:resource="http://purl.org/dc/dcmitype/StillImage" />
        <dc:title>Skull 00</dc:title>
        <dc:date>2010-05-06</dc:date>
        <dc:creator>
          <cc:Agent>
            <dc:title>Andreas Neudecker &lt;zapyon@gmx.net&gt;</dc:title>
          </cc:Agent>
        </dc:creator>
        <dc:rights>
          <cc:Agent>
            <dc:title>Copyright (C) 2010 by Andreas Neudecker</dc:title>
          </cc:Agent>
        </dc:rights>
        <dc:publisher>
          <cc:Agent>
            <dc:title>Andreas Neudecker</dc:title>
          </cc:Agent>
        </dc:publisher>
        <dc:identifier>skull-00</dc:identifier>
        <dc:description>Poisonous skull.</dc:description>
      </cc:Work>
    </rdf:RDF>
  </metadata>
  <g
     id="layer1"
     inkscape:label="Layer 1"
     inkscape:groupmode="layer">
    <g
       id="g6796"
       transform="matrix(-1,0,0,1,32,0)">
      <rect
         y="0"
         x="-8.8817842e-16"
         height="31.999994"
         width="32"
         id="rect5494"
         style="fill:white;fill-opacity:1;fill-rule:nonzero;stroke:none" />
      <path
         sodipodi:nodetypes="ccccc"
         id="rect3222"
         d="M 3,3 3,29 29,29 29,3 3,3 z"
         style="fill:blue;fill-opacity:1;fill-rule:nonzero;stroke:none"
         inkscape:connector-curvature="0" />
      <g
         style="fill:white;fill-opacity:1"
         id="g3228">
        <path
           style="fill:white;fill-opacity:1;fill-rule:nonzero;stroke:none"
           d="M 0,0 0,32 32,32 32,0 0,0 z M 1,1 31,1 31,31 1,31 1,1 z"
           id="rect5481"
           inkscape:connector-curvature="0" />
      </g>
      <g
         transform="translate(0.5,0)"
         id="g5616">
        <path
           sodipodi:nodetypes="cssssssssscccssccccccccsccccsccccsccccsscsc"
           id="path5600"
           transform="translate(-0.5,0)"
           d="m 10.5,5 c -1.656,0 -3,1.344 -3,3 0,1.656 1.344,3 3,3 0.414,0 0.797375,-0.09812 1.15625,-0.25 -0.04317,0.03036 -0.08603,0.06136 -0.125,0.09375 -0.01149,0.01 -0.02006,0.02091 -0.03125,0.03125 -0.09981,0.08803 -0.176132,0.199908 -0.25,0.3125 -0.01287,0.02113 -0.01941,0.04068 -0.03125,0.0625 -0.0492,0.08303 -0.123293,0.156811 -0.15625,0.25 -0.0261,0.07381 -0.01712,0.143323 -0.03125,0.21875 C 11.01909,11.78363 11.00351,11.841056 11,11.90625 L 10.3125,15.25 6.78125,14.53125 c -0.5441662,-0.149723 -1.1197607,0.02042 -1.5,0.4375 -0.3802391,0.417075 -0.5117591,1.003207 -0.3125,1.53125 0.1992593,0.528045 0.689017,0.906848 1.25,0.96875 l 5,1 c 0.8106,0.152586 1.59233,-0.377874 1.75,-1.1875 l 0.4375,-2.25 3.3125,3.3125 -3.6875,1.21875 c -0.763557,0.24056 -1.203684,1.03829 -1,1.8125 l 1,4 c 0.207107,0.811168 1.032582,1.300857 1.84375,1.09375 0.811168,-0.207107 1.300857,-1.032582 1.09375,-1.84375 L 15.3125,22 19.09375,20.71875 24.4375,26.0625 c 0.586803,0.586803 1.538197,0.586803 2.125,0 0.586803,-0.586803 0.586803,-1.538197 0,-2.125 L 16.125,13.5 l 1.96875,0 4.625,2.78125 c 0.707615,0.431472 1.631028,0.207615 2.0625,-0.5 0.431472,-0.707615 0.207615,-1.631028 -0.5,-2.0625 l -5,-3 C 19.045867,10.575463 18.775565,10.499778 18.5,10.5 l -5.6875,0 c -0.110072,-0.02287 -0.229153,-0.03376 -0.34375,-0.03125 -0.04527,0.0013 -0.08074,0.02605 -0.125,0.03125 -0.111051,0.01305 -0.212236,0.03113 -0.3125,0.0625 C 12.90713,10.038447 13.5,9.0942266 13.5,8 c 0,-1.656 -1.344,-3 -3,-3 z"
           style="fill:white;fill-opacity:1;fill-rule:nonzero;stroke:none"
           inkscape:connector-curvature="0" />
      </g>
      <path
         sodipodi:nodetypes="cccccccccc"
         id="rect2448"
         d="M 1,1 1,31 31,31 31,1 1,1 z M 2,2 30,2 30,30 2,30 2,2 z"
         style="fill:blue;fill-opacity:1;fill-rule:nonzero;stroke:none"
         inkscape:connector-curvature="0" />
    </g>
  </g>
</svg>
