<?xml version="1.0" encoding="UTF-8" standalone="no"?>
<!-- Created with Inkscape (http://www.inkscape.org/) -->

<svg
   xmlns:dc="http://purl.org/dc/elements/1.1/"
   xmlns:cc="http://creativecommons.org/ns#"
   xmlns:rdf="http://www.w3.org/1999/02/22-rdf-syntax-ns#"
   xmlns:svg="http://www.w3.org/2000/svg"
   xmlns="http://www.w3.org/2000/svg"
   xmlns:sodipodi="http://sodipodi.sourceforge.net/DTD/sodipodi-0.dtd"
   xmlns:inkscape="http://www.inkscape.org/namespaces/inkscape"
   width="32px"
   height="32px"
   id="svg3505"
   sodipodi:version="0.32"
   inkscape:version="0.47 r22583"
   sodipodi:docname="pill-default-new-00.svg"
   inkscape:output_extension="org.inkscape.output.svg.inkscape"
   version="1.1">
  <defs
     id="defs3507">
    <inkscape:perspective
       sodipodi:type="inkscape:persp3d"
       inkscape:vp_x="0 : 16 : 1"
       inkscape:vp_y="0 : 1000 : 0"
       inkscape:vp_z="32 : 16 : 1"
       inkscape:persp3d-origin="16 : 10.666667 : 1"
       id="perspective3513" />
    <inkscape:perspective
       id="perspective4690"
       inkscape:persp3d-origin="372.04724 : 350.78739 : 1"
       inkscape:vp_z="744.09448 : 526.18109 : 1"
       inkscape:vp_y="0 : 1000 : 0"
       inkscape:vp_x="0 : 526.18109 : 1"
       sodipodi:type="inkscape:persp3d" />
    <inkscape:perspective
       id="perspective2729"
       inkscape:persp3d-origin="372.04724 : 350.78739 : 1"
       inkscape:vp_z="744.09448 : 526.18109 : 1"
       inkscape:vp_y="0 : 1000 : 0"
       inkscape:vp_x="0 : 526.18109 : 1"
       sodipodi:type="inkscape:persp3d" />
  </defs>
  <sodipodi:namedview
     id="base"
     pagecolor="#ffffff"
     bordercolor="#666666"
     borderopacity="1.0"
     inkscape:pageopacity="0.0"
     inkscape:pageshadow="2"
     inkscape:zoom="18.527439"
     inkscape:cx="16"
     inkscape:cy="16"
     inkscape:current-layer="layer1"
     showgrid="true"
     inkscape:grid-bbox="true"
     inkscape:document-units="px"
     objecttolerance="4"
     gridtolerance="4"
     guidetolerance="4"
     inkscape:window-width="778"
     inkscape:window-height="839"
     inkscape:window-x="0"
     inkscape:window-y="0"
     inkscape:object-paths="true"
     inkscape:object-nodes="true"
     inkscape:snap-bbox="true"
     inkscape:snap-guide="true"
     inkscape:window-maximized="0">
    <inkscape:grid
       type="xygrid"
       id="grid3515"
       units="px"
       visible="true"
       enabled="true"
       spacingx="1px"
       spacingy="1px" />
  </sodipodi:namedview>
  <metadata
     id="metadata3510">
    <rdf:RDF>
      <cc:Work
         rdf:about="">
        <dc:format>image/svg+xml</dc:format>
        <dc:type
           rdf:resource="http://purl.org/dc/dcmitype/StillImage" />
        <dc:title></dc:title>
        <dc:date>2010-04-05</dc:date>
        <dc:creator>
          <cc:Agent>
            <dc:title>Andreas Neudecker &lt;zapyon@gmx.net&gt;</dc:title>
          </cc:Agent>
        </dc:creator>
        <dc:rights>
          <cc:Agent>
            <dc:title>Copyright (C) 2010 by Andreas Neudecker</dc:title>
          </cc:Agent>
        </dc:rights>
        <dc:publisher>
          <cc:Agent>
            <dc:title>Andreas Neudecker</dc:title>
          </cc:Agent>
        </dc:publisher>
        <dc:identifier>vorlage-32x32-mcminos</dc:identifier>
        <dc:description>Vorlage für 32x32-Pixel-Icons für McMinos. Metadaten jeweils entsprechend anpassen!</dc:description>
      </cc:Work>
    </rdf:RDF>
  </metadata>
  <g
     id="layer1"
     inkscape:label="Layer 1"
     inkscape:groupmode="layer">
    <g
       id="g3695">
      <g
         id="g3688">
        <path
           sodipodi:nodetypes="czzzz"
           id="path3524"
           d="m 15.5,11.5 c -3,0 -4,1.275739 -4,4 0,3 1,5 4,5 3,0 5,-2 5,-5 0,-3 -2,-4 -5,-4 z"
           style="fill:#00ff00;fill-opacity:1;fill-rule:nonzero;stroke:#000000;stroke-width:2;stroke-linecap:round;stroke-linejoin:round;stroke-miterlimit:4;stroke-opacity:1;stroke-dasharray:none;stroke-dashoffset:0" />
        <path
           style="fill:#00ff00;fill-opacity:1;fill-rule:nonzero;stroke:none"
           d="m 15.5,11.5 c -3,0 -4,1.275739 -4,4 0,3 1,5 4,5 3,0 5,-2 5,-5 0,-3 -2,-4 -5,-4 z"
           id="path2735"
           sodipodi:nodetypes="czzzz" />
        <path
           style="fill:#00a000;fill-opacity:1;fill-rule:nonzero;stroke:none"
           d="m 14.5,13.5 -2.9375,1.21875 C 11.541108,14.964326 11.5,15.225104 11.5,15.5 c 0,3 1,5 4,5 1.258567,0 2.323516,-0.369839 3.15625,-1 -0.876025,-0.04687 -2.731046,-0.25 -3.46875,-1 -0.983607,-1 0.3125,-2 0.3125,-2 0,0 -1.987193,0.605533 -2.59375,-0.3125 C 12.299692,15.269467 14.5,13.5 14.5,13.5 z"
           id="path3507" />
        <path
           style="fill:#c1ffc1;fill-opacity:1;fill-rule:nonzero;stroke:none"
           d="m 15.5,11.5 c -0.667647,0 -1.206943,0.09048 -1.6875,0.21875 C 14.061078,11.695502 15.5,11.582317 15.5,12.5 c 0,0.842105 0,1.674301 0,2 0.04687,-0.663934 0.25,-2 1,-2 0.989012,0 2.772834,0.03034 2.8125,0.03125 C 18.433111,11.79631 17.114329,11.5 15.5,11.5 z"
           id="path3512" />
        <path
           style="fill:#c1ffc1;fill-opacity:1;fill-rule:nonzero;stroke:none"
           d="M 19.21875,12.4375 19.125,12.5 19.6875,12.90625 C 19.544956,12.736802 19.395244,12.572998 19.21875,12.4375 z m 0.46875,0.46875 c 0,0 -1.908811,0.434939 -2.1875,1.15625 -0.278689,0.721312 1,0.875 1,0.875 0,0 -1,0.5625 -1,1.5625 0,1 0.5,2.4375 0.5,2.4375 -1e-6,1e-6 -0.5,-1.978484 0.5,-2.4375 1,-0.459016 1.875,0.1875 1.875,0.1875 0.07618,-0.379241 0.125,-0.766007 0.125,-1.1875 0,-1.135417 -0.293748,-1.977085 -0.8125,-2.59375 z"
           id="path3519" />
      </g>
      <rect
         y="0"
         x="0"
         height="32"
         width="32"
         id="rect2388"
         style="fill:none;stroke:none" />
    </g>
  </g>
</svg>
