<?xml version="1.0" encoding="UTF-8" standalone="no"?>
<!-- Created with Inkscape (http://www.inkscape.org/) -->

<svg
   xmlns:dc="http://purl.org/dc/elements/1.1/"
   xmlns:cc="http://creativecommons.org/ns#"
   xmlns:rdf="http://www.w3.org/1999/02/22-rdf-syntax-ns#"
   xmlns:svg="http://www.w3.org/2000/svg"
   xmlns="http://www.w3.org/2000/svg"
   xmlns:sodipodi="http://sodipodi.sourceforge.net/DTD/sodipodi-0.dtd"
   xmlns:inkscape="http://www.inkscape.org/namespaces/inkscape"
   width="32px"
   height="32px"
   id="svg3505"
   sodipodi:version="0.32"
   inkscape:version="0.48.5 r10040"
   sodipodi:docname="00.svg"
   inkscape:output_extension="org.inkscape.output.svg.inkscape"
   version="1.1">
  <defs
     id="defs3507">
    <inkscape:perspective
       sodipodi:type="inkscape:persp3d"
       inkscape:vp_x="0 : 16 : 1"
       inkscape:vp_y="0 : 1000 : 0"
       inkscape:vp_z="32 : 16 : 1"
       inkscape:persp3d-origin="16 : 10.666667 : 1"
       id="perspective8" />
    <inkscape:perspective
       id="perspective2388"
       inkscape:persp3d-origin="372.04724 : 350.78739 : 1"
       inkscape:vp_z="744.09448 : 526.18109 : 1"
       inkscape:vp_y="0 : 1000 : 0"
       inkscape:vp_x="0 : 526.18109 : 1"
       sodipodi:type="inkscape:persp3d" />
  </defs>
  <sodipodi:namedview
     id="base"
     pagecolor="#ffffff"
     bordercolor="#666666"
     borderopacity="1.0"
     inkscape:pageopacity="0.0"
     inkscape:pageshadow="2"
     inkscape:zoom="16.375"
     inkscape:cx="16"
     inkscape:cy="16"
     inkscape:current-layer="g3412"
     showgrid="true"
     inkscape:grid-bbox="true"
     inkscape:document-units="px"
     objecttolerance="10000"
     gridtolerance="10000"
     guidetolerance="10000"
     inkscape:window-width="1024"
     inkscape:window-height="741"
     inkscape:window-x="0"
     inkscape:window-y="2"
     inkscape:object-paths="true"
     inkscape:object-nodes="true"
     inkscape:snap-bbox="true"
     inkscape:snap-guide="true"
     showguides="false"
     inkscape:guide-bbox="true"
     inkscape:window-maximized="1">
    <inkscape:grid
       type="xygrid"
       id="grid3515"
       units="px"
       visible="true"
       enabled="true"
       spacingx="0.5px"
       spacingy="0.5px"
       empspacing="8"
       snapvisiblegridlinesonly="true" />
  </sodipodi:namedview>
  <metadata
     id="metadata3510">
    <rdf:RDF>
      <cc:Work
         rdf:about="">
        <dc:format>image/svg+xml</dc:format>
        <dc:type
           rdf:resource="http://purl.org/dc/dcmitype/StillImage" />
        <dc:title>New template for McMinos icons (32x32 pixels)</dc:title>
        <dc:date>2010-05-08</dc:date>
        <dc:creator>
          <cc:Agent>
            <dc:title>Andreas Neudecker &lt;zapyon@gmx.net&gt;</dc:title>
          </cc:Agent>
        </dc:creator>
        <dc:rights>
          <cc:Agent>
            <dc:title>Copyright (C) 2010 by Andreas Neudecker</dc:title>
          </cc:Agent>
        </dc:rights>
        <dc:publisher>
          <cc:Agent>
            <dc:title>Andreas Neudecker</dc:title>
          </cc:Agent>
        </dc:publisher>
        <dc:identifier>__empty__</dc:identifier>
        <dc:description>Template for McMinos SVG icons at a base size of 32x32 pixels.</dc:description>
      </cc:Work>
    </rdf:RDF>
  </metadata>
  <g
     id="layer1"
     inkscape:label="Layer 1"
     inkscape:groupmode="layer">
    <g
       id="g3412">
      <path
         style="fill:#c8ab37;fill-opacity:1;stroke:none"
         d="m 13,0 0,4 1,4 4,0 1,-4 0,-4 z"
         id="path3801"
         inkscape:connector-curvature="0"
         sodipodi:nodetypes="ccccccc" />
      <path
         style="fill:#a0892c;fill-opacity:1;stroke:none"
         d="m 13,0 2,0 0,8 -1,0 -1,-4 z"
         id="path3803"
         inkscape:connector-curvature="0"
         sodipodi:nodetypes="cccccc" />
      <rect
         y="0"
         x="0"
         height="32"
         width="32"
         id="rect3397"
         style="opacity:1;fill:none;fill-opacity:0.50196078000000000;fill-rule:nonzero;stroke:none;stroke-width:2;stroke-linecap:round;stroke-linejoin:miter;stroke-miterlimit:4;stroke-dasharray:none;stroke-dashoffset:0;stroke-opacity:0.25098039000000000" />
      <path
         style="fill:#ffffff;fill-opacity:0.53333327;fill-rule:nonzero;stroke:none;stroke-width:1;stroke-linecap:round;stroke-linejoin:round;stroke-miterlimit:4;stroke-dasharray:none;stroke-dashoffset:0;stroke-opacity:1"
         d="M 13,2 C 11.896,2 11,2.8960001 11,4 C 11,5.104 11.896,6 13,6 L 19,6 C 20.104,6 21,5.104 21,4 C 21,2.896 20.104,2 19,2 L 13,2 z"
         id="path3380"
         sodipodi:nodetypes="csccscc" />
      <path
         sodipodi:nodetypes="ccssccccccssccccsssssscccszscccssssssccc"
         id="path3255"
         d="M 13,6 L 13,7 C 13,10 7,10 7,17 C 7,19 8,20 8,22 C 8,24 7,25 7,27 C 7,27 7,29 7,29 C 7,30.104 7.8960001,31 9,31 L 23,31 C 24.104,31 25,30.104 25,29 C 25,29 25,27 25,27 C 25,25 24,24 24,22 C 24,20 25,19 25,17 C 25,10 19,10 19,7 L 19,6 L 18,6 L 18,7 C 18,8.0833333 18.592621,8.9416417 19.25,9.5625 C 19.907379,10.183358 20.675375,10.698229 21.375,11.28125 C 22.77425,12.447291 24,13.785714 24,17 C 24,17.833333 23.8125,18.4375 23.5625,19.1875 C 23.3125,19.9375 23,20.833333 23,22 C 23,23.166667 23.3125,24.0625 23.5625,24.8125 C 23.8125,25.5625 24,26.166667 24,27 C 24,27 24,29 24,29 C 24,29.562937 23.562937,30 23,30 C 23,30 22.553125,30 21,30 C 19.446875,30 17.18125,29 16,29 C 14.81875,29 12.4875,30 11,30 C 9.5125,30 9,30 9,30 C 8.437063,30 8,29.562937 8,29 C 8,29 8,27 8,27 C 8,26.166667 8.1875,25.5625 8.4375,24.8125 C 8.6875,24.0625 9,23.166667 9,22 C 9,20.833333 8.6875,19.9375 8.4375,19.1875 C 8.1875,18.4375 8,17.833333 8,17 C 8,13.785714 9.22575,12.447291 10.625,11.28125 C 11.324625,10.698229 12.092621,10.183358 12.75,9.5625 C 13.407379,8.9416417 14,8.0833333 14,7 L 14,6 L 13,6 z"
         style="fill:#c1c1ff;fill-opacity:0.50196078;fill-rule:nonzero;stroke:none;stroke-width:1;stroke-linecap:round;stroke-linejoin:round;stroke-miterlimit:4;stroke-dasharray:none;stroke-dashoffset:0;stroke-opacity:1" />
      <path
         id="path3232"
         d="M 13,2 C 12.659834,2 12.343045,2.0999959 12.0625,2.25 C 12.296435,2.6742386 13.080169,3 14,3 L 19,3 C 19.966,3 20.782156,3.356953 20.96875,3.8125 C 20.872889,2.797577 20.039871,2 19,2 L 14,2 L 13,2 z"
         style="fill:#ffffff;fill-opacity:0.50196078;fill-rule:nonzero;stroke:none;stroke-width:1;stroke-linecap:round;stroke-linejoin:round;stroke-miterlimit:4;stroke-dasharray:none;stroke-dashoffset:0;stroke-opacity:1" />
      <path
         id="rect2414"
         d="M 11.03125,4.1875 C 11.127111,5.2024229 11.960129,6 13,6 L 18,6 L 19,6 C 19.340166,6 19.656955,5.9000041 19.9375,5.75 C 19.703565,5.3257614 18.919831,5 18,5 L 13,5 C 12.034,5.0000002 11.217844,4.6430469 11.03125,4.1875 z"
         style="fill:#c1c1ff;fill-opacity:0.50196078;fill-rule:nonzero;stroke:none;stroke-width:1;stroke-linecap:round;stroke-linejoin:round;stroke-miterlimit:4;stroke-dasharray:none;stroke-dashoffset:0;stroke-opacity:1" />
      <path
         id="rect3225"
         d="M 13,6 C 13,6.069 13.004594,6.122422 13.03125,6.1875 C 13.217844,6.643047 14.034,7 15,7 L 19,7 L 19,6 L 15,6 L 13,6 z"
         style="fill:#b1b1ff;fill-opacity:0.50196078;fill-rule:nonzero;stroke:none;stroke-width:1;stroke-linecap:round;stroke-linejoin:round;stroke-miterlimit:4;stroke-dasharray:none;stroke-dashoffset:0;stroke-opacity:1" />
      <path
         style="fill:#ffffff;fill-opacity:0.53376202;fill-rule:nonzero;stroke:none;stroke-width:1;stroke-linecap:round;stroke-linejoin:round;stroke-miterlimit:4;stroke-dasharray:none;stroke-dashoffset:0;stroke-opacity:1"
         d="M 12.999781,5.9999996 L 12.999781,6.9999996 C 12.999781,9.9999992 6.9997807,9.9999992 6.9997807,17 C 6.9997807,19 7.9997807,20 7.9997807,22 C 7.9997807,24 6.9997807,25 6.9997807,27 C 6.9997807,27 6.9997807,29 6.9997807,29 C 6.9997807,30.104 7.8957807,31 8.9997807,31 L 22.999781,31 C 24.103781,31 24.999781,30.104 24.999781,29 C 24.999781,29 24.999781,27 24.999781,27 C 24.999781,25 23.999781,24 23.999781,22 C 23.999781,20 24.999781,19 24.999781,17 C 24.999781,9.9999992 18.999781,9.9999992 18.999781,6.9999996 L 18.999781,5.9999996 L 12.999781,5.9999996 z"
         id="path3377" />
      <path
         id="path3328"
         d="M 8.5,14 C 8.1885429,14.784727 8,15.74418 8,17 C 8,17.833333 8.1875,18.4375 8.4375,19.1875 C 8.6875,19.9375 9,20.833333 9,22 C 9,23.166667 8.6875,24.0625 8.4375,24.8125 C 8.1875,25.5625 8,26.166667 8,27 C 8,27 8,29 8,29 C 8,29.562937 8.437063,30 9,30 C 9,30 9.5125,30 11,30 C 12.4875,30 14.81875,29 16,29 C 17.18125,29 19.446875,30 21,30 C 22.553125,30 23,30 23,30 C 23.562937,30 24,29.562937 24,29 C 24,29 24,27 24,27 C 24,26.166667 23.8125,25.5625 23.5625,24.8125 C 23.3125,24.0625 23,23.166667 23,22 C 23,20.833333 23.3125,19.9375 23.5625,19.1875 C 23.8125,18.4375 24,17.833333 24,17 C 24,15.74418 23.811457,14.784727 23.5,14 L 8.5,14 z"
         style="fill:#d8b700;fill-opacity:0.40000001;fill-rule:nonzero;stroke:none;stroke-width:1;stroke-linecap:round;stroke-linejoin:round;stroke-miterlimit:4;stroke-dasharray:none;stroke-dashoffset:0;stroke-opacity:1" />
      <path
         sodipodi:nodetypes="czzzzzzczzzzzc"
         id="path3338"
         d="M 14.760854,8.4886995 C 14.760854,8.4886995 11.440717,12.519506 10.960155,14 C 10.479593,15.480494 10.788406,16.473383 10.871767,17.681088 C 10.955128,18.888793 11.671417,20.568208 11.578874,22.012117 C 11.486331,23.456026 10.134834,26.034452 10.076272,27.050253 C 10.01771,28.066054 9.6428129,28.086373 10.341437,28.552854 C 11.040061,29.019335 12.784805,27.88982 13.87697,27.845748 C 14.969135,27.801676 17.500893,28.110913 17.500893,28.110913 C 17.500893,28.110913 15.45846,27.58095 14.584077,27.492194 C 13.709694,27.403438 12.56072,28.04336 11.844039,27.227029 C 11.127358,26.410698 13.028457,23.92598 13.081475,22.36567 C 13.134493,20.80536 12.158527,18.269847 12.109204,17.062369 C 12.059881,15.854891 12.04989,15.728818 12.374369,14.410719 C 12.698848,13.09262 14.760854,8.4886995 14.760854,8.4886995 z"
         style="fill:#d8d8ff;fill-opacity:0.50196078;fill-rule:nonzero;stroke:none;stroke-width:2;stroke-linecap:round;stroke-linejoin:miter;stroke-miterlimit:4;stroke-dasharray:none;stroke-dashoffset:0;stroke-opacity:0.25098039" />
      <path
         id="rect3340"
         d="m 10,13 0,15 15,0 c 0,-0.5 0,-1 0,-1 0,-2 -1,-3 -1,-5 0,-2 1,-3 1,-5 0,-1.703394 -0.368581,-2.981525 -0.90625,-4 L 10,13 z"
         style="fill:#d5e5ff;fill-opacity:1;fill-rule:nonzero;stroke:none"
         inkscape:connector-curvature="0" />
      <path
         id="rect3354"
         d="M 10,13 L 10,14 L 10,27.0625 L 10,28 L 25,28 C 25,27.53125 25,27.119263 25,27.0625 L 11,27.0625 L 11,14 L 24.53125,14 C 24.407766,13.643514 24.254419,13.304347 24.09375,13 L 10,13 z"
         style="fill:#554400;fill-opacity:1;fill-rule:nonzero;stroke:none;stroke-width:2;stroke-linecap:round;stroke-linejoin:miter;stroke-miterlimit:4;stroke-dasharray:none;stroke-dashoffset:0;stroke-opacity:0.25098039000000000" />
      <g
         id="g3862"
         transform="translate(78,0)">
        <path
           inkscape:connector-curvature="0"
           style="font-size:4px;font-style:normal;font-variant:normal;font-weight:bold;font-stretch:normal;text-align:start;line-height:100%;writing-mode:lr-tb;text-anchor:start;fill:#524b00;fill-opacity:1;fill-rule:nonzero;stroke:none;font-family:Liberation Sans;-inkscape-font-specification:Liberation Sans Bold"
           d="m -13.3125,24.546875 c -2e-6,0.419923 -0.101564,0.772462 -0.304688,1.057617 -0.212892,0.294922 -0.485352,0.442383 -0.817382,0.442383 -0.220704,0 -0.381837,-0.05176 -0.483399,-0.155273 C -14.972656,25.831055 -15,25.758789 -15,25.674805 c 0,-0.160156 0.06348,-0.240234 0.19043,-0.240235 0.06055,10e-7 0.145507,0.0625 0.254882,0.1875 0.107422,0.119141 0.21289,0.178711 0.316407,0.178711 0.17578,0 0.324217,-0.113281 0.445312,-0.339843 0.107421,-0.197265 0.161131,-0.414062 0.161133,-0.650391 -2e-6,-0.406249 -0.110353,-0.690428 -0.331055,-0.852539 -0.121095,-0.08984 -0.270508,-0.134764 -0.448242,-0.134766 -0.07813,2e-6 -0.178711,0.01758 -0.301758,0.05273 l -0.0293,0 c -0.02344,2e-6 -0.03516,-0.02246 -0.03516,-0.06738 0,-0.0098 0,-0.01953 0,-0.0293 l 0.219727,-1.552735 c 0.0078,-0.05664 0.03223,-0.08496 0.07324,-0.08496 l 1.104492,0 c 0.01172,3e-6 0.01758,0.01661 0.01758,0.0498 -2e-6,0.10352 -0.02051,0.208012 -0.06152,0.313477 -0.01367,0.03711 -0.02539,0.05567 -0.03516,0.05566 l -0.896485,0 c -0.04688,3e-6 -0.07324,0.02637 -0.0791,0.0791 l -0.09961,0.685547 c -0.0059,0.04492 0.0029,0.06739 0.02637,0.06738 l 0.1875,-0.01465 c 0.365233,2e-6 0.636717,0.135744 0.814453,0.407226 0.128904,0.197268 0.193357,0.451174 0.193359,0.761719 m 2.238281,0 c -2e-6,0.419923 -0.101564,0.772462 -0.304687,1.057617 -0.212892,0.294922 -0.485353,0.442383 -0.817383,0.442383 -0.220704,0 -0.381836,-0.05176 -0.483399,-0.155273 -0.05469,-0.06055 -0.08203,-0.132813 -0.08203,-0.216797 0,-0.160156 0.06348,-0.240234 0.19043,-0.240235 0.06055,1e-6 0.145507,0.0625 0.254883,0.1875 0.107421,0.119141 0.21289,0.178711 0.316406,0.178711 0.17578,0 0.324217,-0.113281 0.445312,-0.339843 0.107421,-0.197265 0.161132,-0.414062 0.161133,-0.650391 -1e-6,-0.406249 -0.110353,-0.690428 -0.331054,-0.852539 -0.121095,-0.08984 -0.270509,-0.134764 -0.448243,-0.134766 -0.07813,2e-6 -0.178711,0.01758 -0.301757,0.05273 l -0.0293,0 c -0.02344,2e-6 -0.03516,-0.02246 -0.03516,-0.06738 -10e-7,-0.0098 -10e-7,-0.01953 0,-0.0293 l 0.219726,-1.552735 c 0.0078,-0.05664 0.03223,-0.08496 0.07324,-0.08496 l 1.104492,0 c 0.01172,3e-6 0.01758,0.01661 0.01758,0.0498 -2e-6,0.10352 -0.02051,0.208012 -0.06152,0.313477 -0.01367,0.03711 -0.02539,0.05567 -0.03516,0.05566 l -0.896485,0 c -0.04687,3e-6 -0.07324,0.02637 -0.0791,0.0791 l -0.09961,0.685547 c -0.0059,0.04492 0.0029,0.06739 0.02637,0.06738 l 0.1875,-0.01465 c 0.365233,2e-6 0.636717,0.135744 0.814453,0.407226 0.128904,0.197268 0.193357,0.451174 0.193359,0.761719 m 4.400391,0.272461 c -4e-6,0.369141 -0.06934,0.669922 -0.208008,0.902344 -0.136722,0.224609 -0.317386,0.336914 -0.541992,0.336914 -0.242191,0 -0.43262,-0.134766 -0.571289,-0.404297 -0.11719,-0.226562 -0.175784,-0.504882 -0.175781,-0.834961 -3e-6,-0.361327 0.06836,-0.660154 0.205078,-0.896484 0.138669,-0.238279 0.319333,-0.35742 0.541992,-0.357422 0.292965,2e-6 0.507809,0.189455 0.644531,0.568359 0.07031,0.201174 0.105465,0.429689 0.105469,0.685547 m -0.357422,-0.0088 c -4e-6,-0.351561 -0.04297,-0.625975 -0.128906,-0.823242 -0.07032,-0.150389 -0.158207,-0.225584 -0.263672,-0.225586 -0.16016,2e-6 -0.274417,0.161135 -0.342774,0.483398 -0.03321,0.167971 -0.04981,0.356447 -0.0498,0.56543 -3e-6,0.339844 0.04297,0.610352 0.128906,0.811523 0.0664,0.160157 0.154294,0.240235 0.263672,0.240235 0.148434,0 0.257809,-0.147461 0.328125,-0.442383 0.04296,-0.18164 0.06445,-0.384765 0.06445,-0.609375 m -2.52832,1.417969 c -0.0039,0.0078 -0.01074,0.01172 -0.02051,0.01172 -0.01953,0 -0.04883,-0.01465 -0.08789,-0.04395 -0.04492,-0.03711 -0.06348,-0.06445 -0.05566,-0.08203 l 2.050781,-4.253906 c 0.0059,-0.0098 0.01367,-0.01464 0.02344,-0.01465 0.01953,4e-6 0.0459,0.01172 0.0791,0.03516 0.04882,0.03907 0.06836,0.07032 0.05859,0.09375 l -2.047851,4.253907 m 0.541992,-3.079102 c -2e-6,0.408206 -0.07715,0.727541 -0.231445,0.958008 -0.130861,0.193361 -0.301759,0.290041 -0.512696,0.290039 -0.25,2e-6 -0.44336,-0.13867 -0.580078,-0.416016 -0.113281,-0.22656 -0.169922,-0.503903 -0.169922,-0.832031 0,-0.369137 0.07031,-0.670895 0.210938,-0.905273 0.134765,-0.228512 0.314452,-0.34277 0.539062,-0.342774 0.249999,4e-6 0.443358,0.140629 0.580078,0.421875 0.109374,0.226566 0.164061,0.501956 0.164063,0.826172 m -0.348633,-0.0059 c -1e-6,-0.355466 -0.03027,-0.608395 -0.09082,-0.758789 -0.07813,-0.18945 -0.179689,-0.284176 -0.304688,-0.28418 -0.160157,4e-6 -0.273438,0.16016 -0.339843,0.480469 -0.03516,0.166019 -0.05274,0.353518 -0.05274,0.5625 0,0.339846 0.04199,0.610353 0.125977,0.811523 0.06836,0.164065 0.157225,0.246096 0.266601,0.246094 0.160155,2e-6 0.273436,-0.159178 0.339844,-0.477539 0.03711,-0.171873 0.05566,-0.365232 0.05566,-0.580078"
           id="text3350" />
        <path
           inkscape:connector-curvature="0"
           style="fill:#524b00;fill-opacity:1;fill-rule:nonzero;stroke:none"
           d="m -10.75,15.1875 c -0.02344,6e-6 -0.08594,0.02605 -0.15625,0.09375 -0.06771,0.06511 -0.145834,0.161463 -0.28125,0.25 -0.132813,0.08855 -0.242188,0.125005 -0.3125,0.125 -0.03385,5e-6 -0.0625,0.02084 -0.0625,0.09375 0,0.07032 0.02865,0.125005 0.0625,0.125 0.192708,5e-6 0.28125,0.169276 0.28125,0.53125 l 0,4.09375 c 0,0.203126 -0.122396,0.3125 -0.375,0.3125 -0.02865,0 -0.03125,0.04948 -0.03125,0.125 0,0.07292 0.0026,0.09375 0.03125,0.09375 C -11.427084,21.01042 -11.239584,21 -11.03125,21 c 0.208332,0 0.437499,0.01042 0.65625,0.03125 0.02864,0 0.03125,-0.02083 0.03125,-0.09375 -2e-6,-0.07552 -0.0026,-0.125 -0.03125,-0.125 -0.231772,0 -0.375001,-0.109374 -0.375,-0.3125 l 0,-1.96875 c -10e-7,-0.127602 0.08594,-0.242185 0.21875,-0.375 0.132811,-0.13281 0.294269,-0.218747 0.46875,-0.21875 0.177081,3e-6 0.315102,0.10417 0.4375,0.28125 0.122393,0.177086 0.187497,0.403648 0.1875,0.65625 l 0,1.625 c -3e-6,0.203126 -0.140627,0.3125 -0.375,0.3125 -0.02865,0 -0.03125,0.04948 -0.03125,0.125 -2e-6,0.07292 0.0026,0.09375 0.03125,0.09375 C -9.64844,21.01042 -9.42969,21 -9.1875,21 c 0.244789,0 0.45833,0.01042 0.625,0.03125 0.03125,0 0.03125,-0.02083 0.03125,-0.09375 -3e-6,-0.07552 -3e-6,-0.125 -0.03125,-0.125 -0.263024,0 -0.406253,-0.109374 -0.40625,-0.3125 l 0,-1.65625 C -8.968753,18.557294 -9.03125,18.27344 -9.1875,18 -9.341148,17.723962 -9.572919,17.593753 -9.875,17.59375 c -0.312502,4e-6 -0.562501,0.125003 -0.75,0.375 C -10.64323,17.98959 -10.66927,18 -10.6875,18 c -0.03385,3e-6 -0.0625,-0.02864 -0.0625,-0.09375 l 0,-2 c -10e-7,-0.151037 0.01823,-0.377598 0.03125,-0.65625 -10e-7,-0.04426 -0.0078,-0.06249 -0.03125,-0.0625 z m -7.15625,0.5 c -0.02604,6e-6 -0.03125,0.02605 -0.03125,0.125 0,0.09896 0.0052,0.156255 0.03125,0.15625 0.200521,5e-6 0.361979,0.169276 0.46875,0.46875 l 1.625,4.53125 c 0.03646,0.09115 0.07552,0.15625 0.09375,0.15625 0.02604,0 0.0625,-0.0651 0.09375,-0.15625 l 0.71875,-2 c 0.01562,-0.04166 0.01562,-0.0625 0.03125,-0.0625 0.01823,3e-6 0.04687,0.02084 0.0625,0.0625 l 0.71875,2 c 0.03125,0.09115 0.03906,0.15625 0.0625,0.15625 0.02083,0 0.05729,-0.0625 0.09375,-0.15625 L -12.25,16.3125 c 0.08333,-0.223954 0.26041,-0.343745 0.53125,-0.34375 0.02864,5e-6 0.06249,-0.05729 0.0625,-0.15625 -6e-6,-0.09895 -0.03386,-0.124994 -0.0625,-0.125 -0.09636,0.01303 -0.28386,6e-6 -0.5625,0 -0.276047,6e-6 -0.463546,0.01303 -0.5625,0 -0.02605,6e-6 -0.03125,0.02605 -0.03125,0.125 -5e-6,0.09896 0.0052,0.156255 0.03125,0.15625 0.208328,5e-6 0.312494,0.08855 0.3125,0.25 -5e-6,0.06511 0.0052,0.153651 -0.03125,0.25 l -1.25,3.375 c -0.01563,0.05469 -0.04167,0.09375 -0.0625,0.09375 -0.01823,1e-6 -0.04167,-0.01302 -0.0625,-0.0625 l -0.625,-1.75 c -0.01303,-0.04166 -4e-6,-0.08333 0,-0.125 -4e-6,-0.05468 0.01041,-0.122393 0.03125,-0.1875 L -14,16.3125 c 0.08333,-0.223954 0.28385,-0.343745 0.59375,-0.34375 0.02604,5e-6 0.03125,-0.05729 0.03125,-0.15625 -5e-6,-0.09895 -0.0052,-0.124994 -0.03125,-0.125 -0.09636,0.01303 -0.294275,6e-6 -0.59375,0 -0.299483,6e-6 -0.500003,0.01303 -0.59375,0 -0.03125,6e-6 -0.03125,0.02605 -0.03125,0.125 -4e-6,0.09896 -3e-6,0.156255 0.03125,0.15625 0.20833,5e-6 0.312497,0.09115 0.3125,0.25 -3e-6,0.06771 0.0052,0.153651 -0.03125,0.25 l -0.375,0.96875 c -0.02344,0.06511 -0.04427,0.09375 -0.0625,0.09375 -0.01563,3e-6 -0.03907,-0.03385 -0.0625,-0.09375 l -0.34375,-1 c -0.03125,-0.09374 -0.0625,-0.187495 -0.0625,-0.25 -2e-6,-0.143224 0.109372,-0.218745 0.34375,-0.21875 0.02604,5e-6 0.0625,-0.05729 0.0625,-0.15625 -4e-6,-0.09895 -0.03646,-0.124994 -0.0625,-0.125 -0.09636,0.01303 -0.283857,6e-6 -0.625,0 -0.341148,6e-6 -0.565107,0.01303 -0.65625,0 -0.02865,6e-6 -0.0625,0.02605 -0.0625,0.125 -2e-6,0.09896 0.03385,0.156255 0.0625,0.15625 0.177081,5e-6 0.299477,0.169276 0.40625,0.46875 l 0.6875,1.84375 c 0.02083,0.0599 0.03125,0.130211 0.03125,0.1875 -3e-6,0.05469 -0.01563,0.109378 -0.03125,0.15625 L -15.5,19.84375 c -0.01823,0.05469 -0.03907,0.09375 -0.0625,0.09375 -0.01563,1e-6 -0.04167,-0.01302 -0.0625,-0.0625 l -1.25,-3.4375 c -0.03125,-0.08854 -0.03125,-0.187496 -0.03125,-0.25 -2e-6,-0.148432 0.10677,-0.218745 0.34375,-0.21875 0.02604,5e-6 0.03125,-0.05729 0.03125,-0.15625 -2e-6,-0.09895 -0.0052,-0.124994 -0.03125,-0.125 -0.09896,0.01303 -0.335939,6e-6 -0.6875,0 -0.348959,6e-6 -0.5625,0.01303 -0.65625,0 z m 10.28125,0.375 c -0.09375,5e-6 -0.184896,0.04428 -0.25,0.125 -0.0625,0.07813 -0.0625,0.164067 -0.0625,0.28125 0,0.117192 0,0.229171 0.0625,0.3125 0.0651,0.08334 0.15625,0.125004 0.25,0.125 0.09375,4e-6 0.184894,-0.04166 0.25,-0.125 0.06771,-0.08333 0.09375,-0.195308 0.09375,-0.3125 -1e-6,-0.117183 -0.02604,-0.20312 -0.09375,-0.28125 -0.06511,-0.08072 -0.156251,-0.124995 -0.25,-0.125 z m 0.28125,1.5 c -0.02083,4e-6 -0.05469,0.02865 -0.125,0.09375 -0.06771,0.06511 -0.177084,0.130212 -0.3125,0.21875 -0.132813,0.08854 -0.242188,0.125003 -0.3125,0.125 -0.03385,3e-6 -0.03125,0.05209 -0.03125,0.125 -10e-7,0.07292 -0.0026,0.09375 0.03125,0.09375 0.192708,3e-6 0.3125,0.203128 0.3125,0.5625 l 0,1.71875 c 0,0.203126 -0.138022,0.3125 -0.375,0.3125 -0.02865,0 -0.03125,0.04948 -0.03125,0.125 0,0.07292 0.0026,0.09375 0.03125,0.09375 C -7.986979,21.010417 -7.794271,21 -7.5625,21 c 0.23177,0 0.434894,0.01042 0.59375,0.03125 0.02865,0 0.0625,-0.02083 0.0625,-0.09375 -1e-6,-0.07552 -0.03386,-0.125 -0.0625,-0.125 -0.23698,0 -0.343751,-0.109374 -0.34375,-0.3125 l 0,-2.25 c -1e-6,-0.151039 -0.01302,-0.343747 0,-0.625 -1e-6,-0.04166 -0.0052,-0.0625 -0.03125,-0.0625 z m 1.78125,0.03125 c -0.26823,4e-6 -0.481771,0.09636 -0.65625,0.28125 C -6.393229,18.057295 -6.5,18.296878 -6.5,18.5625 c 0,0.260419 0.08073,0.455731 0.21875,0.625 0.13802,0.169273 0.302083,0.296877 0.53125,0.375 0.08192,0.02669 0.154724,0.0625 0.21875,0.09375 0.06022,-0.181721 0.09764,-0.379163 0.15625,-0.5625 C -5.42083,19.07358 -5.44847,19.04955 -5.5,19.03125 -5.776042,18.92969 -5.960938,18.83594 -6.03125,18.75 -6.098959,18.664065 -6.125,18.533856 -6.125,18.375 -6.125001,18.208337 -6.096355,18.096357 -6,18 c 0.09896,-0.09896 0.247394,-0.156247 0.40625,-0.15625 0.161456,3e-6 0.286456,0.05469 0.40625,0.1875 0.02509,0.02782 0.04175,0.06559 0.0625,0.09375 0.02681,-0.136655 0.07587,-0.260667 0.09375,-0.40625 0.0012,-0.0097 -0.0011,-0.02154 0,-0.03125 -0.147212,-0.05897 -0.318518,-0.09375 -0.53125,-0.09375 z m -0.90625,2.375 c -0.04948,1e-6 -0.0625,-0.0078 -0.0625,0.03125 l 0,0.1875 c -1e-6,0.283855 0.02083,0.523438 0.0625,0.6875 0.132812,0.117188 0.316406,0.158203 0.53125,0.1875 0.01581,-0.09717 0.04281,-0.187955 0.0625,-0.28125 C -5.995563,20.727131 -6.111812,20.637185 -6.1875,20.5 -6.3125,20.273439 -6.364583,20.101563 -6.375,20 -6.3802,19.96094 -6.41927,19.96875 -6.46875,19.96875 z"
           id="path3371" />
      </g>
      <path
         style="fill:white;fill-opacity:1;stroke:none"
         d="m 11,15 0,7 13,0 c 0,-2 1,-3 1,-5 0,-0.749405 -0.06469,-1.398784 -0.1875,-2 L 11,15 z"
         id="rect3796"
         inkscape:connector-curvature="0" />
      <path
         style="font-size:4px;font-style:normal;font-variant:normal;font-weight:normal;font-stretch:normal;text-align:start;line-height:125%;writing-mode:lr-tb;text-anchor:start;fill:#540;fill-opacity:1;stroke:none;font-family:GoudyBookletter1911Bold;-inkscape-font-specification:GoudyBookletter1911Bold"
         d="M 17.75 22.6875 C 17.706 22.6875 17.59375 22.75 17.59375 22.75 C 17.55375 22.794 17.584 22.76875 16 25.46875 C 15.996 25.47675 15.96875 25.5225 15.96875 25.5625 C 15.96875 25.6745 16.08425 25.71875 16.15625 25.71875 C 16.22025 25.71875 16.24925 25.69225 16.28125 25.65625 C 16.32525 25.61225 16.34225 25.5735 17.90625 22.9375 C 17.91825 22.9215 17.9375 22.88775 17.9375 22.84375 C 17.9375 22.69575 17.77 22.6875 17.75 22.6875 z M 16.0625 22.84375 C 15.6865 22.84375 15.375 23.174001 15.375 23.75 C 15.375 24.342 15.77125 24.53125 16.03125 24.53125 C 16.455249 24.53125 16.71875 24.16425 16.71875 23.65625 C 16.71875 23.064251 16.3225 22.84375 16.0625 22.84375 z M 16.03125 23.15625 C 16.18325 23.15625 16.3125 23.438 16.3125 23.75 C 16.3125 23.818 16.29325 23.90075 16.28125 23.96875 C 16.26525 24.06475 16.2185 24.21875 16.0625 24.21875 C 16.0385 24.21875 15.9895 24.2275 15.9375 24.1875 C 15.8335 24.0995 15.78125 23.785 15.78125 23.625 C 15.78125 23.421 15.86325 23.15625 16.03125 23.15625 z M 14.25 23.3125 C 14.158 23.3125 14.10575 23.4095 14.09375 23.4375 C 14.08175 23.4695 14.044 23.62925 14 23.78125 C 13.984 23.84125 13.9575 23.90475 13.9375 23.96875 C 13.8815 24.16875 13.84375 24.323 13.84375 24.375 C 13.84375 24.435 13.87275 24.5 13.96875 24.5 C 14.04475 24.5 14.083501 24.46875 14.1875 24.46875 C 14.4035 24.46875 14.625 24.656 14.625 25 C 14.625 25.176 14.568 25.3255 14.5 25.4375 C 14.336001 25.6855 14.09375 25.695 14.09375 25.875 C 14.09375 25.919 14.097 25.94475 14.125 25.96875 C 14.153 25.99675 14.18275 26 14.21875 26 C 14.37875 26 14.687751 25.76325 14.84375 25.53125 C 14.95175 25.37125 15.03125 25.16225 15.03125 24.90625 C 15.03125 24.386251 14.654 24.03925 14.25 24.03125 C 14.258 23.99525 14.27325 23.9655 14.28125 23.9375 C 14.29325 23.9015 14.3045 23.86375 14.3125 23.84375 C 14.4525 23.88375 14.849501 24.03125 14.9375 24.03125 C 15.0095 24.03125 15.0505 23.9735 15.0625 23.9375 C 15.2425 23.521501 15.25 23.52875 15.25 23.46875 C 15.25 23.36875 15.173 23.34375 15.125 23.34375 C 15.113 23.34375 15.05925 23.355 15.03125 23.375 C 14.99525 23.415 14.9735 23.464 14.9375 23.5 C 14.9335 23.508 14.91025 23.52725 14.90625 23.53125 C 14.802251 23.51125 14.338 23.3125 14.25 23.3125 z M 13.25 23.34375 C 13.186 23.34375 13.149 23.37825 13.125 23.40625 C 13.093 23.44625 13.13375 23.41025 12.09375 24.90625 C 12.07375 24.93425 12 25.00175 12 25.09375 C 12 25.20575 12.11625 25.21875 12.15625 25.21875 L 13 25.21875 L 13 25.84375 C 13 25.87975 12.99775 25.96875 13.09375 25.96875 L 13.28125 25.96875 C 13.36525 25.96875 13.375 25.88775 13.375 25.84375 L 13.375 25.21875 L 13.5625 25.21875 C 13.5945 25.21875 13.6595 25.2155 13.6875 25.1875 C 13.7435 25.1195 13.75 24.93025 13.75 24.90625 C 13.75 24.81425 13.66975 24.75 13.59375 24.75 C 13.54175 24.75 13.52225 24.78125 13.40625 24.78125 L 13.375 24.78125 L 13.40625 23.5 C 13.40625 23.396 13.306 23.34375 13.25 23.34375 z M 17.875 23.90625 C 17.499 23.90625 17.1875 24.236501 17.1875 24.8125 C 17.1875 25.4045 17.5525 25.59375 17.8125 25.59375 C 18.236499 25.59375 18.5 25.1915 18.5 24.6875 C 18.5 24.095501 18.135 23.90625 17.875 23.90625 z M 12.96875 24.15625 L 13 24.15625 L 13 24.8125 L 12.5625 24.8125 C 12.6225 24.7205 12.72475 24.52025 12.96875 24.15625 z M 17.8125 24.21875 C 17.9685 24.21875 18.09375 24.5045 18.09375 24.8125 C 18.09375 24.8845 18.0745 24.932 18.0625 25 C 18.0465 25.092 18.031 25.28125 17.875 25.28125 C 17.847 25.28125 17.798 25.26275 17.75 25.21875 C 17.642 25.12675 17.5625 24.8435 17.5625 24.6875 L 17.5625 24.65625 C 17.5665 24.46025 17.6485 24.21875 17.8125 24.21875 z "
         id="path3850" />
      <text
         sodipodi:linespacing="125%"
         id="text3792"
         y="24.716"
         x="39.982002"
         style="font-size:6px;font-style:normal;font-variant:normal;font-weight:normal;font-stretch:normal;text-align:start;line-height:125%;writing-mode:lr-tb;text-anchor:start;fill:#540;fill-opacity:1;stroke:none;font-family:GoudyBookletter1911Bold;-inkscape-font-specification:GoudyBookletter1911Bold"
         xml:space="preserve"><tspan
           y="24.716"
           x="39.982002"
           id="tspan3794"
           sodipodi:role="line">45%</tspan></text>
      <path
         style="font-size:6px;font-style:normal;font-variant:normal;font-weight:normal;font-stretch:normal;text-align:start;line-height:125%;writing-mode:lr-tb;text-anchor:start;fill:#540;fill-opacity:1;stroke:none;font-family:GoudyBookletter1911Bold;-inkscape-font-specification:GoudyBookletter1911Bold"
         d="M 18.40625 16.3125 C 18.315077 16.3125 18.213739 16.381628 17.96875 16.53125 C 17.954533 16.528077 17.952707 16.5 17.9375 16.5 L 17.34375 16.5 L 16.71875 16.5 C 16.53275 16.5 16.5 16.666 16.5 16.75 C 16.5 16.792 16.5085 16.84625 16.5625 16.90625 C 16.6045 16.96025 16.65275 16.994 16.71875 17 C 16.87475 17.018 17.00125 17.01925 17.03125 17.03125 L 17.03125 17.0625 C 17.01925 17.1885 16.607249 18.563251 16.03125 19.78125 C 15.89325 19.48725 15.377999 18.233749 15 17.09375 C 14.994 17.06975 15 17.03725 15 17.03125 C 15 17.02525 15.04575 17.006 15.09375 17 C 15.20775 16.988 15.32225 17.01425 15.40625 16.90625 C 15.44825 16.85825 15.4375 16.798 15.4375 16.75 C 15.4375 16.66 15.39275 16.5 15.21875 16.5 L 14.625 16.5 L 14 16.5 C 13.934 16.5 13.8665 16.5085 13.8125 16.5625 C 13.7645 16.6105 13.71875 16.684 13.71875 16.75 C 13.71875 16.9 13.8115 16.994 13.9375 17 C 14.0995 17.006 14.21275 17.02525 14.21875 17.03125 C 14.22475 17.03725 14.22 17.07825 14.25 17.15625 C 14.579999 18.110249 14.65625 18.26325 14.65625 18.28125 L 14.65625 18.3125 C 14.65625 18.3185 14.631 18.31975 14.625 18.34375 C 14.325 19.117749 14.197 19.48825 14.125 19.65625 C 13.651 18.396251 13.554749 18.118499 13.21875 17.0625 L 13.1875 17.0625 L 13.1875 17.03125 C 13.1995 17.01925 13.3945 17.1115 13.5625 16.9375 C 13.6105 16.8895 13.625 16.816 13.625 16.75 C 13.625 16.72 13.62825 16.5 13.40625 16.5 L 12.84375 16.5 L 12.28125 16.5 C 12.05925 16.5 12 16.69725 12 16.78125 C 12 16.87125 12.0205 16.92075 12.0625 16.96875 C 12.2665 17.19075 12.327 16.9545 12.375 17.0625 C 12.423 17.1885 12.846251 18.607752 13.65625 20.59375 C 13.69225 20.67175 13.742 21 14 21 C 14.036 21 14.05775 20.99275 14.09375 20.96875 C 14.260343 20.891403 14.259426 20.824291 14.9375 19.0625 C 14.996113 19.207481 15.105163 19.468517 15.5625 20.625 C 15.6045 20.745 15.67225 21 15.90625 21 C 16.10425 21 16.20925 20.81225 16.28125 20.65625 C 17.200272 18.684423 17.612624 17.353206 17.6875 17.15625 C 17.801384 17.205385 17.934241 17.215491 17.9375 17.21875 C 17.9435 17.38075 17.96875 18.218251 17.96875 18.65625 L 17.96875 18.6875 C 17.96875 19.2395 17.9555 19.766501 17.9375 20.3125 C 17.9255 20.4085 17.929 20.39425 17.875 20.40625 C 17.743 20.43025 17.5625 20.45225 17.5625 20.65625 C 17.5625 20.68025 17.552 20.90625 17.75 20.90625 C 17.798 20.90625 18.0065 20.875 18.3125 20.875 C 18.600499 20.875 18.821 20.90625 18.875 20.90625 C 19.066999 20.90625 19.0625 20.68625 19.0625 20.65625 C 19.0625 20.326251 18.59975 20.37975 18.59375 20.34375 C 18.58775 20.22975 18.59375 18.94225 18.59375 18.90625 L 18.59375 18.84375 C 18.59375 18.83175 18.66725 18.7415 18.78125 18.6875 C 18.85325 18.6575 18.922 18.65625 19 18.65625 C 19.149999 18.65625 19.29825 18.7105 19.40625 18.8125 C 19.526249 18.9445 19.65625 19.148001 19.65625 20 C 19.65625 20.234 19.637 20.35225 19.625 20.40625 C 19.439 20.43025 19.1875 20.41025 19.1875 20.65625 L 19.1875 20.6875 C 19.1875 20.7415 19.219 20.90625 19.375 20.90625 C 19.423 20.90625 19.61825 20.875 19.90625 20.875 C 20.200249 20.875 20.41475 20.90625 20.46875 20.90625 C 20.570518 20.90625 20.634421 20.818412 20.65625 20.71875 C 20.671455 20.813452 20.722405 20.90625 20.84375 20.90625 C 20.89175 20.90625 21.075 20.875 21.375 20.875 C 21.663 20.875 21.8835 20.90625 21.9375 20.90625 C 22.1415 20.90625 22.125 20.67425 22.125 20.65625 C 22.125 20.43425 21.9 20.42425 21.75 20.40625 C 21.738 20.35225 21.71875 20.152 21.71875 19.75 L 21.71875 19.5625 C 21.71875 18.836501 21.75 18.2535 21.75 18.1875 C 21.75 18.0495 21.6465 17.96875 21.5625 17.96875 C 21.4545 17.96875 21.46175 18.0185 20.84375 18.3125 C 20.82575 18.3245 20.59375 18.34525 20.59375 18.53125 C 20.59375 18.66925 20.732 18.71275 20.75 18.71875 C 20.936 18.79675 21.05175 18.851 21.09375 18.875 C 21.08775 18.983 21.09375 19.341251 21.09375 20.03125 L 21.09375 20.3125 C 21.09375 20.4145 21.10325 20.39425 21.03125 20.40625 C 20.828221 20.432279 20.692089 20.47748 20.65625 20.625 C 20.637425 20.489823 20.49855 20.44305 20.4375 20.4375 C 20.3775 20.4255 20.36175 20.41225 20.34375 20.40625 L 20.34375 20.34375 C 20.31975 19.227751 20.28825 19.01875 20.15625 18.71875 C 20.00025 18.364751 19.693999 18.09375 19.25 18.09375 C 18.974 18.09375 18.762999 18.178 18.625 18.25 L 18.625 16.5625 C 18.625 16.4005 18.490249 16.3125 18.40625 16.3125 z M 24.84375 16.3125 C 24.75375 16.3125 24.21875 16.59375 24.21875 16.59375 C 24.21275 16.59375 24.03125 16.60725 24.03125 16.78125 L 24.03125 16.8125 C 24.03125 16.8185 24.04575 16.8835 24.09375 16.9375 C 24.13575 16.9735 24.273 17.053 24.375 17.125 C 24.387 17.131 24.40625 17.15625 24.40625 17.15625 L 24.40625 17.1875 L 24.40625 20.40625 C 24.40625 20.40625 24.09375 20.39225 24.09375 20.65625 C 24.09375 20.73425 24.1445 20.90625 24.3125 20.90625 C 24.3845 20.90625 24.50525 20.875 24.78125 20.875 C 24.912267 20.875 24.927915 20.867777 25 20.875 L 25 16.40625 C 24.976375 16.354563 24.936749 16.3125 24.84375 16.3125 z M 21.5625 16.625 C 21.3405 16.625 21.125 16.80925 21.125 17.03125 C 21.125 17.26525 21.30925 17.4375 21.53125 17.4375 C 21.74725 17.4375 21.96875 17.26525 21.96875 17.03125 C 21.96875 16.81525 21.7785 16.625 21.5625 16.625 z M 23.59375 18.03125 C 23.50975 18.03125 23.4555 18.08175 23.4375 18.09375 C 23.3955 18.08775 23.269 18.0625 23.125 18.0625 C 22.531 18.0625 22.15625 18.474251 22.15625 18.90625 C 22.15625 19.26025 22.37825 19.6 22.90625 19.75 C 23.15225 19.816 23.53125 19.861 23.53125 20.125 C 23.53125 20.281 23.4095 20.40625 23.1875 20.40625 C 22.8815 20.40625 22.62975 20.197 22.59375 20.125 C 22.59375 20.125 22.61975 19.6875 22.34375 19.6875 C 22.16975 19.6875 22.125 19.844 22.125 20 L 22.125 20.34375 C 22.125 20.44575 22.14675 20.57225 22.21875 20.65625 C 22.43475 20.90225 22.85625 20.96875 23.15625 20.96875 C 23.810249 20.96875 24.1875 20.5125 24.1875 20.0625 C 24.1875 19.9485 24.14875 19.71 23.96875 19.5 C 23.71075 19.206 23.37575 19.17175 23.09375 19.09375 C 22.69175 18.97975 22.71875 18.82325 22.71875 18.78125 C 22.71875 18.67925 22.80675 18.59375 22.96875 18.59375 C 23.11875 18.59375 23.327 18.71525 23.375 18.78125 C 23.387 18.79925 23.41025 19.125 23.65625 19.125 C 23.68025 19.125 23.708 19.10575 23.75 19.09375 C 23.81 19.06975 23.90625 19.02625 23.90625 18.90625 C 23.90625 18.84025 23.8485 18.472 23.8125 18.25 C 23.8125 18.238 23.77975 18.03125 23.59375 18.03125 z "
         id="path3829" />
      <path
         id="path3244"
         d="m 13,1 c -1.645063,0 -3,1.3549372 -3,3 0,1.2920597 0.844243,2.3942942 2,2.8125 L 12,7 c 0,0.4166667 -0.157379,0.6833583 -0.625,1.125 -0.467621,0.4416417 -1.199625,0.9267707 -2,1.59375 C 7.77425,11.052709 6,13.214286 6,17 6,18.166667 6.3125,19.0625 6.5625,19.8125 6.8125,20.5625 7,21.166667 7,22 7,22.833333 6.8125,23.4375 6.5625,24.1875 6.3125,24.9375 6,25.833333 6,27 c 0,0 0,2 0,2 0,1.645062 1.354937,3 3,3 l 14,0 c 1.645063,0 3,-1.354937 3,-3 0,0 0,-2 0,-2 0,-1.166667 -0.3125,-2.0625 -0.5625,-2.8125 C 25.1875,23.4375 25,22.833333 25,22 25,21.166667 25.1875,20.5625 25.4375,19.8125 25.6875,19.0625 26,18.166667 26,17 26,13.214286 24.257,11.052709 22.65625,9.71875 21.855875,9.0517707 21.092621,8.5666417 20.625,8.125 20.157379,7.6833583 20,7.4166666 20,7 L 20,6.8125 C 21.155757,6.3942942 22,5.2920597 22,4 22,2.3549372 20.645063,1 19,1 l -6,0 z m 0,1 6,0 c 1.104,0 2,0.896 2,2 0,0.7392229 -0.403107,1.3725803 -1,1.71875 -0.119322,0.069201 -0.242,0.1414478 -0.375,0.1875 C 19.59389,5.916442 19.56301,5.928815 19.53125,5.9375 19.363665,5.9864599 19.182389,6 19,6 l 0,1 c 0,3 6,3 6,10 0,2 -1,3 -1,5 0,2 1,3 1,5 0,0 0,2 0,2 0,1.104 -0.896,2 -2,2 L 9,31 C 7.896,31 7,30.104 7,29 7,29 7,27 7,27 7,25 8,24 8,22 8,20 7,19 7,17 7,10 13,10 13,7 L 13,6 C 12.81715,6 12.637063,5.9835317 12.46875,5.9375 12.436946,5.9282083 12.406153,5.917037 12.375,5.90625 12.242071,5.8626985 12.119042,5.7877884 12,5.71875 11.403107,5.3725803 11,4.7392229 11,4 11,2.8960001 11.896,2 13,2 z"
         style="fill:black;fill-opacity:1;fill-rule:nonzero;stroke:none"
         inkscape:connector-curvature="0" />
      <text
         sodipodi:linespacing="125%"
         id="text3824"
         y="20.747999"
         x="40.042"
         style="font-size:8px;font-style:normal;font-variant:normal;font-weight:bold;font-stretch:normal;text-align:start;line-height:125%;text-anchor:start;fill:#d5e5ff;fill-opacity:0.4;stroke:none;font-family:Impact;-inkscape-font-specification:Impact Bold"
         xml:space="preserve"><tspan
           dx="0 -0.5"
           style="font-size:6px;font-style:normal;font-variant:normal;font-weight:normal;font-stretch:normal;text-align:start;line-height:125%;writing-mode:lr-tb;text-anchor:start;fill:#540;fill-opacity:1;font-family:GoudyBookletter1911Bold;-inkscape-font-specification:GoudyBookletter1911Bold"
           y="20.747999"
           x="40.042"
           id="tspan3826"
           sodipodi:role="line">Whisk</tspan></text>
      <rect
         style="fill:black;fill-opacity:1;stroke:none"
         id="rect3860"
         width="7"
         height="1"
         x="12.5"
         y="0" />
      <path
         sodipodi:nodetypes="ccccccc"
         inkscape:connector-curvature="0"
         id="path3868"
         d="m -19,1 0,3 1,4 4,0 1,-4 0,-3 z"
         style="fill:#c8ab37;fill-opacity:1;stroke:none" />
      <path
         sodipodi:nodetypes="cccccc"
         inkscape:connector-curvature="0"
         id="path3870"
         d="m -19,1 2,0 0,7 -1,0 -1,-4 z"
         style="fill:#a0892c;fill-opacity:1;stroke:none" />
      <path
         style="fill:red;fill-opacity:0.25098039;stroke:none"
         d="M -19.5 2 C -20.331 2 -21 2.669 -21 3.5 C -21 4.331 -20.331 5 -19.5 5 L -19.5 12.03125 C -22.591278 12.280798 -25 14.842304 -25 18 L -25 24 L -25 26 L -25 28 C -25 29.662 -23.662 31 -22 31 L -10 31 C -8.338 31 -7 29.662 -7 28 L -7 26 L -7 24 L -7 18 C -7 14.842304 -9.4087223 12.280798 -12.5 12.03125 L -12.5 5 C -11.669 5 -11 4.331 -11 3.5 C -11 2.669 -11.669 2 -12.5 2 L -19.5 2 z "
         id="rect3872" />
      <path
         sodipodi:type="arc"
         style="fill:red;fill-opacity:0.25098039;stroke:none"
         id="path3884"
         sodipodi:cx="-19.5"
         sodipodi:cy="12"
         sodipodi:rx="3.5"
         sodipodi:ry="3.5"
         d="m -16,12 a 3.5,3.5 0 1 1 -7,0 3.5,3.5 0 1 1 7,0 z"
         transform="translate(-3.5,-2.6153878)" />
      <g
         id="g3896"
         transform="translate(-32,0)">
        <path
           id="path3886"
           d="m 10,13 0,15 15,0 c 0,-0.5 0,-1 0,-1 0,-2 -1,-3 -1,-5 0,-2 1,-3 1,-5 0,-1.703394 -0.368581,-2.981525 -0.90625,-4 L 10,13 z"
           style="fill:#d5e5ff;fill-opacity:1;fill-rule:nonzero;stroke:none"
           inkscape:connector-curvature="0" />
        <path
           id="path3888"
           d="m 10,13 0,1 0,13.0625 0,0.9375 15,0 c 0,-0.46875 0,-0.880737 0,-0.9375 l -14,0 L 11,14 24.53125,14 c -0.123484,-0.356486 -0.276831,-0.695653 -0.4375,-1 L 10,13 z"
           style="fill:#540;fill-opacity:1;fill-rule:nonzero;stroke:none"
           inkscape:connector-curvature="0" />
        <path
           style="fill:white;fill-opacity:1;stroke:none"
           d="m 11,15 0,7 13,0 c 0,-2 1,-3 1,-5 0,-0.749405 -0.06469,-1.398784 -0.1875,-2 L 11,15 z"
           id="path3890"
           inkscape:connector-curvature="0" />
        <path
           style="font-size:4px;font-style:normal;font-variant:normal;font-weight:normal;font-stretch:normal;text-align:start;line-height:125%;writing-mode:lr-tb;text-anchor:start;fill:#540;fill-opacity:1;stroke:none;font-family:GoudyBookletter1911Bold;-inkscape-font-specification:GoudyBookletter1911Bold"
           d="m 17.75,22.6875 c -0.044,0 -0.15625,0.0625 -0.15625,0.0625 -0.04,0.044 -0.0098,0.01875 -1.59375,2.71875 -0.004,0.008 -0.03125,0.05375 -0.03125,0.09375 0,0.112 0.1155,0.15625 0.1875,0.15625 0.064,0 0.093,-0.0265 0.125,-0.0625 0.044,-0.044 0.061,-0.08275 1.625,-2.71875 0.012,-0.016 0.03125,-0.04975 0.03125,-0.09375 0,-0.148 -0.1675,-0.15625 -0.1875,-0.15625 z m -1.6875,0.15625 c -0.376,0 -0.6875,0.330251 -0.6875,0.90625 0,0.592 0.39625,0.78125 0.65625,0.78125 0.423999,0 0.6875,-0.367 0.6875,-0.875 0,-0.591999 -0.39625,-0.8125 -0.65625,-0.8125 z m -0.03125,0.3125 c 0.152,0 0.28125,0.28175 0.28125,0.59375 0,0.068 -0.01925,0.15075 -0.03125,0.21875 -0.016,0.096 -0.06275,0.25 -0.21875,0.25 -0.024,0 -0.073,0.0087 -0.125,-0.03125 -0.104,-0.088 -0.15625,-0.4025 -0.15625,-0.5625 0,-0.204 0.082,-0.46875 0.25,-0.46875 z M 14.25,23.3125 c -0.092,0 -0.14425,0.097 -0.15625,0.125 -0.012,0.032 -0.04975,0.19175 -0.09375,0.34375 -0.016,0.06 -0.0425,0.1235 -0.0625,0.1875 -0.056,0.2 -0.09375,0.35425 -0.09375,0.40625 0,0.06 0.029,0.125 0.125,0.125 0.076,0 0.114751,-0.03125 0.21875,-0.03125 0.216,0 0.4375,0.18725 0.4375,0.53125 0,0.176 -0.057,0.3255 -0.125,0.4375 -0.163999,0.248 -0.40625,0.2575 -0.40625,0.4375 0,0.044 0.0032,0.06975 0.03125,0.09375 0.028,0.028 0.05775,0.03125 0.09375,0.03125 0.16,0 0.469001,-0.23675 0.625,-0.46875 0.108,-0.16 0.1875,-0.369 0.1875,-0.625 0,-0.519999 -0.37725,-0.867 -0.78125,-0.875 0.008,-0.036 0.02325,-0.06575 0.03125,-0.09375 0.012,-0.036 0.02325,-0.07375 0.03125,-0.09375 0.14,0.04 0.537001,0.1875 0.625,0.1875 0.072,0 0.113,-0.05775 0.125,-0.09375 0.18,-0.415999 0.1875,-0.40875 0.1875,-0.46875 0,-0.1 -0.077,-0.125 -0.125,-0.125 -0.012,0 -0.06575,0.01125 -0.09375,0.03125 -0.036,0.04 -0.05775,0.089 -0.09375,0.125 -0.004,0.008 -0.02725,0.02725 -0.03125,0.03125 C 14.802251,23.51125 14.338,23.3125 14.25,23.3125 z m -1,0.03125 c -0.064,0 -0.101,0.0345 -0.125,0.0625 -0.032,0.04 0.0087,0.004 -1.03125,1.5 -0.02,0.028 -0.09375,0.0955 -0.09375,0.1875 0,0.112 0.11625,0.125 0.15625,0.125 l 0.84375,0 0,0.625 c 0,0.036 -0.0023,0.125 0.09375,0.125 l 0.1875,0 c 0.084,0 0.09375,-0.081 0.09375,-0.125 l 0,-0.625 0.1875,0 c 0.032,0 0.097,-0.0033 0.125,-0.03125 0.056,-0.068 0.0625,-0.25725 0.0625,-0.28125 0,-0.092 -0.08025,-0.15625 -0.15625,-0.15625 -0.052,0 -0.0715,0.03125 -0.1875,0.03125 l -0.03125,0 L 13.40625,23.5 c 0,-0.104 -0.10025,-0.15625 -0.15625,-0.15625 z m 4.625,0.5625 c -0.376,0 -0.6875,0.330251 -0.6875,0.90625 0,0.592 0.365,0.78125 0.625,0.78125 0.423999,0 0.6875,-0.40225 0.6875,-0.90625 0,-0.591999 -0.365,-0.78125 -0.625,-0.78125 z m -4.90625,0.25 0.03125,0 0,0.65625 -0.4375,0 c 0.06,-0.092 0.16225,-0.29225 0.40625,-0.65625 z m 4.84375,0.0625 c 0.156,0 0.28125,0.28575 0.28125,0.59375 0,0.072 -0.01925,0.1195 -0.03125,0.1875 -0.016,0.092 -0.0315,0.28125 -0.1875,0.28125 -0.028,0 -0.077,-0.0185 -0.125,-0.0625 -0.108,-0.092 -0.1875,-0.37525 -0.1875,-0.53125 l 0,-0.03125 c 0.004,-0.196 0.086,-0.4375 0.25,-0.4375 z"
           id="path3892"
           inkscape:connector-curvature="0" />
        <path
           style="font-size:6px;font-style:normal;font-variant:normal;font-weight:normal;font-stretch:normal;text-align:start;line-height:125%;writing-mode:lr-tb;text-anchor:start;fill:#540;fill-opacity:1;stroke:none;font-family:GoudyBookletter1911Bold;-inkscape-font-specification:GoudyBookletter1911Bold"
           d="m 18.40625,16.3125 c -0.09117,0 -0.192511,0.06913 -0.4375,0.21875 C 17.954533,16.528077 17.952707,16.5 17.9375,16.5 l -0.59375,0 -0.625,0 c -0.186,0 -0.21875,0.166 -0.21875,0.25 0,0.042 0.0085,0.09625 0.0625,0.15625 0.042,0.054 0.09025,0.08775 0.15625,0.09375 0.156,0.018 0.2825,0.01925 0.3125,0.03125 l 0,0.03125 c -0.012,0.126 -0.424001,1.500751 -1,2.71875 -0.138,-0.294 -0.653251,-1.547501 -1.03125,-2.6875 -0.006,-0.024 0,-0.0565 0,-0.0625 0,-0.006 0.04575,-0.02525 0.09375,-0.03125 0.114,-0.012 0.2285,0.01425 0.3125,-0.09375 0.042,-0.048 0.03125,-0.10825 0.03125,-0.15625 0,-0.09 -0.04475,-0.25 -0.21875,-0.25 l -0.59375,0 -0.625,0 c -0.066,0 -0.1335,0.0085 -0.1875,0.0625 -0.048,0.048 -0.09375,0.1215 -0.09375,0.1875 0,0.15 0.09275,0.244 0.21875,0.25 0.162,0.006 0.27525,0.02525 0.28125,0.03125 0.006,0.006 0.0013,0.047 0.03125,0.125 0.329999,0.953999 0.40625,1.107 0.40625,1.125 l 0,0.03125 c 0,0.006 -0.02525,0.0072 -0.03125,0.03125 -0.3,0.773999 -0.428,1.1445 -0.5,1.3125 -0.474,-1.259999 -0.570251,-1.537751 -0.90625,-2.59375 l -0.03125,0 0,-0.03125 c 0.012,-0.012 0.207,0.08025 0.375,-0.09375 0.048,-0.048 0.0625,-0.1215 0.0625,-0.1875 0,-0.03 0.0032,-0.25 -0.21875,-0.25 l -0.5625,0 -0.5625,0 C 12.05925,16.5 12,16.69725 12,16.78125 c 0,0.09 0.0205,0.1395 0.0625,0.1875 0.204,0.222 0.2645,-0.01425 0.3125,0.09375 0.048,0.126 0.471251,1.545252 1.28125,3.53125 C 13.69225,20.67175 13.742,21 14,21 c 0.036,0 0.05775,-0.0072 0.09375,-0.03125 0.166593,-0.07735 0.165676,-0.144459 0.84375,-1.90625 0.05861,0.144981 0.167663,0.406017 0.625,1.5625 0.042,0.12 0.10975,0.375 0.34375,0.375 0.198,0 0.303,-0.18775 0.375,-0.34375 0.919022,-1.971827 1.331374,-3.303044 1.40625,-3.5 0.113884,0.04913 0.246741,0.05924 0.25,0.0625 0.006,0.162 0.03125,0.999501 0.03125,1.4375 l 0,0.03125 c 0,0.552 -0.01325,1.079001 -0.03125,1.625 -0.012,0.096 -0.0085,0.08175 -0.0625,0.09375 -0.132,0.024 -0.3125,0.046 -0.3125,0.25 0,0.024 -0.0105,0.25 0.1875,0.25 0.048,0 0.2565,-0.03125 0.5625,-0.03125 0.287999,0 0.5085,0.03125 0.5625,0.03125 0.191999,0 0.1875,-0.22 0.1875,-0.25 0,-0.329999 -0.46275,-0.2765 -0.46875,-0.3125 -0.006,-0.114 0,-1.4015 0,-1.4375 l 0,-0.0625 c 0,-0.012 0.0735,-0.10225 0.1875,-0.15625 0.072,-0.03 0.14075,-0.03125 0.21875,-0.03125 0.149999,0 0.29825,0.05425 0.40625,0.15625 0.119999,0.132 0.25,0.335501 0.25,1.1875 0,0.234 -0.01925,0.35225 -0.03125,0.40625 -0.186,0.024 -0.4375,0.004 -0.4375,0.25 l 0,0.03125 c 0,0.054 0.0315,0.21875 0.1875,0.21875 0.048,0 0.24325,-0.03125 0.53125,-0.03125 0.293999,0 0.5085,0.03125 0.5625,0.03125 0.101768,0 0.165671,-0.08784 0.1875,-0.1875 0.01521,0.0947 0.06615,0.1875 0.1875,0.1875 0.048,0 0.23125,-0.03125 0.53125,-0.03125 0.288,0 0.5085,0.03125 0.5625,0.03125 0.204,0 0.1875,-0.232 0.1875,-0.25 0,-0.222 -0.225,-0.232 -0.375,-0.25 C 21.738,20.35225 21.71875,20.152 21.71875,19.75 l 0,-0.1875 c 0,-0.725999 0.03125,-1.309 0.03125,-1.375 0,-0.138 -0.1035,-0.21875 -0.1875,-0.21875 -0.108,0 -0.10075,0.04975 -0.71875,0.34375 -0.018,0.012 -0.25,0.03275 -0.25,0.21875 0,0.138 0.13825,0.1815 0.15625,0.1875 0.186,0.078 0.30175,0.13225 0.34375,0.15625 -0.006,0.108 0,0.466251 0,1.15625 l 0,0.28125 c 0,0.102 0.0095,0.08175 -0.0625,0.09375 -0.203029,0.02603 -0.339161,0.07123 -0.375,0.21875 -0.01882,-0.135177 -0.1577,-0.18195 -0.21875,-0.1875 -0.06,-0.012 -0.07575,-0.02525 -0.09375,-0.03125 l 0,-0.0625 c -0.024,-1.115999 -0.0555,-1.325 -0.1875,-1.625 -0.156,-0.353999 -0.462251,-0.625 -0.90625,-0.625 -0.276,0 -0.487001,0.08425 -0.625,0.15625 l 0,-1.6875 c 0,-0.162 -0.134751,-0.25 -0.21875,-0.25 z m 6.4375,0 c -0.09,0 -0.625,0.28125 -0.625,0.28125 -0.006,0 -0.1875,0.0135 -0.1875,0.1875 l 0,0.03125 c 0,0.006 0.0145,0.071 0.0625,0.125 0.042,0.036 0.17925,0.1155 0.28125,0.1875 0.012,0.006 0.03125,0.03125 0.03125,0.03125 l 0,0.03125 0,3.21875 c 0,0 -0.3125,-0.014 -0.3125,0.25 0,0.078 0.05075,0.25 0.21875,0.25 0.072,0 0.19275,-0.03125 0.46875,-0.03125 0.131017,0 0.146665,-0.0072 0.21875,0 l 0,-4.46875 C 24.97638,16.35456 24.93675,16.3125 24.84375,16.3125 z M 21.5625,16.625 c -0.222,0 -0.4375,0.18425 -0.4375,0.40625 0,0.234 0.18425,0.40625 0.40625,0.40625 0.216,0 0.4375,-0.17225 0.4375,-0.40625 0,-0.216 -0.19025,-0.40625 -0.40625,-0.40625 z m 2.03125,1.40625 c -0.084,0 -0.13825,0.0505 -0.15625,0.0625 -0.042,-0.006 -0.1685,-0.03125 -0.3125,-0.03125 -0.594,0 -0.96875,0.411751 -0.96875,0.84375 0,0.354 0.222,0.69375 0.75,0.84375 0.246,0.066 0.625,0.111 0.625,0.375 0,0.156 -0.12175,0.28125 -0.34375,0.28125 -0.306,0 -0.55775,-0.20925 -0.59375,-0.28125 0,0 0.026,-0.4375 -0.25,-0.4375 -0.174,0 -0.21875,0.1565 -0.21875,0.3125 l 0,0.34375 c 0,0.102 0.02175,0.2285 0.09375,0.3125 0.216,0.246 0.6375,0.3125 0.9375,0.3125 0.653999,0 1.03125,-0.45625 1.03125,-0.90625 0,-0.114 -0.03875,-0.3525 -0.21875,-0.5625 -0.258,-0.294 -0.593,-0.32825 -0.875,-0.40625 -0.402,-0.114 -0.375,-0.2705 -0.375,-0.3125 0,-0.102 0.088,-0.1875 0.25,-0.1875 0.15,0 0.35825,0.1215 0.40625,0.1875 0.012,0.018 0.03525,0.34375 0.28125,0.34375 0.024,0 0.05175,-0.01925 0.09375,-0.03125 0.06,-0.024 0.15625,-0.0675 0.15625,-0.1875 0,-0.066 -0.05775,-0.43425 -0.09375,-0.65625 0,-0.012 -0.03275,-0.21875 -0.21875,-0.21875 z"
           id="path3894"
           inkscape:connector-curvature="0" />
      </g>
      <path
         sodipodi:nodetypes="ccccc"
         inkscape:connector-curvature="0"
         id="path3903"
         d="m 14,1 0,1 5,0 0,-1 z"
         style="fill:#c8ab37;fill-opacity:1;stroke:none" />
      <path
         sodipodi:nodetypes="ccccc"
         inkscape:connector-curvature="0"
         id="path3905"
         d="m 13,1 2,0 0,1 -2,0 z"
         style="fill:#a0892c;fill-opacity:1;stroke:none" />
    </g>
  </g>
</svg>
