<?xml version="1.0" encoding="UTF-8" standalone="no"?>
<!-- Created with Inkscape (http://www.inkscape.org/) -->

<svg
   xmlns:dc="http://purl.org/dc/elements/1.1/"
   xmlns:cc="http://creativecommons.org/ns#"
   xmlns:rdf="http://www.w3.org/1999/02/22-rdf-syntax-ns#"
   xmlns:svg="http://www.w3.org/2000/svg"
   xmlns="http://www.w3.org/2000/svg"
   xmlns:xlink="http://www.w3.org/1999/xlink"
   xmlns:sodipodi="http://sodipodi.sourceforge.net/DTD/sodipodi-0.dtd"
   xmlns:inkscape="http://www.inkscape.org/namespaces/inkscape"
   width="32px"
   height="32px"
   id="svg3505"
   sodipodi:version="0.32"
   inkscape:version="0.48.5 r10040"
   sodipodi:docname="00.svg"
   inkscape:output_extension="org.inkscape.output.svg.inkscape"
   version="1.1">
  <defs
     id="defs3507">
    <inkscape:perspective
       sodipodi:type="inkscape:persp3d"
       inkscape:vp_x="0 : 16 : 1"
       inkscape:vp_y="0 : 1000 : 0"
       inkscape:vp_z="32 : 16 : 1"
       inkscape:persp3d-origin="16 : 10.666667 : 1"
       id="perspective3513" />
    <inkscape:perspective
       id="perspective4690"
       inkscape:persp3d-origin="372.04724 : 350.78739 : 1"
       inkscape:vp_z="744.09448 : 526.18109 : 1"
       inkscape:vp_y="0 : 1000 : 0"
       inkscape:vp_x="0 : 526.18109 : 1"
       sodipodi:type="inkscape:persp3d" />
    <inkscape:perspective
       id="perspective2564"
       inkscape:persp3d-origin="372.04724 : 350.78739 : 1"
       inkscape:vp_z="744.09448 : 526.18109 : 1"
       inkscape:vp_y="0 : 1000 : 0"
       inkscape:vp_x="0 : 526.18109 : 1"
       sodipodi:type="inkscape:persp3d" />
    <linearGradient
       inkscape:collect="always"
       xlink:href="#linearGradient8649"
       id="linearGradient8948"
       gradientUnits="userSpaceOnUse"
       x1="19"
       y1="13"
       x2="13"
       y2="19" />
    <linearGradient
       id="linearGradient8649">
      <stop
         style="stop-color:black;stop-opacity:0.50196081;"
         offset="0"
         id="stop8651" />
      <stop
         style="stop-color:white;stop-opacity:0.50196081;"
         offset="1"
         id="stop8653" />
    </linearGradient>
    <linearGradient
       inkscape:collect="always"
       xlink:href="#linearGradient8649"
       id="linearGradient6287"
       gradientUnits="userSpaceOnUse"
       x1="19"
       y1="13"
       x2="13"
       y2="19" />
    <linearGradient
       inkscape:collect="always"
       xlink:href="#linearGradient8649"
       id="linearGradient6360"
       gradientUnits="userSpaceOnUse"
       x1="19"
       y1="13"
       x2="13"
       y2="19" />
  </defs>
  <sodipodi:namedview
     id="base"
     pagecolor="#ffffff"
     bordercolor="#666666"
     borderopacity="1.0"
     inkscape:pageopacity="0.0"
     inkscape:pageshadow="2"
     inkscape:zoom="16.5"
     inkscape:cx="16"
     inkscape:cy="16"
     inkscape:current-layer="g6362"
     showgrid="true"
     inkscape:grid-bbox="true"
     inkscape:document-units="px"
     objecttolerance="10000"
     gridtolerance="10000"
     guidetolerance="10000"
     inkscape:window-width="1024"
     inkscape:window-height="741"
     inkscape:window-x="0"
     inkscape:window-y="2"
     inkscape:object-paths="true"
     inkscape:object-nodes="true"
     inkscape:snap-bbox="true"
     inkscape:snap-guide="true"
     showguides="true"
     inkscape:guide-bbox="true"
     inkscape:window-maximized="1">
    <inkscape:grid
       type="xygrid"
       id="grid3515"
       units="px"
       visible="true"
       enabled="true"
       spacingx="1px"
       spacingy="1px"
       empspacing="4"
       snapvisiblegridlinesonly="true" />
    <sodipodi:guide
       orientation="-0.70710678,0.70710678"
       position="33.245902,33.245902"
       id="guide3622" />
    <sodipodi:guide
       orientation="0.70710678,0.70710678"
       position="0,32"
       id="guide3624" />
  </sodipodi:namedview>
  <metadata
     id="metadata3510">
    <rdf:RDF>
      <cc:Work
         rdf:about="">
        <dc:format>image/svg+xml</dc:format>
        <dc:type
           rdf:resource="http://purl.org/dc/dcmitype/StillImage" />
        <dc:title>Vorlage f端r 32x32-Pixel-Icons f端r McMinos</dc:title>
        <dc:date>2010-04-05</dc:date>
        <dc:creator>
          <cc:Agent>
            <dc:title>Andreas Neudecker &lt;zapyon@gmx.net&gt;</dc:title>
          </cc:Agent>
        </dc:creator>
        <dc:rights>
          <cc:Agent>
            <dc:title>Copyright (C) 2010 by Andreas Neudecker</dc:title>
          </cc:Agent>
        </dc:rights>
        <dc:publisher>
          <cc:Agent>
            <dc:title>Andreas Neudecker</dc:title>
          </cc:Agent>
        </dc:publisher>
        <dc:identifier>vorlage-32x32-mcminos</dc:identifier>
        <dc:description>Vorlage f端r 32x32-Pixel-Icons f端r McMinos. Metadaten jeweils entsprechend anpassen!</dc:description>
      </cc:Work>
    </rdf:RDF>
  </metadata>
  <g
     id="layer1"
     inkscape:label="Layer 1"
     inkscape:groupmode="layer">
    <g
       id="g6166"
       transform="matrix(0,1,-1,0,32,0)">
      <g
         id="g6326">
        <g
           id="g6362">
          <rect
             style="fill:black;fill-opacity:1;stroke:none"
             id="rect3935"
             width="30"
             height="30"
             x="1"
             y="1" />
          <rect
             style="fill:none;stroke:none"
             id="rect4147"
             width="32"
             height="32"
             x="-32"
             y="0"
             transform="matrix(0,-1,1,0,0,0)" />
          <path
             style="fill:black;fill-opacity:1;fill-rule:nonzero;stroke:none"
             d="m 0,29 3,0 26,0 3,0 L 32,3 29,3 3,3 0,3 0,29 z"
             id="path3635"
             sodipodi:nodetypes="ccccccccc"
             inkscape:connector-curvature="0" />
          <path
             style="fill:#00ffff;fill-opacity:1;fill-rule:nonzero;stroke:none"
             d="M 0,16 32,16 32,4 0,4 0,16 z"
             id="path3648"
             sodipodi:nodetypes="ccccc"
             inkscape:connector-curvature="0" />
          <path
             sodipodi:nodetypes="ccccc"
             style="fill:blue;fill-opacity:1;fill-rule:nonzero;stroke:none"
             d="M 32,28 0,28 0,16 32,16 32,28 z"
             id="path3644"
             inkscape:connector-curvature="0" />
          <path
             style="fill:#c3c3c3;fill-opacity:1;fill-rule:nonzero;stroke:none"
             d="m 0,14 25,0 7,0 0,-1 -8,0 -23,0 -1,0 0,1 z m 0,-2 2,0 21,0 9,0 0,-1 -10,0 -19,0 -3,0 0,1 z M 0,10 4,10 32,10 32,9 20.03125,9 20,8.96875 5,9 0,9 0,10 z M 0,8.03125 19,8 32,8 32,7 18,7 7,7 0,7 0,8.03125 z M 0,6 8,6 17,6 32,6 32,5 16,5 9,5 0,5 0,6 z"
             id="path3626"
             inkscape:connector-curvature="0" />
          <path
             sodipodi:nodetypes="ccccccccccccccccccccccccc"
             id="path3638"
             d="m 0,18 32,0 0,1 -32,0 0,-1 z m 0,2 32,0 0,1 -32,0 0,-1 z m 0,2 32,0 0,1 -32,0 0,-1 z m 0,2 32,0 0,1 -32,0 0,-1 z m 0,2 32,0 0,1 -32,0 0,-1 z"
             style="fill:#6b6b6b;fill-opacity:1;fill-rule:nonzero;stroke:none"
             inkscape:connector-curvature="0" />
          <path
             style="fill:#0080ff;fill-opacity:1;fill-rule:nonzero;stroke:none"
             d="m 0,17 32,0 0,-2 -32,0 0,2 z"
             id="rect3926"
             sodipodi:nodetypes="ccccc"
             inkscape:connector-curvature="0" />
          <rect
             style="fill:#ccc;fill-opacity:1;stroke:none"
             id="rect3138"
             width="28"
             height="28"
             x="2"
             y="2" />
          <use
             height="32"
             width="32"
             transform="translate(8.9999999,0)"
             id="use9276"
             xlink:href="#path8647"
             y="0"
             x="0" />
          <use
             height="32"
             width="32"
             transform="translate(-9.0000001,0)"
             id="use9274"
             xlink:href="#path8647"
             y="0"
             x="0" />
          <path
             transform="matrix(0,-1.0031299,1.0031299,0,-0.05007836,32.050078)"
             d="m 19.98752,16 c 0,2.202246 -1.785274,3.98752 -3.98752,3.98752 -2.202246,0 -3.98752,-1.785274 -3.98752,-3.98752 0,-2.202246 1.785274,-3.98752 3.98752,-3.98752 2.202246,0 3.98752,1.785274 3.98752,3.98752 z"
             sodipodi:ry="3.9875195"
             sodipodi:rx="3.9875195"
             sodipodi:cy="16"
             sodipodi:cx="16"
             id="path8647"
             style="fill:url(#linearGradient6360);fill-opacity:1;stroke:none"
             sodipodi:type="arc" />
          <rect
             style="fill:white;fill-opacity:0.50196081000000004;stroke:none"
             id="rect3915"
             width="28"
             height="10"
             x="2"
             y="2" />
          <rect
             style="fill:#000000;fill-opacity:0.50196081;stroke:none"
             id="rect3917"
             width="28"
             height="10"
             x="2"
             y="20" />
          <g
             transform="matrix(-0.25881905,-0.96592583,0.96592583,-0.25881905,-6.384261,27.868511)"
             id="g4361">
            <path
               transform="matrix(1.0606602,-1.0606602,1.0606602,1.0606602,-13.213204,16)"
               d="m 12,10 c 0,1.104569 -0.895431,2 -2,2 -1.1045695,0 -2,-0.895431 -2,-2 0,-1.1045695 0.8954305,-2 2,-2 1.104569,0 2,0.8954305 2,2 z"
               sodipodi:ry="2"
               sodipodi:rx="2"
               sodipodi:cy="10"
               sodipodi:cx="10"
               id="path4371"
               style="fill:#a0a0a0;fill-opacity:1;stroke:none"
               sodipodi:type="arc" />
            <path
               transform="matrix(1.0606602,-1.0606602,1.0606602,1.0606602,-13.213204,16)"
               d="M 10,12 C 8.8954306,12 8,11.10457 8,10 8,8.8954306 8.8954304,8 9.9999999,8 10,8 10,8 10,8"
               sodipodi:ry="2"
               sodipodi:rx="2"
               sodipodi:cy="10"
               sodipodi:cx="10"
               id="path4369"
               style="fill:#6b6b6b;fill-opacity:1;stroke:none"
               sodipodi:type="arc"
               sodipodi:start="1.5707963"
               sodipodi:end="4.712389"
               sodipodi:open="true" />
            <path
               inkscape:connector-curvature="0"
               id="path3783"
               d="m 6.2812499,13.5625 c -0.139926,0.09889 -0.2854232,0.191673 -0.40625,0.3125 L 10.125,18.125 c 0.120827,-0.120826 0.213609,-0.266324 0.3125,-0.40625 L 6.2812499,13.5625 z"
               style="fill:#6b6b6b;fill-opacity:1;stroke:none" />
            <path
               inkscape:connector-curvature="0"
               id="path3010"
               d="m 5.8749999,13.875 c -0.1208269,0.120827 -0.213609,0.266324 -0.3125,0.40625 L 9.71875,18.4375 C 9.858676,18.33861 10.004173,18.245827 10.125,18.125 l -4.2500001,-4.25 z"
               style="fill:#c3c3c3;fill-opacity:1;stroke:none" />
          </g>
          <use
             x="0"
             y="0"
             xlink:href="#g4361"
             id="use4367"
             transform="matrix(0.8660254,-0.49913419,0.5,0.86452578,1.9378225,5.661527)"
             width="32"
             height="32" />
          <use
             x="0"
             y="0"
             xlink:href="#g4361"
             id="use4369"
             transform="matrix(0.96592583,-0.25881905,0.25881905,0.96592583,14.097415,2.35692)"
             width="32"
             height="32" />
          <rect
             transform="matrix(0,-1,1,0,0,32)"
             y="30"
             x="4"
             height="1"
             width="24"
             id="rect6311"
             style="fill:black;fill-opacity:0.50196081;stroke:none" />
        </g>
      </g>
    </g>
  </g>
</svg>
