<?xml version="1.0" encoding="UTF-8" standalone="no"?>
<!-- Created with Inkscape (http://www.inkscape.org/) -->

<svg xmlns:dc="http://purl.org/dc/elements/1.1/" xmlns:cc="http://creativecommons.org/ns#" xmlns:rdf="http://www.w3.org/1999/02/22-rdf-syntax-ns#" xmlns:svg="http://www.w3.org/2000/svg" xmlns="http://www.w3.org/2000/svg" xmlns:sodipodi="http://sodipodi.sourceforge.net/DTD/sodipodi-0.dtd" xmlns:inkscape="http://www.inkscape.org/namespaces/inkscape" width="32px" height="32px" id="svg3505" sodipodi:version="0.32" inkscape:version="0.91 r13725" sodipodi:docname="00.svg" inkscape:output_extension="org.inkscape.output.svg.inkscape" version="1.1">
  <defs id="defs3507">
    <inkscape:perspective sodipodi:type="inkscape:persp3d" inkscape:vp_x="0 : 16 : 1" inkscape:vp_y="0 : 1000 : 0" inkscape:vp_z="32 : 16 : 1" inkscape:persp3d-origin="16 : 10.666667 : 1" id="perspective3513" />
    <inkscape:perspective id="perspective4690" inkscape:persp3d-origin="372.04724 : 350.78739 : 1" inkscape:vp_z="744.09448 : 526.18109 : 1" inkscape:vp_y="0 : 1000 : 0" inkscape:vp_x="0 : 526.18109 : 1" sodipodi:type="inkscape:persp3d" />
    <inkscape:perspective id="perspective5825" inkscape:persp3d-origin="372.04724 : 350.78739 : 1" inkscape:vp_z="744.09448 : 526.18109 : 1" inkscape:vp_y="0 : 1000 : 0" inkscape:vp_x="0 : 526.18109 : 1" sodipodi:type="inkscape:persp3d" />
  </defs>
  <sodipodi:namedview id="base" pagecolor="#ffffff" bordercolor="#666666" borderopacity="1.0" inkscape:pageopacity="0.0" inkscape:pageshadow="2" inkscape:zoom="16.96875" inkscape:cx="14.968692" inkscape:cy="16" inkscape:current-layer="layer1" showgrid="true" inkscape:grid-bbox="true" inkscape:document-units="px" objecttolerance="4" gridtolerance="4" guidetolerance="4" inkscape:window-width="1280" inkscape:window-height="713" inkscape:window-x="0" inkscape:window-y="37" inkscape:object-paths="true" inkscape:object-nodes="true" inkscape:snap-bbox="true" inkscape:snap-guide="true" inkscape:window-maximized="0">
    <inkscape:grid type="xygrid" id="grid3515" units="px" visible="true" enabled="true" spacingx="1px" spacingy="1px" />
  </sodipodi:namedview>
  <metadata id="metadata3510">
    <rdf:RDF>
      <cc:Work rdf:about="">
        <dc:format>image/svg+xml</dc:format>
        <dc:type rdf:resource="http://purl.org/dc/dcmitype/StillImage" />
        <dc:title>Chocolate 00</dc:title>
        <dc:date>2010-05-05</dc:date>
        <dc:creator>
          <cc:Agent>
            <dc:title>Andreas Neudecker &lt;zapyon@gmx.net&gt;</dc:title>
          </cc:Agent>
        </dc:creator>
        <dc:rights>
          <cc:Agent>
            <dc:title>Copyright (C) 2010 by Andreas Neudecker</dc:title>
          </cc:Agent>
        </dc:rights>
        <dc:publisher>
          <cc:Agent>
            <dc:title>Andreas Neudecker</dc:title>
          </cc:Agent>
        </dc:publisher>
        <dc:identifier>chocolate-00</dc:identifier>
        <dc:description>Power pill &quot;Chocolate&quot; for McMinos.</dc:description>
      </cc:Work>
    </rdf:RDF>
  </metadata>
  <g id="layer1" inkscape:label="Layer 1" inkscape:groupmode="layer">
    <g id="g31637">
      <rect y="0" x="0" height="32" width="32" id="rect31571" style="opacity:1;fill:none;fill-opacity:0.1254902;fill-rule:nonzero;stroke:none;stroke-width:2;stroke-linecap:butt;stroke-linejoin:miter;stroke-miterlimit:4;stroke-dasharray:none;stroke-dashoffset:0;stroke-opacity:1" />
      <path sodipodi:nodetypes="ccsssssccssssssssccssscccsssccsssssccccccssccscccccccccccccccccccccccccccccccc" id="path6169" d="m 9.96875,0 0.875,1.5 C 10.940519,1.6668566 11,1.837043 11,2 c 0,0.3704992 -0.191997,0.6637013 -0.5,0.84375 -0.04492,0.026262 -0.141784,0.090227 -0.25,0.125 -0.122425,0.036671 -0.126534,0.02358 -0.03125,0 C 10.16849,2.982127 10.15416,2.99574 10.125,3 10.10678,3.00266 10.07805,2.9992759 10.0625,3 l 0,2 c 0.01239,5.768e-4 0.04401,-0.00289 0.0625,0 0.02958,0.00462 0.02815,0.015015 0.09375,0.03125 -0.0554,-0.014742 -0.05306,-0.02709 0.03125,0 0.108216,0.034773 0.205075,0.098738 0.25,0.125 C 10.808003,5.3362987 11,5.6295008 11,6 11,6.162957 10.94052,6.3331434 10.84375,6.5 10.80397,6.568588 10.75518,6.6498707 10.6875,6.71875 10.6428,6.764247 10.59019,6.8211987 10.5,6.875 10.366919,6.952181 10.339841,6.965604 10.40625,6.9375 l -0.03125,0 c -0.07232,0.031448 -0.115482,0.028592 -0.125,0.03125 -0.01813,0.00364 -0.01144,-0.00479 -0.03125,0 C 10.118322,6.9934232 10.059761,7 10,7 10.030943,7 9.9711882,6.9867738 9.84375,6.96875 l -2.0625,-0.28125 1,1.625 C 8.7814355,8.3130512 8.8434628,8.4995037 8.84375,8.5 8.9409526,8.6679278 9,8.8376257 9,9 9,9.1158068 9.00329,9.2026719 9,9.21875 8.99815,9.22754 8.976634,9.22177 8.96875,9.25 l 0,0.03125 C 8.97066,9.27426 8.97382,9.320427 8.9375,9.40625 8.9574826,9.3602936 8.9420352,9.3876258 8.875,9.5 8.8212003,9.5901879 8.7642482,9.6427946 8.71875,9.6875 8.6498733,9.7551766 8.5685896,9.8039709 8.5,9.84375 8.3331438,9.9405187 8.1629569,10 8,10 7.5460972,10 7.1597408,9.7046829 7.03125,9.3125 L 6.71875,8.34375 5.75,8.6875 C 5.4717166,8.787023 5.4549715,8.8164827 5.65625,8.75 L 4.84375,9 4.96875,9.84375 C 4.9836164,9.9383288 5,9.9891882 5,10 5,10.375682 4.808004,10.665122 4.5,10.84375 4.3669169,10.920931 4.3398437,10.965603 4.40625,10.9375 l -0.03125,0 C 4.314785,10.96393 4.27616,10.96111 4.25,10.96875 4.2091628,10.979919 4.2193461,10.999878 4.21875,11 L 4.1875,11 C 4.1924775,10.998886 4.1290936,11 4,11 L 3.4375,11 2,9.59375 2,12 l 0,17 0,0.40625 0.28125,0.3125 2,2 L 4.59375,32 5,32 l 22,0 0.40625,0 0.3125,-0.28125 1,-1 1,-1 L 30,29.40625 30,29 30,12 30,11.75 29.90625,11.5625 29,9.75 29,8 l 0,-6 0,-1 0,-1 -1,0 -6,0 -6,0 -4.28125,0 -1.75,0 z" style="opacity:1;fill:black;fill-opacity:1;fill-rule:nonzero;stroke:none;stroke-width:2;stroke-linecap:square;stroke-linejoin:miter;stroke-miterlimit:4;stroke-dasharray:none;stroke-dashoffset:0;stroke-opacity:1" inkscape:connector-curvature="0" />
      <path id="rect5923" d="M 12,2 C 12,3.0723412 11.153954,3.9506349 10.09375,4 11.153954,4.0493651 12,4.9276588 12,6 12,7.104 11.104,8 10,8 9.9042118,8 9.8109572,7.981791 9.71875,7.96875 9.8980534,8.2684961 10,8.6255541 10,9 10,10.104 9.104,11 8,11 7.11335,11 6.3556758,10.424457 6.09375,9.625 6.048178,9.6412976 6.0148226,9.6722818 5.96875,9.6875 5.9847617,9.7893666 6,9.8936588 6,10 6,11.104 5.104,12 4,12 l 0,7 24,0 0,-17 -16,0 z" style="opacity:1;fill:#803300;fill-opacity:1;fill-rule:nonzero;stroke:none;stroke-width:2;stroke-linecap:round;stroke-linejoin:round;stroke-miterlimit:4;stroke-dasharray:none;stroke-dashoffset:0;stroke-opacity:1" inkscape:connector-curvature="0" />
      <g id="g5981" transform="matrix(0,-1,-1,0,16,18)">
        <path sodipodi:nodetypes="ccccccc" id="path5983" d="m -4,0 1,1 0,4 5,0 1,1 -7,0 0,-6 z" style="opacity:1;fill:#502d16;fill-opacity:1;fill-rule:nonzero;stroke:none;stroke-width:2;stroke-linecap:round;stroke-linejoin:round;stroke-miterlimit:4;stroke-dasharray:none;stroke-dashoffset:0;stroke-opacity:1" inkscape:connector-curvature="0" />
        <path sodipodi:nodetypes="ccccccc" style="opacity:1;fill:#c87137;fill-opacity:1;fill-rule:nonzero;stroke:none;stroke-width:2;stroke-linecap:round;stroke-linejoin:round;stroke-miterlimit:4;stroke-dasharray:none;stroke-dashoffset:0;stroke-opacity:1" d="M 3,6 2,5 2,1 -3,1 -4,0 3,0 3,6 Z" id="path5985" inkscape:connector-curvature="0" />
      </g>
      <circle id="path5833" style="opacity:1;fill:#00c0ff;fill-opacity:0.25080387;fill-rule:nonzero;stroke:none;stroke-width:2;stroke-linecap:round;stroke-linejoin:round;stroke-miterlimit:4;stroke-dasharray:none;stroke-dashoffset:0;stroke-opacity:1" cx="5.5" cy="15.5" r="0.5" />
      <path id="path5891" d="M 5,11.71875 C 4.7054569,11.889571 4.3647771,12 4,12 l 0,3 6,0 -1,-1 -4,0 0,-2.28125 z" style="fill:#502d16;fill-opacity:1;fill-rule:nonzero;stroke:none;stroke-width:2;stroke-linecap:round;stroke-linejoin:round;stroke-miterlimit:4;stroke-dasharray:none;stroke-dashoffset:0;stroke-opacity:1" inkscape:connector-curvature="0" />
      <path id="path5893" d="M 9.71875,8 C 9.8893823,8.2947848 10,8.6353756 10,9 L 10,8 9.71875,8 Z M 10,9 c 0,0.7392229 -0.4031066,1.37258 -1,1.71875 L 9,14 l 1,1 0,-6 z" style="fill:#c87137;fill-opacity:1;fill-rule:nonzero;stroke:none;stroke-width:2;stroke-linecap:round;stroke-linejoin:round;stroke-miterlimit:4;stroke-dasharray:none;stroke-dashoffset:0;stroke-opacity:1" inkscape:connector-curvature="0" />
      <g transform="matrix(0,-1,-1,0,22,18)" id="g5987">
        <path style="opacity:1;fill:#502d16;fill-opacity:1;fill-rule:nonzero;stroke:none;stroke-width:2;stroke-linecap:round;stroke-linejoin:round;stroke-miterlimit:4;stroke-dasharray:none;stroke-dashoffset:0;stroke-opacity:1" d="m -4,0 1,1 0,4 5,0 1,1 -7,0 0,-6 z" id="path5989" sodipodi:nodetypes="ccccccc" inkscape:connector-curvature="0" />
        <path id="path5991" d="M 3,6 2,5 2,1 -3,1 -4,0 3,0 3,6 Z" style="opacity:1;fill:#c87137;fill-opacity:1;fill-rule:nonzero;stroke:none;stroke-width:2;stroke-linecap:round;stroke-linejoin:round;stroke-miterlimit:4;stroke-dasharray:none;stroke-dashoffset:0;stroke-opacity:1" sodipodi:nodetypes="ccccccc" inkscape:connector-curvature="0" />
      </g>
      <g transform="matrix(0,-1,-1,0,16,11)" id="g5903">
        <path style="opacity:1;fill:#502d16;fill-opacity:1;fill-rule:nonzero;stroke:none;stroke-width:2;stroke-linecap:round;stroke-linejoin:round;stroke-miterlimit:4;stroke-dasharray:none;stroke-dashoffset:0;stroke-opacity:1" d="m -4,0 1,1 0,4 5,0 1,1 -7,0 0,-6 z" id="path5895" sodipodi:nodetypes="ccccccc" inkscape:connector-curvature="0" />
        <path id="path5897" d="M 3,6 2,5 2,1 -3,1 -4,0 3,0 3,6 Z" style="opacity:1;fill:#c87137;fill-opacity:1;fill-rule:nonzero;stroke:none;stroke-width:2;stroke-linecap:round;stroke-linejoin:round;stroke-miterlimit:4;stroke-dasharray:none;stroke-dashoffset:0;stroke-opacity:1" sodipodi:nodetypes="ccccccc" inkscape:connector-curvature="0" />
      </g>
      <g id="g5907" transform="matrix(0,-1,-1,0,22,11)">
        <path sodipodi:nodetypes="ccccccc" id="path5909" d="m -4,0 1,1 0,4 5,0 1,1 -7,0 0,-6 z" style="opacity:1;fill:#502d16;fill-opacity:1;fill-rule:nonzero;stroke:none;stroke-width:2;stroke-linecap:round;stroke-linejoin:round;stroke-miterlimit:4;stroke-dasharray:none;stroke-dashoffset:0;stroke-opacity:1" inkscape:connector-curvature="0" />
        <path sodipodi:nodetypes="ccccccc" style="opacity:1;fill:#c87137;fill-opacity:1;fill-rule:nonzero;stroke:none;stroke-width:2;stroke-linecap:round;stroke-linejoin:round;stroke-miterlimit:4;stroke-dasharray:none;stroke-dashoffset:0;stroke-opacity:1" d="M 3,6 2,5 2,1 -3,1 -4,0 3,0 3,6 Z" id="path5911" inkscape:connector-curvature="0" />
      </g>
      <g transform="matrix(0,-1,-1,0,28,11)" id="g5917">
        <path style="opacity:1;fill:#502d16;fill-opacity:1;fill-rule:nonzero;stroke:none;stroke-width:2;stroke-linecap:round;stroke-linejoin:round;stroke-miterlimit:4;stroke-dasharray:none;stroke-dashoffset:0;stroke-opacity:1" d="m -4,0 1,1 0,4 5,0 1,1 -7,0 0,-6 z" id="path5919" sodipodi:nodetypes="ccccccc" inkscape:connector-curvature="0" />
        <path id="path5921" d="M 3,6 2,5 2,1 -3,1 -4,0 3,0 3,6 Z" style="opacity:1;fill:#c87137;fill-opacity:1;fill-rule:nonzero;stroke:none;stroke-width:2;stroke-linecap:round;stroke-linejoin:round;stroke-miterlimit:4;stroke-dasharray:none;stroke-dashoffset:0;stroke-opacity:1" sodipodi:nodetypes="ccccccc" inkscape:connector-curvature="0" />
      </g>
      <path sodipodi:nodetypes="ccccccccccccccccccccccccccccc" id="path5831" d="m 3,12 0,17 2,2 22,0 2,-2 0,-17 -1,-2 -2,1 -1,-1 -2,1 -2,1 -1,0 0,2 -1,0 -1,3 -1,0 -1,1 -2,-2 -1,1 0,-2 -1,-1 -1,1 L 10,14 8.5,14 7,13 6,13.5 5,14 4,13 3,12 Z" style="fill:#0cf;fill-opacity:1;fill-rule:nonzero;stroke:none;stroke-width:2;stroke-linecap:round;stroke-linejoin:round;stroke-miterlimit:4;stroke-dasharray:none;stroke-dashoffset:0;stroke-opacity:1" inkscape:connector-curvature="0" />
      <circle id="path5835" style="fill:blue;fill-opacity:1;fill-rule:nonzero;stroke:none;stroke-width:2;stroke-linecap:round;stroke-linejoin:round;stroke-miterlimit:4;stroke-dasharray:none;stroke-dashoffset:0;stroke-opacity:1" cx="6.5" cy="13.5" r="0.5" />
      <circle style="fill:blue;fill-opacity:1;fill-rule:nonzero;stroke:none;stroke-width:2;stroke-linecap:round;stroke-linejoin:round;stroke-miterlimit:4;stroke-dasharray:none;stroke-dashoffset:0;stroke-opacity:1" id="path5837" cx="6.5" cy="15.5" r="0.5" />
      <circle style="fill:blue;fill-opacity:1;fill-rule:nonzero;stroke:none;stroke-width:2;stroke-linecap:round;stroke-linejoin:round;stroke-miterlimit:4;stroke-dasharray:none;stroke-dashoffset:0;stroke-opacity:1" id="path5839" cx="6.5" cy="17.5" r="0.5" />
      <circle id="path5841" style="fill:blue;fill-opacity:1;fill-rule:nonzero;stroke:none;stroke-width:2;stroke-linecap:round;stroke-linejoin:round;stroke-miterlimit:4;stroke-dasharray:none;stroke-dashoffset:0;stroke-opacity:1" cx="6.5" cy="19.5" r="0.5" />
      <circle style="fill:blue;fill-opacity:1;fill-rule:nonzero;stroke:none;stroke-width:2;stroke-linecap:round;stroke-linejoin:round;stroke-miterlimit:4;stroke-dasharray:none;stroke-dashoffset:0;stroke-opacity:1" id="path5843" cx="6.5" cy="21.5" r="0.5" />
      <circle id="path5845" style="fill:blue;fill-opacity:1;fill-rule:nonzero;stroke:none;stroke-width:2;stroke-linecap:round;stroke-linejoin:round;stroke-miterlimit:4;stroke-dasharray:none;stroke-dashoffset:0;stroke-opacity:1" cx="6.5" cy="23.5" r="0.5" />
      <circle id="path5847" style="fill:blue;fill-opacity:1;fill-rule:nonzero;stroke:none;stroke-width:2;stroke-linecap:round;stroke-linejoin:round;stroke-miterlimit:4;stroke-dasharray:none;stroke-dashoffset:0;stroke-opacity:1" cx="6.5" cy="25.5" r="0.5" />
      <circle style="fill:blue;fill-opacity:1;fill-rule:nonzero;stroke:none;stroke-width:2;stroke-linecap:round;stroke-linejoin:round;stroke-miterlimit:4;stroke-dasharray:none;stroke-dashoffset:0;stroke-opacity:1" id="path5849" cx="7.5" cy="27.5" r="0.5" />
      <circle id="path5851" style="fill:blue;fill-opacity:1;fill-rule:nonzero;stroke:none;stroke-width:2;stroke-linecap:round;stroke-linejoin:round;stroke-miterlimit:4;stroke-dasharray:none;stroke-dashoffset:0;stroke-opacity:1" cx="9.5" cy="27.5" r="0.5" />
      <circle id="path5853" style="fill:blue;fill-opacity:1;fill-rule:nonzero;stroke:none;stroke-width:2;stroke-linecap:round;stroke-linejoin:round;stroke-miterlimit:4;stroke-dasharray:none;stroke-dashoffset:0;stroke-opacity:1" cx="11.5" cy="27.5" r="0.5" />
      <circle style="fill:blue;fill-opacity:1;fill-rule:nonzero;stroke:none;stroke-width:2;stroke-linecap:round;stroke-linejoin:round;stroke-miterlimit:4;stroke-dasharray:none;stroke-dashoffset:0;stroke-opacity:1" id="path5855" cx="13.5" cy="27.5" r="0.5" />
      <circle id="path5857" style="fill:blue;fill-opacity:1;fill-rule:nonzero;stroke:none;stroke-width:2;stroke-linecap:round;stroke-linejoin:round;stroke-miterlimit:4;stroke-dasharray:none;stroke-dashoffset:0;stroke-opacity:1" cx="15.5" cy="27.5" r="0.5" />
      <circle style="fill:blue;fill-opacity:1;fill-rule:nonzero;stroke:none;stroke-width:2;stroke-linecap:round;stroke-linejoin:round;stroke-miterlimit:4;stroke-dasharray:none;stroke-dashoffset:0;stroke-opacity:1" id="path5859" cx="17.5" cy="27.5" r="0.5" />
      <circle style="fill:blue;fill-opacity:1;fill-rule:nonzero;stroke:none;stroke-width:2;stroke-linecap:round;stroke-linejoin:round;stroke-miterlimit:4;stroke-dasharray:none;stroke-dashoffset:0;stroke-opacity:1" id="path5861" cx="19.5" cy="27.5" r="0.5" />
      <circle id="path5863" style="fill:blue;fill-opacity:1;fill-rule:nonzero;stroke:none;stroke-width:2;stroke-linecap:round;stroke-linejoin:round;stroke-miterlimit:4;stroke-dasharray:none;stroke-dashoffset:0;stroke-opacity:1" cx="21.5" cy="27.5" r="0.5" />
      <circle style="fill:blue;fill-opacity:1;fill-rule:nonzero;stroke:none;stroke-width:2;stroke-linecap:round;stroke-linejoin:round;stroke-miterlimit:4;stroke-dasharray:none;stroke-dashoffset:0;stroke-opacity:1" id="path5865" cx="23.5" cy="27.5" r="0.5" />
      <circle style="fill:blue;fill-opacity:1;fill-rule:nonzero;stroke:none;stroke-width:2;stroke-linecap:round;stroke-linejoin:round;stroke-miterlimit:4;stroke-dasharray:none;stroke-dashoffset:0;stroke-opacity:1" id="path5867" cx="25.5" cy="13.5" r="0.5" />
      <circle id="path5869" style="fill:blue;fill-opacity:1;fill-rule:nonzero;stroke:none;stroke-width:2;stroke-linecap:round;stroke-linejoin:round;stroke-miterlimit:4;stroke-dasharray:none;stroke-dashoffset:0;stroke-opacity:1" cx="25.5" cy="15.5" r="0.5" />
      <circle id="path5871" style="fill:blue;fill-opacity:1;fill-rule:nonzero;stroke:none;stroke-width:2;stroke-linecap:round;stroke-linejoin:round;stroke-miterlimit:4;stroke-dasharray:none;stroke-dashoffset:0;stroke-opacity:1" cx="25.5" cy="17.5" r="0.5" />
      <circle style="fill:blue;fill-opacity:1;fill-rule:nonzero;stroke:none;stroke-width:2;stroke-linecap:round;stroke-linejoin:round;stroke-miterlimit:4;stroke-dasharray:none;stroke-dashoffset:0;stroke-opacity:1" id="path5873" cx="25.5" cy="19.5" r="0.5" />
      <circle id="path5875" style="fill:blue;fill-opacity:1;fill-rule:nonzero;stroke:none;stroke-width:2;stroke-linecap:round;stroke-linejoin:round;stroke-miterlimit:4;stroke-dasharray:none;stroke-dashoffset:0;stroke-opacity:1" cx="25.5" cy="21.5" r="0.5" />
      <circle style="fill:blue;fill-opacity:1;fill-rule:nonzero;stroke:none;stroke-width:2;stroke-linecap:round;stroke-linejoin:round;stroke-miterlimit:4;stroke-dasharray:none;stroke-dashoffset:0;stroke-opacity:1" id="path5877" cx="25.5" cy="23.5" r="0.5" />
      <circle style="fill:blue;fill-opacity:1;fill-rule:nonzero;stroke:none;stroke-width:2;stroke-linecap:round;stroke-linejoin:round;stroke-miterlimit:4;stroke-dasharray:none;stroke-dashoffset:0;stroke-opacity:1" id="path5879" cx="25.5" cy="25.5" r="0.5" />
      <circle id="path5881" style="fill:blue;fill-opacity:1;fill-rule:nonzero;stroke:none;stroke-width:2;stroke-linecap:round;stroke-linejoin:round;stroke-miterlimit:4;stroke-dasharray:none;stroke-dashoffset:0;stroke-opacity:1" cx="25.5" cy="27.5" r="0.5" />
      <circle id="path5883" style="fill:blue;fill-opacity:1;fill-rule:nonzero;stroke:none;stroke-width:2;stroke-linecap:round;stroke-linejoin:round;stroke-miterlimit:4;stroke-dasharray:none;stroke-dashoffset:0;stroke-opacity:1" cx="25.5" cy="11.5" r="0.5" />
      <path id="path6001" d="M 11,3.71875 C 10.729798,3.8767017 10.425064,3.9845734 10.09375,4 10.425064,4.0154266 10.729798,4.1232983 11,4.28125 l 0,-0.5625 z M 11.71875,7 C 11.37258,7.5968934 10.739223,8 10,8 l 6,0 -1,-1 -3.28125,0 z" style="fill:#502d16;fill-opacity:1;fill-rule:nonzero;stroke:none;stroke-width:2;stroke-linecap:round;stroke-linejoin:round;stroke-miterlimit:4;stroke-dasharray:none;stroke-dashoffset:0;stroke-opacity:1" inkscape:connector-curvature="0" />
      <path id="path6003" d="M 11.71875,1 C 11.889571,1.2945431 12,1.6352229 12,2 l 3,0 0,5 1,1 0,-7 -4.28125,0 z" style="fill:#c87137;fill-opacity:1;fill-rule:nonzero;stroke:none;stroke-width:2;stroke-linecap:round;stroke-linejoin:round;stroke-miterlimit:4;stroke-dasharray:none;stroke-dashoffset:0;stroke-opacity:1" inkscape:connector-curvature="0" />
      <g transform="matrix(0,-1,-1,0,22,4)" id="g6005">
        <path style="opacity:1;fill:#502d16;fill-opacity:1;fill-rule:nonzero;stroke:none;stroke-width:2;stroke-linecap:round;stroke-linejoin:round;stroke-miterlimit:4;stroke-dasharray:none;stroke-dashoffset:0;stroke-opacity:1" d="m -4,0 1,1 0,4 5,0 1,1 -7,0 0,-6 z" id="path6007" sodipodi:nodetypes="ccccccc" inkscape:connector-curvature="0" />
        <path id="path6009" d="M 3,6 2,5 2,1 -3,1 -4,0 3,0 3,6 Z" style="opacity:1;fill:#c87137;fill-opacity:1;fill-rule:nonzero;stroke:none;stroke-width:2;stroke-linecap:round;stroke-linejoin:round;stroke-miterlimit:4;stroke-dasharray:none;stroke-dashoffset:0;stroke-opacity:1" sodipodi:nodetypes="ccccccc" inkscape:connector-curvature="0" />
      </g>
      <g id="g6011" transform="matrix(0,-1,-1,0,28,4)">
        <path sodipodi:nodetypes="ccccccc" id="path6013" d="m -4,0 1,1 0,4 5,0 1,1 -7,0 0,-6 z" style="opacity:1;fill:#502d16;fill-opacity:1;fill-rule:nonzero;stroke:none;stroke-width:2;stroke-linecap:round;stroke-linejoin:round;stroke-miterlimit:4;stroke-dasharray:none;stroke-dashoffset:0;stroke-opacity:1" inkscape:connector-curvature="0" />
        <path sodipodi:nodetypes="ccccccc" style="opacity:1;fill:#c87137;fill-opacity:1;fill-rule:nonzero;stroke:none;stroke-width:2;stroke-linecap:round;stroke-linejoin:round;stroke-miterlimit:4;stroke-dasharray:none;stroke-dashoffset:0;stroke-opacity:1" d="M 3,6 2,5 2,1 -3,1 -4,0 3,0 3,6 Z" id="path6015" inkscape:connector-curvature="0" />
      </g>
      <path id="path6047" d="M 27.971482,10.014259 27,10.446529 27,29 l 1,1 1,-1 0,-17 -1.028518,-1.985741 z" style="opacity:1;fill:#e6e7ff;fill-opacity:1;fill-rule:nonzero;stroke:none;stroke-width:2;stroke-linecap:round;stroke-linejoin:round;stroke-miterlimit:4;stroke-dasharray:none;stroke-dashoffset:0;stroke-opacity:1" inkscape:connector-curvature="0" />
      <path id="path6049" d="M 3,12 5.0390244,13.980488 5,29 27,29 28,30 27,31 5,31 3,29 3,12 Z" style="opacity:1;fill:#00a0ff;fill-opacity:1;fill-rule:nonzero;stroke:none;stroke-width:2;stroke-linecap:round;stroke-linejoin:round;stroke-miterlimit:4;stroke-dasharray:none;stroke-dashoffset:0;stroke-opacity:1" inkscape:connector-curvature="0" />
      <path id="path6153" d="m 12,14 -0.46875,0.46875 c 0.0076,0.03696 -0.01099,0.05344 0,0.09375 0.05069,0.177413 0.09463,0.335243 0.15625,0.46875 0.01041,3.26e-4 0.02084,3.26e-4 0.03125,0 0.06162,0.128378 0.127957,0.293312 0.25,0.46875 0.09966,0.149482 0.183629,0.267745 0.28125,0.375 -0.09,0.0039 -0.190764,0.02302 -0.28125,0.0625 0.0057,-0.0024 -0.05609,0.03142 -0.0625,0.03125 -0.02483,-6.45e-4 -0.07281,0.01032 -0.21875,0.15625 -0.01087,0.01 -0.0213,0.02038 -0.03125,0.03125 -0.113661,0.136411 -0.137951,0.20121 -0.15625,0.25 -0.108795,0.290164 -0.03125,0.390437 -0.03125,0.34375 2e-6,0.08685 0.02061,0.247157 0.0625,0.40625 0.007,0.0048 -0.0016,0.02523 0,0.03125 0.03103,0.115662 0.06762,0.249424 0.125,0.375 0.01051,0.02628 0.02249,0.01377 0.03125,0.03125 0.02299,0.04589 0.04973,0.0783 0.0625,0.09375 0.02558,0.05115 0.0058,0.04579 0,0.03125 0.0089,0.02154 0.01939,0.04242 0.03125,0.0625 0.03272,0.05889 0.07692,0.159386 0.1875,0.3125 l -0.03125,0 c 0.107532,0.170258 0.247488,0.262483 0.3125,0.34375 0.0645,0.07986 0.143534,0.167957 0.21875,0.25 C 12.4169,18.6711 12.37755,18.625 12.25,18.625 c -0.116989,3e-6 -0.177565,0.03348 -0.25,0.0625 -0.02774,0.01111 -0.06442,0.01659 -0.09375,0.03125 l 0,0.03125 c -0.06702,0.03592 -0.144186,0.07825 -0.1875,0.125 -0.0052,0.0056 -0.02688,-0.0054 -0.03125,0 -0.208346,-0.261867 -0.429286,-0.514529 -0.625,-0.71875 -0.01041,-3.26e-4 -0.02084,-3.26e-4 -0.03125,0 -0.26871,-0.274429 -0.490635,-0.472923 -0.71875,-0.625 -0.196856,-0.131237 -0.389798,-0.312495 -0.75,-0.3125 -0.2463999,2.3e-5 -0.3201723,0.07806 -0.28125,0.0625 -0.1902622,0.07614 -0.2007277,0.116928 -0.21875,0.15625 -0.00553,0.0078 0.012071,0.01918 0,0.03125 -0.00213,0.0017 -0.028888,-0.0019 -0.03125,0 C 9.0302866,17.472069 8.9997176,17.500376 9,17.5 c -0.030945,0.02648 -0.058611,0.09649 -0.09375,0.15625 -0.00461,0.0092 0.00394,0.02069 0,0.03125 -0.0206,0.04051 -0.051022,0.03641 -0.0625,0.09375 l 0.03125,0 c -0.012523,0.07645 -0.035667,0.157825 -0.03125,0.1875 0.00417,0.210281 0.062124,0.45149 0.1875,0.6875 0.1134092,0.206796 0.269074,0.427206 0.46875,0.65625 0.073924,0.08697 0.1684556,0.165788 0.25,0.25 -0.029584,-0.0018 -0.065511,-0.03125 -0.09375,-0.03125 -0.091347,8e-6 -0.2792338,0.02321 -0.40625,0.09375 -0.1544619,0.08584 -0.2242816,0.199886 -0.28125,0.28125 -0.010872,0.01 -0.021299,0.02038 -0.03125,0.03125 -0.00669,0.01116 -0.075517,0.137903 -0.125,0.28125 -0.011227,0.03252 -0.022831,0.02323 -0.03125,0.0625 l 0.03125,0 c -0.033542,0.136339 -0.062494,0.25982 -0.0625,0.375 6.6e-6,0.312699 0.06702,0.625369 0.1875,0.96875 0.036008,0.102619 0.1101459,0.209336 0.15625,0.3125 -0.1743558,0.05302 -0.3060603,0.1967 -0.34375,0.375 -0.028453,0.09961 -0.094588,0.222983 -0.125,0.375 -0.011749,0.05583 -0.042702,0.141769 -0.0625,0.28125 -0.00211,0.01484 0.0018,0.01508 0,0.03125 -0.016278,0.104473 -0.025541,0.215544 -0.03125,0.3125 -0.00741,0.12608 4.2e-6,0.216774 0,0.28125 6.1e-6,0.389933 0.062511,0.756269 0.15625,1.09375 0.097319,0.350329 0.2446786,0.667542 0.4375,0.9375 0.1925189,0.26952 0.4176268,0.503076 0.6875,0.65625 0.269881,0.153173 0.577481,0.21875 0.875,0.21875 0.237557,0 0.428594,-0.05319 0.59375,-0.125 0.01041,3.26e-4 0.02084,3.26e-4 0.03125,0 0.135217,-0.06146 0.313148,-0.193459 0.46875,-0.375 0.123206,-0.136892 0.202865,-0.297891 0.28125,-0.46875 0.140866,0.08864 0.288334,0.17818 0.4375,0.25 0.156114,0.07517 0.311553,0.173524 0.5,0.21875 0.203697,0.05093 0.379375,0.03125 0.5,0.03125 0.19021,1e-6 0.401193,-0.0062 0.625,-0.09375 0.232108,-0.100915 0.392439,-0.254784 0.5,-0.375 3.26e-4,-0.01041 3.26e-4,-0.02084 0,-0.03125 0.121479,-0.151848 0.25729,-0.341661 0.3125,-0.5625 C 14.99376,24.771842 15,24.574584 15,24.34375 c -10e-7,-0.214598 -0.02733,-0.398375 -0.0625,-0.5625 -0.03751,-0.181277 -0.100075,-0.337087 -0.15625,-0.5 3.26e-4,-0.01041 3.26e-4,-0.02084 0,-0.03125 -0.03158,-0.07894 -0.08631,-0.164036 -0.125,-0.25 0.144134,-0.09778 0.227003,-0.263522 0.21875,-0.4375 l 0,-0.46875 c -0.0023,-0.162975 -0.08398,-0.314577 -0.21875,-0.40625 -0.203495,-0.104862 -0.337232,-0.306289 -0.5,-0.46875 0.0555,0.0058 0.167408,-0.0081 0.3125,-0.0625 0.145339,-0.0545 0.225602,-0.161732 0.21875,-0.15625 0.02264,-0.01895 0.04355,-0.03986 0.0625,-0.0625 0.0083,-0.0104 0.0685,-0.08667 0.125,-0.21875 l 0.03125,0 c 0.006,-0.01538 -0.006,-0.01334 0,-0.03125 0.02753,-0.06447 0.0625,-0.135011 0.0625,-0.28125 -2e-6,-0.163578 -0.03941,-0.31252 -0.09375,-0.46875 -0.05083,-0.167016 -0.109455,-0.319984 -0.21875,-0.5 -0.01851,-0.03049 -0.04274,-0.06357 -0.0625,-0.09375 0.04111,-0.0334 0.107201,-0.07595 0.125,-0.09375 0.01087,-0.01 0.0213,-0.02038 0.03125,-0.03125 -0.02012,0.02347 0.114938,-0.08172 0.1875,-0.28125 C 14.98661,18.814714 15,18.712681 15,18.59375 c -10e-7,-0.165758 -0.02201,-0.355235 -0.09375,-0.5625 -0.05969,-0.16581 -0.156339,-0.371846 -0.28125,-0.5625 -0.0089,-0.02154 -0.01939,-0.04242 -0.03125,-0.0625 -0.08038,-0.09186 -0.098,-0.07305 -0.09375,-0.0625 -0.005,-0.0072 0.0051,-0.02424 0,-0.03125 -0.04842,-0.06715 -0.108716,-0.134024 -0.15625,-0.1875 -0.05121,-0.05723 -0.151663,-0.147375 -0.25,-0.25 0.125158,-0.0045 0.24283,-0.0416 0.3125,-0.0625 0.08193,-0.02458 0.143903,-0.05495 0.15625,-0.0625 0.03938,-0.02392 0.06295,-0.06083 0.09375,-0.09375 L 14,16 l -1,1 0,-2 -1,-1 z m -2.375,3.4375 c 0.1614607,-4.5e-5 0.2084707,0.02163 0.125,0 C 9.739009,17.4347 9.704849,17.46951 9.6875,17.46875 9.663757,17.46675 9.649444,17.4375 9.625,17.4375 Z" style="font-style:normal;font-variant:normal;font-weight:bold;font-stretch:normal;font-size:16.5px;line-height:100%;font-family:'DejaVu Sans';-inkscape-font-specification:'DejaVu Sans Bold';text-align:start;writing-mode:lr-tb;text-anchor:start;fill:white;fill-opacity:1;fill-rule:nonzero;stroke:none;stroke-width:1;stroke-linecap:round;stroke-linejoin:round;stroke-miterlimit:4;stroke-dasharray:none;stroke-dashoffset:0;stroke-opacity:1" inkscape:connector-curvature="0" />
      <path id="text6103" d="m 12,14 -0.03125,0.03125 c -0.0058,0.03456 10e-7,0.05535 0,0.09375 2e-6,0.09067 -7.48e-4,0.195168 0.03125,0.3125 0.032,0.112001 0.09225,0.236334 0.15625,0.375 0.064,0.133334 0.133418,0.283584 0.21875,0.40625 0.08534,0.128 0.174585,0.226417 0.28125,0.34375 0.101334,0.122666 0.226418,0.242416 0.34375,0.34375 L 13,15.375 c -0.048,-0.04267 -0.077,-0.077 -0.125,-0.125 -0.08533,-0.09067 -0.175332,-0.195916 -0.25,-0.28125 -0.08,-0.09067 -0.154749,-0.159333 -0.21875,-0.25 -0.096,-0.138666 -0.170748,-0.268332 -0.21875,-0.375 -0.03162,-0.07379 -0.02046,-0.127601 -0.03125,-0.1875 L 12,14 Z m 1.9375,2.0625 -0.21875,0.25 c 0.112,0.03733 0.237083,0.0625 0.34375,0.0625 0.06933,-1e-6 0.134166,-0.01525 0.1875,-0.03125 0.02667,-0.008 0.0385,-0.01658 0.0625,-0.03125 l -0.15625,-0.15625 -0.03125,0 c -0.04267,-1e-6 -0.09225,-0.0305 -0.15625,-0.0625 -0.01083,-0.0045 -0.01966,-0.02582 -0.03125,-0.03125 z m -1.65625,0.3125 c -0.048,2e-6 -0.08766,0.0099 -0.125,0.03125 -0.03733,0.016 -0.093,0.0305 -0.125,0.0625 -0.02666,0.032 -0.0465,0.08234 -0.0625,0.125 -0.016,0.04267 2e-6,0.102919 0,0.15625 2e-6,0.096 -7.48e-4,0.174585 0.03125,0.28125 0.02667,0.106668 0.06634,0.221084 0.125,0.34375 0.01067,0.02667 0.0465,0.06708 0.0625,0.09375 0.01067,0.02133 0.02059,0.03583 0.03125,0.0625 0.05334,0.096 0.08692,0.185249 0.15625,0.28125 0.064,0.101334 0.164668,0.205832 0.25,0.3125 0.112001,0.138666 0.221084,0.268334 0.34375,0.375 0.111608,0.101901 0.223314,0.201422 0.34375,0.28125 l 0,0.03125 c 0.165334,0.181335 0.283584,0.340002 0.40625,0.5 0.122667,0.154668 0.227167,0.298834 0.3125,0.4375 0.08533,0.133334 0.176083,0.242416 0.21875,0.34375 0.04267,0.096 0.0625,0.180667 0.0625,0.25 0,0.02133 -0.02592,0.0465 -0.03125,0.0625 -0.0053,0.01067 0.0053,0.02059 0,0.03125 -0.01067,0.0053 -0.02058,0.02058 -0.03125,0.03125 -0.01067,0.0053 -0.01525,1e-6 -0.03125,0 -0.016,0 -0.04117,0.01067 -0.0625,0 -0.02133,-0.01067 -0.06708,-0.0465 -0.09375,-0.0625 -0.02667,-0.02133 -0.05642,-0.03583 -0.09375,-0.0625 -0.03733,-0.032 -0.07167,-0.08233 -0.125,-0.125 L 13,19.53125 c -0.07467,-0.05867 -0.154749,-0.139499 -0.21875,-0.1875 -0.06933,-0.048 -0.118165,-0.08766 -0.1875,-0.125 -0.064,-0.032 -0.134165,-0.0465 -0.1875,-0.0625 C 12.34759,19.14025 12.292668,19.125 12.25,19.125 c -0.04266,1e-6 -0.093,0.01525 -0.125,0.03125 -0.03733,0.01067 -0.04116,0.0305 -0.0625,0.0625 -0.02666,0.02667 -0.05183,0.05109 -0.0625,0.09375 -0.016,0.04267 -0.03125,0.09758 -0.03125,0.15625 2e-6,0.08533 0.01984,0.200501 0.0625,0.3125 0.03734,0.112001 0.112835,0.241667 0.1875,0.375 0.07467,0.128 0.163918,0.256917 0.28125,0.40625 0.112001,0.144 0.225668,0.298083 0.375,0.46875 L 12.125,20.5 C 11.890335,20.089334 11.677502,19.700334 11.4375,19.375 11.197503,19.044335 10.932836,18.756001 10.6875,18.5 10.436837,18.244002 10.223254,18.065503 10.03125,17.9375 9.8392541,17.809503 9.6958382,17.718752 9.5625,17.71875 c -0.031995,3e-6 -0.067078,0.02059 -0.09375,0.03125 -0.026662,0.01067 -0.046495,0.04117 -0.0625,0.0625 -0.021328,0.02134 -0.057162,0.03583 -0.0625,0.0625 -0.010662,0.02134 5.4e-6,0.0305 0,0.0625 5.1e-6,0.128003 0.034338,0.298086 0.125,0.46875 0.090671,0.165335 0.2249211,0.354502 0.40625,0.5625 0.181337,0.213335 0.400254,0.426919 0.65625,0.65625 0.25067,0.224001 0.529086,0.442167 0.84375,0.6875 l 3,2.25 0,-0.46875 C 14.156333,21.939082 13.947333,21.790332 13.75,21.625 c -0.197333,-0.160001 -0.365916,-0.340002 -0.53125,-0.5 -0.08533,-0.08 -0.175332,-0.138751 -0.25,-0.21875 -0.08,-0.08 -0.149416,-0.175333 -0.21875,-0.25 C 12.542001,20.410917 12.387918,20.186667 12.28125,20 12.174585,19.813334 12.125002,19.664584 12.125,19.53125 c 2e-6,-0.02133 -0.0053,-0.0465 0,-0.0625 2e-6,-0.016 0.02059,-0.02058 0.03125,-0.03125 0.01067,-0.01066 0.01525,-0.02591 0.03125,-0.03125 0.01067,-0.0053 0.01525,1e-6 0.03125,0 0.01067,1e-6 0.04117,-0.01067 0.0625,0 0.016,0.0053 0.04117,0.0465 0.0625,0.0625 0.02134,0.01067 0.0305,0.0046 0.0625,0.03125 0.02667,0.02133 0.06175,0.06708 0.09375,0.09375 l 0.84375,0.71875 c 0.06933,0.05867 0.149417,0.10825 0.21875,0.15625 0.064,0.04267 0.144084,0.08767 0.21875,0.125 0.06933,0.032 0.1235,0.07242 0.1875,0.09375 0.05867,0.016 0.102917,1e-6 0.15625,0 0.05333,0 0.113583,0.016 0.15625,0 0.04267,-0.016 0.06708,-0.04117 0.09375,-0.0625 0.02133,-0.02667 0.05183,-0.06175 0.0625,-0.09375 0.016,-0.03733 0.03125,-0.08233 0.03125,-0.125 -10e-7,-0.09067 -0.01983,-0.189833 -0.0625,-0.3125 -0.03733,-0.122666 -0.09683,-0.256917 -0.1875,-0.40625 -0.09067,-0.149332 -0.210417,-0.308749 -0.34375,-0.46875 -0.07082,-0.08781 -0.167147,-0.188923 -0.25,-0.28125 0.03039,0.01157 0.06399,0.02219 0.09375,0.03125 0.117333,0.04267 0.237083,0.0625 0.34375,0.0625 0.064,-1e-6 0.134166,-0.0099 0.1875,-0.03125 0.05333,-0.02133 0.08233,-0.05108 0.125,-0.09375 0.032,-0.03733 0.07242,-0.06633 0.09375,-0.125 0.02133,-0.05333 0.03125,-0.112834 0.03125,-0.1875 -10e-7,-0.128 -0.0145,-0.267584 -0.0625,-0.40625 -0.048,-0.133333 -0.117417,-0.282834 -0.21875,-0.4375 -0.03733,-0.04267 -0.08767,-0.077 -0.125,-0.125 -0.03733,-0.05333 -0.08233,-0.10825 -0.125,-0.15625 -0.09067,-0.101333 -0.174583,-0.216498 -0.28125,-0.3125 -0.106666,-0.101332 -0.221083,-0.185249 -0.34375,-0.28125 0.01067,-0.016 0.02058,-0.05183 0.03125,-0.0625 0.0053,-0.016 -0.0053,-0.01525 0,-0.03125 0.01067,-0.016 0.02592,-0.02058 0.03125,-0.03125 0.0053,-0.016 -0.0053,-0.0465 0,-0.0625 0.0053,-0.032 0.02592,-0.06175 0.03125,-0.09375 l -0.21875,0.1875 -0.15625,0.1875 c 0.01067,1e-6 0.0465,2e-6 0.0625,0 0.016,-0.0053 0.02058,0.0053 0.03125,0 0.0053,1e-6 0.02058,1e-6 0.03125,0 0.197334,0.165334 0.38725,0.293501 0.53125,0.4375 0.144,0.144001 0.24775,0.283585 0.34375,0.40625 0.09067,0.128 0.17075,0.263 0.21875,0.375 0.048,0.117333 0.0625,0.211167 0.0625,0.3125 0,0.04267 0.01067,0.093 0,0.125 -0.01067,0.03733 -0.04117,0.07242 -0.0625,0.09375 -0.02133,0.02667 -0.03583,0.02058 -0.0625,0.03125 -0.02667,0.01067 -0.05642,0.03125 -0.09375,0.03125 -0.05333,-1e-6 -0.112833,-0.02517 -0.1875,-0.0625 -0.08,-0.03733 -0.179916,-0.08158 -0.28125,-0.15625 -0.106666,-0.06933 -0.23175,-0.148668 -0.34375,-0.25 -0.117333,-0.101333 -0.241666,-0.215751 -0.375,-0.34375 -0.122666,-0.133333 -0.211165,-0.263001 -0.3125,-0.375 -0.101332,-0.111999 -0.211915,-0.231749 -0.28125,-0.34375 -0.07466,-0.106666 -0.124248,-0.195916 -0.15625,-0.28125 -0.03733,-0.09067 -0.0625,-0.185999 -0.0625,-0.25 2e-6,-0.02667 0.02059,-0.04116 0.03125,-0.0625 0.0053,-0.02133 0.01525,-0.0465 0.03125,-0.0625 0.016,-0.016 0.03584,-0.02592 0.0625,-0.03125 0.02134,-0.01066 0.03584,3e-6 0.0625,0 0.0053,2e-6 0.02592,3e-6 0.03125,0 0.01067,0.0053 0.02592,1e-6 0.03125,0 0.0053,2e-6 0.02592,1e-6 0.03125,0 0.0053,0.0053 0.02592,2e-6 0.03125,0 0.0053,0.05334 0.0305,0.10825 0.0625,0.15625 0.032,0.048 0.09225,0.08234 0.15625,0.125 0.032,0.02134 0.06175,0.0465 0.09375,0.0625 0.02667,0.016 0.03583,0.0465 0.0625,0.0625 0.02667,0.01067 0.06175,0.02592 0.09375,0.03125 0.02667,0.0053 0.06175,1e-6 0.09375,0 l 0,-0.34375 c -0.01877,-0.01092 -0.04398,-0.02084 -0.0625,-0.03125 -0.08533,-0.048 -0.169999,-0.118916 -0.25,-0.15625 -0.08,-0.032 -0.149415,-0.0465 -0.21875,-0.0625 C 12.39409,16.38492 12.339918,16.375 12.28125,16.375 Z m -2.6875,1.5625 c 0.010672,-0.01066 0.020588,3e-6 0.03125,0 0.101338,3e-6 0.2096706,0.04425 0.375,0.15625 0.160004,0.112002 0.375087,0.276003 0.59375,0.5 0.213336,0.218668 0.432253,0.462002 0.65625,0.75 0.218669,0.288001 0.437586,0.611417 0.65625,0.96875 -0.506664,-0.389333 -0.924664,-0.707416 -1.25,-0.96875 C 10.325587,19.077085 10.081504,18.862751 9.9375,18.71875 9.7935046,18.574752 9.6943377,18.455752 9.625,18.34375 9.5503382,18.226419 9.500005,18.116587 9.5,18.03125 9.5000049,18.02059 9.525921,18.00534 9.53125,18 c 0.00534,-0.01066 -0.00533,-0.02591 0,-0.03125 0.010672,-0.01066 0.046504,-0.02591 0.0625,-0.03125 z m 0.0625,2.09375 C 9.586922,20.031256 9.5480048,20.03585 9.5,20.0625 9.452005,20.08917 9.412339,20.13417 9.375,20.1875 9.343005,20.24084 9.297255,20.300339 9.28125,20.375 9.259922,20.44434 9.250005,20.554921 9.25,20.65625 c 5.2e-6,0.245339 0.049589,0.508505 0.15625,0.8125 0.1066716,0.304004 0.2813386,0.637337 0.5,1 0.213337,0.357337 0.462004,0.705169 0.75,1.0625 0.288003,0.352002 0.606086,0.715836 0.96875,1.0625 -0.016,0.192001 -0.04575,0.345335 -0.09375,0.5 -0.048,0.149334 -0.102164,0.299584 -0.1875,0.40625 -0.08,0.106667 -0.179914,0.191334 -0.28125,0.25 -0.106664,0.05333 -0.215747,0.0625 -0.34375,0.0625 -0.19733,0 -0.386496,-0.04425 -0.5625,-0.15625 C 9.9802539,25.538917 9.810921,25.349002 9.65625,25.125 9.5015883,24.895668 9.3871722,24.672918 9.3125,24.40625 9.2325052,24.134252 9.1875056,23.814668 9.1875,23.5 c 5.2e-6,-0.07466 0.025922,-0.144081 0.03125,-0.21875 0.00534,-0.07466 -0.010662,-0.133414 0,-0.21875 C 9.22409,22.97717 9.234005,22.87192 9.25,22.78125 9.266005,22.68525 9.291172,22.601337 9.3125,22.5 L 9.21875,22.4375 C 9.186755,22.549504 9.146339,22.674588 9.125,22.78125 9.103672,22.882587 9.073172,22.966502 9.0625,23.0625 c -0.015995,0.096 -0.025911,0.190587 -0.03125,0.28125 -0.00533,0.09067 5.6e-6,0.16467 0,0.25 5.4e-6,0.346669 0.045006,0.680753 0.125,0.96875 0.080005,0.288001 0.2150048,0.55725 0.375,0.78125 0.1600047,0.224001 0.3339207,0.388 0.53125,0.5 0.197337,0.112 0.390337,0.15625 0.625,0.15625 0.144003,0 0.283586,-0.04042 0.40625,-0.09375 0.117336,-0.05333 0.216503,-0.10675 0.3125,-0.21875 0.096,-0.106666 0.186002,-0.251583 0.25,-0.40625 0.05867,-0.159999 0.093,-0.333914 0.125,-0.53125 0.165335,0.128001 0.345335,0.242417 0.5,0.34375 0.149335,0.096 0.293501,0.180668 0.4375,0.25 0.144001,0.06933 0.272918,0.124251 0.40625,0.15625 0.128001,0.032 0.252334,0.03125 0.375,0.03125 0.16,1e-6 0.314833,-0.0145 0.4375,-0.0625 0.122667,-0.05333 0.221833,-0.148666 0.3125,-0.25 0.08533,-0.106666 0.150166,-0.225664 0.1875,-0.375 0.04267,-0.149332 0.0625,-0.302666 0.0625,-0.5 -10e-7,-0.143998 -0.0305,-0.319415 -0.0625,-0.46875 -0.032,-0.154664 -0.07167,-0.28283 -0.125,-0.4375 -0.064,-0.159997 -0.133417,-0.324747 -0.21875,-0.46875 -0.08533,-0.143997 -0.16925,-0.272913 -0.28125,-0.40625 -0.07467,-0.08533 -0.144083,-0.154747 -0.21875,-0.21875 -0.07467,-0.06933 -0.175333,-0.144828 -0.25,-0.1875 -0.08,-0.048 -0.138749,-0.07241 -0.21875,-0.09375 -0.08,-0.02666 -0.149416,-0.03125 -0.21875,-0.03125 -0.101332,4e-6 -0.206582,-0.0061 -0.28125,0.03125 -0.08,0.032 -0.134165,0.08692 -0.1875,0.15625 -0.05866,0.06934 -0.09833,0.159337 -0.125,0.25 -0.032,0.09067 -0.0625,0.195169 -0.0625,0.3125 2e-6,0.197337 0.05034,0.375835 0.125,0.5625 0.07467,0.186669 0.189085,0.381168 0.34375,0.5625 0.149334,0.181335 0.323251,0.330085 0.53125,0.46875 0.202667,0.138668 0.410917,0.273669 0.65625,0.375 l 0.03125,-0.125 c -0.234666,-0.117332 -0.443666,-0.267582 -0.625,-0.40625 -0.186666,-0.143998 -0.330082,-0.272163 -0.46875,-0.4375 -0.138665,-0.170664 -0.243165,-0.365914 -0.3125,-0.53125 -0.07466,-0.170664 -0.124998,-0.334663 -0.125,-0.5 2e-6,-0.09066 0.0099,-0.154745 0.03125,-0.21875 0.02134,-0.06933 0.05109,-0.134162 0.09375,-0.1875 0.04267,-0.05333 0.09759,-0.09833 0.15625,-0.125 0.05334,-0.02666 0.118168,-0.03125 0.1875,-0.03125 0.08,4e-6 0.164668,-7.46e-4 0.25,0.03125 0.08,0.032 0.159334,0.08692 0.25,0.15625 0.08533,0.064 0.164667,0.159336 0.25,0.25 0.08533,0.08534 0.17,0.189838 0.25,0.3125 0.06933,0.10667 0.128833,0.19517 0.1875,0.3125 0.05867,0.117336 0.113583,0.247003 0.15625,0.375 0.03733,0.128002 0.06708,0.252335 0.09375,0.375 0.02133,0.122669 0.03125,0.257669 0.03125,0.375 0,0.133335 -0.0046,0.237085 -0.03125,0.34375 -0.032,0.106668 -0.06633,0.206585 -0.125,0.28125 -0.05867,0.07467 -0.144083,0.118917 -0.21875,0.15625 -0.07467,0.03733 -0.148667,0.0625 -0.25,0.0625 -0.122666,1e-6 -0.241666,-0.01983 -0.375,-0.0625 -0.138666,-0.04267 -0.288166,-0.102166 -0.4375,-0.1875 -0.149332,-0.08533 -0.323999,-0.179166 -0.5,-0.3125 -0.181332,-0.138665 -0.359831,-0.313332 -0.5625,-0.5 -0.01066,-0.213331 -0.03583,-0.43758 -0.0625,-0.65625 -0.032,-0.218664 -0.07166,-0.432247 -0.125,-0.65625 -0.05866,-0.223996 -0.144081,-0.442913 -0.21875,-0.65625 -0.08,-0.213329 -0.148664,-0.416996 -0.25,-0.625 -0.11733,-0.234662 -0.246997,-0.443661 -0.375,-0.625 -0.127997,-0.186661 -0.26758,-0.366661 -0.40625,-0.5 -0.138663,-0.138661 -0.25233,-0.24316 -0.375,-0.3125 -0.1226626,-0.06933 -0.2629952,-0.09374 -0.375,-0.09375 z m 0.0625,0.1875 c 0.085338,6e-6 0.2005035,0.05034 0.3125,0.125 0.10667,0.06934 0.215754,0.173838 0.34375,0.3125 0.133337,0.133339 0.25767,0.287423 0.375,0.46875 0.112003,0.176005 0.21117,0.375088 0.3125,0.59375 0.08534,0.186671 0.180669,0.370503 0.25,0.5625 0.06934,0.18667 0.102919,0.370504 0.15625,0.5625 0.048,0.197336 0.093,0.401754 0.125,0.59375 0.02667,0.192003 0.05717,0.375836 0.0625,0.5625 -0.351997,-0.314664 -0.660164,-0.633498 -0.9375,-0.9375 C 10.44142,22.75317 10.197337,22.45492 10,22.15625 9.7973375,21.857588 9.6585045,21.568506 9.5625,21.3125 9.4611716,21.056505 9.4062552,20.827672 9.40625,20.625 c 5e-6,-0.07466 0.015255,-0.139494 0.03125,-0.1875 0.010672,-0.05333 0.00459,-0.09299 0.03125,-0.125 0.021338,-0.03199 0.082338,-0.0465 0.125,-0.0625 0.037338,-0.02133 0.066339,-0.03124 0.125,-0.03125 z" style="font-style:normal;font-variant:normal;font-weight:bold;font-stretch:normal;font-size:16.5px;line-height:100%;font-family:'DejaVu Sans';-inkscape-font-specification:'DejaVu Sans Bold';text-align:start;writing-mode:lr-tb;text-anchor:start;fill:#ffe000;fill-opacity:1;fill-rule:nonzero;stroke:none;stroke-width:2;stroke-linecap:round;stroke-linejoin:round;stroke-miterlimit:4;stroke-dashoffset:0;stroke-opacity:1" inkscape:connector-curvature="0" />
      <path style="font-style:normal;font-variant:normal;font-weight:200;font-stretch:normal;font-size:8px;line-height:100%;font-family:English;-inkscape-font-specification:'English Ultra-Light';text-align:start;writing-mode:lr-tb;text-anchor:start;fill:#ffe000;fill-opacity:1;fill-rule:nonzero;stroke:white;stroke-width:1;stroke-linecap:round;stroke-linejoin:round;stroke-miterlimit:4;stroke-dashoffset:0;stroke-opacity:1" d="m 22.652344,25.99192 -0.408203,0 0,-0.68164 -1.876953,0 0.412109,0.660156 -0.431641,0 -0.447265,-0.689453 0,-0.519531 2.34375,0 0,-0.63086 0.408203,0 0,1.861328 m -1.376953,-3.769991 c 0.263022,2e-6 0.485027,0.02409 0.666015,0.07227 0.179688,0.04818 0.325521,0.115236 0.4375,0.201172 0.110677,0.08464 0.190756,0.185548 0.240235,0.302734 0.04818,0.115887 0.07227,0.24284 0.07227,0.38086 0,0.138021 -0.02409,0.264974 -0.07227,0.380859 -0.04818,0.115886 -0.127604,0.215495 -0.238282,0.298828 -0.111978,0.08333 -0.257812,0.148438 -0.4375,0.195313 -0.180988,0.04687 -0.403644,0.07031 -0.667968,0.07031 -0.277342,0 -0.506509,-0.02279 -0.6875,-0.06836 -0.18229,-0.04687 -0.327472,-0.11263 -0.435547,-0.197266 -0.108071,-0.08463 -0.183591,-0.185546 -0.226563,-0.302734 -0.04427,-0.118489 -0.0664,-0.249348 -0.06641,-0.392578 3e-6,-0.134114 0.02214,-0.258463 0.06641,-0.373047 0.04297,-0.115884 0.118492,-0.215493 0.226563,-0.298828 0.108075,-0.08463 0.253257,-0.150389 0.435547,-0.197266 0.180991,-0.04817 0.410158,-0.07226 0.6875,-0.07227 m 0,0.550782 c -0.194009,10e-7 -0.354165,0.0072 -0.480469,0.02148 -0.127602,0.01432 -0.228514,0.03711 -0.302734,0.06836 -0.07552,0.03125 -0.128253,0.07227 -0.158204,0.123047 -0.02995,0.04948 -0.04492,0.110027 -0.04492,0.181641 3e-6,0.07682 0.01563,0.141277 0.04688,0.193359 0.02995,0.05208 0.08268,0.0944 0.158203,0.126953 0.07552,0.03125 0.177085,0.05404 0.304687,0.06836 0.126304,0.01302 0.285158,0.01953 0.476563,0.01953 0.188803,1e-6 0.346355,-0.0072 0.472656,-0.02148 0.126303,-0.01432 0.227865,-0.03711 0.304687,-0.06836 0.07552,-0.03125 0.128907,-0.07226 0.160157,-0.123047 0.03125,-0.05078 0.04687,-0.11328 0.04687,-0.1875 0,-0.07161 -0.01563,-0.132811 -0.04687,-0.183593 -0.03125,-0.05078 -0.08463,-0.09245 -0.160157,-0.125 -0.07682,-0.03255 -0.178384,-0.05599 -0.304687,-0.07031 -0.126301,-0.01562 -0.283853,-0.02344 -0.472656,-0.02344 m 0,-2.73315 c 0.263022,2e-6 0.485027,0.02409 0.666015,0.07227 0.179688,0.04818 0.325521,0.115237 0.4375,0.201172 0.110677,0.08464 0.190756,0.185549 0.240235,0.302735 0.04818,0.115886 0.07227,0.242839 0.07227,0.380859 0,0.138022 -0.02409,0.264975 -0.07227,0.380859 -0.04818,0.115886 -0.127604,0.215496 -0.238282,0.298829 -0.111978,0.08333 -0.257812,0.148437 -0.4375,0.195312 -0.180988,0.04687 -0.403644,0.07031 -0.667968,0.07031 -0.277342,0 -0.506509,-0.02279 -0.6875,-0.06836 -0.18229,-0.04687 -0.327472,-0.11263 -0.435547,-0.197265 -0.108071,-0.08463 -0.183591,-0.185547 -0.226563,-0.302735 -0.04427,-0.118489 -0.0664,-0.249348 -0.06641,-0.392578 3e-6,-0.134113 0.02214,-0.258462 0.06641,-0.373047 0.04297,-0.115884 0.118492,-0.215493 0.226563,-0.298828 0.108075,-0.08463 0.253257,-0.150389 0.435547,-0.197266 0.180991,-0.04818 0.410158,-0.07226 0.6875,-0.07227 m 0,0.550781 c -0.194009,2e-6 -0.354165,0.0072 -0.480469,0.02148 -0.127602,0.01432 -0.228514,0.03711 -0.302734,0.06836 -0.07552,0.03125 -0.128253,0.07227 -0.158204,0.123047 -0.02995,0.04948 -0.04492,0.110027 -0.04492,0.18164 3e-6,0.07682 0.01563,0.141277 0.04688,0.19336 0.02995,0.05208 0.08268,0.0944 0.158203,0.126953 0.07552,0.03125 0.177085,0.05404 0.304687,0.06836 0.126304,0.01302 0.285158,0.01953 0.476563,0.01953 0.188803,10e-7 0.346355,-0.0072 0.472656,-0.02148 0.126303,-0.01432 0.227865,-0.03711 0.304687,-0.06836 0.07552,-0.03125 0.128907,-0.07226 0.160157,-0.123047 0.03125,-0.05078 0.04687,-0.11328 0.04687,-0.1875 0,-0.07161 -0.01563,-0.132811 -0.04687,-0.183594 -0.03125,-0.05078 -0.08463,-0.09245 -0.160157,-0.125 -0.07682,-0.03255 -0.178384,-0.05599 -0.304687,-0.07031 -0.126301,-0.01562 -0.283853,-0.02344 -0.472656,-0.02344 M 23.5,18.130438 c -1e-6,0.139324 -0.01432,0.262371 -0.04297,0.36914 -0.02734,0.10547 -0.06641,0.195965 -0.117187,0.271485 -0.04948,0.07422 -0.109376,0.134115 -0.179688,0.179687 -0.06901,0.04427 -0.145182,0.07487 -0.228515,0.0918 l -0.06445,-0.548828 c 0.08464,-0.01953 0.151041,-0.0612 0.199218,-0.125 0.04818,-0.0651 0.07226,-0.149738 0.07227,-0.253906 -10e-7,-0.0651 -0.0091,-0.124348 -0.02734,-0.177735 -0.01823,-0.05469 -0.04948,-0.10091 -0.09375,-0.138671 -0.04297,-0.03906 -0.100261,-0.06901 -0.171875,-0.08984 -0.07162,-0.02213 -0.160156,-0.0332 -0.265625,-0.0332 -0.03646,10e-7 -0.07357,10e-7 -0.111328,0 -0.03776,10e-7 -0.07227,-6.5e-4 -0.103516,-0.002 -0.03646,-0.0013 -0.07161,-0.002 -0.105468,-0.002 l 0,0.0039 c 0.136719,0.0638 0.235677,0.153647 0.296875,0.269531 0.0612,0.114585 0.0918,0.251303 0.0918,0.410156 0,0.134116 -0.02604,0.250001 -0.07813,0.347656 -0.05339,0.09635 -0.126952,0.176433 -0.220703,0.240235 -0.09505,0.0638 -0.207681,0.111328 -0.33789,0.142578 -0.13151,0.02995 -0.276041,0.04492 -0.433594,0.04492 -0.162759,0 -0.309894,-0.01628 -0.441406,-0.04883 -0.132811,-0.03255 -0.246743,-0.08203 -0.341797,-0.148438 -0.09505,-0.06771 -0.167967,-0.152343 -0.21875,-0.253906 -0.05208,-0.102864 -0.07812,-0.224609 -0.07813,-0.365234 2e-6,-0.140624 0.02995,-0.266275 0.08984,-0.376954 0.0599,-0.111977 0.156903,-0.199217 0.291015,-0.261718 l 0,-0.0098 c -0.02734,2e-6 -0.05859,-6.49e-4 -0.09375,-0.002 -0.03646,-0.0026 -0.07096,-0.0052 -0.103515,-0.0078 -0.03385,-0.0026 -0.0638,-0.0052 -0.08984,-0.0078 -0.02604,-0.0039 -0.04362,-0.0072 -0.05273,-0.0098 l 0,-0.519531 c 0.04688,0.0026 0.112633,0.0052 0.197266,0.0078 0.08464,0.0026 0.181642,0.0039 0.291016,0.0039 l 1.560547,0 c 0.153645,2e-6 0.287109,0.02214 0.40039,0.06641 0.114583,0.04427 0.209635,0.109377 0.285157,0.195313 0.07552,0.08464 0.13216,0.189454 0.169921,0.314453 0.03776,0.123699 0.05664,0.264975 0.05664,0.423828 m -1.933594,-0.458985 c -0.132811,2e-6 -0.243488,0.01302 -0.332031,0.03906 -0.08854,0.02604 -0.159504,0.0599 -0.212891,0.101562 -0.05338,0.04167 -0.09114,0.08985 -0.113281,0.144532 -0.02213,0.05339 -0.0332,0.107423 -0.0332,0.162109 2e-6,0.07031 0.01367,0.132814 0.04102,0.1875 0.02735,0.05339 0.06966,0.09896 0.126953,0.136719 0.05729,0.03776 0.13021,0.06641 0.21875,0.08594 0.08854,0.01953 0.194011,0.0293 0.316406,0.0293 0.227865,1e-6 0.39974,-0.03646 0.515625,-0.109375 0.115886,-0.07292 0.173829,-0.181639 0.173828,-0.326172 10e-7,-0.05469 -0.01042,-0.108722 -0.03125,-0.162109 -0.02213,-0.05469 -0.0599,-0.103514 -0.113281,-0.146484 -0.05469,-0.04297 -0.126953,-0.07747 -0.216797,-0.103516 -0.08984,-0.02604 -0.203124,-0.03906 -0.339844,-0.03906" id="path6167" inkscape:connector-curvature="0" />
      <path id="text6162" d="m 22.652344,25.99192 -0.408203,0 0,-0.68164 -1.876953,0 0.412109,0.660156 -0.431641,0 -0.447265,-0.689453 0,-0.519531 2.34375,0 0,-0.63086 0.408203,0 0,1.861328 m -1.376953,-3.769991 c 0.263022,2e-6 0.485027,0.02409 0.666015,0.07227 0.179688,0.04818 0.325521,0.115236 0.4375,0.201172 0.110677,0.08464 0.190756,0.185548 0.240235,0.302734 0.04818,0.115887 0.07227,0.24284 0.07227,0.38086 0,0.138021 -0.02409,0.264974 -0.07227,0.380859 -0.04818,0.115886 -0.127604,0.215495 -0.238282,0.298828 -0.111978,0.08333 -0.257812,0.148438 -0.4375,0.195313 -0.180988,0.04687 -0.403644,0.07031 -0.667968,0.07031 -0.277342,0 -0.506509,-0.02279 -0.6875,-0.06836 -0.18229,-0.04687 -0.327472,-0.11263 -0.435547,-0.197266 -0.108071,-0.08463 -0.183591,-0.185546 -0.226563,-0.302734 -0.04427,-0.118489 -0.0664,-0.249348 -0.06641,-0.392578 3e-6,-0.134114 0.02214,-0.258463 0.06641,-0.373047 0.04297,-0.115884 0.118492,-0.215493 0.226563,-0.298828 0.108075,-0.08463 0.253257,-0.150389 0.435547,-0.197266 0.180991,-0.04817 0.410158,-0.07226 0.6875,-0.07227 m 0,0.550782 c -0.194009,10e-7 -0.354165,0.0072 -0.480469,0.02148 -0.127602,0.01432 -0.228514,0.03711 -0.302734,0.06836 -0.07552,0.03125 -0.128253,0.07227 -0.158204,0.123047 -0.02995,0.04948 -0.04492,0.110027 -0.04492,0.181641 3e-6,0.07682 0.01563,0.141277 0.04688,0.193359 0.02995,0.05208 0.08268,0.0944 0.158203,0.126953 0.07552,0.03125 0.177085,0.05404 0.304687,0.06836 0.126304,0.01302 0.285158,0.01953 0.476563,0.01953 0.188803,1e-6 0.346355,-0.0072 0.472656,-0.02148 0.126303,-0.01432 0.227865,-0.03711 0.304687,-0.06836 0.07552,-0.03125 0.128907,-0.07226 0.160157,-0.123047 0.03125,-0.05078 0.04687,-0.11328 0.04687,-0.1875 0,-0.07161 -0.01563,-0.132811 -0.04687,-0.183593 -0.03125,-0.05078 -0.08463,-0.09245 -0.160157,-0.125 -0.07682,-0.03255 -0.178384,-0.05599 -0.304687,-0.07031 -0.126301,-0.01562 -0.283853,-0.02344 -0.472656,-0.02344 m 0,-2.73315 c 0.263022,2e-6 0.485027,0.02409 0.666015,0.07227 0.179688,0.04818 0.325521,0.115237 0.4375,0.201172 0.110677,0.08464 0.190756,0.185549 0.240235,0.302735 0.04818,0.115886 0.07227,0.242839 0.07227,0.380859 0,0.138022 -0.02409,0.264975 -0.07227,0.380859 -0.04818,0.115886 -0.127604,0.215496 -0.238282,0.298829 -0.111978,0.08333 -0.257812,0.148437 -0.4375,0.195312 -0.180988,0.04687 -0.403644,0.07031 -0.667968,0.07031 -0.277342,0 -0.506509,-0.02279 -0.6875,-0.06836 -0.18229,-0.04687 -0.327472,-0.11263 -0.435547,-0.197265 -0.108071,-0.08463 -0.183591,-0.185547 -0.226563,-0.302735 -0.04427,-0.118489 -0.0664,-0.249348 -0.06641,-0.392578 3e-6,-0.134113 0.02214,-0.258462 0.06641,-0.373047 0.04297,-0.115884 0.118492,-0.215493 0.226563,-0.298828 0.108075,-0.08463 0.253257,-0.150389 0.435547,-0.197266 0.180991,-0.04818 0.410158,-0.07226 0.6875,-0.07227 m 0,0.550781 c -0.194009,2e-6 -0.354165,0.0072 -0.480469,0.02148 -0.127602,0.01432 -0.228514,0.03711 -0.302734,0.06836 -0.07552,0.03125 -0.128253,0.07227 -0.158204,0.123047 -0.02995,0.04948 -0.04492,0.110027 -0.04492,0.18164 3e-6,0.07682 0.01563,0.141277 0.04688,0.19336 0.02995,0.05208 0.08268,0.0944 0.158203,0.126953 0.07552,0.03125 0.177085,0.05404 0.304687,0.06836 0.126304,0.01302 0.285158,0.01953 0.476563,0.01953 0.188803,10e-7 0.346355,-0.0072 0.472656,-0.02148 0.126303,-0.01432 0.227865,-0.03711 0.304687,-0.06836 0.07552,-0.03125 0.128907,-0.07226 0.160157,-0.123047 0.03125,-0.05078 0.04687,-0.11328 0.04687,-0.1875 0,-0.07161 -0.01563,-0.132811 -0.04687,-0.183594 -0.03125,-0.05078 -0.08463,-0.09245 -0.160157,-0.125 -0.07682,-0.03255 -0.178384,-0.05599 -0.304687,-0.07031 -0.126301,-0.01562 -0.283853,-0.02344 -0.472656,-0.02344 M 23.5,18.130438 c -1e-6,0.139324 -0.01432,0.262371 -0.04297,0.36914 -0.02734,0.10547 -0.06641,0.195965 -0.117187,0.271485 -0.04948,0.07422 -0.109376,0.134115 -0.179688,0.179687 -0.06901,0.04427 -0.145182,0.07487 -0.228515,0.0918 l -0.06445,-0.548828 c 0.08464,-0.01953 0.151041,-0.0612 0.199218,-0.125 0.04818,-0.0651 0.07226,-0.149738 0.07227,-0.253906 -10e-7,-0.0651 -0.0091,-0.124348 -0.02734,-0.177735 -0.01823,-0.05469 -0.04948,-0.10091 -0.09375,-0.138671 -0.04297,-0.03906 -0.100261,-0.06901 -0.171875,-0.08984 -0.07162,-0.02213 -0.160156,-0.0332 -0.265625,-0.0332 -0.03646,10e-7 -0.07357,10e-7 -0.111328,0 -0.03776,10e-7 -0.07227,-6.5e-4 -0.103516,-0.002 -0.03646,-0.0013 -0.07161,-0.002 -0.105468,-0.002 l 0,0.0039 c 0.136719,0.0638 0.235677,0.153647 0.296875,0.269531 0.0612,0.114585 0.0918,0.251303 0.0918,0.410156 0,0.134116 -0.02604,0.250001 -0.07813,0.347656 -0.05339,0.09635 -0.126952,0.176433 -0.220703,0.240235 -0.09505,0.0638 -0.207681,0.111328 -0.33789,0.142578 -0.13151,0.02995 -0.276041,0.04492 -0.433594,0.04492 -0.162759,0 -0.309894,-0.01628 -0.441406,-0.04883 -0.132811,-0.03255 -0.246743,-0.08203 -0.341797,-0.148438 -0.09505,-0.06771 -0.167967,-0.152343 -0.21875,-0.253906 -0.05208,-0.102864 -0.07812,-0.224609 -0.07813,-0.365234 2e-6,-0.140624 0.02995,-0.266275 0.08984,-0.376954 0.0599,-0.111977 0.156903,-0.199217 0.291015,-0.261718 l 0,-0.0098 c -0.02734,2e-6 -0.05859,-6.49e-4 -0.09375,-0.002 -0.03646,-0.0026 -0.07096,-0.0052 -0.103515,-0.0078 -0.03385,-0.0026 -0.0638,-0.0052 -0.08984,-0.0078 -0.02604,-0.0039 -0.04362,-0.0072 -0.05273,-0.0098 l 0,-0.519531 c 0.04688,0.0026 0.112633,0.0052 0.197266,0.0078 0.08464,0.0026 0.181642,0.0039 0.291016,0.0039 l 1.560547,0 c 0.153645,2e-6 0.287109,0.02214 0.40039,0.06641 0.114583,0.04427 0.209635,0.109377 0.285157,0.195313 0.07552,0.08464 0.13216,0.189454 0.169921,0.314453 0.03776,0.123699 0.05664,0.264975 0.05664,0.423828 m -1.933594,-0.458985 c -0.132811,2e-6 -0.243488,0.01302 -0.332031,0.03906 -0.08854,0.02604 -0.159504,0.0599 -0.212891,0.101562 -0.05338,0.04167 -0.09114,0.08985 -0.113281,0.144532 -0.02213,0.05339 -0.0332,0.107423 -0.0332,0.162109 2e-6,0.07031 0.01367,0.132814 0.04102,0.1875 0.02735,0.05339 0.06966,0.09896 0.126953,0.136719 0.05729,0.03776 0.13021,0.06641 0.21875,0.08594 0.08854,0.01953 0.194011,0.0293 0.316406,0.0293 0.227865,1e-6 0.39974,-0.03646 0.515625,-0.109375 0.115886,-0.07292 0.173829,-0.181639 0.173828,-0.326172 10e-7,-0.05469 -0.01042,-0.108722 -0.03125,-0.162109 -0.02213,-0.05469 -0.0599,-0.103514 -0.113281,-0.146484 -0.05469,-0.04297 -0.126953,-0.07747 -0.216797,-0.103516 -0.08984,-0.02604 -0.203124,-0.03906 -0.339844,-0.03906" style="font-style:normal;font-variant:normal;font-weight:200;font-stretch:normal;font-size:8px;line-height:100%;font-family:English;-inkscape-font-specification:'English Ultra-Light';text-align:start;writing-mode:lr-tb;text-anchor:start;fill:#ffe000;fill-opacity:1;fill-rule:nonzero;stroke:none;stroke-width:1;stroke-linecap:round;stroke-linejoin:round;stroke-miterlimit:4;stroke-dashoffset:0;stroke-opacity:1" inkscape:connector-curvature="0" />
      <path sodipodi:nodetypes="cccc" id="path6300" d="M 3,12 7,13 6.0721915,15.241171 3,12 Z" style="opacity:1;fill:white;fill-opacity:1;fill-rule:nonzero;stroke:none;stroke-width:1;stroke-linecap:square;stroke-linejoin:miter;stroke-miterlimit:4;stroke-dasharray:none;stroke-dashoffset:0;stroke-opacity:1" inkscape:connector-curvature="0" />
      <path id="path6302" d="m 17,17 1,1 0,-1 -1,0 z" style="opacity:1;fill:white;fill-opacity:1;fill-rule:nonzero;stroke:none;stroke-width:1;stroke-linecap:square;stroke-linejoin:miter;stroke-miterlimit:4;stroke-dasharray:none;stroke-dashoffset:0;stroke-opacity:1" inkscape:connector-curvature="0" />
      <path id="path6304" d="m 25,10 -3,3 -2,-1 1,0 4,-2 z" style="opacity:1;fill:white;fill-opacity:1;fill-rule:nonzero;stroke:none;stroke-width:1;stroke-linecap:square;stroke-linejoin:miter;stroke-miterlimit:4;stroke-dasharray:none;stroke-dashoffset:0;stroke-opacity:1" inkscape:connector-curvature="0" />
      <path id="path6306" d="M 26,11 28,12 27.841988,10.079006 26,11 Z" style="opacity:1;fill:white;fill-opacity:1;fill-rule:nonzero;stroke:none;stroke-width:1;stroke-linecap:square;stroke-linejoin:miter;stroke-miterlimit:4;stroke-dasharray:none;stroke-dashoffset:0;stroke-opacity:1" inkscape:connector-curvature="0" />
    </g>
  </g>
</svg>
