<?xml version="1.0" encoding="UTF-8" standalone="no"?>
<!-- Created with Inkscape (http://www.inkscape.org/) -->

<svg xmlns:dc="http://purl.org/dc/elements/1.1/" xmlns:cc="http://creativecommons.org/ns#" xmlns:rdf="http://www.w3.org/1999/02/22-rdf-syntax-ns#" xmlns:svg="http://www.w3.org/2000/svg" xmlns="http://www.w3.org/2000/svg" xmlns:sodipodi="http://sodipodi.sourceforge.net/DTD/sodipodi-0.dtd" xmlns:inkscape="http://www.inkscape.org/namespaces/inkscape" width="32" height="32" id="svg3505" sodipodi:version="0.32" inkscape:version="0.91 r13725" sodipodi:docname="00.svg" inkscape:output_extension="org.inkscape.output.svg.inkscape" version="1.1" viewBox="0 0 32 32">
  <defs id="defs3507">
    <inkscape:perspective sodipodi:type="inkscape:persp3d" inkscape:vp_x="0 : 16 : 1" inkscape:vp_y="0 : 1000 : 0" inkscape:vp_z="32 : 16 : 1" inkscape:persp3d-origin="16 : 10.666667 : 1" id="perspective2836" />
    <inkscape:perspective id="perspective2899" inkscape:persp3d-origin="0.5 : 0.33333333 : 1" inkscape:vp_z="1 : 0.5 : 1" inkscape:vp_y="0 : 1000 : 0" inkscape:vp_x="0 : 0.5 : 1" sodipodi:type="inkscape:persp3d" />
    <inkscape:perspective id="perspective3072" inkscape:persp3d-origin="0.5 : 0.33333333 : 1" inkscape:vp_z="1 : 0.5 : 1" inkscape:vp_y="0 : 1000 : 0" inkscape:vp_x="0 : 0.5 : 1" sodipodi:type="inkscape:persp3d" />
  </defs>
  <sodipodi:namedview id="base" pagecolor="#ffffff" bordercolor="#666666" borderopacity="1.0" inkscape:pageopacity="0.0" inkscape:pageshadow="2" inkscape:zoom="22.041277" inkscape:cx="-0.6052083" inkscape:cy="16" inkscape:current-layer="layer1" showgrid="true" inkscape:grid-bbox="true" inkscape:document-units="px" objecttolerance="4" gridtolerance="4" guidetolerance="4" inkscape:window-width="1600" inkscape:window-height="878" inkscape:window-x="0" inkscape:window-y="0" inkscape:object-paths="true" inkscape:object-nodes="true" inkscape:snap-bbox="true" inkscape:snap-guide="true" showguides="true" inkscape:guide-bbox="true" inkscape:window-maximized="1">
    <inkscape:grid type="xygrid" id="grid3515" units="px" visible="true" enabled="true" spacingx="1px" spacingy="1px" empspacing="4" snapvisiblegridlinesonly="true" />
  </sodipodi:namedview>
  <metadata id="metadata3510">
    <rdf:RDF>
      <cc:Work rdf:about="">
        <dc:format>image/svg+xml</dc:format>
        <dc:type rdf:resource="http://purl.org/dc/dcmitype/StillImage" />
        <dc:title></dc:title>
        <dc:date>2015-09-03</dc:date>
        <dc:creator>
          <cc:Agent>
            <dc:title>Andreas Neudecker &lt;zapyon@gmx.net&gt;</dc:title>
          </cc:Agent>
        </dc:creator>
        <dc:rights>
          <cc:Agent>
            <dc:title>Copyright (C) 2010-2015 by Andreas Neudecker</dc:title>
          </cc:Agent>
        </dc:rights>
        <dc:publisher>
          <cc:Agent>
            <dc:title>Andreas Neudecker</dc:title>
          </cc:Agent>
        </dc:publisher>
        <dc:identifier>__empty__</dc:identifier>
        <dc:description>Template for McMinos SVG icons at a base size of 32x32 pixels.</dc:description>
      </cc:Work>
    </rdf:RDF>
  </metadata>
  <g id="layer1" inkscape:label="Layer 1" inkscape:groupmode="layer">
    <g style="display:inline" inkscape:label="Layer 1" id="g5160" transform="translate(0,-3.8293454e-6)">
      <g id="g3701">
        <g id="g3711">
          <path id="path5164" d="M 7.8125,1 C 7.128655,1.0666513 6.5268827,1.4796322 6.21875,2.09375 L 5.75,3 5,3 C 4.471191,3.004238 3.9655795,3.2177184 3.59375,3.59375 l -2,2 C 1.2177184,5.9655795 1.004238,6.471191 1,7 l 0,6.53125 -0.78125,1.5625 C 0.07546917,15.374386 5.1676813e-4,15.684903 0,16 l 0,3 c 5.1676813e-4,0.315097 0.07546917,0.625614 0.21875,0.90625 L 1,21.46875 l 0,1.0625 -0.78125,1.5625 C 0.07546917,24.374386 5.1676813e-4,24.684903 0,25 l 0,1 c 0.004238,0.528809 0.21771839,1.03442 0.59375,1.40625 L 1,27.8125 1,28 c 1.104e-4,1.104524 0.8954762,1.99989 2,2 l 2,0 1,0 c 0.062466,0.0029 0.1250344,0.0029 0.1875,0 l 0.40625,0.40625 C 6.9655795,30.782282 7.471191,30.995762 8,31 l 2,0 1,0 c 0.352286,-0.004 0.697253,-0.101068 1,-0.28125 0.302747,0.180182 0.647714,0.277204 1,0.28125 l 2,0 1.1875,0 0.40625,0.40625 C 16.96558,31.782282 17.471191,31.995762 18,32 l 3,0 c 0.168635,3.27e-4 0.336634,-0.02067 0.5,-0.0625 0.163366,0.04183 0.331365,0.06283 0.5,0.0625 l 2,0 c 0.528809,-0.0042 1.03442,-0.217718 1.40625,-0.59375 L 25.8125,31 28,31 c 0.961528,0.0019 1.788387,-0.680537 1.96875,-1.625 C 30.557807,28.913447 31,28.288827 31,27.5 c 0,-0.05768 -0.02723,-0.100149 -0.03125,-0.15625 -7.65e-4,-0.01069 9.05e-4,-0.02062 0,-0.03125 0.02218,-0.12374 0.03264,-0.249296 0.03125,-0.375 l 0,-1 c -0.004,-0.51355 -0.205432,-1.005876 -0.5625,-1.375 l 0.34375,-0.71875 C 30.924531,23.563114 30.999483,23.252597 31,22.9375 L 31,22 l 0,-1 0,-0.0625 c -0.004,-0.51355 -0.205432,-1.005876 -0.5625,-1.375 l 0.34375,-0.71875 C 30.924531,18.563114 30.999483,18.252597 31,17.9375 l 0,-1 c -0.0042,-0.528809 -0.217718,-1.03442 -0.59375,-1.40625 l -1,-1 C 29.277143,14.396844 29.129886,14.281142 28.96875,14.1875 L 28.75,14.0625 30.40625,12.40625 C 30.782282,12.03442 30.995762,11.528809 31,11 L 31,9 C 30.997466,8.516444 30.81984,8.0501774 30.5,7.6875 L 30.40625,7.59375 30.375,7.5625 29.15625,6.125 29.09375,6.03125 29.0625,5.96875 C 29.032295,5.9364726 29.001027,5.9052054 28.96875,5.875 28.882436,5.7267424 28.777407,5.5902051 28.65625,5.46875 l -2.34375,-2 C 25.945344,3.1602038 25.479548,2.9938482 25,3 l -1.46875,0 -0.0625,0 -1.5625,-0.78125 C 21.81585,2.169922 21.721821,2.128131 21.625,2.09375 l -3,-1 C 18.422951,1.0295765 18.211985,0.99793161 18,1 l -4,0 c -0.315097,5.168e-4 -0.625614,0.075469 -0.90625,0.21875 L 12.375,1.5625 C 12.005876,1.2054323 11.51355,1.0040264 11,1 L 8,1 C 7.937534,0.997069 7.8749656,0.997069 7.8125,1 Z m 1.4375,4 0.9375,0 0.40625,0.40625 c 0.609333,0.6105618 1.541446,0.7617154 2.3125,0.375 L 14.46875,5 l 3.1875,0 2.625,0.875 L 20.375,5.90625 22.03125,6.75 c 0.233191,0.1215057 0.488052,0.19584 0.75,0.21875 L 23.21875,7 c 0.05206,0.00204 0.104187,0.00204 0.15625,0 l 0.875,0 1.59375,1.34375 0.03125,0.0625 c 0.0103,0.010531 0.02072,0.020949 0.03125,0.03125 L 27,9.71875 27,10.1875 26.1875,11 25,11 c -0.736511,-0.0047 -1.416008,0.395767 -1.768695,1.042359 -0.352687,0.646593 -0.321494,1.434696 0.0812,2.051391 l 1.28125,2 c 0.181897,0.274592 0.428789,0.500015 0.71875,0.65625 l 1.5,0.8125 0.09375,0.0625 0,0.03125 -0.65625,1.3125 c -0.143281,0.280636 -0.218233,0.591153 -0.21875,0.90625 l 0,0.09375 c 0.0042,0.528809 0.217718,1.03442 0.59375,1.40625 L 27,21.75 27,22 l 0,0.46875 -0.78125,1.5625 c -0.386715,0.771054 -0.235562,1.703167 0.375,2.3125 l 0.09375,0.09375 -0.15625,0.15625 C 26.410093,26.715205 26.305064,26.851742 26.21875,27 L 25,27 c -0.528809,0.0042 -1.03442,0.217718 -1.40625,0.59375 L 23.1875,28 22.65625,28 C 22.507058,27.928744 22.349607,27.87626 22.1875,27.84375 L 21.375,27.6875 C 20.853341,27.58844 20.313701,27.70087 19.875,28 l -1.0625,0 -0.40625,-0.40625 C 18.03442,27.217718 17.528809,27.004238 17,27 l -2,0 -1.1875,0 -0.40625,-0.40625 c -0.779237,-0.770382 -2.033263,-0.770382 -2.8125,0 L 10.1875,27 10,27 8.8125,27 8.53125,26.71875 l -0.625,-0.625 C 7.1640314,25.35617 5.9787628,25.315298 5.1875,26 L 5,26 4.71875,26 C 4.632436,25.851742 4.5274072,25.715205 4.40625,25.59375 l -0.3125,-0.3125 0.6875,-1.375 C 4.9245308,23.625614 4.9994832,23.315097 5,23 L 5,21 C 4.9994832,20.684903 4.9245308,20.374386 4.78125,20.09375 L 4,18.53125 4,16.46875 4.78125,14.90625 C 4.9245308,14.625614 4.9994832,14.315097 5,14 L 5,7.8125 5.8125,7 7,7 C 7.752172,6.9993355 8.4403811,6.5767509 8.78125,5.90625 L 9.25,5 Z" style="opacity:1;fill:white;fill-opacity:1;fill-rule:nonzero;stroke:none;stroke-width:4;stroke-linecap:round;stroke-linejoin:round;stroke-miterlimit:4;stroke-dasharray:none;stroke-dashoffset:0;stroke-opacity:1" inkscape:connector-curvature="0" />
          <path id="path3694" d="m 7.9047737,2.0011007 c -0.3510227,0.031251 -0.6596887,0.2449432 -0.8125,0.5625 l -0.71875,1.4374999 -1.375,0 c -0.2675647,-0.0062 -0.5264505,0.095104 -0.71875,0.28125 l -2,2.0000001 C 2.093628,6.4746502 1.9923249,6.733536 1.9985237,7.0011007 l 0,6.7500003 -0.9062497,1.8125 c -0.06389,0.136882 -0.095942,0.286458 -0.09375,0.4375 l 0,3 c -0.002192,0.151042 0.02986,0.300618 0.09375,0.4375 l 0.9062497,1.8125 0,1.5 -0.9062497,1.8125 c -0.06389,0.136882 -0.095942,0.286458 -0.09375,0.4375 l 0,1 c -0.006199,0.267565 0.095104,0.526451 0.28125,0.71875 l 0.7187497,0.71875 0,0.5625 c 5.52e-5,0.552262 0.4477381,0.999945 1,1 l 2,0 1,0 c 0.1535005,-0.0075 0.303208,-0.05027 0.4375,-0.125 l 0.03125,0 0.8125,0.84375 c 0.1922995,0.186146 0.4511853,0.287449 0.71875,0.28125 l 2,0 1.0000003,0 c 0.267565,0.0062 0.526451,-0.0951 0.71875,-0.28125 l 0.28125,-0.28125 0.28125,0.28125 c 0.192299,0.186146 0.451185,0.287449 0.71875,0.28125 l 2,0 1.5625,0 0.71875,0.71875 c 0.192299,0.186146 0.451185,0.287449 0.71875,0.28125 l 3,0 c 0.164141,-0.0026 0.325127,-0.04549 0.46875,-0.125 0.01042,1.63e-4 0.02083,1.63e-4 0.03125,0 0.152884,0.08463 0.325275,0.127731 0.5,0.125 l 2,0 c 0.267565,0.0062 0.526451,-0.0951 0.71875,-0.28125 l 0.71875,-0.71875 2.5625,0 c 0.552262,-5.5e-5 0.999945,-0.447738 1,-1 l 0,-0.21875 c 0.550911,-0.223706 1,-0.658179 1,-1.28125 0,-0.06708 -0.05361,-0.09275 -0.0625,-0.15625 0.04874,-0.129629 0.07002,-0.267967 0.0625,-0.40625 l 0,-1 c 0.0062,-0.267565 -0.0951,-0.526451 -0.28125,-0.71875 l -0.5,-0.5 0.6875,-1.34375 c 0.06389,-0.136882 0.09594,-0.286458 0.09375,-0.4375 l 0,-0.9375 0,-1 0,-0.0625 c 0.0062,-0.267565 -0.0951,-0.526451 -0.28125,-0.71875 l -0.5,-0.5 0.6875,-1.34375 c 0.06389,-0.136882 0.09594,-0.286458 0.09375,-0.4375 l 0,-1 c 0.0062,-0.267565 -0.0951,-0.526451 -0.28125,-0.71875 l -1,-1 c -0.07516,-0.06415 -0.159405,-0.116803 -0.25,-0.15625 l -1.46875,-0.8125 -0.1875,-0.25 0.1875,0 c 0.267565,0.0062 0.526451,-0.0951 0.71875,-0.28125 l 2,-2 c 0.186146,-0.192299 0.287449,-0.451185 0.28125,-0.71875 l 0,-2.0000003 c -0.002,-0.2567751 -0.102716,-0.5029379 -0.28125,-0.6875 l 0,-0.03125 -0.03125,-0.03125 -1.5,-1.75 c -0.04901,-0.092644 -0.112286,-0.1770065 -0.1875,-0.25 l -2.34375,-2.0000001 c -0.181339,-0.1599202 -0.414472,-0.2487329 -0.65625,-0.25 l -1.5625,0 -0.0625,0 -0.15625,0 -1.78125,-0.9062499 c -0.04095,-0.013093 -0.08271,-0.023531 -0.125,-0.03125 l -3,-1 c -0.100156,-0.037403 -0.205662,-0.058504 -0.3125,-0.0625 l -4,0 c -0.151042,-0.00219 -0.300618,0.02986 -0.4375,0.09375 l -1.34375,0.6875 -0.5,-0.5 C 11.524975,2.096205 11.266089,1.9949019 10.998524,2.0011007 l -3.0000003,0 c -0.031233,-0.00147 -0.062517,-0.00147 -0.09375,0 z m 0.71875,1.9999999 1.9375003,0 0.71875,0.71875 c 0.304666,0.3052809 0.770723,0.3808577 1.15625,0.1875 l 1.8125,-0.90625 3.625,0 2.6875,0.90625 1.9375,0.9687501 c 0.117714,0.055339 0.245093,0.087184 0.375,0.09375 l 0.4375,0.03125 c 0.02083,6.511e-4 0.04167,6.511e-4 0.0625,0 l 1.25,0 1.96875,1.65625 0,0.03125 c 0.02794,0.044048 0.05929,0.085842 0.09375,0.125 l 1.3125,1.5625 0,1.1875003 -1.4375,1.4375 -1.5625,0 c -0.36314,0.0013 -0.69703,0.199386 -0.872284,0.51744 -0.175255,0.318055 -0.164332,0.706117 0.02853,1.01381 l 1.28125,2 c 0.09328,0.144991 0.22246,0.263405 0.375,0.34375 l 1.46875,0.78125 0.03125,0.03125 0.6875,0.6875 0,0.3125 -0.875,1.75 c -0.06389,0.136882 -0.09594,0.286458 -0.09375,0.4375 l 0,0.09375 c -0.0062,0.267565 0.0951,0.526451 0.28125,0.71875 l 0.6875,0.6875 0,0.625 0,0.6875 -0.90625,1.8125 c -0.193358,0.385527 -0.117781,0.851584 0.1875,1.15625 l 0.71875,0.71875 0,0.15625 c -0.07002,0.09419 -0.122906,0.199972 -0.15625,0.3125 -1.63e-4,0.01042 -1.63e-4,0.02083 0,0.03125 -0.161692,0.03558 -0.312021,0.110745 -0.4375,0.21875 l -0.1875,0.1875 c -0.186146,0.192299 -0.287449,0.451185 -0.28125,0.71875 l -1.9375,0 c -0.267565,-0.0062 -0.526451,0.0951 -0.71875,0.28125 l -0.71875,0.71875 -1.15625,0 c -0.122303,-0.08128 -0.261004,-0.134624 -0.40625,-0.15625 l -0.8125,-0.15625 c -0.345732,-0.06828 -0.701885,0.05043 -0.9375,0.3125 l -1.8125,0 -0.71875,-0.71875 c -0.192299,-0.186146 -0.451185,-0.287449 -0.71875,-0.28125 l -2,0 -1.5625,0 -0.71875,-0.71875 c -0.188415,-0.194738 -0.447784,-0.304688 -0.71875,-0.304688 -0.270966,0 -0.530335,0.10995 -0.71875,0.304688 l -0.71875,0.71875 -0.5625003,0 -1.5625,0 -0.59375,-0.59375 -0.625,-0.625 c -0.1884145,-0.194738 -0.4477836,-0.304688 -0.71875,-0.304688 -0.2709664,0 -0.5303355,0.10995 -0.71875,0.304688 l -0.21875,0.21875 -0.5625,0 -1,0 c 0.0062,-0.267565 -0.095104,-0.526451 -0.28125,-0.71875 l -0.71875,-0.71875 0,-0.3125 0.90625,-1.8125 c 0.06389,-0.136882 0.095942,-0.286458 0.09375,-0.4375 l 0,-2 c 0.00219,-0.151042 -0.02986,-0.300618 -0.09375,-0.4375 l -0.90625,-1.8125 0,-2.5 0.90625,-1.8125 c 0.06389,-0.136882 0.095942,-0.286458 0.09375,-0.4375 l 0,-6.5625003 1.4375,-1.4375 1.5625,0 c 0.3852042,0.00268 0.7377067,-0.2161149 0.90625,-0.5625001 l 0.71875,-1.4375 z" style="opacity:1;fill:red;fill-opacity:1;fill-rule:nonzero;stroke:none;stroke-width:2;stroke-linecap:round;stroke-linejoin:round;stroke-miterlimit:4;stroke-dasharray:none;stroke-dashoffset:0;stroke-opacity:1" inkscape:connector-curvature="0" />
        </g>
      </g>
    </g>
  </g>
</svg>
