<?xml version="1.0" encoding="UTF-8" standalone="no"?>
<!-- Created with Inkscape (http://www.inkscape.org/) -->

<svg
   xmlns:dc="http://purl.org/dc/elements/1.1/"
   xmlns:cc="http://creativecommons.org/ns#"
   xmlns:rdf="http://www.w3.org/1999/02/22-rdf-syntax-ns#"
   xmlns:svg="http://www.w3.org/2000/svg"
   xmlns="http://www.w3.org/2000/svg"
   xmlns:xlink="http://www.w3.org/1999/xlink"
   xmlns:sodipodi="http://sodipodi.sourceforge.net/DTD/sodipodi-0.dtd"
   xmlns:inkscape="http://www.inkscape.org/namespaces/inkscape"
   width="32px"
   height="32px"
   id="svg3505"
   sodipodi:version="0.32"
   inkscape:version="0.48.5 r10040"
   sodipodi:docname="00.svg"
   inkscape:output_extension="org.inkscape.output.svg.inkscape"
   version="1.1">
  <defs
     id="defs3507">
    <inkscape:perspective
       sodipodi:type="inkscape:persp3d"
       inkscape:vp_x="0 : 16 : 1"
       inkscape:vp_y="0 : 1000 : 0"
       inkscape:vp_z="32 : 16 : 1"
       inkscape:persp3d-origin="16 : 10.666667 : 1"
       id="perspective3513" />
    <inkscape:perspective
       id="perspective4690"
       inkscape:persp3d-origin="372.04724 : 350.78739 : 1"
       inkscape:vp_z="744.09448 : 526.18109 : 1"
       inkscape:vp_y="0 : 1000 : 0"
       inkscape:vp_x="0 : 526.18109 : 1"
       sodipodi:type="inkscape:persp3d" />
    <inkscape:perspective
       id="perspective2564"
       inkscape:persp3d-origin="372.04724 : 350.78739 : 1"
       inkscape:vp_z="744.09448 : 526.18109 : 1"
       inkscape:vp_y="0 : 1000 : 0"
       inkscape:vp_x="0 : 526.18109 : 1"
       sodipodi:type="inkscape:persp3d" />
    <linearGradient
       inkscape:collect="always"
       xlink:href="#linearGradient8649"
       id="linearGradient8795"
       gradientUnits="userSpaceOnUse"
       x1="19"
       y1="13"
       x2="13"
       y2="19" />
    <linearGradient
       id="linearGradient8649">
      <stop
         style="stop-color:black;stop-opacity:0.50196081;"
         offset="0"
         id="stop8651" />
      <stop
         style="stop-color:white;stop-opacity:0.50196081;"
         offset="1"
         id="stop8653" />
    </linearGradient>
    <linearGradient
       inkscape:collect="always"
       xlink:href="#linearGradient8649"
       id="linearGradient8972"
       gradientUnits="userSpaceOnUse"
       x1="19"
       y1="13"
       x2="13"
       y2="19" />
    <linearGradient
       id="linearGradient8974">
      <stop
         style="stop-color:black;stop-opacity:0.50196081;"
         offset="0"
         id="stop8976" />
      <stop
         style="stop-color:white;stop-opacity:0.50196081;"
         offset="1"
         id="stop8978" />
    </linearGradient>
    <linearGradient
       inkscape:collect="always"
       xlink:href="#linearGradient8649"
       id="linearGradient8980"
       gradientUnits="userSpaceOnUse"
       x1="19"
       y1="13"
       x2="13"
       y2="19" />
    <linearGradient
       id="linearGradient8982">
      <stop
         style="stop-color:black;stop-opacity:0.50196081;"
         offset="0"
         id="stop8984" />
      <stop
         style="stop-color:white;stop-opacity:0.50196081;"
         offset="1"
         id="stop8986" />
    </linearGradient>
    <linearGradient
       inkscape:collect="always"
       xlink:href="#linearGradient8649"
       id="linearGradient8988"
       gradientUnits="userSpaceOnUse"
       x1="19"
       y1="13"
       x2="13"
       y2="19" />
    <linearGradient
       id="linearGradient8990">
      <stop
         style="stop-color:black;stop-opacity:0.50196081;"
         offset="0"
         id="stop8992" />
      <stop
         style="stop-color:white;stop-opacity:0.50196081;"
         offset="1"
         id="stop8994" />
    </linearGradient>
    <linearGradient
       inkscape:collect="always"
       xlink:href="#linearGradient8649"
       id="linearGradient9088"
       gradientUnits="userSpaceOnUse"
       x1="19"
       y1="13"
       x2="13"
       y2="19" />
  </defs>
  <sodipodi:namedview
     id="base"
     pagecolor="#ffffff"
     bordercolor="#666666"
     borderopacity="1.0"
     inkscape:pageopacity="0.0"
     inkscape:pageshadow="2"
     inkscape:zoom="16.5"
     inkscape:cx="14.939394"
     inkscape:cy="16"
     inkscape:current-layer="layer1"
     showgrid="true"
     inkscape:grid-bbox="true"
     inkscape:document-units="px"
     objecttolerance="4"
     gridtolerance="4"
     guidetolerance="4"
     inkscape:window-width="1024"
     inkscape:window-height="741"
     inkscape:window-x="0"
     inkscape:window-y="2"
     inkscape:object-paths="true"
     inkscape:object-nodes="true"
     inkscape:snap-bbox="true"
     inkscape:snap-guide="true"
     showguides="true"
     inkscape:guide-bbox="true"
     inkscape:window-maximized="1">
    <inkscape:grid
       type="xygrid"
       id="grid3515"
       units="px"
       visible="true"
       enabled="true"
       spacingx="1px"
       spacingy="1px" />
    <sodipodi:guide
       orientation="-0.70710678,0.70710678"
       position="33.245902,33.245902"
       id="guide3622" />
    <sodipodi:guide
       orientation="0.70710678,0.70710678"
       position="0,32"
       id="guide3624" />
  </sodipodi:namedview>
  <metadata
     id="metadata3510">
    <rdf:RDF>
      <cc:Work
         rdf:about="">
        <dc:format>image/svg+xml</dc:format>
        <dc:type
           rdf:resource="http://purl.org/dc/dcmitype/StillImage" />
        <dc:title>Vorlage f端r 32x32-Pixel-Icons f端r McMinos</dc:title>
        <dc:date>2010-04-05</dc:date>
        <dc:creator>
          <cc:Agent>
            <dc:title>Andreas Neudecker &lt;zapyon@gmx.net&gt;</dc:title>
          </cc:Agent>
        </dc:creator>
        <dc:rights>
          <cc:Agent>
            <dc:title>Copyright (C) 2010 by Andreas Neudecker</dc:title>
          </cc:Agent>
        </dc:rights>
        <dc:publisher>
          <cc:Agent>
            <dc:title>Andreas Neudecker</dc:title>
          </cc:Agent>
        </dc:publisher>
        <dc:identifier>vorlage-32x32-mcminos</dc:identifier>
        <dc:description>Vorlage f端r 32x32-Pixel-Icons f端r McMinos. Metadaten jeweils entsprechend anpassen!</dc:description>
      </cc:Work>
    </rdf:RDF>
  </metadata>
  <g
     id="layer1"
     inkscape:label="Layer 1"
     inkscape:groupmode="layer">
    <g
       id="g9154">
      <rect
         y="0"
         x="0"
         height="32"
         width="32"
         id="rect9152"
         style="fill:none;fill-opacity:0.50196078000000000;stroke:none" />
      <rect
         style="fill:black;fill-opacity:1;stroke:none"
         id="rect5175"
         width="30"
         height="30"
         x="1"
         y="1" />
      <path
         sodipodi:nodetypes="ccccccccc"
         id="path7053"
         d="m 32,29 -3,0 0,3 -26,0 0,-3 -3,0 0,-26 32,0 0,26 z"
         style="fill:black;fill-opacity:1;fill-rule:nonzero;stroke:none"
         inkscape:connector-curvature="0" />
      <path
         sodipodi:nodetypes="ccccc"
         id="path2570"
         d="m 16,16 0,16 12,0 0,-4 -12,-12 z"
         style="fill:#00ffff;fill-opacity:1;fill-rule:nonzero;stroke:none"
         inkscape:connector-curvature="0" />
      <path
         sodipodi:nodetypes="ccccccc"
         style="fill:blue;fill-opacity:1;fill-rule:nonzero;stroke:none"
         d="m 0,16 0,12 4,0 0,4 12,0 0,-16 -16,0 z"
         id="path3342"
         inkscape:connector-curvature="0" />
      <path
         sodipodi:nodetypes="ccccccccccccccccccccccccc"
         id="path3626"
         d="m 18,32 -0.03125,-14 1,1 L 19,32 18,32 z m 2,0 -0.03125,-12 1,1 L 21,32 20,32 z m 2,0 0,-10 1,1 0,9 -1,0 z m 1.96875,0 0,-8 1,1 L 25,32 23.96875,32 z M 26,32 l -0.03125,-6 1,1 L 27,32 26,32 z"
         style="fill:#c3c3c3;fill-opacity:1;fill-rule:nonzero;stroke:none"
         inkscape:connector-curvature="0" />
      <path
         sodipodi:nodetypes="ccccccccccccccccccccccccccccccccccc"
         id="path3368"
         d="M 0,18 14,17.96875 14,32 13,32 13,18.96875 0,19 0,18 z M 0,20 12,19.96875 12,32 11,32 11,20.96875 0,21 0,20 z m 0,2 10,0 0,10 -1,0 0,-9 -9,0 0,-1 z M 0,24 8,23.96875 8,32 7,32 7,24.96875 0,25 0,24 z M 0,26 6,25.96875 6,32 5,32 5,26.96875 0,27 0,26 z"
         style="fill:#6b6b6b;fill-opacity:1;fill-rule:nonzero;stroke:none"
         inkscape:connector-curvature="0" />
      <path
         sodipodi:nodetypes="ccccc"
         id="path7041"
         d="M 0,4 0,16 32,16 32,4 0,4 z"
         style="fill:#00ffff;fill-opacity:1;fill-rule:nonzero;stroke:none"
         inkscape:connector-curvature="0" />
      <path
         sodipodi:nodetypes="ccccc"
         style="fill:blue;fill-opacity:1;fill-rule:nonzero;stroke:none"
         d="m 32,16 0,12 -4,0 -12,-12 16,0 z"
         id="path7045"
         inkscape:connector-curvature="0" />
      <path
         sodipodi:nodetypes="ccccccccc"
         id="rect3926"
         d="m 32,17 -15,0 0,15 -2,0 0,-15 -15,0 0,-2 32,0 0,2 z"
         style="fill:#0080ff;fill-opacity:1;fill-rule:nonzero;stroke:none"
         inkscape:connector-curvature="0" />
      <path
         sodipodi:nodetypes="ccccccccccccccccccccccccc"
         id="path7028"
         d="m 32,14 -32,0 0,-1 32,0 0,1 z m 0,-2 -32,0 0,-1 32,0 0,1 z m 0,-2 -32,0 0,-1 32,0 0,1 z M 32,8 0,8 0,7 32,7 32,8 z M 32,6 0,6 0,5 32,5 32,6 z"
         style="fill:#c3c3c3;fill-opacity:1;fill-rule:nonzero;stroke:none"
         inkscape:connector-curvature="0" />
      <path
         style="fill:#6b6b6b;fill-opacity:1;fill-rule:nonzero;stroke:none"
         d="m 32,18 -14,-0.03125 1,1 L 32,19 32,18 z m 0,2 -12,-0.03125 1,1 L 32,21 32,20 z m 0,2 -10,0 1,1 9,0 0,-1 z m 0,2 -8,-0.03125 1,1 L 32,25 32,24 z m 0,2 -6,-0.03125 1,1 L 32,27 32,26 z"
         id="path7034"
         sodipodi:nodetypes="ccccccccccccccccccccccccc"
         inkscape:connector-curvature="0" />
      <rect
         transform="matrix(0,1,-1,0,0,0)"
         style="fill:#ccc;fill-opacity:1;stroke:none"
         id="rect5112"
         width="28"
         height="28"
         x="2"
         y="-30" />
      <path
         id="rect3917"
         d="M 30,12 2,12 2,2 30,2 z"
         style="fill:white;fill-opacity:0.50196081;stroke:none"
         inkscape:connector-curvature="0" />
      <path
         style="fill:black;fill-opacity:0.50196081000000004;stroke:none"
         d="M 2 20 L 2 30 L 12 30 L 12 20 L 2 20 z "
         id="path11728" />
      <path
         style="fill:white;fill-opacity:0.50196078;stroke:none"
         d="M 20,30 30,30 20,20 z"
         id="path12238"
         inkscape:connector-curvature="0" />
      <path
         transform="matrix(1.0031299,0,0,1.0031299,-0.0500784,-0.0500784)"
         d="m 19.98752,16 a 3.9875195,3.9875195 0 1 1 -7.97504,0 3.9875195,3.9875195 0 1 1 7.97504,0 z"
         sodipodi:ry="3.9875195"
         sodipodi:rx="3.9875195"
         sodipodi:cy="16"
         sodipodi:cx="16"
         id="path8647"
         style="fill:url(#linearGradient9088);fill-opacity:1;stroke:none"
         sodipodi:type="arc" />
      <g
         transform="matrix(0.49881729,-0.86570847,0.86484268,0.50031689,-1.8280212,14.920598)"
         id="g4361">
        <path
           transform="matrix(1.0606602,-1.0606602,1.0606602,1.0606602,-13.213204,16)"
           d="m 12,10 c 0,1.104569 -0.895431,2 -2,2 -1.1045695,0 -2,-0.895431 -2,-2 0,-1.1045695 0.8954305,-2 2,-2 1.104569,0 2,0.8954305 2,2 z"
           sodipodi:ry="2"
           sodipodi:rx="2"
           sodipodi:cy="10"
           sodipodi:cx="10"
           id="path4371"
           style="fill:#a0a0a0;fill-opacity:1;stroke:none"
           sodipodi:type="arc" />
        <path
           transform="matrix(1.0606602,-1.0606602,1.0606602,1.0606602,-13.213204,16)"
           d="M 10,12 C 8.8954306,12 8,11.10457 8,10 8,8.8954306 8.8954304,8 9.9999999,8 10,8 10,8 10,8"
           sodipodi:ry="2"
           sodipodi:rx="2"
           sodipodi:cy="10"
           sodipodi:cx="10"
           id="path4369"
           style="fill:#6b6b6b;fill-opacity:1;stroke:none"
           sodipodi:type="arc"
           sodipodi:start="1.5707963"
           sodipodi:end="4.712389"
           sodipodi:open="true" />
        <path
           inkscape:connector-curvature="0"
           id="path3783"
           d="m 6.2812499,13.5625 c -0.139926,0.09889 -0.2854232,0.191673 -0.40625,0.3125 L 10.125,18.125 c 0.120827,-0.120826 0.213609,-0.266324 0.3125,-0.40625 L 6.2812499,13.5625 z"
           style="fill:#6b6b6b;fill-opacity:1;stroke:none" />
        <path
           inkscape:connector-curvature="0"
           id="path3010"
           d="m 5.8749999,13.875 c -0.1208269,0.120827 -0.213609,0.266324 -0.3125,0.40625 L 9.71875,18.4375 C 9.858676,18.33861 10.004173,18.245827 10.125,18.125 l -4.2500001,-4.25 z"
           style="fill:#c3c3c3;fill-opacity:1;stroke:none" />
      </g>
      <use
         transform="translate(-9,0)"
         height="32"
         width="32"
         id="use12263"
         xlink:href="#path8647"
         y="0"
         x="0" />
      <use
         height="32"
         width="32"
         transform="translate(9.0000002,-3.9931088e-8)"
         id="use12265"
         xlink:href="#path8647"
         y="0"
         x="0" />
      <use
         height="32"
         width="32"
         transform="translate(0,9)"
         id="use12267"
         xlink:href="#path8647"
         y="0"
         x="0" />
      <use
         height="32"
         width="32"
         transform="matrix(0.86700716,0.50013255,-0.50056682,0.86625498,1.1369546,-5.8622004)"
         id="use12269"
         xlink:href="#g4361"
         y="0"
         x="0" />
      <use
         height="32"
         width="32"
         transform="matrix(0.96724848,0.25878489,-0.25917346,0.96579835,13.670799,-3.5933319)"
         id="use12271"
         xlink:href="#g4361"
         y="0"
         x="0" />
      <use
         height="32"
         width="32"
         transform="translate(0,9)"
         id="use12273"
         xlink:href="#g4361"
         y="0"
         x="0" />
      <rect
         y="4"
         x="1"
         height="24"
         width="1"
         id="rect9114"
         style="fill:black;fill-opacity:0.50196081000000004;stroke:none" />
      <rect
         y="30"
         x="4"
         height="1"
         width="24"
         id="rect9116"
         style="fill:black;fill-opacity:0.50196081000000004;stroke:none" />
      <path
         style="fill:black;fill-opacity:0.50196081000000004;stroke:none"
         d="M 30,20 20,20 30,30 z"
         id="path33438"
         inkscape:connector-curvature="0" />
    </g>
  </g>
</svg>
