<?xml version="1.0" encoding="UTF-8" standalone="no"?>
<!-- Created with Inkscape (http://www.inkscape.org/) -->

<svg
   xmlns:dc="http://purl.org/dc/elements/1.1/"
   xmlns:cc="http://creativecommons.org/ns#"
   xmlns:rdf="http://www.w3.org/1999/02/22-rdf-syntax-ns#"
   xmlns:svg="http://www.w3.org/2000/svg"
   xmlns="http://www.w3.org/2000/svg"
   xmlns:sodipodi="http://sodipodi.sourceforge.net/DTD/sodipodi-0.dtd"
   xmlns:inkscape="http://www.inkscape.org/namespaces/inkscape"
   width="32"
   height="32"
   id="svg4150"
   version="1.1"
   inkscape:version="0.48.5 r10040"
   viewBox="0 0 32 32"
   sodipodi:docname="amoeboid-mini-00.svg"
   inkscape:export-filename="/home/andreas/Dokumente/Projekte/McMinos/repository/extra/images-incoming/level-frame-backgrounds/amoeboid-mini-00.png"
   inkscape:export-xdpi="180"
   inkscape:export-ydpi="180">
  <defs
     id="defs4152" />
  <sodipodi:namedview
     id="base"
     pagecolor="#ffffff"
     bordercolor="#666666"
     borderopacity="1.0"
     inkscape:pageopacity="0.0"
     inkscape:pageshadow="2"
     inkscape:zoom="11.578874"
     inkscape:cx="16"
     inkscape:cy="15.700635"
     inkscape:current-layer="layer1"
     showgrid="true"
     inkscape:grid-bbox="true"
     inkscape:document-units="px"
     objecttolerance="10000"
     inkscape:snap-perpendicular="true"
     guidetolerance="10000"
     inkscape:window-width="1024"
     inkscape:window-height="741"
     inkscape:window-x="0"
     inkscape:window-y="2"
     inkscape:window-maximized="1"
     showguides="false"
     inkscape:guide-bbox="true">
    <inkscape:grid
       type="xygrid"
       id="grid4698"
       empspacing="4" />
    <sodipodi:guide
       position="16,32"
       orientation="1,0"
       id="guide4769" />
    <sodipodi:guide
       position="-4,16"
       orientation="0,1"
       id="guide4771" />
    <sodipodi:guide
       position="16,16"
       orientation="-0.70710678,0.70710678"
       id="guide4773" />
    <sodipodi:guide
       position="16,16"
       orientation="0.70710678,0.70710678"
       id="guide4775" />
  </sodipodi:namedview>
  <metadata
     id="metadata4155">
    <rdf:RDF>
      <cc:Work
         rdf:about="">
        <dc:format>image/svg+xml</dc:format>
        <dc:type
           rdf:resource="http://purl.org/dc/dcmitype/StillImage" />
        <dc:title></dc:title>
      </cc:Work>
    </rdf:RDF>
  </metadata>
  <g
     id="layer1"
     inkscape:label="Layer 1"
     inkscape:groupmode="layer">
    <rect
       style="fill:#212178;fill-opacity:1;stroke:none"
       id="rect3771"
       width="32"
       height="32"
       x="0"
       y="0" />
    <path
       style="fill:#00002b;fill-opacity:0.37617555000000003;stroke:none"
       d="m -1,-2 c -1.6666667,0 -3.4660438,0.7381252 -4,3 -0.5339562,2.2618748 3.2278373,6.135834 4,8 0.7721627,1.864166 2.373966,1.950571 1,3 -1.3739658,1.049429 -3.87928,-4.476878 -6,-4 -2.12072,0.476878 -3.4801027,3.3513 -3,5 0.4801027,1.6487 2.798951,2.194903 4,2 1.201049,-0.194903 0.7354507,-1.617125 2,-2 1.2645493,-0.382875 4.057191,-0.414214 5,1 0.942809,1.414214 0.340329,4.444817 -1,5 -1.3403291,0.555183 -1.5863309,-2.242151 -3,-2 -1.4136691,0.242151 -3.508733,2.567113 -3,4 0.508733,1.432887 3.0371015,1.442871 4,1 0.9628985,-0.442871 0.3994755,-1.902548 1,-2 0.6005245,-0.09745 0.8428519,0.03161 1,1 0.157148,0.96839 -2.3627085,2.463542 -2,4 0.3627085,1.536458 2.463435,3.1092 4,3 1.536565,-0.1092 2.8908,-1.463435 3,-3 0.1092,-1.536565 -3.277085,-2.826251 -3,-4 0.277085,-1.173749 1.102539,-0.936219 2,-1 0.897461,-0.06378 2.302024,0.03161 3,1 0.697976,0.96839 -0.961446,2.827224 0,4 0.961446,1.172776 3.585786,1.942809 5,1 1.414214,-0.942809 2.067111,-3.698334 1,-5 -1.067111,-1.301666 -4.175042,0.824958 -5,0 -0.824958,-0.824958 -0.440837,-1.176288 0,-2 0.440837,-0.823712 1.698334,-2.12889 3,-2 1.301666,0.12889 1.350084,3 3,3 1.649916,0 4,-2.114382 4,-4 0,-1.885618 -2.228326,-4.125909 -4,-4 -1.771674,0.125909 -1.698545,3.907508 -3,4 -1.301455,0.09249 -1.864793,-1.166817 -2,-2 -0.135207,-0.833183 0.173263,-1.336815 1,-2 0.826737,-0.663185 3.064255,0.19848 4,-1 C 15.935745,9.80152 16.06066,7.06066 15,6 13.93934,4.9393398 12.172776,5.0385538 11,6 9.827224,6.9614462 10.915,10.249883 10,11 9.085005,11.750117 8.600569,11.371172 8,11 7.399431,10.628828 6.902163,10.571486 7,9 7.09784,7.428514 11.188104,4.8996669 11,3 10.811896,1.1003331 9.433708,0.2326587 8,0 6.566292,-0.2326587 4.688619,0.3375263 4,2 3.311381,3.6624737 6.688619,6.3375263 6,8 5.311381,9.662474 3.201049,10.194903 2,10 0.798951,9.805097 0.3291795,9.709292 0,8 -0.3291795,6.2907085 3.542986,3.0313084 3,1 2.457014,-1.0313084 0.6666667,-2 -1,-2 z M 5.09375,11.8125 C 5.957462,11.866702 8.214349,11.686774 9,13 9.785651,14.313226 9.06067,16.887615 8,18 6.939325,19.112385 4.935745,19.730608 4,19 3.064255,18.269392 4.164515,17.013784 4,16 3.835485,14.986216 2.824756,13.742344 3,13 3.175244,12.257656 3.626415,12.193348 4,12 4.373585,11.806652 4.230038,11.758298 5.09375,11.8125 z"
       id="path3779"
       inkscape:connector-curvature="0"
       sodipodi:nodetypes="zzzzzzzzzzzzzzzzzzzzzzzzzzzzzzzzzzzzzzzzzzzzzzzzzzzzzzz" />
    <path
       sodipodi:nodetypes="zzzzzzzzzzzzzzzzzzzzzzzzzzzzzzzzzzzzzzzzzzzzzzzzzzzzzzz"
       inkscape:connector-curvature="0"
       id="path3788"
       d="m 31,-2 c -1.666667,0 -3.466044,0.7381252 -4,3 -0.533956,2.2618748 3.227837,6.135834 4,8 0.772163,1.864166 2.373966,1.950571 1,3 -1.373966,1.049429 -3.87928,-4.476878 -6,-4 -2.12072,0.476878 -3.480103,3.3513 -3,5 0.480103,1.6487 2.798951,2.194903 4,2 1.201049,-0.194903 0.735451,-1.617125 2,-2 1.264549,-0.382875 4.057191,-0.414214 5,1 0.942809,1.414214 0.340329,4.444817 -1,5 -1.340329,0.555183 -1.586331,-2.242151 -3,-2 -1.413669,0.242151 -3.508733,2.567113 -3,4 0.508733,1.432887 3.037102,1.442871 4,1 0.962898,-0.442871 0.399475,-1.902548 1,-2 0.600525,-0.09745 0.842852,0.03161 1,1 0.157148,0.96839 -2.362709,2.463542 -2,4 0.362709,1.536458 2.463435,3.1092 4,3 1.536565,-0.1092 2.8908,-1.463435 3,-3 0.1092,-1.536565 -3.277085,-2.826251 -3,-4 0.277085,-1.173749 1.102539,-0.936219 2,-1 0.897461,-0.06378 2.302024,0.03161 3,1 0.697976,0.96839 -0.961446,2.827224 0,4 0.961446,1.172776 3.585786,1.942809 5,1 1.414214,-0.942809 2.067111,-3.698334 1,-5 -1.067111,-1.301666 -4.175042,0.824958 -5,0 -0.824958,-0.824958 -0.440837,-1.176288 0,-2 0.440837,-0.823712 1.698334,-2.12889 3,-2 1.301666,0.12889 1.350084,3 3,3 1.649916,0 4,-2.114382 4,-4 0,-1.885618 -2.228326,-4.125909 -4,-4 -1.771674,0.125909 -1.698545,3.907508 -3,4 -1.301455,0.09249 -1.864793,-1.166817 -2,-2 -0.135207,-0.833183 0.173263,-1.336815 1,-2 0.826737,-0.663185 3.064255,0.19848 4,-1 0.935745,-1.19848 1.06066,-3.93934 0,-5 -1.06066,-1.0606602 -2.827224,-0.9614462 -4,0 -1.172776,0.9614462 -0.085,4.249883 -1,5 -0.914995,0.750117 -1.399431,0.371172 -2,0 C 39.399431,10.628828 38.902163,10.571486 39,9 39.09784,7.428514 43.188104,4.8996669 43,3 42.811896,1.1003331 41.433708,0.2326587 40,0 38.566292,-0.2326587 36.688619,0.3375263 36,2 35.311381,3.6624737 38.688619,6.3375263 38,8 37.311381,9.662474 35.201049,10.194903 34,10 32.798951,9.805097 32.32918,9.709292 32,8 31.67082,6.2907085 35.542986,3.0313084 35,1 34.457014,-1.0313084 32.666667,-2 31,-2 z m 6.09375,13.8125 C 37.957462,11.866702 40.214349,11.686774 41,13 c 0.785651,1.313226 0.06067,3.887615 -1,5 -1.060675,1.112385 -3.064255,1.730608 -4,1 -0.935745,-0.730608 0.164515,-1.986216 0,-3 -0.164515,-1.013784 -1.175244,-2.257656 -1,-3 0.175244,-0.742344 0.626415,-0.806652 1,-1 0.373585,-0.193348 0.230038,-0.241702 1.09375,-0.1875 z"
       style="fill:#00002b;fill-opacity:0.37617553;stroke:none" />
    <path
       style="fill:blue;fill-opacity:0.37617555000000003;stroke:none"
       d="m 24,15 c 0.697976,0.503073 1.217909,1.657186 1,3 -0.217909,1.342814 -3.092492,2.698545 -3,4 0.09249,1.301455 1.166817,1.864793 2,2 0.833183,0.135207 1.365962,0.02589 2,-1 0.634038,-1.025895 -0.795428,-3.896403 0,-5 0.795428,-1.103597 1.824454,-1.486927 3,-1 1.175546,0.486927 2.362708,2.463542 2,4 -0.362708,1.536458 -3.552786,2.105573 -4,3 -0.447214,0.894427 -0.15398,0.62826 0,1 0.15398,0.37174 0.257656,0.824756 1,1 0.742344,0.175244 2.028259,-1.229397 3,-1 0.971741,0.229397 2.092492,0.698545 2,2 -0.09249,1.301455 -2.586331,3.242151 -4,3 -1.413669,-0.242151 -1.176288,-2.559163 -2,-3 -0.823712,-0.440837 -1.175042,-0.824958 -2,0 -0.824958,0.824958 1.06066,3.93934 0,5 -1.06066,1.06066 -2.798862,0.742344 -4,0 -1.201138,-0.742344 -2.583849,-2.464361 -2,-4 0.583849,-1.535639 4.724754,-0.659025 5,-2 0.275246,-1.340975 -1.102539,-1.62826 -2,-2 -0.897461,-0.37174 -2.064255,-0.730608 -3,0 -0.935745,0.730608 0.178511,3.292893 -1,4 -1.178511,0.707107 -3.166824,0.06711 -4,-1 -0.833176,-1.067113 -0.942809,-3.057191 0,-4 0.942809,-0.942809 2.988459,0.238792 4,0 1.011541,-0.238792 1.827038,0.06584 2,-1 0.172962,-1.065842 -1.698334,-2.87111 -3,-3 -1.301666,-0.12889 -1.65632,1.916346 -3,2 -1.34368,0.08365 -3.528595,-0.585786 -4,-2 -0.4714045,-1.414214 0.3513,-3.519897 2,-4 1.6487,-0.480103 3.656487,2.948403 5,3 1.343513,0.0516 1.764298,-0.292893 2,-1 0.235702,-0.707107 -0.115881,-1.453584 -1,-2 -0.884119,-0.546416 -3.057191,0.942809 -4,0 -0.942809,-0.942809 -0.942809,-3.057191 0,-4 0.942809,-0.942809 2.882396,-0.598123 4,0 1.117604,0.598123 1.444817,1.659671 2,3 0.555183,1.340329 -0.536586,4.963435 1,5 1.536586,0.03656 0.195622,-3.371961 1,-4 0.804378,-0.628039 1.302024,-0.503073 2,0 z"
       id="path3777"
       inkscape:connector-curvature="0"
       sodipodi:nodetypes="zzzzzzzzzzzzzzzzzzzzzzzzzzzzzzzzzzzzzzzzz" />
    <path
       style="fill:#00002b;fill-opacity:0.37617553;stroke:none"
       d="m 31,30 c -1.666667,0 -3.466044,0.738125 -4,3 -0.533956,2.261875 3.227837,6.135834 4,8 0.772163,1.864166 2.373966,1.950571 1,3 -1.373966,1.049429 -3.87928,-4.476878 -6,-4 -2.12072,0.476878 -3.480103,3.3513 -3,5 0.480103,1.6487 2.798951,2.194903 4,2 1.201049,-0.194903 0.735451,-1.617125 2,-2 1.264549,-0.382875 4.057191,-0.414214 5,1 0.942809,1.414214 0.340329,4.444817 -1,5 -1.340329,0.555183 -1.586331,-2.242151 -3,-2 -1.413669,0.242151 -3.508733,2.567113 -3,4 0.508733,1.432887 3.037102,1.442871 4,1 0.962898,-0.442871 0.399475,-1.902548 1,-2 0.600525,-0.09745 0.842852,0.03161 1,1 0.157148,0.96839 -2.362709,2.463542 -2,4 0.362709,1.536458 2.463435,3.1092 4,3 1.536565,-0.1092 2.8908,-1.463435 3,-3 0.1092,-1.536565 -3.277085,-2.826251 -3,-4 0.277085,-1.173749 1.102539,-0.936219 2,-1 0.897461,-0.06378 2.302024,0.03161 3,1 0.697976,0.96839 -0.961446,2.827224 0,4 0.961446,1.172776 3.585786,1.942809 5,1 1.414214,-0.942809 2.067111,-3.698334 1,-5 -1.067111,-1.301666 -4.175042,0.824958 -5,0 -0.824958,-0.824958 -0.440837,-1.176288 0,-2 0.440837,-0.823712 1.698334,-2.12889 3,-2 1.301666,0.12889 1.350084,3 3,3 1.649916,0 4,-2.114382 4,-4 0,-1.885618 -2.228326,-4.125909 -4,-4 -1.771674,0.125909 -1.698545,3.907508 -3,4 -1.301455,0.09249 -1.864793,-1.166817 -2,-2 -0.135207,-0.833183 0.173263,-1.336815 1,-2 0.826737,-0.663185 3.064255,0.19848 4,-1 0.935745,-1.19848 1.06066,-3.93934 0,-5 -1.06066,-1.06066 -2.827224,-0.961446 -4,0 -1.172776,0.961446 -0.085,4.249883 -1,5 -0.914995,0.750117 -1.399431,0.371172 -2,0 -0.600569,-0.371172 -1.097837,-0.428514 -1,-2 0.09784,-1.571486 4.188104,-4.100333 4,-6 -0.188104,-1.899667 -1.566292,-2.767341 -3,-3 -1.433708,-0.232659 -3.311381,0.337526 -4,2 -0.688619,1.662474 2.688619,4.337526 2,6 -0.688619,1.662474 -2.798951,2.194903 -4,2 -1.201049,-0.194903 -1.67082,-0.290708 -2,-2 -0.32918,-1.709292 3.542986,-4.968692 3,-7 -0.542986,-2.031308 -2.333333,-3 -4,-3 z m 6.09375,13.8125 C 37.957462,43.866702 40.214349,43.686774 41,45 c 0.785651,1.313226 0.06067,3.887615 -1,5 -1.060675,1.112385 -3.064255,1.730608 -4,1 -0.935745,-0.730608 0.164515,-1.986216 0,-3 -0.164515,-1.013784 -1.175244,-2.257656 -1,-3 0.175244,-0.742344 0.626415,-0.806652 1,-1 0.373585,-0.193348 0.230038,-0.241702 1.09375,-0.1875 z"
       id="path3940"
       inkscape:connector-curvature="0"
       sodipodi:nodetypes="zzzzzzzzzzzzzzzzzzzzzzzzzzzzzzzzzzzzzzzzzzzzzzzzzzzzzzz" />
    <path
       style="fill:#55f;fill-opacity:0.37617555000000003;stroke:none"
       d="m 4,26 c -1,0.5 -2.798951,2.194903 -4,2 -1.201049,-0.194903 -2,-1.057191 -2,-2 0,-0.942809 0.8834507,-1.690734 2,-2 1.1165493,-0.309266 3.1106005,1.246349 4,1 0.8894,-0.246349 1,-0.05719 1,-1 0,-0.942809 -2.8711096,-1.698334 -3,-3 -0.1288904,-1.301666 0.8214887,-2.764298 2,-3 1.178511,-0.235702 2.633932,0.933082 3,2 0.366068,1.066918 -1.175244,2.257656 -1,3 0.175244,0.742344 0.399475,0.902548 1,1 0.600525,0.09745 1.541206,-0.257656 2,-1 0.458794,-0.742344 -0.51948,-2.029342 0,-3 0.51948,-0.970658 1.933082,-2.366068 3,-2 1.066918,0.366068 1.366068,1.933082 1,3 -0.366068,1.066918 -2.559163,1.176288 -3,2 -0.440837,0.823712 -0.471405,1.528595 0,2 0.471405,0.471405 1.302024,0.503073 2,0 0.697976,-0.503073 0.410499,-2.3203 1,-3 0.589501,-0.6797 1.168763,-1.34431 2,-1 0.831237,0.34431 1.471405,2.057191 1,3 -0.471405,0.942809 -2.496927,0.302024 -3,1 -0.503073,0.697976 -0.353553,1.646447 0,2 0.353553,0.353553 0.410499,0.244179 1,0 0.589501,-0.244179 1.057191,-2 2,-2 0.942809,0 1.894335,0.932889 2,2 0.105665,1.067111 -0.821489,2.764298 -2,3 -1.178511,0.235702 -2.265344,-1.777564 -3,-2 -0.734656,-0.222436 -0.646447,-0.353553 -1,0 -0.353553,0.353553 0.371172,1.399431 0,2 -0.371172,0.600569 -1.166817,1.135207 -2,1 -0.833183,-0.135207 -2.229397,-1.028259 -2,-2 0.229397,-0.971741 2.496927,-0.302024 3,-1 0.503073,-0.697976 0.471405,-1.528595 0,-2 C 10.528595,25.528595 9.600569,25.628828 9,26 8.399431,26.371172 8.6797,27.410499 8,28 7.3203,28.589501 5.833183,29.600525 5,29 4.166817,28.399475 4.399475,26.833183 5,26 5.600525,25.166817 8.137818,25.84927 8,25 7.862182,24.15073 6.687125,24.837792 6,25 5.312875,25.162208 5,25.5 4,26 z"
       id="path3775"
       inkscape:connector-curvature="0"
       sodipodi:nodetypes="zzzzzzzzzzzzzzzzzzzzzzzzzzzzzzzzzzzzzzzzz" />
    <path
       sodipodi:nodetypes="zzzzzzzzzzzzzzzzzzzzzzzzzzzzzzzzzzzzzzzzzzzzzzzzzzzzzzz"
       inkscape:connector-curvature="0"
       id="path3942"
       d="m -1,30 c -1.666667,0 -3.466044,0.738125 -4,3 -0.533956,2.261875 3.227837,6.135834 4,8 0.772163,1.864166 2.373966,1.950571 1,3 -1.373966,1.049429 -3.87928,-4.476878 -6,-4 -2.12072,0.476878 -3.480103,3.3513 -3,5 0.480103,1.6487 2.798951,2.194903 4,2 1.201049,-0.194903 0.735451,-1.617125 2,-2 1.264549,-0.382875 4.057191,-0.414214 5,1 0.942809,1.414214 0.340329,4.444817 -1,5 -1.340329,0.555183 -1.586331,-2.242151 -3,-2 -1.413669,0.242151 -3.508733,2.567113 -3,4 0.508733,1.432887 3.037102,1.442871 4,1 0.962898,-0.442871 0.399475,-1.902548 1,-2 0.600525,-0.09745 0.842852,0.03161 1,1 0.157148,0.96839 -2.362709,2.463542 -2,4 0.362709,1.536458 2.463435,3.1092 4,3 1.536565,-0.1092 2.8908,-1.463435 3,-3 0.1092,-1.536565 -3.277085,-2.826251 -3,-4 0.277085,-1.173749 1.102539,-0.936219 2,-1 0.897461,-0.06378 2.302024,0.03161 3,1 0.697976,0.96839 -0.961446,2.827224 0,4 0.961446,1.172776 3.585786,1.942809 5,1 1.414214,-0.942809 2.067111,-3.698334 1,-5 -1.067111,-1.301666 -4.175042,0.824958 -5,0 -0.824958,-0.824958 -0.440837,-1.176288 0,-2 0.440837,-0.823712 1.698334,-2.12889 3,-2 1.301666,0.12889 1.350084,3 3,3 1.649916,0 4,-2.114382 4,-4 0,-1.885618 -2.228326,-4.125909 -4,-4 -1.771674,0.125909 -1.698545,3.907508 -3,4 -1.301455,0.09249 -1.864793,-1.166817 -2,-2 -0.135207,-0.833183 0.173263,-1.336815 1,-2 0.826737,-0.663185 3.064255,0.19848 4,-1 0.935745,-1.19848 1.06066,-3.93934 0,-5 -1.06066,-1.06066 -2.827224,-0.961446 -4,0 -1.172776,0.961446 -0.085,4.249883 -1,5 C 9.085005,43.750117 8.600569,43.371172 8,43 7.399431,42.628828 6.902163,42.571486 7,41 7.09784,39.428514 11.188104,36.899667 11,35 10.811896,33.100333 9.433708,32.232659 8,32 6.566292,31.767341 4.688619,32.337526 4,34 3.311381,35.662474 6.688619,38.337526 6,40 5.311381,41.662474 3.201049,42.194903 2,42 0.798951,41.805097 0.32918,41.709292 0,40 -0.32918,38.290708 3.542986,35.031308 3,33 2.457014,30.968692 0.666667,30 -1,30 z M 5.09375,43.8125 C 5.957462,43.866702 8.214349,43.686774 9,45 9.785651,46.313226 9.06067,48.887615 8,50 6.939325,51.112385 4.935745,51.730608 4,51 3.064255,50.269392 4.164515,49.013784 4,48 3.835485,46.986216 2.824756,45.742344 3,45 3.175244,44.257656 3.626415,44.193348 4,44 4.373585,43.806652 4.230038,43.758298 5.09375,43.8125 z"
       style="fill:#00002b;fill-opacity:0.37617553;stroke:none" />
    <path
       style="fill:#4848dc;fill-opacity:0.37617553;stroke:none"
       d="m 17,-9 c -1.178511,-0.2357023 -2.55554,0.5689809 -3,2 -0.44446,1.431019 1.599387,3.707659 1,5 -0.599387,1.292341 -1.028259,1.229397 -2,1 -0.971741,-0.229397 -1.805097,-0.798951 -2,-2 -0.194903,-1.201049 2.353553,-2.93934 2,-4 -0.353553,-1.0606602 -1.028278,-1.0604972 -2,-1 -0.971722,0.060497 -2.764298,0.8214887 -3,2 -0.235702,1.178511 1.729267,2.105829 2,3 0.270733,0.894171 0.697976,1.496927 0,2 -0.697976,0.503073 -1.933082,-1.366068 -3,-1 -1.066918,0.366068 -2.12889,1.698334 -2,3 0.12889,1.301666 1.566292,3.232659 3,3 1.433708,-0.232659 0.463542,-4.362708 2,-4 1.536458,0.362708 -0.795428,3.896403 0,5 0.795428,1.103597 2.028259,1.229397 3,1 0.971741,-0.229397 2.092492,-0.698545 2,-2 -0.09249,-1.301455 -4.108307,-1.798862 -4,-3 0.108307,-1.201138 1.059013,-1.249893 2,-1 0.940987,0.249893 0.794579,2.192739 2,3 1.205421,0.807261 3.939325,2.112385 5,1 1.060675,-1.112385 0.06711,-3.166824 -1,-4 -1.067113,-0.833176 -3.564479,1.051441 -4,0 -0.435521,-1.051441 0.883451,-1.690734 2,-2 1.116549,-0.309266 2.798552,1.464488 4,1 1.201448,-0.464488 2.105665,-1.932889 2,-3 -0.105665,-1.067111 -0.821489,-2 -2,-2 -1.178511,0 -2.057191,3 -3,3 -0.942809,0 -1,-0.292893 -1,-1 0,-0.707107 1.894335,-0.932889 2,-2 0.105665,-1.0671111 -0.821489,-2.7642977 -2,-3 z"
       id="path3784"
       inkscape:connector-curvature="0"
       sodipodi:nodetypes="zzzzzzzzzzzzzzzzzzzzzzzzzzzzzzz" />
    <path
       sodipodi:nodetypes="zzzzzzzzzzzzzzzzzzzzzzzzzzzzzzz"
       inkscape:connector-curvature="0"
       id="path3786"
       d="m 17,23 c -1.178511,-0.235702 -2.55554,0.568981 -3,2 -0.44446,1.431019 1.599387,3.707659 1,5 -0.599387,1.292341 -1.028259,1.229397 -2,1 -0.971741,-0.229397 -1.805097,-0.798951 -2,-2 -0.194903,-1.201049 2.353553,-2.93934 2,-4 -0.353553,-1.06066 -1.028278,-1.060497 -2,-1 -0.971722,0.0605 -2.764298,0.821489 -3,2 -0.235702,1.178511 1.729267,2.105829 2,3 0.270733,0.894171 0.697976,1.496927 0,2 -0.697976,0.503073 -1.933082,-1.366068 -3,-1 -1.066918,0.366068 -2.12889,1.698334 -2,3 0.12889,1.301666 1.566292,3.232659 3,3 1.433708,-0.232659 0.463542,-4.362708 2,-4 1.536458,0.362708 -0.795428,3.896403 0,5 0.795428,1.103597 2.028259,1.229397 3,1 0.971741,-0.229397 2.092492,-0.698545 2,-2 -0.09249,-1.301455 -4.108307,-1.798862 -4,-3 0.108307,-1.201138 1.059013,-1.249893 2,-1 0.940987,0.249893 0.794579,2.192739 2,3 1.205421,0.807261 3.939325,2.112385 5,1 1.060675,-1.112385 0.06711,-3.166824 -1,-4 -1.067113,-0.833176 -3.564479,1.051441 -4,0 -0.435521,-1.051441 0.883451,-1.690734 2,-2 1.116549,-0.309266 2.798552,1.464488 4,1 1.201448,-0.464488 2.105665,-1.932889 2,-3 -0.105665,-1.067111 -0.821489,-2 -2,-2 -1.178511,0 -2.057191,3 -3,3 -0.942809,0 -1,-0.292893 -1,-1 0,-0.707107 1.894335,-0.932889 2,-2 0.105665,-1.067111 -0.821489,-2.764298 -2,-3 z"
       style="fill:#4848dc;fill-opacity:0.37617553;stroke:none" />
    <path
       sodipodi:nodetypes="zzzzzzzzzzzzzzzzzzzzzzzzzzzzzzzzzzzzzzzzz"
       inkscape:connector-curvature="0"
       id="path3790"
       d="m 24,-17 c 0.697976,0.503073 1.217909,1.657186 1,3 -0.217909,1.342814 -3.092492,2.698545 -3,4 0.09249,1.301455 1.166817,1.864793 2,2 0.833183,0.135207 1.365962,0.02589 2,-1 0.634038,-1.025895 -0.795428,-3.896403 0,-5 0.795428,-1.103597 1.824454,-1.486927 3,-1 1.175546,0.486927 2.362708,2.463542 2,4 -0.362708,1.536458 -3.552786,2.105573 -4,3 -0.447214,0.894427 -0.15398,0.62826 0,1 0.15398,0.37174 0.257656,0.824756 1,1 0.742344,0.175244 2.028259,-1.229397 3,-1 0.971741,0.229397 2.092492,0.698545 2,2 -0.09249,1.301455 -2.586331,3.242151 -4,3 -1.413669,-0.242151 -1.176288,-2.559163 -2,-3 -0.823712,-0.440837 -1.175042,-0.824958 -2,0 -0.824958,0.824958 1.06066,3.93934 0,5 -1.06066,1.06066 -2.798862,0.742344 -4,0 -1.201138,-0.742344 -2.583849,-2.464361 -2,-4 0.583849,-1.535639 4.724754,-0.659025 5,-2 0.275246,-1.340975 -1.102539,-1.62826 -2,-2 -0.897461,-0.37174 -2.064255,-0.730608 -3,0 -0.935745,0.730608 0.178511,3.292893 -1,4 -1.178511,0.707107 -3.166824,0.06711 -4,-1 -0.833176,-1.067113 -0.942809,-3.057191 0,-4 0.942809,-0.942809 2.988459,0.238792 4,0 1.011541,-0.238792 1.827038,0.06584 2,-1 0.172962,-1.065842 -1.698334,-2.87111 -3,-3 -1.301666,-0.12889 -1.65632,1.916346 -3,2 -1.34368,0.08365 -3.528595,-0.585786 -4,-2 -0.4714045,-1.414214 0.3513,-3.519897 2,-4 1.6487,-0.480103 3.656487,2.948403 5,3 1.343513,0.0516 1.764298,-0.292893 2,-1 0.235702,-0.707107 -0.115881,-1.453584 -1,-2 -0.884119,-0.546416 -3.057191,0.942809 -4,0 -0.942809,-0.942809 -0.942809,-3.057191 0,-4 0.942809,-0.942809 2.882396,-0.598123 4,0 1.117604,0.598123 1.444817,1.659671 2,3 0.555183,1.340329 -0.536586,4.963435 1,5 1.536586,0.03656 0.195622,-3.371961 1,-4 0.804378,-0.628039 1.302024,-0.503073 2,0 z"
       style="fill:blue;fill-opacity:0.37617553;stroke:none" />
    <path
       sodipodi:nodetypes="zzzzzzzzzzzzzzzzzzzzzzzzzzzzzzzzzzzzzzzzz"
       inkscape:connector-curvature="0"
       id="path3792"
       d="m 36,26 c -1,0.5 -2.798951,2.194903 -4,2 -1.201049,-0.194903 -2,-1.057191 -2,-2 0,-0.942809 0.883451,-1.690734 2,-2 1.116549,-0.309266 3.110601,1.246349 4,1 0.8894,-0.246349 1,-0.05719 1,-1 0,-0.942809 -2.87111,-1.698334 -3,-3 -0.12889,-1.301666 0.821489,-2.764298 2,-3 1.178511,-0.235702 2.633932,0.933082 3,2 0.366068,1.066918 -1.175244,2.257656 -1,3 0.175244,0.742344 0.399475,0.902548 1,1 0.600525,0.09745 1.541206,-0.257656 2,-1 0.458794,-0.742344 -0.51948,-2.029342 0,-3 0.51948,-0.970658 1.933082,-2.366068 3,-2 1.066918,0.366068 1.366068,1.933082 1,3 -0.366068,1.066918 -2.559163,1.176288 -3,2 -0.440837,0.823712 -0.471405,1.528595 0,2 0.471405,0.471405 1.302024,0.503073 2,0 0.697976,-0.503073 0.410499,-2.3203 1,-3 0.589501,-0.6797 1.168763,-1.34431 2,-1 0.831237,0.34431 1.471405,2.057191 1,3 -0.471405,0.942809 -2.496927,0.302024 -3,1 -0.503073,0.697976 -0.353553,1.646447 0,2 0.353553,0.353553 0.410499,0.244179 1,0 0.589501,-0.244179 1.057191,-2 2,-2 0.942809,0 1.894335,0.932889 2,2 0.105665,1.067111 -0.821489,2.764298 -2,3 -1.178511,0.235702 -2.265344,-1.777564 -3,-2 -0.734656,-0.222436 -0.646447,-0.353553 -1,0 -0.353553,0.353553 0.371172,1.399431 0,2 -0.371172,0.600569 -1.166817,1.135207 -2,1 -0.833183,-0.135207 -2.229397,-1.028259 -2,-2 0.229397,-0.971741 2.496927,-0.302024 3,-1 0.503073,-0.697976 0.471405,-1.528595 0,-2 -0.471405,-0.471405 -1.399431,-0.371172 -2,0 -0.600569,0.371172 -0.3203,1.410499 -1,2 -0.6797,0.589501 -2.166817,1.600525 -3,1 -0.833183,-0.600525 -0.600525,-2.166817 0,-3 0.600525,-0.833183 3.137818,-0.15073 3,-1 -0.137818,-0.84927 -1.312875,-0.162208 -2,0 -0.687125,0.162208 -1,0.5 -2,1 z"
       style="fill:#55f;fill-opacity:0.37617553;stroke:none" />
    <path
       sodipodi:nodetypes="zzzzzzzzzzzzzzzzzzzzzzzzzzzzzzzzzzzzzzzzz"
       inkscape:connector-curvature="0"
       id="path3936"
       d="m -8,15 c 0.697976,0.503073 1.217909,1.657186 1,3 -0.217909,1.342814 -3.092492,2.698545 -3,4 0.09249,1.301455 1.166817,1.864793 2,2 0.833183,0.135207 1.365962,0.02589 2,-1 0.634038,-1.025895 -0.795428,-3.896403 0,-5 0.795428,-1.103597 1.824454,-1.486927 3,-1 1.175546,0.486927 2.362708,2.463542 2,4 -0.362708,1.536458 -3.552786,2.105573 -4,3 -0.447214,0.894427 -0.15398,0.62826 0,1 0.15398,0.37174 0.257656,0.824756 1,1 0.742344,0.175244 2.028259,-1.229397 3,-1 0.971741,0.229397 2.092492,0.698545 2,2 -0.09249,1.301455 -2.586331,3.242151 -4,3 -1.413669,-0.242151 -1.176288,-2.559163 -2,-3 -0.823712,-0.440837 -1.175042,-0.824958 -2,0 -0.824958,0.824958 1.06066,3.93934 0,5 -1.06066,1.06066 -2.798862,0.742344 -4,0 -1.201138,-0.742344 -2.583849,-2.464361 -2,-4 0.583849,-1.535639 4.724754,-0.659025 5,-2 0.275246,-1.340975 -1.102539,-1.62826 -2,-2 -0.897461,-0.37174 -2.064255,-0.730608 -3,0 -0.935745,0.730608 0.178511,3.292893 -1,4 -1.178511,0.707107 -3.166824,0.06711 -4,-1 -0.833176,-1.067113 -0.942809,-3.057191 0,-4 0.942809,-0.942809 2.988459,0.238792 4,0 1.011541,-0.238792 1.827038,0.06584 2,-1 0.172962,-1.065842 -1.698334,-2.87111 -3,-3 -1.301666,-0.12889 -1.65632,1.916346 -3,2 -1.34368,0.08365 -3.528595,-0.585786 -4,-2 -0.471405,-1.414214 0.3513,-3.519897 2,-4 1.6487,-0.480103 3.656487,2.948403 5,3 1.343513,0.0516 1.764298,-0.292893 2,-1 0.235702,-0.707107 -0.115881,-1.453584 -1,-2 -0.884119,-0.546416 -3.057191,0.942809 -4,0 -0.942809,-0.942809 -0.942809,-3.057191 0,-4 0.942809,-0.942809 2.882396,-0.598123 4,0 1.117604,0.598123 1.444817,1.659671 2,3 0.555183,1.340329 -0.536586,4.963435 1,5 1.536586,0.03656 0.195622,-3.371961 1,-4 0.804378,-0.628039 1.302024,-0.503073 2,0 z"
       style="fill:blue;fill-opacity:0.37617553;stroke:none" />
    <path
       style="fill:#afafe9;fill-opacity:0.37617555000000003;stroke:none"
       d="M 20,6 C 19.92541,4.0577812 16.456579,2.8661382 17,1 c 0.416785,-1.43126265 2.528537,-2.2387856 4,-2 0.930635,0.15102127 1.810433,1.0764453 2,2 0.360924,1.7583958 -2.360924,3.2416042 -2,5 0.189567,0.9235547 1.057191,2 2,2 0.942809,0 1.726789,-1.097645 2,-2 0.492538,-1.6267436 -1.492538,-3.3732564 -1,-5 0.273211,-0.902355 1.061779,-1.90709784 2,-2 1.196001,-0.1184275 2.643516,0.85223538 3,2 0.532436,1.7142737 -2.360924,3.2416042 -2,5 0.189567,0.9235547 1.057191,2 2,2 0.942809,0 1.748333,-1.0914009 2,-2 0.366865,-1.3244995 -1.366865,-2.6755005 -1,-4 0.377501,-1.3628987 1.585786,-3 3,-3 0.942809,0 1.810433,1.0764453 2,2 0.360924,1.7583958 -2.0746,3.2064959 -2,5 0.03098,0.7447121 0.292893,1.7642977 1,2 0.707107,0.2357023 1.395336,-0.5641827 2,-1 1.14727,-0.8269052 1.592669,-2.8606468 3,-3 1.196001,-0.1184275 2.764298,0.8214887 3,2 0.235702,1.1785113 -0.940359,2.4328974 -2,3 -1.175566,0.629144 -2.865799,-0.7009748 -4,0 -0.634038,0.391857 -1.119393,1.264268 -1,2 0.07551,0.465317 0.617577,0.724365 1,1 0.604664,0.435817 1.608143,0.365962 2,1 0.525731,0.850651 0.707107,2.292893 0,3 -1.178511,1.178511 -3.821489,1.178511 -5,0 -1.178511,-1.178511 0.637806,-3.460201 0,-5 -0.180399,-0.435521 -0.534683,-0.924489 -1,-1 -0.735732,-0.119393 -1.608143,0.365962 -2,1 -0.525731,0.850651 0.58471,2.188758 0,3 -0.616339,0.855124 -2.075976,1.507239 -3,1 -1.204779,-0.661359 -1.661359,-2.795221 -1,-4 0.507239,-0.924024 2.925276,0.05144 3,-1 0.05284,-0.743481 -1.274583,-0.828752 -2,-1 -0.648833,-0.1531686 -1.432899,-0.3504874 -2,0 -0.634038,0.391857 -0.828752,1.274583 -1,2 -0.153169,0.648833 0,1.333333 0,2 0,0.666667 0.471405,1.528595 0,2 -0.942809,0.942809 -3.057191,0.942809 -4,0 -0.707107,-0.707107 -0.525731,-2.149349 0,-3 0.391857,-0.634038 1.608143,-0.365962 2,-1 0.350487,-0.567101 0.600869,-1.711208 0,-2 -1.923719,-0.9245871 -2.868891,4.118032 -5,4 -0.941366,-0.05214 -1.783387,-1.082412 -2,-2 -0.242181,-1.025895 0.144876,-2.3836612 1,-3 0.811242,-0.5847103 2.149349,0.5257311 3,0 0.634038,-0.3918568 1.028604,-1.2551931 1,-2 z"
       id="path3773"
       inkscape:connector-curvature="0"
       sodipodi:nodetypes="aaaaaaaaaaaaaaaaaaaaaaaaaaaaaaaaaaaaaaaaaaaaaaaaa" />
    <path
       sodipodi:nodetypes="aaaaaaaaaaaaaaaaaaaaaaaaaaaaaaaaaaaaaaaaaaaaaaaaa"
       inkscape:connector-curvature="0"
       id="path3794"
       d="m -12,6 c -0.07459,-1.9422188 -3.543421,-3.1338618 -3,-5 0.416785,-1.43126265 2.528537,-2.2387856 4,-2 0.930635,0.15102127 1.810433,1.0764453 2,2 0.360924,1.7583958 -2.360924,3.2416042 -2,5 0.189567,0.9235547 1.057191,2 2,2 0.942809,0 1.726789,-1.097645 2,-2 0.492538,-1.6267436 -1.492538,-3.3732564 -1,-5 0.273211,-0.902355 1.061779,-1.90709784 2,-2 1.196001,-0.1184275 2.643516,0.85223538 3,2 0.532436,1.7142737 -2.360924,3.2416042 -2,5 0.189567,0.9235547 1.057191,2 2,2 0.942809,0 1.748333,-1.0914009 2,-2 C -0.633135,4.6755005 -2.366865,3.3244995 -2,2 -1.622499,0.6371013 -0.414214,-1 1,-1 1.942809,-1 2.810433,0.0764453 3,1 3.360924,2.7583958 0.9254,4.2064959 1,6 1.03098,6.7447121 1.292893,7.7642977 2,8 2.707107,8.2357023 3.395336,7.4358173 4,7 5.14727,6.1730948 5.592669,4.1393532 7,4 8.196001,3.8815725 9.764298,4.8214887 10,6 10.235702,7.1785113 9.059641,8.4328974 8,9 6.824434,9.629144 5.134201,8.2990252 4,9 3.365962,9.391857 2.880607,10.264268 3,11 c 0.07551,0.465317 0.617577,0.724365 1,1 0.604664,0.435817 1.608143,0.365962 2,1 0.525731,0.850651 0.707107,2.292893 0,3 -1.178511,1.178511 -3.821489,1.178511 -5,0 -1.178511,-1.178511 0.637806,-3.460201 0,-5 -0.180399,-0.435521 -0.534683,-0.924489 -1,-1 -0.735732,-0.119393 -1.608143,0.365962 -2,1 -0.525731,0.850651 0.58471,2.188758 0,3 -0.616339,0.855124 -2.075976,1.507239 -3,1 -1.204779,-0.661359 -1.661359,-2.795221 -1,-4 0.507239,-0.924024 2.925276,0.05144 3,-1 0.05284,-0.743481 -1.274583,-0.828752 -2,-1 -0.648833,-0.1531686 -1.432899,-0.3504874 -2,0 -0.634038,0.391857 -0.828752,1.274583 -1,2 -0.153169,0.648833 0,1.333333 0,2 0,0.666667 0.471405,1.528595 0,2 -0.942809,0.942809 -3.057191,0.942809 -4,0 -0.707107,-0.707107 -0.525731,-2.149349 0,-3 0.391857,-0.634038 1.608143,-0.365962 2,-1 0.350487,-0.567101 0.600869,-1.711208 0,-2 -1.923719,-0.9245871 -2.868891,4.118032 -5,4 -0.941366,-0.05214 -1.783387,-1.082412 -2,-2 -0.242181,-1.025895 0.144876,-2.3836612 1,-3 0.811242,-0.5847103 2.149349,0.5257311 3,0 0.634038,-0.3918568 1.028604,-1.2551931 1,-2 z"
       style="fill:#afafe9;fill-opacity:0.37617553;stroke:none" />
    <path
       sodipodi:nodetypes="aaaaaaaaaaaaaaaaaaaaaaaaaaaaaaaaaaaaaaaaaaaaaaaaa"
       inkscape:connector-curvature="0"
       id="path3934"
       d="m 20,38 c -0.07459,-1.942219 -3.543421,-3.133862 -3,-5 0.416785,-1.431263 2.528537,-2.238786 4,-2 0.930635,0.151021 1.810433,1.076445 2,2 0.360924,1.758396 -2.360924,3.241604 -2,5 0.189567,0.923555 1.057191,2 2,2 0.942809,0 1.726789,-1.097645 2,-2 0.492538,-1.626744 -1.492538,-3.373256 -1,-5 0.273211,-0.902355 1.061779,-1.907098 2,-2 1.196001,-0.118427 2.643516,0.852235 3,2 0.532436,1.714274 -2.360924,3.241604 -2,5 0.189567,0.923555 1.057191,2 2,2 0.942809,0 1.748333,-1.091401 2,-2 0.366865,-1.324499 -1.366865,-2.675501 -1,-4 0.377501,-1.362899 1.585786,-3 3,-3 0.942809,0 1.810433,1.076445 2,2 0.360924,1.758396 -2.0746,3.206496 -2,5 0.03098,0.744712 0.292893,1.764298 1,2 0.707107,0.235702 1.395336,-0.564183 2,-1 1.14727,-0.826905 1.592669,-2.860647 3,-3 1.196001,-0.118427 2.764298,0.821489 3,2 0.235702,1.178511 -0.940359,2.432897 -2,3 -1.175566,0.629144 -2.865799,-0.700975 -4,0 -0.634038,0.391857 -1.119393,1.264268 -1,2 0.07551,0.465317 0.617577,0.724365 1,1 0.604664,0.435817 1.608143,0.365962 2,1 0.525731,0.850651 0.707107,2.292893 0,3 -1.178511,1.178511 -3.821489,1.178511 -5,0 -1.178511,-1.178511 0.637806,-3.460201 0,-5 -0.180399,-0.435521 -0.534683,-0.924489 -1,-1 -0.735732,-0.119393 -1.608143,0.365962 -2,1 -0.525731,0.850651 0.58471,2.188758 0,3 -0.616339,0.855124 -2.075976,1.507239 -3,1 -1.204779,-0.661359 -1.661359,-2.795221 -1,-4 0.507239,-0.924024 2.925276,0.05144 3,-1 0.05284,-0.743481 -1.274583,-0.828752 -2,-1 -0.648833,-0.153169 -1.432899,-0.350487 -2,0 -0.634038,0.391857 -0.828752,1.274583 -1,2 -0.153169,0.648833 0,1.333333 0,2 0,0.666667 0.471405,1.528595 0,2 -0.942809,0.942809 -3.057191,0.942809 -4,0 -0.707107,-0.707107 -0.525731,-2.149349 0,-3 0.391857,-0.634038 1.608143,-0.365962 2,-1 0.350487,-0.567101 0.600869,-1.711208 0,-2 -1.923719,-0.924587 -2.868891,4.118032 -5,4 -0.941366,-0.05214 -1.783387,-1.082412 -2,-2 -0.242181,-1.025895 0.144876,-2.383661 1,-3 0.811242,-0.58471 2.149349,0.525731 3,0 0.634038,-0.391857 1.028604,-1.255193 1,-2 z"
       style="fill:#afafe9;fill-opacity:0.37617553;stroke:none" />
    <path
       style="fill:#afafe9;fill-opacity:0.37617553;stroke:none"
       d="m -12,38 c -0.07459,-1.942219 -3.543421,-3.133862 -3,-5 0.416785,-1.431263 2.528537,-2.238786 4,-2 0.930635,0.151021 1.810433,1.076445 2,2 0.360924,1.758396 -2.360924,3.241604 -2,5 0.189567,0.923555 1.057191,2 2,2 0.942809,0 1.726789,-1.097645 2,-2 0.492538,-1.626744 -1.492538,-3.373256 -1,-5 0.273211,-0.902355 1.061779,-1.907098 2,-2 1.196001,-0.118427 2.643516,0.852235 3,2 0.532436,1.714274 -2.360924,3.241604 -2,5 0.189567,0.923555 1.057191,2 2,2 0.942809,0 1.748333,-1.091401 2,-2 0.366865,-1.324499 -1.366865,-2.675501 -1,-4 0.377501,-1.362899 1.585786,-3 3,-3 0.942809,0 1.810433,1.076445 2,2 0.360924,1.758396 -2.0746,3.206496 -2,5 0.03098,0.744712 0.292893,1.764298 1,2 0.707107,0.235702 1.395336,-0.564183 2,-1 1.14727,-0.826905 1.592669,-2.860647 3,-3 1.196001,-0.118427 2.764298,0.821489 3,2 0.235702,1.178511 -0.940359,2.432897 -2,3 -1.175566,0.629144 -2.865799,-0.700975 -4,0 -0.634038,0.391857 -1.119393,1.264268 -1,2 0.07551,0.465317 0.617577,0.724365 1,1 0.604664,0.435817 1.608143,0.365962 2,1 0.525731,0.850651 0.707107,2.292893 0,3 -1.178511,1.178511 -3.821489,1.178511 -5,0 -1.178511,-1.178511 0.637806,-3.460201 0,-5 -0.180399,-0.435521 -0.534683,-0.924489 -1,-1 -0.735732,-0.119393 -1.608143,0.365962 -2,1 -0.525731,0.850651 0.58471,2.188758 0,3 -0.616339,0.855124 -2.075976,1.507239 -3,1 -1.204779,-0.661359 -1.661359,-2.795221 -1,-4 0.507239,-0.924024 2.925276,0.05144 3,-1 0.05284,-0.743481 -1.274583,-0.828752 -2,-1 -0.648833,-0.153169 -1.432899,-0.350487 -2,0 -0.634038,0.391857 -0.828752,1.274583 -1,2 -0.153169,0.648833 0,1.333333 0,2 0,0.666667 0.471405,1.528595 0,2 -0.942809,0.942809 -3.057191,0.942809 -4,0 -0.707107,-0.707107 -0.525731,-2.149349 0,-3 0.391857,-0.634038 1.608143,-0.365962 2,-1 0.350487,-0.567101 0.600869,-1.711208 0,-2 -1.923719,-0.924587 -2.868891,4.118032 -5,4 -0.941366,-0.05214 -1.783387,-1.082412 -2,-2 -0.242181,-1.025895 0.144876,-2.383661 1,-3 0.811242,-0.58471 2.149349,0.525731 3,0 0.634038,-0.391857 1.028604,-1.255193 1,-2 z"
       id="path3938"
       inkscape:connector-curvature="0"
       sodipodi:nodetypes="aaaaaaaaaaaaaaaaaaaaaaaaaaaaaaaaaaaaaaaaaaaaaaaaa" />
  </g>
</svg>
