<?xml version="1.0" encoding="UTF-8" standalone="no"?>
<!-- Created with Inkscape (http://www.inkscape.org/) -->

<svg
   xmlns:dc="http://purl.org/dc/elements/1.1/"
   xmlns:cc="http://creativecommons.org/ns#"
   xmlns:rdf="http://www.w3.org/1999/02/22-rdf-syntax-ns#"
   xmlns:svg="http://www.w3.org/2000/svg"
   xmlns="http://www.w3.org/2000/svg"
   xmlns:sodipodi="http://sodipodi.sourceforge.net/DTD/sodipodi-0.dtd"
   xmlns:inkscape="http://www.inkscape.org/namespaces/inkscape"
   width="32"
   height="32"
   id="svg4150"
   version="1.1"
   inkscape:version="0.48.5 r10040"
   viewBox="0 0 32 32"
   sodipodi:docname="amoeboid-mini-00.svg"
   inkscape:export-filename="/home/andreas/Dokumente/Projekte/McMinos/repository/extra/images-incoming/level-frame-backgrounds/amoeboid-mini-00.png"
   inkscape:export-xdpi="360"
   inkscape:export-ydpi="360">
  <defs
     id="defs4152" />
  <sodipodi:namedview
     id="base"
     pagecolor="#ffffff"
     bordercolor="#666666"
     borderopacity="1.0"
     inkscape:pageopacity="0.0"
     inkscape:pageshadow="2"
     inkscape:zoom="16.375"
     inkscape:cx="14.931298"
     inkscape:cy="16"
     inkscape:current-layer="layer1"
     showgrid="true"
     inkscape:grid-bbox="true"
     inkscape:document-units="px"
     objecttolerance="10000"
     inkscape:snap-perpendicular="true"
     guidetolerance="10000"
     inkscape:window-width="1024"
     inkscape:window-height="741"
     inkscape:window-x="0"
     inkscape:window-y="2"
     inkscape:window-maximized="1"
     showguides="false"
     inkscape:guide-bbox="true">
    <inkscape:grid
       type="xygrid"
       id="grid4698"
       empspacing="4" />
    <sodipodi:guide
       position="16,32"
       orientation="1,0"
       id="guide4769" />
    <sodipodi:guide
       position="-4,16"
       orientation="0,1"
       id="guide4771" />
    <sodipodi:guide
       position="16,16"
       orientation="-0.70710678,0.70710678"
       id="guide4773" />
    <sodipodi:guide
       position="16,16"
       orientation="0.70710678,0.70710678"
       id="guide4775" />
  </sodipodi:namedview>
  <metadata
     id="metadata4155">
    <rdf:RDF>
      <cc:Work
         rdf:about="">
        <dc:format>image/svg+xml</dc:format>
        <dc:type
           rdf:resource="http://purl.org/dc/dcmitype/StillImage" />
        <dc:title></dc:title>
      </cc:Work>
    </rdf:RDF>
  </metadata>
  <g
     id="layer1"
     inkscape:label="Layer 1"
     inkscape:groupmode="layer">
    <g
       id="g4616"
       inkscape:export-xdpi="180"
       inkscape:export-ydpi="180">
      <rect
         y="0"
         x="0"
         height="32"
         width="32"
         id="rect3771"
         style="fill:#212178;fill-opacity:1;stroke:none" />
      <path
         id="path3779"
         d="M 0,0 0,7.65625 C 0.15218478,5.8823099 3.5090494,2.9043516 3,1 2.8994669,0.62390627 2.7398502,0.30383692 2.5625,0 L 0,0 z M 6.71875,0 C 5.6041082,0.1754371 4.4938604,0.80771531 4,2 3.311381,3.6624737 6.688619,6.3375263 6,8 5.311381,9.662474 3.201049,10.194903 2,10 0.798951,9.805097 0.3291795,9.709292 0,8 l 0,2.4375 C 0.54199452,11.015935 0.8629808,11.340859 0,12 l 0,0.90625 C 0.83066565,13.064731 1.5904992,13.385749 2,14 2.942809,15.414214 2.340329,18.444817 1,19 0.58114716,19.173495 0.27414764,19.005 0,18.71875 L 0,20 c 0.6005245,-0.09745 0.8428519,0.03161 1,1 0.07497,0.461986 -0.46007884,1.03845 -1,1.6875 L 0,26.625 C 0.84079312,27.467489 2.0276892,28.0691 3,28 4.536565,27.8908 5.8908,26.536565 6,25 6.1092,23.463435 2.722915,22.173749 3,21 c 0.277085,-1.173749 1.102539,-0.936219 2,-1 0.897461,-0.06378 2.302024,0.03161 3,1 0.697976,0.96839 -0.961446,2.827224 0,4 0.961446,1.172776 3.585786,1.942809 5,1 1.414214,-0.942809 2.067111,-3.698334 1,-5 -1.067111,-1.301666 -4.175042,0.824958 -5,0 -0.824958,-0.824958 -0.440837,-1.176288 0,-2 0.440837,-0.823712 1.698334,-2.12889 3,-2 1.301666,0.12889 1.350084,3 3,3 1.649916,0 4,-2.114382 4,-4 0,-1.885618 -2.228326,-4.125909 -4,-4 -1.771674,0.125909 -1.698545,3.907508 -3,4 -1.301455,0.09249 -1.864793,-1.166817 -2,-2 -0.135207,-0.833183 0.173263,-1.336815 1,-2 0.826737,-0.663185 3.064255,0.19848 4,-1 C 15.935745,9.80152 16.06066,7.06066 15,6 13.93934,4.9393398 12.172776,5.0385538 11,6 9.827224,6.9614462 10.915,10.249883 10,11 9.085005,11.750117 8.600569,11.371172 8,11 7.399431,10.628828 6.902163,10.571486 7,9 7.09784,7.428514 11.188104,4.8996669 11,3 10.811896,1.1003331 9.433708,0.2326587 8,0 L 6.71875,0 z M 4.375,11.8125 c 0.1187754,-0.02948 0.286894,-0.0271 0.71875,0 C 5.957462,11.866702 8.214349,11.686774 9,13 9.785651,14.313226 9.06067,16.887615 8,18 6.939325,19.112385 4.935745,19.730608 4,19 3.064255,18.269392 4.164515,17.013784 4,16 3.835485,14.986216 2.824756,13.742344 3,13 3.175244,12.257656 3.626415,12.193348 4,12 4.1867925,11.903326 4.2562246,11.841982 4.375,11.8125 z"
         style="fill:#00002b;fill-opacity:0.37617553;stroke:none"
         inkscape:connector-curvature="0" />
      <path
         id="path3788"
         d="M 27.375,0 C 27.222179,0.29596353 27.088993,0.62302087 27,1 c -0.533956,2.2618748 3.227837,6.135834 4,8 0.287171,0.6932932 0.679076,1.094999 1,1.4375 L 32,8 C 31.979426,7.8931693 31.989854,7.7745127 32,7.65625 L 32,0 27.375,0 z M 26.40625,7.96875 C 26.27107,7.954726 26.132545,7.9701951 26,8 c -2.12072,0.476878 -3.480103,3.3513 -3,5 0.480103,1.6487 2.798951,2.194903 4,2 1.201049,-0.194903 0.735451,-1.617125 2,-2 0.715303,-0.216577 1.918193,-0.300146 3,-0.09375 L 32,12 C 30.711907,12.98384 28.433943,8.1791097 26.40625,7.96875 z M 30,17 c -1.413669,0.242151 -3.508733,2.567113 -3,4 0.508733,1.432887 3.037102,1.442871 4,1 0.962898,-0.442871 0.399475,-1.902548 1,-2 l 0,-1.28125 C 31.396875,18.089054 30.971897,16.833521 30,17 z m 2,5.6875 c -0.591833,0.711454 -1.189673,1.509033 -1,2.3125 0.133193,0.564215 0.512069,1.136084 1,1.625 l 0,-3.9375 z"
         style="fill:#00002b;fill-opacity:0.37617553;stroke:none"
         inkscape:connector-curvature="0" />
      <path
         id="path3777"
         d="M 15.375,10.4375 C 14.837014,10.483476 14.353553,10.646447 14,11 c -0.942809,0.942809 -0.942809,3.057191 0,4 0.942809,0.942809 3.115881,-0.546416 4,0 0.884119,0.546416 1.235702,1.292893 1,2 -0.235702,0.707107 -0.656487,1.0516 -2,1 -1.343513,-0.0516 -3.3513,-3.480103 -5,-3 -1.6487,0.480103 -2.4714045,2.585786 -2,4 0.471405,1.414214 2.65632,2.08365 4,2 1.34368,-0.08365 1.698334,-2.12889 3,-2 1.301666,0.12889 3.172962,1.934158 3,3 -0.172962,1.06584 -0.988459,0.761208 -2,1 -1.011541,0.238792 -3.057191,-0.942809 -4,0 -0.942809,0.942809 -0.833176,2.932887 0,4 0.833176,1.06711 2.821489,1.707107 4,1 1.178511,-0.707107 0.06425,-3.269392 1,-4 0.935745,-0.730608 2.102539,-0.37174 3,0 0.897461,0.37174 2.275246,0.659025 2,2 -0.275246,1.340975 -4.416151,0.464361 -5,2 -0.583849,1.535639 0.798862,3.257656 2,4 l 4,0 c 1.06066,-1.06066 -0.824958,-4.175042 0,-5 0.824958,-0.824958 1.176288,-0.440837 2,0 0.823712,0.440837 0.586331,2.757849 2,3 0.862826,0.147796 2.123982,-0.506881 3,-1.34375 l 0,-3.3125 C 31.686975,25.185152 31.332788,25.078561 31,25 c -0.971741,-0.229397 -2.257656,1.175244 -3,1 -0.742344,-0.175244 -0.84602,-0.62826 -1,-1 -0.15398,-0.37174 -0.447214,-0.105573 0,-1 0.447214,-0.894427 3.637292,-1.463542 4,-3 0.362708,-1.536458 -0.824454,-3.513073 -2,-4 -1.175546,-0.486927 -2.204572,-0.103597 -3,1 -0.795428,1.103597 0.634038,3.974105 0,5 -0.634038,1.02589 -1.166817,1.135207 -2,1 -0.833183,-0.135207 -1.90751,-0.698545 -2,-2 -0.09249,-1.301455 2.782091,-2.657186 3,-4 0.217909,-1.342814 -0.302024,-2.496927 -1,-3 -0.697976,-0.503073 -1.195622,-0.628039 -2,0 -0.804378,0.628039 0.536586,4.03656 -1,4 -1.536586,-0.03656 -0.444817,-3.659671 -1,-5 -0.555183,-1.340329 -0.882396,-2.401877 -2,-3 -0.698503,-0.373827 -1.728357,-0.639126 -2.625,-0.5625 z"
         style="fill:blue;fill-opacity:0.37617553;stroke:none"
         inkscape:connector-curvature="0" />
      <path
         sodipodi:nodetypes="scccs"
         inkscape:connector-curvature="0"
         id="path3940"
         d="m 31,30 c -1.388889,0 -2.860895,0.520182 -3.625,2 L 32,32 32,30.125 C 31.667741,30.046753 31.333333,30 31,30 z"
         style="fill:#00002b;fill-opacity:0.37617553;stroke:none" />
      <path
         id="path3775"
         d="M 11.59375,17.9375 C 10.601324,17.972624 9.454545,19.150674 9,20 8.48052,20.970658 9.458794,22.257656 9,23 8.541206,23.742344 7.600525,24.09745 7,24 6.399475,23.902548 6.175244,23.742344 6,23 5.824756,22.257656 7.366068,21.066918 7,20 6.633932,18.933082 5.178511,17.764298 4,18 c -1.1785113,0.235702 -2.1288904,1.698334 -2,3 0.1288904,1.301666 3,2.057191 3,3 0,0.94281 -0.1106,0.753651 -1,1 -0.8893995,0.246349 -2.8834507,-1.309266 -4,-1 l 0,4 c 1.201049,0.194903 3,-1.5 4,-2 1,-0.5 1.312875,-0.837792 2,-1 0.687125,-0.162208 1.862182,-0.84927 2,0 0.137818,0.84927 -2.399475,0.166817 -3,1 -0.600525,0.833183 -0.833183,2.399475 0,3 0.833183,0.600525 2.3203,-0.410499 3,-1 0.6797,-0.589501 0.399431,-1.628828 1,-2 0.600569,-0.371172 1.528595,-0.471405 2,0 0.471405,0.471405 0.503073,1.302024 0,2 -0.503073,0.697976 -2.770603,0.02826 -3,1 -0.229397,0.971741 1.166817,1.864793 2,2 0.833183,0.135207 1.628828,-0.399431 2,-1 0.371172,-0.600569 -0.353553,-1.646447 0,-2 0.353553,-0.353553 0.265344,-0.222436 1,0 0.734656,0.222436 1.821489,2.235702 3,2 1.178511,-0.235702 2.105665,-1.932889 2,-3 -0.105665,-1.067111 -1.057191,-2 -2,-2 -0.942809,0 -1.410499,1.755821 -2,2 -0.589501,0.244179 -0.646447,0.353553 -1,0 -0.353553,-0.353553 -0.503073,-1.302024 0,-2 0.503073,-0.697976 2.528595,-0.05719 3,-1 0.471405,-0.942809 -0.168763,-2.65569 -1,-3 -0.831237,-0.34431 -1.410499,0.3203 -2,1 -0.589501,0.6797 -0.302024,2.496927 -1,3 -0.697976,0.503073 -1.528595,0.471405 -2,0 -0.471405,-0.471405 -0.440837,-1.176288 0,-2 0.440837,-0.823712 2.633932,-0.933082 3,-2 0.366068,-1.066918 0.06692,-2.633932 -1,-3 -0.133365,-0.04576 -0.264475,-0.06752 -0.40625,-0.0625 z"
         style="fill:#55f;fill-opacity:0.37617553;stroke:none"
         inkscape:connector-curvature="0" />
      <path
         id="path3942"
         d="M 0,30.125 0,32 2.5625,32 C 1.9715362,30.987559 1.0207766,30.369273 0,30.125 z m 7.4375,1.8125 C 7.197735,31.933172 6.9640434,31.961393 6.71875,32 L 8,32 C 7.8207865,31.970918 7.6273979,31.940928 7.4375,31.9375 z"
         style="fill:#00002b;fill-opacity:0.37617553;stroke:none"
         inkscape:connector-curvature="0" />
      <path
         id="path3784"
         d="M 5.09375,0 C 4.9895364,0.32185894 4.9668516,0.66523245 5,1 5.12889,2.301666 6.566292,4.232659 8,4 9.3178372,3.7861443 8.6181557,0.28374197 9.6875,0 L 5.09375,0 z M 10,0 c 1.536458,0.362708 -0.795428,3.896403 0,5 0.795428,1.103597 2.028259,1.229397 3,1 C 13.971741,5.770603 15.092492,5.301455 15,4 14.90751,2.698545 10.891693,2.201138 11,1 11.050769,0.43696656 11.291802,0.14454712 11.625,0 L 10,0 z m 3,0 c 0.940987,0.249893 0.794579,2.192739 2,3 1.205421,0.807261 3.939325,2.112385 5,1 1.060675,-1.112385 0.06711,-3.166824 -1,-4 L 17.0625,0 C 16.134277,0.26027463 15.244981,0.59143556 15,0 l -2,0 z"
         style="fill:#4848dc;fill-opacity:0.37617553;stroke:none"
         inkscape:connector-curvature="0" />
      <path
         id="path3786"
         d="M 16.5625,22.96875 C 15.503341,22.984434 14.388903,23.747858 14,25 c -0.44446,1.431019 1.599387,3.707659 1,5 -0.599387,1.292341 -1.028259,1.229397 -2,1 -0.971741,-0.229397 -1.805097,-0.798951 -2,-2 -0.194903,-1.201049 2.353553,-2.93934 2,-4 -0.353553,-1.06066 -1.028278,-1.060497 -2,-1 -0.971722,0.0605 -2.764298,0.821489 -3,2 -0.235702,1.178511 1.729267,2.105829 2,3 0.270733,0.894171 0.697976,1.496927 0,2 C 9.302024,31.503073 8.066918,29.633932 7,30 6.2074761,30.271921 5.3947468,31.070385 5.09375,32 L 9.6875,32 C 9.781522,31.97505 9.8758251,31.97069 10,32 l 1.625,0 c 0.377625,-0.16382 0.875101,-0.132756 1.375,0 l 2,0 c -0.435521,-1.051441 0.883451,-1.690734 2,-2 1.116549,-0.309266 2.798552,1.464488 4,1 1.201448,-0.464488 2.105665,-1.932889 2,-3 -0.105665,-1.067111 -0.821489,-2 -2,-2 -1.178511,0 -2.057191,3 -3,3 -0.942809,0 -1,-0.292893 -1,-1 0,-0.707107 1.894335,-0.932889 2,-2 0.105665,-1.067111 -0.821489,-2.764298 -2,-3 -0.147314,-0.02946 -0.286192,-0.03349 -0.4375,-0.03125 z M 18,31.78125 C 17.706753,31.813567 17.371908,31.913242 17.0625,32 L 19,32 c -0.266778,-0.208294 -0.609004,-0.261839 -1,-0.21875 z"
         style="fill:#4848dc;fill-opacity:0.37617553;stroke:none"
         inkscape:connector-curvature="0" />
      <path
         id="path3790"
         d="m 21,0 c 1.201138,0.742344 2.93934,1.06066 4,0 l -4,0 z"
         style="fill:blue;fill-opacity:0.37617553;stroke:none"
         inkscape:connector-curvature="0" />
      <path
         id="path3792"
         d="m 32,24 c -1.116549,0.309266 -2,1.057191 -2,2 0,0.942809 0.798951,1.805097 2,2 l 0,-4 z"
         style="fill:#55f;fill-opacity:0.37617553;stroke:none"
         inkscape:connector-curvature="0" />
      <path
         id="path3936"
         d="m 0,25.34375 0,3.3125 C 0.55926584,28.121978 0.96396079,27.507119 1,27 1.0608167,26.144249 0.60100853,25.648258 0,25.34375 z"
         style="fill:blue;fill-opacity:0.37617553;stroke:none"
         inkscape:connector-curvature="0" />
      <path
         id="path3773"
         d="M 17.65625,0 C 17.347209,0.28334381 17.110954,0.61897695 17,1 c -0.543421,1.8661382 2.92541,3.0577812 3,5 0.0286,0.7448069 -0.365962,1.6081432 -1,2 -0.850651,0.5257311 -2.188758,-0.5847103 -3,0 -0.855124,0.6163388 -1.242181,1.974105 -1,3 0.216613,0.917588 1.058634,1.94786 2,2 2.131109,0.118032 3.076281,-4.9245871 5,-4 0.600869,0.288792 0.350487,1.432899 0,2 -0.391857,0.634038 -1.608143,0.365962 -2,1 -0.525731,0.850651 -0.707107,2.292893 0,3 0.942809,0.942809 3.057191,0.942809 4,0 0.471405,-0.471405 0,-1.333333 0,-2 0,-0.666667 -0.153169,-1.351167 0,-2 0.171248,-0.725417 0.365962,-1.608143 1,-2 0.567101,-0.3504874 1.351167,-0.1531686 2,0 0.725417,0.171248 2.05284,0.256519 2,1 -0.07472,1.05144 -2.492761,0.07598 -3,1 -0.661359,1.204779 -0.204779,3.338641 1,4 0.924024,0.507239 2.383661,-0.144876 3,-1 0.58471,-0.811242 -0.525731,-2.149349 0,-3 0.391857,-0.634038 1.264268,-1.119393 2,-1 L 32,0 31.125,0 C 30.59265,0.57921222 30.189393,1.3162314 30,2 29.633135,3.3244995 31.366865,4.6755005 31,6 30.748333,6.9085991 29.942809,8 29,8 28.057191,8 27.189567,6.9235547 27,6 26.639076,4.2416042 29.532436,2.7142737 29,1 28.886573,0.63480217 28.666091,0.29996085 28.375,0 L 24.5,0 C 24.274557,0.31180242 24.101634,0.66432394 24,1 23.507462,2.6267436 25.492538,4.3732564 25,6 24.726789,6.902355 23.942809,8 23,8 22.057191,8 21.189567,6.9235547 21,6 20.639076,4.2416042 23.360924,2.7583958 23,1 22.928912,0.65366699 22.762747,0.30592254 22.53125,0 l -4.875,0 z"
         style="fill:#7575d9;fill-opacity:0.37617552;stroke:none"
         inkscape:connector-curvature="0" />
      <path
         id="path3794"
         d="m 0,0 0,10 c 0.465317,0.07551 0.819601,0.564479 1,1 0.637806,1.539799 -1.178511,3.821489 0,5 1.178511,1.178511 3.821489,1.178511 5,0 C 6.707107,15.292893 6.525731,13.850651 6,13 5.608143,12.365962 4.604664,12.435817 4,12 3.617577,11.724365 3.07551,11.465317 3,11 2.880607,10.264268 3.365962,9.391857 4,9 5.134201,8.2990252 6.824434,9.629144 8,9 9.059641,8.4328974 10.235702,7.1785113 10,6 9.764298,4.8214887 8.196001,3.8815725 7,4 5.592669,4.1393532 5.14727,6.1730948 4,7 3.395336,7.4358173 2.707107,8.2357023 2,8 1.292893,7.7642977 1.03098,6.7447121 1,6 0.9254,4.2064959 3.360924,2.7583958 3,1 2.9314213,0.66589051 2.780015,0.31592471 2.5625,0 L 0,0 z"
         style="fill:#7575d9;fill-opacity:0.37617552;stroke:none"
         inkscape:connector-curvature="0" />
      <path
         id="path3934"
         d="M 20.4375,30.96875 C 19.466459,30.978605 18.362972,31.352043 17.65625,32 l 4.875,0 C 22.145422,31.490129 21.581647,31.094388 21,31 20.816067,30.970152 20.636881,30.966726 20.4375,30.96875 z M 26,31 c -0.589203,0.05834 -1.119414,0.473624 -1.5,1 l 3.875,0 C 27.751233,31.357227 26.815455,30.919254 26,31 z m 6,0.28125 C 31.684116,31.454834 31.388467,31.713341 31.125,32 L 32,32 32,31.28125 z"
         style="fill:#7575d9;fill-opacity:0.37617552;stroke:none"
         inkscape:connector-curvature="0" />
      <path
         id="path3938"
         d="M 1,31 C 0.6464465,31 0.31460717,31.103705 0,31.28125 L 0,32 2.5625,32 C 2.178754,31.442637 1.601734,31 1,31 z"
         style="fill:#7575d9;fill-opacity:0.37617552;stroke:none"
         inkscape:connector-curvature="0" />
    </g>
  </g>
</svg>
