<?xml version="1.0" encoding="UTF-8" standalone="no"?>
<!-- Created with Inkscape (http://www.inkscape.org/) -->

<svg
   xmlns:dc="http://purl.org/dc/elements/1.1/"
   xmlns:cc="http://creativecommons.org/ns#"
   xmlns:rdf="http://www.w3.org/1999/02/22-rdf-syntax-ns#"
   xmlns:svg="http://www.w3.org/2000/svg"
   xmlns="http://www.w3.org/2000/svg"
   xmlns:sodipodi="http://sodipodi.sourceforge.net/DTD/sodipodi-0.dtd"
   xmlns:inkscape="http://www.inkscape.org/namespaces/inkscape"
   width="32px"
   height="32px"
   id="svg3505"
   sodipodi:version="0.32"
   inkscape:version="0.48.5 r10040"
   sodipodi:docname="02.svg"
   inkscape:output_extension="org.inkscape.output.svg.inkscape"
   version="1.1">
  <defs
     id="defs3507">
    <inkscape:perspective
       sodipodi:type="inkscape:persp3d"
       inkscape:vp_x="0 : 16 : 1"
       inkscape:vp_y="0 : 1000 : 0"
       inkscape:vp_z="32 : 16 : 1"
       inkscape:persp3d-origin="16 : 10.666667 : 1"
       id="perspective3513" />
    <inkscape:perspective
       id="perspective4690"
       inkscape:persp3d-origin="372.04724 : 350.78739 : 1"
       inkscape:vp_z="744.09448 : 526.18109 : 1"
       inkscape:vp_y="0 : 1000 : 0"
       inkscape:vp_x="0 : 526.18109 : 1"
       sodipodi:type="inkscape:persp3d" />
  </defs>
  <sodipodi:namedview
     id="base"
     pagecolor="#ffffff"
     bordercolor="#666666"
     borderopacity="1.0"
     inkscape:pageopacity="0.0"
     inkscape:pageshadow="2"
     inkscape:zoom="16.375"
     inkscape:cx="16"
     inkscape:cy="16"
     inkscape:current-layer="layer1"
     showgrid="true"
     inkscape:grid-bbox="true"
     inkscape:document-units="px"
     objecttolerance="4"
     gridtolerance="4"
     guidetolerance="4"
     inkscape:window-width="1024"
     inkscape:window-height="741"
     inkscape:window-x="0"
     inkscape:window-y="2"
     inkscape:object-paths="true"
     inkscape:object-nodes="true"
     inkscape:snap-bbox="true"
     inkscape:snap-guide="true"
     inkscape:window-maximized="1">
    <inkscape:grid
       type="xygrid"
       id="grid3515"
       units="px"
       visible="true"
       enabled="true"
       spacingx="1px"
       spacingy="1px" />
  </sodipodi:namedview>
  <metadata
     id="metadata3510">
    <rdf:RDF>
      <cc:Work
         rdf:about="">
        <dc:format>image/svg+xml</dc:format>
        <dc:type
           rdf:resource="http://purl.org/dc/dcmitype/StillImage" />
        <dc:title>McMinos frontal 02</dc:title>
        <dc:date>2010-04-26</dc:date>
        <dc:creator>
          <cc:Agent>
            <dc:title>Andreas Neudecker &lt;zapyon@gmx.net&gt;</dc:title>
          </cc:Agent>
        </dc:creator>
        <dc:rights>
          <cc:Agent>
            <dc:title>Copyright (C) 2010 by Andreas Neudecker</dc:title>
          </cc:Agent>
        </dc:rights>
        <dc:publisher>
          <cc:Agent>
            <dc:title>Andreas Neudecker</dc:title>
          </cc:Agent>
        </dc:publisher>
        <dc:identifier>mcminos-front-02</dc:identifier>
        <dc:description>McMinos, frontal, animation step 02.</dc:description>
      </cc:Work>
    </rdf:RDF>
  </metadata>
  <g
     id="layer1"
     inkscape:label="Layer 1"
     inkscape:groupmode="layer">
    <path
       sodipodi:type="arc"
       style="fill:#000000;fill-opacity:1;fill-rule:nonzero;stroke:none;stroke-width:1;stroke-linecap:butt;stroke-linejoin:miter;stroke-miterlimit:4;stroke-dasharray:none;stroke-dashoffset:0;stroke-opacity:1"
       id="path4818"
       sodipodi:cx="260.2963"
       sodipodi:cy="136.06313"
       sodipodi:rx="14.367003"
       sodipodi:ry="15.000842"
       d="M 274.6633,136.06313 A 14.367003,15.000842 0 1 1 245.92929,136.06313 A 14.367003,15.000842 0 1 1 274.6633,136.06313 z"
       transform="matrix(1.0440591,0,0,0.9999439,-255.76471,-120.05549)" />
    <path
       sodipodi:type="arc"
       style="fill:#ff0000;fill-opacity:1;fill-rule:nonzero;stroke:none;stroke-width:0.1;stroke-linecap:round;stroke-linejoin:round;stroke-miterlimit:4;stroke-dasharray:none;stroke-dashoffset:0;stroke-opacity:1"
       id="path3403"
       sodipodi:cx="7.9652176"
       sodipodi:cy="8"
       sodipodi:rx="6.9913044"
       sodipodi:ry="6.9913044"
       d="M 14.956522,8 A 6.9913044,6.9913044 0 1 1 0.97391319,8 A 6.9913044,6.9913044 0 1 1 14.956522,8 z"
       transform="matrix(2.0024876,0,0,2.0024876,4.9747218e-2,-1.9905116e-2)" />
    <path
       sodipodi:type="arc"
       style="fill:#ffffff;fill-opacity:1;fill-rule:nonzero;stroke:none;stroke-width:1;stroke-linecap:butt;stroke-linejoin:miter;stroke-miterlimit:4;stroke-dasharray:none;stroke-dashoffset:0;stroke-opacity:1"
       id="path3429"
       sodipodi:cx="28.15704"
       sodipodi:cy="51.823883"
       sodipodi:rx="4.1570387"
       sodipodi:ry="3.8238845"
       d="M 32.314078,51.823883 A 4.1570387,3.8238845 0 1 1 24.000001,51.823883"
       transform="matrix(3.127226,0,0,0.5230265,-72.05343,-11.105257)"
       sodipodi:start="0"
       sodipodi:end="3.1415927"
       sodipodi:open="true" />
    <path
       transform="matrix(2,0,0,2,-7.0000028,-5.1161847e-6)"
       sodipodi:type="arc"
       style="fill:#ffffff;fill-opacity:1;fill-rule:nonzero;stroke:none;stroke-width:0.1;stroke-linecap:round;stroke-linejoin:round;stroke-miterlimit:4;stroke-dasharray:none;stroke-dashoffset:0;stroke-opacity:1"
       id="path3407"
       sodipodi:cx="8"
       sodipodi:cy="5"
       sodipodi:rx="2"
       sodipodi:ry="2"
       d="M 10,5 A 2,2 0 1 1 6,5 A 2,2 0 1 1 10,5 z" />
    <path
       d="M 10,5 A 2,2 0 1 1 6,5 A 2,2 0 1 1 10,5 z"
       sodipodi:ry="2"
       sodipodi:rx="2"
       sodipodi:cy="5"
       sodipodi:cx="8"
       id="path3425"
       style="fill:#ffffff;fill-opacity:1;fill-rule:nonzero;stroke:none;stroke-width:0.1;stroke-linecap:round;stroke-linejoin:round;stroke-miterlimit:4;stroke-dasharray:none;stroke-dashoffset:0;stroke-opacity:1"
       sodipodi:type="arc"
       transform="matrix(2,0,0,2,6.999997,-5.1161847e-6)" />
    <path
       sodipodi:type="arc"
       style="fill:black;fill-opacity:1;fill-rule:nonzero;stroke:none"
       id="path3409"
       sodipodi:cx="8"
       sodipodi:cy="5"
       sodipodi:rx="1"
       sodipodi:ry="1"
       d="M 9,5 A 1,1 0 1 1 7,5 1,1 0 1 1 9,5 z"
       transform="matrix(2,0,0,2,-7,0)" />
    <path
       transform="matrix(2,0,0,2,7,0)"
       d="M 9,5 A 1,1 0 1 1 7,5 1,1 0 1 1 9,5 z"
       sodipodi:ry="1"
       sodipodi:rx="1"
       sodipodi:cy="5"
       sodipodi:cx="8"
       id="path3427"
       style="fill:black;fill-opacity:1;fill-rule:nonzero;stroke:none"
       sodipodi:type="arc" />
    <path
       style="fill:#f0ffff;fill-opacity:1;fill-rule:nonzero;stroke:none;stroke-width:1;stroke-linecap:butt;stroke-linejoin:miter;stroke-miterlimit:4;stroke-dasharray:none;stroke-dashoffset:0;stroke-opacity:1"
       d="M 3 16 C 3 16.271835 3.3605599 16.544907 4 16.78125 L 4 16 L 3 16 z M 8 16 L 8 17.5625 C 9.1870459 17.706153 10.532202 17.832814 12 17.90625 L 12 16 L 8 16 z M 16 16 L 16 18 C 17.402849 18 18.733901 17.969595 20 17.90625 L 20 16 L 16 16 z M 24 16 L 24 17.5625 C 25.737055 17.352286 27.138739 17.09958 28 16.78125 L 28 16 L 24 16 z "
       id="rect3449" />
    <path
       sodipodi:end="6.2831853"
       sodipodi:start="3.1415927"
       transform="matrix(3.3677824,0,0,1.7603396e-6,-78.826783,15.999905)"
       d="M 24.000001,51.823883 A 4.1570387,0.76477689 0 0 1 32.314078,51.823883"
       sodipodi:ry="0.76477689"
       sodipodi:rx="4.1570387"
       sodipodi:cy="51.823883"
       sodipodi:cx="28.15704"
       id="path3443"
       style="fill:#ffffff;fill-opacity:1;fill-rule:nonzero;stroke:none;stroke-width:1;stroke-linecap:butt;stroke-linejoin:miter;stroke-miterlimit:4;stroke-dasharray:none;stroke-dashoffset:0;stroke-opacity:1"
       sodipodi:type="arc"
       sodipodi:open="true" />
  </g>
</svg>
