<?xml version="1.0" encoding="UTF-8" standalone="no"?>
<!-- Created with Inkscape (http://www.inkscape.org/) -->

<svg xmlns:dc="http://purl.org/dc/elements/1.1/" xmlns:cc="http://creativecommons.org/ns#" xmlns:rdf="http://www.w3.org/1999/02/22-rdf-syntax-ns#" xmlns:svg="http://www.w3.org/2000/svg" xmlns="http://www.w3.org/2000/svg" xmlns:sodipodi="http://sodipodi.sourceforge.net/DTD/sodipodi-0.dtd" xmlns:inkscape="http://www.inkscape.org/namespaces/inkscape" width="32" height="32" id="svg3259" version="1.1" inkscape:version="0.91 r13725" sodipodi:docname="00.svg">
  <defs id="defs3261" />
  <sodipodi:namedview id="base" pagecolor="#ffffff" bordercolor="#666666" borderopacity="1.0" inkscape:pageopacity="0.0" inkscape:pageshadow="2" inkscape:zoom="22.125" inkscape:cx="9.559322" inkscape:cy="16" inkscape:document-units="px" inkscape:current-layer="layer6" showgrid="true" gridtolerance="17" showguides="true" inkscape:guide-bbox="true" inkscape:window-width="1600" inkscape:window-height="878" inkscape:window-x="0" inkscape:window-y="0" inkscape:window-maximized="1" guidetolerance="15">
    <inkscape:grid type="xygrid" id="grid3267" empspacing="4" visible="true" enabled="true" snapvisiblegridlinesonly="true" />
    <sodipodi:guide orientation="1,0" position="16,36" id="guide3269" />
    <sodipodi:guide orientation="0,1" position="-4,16" id="guide3271" />
    <sodipodi:guide orientation="-0.70710678,0.70710678" position="15,15" id="guide3860" />
    <sodipodi:guide orientation="-0.70710678,0.70710678" position="8,4" id="guide3864" />
    <sodipodi:guide orientation="-0.70710678,0.70710678" position="-4,12" id="guide3870" />
  </sodipodi:namedview>
  <metadata id="metadata3264">
    <rdf:RDF>
      <cc:Work rdf:about="">
        <dc:format>image/svg+xml</dc:format>
        <dc:type rdf:resource="http://purl.org/dc/dcmitype/StillImage" />
        <dc:title></dc:title>
      </cc:Work>
    </rdf:RDF>
  </metadata>
  <g inkscape:label="Ground level" inkscape:groupmode="layer" id="layer1" transform="translate(0,-1020.3622)">
    <path style="fill:black;fill-opacity:0.50196078;fill-rule:nonzero;stroke:none" d="M 5 8.59375 L 5 11.28125 A 12 12 0 0 1 5.96875 9.4375 A 4 4 0 0 1 5.1875 8.8125 A 4 4 0 0 1 5 8.59375 z M 7.90625 20.125 A 5 5 0 0 0 7.0625 20.40625 C 7.331686 20.29235 7.615415 20.191 7.90625 20.125 z M 27 20.8125 A 12 12 0 0 1 26 22.65625 L 26 24.5625 A 4 4 0 0 1 27 24.125 L 27 20.8125 z M 13.21875 22.3125 C 13.372058 22.5509 13.48215 22.7986 13.59375 23.0625 A 5 5 0 0 0 13.21875 22.3125 z M 25 23.96875 A 12 12 0 0 1 24.5 24.5 A 12 12 0 0 1 24 24.9375 L 24 29.46875 A 1.5000021 1.5000021 0 0 1 24 29.625 L 24 32 L 25 32 L 25 30.59375 A 4 4 0 0 1 25 25.40625 L 25 23.96875 z M 23 25.75 A 12 12 0 0 1 22 26.40625 L 22 28.09375 A 1.5000021 1.5000021 0 0 1 22.375 28 A 1.5000021 1.5000021 0 0 1 22.53125 28 A 1.5000021 1.5000021 0 0 1 22.875 28.0625 A 1.5000021 1.5000021 0 0 1 23 28.09375 L 23 25.75 z M 21 26.90625 A 12 12 0 0 1 20 27.3125 L 20 32 L 21 32 L 21 29.65625 A 1.5000021 1.5000021 0 0 1 21 29.375 L 21 26.90625 z M 19 27.625 A 12 12 0 0 1 18 27.8125 L 18 32 L 19 32 L 19 27.625 z M 5 30.21875 L 5 32 L 6 32 L 6 30.90625 A 8 8 0 0 1 5 30.21875 z M 14 30.9375 A 8 8 0 0 1 13 31.40625 L 13 32 L 14 32 L 14 30.9375 z M 22 30.9375 L 22 32 L 23 32 L 23 30.9375 A 1.5000021 1.5000021 0 0 1 22 30.9375 z M 7 31.40625 L 7 32 L 8 32 L 8 31.75 A 8 8 0 0 1 7 31.40625 z M 26 31.4375 L 26 32 L 27 32 L 27 31.84375 A 4 4 0 0 1 26 31.4375 z M 12 31.71875 A 8 8 0 0 1 11 31.9375 L 11 32 L 12 32 L 12 31.71875 z M 9 31.9375 L 9 32 L 10 32 A 8 8 0 0 1 9 31.9375 z " transform="translate(0,1020.3622)" id="rect10236" />
    <path style="fill:black;fill-opacity:0.50196078;fill-rule:nonzero;stroke:none" d="m 5,984.3622 0,5 -5,0 0,1 6,0 0,-6 -1,0 z m 2,0 0,7 -7,0 0,1 8,0 0,-8 -1,0 z m 2,0 0,9 -9,0 0,1 10,0 0,-10 -1,0 z m 2,0 0,11 -11,0 0,1 12,0 0,-12 -1,0 z m 2,0 0,13 -13,0 0,1 14,0 0,-14 -1,0 z m 5,0 0,14 14,0 0,-1 -13,0 0,-13 -1,0 z m 2,0 0,12 12,0 0,-1 -11,0 0,-11 -1,0 z m 2,0 0,10 10,0 0,-1 -9,0 0,-9 -1,0 z m 2,0 0,8 8,0 0,-1 -7,0 0,-7 -1,0 z m 2,0 0,6 6,0 0,-1 -5,0 0,-5 -1,0 z m -26,18 0,1 13,0 0,13 1,0 0,-14 -14,0 z m 18,0 0,14 1,0 0,-13 13,0 0,-1 -14,0 z m -18,2 0,1 11,0 0,11 1,0 0,-12 -12,0 z m 20,0 0,12 1,0 0,-11 11,0 0,-1 -12,0 z m -20,2 0,1 9,0 0,9 1,0 0,-10 -10,0 z m 22,0 0,10 1,0 0,-9 9,0 0,-1 -10,0 z m -22,2 0,1 7,0 0,7 1,0 0,-8 -8,0 z m 24,0 0,8 1,0 0,-7 7,0 0,-1 -8,0 z m -24,2 0,1 5,0 0,5 1,0 0,-6 -6,0 z m 26,0 0,6 1,0 0,-5 5,0 0,-1 -6,0 z" id="path60920" inkscape:connector-curvature="0" />
    <path inkscape:connector-curvature="0" style="fill:gray;fill-opacity:0.25098039;stroke:none" d="m 15,1029.3622 c -4.280003,0 -7.7541826,3.3671 -7.96875,7.5938 a 8,8 0 0 1 3.09375,-0.5938 8,8 0 0 1 1.9375,0.2813 8,8 0 0 1 5.65625,5.6562 8,8 0 0 1 0.25,2.5 C 20.921422,1043.6228 23,1040.7346 23,1037.3622 c 0,-4.4183 -3.581722,-8 -8,-8 z m -1.78125,13.3125 c 0.153308,0.2384 0.2634,0.4861 0.375,0.75 a 5,5 0 0 0 -0.375,-0.75 z" id="path3858" />
    <rect style="fill:none;stroke:none" id="rect10063" width="32" height="32" x="0" y="1020.3622" />
    <path inkscape:connector-curvature="0" style="fill:black;fill-opacity:0.25098039;stroke:none" d="m 16.1875,1024.3622 a 12,12 0 0 0 -4.375,0.75 4,4 0 0 1 0.0625,0.2188 4,4 0 0 1 -1.0625,3.8437 4,4 0 0 1 -1.15625,0.8438 l 0.78125,0.7812 a 8,8 0 0 1 4.5625,-1.4375 8,8 0 0 1 8,8 8,8 0 0 1 -1.4375,4.5625 l 2.9375,2.9375 a 12,12 0 0 0 3.09375,-11.5937 12,12 0 0 0 -0.125,-0.4063 6,6 0 0 1 -6.71875,-1.2187 6,6 0 0 1 -1.1875,-6.7188 12,12 0 0 0 -0.46875,-0.1562 12,12 0 0 0 -2.90625,-0.4063 z m -6.34375,1.6875 c 0.044986,0.129 0.097184,0.2714 0.125,0.4063 a 2.5,2.5 0 0 0 -0.09375,-0.4063 12,12 0 0 0 -0.03125,0 z m 0.125,0.4063 C 9.996566,1026.5908 10,1026.7179 10,1026.8622 a 2.5,2.5 0 0 0 -0.03125,-0.4062 z m 11.78125,5.25 a 4,4 0 0 0 0.6875,0.375 c -0.239277,-0.1013 -0.474699,-0.2313 -0.6875,-0.375 z" id="path3093" />
    <path inkscape:connector-curvature="0" style="fill:#f0f0f0;fill-opacity:0.25098039;stroke:none" d="m 5.96875,1029.7997 a 12,12 0 0 0 -1.6875,4.0938 2.2585649,2.2585649 0 0 1 1.28125,1.5 2.2585649,2.2585649 0 0 1 -0.5625,2.1875 2.2585649,2.2585649 0 0 1 -0.84375,0.5312 12,12 0 0 0 0.125,0.6563 8,8 0 0 1 0.0625,-0.063 8,8 0 0 1 2.65625,-1.75 8,8 0 0 1 0.03125,0 8,8 0 0 1 3.40625,-6.1563 l -0.78125,-0.7812 -0.03125,0 a 4,4 0 0 1 -3.65625,-0.2188 z m 1.6875,10.75 a 5,5 0 0 0 -0.59375,0.2188 c 0.1914214,-0.081 0.390295,-0.1587 0.59375,-0.2188 z m 13.90625,1.375 a 8,8 0 0 1 -3.59375,2.8438 8,8 0 0 1 -1.0625,3.5625 12,12 0 0 0 7.59375,-3.4688 l -2.9375,-2.9375 z" id="path3850" />
    <path inkscape:connector-curvature="0" style="fill:#f0f0f0;fill-opacity:0.25098039;stroke:none" d="m 4.34375,1038.706 a 8,8 0 0 0 0,11.3125 8,8 0 0 0 11.3125,0 l -2.265625,-2.2657 A 5,5 0 0 1 9,1050.3622 a 5,5 0 0 1 -5,-5 5,5 0 0 1 2.6132812,-4.3867 L 4.34375,1038.706 z" id="path3856" />
    <path inkscape:connector-curvature="0" style="fill:black;fill-opacity:0.25098039;stroke:none" d="m 10.117188,1036.3622 a 8,8 0 0 0 -5.773438,2.3438 l 2.2695312,2.2695 A 5,5 0 0 1 9,1040.3622 a 5,5 0 0 1 5,5 5,5 0 0 1 -0.609375,2.3906 l 2.265625,2.2657 a 8,8 0 0 0 2.070312,-7.7266 8,8 0 0 0 -5.65625,-5.6563 8,8 0 0 0 -1.953124,-0.2734 z" id="path3095" />
    <circle r="5" cy="1045.3622" cx="11" id="path3862" style="fill:gray;fill-opacity:0.25098039;stroke:none" sodipodi:cx="11" sodipodi:cy="1045.3622" sodipodi:rx="5" sodipodi:ry="5" transform="translate(-2,0)" />
    <path style="fill:black;fill-opacity:0.25098039;stroke:none" d="m 8.0585938,1022.3622 a 4,4 0 0 0 -2.8867188,1.1719 l 1.1347656,1.1347 A 2.5,2.5 0 0 1 7.5,1024.3622 a 2.5,2.5 0 0 1 2.5,2.5 2.5,2.5 0 0 1 -0.3046875,1.1953 l 1.1328125,1.1328 a 4,4 0 0 0 1.035156,-3.8633 4,4 0 0 0 -2.8281248,-2.8281 4,4 0 0 0 -0.9765624,-0.1367 z" id="path3852" inkscape:connector-curvature="0" />
    <path inkscape:connector-curvature="0" style="fill:#f0f0f0;fill-opacity:0.25098039;stroke:none" d="m 5.171875,1023.5341 a 4,4 0 0 0 0,5.6562 4,4 0 0 0 5.65625,0 l -1.1328125,-1.1328 A 2.5,2.5 0 0 1 7.5,1029.3622 a 2.5,2.5 0 0 1 -2.5,-2.5 2.5,2.5 0 0 1 1.3066406,-2.1934 l -1.1347656,-1.1347 z" id="path3091" />
    <circle r="2.5" cy="1028.8622" cx="7.5" id="path3866" style="fill:gray;fill-opacity:0.25098039;stroke:none" sodipodi:cx="7.5" sodipodi:cy="1028.8622" sodipodi:rx="2.5" sodipodi:ry="2.5" transform="translate(0,-2)" />
    <path inkscape:connector-curvature="0" style="fill:black;fill-opacity:0.25098039;stroke:none" d="m 28.058594,1044.3622 a 4,4 0 0 0 -2.886719,1.1719 l 1.134766,1.1347 a 2.5,2.5 0 0 1 1.193359,-0.3066 2.5,2.5 0 0 1 2.5,2.5 2.5,2.5 0 0 1 -0.304688,1.1953 l 1.132813,1.1328 a 4,4 0 0 0 1.035156,-3.8633 4,4 0 0 0 -2.828125,-2.8281 4,4 0 0 0 -0.976562,-0.1367 z" id="path3097" />
    <path inkscape:connector-curvature="0" style="fill:#f0f0f0;fill-opacity:0.25098039;stroke:none" d="m 25.171875,1045.5341 a 4,4 0 0 0 0,5.6562 4,4 0 0 0 5.65625,0 l -1.132813,-1.1328 a 2.5,2.5 0 0 1 -2.195312,1.3047 2.5,2.5 0 0 1 -2.5,-2.5 2.5,2.5 0 0 1 1.306641,-2.1934 l -1.134766,-1.1347 z" id="path3099" />
    <circle r="2.5" cy="1044.8622" cx="25.5" style="fill:gray;fill-opacity:0.25098039;stroke:none" id="path3101" sodipodi:cx="25.5" sodipodi:cy="1044.8622" sodipodi:rx="2.5" sodipodi:ry="2.5" transform="translate(2,4)" />
    <path inkscape:connector-curvature="0" style="fill:black;fill-opacity:0.25098039;stroke:none" d="m 3.4199219,1033.7274 a 2.2585649,2.2585649 0 0 0 -1.6289063,0.6621 l 0.640625,0.6407 a 1.4116032,1.4116032 0 0 1 0.6738282,-0.1739 1.4116032,1.4116032 0 0 1 1.4121093,1.4122 1.4116032,1.4116032 0 0 1 -0.1738281,0.6738 l 0.640625,0.6406 a 2.2585649,2.2585649 0 0 0 0.5859375,-2.1816 2.2585649,2.2585649 0 0 0 -1.5976563,-1.5977 2.2585649,2.2585649 0 0 0 -0.5527343,-0.076 z" id="path4196" />
    <path inkscape:connector-curvature="0" style="fill:#f0f0f0;fill-opacity:0.25098039;stroke:none" d="m 1.7910156,1034.3895 a 2.2585649,2.2585649 0 0 0 0,3.1934 2.2585649,2.2585649 0 0 0 3.1933594,0 l -0.640625,-0.6406 a 1.4116032,1.4116032 0 0 1 -1.2382812,0.7383 1.4116032,1.4116032 0 0 1 -1.4121094,-1.4121 1.4116032,1.4116032 0 0 1 0.7382812,-1.2383 l -0.640625,-0.6407 z" id="path4198" />
    <circle style="fill:gray;fill-opacity:0.25098039;stroke:none" id="path4200" cx="5.1055269" cy="1038.2683" r="1.4116032" sodipodi:cx="5.1055269" sodipodi:cy="1038.2683" sodipodi:rx="1.4116032" sodipodi:ry="1.4116032" transform="translate(-2,-2)" />
    <path inkscape:connector-curvature="0" style="fill:black;fill-opacity:0.25098039;stroke:none" d="m 25.086984,1021.3999 a 6,6 0 0 0 -4.330078,1.7578 l 1.599609,1.5996 a 4,4 0 0 1 1.642578,-0.3574 4,4 0 0 1 4,4 4,4 0 0 1 -0.357421,1.6426 l 1.599609,1.5996 a 6,6 0 0 0 1.552734,-5.7949 6,6 0 0 0 -4.242187,-4.2442 6,6 0 0 0 -1.464844,-0.2031 z" id="path5218" />
    <circle id="circle5220" style="fill:gray;fill-opacity:0.25098039;stroke:none" cx="1.8653295" cy="1028.0785" r="4" sodipodi:cx="1.8653295" sodipodi:cy="1028.0785" sodipodi:rx="4" sodipodi:ry="4" transform="translate(22.133859,0.32091688)" />
    <path id="path5290" d="m 2.5209177,1022.3626 a 1.5000021,1.5000021 0 0 0 -1.0818209,0.4397 l 0.4254643,0.4255 a 0.93750139,0.93750139 0 0 1 0.4475159,-0.1155 0.93750139,0.93750139 0 0 1 0.9378375,0.9378 0.93750139,0.93750139 0 0 1 -0.1154461,0.4476 l 0.4254643,0.4254 a 1.5000021,1.5000021 0 0 0 0.3891443,-1.4489 1.5000021,1.5000021 0 0 0 -1.0610666,-1.0611 1.5000021,1.5000021 0 0 0 -0.3670927,-0.05 z" style="fill:black;fill-opacity:0.25098039;stroke:none" inkscape:connector-curvature="0" />
    <path id="path5292" d="m 1.4390968,1022.8023 a 1.5000021,1.5000021 0 0 0 0,2.1208 1.5000021,1.5000021 0 0 0 2.1208359,0 l -0.4254643,-0.4254 a 0.93750139,0.93750139 0 0 1 -0.8223914,0.4903 0.93750139,0.93750139 0 0 1 -0.9378376,-0.9379 0.93750139,0.93750139 0 0 1 0.4903217,-0.8223 l -0.4254643,-0.4255 z" style="fill:#f0f0f0;fill-opacity:0.25098039;stroke:none" inkscape:connector-curvature="0" />
    <circle r="1.4116032" cy="1038.2683" cx="5.1055269" id="circle5294" style="fill:gray;fill-opacity:0.25098039;stroke:none" sodipodi:cx="5.1055269" sodipodi:cy="1038.2683" sodipodi:rx="1.4116032" sodipodi:ry="1.4116032" transform="matrix(0.66413946,0,0,0.66413946,-1.0786663,334.49508)" />
    <path inkscape:connector-curvature="0" style="fill:black;fill-opacity:0.25098039;stroke:none" d="m 22.520918,1048.3626 a 1.5000021,1.5000021 0 0 0 -1.081821,0.4397 l 0.425464,0.4255 a 0.93750139,0.93750139 0 0 1 0.447516,-0.1155 0.93750139,0.93750139 0 0 1 0.937838,0.9378 0.93750139,0.93750139 0 0 1 -0.115446,0.4476 l 0.425464,0.4254 a 1.5000021,1.5000021 0 0 0 0.389144,-1.4489 1.5000021,1.5000021 0 0 0 -1.061066,-1.0611 1.5000021,1.5000021 0 0 0 -0.367093,-0.051 z" id="path5298" />
    <path inkscape:connector-curvature="0" style="fill:#f0f0f0;fill-opacity:0.25098039;stroke:none" d="m 21.439097,1048.8023 a 1.5000021,1.5000021 0 0 0 0,2.1208 1.5000021,1.5000021 0 0 0 2.120836,0 l -0.425464,-0.4254 a 0.93750139,0.93750139 0 0 1 -0.822392,0.4903 0.93750139,0.93750139 0 0 1 -0.937837,-0.9379 0.93750139,0.93750139 0 0 1 0.490321,-0.8223 l -0.425464,-0.4255 z" id="path5300" />
    <circle style="fill:gray;fill-opacity:0.25098039;stroke:none" id="circle5302" cx="5.1055269" cy="1038.2683" r="1.4116032" sodipodi:cx="5.1055269" sodipodi:cy="1038.2683" sodipodi:rx="1.4116032" sodipodi:ry="1.4116032" transform="matrix(0.66413946,0,0,0.66413946,18.921334,360.49508)" />
    <path id="path12463" d="m 20.756906,1023.1577 a 6,6 0 0 0 0,8.4844 6,6 0 0 0 8.484375,0 l -1.599609,-1.5996 a 4,4 0 0 1 -3.642579,2.3574 4,4 0 0 1 -4,-4 4,4 0 0 1 2.357422,-3.6426 l -1.599609,-1.5996 z" style="fill:#f0f0f0;fill-opacity:0.25098039;stroke:none" inkscape:connector-curvature="0" />
    <path style="fill:red;fill-opacity:0.25098039;stroke:none" d="m 61.093432,1021.3949 a 6,6 0 0 0 -4.34375,1.75 6,6 0 0 0 -1.1875,1.7812 12,12 0 0 0 -0.03125,0 12,12 0 0 0 -0.4375,-0.1562 12,12 0 0 0 -2.90625,-0.4063 12,12 0 0 0 -4.375,0.75 4,4 0 0 0 -2.78125,-2.625 4,4 0 0 0 -0.96875,-0.125 4,4 0 0 0 -2.875,1.1875 4,4 0 0 0 0,5.625 4,4 0 0 0 0.78125,0.625 12,12 0 0 0 -1.6875,4.0938 2.2585649,2.2585649 0 0 1 0.1875,0.094 2.2585649,2.2585649 0 0 0 -0.5,-0.1875 2.2585649,2.2585649 0 0 0 -0.5625,-0.063 2.2585649,2.2585649 0 0 0 -1.625,0.6563 2.2585649,2.2585649 0 0 0 0,3.1875 2.2585649,2.2585649 0 0 0 2.375,0.5312 12,12 0 0 0 0.125,0.6563 8,8 0 0 0 0.0625,11.25 8,8 0 0 0 11.3125,0 8,8 0 0 0 1.25,-1.6875 12,12 0 0 0 7.59375,-3.4688 12,12 0 0 0 3.09375,-11.5937 12,12 0 0 0 -0.125,-0.4063 6,6 0 0 0 1.78125,-1.2187 6,6 0 0 0 1.53125,-5.7813 6,6 0 0 0 -4.21875,-4.25 6,6 0 0 0 -1.46875,-0.2187 z m -22.71875,0.9687 a 1.5000021,1.5000021 0 0 0 -0.9375,0.4375 1.5000021,1.5000021 0 0 0 0,2.125 1.5000021,1.5000021 0 0 0 2.125,0 1.5000021,1.5000021 0 0 0 0.375,-1.4375 1.5000021,1.5000021 0 0 0 -1.0625,-1.0625 1.5000021,1.5000021 0 0 0 -0.34375,-0.063 1.5000021,1.5000021 0 0 0 -0.15625,0 z m 4.875,2 a 2.5,2.5 0 0 1 0.25,0 2.5,2.5 0 0 1 0.5,0.063 c -0.162744,-0.033 -0.327411,-0.063 -0.5,-0.063 -0.172589,0 -0.337256,0.029 -0.5,0.063 a 2.5,2.5 0 0 1 0.25,-0.063 z m 16.65625,0.031 c -0.243349,0.01 -0.48801,0.047 -0.71875,0.094 a 4,4 0 0 1 0.71875,-0.094 z m -22.375,0.1562 c 0.03654,0.057 0.07737,0.1086 0.125,0.1563 a 0.93750139,0.93750139 0 0 1 -0.125,-0.1563 z m 10.375,0.9688 a 4,4 0 0 1 0.0625,0.375 4,4 0 0 0 -0.0625,-0.375 z m 14.90625,0.063 a 4,4 0 0 1 0.3125,0.3437 c -0.09531,-0.12 -0.204273,-0.2355 -0.3125,-0.3437 z m -21.75,0.7812 c -0.0333,0.1627 -0.0625,0.3274 -0.0625,0.5 0,0.1726 0.0292,0.3373 0.0625,0.5 a 2.5,2.5 0 0 1 -0.0625,-0.5 2.5,2.5 0 0 1 0.0625,-0.5 z m 4.875,0 a 2.5,2.5 0 0 1 0.03125,0.094 2.5,2.5 0 0 1 0,0.063 c 0.0081,0.052 0.02831,0.1043 0.03125,0.1562 a 2.5,2.5 0 0 1 0,0.1875 2.5,2.5 0 0 1 -0.0625,0.5 c 0.0333,-0.1627 0.0625,-0.3274 0.0625,-0.5 0,-0.1182 -0.01539,-0.23 -0.03125,-0.3437 -0.0073,-0.053 -0.02075,-0.105 -0.03125,-0.1563 z m 18,1.3438 a 4,4 0 0 1 0.0625,0.6873 c 0,-0.2331 -0.02426,-0.4655 -0.0625,-0.6875 z m -7.9375,0.6873 c 0,0.233 0.02426,0.4654 0.0625,0.6875 a 4,4 0 0 1 -0.0625,-0.6875 z m -13,0.9062 c 0.162744,0.033 0.327411,0.063 0.5,0.063 0.172589,0 0.337256,-0.029 0.5,-0.063 a 2.5,2.5 0 0 1 -0.5,0.063 2.5,2.5 0 0 1 -0.5,-0.063 z m 9.78125,0.25 a 8,8 0 0 1 1.34375,0.4375 c -0.429932,-0.1818 -0.879295,-0.3326 -1.34375,-0.4375 z m 6.46875,2.7813 c 0.241765,0.046 0.494974,0.063 0.75,0.063 a 4,4 0 0 1 -0.75,-0.063 z m -14.71875,0.375 c -0.144638,0.2018 -0.280488,0.4097 -0.40625,0.625 a 8,8 0 0 1 0.40625,-0.625 z m 15.46875,0.5937 a 6,6 0 0 0 1.09375,0.094 6,6 0 0 1 -1.09375,-0.094 z m -19.5,0.7188 a 2.2585649,2.2585649 0 0 1 0.1875,0.125 2.2585649,2.2585649 0 0 0 -0.1875,-0.125 z m 18.125,0.9687 a 8,8 0 0 1 0.15625,0.5 c -0.04126,-0.1725 -0.104016,-0.3321 -0.15625,-0.5 z m 0.375,2.375 a 8,8 0 0 1 -0.09375,1.1563 c 0.05376,-0.3753 0.09375,-0.7662 0.09375,-1.1563 z m -19.40625,0.2188 a 1.4116032,1.4116032 0 0 1 -0.375,0.094 c 0.128503,-0.012 0.258729,-0.05 0.375,-0.094 z m 19.28125,1.125 a 8,8 0 0 1 -0.1875,0.8125 c 0.07593,-0.2712 0.140152,-0.5306 0.1875,-0.8125 z m -0.3125,1.25 a 8,8 0 0 1 -0.3125,0.75 c 0.111245,-0.2419 0.225342,-0.496 0.3125,-0.75 z m -12.5625,0.5 a 5,5 0 0 1 0.9375,0.3125 5,5 0 0 1 0.71875,0.375 c -0.231401,-0.147 -0.463629,-0.2671 -0.71875,-0.375 -0.299096,-0.1266 -0.612012,-0.2459 -0.9375,-0.3125 z m -2.09375,0.031 c -0.290835,0.066 -0.574564,0.1674 -0.84375,0.2813 a 5,5 0 0 1 0.84375,-0.2813 z m 9.3125,0.4688 a 8,8 0 0 1 0.25,0.5625 8,8 0 0 1 0.25,0.7812 8,8 0 0 0 -0.25,-0.7812 8,8 0 0 0 -0.25,-0.5625 z m -4,1.7187 a 5,5 0 0 1 0.375,0.75 c -0.1116,-0.2639 -0.221692,-0.5116 -0.375,-0.75 z m -8.4375,0.031 c -0.146972,0.2314 -0.267093,0.4636 -0.375,0.7187 -0.126507,0.2991 -0.245896,0.612 -0.3125,0.9375 a 5,5 0 0 1 0.3125,-0.9375 5,5 0 0 1 0.375,-0.7187 z m 22.875,1.6562 a 4,4 0 0 0 -2.46875,1.1875 4,4 0 0 0 0,5.625 4,4 0 0 0 5.625,0 4,4 0 0 0 1.0625,-3.8437 4,4 0 0 0 -2.84375,-2.8438 4,4 0 0 0 -0.96875,-0.125 4,4 0 0 0 -0.40625,0 z m -13.6875,0.5 a 5,5 0 0 1 0.03125,0.5 c 0,-0.1726 -0.01418,-0.3319 -0.03125,-0.5 z m -9.96875,0.5 c 0,0.1726 0.01418,0.3319 0.03125,0.5 a 5,5 0 0 1 -0.03125,-0.4995 z m 9.90625,1 a 5,5 0 0 1 -0.3125,0.9375 c 0.126507,-0.2991 0.245896,-0.612 0.3125,-0.9375 z m 13.34375,0 a 2.5,2.5 0 0 1 0.25,0 2.5,2.5 0 0 1 0.5,0.063 c -0.162744,-0.033 -0.327411,-0.063 -0.5,-0.063 -0.172589,0 -0.337256,0.029 -0.5,0.063 a 2.5,2.5 0 0 1 0.25,-0.063 z m -22.84375,0.9375 c 0.1116,0.2639 0.221692,0.5116 0.375,0.75 a 5,5 0 0 1 -0.375,-0.75 z m 8.6875,0.9063 a 5,5 0 0 1 -0.5625,0.6875 5,5 0 0 1 -0.75,0.625 5,5 0 0 1 -0.5,0.2812 c 0.172991,-0.09 0.339536,-0.1728 0.5,-0.2812 0.266002,-0.1798 0.523794,-0.3988 0.75,-0.625 0.20581,-0.2059 0.394931,-0.4485 0.5625,-0.6875 z m 9.28125,0.1562 a 1.5000021,1.5000021 0 0 0 -0.9375,0.4375 1.5000021,1.5000021 0 0 0 0,2.125 1.5000021,1.5000021 0 0 0 2.125,0 1.5000021,1.5000021 0 0 0 0.375,-1.4375 1.5000021,1.5000021 0 0 0 -1.0625,-1.0625 1.5000021,1.5000021 0 0 0 -0.34375,-0.063 1.5000021,1.5000021 0 0 0 -0.15625,0 z m 2.6875,0 c -0.0333,0.1627 -0.0625,0.3274 -0.0625,0.5 0,0.1726 0.0292,0.3373 0.0625,0.5 a 2.5,2.5 0 0 1 -0.0625,-0.5 2.5,2.5 0 0 1 0.0625,-0.5 z m 4.875,0 a 2.5,2.5 0 0 1 0.0625,0.5 2.5,2.5 0 0 1 -0.0625,0.5 c 0.0333,-0.1627 0.0625,-0.3274 0.0625,-0.5 0,-0.1726 -0.0292,-0.3373 -0.0625,-0.5 z m -23.59375,1.2188 c 0.231401,0.1469 0.463629,0.267 0.71875,0.375 0.299096,0.1265 0.612012,0.2458 0.9375,0.3125 a 5,5 0 0 1 -0.9375,-0.3125 5,5 0 0 1 -0.71875,-0.375 z m 3.15625,0.75 a 5,5 0 0 1 -0.5,0.031 c 0.172589,0 0.331915,-0.014 0.5,-0.031 z m 12.03125,0.2187 c 0.03654,0.057 0.07737,0.1086 0.125,0.1563 a 0.93750139,0.93750139 0 0 1 -0.125,-0.1563 z m 5.46875,0.75 c 0.162744,0.033 0.327411,0.063 0.5,0.063 0.172589,0 0.337256,-0.029 0.5,-0.063 a 2.5,2.5 0 0 1 -0.5,0.063 2.5,2.5 0 0 1 -0.5,-0.063 z" id="path55595" inkscape:connector-curvature="0" />
    <path inkscape:transform-center-x="-2.5" inkscape:connector-curvature="0" id="path55669" d="m -4,1047.3636 0,-1 -26,0 -1,1 1,0 26,0 z m 0,-2 0,-1 -24,0 -1,1 1,0 24,0 z m 0,-2 0,-1 -22,0 -1,1 1,0 22,0 z m 0,-2 0,-1 -20,0 -1,1 1,0 20,0 z m 0,-2 0,-1 -18,0 -1,1 1,0 18,0 z m 0,-5 0,-1 -13,0 -1,1 14,0 z m 0,-2 0,-1 -11,0 -1,1 12,0 z m 0,-2 0,-1 -9,0 -1,1 10,0 z m 0,-2 0,-1 -7,0 -1,1 8,0 z m 0,-2 0,-1 -5,0 -1,1 6,0 z" style="fill:black;fill-opacity:0.50196078;fill-rule:nonzero;stroke:none" />
    <path id="path55671" d="m -31,1020.3636 0,26 0,1 1,-1 0,-26 -1,0 z m 2,0 0,24 0,1 1,-1 0,-24 -1,0 z m 2,0 0,22 0,1 1,-1 0,-22 -1,0 z m 2,0 0,20 0,1 1,-1 0,-20 -1,0 z m 2,0 0,18 0,1 1,-1 0,-18 -1,0 z m 5,0 0,14 1,-1 0,-13 -1,0 z m 2,0 0,12 1,-1 0,-11 -1,0 z m 2,0 0,10 1,-1 0,-9 -1,0 z m 2,0 0,8 1,-1 0,-7 -1,0 z m 2,0 0,6 1,-1 0,-5 -1,0 z" style="fill:black;fill-opacity:0.50196078;fill-rule:nonzero;stroke:none" inkscape:connector-curvature="0" />
    <path style="fill:red;fill-opacity:0.25098039;stroke:none" d="m 38.312182,1023.1122 c -0.517768,0 -0.9375,0.4197 -0.9375,0.9375 0,0.5178 0.419732,0.9375 0.9375,0.9375 0.517768,0 0.9375,-0.4197 0.9375,-0.9375 0,-0.5178 -0.419732,-0.9375 -0.9375,-0.9375 z m 5.1875,1.25 c -1.380712,0 -2.5,1.1193 -2.5,2.5 0,1.3807 1.119288,2.5 2.5,2.5 1.380712,0 2.5,-1.1193 2.5,-2.5 0,-1.3807 -1.119288,-2.5 -2.5,-2.5 z m 16.5,0.031 c -2.209139,0 -4,1.7908 -4,4 0,2.2091 1.790861,4 4,4 2.209139,0 4,-1.7909 4,-4 0,-2.2092 -1.790861,-4 -4,-4 z m -9,4.9687 c -4.280003,0 -7.754183,3.3671 -7.96875,7.5938 a 8,8 0 0 1 3.09375,-0.5938 8,8 0 0 1 1.9375,0.2813 8,8 0 0 1 5.65625,5.6562 8,8 0 0 1 0.25,2.5 c 2.952672,-1.1769 5.03125,-4.0651 5.03125,-7.4375 0,-4.4183 -3.581722,-8 -8,-8 z m -11.90625,5.5 c -0.779607,0 -1.40625,0.6266 -1.40625,1.4063 0,0.7796 0.626643,1.4062 1.40625,1.4062 0.779607,0 1.4375,-0.6266 1.4375,-1.4062 0,-0.7797 -0.657893,-1.4063 -1.4375,-1.4063 z m 5.90625,5.5 c -2.761424,0 -5,2.2386 -5,5 0,2.7614 2.238576,5 5,5 2.761424,0 5,-2.2386 5,-5 0,-2.7614 -2.238576,-5 -5,-5 z m 18.5,6 c -1.380712,0 -2.5,1.1193 -2.5,2.5 0,1.3807 1.119288,2.5 2.5,2.5 1.380712,0 2.5,-1.1193 2.5,-2.5 0,-1.3807 -1.119288,-2.5 -2.5,-2.5 z m -5.1875,2.75 c -0.517768,0 -0.9375,0.4197 -0.9375,0.9375 0,0.5178 0.419732,0.9375 0.9375,0.9375 0.517768,0 0.9375,-0.4197 0.9375,-0.9375 0,-0.5178 -0.419732,-0.9375 -0.9375,-0.9375 z" id="path60871" inkscape:connector-curvature="0" />
    <path inkscape:connector-curvature="0" style="fill:black;fill-opacity:0.50196078;fill-rule:nonzero;stroke:none" d="m -32,1060.3622 0,26 0,1 1,-1 0,-26 -1,0 z m 2,0 0,24 0,1 1,-1 0,-24 -1,0 z m 2,0 0,22 0,1 1,-1 0,-22 -1,0 z m 2,0 0,20 0,1 1,-1 0,-20 -1,0 z m 2,0 0,18 0,1 1,-1 0,-18 -1,0 z m 5,0 0,14 1,-1 0,-13 -1,0 z m 2,0 0,12 1,-1 0,-11 -1,0 z m 2,0 0,10 1,-1 0,-9 -1,0 z m 2,0 0,8 1,-1 0,-7 -1,0 z m 2,0 0,6 1,-1 0,-5 -1,0 z" id="path60890" />
    <path id="path60895" d="m -10,45 -1,1 6,0 0,-1 z m -2,2 -1,1 8,0 0,-1 z m -2,2 -1,1 10,0 0,-1 z m -2,2 -1,1 12,0 0,-1 z m -2,2 -1,1 14,0 0,-1 z" style="fill:black;fill-opacity:0.50196078;fill-rule:nonzero;stroke:none" inkscape:connector-curvature="0" inkscape:transform-center-x="-9" transform="translate(0,1020.3622)" sodipodi:nodetypes="ccccccccccccccccccccccccc" />
    <path sodipodi:nodetypes="ccccccccccccccccccccccccc" inkscape:transform-center-x="-9" inkscape:connector-curvature="0" style="fill:black;fill-opacity:0.50196078;fill-rule:nonzero;stroke:none" d="m -10,1087.3622 -1,-1 6,0 0,1 z m -2,-2 -1,-1 8,0 0,1 z m -2,-2 -1,-1 10,0 0,1 z m -2,-2 -1,-1 12,0 0,1 z m -2,-2 -1,-1 14,0 0,1 z" id="path60897" />
    <g id="g60904" transform="matrix(0,1,-1,0,1055.3622,1097.3622)" inkscape:transform-center-y="9">
      <path id="path60900" d="m -10,45 -1,1 6,0 0,-1 z m -2,2 -1,1 8,0 0,-1 z m -2,2 -1,1 10,0 0,-1 z m -2,2 -1,1 12,0 0,-1 z m -2,2 -1,1 14,0 0,-1 z" style="fill:black;fill-opacity:0.50196078;fill-rule:nonzero;stroke:none" inkscape:connector-curvature="0" inkscape:transform-center-x="-9" transform="translate(0,1020.3622)" sodipodi:nodetypes="ccccccccccccccccccccccccc" />
      <path sodipodi:nodetypes="ccccccccccccccccccccccccc" inkscape:transform-center-x="-9" inkscape:connector-curvature="0" style="fill:black;fill-opacity:0.50196078;fill-rule:nonzero;stroke:none" d="m -10,1087.3622 -1,-1 6,0 0,1 z m -2,-2 -1,-1 8,0 0,1 z m -2,-2 -1,-1 10,0 0,1 z m -2,-2 -1,-1 12,0 0,1 z m -2,-2 -1,-1 14,0 0,1 z" id="path60902" />
    </g>
  </g>
  <g inkscape:groupmode="layer" id="layer7" inkscape:label="Holes" />
  <g inkscape:groupmode="layer" id="layer6" inkscape:label="Wall">
    <g transform="matrix(-0.0808144,-0.99672917,0.99672917,-0.0808144,9.0010468,41.373703)" id="g6895">
      <path sodipodi:nodetypes="ccccc" inkscape:connector-curvature="0" id="path6884" d="m 13.876953,0.01171875 -3.21875,6.43554685 3.539063,1.7695313 3.089843,-3.0898438 z" style="color:black;font-style:normal;font-variant:normal;font-weight:normal;font-stretch:normal;font-size:medium;line-height:normal;font-family:sans-serif;text-indent:0;text-align:start;text-decoration:none;text-decoration-line:none;text-decoration-style:solid;text-decoration-color:black;letter-spacing:normal;word-spacing:normal;text-transform:none;direction:ltr;block-progression:tb;writing-mode:lr-tb;baseline-shift:baseline;text-anchor:start;white-space:normal;clip-rule:nonzero;display:inline;overflow:visible;visibility:visible;opacity:1;isolation:auto;mix-blend-mode:normal;color-interpolation:sRGB;color-interpolation-filters:linearRGB;solid-color:black;solid-opacity:1;fill:black;fill-opacity:1;fill-rule:nonzero;stroke:none;stroke-width:2;stroke-linecap:round;stroke-linejoin:miter;stroke-miterlimit:4;stroke-dasharray:none;stroke-dashoffset:0;stroke-opacity:1;color-rendering:auto;image-rendering:auto;shape-rendering:auto;text-rendering:auto;enable-background:accumulate" />
      <path style="opacity:1;fill:#4d4d4d;fill-opacity:1;fill-rule:nonzero;stroke:none;stroke-width:40;stroke-linecap:round;stroke-linejoin:miter;stroke-miterlimit:4;stroke-dasharray:none;stroke-dashoffset:0;stroke-opacity:1" d="m 14,7 c 0,0 0,-5 0,-5 l -2,4 z" id="path5165" inkscape:connector-curvature="0" />
      <path style="opacity:1;fill:blue;fill-opacity:1;fill-rule:nonzero;stroke:none;stroke-width:40;stroke-linecap:round;stroke-linejoin:miter;stroke-miterlimit:4;stroke-dasharray:none;stroke-dashoffset:0;stroke-opacity:1" d="M 14,7 16,5 14,2 Z" id="path5167" inkscape:connector-curvature="0" />
      <path style="fill:#6b6b6b;fill-opacity:1;fill-rule:nonzero;stroke:none" d="m 14.5,6.5 1,-1 0,-1.25 -1,-1.5 0,3.75 z" id="path5169" inkscape:connector-curvature="0" />
    </g>
    <g id="g6810" transform="matrix(-0.8842316,0.4670487,-0.4670487,-0.8842316,52.52722,31.830825)">
      <path sodipodi:nodetypes="cccccccccc" inkscape:connector-curvature="0" id="path6793" d="m 26,14.71875 -1.242188,0.310547 -9.376953,2.34375 2.332032,3.5 -1,1 2.845703,4.267578 L 25,24.78125 l 0,-2.566406 1,-1.976563 z" style="color:black;font-style:normal;font-variant:normal;font-weight:normal;font-stretch:normal;font-size:medium;line-height:normal;font-family:sans-serif;text-indent:0;text-align:start;text-decoration:none;text-decoration-line:none;text-decoration-style:solid;text-decoration-color:black;letter-spacing:normal;word-spacing:normal;text-transform:none;direction:ltr;block-progression:tb;writing-mode:lr-tb;baseline-shift:baseline;text-anchor:start;white-space:normal;clip-rule:nonzero;display:inline;overflow:visible;visibility:visible;opacity:1;isolation:auto;mix-blend-mode:normal;color-interpolation:sRGB;color-interpolation-filters:linearRGB;solid-color:black;solid-opacity:1;fill:black;fill-opacity:1;fill-rule:nonzero;stroke:none;stroke-width:2;stroke-linecap:round;stroke-linejoin:miter;stroke-miterlimit:4;stroke-dasharray:none;stroke-dashoffset:0;stroke-opacity:1;color-rendering:auto;image-rendering:auto;shape-rendering:auto;text-rendering:auto;enable-background:accumulate" />
      <path sodipodi:nodetypes="ccccc" inkscape:connector-curvature="0" id="rect6772" d="m 20,20 5,0 -1.010687,1.996187 L 20,22 Z" style="opacity:1;fill:#0080ff;fill-opacity:1;fill-rule:nonzero;stroke:none;stroke-width:40;stroke-linecap:round;stroke-linejoin:miter;stroke-miterlimit:4;stroke-dasharray:none;stroke-dashoffset:0;stroke-opacity:1" />
      <path inkscape:connector-curvature="0" id="path6775" d="m 24,22 0,2 -4,1 0,-3 z" style="opacity:1;fill:blue;fill-opacity:1;fill-rule:nonzero;stroke:none;stroke-width:40;stroke-linecap:round;stroke-linejoin:miter;stroke-miterlimit:4;stroke-dasharray:none;stroke-dashoffset:0;stroke-opacity:1" />
      <path inkscape:connector-curvature="0" id="path6777" d="m 20,20 -1,-2 6,-2 0,4 z" style="opacity:1;fill:aqua;fill-opacity:1;fill-rule:nonzero;stroke:none;stroke-width:40;stroke-linecap:round;stroke-linejoin:miter;stroke-miterlimit:4;stroke-dasharray:none;stroke-dashoffset:0;stroke-opacity:1" />
      <path inkscape:connector-curvature="0" id="path6779" d="m 20,25 -2,-3 1,-1 -2,-3 2,0 1,2 z" style="opacity:1;fill:#e6e6e6;fill-opacity:1;fill-rule:nonzero;stroke:none;stroke-width:40;stroke-linecap:round;stroke-linejoin:miter;stroke-miterlimit:4;stroke-dasharray:none;stroke-dashoffset:0;stroke-opacity:1" />
      <path inkscape:connector-curvature="0" id="path6781" d="m 17,18 8,-2 -6,2 z" style="opacity:1;fill:#4d4d4d;fill-opacity:1;fill-rule:nonzero;stroke:none;stroke-width:40;stroke-linecap:round;stroke-linejoin:miter;stroke-miterlimit:4;stroke-dasharray:none;stroke-dashoffset:0;stroke-opacity:1" />
      <path id="path6783" d="m 20,23 0,1 4,0 0,-1 -4,0 z" style="opacity:1;fill:#6b6b6b;fill-opacity:1;fill-rule:nonzero;stroke:none;stroke-width:40;stroke-linecap:round;stroke-linejoin:miter;stroke-miterlimit:4;stroke-dasharray:none;stroke-dashoffset:0;stroke-opacity:1" inkscape:connector-curvature="0" />
      <path id="path6785" d="m 25,16 -3,1 3,0 0,-1 z m -6,2 0.5,1 5.5,0 0,-1 -6,0 z" style="opacity:1;fill:#c3c3c3;fill-opacity:1;fill-rule:nonzero;stroke:none;stroke-width:40;stroke-linecap:round;stroke-linejoin:miter;stroke-miterlimit:4;stroke-dasharray:none;stroke-dashoffset:0;stroke-opacity:1" inkscape:connector-curvature="0" />
    </g>
    <g id="g6923" transform="matrix(0.36470743,-0.93112217,0.93112217,0.36470743,-3.1434678,26.965408)">
      <path style="color:black;font-style:normal;font-variant:normal;font-weight:normal;font-stretch:normal;font-size:medium;line-height:normal;font-family:sans-serif;text-indent:0;text-align:start;text-decoration:none;text-decoration-line:none;text-decoration-style:solid;text-decoration-color:black;letter-spacing:normal;word-spacing:normal;text-transform:none;direction:ltr;block-progression:tb;writing-mode:lr-tb;baseline-shift:baseline;text-anchor:start;white-space:normal;clip-rule:nonzero;display:inline;overflow:visible;visibility:visible;opacity:1;isolation:auto;mix-blend-mode:normal;color-interpolation:sRGB;color-interpolation-filters:linearRGB;solid-color:black;solid-opacity:1;fill:black;fill-opacity:1;fill-rule:nonzero;stroke:none;stroke-width:2;stroke-linecap:round;stroke-linejoin:miter;stroke-miterlimit:4;stroke-dasharray:none;stroke-dashoffset:0;stroke-opacity:1;color-rendering:auto;image-rendering:auto;shape-rendering:auto;text-rendering:auto;enable-background:accumulate" d="m 13.876953,0.01171875 -3.21875,6.43554685 3.539063,1.7695313 3.089843,-3.0898438 z" id="path6925" inkscape:connector-curvature="0" sodipodi:nodetypes="ccccc" />
      <path inkscape:connector-curvature="0" id="path6927" d="m 14,7 c 0,0 0,-5 0,-5 l -2,4 z" style="opacity:1;fill:#4d4d4d;fill-opacity:1;fill-rule:nonzero;stroke:none;stroke-width:40;stroke-linecap:round;stroke-linejoin:miter;stroke-miterlimit:4;stroke-dasharray:none;stroke-dashoffset:0;stroke-opacity:1" />
      <path inkscape:connector-curvature="0" id="path6929" d="M 14,7 16,5 14,2 Z" style="opacity:1;fill:aqua;fill-opacity:1;fill-rule:nonzero;stroke:none;stroke-width:40;stroke-linecap:round;stroke-linejoin:miter;stroke-miterlimit:4;stroke-dasharray:none;stroke-dashoffset:0;stroke-opacity:1" />
      <path inkscape:connector-curvature="0" id="path6931" d="m 14.5,6.5 1,-1 0,-1.25 -1,-1.5 0,3.75 z" style="fill:#c3c3c3;fill-opacity:1;fill-rule:nonzero;stroke:none" />
    </g>
  </g>
  <g inkscape:groupmode="layer" id="layer5" inkscape:label="right" style="display:inline" />
  <g inkscape:groupmode="layer" id="layer4" inkscape:label="left" />
  <g inkscape:groupmode="layer" id="layer3" inkscape:label="bottom" style="display:inline" />
  <g inkscape:groupmode="layer" id="layer2" inkscape:label="top">
    <g id="g9950" transform="matrix(0,-1,1,0,0,32)">
      <circle r="0.5" cy="3.8728046" cx="7.1072326" style="fill:gray;fill-opacity:1;fill-rule:nonzero;stroke:none" id="path3265" />
      <circle r="0.5" cy="28.094603" cx="23.888969" style="fill:#e6e6e6;fill-opacity:1;fill-rule:nonzero;stroke:none" id="path3267" />
      <circle r="0.5" cy="23.156023" cx="0.73358333" style="fill:aqua;fill-opacity:1;fill-rule:nonzero;stroke:none" id="path3269" />
      <circle r="0.5" cy="4.3886304" cx="17.207405" style="fill:gray;fill-opacity:1;fill-rule:nonzero;stroke:none" id="path3271" />
      <circle r="0.5" cy="27.788691" cx="8.8612843" style="fill:#333;fill-opacity:1;fill-rule:nonzero;stroke:none" id="path3273" />
      <circle r="0.5" cy="19.722628" cx="30.030861" style="fill:aqua;fill-opacity:1;fill-rule:nonzero;stroke:none" id="path3275" />
      <circle r="0.5" cy="19.016647" cx="29.125484" style="fill:#333;fill-opacity:1;fill-rule:nonzero;stroke:none" id="path3277" />
      <circle r="0.5" cy="25.342356" cx="1.1904316" style="fill:#e6e6e6;fill-opacity:1;fill-rule:nonzero;stroke:none" id="path3305" />
      <circle r="0.5" cy="3.5976472" cx="10.545353" id="path3315" style="fill:#333;fill-opacity:1;fill-rule:nonzero;stroke:none" />
      <circle r="0.5" cy="11.890493" cx="14.609089" style="fill:#333;fill-opacity:1;fill-rule:nonzero;stroke:none" id="path3317" />
      <circle r="0.5" cy="16.764372" cx="1.1473267" style="fill:#333;fill-opacity:1;fill-rule:nonzero;stroke:none" id="path3321" />
      <circle r="0.5" cy="5.0705948" cx="7.5149074" style="fill:blue;fill-opacity:1;fill-rule:nonzero;stroke:none" id="path3323" />
      <circle r="0.5" cy="7.4702082" cx="11.626927" style="fill:#333;fill-opacity:1;fill-rule:nonzero;stroke:none" id="path3327" />
      <circle r="0.5" cy="23.573999" cx="1.8645239" id="path3329" style="fill:aqua;fill-opacity:1;fill-rule:nonzero;stroke:none" />
      <circle r="0.5" cy="21.078592" cx="23.595631" style="fill:blue;fill-opacity:1;fill-rule:nonzero;stroke:none" id="path3331" />
      <circle r="0.5" cy="26.062511" cx="5.0908408" id="path3333" style="fill:#333;fill-opacity:1;fill-rule:nonzero;stroke:none" />
      <circle r="0.5" cy="30.668854" cx="21.959631" style="fill:#333;fill-opacity:1;fill-rule:nonzero;stroke:none" id="path3339" />
      <circle r="0.5" cy="9.0615969" cx="24.399397" id="path3341" style="fill:#333;fill-opacity:1;fill-rule:nonzero;stroke:none" />
      <circle r="0.5" cy="26.263811" cx="11.938197" style="fill:gray;fill-opacity:1;fill-rule:nonzero;stroke:none" id="path3345" />
      <circle r="0.5" cy="26.333731" cx="4.8744936" id="path3347" style="fill:gray;fill-opacity:1;fill-rule:nonzero;stroke:none" />
      <circle r="0.5" cy="12.454365" cx="4.7605329" id="path3351" style="fill:aqua;fill-opacity:1;fill-rule:nonzero;stroke:none" />
      <circle r="0.5" cy="4.9289975" cx="31.178131" style="fill:gray;fill-opacity:1;fill-rule:nonzero;stroke:none" id="path3353" />
      <circle r="0.5" cy="2.8680158" cx="1.0338591" id="path3355" style="fill:gray;fill-opacity:1;fill-rule:nonzero;stroke:none" />
      <circle r="0.5" cy="8.9362307" cx="17.165056" id="path3359" style="fill:blue;fill-opacity:1;fill-rule:nonzero;stroke:none" />
      <circle r="0.5" cy="13.34451" cx="24.271198" style="fill:gray;fill-opacity:1;fill-rule:nonzero;stroke:none" id="path3361" />
      <circle r="0.5" cy="1.3297679" cx="7.5511308" style="fill:#333;fill-opacity:1;fill-rule:nonzero;stroke:none" id="path3363" />
      <circle r="0.5" cy="27.438412" cx="14.570496" id="path3365" style="fill:#333;fill-opacity:1;fill-rule:nonzero;stroke:none" />
      <circle r="0.5" cy="20.983805" cx="9.0552769" style="fill:#333;fill-opacity:1;fill-rule:nonzero;stroke:none" id="path3371" />
      <circle r="0.5" cy="20.421185" cx="5.1418066" style="fill:aqua;fill-opacity:1;fill-rule:nonzero;stroke:none" id="path3373" />
      <circle r="0.5" cy="25.493536" cx="4.2492948" id="path3375" style="fill:gray;fill-opacity:1;fill-rule:nonzero;stroke:none" />
      <circle r="0.5" cy="10.050673" cx="12.015807" style="fill:gray;fill-opacity:1;fill-rule:nonzero;stroke:none" id="path3377" />
      <circle r="0.5" cy="21.191488" cx="14.45886" id="path3381" style="fill:blue;fill-opacity:1;fill-rule:nonzero;stroke:none" />
      <circle r="0.5" cy="29.776104" cx="18.946152" style="fill:#e6e6e6;fill-opacity:1;fill-rule:nonzero;stroke:none" id="path3383" />
      <circle r="0.5" cy="15.022164" cx="-8.965394" transform="matrix(0,-1,1,0,0,0)" id="path17101" style="fill:aqua;fill-opacity:1;fill-rule:nonzero;stroke:none" />
      <circle r="0.5" cy="17.495316" cx="-11.700597" id="path17103" style="fill:gray;fill-opacity:1;fill-rule:nonzero;stroke:none" transform="matrix(0,-1,1,0,0,0)" />
      <circle r="0.5" cy="12.084606" cx="-19.269844" id="path17109" style="fill:gray;fill-opacity:1;fill-rule:nonzero;stroke:none" transform="matrix(0,-1,1,0,0,0)" />
      <circle r="0.5" cy="2.0506487" cx="-13.654037" id="path17111" style="fill:#333;fill-opacity:1;fill-rule:nonzero;stroke:none" transform="matrix(0,-1,1,0,0,0)" />
      <circle r="0.5" cy="24.201536" cx="-7.5729928" id="path17113" style="fill:gray;fill-opacity:1;fill-rule:nonzero;stroke:none" transform="matrix(0,-1,1,0,0,0)" />
      <circle r="0.5" cy="13.131977" cx="-29.358139" id="path17115" style="fill:blue;fill-opacity:1;fill-rule:nonzero;stroke:none" transform="matrix(0,-1,1,0,0,0)" />
      <circle r="0.5" cy="22.670446" cx="-10.690906" transform="matrix(0,-1,1,0,0,0)" style="fill:#333;fill-opacity:1;fill-rule:nonzero;stroke:none" id="path17125" />
      <circle r="0.5" cy="20.994686" cx="-28.051294" id="path17127" style="fill:#333;fill-opacity:1;fill-rule:nonzero;stroke:none" transform="matrix(0,-1,1,0,0,0)" />
      <circle r="0.5" cy="26.241585" cx="-27.393402" id="path17129" style="fill:#333;fill-opacity:1;fill-rule:nonzero;stroke:none" transform="matrix(0,-1,1,0,0,0)" />
      <circle r="0.5" cy="2.1266572" cx="-20.929035" id="path17131" style="fill:#333;fill-opacity:1;fill-rule:nonzero;stroke:none" transform="matrix(0,-1,1,0,0,0)" />
      <circle r="0.5" cy="17.630848" cx="-9.8672199" transform="matrix(0,-1,1,0,0,0)" style="fill:#333;fill-opacity:1;fill-rule:nonzero;stroke:none" id="path17133" />
      <circle r="0.5" cy="11.250252" cx="-9.9391479" transform="matrix(0,-1,1,0,0,0)" style="fill:#333;fill-opacity:1;fill-rule:nonzero;stroke:none" id="path17137" />
      <circle r="0.5" cy="24.975523" cx="-28.700581" id="path17139" style="fill:#333;fill-opacity:1;fill-rule:nonzero;stroke:none" transform="matrix(0,-1,1,0,0,0)" />
      <circle r="0.5" cy="9.6190357" cx="-28.145468" transform="matrix(0,-1,1,0,0,0)" style="fill:blue;fill-opacity:1;fill-rule:nonzero;stroke:none" id="path17141" />
      <circle r="0.5" cy="9.5104485" cx="-25.397821" id="path17147" style="fill:#333;fill-opacity:1;fill-rule:nonzero;stroke:none" transform="matrix(0,-1,1,0,0,0)" />
      <circle r="0.5" cy="2.8240979" cx="-23.30415" id="path17153" style="fill:gray;fill-opacity:1;fill-rule:nonzero;stroke:none" transform="matrix(0,-1,1,0,0,0)" />
      <circle r="0.5" cy="19.832733" cx="-1.7311467" transform="matrix(0,-1,1,0,0,0)" style="fill:gray;fill-opacity:1;fill-rule:nonzero;stroke:none" id="path17155" />
      <circle r="0.5" cy="29.560875" cx="-15.913008" transform="matrix(0,-1,1,0,0,0)" style="fill:gray;fill-opacity:1;fill-rule:nonzero;stroke:none" id="path17157" />
      <circle r="0.5" cy="0.98775536" cx="-6.4055166" id="path17159" style="fill:gray;fill-opacity:1;fill-rule:nonzero;stroke:none" transform="matrix(0,-1,1,0,0,0)" />
      <circle r="0.5" cy="9.5210724" cx="-9.0216284" id="path17163" style="fill:blue;fill-opacity:1;fill-rule:nonzero;stroke:none" transform="matrix(0,-1,1,0,0,0)" />
      <circle r="0.5" cy="15.251338" cx="-4.437252" transform="matrix(0,-1,1,0,0,0)" style="fill:gray;fill-opacity:1;fill-rule:nonzero;stroke:none" id="path17165" />
      <circle r="0.5" cy="23.265369" cx="-6.6014733" id="path17167" style="fill:gray;fill-opacity:1;fill-rule:nonzero;stroke:none" transform="matrix(0,-1,1,0,0,0)" />
      <circle r="0.5" cy="1.5255545" cx="-30.977749" id="path17169" style="fill:aqua;fill-opacity:1;fill-rule:nonzero;stroke:none" transform="matrix(0,-1,1,0,0,0)" />
      <circle r="0.5" cy="16.333532" cx="-14.419696" id="path17173" style="fill:#333;fill-opacity:1;fill-rule:nonzero;stroke:none" transform="matrix(0,-1,1,0,0,0)" />
      <circle r="0.5" cy="28.227581" cx="-8.4149942" transform="matrix(0,-1,1,0,0,0)" style="fill:#333;fill-opacity:1;fill-rule:nonzero;stroke:none" id="path17175" />
      <circle r="0.5" cy="21.211828" cx="-31.198193" id="path17177" style="fill:#333;fill-opacity:1;fill-rule:nonzero;stroke:none" transform="matrix(0,-1,1,0,0,0)" />
      <circle r="0.5" cy="19.624401" cx="-14.659584" id="path17179" style="fill:gray;fill-opacity:1;fill-rule:nonzero;stroke:none" transform="matrix(0,-1,1,0,0,0)" />
      <circle r="0.5" cy="30.388145" cx="-21.821215" id="path17183" style="fill:gray;fill-opacity:1;fill-rule:nonzero;stroke:none" transform="matrix(0,-1,1,0,0,0)" />
      <circle r="0.5" cy="4.1789765" cx="-14.329893" transform="matrix(0,-1,1,0,0,0)" id="path17185" style="fill:aqua;fill-opacity:1;fill-rule:nonzero;stroke:none" />
      <circle r="0.5" cy="1.5908445" cx="-7.4723735" transform="matrix(0,-1,1,0,0,0)" id="path17189" style="fill:#e6e6e6;fill-opacity:1;fill-rule:nonzero;stroke:none" />
      <circle r="0.5" cy="25.096777" cx="-30.748667" transform="matrix(0,-1,1,0,0,0)" id="path17193" style="fill:#e6e6e6;fill-opacity:1;fill-rule:nonzero;stroke:none" />
      <path style="opacity:1;fill:black;fill-opacity:0.5;fill-rule:nonzero;stroke:none;stroke-width:1;stroke-linecap:butt;stroke-linejoin:miter;stroke-miterlimit:4;stroke-dasharray:none;stroke-dashoffset:0;stroke-opacity:0.62745098" d="m 23.599873,2.6861802 0,2 2,1 0,-1 -1,-1 0,-1 z" id="path6549" inkscape:connector-curvature="0" />
      <path style="opacity:1;fill:blue;fill-opacity:1;fill-rule:nonzero;stroke:none;stroke-width:1;stroke-linecap:butt;stroke-linejoin:miter;stroke-miterlimit:4;stroke-dasharray:none;stroke-dashoffset:0;stroke-opacity:0.62745098" d="m 2.8369581,10.504376 2,-0.9999998 1,0.9999998 z" id="path6551" inkscape:connector-curvature="0" />
      <path style="opacity:1;fill:black;fill-opacity:0.5;fill-rule:nonzero;stroke:none;stroke-width:1;stroke-linecap:butt;stroke-linejoin:miter;stroke-miterlimit:4;stroke-dasharray:none;stroke-dashoffset:0;stroke-opacity:0.62745098" d="m 8.362604,13.215347 0,2 2,1 z" id="path6553" inkscape:connector-curvature="0" />
      <path style="opacity:1;fill:aqua;fill-opacity:1;fill-rule:nonzero;stroke:none;stroke-width:1;stroke-linecap:butt;stroke-linejoin:miter;stroke-miterlimit:4;stroke-dasharray:none;stroke-dashoffset:0;stroke-opacity:0.62745098" d="m 15.64229,13.011222 3,0 2,1 -3,0 z" id="path6555" inkscape:connector-curvature="0" />
    </g>
  </g>
</svg>
