<?xml version="1.0" encoding="UTF-8" standalone="no"?>
<!-- Created with Inkscape (http://www.inkscape.org/) -->

<svg xmlns:dc="http://purl.org/dc/elements/1.1/" xmlns:cc="http://creativecommons.org/ns#" xmlns:rdf="http://www.w3.org/1999/02/22-rdf-syntax-ns#" xmlns:svg="http://www.w3.org/2000/svg" xmlns="http://www.w3.org/2000/svg" xmlns:sodipodi="http://sodipodi.sourceforge.net/DTD/sodipodi-0.dtd" xmlns:inkscape="http://www.inkscape.org/namespaces/inkscape" width="32px" height="32px" id="svg3505" sodipodi:version="0.32" inkscape:version="0.91 r13725" sodipodi:docname="00.svg" inkscape:output_extension="org.inkscape.output.svg.inkscape" version="1.1">
  <defs id="defs3507">
    <inkscape:perspective sodipodi:type="inkscape:persp3d" inkscape:vp_x="0 : 16 : 1" inkscape:vp_y="0 : 1000 : 0" inkscape:vp_z="32 : 16 : 1" inkscape:persp3d-origin="16 : 10.666667 : 1" id="perspective3513" />
    <inkscape:perspective id="perspective4690" inkscape:persp3d-origin="372.04724 : 350.78739 : 1" inkscape:vp_z="744.09448 : 526.18109 : 1" inkscape:vp_y="0 : 1000 : 0" inkscape:vp_x="0 : 526.18109 : 1" sodipodi:type="inkscape:persp3d" />
    <inkscape:perspective id="perspective2564" inkscape:persp3d-origin="372.04724 : 350.78739 : 1" inkscape:vp_z="744.09448 : 526.18109 : 1" inkscape:vp_y="0 : 1000 : 0" inkscape:vp_x="0 : 526.18109 : 1" sodipodi:type="inkscape:persp3d" />
  </defs>
  <sodipodi:namedview id="base" pagecolor="#ffffff" bordercolor="#666666" borderopacity="1.0" inkscape:pageopacity="0.0" inkscape:pageshadow="2" inkscape:zoom="22.125" inkscape:cx="25.225052" inkscape:cy="15.613744" inkscape:current-layer="layer1" showgrid="true" inkscape:grid-bbox="true" inkscape:document-units="px" objecttolerance="4" gridtolerance="4" guidetolerance="4" inkscape:window-width="1600" inkscape:window-height="878" inkscape:window-x="0" inkscape:window-y="0" inkscape:object-paths="true" inkscape:object-nodes="true" inkscape:snap-bbox="true" inkscape:snap-guide="true" showguides="true" inkscape:guide-bbox="true" inkscape:window-maximized="1">
    <inkscape:grid type="xygrid" id="grid3515" units="px" visible="true" enabled="true" spacingx="1px" spacingy="1px" empspacing="4" />
    <sodipodi:guide orientation="-0.70710678,0.70710678" position="33.245902,33.245902" id="guide3622" />
    <sodipodi:guide orientation="0.70710678,0.70710678" position="0,32" id="guide3624" />
  </sodipodi:namedview>
  <metadata id="metadata3510">
    <rdf:RDF>
      <cc:Work rdf:about="">
        <dc:format>image/svg+xml</dc:format>
        <dc:type rdf:resource="http://purl.org/dc/dcmitype/StillImage" />
        <dc:title>Vorlage f端r 32x32-Pixel-Icons f端r McMinos</dc:title>
        <dc:date>2010-04-05</dc:date>
        <dc:creator>
          <cc:Agent>
            <dc:title>Andreas Neudecker &lt;zapyon@gmx.net&gt;</dc:title>
          </cc:Agent>
        </dc:creator>
        <dc:rights>
          <cc:Agent>
            <dc:title>Copyright (C) 2010 by Andreas Neudecker</dc:title>
          </cc:Agent>
        </dc:rights>
        <dc:publisher>
          <cc:Agent>
            <dc:title>Andreas Neudecker</dc:title>
          </cc:Agent>
        </dc:publisher>
        <dc:identifier>vorlage-32x32-mcminos</dc:identifier>
        <dc:description>Vorlage f端r 32x32-Pixel-Icons f端r McMinos. Metadaten jeweils entsprechend anpassen!</dc:description>
      </cc:Work>
    </rdf:RDF>
  </metadata>
  <g id="layer1" inkscape:label="Layer 1" inkscape:groupmode="layer">
    <path style="opacity:1;fill:red;fill-opacity:0.50196078;fill-rule:nonzero;stroke:none;stroke-width:2;stroke-linecap:butt;stroke-linejoin:miter;stroke-miterlimit:4;stroke-dasharray:none;stroke-dashoffset:0;stroke-opacity:1" d="m -25,0 a 12,12 0 0 0 -12,12 12,12 0 0 0 3.380859,8.347656 A 4,4 0 0 0 -36,24 a 4,4 0 0 0 4,4 4,4 0 0 0 1.007812,-0.132812 A 8,8 0 0 0 -24,32 8,8 0 0 0 -21.644531,31.636719 4,4 0 0 0 -18,34 4,4 0 0 0 -14.517578,31.962891 4,4 0 0 0 -14,32 4,4 0 0 0 -10.453125,29.841797 8,8 0 0 0 -4,22 8,8 0 0 0 -4.654297,18.855469 8,8 0 0 0 -3,14 8,8 0 0 0 -6.306641,7.53125 4,4 0 0 0 -6,6 4,4 0 0 0 -10,2 4,4 0 0 0 -12.228516,2.6816406 4,4 0 0 0 -16,0 4,4 0 0 0 -19.140625,1.5332031 12,12 0 0 0 -25,0 Z" id="circle10396" inkscape:connector-curvature="0" />
    <path inkscape:connector-curvature="0" id="path5433" d="m 36,3.9999997 4,0 0,-4 24,0 0,4 4,0 L 68,28 l -4,0 0,4 -24,0 0,-4 -4,0 z" style="opacity:1;fill:#b3b3b3;fill-opacity:0.50196078;fill-rule:nonzero;stroke:none;stroke-width:2;stroke-linecap:butt;stroke-linejoin:miter;stroke-miterlimit:4;stroke-dasharray:none;stroke-dashoffset:0;stroke-opacity:1" />
    <circle style="opacity:1;fill:red;fill-opacity:0.50196078;fill-rule:nonzero;stroke:none;stroke-width:2;stroke-linecap:butt;stroke-linejoin:miter;stroke-miterlimit:4;stroke-dasharray:none;stroke-dashoffset:0;stroke-opacity:1" id="path4749" cx="52" cy="16" r="8" />
    <circle style="opacity:1;fill:red;fill-opacity:0.50196078;fill-rule:nonzero;stroke:none;stroke-width:2;stroke-linecap:butt;stroke-linejoin:miter;stroke-miterlimit:4;stroke-dasharray:none;stroke-dashoffset:0;stroke-opacity:1" id="path4751" cx="47" cy="12" r="12" />
    <circle r="8" cy="24" cx="48" id="circle4753" style="opacity:1;fill:red;fill-opacity:0.50196078;fill-rule:nonzero;stroke:none;stroke-width:2;stroke-linecap:butt;stroke-linejoin:miter;stroke-miterlimit:4;stroke-dasharray:none;stroke-dashoffset:0;stroke-opacity:1" />
    <circle style="opacity:1;fill:red;fill-opacity:0.50196078;fill-rule:nonzero;stroke:none;stroke-width:2;stroke-linecap:butt;stroke-linejoin:miter;stroke-miterlimit:4;stroke-dasharray:none;stroke-dashoffset:0;stroke-opacity:1" id="circle4755" cx="61" cy="14" r="8" />
    <circle style="opacity:1;fill:red;fill-opacity:0.50196078;fill-rule:nonzero;stroke:none;stroke-width:2;stroke-linecap:butt;stroke-linejoin:miter;stroke-miterlimit:4;stroke-dasharray:none;stroke-dashoffset:0;stroke-opacity:1" id="path4757" cx="56" cy="3.9999995" r="4" />
    <circle r="4" cy="5.9999995" cx="62" id="circle4759" style="opacity:1;fill:red;fill-opacity:0.50196078;fill-rule:nonzero;stroke:none;stroke-width:2;stroke-linecap:butt;stroke-linejoin:miter;stroke-miterlimit:4;stroke-dasharray:none;stroke-dashoffset:0;stroke-opacity:1" />
    <circle style="opacity:1;fill:red;fill-opacity:0.50196078;fill-rule:nonzero;stroke:none;stroke-width:2;stroke-linecap:butt;stroke-linejoin:miter;stroke-miterlimit:4;stroke-dasharray:none;stroke-dashoffset:0;stroke-opacity:1" id="circle4761" cx="58" cy="27.999998" r="4" />
    <circle r="4" cy="29.999998" cx="54" id="circle4763" style="opacity:1;fill:red;fill-opacity:0.50196078;fill-rule:nonzero;stroke:none;stroke-width:2;stroke-linecap:butt;stroke-linejoin:miter;stroke-miterlimit:4;stroke-dasharray:none;stroke-dashoffset:0;stroke-opacity:1" />
    <circle style="opacity:1;fill:red;fill-opacity:0.50196078;fill-rule:nonzero;stroke:none;stroke-width:2;stroke-linecap:butt;stroke-linejoin:miter;stroke-miterlimit:4;stroke-dasharray:none;stroke-dashoffset:0;stroke-opacity:1" id="circle4765" cx="46" cy="25.999998" r="4" />
    <circle r="4" cy="23.999998" cx="40" id="circle4767" style="opacity:1;fill:red;fill-opacity:0.50196078;fill-rule:nonzero;stroke:none;stroke-width:2;stroke-linecap:butt;stroke-linejoin:miter;stroke-miterlimit:4;stroke-dasharray:none;stroke-dashoffset:0;stroke-opacity:1" />
    <circle style="opacity:1;fill:red;fill-opacity:0.50196078;fill-rule:nonzero;stroke:none;stroke-width:2;stroke-linecap:butt;stroke-linejoin:miter;stroke-miterlimit:4;stroke-dasharray:none;stroke-dashoffset:0;stroke-opacity:1" id="circle4769" cx="42" cy="18" r="4" />
    <circle style="opacity:1;fill:red;fill-opacity:0.50196078;fill-rule:nonzero;stroke:none;stroke-width:2;stroke-linecap:butt;stroke-linejoin:miter;stroke-miterlimit:4;stroke-dasharray:none;stroke-dashoffset:0;stroke-opacity:1" id="circle4771" cx="60" cy="21.999998" r="8" />
    <g id="g10453">
      <rect y="0" x="0" height="32" width="32" id="rect10451" style="opacity:1;fill:none;fill-opacity:0.50196078;fill-rule:nonzero;stroke:none;stroke-width:2;stroke-linecap:butt;stroke-linejoin:miter;stroke-miterlimit:4;stroke-dasharray:none;stroke-dashoffset:0;stroke-opacity:1" />
      <path id="path3635" d="M 3 3 L 3 3.0722656 A 12 12 0 0 1 3.078125 3 L 3 3 z M 28.638672 3 A 4 4 0 0 1 29 3.3613281 L 29 3 L 28.638672 3 z M 5.0078125 27.867188 A 4 4 0 0 1 4 28 A 4 4 0 0 1 3 27.869141 L 3 29.28125 L 3 32 L 12 32 A 8 8 0 0 1 5.0078125 27.867188 z M 12 32 L 14.542969 32 A 4 4 0 0 1 14.355469 31.636719 A 8 8 0 0 1 12 32 z M 29 28.230469 A 8 8 0 0 1 25.546875 29.841797 A 4 4 0 0 1 22 32 L 29 32 L 29 29.28125 L 29 28.230469 z M 22 32 A 4 4 0 0 1 21.482422 31.962891 A 4 4 0 0 1 21.460938 32 L 22 32 z " style="fill:black;fill-opacity:1;fill-rule:nonzero;stroke:none;stroke-width:2;stroke-linecap:round;stroke-linejoin:miter;stroke-miterlimit:4;stroke-dashoffset:0;stroke-opacity:1" />
      <path id="path3648" d="M 28 28.910156 A 8 8 0 0 1 25.546875 29.841797 A 4 4 0 0 1 22 32 L 28 32 L 28 28.910156 z M 22 32 A 4 4 0 0 1 21.482422 31.962891 A 4 4 0 0 1 21.460938 32 L 22 32 z " style="fill:aqua;fill-opacity:1;fill-rule:nonzero;stroke:none;stroke-width:2;stroke-linecap:round;stroke-linejoin:miter;stroke-miterlimit:4;stroke-dasharray:none;stroke-dashoffset:0;stroke-opacity:1" />
      <path id="path3644" d="M 5.0078125 27.867188 A 4 4 0 0 1 4 28 L 4 32 L 12 32 A 8 8 0 0 1 5.0078125 27.867188 z M 12 32 L 14.542969 32 A 4 4 0 0 1 14.355469 31.636719 A 8 8 0 0 1 12 32 z " style="fill:blue;fill-opacity:1;fill-rule:nonzero;stroke:none;stroke-width:2;stroke-linecap:round;stroke-linejoin:miter;stroke-miterlimit:4;stroke-dasharray:none;stroke-dashoffset:0;stroke-opacity:1" />
      <path id="path3638" d="M 5.0078125 27.867188 A 4 4 0 0 1 5 27.869141 L 5 32 L 6 32 L 6 29.271484 A 8 8 0 0 1 5.0078125 27.867188 z M 7 30.230469 L 7 32 L 8 32 L 8 30.912109 A 8 8 0 0 1 7 30.230469 z M 9 31.404297 L 9 32 L 10 32 L 10 31.740234 A 8 8 0 0 1 9 31.404297 z M 14 31.728516 A 8 8 0 0 1 13 31.925781 L 13 32 L 14 32 L 14 31.728516 z M 11 31.927734 L 11 32 L 12 32 A 8 8 0 0 1 11 31.927734 z " style="fill:#6b6b6b;fill-opacity:1;fill-rule:nonzero;stroke:none;stroke-width:2;stroke-linecap:round;stroke-linejoin:miter;stroke-miterlimit:4;stroke-dasharray:none;stroke-dashoffset:0;stroke-opacity:1" />
      <path id="path3626" d="M 27 29.40625 A 8 8 0 0 1 26 29.728516 L 26 32 L 27 32 L 27 29.40625 z M 25 30.634766 A 4 4 0 0 1 24 31.457031 L 24 32 L 25 32 L 25 30.634766 z M 23 31.867188 A 4 4 0 0 1 22 32 L 23 32 L 23 31.867188 z " style="fill:#c3c3c3;fill-opacity:1;fill-rule:nonzero;stroke:none;stroke-width:2;stroke-linecap:round;stroke-linejoin:miter;stroke-miterlimit:4;stroke-dasharray:none;stroke-dashoffset:0;stroke-opacity:1" />
    </g>
  </g>
</svg>
