<?xml version="1.0" encoding="UTF-8" standalone="no"?>
<!-- Created with Inkscape (http://www.inkscape.org/) -->
<svg
   xmlns:dc="http://purl.org/dc/elements/1.1/"
   xmlns:cc="http://creativecommons.org/ns#"
   xmlns:rdf="http://www.w3.org/1999/02/22-rdf-syntax-ns#"
   xmlns:svg="http://www.w3.org/2000/svg"
   xmlns="http://www.w3.org/2000/svg"
   xmlns:sodipodi="http://sodipodi.sourceforge.net/DTD/sodipodi-0.dtd"
   xmlns:inkscape="http://www.inkscape.org/namespaces/inkscape"
   width="32px"
   height="32px"
   id="svg3505"
   sodipodi:version="0.32"
   inkscape:version="0.46"
   sodipodi:docname="mushroom-00.svg"
   inkscape:output_extension="org.inkscape.output.svg.inkscape"
   inkscape:export-filename="/home/andreas/Dokumente/Projekte/McMinos/svg/pills/cookie-m-00-x64.png"
   inkscape:export-xdpi="180"
   inkscape:export-ydpi="180">
  <defs
     id="defs3507">
    <inkscape:perspective
       sodipodi:type="inkscape:persp3d"
       inkscape:vp_x="0 : 16 : 1"
       inkscape:vp_y="0 : 1000 : 0"
       inkscape:vp_z="32 : 16 : 1"
       inkscape:persp3d-origin="16 : 10.666667 : 1"
       id="perspective3513" />
    <inkscape:perspective
       id="perspective4690"
       inkscape:persp3d-origin="372.04724 : 350.78739 : 1"
       inkscape:vp_z="744.09448 : 526.18109 : 1"
       inkscape:vp_y="0 : 1000 : 0"
       inkscape:vp_x="0 : 526.18109 : 1"
       sodipodi:type="inkscape:persp3d" />
    <inkscape:perspective
       id="perspective4555"
       inkscape:persp3d-origin="372.04724 : 350.78739 : 1"
       inkscape:vp_z="744.09448 : 526.18109 : 1"
       inkscape:vp_y="0 : 1000 : 0"
       inkscape:vp_x="0 : 526.18109 : 1"
       sodipodi:type="inkscape:persp3d" />
    <inkscape:perspective
       id="perspective4596"
       inkscape:persp3d-origin="372.04724 : 350.78739 : 1"
       inkscape:vp_z="744.09448 : 526.18109 : 1"
       inkscape:vp_y="0 : 1000 : 0"
       inkscape:vp_x="0 : 526.18109 : 1"
       sodipodi:type="inkscape:persp3d" />
    <inkscape:perspective
       id="perspective5729"
       inkscape:persp3d-origin="372.04724 : 350.78739 : 1"
       inkscape:vp_z="744.09448 : 526.18109 : 1"
       inkscape:vp_y="0 : 1000 : 0"
       inkscape:vp_x="0 : 526.18109 : 1"
       sodipodi:type="inkscape:persp3d" />
  </defs>
  <sodipodi:namedview
     id="base"
     pagecolor="#ffffff"
     bordercolor="#666666"
     borderopacity="1.0"
     inkscape:pageopacity="0.0"
     inkscape:pageshadow="2"
     inkscape:zoom="1"
     inkscape:cx="16"
     inkscape:cy="10.434783"
     inkscape:current-layer="layer1"
     showgrid="true"
     inkscape:grid-bbox="true"
     inkscape:document-units="px"
     objecttolerance="4"
     gridtolerance="4"
     guidetolerance="4"
     inkscape:window-width="641"
     inkscape:window-height="678"
     inkscape:window-x="0"
     inkscape:window-y="37"
     inkscape:object-paths="true"
     inkscape:object-nodes="true"
     inkscape:snap-bbox="true"
     inkscape:snap-guide="true"
     showguides="true"
     inkscape:guide-bbox="true">
    <inkscape:grid
       type="xygrid"
       id="grid3515"
       units="px"
       visible="true"
       enabled="true"
       spacingx="1px"
       spacingy="1px" />
    <sodipodi:guide
       orientation="1,0"
       position="30.5,14.811722"
       id="guide4618" />
  </sodipodi:namedview>
  <metadata
     id="metadata3510">
    <rdf:RDF>
      <cc:Work
         rdf:about="">
        <dc:format>image/svg+xml</dc:format>
        <dc:type
           rdf:resource="http://purl.org/dc/dcmitype/StillImage" />
        <dc:title>Mushroom 00</dc:title>
        <dc:date>2010-05-07</dc:date>
        <dc:creator>
          <cc:Agent>
            <dc:title>Andreas Neudecker &lt;zapyon@gmx.net&gt;</dc:title>
          </cc:Agent>
        </dc:creator>
        <dc:rights>
          <cc:Agent>
            <dc:title>Copyright (C) 2010 by Andreas Neudecker</dc:title>
          </cc:Agent>
        </dc:rights>
        <dc:publisher>
          <cc:Agent>
            <dc:title>Andreas Neudecker</dc:title>
          </cc:Agent>
        </dc:publisher>
        <dc:identifier>mushroom-00</dc:identifier>
        <dc:description>Power pill &quot;mushroom&quot;, will poison McMinos.</dc:description>
      </cc:Work>
    </rdf:RDF>
  </metadata>
  <g
     id="layer1"
     inkscape:label="Layer 1"
     inkscape:groupmode="layer">
    <path
       style="opacity:1;fill:none;fill-opacity:1;fill-rule:nonzero;stroke:#000000;stroke-width:2;stroke-linecap:round;stroke-linejoin:round;stroke-miterlimit:4;stroke-dasharray:none;stroke-dashoffset:0;stroke-opacity:1"
       d="M 17 3 C 15.322951 2.9729579 12.719283 3.4537917 11 4 C 9.2807173 4.5462083 7.1560446 5.5225069 6 7 C 4.8439554 8.4774931 4 10 4 12 C 4 14 4.578894 15.45786 5 16 C 5.7353448 16.735345 6.9679394 17.030614 8 17.0625 C 8.03234 17.307334 8.2463784 17.5 8.5 17.5 C 8.776 17.5 9 17.276 9 17 C 9.4336786 16.930205 9.7466235 16.645604 10 16.3125 L 10 17 C 10 17.276 10.224 17.5 10.5 17.5 C 10.776 17.5 11 17.276 11 17 L 11 15 C 11 15 11.334566 17.192285 11 18 C 10.665434 18.807715 9.4441894 19.38372 9 20 C 8.5558106 20.61628 8.1804503 21.2356 8 22 C 7.8195497 22.7644 7.8195497 24.2356 8 25 C 8.1804503 25.7644 8.5256584 26.525658 9 27 C 9.4743416 27.474342 10.251887 27.690121 11 28 C 11.748113 28.309879 13.087594 28.851937 14 29 C 14.912406 29.148063 16.2356 29.18045 17 29 C 17.7644 28.81955 18.38372 28.444189 19 28 C 19.61628 27.555811 20.527575 26.7644 21 26 C 21.472425 25.2356 21.958062 24.092002 22 23 C 22.041938 21.907998 21.409235 19.722786 21 19 C 20.590765 18.277214 20.3 18.3 20 18 C 19.7 17.7 19.218446 17.527376 19 17 L 19 14.59375 L 19 14.53125 C 19.347957 14.696374 19.677141 14.89589 20 15.125 L 20 17 C 20 17.276 20.224 17.5 20.5 17.5 C 20.776 17.5 21 17.276 21 17 L 21 16 C 21.194827 16.140423 21.602544 16.340148 22 16.53125 L 22 17 C 22 17.276 22.224 17.5 22.5 17.5 C 22.776 17.5 23 17.276 23 17 C 24.575025 17.298873 25.750489 17.132659 27 16 C 28.249511 14.867341 28.396131 12.585399 28 11 C 27.054835 7.6970314 25.004655 5.5136937 22 4 C 20.66816 3.5069351 18.677049 3.0270421 17 3 z "
       id="path6583" />
    <path
       style="opacity:1;fill:#ffffd5;fill-opacity:1;fill-rule:nonzero;stroke:none;stroke-width:2;stroke-linecap:round;stroke-linejoin:miter;stroke-miterlimit:4;stroke-dasharray:none;stroke-dashoffset:0;stroke-opacity:1"
       d="M 11,15 C 11,15 11.334566,17.192285 11,18 C 10.665434,18.807715 9.4441894,19.38372 9,20 C 8.5558106,20.61628 8.1804503,21.2356 8,22 C 7.8195497,22.7644 7.8195497,24.2356 8,25 C 8.1804503,25.7644 8.5256584,26.525658 9,27 C 9.4743416,27.474342 10.251887,27.690121 11,28 C 11.748113,28.309879 13.087594,28.851937 14,29 C 14.912406,29.148063 16.2356,29.18045 17,29 C 17.7644,28.81955 18.38372,28.444189 19,28 C 19.61628,27.555811 20.527575,26.7644 21,26 C 21.472425,25.2356 21.958062,24.092002 22,23 C 22.041938,21.907998 21.409235,19.722786 21,19 C 20.590765,18.277214 20.3,18.3 20,18 C 19.7,17.7 19.218446,17.527376 19,17 C 18.781554,16.472624 19,14.608696 19,14.608696 L 19,13 L 11,13 L 11,15 z"
       id="path6507"
       sodipodi:nodetypes="czzzzzzzzzzzzzzcccc" />
    <path
       style="opacity:1;fill:#ffd555;fill-opacity:1;fill-rule:nonzero;stroke:none;stroke-width:2;stroke-linecap:round;stroke-linejoin:miter;stroke-miterlimit:4;stroke-dasharray:none;stroke-dashoffset:0;stroke-opacity:1"
       d="M 8,13 L 8,17 C 8,17.276 8.224,17.5 8.5,17.5 C 8.776,17.5 9,17.276 9,17 L 9,13 L 8,13 z M 10,13 L 10,17 C 10,17.276 10.224,17.5 10.5,17.5 C 10.776,17.5 11,17.276 11,17 L 11,13 L 10,13 z M 12,13 L 12,17 C 12,17.276 12.224,17.5 12.5,17.5 C 12.776,17.5 13,17.276 13,17 L 13,13 L 12,13 z M 14,13 L 14,17 C 14,17.276 14.224,17.5 14.5,17.5 C 14.776,17.5 15,17.276 15,17 L 15,13 L 14,13 z M 16,13 L 16,17 C 16,17.276 16.224,17.5 16.5,17.5 C 16.776,17.5 17,17.276 17,17 L 17,13 L 16,13 z M 18,13 L 18,17 C 18,17.276 18.224,17.5 18.5,17.5 C 18.776,17.5 19,17.276 19,17 L 19,13 L 18,13 z M 20,13 L 20,17 C 20,17.276 20.224,17.5 20.5,17.5 C 20.776,17.5 21,17.276 21,17 L 21,13 L 20,13 z M 22,13 L 22,17 C 22,17.276 22.224,17.5 22.5,17.5 C 22.776,17.5 23,17.276 23,17 L 23,13 L 22,13 z"
       id="rect6509"
       sodipodi:nodetypes="ccscccccscccccscccccscccccscccccscccccscccccsccc" />
    <path
       style="opacity:1;fill:#d5aa55;fill-opacity:1;fill-rule:nonzero;stroke:none;stroke-width:2;stroke-linecap:round;stroke-linejoin:miter;stroke-miterlimit:4;stroke-dasharray:none;stroke-dashoffset:0;stroke-opacity:1"
       d="M 11,14 L 11,15 C 11,15 11.334566,17.192285 11,18 C 10.665434,18.807715 9.4441894,19.38372 9,20 C 8.5558106,20.61628 8.1804503,21.2356 8,22 C 7.8195497,22.7644 7.8195497,24.2356 8,25 C 8.1804503,25.7644 8.5256584,26.525658 9,27 C 9.4743416,27.474342 10.251887,27.690121 11,28 C 11.748113,28.309879 13.087594,28.851937 14,29 C 14.912406,29.148063 16.2356,29.18045 17,29 C 17.334425,28.921053 17.646719,28.799253 17.9375,28.65625 C 17.9375,28.65625 13.426087,28 12,27 C 10.573913,26 10,24.5 10,23 C 10,21.5 10.73913,20.75 11,20 C 11.26087,19.25 11.793478,18.375 12,17 C 12.206522,15.625 12,14 12,14 L 11,14 z"
       id="path6578"
       sodipodi:nodetypes="ccssssssssczzzscc" />
    <path
       sodipodi:nodetypes="ccscccccscccccscccccscccccscccccscccccscccccsccc"
       id="path6611"
       d="M 9,12.5 L 9,16.5 C 9,16.776 9.224,17 9.5,17 C 9.776,17 10,16.776 10,16.5 L 10,12.5 L 9,12.5 z M 11,12.5 L 11,16.5 C 11,16.776 11.224,17 11.5,17 C 11.776,17 12,16.776 12,16.5 L 12,12.5 L 11,12.5 z M 13,12.5 L 13,16.5 C 13,16.776 13.224,17 13.5,17 C 13.776,17 14,16.776 14,16.5 L 14,12.5 L 13,12.5 z M 15,12.5 L 15,16.5 C 15,16.776 15.224,17 15.5,17 C 15.776,17 16,16.776 16,16.5 L 16,12.5 L 15,12.5 z M 17,12.5 L 17,16.5 C 17,16.776 17.224,17 17.5,17 C 17.776,17 18,16.776 18,16.5 L 18,12.5 L 17,12.5 z M 19,12.5 L 19,16.5 C 19,16.776 19.224,17 19.5,17 C 19.776,17 20,16.776 20,16.5 L 20,12.5 L 19,12.5 z M 21,12.5 L 21,16.5 C 21,16.776 21.224,17 21.5,17 C 21.776,17 22,16.776 22,16.5 L 22,12.5 L 21,12.5 z M 23,12.5 L 23,16.5 C 23,16.776 23.224,17 23.5,17 C 23.776,17 24,16.776 24,16.5 L 24,12.5 L 23,12.5 z"
       style="opacity:1;fill:#d5aa55;fill-opacity:1;fill-rule:nonzero;stroke:none;stroke-width:2;stroke-linecap:round;stroke-linejoin:miter;stroke-miterlimit:4;stroke-dasharray:none;stroke-dashoffset:0;stroke-opacity:1" />
    <path
       style="opacity:1;fill:#ff0000;fill-opacity:1;fill-rule:nonzero;stroke:none;stroke-width:2;stroke-linecap:round;stroke-linejoin:miter;stroke-miterlimit:4;stroke-dasharray:none;stroke-dashoffset:0;stroke-opacity:1"
       d="M 17,3 C 15.322951,2.9729579 12.719283,3.4537917 11,4 C 9.2807173,4.5462083 7.1560446,5.5225069 6,7 C 4.8439554,8.4774931 4,10 4,12 C 4,14 4.578894,15.45786 5,16 C 6,17 7.9057462,17.176105 9,17 C 10.094254,16.823895 10.4,15.3 11,15 C 11.6,14.7 12.042643,14.226001 13,14 C 13.957357,13.773999 16.030896,13.787561 17.321739,14 C 18.612582,14.212439 19.992666,14.907268 21,16 C 21.444189,16.320154 23,17 23,17 C 24.575025,17.298873 25.750489,17.132659 27,16 C 28.249511,14.867341 28.396131,12.585399 28,11 C 27.054835,7.6970314 25.004655,5.5136937 22,4 C 20.66816,3.5069351 18.677049,3.0270421 17,3 z"
       id="path5735"
       sodipodi:nodetypes="czzzczczzcczccz" />
    <path
       sodipodi:type="arc"
       style="opacity:1;fill:#ffffff;fill-opacity:1;fill-rule:nonzero;stroke:none;stroke-width:2;stroke-linecap:round;stroke-linejoin:miter;stroke-miterlimit:4;stroke-dasharray:none;stroke-dashoffset:0;stroke-opacity:1"
       id="path6554"
       sodipodi:cx="8.5"
       sodipodi:cy="8.5"
       sodipodi:rx="1.5"
       sodipodi:ry="1.5"
       d="M 10,8.5 A 1.5,1.5 0 1 1 7,8.5 A 1.5,1.5 0 1 1 10,8.5 z" />
    <path
       d="M 10,8.5 A 1.5,1.5 0 1 1 7,8.5 A 1.5,1.5 0 1 1 10,8.5 z"
       sodipodi:ry="1.5"
       sodipodi:rx="1.5"
       sodipodi:cy="8.5"
       sodipodi:cx="8.5"
       id="path6556"
       style="opacity:1;fill:#ffffff;fill-opacity:1;fill-rule:nonzero;stroke:none;stroke-width:2;stroke-linecap:round;stroke-linejoin:miter;stroke-miterlimit:4;stroke-dasharray:none;stroke-dashoffset:0;stroke-opacity:1"
       sodipodi:type="arc"
       transform="translate(5,-2)" />
    <path
       transform="translate(10,-3)"
       sodipodi:type="arc"
       style="opacity:1;fill:#ffffff;fill-opacity:1;fill-rule:nonzero;stroke:none;stroke-width:2;stroke-linecap:round;stroke-linejoin:miter;stroke-miterlimit:4;stroke-dasharray:none;stroke-dashoffset:0;stroke-opacity:1"
       id="path6558"
       sodipodi:cx="8.5"
       sodipodi:cy="8.5"
       sodipodi:rx="1.5"
       sodipodi:ry="1.5"
       d="M 10,8.5 A 1.5,1.5 0 1 1 7,8.5 A 1.5,1.5 0 1 1 10,8.5 z" />
    <path
       d="M 10,8.5 A 1.5,1.5 0 1 1 7,8.5 A 1.5,1.5 0 1 1 10,8.5 z"
       sodipodi:ry="1.5"
       sodipodi:rx="1.5"
       sodipodi:cy="8.5"
       sodipodi:cx="8.5"
       id="path6560"
       style="opacity:1;fill:#ffffff;fill-opacity:1;fill-rule:nonzero;stroke:none;stroke-width:2;stroke-linecap:round;stroke-linejoin:miter;stroke-miterlimit:4;stroke-dasharray:none;stroke-dashoffset:0;stroke-opacity:1"
       sodipodi:type="arc"
       transform="translate(14,-2)" />
    <path
       transform="translate(9,2)"
       sodipodi:type="arc"
       style="opacity:1;fill:#ffffff;fill-opacity:1;fill-rule:nonzero;stroke:none;stroke-width:2;stroke-linecap:round;stroke-linejoin:miter;stroke-miterlimit:4;stroke-dasharray:none;stroke-dashoffset:0;stroke-opacity:1"
       id="path6562"
       sodipodi:cx="8.5"
       sodipodi:cy="8.5"
       sodipodi:rx="1.5"
       sodipodi:ry="1.5"
       d="M 10,8.5 A 1.5,1.5 0 1 1 7,8.5 A 1.5,1.5 0 1 1 10,8.5 z" />
    <path
       d="M 10,8.5 A 1.5,1.5 0 1 1 7,8.5 A 1.5,1.5 0 1 1 10,8.5 z"
       sodipodi:ry="1.5"
       sodipodi:rx="1.5"
       sodipodi:cy="8.5"
       sodipodi:cx="8.5"
       id="path6564"
       style="opacity:1;fill:#ffffff;fill-opacity:1;fill-rule:nonzero;stroke:none;stroke-width:2;stroke-linecap:round;stroke-linejoin:miter;stroke-miterlimit:4;stroke-dasharray:none;stroke-dashoffset:0;stroke-opacity:1"
       sodipodi:type="arc"
       transform="translate(16,3)" />
    <path
       d="M 10,8.5 A 1.5,1.5 0 1 1 7,8.5 A 1.5,1.5 0 1 1 10,8.5 z"
       sodipodi:ry="1.5"
       sodipodi:rx="1.5"
       sodipodi:cy="8.5"
       sodipodi:cx="8.5"
       id="path6566"
       style="opacity:1;fill:#ffffff;fill-opacity:1;fill-rule:nonzero;stroke:none;stroke-width:2;stroke-linecap:round;stroke-linejoin:miter;stroke-miterlimit:4;stroke-dasharray:none;stroke-dashoffset:0;stroke-opacity:1"
       sodipodi:type="arc"
       transform="translate(-2,4)" />
    <path
       transform="translate(3,3)"
       sodipodi:type="arc"
       style="opacity:1;fill:#ffffff;fill-opacity:1;fill-rule:nonzero;stroke:none;stroke-width:2;stroke-linecap:round;stroke-linejoin:miter;stroke-miterlimit:4;stroke-dasharray:none;stroke-dashoffset:0;stroke-opacity:1"
       id="path6568"
       sodipodi:cx="8.5"
       sodipodi:cy="8.5"
       sodipodi:rx="1.5"
       sodipodi:ry="1.5"
       d="M 10,8.5 A 1.5,1.5 0 1 1 7,8.5 A 1.5,1.5 0 1 1 10,8.5 z" />
    <path
       sodipodi:type="arc"
       style="opacity:1;fill:#d5aa55;fill-opacity:1;fill-rule:nonzero;stroke:none;stroke-width:2;stroke-linecap:round;stroke-linejoin:round;stroke-miterlimit:4;stroke-dasharray:none;stroke-dashoffset:0;stroke-opacity:1"
       id="path6613"
       sodipodi:cx="11.343478"
       sodipodi:cy="21.5"
       sodipodi:rx="0.34347826"
       sodipodi:ry="0.5"
       d="M 11.686956,21.5 A 0.34347826,0.5 0 1 1 11,21.5 A 0.34347826,0.5 0 1 1 11.686956,21.5 z"
       transform="matrix(1.4556963,0,0,1,-5.0126591,0)" />
    <path
       transform="matrix(1.4556963,0,0,1,-5.0126592,2)"
       d="M 11.686956,21.5 A 0.34347826,0.5 0 1 1 11,21.5 A 0.34347826,0.5 0 1 1 11.686956,21.5 z"
       sodipodi:ry="0.5"
       sodipodi:rx="0.34347826"
       sodipodi:cy="21.5"
       sodipodi:cx="11.343478"
       id="path6615"
       style="opacity:1;fill:#d5aa55;fill-opacity:1;fill-rule:nonzero;stroke:none;stroke-width:2;stroke-linecap:round;stroke-linejoin:round;stroke-miterlimit:4;stroke-dasharray:none;stroke-dashoffset:0;stroke-opacity:1"
       sodipodi:type="arc" />
    <path
       sodipodi:type="arc"
       style="opacity:1;fill:#d5aa55;fill-opacity:1;fill-rule:nonzero;stroke:none;stroke-width:2;stroke-linecap:round;stroke-linejoin:round;stroke-miterlimit:4;stroke-dasharray:none;stroke-dashoffset:0;stroke-opacity:1"
       id="path6617"
       sodipodi:cx="11.343478"
       sodipodi:cy="21.5"
       sodipodi:rx="0.34347826"
       sodipodi:ry="0.5"
       d="M 11.686956,21.5 A 0.34347826,0.5 0 1 1 11,21.5 A 0.34347826,0.5 0 1 1 11.686956,21.5 z"
       transform="matrix(1.4556963,0,0,1,-4.5126592,4)" />
    <path
       transform="matrix(1.4556963,0,0,1,-3.0126592,5)"
       d="M 11.686956,21.5 A 0.34347826,0.5 0 1 1 11,21.5 A 0.34347826,0.5 0 1 1 11.686956,21.5 z"
       sodipodi:ry="0.5"
       sodipodi:rx="0.34347826"
       sodipodi:cy="21.5"
       sodipodi:cx="11.343478"
       id="path6619"
       style="opacity:1;fill:#d5aa55;fill-opacity:1;fill-rule:nonzero;stroke:none;stroke-width:2;stroke-linecap:round;stroke-linejoin:round;stroke-miterlimit:4;stroke-dasharray:none;stroke-dashoffset:0;stroke-opacity:1"
       sodipodi:type="arc" />
    <path
       sodipodi:type="arc"
       style="opacity:1;fill:#d5aa55;fill-opacity:1;fill-rule:nonzero;stroke:none;stroke-width:2;stroke-linecap:round;stroke-linejoin:round;stroke-miterlimit:4;stroke-dasharray:none;stroke-dashoffset:0;stroke-opacity:1"
       id="path6621"
       sodipodi:cx="11.343478"
       sodipodi:cy="21.5"
       sodipodi:rx="0.34347826"
       sodipodi:ry="0.5"
       d="M 11.686956,21.5 A 0.34347826,0.5 0 1 1 11,21.5 A 0.34347826,0.5 0 1 1 11.686956,21.5 z"
       transform="matrix(1.4556963,0,0,1,-3.5126592,3)" />
    <path
       transform="matrix(1.4556963,0,0,1,-4.0126592,1)"
       d="M 11.686956,21.5 A 0.34347826,0.5 0 1 1 11,21.5 A 0.34347826,0.5 0 1 1 11.686956,21.5 z"
       sodipodi:ry="0.5"
       sodipodi:rx="0.34347826"
       sodipodi:cy="21.5"
       sodipodi:cx="11.343478"
       id="path6623"
       style="opacity:1;fill:#d5aa55;fill-opacity:1;fill-rule:nonzero;stroke:none;stroke-width:2;stroke-linecap:round;stroke-linejoin:round;stroke-miterlimit:4;stroke-dasharray:none;stroke-dashoffset:0;stroke-opacity:1"
       sodipodi:type="arc" />
    <path
       sodipodi:type="arc"
       style="opacity:1;fill:#d5aa55;fill-opacity:1;fill-rule:nonzero;stroke:none;stroke-width:2;stroke-linecap:round;stroke-linejoin:round;stroke-miterlimit:4;stroke-dasharray:none;stroke-dashoffset:0;stroke-opacity:1"
       id="path6625"
       sodipodi:cx="11.343478"
       sodipodi:cy="21.5"
       sodipodi:rx="0.34347826"
       sodipodi:ry="0.5"
       d="M 11.686956,21.5 A 0.34347826,0.5 0 1 1 11,21.5 A 0.34347826,0.5 0 1 1 11.686956,21.5 z"
       transform="matrix(1.4556963,0,0,1,-4.0126592,-1.9565217)" />
    <path
       transform="matrix(1.4556963,0,0,1,0.9873407,-1)"
       d="M 11.686956,21.5 A 0.34347826,0.5 0 1 1 11,21.5 A 0.34347826,0.5 0 1 1 11.686956,21.5 z"
       sodipodi:ry="0.5"
       sodipodi:rx="0.34347826"
       sodipodi:cy="21.5"
       sodipodi:cx="11.343478"
       id="path6627"
       style="opacity:1;fill:#d5aa55;fill-opacity:1;fill-rule:nonzero;stroke:none;stroke-width:2;stroke-linecap:round;stroke-linejoin:round;stroke-miterlimit:4;stroke-dasharray:none;stroke-dashoffset:0;stroke-opacity:1"
       sodipodi:type="arc" />
    <path
       sodipodi:type="arc"
       style="opacity:1;fill:#d5aa55;fill-opacity:1;fill-rule:nonzero;stroke:none;stroke-width:2;stroke-linecap:round;stroke-linejoin:round;stroke-miterlimit:4;stroke-dasharray:none;stroke-dashoffset:0;stroke-opacity:1"
       id="path6629"
       sodipodi:cx="11.343478"
       sodipodi:cy="21.5"
       sodipodi:rx="0.34347826"
       sodipodi:ry="0.5"
       d="M 11.686956,21.5 A 0.34347826,0.5 0 1 1 11,21.5 A 0.34347826,0.5 0 1 1 11.686956,21.5 z"
       transform="matrix(1.4556963,0,0,1,1.9612537,1)" />
    <path
       transform="matrix(1.4556963,0,0,1,-0.5126592,5.5)"
       d="M 11.686956,21.5 A 0.34347826,0.5 0 1 1 11,21.5 A 0.34347826,0.5 0 1 1 11.686956,21.5 z"
       sodipodi:ry="0.5"
       sodipodi:rx="0.34347826"
       sodipodi:cy="21.5"
       sodipodi:cx="11.343478"
       id="path6631"
       style="opacity:1;fill:#d5aa55;fill-opacity:1;fill-rule:nonzero;stroke:none;stroke-width:2;stroke-linecap:round;stroke-linejoin:round;stroke-miterlimit:4;stroke-dasharray:none;stroke-dashoffset:0;stroke-opacity:1"
       sodipodi:type="arc" />
    <path
       sodipodi:type="arc"
       style="opacity:1;fill:#d5aa55;fill-opacity:1;fill-rule:nonzero;stroke:none;stroke-width:2;stroke-linecap:round;stroke-linejoin:round;stroke-miterlimit:4;stroke-dasharray:none;stroke-dashoffset:0;stroke-opacity:1"
       id="path6633"
       sodipodi:cx="11.343478"
       sodipodi:cy="21.5"
       sodipodi:rx="0.34347826"
       sodipodi:ry="0.5"
       d="M 11.686956,21.5 A 0.34347826,0.5 0 1 1 11,21.5 A 0.34347826,0.5 0 1 1 11.686956,21.5 z"
       transform="matrix(1.4556963,0,0,1,-0.5126592,4)" />
    <path
       transform="matrix(1.4556963,0,0,1,-2.0126593,0)"
       d="M 11.686956,21.5 A 0.34347826,0.5 0 1 1 11,21.5 A 0.34347826,0.5 0 1 1 11.686956,21.5 z"
       sodipodi:ry="0.5"
       sodipodi:rx="0.34347826"
       sodipodi:cy="21.5"
       sodipodi:cx="11.343478"
       id="path6635"
       style="opacity:1;fill:#d5aa55;fill-opacity:1;fill-rule:nonzero;stroke:none;stroke-width:2;stroke-linecap:round;stroke-linejoin:round;stroke-miterlimit:4;stroke-dasharray:none;stroke-dashoffset:0;stroke-opacity:1"
       sodipodi:type="arc" />
  </g>
</svg>
