<?xml version="1.0" encoding="UTF-8" standalone="no"?>
<!-- Created with Inkscape (http://www.inkscape.org/) -->

<svg xmlns:dc="http://purl.org/dc/elements/1.1/" xmlns:cc="http://creativecommons.org/ns#" xmlns:rdf="http://www.w3.org/1999/02/22-rdf-syntax-ns#" xmlns:svg="http://www.w3.org/2000/svg" xmlns="http://www.w3.org/2000/svg" xmlns:xlink="http://www.w3.org/1999/xlink" xmlns:sodipodi="http://sodipodi.sourceforge.net/DTD/sodipodi-0.dtd" xmlns:inkscape="http://www.inkscape.org/namespaces/inkscape" width="32" height="32" id="svg4150" version="1.1" inkscape:version="0.91 r13725" viewBox="0 0 32 32" sodipodi:docname="00.svg">
  <defs id="defs4152" />
  <sodipodi:namedview id="base" pagecolor="#ffffff" bordercolor="#666666" borderopacity="1.0" inkscape:pageopacity="0.0" inkscape:pageshadow="2" inkscape:zoom="22.125" inkscape:cx="16" inkscape:cy="16" inkscape:current-layer="layer1" showgrid="false" inkscape:grid-bbox="true" inkscape:document-units="px" objecttolerance="10000" inkscape:snap-perpendicular="true" guidetolerance="10000" inkscape:window-width="1600" inkscape:window-height="878" inkscape:window-x="0" inkscape:window-y="0" inkscape:window-maximized="1" showguides="false" inkscape:guide-bbox="true">
    <inkscape:grid type="xygrid" id="grid4698" empspacing="4" />
    <sodipodi:guide position="16,32" orientation="1,0" id="guide4769" />
    <sodipodi:guide position="-4,16" orientation="0,1" id="guide4771" />
    <sodipodi:guide position="16,16" orientation="-0.70710678,0.70710678" id="guide4773" />
    <sodipodi:guide position="16,16" orientation="0.70710678,0.70710678" id="guide4775" />
  </sodipodi:namedview>
  <metadata id="metadata4155">
    <rdf:RDF>
      <cc:Work rdf:about="">
        <dc:format>image/svg+xml</dc:format>
        <dc:type rdf:resource="http://purl.org/dc/dcmitype/StillImage" />
        <dc:title></dc:title>
      </cc:Work>
    </rdf:RDF>
  </metadata>
  <g id="layer1" inkscape:label="Layer 1" inkscape:groupmode="layer">
    <g transform="matrix(2.6196318,1.5124451,-1.512464,2.6196646,-86.918797,79.891704)" id="g22559">
      <path style="opacity:1;fill:#41b500;fill-opacity:1;fill-rule:nonzero;stroke:none;stroke-width:2;stroke-linecap:butt;stroke-linejoin:miter;stroke-miterlimit:4;stroke-dasharray:none;stroke-dashoffset:0;stroke-opacity:1" d="m 19.000848,-35.180695 c 0,0 -4.826992,3.363595 -1.956206,4.828964 2.870785,1.465371 1.956206,-4.828964 1.956206,-4.828964 z" id="path22549" inkscape:connector-curvature="0" inkscape:transform-center-x="4.0384239" inkscape:transform-center-y="7.4795343" />
      <use x="0" y="0" xlink:href="#path22549" inkscape:transform-center-x="7.2018793" inkscape:transform-center-y="-5.2019673" id="use22553" transform="matrix(0.20829229,0.97806697,-0.97806672,0.20829027,-19.213818,-46.269623)" width="100%" height="100%" />
      <use height="100%" width="100%" transform="matrix(0.69348066,0.72048277,0.72048736,-0.69346025,30.189793,-73.327913)" id="use22555" inkscape:transform-center-y="-8.5114549" inkscape:transform-center-x="-1.4550146" xlink:href="#path22549" y="0" x="0" />
      <path inkscape:transform-center-y="1.1620005" inkscape:transform-center-x="-7.9231914" inkscape:connector-curvature="0" id="path22557" d="m 19.000398,-35.379867 c 0,0 5.464196,-2.180972 5.108908,1.022495 -0.355289,3.203466 -5.108908,-1.022495 -5.108908,-1.022495 z" style="opacity:1;fill:#41b500;fill-opacity:1;fill-rule:nonzero;stroke:none;stroke-width:2;stroke-linecap:butt;stroke-linejoin:miter;stroke-miterlimit:4;stroke-dasharray:none;stroke-dashoffset:0;stroke-opacity:1" />
      <g transform="matrix(0.06981847,0,0,0.06981847,14.856448,-90.313508)" id="g4792">
        <path inkscape:connector-curvature="0" style="fill:blue;fill-opacity:1;fill-rule:nonzero;stroke:none" d="m 59.294118,776.19411 c 0,0 -0.20111,-47.79889 -32,-16 -31.7988924,31.79889 16,32 16,32 0,0 -47.7988924,0.20111 -16,32 31.79889,31.79889 32,-16 32,-16 0,0 -0.052,48.05205 32,16 32.052052,-32.05205 -16,-32 -16,-32 0,0 47.798892,-0.20111 16,-32 -31.79889,-31.79889 -32,16 -32,16 z" id="path4794" sodipodi:nodetypes="czczczczc" />
        <circle r="16" cy="112" cx="112" style="fill:yellow;fill-opacity:1;fill-rule:nonzero;stroke:none" id="path4796" transform="translate(-52.705882,680.19411)" />
      </g>
    </g>
  </g>
</svg>
