<?xml version="1.0" encoding="UTF-8" standalone="no"?>
<!-- Created with Inkscape (http://www.inkscape.org/) -->

<svg
   xmlns:dc="http://purl.org/dc/elements/1.1/"
   xmlns:cc="http://creativecommons.org/ns#"
   xmlns:rdf="http://www.w3.org/1999/02/22-rdf-syntax-ns#"
   xmlns:svg="http://www.w3.org/2000/svg"
   xmlns="http://www.w3.org/2000/svg"
   xmlns:sodipodi="http://sodipodi.sourceforge.net/DTD/sodipodi-0.dtd"
   xmlns:inkscape="http://www.inkscape.org/namespaces/inkscape"
   width="32px"
   height="32px"
   id="svg3505"
   sodipodi:version="0.32"
   inkscape:version="0.48.5 r10040"
   sodipodi:docname="57.svg"
   inkscape:output_extension="org.inkscape.output.svg.inkscape"
   version="1.1">
  <defs
     id="defs3507">
    <inkscape:perspective
       sodipodi:type="inkscape:persp3d"
       inkscape:vp_x="0 : 16 : 1"
       inkscape:vp_y="0 : 1000 : 0"
       inkscape:vp_z="32 : 16 : 1"
       inkscape:persp3d-origin="16 : 10.666667 : 1"
       id="perspective3513" />
    <inkscape:perspective
       id="perspective4690"
       inkscape:persp3d-origin="372.04724 : 350.78739 : 1"
       inkscape:vp_z="744.09448 : 526.18109 : 1"
       inkscape:vp_y="0 : 1000 : 0"
       inkscape:vp_x="0 : 526.18109 : 1"
       sodipodi:type="inkscape:persp3d" />
  </defs>
  <sodipodi:namedview
     id="base"
     pagecolor="#ffffff"
     bordercolor="#666666"
     borderopacity="1.0"
     inkscape:pageopacity="0.0"
     inkscape:pageshadow="2"
     inkscape:zoom="15.671875"
     inkscape:cx="16"
     inkscape:cy="16"
     inkscape:current-layer="layer1"
     showgrid="true"
     inkscape:grid-bbox="true"
     inkscape:document-units="px"
     objecttolerance="10000"
     gridtolerance="10000"
     guidetolerance="10000"
     inkscape:window-width="1024"
     inkscape:window-height="741"
     inkscape:window-x="0"
     inkscape:window-y="2"
     inkscape:object-paths="true"
     inkscape:object-nodes="true"
     inkscape:snap-bbox="true"
     inkscape:snap-guide="true"
     inkscape:window-maximized="1"
     showguides="true"
     inkscape:guide-bbox="true">
    <inkscape:grid
       type="xygrid"
       id="grid3515"
       units="px"
       visible="true"
       enabled="true"
       spacingx="1px"
       spacingy="1px"
       empspacing="4"
       snapvisiblegridlinesonly="true" />
  </sodipodi:namedview>
  <metadata
     id="metadata3510">
    <rdf:RDF>
      <cc:Work
         rdf:about="">
        <dc:format>image/svg+xml</dc:format>
        <dc:type
           rdf:resource="http://purl.org/dc/dcmitype/StillImage" />
        <dc:title />
        <dc:date>2010-04-26</dc:date>
        <dc:creator>
          <cc:Agent>
            <dc:title>Andreas Neudecker &lt;zapyon@gmx.net&gt;</dc:title>
          </cc:Agent>
        </dc:creator>
        <dc:rights>
          <cc:Agent>
            <dc:title>Copyright (C) 2010 by Andreas Neudecker</dc:title>
          </cc:Agent>
        </dc:rights>
        <dc:publisher>
          <cc:Agent>
            <dc:title>Andreas Neudecker</dc:title>
          </cc:Agent>
        </dc:publisher>
        <dc:identifier>vorlage-32x32-mcminos</dc:identifier>
        <dc:description>Vorlage für 32x32-Pixel-Icons für McMinos. Metadaten jeweils entsprechend anpassen!</dc:description>
      </cc:Work>
    </rdf:RDF>
  </metadata>
  <g
     id="layer1"
     inkscape:label="Layer 1"
     inkscape:groupmode="layer">
    <g
       id="g12277">
      <rect
         y="0"
         x="0"
         height="32"
         width="32"
         id="rect5378"
         style="fill:none;stroke:none" />
      <path
         transform="matrix(1.0440591,0,0,0.9999439,-255.76471,-120.05549)"
         d="m 274.6633,136.06313 a 14.367003,15.000842 0 1 1 -28.73401,0 14.367003,15.000842 0 1 1 28.73401,0 z"
         sodipodi:ry="15.000842"
         sodipodi:rx="14.367003"
         sodipodi:cy="136.06313"
         sodipodi:cx="260.2963"
         id="path4818"
         style="fill:black;fill-opacity:1;fill-rule:nonzero;stroke:none"
         sodipodi:type="arc" />
      <path
         transform="matrix(2.0024876,0,0,2.0024876,0.04974722,-0.01990512)"
         d="M 14.956522,8 A 6.9913044,6.9913044 0 1 1 0.97391319,8 6.9913044,6.9913044 0 1 1 14.956522,8 z"
         sodipodi:ry="6.9913044"
         sodipodi:rx="6.9913044"
         sodipodi:cy="8"
         sodipodi:cx="7.9652176"
         id="path3403"
         style="fill:#ff8000;fill-opacity:1;fill-rule:nonzero;stroke:none"
         sodipodi:type="arc" />
      <path
         sodipodi:open="true"
         sodipodi:end="3.1415927"
         sodipodi:start="0"
         transform="matrix(3.127226,0,0,3.1381681,-72.05343,-146.63205)"
         d="m 32.314078,51.823883 a 4.1570387,3.8238845 0 1 1 -8.314077,0"
         sodipodi:ry="3.8238845"
         sodipodi:rx="4.1570387"
         sodipodi:cy="51.823883"
         sodipodi:cx="28.15704"
         id="path3429"
         style="fill:#e1fff9;fill-opacity:1;fill-rule:nonzero;stroke:none"
         sodipodi:type="arc" />
      <path
         d="M 10,5 A 2,2 0 1 1 6,5 2,2 0 1 1 10,5 z"
         sodipodi:ry="2"
         sodipodi:rx="2"
         sodipodi:cy="5"
         sodipodi:cx="8"
         id="path3407"
         style="fill:white;fill-opacity:1;fill-rule:nonzero;stroke:none"
         sodipodi:type="arc"
         transform="matrix(2,0,0,2,-7.0000028,-5.1161847e-6)" />
      <path
         transform="matrix(2,0,0,2,6.999997,-5.1161847e-6)"
         sodipodi:type="arc"
         style="fill:white;fill-opacity:1;fill-rule:nonzero;stroke:none"
         id="path3425"
         sodipodi:cx="8"
         sodipodi:cy="5"
         sodipodi:rx="2"
         sodipodi:ry="2"
         d="M 10,5 A 2,2 0 1 1 6,5 2,2 0 1 1 10,5 z" />
      <path
         transform="matrix(2,0,0,2,-7,0)"
         d="M 9,5 A 1,1 0 1 1 7,5 1,1 0 1 1 9,5 z"
         sodipodi:ry="1"
         sodipodi:rx="1"
         sodipodi:cy="5"
         sodipodi:cx="8"
         id="path3409"
         style="fill:black;fill-opacity:1;fill-rule:nonzero;stroke:none"
         sodipodi:type="arc" />
      <path
         sodipodi:type="arc"
         style="fill:black;fill-opacity:1;fill-rule:nonzero;stroke:none"
         id="path3427"
         sodipodi:cx="8"
         sodipodi:cy="5"
         sodipodi:rx="1"
         sodipodi:ry="1"
         d="M 9,5 A 1,1 0 1 1 7,5 1,1 0 1 1 9,5 z"
         transform="matrix(2,0,0,2,7,0)" />
      <path
         sodipodi:open="true"
         sodipodi:type="arc"
         style="fill:white;fill-opacity:1;fill-rule:nonzero;stroke:none"
         id="path3443"
         sodipodi:cx="28.15704"
         sodipodi:cy="51.823883"
         sodipodi:rx="4.1570387"
         sodipodi:ry="0.76477689"
         d="m 24.000001,51.823883 a 4.1570387,0.76477689 0 0 1 8.314077,0"
         transform="matrix(3.3677824,0,0,1.7603396e-6,-78.826783,15.999905)"
         sodipodi:start="3.1415927"
         sodipodi:end="6.2831853" />
      <path
         style="fill:#81e6ff;fill-opacity:0.25098039;stroke:none"
         d="m 3,16 c 0,0.414213 0.018118,0.815345 0.0625,1.21875 0.00294,0.03062 -0.00315,0.0632 0,0.09375 0.1354603,1.142757 0.479325,2.226735 0.9375,3.25 L 4,16 3,16 z m 6,0 0,10.09375 c 0.6331328,0.374257 1.298283,0.730152 2,1 L 11,16 9,16 z m 7,0 0,12 c 0.678455,0 1.349587,-0.06377 2,-0.15625 L 18,16 16,16 z m 7,0 0,10.09375 c 0.720414,-0.42585 1.385958,-0.892692 2,-1.4375 L 25,16 23,16 z"
         id="rect3904"
         inkscape:connector-curvature="0" />
      <path
         style="fill:white;fill-opacity:1;stroke:none"
         d="m 7,16 0,8.65625 c 0.6140419,0.544808 1.2795861,1.01165 2,1.4375 L 9,16 7,16 z m 7,0 0,11.84375 C 14.650413,27.936225 15.321545,28 16,28 l 0,-12 -2,0 z m 7,0 0,11.09375 c 0.701717,-0.269848 1.366867,-0.625743 2,-1 L 23,16 21,16 z m 7,0 0,4.5625 c 0.458175,-1.023265 0.80204,-2.107243 0.9375,-3.25 0.0032,-0.03055 -0.0029,-0.06313 0,-0.09375 C 28.981882,16.815345 29,16.414213 29,16 l -1,0 z"
         id="rect3912"
         inkscape:connector-curvature="0" />
      <path
         d="m 24.90832,18.013372 -1.648098,-0.403891 -1.714291,1.119835 -0.433062,-1.514359 -1.280033,-0.98375 1.782988,-0.93578 0.440009,-1.715252 1.373388,1.506718 1.910385,-0.447304 -1.581058,1.70723 z"
         inkscape:randomized="0.15"
         inkscape:rounded="0"
         inkscape:flatsided="false"
         sodipodi:arg2="1.3082274"
         sodipodi:arg1="0.67990884"
         sodipodi:r2="1.3750492"
         sodipodi:r1="2.9724617"
         sodipodi:cy="16.131147"
         sodipodi:cx="22.688524"
         sodipodi:sides="5"
         id="path5561"
         style="fill:yellow;fill-opacity:1;fill-rule:nonzero;stroke:none"
         sodipodi:type="star"
         transform="matrix(-1,0,0,-1,36.859252,36.247489)" />
      <path
         transform="matrix(-1,0,0,-1,29.673332,41.782779)"
         d="M 5.1345882,14.972891 2.6733324,13.782779 1.4575124,16.626995 0.31968082,13.567009 -1.9740686,13.031844 0.81407962,12.53529 1.2228406,9.8852061 1.7962122,12.084509 4.9342686,10.530887 2.8711997,12.392229 z"
         inkscape:randomized="0.17"
         inkscape:rounded="0"
         inkscape:flatsided="false"
         sodipodi:arg2="1.2163211"
         sodipodi:arg1="0.5880026"
         sodipodi:r2="1.4422204"
         sodipodi:r1="3.6055512"
         sodipodi:cy="13"
         sodipodi:cx="2"
         sodipodi:sides="5"
         id="path5483"
         style="fill:yellow;fill-opacity:1;fill-rule:nonzero;stroke:none"
         sodipodi:type="star" />
    </g>
  </g>
</svg>
