<?xml version="1.0" encoding="UTF-8" standalone="no"?>
<!-- Created with Inkscape (http://www.inkscape.org/) -->

<svg xmlns:dc="http://purl.org/dc/elements/1.1/" xmlns:cc="http://creativecommons.org/ns#" xmlns:rdf="http://www.w3.org/1999/02/22-rdf-syntax-ns#" xmlns:svg="http://www.w3.org/2000/svg" xmlns="http://www.w3.org/2000/svg" xmlns:sodipodi="http://sodipodi.sourceforge.net/DTD/sodipodi-0.dtd" xmlns:inkscape="http://www.inkscape.org/namespaces/inkscape" width="8" height="8" id="svg2" sodipodi:version="0.32" inkscape:version="0.91 r13725" version="1.0" sodipodi:docname="00.svg" inkscape:output_extension="org.inkscape.output.svg.inkscape" viewBox="0 0 8 8">
  <defs id="defs4">
    <inkscape:perspective sodipodi:type="inkscape:persp3d" inkscape:vp_x="0 : 526.18109 : 1" inkscape:vp_y="0 : 1000 : 0" inkscape:vp_z="744.09448 : 526.18109 : 1" inkscape:persp3d-origin="372.04724 : 350.78739 : 1" id="perspective10" />
  </defs>
  <sodipodi:namedview id="base" pagecolor="#ffffff" bordercolor="#666666" borderopacity="1.0" inkscape:pageopacity="0.0" inkscape:pageshadow="2" inkscape:zoom="88.5" inkscape:cx="4" inkscape:cy="4" inkscape:document-units="px" inkscape:current-layer="layer1" showgrid="true" objecttolerance="10000" gridtolerance="10000" guidetolerance="10000" inkscape:window-width="1600" inkscape:window-height="878" inkscape:window-x="0" inkscape:window-y="0" inkscape:snap-perpendicular="true" inkscape:snap-tangential="true" showguides="true" inkscape:guide-bbox="true" inkscape:window-maximized="1">
    <inkscape:grid type="xygrid" id="grid2383" units="px" visible="true" enabled="true" empspacing="8" spacingx="0.5" spacingy="0.5" />
    <sodipodi:guide position="4,12" orientation="1,0" id="guide5299" />
    <sodipodi:guide position="12,4" orientation="0,1" id="guide5301" />
    <sodipodi:guide position="12,12" orientation="-0.70710678,0.70710678" id="guide5303" />
    <sodipodi:guide position="-4,12" orientation="0.70710678,0.70710678" id="guide5305" />
  </sodipodi:namedview>
  <metadata id="metadata7">
    <rdf:RDF>
      <cc:Work rdf:about="">
        <dc:format>image/svg+xml</dc:format>
        <dc:type rdf:resource="http://purl.org/dc/dcmitype/StillImage" />
        <dc:title></dc:title>
      </cc:Work>
    </rdf:RDF>
  </metadata>
  <g inkscape:label="Ebene 1" inkscape:groupmode="layer" id="layer1" transform="translate(0,-8)">
    <g id="g9530">
      <rect y="8" x="0" height="8" width="8" id="rect9528" style="opacity:1;fill:none;fill-opacity:0.25098039;fill-rule:nonzero;stroke:none;stroke-width:1;stroke-linecap:round;stroke-linejoin:miter;stroke-miterlimit:4;stroke-dasharray:none;stroke-dashoffset:0;stroke-opacity:1" />
      <path sodipodi:nodetypes="ccccccccccccccccc" inkscape:connector-curvature="0" style="opacity:1;fill:black;fill-opacity:1;fill-rule:nonzero;stroke:none;stroke-width:1;stroke-linecap:round;stroke-linejoin:miter;stroke-miterlimit:4;stroke-dasharray:none;stroke-dashoffset:0;stroke-opacity:1" d="M 0,0 0,1 0.5,2 0.5,8 7,8 7,2 7.5,1 7.5,0 6,0 6,1 4.5,1 4.5,0 3,0 3,1 1.5,1 1.5,0 Z" transform="translate(0,8)" id="path9526" />
      <path id="rect8333" transform="translate(0,8)" d="M 0 0 L 0 1 L 0.5 2 L 0.5 8 L 7 8 L 7 2 L 7.5 1 L 7.5 0 L 6 0 L 6 1 L 4.5 1 L 4.5 0 L 3 0 L 3 1 L 1.5 1 L 1.5 0 L 0 0 z M 5.5 2 A 1 1 0 0 1 6.5 3 L 6.5 4 L 5.5 4 L 4.5 4 L 4.5 3 A 1 1 0 0 1 5.5 2 z " style="opacity:1;fill:#c0c0c0;fill-opacity:1;fill-rule:nonzero;stroke:none;stroke-width:1;stroke-linecap:round;stroke-linejoin:miter;stroke-miterlimit:4;stroke-dasharray:none;stroke-dashoffset:0;stroke-opacity:1" />
      <path inkscape:connector-curvature="0" id="path8343" d="M 2.5,12.5 A 1.5,1.5 0 0 0 1,14 l 0,2 3,0 0,-2 A 1.5,1.5 0 0 0 2.5,12.5 Z" style="opacity:1;fill:#d0aa00;fill-opacity:1;fill-rule:nonzero;stroke:none;stroke-width:1;stroke-linecap:round;stroke-linejoin:miter;stroke-miterlimit:4;stroke-dasharray:none;stroke-dashoffset:0;stroke-opacity:1" />
      <path id="path9521" transform="translate(0,8)" d="M 5.5 2 A 1 1 0 0 0 4.5 3 L 4.5 4 L 5.5 4 L 6.5 4 L 6.5 3 A 1 1 0 0 0 5.5 2 z " style="opacity:1;fill:#00ffff;fill-opacity:0.25098041;fill-rule:nonzero;stroke:none;stroke-width:1;stroke-linecap:round;stroke-linejoin:miter;stroke-miterlimit:4;stroke-dasharray:none;stroke-dashoffset:0;stroke-opacity:1" />
    </g>
  </g>
</svg>
