<?xml version="1.0" encoding="UTF-8" standalone="no"?>
<!-- Created with Inkscape (http://www.inkscape.org/) -->

<svg
   xmlns:dc="http://purl.org/dc/elements/1.1/"
   xmlns:cc="http://creativecommons.org/ns#"
   xmlns:rdf="http://www.w3.org/1999/02/22-rdf-syntax-ns#"
   xmlns:svg="http://www.w3.org/2000/svg"
   xmlns="http://www.w3.org/2000/svg"
   xmlns:sodipodi="http://sodipodi.sourceforge.net/DTD/sodipodi-0.dtd"
   xmlns:inkscape="http://www.inkscape.org/namespaces/inkscape"
   width="32px"
   height="32px"
   id="svg3505"
   sodipodi:version="0.32"
   inkscape:version="0.47 r22583"
   sodipodi:docname="whisky-00.svg"
   inkscape:output_extension="org.inkscape.output.svg.inkscape"
   version="1.1">
  <defs
     id="defs3507">
    <inkscape:perspective
       sodipodi:type="inkscape:persp3d"
       inkscape:vp_x="0 : 16 : 1"
       inkscape:vp_y="0 : 1000 : 0"
       inkscape:vp_z="32 : 16 : 1"
       inkscape:persp3d-origin="16 : 10.666667 : 1"
       id="perspective8" />
    <inkscape:perspective
       id="perspective2388"
       inkscape:persp3d-origin="372.04724 : 350.78739 : 1"
       inkscape:vp_z="744.09448 : 526.18109 : 1"
       inkscape:vp_y="0 : 1000 : 0"
       inkscape:vp_x="0 : 526.18109 : 1"
       sodipodi:type="inkscape:persp3d" />
  </defs>
  <sodipodi:namedview
     id="base"
     pagecolor="#ffffff"
     bordercolor="#666666"
     borderopacity="1.0"
     inkscape:pageopacity="0.0"
     inkscape:pageshadow="2"
     inkscape:zoom="18.5625"
     inkscape:cx="16"
     inkscape:cy="16"
     inkscape:current-layer="layer1"
     showgrid="true"
     inkscape:grid-bbox="true"
     inkscape:document-units="px"
     objecttolerance="4"
     gridtolerance="4"
     guidetolerance="4"
     inkscape:window-width="720"
     inkscape:window-height="835"
     inkscape:window-x="0"
     inkscape:window-y="0"
     inkscape:object-paths="true"
     inkscape:object-nodes="true"
     inkscape:snap-bbox="true"
     inkscape:snap-guide="true"
     showguides="true"
     inkscape:guide-bbox="true"
     inkscape:window-maximized="0">
    <inkscape:grid
       type="xygrid"
       id="grid3515"
       units="px"
       visible="true"
       enabled="true"
       spacingx="1px"
       spacingy="1px" />
  </sodipodi:namedview>
  <metadata
     id="metadata3510">
    <rdf:RDF>
      <cc:Work
         rdf:about="">
        <dc:format>image/svg+xml</dc:format>
        <dc:type
           rdf:resource="http://purl.org/dc/dcmitype/StillImage" />
        <dc:title>New template for McMinos icons (32x32 pixels)</dc:title>
        <dc:date>2010-05-08</dc:date>
        <dc:creator>
          <cc:Agent>
            <dc:title>Andreas Neudecker &lt;zapyon@gmx.net&gt;</dc:title>
          </cc:Agent>
        </dc:creator>
        <dc:rights>
          <cc:Agent>
            <dc:title>Copyright (C) 2010 by Andreas Neudecker</dc:title>
          </cc:Agent>
        </dc:rights>
        <dc:publisher>
          <cc:Agent>
            <dc:title>Andreas Neudecker</dc:title>
          </cc:Agent>
        </dc:publisher>
        <dc:identifier>__empty__</dc:identifier>
        <dc:description>Template for McMinos SVG icons at a base size of 32x32 pixels.</dc:description>
      </cc:Work>
    </rdf:RDF>
  </metadata>
  <g
     id="layer1"
     inkscape:label="Layer 1"
     inkscape:groupmode="layer">
    <g
       id="g3412">
      <rect
         y="0"
         x="0"
         height="32"
         width="32"
         id="rect3397"
         style="opacity:1;fill:none;fill-opacity:0.50196078000000000;fill-rule:nonzero;stroke:none;stroke-width:2;stroke-linecap:round;stroke-linejoin:miter;stroke-miterlimit:4;stroke-dasharray:none;stroke-dashoffset:0;stroke-opacity:0.25098039000000000" />
      <path
         style="fill:#ffffff;fill-opacity:0.53333327;fill-rule:nonzero;stroke:none;stroke-width:1;stroke-linecap:round;stroke-linejoin:round;stroke-miterlimit:4;stroke-dasharray:none;stroke-dashoffset:0;stroke-opacity:1"
         d="M 13,2 C 11.896,2 11,2.8960001 11,4 C 11,5.104 11.896,6 13,6 L 19,6 C 20.104,6 21,5.104 21,4 C 21,2.896 20.104,2 19,2 L 13,2 z"
         id="path3380"
         sodipodi:nodetypes="csccscc" />
      <path
         sodipodi:nodetypes="ccssccccccssccccsssssscccszscccssssssccc"
         id="path3255"
         d="M 13,6 L 13,7 C 13,10 7,10 7,17 C 7,19 8,20 8,22 C 8,24 7,25 7,27 C 7,27 7,29 7,29 C 7,30.104 7.8960001,31 9,31 L 23,31 C 24.104,31 25,30.104 25,29 C 25,29 25,27 25,27 C 25,25 24,24 24,22 C 24,20 25,19 25,17 C 25,10 19,10 19,7 L 19,6 L 18,6 L 18,7 C 18,8.0833333 18.592621,8.9416417 19.25,9.5625 C 19.907379,10.183358 20.675375,10.698229 21.375,11.28125 C 22.77425,12.447291 24,13.785714 24,17 C 24,17.833333 23.8125,18.4375 23.5625,19.1875 C 23.3125,19.9375 23,20.833333 23,22 C 23,23.166667 23.3125,24.0625 23.5625,24.8125 C 23.8125,25.5625 24,26.166667 24,27 C 24,27 24,29 24,29 C 24,29.562937 23.562937,30 23,30 C 23,30 22.553125,30 21,30 C 19.446875,30 17.18125,29 16,29 C 14.81875,29 12.4875,30 11,30 C 9.5125,30 9,30 9,30 C 8.437063,30 8,29.562937 8,29 C 8,29 8,27 8,27 C 8,26.166667 8.1875,25.5625 8.4375,24.8125 C 8.6875,24.0625 9,23.166667 9,22 C 9,20.833333 8.6875,19.9375 8.4375,19.1875 C 8.1875,18.4375 8,17.833333 8,17 C 8,13.785714 9.22575,12.447291 10.625,11.28125 C 11.324625,10.698229 12.092621,10.183358 12.75,9.5625 C 13.407379,8.9416417 14,8.0833333 14,7 L 14,6 L 13,6 z"
         style="fill:#c1c1ff;fill-opacity:0.50196078;fill-rule:nonzero;stroke:none;stroke-width:1;stroke-linecap:round;stroke-linejoin:round;stroke-miterlimit:4;stroke-dasharray:none;stroke-dashoffset:0;stroke-opacity:1" />
      <path
         id="path3232"
         d="M 13,2 C 12.659834,2 12.343045,2.0999959 12.0625,2.25 C 12.296435,2.6742386 13.080169,3 14,3 L 19,3 C 19.966,3 20.782156,3.356953 20.96875,3.8125 C 20.872889,2.797577 20.039871,2 19,2 L 14,2 L 13,2 z"
         style="fill:#ffffff;fill-opacity:0.50196078;fill-rule:nonzero;stroke:none;stroke-width:1;stroke-linecap:round;stroke-linejoin:round;stroke-miterlimit:4;stroke-dasharray:none;stroke-dashoffset:0;stroke-opacity:1" />
      <path
         id="rect2414"
         d="M 11.03125,4.1875 C 11.127111,5.2024229 11.960129,6 13,6 L 18,6 L 19,6 C 19.340166,6 19.656955,5.9000041 19.9375,5.75 C 19.703565,5.3257614 18.919831,5 18,5 L 13,5 C 12.034,5.0000002 11.217844,4.6430469 11.03125,4.1875 z"
         style="fill:#c1c1ff;fill-opacity:0.50196078;fill-rule:nonzero;stroke:none;stroke-width:1;stroke-linecap:round;stroke-linejoin:round;stroke-miterlimit:4;stroke-dasharray:none;stroke-dashoffset:0;stroke-opacity:1" />
      <path
         id="rect3225"
         d="M 13,6 C 13,6.069 13.004594,6.122422 13.03125,6.1875 C 13.217844,6.643047 14.034,7 15,7 L 19,7 L 19,6 L 15,6 L 13,6 z"
         style="fill:#b1b1ff;fill-opacity:0.50196078;fill-rule:nonzero;stroke:none;stroke-width:1;stroke-linecap:round;stroke-linejoin:round;stroke-miterlimit:4;stroke-dasharray:none;stroke-dashoffset:0;stroke-opacity:1" />
      <path
         id="path3244"
         d="M 13,1 C 11.354937,1 10,2.3549372 10,4 C 10,5.2920597 10.844243,6.3942942 12,6.8125 L 12,7 C 12,7.4166667 11.842621,7.6833583 11.375,8.125 C 10.907379,8.5666417 10.175375,9.0517707 9.375,9.71875 C 7.77425,11.052709 6,13.214286 6,17 C 6,18.166667 6.3125,19.0625 6.5625,19.8125 C 6.8125,20.5625 7,21.166667 7,22 C 7,22.833333 6.8125,23.4375 6.5625,24.1875 C 6.3125,24.9375 6,25.833333 6,27 C 6,27 6,29 6,29 C 6,30.645062 7.354937,32 9,32 L 23,32 C 24.645063,32 26,30.645063 26,29 C 26,29 26,27 26,27 C 26,25.833333 25.6875,24.9375 25.4375,24.1875 C 25.1875,23.4375 25,22.833333 25,22 C 25,21.166667 25.1875,20.5625 25.4375,19.8125 C 25.6875,19.0625 26,18.166667 26,17 C 26,13.214286 24.257,11.052709 22.65625,9.71875 C 21.855875,9.0517707 21.092621,8.5666417 20.625,8.125 C 20.157379,7.6833583 20,7.4166666 20,7 L 20,6.8125 C 21.155757,6.3942942 22,5.2920597 22,4 C 22,2.3549372 20.645063,1 19,1 L 13,1 z M 13,2 L 19,2 C 20.104,2 21,2.896 21,4 C 21,4.7392229 20.596893,5.3725803 20,5.71875 C 19.880678,5.7879512 19.758,5.8601978 19.625,5.90625 C 19.593893,5.9164417 19.563007,5.9288148 19.53125,5.9375 C 19.363665,5.9864599 19.182389,6 19,6 L 19,7 C 19,10 25,10 25,17 C 25,19 24,20 24,22 C 24,24 25,25 25,27 C 25,27 25,29 25,29 C 25,30.104 24.104,31 23,31 L 9,31 C 7.896,31 7,30.104 7,29 C 7,29 7,27 7,27 C 7,25 8,24 8,22 C 8,20 7,19 7,17 C 7,10 13,10 13,7 L 13,6 C 12.81715,6 12.637063,5.9835317 12.46875,5.9375 C 12.436946,5.9282083 12.406153,5.917037 12.375,5.90625 C 12.242071,5.8626985 12.119042,5.7877884 12,5.71875 C 11.403107,5.3725803 11,4.7392229 11,4 C 11,2.8960001 11.896,2 13,2 z"
         style="fill:#000000;fill-opacity:1;fill-rule:nonzero;stroke:none;stroke-width:2;stroke-linecap:round;stroke-linejoin:miter;stroke-miterlimit:4;stroke-dasharray:none;stroke-dashoffset:0;stroke-opacity:1" />
      <path
         style="fill:#ffffff;fill-opacity:0.53376202;fill-rule:nonzero;stroke:none;stroke-width:1;stroke-linecap:round;stroke-linejoin:round;stroke-miterlimit:4;stroke-dasharray:none;stroke-dashoffset:0;stroke-opacity:1"
         d="M 12.999781,5.9999996 L 12.999781,6.9999996 C 12.999781,9.9999992 6.9997807,9.9999992 6.9997807,17 C 6.9997807,19 7.9997807,20 7.9997807,22 C 7.9997807,24 6.9997807,25 6.9997807,27 C 6.9997807,27 6.9997807,29 6.9997807,29 C 6.9997807,30.104 7.8957807,31 8.9997807,31 L 22.999781,31 C 24.103781,31 24.999781,30.104 24.999781,29 C 24.999781,29 24.999781,27 24.999781,27 C 24.999781,25 23.999781,24 23.999781,22 C 23.999781,20 24.999781,19 24.999781,17 C 24.999781,9.9999992 18.999781,9.9999992 18.999781,6.9999996 L 18.999781,5.9999996 L 12.999781,5.9999996 z"
         id="path3377" />
      <path
         id="path3328"
         d="M 8.5,14 C 8.1885429,14.784727 8,15.74418 8,17 C 8,17.833333 8.1875,18.4375 8.4375,19.1875 C 8.6875,19.9375 9,20.833333 9,22 C 9,23.166667 8.6875,24.0625 8.4375,24.8125 C 8.1875,25.5625 8,26.166667 8,27 C 8,27 8,29 8,29 C 8,29.562937 8.437063,30 9,30 C 9,30 9.5125,30 11,30 C 12.4875,30 14.81875,29 16,29 C 17.18125,29 19.446875,30 21,30 C 22.553125,30 23,30 23,30 C 23.562937,30 24,29.562937 24,29 C 24,29 24,27 24,27 C 24,26.166667 23.8125,25.5625 23.5625,24.8125 C 23.3125,24.0625 23,23.166667 23,22 C 23,20.833333 23.3125,19.9375 23.5625,19.1875 C 23.8125,18.4375 24,17.833333 24,17 C 24,15.74418 23.811457,14.784727 23.5,14 L 8.5,14 z"
         style="fill:#9e8000;fill-opacity:0.50196078;fill-rule:nonzero;stroke:none;stroke-width:1;stroke-linecap:round;stroke-linejoin:round;stroke-miterlimit:4;stroke-dasharray:none;stroke-dashoffset:0;stroke-opacity:1" />
      <path
         sodipodi:nodetypes="czzzzzzczzzzzc"
         id="path3338"
         d="M 14.760854,8.4886995 C 14.760854,8.4886995 11.440717,12.519506 10.960155,14 C 10.479593,15.480494 10.788406,16.473383 10.871767,17.681088 C 10.955128,18.888793 11.671417,20.568208 11.578874,22.012117 C 11.486331,23.456026 10.134834,26.034452 10.076272,27.050253 C 10.01771,28.066054 9.6428129,28.086373 10.341437,28.552854 C 11.040061,29.019335 12.784805,27.88982 13.87697,27.845748 C 14.969135,27.801676 17.500893,28.110913 17.500893,28.110913 C 17.500893,28.110913 15.45846,27.58095 14.584077,27.492194 C 13.709694,27.403438 12.56072,28.04336 11.844039,27.227029 C 11.127358,26.410698 13.028457,23.92598 13.081475,22.36567 C 13.134493,20.80536 12.158527,18.269847 12.109204,17.062369 C 12.059881,15.854891 12.04989,15.728818 12.374369,14.410719 C 12.698848,13.09262 14.760854,8.4886995 14.760854,8.4886995 z"
         style="fill:#d8d8ff;fill-opacity:0.50196078;fill-rule:nonzero;stroke:none;stroke-width:2;stroke-linecap:round;stroke-linejoin:miter;stroke-miterlimit:4;stroke-dasharray:none;stroke-dashoffset:0;stroke-opacity:0.25098039" />
      <path
         id="rect3340"
         d="M 10,13 L 10,28 L 25,28 C 25,27.5 25,27 25,27 C 25,25 24,24 24,22 C 24,20 25,19 25,17 C 25,15.296606 24.631419,14.018475 24.09375,13 L 10,13 z"
         style="fill:#fff586;fill-opacity:1;fill-rule:nonzero;stroke:none;stroke-width:2;stroke-linecap:round;stroke-linejoin:miter;stroke-miterlimit:4;stroke-dasharray:none;stroke-dashoffset:0;stroke-opacity:0.25098039" />
      <path
         id="text3350"
         d="M 14.6875,24.546875 C 14.687498,24.966798 14.585936,25.319337 14.382812,25.604492 C 14.16992,25.899414 13.89746,26.046875 13.56543,26.046875 C 13.344726,26.046875 13.183593,25.995117 13.082031,25.891602 C 13.027344,25.831055 13,25.758789 13,25.674805 C 13,25.514649 13.063476,25.434571 13.19043,25.43457 C 13.250976,25.434571 13.335937,25.497071 13.445312,25.62207 C 13.552734,25.741211 13.658202,25.800781 13.761719,25.800781 C 13.937499,25.800781 14.085936,25.6875 14.207031,25.460938 C 14.314452,25.263673 14.368162,25.046876 14.368164,24.810547 C 14.368162,24.404298 14.257811,24.120119 14.037109,23.958008 C 13.916014,23.868166 13.766601,23.823244 13.588867,23.823242 C 13.510741,23.823244 13.410156,23.840822 13.287109,23.875977 L 13.257812,23.875977 C 13.234375,23.875979 13.222656,23.853518 13.222656,23.808594 C 13.222656,23.79883 13.222656,23.789065 13.222656,23.779297 L 13.442383,22.226562 C 13.450195,22.169926 13.474609,22.141605 13.515625,22.141602 L 14.620117,22.141602 C 14.631834,22.141605 14.637693,22.158207 14.637695,22.191406 C 14.637693,22.294926 14.617186,22.399418 14.576172,22.504883 C 14.562498,22.541996 14.550779,22.56055 14.541016,22.560547 L 13.644531,22.560547 C 13.597655,22.56055 13.571288,22.586917 13.56543,22.639648 L 13.46582,23.325195 C 13.45996,23.37012 13.468749,23.392581 13.492188,23.392578 L 13.679688,23.37793 C 14.044921,23.377932 14.316405,23.513674 14.494141,23.785156 C 14.623045,23.982424 14.687498,24.23633 14.6875,24.546875 M 16.925781,24.546875 C 16.925779,24.966798 16.824217,25.319337 16.621094,25.604492 C 16.408202,25.899414 16.135741,26.046875 15.803711,26.046875 C 15.583007,26.046875 15.421875,25.995117 15.320312,25.891602 C 15.265625,25.831055 15.238281,25.758789 15.238281,25.674805 C 15.238281,25.514649 15.301758,25.434571 15.428711,25.43457 C 15.489257,25.434571 15.574218,25.497071 15.683594,25.62207 C 15.791015,25.741211 15.896484,25.800781 16,25.800781 C 16.17578,25.800781 16.324217,25.6875 16.445312,25.460938 C 16.552733,25.263673 16.606444,25.046876 16.606445,24.810547 C 16.606444,24.404298 16.496092,24.120119 16.275391,23.958008 C 16.154296,23.868166 16.004882,23.823244 15.827148,23.823242 C 15.749023,23.823244 15.648437,23.840822 15.525391,23.875977 L 15.496094,23.875977 C 15.472656,23.875979 15.460937,23.853518 15.460938,23.808594 C 15.460937,23.79883 15.460937,23.789065 15.460938,23.779297 L 15.680664,22.226562 C 15.688476,22.169926 15.71289,22.141605 15.753906,22.141602 L 16.858398,22.141602 C 16.870115,22.141605 16.875975,22.158207 16.875977,22.191406 C 16.875975,22.294926 16.855467,22.399418 16.814453,22.504883 C 16.800779,22.541996 16.789061,22.56055 16.779297,22.560547 L 15.882812,22.560547 C 15.835937,22.56055 15.80957,22.586917 15.803711,22.639648 L 15.704102,23.325195 C 15.698242,23.37012 15.707031,23.392581 15.730469,23.392578 L 15.917969,23.37793 C 16.283202,23.377932 16.554686,23.513674 16.732422,23.785156 C 16.861326,23.982424 16.925779,24.23633 16.925781,24.546875 M 21.326172,24.819336 C 21.326168,25.188477 21.256832,25.489258 21.118164,25.72168 C 20.981442,25.946289 20.800778,26.058594 20.576172,26.058594 C 20.333981,26.058594 20.143552,25.923828 20.004883,25.654297 C 19.887693,25.427735 19.829099,25.149415 19.829102,24.819336 C 19.829099,24.458009 19.897458,24.159182 20.03418,23.922852 C 20.172849,23.684573 20.353513,23.565432 20.576172,23.56543 C 20.869137,23.565432 21.083981,23.754885 21.220703,24.133789 C 21.291012,24.334963 21.326168,24.563478 21.326172,24.819336 M 20.96875,24.810547 C 20.968746,24.458986 20.925778,24.184572 20.839844,23.987305 C 20.769528,23.836916 20.681637,23.761721 20.576172,23.761719 C 20.416012,23.761721 20.301755,23.922854 20.233398,24.245117 C 20.200192,24.413088 20.183591,24.601564 20.183594,24.810547 C 20.183591,25.150391 20.22656,25.420899 20.3125,25.62207 C 20.378903,25.782227 20.466794,25.862305 20.576172,25.862305 C 20.724606,25.862305 20.833981,25.714844 20.904297,25.419922 C 20.947262,25.238282 20.968746,25.035157 20.96875,24.810547 M 18.44043,26.228516 C 18.436522,26.236328 18.429686,26.240234 18.419922,26.240234 C 18.400389,26.240234 18.371093,26.225586 18.332031,26.196289 C 18.287108,26.15918 18.268554,26.131836 18.276367,26.114258 L 20.327148,21.860352 C 20.333005,21.85059 20.340817,21.845707 20.350586,21.845703 C 20.370114,21.845707 20.396481,21.857426 20.429688,21.880859 C 20.478512,21.919926 20.498044,21.951176 20.488281,21.974609 L 18.44043,26.228516 M 18.982422,23.149414 C 18.98242,23.55762 18.905272,23.876955 18.750977,24.107422 C 18.620116,24.300783 18.449218,24.397463 18.238281,24.397461 C 17.988281,24.397463 17.794921,24.258791 17.658203,23.981445 C 17.544922,23.754885 17.488281,23.477542 17.488281,23.149414 C 17.488281,22.780277 17.558593,22.478519 17.699219,22.244141 C 17.833984,22.015629 18.013671,21.901371 18.238281,21.901367 C 18.48828,21.901371 18.681639,22.041996 18.818359,22.323242 C 18.927733,22.549808 18.98242,22.825198 18.982422,23.149414 M 18.633789,23.143555 C 18.633788,22.788089 18.603514,22.53516 18.542969,22.384766 C 18.464843,22.195316 18.36328,22.10059 18.238281,22.100586 C 18.078124,22.10059 17.964843,22.260746 17.898438,22.581055 C 17.863281,22.747074 17.845703,22.934573 17.845703,23.143555 C 17.845703,23.483401 17.887695,23.753908 17.97168,23.955078 C 18.040038,24.119143 18.128905,24.201174 18.238281,24.201172 C 18.398436,24.201174 18.511717,24.041994 18.578125,23.723633 C 18.615233,23.55176 18.633788,23.358401 18.633789,23.143555"
         style="font-size:4px;font-style:normal;font-variant:normal;font-weight:bold;font-stretch:normal;text-align:start;line-height:100%;writing-mode:lr-tb;text-anchor:start;fill:#524b00;fill-opacity:1;fill-rule:nonzero;stroke:none;stroke-width:2;stroke-linecap:round;stroke-linejoin:miter;stroke-miterlimit:4;stroke-dashoffset:0;stroke-opacity:0.25098039;font-family:Liberation Sans;-inkscape-font-specification:Liberation Sans Bold" />
      <path
         id="rect3354"
         d="M 10,13 L 10,14 L 10,27.0625 L 10,28 L 25,28 C 25,27.53125 25,27.119263 25,27.0625 L 11,27.0625 L 11,14 L 24.53125,14 C 24.407766,13.643514 24.254419,13.304347 24.09375,13 L 10,13 z"
         style="fill:#524b00;fill-opacity:1;fill-rule:nonzero;stroke:none;stroke-width:2;stroke-linecap:round;stroke-linejoin:miter;stroke-miterlimit:4;stroke-dasharray:none;stroke-dashoffset:0;stroke-opacity:0.25098039" />
      <path
         id="path3371"
         d="M 19.25,15.1875 C 19.226561,15.187506 19.164061,15.213547 19.09375,15.28125 C 19.026041,15.34636 18.947916,15.442713 18.8125,15.53125 C 18.679687,15.619797 18.570312,15.656255 18.5,15.65625 C 18.466145,15.656255 18.4375,15.677089 18.4375,15.75 C 18.4375,15.820318 18.466145,15.875005 18.5,15.875 C 18.692708,15.875005 18.78125,16.044276 18.78125,16.40625 L 18.78125,20.5 C 18.78125,20.703126 18.658854,20.8125 18.40625,20.8125 C 18.377604,20.8125 18.375,20.861979 18.375,20.9375 C 18.375,21.010417 18.377604,21.03125 18.40625,21.03125 C 18.572916,21.010417 18.760416,21 18.96875,21 C 19.177082,21 19.406249,21.010417 19.625,21.03125 C 19.653644,21.03125 19.656248,21.010417 19.65625,20.9375 C 19.656248,20.861979 19.653644,20.8125 19.625,20.8125 C 19.393228,20.8125 19.249999,20.703126 19.25,20.5 L 19.25,18.53125 C 19.249999,18.403648 19.335936,18.289065 19.46875,18.15625 C 19.601561,18.02344 19.763019,17.937503 19.9375,17.9375 C 20.114581,17.937503 20.252602,18.04167 20.375,18.21875 C 20.497393,18.395836 20.562497,18.622398 20.5625,18.875 L 20.5625,20.5 C 20.562497,20.703126 20.421873,20.8125 20.1875,20.8125 C 20.158852,20.8125 20.156248,20.861979 20.15625,20.9375 C 20.156248,21.010417 20.158852,21.03125 20.1875,21.03125 C 20.35156,21.010417 20.57031,21 20.8125,21 C 21.057289,21 21.27083,21.010417 21.4375,21.03125 C 21.468746,21.03125 21.468747,21.010417 21.46875,20.9375 C 21.468747,20.861979 21.468747,20.8125 21.4375,20.8125 C 21.174476,20.8125 21.031247,20.703126 21.03125,20.5 L 21.03125,18.84375 C 21.031247,18.557294 20.968747,18.27344 20.8125,18 C 20.658852,17.723962 20.427081,17.593753 20.125,17.59375 C 19.812498,17.593754 19.562499,17.718753 19.375,17.96875 C 19.356769,17.989587 19.330728,18.000003 19.3125,18 C 19.278645,18.000003 19.249999,17.971357 19.25,17.90625 L 19.25,15.90625 C 19.249999,15.755213 19.268228,15.528652 19.28125,15.25 C 19.281249,15.205735 19.273436,15.187506 19.25,15.1875 z M 12.09375,15.6875 C 12.067709,15.687506 12.0625,15.713547 12.0625,15.8125 C 12.0625,15.911463 12.067709,15.968755 12.09375,15.96875 C 12.294271,15.968755 12.455729,16.138026 12.5625,16.4375 L 14.1875,20.96875 C 14.223957,21.059896 14.263018,21.125 14.28125,21.125 C 14.307289,21.125 14.343748,21.059895 14.375,20.96875 L 15.09375,18.96875 C 15.109371,18.927086 15.109372,18.906253 15.125,18.90625 C 15.143227,18.906253 15.171872,18.927086 15.1875,18.96875 L 15.90625,20.96875 C 15.937496,21.059896 15.945308,21.125 15.96875,21.125 C 15.989579,21.125 16.026038,21.0625 16.0625,20.96875 L 17.75,16.3125 C 17.833328,16.088546 18.01041,15.968755 18.28125,15.96875 C 18.30989,15.968755 18.343744,15.911463 18.34375,15.8125 C 18.343744,15.713547 18.30989,15.687506 18.28125,15.6875 C 18.18489,15.700526 17.99739,15.687506 17.71875,15.6875 C 17.442703,15.687506 17.255204,15.700526 17.15625,15.6875 C 17.130204,15.687506 17.124995,15.713547 17.125,15.8125 C 17.124995,15.911463 17.130204,15.968755 17.15625,15.96875 C 17.364578,15.968755 17.468744,16.057296 17.46875,16.21875 C 17.468745,16.283859 17.473953,16.372401 17.4375,16.46875 L 16.1875,19.84375 C 16.171871,19.898439 16.145829,19.937501 16.125,19.9375 C 16.106767,19.937501 16.08333,19.92448 16.0625,19.875 L 15.4375,18.125 C 15.424475,18.083336 15.437496,18.04167 15.4375,18 C 15.437496,17.945316 15.447913,17.877607 15.46875,17.8125 L 16,16.3125 C 16.08333,16.088546 16.28385,15.968755 16.59375,15.96875 C 16.619787,15.968755 16.624995,15.911463 16.625,15.8125 C 16.624995,15.713547 16.619787,15.687506 16.59375,15.6875 C 16.497392,15.700526 16.299475,15.687506 16,15.6875 C 15.700517,15.687506 15.499997,15.700526 15.40625,15.6875 C 15.374997,15.687506 15.374996,15.713547 15.375,15.8125 C 15.374996,15.911463 15.374997,15.968755 15.40625,15.96875 C 15.61458,15.968755 15.718747,16.059901 15.71875,16.21875 C 15.718747,16.286463 15.723955,16.372401 15.6875,16.46875 L 15.3125,17.4375 C 15.28906,17.502608 15.268226,17.531253 15.25,17.53125 C 15.234372,17.531253 15.210934,17.497399 15.1875,17.4375 L 14.84375,16.4375 C 14.812497,16.343755 14.781248,16.250005 14.78125,16.1875 C 14.781248,16.044276 14.890622,15.968755 15.125,15.96875 C 15.151039,15.968755 15.187496,15.911463 15.1875,15.8125 C 15.187496,15.713547 15.151039,15.687506 15.125,15.6875 C 15.028643,15.700526 14.841143,15.687506 14.5,15.6875 C 14.158852,15.687506 13.934893,15.700526 13.84375,15.6875 C 13.815102,15.687506 13.781248,15.713547 13.78125,15.8125 C 13.781248,15.911463 13.815102,15.968755 13.84375,15.96875 C 14.020831,15.968755 14.143227,16.138026 14.25,16.4375 L 14.9375,18.28125 C 14.95833,18.341149 14.968747,18.411461 14.96875,18.46875 C 14.968747,18.523439 14.953122,18.578128 14.9375,18.625 L 14.5,19.84375 C 14.481768,19.898439 14.460935,19.937501 14.4375,19.9375 C 14.421873,19.937501 14.39583,19.92448 14.375,19.875 L 13.125,16.4375 C 13.093749,16.348963 13.093748,16.250004 13.09375,16.1875 C 13.093748,16.039068 13.20052,15.968755 13.4375,15.96875 C 13.46354,15.968755 13.468748,15.911463 13.46875,15.8125 C 13.468748,15.713547 13.46354,15.687506 13.4375,15.6875 C 13.338541,15.700526 13.101561,15.687506 12.75,15.6875 C 12.401041,15.687506 12.1875,15.700526 12.09375,15.6875 z M 22.375,16.0625 C 22.28125,16.062505 22.190104,16.106776 22.125,16.1875 C 22.0625,16.26563 22.0625,16.351567 22.0625,16.46875 C 22.0625,16.585942 22.0625,16.697921 22.125,16.78125 C 22.190104,16.864587 22.28125,16.906254 22.375,16.90625 C 22.468749,16.906254 22.559894,16.864587 22.625,16.78125 C 22.692707,16.697921 22.718749,16.585942 22.71875,16.46875 C 22.718749,16.351567 22.692708,16.26563 22.625,16.1875 C 22.559894,16.106776 22.468749,16.062505 22.375,16.0625 z M 22.65625,17.5625 C 22.635416,17.562504 22.601561,17.59115 22.53125,17.65625 C 22.463541,17.721357 22.354166,17.786462 22.21875,17.875 C 22.085937,17.963545 21.976562,18.000003 21.90625,18 C 21.872395,18.000003 21.875,18.052086 21.875,18.125 C 21.874999,18.197919 21.872395,18.218753 21.90625,18.21875 C 22.098958,18.218753 22.21875,18.421878 22.21875,18.78125 L 22.21875,20.5 C 22.21875,20.703126 22.080728,20.8125 21.84375,20.8125 C 21.815104,20.8125 21.8125,20.861979 21.8125,20.9375 C 21.8125,21.010417 21.815103,21.03125 21.84375,21.03125 C 22.013021,21.010417 22.205729,21 22.4375,21 C 22.66927,21 22.872394,21.010417 23.03125,21.03125 C 23.059895,21.03125 23.093749,21.010417 23.09375,20.9375 C 23.093749,20.861979 23.059894,20.8125 23.03125,20.8125 C 22.79427,20.8125 22.687499,20.703126 22.6875,20.5 L 22.6875,18.25 C 22.687499,18.098961 22.674478,17.906253 22.6875,17.625 C 22.687499,17.583337 22.682291,17.562504 22.65625,17.5625 z M 24.4375,17.59375 C 24.16927,17.593754 23.955729,17.690108 23.78125,17.875 C 23.606771,18.057295 23.5,18.296878 23.5,18.5625 C 23.5,18.822919 23.580729,19.018231 23.71875,19.1875 C 23.85677,19.356773 24.020833,19.484377 24.25,19.5625 C 24.331919,19.589193 24.404724,19.625003 24.46875,19.65625 C 24.528975,19.474529 24.566391,19.277087 24.625,19.09375 C 24.57917,19.073579 24.55153,19.049551 24.5,19.03125 C 24.223958,18.92969 24.039062,18.83594 23.96875,18.75 C 23.901041,18.664065 23.875,18.533856 23.875,18.375 C 23.874999,18.208337 23.903645,18.096357 24,18 C 24.098957,17.901045 24.247394,17.843753 24.40625,17.84375 C 24.567706,17.843753 24.692706,17.89844 24.8125,18.03125 C 24.837591,18.05907 24.85425,18.096838 24.875,18.125 C 24.901807,17.988345 24.950871,17.864333 24.96875,17.71875 C 24.969937,17.709088 24.967608,17.697207 24.96875,17.6875 C 24.821538,17.628531 24.650232,17.593753 24.4375,17.59375 z M 23.53125,19.96875 C 23.481771,19.968751 23.46875,19.960939 23.46875,20 L 23.46875,20.1875 C 23.468749,20.471355 23.489583,20.710938 23.53125,20.875 C 23.664062,20.992188 23.847656,21.033203 24.0625,21.0625 C 24.078312,20.965331 24.105314,20.874545 24.125,20.78125 C 24.004437,20.727131 23.888188,20.637185 23.8125,20.5 C 23.6875,20.273439 23.635417,20.101563 23.625,20 C 23.619791,19.960939 23.580729,19.968751 23.53125,19.96875 z"
         style="fill:#524b00;fill-opacity:1;fill-rule:nonzero;stroke:none;stroke-width:1;stroke-linecap:round;stroke-linejoin:round;stroke-miterlimit:4;stroke-dasharray:none;stroke-dashoffset:0;stroke-opacity:1" />
    </g>
  </g>
</svg>
