<?xml version="1.0" encoding="UTF-8" standalone="no"?>
<!-- Created with Inkscape (http://www.inkscape.org/) -->

<svg xmlns:dc="http://purl.org/dc/elements/1.1/" xmlns:cc="http://creativecommons.org/ns#" xmlns:rdf="http://www.w3.org/1999/02/22-rdf-syntax-ns#" xmlns:svg="http://www.w3.org/2000/svg" xmlns="http://www.w3.org/2000/svg" xmlns:sodipodi="http://sodipodi.sourceforge.net/DTD/sodipodi-0.dtd" xmlns:inkscape="http://www.inkscape.org/namespaces/inkscape" width="32px" height="32px" id="svg3505" sodipodi:version="0.32" inkscape:version="0.91 r13725" sodipodi:docname="rock-me-00.svg" inkscape:output_extension="org.inkscape.output.svg.inkscape" version="1.1">
  <defs id="defs3507">
    <inkscape:perspective sodipodi:type="inkscape:persp3d" inkscape:vp_x="0 : 16 : 1" inkscape:vp_y="0 : 1000 : 0" inkscape:vp_z="32 : 16 : 1" inkscape:persp3d-origin="16 : 10.666667 : 1" id="perspective3513" />
    <inkscape:perspective id="perspective4690" inkscape:persp3d-origin="372.04724 : 350.78739 : 1" inkscape:vp_z="744.09448 : 526.18109 : 1" inkscape:vp_y="0 : 1000 : 0" inkscape:vp_x="0 : 526.18109 : 1" sodipodi:type="inkscape:persp3d" />
    <inkscape:perspective id="perspective2415" inkscape:persp3d-origin="372.04724 : 350.78739 : 1" inkscape:vp_z="744.09448 : 526.18109 : 1" inkscape:vp_y="0 : 1000 : 0" inkscape:vp_x="0 : 526.18109 : 1" sodipodi:type="inkscape:persp3d" />
    <inkscape:perspective id="perspective5551" inkscape:persp3d-origin="372.04724 : 350.78739 : 1" inkscape:vp_z="744.09448 : 526.18109 : 1" inkscape:vp_y="0 : 1000 : 0" inkscape:vp_x="0 : 526.18109 : 1" sodipodi:type="inkscape:persp3d" />
    <inkscape:perspective id="perspective5594" inkscape:persp3d-origin="372.04724 : 350.78739 : 1" inkscape:vp_z="744.09448 : 526.18109 : 1" inkscape:vp_y="0 : 1000 : 0" inkscape:vp_x="0 : 526.18109 : 1" sodipodi:type="inkscape:persp3d" />
    <inkscape:perspective id="perspective3253" inkscape:persp3d-origin="372.04724 : 350.78739 : 1" inkscape:vp_z="744.09448 : 526.18109 : 1" inkscape:vp_y="0 : 1000 : 0" inkscape:vp_x="0 : 526.18109 : 1" sodipodi:type="inkscape:persp3d" />
  </defs>
  <sodipodi:namedview id="base" pagecolor="#ffffff" bordercolor="#666666" borderopacity="1.0" inkscape:pageopacity="0.0" inkscape:pageshadow="2" inkscape:zoom="21.754376" inkscape:cx="6.8064476" inkscape:cy="16" inkscape:current-layer="layer1" showgrid="true" inkscape:grid-bbox="true" inkscape:document-units="px" objecttolerance="4" gridtolerance="4" guidetolerance="4" inkscape:window-width="1600" inkscape:window-height="878" inkscape:window-x="0" inkscape:window-y="0" inkscape:object-paths="true" inkscape:object-nodes="true" inkscape:snap-bbox="true" inkscape:snap-guide="true" showguides="true" inkscape:guide-bbox="true" inkscape:window-maximized="1">
    <inkscape:grid type="xygrid" id="grid3515" units="px" visible="true" enabled="true" spacingx="1px" spacingy="1px" />
  </sodipodi:namedview>
  <metadata id="metadata3510">
    <rdf:RDF>
      <cc:Work rdf:about="">
        <dc:format>image/svg+xml</dc:format>
        <dc:type rdf:resource="http://purl.org/dc/dcmitype/StillImage" />
        <dc:title></dc:title>
        <dc:date>2010-05-06</dc:date>
        <dc:creator>
          <cc:Agent>
            <dc:title>Andreas Neudecker &lt;zapyon@gmx.net&gt;</dc:title>
          </cc:Agent>
        </dc:creator>
        <dc:rights>
          <cc:Agent>
            <dc:title>Copyright (C) 2010 by Andreas Neudecker</dc:title>
          </cc:Agent>
        </dc:rights>
        <dc:publisher>
          <cc:Agent>
            <dc:title>Andreas Neudecker</dc:title>
          </cc:Agent>
        </dc:publisher>
        <dc:identifier>skull-00</dc:identifier>
        <dc:description>Poisonous skull.</dc:description>
      </cc:Work>
    </rdf:RDF>
  </metadata>
  <g id="layer1" inkscape:label="Layer 1" inkscape:groupmode="layer">
    <g id="g4356">
      <path id="path3391" d="M 8 2 C 7.6212087 1.9999742 7.27491 2.2139535 7.1054688 2.5527344 L 6.3828125 4 L 5 4 C 4.734801 4.0000511 4.4804804 4.1054325 4.2929688 4.2929688 L 2.2929688 6.2929688 C 2.1054325 6.4804804 2.0000511 6.734801 2 7 L 2 13.763672 L 1.1054688 15.552734 C 1.0360725 15.691615 0.99996323 15.844746 1 16 L 1 19 C 0.99996323 19.155254 1.036073 19.308385 1.1054688 19.447266 L 2 21.236328 L 2 22.763672 L 1.1054688 24.552734 C 1.0360726 24.691615 0.99996323 24.844746 1 25 L 1 26 C 1.0000511 26.265199 1.1054326 26.519519 1.2929688 26.707031 L 2 27.414062 L 2 28 C 2.0000552 28.552262 2.4477381 28.999945 3 29 L 5 29 L 6 29 C 6.1634795 28.999836 6.3244264 28.9596 6.46875 28.882812 L 7.2929688 29.707031 C 7.4804804 29.894567 7.734801 29.999949 8 30 L 10 30 L 11 30 C 11.265199 29.999949 11.519519 29.894567 11.707031 29.707031 L 12 29.414062 L 12.292969 29.707031 C 12.480481 29.894567 12.734801 29.999949 13 30 L 15 30 L 16.585938 30 L 17.292969 30.707031 C 17.480481 30.894567 17.734801 30.999949 18 31 L 21 31 C 21.175608 30.999755 21.348056 30.95328 21.5 30.865234 C 21.651944 30.953274 21.824392 30.999755 22 31 L 24 31 C 24.265199 30.999949 24.519519 30.894567 24.707031 30.707031 L 25.414062 30 L 28 30 C 28.552262 29.999945 28.999945 29.552262 29 29 L 29 28.791016 C 29.551996 28.56784 30 28.123859 30 27.5 C 30 27.42499 29.928999 27.398633 29.917969 27.328125 C 29.971282 27.204751 29.999182 27.071897 30 26.9375 L 30 25.9375 C 29.999949 25.672301 29.894567 25.417981 29.707031 25.230469 L 29.216797 24.740234 L 29.894531 23.384766 C 29.963927 23.245885 30.000037 23.092754 30 22.9375 L 30 22 L 30 21 L 30 20.9375 C 29.999949 20.672301 29.894567 20.417981 29.707031 20.230469 L 29.216797 19.740234 L 29.894531 18.384766 C 29.963927 18.245885 30.000037 18.092754 30 17.9375 L 30 16.9375 C 29.999949 16.672301 29.894567 16.417981 29.707031 16.230469 L 28.707031 15.230469 C 28.639351 15.163219 28.562403 15.105998 28.478516 15.060547 L 26.984375 14.244141 L 26.828125 14 L 27 14 C 27.265199 13.999949 27.519519 13.894567 27.707031 13.707031 L 29.707031 11.707031 C 29.894567 11.519519 29.999949 11.265199 30 11 L 30 9 C 29.999949 8.734801 29.894567 8.4804804 29.707031 8.2929688 L 29.705078 8.2910156 L 28.253906 6.5722656 L 28.201172 6.4863281 C 28.145312 6.3935221 28.074703 6.3104101 27.992188 6.2402344 L 25.648438 4.2402344 C 25.467733 4.0856006 25.237835 4.0004276 25 4 L 23.410156 4 L 23.207031 3.9863281 L 21.447266 3.1054688 C 21.404996 3.0841657 21.361266 3.0658903 21.316406 3.0507812 L 18.316406 2.0507812 C 18.214352 2.0169572 18.107513 1.9998098 18 2 L 14 2 C 13.844746 1.9999632 13.691615 2.0360729 13.552734 2.1054688 L 12.197266 2.7832031 L 11.707031 2.2929688 C 11.519519 2.1054325 11.265199 2.0000511 11 2 L 8 2 z M 8 3 L 11 3 L 12 4 L 14 3 L 18 3 L 21 4 L 23 5 L 25 5 L 27.339844 7 L 28 8 L 29 9 L 29 11 L 27 13 L 25 13 L 26.294922 15 L 28.005859 15.929688 L 29.005859 16.929688 L 29.005859 17.929688 L 28.005859 19.929688 L 29.005859 20.929688 L 29.005859 22.929688 L 28.005859 24.929688 L 29.005859 25.929688 L 29.005859 26.929688 L 27.005859 28.929688 L 26.005859 28.929688 L 26 28 L 24 30 L 22 30 L 21 29 L 21 30 L 18 30 L 16 28 L 15 29 L 13 29 L 12 28 L 11 29 L 9 29 L 7 27 L 6 28 L 4 28 L 2 26 L 2 25 L 3 23 L 3 21 L 2 19 L 2 16 L 3 14 L 3 7 L 5 5 L 7 5 L 8 3 z " style="color:black;font-style:normal;font-variant:normal;font-weight:normal;font-stretch:normal;font-size:medium;line-height:normal;font-family:sans-serif;text-indent:0;text-align:start;text-decoration:none;text-decoration-line:none;text-decoration-style:solid;text-decoration-color:black;letter-spacing:normal;word-spacing:normal;text-transform:none;direction:ltr;block-progression:tb;writing-mode:lr-tb;baseline-shift:baseline;text-anchor:start;white-space:normal;clip-rule:nonzero;display:inline;overflow:visible;visibility:visible;opacity:1;isolation:auto;mix-blend-mode:normal;color-interpolation:sRGB;color-interpolation-filters:linearRGB;solid-color:black;solid-opacity:1;fill:black;fill-opacity:1;fill-rule:nonzero;stroke:none;stroke-width:2;stroke-linecap:round;stroke-linejoin:round;stroke-miterlimit:4;stroke-dasharray:none;stroke-dashoffset:0;stroke-opacity:1;color-rendering:auto;image-rendering:auto;shape-rendering:auto;text-rendering:auto;enable-background:accumulate" />
      <path sodipodi:nodetypes="cccccccccccccccccccccccccccccccccccccccccccccccccccc" id="path3259" d="m 3,7 2,-2 2,0 1,-2 3,0 1,1 2,-1 4,0 3,1 2,1 2,0 2.33913,2 L 28,8 l 1,1 0,2 -2,2 -2,0 1.295652,2 1.709254,0.930546 1,1 0,1 -1,2 1,1 0,2 -1,2 1,1 0,1 -2,2 -1,0 L 26,28 l -2,2 -2,0 -1,-1 0,1 -3,0 -2,-2 -1,1 -2,0 -1,-1 -1,1 L 9,29 7,27 6,28 4,28 2,26 2,25 3,23 3,21 2,19 2,16 3,14 3,7 Z" style="opacity:1;fill:black;fill-opacity:0.3764706;fill-rule:nonzero;stroke:none;stroke-width:4;stroke-linecap:round;stroke-linejoin:round;stroke-miterlimit:4;stroke-dasharray:none;stroke-dashoffset:0;stroke-opacity:1" inkscape:connector-curvature="0" />
    </g>
  </g>
</svg>
