<?xml version="1.0" encoding="UTF-8" standalone="no"?>
<!-- Created with Inkscape (http://www.inkscape.org/) -->

<svg
   xmlns:dc="http://purl.org/dc/elements/1.1/"
   xmlns:cc="http://creativecommons.org/ns#"
   xmlns:rdf="http://www.w3.org/1999/02/22-rdf-syntax-ns#"
   xmlns:svg="http://www.w3.org/2000/svg"
   xmlns="http://www.w3.org/2000/svg"
   xmlns:sodipodi="http://sodipodi.sourceforge.net/DTD/sodipodi-0.dtd"
   xmlns:inkscape="http://www.inkscape.org/namespaces/inkscape"
   width="48"
   height="48"
   id="svg4150"
   version="1.1"
   inkscape:version="0.48.5 r10040"
   viewBox="0 0 48 48"
   sodipodi:docname="button-empty-larger-01.svg">
  <defs
     id="defs4152" />
  <sodipodi:namedview
     id="base"
     pagecolor="#ffffff"
     bordercolor="#666666"
     borderopacity="1.0"
     inkscape:pageopacity="0.0"
     inkscape:pageshadow="2"
     inkscape:zoom="1.18"
     inkscape:cx="24"
     inkscape:cy="24"
     inkscape:current-layer="layer1"
     showgrid="true"
     inkscape:grid-bbox="true"
     inkscape:document-units="px"
     objecttolerance="10000"
     inkscape:snap-perpendicular="true"
     guidetolerance="10000"
     inkscape:window-width="1024"
     inkscape:window-height="741"
     inkscape:window-x="0"
     inkscape:window-y="2"
     inkscape:window-maximized="1"
     showguides="true"
     inkscape:guide-bbox="true">
    <inkscape:grid
       type="xygrid"
       id="grid4698"
       empspacing="4"
       visible="true"
       enabled="true"
       snapvisiblegridlinesonly="true" />
    <sodipodi:guide
       position="16,32"
       orientation="1,0"
       id="guide4769" />
    <sodipodi:guide
       position="-4,16"
       orientation="0,1"
       id="guide4771" />
    <sodipodi:guide
       position="16,16"
       orientation="-0.70710678,0.70710678"
       id="guide4773" />
    <sodipodi:guide
       position="16,16"
       orientation="0.70710678,0.70710678"
       id="guide4775" />
    <sodipodi:guide
       orientation="1,0"
       position="32,60"
       id="guide2999" />
    <sodipodi:guide
       orientation="0,1"
       position="-44,32"
       id="guide3001" />
  </sodipodi:namedview>
  <metadata
     id="metadata4155">
    <rdf:RDF>
      <cc:Work
         rdf:about="">
        <dc:format>image/svg+xml</dc:format>
        <dc:type
           rdf:resource="http://purl.org/dc/dcmitype/StillImage" />
        <dc:title />
      </cc:Work>
    </rdf:RDF>
  </metadata>
  <g
     id="layer1"
     inkscape:label="Layer 1"
     inkscape:groupmode="layer"
     transform="translate(0,16)">
    <g
       id="g3181">
      <rect
         rx="4"
         style="fill:#fc0;fill-opacity:1;stroke:none"
         id="rect3767"
         width="48"
         height="48"
         x="0"
         y="-16"
         ry="4" />
      <path
         sodipodi:nodetypes="cssssccsssscc"
         inkscape:connector-curvature="0"
         id="rect2997"
         d="M 1.875,-14.125 C 1.33275,-13.58275 1,-12.831 1,-12 l 0,40 c 0,1.662 1.338,3 3,3 l 40,0 c 0.831,0 1.58275,-0.33275 2.125,-0.875 L 45.40625,29.40625 C 45.04475,29.76775 44.554,30 44,30 L 4,30 C 2.892,30 2,29.108 2,28 l 0,-40 c 0,-0.554 0.23225,-1.04475 0.59375,-1.40625 z"
         style="fill:black;fill-opacity:0.37647059;stroke:none" />
      <path
         sodipodi:nodetypes="ssssssssssssssssss"
         inkscape:connector-curvature="0"
         id="rect2993"
         d="m 4,-16 c -2.216,0 -4,1.784 -4,4 l 0,40 c 0,2.216 1.784,4 4,4 l 40,0 c 2.216,0 4,-1.784 4,-4 l 0,-40 c 0,-2.216 -1.784,-4 -4,-4 z m 0,1 40,0 c 1.662,0 3,1.338 3,3 l 0,40 c 0,1.662 -1.338,3 -3,3 L 4,31 C 2.338,31 1,29.662 1,28 l 0,-40 c 0,-1.662 1.338,-3 3,-3 z"
         style="fill:black;fill-opacity:1;stroke:none" />
      <path
         sodipodi:nodetypes="sccssssccssss"
         inkscape:connector-curvature="0"
         id="rect3774"
         d="m 4,-15 c -0.831,0 -1.58275,0.33275 -2.125,0.875 l 0.71875,0.71875 C 2.95525,-13.76775 3.446,-14 4,-14 l 40,0 c 1.108,0 2,0.892 2,2 l 0,40 c 0,0.554 -0.23225,1.04475 -0.59375,1.40625 L 46.125,30.125 C 46.66725,29.58275 47,28.831 47,28 l 0,-40 c 0,-1.662 -1.338,-3 -3,-3 z"
         style="fill:white;fill-opacity:0.37647059;stroke:none" />
      <rect
         rx="1"
         ry="1"
         y="-14"
         x="3"
         height="2"
         width="42"
         id="rect3793"
         style="fill:white;fill-opacity:0.50196078;stroke:none" />
      <rect
         rx="0.5"
         ry="0.5"
         y="-14"
         x="4"
         height="1"
         width="40"
         id="rect3795"
         style="fill:white;fill-opacity:0.50196078;stroke:none" />
    </g>
  </g>
</svg>
