<?xml version="1.0" encoding="UTF-8" standalone="no"?>
<!-- Created with Inkscape (http://www.inkscape.org/) -->

<svg
   xmlns:dc="http://purl.org/dc/elements/1.1/"
   xmlns:cc="http://creativecommons.org/ns#"
   xmlns:rdf="http://www.w3.org/1999/02/22-rdf-syntax-ns#"
   xmlns:svg="http://www.w3.org/2000/svg"
   xmlns="http://www.w3.org/2000/svg"
   xmlns:xlink="http://www.w3.org/1999/xlink"
   xmlns:sodipodi="http://sodipodi.sourceforge.net/DTD/sodipodi-0.dtd"
   xmlns:inkscape="http://www.inkscape.org/namespaces/inkscape"
   width="32px"
   height="32px"
   id="svg3505"
   sodipodi:version="0.32"
   inkscape:version="0.47 r22583"
   sodipodi:docname="start-from-level-nn-00.svg"
   inkscape:output_extension="org.inkscape.output.svg.inkscape"
   version="1.1">
  <title
     id="title2868">Start From Level Symbol</title>
  <defs
     id="defs3507">
    <inkscape:perspective
       sodipodi:type="inkscape:persp3d"
       inkscape:vp_x="0 : 16 : 1"
       inkscape:vp_y="0 : 1000 : 0"
       inkscape:vp_z="32 : 16 : 1"
       inkscape:persp3d-origin="16 : 10.666667 : 1"
       id="perspective2836" />
    <inkscape:perspective
       id="perspective2899"
       inkscape:persp3d-origin="0.5 : 0.33333333 : 1"
       inkscape:vp_z="1 : 0.5 : 1"
       inkscape:vp_y="0 : 1000 : 0"
       inkscape:vp_x="0 : 0.5 : 1"
       sodipodi:type="inkscape:persp3d" />
    <inkscape:perspective
       id="perspective3072"
       inkscape:persp3d-origin="0.5 : 0.33333333 : 1"
       inkscape:vp_z="1 : 0.5 : 1"
       inkscape:vp_y="0 : 1000 : 0"
       inkscape:vp_x="0 : 0.5 : 1"
       sodipodi:type="inkscape:persp3d" />
    <inkscape:perspective
       id="perspective2823"
       inkscape:persp3d-origin="0.5 : 0.33333333 : 1"
       inkscape:vp_z="1 : 0.5 : 1"
       inkscape:vp_y="0 : 1000 : 0"
       inkscape:vp_x="0 : 0.5 : 1"
       sodipodi:type="inkscape:persp3d" />
    <inkscape:perspective
       id="perspective3909"
       inkscape:persp3d-origin="0.5 : 0.33333333 : 1"
       inkscape:vp_z="1 : 0.5 : 1"
       inkscape:vp_y="0 : 1000 : 0"
       inkscape:vp_x="0 : 0.5 : 1"
       sodipodi:type="inkscape:persp3d" />
    <inkscape:perspective
       id="perspective3925"
       inkscape:persp3d-origin="0.5 : 0.33333333 : 1"
       inkscape:vp_z="1 : 0.5 : 1"
       inkscape:vp_y="0 : 1000 : 0"
       inkscape:vp_x="0 : 0.5 : 1"
       sodipodi:type="inkscape:persp3d" />
    <inkscape:perspective
       sodipodi:type="inkscape:persp3d"
       inkscape:vp_x="0 : 0.5 : 1"
       inkscape:vp_y="0 : 1000 : 0"
       inkscape:vp_z="1 : 0.5 : 1"
       inkscape:persp3d-origin="0.5 : 0.33333333 : 1"
       id="perspective3103" />
    <inkscape:perspective
       id="perspective3208"
       inkscape:persp3d-origin="16 : 10.666667 : 1"
       inkscape:vp_z="32 : 16 : 1"
       inkscape:vp_y="0 : 1000 : 0"
       inkscape:vp_x="0 : 16 : 1"
       sodipodi:type="inkscape:persp3d" />
    <inkscape:perspective
       id="perspective3943"
       inkscape:persp3d-origin="0.5 : 0.33333333 : 1"
       inkscape:vp_z="1 : 0.5 : 1"
       inkscape:vp_y="0 : 1000 : 0"
       inkscape:vp_x="0 : 0.5 : 1"
       sodipodi:type="inkscape:persp3d" />
    <inkscape:perspective
       id="perspective3956"
       inkscape:persp3d-origin="0.5 : 0.33333333 : 1"
       inkscape:vp_z="1 : 0.5 : 1"
       inkscape:vp_y="0 : 1000 : 0"
       inkscape:vp_x="0 : 0.5 : 1"
       sodipodi:type="inkscape:persp3d" />
  </defs>
  <sodipodi:namedview
     id="base"
     pagecolor="#ffffff"
     bordercolor="#666666"
     borderopacity="1.0"
     inkscape:pageopacity="0.0"
     inkscape:pageshadow="2"
     inkscape:zoom="18.59375"
     inkscape:cx="16.215126"
     inkscape:cy="16"
     inkscape:current-layer="layer1"
     showgrid="true"
     inkscape:grid-bbox="true"
     inkscape:document-units="px"
     objecttolerance="4"
     gridtolerance="4"
     guidetolerance="4"
     inkscape:window-width="824"
     inkscape:window-height="836"
     inkscape:window-x="0"
     inkscape:window-y="0"
     inkscape:object-paths="true"
     inkscape:object-nodes="true"
     inkscape:snap-bbox="true"
     inkscape:snap-guide="true"
     showguides="true"
     inkscape:guide-bbox="true"
     inkscape:window-maximized="0">
    <inkscape:grid
       type="xygrid"
       id="grid3515"
       units="px"
       visible="true"
       enabled="true"
       spacingx="1px"
       spacingy="1px"
       empspacing="4"
       snapvisiblegridlinesonly="true" />
  </sodipodi:namedview>
  <metadata
     id="metadata3510">
    <rdf:RDF>
      <cc:Work
         rdf:about="">
        <dc:format>image/svg+xml</dc:format>
        <dc:type
           rdf:resource="http://purl.org/dc/dcmitype/StillImage" />
        <dc:title>Start From Level Symbol</dc:title>
        <dc:date>2010-10-28</dc:date>
        <dc:creator>
          <cc:Agent>
            <dc:title>Andreas Neudecker &lt;zapyon@gmx.net&gt;</dc:title>
          </cc:Agent>
        </dc:creator>
        <dc:rights>
          <cc:Agent>
            <dc:title>Copyright (C) 2010 by Andreas Neudecker</dc:title>
          </cc:Agent>
        </dc:rights>
        <dc:publisher>
          <cc:Agent>
            <dc:title>Andreas Neudecker</dc:title>
          </cc:Agent>
        </dc:publisher>
        <dc:identifier>start-from-level-00</dc:identifier>
        <dc:description>Start from level symbol for McMinos menus.</dc:description>
      </cc:Work>
    </rdf:RDF>
  </metadata>
  <g
     id="layer1"
     inkscape:label="Layer 1"
     inkscape:groupmode="layer">
    <g
       id="g3688">
      <rect
         y="0"
         x="0"
         height="32"
         width="32"
         id="rect2914"
         style="fill:#000000;fill-opacity:0;fill-rule:nonzero;stroke:none" />
      <path
         id="path3836"
         d="M 31,32 7,32 7,29 4,29 4,27 1,27 1,0 l 23,0 0,2 3,0 0,2 4,0 0,28 z"
         style="fill:#000000;fill-opacity:1;fill-rule:nonzero;stroke:none" />
      <g
         transform="translate(-3,-2)"
         id="g3816">
        <rect
           y="3"
           x="5"
           height="25"
           width="21"
           id="rect3818"
           style="fill:#202020;fill-opacity:1;fill-rule:nonzero;stroke:none" />
        <path
           id="path3820"
           d="M 5,3 5,5 5,28 7,28 8,28 8,26 7,26 7,5 26,5 26,3 5,3 z"
           style="fill:#0000ff;fill-opacity:1;fill-rule:nonzero;stroke:none" />
        <path
           id="path3822"
           d="M 25,5 25,4 6,4 5,3 26,3 26,5 25,5 z"
           style="fill:#00ffff;fill-opacity:1;fill-rule:nonzero;stroke:none" />
        <path
           id="path3824"
           d="M 6,4 7,5 7,26 8,26 8,27 6,27 6,4 z"
           style="fill:#00ffff;fill-opacity:1;fill-rule:nonzero;stroke:none" />
      </g>
      <g
         id="g3810">
        <rect
           style="fill:#202020;fill-opacity:1;fill-rule:nonzero;stroke:none"
           id="rect3808"
           width="21"
           height="25"
           x="5"
           y="3" />
        <path
           style="fill:#0000ff;fill-opacity:1;fill-rule:nonzero;stroke:none"
           d="M 5,3 5,5 5,28 7,28 8,28 8,26 7,26 7,5 26,5 26,3 5,3 z"
           id="rect3778" />
        <path
           style="fill:#00ffff;fill-opacity:1;fill-rule:nonzero;stroke:none"
           d="M 25,5 25,4 6,4 5,3 26,3 26,5 25,5 z"
           id="path3786" />
        <path
           style="fill:#00ffff;fill-opacity:1;fill-rule:nonzero;stroke:none"
           d="M 6,4 7,5 7,26 8,26 8,27 6,27 6,4 z"
           id="path3788" />
      </g>
      <rect
         y="5"
         x="8"
         height="26"
         width="22"
         id="rect3776"
         style="fill:#202020;fill-opacity:1;fill-rule:nonzero;stroke:none" />
      <path
         sodipodi:nodetypes="cccccccccccccccccccccccccccc"
         id="rect3622"
         d="m 8,5 0,2 0,22 0,2 20,0 2,0 L 30,7 30,5 8,5 z m 2,2 18,0 0,22 -6,0 0,-16 -7,0 0,2 5,0 0,6 -5,0 0,2 5,0 0,6 -10,0 0,-6 1,0 0,-2 -1,0 0,-14 z"
         style="fill:#0000ff;fill-opacity:1;fill-rule:nonzero;stroke:none" />
      <g
         transform="translate(20,-4)"
         id="g3388">
        <path
           sodipodi:type="arc"
           style="fill:#ff0000;fill-opacity:1;fill-rule:nonzero;stroke:none"
           id="path3241"
           sodipodi:cx="26"
           sodipodi:cy="14"
           sodipodi:rx="2"
           sodipodi:ry="2"
           d="m 28,14 c 0,1.104569 -0.895431,2 -2,2 -1.104569,0 -2,-0.895431 -2,-2 0,-1.104569 0.895431,-2 2,-2 1.104569,0 2,0.895431 2,2 z"
           transform="translate(-33,0)" />
        <path
           sodipodi:type="arc"
           style="fill:#000000;fill-opacity:1;fill-rule:nonzero;stroke:none"
           id="path3243"
           sodipodi:cx="25.5"
           sodipodi:cy="13.5"
           sodipodi:rx="0.5"
           sodipodi:ry="0.5"
           d="M 26,13.5 C 26,13.776142 25.776142,14 25.5,14 25.223858,14 25,13.776142 25,13.5 25,13.223858 25.223858,13 25.5,13 c 0.276142,0 0.5,0.223858 0.5,0.5 z"
           transform="translate(-33.5,0)" />
        <path
           sodipodi:type="arc"
           style="fill:#000000;fill-opacity:1;fill-rule:nonzero;stroke:none"
           id="path3245"
           sodipodi:cx="26.5"
           sodipodi:cy="13.5"
           sodipodi:rx="0.5"
           sodipodi:ry="0.5"
           d="M 27,13.5 C 27,13.776142 26.776142,14 26.5,14 26.223858,14 26,13.776142 26,13.5 26,13.223858 26.223858,13 26.5,13 c 0.276142,0 0.5,0.223858 0.5,0.5 z"
           transform="translate(-32.5,0)" />
      </g>
      <g
         id="g3800"
         transform="translate(-1,0)">
        <path
           style="fill:#d0aa00;fill-opacity:1;fill-rule:nonzero;stroke:none"
           d="m 14,20 c -1.104569,0 -2,0.895431 -2,2 l 0,2 2,0 2,0 0,-2 c 0,-1.104569 -0.895431,-2 -2,-2 z"
           id="path2923" />
        <path
           style="fill:#805500;fill-opacity:1;fill-rule:nonzero;stroke:none"
           d="M 13,20.267565 C 12.403104,20.613608 12,21.260396 12,22 l 0,2 1,0 0,-3.732435 z"
           id="path3728"
           sodipodi:nodetypes="ccccc" />
        <path
           style="fill:#805500;fill-opacity:1;fill-rule:nonzero;stroke:none"
           d="m 14,20 0,4 1,0 0,-3.736633 C 14.705456,20.092609 14.364965,20 14,20 z"
           id="path3733"
           sodipodi:nodetypes="ccccc" />
        <path
           style="fill:#c0c0c0;fill-opacity:1;fill-rule:nonzero;stroke:none"
           d="m 12.5,21.5 c -0.276142,0 -0.5,0.223858 -0.5,0.5 0,0.276142 0.223858,0.5 0.5,0.5 0.276142,0 0.5,-0.223858 0.5,-0.5 l 1,0 c 0.138071,0 0.25,-0.111929 0.25,-0.25 0,-0.138071 -0.111929,-0.25 -0.25,-0.25 l -1.5,0 z"
           id="path3738" />
        <path
           style="fill:#000000;fill-opacity:0.37647059;fill-rule:nonzero;stroke:none"
           d="m 12.75,21.75 0,0.25 c 0,0.207107 -0.06652,0.424096 -0.15625,0.5 C 12.831995,22.452367 13,22.240692 13,22 l 1,0 c 0.138071,0 0.25,-0.111929 0.25,-0.25 l -0.25,0 -1.25,0 z"
           id="path3756" />
      </g>
      <g
         id="g3721">
        <path
           style="fill:#ffffff;fill-opacity:1;fill-rule:nonzero;stroke:none"
           d="M 17.000002,24 C 15.896002,24 15,24.865104 15,25.931034 l 0,1.517242 C 15,27.752828 15.256,28 15.571429,28 c 0.315429,0 0.571429,-0.247172 0.571429,-0.551724 0,-0.07614 0.06401,-0.13794 0.142867,-0.13794 0.07886,0 0.142846,0.0618 0.142846,0.13794 C 16.428571,27.752828 16.684571,28 17,28 c 0.315429,0 0.571429,-0.247172 0.571429,-0.551724 0,-0.07614 0.06401,-0.13794 0.142867,-0.13794 0.07886,0 0.142846,0.0618 0.142846,0.13794 C 17.857142,27.752828 18.113144,28 18.428571,28 18.744,28 19,27.752828 19,27.448276 l 0,-1.517242 C 19.000004,24.865104 18.104004,24 17.000002,24 z"
           id="path2857"
           sodipodi:nodetypes="cccsssssssssccc" />
        <path
           sodipodi:type="arc"
           style="fill:#000000;fill-opacity:1;fill-rule:nonzero;stroke:none"
           id="path3717"
           sodipodi:cx="16.5"
           sodipodi:cy="25.5"
           sodipodi:rx="0.5"
           sodipodi:ry="0.5"
           d="m 17,25.5 a 0.5,0.5 0 1 1 -1,0 0.5,0.5 0 1 1 1,0 z"
           transform="translate(-0.5,0)" />
        <path
           transform="translate(1.5,0)"
           d="m 17,25.5 a 0.5,0.5 0 1 1 -1,0 0.5,0.5 0 1 1 1,0 z"
           sodipodi:ry="0.5"
           sodipodi:rx="0.5"
           sodipodi:cy="25.5"
           sodipodi:cx="16.5"
           id="path3719"
           style="fill:#000000;fill-opacity:1;fill-rule:nonzero;stroke:none"
           sodipodi:type="arc" />
      </g>
      <path
         transform="translate(7,20)"
         d="M 7,6 A 1,1 0 1 1 5,6 1,1 0 1 1 7,6 z"
         sodipodi:ry="1"
         sodipodi:rx="1"
         sodipodi:cy="6"
         sodipodi:cx="6"
         id="path2409"
         style="fill:#80ff00;fill-opacity:1;fill-rule:nonzero;stroke:none"
         sodipodi:type="arc" />
      <use
         height="32"
         width="32"
         transform="translate(0,-8)"
         id="use3735"
         xlink:href="#path2409"
         y="0"
         x="0" />
      <use
         x="0"
         y="0"
         xlink:href="#path2409"
         id="use3737"
         transform="translate(0,-12)"
         width="32"
         height="32" />
      <use
         height="32"
         width="32"
         transform="translate(4,-16)"
         id="use3739"
         xlink:href="#path2409"
         y="0"
         x="0" />
      <use
         x="0"
         y="0"
         xlink:href="#path2409"
         id="use3741"
         transform="translate(8,-16)"
         width="32"
         height="32" />
      <use
         height="32"
         width="32"
         transform="translate(12,-16)"
         id="use3743"
         xlink:href="#path2409"
         y="0"
         x="0" />
      <use
         x="0"
         y="0"
         xlink:href="#path2409"
         id="use3745"
         transform="translate(12,-12)"
         width="32"
         height="32" />
      <use
         height="32"
         width="32"
         transform="translate(12,-8)"
         id="use3747"
         xlink:href="#path2409"
         y="0"
         x="0" />
      <use
         x="0"
         y="0"
         xlink:href="#path2409"
         id="use3749"
         transform="translate(12,-4)"
         width="32"
         height="32" />
      <use
         height="32"
         width="32"
         transform="translate(12,0)"
         id="use3751"
         xlink:href="#path2409"
         y="0"
         x="0" />
      <path
         id="path3753"
         d="m 8,5 1,1 20,0 0,24 1,1 L 30,5 8,5 z"
         style="fill:#00ffff;fill-opacity:1;fill-rule:nonzero;stroke:none" />
      <path
         id="path3755"
         d="m 15,13 1,1 5,0 0,16 8,0 -1,-1 -6,0 0,-16 -7,0 z"
         style="fill:#00ffff;fill-opacity:1;fill-rule:nonzero;stroke:none" />
      <path
         id="path3757"
         d="m 9,6 1,1 0,14 1,0 0,1 -2,0 0,-16 z"
         style="fill:#00ffff;fill-opacity:1;fill-rule:nonzero;stroke:none" />
      <path
         id="path3759"
         d="m 9,22 1,1 0,6 10,0 1,1 -12,0 0,-8 z"
         style="fill:#00ffff;fill-opacity:1;fill-rule:nonzero;stroke:none" />
      <path
         id="path3761"
         d="m 15,21 0,1 6,0 -1,-1 -5,0 z"
         style="fill:#00ffff;fill-opacity:1;fill-rule:nonzero;stroke:none" />
      <g
         id="g3399"
         transform="translate(-1.0000003,-1.4929057e-8)">
        <path
           style="fill:#e4b800;fill-opacity:1;fill-rule:nonzero;stroke:none"
           d="m 17.500001,16 0,2 1,0 0,-2 -1,0 z"
           id="path3262"
           sodipodi:nodetypes="ccccc" />
        <path
           sodipodi:type="arc"
           style="fill:#00ff00;fill-opacity:1;fill-rule:nonzero;stroke:none"
           id="path3260"
           sodipodi:cx="14.131147"
           sodipodi:cy="14.663935"
           sodipodi:rx="1.8688525"
           sodipodi:ry="1.6639345"
           d="m 16,14.663935 c 0,0.918965 -0.836714,1.663934 -1.868853,1.663934 -1.032138,0 -1.868852,-0.744969 -1.868852,-1.663934 C 12.262295,13.744969 13.099009,13 14.131147,13 15.163286,13 16,13.744969 16,14.663935 z"
           transform="matrix(1.0701754,0,0,0.9014778,2.877194,5.2807884)" />
      </g>
    </g>
  </g>
</svg>
