<?xml version="1.0" encoding="UTF-8" standalone="no"?>
<!-- Created with Inkscape (http://www.inkscape.org/) -->

<svg
   xmlns:dc="http://purl.org/dc/elements/1.1/"
   xmlns:cc="http://creativecommons.org/ns#"
   xmlns:rdf="http://www.w3.org/1999/02/22-rdf-syntax-ns#"
   xmlns:svg="http://www.w3.org/2000/svg"
   xmlns="http://www.w3.org/2000/svg"
   xmlns:sodipodi="http://sodipodi.sourceforge.net/DTD/sodipodi-0.dtd"
   xmlns:inkscape="http://www.inkscape.org/namespaces/inkscape"
   width="32px"
   height="32px"
   id="svg3505"
   sodipodi:version="0.32"
   inkscape:version="0.48.5 r10040"
   sodipodi:docname="mcminos-frightened-02.svg"
   inkscape:output_extension="org.inkscape.output.svg.inkscape"
   version="1.1">
  <defs
     id="defs3507">
    <inkscape:perspective
       sodipodi:type="inkscape:persp3d"
       inkscape:vp_x="0 : 16 : 1"
       inkscape:vp_y="0 : 1000 : 0"
       inkscape:vp_z="32 : 16 : 1"
       inkscape:persp3d-origin="16 : 10.666667 : 1"
       id="perspective3513" />
    <inkscape:perspective
       id="perspective4690"
       inkscape:persp3d-origin="372.04724 : 350.78739 : 1"
       inkscape:vp_z="744.09448 : 526.18109 : 1"
       inkscape:vp_y="0 : 1000 : 0"
       inkscape:vp_x="0 : 526.18109 : 1"
       sodipodi:type="inkscape:persp3d" />
  </defs>
  <sodipodi:namedview
     id="base"
     pagecolor="#ffffff"
     bordercolor="#666666"
     borderopacity="1.0"
     inkscape:pageopacity="0.0"
     inkscape:pageshadow="2"
     inkscape:zoom="16.375"
     inkscape:cx="16"
     inkscape:cy="16"
     inkscape:current-layer="layer1"
     showgrid="true"
     inkscape:grid-bbox="true"
     inkscape:document-units="px"
     objecttolerance="4"
     gridtolerance="4"
     guidetolerance="4"
     inkscape:window-width="1024"
     inkscape:window-height="741"
     inkscape:window-x="0"
     inkscape:window-y="2"
     inkscape:object-paths="true"
     inkscape:object-nodes="true"
     inkscape:snap-bbox="true"
     inkscape:snap-guide="true"
     inkscape:window-maximized="1">
    <inkscape:grid
       type="xygrid"
       id="grid3515"
       units="px"
       visible="true"
       enabled="true"
       spacingx="1px"
       spacingy="1px" />
  </sodipodi:namedview>
  <metadata
     id="metadata3510">
    <rdf:RDF>
      <cc:Work
         rdf:about="">
        <dc:format>image/svg+xml</dc:format>
        <dc:type
           rdf:resource="http://purl.org/dc/dcmitype/StillImage" />
        <dc:title></dc:title>
        <dc:date>2010-04-26</dc:date>
        <dc:creator>
          <cc:Agent>
            <dc:title>Andreas Neudecker &lt;zapyon@gmx.net&gt;</dc:title>
          </cc:Agent>
        </dc:creator>
        <dc:rights>
          <cc:Agent>
            <dc:title>Copyright (C) 2010 by Andreas Neudecker</dc:title>
          </cc:Agent>
        </dc:rights>
        <dc:publisher>
          <cc:Agent>
            <dc:title>Andreas Neudecker</dc:title>
          </cc:Agent>
        </dc:publisher>
        <dc:identifier>vorlage-32x32-mcminos</dc:identifier>
        <dc:description>Vorlage für 32x32-Pixel-Icons für McMinos. Metadaten jeweils entsprechend anpassen!</dc:description>
      </cc:Work>
    </rdf:RDF>
  </metadata>
  <g
     id="layer1"
     inkscape:label="Layer 1"
     inkscape:groupmode="layer">
    <rect
       style="fill:none;stroke:none"
       id="rect6553"
       width="32"
       height="32"
       x="0"
       y="0" />
    <g
       id="g10077"
       transform="matrix(0.86666667,0,0,0.86666667,2.1333333,2.1333333)">
      <path
         id="path6549"
         d="M 16,1 C 13.263761,1 10.708535,1.7514313 8.5,3.03125 4.8675138,3.2877787 2,6.302232 2,10 2,10.199682 2.0148591,10.398304 2.03125,10.59375 1.3825198,12.271489 1,14.093333 1,16 1,24.284272 7.7157284,31 16,31 24.284272,31 31,24.284272 31,16 31,7.7157285 24.284272,1 16,1 z"
         style="fill:black;fill-opacity:1;stroke:none"
         inkscape:connector-curvature="0" />
      <path
         sodipodi:type="arc"
         style="fill:black;fill-opacity:1;stroke:none"
         id="path6551"
         sodipodi:cx="9"
         sodipodi:cy="10"
         sodipodi:rx="6.2671757"
         sodipodi:ry="6.2671757"
         d="m 15.267176,10 c 0,3.461266 -2.80591,6.267176 -6.267176,6.267176 -3.4612655,0 -6.2671757,-2.80591 -6.2671757,-6.267176 0,-3.4612655 2.8059102,-6.2671757 6.2671757,-6.2671757 3.461266,0 6.267176,2.8059102 6.267176,6.2671757 z"
         transform="matrix(1.1169306,0,0,1.1169306,12.947625,-1.1693055)" />
      <path
         transform="matrix(2.0024876,0,0,2.0024876,0.04974722,-0.01990512)"
         d="m 14.956522,8 c 0,3.861191 -3.130114,6.991304 -6.9913044,6.991304 -3.8611908,0 -6.99130441,-3.130113 -6.99130441,-6.991304 0,-3.8611908 3.13011361,-6.9913044 6.99130441,-6.9913044 3.8611904,0 6.9913044,3.1301136 6.9913044,6.9913044 z"
         sodipodi:ry="6.9913044"
         sodipodi:rx="6.9913044"
         sodipodi:cy="8"
         sodipodi:cx="7.9652176"
         id="path3403"
         style="fill:red;fill-opacity:1;fill-rule:nonzero;stroke:none"
         sodipodi:type="arc" />
      <path
         sodipodi:open="true"
         sodipodi:end="3.1415927"
         sodipodi:start="0"
         transform="matrix(3.127226,0,0,3.3996825,-72.05343,-160.18474)"
         d="m 32.314078,51.823883 c 0,2.111873 -1.861169,3.823885 -4.157038,3.823885 -2.295869,0 -4.157039,-1.712012 -4.157039,-3.823885 0,0 0,0 0,0"
         sodipodi:ry="3.8238845"
         sodipodi:rx="4.1570387"
         sodipodi:cy="51.823883"
         sodipodi:cx="28.15704"
         id="path3429"
         style="fill:maroon;fill-opacity:1;fill-rule:nonzero;stroke:none"
         sodipodi:type="arc" />
      <path
         d="m 24,21 c 0,2.730646 -3.581722,4.944272 -8,4.944272 -4.418278,0 -8,-2.213626 -8,-4.944272 0,-2.730646 3.581722,-4.944272 8,-4.944272 4.418278,0 8,2.213626 8,4.944272 z"
         sodipodi:ry="4.944272"
         sodipodi:rx="8"
         sodipodi:cy="21"
         sodipodi:cx="16"
         id="path5770"
         style="fill:#500;fill-opacity:1;stroke:none"
         sodipodi:type="arc" />
      <path
         sodipodi:nodetypes="caaaczc"
         inkscape:connector-curvature="0"
         id="path5768"
         d="m 8,26.549618 c 0,0 3.180916,-2.11259 5,-2.549618 0.972333,-0.233599 2,0 3,0 1,0 2.019314,-0.195589 3,0 1.964444,0.391791 5.549618,2.305344 5.549618,2.305344 0,0 -5.882951,3.236641 -8.549618,3.236641 -2.666667,0 -8,-2.992367 -8,-2.992367 z"
         style="fill:red;fill-opacity:1;stroke:none" />
      <path
         d="M 10,5 C 10,6.1045695 9.1045695,7 8,7 6.8954305,7 6,6.1045695 6,5 6,3.8954305 6.8954305,3 8,3 c 1.1045695,0 2,0.8954305 2,2 z"
         sodipodi:ry="2"
         sodipodi:rx="2"
         sodipodi:cy="5"
         sodipodi:cx="8"
         id="path3407"
         style="fill:white;fill-opacity:1;fill-rule:nonzero;stroke:none"
         sodipodi:type="arc"
         transform="matrix(3.0000014,0,0,3.0000014,-15.000014,-5.0000123)" />
      <path
         transform="matrix(3.0000015,0,0,3.0000015,-1.000015,-5.0000126)"
         sodipodi:type="arc"
         style="fill:white;fill-opacity:1;fill-rule:nonzero;stroke:none"
         id="path3425"
         sodipodi:cx="8"
         sodipodi:cy="5"
         sodipodi:rx="2"
         sodipodi:ry="2"
         d="M 10,5 C 10,6.1045695 9.1045695,7 8,7 6.8954305,7 6,6.1045695 6,5 6,3.8954305 6.8954305,3 8,3 c 1.1045695,0 2,0.8954305 2,2 z" />
      <path
         transform="matrix(3,0,0,3,-15,-5)"
         d="M 9,5 C 9,5.5522847 8.5522847,6 8,6 7.4477153,6 7,5.5522847 7,5 7,4.4477153 7.4477153,4 8,4 8.5522847,4 9,4.4477153 9,5 z"
         sodipodi:ry="1"
         sodipodi:rx="1"
         sodipodi:cy="5"
         sodipodi:cx="8"
         id="path3409"
         style="fill:black;fill-opacity:1;fill-rule:nonzero;stroke:none"
         sodipodi:type="arc" />
      <path
         sodipodi:type="arc"
         style="fill:black;fill-opacity:1;fill-rule:nonzero;stroke:none"
         id="path3427"
         sodipodi:cx="8"
         sodipodi:cy="5"
         sodipodi:rx="1"
         sodipodi:ry="1"
         d="M 9,5 C 9,5.5522847 8.5522847,6 8,6 7.4477153,6 7,5.5522847 7,5 7,4.4477153 7.4477153,4 8,4 8.5522847,4 9,4.4477153 9,5 z"
         transform="matrix(3,0,0,3,-1,-5)" />
      <path
         transform="translate(0,-1.6946565)"
         d="m 17,22 c 0,1.104569 -0.447715,2 -1,2 -0.552285,0 -1,-0.895431 -1,-2 0,-1.104569 0.447715,-2 1,-2 0.552285,0 1,0.895431 1,2 z"
         sodipodi:ry="2"
         sodipodi:rx="1"
         sodipodi:cy="22"
         sodipodi:cx="16"
         id="path5707"
         style="fill:red;fill-opacity:1;stroke:none"
         sodipodi:type="arc" />
      <path
         sodipodi:open="true"
         sodipodi:type="arc"
         style="fill:white;fill-opacity:1;fill-rule:nonzero;stroke:none"
         id="path3443"
         sodipodi:cx="28.15704"
         sodipodi:cy="51.823883"
         sodipodi:rx="4.1570387"
         sodipodi:ry="0.76477689"
         d="m 24.000001,51.823883 c 0,-0.422375 1.86117,-0.764777 4.157039,-0.764777 2.295869,0 4.157038,0.342402 4.157038,0.764777"
         transform="matrix(3.3677824,0,0,1.7603396e-6,-78.826783,15.999905)"
         sodipodi:start="3.1415927"
         sodipodi:end="6.2831853" />
      <path
         d="m 16.557132,16.27804 c 0,0.116261 -0.0017,0.210509 -0.0038,0.210509 -0.0021,0 -0.0038,-0.09425 -0.0038,-0.210509 0,-0.116261 0.0017,-0.210509 0.0038,-0.210509 0.0021,0 0.0038,0.09425 0.0038,0.210509 z"
         sodipodi:ry="0.21050936"
         sodipodi:rx="0.0037570808"
         sodipodi:cy="16.27804"
         sodipodi:cx="16.553375"
         id="path5772"
         style="fill:#500;fill-opacity:1;stroke:none"
         sodipodi:type="arc" />
    </g>
  </g>
</svg>
