<?xml version="1.0" encoding="UTF-8" standalone="no"?>
<!-- Created with Inkscape (http://www.inkscape.org/) -->

<svg
   xmlns:dc="http://purl.org/dc/elements/1.1/"
   xmlns:cc="http://creativecommons.org/ns#"
   xmlns:rdf="http://www.w3.org/1999/02/22-rdf-syntax-ns#"
   xmlns:svg="http://www.w3.org/2000/svg"
   xmlns="http://www.w3.org/2000/svg"
   xmlns:sodipodi="http://sodipodi.sourceforge.net/DTD/sodipodi-0.dtd"
   xmlns:inkscape="http://www.inkscape.org/namespaces/inkscape"
   width="32"
   height="32"
   id="svg4150"
   version="1.1"
   inkscape:version="0.48.5 r10040"
   viewBox="0 0 32 32"
   sodipodi:docname="03.svg">
  <defs
     id="defs4152" />
  <sodipodi:namedview
     id="base"
     pagecolor="#ffffff"
     bordercolor="#666666"
     borderopacity="1.0"
     inkscape:pageopacity="0.0"
     inkscape:pageshadow="2"
     inkscape:zoom="16.5"
     inkscape:cx="16"
     inkscape:cy="16"
     inkscape:current-layer="layer1"
     showgrid="true"
     inkscape:grid-bbox="true"
     inkscape:document-units="px"
     objecttolerance="10000"
     inkscape:snap-perpendicular="true"
     guidetolerance="10000"
     inkscape:window-width="1024"
     inkscape:window-height="741"
     inkscape:window-x="0"
     inkscape:window-y="2"
     inkscape:window-maximized="1"
     showguides="true"
     inkscape:guide-bbox="true">
    <inkscape:grid
       type="xygrid"
       id="grid4698"
       empspacing="4"
       visible="true"
       enabled="true"
       snapvisiblegridlinesonly="true" />
    <sodipodi:guide
       position="16,32"
       orientation="1,0"
       id="guide4769" />
    <sodipodi:guide
       position="-4,16"
       orientation="0,1"
       id="guide4771" />
    <sodipodi:guide
       position="16,16"
       orientation="-0.70710678,0.70710678"
       id="guide4773" />
    <sodipodi:guide
       position="16,16"
       orientation="0.70710678,0.70710678"
       id="guide4775" />
  </sodipodi:namedview>
  <metadata
     id="metadata4155">
    <rdf:RDF>
      <cc:Work
         rdf:about="">
        <dc:format>image/svg+xml</dc:format>
        <dc:type
           rdf:resource="http://purl.org/dc/dcmitype/StillImage" />
        <dc:title></dc:title>
      </cc:Work>
    </rdf:RDF>
  </metadata>
  <g
     id="layer1"
     inkscape:label="Layer 1"
     inkscape:groupmode="layer">
    <g
       id="g3928"
       transform="translate(2,0)">
      <path
         inkscape:connector-curvature="0"
         id="path3071"
         d="m 13.999563,2.9995155 0,1 -2.000008,1 1.000004,1 0.500002,1.03125 c -1.655402,1.580454 -4.0330155,2.911954 -5.0312693,4.4999985 l -0.4687518,0.46875 0,-1 -1.0000038,1 -2.0000076,-1 1.0000038,2 -1.0000038,0 1.0000038,1 0,1 1.0000038,-1 0.4375017,0.4375 c -1.2977953,2.882305 -3.6278104,6.67178 -2.4375093,9.5625 1.3979983,3.395126 5.7358905,5.959645 10.0000385,6 4.264147,0.04036 8.743354,-2.439409 10.000038,-6 1.083317,-3.069388 -1.674563,-6.79704 -3.312513,-9.6875 l 0.312501,-0.3125 2.000008,1 -1.000004,-2 1.000004,-1 -1.000004,0 0,-1 -1.000004,1 -0.750003,-0.75 C 20.254802,8.8926398 18.959092,5.9182356 16.905824,5.0932655 l 0.09375,-0.09375 -0.437502,0 c -0.179387,-0.049166 -0.372397,-0.079899 -0.562502,-0.09375 l 0,-1.90625 -1.000003,1 -1.000004,-1 z"
         style="fill:#e6e6e6;fill-opacity:1;stroke:black;stroke-width:2;stroke-linejoin:round;stroke-miterlimit:4;stroke-opacity:1;stroke-dasharray:none" />
      <path
         sodipodi:nodetypes="zzzccz"
         inkscape:connector-curvature="0"
         id="path3050"
         d="m 4.9995283,23.999514 c 1.3979983,3.395126 5.7358907,5.959645 10.0000377,6 4.264147,0.04036 8.743354,-2.439409 10.000038,-6 1.256683,-3.560591 -2.666678,-8 -4.000016,-11 -4.333349,0 -8.666699,0 -13.0000484,0 -0.9375035,2.9375 -4.3980096,7.604874 -3.0000113,11 z"
         style="fill:#e6e6e6;fill-opacity:1;stroke:none" />
      <path
         sodipodi:nodetypes="cccc"
         inkscape:connector-curvature="0"
         id="path2993"
         d="m 14.999566,4.9995155 c -1.237312,3.1254149 -7.0000264,5 -7.0000264,7.9999985 l 14.0000524,0 c -1.299684,-2.769825 -3.1675,-8.9826277 -7.000026,-7.9999985 z"
         style="fill:#d40000;fill-opacity:1;stroke:none" />
      <path
         inkscape:connector-curvature="0"
         id="path3858"
         d="m 15.687068,4.9057655 c -0.224524,0.0078 -0.447969,0.032336 -0.687502,0.09375 l 1.562506,0 c -0.276959,-0.075908 -0.572204,-0.1042656 -0.875004,-0.09375 z m -0.687502,0.09375 c -1.237312,3.1254149 -7.0000264,5 -7.0000264,7.9999985 l 2.0000075,0 C 9.168025,9.8519435 14.868728,8.6273685 14.999566,4.9995155 z"
         style="fill:black;fill-opacity:0.25098039;stroke:none" />
      <path
         sodipodi:nodetypes="ccccccccccccc"
         inkscape:connector-curvature="0"
         id="path2995"
         d="m 15.99957,2.9995155 -1.000004,1 -1.000004,-1 0,1 -2.000007,1 1.000003,1 1.000004,2 1.000004,-1 1.000004,0 0,-1 1.000003,-1 -1.000003,0 z"
         style="fill:white;fill-opacity:1;stroke:none" />
      <path
         sodipodi:nodetypes="ccccccccccccccccccccccccccccccccccccccccccccccccc"
         inkscape:connector-curvature="0"
         id="path2997"
         d="m 6.9995358,11.999514 1.0000038,-1 0,1 1.0000037,-1 1.0000038,1 1.0000039,-1.9999985 1.000004,1.9999985 1.000003,-1 1.000004,1 1.000004,-1 0,1 2.000007,-1 0,1 1.000004,-1 1.000004,1 1.000004,-1.9999985 0,1.9999985 1.000003,-1 1.000004,1 1.000004,-1 0,1 1.000004,0 -1.000004,1 1.000004,2 -2.000008,-1 -1.000004,1 -1.000003,-1 -1.000004,1 -1.000004,-2 -1.000004,1 -1.000003,-1 0,1 -2.000008,-1 0,1 -1.000004,-1 -1.000003,2 -1.000004,-2 -1.0000039,2 0,-2 -1.0000038,1 0,-1 -1.0000037,2 -1.0000038,-1 -1.0000037,1 0,-1 -1.0000038,-1 1.0000038,0 -1.0000038,-2 z"
         style="fill:white;fill-opacity:1;stroke:none" />
      <path
         sodipodi:end="6.2831853"
         sodipodi:start="3.1415927"
         transform="matrix(1.3333383,0,0,1.5,-6.0005131,-12.000486)"
         d="m 12,20 c 0,-1.10457 0.671573,-2 1.5,-2 0.828427,0 1.5,0.895431 1.5,2 l -1.5,0 z"
         sodipodi:ry="2"
         sodipodi:rx="1.5"
         sodipodi:cy="20"
         sodipodi:cx="13.5"
         id="path3009"
         style="fill:black;fill-opacity:1;stroke:none"
         sodipodi:type="arc" />
      <path
         sodipodi:end="6.2831853"
         sodipodi:start="3.1415927"
         sodipodi:type="arc"
         style="fill:black;fill-opacity:1;stroke:none"
         id="path3011"
         sodipodi:cx="13.5"
         sodipodi:cy="20"
         sodipodi:rx="1.5"
         sodipodi:ry="2"
         d="m 12,20 c 0,-1.10457 0.671573,-2 1.5,-2 0.828427,0 1.5,0.895431 1.5,2 l -1.5,0 z"
         transform="matrix(1.3333383,0,0,1.5,-4.9050219e-4,-12.000486)" />
      <path
         inkscape:connector-curvature="0"
         id="path3013"
         d="m 6.9995358,18.076437 c -0.3398682,0 -0.6153863,0.275518 -0.6153863,0.615384 0,0.339868 0.2755181,0.615384 0.6153863,0.615384 0.3398695,0 0.6153877,-0.275516 0.6153877,-0.615384 0,-0.339866 -0.2755182,-0.615384 -0.6153877,-0.615384 z m 0,1.230768 c -0.3398682,0 -0.6153863,0.275519 -0.6153863,0.615386 0,0.103611 0.03169,0.18356 0.076921,0.26923 -0.035508,0.114957 -0.076921,0.219536 -0.076921,0.346154 0,0.230547 0.082005,0.430928 0.192309,0.615385 -0.1103021,0.184457 -0.192309,0.384836 -0.192309,0.615384 0,0.679737 0.5510364,1.23077 1.230774,1.23077 0,0.679735 0.5510361,1.230769 1.2307736,1.230769 0.043326,0 0.073211,-0.03409 0.1153901,-0.03846 -0.073794,0.199506 -0.1153901,0.42868 -0.1153901,0.653842 0,1.019603 0.8265548,1.846155 1.8461619,1.846155 0.305881,0 0.592127,-0.09909 0.846156,-0.230771 0.307054,0.137616 0.641733,0.230771 1.000004,0.230771 0,0.679734 0.551036,1.230768 1.230773,1.230768 0.400482,0 0.736785,-0.203821 0.961542,-0.5 0.41368,0.315163 0.939808,0.5 1.500006,0.5 0.928688,0 1.734669,-0.509925 2.153854,-1.26923 0.194665,-0.03184 0.36932,-0.104629 0.538464,-0.192309 0.307055,0.137616 0.641733,0.230771 1.000001,0.230771 1.359477,0 2.46155,-1.102069 2.46155,-2.461539 0.679738,-4e-6 1.230773,-0.551039 1.230773,-1.230773 0,-0.679736 -0.551035,-1.230771 -1.230773,-1.230771 0.679738,0 1.230773,-0.551032 1.230773,-1.230769 0,-0.679735 -0.551035,-1.230769 -1.230773,-1.230769 -0.679738,0 -1.230774,0.551034 -1.230774,1.230769 -0.679739,0 -1.230776,0.551034 -1.230776,1.230769 -0.358268,0 -0.692946,0.09314 -1.000001,0.230769 -0.254029,-0.131672 -0.540276,-0.230769 -0.846159,-0.230769 -0.807188,0 -1.479893,0.509032 -1.730774,1.230771 -0.03854,-0.0018 -0.0764,0 -0.115389,0 -0.509805,0 -0.991755,0.157662 -1.384621,0.423076 -0.335592,-0.960337 -1.232866,-1.653847 -2.307701,-1.653847 -0.928686,0 -1.73467,0.509925 -2.153854,1.269232 -0.117515,0.01921 -0.237211,0.03663 -0.346155,0.07693 0.0043,-0.04216 0.03847,-0.07207 0.03847,-0.115389 0,-0.679736 -0.5510357,-1.23077 -1.2307735,-1.23077 0,-0.230547 -0.082,-0.430927 -0.1923094,-0.615384 0.1103091,-0.184458 0.1923094,-0.384838 0.1923094,-0.615385 0,-0.679735 -0.5510364,-1.230769 -1.2307744,-1.230769 -0.1266179,0 -0.231199,0.04142 -0.3461559,0.07693 -0.085666,-0.04524 -0.1656127,-0.07693 -0.2692318,-0.07693 z M 22.999596,18.076437 c -0.33987,0 -0.615387,0.275518 -0.615387,0.615384 0,0.339868 0.275517,0.615384 0.615387,0.615384 0.339867,0 0.615386,-0.275516 0.615386,-0.615384 0,-0.339866 -0.275519,-0.615384 -0.615386,-0.615384 z"
         style="fill:white;fill-opacity:1;stroke:none" />
      <path
         transform="matrix(1.0000038,0,0,1,-1.0004943,0.99951548)"
         sodipodi:end="3.1415927"
         sodipodi:start="0"
         d="m 15,17 c 0,0.552285 -0.895431,1 -2,1 -1.104569,0 -2,-0.447715 -2,-1 0,0 0,0 0,0 l 2,0 z"
         sodipodi:ry="1"
         sodipodi:rx="2"
         sodipodi:cy="17"
         sodipodi:cx="13"
         id="path3046"
         style="fill:black;fill-opacity:1;stroke:none"
         sodipodi:type="arc" />
      <path
         transform="matrix(1.0000038,0,0,1,4.9995283,0.99951548)"
         sodipodi:type="arc"
         style="fill:black;fill-opacity:1;stroke:none"
         id="path3048"
         sodipodi:cx="13"
         sodipodi:cy="17"
         sodipodi:rx="2"
         sodipodi:ry="1"
         d="m 15,17 c 0,0.552285 -0.895431,1 -2,1 -1.104569,0 -2,-0.447715 -2,-1 0,0 0,0 0,0 l 2,0 z"
         sodipodi:start="0"
         sodipodi:end="3.1415927" />
      <path
         inkscape:connector-curvature="0"
         id="path3865"
         d="m 7.9995396,12.999514 c -0.9375035,2.9375 -4.3980096,7.604874 -3.0000113,11 1.3979983,3.395126 5.7358907,5.959645 10.0000377,6 -4.000015,-1 -7.0000264,-3 -8.0000302,-7 -1.0000037,-4 2.0000075,-10 2.0000075,-10 l -1.0000037,0 z"
         style="fill:black;fill-opacity:0.25098039;stroke:none" />
      <path
         inkscape:connector-curvature="0"
         id="path3868"
         d="m 13.999562,3.9995155 -1.000004,1 1.000004,0 -1.000004,1 1.000004,0 0,1 1.000004,-1 1.000004,1 -1.000004,0 -1.000004,1 -1.000004,-2 -1.000003,-1 z"
         style="fill:black;fill-opacity:0.25098039;stroke:none" />
      <path
         sodipodi:nodetypes="ccccccccccccccccccccccccccccccccccccccccccc"
         inkscape:connector-curvature="0"
         id="path3870"
         d="m 5.9995321,12.999514 1.0000037,1 0,-1 1.0000038,0 1.0000037,-1 0,1 2.0000077,-1 1.000004,1 1.000003,-1 1.000004,1 2.000008,-1 1.000003,1 2.000008,-1 1.000004,1 1.000003,0 1.000004,1 0,-1 2.000008,-1 -1.000004,1 1.000004,2 -2.000008,-1 -1.000004,1 -1.000003,-1 -1.000004,1 -1.000004,-2 -1.000004,1 -1.000003,-1 0,1 -2.000008,-1 0,1 -1.000004,-1 -1.000003,2 -1.000004,-2 -1.0000039,2 0,-2 -1.0000038,1 0,-1 -1.0000037,0 -1.0000038,1 0,0 -1.0000037,1 -1.0000038,-2 z"
         style="fill:black;fill-opacity:0.25098039;stroke:none" />
      <path
         sodipodi:nodetypes="cccscscscscssccscsccscsccscsccsscscscsccccccsc"
         inkscape:connector-curvature="0"
         id="path3887"
         d="m 6.780785,19.249514 c -5.1875195,8.5 -2.5937598,4.25 0,0 z m -0.03125,0.09375 c -0.2208713,0.09342 -0.3750014,0.33885 -0.3750014,0.59375 0,0.103611 0.048519,0.16433 0.09375,0.25 -0.035508,0.114957 -0.09375,0.217132 -0.09375,0.34375 0,0.230547 0.077197,0.440543 0.1875007,0.625 -0.1103021,0.184457 -0.1875007,0.394452 -0.1875007,0.625 0,0.679737 0.570267,1.21875 1.2500047,1.21875 0,0.679735 0.5390171,1.21875 1.2187546,1.21875 0.043326,0 0.082821,-0.02688 0.1250004,-0.03125 -0.073794,0.199506 -0.1250004,0.431088 -0.1250004,0.65625 0,1.019603 0.8241501,1.84375 1.8437571,1.84375 0.305881,0 0.589724,-0.08707 0.843753,-0.21875 0.307054,0.137616 0.641733,0.21875 1.000004,0.21875 0,0.679734 0.570267,1.25 1.250004,1.25 0.400482,0 0.712747,-0.203821 0.937504,-0.5 0.41368,0.315163 0.939808,0.5 1.500005,0.5 0.928689,0 1.737074,-0.521945 2.156259,-1.28125 0.194665,-0.03184 0.393358,-0.09982 0.562502,-0.1875 0.307055,0.137616 0.641735,0.21875 1.000003,0.21875 1.295999,0 2.341153,-1.009928 2.43751,-2.28125 -0.456019,0.478686 -1.133872,0.78125 -1.906258,0.78125 -0.361867,0 -0.689863,-0.06709 -1.000003,-0.1875 -0.170843,0.07672 -0.365882,0.12839 -0.562502,0.15625 -0.423396,0.664392 -1.218243,1.125 -2.156259,1.125 -0.565825,0 -1.11342,-0.161732 -1.531255,-0.4375 -0.227015,0.259157 -0.564249,0.4375 -0.968754,0.4375 -0.686564,0 -1.250005,-0.498982 -1.250005,-1.09375 -0.361868,0 -0.689864,-0.06709 -1.000003,-0.1875 -0.25658,0.115224 -0.5348,0.1875 -0.843754,0.1875 -1.029847,0 -1.8750065,-0.701598 -1.8750065,-1.59375 0,-0.197017 0.05046,-0.419182 0.1250005,-0.59375 -0.0426,0.0038 -0.08124,0.0625 -0.1250005,0.0625 -0.6865649,0 -1.2500047,-0.498982 -1.2500047,-1.09375 -0.6865653,0 -1.2500047,-0.46773 -1.2500047,-1.0625 0,-0.201729 0.1073407,-0.4011 0.2187508,-0.5625 -0.1114124,-0.1614 -0.2187508,-0.329521 -0.2187508,-0.53125 0,-0.11079 0.057885,-0.211913 0.09375,-0.3125 -0.032295,-0.05299 -0.050349,-0.09918 -0.0625,-0.15625 -0.018961,0.0059 -0.044377,-0.0077 -0.0625,0 z m 16.843813,3.53125 c -0.188577,0.09987 -0.387798,0.187499 -0.625002,0.1875 0,0.431438 -0.154096,0.81933 -0.406252,1.15625 0.59078,-0.09027 1.062504,-0.602741 1.062504,-1.21875 0,-0.04314 -0.02692,-0.08301 -0.03125,-0.125 z"
         style="fill:black;fill-opacity:0.25098039;stroke:none" />
    </g>
  </g>
</svg>
