<?xml version="1.0" encoding="UTF-8" standalone="no"?>
<!-- Created with Inkscape (http://www.inkscape.org/) -->

<svg xmlns:dc="http://purl.org/dc/elements/1.1/" xmlns:cc="http://creativecommons.org/ns#" xmlns:rdf="http://www.w3.org/1999/02/22-rdf-syntax-ns#" xmlns:svg="http://www.w3.org/2000/svg" xmlns="http://www.w3.org/2000/svg" xmlns:sodipodi="http://sodipodi.sourceforge.net/DTD/sodipodi-0.dtd" xmlns:inkscape="http://www.inkscape.org/namespaces/inkscape" width="32px" height="32px" id="svg3505" sodipodi:version="0.32" inkscape:version="0.91 r13725" sodipodi:docname="00.svg" inkscape:output_extension="org.inkscape.output.svg.inkscape" version="1.1">
  <defs id="defs3507">
    <inkscape:perspective sodipodi:type="inkscape:persp3d" inkscape:vp_x="0 : 16 : 1" inkscape:vp_y="0 : 1000 : 0" inkscape:vp_z="32 : 16 : 1" inkscape:persp3d-origin="16 : 10.666667 : 1" id="perspective3513" />
    <inkscape:perspective id="perspective4690" inkscape:persp3d-origin="372.04724 : 350.78739 : 1" inkscape:vp_z="744.09448 : 526.18109 : 1" inkscape:vp_y="0 : 1000 : 0" inkscape:vp_x="0 : 526.18109 : 1" sodipodi:type="inkscape:persp3d" />
    <inkscape:perspective id="perspective2564" inkscape:persp3d-origin="372.04724 : 350.78739 : 1" inkscape:vp_z="744.09448 : 526.18109 : 1" inkscape:vp_y="0 : 1000 : 0" inkscape:vp_x="0 : 526.18109 : 1" sodipodi:type="inkscape:persp3d" />
  </defs>
  <sodipodi:namedview id="base" pagecolor="#ffffff" bordercolor="#666666" borderopacity="1.0" inkscape:pageopacity="0.0" inkscape:pageshadow="2" inkscape:zoom="22.125" inkscape:cx="16" inkscape:cy="16" inkscape:current-layer="layer1" showgrid="true" inkscape:grid-bbox="true" inkscape:document-units="px" objecttolerance="4" gridtolerance="4" guidetolerance="4" inkscape:window-width="1600" inkscape:window-height="878" inkscape:window-x="0" inkscape:window-y="0" inkscape:object-paths="true" inkscape:object-nodes="true" inkscape:snap-bbox="true" inkscape:snap-guide="true" showguides="true" inkscape:guide-bbox="true" inkscape:window-maximized="1">
    <inkscape:grid type="xygrid" id="grid3515" units="px" visible="true" enabled="true" spacingx="1px" spacingy="1px" empspacing="4" />
    <sodipodi:guide orientation="-0.70710678,0.70710678" position="33.245902,33.245902" id="guide3622" />
    <sodipodi:guide orientation="0.70710678,0.70710678" position="0,32" id="guide3624" />
  </sodipodi:namedview>
  <metadata id="metadata3510">
    <rdf:RDF>
      <cc:Work rdf:about="">
        <dc:format>image/svg+xml</dc:format>
        <dc:type rdf:resource="http://purl.org/dc/dcmitype/StillImage" />
        <dc:title>Vorlage f端r 32x32-Pixel-Icons f端r McMinos</dc:title>
        <dc:date>2010-04-05</dc:date>
        <dc:creator>
          <cc:Agent>
            <dc:title>Andreas Neudecker &lt;zapyon@gmx.net&gt;</dc:title>
          </cc:Agent>
        </dc:creator>
        <dc:rights>
          <cc:Agent>
            <dc:title>Copyright (C) 2010 by Andreas Neudecker</dc:title>
          </cc:Agent>
        </dc:rights>
        <dc:publisher>
          <cc:Agent>
            <dc:title>Andreas Neudecker</dc:title>
          </cc:Agent>
        </dc:publisher>
        <dc:identifier>vorlage-32x32-mcminos</dc:identifier>
        <dc:description>Vorlage f端r 32x32-Pixel-Icons f端r McMinos. Metadaten jeweils entsprechend anpassen!</dc:description>
      </cc:Work>
    </rdf:RDF>
  </metadata>
  <g id="layer1" inkscape:label="Layer 1" inkscape:groupmode="layer">
    <g id="g14628">
      <rect y="0" x="0" height="32" width="32" id="rect14626" style="opacity:1;fill:none;fill-opacity:0.50364966;fill-rule:nonzero;stroke:none;stroke-width:2;stroke-linecap:butt;stroke-linejoin:miter;stroke-miterlimit:4;stroke-dasharray:none;stroke-dashoffset:0;stroke-opacity:1" />
      <path id="path3635" d="M 0 3 L 0 5.3046875 A 9 9 0 0 1 6 3 L 0 3 z M 6 3 A 9 9 0 0 1 12.425781 5.7011719 A 12 12 0 0 1 12.541016 5.5996094 A 12 12 0 0 1 20 3 L 6 3 z M 20 3 A 12 12 0 0 1 29 7.078125 L 29 3 L 20 3 z M 0 18.693359 L 0 22.673828 A 4.5 4.5 0 0 1 3.5 21 A 4.5 4.5 0 0 1 8 25.5 A 4.5 4.5 0 0 1 8 25.509766 A 7.5 7.5 0 0 1 8.4472656 25.189453 A 7.5 7.5 0 0 1 12.09375 24.015625 A 12 12 0 0 1 9.2773438 20.380859 A 9 9 0 0 1 6 21 A 9 9 0 0 1 0 18.693359 z M 0 28.322266 L 0 29 L 0.67382812 29 A 4.5 4.5 0 0 1 0 28.322266 z M 5.2441406 29.642578 A 4.5 4.5 0 0 1 3.5 30 A 4.5 4.5 0 0 1 3 29.966797 L 3 32 L 5.0253906 32 A 7.5 7.5 0 0 1 5 31.5 A 7.5 7.5 0 0 1 5.2441406 29.642578 z M 29 29.867188 A 4 4 0 0 1 28 30 A 4 4 0 0 1 27.289062 29.931641 A 4 4 0 0 1 27.287109 29.931641 A 8 8 0 0 1 24.859375 32 L 29 32 L 29 29.867188 z " style="fill:black;fill-opacity:1;fill-rule:nonzero;stroke:none;stroke-width:2;stroke-linecap:round;stroke-linejoin:miter;stroke-miterlimit:4;stroke-dashoffset:0;stroke-opacity:1" />
      <path id="path2570" d="M 0 4 L 0 5.3046875 A 9 9 0 0 1 1.8964844 4 L 0 4 z M 10.105469 4 A 9 9 0 0 1 12.425781 5.7011719 A 12 12 0 0 1 12.541016 5.5996094 A 12 12 0 0 1 15.216797 4 L 10.105469 4 z M 24.759766 4 A 12 12 0 0 1 28 6.0742188 L 28 4 L 24.759766 4 z M 27.287109 29.931641 A 8 8 0 0 1 24.859375 32 L 28 32 L 28 30 A 4 4 0 0 1 27.289062 29.931641 A 4 4 0 0 1 27.287109 29.931641 z " style="fill:aqua;fill-opacity:1;fill-rule:nonzero;stroke:none;stroke-width:2;stroke-linecap:round;stroke-linejoin:miter;stroke-miterlimit:4;stroke-dasharray:none;stroke-dashoffset:0;stroke-opacity:1" />
      <path id="path3342" d="M 0 18.693359 L 0 22.673828 A 4.5 4.5 0 0 1 3.5 21 A 4.5 4.5 0 0 1 8 25.5 A 4.5 4.5 0 0 1 8 25.509766 A 7.5 7.5 0 0 1 8.4472656 25.189453 A 7.5 7.5 0 0 1 12.09375 24.015625 A 12 12 0 0 1 9.2773438 20.380859 A 9 9 0 0 1 6 21 A 9 9 0 0 1 0 18.693359 z M 5.2441406 29.642578 A 4.5 4.5 0 0 1 4 29.96875 L 4 32 L 5.0253906 32 A 7.5 7.5 0 0 1 5 31.5 A 7.5 7.5 0 0 1 5.2441406 29.642578 z " style="fill:blue;fill-opacity:1;fill-rule:nonzero;stroke:none;stroke-width:2;stroke-linecap:round;stroke-linejoin:miter;stroke-miterlimit:4;stroke-dasharray:none;stroke-dashoffset:0;stroke-opacity:1" />
      <path id="path3626" d="M 0 5 L 0 5.3046875 A 9 9 0 0 1 0.35546875 5 L 0 5 z M 11.644531 5 A 9 9 0 0 1 12.425781 5.7011719 A 12 12 0 0 1 12.541016 5.5996094 A 12 12 0 0 1 13.380859 5 L 11.644531 5 z M 26.621094 5 A 12 12 0 0 1 27.03125 5.2929688 L 27.03125 5 L 26.621094 5 z M 27.001953 30.259766 A 8 8 0 0 1 26 31.224609 L 26 32 L 27 32 L 27.001953 30.259766 z M 25 31.914062 A 8 8 0 0 1 24.859375 32 L 25 32 L 25 31.914062 z " style="fill:#c3c3c3;fill-opacity:1;fill-rule:nonzero;stroke:none;stroke-width:2;stroke-linecap:round;stroke-linejoin:miter;stroke-miterlimit:4;stroke-dasharray:none;stroke-dashoffset:0;stroke-opacity:1" />
      <path id="path3368" d="M 0 18.693359 L 0 19 L 0.34765625 19 A 9 9 0 0 1 0 18.693359 z M 0 20 L 0 21 L 3.5 21 L 6 21 A 9 9 0 0 1 1.8808594 20 L 0 20 z M 6 21 L 9.6289062 21 A 12 12 0 0 1 9.2773438 20.380859 A 9 9 0 0 1 6 21 z M 0 22 L 0 22.673828 A 4.5 4.5 0 0 1 0.67773438 22 L 0 22 z M 6.3261719 22 A 4.5 4.5 0 0 1 7.2402344 23 L 9 23 L 9 24.876953 A 7.5 7.5 0 0 1 10 24.4375 L 10 22 L 6.3261719 22 z M 11.025391 22.933594 L 11.021484 24.160156 A 7.5 7.5 0 0 1 12.021484 24.023438 L 12.021484 23.945312 A 12 12 0 0 1 11.025391 22.933594 z M 7.7363281 24 A 4.5 4.5 0 0 1 8 25.5 A 4.5 4.5 0 0 1 8 25.509766 A 7.5 7.5 0 0 1 8.0253906 25.492188 L 8.03125 24 L 7.7363281 24 z M 5.2441406 29.642578 A 4.5 4.5 0 0 1 5.0136719 29.726562 L 5.0039062 31.373047 A 7.5 7.5 0 0 1 5.2441406 29.642578 z M 5.0019531 31.556641 L 5 32 L 5.0253906 32 A 7.5 7.5 0 0 1 5.0019531 31.556641 z " style="fill:#6b6b6b;fill-opacity:1;fill-rule:nonzero;stroke:none;stroke-width:2;stroke-linecap:round;stroke-linejoin:miter;stroke-miterlimit:4;stroke-dasharray:none;stroke-dashoffset:0;stroke-opacity:1" />
    </g>
    <g id="g5562">
      <rect y="0" x="36" height="32" width="32" id="rect5558" style="opacity:1;fill:blue;fill-opacity:0.50196078;fill-rule:nonzero;stroke:none;stroke-width:2;stroke-linecap:butt;stroke-linejoin:miter;stroke-miterlimit:4;stroke-dasharray:none;stroke-dashoffset:0;stroke-opacity:1" />
      <rect style="opacity:1;fill:blue;fill-opacity:0.50196078;fill-rule:nonzero;stroke:none;stroke-width:2;stroke-linecap:butt;stroke-linejoin:miter;stroke-miterlimit:4;stroke-dasharray:none;stroke-dashoffset:0;stroke-opacity:1" id="rect5560" width="26" height="26" x="39" y="3" />
    </g>
    <g id="g5575">
      <path inkscape:connector-curvature="0" id="rect5566" d="m 39,0 0,3 26,0 0,-3 -26,0 z m 26,3 0,26 3,0 0,-26 -3,0 z m 0,26 -26,0 0,3 26,0 0,-3 z m -26,0 0,-26 -3,0 0,26 3,0 z" style="opacity:1;fill:yellow;fill-opacity:0.50196078;fill-rule:nonzero;stroke:none;stroke-width:2;stroke-linecap:butt;stroke-linejoin:miter;stroke-miterlimit:4;stroke-dasharray:none;stroke-dashoffset:0;stroke-opacity:1" />
    </g>
    <circle style="opacity:1;fill:red;fill-opacity:0.50196078;fill-rule:nonzero;stroke:none;stroke-width:2;stroke-linecap:butt;stroke-linejoin:miter;stroke-miterlimit:4;stroke-dasharray:none;stroke-dashoffset:0;stroke-opacity:1" id="path4749" cx="25.000002" cy="-57" r="8" transform="matrix(0,1,-1,0,0,0)" />
    <circle style="opacity:1;fill:red;fill-opacity:0.50196078;fill-rule:nonzero;stroke:none;stroke-width:2;stroke-linecap:butt;stroke-linejoin:miter;stroke-miterlimit:4;stroke-dasharray:none;stroke-dashoffset:0;stroke-opacity:1" id="path4751" cx="15" cy="-56" r="12" transform="matrix(0,1,-1,0,0,0)" />
    <circle id="circle4753" style="opacity:1;fill:red;fill-opacity:0.50196078;fill-rule:nonzero;stroke:none;stroke-width:2;stroke-linecap:butt;stroke-linejoin:miter;stroke-miterlimit:4;stroke-dasharray:none;stroke-dashoffset:0;stroke-opacity:1" transform="matrix(0,1,-1,0,0,0)" r="9" cy="-42" cx="12.000001" />
    <circle r="4" cy="-64" cx="26" id="circle4759" style="opacity:1;fill:red;fill-opacity:0.50196078;fill-rule:nonzero;stroke:none;stroke-width:2;stroke-linecap:butt;stroke-linejoin:miter;stroke-miterlimit:4;stroke-dasharray:none;stroke-dashoffset:0;stroke-opacity:1" transform="matrix(0,1,-1,0,0,0)" />
    <circle style="opacity:1;fill:red;fill-opacity:0.50196078;fill-rule:nonzero;stroke:none;stroke-width:2;stroke-linecap:butt;stroke-linejoin:miter;stroke-miterlimit:4;stroke-dasharray:none;stroke-dashoffset:0;stroke-opacity:1" id="circle4761" cx="25.5" cy="-39.5" r="4.5" transform="matrix(0,1,-1,0,0,0)" />
    <circle style="opacity:1;fill:red;fill-opacity:0.50196078;fill-rule:nonzero;stroke:none;stroke-width:2;stroke-linecap:butt;stroke-linejoin:miter;stroke-miterlimit:4;stroke-dasharray:none;stroke-dashoffset:0;stroke-opacity:1" id="circle4765" cx="11.000001" cy="-43" r="4" transform="matrix(0,1,-1,0,0,0)" />
    <circle style="opacity:1;fill:red;fill-opacity:0.50196078;fill-rule:nonzero;stroke:none;stroke-width:2;stroke-linecap:butt;stroke-linejoin:miter;stroke-miterlimit:4;stroke-dasharray:none;stroke-dashoffset:0;stroke-opacity:1" id="circle4769" cx="9.0000029" cy="-55" r="4" transform="matrix(0,1,-1,0,0,0)" />
    <circle style="opacity:1;fill:red;fill-opacity:0.50196078;fill-rule:nonzero;stroke:none;stroke-width:2;stroke-linecap:butt;stroke-linejoin:miter;stroke-miterlimit:4;stroke-dasharray:none;stroke-dashoffset:0;stroke-opacity:1" id="circle4771" cx="31.500002" cy="-48.5" r="7.5" transform="matrix(0,1,-1,0,0,0)" />
    <circle transform="matrix(0,1,-1,0,0,0)" r="8" cy="-57" cx="25.000002" id="circle14553" style="opacity:1;fill:red;fill-opacity:0.50196078;fill-rule:nonzero;stroke:none;stroke-width:2;stroke-linecap:butt;stroke-linejoin:miter;stroke-miterlimit:4;stroke-dasharray:none;stroke-dashoffset:0;stroke-opacity:1" />
    <circle transform="matrix(0,1,-1,0,0,0)" r="12" cy="-56" cx="15" id="circle14555" style="opacity:1;fill:red;fill-opacity:0.50196078;fill-rule:nonzero;stroke:none;stroke-width:2;stroke-linecap:butt;stroke-linejoin:miter;stroke-miterlimit:4;stroke-dasharray:none;stroke-dashoffset:0;stroke-opacity:1" />
    <path cx="12.000001" cy="-42" r="9" transform="matrix(0,1,-1,0,0,0)" style="opacity:1;fill:red;fill-opacity:0.50196078;fill-rule:nonzero;stroke:none;stroke-width:2;stroke-linecap:butt;stroke-linejoin:miter;stroke-miterlimit:4;stroke-dasharray:none;stroke-dashoffset:0;stroke-opacity:1" id="path14557" />
    <circle transform="matrix(0,1,-1,0,0,0)" style="opacity:1;fill:red;fill-opacity:0.50196078;fill-rule:nonzero;stroke:none;stroke-width:2;stroke-linecap:butt;stroke-linejoin:miter;stroke-miterlimit:4;stroke-dasharray:none;stroke-dashoffset:0;stroke-opacity:1" id="circle14559" cx="26" cy="-64" r="4" />
    <circle transform="matrix(0,1,-1,0,0,0)" r="4.5" cy="-39.5" cx="25.5" id="circle14561" style="opacity:1;fill:red;fill-opacity:0.50196078;fill-rule:nonzero;stroke:none;stroke-width:2;stroke-linecap:butt;stroke-linejoin:miter;stroke-miterlimit:4;stroke-dasharray:none;stroke-dashoffset:0;stroke-opacity:1" />
    <circle transform="matrix(0,1,-1,0,0,0)" r="4" cy="-43" cx="11.000001" id="circle14563" style="opacity:1;fill:red;fill-opacity:0.50196078;fill-rule:nonzero;stroke:none;stroke-width:2;stroke-linecap:butt;stroke-linejoin:miter;stroke-miterlimit:4;stroke-dasharray:none;stroke-dashoffset:0;stroke-opacity:1" />
    <circle transform="matrix(0,1,-1,0,0,0)" r="4" cy="-55" cx="9.0000029" id="circle14565" style="opacity:1;fill:red;fill-opacity:0.50196078;fill-rule:nonzero;stroke:none;stroke-width:2;stroke-linecap:butt;stroke-linejoin:miter;stroke-miterlimit:4;stroke-dasharray:none;stroke-dashoffset:0;stroke-opacity:1" />
    <circle transform="matrix(0,1,-1,0,0,0)" r="7.5" cy="-48.5" cx="31.500002" id="circle14567" style="opacity:1;fill:red;fill-opacity:0.50196078;fill-rule:nonzero;stroke:none;stroke-width:2;stroke-linecap:butt;stroke-linejoin:miter;stroke-miterlimit:4;stroke-dasharray:none;stroke-dashoffset:0;stroke-opacity:1" />
    <path inkscape:connector-curvature="0" id="path14600" d="m -30,3 a 9,9 0 0 0 -9,9 9,9 0 0 0 9,9 9,9 0 0 0 3.277344,-0.619141 12,12 0 0 0 2.816406,3.634766 7.5,7.5 0 0 0 -3.646484,1.173828 A 7.5,7.5 0 0 0 -28,25.509766 4.5,4.5 0 0 0 -28,25.5 4.5,4.5 0 0 0 -32.5,21 4.5,4.5 0 0 0 -37,25.5 4.5,4.5 0 0 0 -32.5,30 4.5,4.5 0 0 0 -30.755859,29.642578 7.5,7.5 0 0 0 -31,31.5 7.5,7.5 0 0 0 -23.5,39 7.5,7.5 0 0 0 -16.138672,32.908203 8,8 0 0 0 -15,33 a 8,8 0 0 0 6.287109,-3.068359 4,4 0 0 1 0.002,0 A 4,4 0 0 0 -8,30 4,4 0 0 0 -4,26 4,4 0 0 0 -4.009766,25.716797 4,4 0 0 0 -6.492188,22.296875 12,12 0 0 0 -4,15 12,12 0 0 0 -16,3 12,12 0 0 0 -23.458984,5.5996094 12,12 0 0 0 -23.574219,5.7011719 9,9 0 0 0 -30,3 Z" style="opacity:1;fill:red;fill-opacity:0.50196078;fill-rule:nonzero;stroke:none;stroke-width:2;stroke-linecap:butt;stroke-linejoin:miter;stroke-miterlimit:4;stroke-dasharray:none;stroke-dashoffset:0;stroke-opacity:1" />
  </g>
</svg>
