<?xml version="1.0" encoding="UTF-8" standalone="no"?>
<svg xmlns:rdf="http://www.w3.org/1999/02/22-rdf-syntax-ns#" xmlns="http://www.w3.org/2000/svg" height="224" width="224" version="1.1" xmlns:cc="http://creativecommons.org/ns#" xmlns:dc="http://purl.org/dc/elements/1.1/">
 <rect height="224" width="224" y=".0000078320" x="8.9713e-15" fill="navy"/>
 <path fill-opacity=".25098" fill="#005fbe" d="m22.4 33.6c2.3355-2.3325 6.6628-3.1022 9.0419-0.96473s1.0413 4.7041 0.36052 7.9339c-0.68088 3.2297 5.0471 3.1528 4.7753 0.19548-0.27178-2.9574 0.65322-5.3997 3.6684-5.5638 3.0152-0.16414 4.5924 2.03 5.3628 4.9914 0.77041 2.9615-3.2688 5.3469-6.3415 6.1534s-0.70356 6.0237 1.5893 4.047c2.2929-1.9766 2.706-5.8494 6.2668-5.576 3.5609 0.27348 4.3272 4.2893 3.8938 7.391s-3.9533 3.7319-6.6151 2.5766-4.8857 2.3213-2.1289 4.5124 4.7286-0.46069 6.9647-2.2402c2.236-1.7796 5.9595 0.16835 6.4189 3.1067 0.45938 2.9384-1.2641 5.6932-4.7633 6.4102-3.499 0.71707-2.3858 4.7778-1.3917 7.8963 0.99416 3.1185-2.2772 6.7113-5.7866 7.3091-3.5095 0.59779-5.6653-1.778-5.6942-5.3537-0.02905-3.5757 4.9595-6.6486 4.4084-10.398-0.55103-3.7498-3.8782-1.7279-4.3859 1.1056-0.5077 2.8334-4.8297 5.1282-7.6539 3.5616-2.8241-1.5666-4.7194-4.4906-2.7222-7.2063 1.9975-2.7155 7.1207-1.6275 9.0137-4.4751 1.893-2.8475-1.9063-6.0517-4.2039-3.8636s-3.8905 4.8011-7.4232 4.6944c-3.5327-0.10662-6.024-3.0164-6.1393-6.3612s1.8998-6.3154 4.9551-6.2146c3.0553 0.10072 5.1872 5.4551 7.8103 2.8411s-2.2776-3.875-5.637-4.9506-7.2558-7.9501-3.9565-11.245l0.31267-0.31282zm32.725 39.601c2.3809-1.6479 6.8073 0.23159 8.0525 3.4186s-0.37384 6.3015-3.6253 7.3146c-3.2514 1.0132-5.8262-2.7214-6.6221-5.1006-0.79595-2.3791-0.1861-3.9847 2.1949-5.6326z"/>
 <path d="m44.8 171.59c-6.3837-6.5579-10.044 0.98686-12.072 12.072-2.0285 11.085-23.415 0.91203-24.819-9.3044-1.4043-10.216-4.6128-17.71 3.161-23.529 7.7738-5.8185 19.257-1.0724 27.238 4.2192 7.9809 5.2915 17.854-5.5822 16.242-13.696-1.6123-8.1135-8.9042-10.696-15.134-8.7916-6.2295 1.9048-11.079 9.3461-18.261 1.287-7.1818-8.059-2.0411-26.185 9.4734-29.157 11.514-2.9721 18.099 6.5779 18.002 16.409-0.09691 9.8308 16.41 9.4724 19.555 2.0555 3.1459-7.4169 2.505-13.041-1.4161-18.379-3.9212-5.3387-11.624-7.8548-8.8877-17.296 2.7363-9.4417 19.402-17.881 27.162-11.499 7.76 6.3826 2.0468 12.784-2.9075 17.785-4.9543 5.0004-9.0582 14.488-4.507 21.552 4.5513 7.0645 12.456 5.1048 18.2-0.12236 5.7435-5.2271 7.8666-16.049 5.1607-23.575-2.706-7.5267 0.3492-16.448 9.6291-17.209 9.2799-0.76124 21.66 4.7616 23.573 15.319 1.9131 10.557-4.4765 22.297-13.67 24.9-9.1933 2.6033-20.782 10.469-15.763 18.889 5.0194 8.4197 11.799 8.3593 19.1 3.265 7.3014-5.0943 8.5335-16.281 14.5-23.888 5.9668-7.6072 19.871-4.495 24.398 4.4332 4.5267 8.9282 0.89605 19.871-3.3162 27.776-4.2122 7.9053-9.6664 15.059-18.848 13.91-9.1818-1.1489-15.676-13.197-25.332-8.8271-9.6561 4.37-0.23055 15.717 7.8254 17.113 8.0559 1.3961 19.23 1.4288 22.252 11.083 3.0219 9.6539-5.9 21.542-14.085 25.411-8.1851 3.8687-17.38 4.9511-23.041-3.0491-5.6602-8.0002 2.11-15.776 2.6789-24.396 0.56891-8.6198-4.3712-15.757-9.1209-24.624-4.7497-8.8668-22.439 1.6564-13.525 8.1084 8.9139 6.452 16.519 10.361 13.037 20.815-3.4819 10.454-20.504 15.845-27.109 7.2253-6.6047-8.6202-1.2087-18.4 1.0338-26.114 2.2425-7.7142-3.4205-17.104-11.159-10.952-7.739 6.1518-9.0909 12.435-7.1755 20.781 1.9154 8.3457 8.3997 21.605 9.219 29.857 0.81927 8.2515-9.5659 13.144-16.398 10.041-6.832-3.1026-13.266-9.7957-9.9336-17.296 3.3326-7.4999 5.9322-12.122 5.0403-22.603z" fill-opacity=".25098" fill="#00a080"/>
 <path d="m117.78 187.26c-2.8608-0.76993-3.2286 2.7922-6.5077 4.1049-3.1612 1.2655-5.9552 0.94444-6.2296-0.92988-0.27448-1.8743 0.98742-2.964 2.7065-2.892s4.1548 1.2143 5.4212-1.0783 0.0505-6.7097-1.8214-8.5849c-1.8718-1.8751-5.3226-1.208-6.2316 0.70196-0.90896 1.9099-0.81439 2.9921-0.06 4.579 0.7544 1.5869-0.76706 4.4329-2.4486 3.1216-1.6815-1.3112-0.65861-2.8316-0.99785-5.2638-0.33923-2.4322-5.117-4.5281-7.2738-3.1882s-3.2836 2.9794-2.0673 4.8325c1.2162 1.8531 4.1045 1.5212 6.4973 1.8986 2.3927 0.37744 2.0387 4.6382-0.40911 4.1348-2.4478-0.5033-3.0497-2.014-4.9581-3.0696-1.9084-1.0555-5.5961-1.4592-6.8209 0.57701-1.2248 2.0361-0.6116 5.442 2.1543 6.4209 2.7659 0.97888 7.1448-0.61852 9.2045-1.9681 2.0596-1.3497 4.1922-0.54355 4.7372 1.3158 0.54491 1.8594-1.3741 2.7664-3.2099 2.7825s-3.4493-1.3861-6.0872-1.2949c-2.6379 0.0911-4.4779 4.5424-2.5954 6.8865 1.8825 2.3442 5.066 3.3341 7.7193 2.2744 2.6533-1.0596 3.1922-4.6521 4.5519-6.652s4.296-0.85428 4.1659 1.527-3.756 3.6685-3.1022 6.5205c0.65383 2.852 3.9148 5.3546 7.0492 4.7375 3.1344-0.61712 4.1143-3.8626 2.6894-5.9681-1.4248-2.1055-2.9986-4.0267-3.3967-6.1366-0.39807-2.11 1.7398-2.8186 3.1748-1.4404 1.435 1.3781 1.1128 3.3946 2.9234 5.8532 1.8106 2.4587 6.554 3.2708 9.5924 1.7277 3.0384-1.5429 3.7833-5.2539 2.5858-8.0285-1.1974-2.7746-4.8466-4.3353-7.0623-1.8087-2.2157 2.5265-1.1606-4.9573-3.8933-5.6927z" fill-opacity=".25098" fill="#005fbe"/>
 <path d="m156.8 89.6c1.4624-4.9775-4.2481-9.0472-8.6647-6.9681-3.844 2.409 0.26684 12.874-7.3577 10.04-3.9737-3.2177-0.51892-7.9167 2.296-10.439 3.5231-4.6543-2.0045-11.71-7.3952-8.6596-5.4312 2.5042-1.1531 7.5857 2.3609 9.282 2.3468 5.5531-6.867 3.9026-5.3236-1.1228-0.62235-5.8258-11.295-5.3033-10.903 0.81181-1.1148 4.1369 4.1542 8.3913 7.6959 5.4983 5.8699-3.1953 8.8058 7.4371 1.2228 4.4047-4.1275-3.1273-12.174-3.8464-12.831 2.8098-0.61212 6.0951 7.5966 6.3956 9.3699 1.1301 5.2075-3.6028 3.4468 3.5535 0.0421 4.7005-3.9315 3.7241 2.3857 7.9525 6.0688 8.0987 6.4454-0.84966 2.2488-7.063 0.22317-10.013-2.3883-5.8265 9.0714-6.9979 6.6899-0.87918-4.9859 1.5293-3.0737 7.6477 1.7715 6.9618 5.5884 4.5658-2.8657 6.8692-6.6808 6.0052-5.6426 3.2959 3.353 6.2873 5.9982 2.3747 4.7858-4.6336 8.2683 5.2096 2.0511 5.7968-3.9306 1.7953-10.284 1.6395-11.585-3.3894-1.0089-4.7429-6.8302-5.2861-10.128-2.5712-5.7878 3.5303 0.95333 11.823 5.4591 6.4118 5.5214-2.0038 6.3948 3.7841 1.7842 5.8152-3.7004 5.2066 5.2376 9.8326 7.7974 4.3244 0.76802-3.0411-0.74651-9.0191 4.793-7.1329 3.4949 2.0011 2.7179 9.0504 8.6777 7.8549 5.6645 0.24885 5.5848-8.1067 1.2664-9.9959-4.054 1.0092-6.564-4.4562-1.8142-5.4607 4.1688-0.51953 7.7765 7.2651 11.4 1.9244 2.8858-3.9986 0.3525-12.522-5.4452-11.27-4.0176 0.67322-7.2531 10.544-10.029 3.1558-1.5258-5.107 4.9222-5.4318 8.3389-5.2063 5.985 0.79685 5.846-8.1781-0.0606-6.9374-2.9814-0.66815-9.5352 6.367-9.0166-0.38541 4.6849-3.4246 9.6261-0.76589 11.928-6.9691z" fill-opacity=".25098" fill="#005fbe"/>
 <path d="m120.42 103.92c0.39331-2.8563-1.7966-6.0666-4.293-7.509-2.1809-1.2601-5.4016-1.2777-7.5563 0.0266-2.1571 1.3058-3.6579 4.1719-3.5309 6.6903 0.0627 1.2429 1.2121 2.2044 2.0659 3.1098 0.90198 0.95641 2.8142 1.1004 3.1517 2.371 0.35041 1.3193-0.36847 3.2152-1.6195 3.7612-1.3229 0.57729-2.8441-0.70427-4.0805-1.449-1.26-0.75887-1.9973-2.2135-3.2495-2.9852-1.2936-0.79723-2.7495-1.4876-4.264-1.6124-1.4054-0.11571-3.0076 0.00007-4.1486 0.82887-1.1014 0.80003-1.8294 2.2105-1.9992 3.5612-0.16895 1.3435 0.20041 2.8696 1.0495 3.9243 0.99088 1.2308 2.6411 2.0062 4.2123 2.1741 1.9025 0.20335 3.6545-1.1812 5.5419-1.4953 1.627-0.27076 3.2978-0.1477 4.9373-0.32788 1.5282-0.16786 3.228-1.4709 4.5586-0.70084 0.44301 0.25641 0.67426 0.93471 0.55386 1.4322-0.37008 1.5292-2.0898 2.4963-3.5269 3.1366-1.8364 0.81802-4.6926-0.86296-5.9938 0.66955-0.8855 1.0429-0.34899 2.851 0.21184 4.0988 0.58572 1.3033 1.8419 2.2517 3.0543 3.0077 1.4962 0.93289 3.2351 1.9055 4.9916 1.751 1.7539-0.15428 3.702-1.0789 4.6024-2.5919 0.95961-1.6124-0.4176-3.8216 0.089-5.6282 0.39389-1.4047 0.80337-3.4103 2.2162-3.7741 1.4908-0.38388 2.8464 1.3064 3.9711 2.3576 1.2624 1.1798 1.6292 3.1443 2.9412 4.2687 1.2466 1.0683 2.8011 1.9886 4.4359 2.1407 1.55 0.14427 3.2289-0.33215 4.5084-1.2189 1.3667-0.94724 2.4729-2.4476 2.9098-4.0521 0.43831-1.6097 0.23793-3.4667-0.45518-4.9842-0.57688-1.2631-1.694-2.2928-2.8873-3.0028-1.5785-0.93898-3.4777-1.5331-5.313-1.4606-1.5259 0.0602-2.8466 1.1153-4.3077 1.5592-3.6585 1.6275-8.9412 2.2928-10.083-0.882-1.1567-3.2162 6.8394-3.8089 7.3057-7.1948z" fill-opacity=".25098" fill="#00c062"/>
 <path fill-opacity=".25098" fill="#005fbe" d="m123.2 174.26c1.6418-1.733 5.1855-0.57616 6.8791 1.5833s1.6456 5.8698 4.8672 6.1762c3.2216 0.30632 1.4678-3.544-0.5951-4.7436-2.0629-1.1995-3.1058-4.9716-1.2648-7.222s4.3003-0.29603 6.3415 1.9755c2.0412 2.2714 2.7882 7.5727 5.2925 9.5267 2.5042 1.954 6.0563 1.5331 7.2581-0.32655 1.2017-1.8597 0.6324-1.6267-1.1937-2.5994-1.8261-0.97278-6.5735-0.28707-7.833-3.3668s-0.45081-6.7329 2.5641-7.7806 5.9608 0.79157 6.7498 3.663c0.78909 2.8715 5.7534 2.1022 4.2409-0.80955-1.5125-2.9119-3.4222-4.2902-3.256-7.5439 0.16625-3.2536 4.1498-3.3498 6.7532-1.9806 2.6033 1.3691 3.9586 5.4442 3.8817 8.2453-0.0768 2.801 2.4774 3.054 3.0567 0.55076 0.57932-2.5033 1.2808-6.7774 4.4486-5.7182s4.9546 4.3177 5.4791 7.3701c0.52445 3.0523-1.2545 5.8298-3.9456 6.6368-2.6911 0.80696-3.7586-0.27125-6.127 0.13692s-4.9392 0.1148-7.0711 1.5334 0.38874 5.4024 3.1206 5.1559c2.7319-0.24647 4.411-0.95039 6.7759-2.2496 2.365-1.2992 7.1325-0.97524 8.5005 1.6687 1.368 2.644 1.5947 5.2763-1.0117 7.0394-2.6064 1.7632-6.597-0.32312-9.5468-1.426s-2.9151 3.8236-0.52482 5.2805 3.5873 5.4764 1.7602 8.2085-5.357 1.6136-7.0793-0.68047-1.9209-5.3106-2.3694-8.3234c-0.44853-3.0128-2.8669-5.5516-6.1957-6.6126-3.3288-1.0609-3.7941 3.5737-1.3722 5.427 2.4218 1.8533 3.0089 5.8804 1.3574 8.8955-1.6515 3.015-5.3241 3.7261-8.6875 2.0227s-4.0384-7.5106-2.718-10.422 3.7116-4.7176 1.4357-6.9678c-2.2759-2.2504-5.467-0.33488-5.9655 2.3551-0.49852 2.6901 1.2605 5.4469 1.0275 8.5894-0.23302 3.1424-3.5272 3.7698-6.1942 4.1402-2.667 0.3703-5.4491-1.4896-6.5592-3.6217-1.1102-2.1321-2.3736-5.0989-0.852-6.9095s4.214 0 7.1071-0.67438c2.8931-0.67634-0.35284-4.5599-2.7554-3.0808-2.4026 1.4792-5.7927 1.5757-7.3254-0.9155s-1.6681-6.5736-1.1711-8.6317c0.497-2.058 1.0755-1.8413 2.7173-3.5743z"/>
 <path fill-opacity=".25098" fill="#005fbe" d="m56 56c-1.4074-2.0866-2.0546-7.1926 0.2744-9.0605 2.329-1.8678 4.3123-0.25074 6.3451 0.8813 2.0329 1.132 3.182-0.56371 3.3069-2.792 0.1249-2.2282 3.3442-1.9788 4.7595-3.2304 1.4152-1.2515 2.552-3.6056 0.4642-4.4391-2.0877-0.8337-4.0564 0.89908-5.3092 2.2072-1.2527 1.3081-1.0494 2.1612-2.989 4.0736s-7.9991-0.43575-8.3863-3.3916c-0.38724-2.9558 0.70793-4.2545 3.144-4.9976 2.4361-0.74305 6.1041 1.2618 8.1834-0.27825 2.0792-1.5399-1.1207-3.2614-1.997-4.7995-0.8764-1.538-0.15815-3.4406 0.82628-5.0181 0.98438-1.5775 2.929-2.588 5.2549-1.5902 2.3259 0.99785 2.9668-2.3837 2.7056-4.2612-0.26129-1.8775 0.89795-4.3432 3.0354-4.3786 2.1375-0.0357 3.7784 1.0305 4.4703 3.085 0.69183 2.0545 0.89097 4.9629-0.37283 6.5587-1.2638 1.5957-2.2874 3.0009-4.2236 2.9509-1.9363-0.0497-4.3915 2.7252-3.1457 4.5626s3.6888 0.58233 3.9934-1.254 0.87237-4.0206 3.3353-3.9175c2.463 0.10318 4.6214-2.5428 4.8928-5.2223 0.27145-2.6795 4.1468-2.7999 5.6907-0.26215 1.5439 2.5377 2.557 7.4628 0.74638 10.113-1.8106 2.6506-5.6617 1.3228-7.5405 0.33957-1.8788-0.98315-3.7851-0.57666-4.0574 1.3703-0.27237 1.9469 0.77622 3.06 2.8112 3.9271 2.0351 0.86695 6.1002 0.49399 7.5855 2.8363s0.89752 4.7787-0.25395 7.036c-1.1515 2.2574-4.6195 4.7088-7.244 3.5579-2.6244-1.1508-2.5274-5.0231-2.1629-6.6248 0.36452-1.6015-1.1059-4.9467-1.4585-2.9889-0.35264 1.9577-1.888 3.3898-4.2029 3.063-2.315-0.32683-2.2366 3.1384 0.10675 3.4035 2.3434 0.26516 4.1692 1.8775 4.0687 4.8406-0.10065 2.9632-4.2472 6.9678-7.114 5.694-2.8668-1.2739-1.5709-5.4222-3.8422-5.5197-2.2713-0.09744-1.8571 2.8368-2.2025 4.856-0.34541 2.0193-3.2844 3.2257-5.1567 2.34-1.871-0.886-2.933-1.584-4.34-3.671z"/>
 <path fill-opacity=".25098" fill="#00c062" d="m214.94 4.4625c-0.11688 0.06531 0.38583 0.65258-1.0938 1.0938-2.3673 0.70588-4.0253 5.8809-2.6031 9.1656s9.1456 6.5437 4.4406 7.7875-7.6356-4.7901-11.9-5.1406c-4.2644-0.35049-7.0954 6.0264-2.8875 7.9188 4.2079 1.8923 11.093 0.14336 14.241 3.9375 3.1476 3.7942-5.1672 3.2153-8.7938 1.4656-3.6265-1.7497-10.093 2.9649-7.4375 7.2188 2.6556 4.2538 7.316 1.1101 11.375 0 4.059-1.1112 7.2302 4.375 2.0562 4.2875-5.1739-0.0875-8.9707-1.4204-12.862 0.67812-3.8918 2.0985 0.54104 9.4467 4.2 7.0875s10.482-4.0754 10.544-1.4219c0.0616 2.6534-5.142 4.9454-8.9906 6.9344-3.8486 1.9889-8.0016 7.4454-5.9719 12.294 2.0298 4.8483 8.3982 2.7526 9.7344-1.2469s0.88759-9.4019 5.0312-10.281c4.1437-0.87941 3.5516 7.1927 6.8688 10.325 0.93939 0.88705 2.0286 1.2008 3.1062 1.1156v-12.862c-0.71345-0.41856-1.4315-0.83276-2.0781-1.2031-3.0718-1.7593-3.7922-7.0107 0.67812-5.6 0.5077 0.16021 0.96184 0.34866 1.4 0.56875v-5.8844c-2.6637-0.5999-4.3609-1.877-3.0406-4.1781 0.83158-1.4493 1.8763-2.0411 3.0406-2.1219v-5.1406c-1.4923-0.34612-2.1731-0.95344-0.76562-1.8156 0.2907-0.17809 0.54154-0.3285 0.76562-0.4375v-4.3969c-0.57836-0.19664-0.87419-0.70589-0.72188-1.6625 0.12842-0.80653 0.37932-1.5386 0.72188-2.2094v-12.906c-3.2955 3.7758-0.66044 11.788-4.3969 8.9469-3.7717-2.868-0.27762-10.425-3.1938-11.725-1.0935-0.48749-1.3955-0.62981-1.4656-0.59062zm0.0438 62.125c-0.71504 0.03269-1.4428 0.23171-2.1875 0.6125-4.7664 2.437-2.5749 10.436 1.5969 12.862 4.1718 2.4264 7.1547-1.647 7.4156-5.775 0.22016-3.483-2.9638-7.8764-6.825-7.7z"/>
 <path d="m61.684 168c3.506 4.0904 4.453 11.059-0.68452 14.065-5.1375 3.0058-11.622 0.93408-16.345-3.1053-4.7228-4.0394-4.7421-10.314-0.01988-14.044 4.7222-3.7294 12.44-9.3199 10.35-16.269-2.0891-6.9486-10.145-9.2611-13.241-6.307-3.0961 2.9542-0.41947 9.8749-0.29824 14.409 0.12122 4.5338-1.9742 4.7578-6.3392 5.6664-4.365 0.90853-11.467-0.65345-14.712-5.0825-3.2455-4.429-4.9577-11.567-0.64503-14.972 4.3127-3.4057 9.0207-3.4674 14.053-4.3399 5.0326-0.87241 11.77 2.0409 15.936-2.4194 4.1659-4.4602-4.1393-11.346-8.8159-7.8265-4.6765 3.52-12.188 6.7272-17.453 3.1339-5.2653-3.5934-5.7577-12.391 0.05446-15.58 5.8121-3.1886 10.283-4.5524 15.596-4.3049 5.3134 0.24745 6.2021 8.0972 11.868 10.183 5.6662 2.0864 13.059-4.6382 11.364-10.157-1.6954-5.5189-9.5036-5.4921-14.586-4.5442-5.0824 0.94777-10.385 0.30576-12.573-5.6394-2.1881-5.945 5.432-9.5249 11.148-10.227 5.7163-0.70216 9.1901 4.238 12.571 8.6767 3.381 4.4387 10.484 0.53666 8.7803-5.0556-1.7036-5.5923-5.6499-8.1711-11.249-7.1476-5.5986 1.0246-14.859-0.80719-15.867-7.0235-1.0078-6.2163 7.1413-9.4572 12.389-8.3898 5.2481 1.0673 8.3987 7.4714 10.28 11.196 1.8815 3.7251 1.1463 3.986 5.1353 3.155 3.9889-0.83164 0.96735-8.264-3.07-11.354-4.0374-3.0901-2.9613-8.0835 3.4307-9.0645 6.392-0.98098 6.5566 8.547 12.947 7.6442 6.3904-0.90279 1.5633-11.083-3.9926-9.6861-5.5559 1.3966-11.44-4.0452-8.3264-9.579 3.2467-5.7694 9.6274-7.7796 16.111-6.7363 6.8071 1.0955 11.732 4.7784 13.875 10.733 2.1427 5.9544 0.07949 11.892-4.0746 16.711-4.154 4.8191-12.001 2.7112-17.324 6.8447-5.3232 4.1336 2.1692 9.1852 7.1178 6.2224s8.4906-10.174 15.024-8.4149c6.533 1.7595 9.4027 12.414 5.4336 17.542-3.969 5.1281-11.315 7.4044-15.189 2.2089-3.873-5.187-11.151-8.176-15.143-4.625-3.9916 3.5507 3.4271 8.5206 8.678 9.1524 5.2509 0.63183 10.966 2.7446 14.538 7.1863 3.5718 4.4417 2.374 12.707-3.0612 13.258-5.4351 0.55139-6.3791 2.515-11.006 0.26565-4.6273-2.2492-5.2558-9.3717-9.2967-14.325-4.0409-4.9537-8.0995 0.24486-10.027 6.0454-1.9277 5.8007 4.6722 11.788 10.778 11.529 6.1057-0.25851 9.9564 4.3777 15.674 4.834 5.7175 0.45654 12.027-3.9383 13.743-9.1283 1.7161-5.1899 3.0563-12.429 9.2978-12.586 6.2415-0.15729 10.483 5.9581 10.412 12.016-0.0715 6.0574-7.1475 8.7982-13.29 6.2418s-6.0996 7.7465-0.16141 7.3858c5.9382-0.36099 11.581 5.9534 9.1764 11.448-2.4041 5.4942-7.4784 6.1226-13.075 6.4394-5.5968 0.31668-10.646-6.3272-9.4646-12.71 1.1819-6.3831-8.7708-5.838-6.3197 0.0797 2.4511 5.9174 1.6025 12.319-5.021 12.987-6.6235 0.66787-11.68-7.7066-7.8848-11.209 3.7948-3.5029 9.4763-9.5089 1.4352-10.925-8.0412-1.4158-5.5013 12.595-11.155 11.651-5.6535-0.94381-1.6825-8.5969-4.7675-14.027-3.0852-5.4304-11.571 1.4379-9.2076 7.5794 2.3637 6.1414 14.506 10.687 18.86 13.336 4.3544 2.6489 14.529 15.113 4.6423 18.429-9.8872 3.3158-10.748-14.318-17.391-13.517-6.6428 0.80052-3.1277 7.9869 0.37824 12.077z" fill-opacity=".25098" fill="#005fbe"/>
 <path fill-opacity=".25098" fill="#005fbe" d="m103.8 83.637c-2.0518-3.6862-2.1313-16.415 4.9212-17.224 7.0525-0.8092 8.871-7.3333 2.1656-10.694-6.7054-3.3604-6.4118 10.43-13.137 8.0704-6.7251-2.3595-4.7386-14.569 1.7339-15.352 6.4724-0.78316 12.642 4.7251 16.972 0.78953 4.3305-3.9356 0.058-10.376 1.837-16.329 1.7791-5.9524 9.9068-7.2214 13.869-1.9864 3.9618 5.235 8.6866 14.058 4.9115 19.997-3.7752 5.9391-8.7464 0.2884-13.732 2.3706s-3.281 10.121 1.2414 12.237 11.544 2.8918 12.828 8.2246c1.2844 5.3329-2.5454 12.422-8.3533 11.066-5.8079-1.3564-2.9314-7.1208-5.309-12.703-2.3776-5.5819-9.319-0.27713-6.508 5.0791 2.811 5.3563-4.3003 12.288-8.5194 10.488-4.2191-1.7996-2.8696-0.34811-4.9214-4.0343zm-3-38.837c-3.0403-5.0494-3.2561-15.876 5.2117-16.32 8.4679-0.44422 11.863 12.42 7.1674 17.201-4.6956 4.7809-9.3388 4.1688-12.379-0.8806zm41.281 7.6063c-2.9462-5.4082 1.4608-15.973 8.3042-13.827 6.8434 2.1464 9.6332 11.91 5.0378 16.667-4.5954 4.7568-10.396 2.5675-13.342-2.8407z"/>
 <path fill-opacity=".18824" fill="#fff" d="m84.606 100.8c-2.3688 0.29561-3.5369 3.8356-2.8009 6.4796 0.73597 2.6438 3.7533 4.8038 2.091 7.5804s-3.7246-0.9177-3.4684-3.2902c0.25618-2.3725-2.1643-5.4478-5.068-5.2983-2.9036 0.14952-2.7866 3.2885-2.1664 6.2788 0.62018 2.9903 4.4478 6.7333 4.5379 9.9084 0.09011 3.1751-2.3538 5.787-4.5639 5.6531-2.2101-0.13391-1.6851-0.45451-1.3866-2.5019s3.6639-5.4652 1.9295-8.3047-5.1564-4.3527-7.7868-2.545c-2.6305 1.8078-2.8945 5.2706-1.049 7.6077 1.8454 2.3372-1.7158 5.8802-3.1651 2.9364s-1.428-5.2989-4.1474-7.093c-2.7194-1.794-5.1574 1.3579-5.5972 4.2662-0.43981 2.9084 2.0398 6.4147 4.3417 8.0127 2.3019 1.5979 0.99205 3.8053-1.3676 2.7886-2.3597-1.0167-6.2183-2.9843-7.2422 0.19502-1.024 3.1794 0.54212 6.5496 2.6901 8.7808 2.148 2.2311 5.4395 2.444 7.6842 0.75439s2.0086-3.1884 3.7409-4.8543c1.7322-1.6659 3.0192-3.9106 5.4252-4.7873 2.406-0.87668 4.1214 3.5144 2.304 5.5689-1.8173 2.0546-3.3793 2.99-5.8273 4.1252s-5.012 5.1675-3.6929 7.8362 3.3052 4.4111 6.2699 3.3564c2.9647-1.0548 3.6489-5.5056 4.5084-8.5352 0.85952-3.0297 4.8074-0.0825 4.5646 2.7063-0.24282 2.7888 2.2857 6.1347 5.5691 6.282 3.2834 0.14714 4.4741-3.3591 3.6468-6.1058-0.82737-2.7467-3.1395-4.6942-5.3006-6.8408s-2.7732-5.599-1.6552-8.9091c1.118-3.3102 5.1269-0.93856 5.1847 2.1104 0.05782 3.0491 2.9539 5.9083 6.3612 6.3645 3.4073 0.45626 6.1564-2.0808 6.7772-5.7994 0.62087-3.7187-3.657-7.7036-6.7846-8.3651s-5.9995 0.19432-6.4636-2.9724c-0.46408-3.1668 2.9698-4.6022 5.4321-3.4098s3.6407 4.243 6.3101 5.9174c2.6694 1.6743 5.1267-0.60739 7.0054-2.5364 1.8787-1.9289 2.029-5.272 0.96942-7.4296-1.0596-2.1577-2.7008-4.9335-5.0609-4.7806-2.3601 0.15281-2.4954 3.3957-4.7546 5.3253-2.2592 1.9297-3.4641-2.9863-0.84891-4.0451s4.7018-3.7325 3.6033-6.4433-4.3068-5.239-6.2591-6.0582c-1.9523-0.81914-2.1205-0.2247-4.4894 0.0709z"/>
 <path fill-opacity=".25098" fill="#00a080" d="m145.6 123.2c-2.4826 0.41398-6.6337 3.4568-6.3871 6.4321 0.24655 2.9753 2.7845 3.3022 5.0046 3.9989 2.2201 0.69671 1.7799 2.6972 0.2486 4.3208-1.5313 1.6235 0.86439 3.7885 0.92961 5.6766 0.0652 1.8881-0.86125 4.3325-2.9025 3.3907-2.0412-0.94171-2.138-3.5626-2.0503-5.3717 0.0876-1.8091 0.84662-2.2483 0.90031-4.9717 0.0537-2.7233-5.819-5.5058-8.2307-3.7534-2.4116 1.7523-2.6009 3.4406-1.4643 5.7198 1.1366 2.2793 5.115 3.5622 5.4277 6.1307 0.31268 2.5684-3.138 1.4303-4.8572 1.8523-1.7191 0.42196-2.6059 2.2521-3.0736 4.0518-0.46771 1.7996 0.13664 3.9061 2.4609 4.9078 2.3243 1.0016 0.31092 3.7931-1.2315 4.8951-1.5424 1.1019-2.5345 3.6395-1.0897 5.2152 1.4447 1.5757 3.3472 2.0334 5.3142 1.1222 1.9671-0.91126 4.2149-2.7675 4.5037-4.7825 0.28877-2.015 0.60442-3.7246-0.76384-5.0954-1.3683-1.371-1.0432-5.062 1.1474-5.4218 2.1905-0.3598 2.9603 2.2766 1.837 3.761-1.1232 1.4844-2.318 3.3991-0.54874 5.1157 1.7692 1.7166 1.3336 5.1034-0.42432 7.1437-1.758 2.0403 0.82065 4.9358 3.7246 4.3105 2.9039-0.62524 7.1754-3.2781 7.8536-6.4156 0.67814-3.1375-2.9348-5.0191-4.9409-5.7063-2.006-0.68726-3.0224-2.3504-1.7967-3.8874 1.2257-1.5371 2.7549-1.5418 4.7841-0.66122 2.0292 0.8806 4.555 4.0876 7.2768 3.5542 2.7218-0.53333 4.0857-2.636 4.9319-5.0246 0.84619-2.3886 0.23959-6.592-2.4011-7.7051s-5.3844 1.6213-6.2961 2.9877c-0.91162 1.3663-4.351 2.6004-3.1726 0.99757 1.1783-1.6027 1.1615-3.7022-0.66826-5.1575s0.73918-3.7822 2.5437-2.2639c1.8045 1.5184 4.2308 1.7343 6.3122-0.37709 2.0814-2.1115 2.1353-7.8758-0.76139-9.0803-2.8966-1.2044-5.016 2.5899-6.6492 1.0086-1.6332-1.5814 0.78132-3.2993 2.0093-4.9391 1.2279-1.6398 0.0817-4.6028-1.8492-5.3523-1.9308-0.74956-3.1684-1.0397-5.651-0.62573z"/>
 <path fill-opacity=".18824" fill="#fff" d="m185.98 90.937c-3.2099 0.54008-6.7869 3.2291-6.5539 6.3103 0.23293 3.0813 6.148 3.9537 4.1616 6.4436-1.9864 2.4898-5.7322-4.9246-8.6923-1.0401-2.9601 3.8846 4.9778 7.9594 0.61702 8.0348s-0.50037-6.6238-4.4717-7.6414-6.3746 3.6564-4.528 6.1985 8.0533 3.9661 4.7515 5.894-3.6291-3.1924-6.5486-5.303c-2.9194-2.1106-7.1992 2.0888-7.0182 5.6036 0.18095 3.5148 4.1966 4.7439 7.6171 3.3838 3.4205-1.36-0.34038 1.0917-1.9255 4.03-1.5851 2.9384 3.2559 7.0208 6.9285 4.8846 3.6725-2.1362-0.70262-6.8976 1.8644-8.5495 2.567-1.652 0.0164 7.0248 3.7686 7.29 3.7523 0.26511 6.6158-1.9312 6.4754-4.9658-0.14043-3.0348-8.4266-3.8666-4.0342-6.069s2.1031 5.8432 5.4793 5.7616c3.3762-0.0817 7.3758-3.5117 6.1243-7.2391s-7.5547-0.22152-7.7691-3.4638c-0.21443-3.2422 5.3076 2.5076 8.5648 1.3462s4.8932-8.0434 1.5366-9.1856-5.938-3.6024-2.925-6.0326-0.21268-6.2312-3.4226-5.6911z"/>
 <path d="m80.733 182.15c-0.02569-2.7665-1.5466-3.9532-2.5037-4.1971-0.95718-0.24381-4.2425 0.66732-4.3413 3.0522-0.09629 2.3245 2.346 2.2763 3.4283 2.3476 1.0822 0.0713 2.8138 0.70574 2.816 2.1951 0.0021 1.4893-2.0303 2.0094-2.9566 1.0485-0.92633-0.96096-2.4818-1.5898-3.6975-0.36638-1.2158 1.2235-0.98588 4.3298 0.80014 4.9532 1.786 0.62335 3.3589-0.80542 3.734-2.3027 0.37504-1.4973 2.5243-1.9844 3.4387-0.85918s0.48251 3.0197-0.89371 3.2973c-1.3762 0.27783-3.072 0.31381-3.5037 2.0516-0.43175 1.7378 1.3029 4.1933 3.0724 4.1357 1.7694-0.0574 2.8865-1.4676 2.4898-2.8239-0.39668-1.3564-1.0054-3.0244 0.68086-3.6831 1.6862-0.6587 3.8742 1.6885 3.254 3.2406-0.62019 1.552-1.9826 1.9876-2.0381 3.4341-0.05544 1.4464 1.0667 2.4808 2.5911 2.4496 1.5245-0.0308 3.5692-1.5898 3.2291-3.1961-0.34016-1.6063-2.4388-1.128-2.842-2.5627-0.40322-1.4346 2.0189-1.1243 2.7835 0.13944 0.76466 1.2638 2.7093 1.3962 3.7341 0.32137s1.1297-2.8045-0.23358-3.3558c-1.3633-0.55139-2.8431 0.4788-3.9549 0.93296-1.1118 0.45423-2.4851-1.1299-1.51-1.9924 0.97513-0.86254 2.4018-0.15008 3.6762-0.0441 1.2743 0.1057 2.4673-1.0807 2.392-2.4048-0.07536-1.3242-1.1784-2.4889-2.5125-2.3652-1.3341 0.12376-2.4062 1.1968-2.6528 2.4263-0.2466 1.2296-1.6111 2.3003-2.9047 1.6753-1.2936-0.6251-0.60385-2.9174 0.83689-2.7595 1.4408 0.15792 2.6688-1.8321 1.6308-2.9356s-2.5525 0.0841-2.6147 1.54c-0.06216 1.4559-2.8586 0.68824-2.1552-0.78071 0.70342-1.469 2.1523-1.2341 3.3413-1.7759s1.3545-2.4954 0.4185-3.4794c-0.93603-0.98406-2.163-1.9744-3.5966-1.3658-1.4336 0.60844-0.90651 1.854-0.41318 4.1183 0.49332 2.2643-2.9969 2.6578-3.0225-0.10857z" fill-opacity=".25098" fill="#00a080"/>
 <path d="m158.9 72.026c-0.93436 2.0796-3.8921-0.6251-5.0545 1.5978-1.7166 1.404-1.447 4.1825 0.17319 5.5492 1.5151 1.9389 5.0563 0.88186 5.2923-1.5584-0.65413-2.0656 0.56184-5.312 3.1617-4.6527 2.075 0.43624 2.4129 3.8023-0.009 3.9096-2.2312 1.0341-2.4081 4.5641-0.035 5.5366 2.828 1.7214 6.496 1.4638 9.3907 0.0427 1.6594-1.4502 1.7726-4.4066 0.14908-5.9258-2.1417-0.92799-4.3612 1.3194-6.4586 0.12103-1.3259-1.2828 0.48759-3.4024-1.0232-4.686 0.0823-2.437 3.8136-0.82649 2.8748 1.1958 0.1583 2.3748 2.8236 2.8414 4.6237 2.0157 2.2467-0.79268 3.6255-3.3201 3.3294-5.6435-0.98271-1.8283-3.3174-1.0223-4.6705-0.0924-1.1933 1.7184-4.7099 0.91154-3.8408-1.3692 1.1863-0.78771 4.3929-0.38444 3.7699-2.691-1.1306-0.40649-2.5473-1.8121-0.53136-2.2323 2.6368-0.43498 2.6195 3.707 5.1995 4.0389 2.0161 0.65065 4.3965-0.42805 5.0644-2.4796 1.146-2.2094-1.2316-4.4094-3.4397-3.937-2.0658 0.17003-4.6969 2.903-6.4568 0.73325-0.67066-2.0957 2.1638-2.9233 3.7706-2.4485 2.0558 0.61649 4.9361 1.6928 6.3488-0.66213 1.0412-1.7749 0.21944-4.5699-2.122-4.5805-2.528-0.19635-4.5692 1.581-5.9918 3.4829-0.94539 2.4634-4.6097-0.0231-2.6139-1.7518 1.9025-1.6258 5.0418-0.86835 6.6296-3.0133 1.4445-1.7585 0.44231-4.091-1.2173-5.2418-1.4512-1.2685-4.123-1.3613-5.1246 0.51422-1.4955 1.926 0.83597 4.5315-0.77613 6.41-1.8619 2.1684-4.9603-1.9302-2.1802-3.055 1.9017-1.3551 1.2655-4.1892-1.0767-4.3751-1.8932-0.62983-4.1877 1.5188-3.1048 3.3951 2.0388 2.0696-2.8629 3.3202-2.1875 0.62293 1.0226-1.9165-1.2794-3.5022-3.0414-3.1266-2.4585 0.17878-4.4782 3.2143-3.111 5.4324 1.2066 2.0591 3.6921 2.1955 5.7969 1.6968 2.3434-0.19649 5.2346-0.72177 7.0185 1.2258 2.2455 1.36-0.61001 4.9408-2.0642 2.4827-0.6098-2.1613-3.0745-3.6938-5.2261-2.6988-2.0826 0.97251-1.9911 4.1593-0.76134 5.776 1.6491 1.6428 4.2317 1.1919 6.1875 0.46508 2.2789-0.35784 3.5922 3.3092 1.3341 4.1998-1.5712 0.1764-2.4707-1.9349-4.0734-0.4767-1.8011 1.2524-2.5668-0.69412-3.1372-2.0001-1.4613-1.1339-4.2761 0.40236-4.7725-2.1083-0.79087-2.4762 3.8008-3.2007 1.8846-5.664-1.1531-1.8299-5.17-1.7334-4.9877 0.93023 0.089 1.5844 3.3357 3.0697 1.074 4.485-2.1701 0.33187-2.6158-2.4451-3.7973-3.6677-1.4313-1.4701-3.8108 0.11186-3.9468 1.8858-0.48562 2.4837 1.608 5.3913 4.2928 4.9755 1.6096 0.07854 2.699-1.406 4.2036-1.4956 2.32 0.0084 2.4897 3.6796-0.0545 3.0203-1.9919-0.651-4.7904 1.3827-2.6488 3.2037 1.6666 1.4894 5.469 1.6948 5.9315-1.0695 0.0566-1.8046 2.1543-3.0316 3.1737-1.1193 0.90507 1.4443 2.7017 1.5287 3.9517 1.7136 1.1167 2.2269-3.0547 3.0951-3.765 0.98952-1.6109-1.7583-4.2287 0.17703-1.6066 1.4224 0.17766 0.20734 0.28385 0.47768 0.28145 0.75222z" fill-opacity=".25098" fill="#00a080"/>
 <path d="m168 145.6c-1.99-0.41062-3.9325 2.8647-6.5776 2.5733-2.6451-0.29134-1.7756-5.8654 0.58723-5.129 2.3628 0.73647 6.2544 2.2853 5.4398-0.63063-0.81459-2.9159-4.2005 1.086-5.8043-0.98301-1.6038-2.0691 2.0267-4.6463 4.131-3.7718 2.1043 0.87451 3.4252 5.3681 4.9486 3.173s-2.4334-2.3905-0.38311-4.2054c2.0504-1.8149 6.1057 0.53452 5.2343 2.7093-0.87136 2.1748-4.0909 0.66248-3.0899 3.4931 1.001 2.8307 5.5194 1.8542 4.5255-1.5305-0.99379-3.3847 4.4773-2.3799 4.2668 0.74634-0.21063 3.1262-5.0644 1.5446-5.258 4.1112-0.19355 2.5666 2.4601 4.5618 3.7315 3.071 1.2714-1.4907 0.73626-5.9814 3.6755-5.1706 2.9393 0.81081 1.7649 3.9894-0.98385 4.936-2.7488 0.94661 3.2286 4.9541 2.5106 1.762-0.71806-3.1921 2.351-4.421 4.0884-2.1319s-1.0062 3.1724-3.0595 4.2429c-2.0534 1.0706 3.1672 3.8547 3.6427 1.6977 0.47544-2.157 0.66857-4.6369 3.2008-3.223s0.28343 3.6755-2.0119 4.8861c-2.2954 1.2105 3.7162 3.7506 4.2932 1.8423 0.57701-1.9083 0.23436-3.7311 2.4574-3.1062 2.2231 0.62496 3.492 4.683 0.69804 4.4743-2.794-0.20867-4.6307 2.5217-2.3789 3.9045s3.3808 0.22449 4.6086-2.3092c1.2277-2.5336 5.912 0.80934 4.5086 3.4218s-6.0955-1.1039-6.589 2.0945c-0.49357 3.1984 4.0061 0.37912 6.1475 1.4729s-0.29001 5.311-2.812 5.0273c-2.522-0.28364-2.7134-5.9287-5.0712-3.9704-2.3579 1.9584 1.7176 2.4652 1.7405 4.4385 0.0231 1.9732-4.5485 2.1631-6.2614 0.43666-1.7128-1.7264-0.66332-3.7107 1.6022-3.6818 2.2659 0.0287 4.8546-3.681 2.869-5.0838-1.9857-1.4029-3.8314 0.71638-4.5169 2.9383-0.68537 2.222-5.8589 0.49042-4.546-1.3655 1.3129-1.856 4.2666-1.1345 3.0759-3.0458-1.1906-1.9114 3.6942-2.4597 1.0818-3.8491-2.6125-1.3894-3.9924 1.0907-3.3463 3.5482 0.6461 2.4576-5.1642 2.5596-5.3704 0-0.20622-2.5566 1.9804-2.3902 4.1492-3.6709s-0.6489-3.6442-2.774-2.4735-2.5575 5.3368-5.4065 4.5504c-2.849-0.78638-1.9354-5.2505 0.51506-4.3769 2.4505 0.87353 5.4433-2.4011 3.772-3.517-1.6712-1.1159-2.0621 3.7024-3.81 1.3803-1.7479-2.3222-1.3847 2.6409-3.4538 1.3917s-3.5711 1.6909-1.031 2.3735c2.54 0.6825 1.7633 4.5596-0.82341 4.5499-2.5867-0.01-2.2677-1.9421-1.6654-3.7844 0.60221-1.8424-1.6584 1.1418-3.7722 1.0472s-3.7425-4.0915-1.1023-4.9125c2.6401-0.82096 4.8199 0.58114 6.6776-0.61509s4.5096 0.22764 3.8977-2.3658c-0.61201-2.5935-2.9619 0.66661-4.5104 1.23-1.5485 0.56343-5.0554 0.89537-3.9157-1.4218 1.1397-2.3173 6.3471-0.40537 6.0358-2.5588-0.31136-2.1535-1.6938-4.8279-3.2323-4.5412-1.5385 0.28665 0.94976 4.9444-1.2248 4.8278-2.0542-0.11011-2.9934-1.8448-3.5861 0.46942-0.59269 2.3142 0.45493 3.7351-2.243 4.0176-2.698 0.28245-5.167-2.9534-3.3781-4.9557s5.5892-1.2256 7.4376-2.2716c1.8486-1.0461 0.42903-1.7786-1.561-2.1892z" fill-opacity=".25098" fill="#00c062"/>
 <path d="m181.76 207.16c-2.9368 0.0609-5.0613 3.6449-4.0688 6.5188 1.0587 3.0654-4.337 4.6059-3.8937 1.0062 0.44326-3.5997-2.0369-6.9085-5.2281-6.0594s-5.7869 3.9644-4.7906 7.2188c0.99619 3.2544 5.0079 2.8992 7.9844 3.0407 2.7263 0.1295 5.6505 2.3828 6.5844 5.1188h12.556c-0.003-0.007 0.003-0.0154 0-0.0217-1.3202-3.3803-4.8202-2.8752-7.5688-0.72191-2.7485 2.1532-4.4874-2.9894-0.9625-3.3031 3.5248-0.31374 6.2793-3.9543 5.2938-6.8469-0.98558-2.8926-2.0568-5.4481-5.2938-5.9062-0.2023-0.0287-0.41671-0.0476-0.6125-0.0434zm-11.572 14.962c-1.3733 0.10528-2.8133 0.78939-3.7406 1.8812h7.1969c-0.006-0.0168-0.0153-0.0266-0.0218-0.0434-0.54253-1.3867-1.9437-1.9518-3.4344-1.8375zm-14.328 0.15309c-1.4838 0.0729-3.0477 0.72765-4.2656 1.7282h8.5094c-0.64921-0.57981-1.4147-1.0804-2.2531-1.4219-0.61383-0.25004-1.29-0.34062-1.9906-0.30625z" fill-opacity=".25098" fill="#005fbe"/>
 <path fill-opacity=".25098" fill="#005fbe" d="m59.981 191.76c-2.9526 0.19642-4.4833 3.2311-3.2812 6.9562 1.3738 4.2573 6.2991 8.6702 9.7125 12.688 3.4133 4.0172-2.6387 6.0131-5.6656 3.7188-3.0269-2.2942-5.2753-4.8602-8.2031-6.8688-2.9278-2.0085-8.3311-1.8455-8.4219 2.5156-0.09078 4.3611 3.827 7.6134 7.4594 8.6188 3.6324 1.0053 6.749 0.59759 9.8875 1.6188 1.9322 0.62874 4.3017 1.5506 5.7531 2.9969h31.828c1.6065-1.7114 2.3878-4.1616 1.4219-6.4532-1.6141-3.8294-7.6732-2.9996-8.8594 0.59066-1.1862 3.5904-5.3386 6.072-8.9469 3.8718-3.6082-2.2002 0.50078-3.2989 3.7188-4.8343s5.4049-7.5463 4.7031-11.353c-0.70178-3.807-2.4219-7.1268-6.8031-6.7812-4.3812 0.34552-0.74962 9.5232-2.3406 12.994-1.591 3.4705-5.9784 4.5076-8.8156 3.3688-2.8373-1.1388-5.1456-10.936-5.5781-14.35-0.43257-3.4141-2.4238-8.4549-6.2344-9.2093-0.47633-0.0943-0.91258-0.11557-1.3344-0.0875z"/>
 <path fill-opacity=".18824" fill="#fff" d="m191.82 185.94c-2.8604 0.0862-5.5814 1.0222-5.2062 4.7468 0.42873 4.2568 4.0755 9.282 6.9344 12.25 2.8588 2.9681 5.7685 6.0453 4.55 9.8875s-5.2411 2.4827-5.5781-1.2688c-0.33704-3.7514-3.9147-7.408-6.4094-10.128-2.4946-2.7201-6.8414-4.5228-9.8875-1.6188-3.0462 2.904-0.76076 7.7381 2.5156 9.9968 3.2764 2.2588 7.7836 3.3484 11.003 5.7532 3.2195 2.4048-0.58193 8.9648-3.1062 5.425s-4.2714-5.0559-7.9625-6.2125c-3.6912-1.1565-7.9273 2.3855-9.6906 4.375-1.7634 1.9895-1.7344 2.0473-0.98438 4.8562h12.359c1.6415-0.6825 3.2828-1.0046 4.7687 0h31.303c-2.285-3.0904-7.6958-5.6953-10.959-4.6375-3.3918 1.0994-7.1208 3.1384-6.0156-0.94066 1.1052-4.079 5.8129-5.1366 9.1438-3.3468 3.3308 1.7898 8.2878-1.776 6.825-5.6657s-6.7371-4.7884-9.9312-2.4938c-3.1942 2.2946-3.3051-2.4986-2.9969-5.1625 0.30824-2.6638 1.2241-6.8823-0.50312-9.9968s-5.7022-5.664-8.9469-5.7969c-0.40559-0.0166-0.81637-0.0342-1.225-0.0218z"/>
 <path fill-opacity=".25098" fill="#00a080" d="m111.39 199.39c-1.8729 0.0838-3.8269 0.89733-5.1406 2.2094l-0.30625 0.30625c-3.2993 3.2954 0.6 10.168 3.9594 11.244 3.3594 1.0756 8.2449 2.3516 5.6219 4.9656-2.6231 2.614-4.754-2.743-7.8094-2.8438-3.0553-0.10073-5.059 2.8677-4.9438 6.2125 0.0306 0.88683 0.22905 1.7342 0.56875 2.5157h12.141c0.27715-0.28805 0.55837-0.57246 0.85313-0.85316 1.4498-1.3807 3.4931-0.61586 4.3312 0.85316h4.3969c0.4796-1.1242 1.772-1.8421 3.1938-1.225 2.6618 1.1554 6.1729 0.54229 6.6063-2.5594 0.43339-3.1017-0.33286-7.1203-3.8938-7.3938-3.5608-0.27342-3.9634 3.6016-6.2562 5.5782-2.2929 1.9767-4.6696-3.2404-1.5969-4.0469 3.0727-0.80647 7.1142-3.2073 6.3438-6.1688-0.77036-2.9614-2.3442-5.1516-5.3594-4.9875-3.0152 0.16408-3.9468 2.6208-3.675 5.5782 0.27178 2.9574-5.4496 3.0328-4.7688-0.19691 0.68083-3.2298 2.0073-5.8031-0.37187-7.9406-1.0408-0.93513-2.437-1.3121-3.8938-1.2469z"/>
 <path d="m220.74 185.43c-0.46802-0.0106-0.92778 0.0162-1.3781 0.0437-3.0738 0.18851-6.3416 1.6806-8.3125 4.0469-2.1286 2.5555-3.2026 6.3169-2.6906 9.6031 0.55733 3.5773 5.7087 5.4673 5.9719 9.0782 0.22148 3.0393-1.0209 7.2146-3.8719 8.2906-2.8726 1.0842-5.7453-2.1925-8.4219-3.6968-3.3094-1.86-5.659-5.6144-9.3406-6.5407-3.5026-0.88123-8.0958-1.1689-10.741 1.2907-2.9399 2.734-3.1863 7.8975-2.2969 11.812 0.36312 1.5984 1.1139 3.2694 2.1656 4.6375h14.941c2.4779-1.4377 4.7386-3.5196 7.525-3.5657 3.198-0.0532 8.5416 0.58086 9.1438 3.5657h10.566v-4.0907c-0.26028-0.18144-0.51222-0.37702-0.72188-0.6125-2.5668-2.8822-0.84411-7.969 0.72188-11.572v-21.875c-1.0797-0.25118-2.1776-0.39104-3.2594-0.41563z" fill-opacity=".25098" fill="#00c062"/>
 <path d="m153.61 183.2c-0.81393 0.0309-1.6733 0.26719-2.5156 0.74375-5.4312 2.5042-1.1514 7.5787 2.3625 9.275 2.3468 5.553-6.859 3.9099-5.3156-1.1156-0.62235-5.8259-11.308-5.3058-10.916 0.80934-1.1148 4.1369 4.1583 8.3837 7.7 5.4907 5.8699-3.1953 8.808 7.4293 1.225 4.3968-4.1275-3.1273-12.161-3.8343-12.819 2.8219-0.61213 6.0952 7.5892 6.3812 9.3625 1.1156 5.2075-3.6028 3.4484 3.5561 0.0438 4.7032-3.9315 3.7241 2.3762 7.9694 6.0594 8.1156 6.4454-0.84966 2.2444-7.0685 0.21875-10.019-2.3883-5.8265 9.0753-6.9937 6.6938-0.875-4.9859 1.5294-3.0733 7.6422 1.7719 6.9562 5.5883 4.5658-2.8567 6.8578-6.6719 5.9938-1.4556 0.85029-1.9261 1.688-1.7938 2.3844h7.7875c1.9756-1.9128 3.7186-1.3516 4.6594 0h16.231c0.25412-4.036-2.264-8.6417-6.6281-7.7-4.0176 0.67326-7.2652 10.56-10.041 3.1718-1.5258-5.1071 4.9178-5.4317 8.3344-5.2062 5.985 0.79681 5.8628-8.1969-0.0437-6.9562-2.9814-0.66815-9.5311 6.3806-9.0125-0.37184 4.6849-3.4246 9.6202-0.77497 11.922-6.9782 1.4624-4.9775-4.2459-9.0354-8.6625-6.9562-3.844 2.409 0.25263 12.875-7.3719 10.041-3.9737-3.2177-0.51801-7.9338 2.2969-10.456 2.9726-3.927-0.48289-9.5509-4.8781-9.3844zm-12.075 39.003c-1.5596 0.0518-3.1602 0.62251-4.3969 1.6406-0.0859 0.0525-0.16021 0.0987-0.24062 0.15316h9.1875c-1.1231-1.2723-2.8118-1.8518-4.55-1.7938z" fill-opacity=".25098" fill="#00c062"/>
 <path d="m27.6 89.6c0.55915 0.97743 0.47993 2.4454-0.69282 2.8607-1.1728 0.41538-2.4227-0.26459-3.2337-1.2793-0.81098-1.0148-0.56854-2.3038 0.54736-2.884 1.1159-0.58024 2.9198-1.4249 2.7638-2.9335-0.15604-1.5086-1.7191-2.2997-2.4708-1.8148-0.75162 0.4849-0.47386 2.0108-0.62701 2.9464-0.15314 0.93556-0.59214 0.89927-1.5239 0.9144-0.9318 0.01519-2.3284-0.58442-2.8208-1.6212-0.49239-1.0367-0.56363-2.5693 0.45549-3.0992 1.0191-0.52984 1.9881-0.35764 3.0556-0.33915 1.0675 0.01841 2.3362 0.88118 3.3666 0.12906 1.0304-0.75209-0.40427-2.492-1.5026-1.953-1.0983 0.53902-2.7664 0.90252-3.7062-0.04214-0.93987-0.94446-0.69551-2.7699 0.62292-3.1963 1.3184-0.42638 2.2898-0.53084 3.3709-0.27141 1.0811 0.25946 0.95533 1.9059 2.0367 2.5567 1.0813 0.65084 2.8632-0.43942 2.7318-1.639-0.13135-1.1996-1.7354-1.5007-2.8161-1.5057-1.0806-0.0049-2.144-0.34502-2.3597-1.6515-0.21578-1.3064 1.4892-1.7422 2.6903-1.6618 1.2011 0.08033 1.7203 1.2309 2.2401 2.275 0.51983 1.044 2.1313 0.52187 2.0011-0.69315-0.13016-1.215-0.83906-1.8994-2.0287-1.9091-1.1896-0.0094-3.0188-0.74918-2.9816-2.065 0.03717-1.3158 1.8375-1.6612 2.873-1.2359 1.0355 0.42519 1.4309 1.8637 1.6709 2.7023 0.24 0.83864 0.07882 0.86335 0.9304 0.84938 0.85158-0.01414 0.5231-1.6586-0.18444-2.4516-0.70754-0.79292-0.29054-1.7758 1.0603-1.7262 1.3508 0.04963 1.0104 2.0122 2.3578 2.0777 1.3474 0.06559 0.75613-2.2139-0.43934-2.1453-1.1955 0.06853-2.1899-1.2797-1.3333-2.2935 0.89311-1.0569 2.282-1.2191 3.5721-0.7503 1.3545 0.49218 2.2209 1.4416 2.427 2.7482 0.20609 1.3066-0.45065 2.4445-1.4927 3.2708-1.0421 0.82624-2.5703 0.08537-3.8254 0.72495-1.2552 0.6396 0.08466 1.9709 1.2169 1.557 1.1323-0.41394 2.1426-1.7554 3.4148-1.1377 1.2721 0.61776 1.4429 2.9177 0.42672 3.8147-1.0162 0.89694-2.6137 1.0759-3.205-0.14292-0.59132-1.2188-1.9682-2.1182-2.9271-1.546-0.9589 0.57222 0.36901 1.8839 1.4222 2.2197 1.0532 0.33592 2.1436 0.99409 2.7025 2.0462 0.55888 1.0521-0.01162 2.702-1.1491 2.6018-1.1375-0.10024-1.4084 0.26582-2.2701-0.37768-0.86167-0.64346-0.71102-2.1304-1.3461-3.3061s-1.6724-0.26776-2.296 0.8474c-0.62353 1.1152 0.49633 2.6035 1.76 2.7902 1.2636 0.18665 1.8722 1.2897 3.028 1.6079 1.1559 0.31823 2.6239-0.33627 3.18-1.3344 0.5561-0.99811 1.1155-2.4316 2.4031-2.2188 1.2876 0.21279 1.9183 1.6349 1.6657 2.8756-0.25253 1.2408-1.8129 1.5256-2.9735 0.75956-1.1607-0.76603-1.5564 1.3509-0.32315 1.51 1.2333 0.15909 2.1437 1.6769 1.4344 2.7105-0.70931 1.0336-1.7757 0.9633-2.9372 0.80858-1.1615-0.15474-1.9373-1.717-1.444-2.9811 0.49328-1.264-1.5714-1.543-1.3006-0.23185 0.27084 1.3111-0.15475 2.5921-1.5408 2.4691-1.386-0.12298-2.0952-2.0408-1.1786-2.6109 0.91662-0.57012 2.3189-1.5801 0.72362-2.1865-1.5953-0.60642-1.624 2.3697-2.7476 1.9539-1.1236-0.41576-0.0078-1.831-0.42797-3.067-0.42015-1.236-2.432-0.15914-2.1879 1.1945 0.24412 1.3536 2.5584 2.7637 3.3483 3.4785 0.78996 0.7148 2.3895 3.6732 0.22942 3.9657-2.1601 0.29255-1.6443-3.3615-3.0395-3.458-1.3952-0.09649-0.95574 1.5169-0.39658 2.4943z" fill-opacity=".18824" fill="#fff"/>
 <path d="m151.59 0.000006c-1.2741 1.0467-2.1791 2.4711-2.1656 4.0031 0.0323 3.6881 4.348 4.4851 6.6281 6.65 2.2801 2.1648 0.71854 6.8495-2.2312 4.6594-2.9497-2.1903-2.9864-6.6178-6.125-8.0938s-6.5494-1.6905-9.3625 0.30625-4.0305 5.1246-3.6094 8.8594c0.40118 3.5573 2.3796 6.599 5.8844 7.4594 3.3617 0.82523 5.3748-3.062 3.8281-5.775-1.5466-2.7131 3.0749-6.7235 4.4844-3.5 1.4094 3.2235-3.5726 4.7059-2.1219 7.9188 1.4508 3.2129 4.2402 3.0317 5.2719 0.45938 1.0317-2.5724 4.4919-5.2323 5.5125-3.2594 1.0203 1.973 0.78378 1.6168-0.89688 3.15-1.6806 1.5333-4.5827 4.1317-4.375 7.0438 0.20767 2.912 3.0958 6.711 6.2125 5.2719s2.7138-6.5726 1.3562-9.3625c-1.357-2.7901-0.56529-5.2431 2.1219-6.9562 2.6872-1.7132 5.7734 1.4467 3.9375 3.8719-1.8359 2.4251-3.9179 4.9761-2.7125 7.875 1.2054 2.8988 4.1985 6.3723 7 4.3531 2.8016-2.0192 2.3575-4.8857 1.1156-7.4156-1.2418-2.53-2.4092-6.6362 0.24063-8.3344 2.6498-1.6981 7.2662 1.2036 7 4.4844-0.26622 3.2808-4.2572 4.8956-3.6094 7.7219 0.64785 2.8263 2.0249 4.9616 4.55 7.5469 2.525 2.5853 7.0651 1.0595 8.1812-2.2312 1.1161-3.2908-1.6671-6.7658-4.2-8.7062-2.5328-1.9405-0.13004-7.3097 2.8219-5.775 2.9518 1.5347 2.4144 5.4914 3.6094 8.0062 1.1947 2.515 1.9116 4.9714 4.3312 6.7375s5.9149-0.16306 7.7656-2.5156c1.8506-2.3526 1.6411-6.3284 0.525-8.4875-1.116-2.1591-1.5526-3.2211-3.9156-2.4938-2.363 0.72723-5.608 3.1402-7.6125 1.9469-2.0044-1.1934-1.9649-5.7609 1.3781-7.875s7.4129 1.1288 10.062 3.0625c2.6495 1.9338 5.9421 0.99312 7.3719-2.0781s1.5648-6.7767-0.76562-9.0344c-2.3304-2.2578-5.8465-0.73353-7.4812 1.7062s-4.8854 5.3398-6.2781 1.9688 7.7384-6.406 4.55-11.112c-3.1884-4.7064-8.2589 2.4663-9.0125 5.1406-0.75358 2.6743-1.3648 9.7161-4.2438 11.856-2.879 2.1402-7.7156-1.3257-5.3156-3.7406s7.0038-1.4431 6.6719-4.55c-0.33198-3.1068-7.332 0.27342-7.7656-4.1562-0.43358-4.4297 3.5552-2.3113 5.95-0.83125 2.3902 1.4771 6.0452-2.3994 4.7469-5.775h-12.556c0.0857 0.25105 0.16856 0.50768 0.21875 0.76562 0.5972 3.0692-1.2701 5.7567-0.24062 8.925s-1.1562 7.5132-4.4844 7.35c-3.3282-0.16317-6.6473-1.528-4.6375-4.375 2.0097-2.847 5.6649-4.2191 6.1687-6.9781 0.50074-2.7423-0.64868-2.9621-1.7281-5.6875h-7.1969c-0.0793 0.093359-0.16935 0.1849-0.24062 0.28438-1.8095 2.5257-2.0775 5.8346-1.6406 8.6844 0.43679 2.8497-1.095 7.4607-3.5438 5.8844-2.4487-1.5763-1.9423-5.8239 0.21875-8.6188 1.6077-2.079 0.74836-4.5501-1.1375-6.2344h-8.5094z" fill-opacity=".25098" fill="#005fbe"/>
 <path fill-opacity=".25098" fill="#005fbe" d="m67.222 0.000006c0.90613 0.9029 1.4422 2.0202 1.2906 3.3688-0.39428 3.5087-4.5436 3.9516-7.4375 4.9875-2.8939 1.0358-6.463 4.686-5.075 7.2406s1.4203 2.6129 4.0688 2.8438c2.6485 0.23093 8.1573-0.12131 10.041-3.5 1.8833-3.3787 2.0905-5.6694 1.4875-9.975s6.6761-2.1664 5.9938 1.7938c-0.68232 3.9601-3.2009 7.8536-4.025 11.747-0.82408 3.8933 0.84456 8.9787 5.0531 8.9906 4.2086 0.01211 6.1201-4.294 6.0594-7.9844-0.06069-3.6903 0.01736-8.8141-2.3188-11.769-2.3361-2.9546-0.35569-6.6972 3.1719-4.7469s3.5331 6.1824 3.5 10.303c-0.03311 4.1208 0.77345 10.266 3.3906 13.65 2.6172 3.3844 5.6771 1.3442 7.9406-0.98438s3.3828-6.8983 2.4938-10.347c-0.89-3.45-4.466-5.9143-6.522-7.6356-2.057-1.7214-5.275-5.2649-1.379-5.7969 1.565-0.2136 3.013-1.039 4.091-2.1875h-31.828z"/>
 <path fill-opacity=".18824" fill="#fff" d="m168 0.000006c0.75006 2.809 5.8496 3.0108 8.6625 1.7719 1.1701-0.5154 2.4319-1.246 3.6969-1.7719h-12.36zm17.128 0c0.12173 0.082299 0.2525 0.16189 0.37188 0.2625 2.6999 2.2753 0.83161 6.5716-0.74375 9.4719-1.5754 2.9002-4.1365 4.734-6.0812 7.9625-1.9447 3.2284-2.541 8.2722 0.525 11.375 3.066 3.1027 7.1099-0.48744 7.8531-3.9594 0.74326-3.4719 0.60642-6.8838 1.225-10.631 0.61859-3.7475 6.3856-6.445 6.6719-1.1812 0.28624 5.2638-0.24725 11.846 1.6844 15.881 1.9316 4.0349 5.8252 4.9845 8.0719 1.8156 2.2467-3.169 0.21909-8.2058-1.8156-10.981-2.0347-2.7754-7.0945-11.462-5.8188-14.241 1.2758-2.7784 5.186-5.0555 8.7281-3.6312 3.5422 1.4244 7.2137 10.594 10.631 7.8312 3.4176-2.7632 2.372-6.3574 0.2625-9.6031-0.08-0.1237-0.17-0.25152-0.26-0.3729h-31.303z"/>
 <path fill-opacity=".25098" fill="#00a080" d="m103.34 0.000006c0.94164 2.1662 2.9601 3.7717 5.5562 3.85 3.0795 0.092995 4.7012-1.8927 6.5844-3.85h-12.141zm17.325 0c0.49015 0.85902 0.56726 1.968-0.13125 3.0188-1.893 2.8476-7.015 1.7471-9.0125 4.4625-1.9972 2.7157-0.11164 5.6522 2.7125 7.2188 2.8241 1.5665 7.1486-0.73216 7.6562-3.5656 0.5077-2.8334 3.8458-4.8655 4.3969-1.1156 0.55109 3.7499-4.4478 6.8368-4.4188 10.412 0.029 3.5757 2.178 5.9353 5.6875 5.3375s6.791-4.1878 5.7969-7.3062c-0.99415-3.1185-2.099-7.1798 1.4-7.8969 3.4992-0.71694 5.2063-3.471 4.7469-6.4094-0.45943-2.9384-4.1734-4.8859-6.4094-3.1062-2.236 1.7795-4.1995 4.4441-6.9562 2.2531-1.28-1.0201-1.49-2.322-1.07-3.3025h-4.3969zm20.388 16.581c-0.76925 0.0056-1.4829 0.20052-2.0781 0.6125-2.381 1.6479-2.9834 3.2647-2.1875 5.6438 0.79595 2.3792 3.3548 6.1101 6.6063 5.0969 3.2515-1.0131 4.8764-4.1193 3.6312-7.3062-0.93387-2.3902-3.6641-4.0641-5.9719-4.0469z"/>
 <path d="m136.89 0.000006c-5.3388 3.6131 1.2705 11.587 5.7094 6.2562 5.5214-2.0038 6.3825 3.7658 1.7719 5.7969-3.7004 5.2066 5.2496 9.8395 7.8094 4.3312 0.76802-3.0411-0.74883-9.0175 4.7906-7.1312 3.4949 2.0011 2.7246 9.0487 8.6844 7.8531 5.6645 0.24885 5.5653-8.1076 1.2469-9.9969-4.054 1.0092-6.5654-4.4424-1.8156-5.4469 4.1688-0.51954 7.795 7.2657 11.419 1.925 0.71359-0.98874 1.0978-2.2617 1.1812-3.5875h-16.231c1.3383 1.9226 1.0476 5.4521-2.6031 5.7969-3.93 1.7956-10.3 1.6386-11.6-3.3903-0.21-0.9821-0.62-1.776-1.18-2.4063h-9.1875zm12.119 0c0.38065 2.0032 5.8247 2.9033 7.7875 0h-7.7875z" fill-opacity=".25098" fill="#00c062"/>
 <path d="m112 22.4c-1.2346 0.41608-2.2392-2.4431-0.9746-3.4605s2.6697-2.8963 1.9238-4.5619c-0.74588-1.6656-1.3327-2.6006-3.5487-2.8842-2.216-0.28371-5.1822 3.0766-4.5323 5.0704 0.6499 1.9937 1.1373 2.4338 2.5876 3.1505 1.4503 0.71659 2.6922 4.3385 0.74808 4.9133-1.9441 0.57477-3.7371 0.51604-4.3549-1.3458-0.61783-1.8619 0.5077-4.4134-0.91389-5.8801-1.4216-1.4666-3.1892-1.6714-5.0927-1.3274-1.9036 0.34391-2.7669 2.7972-1.9092 4.6841 0.85765 1.8869 3.2714 0.58037 5.2415 1.1614 1.9701 0.58114 0.63384 3.9807-1.3226 3.4229-1.9565-0.55776-3.8359-1.869-5.7965-1.2935-1.9606 0.57554-2.7443 2.8015-1.4424 4.3546 1.3018 1.553 4.1658 0.92834 5.5598-0.09737s3.4266-2.6641 4.4867-0.61194c1.0602 2.0521-0.98303 3.7048-2.9157 3.0594-1.9327-0.64547-3.4496 1.3075-2.5472 3.1032 0.90243 1.7958 2.6712 2.3608 4.6373 2.8841 1.9661 0.52332 4.0156-1.9568 4.5273-3.6371 0.51176-1.6803-0.0743-2.5848-0.5238-3.9708-0.44951-1.3861 0.35735-3.2918 2.1488-3.4513 1.7914-0.15946 3.018 2.3153 2.1436 3.8933-0.87434 1.5779-2.9033 2.7833-2.3757 4.7827 0.52763 1.9994 3.4155 2.227 5.3115 2.1967 1.8959-0.0301 3.9696-1.3681 3.5665-3.6554-0.40309-2.2873-3.9825-3.6914-4.8919-5.2835-0.90941-1.5922-1.4031-2.637-0.0936-3.5709 1.3096-0.9338 3.2328 0.29792 4.0417 1.7666 0.80889 1.4687 1.4296 3.6557 3.317 4.1445 1.8873 0.48881 3.5452-0.87773 4.2433-2.6792 0.69809-1.8015-1.4169-4.3382-3.2708-3.9647-1.854 0.37352-4.4907 1.2302-4.6749-1.1547-0.18413-2.3848 2.7275-2.5461 4.2693-2.099 1.5418 0.44702 2.8903 1.5589 4.3558 1.3889 1.4655-0.1701 2.8249-0.53193 3.2561-2.1278 0.43121-1.5959 0.44645-4.1133-1.1335-5.1627-1.5799-1.0494-4.0785 0.55713-4.1048 2.3689-0.0263 1.8119-2.2961 2.5938-2.7295 0.86947-0.43335-1.7242 0.36876-3.1373-1.2314-4.0373-1.6002-0.89992-3.6854 1.3159-3.4903 3.1439 0.19514 1.828-0.17967 4.5304-1.1921 5.3017-1.0124 0.77126-0.068 0.18053-1.3027 0.59668z" fill-opacity=".18824" fill="#fff"/>
 <path fill-opacity=".25098" fill="#005fbe" d="m2.275 70.503c-0.3579 0.02-0.7179 0.136-1.0938 0.328-0.42713 0.218-0.81268 0.458-1.1812 0.722v10.128c1.3829-1.099 2.964-2.08 4.3969-2.668 3.699-1.52 1.338-8.701-2.1219-8.51zm10.938 12.053c-1.922 0.06958-3.8112 0.57656-5.2719 1.3562-2.5613 1.367-5.5752 3.153-7.9411 3.719v22.116c3.4363 1.2807 8.0779-0.80703 7.5906-5.075-0.5593-4.908-7.4396-9.56-4.2656-12.608 3.1739-3.0478 7.283 0.8097 11.309 2.2094 4.0264 1.3997 9.4926-2.8224 6.7812-7.7-1.6946-3.0485-4.9998-4.141-8.2031-4.025zm1.5094 14.919c-0.59986 0.04515-1.2153 0.22289-1.8156 0.54688-4.8029 2.5917-3.0973 9.9839 0.39375 12.403 3.491 2.4193 8.5371 2.4355 9.0562-2.7562 0.45434-4.5428-3.4354-10.51-7.6344-10.194z"/>
 <path fill-opacity=".25098" fill="#00c062" d="m7.0438 55.541c-0.78128-0.01162-1.5547 0.21038-2.5156 0.85312-1.9219 1.2856-3.2926 5.207-2.3188 7.0875 0.9739 1.8804 1.4932 2.3578 1.3562 3.85-0.13693 1.4922-2.4191 0.57701-2.5812-1.0938-0.07379-0.76-0.44334-1.573-0.9844-2.363v7.1312c0.7712 0.95842 1.0214 2.4547 0 3.1062v9.1875c0.52947 0.18841 1.0954 0.25054 1.6844 0.0875 1.5705-0.43477 3.6858-2.4045 3.2812-4.0906-0.40455-1.6862 0.7125-4.1738 2.2312-2.5812 1.5187 1.5925 0.84947 3.2115 1.7719 4.8781 0.9224 1.6667 3.4389 1.9884 5.1406 1.4656 1.7018-0.52276 2.784-1.8222 2.6906-3.8281-0.09337-2.0059-1.9976-3.3501-3.8062-3.7188-1.8086-0.36869-3.3724-2.6436-1.4219-3.9812 1.9505-1.3377 4.7634-0.42063 6.8688-0.13125 2.1053 0.28938 3.9661-1.3443 4.0906-3.325 0.12456-1.9808-0.21824-3.7129-2.0562-4.8125s-4.062-0.56836-5.6656 0.45938-2.5635 3.358-4.4844 3.8062c-1.9208 0.44814-3.3441-0.21861-2.4062-2.1875 0.93788-1.9689 3.2691-1.6963 4.2875-3.6094 1.0184-1.913-0.40139-5.2917-2.5156-5.7312-1.0579-0.22-1.8664-0.448-2.6476-0.459z"/>
 <path fill-opacity=".25098" fill="#00c062" d="m2.4281 6.5406c-0.771 0.0136-1.588 0.3655-2.3406 1.1813-0.03216 0.0348-0.056404 0.0737-0.0875 0.1094v12.906c1.3017-2.549 3.8751-4.338 5.7094-7.174 1.8101-2.8-0.5277-7.0709-3.2813-7.0224zm11.55 9.2969c-2.7201 0.02674-5.6061 2.9424-6.7812 4.9656-1.1796 2.03-5.4346 4.405-7.1968 3.805v4.3969c2.0741-1.009 1.5615 0.70406 3.0844 0.72188 1.6874 0.0196 6.9464 0.9981 3.2375 1.6406-1.9581 0.34-4.6529 0.278-6.3219-0.109v5.1406c2.329-0.16162 5.1065 1.7325 7.5688 2.975 3.6933 1.8636 10.589-0.90002 10.478-5.5781-0.11077-4.6781-7.6444-2.7321-3.9375-5.775 3.7069-3.0428 5.655-8.036 2.45-11.112-0.80126-0.76912-1.6746-1.0808-2.5812-1.0719zm-13.978 26.862v5.884c3.42 1.7178 5.0602 4.9109 9.9312 3.8938 5.4951-1.1475 3.192-10.292-1.9906-9.5812-2.44 0.334-5.5707 0.337-7.9406-0.197zm0 12.119v12.862c2.7276-0.215 5.3847-3.038 5.4031-6.015 0.0204-3.28-2.7275-5.278-5.4031-6.847z"/>
 <path fill-opacity=".18824" fill="#fff" d="m17.128 208.14c-0.55563 0.0126-1.193 0.14581-1.9031 0.37191-2.8406 0.90419-4.063 7.267-1.8375 8.8375s3.019 1.2298 4.5281 2.2312c1.4149 0.93891 3.3123 2.4212 3.1719 4.4188h22.488c-0.85243-1.4421-2.9912-1.881-4.5281-1.3782-1.8017 0.5894-5.2298 0.56273-4.6594-1.9031 0.57038-2.4658-0.76696-4.2104-2.4938-4.9-1.7269-0.68964-3.7383-1.0473-5.0969 0.0875-1.3587 1.1347-2.4913 4.5739-4.375 2.8s-0.54373-5.7183-1.7062-7.9844c-0.87185-1.6993-1.9206-2.6179-3.5875-2.5812zm-10.872 2.41c-2.3031-0.07-5.0156 1.04-6.2562 2.25v9.5593c0.1249 0.0189 0.24384 0.0231 0.37188 0.0217 2.0485-0.0175 4.8564-0.94024 5.1625 1.3125 0.01489 0.10962 0.027906 0.20916 0.021875 0.30625h10.369c-0.98274-1.4153-1.5242-3.5948-3.3688-3.3688-2.2152 0.27139-4.0793-0.55503-3.325-2.7562 0.75439-2.2012 1.9881-4.4477-0.2625-6.4093-0.7033-0.61299-1.6656-0.88942-2.7125-0.91875z"/>
 <path d="m0 185.85v21.875c0.036517-0.084 0.073079-0.18018 0.10938-0.2625 1.3643-3.0956 5.9608-4.1306 7-7.35 1.1488-3.5587 0.84113-8.2218-1.5312-11.112-1.3421-1.64-3.3879-2.64-5.5782-3.15zm22.925 17.806c-2.5308-0.0119-5.1397 0.70434-7.2625 1.8812-1.9832 1.0995-2.9775 3.4712-4.0906 5.4468-1.5371 2.7282-0.86701 7.0111-3.5 8.7062-2.1997 1.42-5.9121 1.72-8.072 0.22v4.0907h27.716c1.1068-0.75474 2.0918-1.665 2.8656-2.7125 1.9318-2.6152 2.7228-6.3599 2.0344-9.5375-0.63533-2.9327-2.6229-5.9873-5.3594-7.2188-1.328-0.59766-2.8127-0.86793-4.3312-0.875z" fill-opacity=".25098" fill="#00c062"/>
 <path fill-opacity=".18824" fill="#fff" d="m5.5562 0.000006c-0.1179 1.8988-4.0587 1.5419-4.7687 4.4406-0.74626 3.047 3.9346 6.4191 6.8688 5.9938 2.9341-0.42546 4.2007-2.5029 4.0469-4.8562-0.15376-2.3533 3.237-3.0362 3.325-0.7 0.08804 2.3363 1.7733 3.5869 3.7625 3.5875 1.9893 0.00056-1.0498 2.0441-2.6906 1.9688-1.6409-0.07532-5.4787 0.51642-6.1469 3.3031-0.66816 2.7867 2.3651 5.7631 4.7906 6.4969 2.4255 0.73374 4.9357 0.89204 6.9781-0.98438 2.0425-1.8764 0.95066-5.828 1.4438-7.9844s1.4043-3.3797 3.3688-3.4562c1.9644-0.07651 2.6914 1.7393 2.0562 3.7625-0.63515 2.0231-1.2448 6.0371 1.6844 7.35s7.5975-0.54694 9.8219-2.5156 1.4164-5.7633-1.2688-5.5562c-2.685 0.207-5.681-1.4514-6.016-3.8937-0.334-2.4424-2.579-2.6284-4.44-2.6032-1.861 0.0253-3.535-2.1456-1.947-3.6968 1.5879-1.5513 4.7596 0.3823 5.0531 2.2969 0.2935 1.9145 1.8589 2.6699 3.6531 3.6312 1.7943 0.96145 4.6191 0.23516 6.5188-0.80938s2.6663-2.8463 2.2531-4.9438c-0.061-0.30804-0.181-0.5829-0.328-0.83119h-22.488c-0.0094 0.13317-0.03744 0.27798-0.06562 0.41562-0.45 2.2024-2.957 1.4995-4.44 0.32813-0.248-0.19598-0.459-0.45937-0.656-0.74375h-10.369z"/>
 <path d="m0 0.000006v8.6625c1.2494 0.32199 2.389 0.91234 3.1938 1.7938 2.4174 2.6476 0.95686 7.1366 0.80938 10.719-0.15295 3.7137-2.4195 7.347-1.75 11.003 0.54215 2.961 2.3212 5.7598 4.4844 7.8531 2.3822 2.3053 5.5135 4.1803 8.7938 4.6594 3.3584 0.49049 6.874-0.63287 9.975-2.0125 2.3867-1.0618 4.6097-2.6895 6.3-4.6812 2.5879-3.0494 5.0517-6.6778 5.4906-10.653 0.34202-3.0984-0.08567-6.9271-2.3625-9.0562-2.9434-2.7525-7.9936-1.2022-11.878-2.275-4.2782-1.1815-10.272-0.7189-12.512-4.55-1.7985-3.0748-1.1894-8.5001 1.7281-10.544 2.4575-1.7214 5.8982 2.1461 8.8594 1.6625 2.278-0.3725 4.623-1.2444 6.585-2.5818l-27.716 0.000006z" fill-opacity=".25098" fill="#00c062"/>
 <path d="m24.128 89.6c-0.64256 0.02688-1.2686 0.17337-1.9031 0.4375-3.3843 1.4087-3.5734 6.2471-1.925 9.45s2.9719 8.496-1.0719 8.225c-4.044-0.27-2.656-12.322-8.903-11.285-6.2474 1.0369-1.5435 10.73 0.76562 13.059 2.3091 2.3294 9.0529 6.8996 9.8 11.353 0.74711 4.4537-5.0465 8.0848-6.3 4.025-1.2534-4.0599 1.9322-8.7737-1.3344-10.106-3.2666-1.3325-3.2586 8.4857-7.8969 6.5406-4.6383-1.945-0.60353-5.3305 2.0344-7.2406s0.53985-8.1945-3.4781-8.5531c-1.9128-0.17-3.1959 0.7-3.916 2.13v12.862c2.5945 1.3926 4.3535 4.1638 7.525 4.6594 3.6654 0.57271 6.9573 5.4469 5.1844 9.1438-1.7729 3.6968-4.7539 6.7193-6.6281 2.8656-1.8742-3.8538-1.4666-8.7581-3.9812-10.85-0.83737-0.69661-1.4912-1.0185-2.1-1.1594v15.181c0.051437 0.0186 0.10175 0.0476 0.15312 0.0656 3.0603 1.0716 6.9384 5.366 4.1781 7.2844-1.2897 0.89-2.8523 0.72-4.3309-0.11v3.3031c2.4057 0.63966 4.0697 3.5755 1.2906 5.2281-0.42263 0.25132-0.84892 0.426-1.2906 0.56875v5.3375c1.9071 1.7389 1.9327 5.9209 5.075 6.0156 3.9137 0.11795 5.0915-3.1196 3.0188-5.7094s-3.0785-8.0186-0.6125-8.0938c2.466-0.0748 1.9926 0.022 2.7125 2.7781 0.71995 2.7562 1.9101 7.4928 4.9219 8.8594 3.0117 1.3667 8.2219 0.16016 8.2906-4.1781 0.06872-4.3383-5.2605-6.7244-8.7062-6.7156-3.4458 0.008-5.5151-2.2121-5.9281-6.2125-0.41301-4.0004 4.2385-5.7862 5.775-2.3625s3.0813 7.2133 6.5625 7.4375c3.4812 0.22419 8.4074-1.2792 7.7438-5.5781-0.66366-4.2989-3.7607-5.3797-6.8906-5.3594-3.1299 0.0201-7.7872-0.92852-8.2031-4.8781-0.41598-3.9496 4.7238-7.5994 7.875-5.4906 3.1511 2.1087 2.8329 7.5375 5.9719 8.3562 3.1389 0.81866 5.9503 0.44358 9.7562-1.0062 3.8059-1.4499 4.4563-7.4624 1.7062-10.544-2.7501-3.0814-7.5756-1.8355-10.741-0.0218-3.165 1.8137-7.3589-3.8737-4.3969-6.3875s6.6641 0.28147 9.7562 0.30625c3.0922 0.0249 5.9015 0.55582 8.8375-1.225 2.936-1.7809 2.6818-6.8151 1.225-10.216-1.4568-3.4006-5.5267-5.3314-8.225-5.25-2.6983 0.0813-3.9592-0.0265-4.375 3.0625-0.41581 3.0889 0.43443 8.1108-1.7281 9.7344-2.1626 1.6237-6.7221-0.93891-7.2188-5.9062-0.49665-4.9673 4.704-7.8061 7.9188-9.7562 3.2148-1.9502 3.8664-6.1983 1.4875-9.5156-1.9328-2.6954-4.6968-4.6664-7.4812-4.55zm-24.128 78.73v10.28c1.2958-0.54 2.465-1.45 3.4344-2.78 2.3347-3.21-0.1973-7.35-3.4344-7.5z" fill-opacity=".25098" fill="#005fbe"/>
 <path fill-opacity=".25098" fill="#005fbe" d="m205.82 56c-1.4778 0.03304-2.9618 0.7313-3.8062 2.2094-2.2518 3.9416 0.87083 10.369-2.9313 13.672-3.8021 3.3033-1.866-5.5139-3.675-8.8594s-6.9691-5.2201-8.9469-3.6094c-1.9592 1.5833-1.2218-1.4636-1.9031 1.9031-0.68307 3.3751 7.4932 5.177 7.5688 10.303 0.0755 5.1261-4.9381-2.4889-9.9969-1.8812-5.0588 0.60766-2.895 8.3626 1.3781 8.6406 4.2732 0.27803 7.9238-1.5511 11.419 0.39375 3.4949 1.9449-3.3417 5.8983-6.4531 5.5344-3.1114-0.36389-9.2871 0.92154-8.7062 5.6875 0.58088 4.7659 5.7718 6.2456 10.434 4.9656 4.6626-1.2799-1.374 4.0353 2.3406 7.1312s10.029-1.1424 10.719-5.5562c0.68948-4.4139 0.62476-10.413 5.6219-9.8 4.9972 0.61349 0.65819 8.3198-2.9969 12.381-3.655 4.0616 2.3685 11.929 6.5625 7.875 4.194-4.0537 1.6107-7.9305 3.1281-12.731 1.5175-4.8008 5.3481-0.80839 4.9437 2.9969-0.40432 3.8053-1.3379 9.0403 2.0344 11.681 0.43463 0.34037 0.93536 0.61989 1.4438 0.80937v-22.116c-1.2328 0.29532-2.2967 0.27307-3.0188-0.32812-1.3678-1.1389 0.46236-3.5892 3.0188-5.6219v-10.128c-3.0904 2.2111-4.337 5.9396-7.0219 10.019-3.005 4.5656-5.5422-1.7028-2.2312-4.5281 3.31-2.826 8.6183-4.8674 6.7594-9.9094-1.8589-5.0419-9.5175-2.4233-10.259 1.8594-0.74188 4.2827-5.2144 11.892-6.4094 6.7156-1.195-5.176 4.2996-10.06 5.2719-14.941 0.60767-3.0505-1.8245-4.8238-4.2875-4.7688zm-4.8781 26.688c1.9064-0.1149-0.94375 5.0563-3.4125 7.6125-2.7241 2.8206-0.3748-2.3667 0.6125-3.85 0.98718-1.4834-1.1922-2.1161 2.0562-3.5438 0.30454-0.13384 0.54654-0.20686 0.74375-0.21875z"/>
 <path fill-opacity=".25098" fill="#00c062" d="m219.28 60.813c-1.3065 0.04431-2.6864 0.60449-3.8062 1.225-1.7918 0.99281-3.3661 3.0442-2.6688 5.1625 0.69737 2.1182 2.7871 4.0046 4.8125 4.2438 2.0254 0.23926 3.4181-1.5255 5.0531-1.2906 0.50207 0.07214 0.97796 0.41017 1.3344 0.85312v-7.1312c-0.64859-0.94739-1.5416-1.8539-2.5156-2.4938-0.66998-0.44011-1.4255-0.59532-2.2094-0.56875zm4.725 13.3c-0.0438 0.02793-0.0827 0.06279-0.13125 0.0875-1.7041 0.8666-4.1518 1.2255-4.3094 3.15-0.15754 1.9246 1.1317 3.1221 2.1438 4.2438 0.63254 0.70101 1.4144 1.3922 2.2969 1.7062v-9.1875z"/>
 <path fill-opacity=".25098" fill="#fff" d="m224 212.8c-1.8045 1.7545-2.3034 2.9224-2.8438 4.9218-0.50656 1.8745 0.97019 4.3503 2.8438 4.6375v-9.5593z"/>
 <path d="m181.82 0.000006c0.86026 1.119 1.9089 2.0523 3.15 2.5594 2.9633 1.2107 6.4334-0.57068 9.4938-1.5094 0.79468-0.24375 1.5578-0.62119 2.2969-1.05h-14.941zm31.609 0c0.0261 0.12932 0.0579 0.25538 0.0656 0.39375 0.17066 3.0633-5.1048 3.5526-8.0062 4.55-3.2661 1.1227-7.5187-0.61411-10.259 1.4875-3.1201 2.3925-5.0158 6.9104-4.6812 10.828 0.29904 3.5027 2.5337 7.4764 5.775 8.8375 2.931 1.2308 6.5373-0.36026 9.3406-1.8594 3.0749-1.6444 5.1854-4.7133 7.4156-7.3938 2.0311-2.4412 2.4574-6.6136 5.3812-7.8531 1.62-0.684 3.7-0.8007 5.54-0.3274v-8.6625h-10.566z" fill-opacity=".25098" fill="#00c062"/>
 <path d="m211.84 102.94c-1.9057 0.12926-3.5914 0.85268-4.8562 2.9969-2.0237 3.4306 0.6671 8.4203 4.2438 8.9031 3.5766 0.48281 2.4875 7.4733-0.89687 4.9875-3.3843-2.4858-7.8804-1.4951-8.575 2.6031-0.69463 4.0983 1.1646 8.7483 4.9 9.4062s5.3096-4.085 6.8906-7.3938c1.581-3.3087 5.8084-5.5162 9.1656-4.5062 0.45237 0.13608 0.8866 0.33001 1.2906 0.54688v-12.862c-0.79279 1.5679-0.91267 3.7995-0.48125 6.0594 0.82328 4.3125-5.1756 3.4612-3.7844-0.72187 1.3912-4.1832-0.8971-9.3073-4.2656-9.7781-1.2632-0.17657-2.4878-0.31818-3.6312-0.24062zm11.266 22.094c-0.91996 0.006-1.9388 0.23353-3.5875 0.0875-3.2974-0.29197-4.9092 5.1696-3.2594 8.6188 1.6221 3.3912 4.7314 5.4956 7.7438 6.5844v-15.181c-0.30533-0.0707-0.58958-0.11136-0.89688-0.10937zm-7.51 14.84c-1.7385 0.0351-3.6167 0.95464-5.075 2.45-2.9166 2.9907-2.3684 10.563 1.3344 12.556 3.7027 1.9933 6.5985-2.4693 9.8656-3.8719 0.75642-0.32474 1.5502-0.32396 2.275-0.13125v-3.3031c-1.6851-0.94904-3.2686-2.7709-4.2-4.9-0.8744-1.9986-2.4615-2.8351-4.2-2.8zm8.4 16.8c-3.3378 1.0787-7.1125-0.4893-9.7562 1.9469-2.9936 2.7586-4.8793 6.5284-4.2438 10.828 0.63561 4.2997 3.1937 7.4139 7.1312 8.9906 2.3277 0.93202 4.7486 1.0509 6.8688 0.175v-10.281c-0.16118-0.008-0.31712-0.0345-0.48125-0.0218-3.4604 0.26631-5.2387-7.2145-1.3344-7.0438 0.76958 0.0337 1.3474 0.31686 1.8156 0.74375v-5.3375z" fill-opacity=".25098" fill="#005fbe"/>
</svg>
