<?xml version="1.0" encoding="UTF-8" standalone="no"?>
<!-- Created with Inkscape (http://www.inkscape.org/) -->

<svg
   xmlns:dc="http://purl.org/dc/elements/1.1/"
   xmlns:cc="http://creativecommons.org/ns#"
   xmlns:rdf="http://www.w3.org/1999/02/22-rdf-syntax-ns#"
   xmlns:svg="http://www.w3.org/2000/svg"
   xmlns="http://www.w3.org/2000/svg"
   xmlns:sodipodi="http://sodipodi.sourceforge.net/DTD/sodipodi-0.dtd"
   xmlns:inkscape="http://www.inkscape.org/namespaces/inkscape"
   width="32px"
   height="32px"
   id="svg3505"
   sodipodi:version="0.32"
   inkscape:version="0.47 r22583"
   sodipodi:docname="gravestone-00.svg"
   inkscape:output_extension="org.inkscape.output.svg.inkscape"
   version="1.1">
  <title
     id="title3841">Gravestone 00</title>
  <defs
     id="defs3507">
    <inkscape:perspective
       sodipodi:type="inkscape:persp3d"
       inkscape:vp_x="0 : 16 : 1"
       inkscape:vp_y="0 : 1000 : 0"
       inkscape:vp_z="32 : 16 : 1"
       inkscape:persp3d-origin="16 : 10.666667 : 1"
       id="perspective2836" />
    <inkscape:perspective
       id="perspective2899"
       inkscape:persp3d-origin="0.5 : 0.33333333 : 1"
       inkscape:vp_z="1 : 0.5 : 1"
       inkscape:vp_y="0 : 1000 : 0"
       inkscape:vp_x="0 : 0.5 : 1"
       sodipodi:type="inkscape:persp3d" />
    <inkscape:perspective
       id="perspective3072"
       inkscape:persp3d-origin="0.5 : 0.33333333 : 1"
       inkscape:vp_z="1 : 0.5 : 1"
       inkscape:vp_y="0 : 1000 : 0"
       inkscape:vp_x="0 : 0.5 : 1"
       sodipodi:type="inkscape:persp3d" />
    <inkscape:perspective
       id="perspective2823"
       inkscape:persp3d-origin="0.5 : 0.33333333 : 1"
       inkscape:vp_z="1 : 0.5 : 1"
       inkscape:vp_y="0 : 1000 : 0"
       inkscape:vp_x="0 : 0.5 : 1"
       sodipodi:type="inkscape:persp3d" />
  </defs>
  <sodipodi:namedview
     id="base"
     pagecolor="#ffffff"
     bordercolor="#666666"
     borderopacity="1.0"
     inkscape:pageopacity="0.0"
     inkscape:pageshadow="2"
     inkscape:zoom="11.313708"
     inkscape:cx="15.161029"
     inkscape:cy="18.895564"
     inkscape:current-layer="layer1"
     showgrid="true"
     inkscape:grid-bbox="true"
     inkscape:document-units="px"
     objecttolerance="4"
     gridtolerance="4"
     guidetolerance="4"
     inkscape:window-width="1081"
     inkscape:window-height="836"
     inkscape:window-x="0"
     inkscape:window-y="0"
     inkscape:object-paths="true"
     inkscape:object-nodes="true"
     inkscape:snap-bbox="true"
     inkscape:snap-guide="true"
     showguides="true"
     inkscape:guide-bbox="true"
     inkscape:window-maximized="0"
     inkscape:snap-grids="false"
     inkscape:snap-to-guides="true">
    <inkscape:grid
       type="xygrid"
       id="grid3515"
       units="px"
       visible="true"
       enabled="true"
       spacingx="0.25px"
       spacingy="0.25px"
       empspacing="4"
       snapvisiblegridlinesonly="true" />
  </sodipodi:namedview>
  <metadata
     id="metadata3510">
    <rdf:RDF>
      <cc:Work
         rdf:about="">
        <dc:format>image/svg+xml</dc:format>
        <dc:type
           rdf:resource="http://purl.org/dc/dcmitype/StillImage" />
        <dc:title>Gravestone 00</dc:title>
        <dc:date>2010-11-22</dc:date>
        <dc:creator>
          <cc:Agent>
            <dc:title>Andreas Neudecker &lt;zapyon@gmx.net&gt;</dc:title>
          </cc:Agent>
        </dc:creator>
        <dc:rights>
          <cc:Agent>
            <dc:title>Copyright (C) 2010 by Andreas Neudecker</dc:title>
          </cc:Agent>
        </dc:rights>
        <dc:publisher>
          <cc:Agent>
            <dc:title>Andreas Neudecker</dc:title>
          </cc:Agent>
        </dc:publisher>
        <dc:identifier>gravestone-00</dc:identifier>
        <dc:description>Gravestone for passed-away McMinoses.</dc:description>
      </cc:Work>
    </rdf:RDF>
  </metadata>
  <g
     id="layer1"
     inkscape:label="Layer 1"
     inkscape:groupmode="layer">
    <g
       id="g3726">
      <rect
         y="0"
         x="0"
         height="32"
         width="32"
         id="rect2837"
         style="fill:none;stroke:none" />
      <path
         id="path3710"
         d="M 16,1 C 15.292822,1 14.595477,1.084258 13.90625,1.21875 13.84567,1.230519 13.84918,1.241776 13.8125,1.25 13.8035,1.25184 13.79039,1.24821 13.78125,1.25 13.75174,1.25703 13.69381,1.278493 13.6875,1.28125 13.452111,1.322102 13.180524,1.346427 12.875,1.4375 11.903707,1.7259459 10.998072,2.1822605 10.1875,2.6875 10.12204,2.728505 10.023368,2.765408 9.90625,2.84375 9.880769,2.860455 9.879134,2.8511 9.84375,2.875 a 1.0001,1.0001 0 0 0 0,0.03125 C 9.5820189,3.0839235 9.324564,3.2545808 9.0625,3.46875 8.5101504,3.918266 7.9727883,4.427113 7.5,5 c -3.74e-5,4.53e-5 0.00148,0.028138 0,0.03125 C 7.4978892,5.0356959 7.473341,5.052771 7.46875,5.0625 7.2641809,5.31335 7.0621558,5.5667229 6.875,5.84375 6.8101154,5.9446352 6.741863,6.0584829 6.84375,5.90625 6.6806887,6.1513007 6.5155,6.4338371 6.34375,6.75 6.3151304,6.8021452 6.3323947,6.80585 6.3125,6.84375 6.1992859,7.0570664 6.0249878,7.3401143 5.875,7.6875 5.87059,7.697717 5.87938,7.708397 5.875,7.71875 5.8359761,7.8159042 5.7749241,7.9026663 5.8125,7.8125 5.6234742,8.2717776 5.4929647,8.7437381 5.375,9.1875 5.2329272,9.7193803 5.1521536,10.217129 5.09375,10.71875 5.1186748,10.501859 5.0942063,10.562792 5.0625,10.875 c -0.021955,0.212601 -0.018997,0.221069 0,0.03125 C 5.0297697,11.238621 5,11.604769 5,12 l 0,14 a 1.0001,1.0001 0 0 0 -0.9375,1.3125 l 0.09375,0.25 0.90625,2.75 A 1.0001,1.0001 0 0 0 6,31 l 2,0 10,0 1,0 1,0 1,0 1,0 2,0 2,0 a 1.0001,1.0001 0 0 0 0.90625,-0.5625 l 1,-2 A 1.0001,1.0001 0 0 0 27,27 L 27,12 C 27,11.603966 26.97404,11.228862 26.9375,10.875 26.90579,10.562808 26.88133,10.501874 26.90625,10.71875 26.83253,10.085611 26.730636,9.4638531 26.53125,8.8125 26.43596,8.4994206 26.32763,8.1529769 26.1875,7.8125 26.22508,7.902663 26.16402,7.8159 26.125,7.71875 26.1206,7.708397 26.1294,7.697717 26.125,7.6875 25.975012,7.3401139 25.800714,7.0570668 25.6875,6.84375 25.6676,6.80585 25.6849,6.802146 25.65625,6.75 25.484501,6.4338385 25.319313,6.1513022 25.15625,5.90625 25.258139,6.0584853 25.18989,5.944635 25.125,5.84375 24.937844,5.5667232 24.73582,5.3133508 24.53125,5.0625 24.522114,5.051297 24.509157,5.0424033 24.5,5.03125 24.498523,5.0281379 24.500037,5.0000453 24.5,5 24.027212,4.427113 23.48985,3.918266 22.9375,3.46875 22.641759,3.2270586 22.362042,3.0232141 22.09375,2.84375 21.980617,2.7684687 21.882039,2.7308445 21.8125,2.6875 21.613142,2.5626089 21.392609,2.4225901 21.125,2.28125 20.556688,1.9826523 19.94275,1.6744976 19.28125,1.46875 19.137939,1.4240173 19.071014,1.4214075 19.125,1.4375 18.767521,1.331339 18.420967,1.2823179 18.09375,1.21875 17.404523,1.0842577 16.707178,1 16,1 z m 0,1 c 0.639806,0 1.276726,0.064658 1.90625,0.1875 0.316724,0.061529 0.632216,0.1280894 0.9375,0.21875 0.04076,0.01215 0.08437,0.018568 0.125,0.03125 0.581527,0.1808735 1.156852,0.4399414 1.6875,0.71875 0.21535,0.1137391 0.416628,0.2444621 0.625,0.375 0.08431,0.052552 0.167393,0.1012815 0.25,0.15625 0.264249,0.1767596 0.530988,0.3579756 0.78125,0.5625 0.514522,0.4187309 0.984059,0.8634228 1.40625,1.375 0.005,0.00601 -0.0049,0.025228 0,0.03125 0.197829,0.2409459 0.387527,0.4910057 0.5625,0.75 0.01256,0.018505 0.01881,0.043918 0.03125,0.0625 0.164906,0.2478223 0.326037,0.4872897 0.46875,0.75 0.01542,0.028097 0.0161,0.065514 0.03125,0.09375 0.136149,0.2565296 0.292394,0.5120637 0.40625,0.78125 0.01279,0.02987 0.01875,0.063758 0.03125,0.09375 0.119058,0.2892769 0.220535,0.6040975 0.3125,0.90625 0.174907,0.5713852 0.274051,1.151367 0.34375,1.75 0.005,0.04381 0.02678,0.08102 0.03125,0.125 C 25.972298,11.305728 26,11.65796 26,12 l 0,17 1,-1 -1,2 -2,0 -2,0 -1,0 -1,0 -1,0 -1,0 L 8,30 6,30 5,27 6,28.5 6,28 6,12 c 0,-0.334756 0.030367,-0.673691 0.0625,-1 0.00104,-0.01037 -0.00107,-0.02089 0,-0.03125 0.00447,-0.04398 0.026215,-0.08119 0.03125,-0.125 C 6.149518,10.364768 6.2202421,9.8998785 6.34375,9.4375 6.4555918,9.0167712 6.5866051,8.5845019 6.75,8.1875 6.7624989,8.1575079 6.7684586,8.1236197 6.78125,8.09375 6.8951062,7.8245637 7.0513512,7.5690296 7.1875,7.3125 7.202646,7.284264 7.203329,7.246847 7.21875,7.21875 7.3614628,6.9560397 7.5225944,6.7165723 7.6875,6.46875 7.699937,6.450168 7.706185,6.424755 7.71875,6.40625 7.8937231,6.1472557 8.0834214,5.8971959 8.28125,5.65625 8.28619,5.65023 8.27629,5.631012 8.28125,5.625 8.703441,5.1134228 9.172978,4.6687309 9.6875,4.25 9.9198504,4.0601139 10.161781,3.8847053 10.40625,3.71875 c 0.01941,-0.013112 0.04299,-0.018271 0.0625,-0.03125 0.08294,-0.055479 0.165813,-0.1035099 0.25,-0.15625 0.74969,-0.4672909 1.57244,-0.8681022 2.4375,-1.125 C 13.433431,2.3236256 13.717868,2.2767047 14,2.21875 14.032351,2.2121301 14.061286,2.1938067 14.09375,2.1875 14.723274,2.0646579 15.360194,2 16,2 z"
         style="font-size:medium;font-style:normal;font-variant:normal;font-weight:normal;font-stretch:normal;text-indent:0;text-align:start;text-decoration:none;line-height:normal;letter-spacing:normal;word-spacing:normal;text-transform:none;direction:ltr;block-progression:tb;writing-mode:lr-tb;text-anchor:start;color:#000000;fill:#000000;fill-opacity:1;fill-rule:nonzero;stroke:none;stroke-width:2;marker:none;visibility:visible;display:inline;overflow:visible;enable-background:accumulate;font-family:Bitstream Vera Sans;-inkscape-font-specification:Bitstream Vera Sans" />
      <path
         id="rect3595"
         d="M 16,2 C 10.477153,2 6,6.4771525 6,12 l 0,16 20,0 0,-16 C 26,6.4771525 21.522847,2 16,2 z"
         style="fill:#ff0000;fill-opacity:0.1254902;fill-rule:nonzero;stroke:none" />
      <path
         sodipodi:nodetypes="cccccc"
         id="path3614"
         d="M 16,4 C 11.581722,4 8,7.581722 8,12 l 0,18 16,0 0,-18 C 24,7.581722 20.418278,4 16,4 z"
         style="fill:#d0d0d0;fill-opacity:1;fill-rule:nonzero;stroke:none" />
      <path
         id="path3687"
         d="M 14.090756,18.931092 16.188235,20.168067 18,23.12605 l -2.994958,-1.021848 -3.119328,0.968067 3.119328,-2.205042 -0.914286,-1.936135 z"
         style="fill:#4d4d4d;fill-opacity:0.18823529;fill-rule:nonzero;stroke:none" />
      <path
         d="m 11.4852,22.554442 -1.283046,0.95127 -1.1781712,0.657152 0.2032953,-0.875476 -2.4733411,-0.122491 1.9622554,-1.99844 -0.5478572,-0.527692 1.4708765,0.03857 0.6986703,0.399767 -0.236137,0.201876 1.383455,1.275465 z"
         inkscape:randomized="0.316"
         inkscape:rounded="0"
         inkscape:flatsided="false"
         sodipodi:arg2="1.0465429"
         sodipodi:arg1="0.41822433"
         sodipodi:r2="1.0411815"
         sodipodi:r1="2.1601276"
         sodipodi:cy="22.130252"
         sodipodi:cx="9.2665967"
         sodipodi:sides="5"
         id="path3701"
         style="fill:#4d4d4d;fill-opacity:0.18823529;fill-rule:nonzero;stroke:none"
         sodipodi:type="star" />
      <path
         id="path3685"
         d="M 23.072269,22.05042 20.060504,20.921008 17,24 16,23 16.026891,22.05042 15,23 l 3,2.115966 1.038655,-3.065546 2.097479,-1.129412 1.936135,1.129412 z"
         style="fill:#4d4d4d;fill-opacity:0.18823529;fill-rule:nonzero;stroke:none" />
      <path
         sodipodi:nodetypes="ccccccc"
         id="path3693"
         d="m 18.588025,13.247477 -2.088025,1.3708 1.265546,0 0,1.590126 0.493488,-1.644958 0.438655,-0.493489 -0.109664,-0.822479 z"
         style="fill:#4d4d4d;fill-opacity:0.18823529;fill-rule:nonzero;stroke:none" />
      <path
         id="path3689"
         d="M 7.0733193,16.015126 8,14.973319 8.7731093,15.905462 11.35021,14.973319 8.2004466,19.220042 7.0733193,16.015126 z"
         style="fill:#4d4d4d;fill-opacity:0.18823529;fill-rule:nonzero;stroke:none" />
      <path
         d="m 21.979204,24.037829 -0.941715,-0.454721 -1.829557,1.6922 0.656638,-3.480711 -2.124257,-1.910541 1.95222,-0.04798 -0.483948,-1.793695 2.803122,2.663869 2.392902,0.267908 -2.102441,1.576293 -0.322964,1.487374 z"
         inkscape:randomized="0.316"
         inkscape:rounded="0"
         inkscape:flatsided="false"
         sodipodi:arg2="1.4711248"
         sodipodi:arg1="0.84280628"
         sodipodi:r2="1.6285492"
         sodipodi:r1="3.3787328"
         sodipodi:cy="21.307773"
         sodipodi:cx="20.342647"
         sodipodi:sides="5"
         id="path3705"
         style="fill:#4d4d4d;fill-opacity:0.18823529;fill-rule:nonzero;stroke:none"
         sodipodi:type="star" />
      <path
         id="path3683"
         d="m 23.072269,10.110924 -0.984023,1.014079 -2.027679,-1.124284 3.011702,0.110205 z"
         style="fill:#4d4d4d;fill-opacity:0.18823529;fill-rule:nonzero;stroke:none" />
      <path
         sodipodi:nodetypes="cccccccc"
         id="path3669"
         d="m 11.939496,11.939496 1.021849,-3.8722691 6.189915,-2.0985294 -2.063655,3.1382353 -4.072479,-1.0934874 0.0095,3.0196306 -1.08511,0.90642 -2e-5,0 z"
         style="fill:#4d4d4d;fill-opacity:0.18991098;fill-rule:nonzero;stroke:none" />
      <path
         sodipodi:nodetypes="cccccccccc"
         id="path3648"
         d="m 10.594958,9.4655462 4.356303,3.6033618 2.097478,6.07731 1.936135,-0.05378 L 17,22 20.006723,18.877311 17.045966,17.956612 15.005042,13.068908 14.059034,10.00126 10.594958,9.4655462 z"
         style="fill:#4d4d4d;fill-opacity:0.18991098;fill-rule:nonzero;stroke:none" />
      <path
         id="path3680"
         d="M 10 10 L 10 18 L 11 18 L 11 15 C 11.06505 15 11.123698 14.97363 11.1875 14.96875 L 12.9375 18 L 14.09375 18 L 12.1875 14.6875 C 12.966813 14.264152 13.5 13.44924 13.5 12.5 C 13.5 11.119288 12.380712 10 11 10 L 10 10 z M 15.5 10 L 15.5 18 L 16.5 18 L 16.5 10 L 15.5 10 z M 19 10 L 19 18 L 20 18 L 20 15 C 21.380712 15 22.5 13.880712 22.5 12.5 C 22.5 11.119288 21.380712 10 20 10 L 19 10 z M 11 11 C 11.828427 11 12.5 11.671573 12.5 12.5 C 12.5 13.328427 11.828427 14 11 14 L 11 11 z M 20 11 C 20.828427 11 21.5 11.671573 21.5 12.5 C 21.5 13.328427 20.828427 14 20 14 L 20 11 z M 14.5 17 C 14.223858 17 14 17.223858 14 17.5 C 14 17.776142 14.223858 18 14.5 18 C 14.776142 18 15 17.776142 15 17.5 C 15 17.223858 14.776142 17 14.5 17 z M 17.25 17 C 16.973858 17 16.75 17.223858 16.75 17.5 C 16.75 17.776142 16.973858 18 17.25 18 C 17.526142 18 17.75 17.776142 17.75 17.5 C 17.75 17.223858 17.526142 17 17.25 17 z M 20.75 17 C 20.473858 17 20.25 17.223858 20.25 17.5 C 20.25 17.776142 20.473858 18 20.75 18 C 21.026142 18 21.25 17.776142 21.25 17.5 C 21.25 17.223858 21.026142 17 20.75 17 z "
         style="fill:#000000;fill-opacity:1;fill-rule:nonzero;stroke:none" />
      <path
         sodipodi:nodetypes="cccsccccsc"
         id="path3627"
         d="M 16,2 C 13.440777,2 10.890121,2.9848785 8.9375,4.9375 l 1.40625,1.40625 c 3.126874,-3.1268739 8.185626,-3.1268738 11.3125,0 C 23.157828,7.8453278 24,9.8764483 24,12 l 0,18 2,0 0,-18 C 26,9.3478351 24.937864,6.8128638 23.0625,4.9375 21.109879,2.9848786 18.559223,2 16,2 z"
         style="fill:#f0f0f0;fill-opacity:1;fill-rule:nonzero;stroke:none" />
      <path
         d="m 18.643321,11.580677 -2.154041,-2.1623457 -2.26789,1.4681647 1.071104,-1.9565249 -3.80772,-2.5301085 2.467209,0.405255 0.858482,-3.1383493 2.377953,2.9697199 1.847545,-1.3321443 -1.701338,1.673315 1.308696,4.6030181 z"
         inkscape:randomized="0.316"
         inkscape:rounded="0"
         inkscape:flatsided="false"
         sodipodi:arg2="1.4372789"
         sodipodi:arg1="0.80896039"
         sodipodi:r2="1.9723947"
         sodipodi:r1="4.0921051"
         sodipodi:cy="7.8739495"
         sodipodi:cx="16.17542"
         sodipodi:sides="5"
         id="path3709"
         style="fill:#4d4d4d;fill-opacity:0.18823529;fill-rule:nonzero;stroke:none"
         sodipodi:type="star" />
      <path
         id="path3679"
         d="M 6.9394553,23.008715 23.441599,29.264002 8.1226486,24.998631 6.9394553,23.008715 z"
         style="fill:#4d4d4d;fill-opacity:0.18823529;fill-rule:nonzero;stroke:none" />
      <path
         sodipodi:nodetypes="ccccccc"
         id="path3629"
         d="M 8.9375,4.9375 C 7.0621364,6.8128637 6.0000001,9.3478353 6,12 l 0,18 2,0 0,-18 c 10e-8,-2.1235515 0.8421724,-4.1546723 2.34375,-5.65625 L 8.9375,4.9375 z"
         style="fill:#a0a0a0;fill-opacity:1;fill-rule:nonzero;stroke:none" />
      <path
         transform="translate(0.65637992,1.201862)"
         d="M 8.6873414,18.583178 7.2705405,17.940034 5.7696909,18.960292 6.6289603,16.752431 6.3352167,15.846876 7.1090636,15.71842 7.8588185,14.432681 8.3626151,16.365813 10.252371,17.040866 9.2949661,18.26248 8.6873414,18.583178 z"
         inkscape:randomized="0.316"
         inkscape:rounded="0"
         inkscape:flatsided="false"
         sodipodi:arg2="1.7693526"
         sodipodi:arg1="1.141034"
         sodipodi:r2="1.0645361"
         sodipodi:r1="2.208581"
         sodipodi:cy="17.248665"
         sodipodi:cx="7.75212"
         sodipodi:sides="5"
         id="path3724"
         style="fill:#4d4d4d;fill-opacity:0.18823529;fill-rule:nonzero;stroke:none"
         sodipodi:type="star" />
      <path
         sodipodi:nodetypes="cccccc"
         id="path3638"
         d="M 10.908958,5.8292526 10.003361,4.9478992 10.013445,6.0134454 9.0352941,7.0453782 11.045168,8.0144958 10.908958,5.8292526 z"
         style="fill:#4d4d4d;fill-opacity:0.25098041;fill-rule:nonzero;stroke:none" />
      <path
         sodipodi:nodetypes="ccccccc"
         id="path3640"
         d="m 12.047059,6.0773118 2.904202,-0.053782 3.065546,0.9680672 0,2.0436975 -1.021849,-2.0436975 -1.880252,1.0955887 -3.067647,-2.009874 z"
         style="fill:#4d4d4d;fill-opacity:0.1882353;fill-rule:nonzero;stroke:none" />
      <path
         id="path3644"
         d="M 15.005042,3.9798319 13.124312,6.057362 15.058824,4.8941176 15.005042,3.9798319 z"
         style="fill:#4d4d4d;fill-opacity:0.18823529;fill-rule:nonzero;stroke:none" />
      <path
         id="path3646"
         d="M 12.907563,3.0117647 14.060616,5.0230826 15.005042,3.9798319 12.907563,3.0117647 z"
         style="fill:#4d4d4d;fill-opacity:0.1882353;fill-rule:nonzero;stroke:none" />
      <path
         id="path3671"
         d="M 24,24.040336 24,13.929412"
         style="fill:#4d4d4d;fill-opacity:0.37685457;fill-rule:nonzero;stroke:none" />
      <path
         sodipodi:nodetypes="cccc"
         id="path3675"
         d="M 24,25.028571 25.07563,16.100841 26,14.958492 24,25.028571 z"
         style="fill:#4d4d4d;fill-opacity:0.1882353;fill-rule:nonzero;stroke:none" />
      <path
         id="path3677"
         d="m 6.9915966,16.026891 4.1411764,4.087395 -0.107563,-1.129412 1.07563,1.236975 -2.043697,0.914285 -0.1075632,-1.129411 -0.8605042,0.05378 0,-2.043697 -2.097479,-0.968068 0,-1.021848 z"
         style="fill:#4d4d4d;fill-opacity:0.1882353;fill-rule:nonzero;stroke:none" />
      <path
         id="path3681"
         d="m 22.05042,8.0672269 0,-2.097479 -3.065546,0.9680672 2.15126,0.1075631 0.914286,1.0218487 z"
         style="fill:#4d4d4d;fill-opacity:0.18823529;fill-rule:nonzero;stroke:none" />
      <path
         id="path3691"
         d="M 7.0733193,10.889706 6.6346639,12.479832 8,12.260504 7.5668067,13.686134 8.8279412,11.986345 10,12.863655 8.4441177,10.505882 7.7313025,11.767017 7.0733193,10.889706 z"
         style="fill:#4d4d4d;fill-opacity:0.18823529;fill-rule:nonzero;stroke:none" />
      <path
         transform="translate(22.761761,7.8296112)"
         d="m 0.58111246,9.8596813 -0.94599006,-0.047674 -0.37745642,0.4560669 0.13286329,-1.2540405 -1.40229067,0.1563553 0.868638,-0.684694 0.5249049,-0.4935898 0.59758823,0.3523432 0.84368102,0.044972 -0.57037558,0.8413109 0.32843729,0.62895 z"
         inkscape:randomized="0.316"
         inkscape:rounded="0"
         inkscape:flatsided="false"
         sodipodi:arg2="1.296608"
         sodipodi:arg1="0.66828942"
         sodipodi:r2="0.6397782"
         sodipodi:r1="1.3273406"
         sodipodi:cy="9.0254202"
         sodipodi:cx="-0.49348739"
         sodipodi:sides="5"
         id="path3695"
         style="fill:#4d4d4d;fill-opacity:0.18823529;fill-rule:nonzero;stroke:none"
         sodipodi:type="star" />
      <path
         d="M 17.19469,7.335342 17.393103,5.9850808 16.068061,4.4911889 18.094249,4.1709949 17.805299,2.3602316 18.5416,3.5524543 20.15243,4.2129609 18.920335,5.3898574 19.702888,6.7818063 19.213697,5.4783787 17.19469,7.335342 z"
         inkscape:randomized="0.316"
         inkscape:rounded="0"
         inkscape:flatsided="false"
         sodipodi:arg2="2.5700821"
         sodipodi:arg1="1.9417636"
         sodipodi:r2="0.9992736"
         sodipodi:r1="2.0731818"
         sodipodi:cy="4.9678571"
         sodipodi:cx="18.478361"
         sodipodi:sides="5"
         id="path3697"
         style="fill:#4d4d4d;fill-opacity:0.18823529;fill-rule:nonzero;stroke:none"
         sodipodi:type="star" />
      <path
         d="m 21.78977,20.708114 -1.747099,0.594361 -0.694334,0.981215 -0.689763,-2.225687 -1.381343,-0.447064 2.306068,-0.699963 -0.727325,-1.242154 1.12028,1.765562 1.097334,-1.454793 0.421117,1.820162 0.295065,0.908361 z"
         inkscape:randomized="0.316"
         inkscape:rounded="0"
         inkscape:flatsided="false"
         sodipodi:arg2="1.1139406"
         sodipodi:arg1="0.48562209"
         sodipodi:r2="1.0758255"
         sodipodi:r1="2.2320032"
         sodipodi:cy="19.882143"
         sodipodi:cx="19.903992"
         sodipodi:sides="5"
         id="path3699"
         style="fill:#4d4d4d;fill-opacity:0.18823529;fill-rule:nonzero;stroke:none"
         sodipodi:type="star" />
      <path
         d="m 14.276546,21.979053 -1.783835,-0.808727 -0.980224,0.225997 0.211944,-1.911657 -1.679302,-0.124656 1.748121,-0.497266 -0.763637,-2.596115 2.629853,1.518352 0.396137,0.156283 -0.109095,1.803794 0.330038,2.233995 z"
         inkscape:randomized="0.316"
         inkscape:rounded="0"
         inkscape:flatsided="false"
         sodipodi:arg2="1.3581622"
         sodipodi:arg1="0.72984371"
         sodipodi:r2="1.4720401"
         sodipodi:r1="3.0540251"
         sodipodi:cy="19.22416"
         sodipodi:cx="12.172689"
         sodipodi:sides="5"
         id="path3703"
         style="fill:#4d4d4d;fill-opacity:0.18823529;fill-rule:nonzero;stroke:none"
         sodipodi:type="star" />
      <path
         transform="translate(-2.0202358,1.1960308)"
         d="m 23.269011,22.021085 2.247494,0.998865 0.494973,-1.422417 -0.527541,0.896406 2.397404,1.643509 -2.073318,1.182462 0.212213,0.484059 -1.321672,-0.436793 -0.814877,0.588714 0.699882,-1.398343 -1.314558,-2.536462 z"
         inkscape:randomized="0.316"
         inkscape:rounded="0"
         inkscape:flatsided="false"
         sodipodi:arg2="-2.0207884"
         sodipodi:arg1="-2.6491069"
         sodipodi:r2="1.2297294"
         sodipodi:r1="2.5513058"
         sodipodi:cy="23.939707"
         sodipodi:cx="25.332354"
         sodipodi:sides="5"
         id="path3707"
         style="fill:#4d4d4d;fill-opacity:0.18823529;fill-rule:nonzero;stroke:none"
         sodipodi:type="star" />
      <g
         id="g3712">
        <path
           id="path3698"
           d="m 14,30 3,-8 -4,8 1,-4 -2,4 -1,-7 0,7 -1,-4 0,4 -3,-6 2,6 5,0 z"
           style="fill:#006000;fill-opacity:1;fill-rule:nonzero;stroke:none"
           sodipodi:nodetypes="cccccccccccc" />
        <path
           style="fill:#008000;fill-opacity:1;fill-rule:nonzero;stroke:none"
           d="m 6,30 -1,-3 2,3 0,-6 1,6 2,-6 -1,6 3,-5 -2,5 4,-5 -3,5 -5,0 z"
           id="path3690"
           sodipodi:nodetypes="cccccccccccc" />
        <path
           id="path3702"
           d="m 18,30 0,-8 -1,8 -1,-6 0,6 -2,-8 1,8 -2,-5 1,5 -2,-6 1,6 5,0 z"
           style="fill:#00ff00;fill-opacity:1;fill-rule:nonzero;stroke:none"
           sodipodi:nodetypes="cccccccccccc" />
        <path
           id="path3700"
           d="m 18,30 -2,-7 3,7 0,-6 1,6 2,-6 -1,6 3,-5 -2,5 4,-5 -3,5 -5,0 z"
           style="fill:#005000;fill-opacity:1;fill-rule:nonzero;stroke:none" />
        <path
           id="path3694"
           d="m 18,30 3,-8 -4,8 1,-4 -2,4 -1,-7 0,7 -1,-4 0,4 -3,-6 2,6 5,0 z"
           style="fill:#008000;fill-opacity:1;fill-rule:nonzero;stroke:none"
           sodipodi:nodetypes="cccccccccccc" />
        <path
           sodipodi:nodetypes="cccccccccccc"
           style="fill:#008000;fill-opacity:1;fill-rule:nonzero;stroke:none"
           d="m 26,30 1,-2 -2,2 1,-4 -2,4 -1,-7 0,7 -1,-4 0,4 -3,-6 2,6 5,0 z"
           id="path3696" />
        <path
           sodipodi:nodetypes="cccccccccc"
           id="path3706"
           d="m 10,30 -3,-4 4,4 -2,-7 3,7 1,-4 0,4 1,-6 0,6 -4,0 z"
           style="fill:#80ff00;fill-opacity:1;fill-rule:nonzero;stroke:none" />
        <path
           style="fill:#80ff00;fill-opacity:1;fill-rule:nonzero;stroke:none"
           d="m 18,30 -5,-3 5,2 -1,-5 2,6 1,-6 0,6 1,-4 0,4 3,-3 -2,3 -4,0 z"
           id="path3708"
           sodipodi:nodetypes="cccccccccccc" />
      </g>
      <path
         transform="translate(1.4948302,1.1236129)"
         d="m 8.3547293,22.166108 -0.6878426,-0.934992 -1.1868651,1.180195 0.090478,-0.966353 -1.3811914,-0.543736 0.7533653,-0.311177 0.6969047,-1.668032 0.3258732,0.87434 1.8655075,0.399435 -1.1088531,0.407981 0.6326233,1.562339 z"
         inkscape:randomized="0.316"
         inkscape:rounded="0"
         inkscape:flatsided="false"
         sodipodi:arg2="1.1833143"
         sodipodi:arg1="0.55499573"
         sodipodi:r2="0.79072148"
         sodipodi:r1="1.6405009"
         sodipodi:cy="20.873756"
         sodipodi:cx="7.0828719"
         sodipodi:sides="5"
         id="path3722"
         style="fill:#4d4d4d;fill-opacity:0.18823529;fill-rule:nonzero;stroke:none"
         sodipodi:type="star" />
    </g>
  </g>
</svg>
