<?xml version="1.0" encoding="UTF-8" standalone="no"?>
<!-- Created with Inkscape (http://www.inkscape.org/) -->

<svg
   xmlns:dc="http://purl.org/dc/elements/1.1/"
   xmlns:cc="http://creativecommons.org/ns#"
   xmlns:rdf="http://www.w3.org/1999/02/22-rdf-syntax-ns#"
   xmlns:svg="http://www.w3.org/2000/svg"
   xmlns="http://www.w3.org/2000/svg"
   xmlns:sodipodi="http://sodipodi.sourceforge.net/DTD/sodipodi-0.dtd"
   xmlns:inkscape="http://www.inkscape.org/namespaces/inkscape"
   width="64"
   height="64"
   id="svg3505"
   sodipodi:version="0.32"
   inkscape:version="0.91 r13725"
   sodipodi:docname="down-00.svg"
   inkscape:output_extension="org.inkscape.output.svg.inkscape"
   version="1.1"
   viewBox="0 0 64 64">
  <sodipodi:namedview
     id="base"
     pagecolor="#ffffff"
     bordercolor="#666666"
     borderopacity="1.0"
     inkscape:pageopacity="0.0"
     inkscape:pageshadow="2"
     inkscape:zoom="11.0625"
     inkscape:cx="-38.734464"
     inkscape:cy="28.3515"
     inkscape:current-layer="svg3505"
     showgrid="true"
     inkscape:grid-bbox="true"
     inkscape:document-units="px"
     objecttolerance="10000"
     gridtolerance="10000"
     guidetolerance="10000"
     inkscape:window-width="1920"
     inkscape:window-height="1021"
     inkscape:window-x="0"
     inkscape:window-y="30"
     inkscape:object-paths="true"
     inkscape:object-nodes="true"
     inkscape:snap-bbox="true"
     inkscape:snap-guide="true"
     showguides="true"
     inkscape:guide-bbox="true"
     inkscape:window-maximized="1"
     inkscape:snap-perpendicular="true"
     inkscape:snap-tangential="true"
     inkscape:snap-path-clip="true"
     inkscape:snap-path-mask="true">
    <inkscape:grid
       type="xygrid"
       id="grid3515"
       units="px"
       visible="true"
       enabled="true"
       spacingx="1px"
       spacingy="1px"
       empspacing="4"
       snapvisiblegridlinesonly="true" />
    <sodipodi:guide
       orientation="1,0"
       position="32,32"
       id="guide2868" />
    <sodipodi:guide
       orientation="0,1"
       position="35,32"
       id="guide2870" />
    <sodipodi:guide
       position="48,64"
       orientation="1,0"
       id="guide36373" />
    <sodipodi:guide
       position="-23,16"
       orientation="0,1"
       id="guide36375" />
    <sodipodi:guide
       position="28,30"
       orientation="0,1"
       id="guide6268" />
    <sodipodi:guide
       position="35,28"
       orientation="1,0"
       id="guide6270" />
  </sodipodi:namedview>
  <defs
     id="defs3507">
    <inkscape:perspective
       sodipodi:type="inkscape:persp3d"
       inkscape:vp_x="0 : 16 : 1"
       inkscape:vp_y="0 : 1000 : 0"
       inkscape:vp_z="32 : 16 : 1"
       inkscape:persp3d-origin="16 : 10.666667 : 1"
       id="perspective2836" />
    <inkscape:perspective
       id="perspective2899"
       inkscape:persp3d-origin="0.5 : 0.33333333 : 1"
       inkscape:vp_z="1 : 0.5 : 1"
       inkscape:vp_y="0 : 1000 : 0"
       inkscape:vp_x="0 : 0.5 : 1"
       sodipodi:type="inkscape:persp3d" />
    <inkscape:perspective
       id="perspective3072"
       inkscape:persp3d-origin="0.5 : 0.33333333 : 1"
       inkscape:vp_z="1 : 0.5 : 1"
       inkscape:vp_y="0 : 1000 : 0"
       inkscape:vp_x="0 : 0.5 : 1"
       sodipodi:type="inkscape:persp3d" />
  </defs>
  <metadata
     id="metadata3510">
    <rdf:RDF>
      <cc:Work
         rdf:about="">
        <dc:format>image/svg+xml</dc:format>
        <dc:type
           rdf:resource="http://purl.org/dc/dcmitype/StillImage" />
        <dc:title />
        <dc:date>2010-05-08</dc:date>
        <dc:creator>
          <cc:Agent>
            <dc:title>Andreas Neudecker &lt;zapyon@gmx.net&gt;</dc:title>
          </cc:Agent>
        </dc:creator>
        <dc:rights>
          <cc:Agent>
            <dc:title>Copyright (C) 2010 by Andreas Neudecker</dc:title>
          </cc:Agent>
        </dc:rights>
        <dc:publisher>
          <cc:Agent>
            <dc:title>Andreas Neudecker</dc:title>
          </cc:Agent>
        </dc:publisher>
        <dc:identifier>__empty__</dc:identifier>
        <dc:description>Template for McMinos SVG icons at a base size of 32x32 pixels.</dc:description>
      </cc:Work>
    </rdf:RDF>
  </metadata>
  <g
     id="g8024"
     transform="matrix(0,-1,1,0,-2.0007739,67.003055)">
    <path
       style="opacity:1;fill:#ff0000;fill-opacity:1;fill-rule:nonzero;stroke:none;stroke-width:2;stroke-linecap:round;stroke-linejoin:round;stroke-miterlimit:4;stroke-dasharray:none;stroke-dashoffset:0;stroke-opacity:1"
       d="m 35.776647,31.100847 a 3,3 0 0 1 2.222656,2.898438 l 2,2 2,-2 a 7,7 0 0 0 -5.185547,-6.761719 l 1.412109,2.447266 -2.449218,1.414062 0,0.002 z"
       id="path7915"
       inkscape:connector-curvature="0"
       inkscape:transform-center-x="-2.3804716"
       inkscape:transform-center-y="3.8867964" />
    <path
       inkscape:transform-center-y="2.3804719"
       inkscape:transform-center-x="3.8867959"
       inkscape:connector-curvature="0"
       id="path7932"
       d="m 37.899229,34.774365 a 3,3 0 0 1 -2.898438,2.222656 l -2,2 2,2 a 7,7 0 0 0 6.761719,-5.185547 l -2.447266,1.412109 -1.414062,-2.449218 -0.002,0 z"
       style="opacity:1;fill:#ff0000;fill-opacity:1;fill-rule:nonzero;stroke:none;stroke-width:2;stroke-linecap:round;stroke-linejoin:round;stroke-miterlimit:4;stroke-dasharray:none;stroke-dashoffset:0;stroke-opacity:1" />
    <path
       style="opacity:1;fill:#ff0000;fill-opacity:1;fill-rule:nonzero;stroke:none;stroke-width:2;stroke-linecap:round;stroke-linejoin:round;stroke-miterlimit:4;stroke-dasharray:none;stroke-dashoffset:0;stroke-opacity:1"
       d="M 34.225711,36.896948 A 3,3 0 0 1 32.003055,33.99851 l -2,-2 -2,2 a 7,7 0 0 0 5.185547,6.761719 l -1.412109,-2.447266 2.449218,-1.414062 0,-0.002 z"
       id="path7934"
       inkscape:connector-curvature="0"
       inkscape:transform-center-x="2.3804724"
       inkscape:transform-center-y="-3.8867956" />
    <path
       inkscape:transform-center-y="-2.3804721"
       inkscape:transform-center-x="-3.8867951"
       inkscape:connector-curvature="0"
       id="path7936"
       d="m 32.103128,33.22343 a 3,3 0 0 1 2.898438,-2.222656 l 2,-2 -2,-2 a 7,7 0 0 0 -6.761719,5.185547 l 2.447266,-1.412109 1.414062,2.449218 0.002,0 z"
       style="opacity:1;fill:#ff0000;fill-opacity:1;fill-rule:nonzero;stroke:none;stroke-width:2;stroke-linecap:round;stroke-linejoin:round;stroke-miterlimit:4;stroke-dasharray:none;stroke-dashoffset:0;stroke-opacity:1" />
  </g>
  <g
     id="layer1"
     inkscape:label="Layer 1"
     inkscape:groupmode="layer"
     transform="translate(0,32)" />
  <path
     inkscape:connector-curvature="0"
     id="path6114"
     d="m -30,48 -6,-10 25,0 -6,10 z"
     style="opacity:1;fill:red;fill-opacity:0.25098039;fill-rule:nonzero;stroke:none;stroke-width:2;stroke-linecap:round;stroke-linejoin:round;stroke-miterlimit:4;stroke-dasharray:none;stroke-dashoffset:0;stroke-opacity:1" />
  <g
     id="g7244"
     transform="matrix(0,-1.4116415,1.5,0,-33,14.826425)">
    <path
       style="color:#000000;font-style:normal;font-variant:normal;font-weight:normal;font-stretch:normal;font-size:medium;line-height:normal;font-family:Sans;-inkscape-font-specification:Sans;text-indent:0;text-align:start;text-decoration:none;text-decoration-line:none;letter-spacing:normal;word-spacing:normal;text-transform:none;direction:ltr;block-progression:tb;writing-mode:lr-tb;baseline-shift:baseline;text-anchor:start;display:inline;overflow:visible;visibility:visible;fill:#000000;fill-opacity:1;fill-rule:nonzero;stroke:none;stroke-width:2;marker:none;enable-background:accumulate"
       d="m -13.34375,38 c 1.284931,0 1.531427,1.353872 0.677083,2.777778 0,0 -3.768116,6.280193 -3.768116,6.280193 C -16.756273,47.593788 -17.550586,48 -18.21875,48 c 0,0 -10.5625,0 -10.5625,0 -0.668164,0 -1.462477,-0.406212 -1.783967,-0.942029 0,0 -3.768116,-6.280193 -3.768116,-6.280193 C -35.187677,39.353872 -34.941181,38 -33.65625,38 c 0,0 20.3125,0 20.3125,0"
       id="rect3831-8"
       inkscape:connector-curvature="0"
       sodipodi:nodetypes="sssssssss" />
    <path
       transform="scale(-1,1)"
       style="fill:#0000ff;stroke:none"
       d="m 13.832576,39.016243 c 0,0 19.334848,0 19.334848,0 0.819748,0 1.014874,0.826338 0.488826,1.761534 0,0 -3.532602,6.280182 -3.532602,6.280182 -0.206107,0.366413 -0.733595,0.645232 -1.194001,0.645232 0,0 -10.859294,0 -10.859294,0 -0.460406,0 -0.987894,-0.278819 -1.194001,-0.645232 0,0 -3.532602,-6.280182 -3.532602,-6.280182 -0.526048,-0.935196 -0.330922,-1.761534 0.488826,-1.761534 0,0 0,0 0,0"
       id="rect2989-37"
       inkscape:connector-curvature="0" />
    <path
       style="fill:#ffffff;fill-opacity:1;stroke:none"
       d="m -28.229627,39.881661 c -0.08952,0.01943 -0.159417,0.07679 -0.229906,0.138843 -0.0446,0.03912 -0.08899,0.08041 -0.118592,0.134667 0,0 -0.756248,1.391132 -0.756248,1.391132 0,0 -1.64918,3.032644 -1.64918,3.032644 0,0 3.390702,2.127419 3.390702,2.127419 0,0 0.95954,0.602144 0.95954,0.602144 0.03286,0.02066 0.07099,0.03608 0.108439,0.05068 0.05876,0.02303 0.115146,0.04316 0.173893,0.05024 0.05867,0.0071 0.119231,2.77e-4 0.17123,-0.0097 0.103832,-0.02192 0.189409,-0.0824 0.233571,-0.163099 0.0309,-0.05638 0.03224,-0.116784 0.01745,-0.178952 0,0 -0.07246,-0.351319 -0.07246,-0.351319 0,0 8.867845,0 8.867845,0 0,0 2.709033,-5.160063 2.709033,-5.160063 0,0 -12.641141,0 -12.641141,0 0,0 -0.15837,-0.767855 -0.15837,-0.767855 -0.02747,-0.148126 -0.07965,-0.295856 -0.176923,-0.437527 -0.143446,-0.208991 -0.340862,-0.370694 -0.5343,-0.430442 -0.09648,-0.0271 -0.204331,-0.04606 -0.29403,-0.0266 0,0 -5.54e-4,-0.0022 -5.54e-4,-0.0022 0,0 0,0 0,0"
       id="rect2995-4"
       inkscape:connector-curvature="0" />
    <g
       transform="matrix(0.78125,0,0,0.77777778,-32.762085,-781.05949)"
       style="font-style:normal;font-variant:normal;font-weight:bold;font-stretch:normal;font-size:8px;font-family:Impact;-inkscape-font-specification:'Impact Bold';text-align:start;text-anchor:start;fill:#000000;fill-opacity:1;stroke:none"
       id="text2999-7">
      <path
         inkscape:connector-curvature="0"
         d="m 7.8631629,1059.2479 c 0,0 0.7974272,4.1175 0.7974272,4.1175 0,0 -0.971936,0 -0.971936,0 0,0 -0.4997442,-1.9785 -0.4997442,-1.9785 -0.082223,-0.3256 -0.1413802,-0.5268 -0.1754452,-0.5955 -0.034314,-0.069 -0.094239,-0.1213 -0.1798734,-0.1563 -0.084547,-0.037 -0.2581699,-0.055 -0.5206252,-0.055 0,0 -0.1124811,0 -0.1124811,0 0,0 -0.1584492,-0.5402 -0.1584492,-0.5402 0.5317792,-0.1243 0.8999985,-0.3845 1.1056573,-0.7915 0,0 0.7154858,0 0.7154858,0"
         style="-inkscape-font-specification:'Impact Bold';letter-spacing:1px;fill:#000000"
         id="path4062" />
      <path
         inkscape:connector-curvature="0"
         d="m 13.902728,1059.2479 c 0,0 -0.858803,4.1175 -0.858803,4.1175 0,0 -1.265441,0 -1.265441,0 -0.121572,-0.5221 -0.23797,-1.1572 -0.35023,-1.9276 -0.03615,0.3373 -0.118161,1.0034 -0.236781,1.9276 0,0 -1.2582242,0 -1.2582242,0 0,0 -1.0449532,-4.1175 -1.0449532,-4.1175 0,0 1.2295584,0 1.2295584,0 0,0 0.258136,1.6517 0.258136,1.6517 0,0 0.21909,1.3604 0.21909,1.3604 -0.0077,-0.6786 0.03329,-1.6526 0.133043,-3.0121 0,0 1.31674,0 1.31674,0 0.01653,0.1493 0.05562,0.6921 0.113363,1.5679 0,0 0.09309,1.5341 0.09309,1.5341 0.08419,-0.946 0.221827,-1.9764 0.42185,-3.102 0,0 1.229558,0 1.229558,0"
         style="-inkscape-font-specification:'Impact Bold';letter-spacing:1px;fill:#000000"
         id="path4064" />
      <path
         inkscape:connector-curvature="0"
         d="m 17.056289,1059.2479 c 0,0 -0.459024,4.1175 -0.459024,4.1175 0,0 -1.036892,0 -1.036892,0 0,0 0.08556,-0.6143 0.08556,-0.6143 0,0 -0.376801,0 -0.376801,0 0,0 -0.182701,0.6143 -0.182701,0.6143 0,0 -1.048921,0 -1.048921,0 0,0 1.187966,-4.1175 1.187966,-4.1175 0,0 1.830809,0 1.830809,0 m -1.296921,2.8508 c 0.04081,-0.4435 0.107804,-1.0224 0.204835,-1.7612 -0.293812,0.8438 -0.481163,1.4164 -0.577868,1.7612 0,0 0.373033,0 0.373033,0"
         style="-inkscape-font-specification:'Impact Bold';letter-spacing:1px;fill:#000000"
         id="path4066" />
      <path
         inkscape:connector-curvature="0"
         d="m 21.090683,1059.2479 c 0,0 -2.064821,2.8319 -2.064821,2.8319 0,0 -0.518406,1.2856 -0.518406,1.2856 0,0 -0.938254,0 -0.938254,0 0,0 0.445284,-1.2856 0.445284,-1.2856 0,0 0.09098,-2.8319 0.09098,-2.8319 0,0 1.163421,0 1.163421,0 -0.169745,0.9556 -0.294523,1.5508 -0.383689,1.8433 0.240062,-0.4662 0.582021,-1.0725 1.042059,-1.8433 0,0 1.163421,0 1.163421,0"
         style="-inkscape-font-specification:'Impact Bold';letter-spacing:1px;fill:#000000"
         id="path4068" />
    </g>
  </g>
</svg>
