<?xml version="1.0" encoding="UTF-8" standalone="no"?>
<!-- Created with Inkscape (http://www.inkscape.org/) -->

<svg xmlns:dc="http://purl.org/dc/elements/1.1/" xmlns:cc="http://creativecommons.org/ns#" xmlns:rdf="http://www.w3.org/1999/02/22-rdf-syntax-ns#" xmlns:svg="http://www.w3.org/2000/svg" xmlns="http://www.w3.org/2000/svg" xmlns:xlink="http://www.w3.org/1999/xlink" xmlns:sodipodi="http://sodipodi.sourceforge.net/DTD/sodipodi-0.dtd" xmlns:inkscape="http://www.inkscape.org/namespaces/inkscape" width="32" height="32" id="svg4150" version="1.1" inkscape:version="0.91 r13725" viewBox="0 0 32 32" sodipodi:docname="00.svg">
  <defs id="defs4152" />
  <sodipodi:namedview id="base" pagecolor="#ffffff" bordercolor="#666666" borderopacity="1.0" inkscape:pageopacity="0.0" inkscape:pageshadow="2" inkscape:zoom="22.627417" inkscape:cx="16" inkscape:cy="16" inkscape:current-layer="layer1" showgrid="true" inkscape:grid-bbox="true" inkscape:document-units="px" objecttolerance="10000" inkscape:snap-perpendicular="true" guidetolerance="10000" inkscape:window-width="1600" inkscape:window-height="878" inkscape:window-x="0" inkscape:window-y="0" inkscape:window-maximized="1" showguides="false" inkscape:guide-bbox="true">
    <inkscape:grid type="xygrid" id="grid4698" empspacing="4" />
    <sodipodi:guide position="16,32" orientation="1,0" id="guide4769" />
    <sodipodi:guide position="-4,16" orientation="0,1" id="guide4771" />
    <sodipodi:guide position="16,16" orientation="-0.70710678,0.70710678" id="guide4773" />
    <sodipodi:guide position="16,16" orientation="0.70710678,0.70710678" id="guide4775" />
  </sodipodi:namedview>
  <metadata id="metadata4155">
    <rdf:RDF>
      <cc:Work rdf:about="">
        <dc:format>image/svg+xml</dc:format>
        <dc:type rdf:resource="http://purl.org/dc/dcmitype/StillImage" />
        <dc:title></dc:title>
      </cc:Work>
    </rdf:RDF>
  </metadata>
  <g id="layer1" inkscape:label="Layer 1" inkscape:groupmode="layer">
    <path style="color:black;font-style:normal;font-variant:normal;font-weight:normal;font-stretch:normal;font-size:medium;line-height:normal;font-family:sans-serif;text-indent:0;text-align:start;text-decoration:none;text-decoration-line:none;text-decoration-style:solid;text-decoration-color:black;letter-spacing:normal;word-spacing:normal;text-transform:none;direction:ltr;block-progression:tb;writing-mode:lr-tb;baseline-shift:baseline;text-anchor:start;white-space:normal;clip-rule:nonzero;display:inline;overflow:visible;visibility:visible;opacity:1;isolation:auto;mix-blend-mode:normal;color-interpolation:sRGB;color-interpolation-filters:linearRGB;solid-color:black;solid-opacity:1;fill:black;fill-opacity:1;fill-rule:nonzero;stroke:none;stroke-width:2;stroke-linecap:butt;stroke-linejoin:miter;stroke-miterlimit:4;stroke-dasharray:none;stroke-dashoffset:0;stroke-opacity:1;color-rendering:auto;image-rendering:auto;shape-rendering:auto;text-rendering:auto;enable-background:accumulate" d="M 22.759766,2.6894531 C 20.44542,2.7653425 18.649788,4.5136517 17.150391,6.453125 15.126959,6.2464958 13.788535,6.4701027 12.119141,7.0292969 11.1221,5.8663141 9.9950117,4.8675613 8.5859375,4.5039062 6.9498976,4.0816757 5.0928716,4.6387061 3.4375,6.2929688 2.5302088,7.1996508 1.9533545,8.1157297 1.7285156,9.0664062 c -0.2248388,0.9506768 -0.053587,1.9036138 0.375,2.6933598 0.720352,1.327373 2.0826256,2.24291 3.5878906,3.03125 -0.7835222,1.047785 -0.480738,2.388723 -0.2910156,3.515625 -1.3691624,0.731791 -2.605821,1.627731 -3.2714844,2.943359 -0.7685328,1.518941 -0.6171052,3.47005 0.6699219,5.455078 0.8527584,1.315242 1.8414903,2.159829 2.9589844,2.47461 1.1174941,0.31478 2.2505268,0.04192 3.2148437,-0.507813 1.2042928,-0.686534 2.2247918,-1.82303 3.1699218,-3.072266 0.134133,0.325942 0.140195,0.685133 0.410156,0.96875 0.553149,0.581132 1.37458,0.922114 2.353516,1.00586 0.978936,0.08375 2.147523,-0.05841 3.613281,-0.451172 0.842552,-0.225767 1.421153,-0.506967 2.025391,-0.783203 1.007442,1.287271 2.117153,2.400724 3.527344,2.8125 0.820341,0.239539 1.741227,0.208259 2.59375,-0.169922 0.852522,-0.378182 1.623597,-1.062375 2.341796,-2.039063 1.484058,-2.018188 1.666453,-4.082258 0.837891,-5.68164 -0.72448,-1.398472 -2.070866,-2.373385 -3.548828,-3.185547 0.177461,-2.140718 -0.15049,-3.636018 -0.884766,-5.425781 1.251157,-0.688687 2.362831,-1.502685 2.910157,-2.7070316 0.667511,-1.4688041 0.274799,-3.3054017 -1.222657,-5.03125 C 25.769232,3.3788202 24.246035,2.6407171 22.759766,2.6894531 Z" id="path5703" inkscape:connector-curvature="0" sodipodi:nodetypes="sccssssccsssscssscssssccsss" />
    <g transform="matrix(2.6196318,1.5124451,-1.512464,2.6196646,-86.918797,79.891704)" id="g22559">
      <path style="opacity:1;fill:#41b500;fill-opacity:1;fill-rule:nonzero;stroke:none;stroke-width:2;stroke-linecap:butt;stroke-linejoin:miter;stroke-miterlimit:4;stroke-dasharray:none;stroke-dashoffset:0;stroke-opacity:1" d="m 19.000848,-35.180695 c 0,0 -4.826992,3.363595 -1.956206,4.828964 2.870785,1.465371 1.956206,-4.828964 1.956206,-4.828964 z" id="path22549" inkscape:connector-curvature="0" inkscape:transform-center-x="4.0384239" inkscape:transform-center-y="7.4795343" />
      <use x="0" y="0" xlink:href="#path22549" inkscape:transform-center-x="7.2018793" inkscape:transform-center-y="-5.2019673" id="use22553" transform="matrix(0.20829229,0.97806697,-0.97806672,0.20829027,-19.213818,-46.269623)" width="100%" height="100%" />
      <use height="100%" width="100%" transform="matrix(0.69348066,0.72048277,0.72048736,-0.69346025,30.189793,-73.327913)" id="use22555" inkscape:transform-center-y="-8.5114549" inkscape:transform-center-x="-1.4550146" xlink:href="#path22549" y="0" x="0" />
      <path inkscape:transform-center-y="1.1620005" inkscape:transform-center-x="-7.9231914" inkscape:connector-curvature="0" id="path22557" d="m 19.000398,-35.379867 c 0,0 5.464196,-2.180972 5.108908,1.022495 -0.355289,3.203466 -5.108908,-1.022495 -5.108908,-1.022495 z" style="opacity:1;fill:#41b500;fill-opacity:1;fill-rule:nonzero;stroke:none;stroke-width:2;stroke-linecap:butt;stroke-linejoin:miter;stroke-miterlimit:4;stroke-dasharray:none;stroke-dashoffset:0;stroke-opacity:1" />
      <g transform="matrix(0.06981847,0,0,0.06981847,14.856448,-90.313508)" id="g4792">
        <path inkscape:connector-curvature="0" style="fill:#a59eff;fill-opacity:1;fill-rule:nonzero;stroke:none" d="m 59.294118,776.19411 c 0,0 -0.20111,-47.79889 -32,-16 -31.7988924,31.79889 16,32 16,32 0,0 -47.7988924,0.20111 -16,32 31.79889,31.79889 32,-16 32,-16 0,0 -0.052,48.05205 32,16 32.052052,-32.05205 -16,-32 -16,-32 0,0 47.798892,-0.20111 16,-32 -31.79889,-31.79889 -32,16 -32,16 z" id="path4794" sodipodi:nodetypes="czczczczc" />
        <circle r="16" cy="112" cx="112" style="fill:yellow;fill-opacity:1;fill-rule:nonzero;stroke:none" id="path4796" transform="translate(-52.705882,680.19411)" />
      </g>
    </g>
  </g>
</svg>
