<?xml version="1.0" encoding="UTF-8" standalone="no"?>
<!-- Created with Inkscape (http://www.inkscape.org/) -->

<svg xmlns:dc="http://purl.org/dc/elements/1.1/" xmlns:cc="http://creativecommons.org/ns#" xmlns:rdf="http://www.w3.org/1999/02/22-rdf-syntax-ns#" xmlns:svg="http://www.w3.org/2000/svg" xmlns="http://www.w3.org/2000/svg" xmlns:xlink="http://www.w3.org/1999/xlink" xmlns:sodipodi="http://sodipodi.sourceforge.net/DTD/sodipodi-0.dtd" xmlns:inkscape="http://www.inkscape.org/namespaces/inkscape" width="32" height="32" id="svg4150" version="1.1" inkscape:version="0.91 r13725" viewBox="0 0 32 32" sodipodi:docname="gingerbread-man-00.svg">
  <defs id="defs4152" />
  <sodipodi:namedview id="base" pagecolor="#ffffff" bordercolor="#666666" borderopacity="1.0" inkscape:pageopacity="0.0" inkscape:pageshadow="2" inkscape:zoom="22.125" inkscape:cx="16" inkscape:cy="16" inkscape:current-layer="layer1" showgrid="true" inkscape:grid-bbox="true" inkscape:document-units="px" objecttolerance="10" inkscape:snap-perpendicular="true" guidetolerance="10" inkscape:window-width="1600" inkscape:window-height="878" inkscape:window-x="0" inkscape:window-y="0" inkscape:window-maximized="1" showguides="true" inkscape:guide-bbox="true" inkscape:snap-path-clip="true" inkscape:snap-path-mask="true" inkscape:snap-tangential="true" gridtolerance="10">
    <inkscape:grid type="xygrid" id="grid4698" empspacing="4" />
    <sodipodi:guide position="16,32" orientation="1,0" id="guide4769" />
    <sodipodi:guide position="16,16" orientation="-0.70710678,0.70710678" id="guide4773" />
    <sodipodi:guide position="16,16" orientation="0.70710678,0.70710678" id="guide4775" />
    <sodipodi:guide position="9,22" orientation="0,1" id="guide5980" />
  </sodipodi:namedview>
  <metadata id="metadata4155">
    <rdf:RDF>
      <cc:Work rdf:about="">
        <dc:format>image/svg+xml</dc:format>
        <dc:type rdf:resource="http://purl.org/dc/dcmitype/StillImage" />
        <dc:title></dc:title>
      </cc:Work>
    </rdf:RDF>
  </metadata>
  <g id="layer1" inkscape:label="Layer 1" inkscape:groupmode="layer">
    <g id="g6102" transform="translate(-84,0)">
      <ellipse style="opacity:1;fill:#a40;fill-opacity:1;fill-rule:nonzero;stroke:none;stroke-width:2;stroke-linecap:round;stroke-linejoin:round;stroke-miterlimit:4;stroke-dasharray:none;stroke-dashoffset:0;stroke-opacity:1" id="ellipse6006" cx="44" cy="6" rx="6" ry="5" />
      <rect style="opacity:1;fill:#a40;fill-opacity:1;fill-rule:nonzero;stroke:none;stroke-width:2;stroke-linecap:round;stroke-linejoin:round;stroke-miterlimit:4;stroke-dasharray:none;stroke-dashoffset:0;stroke-opacity:1" id="rect6008" width="16" height="10" x="36" y="12" ry="3" rx="3" />
      <rect style="opacity:1;fill:#a40;fill-opacity:1;fill-rule:nonzero;stroke:none;stroke-width:2;stroke-linecap:round;stroke-linejoin:round;stroke-miterlimit:4;stroke-dasharray:none;stroke-dashoffset:0;stroke-opacity:1" id="rect6010" width="10" height="12.039548" x="39" y="18.960451" ry="3.0000002" rx="3" />
      <path style="opacity:1;fill:#a40;fill-opacity:1;fill-rule:nonzero;stroke:none;stroke-width:2;stroke-linecap:round;stroke-linejoin:round;stroke-miterlimit:4;stroke-dasharray:none;stroke-dashoffset:0;stroke-opacity:1" d="m 47.341797,10.158203 -6.619141,0.01172 -0.0098,0.02148 A 1,1 0 0 1 41.125,11 a 1,1 0 0 1 -1,1 l 7.757812,0 a 1,1 0 0 1 -1,-1 1,1 0 0 1 0.458985,-0.841797 z M 47.882812,12 48,12 47.998,11.9922 A 1,1 0 0 1 47.882812,12 Z M 40.125,12 A 1,1 0 0 1 40.003906,11.9902 L 40,12 l 0.125,0 z" id="path6012" inkscape:connector-curvature="0" />
    </g>
    <g id="g6110">
      <path style="opacity:1;fill:#a40;fill-opacity:1;fill-rule:nonzero;stroke:black;stroke-width:2;stroke-linecap:round;stroke-linejoin:round;stroke-miterlimit:4;stroke-dasharray:none;stroke-dashoffset:0;stroke-opacity:1" d="M 16 1 A 6 5 0 0 0 10 6 A 6 5 0 0 0 12.716797 10.181641 L 12.712891 10.191406 A 1 1 0 0 1 13.125 11 A 1 1 0 0 1 12.125 12 A 1 1 0 0 1 12.003906 11.990234 L 12 12 L 11 12 C 9.338 12 8 13.338 8 15 L 8 19 C 8 20.662 9.338 22 11 22 L 11 28 C 11 29.662 12.338 31 14 31 L 18 31 C 19.662 31 21 29.662 21 28 L 21 22 C 22.662 22 24 20.662 24 19 L 24 15 C 24 13.338 22.662 12 21 12 L 20 12 L 19.998047 11.992188 A 1 1 0 0 1 19.898438 12 L 19.882812 12 A 1 1 0 0 1 18.882812 11 A 1 1 0 0 1 19.341797 10.158203 L 19.324219 10.158203 A 6 5 0 0 0 22 6 A 6 5 0 0 0 16 1 z " id="path6090" />
      <path id="path5970" d="M 16 1 A 6 5 0 0 0 10 6 A 6 5 0 0 0 12.716797 10.181641 L 12.712891 10.191406 A 1 1 0 0 1 13.125 11 A 1 1 0 0 1 12.125 12 A 1 1 0 0 1 12.003906 11.990234 L 12 12 L 11 12 C 9.338 12 8 13.338 8 15 L 8 19 C 8 20.662 9.338 22 11 22 L 11 28 C 11 29.662 12.338 31 14 31 L 18 31 C 19.662 31 21 29.662 21 28 L 21 22 C 22.662 22 24 20.662 24 19 L 24 15 C 24 13.338 22.662 12 21 12 L 20 12 L 19.998047 11.992188 A 1 1 0 0 1 19.898438 12 L 19.882812 12 A 1 1 0 0 1 18.882812 11 A 1 1 0 0 1 19.341797 10.158203 L 19.324219 10.158203 A 6 5 0 0 0 22 6 A 6 5 0 0 0 16 1 z " style="opacity:1;fill:#a40;fill-opacity:1;fill-rule:nonzero;stroke:none;stroke-width:2;stroke-linecap:round;stroke-linejoin:round;stroke-miterlimit:4;stroke-dasharray:none;stroke-dashoffset:0;stroke-opacity:1" />
      <path sodipodi:nodetypes="cccccccccccsscssscssscssc" inkscape:connector-curvature="0" id="path6019" d="M 11.923828,2.3398438 C 10.699977,3.2840504 10.002958,4.6101558 10,6 c 0.0014,1.6865003 1.022872,3.2587873 2.716797,4.181641 l -0.0039,0.0098 C 12.971701,10.379494 13.124889,10.680063 13.125,11 c 0.552285,0 1,-0.447715 1,-1 -1.11e-4,-0.3199368 -0.153299,-0.6205058 -0.412109,-0.8085938 l 0.0039,-0.00977 C 12.022872,8.258787 11.001363,6.6865002 11,5 11.0013,4.0584838 11.321477,3.1363934 11.923828,2.3398438 Z M 9.4433594,12.443359 C 8.5795342,12.968859 8,13.910861 8,15 l 0,4 c 0,1.662 1.338,3 3,3 l 0,6 c 0,1.662 1.338,3 3,3 l 4,0 c 1.089139,0 2.031141,-0.579534 2.556641,-1.443359 C 20.102289,29.833041 19.572861,30 19,30 l -4,0 c -1.662,0 -3,-1.338 -3,-3 l 0,-6 C 10.338,21 9,19.662 9,18 l 0,-4 c 0,-0.572861 0.1669589,-1.102289 0.4433594,-1.556641 z" style="opacity:1;fill:black;fill-opacity:0.25098039;fill-rule:nonzero;stroke:none;stroke-width:2;stroke-linecap:round;stroke-linejoin:round;stroke-miterlimit:4;stroke-dasharray:none;stroke-dashoffset:0;stroke-opacity:1" />
      <path sodipodi:nodetypes="cccsc" inkscape:connector-curvature="0" id="rect6028" d="m 24,18 c 0,1.662 -2.264829,3 -3.926829,3 L 21,22 c 1.662,0 3,-1.338 3,-3 z" style="opacity:1;fill:#803300;fill-opacity:1;fill-rule:nonzero;stroke:none;stroke-width:2;stroke-linecap:round;stroke-linejoin:round;stroke-miterlimit:4;stroke-dasharray:none;stroke-dashoffset:0;stroke-opacity:1" />
      <path style="opacity:1;fill:#803300;fill-opacity:1;fill-rule:nonzero;stroke:none;stroke-width:2;stroke-linecap:round;stroke-linejoin:round;stroke-miterlimit:4;stroke-dasharray:none;stroke-dashoffset:0;stroke-opacity:1" d="m 24,18 c 0,1.662 -2.264829,3 -3.926829,3 L 21,22 c 1.662,0 3,-1.338 3,-3 z" id="path6042" inkscape:connector-curvature="0" sodipodi:nodetypes="cccsc" />
      <path id="path6044" d="M 16 1 C 14.467885 1.0008916 13.018952 1.4922956 11.923828 2.3398438 C 11.775569 2.5359024 11.644773 2.7395313 11.53125 2.9492188 C 12.541373 2.3467321 13.745176 2.0019983 15 2 C 18.313708 2 21 4.2385763 21 7 C 20.9974 7.9426597 20.675148 8.8655133 20.070312 9.6621094 C 21.296926 8.7182963 21.996182 7.3912658 22 6 C 22 3.2385763 19.313708 1 16 1 z M 11.923828 2.3398438 C 11.842498 2.4027874 11.768687 2.4722048 11.691406 2.5390625 C 11.768675 2.4724186 11.841772 2.4031501 11.923828 2.3398438 z M 11.447266 2.7558594 C 11.376346 2.8250338 11.310765 2.8980091 11.244141 2.9707031 C 11.310549 2.8985081 11.375961 2.8251717 11.447266 2.7558594 z M 11.023438 3.2246094 C 10.991707 3.2641445 10.954308 3.2994198 10.923828 3.3398438 C 10.931194 3.3341312 10.939869 3.3298976 10.947266 3.3242188 C 10.972664 3.2910246 10.99708 3.2573248 11.023438 3.2246094 z M 18.90625 10.785156 C 18.721561 10.91929 18.527187 11.043873 18.324219 11.158203 L 18.341797 11.158203 C 18.055484 11.342383 17.882545 11.659567 17.882812 12 C 17.882812 12.552285 18.330527 13 18.882812 13 L 18.898438 13 C 18.931748 12.999057 18.964997 12.996387 18.998047 12.992188 L 19 13 L 20 13 C 21.662 13 23 14.338 23 16 L 23 19.841797 C 23.588071 19.33281 24 18.699128 24 18 L 24 15 C 24 13.338 22.662 12 21 12 L 20 12 L 19.998047 11.992188 C 19.964997 11.996487 19.931748 11.9991 19.898438 12 L 19.882812 12 C 19.330527 12 18.882812 11.552285 18.882812 11 C 18.882842 10.92775 18.89071 10.855714 18.90625 10.785156 z M 24 19 C 24 19.181607 23.977886 19.35675 23.947266 19.529297 C 23.978165 19.356998 24 19.181745 24 19 z M 23.917969 19.671875 C 23.882309 19.828103 23.838179 19.981204 23.779297 20.126953 C 23.838877 19.981198 23.881899 19.828363 23.917969 19.671875 z M 23.708984 20.273438 C 23.666364 20.364258 23.617584 20.451594 23.566406 20.537109 C 23.617986 20.451849 23.665996 20.364037 23.708984 20.273438 z M 20.03125 20.976562 L 20 29 C 20 29.303205 19.952203 29.593009 19.867188 29.867188 C 20.107341 29.792723 20.335743 29.689915 20.546875 29.5625 C 20.82866 29.107932 21 28.577419 21 28 L 21.015625 21.998047 C 21.010252 21.998075 21.005375 22 21 22 L 20.304688 21.25 L 20.03125 20.976562 z M 20.421875 29.726562 C 20.325992 29.861407 20.229378 29.996212 20.113281 30.113281 C 20.230989 29.996551 20.324786 29.861311 20.421875 29.726562 z M 19.726562 30.421875 C 19.670526 30.46225 19.621356 30.510391 19.5625 30.546875 C 19.560543 30.550117 19.558608 30.553406 19.556641 30.556641 C 19.618805 30.518824 19.667453 30.463906 19.726562 30.421875 z " style="opacity:1;fill:white;fill-opacity:0.25098039;fill-rule:nonzero;stroke:none;stroke-width:2;stroke-linecap:round;stroke-linejoin:round;stroke-miterlimit:4;stroke-dasharray:none;stroke-dashoffset:0;stroke-opacity:1" />
      <g id="g6061">
        <circle style="opacity:1;fill:white;fill-opacity:1;fill-rule:nonzero;stroke:none;stroke-width:2;stroke-linecap:round;stroke-linejoin:round;stroke-miterlimit:4;stroke-dasharray:none;stroke-dashoffset:0;stroke-opacity:1" id="path6054" cx="13.5" cy="4.5" r="1.5" />
        <path style="opacity:1;fill:blue;fill-opacity:0.25098039;fill-rule:nonzero;stroke:none;stroke-width:2;stroke-linecap:round;stroke-linejoin:round;stroke-miterlimit:4;stroke-dasharray:none;stroke-dashoffset:0;stroke-opacity:1" d="M 12.720703 3.2207031 A 1.5 1.5 0 0 0 12 4.5 A 1.5 1.5 0 0 0 13.5 6 A 1.5 1.5 0 0 0 14.779297 5.2792969 A 1.5 1.5 0 0 1 14 5.5 A 1.5 1.5 0 0 1 12.5 4 A 1.5 1.5 0 0 1 12.720703 3.2207031 z " id="circle6058" />
      </g>
      <use height="100%" width="100%" transform="translate(5,0)" id="use6082" xlink:href="#g6061" y="0" x="0" />
      <use height="100%" width="100%" transform="matrix(0.66666667,0,0,0.66666667,7,11)" id="use6084" xlink:href="#g6061" y="0" x="0" />
      <use height="100%" width="100%" transform="matrix(0.66666667,0,0,0.66666667,7,14.5)" id="use6086" xlink:href="#g6061" y="0" x="0" />
      <use height="100%" width="100%" transform="matrix(0.66666667,0,0,0.66666667,7,18)" id="use6088" xlink:href="#g6061" y="0" x="0" />
      <use height="100%" width="100%" transform="matrix(0.33333333,0,0,0.33333333,7.5,5.75)" id="use6092" xlink:href="#g6061" y="0" x="0" />
      <use height="100%" width="100%" transform="matrix(0.33333333,0,0,0.33333333,9.5,6.5)" id="use6094" xlink:href="#g6061" y="0" x="0" />
      <use height="100%" width="100%" transform="matrix(0.33333333,0,0,0.33333333,11.5,6.75)" id="use6096" xlink:href="#g6061" y="0" x="0" />
      <use height="100%" width="100%" transform="matrix(0.33333333,0,0,0.33333333,13.5,6.5)" id="use6098" xlink:href="#g6061" y="0" x="0" />
      <use height="100%" width="100%" transform="matrix(0.33333333,0,0,0.33333333,15.5,5.75)" id="use6100" xlink:href="#g6061" y="0" x="0" />
      <rect y="0" x="0" height="32" width="32" id="rect6108" style="opacity:1;fill:none;fill-opacity:1;fill-rule:nonzero;stroke:none;stroke-width:2;stroke-linecap:round;stroke-linejoin:round;stroke-miterlimit:4;stroke-dasharray:none;stroke-dashoffset:0;stroke-opacity:1" />
    </g>
  </g>
</svg>
