<?xml version="1.0" encoding="UTF-8" standalone="no"?>
<!-- Created with Inkscape (http://www.inkscape.org/) -->

<svg xmlns:dc="http://purl.org/dc/elements/1.1/" xmlns:cc="http://creativecommons.org/ns#" xmlns:rdf="http://www.w3.org/1999/02/22-rdf-syntax-ns#" xmlns:svg="http://www.w3.org/2000/svg" xmlns="http://www.w3.org/2000/svg" xmlns:sodipodi="http://sodipodi.sourceforge.net/DTD/sodipodi-0.dtd" xmlns:inkscape="http://www.inkscape.org/namespaces/inkscape" width="32" height="96" id="svg3505" sodipodi:version="0.32" inkscape:version="0.91 r13725" sodipodi:docname="00.svg" inkscape:output_extension="org.inkscape.output.svg.inkscape" version="1.0">
  <title id="title2851">Closed door (vertical)</title>
  <defs id="defs3507">
    <inkscape:perspective sodipodi:type="inkscape:persp3d" inkscape:vp_x="0 : 48 : 1" inkscape:vp_y="0 : 1000 : 0" inkscape:vp_z="96 : 48 : 1" inkscape:persp3d-origin="48 : 32 : 1" id="perspective6625" />
  </defs>
  <sodipodi:namedview id="base" pagecolor="#ffffff" bordercolor="#666666" borderopacity="1.0" inkscape:pageopacity="0.0" inkscape:pageshadow="2" inkscape:zoom="7.375" inkscape:cx="16" inkscape:cy="48" inkscape:current-layer="layer1" showgrid="true" inkscape:grid-bbox="true" inkscape:document-units="px" objecttolerance="4" gridtolerance="4" guidetolerance="4" inkscape:window-width="1600" inkscape:window-height="878" inkscape:window-x="0" inkscape:window-y="0" inkscape:object-paths="true" inkscape:object-nodes="true" inkscape:snap-bbox="true" inkscape:snap-guide="true" showguides="true" inkscape:guide-bbox="true" inkscape:window-maximized="1">
    <inkscape:grid type="xygrid" id="grid3515" units="px" visible="true" enabled="true" spacingx="1px" spacingy="1px" empspacing="4" snapvisiblegridlinesonly="true" />
    <sodipodi:guide orientation="1,0" position="32,13" id="guide3905" />
    <sodipodi:guide orientation="1,0" position="64,2" id="guide3907" />
    <sodipodi:guide orientation="0,1" position="-50,64" id="guide3909" />
    <sodipodi:guide orientation="0,1" position="-60,32" id="guide3911" />
  </sodipodi:namedview>
  <metadata id="metadata3510">
    <rdf:RDF>
      <cc:Work rdf:about="">
        <dc:format>image/svg+xml</dc:format>
        <dc:type rdf:resource="http://purl.org/dc/dcmitype/StillImage" />
        <dc:title>Closed door (vertical)</dc:title>
        <dc:date>2010-08-09</dc:date>
        <dc:creator>
          <cc:Agent>
            <dc:title>Andreas Neudecker &lt;zapyon@gmx.net&gt;</dc:title>
          </cc:Agent>
        </dc:creator>
        <dc:rights>
          <cc:Agent>
            <dc:title>Copyright (C) 2010 by Andreas Neudecker</dc:title>
          </cc:Agent>
        </dc:rights>
        <dc:publisher>
          <cc:Agent>
            <dc:title>Andreas Neudecker</dc:title>
          </cc:Agent>
        </dc:publisher>
        <dc:identifier>door-closed-vertical-00</dc:identifier>
        <dc:description>Closed door, vertical.</dc:description>
      </cc:Work>
    </rdf:RDF>
  </metadata>
  <g id="layer1" inkscape:label="Layer 1" inkscape:groupmode="layer">
    <g id="g14758">
      <rect transform="matrix(0,1,-1,0,0,0)" y="-32" x="0" height="32" width="96" id="rect4225" style="opacity:1;fill:none;fill-opacity:1;fill-rule:nonzero;stroke:none;stroke-width:2;stroke-linecap:butt;stroke-linejoin:miter;stroke-miterlimit:4;stroke-dasharray:none;stroke-dashoffset:0;stroke-opacity:1" />
      <rect transform="matrix(0,1,-1,0,0,0)" y="-14" x="31" height="6" width="1" id="rect5824" style="fill:black;fill-opacity:1;fill-rule:nonzero;stroke:none" />
      <rect transform="matrix(0,1,-1,0,0,0)" y="-19" x="28" height="13" width="3" id="rect5826" style="fill:black;fill-opacity:1;fill-rule:nonzero;stroke:none" />
      <g transform="matrix(0,1,-1,0,97,0)" id="g4207">
        <rect y="76" x="63" height="4" width="5" id="rect3226" style="fill:black;fill-opacity:1;fill-rule:nonzero;stroke:none" />
        <rect y="77" x="63" height="1" width="5" id="rect5830" style="fill:silver;fill-opacity:1;fill-rule:nonzero;stroke:none" />
        <rect style="fill:gray;fill-opacity:1;fill-rule:nonzero;stroke:none" id="rect5832" width="5" height="1" x="63" y="78" />
      </g>
      <path id="path5834" d="M 32,48 C 32,39.168 24.832,32 16,32 l -16,0 0,16 0,16 16,0 c 8.832,0 16,-7.168 16,-16 z" style="fill:black;fill-opacity:1;fill-rule:nonzero;stroke:none" inkscape:connector-curvature="0" />
      <g transform="matrix(1,0,0,-1,0,96)" id="g14739">
        <path inkscape:connector-curvature="0" style="fill:#d0aa00;fill-opacity:1;fill-rule:nonzero;stroke:none" d="M 31,48 C 31,39.72 24.28,33 16,33 l -15,0 0,15 0,15 15,0 c 8.28,0 15,-6.72 15,-15 z" id="path5836" />
        <path inkscape:connector-curvature="0" style="fill:#e6be00;fill-opacity:1;fill-rule:nonzero;stroke:none" d="m 22,36 3,2 -22,0 0,-2 19,0 z" id="path5838" sodipodi:nodetypes="ccccc" />
        <path inkscape:connector-curvature="0" style="fill:#e6be00;fill-opacity:1;fill-rule:nonzero;stroke:none" d="m 27,56 -2,2 -22,0 0,-2 24,0 z" id="path5840" sodipodi:nodetypes="ccccc" />
        <path inkscape:connector-curvature="0" sodipodi:nodetypes="ccccc" id="path5842" d="m 29,51 0,2 -26,0 0,-2 26,0 z" style="fill:#e6be00;fill-opacity:1;fill-rule:nonzero;stroke:none" />
        <path inkscape:connector-curvature="0" style="fill:#805500;fill-opacity:1;fill-rule:nonzero;stroke:none" d="m 3,38 0,-1 21,0 1,1 -22,0 z" id="path5844" sodipodi:nodetypes="ccccc" />
        <path inkscape:connector-curvature="0" style="fill:#aa8000;fill-opacity:1;fill-rule:nonzero;stroke:none" d="M 25.90625,38.09375 C 23.37225,35.55975 19.864,34 16,34 l 0,1 c 3.588,0 6.8345,1.4595 9.1875,3.8125 l 0.71875,-0.71875 z" id="path5846" />
        <path inkscape:connector-curvature="0" sodipodi:nodetypes="ccccc" id="path5852" d="m 28,41 0,2 -25,0 0,-2 25,0 z" style="fill:#e6be00;fill-opacity:1;fill-rule:nonzero;stroke:none" />
        <path inkscape:connector-curvature="0" sodipodi:nodetypes="ccccc" id="path5854" d="m 3,43 0,-1 24.999829,0 0,1 L 3,43 Z" style="fill:#805500;fill-opacity:1;fill-rule:nonzero;stroke:none" />
        <rect style="fill:#aa8000;fill-opacity:1;fill-rule:nonzero;stroke:none" id="rect5874" width="1" height="13" x="34" y="-16" transform="matrix(0,1,-1,0,0,0)" />
        <path inkscape:connector-curvature="0" style="fill:#e6be00;fill-opacity:1;fill-rule:nonzero;stroke:none" d="m 29,46 0,2 -26,0 0,-2 26,0 z" id="path5876" sodipodi:nodetypes="ccccc" />
        <path inkscape:connector-curvature="0" style="fill:#805500;fill-opacity:1;fill-rule:nonzero;stroke:none" d="m 30,48 -1,0 c 0,7.176 -5.824,13 -13,13 l 0,1 c 7.728,0 14,-6.272 14,-14 z" id="path5878" />
        <path inkscape:connector-curvature="0" style="fill:#805500;fill-opacity:1;fill-rule:nonzero;stroke:none" d="m 3,58 0,-1 23,0 -1,1 -22,0 z" id="path5880" sodipodi:nodetypes="ccccc" />
        <path inkscape:connector-curvature="0" sodipodi:nodetypes="ccccc" id="path5882" d="m 3,53 0,-1 26,0 0,1 -26,0 z" style="fill:#805500;fill-opacity:1;fill-rule:nonzero;stroke:none" />
        <path inkscape:connector-curvature="0" style="fill:#805500;fill-opacity:1;fill-rule:nonzero;stroke:none" d="m 16,61 0,1 -14,0 1,-1 13,0 z" id="path5884" sodipodi:nodetypes="ccccc" />
        <path inkscape:connector-curvature="0" style="fill:#e6be00;fill-opacity:1;fill-rule:nonzero;stroke:none" d="M 3,34 3,61 2,62 2,34 3,34 Z" id="path5886" sodipodi:nodetypes="ccccc" />
        <path inkscape:connector-curvature="0" style="fill:#805500;fill-opacity:1;fill-rule:nonzero;stroke:none" d="m 30,48 c 0,-3.864 -1.55975,-7.37225 -4.09375,-9.90625 L 25.1875,38.8125 C 27.5405,41.1655 29,44.412 29,48 l 1,0 z" id="path5888" />
        <path inkscape:connector-curvature="0" style="fill:#805500;fill-opacity:1;fill-rule:nonzero;stroke:none" d="m 3,48 0,-1 26,0 0,1 -26,0 z" id="path5890" sodipodi:nodetypes="ccccc" />
      </g>
      <g id="g14732">
        <rect y="-19" x="33" height="13" width="7" id="rect5848" style="fill:black;fill-opacity:0.99678458;fill-rule:nonzero;stroke:none" transform="matrix(0,1,-1,0,0,0)" />
        <rect style="fill:silver;fill-opacity:1;fill-rule:nonzero;stroke:none" id="rect5850" width="6" height="11" x="33" y="-18" transform="matrix(0,1,-1,0,0,0)" />
        <path inkscape:connector-curvature="0" style="fill:black;fill-opacity:1;fill-rule:nonzero;stroke:none" d="m 17,36 c 0,-1.093063 -0.906937,-2 -2,-2 -1.093063,0 -2,0.906937 -2,2 0,0.702291 0.442404,1.205054 1,1.5625 L 14,43 c 0,0.817063 0.682937,1.5 1.5,1.5 0.817063,0 1.5,-0.682937 1.5,-1.5 l 0,-7 z" id="path5858" />
        <path inkscape:connector-curvature="0" style="fill:silver;fill-opacity:1;fill-rule:nonzero;stroke:none" d="m 16,36 c 0,-0.552 -0.448,-1 -1,-1 -0.552,0 -1,0.448 -1,1 0,0.552 0.448,1 1,1 l 0,6 c 0,0.276 0.224,0.5 0.5,0.5 0.276,0 0.5,-0.224 0.5,-0.5 l 0,-7 z" id="path5860" />
        <path inkscape:connector-curvature="0" style="fill:black;fill-opacity:1;fill-rule:nonzero;stroke:none" d="m 12,36 c 0,-0.552 -0.448,-1 -1,-1 -0.364777,0 -0.669077,0.207994 -0.84375,0.5 L 9,35.5 c -0.276,0 -0.5,0.224 -0.5,0.5 0,0.276 0.224,0.5 0.5,0.5 l 1.15625,0 C 10.330923,36.792006 10.635223,37 11,37 c 0.552,0 1,-0.448 1,-1 z" id="path5862" />
      </g>
      <g transform="matrix(-2,0,0,1,140,-23)" id="g4220">
        <rect style="fill:black;fill-opacity:1;fill-rule:nonzero;stroke:none" id="rect5864" width="4" height="4" x="64" y="87" />
        <rect style="fill:silver;fill-opacity:1;fill-rule:nonzero;stroke:none" id="rect5866" width="3" height="1" x="64.5" y="88" />
        <rect y="89" x="64.5" height="1" width="3" id="rect5868" style="fill:gray;fill-opacity:1;fill-rule:nonzero;stroke:none" />
      </g>
      <rect transform="matrix(0,1,-1,0,0,0)" y="-18" x="28" height="11" width="2" id="rect5870" style="fill:silver;fill-opacity:1;fill-rule:nonzero;stroke:none" />
      <rect transform="matrix(0,1,-1,0,0,0)" style="fill:#909090;fill-opacity:1;fill-rule:nonzero;stroke:none" id="rect5872" width="1" height="4" x="31" y="-13" />
      <g transform="matrix(-1.2,0,0,1,98.6,-12)" id="g4212">
        <rect style="fill:black;fill-opacity:1;fill-rule:nonzero;stroke:none" id="rect4214" width="6.6666656" height="4" x="62.166668" y="76" />
        <rect style="fill:silver;fill-opacity:1;fill-rule:nonzero;stroke:none" id="rect4216" width="5" height="1" x="63" y="77" />
        <rect y="78" x="63" height="1" width="4.9999986" id="rect4218" style="fill:gray;fill-opacity:1;fill-rule:nonzero;stroke:none" />
      </g>
    </g>
  </g>
</svg>
