<?xml version="1.0" encoding="UTF-8" standalone="no"?>
<!-- Created with Inkscape (http://www.inkscape.org/) -->

<svg
   xmlns:dc="http://purl.org/dc/elements/1.1/"
   xmlns:cc="http://creativecommons.org/ns#"
   xmlns:rdf="http://www.w3.org/1999/02/22-rdf-syntax-ns#"
   xmlns:svg="http://www.w3.org/2000/svg"
   xmlns="http://www.w3.org/2000/svg"
   xmlns:sodipodi="http://sodipodi.sourceforge.net/DTD/sodipodi-0.dtd"
   xmlns:inkscape="http://www.inkscape.org/namespaces/inkscape"
   width="32"
   height="96"
   id="svg3505"
   sodipodi:version="0.32"
   inkscape:version="0.47 r22583"
   sodipodi:docname="door-vertical-closed-00.svg"
   inkscape:output_extension="org.inkscape.output.svg.inkscape"
   version="1.0">
  <title
     id="title2851">Closed door (vertical)</title>
  <defs
     id="defs3507">
    <inkscape:perspective
       sodipodi:type="inkscape:persp3d"
       inkscape:vp_x="0 : 48 : 1"
       inkscape:vp_y="0 : 1000 : 0"
       inkscape:vp_z="96 : 48 : 1"
       inkscape:persp3d-origin="48 : 32 : 1"
       id="perspective6625" />
  </defs>
  <sodipodi:namedview
     id="base"
     pagecolor="#ffffff"
     bordercolor="#666666"
     borderopacity="1.0"
     inkscape:pageopacity="0.0"
     inkscape:pageshadow="2"
     inkscape:zoom="4.5520833"
     inkscape:cx="48"
     inkscape:cy="48"
     inkscape:current-layer="layer1"
     showgrid="true"
     inkscape:grid-bbox="true"
     inkscape:document-units="px"
     objecttolerance="4"
     gridtolerance="4"
     guidetolerance="4"
     inkscape:window-width="641"
     inkscape:window-height="678"
     inkscape:window-x="0"
     inkscape:window-y="37"
     inkscape:object-paths="true"
     inkscape:object-nodes="true"
     inkscape:snap-bbox="true"
     inkscape:snap-guide="true"
     showguides="true"
     inkscape:guide-bbox="true"
     inkscape:window-maximized="0">
    <inkscape:grid
       type="xygrid"
       id="grid3515"
       units="px"
       visible="true"
       enabled="true"
       spacingx="1px"
       spacingy="1px"
       empspacing="4"
       snapvisiblegridlinesonly="true" />
    <sodipodi:guide
       orientation="1,0"
       position="32,13"
       id="guide3905" />
    <sodipodi:guide
       orientation="1,0"
       position="64,2"
       id="guide3907" />
    <sodipodi:guide
       orientation="0,1"
       position="-50,64"
       id="guide3909" />
    <sodipodi:guide
       orientation="0,1"
       position="-60,32"
       id="guide3911" />
  </sodipodi:namedview>
  <metadata
     id="metadata3510">
    <rdf:RDF>
      <cc:Work
         rdf:about="">
        <dc:format>image/svg+xml</dc:format>
        <dc:type
           rdf:resource="http://purl.org/dc/dcmitype/StillImage" />
        <dc:title>Closed door (vertical)</dc:title>
        <dc:date>2010-08-09</dc:date>
        <dc:creator>
          <cc:Agent>
            <dc:title>Andreas Neudecker &lt;zapyon@gmx.net&gt;</dc:title>
          </cc:Agent>
        </dc:creator>
        <dc:rights>
          <cc:Agent>
            <dc:title>Copyright (C) 2010 by Andreas Neudecker</dc:title>
          </cc:Agent>
        </dc:rights>
        <dc:publisher>
          <cc:Agent>
            <dc:title>Andreas Neudecker</dc:title>
          </cc:Agent>
        </dc:publisher>
        <dc:identifier>door-closed-vertical-00</dc:identifier>
        <dc:description>Closed door, vertical.</dc:description>
      </cc:Work>
    </rdf:RDF>
  </metadata>
  <g
     id="layer1"
     inkscape:label="Layer 1"
     inkscape:groupmode="layer">
    <g
       id="g6660"
       transform="translate(-32,0)">
      <rect
         transform="matrix(0,1,-1,0,0,0)"
         style="fill:#000000;fill-opacity:1;fill-rule:nonzero;stroke:none"
         id="rect3226"
         width="5"
         height="4"
         x="63"
         y="-52" />
      <rect
         transform="matrix(0,1,-1,0,0,0)"
         y="-46"
         x="31"
         height="6"
         width="1"
         id="rect5824"
         style="fill:#000000;fill-opacity:1;fill-rule:nonzero;stroke:none" />
      <rect
         transform="matrix(0,1,-1,0,0,0)"
         y="-51"
         x="28"
         height="13"
         width="3"
         id="rect5826"
         style="fill:#000000;fill-opacity:1;fill-rule:nonzero;stroke:none" />
      <rect
         transform="matrix(0,1,-1,0,0,0)"
         style="fill:#c0c0c0;fill-opacity:1;fill-rule:nonzero;stroke:none"
         id="rect5830"
         width="5"
         height="1"
         x="63"
         y="-51" />
      <rect
         transform="matrix(0,1,-1,0,0,0)"
         y="-50"
         x="63"
         height="1"
         width="5"
         id="rect5832"
         style="fill:#909090;fill-opacity:1;fill-rule:nonzero;stroke:none" />
      <path
         id="path5834"
         d="M 64,48 C 64,39.168 56.832,32 48,32 l -16,0 0,16 0,16 16,0 c 8.832,0 16,-7.168 16,-16 z"
         style="fill:#000000;fill-opacity:1;fill-rule:nonzero;stroke:none" />
      <path
         id="path5836"
         d="M 63,48 C 63,39.72 56.28,33 48,33 l -15,0 0,15 0,15 15,0 c 8.28,0 15,-6.72 15,-15 z"
         style="fill:#d0aa00;fill-opacity:1;fill-rule:nonzero;stroke:none" />
      <path
         sodipodi:nodetypes="ccccc"
         id="path5838"
         d="m 54,60 3,-2 -22,0 0,2 19,0 z"
         style="fill:#e6be00;fill-opacity:1;fill-rule:nonzero;stroke:none" />
      <path
         sodipodi:nodetypes="ccccc"
         id="path5840"
         d="m 59,40 -2,-2 -22,0 0,2 24,0 z"
         style="fill:#e6be00;fill-opacity:1;fill-rule:nonzero;stroke:none" />
      <path
         style="fill:#e6be00;fill-opacity:1;fill-rule:nonzero;stroke:none"
         d="m 61,45 0,-2 -26,0 0,2 26,0 z"
         id="path5842"
         sodipodi:nodetypes="ccccc" />
      <path
         sodipodi:nodetypes="ccccc"
         id="path5844"
         d="m 35,58 0,1 21,0 1,-1 -22,0 z"
         style="fill:#805500;fill-opacity:1;fill-rule:nonzero;stroke:none" />
      <path
         id="path5846"
         d="M 57.90625,57.90625 C 55.37225,60.44025 51.864,62 48,62 l 0,-1 c 3.588,0 6.8345,-1.4595 9.1875,-3.8125 l 0.71875,0.71875 z"
         style="fill:#aa8000;fill-opacity:1;fill-rule:nonzero;stroke:none" />
      <path
         style="fill:#e6be00;fill-opacity:1;fill-rule:nonzero;stroke:none"
         d="m 60,55 0,-2 -25,0 0,2 25,0 z"
         id="path5852"
         sodipodi:nodetypes="ccccc" />
      <path
         style="fill:#805500;fill-opacity:1;fill-rule:nonzero;stroke:none"
         d="m 35,53 0,1 24.999829,0 0,-1 L 35,53 z"
         id="path5854"
         sodipodi:nodetypes="ccccc" />
      <rect
         transform="matrix(0,-1,-1,0,0,0)"
         y="-48"
         x="-62"
         height="13"
         width="1"
         id="rect5874"
         style="fill:#aa8000;fill-opacity:1;fill-rule:nonzero;stroke:none" />
      <path
         sodipodi:nodetypes="ccccc"
         id="path5876"
         d="m 61,50 0,-2 -26,0 0,2 26,0 z"
         style="fill:#e6be00;fill-opacity:1;fill-rule:nonzero;stroke:none" />
      <path
         id="path5878"
         d="m 62,48 -1,0 C 61,40.824 55.176,35 48,35 l 0,-1 c 7.728,0 14,6.272 14,14 z"
         style="fill:#805500;fill-opacity:1;fill-rule:nonzero;stroke:none" />
      <path
         sodipodi:nodetypes="ccccc"
         id="path5880"
         d="m 35,38 0,1 23,0 -1,-1 -22,0 z"
         style="fill:#805500;fill-opacity:1;fill-rule:nonzero;stroke:none" />
      <path
         style="fill:#805500;fill-opacity:1;fill-rule:nonzero;stroke:none"
         d="m 35,43 0,1 26,0 0,-1 -26,0 z"
         id="path5882"
         sodipodi:nodetypes="ccccc" />
      <path
         sodipodi:nodetypes="ccccc"
         id="path5884"
         d="m 48,35 0,-1 -14,0 1,1 13,0 z"
         style="fill:#805500;fill-opacity:1;fill-rule:nonzero;stroke:none" />
      <path
         id="path5888"
         d="m 62,48 c 0,3.864 -1.55975,7.37225 -4.09375,9.90625 L 57.1875,57.1875 C 59.5405,54.8345 61,51.588 61,48 l 1,0 z"
         style="fill:#805500;fill-opacity:1;fill-rule:nonzero;stroke:none" />
      <path
         sodipodi:nodetypes="ccccc"
         id="path5890"
         d="m 35,48 0,1 26,0 0,-1 -26,0 z"
         style="fill:#805500;fill-opacity:1;fill-rule:nonzero;stroke:none" />
      <rect
         transform="matrix(0,1,-1,0,0,0)"
         style="fill:#000000;fill-opacity:0.99678458;fill-rule:nonzero;stroke:none"
         id="rect5848"
         width="7"
         height="13"
         x="33"
         y="-51" />
      <rect
         transform="matrix(0,1,-1,0,0,0)"
         y="-50"
         x="33"
         height="11"
         width="6"
         id="rect5850"
         style="fill:#c0c0c0;fill-opacity:1;fill-rule:nonzero;stroke:none" />
      <path
         id="path5858"
         d="m 49,36 c 0,-1.093063 -0.906937,-2 -2,-2 -1.093063,0 -2,0.906937 -2,2 0,0.702291 0.442404,1.205054 1,1.5625 L 46,43 c 0,0.817063 0.682937,1.5 1.5,1.5 0.817063,0 1.5,-0.682937 1.5,-1.5 l 0,-7 z"
         style="fill:#000000;fill-opacity:1;fill-rule:nonzero;stroke:none" />
      <path
         id="path5860"
         d="m 48,36 c 0,-0.552 -0.448,-1 -1,-1 -0.552,0 -1,0.448 -1,1 0,0.552 0.448,1 1,1 l 0,6 c 0,0.276 0.224,0.5 0.5,0.5 0.276,0 0.5,-0.224 0.5,-0.5 l 0,-7 z"
         style="fill:#c0c0c0;fill-opacity:1;fill-rule:nonzero;stroke:none" />
      <path
         id="path5862"
         d="m 44,36 c 0,-0.552 -0.448,-1 -1,-1 -0.364777,0 -0.669077,0.207994 -0.84375,0.5 L 41,35.5 c -0.276,0 -0.5,0.224 -0.5,0.5 0,0.276 0.224,0.5 0.5,0.5 l 1.15625,0 C 42.330923,36.792006 42.635223,37 43,37 c 0.552,0 1,-0.448 1,-1 z"
         style="fill:#000000;fill-opacity:1;fill-rule:nonzero;stroke:none" />
      <rect
         transform="matrix(0,1,-1,0,0,0)"
         y="-41"
         x="64"
         height="4"
         width="4"
         id="rect5864"
         style="fill:#000000;fill-opacity:1;fill-rule:nonzero;stroke:none" />
      <rect
         transform="matrix(0,1,-1,0,0,0)"
         y="-40"
         x="64"
         height="1"
         width="4"
         id="rect5866"
         style="fill:#c0c0c0;fill-opacity:1;fill-rule:nonzero;stroke:none" />
      <rect
         transform="matrix(0,1,-1,0,0,0)"
         style="fill:#909090;fill-opacity:1;fill-rule:nonzero;stroke:none"
         id="rect5868"
         width="4"
         height="1"
         x="64"
         y="-39" />
      <rect
         transform="matrix(0,1,-1,0,0,0)"
         y="-50"
         x="28"
         height="11"
         width="2"
         id="rect5870"
         style="fill:#909090;fill-opacity:1;fill-rule:nonzero;stroke:none" />
      <rect
         transform="matrix(0,1,-1,0,0,0)"
         style="fill:#606060;fill-opacity:1;fill-rule:nonzero;stroke:none"
         id="rect5872"
         width="1"
         height="4"
         x="31"
         y="-45" />
      <path
         sodipodi:nodetypes="ccccc"
         id="path5886"
         d="m 35,34 0,27 -1,1 0,-28 1,0 z"
         style="fill:#e6be00;fill-opacity:1;fill-rule:nonzero;stroke:none" />
    </g>
  </g>
</svg>
