<?xml version="1.0" encoding="UTF-8" standalone="no"?>
<!-- Created with Inkscape (http://www.inkscape.org/) -->

<svg
   xmlns:dc="http://purl.org/dc/elements/1.1/"
   xmlns:cc="http://creativecommons.org/ns#"
   xmlns:rdf="http://www.w3.org/1999/02/22-rdf-syntax-ns#"
   xmlns:svg="http://www.w3.org/2000/svg"
   xmlns="http://www.w3.org/2000/svg"
   xmlns:sodipodi="http://sodipodi.sourceforge.net/DTD/sodipodi-0.dtd"
   xmlns:inkscape="http://www.inkscape.org/namespaces/inkscape"
   width="32px"
   height="32px"
   id="svg3505"
   sodipodi:version="0.32"
   inkscape:version="0.47 r22583"
   sodipodi:docname="letter-00.svg"
   inkscape:output_extension="org.inkscape.output.svg.inkscape"
   version="1.1">
  <title
     id="title3698">Letter for Level Code</title>
  <defs
     id="defs3507">
    <inkscape:perspective
       sodipodi:type="inkscape:persp3d"
       inkscape:vp_x="0 : 16 : 1"
       inkscape:vp_y="0 : 1000 : 0"
       inkscape:vp_z="32 : 16 : 1"
       inkscape:persp3d-origin="16 : 10.666667 : 1"
       id="perspective2836" />
    <inkscape:perspective
       id="perspective2899"
       inkscape:persp3d-origin="0.5 : 0.33333333 : 1"
       inkscape:vp_z="1 : 0.5 : 1"
       inkscape:vp_y="0 : 1000 : 0"
       inkscape:vp_x="0 : 0.5 : 1"
       sodipodi:type="inkscape:persp3d" />
    <inkscape:perspective
       id="perspective3072"
       inkscape:persp3d-origin="0.5 : 0.33333333 : 1"
       inkscape:vp_z="1 : 0.5 : 1"
       inkscape:vp_y="0 : 1000 : 0"
       inkscape:vp_x="0 : 0.5 : 1"
       sodipodi:type="inkscape:persp3d" />
  </defs>
  <sodipodi:namedview
     id="base"
     pagecolor="#ffffff"
     bordercolor="#666666"
     borderopacity="1.0"
     inkscape:pageopacity="0.0"
     inkscape:pageshadow="2"
     inkscape:zoom="18.59375"
     inkscape:cx="16"
     inkscape:cy="16"
     inkscape:current-layer="layer1"
     showgrid="true"
     inkscape:grid-bbox="true"
     inkscape:document-units="px"
     objecttolerance="4"
     gridtolerance="4"
     guidetolerance="4"
     inkscape:window-width="824"
     inkscape:window-height="836"
     inkscape:window-x="0"
     inkscape:window-y="0"
     inkscape:object-paths="true"
     inkscape:object-nodes="true"
     inkscape:snap-bbox="true"
     inkscape:snap-guide="true"
     showguides="true"
     inkscape:guide-bbox="true"
     inkscape:window-maximized="0">
    <inkscape:grid
       type="xygrid"
       id="grid3515"
       units="px"
       visible="true"
       enabled="true"
       spacingx="0.25px"
       spacingy="0.25px"
       empspacing="4"
       snapvisiblegridlinesonly="true" />
  </sodipodi:namedview>
  <metadata
     id="metadata3510">
    <rdf:RDF>
      <cc:Work
         rdf:about="">
        <dc:format>image/svg+xml</dc:format>
        <dc:type
           rdf:resource="http://purl.org/dc/dcmitype/StillImage" />
        <dc:title>Letter for Level Code</dc:title>
        <dc:date>2010-10-26</dc:date>
        <dc:creator>
          <cc:Agent>
            <dc:title>Andreas Neudecker &lt;zapyon@gmx.net&gt;</dc:title>
          </cc:Agent>
        </dc:creator>
        <dc:rights>
          <cc:Agent>
            <dc:title>Copyright (C) 2010 by Andreas Neudecker</dc:title>
          </cc:Agent>
        </dc:rights>
        <dc:publisher>
          <cc:Agent>
            <dc:title>Andreas Neudecker</dc:title>
          </cc:Agent>
        </dc:publisher>
        <dc:identifier>letter-00</dc:identifier>
        <dc:description>Letter for level codes in McMinos.</dc:description>
      </cc:Work>
    </rdf:RDF>
  </metadata>
  <g
     id="layer1"
     inkscape:label="Layer 1"
     inkscape:groupmode="layer">
    <g
       id="g3662">
      <rect
         y="0"
         x="0"
         height="32"
         width="32"
         id="rect3660"
         style="fill:#000000;fill-opacity:0;fill-rule:nonzero;stroke:none" />
      <g
         id="g3649">
        <path
           sodipodi:nodetypes="ccccccccccccc"
           id="path3617"
           d="m 3,6 13,0 13,0 1,1 0,9 0,9 -1,1 L 16,26 3,26 2,25 2,16 2,7 3,6 z"
           style="fill:#ffffff;fill-opacity:1;fill-rule:nonzero;stroke:#000000;stroke-opacity:1;stroke-width:2;stroke-miterlimit:4;stroke-dasharray:none" />
        <path
           style="fill:#feffc1;fill-opacity:1;fill-rule:nonzero;stroke:none"
           d="m 3,6 13,0 13,0 1,1 0,9 0,9 -1,1 L 16,26 3,26 2,25 2,16 2,7 3,6 z"
           id="rect2836"
           sodipodi:nodetypes="ccccccccccccc" />
        <path
           style="fill:#000000;fill-opacity:1;fill-rule:nonzero;stroke:none"
           d="M 16 12 L 2 26 L 3.28125 26 L 16 13.28125 L 28.71875 26 L 30 26 L 16 12 z "
           id="path3612" />
        <path
           style="fill:#000000;fill-opacity:1;fill-rule:nonzero;stroke:none;stroke-width:1;stroke-miterlimit:4;stroke-dasharray:none"
           d="M 3 6 L 2 6.4375 L 13.75 18.25 C 15.242017 19.742017 16.757983 19.742017 18.25 18.25 L 30 6.3125 L 29 6 L 17.5 17.5 C 16.5 18.5 15.5 18.5 14.5 17.5 L 3 6 z "
           id="path3623" />
        <path
           sodipodi:nodetypes="ccccc"
           id="path3619"
           d="m 3,6 11.5,11.5 c 1,1 2,1 3,0 L 29,6 3,6 z"
           style="fill:#feffc1;fill-opacity:1;fill-rule:nonzero;stroke:none" />
        <path
           style="fill:#dae49c;fill-opacity:1;fill-rule:nonzero;stroke:none;stroke-width:2;stroke-linecap:butt;stroke-linejoin:bevel;stroke-miterlimit:4;stroke-opacity:1;stroke-dasharray:none;stroke-dashoffset:0"
           d="M 2.28125 6.71875 L 2 7 L 2 8 L 2 25 L 2.53125 25.46875 L 3 25 L 3 9 L 11 17 L 11.75 16.25 L 2.28125 6.71875 z "
           id="path3632" />
        <path
           style="fill:#dae49c;fill-opacity:1;fill-rule:nonzero;stroke:none"
           d="M 19.5625 16.84375 L 18.84375 17.65625 L 26.28125 25 L 4.25 25 L 3.28125 26 L 27.28125 26 L 28.71875 26 L 19.5625 16.84375 z M 12.40625 16.875 L 11.625 17.65625 L 12.875 18.875 C 14.2949 20.2949 16.178765 19.92739 17.65625 18.78125 C 16.349519 19.740239 15.046789 19.546789 13.75 18.25 L 12.40625 16.875 z "
           id="path3634" />
        <path
           style="fill:#ffffff;fill-opacity:1;fill-rule:nonzero;stroke:none"
           d="M 3,6 29,6 28,7 4,7 3,6 z"
           id="path3642" />
        <path
           style="fill:#ffffff;fill-opacity:1;fill-rule:nonzero;stroke:none"
           d="M 29.66377,6.6637701 30,7 30,25 29.5,25.5 29,25 29,7.3273109 29.66377,6.6637701 z"
           id="path3644"
           sodipodi:nodetypes="ccccccc" />
      </g>
    </g>
  </g>
</svg>
