<?xml version="1.0" encoding="UTF-8" standalone="no"?>
<!-- Created with Inkscape (http://www.inkscape.org/) -->

<svg
   xmlns:dc="http://purl.org/dc/elements/1.1/"
   xmlns:cc="http://creativecommons.org/ns#"
   xmlns:rdf="http://www.w3.org/1999/02/22-rdf-syntax-ns#"
   xmlns:svg="http://www.w3.org/2000/svg"
   xmlns="http://www.w3.org/2000/svg"
   xmlns:sodipodi="http://sodipodi.sourceforge.net/DTD/sodipodi-0.dtd"
   xmlns:inkscape="http://www.inkscape.org/namespaces/inkscape"
   width="32"
   height="32"
   id="svg3259"
   version="1.1"
   inkscape:version="0.48.5 r10040"
   sodipodi:docname="00.svg">
  <defs
     id="defs3261" />
  <sodipodi:namedview
     id="base"
     pagecolor="#ffffff"
     bordercolor="#666666"
     borderopacity="1.0"
     inkscape:pageopacity="0.0"
     inkscape:pageshadow="2"
     inkscape:zoom="17.21875"
     inkscape:cx="16"
     inkscape:cy="16"
     inkscape:document-units="px"
     inkscape:current-layer="layer1"
     showgrid="true"
     gridtolerance="17"
     showguides="true"
     inkscape:guide-bbox="true"
     inkscape:window-width="1024"
     inkscape:window-height="768"
     inkscape:window-x="0"
     inkscape:window-y="2"
     inkscape:window-maximized="0"
     guidetolerance="15">
    <inkscape:grid
       type="xygrid"
       id="grid3267"
       empspacing="4"
       visible="true"
       enabled="true"
       snapvisiblegridlinesonly="true" />
    <sodipodi:guide
       orientation="1,0"
       position="16,36"
       id="guide3269" />
    <sodipodi:guide
       orientation="0,1"
       position="-4,16"
       id="guide3271" />
    <sodipodi:guide
       orientation="-0.70710678,0.70710678"
       position="15,15"
       id="guide3860" />
    <sodipodi:guide
       orientation="-0.70710678,0.70710678"
       position="8,4"
       id="guide3864" />
    <sodipodi:guide
       orientation="-0.70710678,0.70710678"
       position="-4,12"
       id="guide3870" />
  </sodipodi:namedview>
  <metadata
     id="metadata3264">
    <rdf:RDF>
      <cc:Work
         rdf:about="">
        <dc:format>image/svg+xml</dc:format>
        <dc:type
           rdf:resource="http://purl.org/dc/dcmitype/StillImage" />
        <dc:title />
      </cc:Work>
    </rdf:RDF>
  </metadata>
  <g
     inkscape:label="Ground level"
     inkscape:groupmode="layer"
     id="layer1"
     transform="translate(0,-1020.3622)">
    <g
       id="g63729">
      <rect
         y="1020.3622"
         x="0"
         height="32"
         width="32"
         id="rect10063"
         style="fill:none;stroke:none" />
      <path
         id="path3093"
         d="m 16.1875,1024.3622 a 12,12 0 0 0 -4.375,0.75 4,4 0 0 1 0.0625,0.2188 4,4 0 0 1 -1.0625,3.8437 4,4 0 0 1 -1.15625,0.8438 l 0.78125,0.7812 a 8,8 0 0 1 4.5625,-1.4375 8,8 0 0 1 8,8 8,8 0 0 1 -1.4375,4.5625 l 2.9375,2.9375 a 12,12 0 0 0 3.09375,-11.5937 12,12 0 0 0 -0.125,-0.4063 6,6 0 0 1 -6.71875,-1.2187 6,6 0 0 1 -1.1875,-6.7188 12,12 0 0 0 -0.46875,-0.1562 12,12 0 0 0 -2.90625,-0.4063 z m -6.34375,1.6875 c 0.044986,0.129 0.097184,0.2714 0.125,0.4063 a 2.5,2.5 0 0 0 -0.09375,-0.4063 12,12 0 0 0 -0.03125,0 z m 0.125,0.4063 C 9.996566,1026.5908 10,1026.7179 10,1026.8622 a 2.5,2.5 0 0 0 -0.03125,-0.4062 z m 11.78125,5.25 a 4,4 0 0 0 0.6875,0.375 c -0.239277,-0.1013 -0.474699,-0.2313 -0.6875,-0.375 z"
         style="fill:black;fill-opacity:0.25098039;stroke:none"
         inkscape:connector-curvature="0" />
      <path
         id="path3850"
         d="m 5.96875,1029.7997 a 12,12 0 0 0 -1.6875,4.0938 2.2585649,2.2585649 0 0 1 1.28125,1.5 2.2585649,2.2585649 0 0 1 -0.5625,2.1875 2.2585649,2.2585649 0 0 1 -0.84375,0.5312 12,12 0 0 0 0.125,0.6563 8,8 0 0 1 0.0625,-0.063 8,8 0 0 1 2.65625,-1.75 8,8 0 0 1 0.03125,0 8,8 0 0 1 3.40625,-6.1563 l -0.78125,-0.7812 -0.03125,0 a 4,4 0 0 1 -3.65625,-0.2188 z m 1.6875,10.75 a 5,5 0 0 0 -0.59375,0.2188 c 0.1914214,-0.081 0.390295,-0.1587 0.59375,-0.2188 z m 13.90625,1.375 a 8,8 0 0 1 -3.59375,2.8438 8,8 0 0 1 -1.0625,3.5625 12,12 0 0 0 7.59375,-3.4688 l -2.9375,-2.9375 z"
         style="fill:#f0f0f0;fill-opacity:0.25098039;stroke:none"
         inkscape:connector-curvature="0" />
      <path
         id="path3856"
         d="m 4.34375,1038.706 a 8,8 0 0 0 0,11.3125 8,8 0 0 0 11.3125,0 l -2.265625,-2.2657 A 5,5 0 0 1 9,1050.3622 a 5,5 0 0 1 -5,-5 5,5 0 0 1 2.6132812,-4.3867 L 4.34375,1038.706 z"
         style="fill:#f0f0f0;fill-opacity:0.25098039;stroke:none"
         inkscape:connector-curvature="0" />
      <path
         id="path3095"
         d="m 10.117188,1036.3622 a 8,8 0 0 0 -5.773438,2.3438 l 2.2695312,2.2695 A 5,5 0 0 1 9,1040.3622 a 5,5 0 0 1 5,5 5,5 0 0 1 -0.609375,2.3906 l 2.265625,2.2657 a 8,8 0 0 0 2.070312,-7.7266 8,8 0 0 0 -5.65625,-5.6563 8,8 0 0 0 -1.953124,-0.2734 z"
         style="fill:black;fill-opacity:0.25098039;stroke:none"
         inkscape:connector-curvature="0" />
      <path
         inkscape:connector-curvature="0"
         id="path3852"
         d="m 8.0585938,1022.3622 a 4,4 0 0 0 -2.8867188,1.1719 l 1.1347656,1.1347 A 2.5,2.5 0 0 1 7.5,1024.3622 a 2.5,2.5 0 0 1 2.5,2.5 2.5,2.5 0 0 1 -0.3046875,1.1953 l 1.1328125,1.1328 a 4,4 0 0 0 1.035156,-3.8633 4,4 0 0 0 -2.8281248,-2.8281 4,4 0 0 0 -0.9765624,-0.1367 z"
         style="fill:black;fill-opacity:0.25098039;stroke:none" />
      <path
         id="path3091"
         d="m 5.171875,1023.5341 a 4,4 0 0 0 0,5.6562 4,4 0 0 0 5.65625,0 l -1.1328125,-1.1328 A 2.5,2.5 0 0 1 7.5,1029.3622 a 2.5,2.5 0 0 1 -2.5,-2.5 2.5,2.5 0 0 1 1.3066406,-2.1934 l -1.1347656,-1.1347 z"
         style="fill:#f0f0f0;fill-opacity:0.25098039;stroke:none"
         inkscape:connector-curvature="0" />
      <path
         id="path3097"
         d="m 28.058594,1044.3622 a 4,4 0 0 0 -2.886719,1.1719 l 1.134766,1.1347 a 2.5,2.5 0 0 1 1.193359,-0.3066 2.5,2.5 0 0 1 2.5,2.5 2.5,2.5 0 0 1 -0.304688,1.1953 l 1.132813,1.1328 a 4,4 0 0 0 1.035156,-3.8633 4,4 0 0 0 -2.828125,-2.8281 4,4 0 0 0 -0.976562,-0.1367 z"
         style="fill:black;fill-opacity:0.25098039;stroke:none"
         inkscape:connector-curvature="0" />
      <path
         id="path3099"
         d="m 25.171875,1045.5341 a 4,4 0 0 0 0,5.6562 4,4 0 0 0 5.65625,0 l -1.132813,-1.1328 a 2.5,2.5 0 0 1 -2.195312,1.3047 2.5,2.5 0 0 1 -2.5,-2.5 2.5,2.5 0 0 1 1.306641,-2.1934 l -1.134766,-1.1347 z"
         style="fill:#f0f0f0;fill-opacity:0.25098039;stroke:none"
         inkscape:connector-curvature="0" />
      <path
         id="path4196"
         d="m 3.4199219,1033.7274 a 2.2585649,2.2585649 0 0 0 -1.6289063,0.6621 l 0.640625,0.6407 a 1.4116032,1.4116032 0 0 1 0.6738282,-0.1739 1.4116032,1.4116032 0 0 1 1.4121093,1.4122 1.4116032,1.4116032 0 0 1 -0.1738281,0.6738 l 0.640625,0.6406 a 2.2585649,2.2585649 0 0 0 0.5859375,-2.1816 2.2585649,2.2585649 0 0 0 -1.5976563,-1.5977 2.2585649,2.2585649 0 0 0 -0.5527343,-0.076 z"
         style="fill:black;fill-opacity:0.25098039;stroke:none"
         inkscape:connector-curvature="0" />
      <path
         id="path4198"
         d="m 1.7910156,1034.3895 a 2.2585649,2.2585649 0 0 0 0,3.1934 2.2585649,2.2585649 0 0 0 3.1933594,0 l -0.640625,-0.6406 a 1.4116032,1.4116032 0 0 1 -1.2382812,0.7383 1.4116032,1.4116032 0 0 1 -1.4121094,-1.4121 1.4116032,1.4116032 0 0 1 0.7382812,-1.2383 l -0.640625,-0.6407 z"
         style="fill:#f0f0f0;fill-opacity:0.25098039;stroke:none"
         inkscape:connector-curvature="0" />
      <path
         id="path5218"
         d="m 25.086984,1021.3999 a 6,6 0 0 0 -4.330078,1.7578 l 1.599609,1.5996 a 4,4 0 0 1 1.642578,-0.3574 4,4 0 0 1 4,4 4,4 0 0 1 -0.357421,1.6426 l 1.599609,1.5996 a 6,6 0 0 0 1.552734,-5.7949 6,6 0 0 0 -4.242187,-4.2442 6,6 0 0 0 -1.464844,-0.2031 z"
         style="fill:black;fill-opacity:0.25098039;stroke:none"
         inkscape:connector-curvature="0" />
      <path
         inkscape:connector-curvature="0"
         style="fill:black;fill-opacity:0.25098039;stroke:none"
         d="m 2.5209177,1022.3626 a 1.5000021,1.5000021 0 0 0 -1.0818209,0.4397 l 0.4254643,0.4255 a 0.93750139,0.93750139 0 0 1 0.4475159,-0.1155 0.93750139,0.93750139 0 0 1 0.9378375,0.9378 0.93750139,0.93750139 0 0 1 -0.1154461,0.4476 l 0.4254643,0.4254 a 1.5000021,1.5000021 0 0 0 0.3891443,-1.4489 1.5000021,1.5000021 0 0 0 -1.0610666,-1.0611 1.5000021,1.5000021 0 0 0 -0.3670927,-0.05 z"
         id="path5290" />
      <path
         inkscape:connector-curvature="0"
         style="fill:#f0f0f0;fill-opacity:0.25098039;stroke:none"
         d="m 1.4390968,1022.8023 a 1.5000021,1.5000021 0 0 0 0,2.1208 1.5000021,1.5000021 0 0 0 2.1208359,0 l -0.4254643,-0.4254 a 0.93750139,0.93750139 0 0 1 -0.8223914,0.4903 0.93750139,0.93750139 0 0 1 -0.9378376,-0.9379 0.93750139,0.93750139 0 0 1 0.4903217,-0.8223 l -0.4254643,-0.4255 z"
         id="path5292" />
      <path
         id="path5298"
         d="m 22.520918,1048.3626 a 1.5000021,1.5000021 0 0 0 -1.081821,0.4397 l 0.425464,0.4255 a 0.93750139,0.93750139 0 0 1 0.447516,-0.1155 0.93750139,0.93750139 0 0 1 0.937838,0.9378 0.93750139,0.93750139 0 0 1 -0.115446,0.4476 l 0.425464,0.4254 a 1.5000021,1.5000021 0 0 0 0.389144,-1.4489 1.5000021,1.5000021 0 0 0 -1.061066,-1.0611 1.5000021,1.5000021 0 0 0 -0.367093,-0.051 z"
         style="fill:black;fill-opacity:0.25098039;stroke:none"
         inkscape:connector-curvature="0" />
      <path
         id="path5300"
         d="m 21.439097,1048.8023 a 1.5000021,1.5000021 0 0 0 0,2.1208 1.5000021,1.5000021 0 0 0 2.120836,0 l -0.425464,-0.4254 a 0.93750139,0.93750139 0 0 1 -0.822392,0.4903 0.93750139,0.93750139 0 0 1 -0.937837,-0.9379 0.93750139,0.93750139 0 0 1 0.490321,-0.8223 l -0.425464,-0.4255 z"
         style="fill:#f0f0f0;fill-opacity:0.25098039;stroke:none"
         inkscape:connector-curvature="0" />
      <path
         inkscape:connector-curvature="0"
         style="fill:#f0f0f0;fill-opacity:0.25098039;stroke:none"
         d="m 20.756906,1023.1577 a 6,6 0 0 0 0,8.4844 6,6 0 0 0 8.484375,0 l -1.599609,-1.5996 a 4,4 0 0 1 -3.642579,2.3574 4,4 0 0 1 -4,-4 4,4 0 0 1 2.357422,-3.6426 l -1.599609,-1.5996 z"
         id="path12463" />
    </g>
    <path
       style="fill:red;fill-opacity:0.25098039000000000;stroke:none"
       d="m 60.09375,1021.3949 a 6,6 0 0 0 -4.34375,1.75 6,6 0 0 0 -1.1875,1.7812 12,12 0 0 0 -0.03125,0 12,12 0 0 0 -0.4375,-0.1562 12,12 0 0 0 -2.90625,-0.4063 12,12 0 0 0 -4.375,0.75 4,4 0 0 0 -2.78125,-2.625 4,4 0 0 0 -0.96875,-0.125 4,4 0 0 0 -2.875,1.1875 4,4 0 0 0 0,5.625 4,4 0 0 0 0.78125,0.625 12,12 0 0 0 -1.6875,4.0938 2.2585649,2.2585649 0 0 1 0.1875,0.094 2.2585649,2.2585649 0 0 0 -0.5,-0.1875 2.2585649,2.2585649 0 0 0 -0.5625,-0.063 2.2585649,2.2585649 0 0 0 -1.625,0.6563 2.2585649,2.2585649 0 0 0 0,3.1875 2.2585649,2.2585649 0 0 0 2.375,0.5312 12,12 0 0 0 0.125,0.6563 8,8 0 0 0 0.0625,11.25 8,8 0 0 0 11.3125,0 8,8 0 0 0 1.25,-1.6875 12,12 0 0 0 7.59375,-3.4688 12,12 0 0 0 3.09375,-11.5937 12,12 0 0 0 -0.125,-0.4063 6,6 0 0 0 1.78125,-1.2187 6,6 0 0 0 1.53125,-5.7813 6,6 0 0 0 -4.21875,-4.25 6,6 0 0 0 -1.46875,-0.2187 z m -22.71875,0.9687 a 1.5000021,1.5000021 0 0 0 -0.9375,0.4375 1.5000021,1.5000021 0 0 0 0,2.125 1.5000021,1.5000021 0 0 0 2.125,0 1.5000021,1.5000021 0 0 0 0.375,-1.4375 1.5000021,1.5000021 0 0 0 -1.0625,-1.0625 1.5000021,1.5000021 0 0 0 -0.34375,-0.063 1.5000021,1.5000021 0 0 0 -0.15625,0 z m 4.875,2 a 2.5,2.5 0 0 1 0.25,0 2.5,2.5 0 0 1 0.5,0.063 c -0.162744,-0.033 -0.327411,-0.063 -0.5,-0.063 -0.172589,0 -0.337256,0.029 -0.5,0.063 a 2.5,2.5 0 0 1 0.25,-0.063 z m 16.65625,0.031 c -0.243349,0.01 -0.48801,0.047 -0.71875,0.094 a 4,4 0 0 1 0.71875,-0.094 z m -22.375,0.1562 c 0.03654,0.057 0.07737,0.1086 0.125,0.1563 a 0.93750139,0.93750139 0 0 1 -0.125,-0.1563 z m 10.375,0.9688 a 4,4 0 0 1 0.0625,0.375 4,4 0 0 0 -0.0625,-0.375 z m 14.90625,0.063 a 4,4 0 0 1 0.3125,0.3437 c -0.09531,-0.12 -0.204273,-0.2355 -0.3125,-0.3437 z m -21.75,0.7812 c -0.0333,0.1627 -0.0625,0.3274 -0.0625,0.5 0,0.1726 0.0292,0.3373 0.0625,0.5 a 2.5,2.5 0 0 1 -0.0625,-0.5 2.5,2.5 0 0 1 0.0625,-0.5 z m 4.875,0 a 2.5,2.5 0 0 1 0.03125,0.094 2.5,2.5 0 0 1 0,0.063 c 0.0081,0.052 0.02831,0.1043 0.03125,0.1562 a 2.5,2.5 0 0 1 0,0.1875 2.5,2.5 0 0 1 -0.0625,0.5 c 0.0333,-0.1627 0.0625,-0.3274 0.0625,-0.5 0,-0.1182 -0.01539,-0.23 -0.03125,-0.3437 -0.0073,-0.053 -0.02075,-0.105 -0.03125,-0.1563 z m 18,1.3438 A 4,4 0 0 1 63,1028.3949 c 0,-0.2331 -0.02426,-0.4655 -0.0625,-0.6875 z M 55,1028.3949 c 0,0.233 0.02426,0.4654 0.0625,0.6875 A 4,4 0 0 1 55,1028.3949 z m -13,0.9062 c 0.162744,0.033 0.327411,0.063 0.5,0.063 0.172589,0 0.337256,-0.029 0.5,-0.063 a 2.5,2.5 0 0 1 -0.5,0.063 2.5,2.5 0 0 1 -0.5,-0.063 z m 9.78125,0.25 a 8,8 0 0 1 1.34375,0.4375 c -0.429932,-0.1818 -0.879295,-0.3326 -1.34375,-0.4375 z m 6.46875,2.7813 c 0.241765,0.046 0.494974,0.063 0.75,0.063 a 4,4 0 0 1 -0.75,-0.063 z m -14.71875,0.375 c -0.144638,0.2018 -0.280488,0.4097 -0.40625,0.625 a 8,8 0 0 1 0.40625,-0.625 z M 59,1033.3011 a 6,6 0 0 0 1.09375,0.094 A 6,6 0 0 1 59,1033.3011 z m -19.5,0.7188 a 2.2585649,2.2585649 0 0 1 0.1875,0.125 2.2585649,2.2585649 0 0 0 -0.1875,-0.125 z m 18.125,0.9687 a 8,8 0 0 1 0.15625,0.5 c -0.04126,-0.1725 -0.104016,-0.3321 -0.15625,-0.5 z m 0.375,2.375 a 8,8 0 0 1 -0.09375,1.1563 C 57.960014,1038.1446 58,1037.7537 58,1037.3636 z m -19.40625,0.2188 a 1.4116032,1.4116032 0 0 1 -0.375,0.094 c 0.128503,-0.012 0.258729,-0.05 0.375,-0.094 z m 19.28125,1.125 a 8,8 0 0 1 -0.1875,0.8125 c 0.07593,-0.2712 0.140152,-0.5306 0.1875,-0.8125 z m -0.3125,1.25 a 8,8 0 0 1 -0.3125,0.75 c 0.111245,-0.2419 0.225342,-0.496 0.3125,-0.75 z m -12.5625,0.5 a 5,5 0 0 1 0.9375,0.3125 5,5 0 0 1 0.71875,0.375 c -0.231401,-0.147 -0.463629,-0.2671 -0.71875,-0.375 -0.299096,-0.1266 -0.612012,-0.2459 -0.9375,-0.3125 z m -2.09375,0.031 c -0.290835,0.066 -0.574564,0.1674 -0.84375,0.2813 a 5,5 0 0 1 0.84375,-0.2813 z m 9.3125,0.4688 a 8,8 0 0 1 0.25,0.5625 8,8 0 0 1 0.25,0.7812 8,8 0 0 0 -0.25,-0.7812 8,8 0 0 0 -0.25,-0.5625 z m -4,1.7187 a 5,5 0 0 1 0.375,0.75 c -0.1116,-0.2639 -0.221692,-0.5116 -0.375,-0.75 z m -8.4375,0.031 c -0.146972,0.2314 -0.267093,0.4636 -0.375,0.7187 -0.126507,0.2991 -0.245896,0.612 -0.3125,0.9375 a 5,5 0 0 1 0.3125,-0.9375 5,5 0 0 1 0.375,-0.7187 z m 22.875,1.6562 a 4,4 0 0 0 -2.46875,1.1875 4,4 0 0 0 0,5.625 4,4 0 0 0 5.625,0 4,4 0 0 0 1.0625,-3.8437 4,4 0 0 0 -2.84375,-2.8438 4,4 0 0 0 -0.96875,-0.125 4,4 0 0 0 -0.40625,0 z m -13.6875,0.5 a 5,5 0 0 1 0.03125,0.5 c 0,-0.1726 -0.01418,-0.3319 -0.03125,-0.5 z m -9.96875,0.5 c 0,0.1726 0.01418,0.3319 0.03125,0.5 A 5,5 0 0 1 39,1045.3636 z m 9.90625,1 a 5,5 0 0 1 -0.3125,0.9375 c 0.126507,-0.2991 0.245896,-0.612 0.3125,-0.9375 z m 13.34375,0 a 2.5,2.5 0 0 1 0.25,0 2.5,2.5 0 0 1 0.5,0.063 c -0.162744,-0.033 -0.327411,-0.063 -0.5,-0.063 -0.172589,0 -0.337256,0.029 -0.5,0.063 a 2.5,2.5 0 0 1 0.25,-0.063 z m -22.84375,0.9375 c 0.1116,0.2639 0.221692,0.5116 0.375,0.75 a 5,5 0 0 1 -0.375,-0.75 z m 8.6875,0.9063 a 5,5 0 0 1 -0.5625,0.6875 5,5 0 0 1 -0.75,0.625 5,5 0 0 1 -0.5,0.2812 c 0.172991,-0.09 0.339536,-0.1728 0.5,-0.2812 0.266002,-0.1798 0.523794,-0.3988 0.75,-0.625 0.20581,-0.2059 0.394931,-0.4485 0.5625,-0.6875 z m 9.28125,0.1562 a 1.5000021,1.5000021 0 0 0 -0.9375,0.4375 1.5000021,1.5000021 0 0 0 0,2.125 1.5000021,1.5000021 0 0 0 2.125,0 1.5000021,1.5000021 0 0 0 0.375,-1.4375 1.5000021,1.5000021 0 0 0 -1.0625,-1.0625 1.5000021,1.5000021 0 0 0 -0.34375,-0.063 1.5000021,1.5000021 0 0 0 -0.15625,0 z m 2.6875,0 c -0.0333,0.1627 -0.0625,0.3274 -0.0625,0.5 0,0.1726 0.0292,0.3373 0.0625,0.5 a 2.5,2.5 0 0 1 -0.0625,-0.5 2.5,2.5 0 0 1 0.0625,-0.5 z m 4.875,0 a 2.5,2.5 0 0 1 0.0625,0.5 2.5,2.5 0 0 1 -0.0625,0.5 c 0.0333,-0.1627 0.0625,-0.3274 0.0625,-0.5 0,-0.1726 -0.0292,-0.3373 -0.0625,-0.5 z m -23.59375,1.2188 c 0.231401,0.1469 0.463629,0.267 0.71875,0.375 0.299096,0.1265 0.612012,0.2458 0.9375,0.3125 a 5,5 0 0 1 -0.9375,-0.3125 5,5 0 0 1 -0.71875,-0.375 z m 3.15625,0.75 a 5,5 0 0 1 -0.5,0.031 c 0.172589,0 0.331915,-0.014 0.5,-0.031 z m 12.03125,0.2187 c 0.03654,0.057 0.07737,0.1086 0.125,0.1563 a 0.93750139,0.93750139 0 0 1 -0.125,-0.1563 z m 5.46875,0.75 c 0.162744,0.033 0.327411,0.063 0.5,0.063 0.172589,0 0.337256,-0.029 0.5,-0.063 a 2.5,2.5 0 0 1 -0.5,0.063 2.5,2.5 0 0 1 -0.5,-0.063 z"
       id="path55595"
       inkscape:connector-curvature="0" />
    <path
       inkscape:transform-center-x="-2.5"
       inkscape:connector-curvature="0"
       id="path55669"
       d="m -5,1047.3636 0,-1 -26,0 -1,1 1,0 26,0 z m 0,-2 0,-1 -24,0 -1,1 1,0 24,0 z m 0,-2 0,-1 -22,0 -1,1 1,0 22,0 z m 0,-2 0,-1 -20,0 -1,1 1,0 20,0 z m 0,-2 0,-1 -18,0 -1,1 1,0 18,0 z m 0,-5 0,-1 -13,0 -1,1 14,0 z m 0,-2 0,-1 -11,0 -1,1 12,0 z m 0,-2 0,-1 -9,0 -1,1 10,0 z m 0,-2 0,-1 -7,0 -1,1 8,0 z m 0,-2 0,-1 -5,0 -1,1 6,0 z"
       style="fill:black;fill-opacity:0.50196078;fill-rule:nonzero;stroke:none" />
    <path
       id="path55671"
       d="m -32,1020.3636 0,26 0,1 1,-1 0,-26 -1,0 z m 2,0 0,24 0,1 1,-1 0,-24 -1,0 z m 2,0 0,22 0,1 1,-1 0,-22 -1,0 z m 2,0 0,20 0,1 1,-1 0,-20 -1,0 z m 2,0 0,18 0,1 1,-1 0,-18 -1,0 z m 5,0 0,14 1,-1 0,-13 -1,0 z m 2,0 0,12 1,-1 0,-11 -1,0 z m 2,0 0,10 1,-1 0,-9 -1,0 z m 2,0 0,8 1,-1 0,-7 -1,0 z m 2,0 0,6 1,-1 0,-5 -1,0 z"
       style="fill:black;fill-opacity:0.50196078;fill-rule:nonzero;stroke:none"
       inkscape:connector-curvature="0" />
    <path
       style="fill:red;fill-opacity:0.25098039000000000;stroke:none"
       d="M 37.3125 2.75 C 36.794732 2.75 36.375 3.1697323 36.375 3.6875 C 36.375 4.2052677 36.794732 4.625 37.3125 4.625 C 37.830268 4.625 38.25 4.2052677 38.25 3.6875 C 38.25 3.1697323 37.830268 2.75 37.3125 2.75 z M 42.5 4 C 41.119288 4 40 5.1192881 40 6.5 C 40 7.8807119 41.119288 9 42.5 9 C 43.880712 9 45 7.8807119 45 6.5 C 45 5.1192881 43.880712 4 42.5 4 z M 59 4.03125 C 56.790861 4.03125 55 5.822111 55 8.03125 C 55 10.240389 56.790861 12.03125 59 12.03125 C 61.209139 12.03125 63 10.240389 63 8.03125 C 63 5.822111 61.209139 4.03125 59 4.03125 z M 50 9 C 45.719997 9 42.245817 12.36705 42.03125 16.59375 A 8 8 0 0 1 45.125 16 A 8 8 0 0 1 47.0625 16.28125 A 8 8 0 0 1 52.71875 21.9375 A 8 8 0 0 1 52.96875 24.4375 C 55.921422 23.2606 58 20.3724 58 17 C 58 12.5817 54.418278 9 50 9 z M 38.09375 14.5 C 37.314143 14.5 36.6875 15.126643 36.6875 15.90625 C 36.6875 16.685857 37.314143 17.3125 38.09375 17.3125 C 38.873357 17.3125 39.53125 16.685857 39.53125 15.90625 C 39.53125 15.126643 38.873357 14.5 38.09375 14.5 z M 44 20 C 41.238576 20 39 22.238576 39 25 C 39 27.761424 41.238576 30 44 30 C 46.761424 30 49 27.761424 49 25 C 49 22.238576 46.761424 20 44 20 z M 62.5 26 C 61.119288 26 60 27.119288 60 28.5 C 60 29.880712 61.119288 31 62.5 31 C 63.880712 31 65 29.880712 65 28.5 C 65 27.119288 63.880712 26 62.5 26 z M 57.3125 28.75 C 56.794732 28.75 56.375 29.169732 56.375 29.6875 C 56.375 30.205268 56.794732 30.625 57.3125 30.625 C 57.830268 30.625 58.25 30.205268 58.25 29.6875 C 58.25 29.169732 57.830268 28.75 57.3125 28.75 z "
       transform="translate(0,1020.3622)"
       id="path60871" />
    <path
       inkscape:connector-curvature="0"
       style="fill:black;fill-opacity:0.50196078;fill-rule:nonzero;stroke:none"
       d="m -32,1060.3622 0,26 0,1 1,-1 0,-26 -1,0 z m 2,0 0,24 0,1 1,-1 0,-24 -1,0 z m 2,0 0,22 0,1 1,-1 0,-22 -1,0 z m 2,0 0,20 0,1 1,-1 0,-20 -1,0 z m 2,0 0,18 0,1 1,-1 0,-18 -1,0 z m 5,0 0,14 1,-1 0,-13 -1,0 z m 2,0 0,12 1,-1 0,-11 -1,0 z m 2,0 0,10 1,-1 0,-9 -1,0 z m 2,0 0,8 1,-1 0,-7 -1,0 z m 2,0 0,6 1,-1 0,-5 -1,0 z"
       id="path60890" />
    <path
       id="path60895"
       d="m -10,45 -1,1 6,0 0,-1 z m -2,2 -1,1 8,0 0,-1 z m -2,2 -1,1 10,0 0,-1 z m -2,2 -1,1 12,0 0,-1 z m -2,2 -1,1 14,0 0,-1 z"
       style="fill:black;fill-opacity:0.50196078;fill-rule:nonzero;stroke:none"
       inkscape:connector-curvature="0"
       inkscape:transform-center-x="-9"
       transform="translate(0,1020.3622)"
       sodipodi:nodetypes="ccccccccccccccccccccccccc" />
    <path
       sodipodi:nodetypes="ccccccccccccccccccccccccc"
       inkscape:transform-center-x="-9"
       inkscape:connector-curvature="0"
       style="fill:black;fill-opacity:0.50196078;fill-rule:nonzero;stroke:none"
       d="m -10,1087.3622 -1,-1 6,0 0,1 z m -2,-2 -1,-1 8,0 0,1 z m -2,-2 -1,-1 10,0 0,1 z m -2,-2 -1,-1 12,0 0,1 z m -2,-2 -1,-1 14,0 0,1 z"
       id="path60897" />
    <g
       id="g60904"
       transform="matrix(0,1,-1,0,1055.3622,1097.3622)"
       inkscape:transform-center-y="9">
      <path
         id="path60900"
         d="m -10,45 -1,1 6,0 0,-1 z m -2,2 -1,1 8,0 0,-1 z m -2,2 -1,1 10,0 0,-1 z m -2,2 -1,1 12,0 0,-1 z m -2,2 -1,1 14,0 0,-1 z"
         style="fill:black;fill-opacity:0.50196078;fill-rule:nonzero;stroke:none"
         inkscape:connector-curvature="0"
         inkscape:transform-center-x="-9"
         transform="translate(0,1020.3622)"
         sodipodi:nodetypes="ccccccccccccccccccccccccc" />
      <path
         sodipodi:nodetypes="ccccccccccccccccccccccccc"
         inkscape:transform-center-x="-9"
         inkscape:connector-curvature="0"
         style="fill:black;fill-opacity:0.50196078;fill-rule:nonzero;stroke:none"
         d="m -10,1087.3622 -1,-1 6,0 0,1 z m -2,-2 -1,-1 8,0 0,1 z m -2,-2 -1,-1 10,0 0,1 z m -2,-2 -1,-1 12,0 0,1 z m -2,-2 -1,-1 14,0 0,1 z"
         id="path60902" />
    </g>
  </g>
  <g
     inkscape:groupmode="layer"
     id="layer7"
     inkscape:label="Holes" />
  <g
     inkscape:groupmode="layer"
     id="layer6"
     inkscape:label="Wall" />
  <g
     inkscape:groupmode="layer"
     id="layer5"
     inkscape:label="right"
     style="display:inline" />
  <g
     inkscape:groupmode="layer"
     id="layer4"
     inkscape:label="left" />
  <g
     inkscape:groupmode="layer"
     id="layer3"
     inkscape:label="bottom"
     style="display:inline" />
  <g
     inkscape:groupmode="layer"
     id="layer2"
     inkscape:label="top" />
</svg>
