<?xml version="1.0" encoding="UTF-8" standalone="no"?>
<!-- Created with Inkscape (http://www.inkscape.org/) -->

<svg
   xmlns:dc="http://purl.org/dc/elements/1.1/"
   xmlns:cc="http://creativecommons.org/ns#"
   xmlns:rdf="http://www.w3.org/1999/02/22-rdf-syntax-ns#"
   xmlns:svg="http://www.w3.org/2000/svg"
   xmlns="http://www.w3.org/2000/svg"
   xmlns:sodipodi="http://sodipodi.sourceforge.net/DTD/sodipodi-0.dtd"
   xmlns:inkscape="http://www.inkscape.org/namespaces/inkscape"
   width="32px"
   height="32px"
   id="svg3505"
   sodipodi:version="0.32"
   inkscape:version="0.48.5 r10040"
   sodipodi:docname="00.svg"
   inkscape:output_extension="org.inkscape.output.svg.inkscape"
   version="1.1">
  <defs
     id="defs3507">
    <inkscape:perspective
       sodipodi:type="inkscape:persp3d"
       inkscape:vp_x="0 : 16 : 1"
       inkscape:vp_y="0 : 1000 : 0"
       inkscape:vp_z="32 : 16 : 1"
       inkscape:persp3d-origin="16 : 10.666667 : 1"
       id="perspective3513" />
    <inkscape:perspective
       id="perspective4690"
       inkscape:persp3d-origin="372.04724 : 350.78739 : 1"
       inkscape:vp_z="744.09448 : 526.18109 : 1"
       inkscape:vp_y="0 : 1000 : 0"
       inkscape:vp_x="0 : 526.18109 : 1"
       sodipodi:type="inkscape:persp3d" />
    <inkscape:perspective
       id="perspective2428"
       inkscape:persp3d-origin="372.04724 : 350.78739 : 1"
       inkscape:vp_z="744.09448 : 526.18109 : 1"
       inkscape:vp_y="0 : 1000 : 0"
       inkscape:vp_x="0 : 526.18109 : 1"
       sodipodi:type="inkscape:persp3d" />
  </defs>
  <sodipodi:namedview
     id="base"
     pagecolor="#ffffff"
     bordercolor="#666666"
     borderopacity="1.0"
     inkscape:pageopacity="0.0"
     inkscape:pageshadow="2"
     inkscape:zoom="16.375"
     inkscape:cx="16"
     inkscape:cy="16"
     inkscape:current-layer="layer1"
     showgrid="true"
     inkscape:grid-bbox="true"
     inkscape:document-units="px"
     objecttolerance="10000"
     gridtolerance="10000"
     guidetolerance="10000"
     inkscape:window-width="1024"
     inkscape:window-height="741"
     inkscape:window-x="0"
     inkscape:window-y="2"
     inkscape:object-paths="true"
     inkscape:object-nodes="true"
     inkscape:snap-bbox="true"
     inkscape:snap-guide="true"
     inkscape:window-maximized="1">
    <inkscape:grid
       type="xygrid"
       id="grid3515"
       units="px"
       visible="true"
       enabled="true"
       spacingx="1px"
       spacingy="1px"
       empspacing="4"
       snapvisiblegridlinesonly="true" />
  </sodipodi:namedview>
  <metadata
     id="metadata3510">
    <rdf:RDF>
      <cc:Work
         rdf:about="">
        <dc:format>image/svg+xml</dc:format>
        <dc:type
           rdf:resource="http://purl.org/dc/dcmitype/StillImage" />
        <dc:title></dc:title>
        <dc:date>2010-04-05</dc:date>
        <dc:creator>
          <cc:Agent>
            <dc:title>Andreas Neudecker &lt;zapyon@gmx.net&gt;</dc:title>
          </cc:Agent>
        </dc:creator>
        <dc:rights>
          <cc:Agent>
            <dc:title>Copyright (C) 2010 by Andreas Neudecker</dc:title>
          </cc:Agent>
        </dc:rights>
        <dc:publisher>
          <cc:Agent>
            <dc:title>Andreas Neudecker</dc:title>
          </cc:Agent>
        </dc:publisher>
        <dc:identifier>vorlage-32x32-mcminos</dc:identifier>
        <dc:description>Vorlage für 32x32-Pixel-Icons für McMinos. Metadaten jeweils entsprechend anpassen!</dc:description>
      </cc:Work>
    </rdf:RDF>
  </metadata>
  <g
     id="layer1"
     inkscape:label="Layer 1"
     inkscape:groupmode="layer">
    <g
       id="g3779">
      <path
         style="opacity:1;fill:#c0c0c0;fill-opacity:1;fill-rule:nonzero;stroke:none;stroke-width:2;stroke-linecap:round;stroke-linejoin:miter;stroke-miterlimit:4;stroke-dasharray:none;stroke-dashoffset:0;stroke-opacity:1"
         d="M 32,32 L 32,0 L 0,0 L 32,32 z"
         id="path3221" />
      <path
         inkscape:connector-curvature="0"
         id="path3219"
         d="M 0,0 0,32 32,32 0,0 z"
         style="fill:#606060;fill-opacity:1;fill-rule:nonzero;stroke:none" />
      <path
         id="rect2434"
         d="M 0 0 L 0 32 L 32 32 L 32 0 L 0 0 z M 1 1 L 31 1 L 31 31 L 1 31 L 1 1 z "
         style="opacity:1;fill:#000000;fill-opacity:1;fill-rule:nonzero;stroke:none;stroke-width:2;stroke-linecap:round;stroke-linejoin:miter;stroke-miterlimit:4;stroke-dasharray:none;stroke-dashoffset:0;stroke-opacity:1" />
      <path
         id="path3209"
         d="M 2 2 L 2 30 L 30 30 L 30 2 L 2 2 z M 3 3 L 29 3 L 29 29 L 3 29 L 3 3 z M 4 4 L 4 27 L 27 27 L 27 4 L 4 4 z M 5 5 L 26 5 L 26 26 L 5 26 L 5 5 z M 6 6 L 6 24 L 24 24 L 24 6 L 6 6 z M 7 7 L 23 7 L 23 23 L 7 23 L 7 7 z M 8 8 L 8 21 L 21 21 L 21 8 L 8 8 z M 9 9 L 20 9 L 20 20 L 9 20 L 9 9 z M 10 10 L 10 18 L 18 18 L 18 10 L 10 10 z M 11 11 L 17 11 L 17 17 L 11 17 L 11 11 z M 12 12 L 12 15 L 15 15 L 15 12 L 12 12 z "
         style="opacity:1;fill:black;fill-opacity:0.50196081;fill-rule:nonzero;stroke:none;stroke-width:2;stroke-linecap:round;stroke-linejoin:miter;stroke-miterlimit:4;stroke-dasharray:none;stroke-dashoffset:0;stroke-opacity:1" />
      <rect
         y="11"
         x="11"
         height="6"
         width="6"
         id="rect3247"
         style="fill:#e0e0e0;fill-opacity:1;fill-rule:nonzero;stroke:none" />
    </g>
  </g>
</svg>
