<?xml version="1.0" encoding="UTF-8" standalone="no"?>
<!-- Created with Inkscape (http://www.inkscape.org/) -->

<svg xmlns:dc="http://purl.org/dc/elements/1.1/" xmlns:cc="http://creativecommons.org/ns#" xmlns:rdf="http://www.w3.org/1999/02/22-rdf-syntax-ns#" xmlns:svg="http://www.w3.org/2000/svg" xmlns="http://www.w3.org/2000/svg" xmlns:sodipodi="http://sodipodi.sourceforge.net/DTD/sodipodi-0.dtd" xmlns:inkscape="http://www.inkscape.org/namespaces/inkscape" width="256" height="256" id="svg3505" sodipodi:version="0.32" inkscape:version="0.91 r13725" sodipodi:docname="icon.svg" inkscape:output_extension="org.inkscape.output.svg.inkscape" version="1.1">
  <sodipodi:namedview id="base" pagecolor="#ffffff" bordercolor="#666666" borderopacity="1.0" inkscape:pageopacity="0.0" inkscape:pageshadow="2" inkscape:zoom="1.4142136" inkscape:cx="54.253345" inkscape:cy="121.65354" inkscape:current-layer="layer1" showgrid="true" inkscape:grid-bbox="true" inkscape:document-units="px" objecttolerance="10000" gridtolerance="10000" guidetolerance="10000" inkscape:window-width="1440" inkscape:window-height="781" inkscape:window-x="0" inkscape:window-y="270" inkscape:object-paths="true" inkscape:object-nodes="true" inkscape:snap-bbox="true" inkscape:snap-guide="true" showguides="true" inkscape:guide-bbox="true" inkscape:window-maximized="1">
    <inkscape:grid type="xygrid" id="grid3515" units="px" visible="true" enabled="true" spacingx="1px" spacingy="1px" empspacing="4" snapvisiblegridlinesonly="true" />
  </sodipodi:namedview>
  <defs id="defs3507">
    <inkscape:path-effect effect="envelope" id="path-effect6170" is_visible="true" yy="true" xx="true" bendpath1="m -32,-16 32,0" bendpath2="M 0,-16 0,16" bendpath3="M -32,16 0,16" bendpath4="m -32,-16 0,32" />
    <inkscape:perspective sodipodi:type="inkscape:persp3d" inkscape:vp_x="0 : 16 : 1" inkscape:vp_y="0 : 1000 : 0" inkscape:vp_z="32 : 16 : 1" inkscape:persp3d-origin="16 : 10.666667 : 1" id="perspective2836" />
    <inkscape:perspective id="perspective2899" inkscape:persp3d-origin="0.5 : 0.33333333 : 1" inkscape:vp_z="1 : 0.5 : 1" inkscape:vp_y="0 : 1000 : 0" inkscape:vp_x="0 : 0.5 : 1" sodipodi:type="inkscape:persp3d" />
    <inkscape:perspective id="perspective3072" inkscape:persp3d-origin="0.5 : 0.33333333 : 1" inkscape:vp_z="1 : 0.5 : 1" inkscape:vp_y="0 : 1000 : 0" inkscape:vp_x="0 : 0.5 : 1" sodipodi:type="inkscape:persp3d" />
    <inkscape:perspective id="perspective3513" inkscape:persp3d-origin="16 : 10.666667 : 1" inkscape:vp_z="32 : 16 : 1" inkscape:vp_y="0 : 1000 : 0" inkscape:vp_x="0 : 16 : 1" sodipodi:type="inkscape:persp3d" />
    <inkscape:perspective sodipodi:type="inkscape:persp3d" inkscape:vp_x="0 : 526.18109 : 1" inkscape:vp_y="0 : 1000 : 0" inkscape:vp_z="744.09448 : 526.18109 : 1" inkscape:persp3d-origin="372.04724 : 350.78739 : 1" id="perspective4690" />
    <inkscape:perspective id="perspective2836-8" inkscape:persp3d-origin="16 : 10.666667 : 1" inkscape:vp_z="32 : 16 : 1" inkscape:vp_y="0 : 1000 : 0" inkscape:vp_x="0 : 16 : 1" sodipodi:type="inkscape:persp3d" />
    <inkscape:perspective sodipodi:type="inkscape:persp3d" inkscape:vp_x="0 : 0.5 : 1" inkscape:vp_y="0 : 1000 : 0" inkscape:vp_z="1 : 0.5 : 1" inkscape:persp3d-origin="0.5 : 0.33333333 : 1" id="perspective2899-4" />
    <inkscape:perspective sodipodi:type="inkscape:persp3d" inkscape:vp_x="0 : 0.5 : 1" inkscape:vp_y="0 : 1000 : 0" inkscape:vp_z="1 : 0.5 : 1" inkscape:persp3d-origin="0.5 : 0.33333333 : 1" id="perspective3072-2" />
    <inkscape:perspective sodipodi:type="inkscape:persp3d" inkscape:vp_x="0 : 0.5 : 1" inkscape:vp_y="0 : 1000 : 0" inkscape:vp_z="1 : 0.5 : 1" inkscape:persp3d-origin="0.5 : 0.33333333 : 1" id="perspective3081" />
  </defs>
  <metadata id="metadata3510">
    <rdf:RDF>
      <cc:Work rdf:about="">
        <dc:format>image/svg+xml</dc:format>
        <dc:type rdf:resource="http://purl.org/dc/dcmitype/StillImage" />
        <dc:title></dc:title>
        <dc:date>2010-05-08</dc:date>
        <dc:creator>
          <cc:Agent>
            <dc:title>Andreas Neudecker &lt;zapyon@gmx.net&gt;</dc:title>
          </cc:Agent>
        </dc:creator>
        <dc:rights>
          <cc:Agent>
            <dc:title>Copyright (C) 2010 by Andreas Neudecker</dc:title>
          </cc:Agent>
        </dc:rights>
        <dc:publisher>
          <cc:Agent>
            <dc:title>Andreas Neudecker</dc:title>
          </cc:Agent>
        </dc:publisher>
        <dc:identifier>__empty__</dc:identifier>
        <dc:description>Template for McMinos SVG icons at a base size of 32x32 pixels.</dc:description>
      </cc:Work>
    </rdf:RDF>
  </metadata>
  <g id="layer1" inkscape:label="Layer 1" inkscape:groupmode="layer" transform="translate(0,224)">
    <path style="fill:red;fill-opacity:0.25157231;stroke:none" d="" id="path6172" inkscape:connector-curvature="0" />
    <path sodipodi:end="6.2831853" sodipodi:start="3.1415927" sodipodi:ry="1.346267e-06" sodipodi:rx="14.000002" sodipodi:cy="-100.00001" sodipodi:cx="-103" id="path3443-4" style="fill:white;fill-opacity:1;fill-rule:nonzero;stroke:none;stroke-width:1;stroke-linecap:butt;stroke-linejoin:miter;stroke-miterlimit:4;stroke-dasharray:none;stroke-dashoffset:0;stroke-opacity:1" sodipodi:type="arc" sodipodi:open="true" />
    <g id="g5111">
      <g transform="matrix(5.0912417,0,0,5.0912451,88.91236,-220.18987)" id="g3400" style="display:inline">
        <path id="path3821" d="M 16,1 C 11.584,1 8,4.584 8,9 L 8,10 7,4 C 7,2.344 5.656,1 4,1 2.344,1 1,2.344 1,4 l 0,20 9.75,5.0625 C 12.153893,30.280539 13.996861,31 16,31 c 2.003139,0 3.846107,-0.719461 5.25,-1.9375 L 31,24 31,4 C 31,2.344 29.656,1 28,1 26.344,1 25,2.344 25,4 l -1,6 0,-1 C 24,4.584 20.416,1 16,1 Z" style="display:inline;fill:white;fill-opacity:1;fill-rule:nonzero;stroke:black;stroke-width:2;stroke-linecap:round;stroke-linejoin:miter;stroke-miterlimit:4;stroke-dasharray:none;stroke-dashoffset:0;stroke-opacity:1" sodipodi:nodetypes="ccccscccscccscccc" inkscape:connector-curvature="0" />
        <path style="display:inline;fill:white;fill-opacity:1;fill-rule:nonzero;stroke:none" d="M 16,1 C 11.584,1 8,4.584 8,9 L 7,9 7,4 C 7,2.344 5.656,1 4,1 2.344,1 1,2.344 1,4 l 0,20 9.75,5.0625 C 12.153893,30.280539 13.996861,31 16,31 c 2.003139,0 3.846107,-0.719461 5.25,-1.9375 L 31,24 31,4 C 31,2.344 29.656,1 28,1 26.344,1 25,2.344 25,4 l 0,5 -1,0 C 24,4.584 20.416,1 16,1 Z" id="path3802" sodipodi:nodetypes="ccccscccscccscccc" inkscape:connector-curvature="0" />
        <ellipse ry="2.5" rx="1.5" cy="8.5" cx="11.5" style="display:inline;fill:black;fill-opacity:0.99356911;fill-rule:nonzero;stroke:none" id="path3768" transform="translate(2,0)" />
        <ellipse ry="2.5" rx="1.5" cy="8.5" cx="16.5" style="display:inline;fill:black;fill-opacity:0.99356911;fill-rule:nonzero;stroke:none" id="path3770" transform="translate(2,0)" />
        <path style="fill:silver;fill-opacity:1;fill-rule:nonzero;stroke:none" d="M 7,4 C 7,5.656 5.656,7 4,7 L 4,8 C 6.2079999,8 7.9999998,6.208 8,4 L 7,4 Z" id="path3806" inkscape:connector-curvature="0" />
        <path id="path3809" d="m 25,4 c 0,1.656 1.344,3 3,3 l 0,1 C 25.792,8 24,6.208 24,4 l 1,0 z" style="fill:silver;fill-opacity:1;fill-rule:nonzero;stroke:none" inkscape:connector-curvature="0" />
        <rect style="fill:silver;fill-opacity:1;fill-rule:nonzero;stroke:none" id="rect6061" width="1" height="8" x="26" y="17" />
        <rect y="17" x="5" height="8" width="1" id="rect6063" style="fill:silver;fill-opacity:1;fill-rule:nonzero;stroke:none" />
        <rect y="20" x="22" height="7" width="1" id="rect10110" style="fill:silver;fill-opacity:1;fill-rule:nonzero;stroke:none" />
        <rect style="fill:silver;fill-opacity:1;fill-rule:nonzero;stroke:none" id="rect10112" width="1" height="7" x="9" y="20" />
      </g>
      <g id="layer1-8" inkscape:label="Layer 1" transform="matrix(2.6578951,0,0,2.6578951,0.42103602,-44.142704)">
        <g id="g2852">
          <path inkscape:connector-curvature="0" id="path2832" d="m 37.90164,-61.442623 c -13.942927,0 -25.245902,10.949757 -25.245902,24.456967 0,3.549784 0.80493,6.913301 2.209016,9.957479 C 8.3008823,-22.611698 4,-15.267108 4,-6.9385244 4,4.5536715 12.176193,14.198967 23.204919,16.819672 27.703153,23.546223 35.504226,28 44.393443,28 c 4.901058,0 9.471829,-1.370844 13.344262,-3.712219 2.800038,1.037424 5.839871,1.615907 9.016394,1.615907 C 80.697024,25.903688 92,14.953931 92,1.4467213 c 0,-4.9737966 -1.559911,-9.590126 -4.192623,-13.4513313 1.302408,-2.949932 2.028688,-6.196697 2.028688,-9.608095 0,-13.50721 -11.302974,-24.456967 -25.245901,-24.456967 -1.074042,0 -2.116985,0.09225 -3.155737,0.218365 -3.66453,-9.125558 -12.816988,-15.591316 -23.532787,-15.591316 z" style="fill:silver;fill-opacity:0.50196078;fill-rule:nonzero;stroke:none" />
          <path inkscape:connector-curvature="0" sodipodi:nodetypes="cccccccssscccccccc" id="path3196" d="m 46,-28 -1,0 0,1 0,4 0,1 1,0 0.21875,0 C 42.023398,-20.284865 39,-16.301337 39,-11.5 39,-5.1629367 44.162937,3e-7 50.5,3e-7 56.837063,3e-7 62,-5.1629367 62,-11.5 62,-16.301337 58.976602,-20.284865 54.78125,-22 L 55,-22 l 1,0 0,-1 0,-4 0,-1 -1,0 -9,0 z" style="fill:black;fill-opacity:1;fill-rule:nonzero;stroke:none" />
          <circle r="10.5" cy="21.5" cx="19.5" transform="translate(31,-33)" id="path2394" style="fill:gray;fill-opacity:1;fill-rule:nonzero;stroke:none" />
          <rect y="-23" x="48" height="2" width="5" id="rect2398" style="fill:#909090;fill-opacity:1;fill-rule:nonzero;stroke:none" />
          <rect y="-27" x="46" height="4" width="9" id="rect2400" style="fill:#909090;fill-opacity:1;fill-rule:nonzero;stroke:none" />
          <path inkscape:connector-curvature="0" inkscape:transform-center-x="1.5368965" inkscape:transform-center-y="1.5368963" id="path3179" d="m 43.075379,-18.924621 c -4.098391,4.098391 -4.098391,10.7508513 0,14.8492423 4.098391,4.098391 10.750851,4.098391 14.849242,0 -2.537098,2.537099 -7.922424,1.269964 -12.020815,-2.828427 -4.09839,-4.0983923 -5.365527,-9.4837163 -2.828427,-12.0208153 z" style="fill:#606060;fill-opacity:1;fill-rule:nonzero;stroke:none" />
          <path inkscape:connector-curvature="0" id="path3190" d="m 48,-23 0,2 2,0 -1,-2 -1,0 z" style="fill:#606060;fill-opacity:1;fill-rule:nonzero;stroke:none" />
          <path inkscape:connector-curvature="0" inkscape:transform-center-x="-1.536897" style="fill:#909090;fill-opacity:1;fill-rule:nonzero;stroke:none" d="m 57.924621,-4.0753787 c 4.098391,-4.098391 4.098391,-10.7508513 0,-14.8492423 -4.098391,-4.098391 -10.750851,-4.098391 -14.849242,0 2.537098,-2.537099 7.922424,-1.269964 12.020815,2.828427 4.09839,4.098392 5.365526,9.4837163 2.828427,12.0208153 z" id="path3184" inkscape:transform-center-y="-1.5368969" />
          <path inkscape:connector-curvature="0" id="path3186" d="m 46,-27 0,4 4,0 -2,-4 -2,0 z" style="fill:#606060;fill-opacity:1;fill-rule:nonzero;stroke:none" />
          <rect y="-24" x="48.325253" height="1" width="6.6747475" id="rect3192" style="fill:#606060;fill-opacity:1;fill-rule:nonzero;stroke:none" />
          <path inkscape:connector-curvature="0" id="path3231" d="m 52.6875,-19.71875 -1.03125,3.875 c 1.599574,0.428604 2.758896,1.587927 3.1875,3.1875 l 3.875,-1.03125 c -0.809586,-3.021415 -3.009835,-5.221664 -6.03125,-6.03125 z" style="fill:silver;fill-opacity:1;fill-rule:nonzero;stroke:none" />
          <path inkscape:connector-curvature="0" sodipodi:nodetypes="ccccccccccccc" id="path3152" d="M 91.780373,19.182707 56.457402,3.8253817 34.865888,28.647746 35.900878,1.6705582 -0.15840957,-2.7074785 26.109814,-24.597664 8.5976654,-55.243926 39.243925,-36.883314 56.756074,-64 l 8.756075,30.646261 30.64626,8.756075 -32.47526,11.128403 28.097224,32.651968 z" style="fill:yellow;fill-opacity:1;fill-rule:nonzero;stroke:none" />
          <path inkscape:connector-curvature="0" sodipodi:nodetypes="ccccccccccccc" id="path3926" d="M 74.565383,-22.758547 55.363278,-16.54196 68.661965,0.27365534 50.242117,-8 42.096581,3.8068369 41.622256,-11.433519 l -20.187639,1.309668 16.425424,-9.682986 -10.522006,-16.773986 19.153379,9.786075 6.360069,-15.53797 1.765852,17.177201 19.948048,2.39697 z" style="fill:white;fill-opacity:1;fill-rule:nonzero;stroke:none" />
          <path inkscape:connector-curvature="0" id="path3615" d="m 31.540541,-43.108107 c -11.59612,0 -21.009009,9.412889 -21.009009,21.009009 0,11.596118 9.412889,21.0090076 21.009009,21.0090076 1.537006,0 3.016374,-0.1819728 4.459459,-0.4954954 -0.04509,0.561784 -0.09909,1.11129252 -0.09909,1.68468457 -4e-6,11.59611923 9.412885,21.00900823 21.009004,21.00900823 11.59612,0 21.009009,-9.412889 21.009009,-21.00900823 0,-0.52230924 -0.06161,-1.02329406 -0.0991,-1.53603587 3.495556,-3.7502127 5.648648,-8.7887059 5.648648,-14.3198199 0,-11.59612 -9.412889,-21.009008 -21.009009,-21.009008 -4.776151,0 -9.156875,1.624798 -12.684684,4.31081 -3.610131,-6.352817 -10.40503,-10.653152 -18.234237,-10.653152 z" style="fill:silver;fill-opacity:0.50196078;fill-rule:nonzero;stroke:none" />
          <circle r="8" cy="44" cx="-16" transform="matrix(1.7227136,0,0,1.7227136,64.67861,-111.7994)" id="path3878" style="fill:silver;fill-opacity:0.50196078;fill-rule:nonzero;stroke:none" />
          <path inkscape:connector-curvature="0" id="path3880" d="m 67.104716,-45.045163 c -7.913433,0 -14.328537,6.415105 -14.328537,14.328537 0,3.699239 1.429962,7.047522 3.73139,9.589672 -6.134246,0.446394 -11.190217,4.772674 -12.761353,10.522519 -1.643223,-0.65661 -3.420979,-1.007476 -5.298574,-1.007476 -1.697712,0 -3.302251,0.316253 -4.813493,0.85822 0.0256,-0.285073 0.03731,-0.566482 0.03731,-0.85822 0,-5.275621 -4.276736,-9.552357 -9.552357,-9.552357 -5.275622,0 -9.552358,4.276736 -9.552358,9.552357 0,5.275622 4.276736,9.5523582 9.552358,9.5523582 0.291737,0 0.573146,-0.011711 0.858219,-0.037314 -0.541967,1.51124156 -0.858219,3.1157809 -0.858219,4.8134928 0,7.913432 6.415104,14.328537 14.328536,14.328537 6.602941,0 12.145787,-4.483477 13.806142,-10.5598333 1.643223,0.65661 3.420979,1.0074752 5.298574,1.0074752 7.913432,0 14.328536,-6.4151043 14.328536,-14.3285367 0,-3.6992392 -1.429961,-7.0475212 -3.731389,-9.5896712 7.42085,-0.540024 13.283747,-6.732598 13.283747,-14.291223 0,-7.913432 -6.415104,-14.328537 -14.328536,-14.328537 z" style="fill:silver;fill-opacity:0.50196078;fill-rule:nonzero;stroke:none" />
          <circle r="8" cy="36" cx="-24" transform="matrix(0.55686887,0,0,0.55686887,37.364853,-40.047279)" id="path3967" style="fill:white;fill-opacity:0.50196078;fill-rule:nonzero;stroke:none" />
          <circle r="8" cy="36" cx="-24" style="fill:white;fill-opacity:0.50196078;fill-rule:nonzero;stroke:none" id="path3969" transform="translate(60,-76)" />
          <circle r="8" cy="36" cx="-24" transform="matrix(1.5,0,0,1.5,92,-50)" id="path3971" style="fill:white;fill-opacity:0.50196078;fill-rule:nonzero;stroke:none" />
          <circle r="8" cy="36" cx="-24" transform="translate(92,-72)" id="path3973" style="fill:white;fill-opacity:0.50196078;fill-rule:nonzero;stroke:none" />
          <path transform="translate(0,-64)" d="m 49.756549,33.141501 -1.214118,-0.884457 -1.209845,0.581857 0.838796,-1.75488 -1.517226,-1.553878 1.991782,0.657414 0.449849,-1.705378 0.407768,1.958231 1.656792,0.179116 -1.524466,0.817391 z" inkscape:randomized="0.2" inkscape:rounded="0" inkscape:flatsided="false" sodipodi:arg2="1.7174419" sodipodi:arg1="1.0891234" sodipodi:r2="1.1924218" sodipodi:r1="2.3848433" sodipodi:cy="30.886501" sodipodi:cx="48.895191" sodipodi:sides="5" id="path4087" style="fill:yellow;fill-opacity:1;fill-rule:nonzero;stroke:none" sodipodi:type="star" />
          <path transform="translate(0,-64)" d="m 38.278018,49.697741 -2.247941,-0.464928 -1.44886,2.184827 -1.074411,-2.364273 -2.266901,-1.276767 3.119417,-1.065844 -0.204883,-1.99737 0.961686,1.720759 3.408453,-1.025096 -1.929073,2.410337 z" inkscape:randomized="0.2" inkscape:rounded="0" inkscape:flatsided="false" sodipodi:arg2="1.2327664" sodipodi:arg1="0.60444792" sodipodi:r2="1.7016367" sodipodi:r1="3.4032731" sodipodi:cy="48.065891" sodipodi:cx="35.199734" sodipodi:sides="5" id="path4089" style="fill:yellow;fill-opacity:1;fill-rule:nonzero;stroke:none" sodipodi:type="star" />
          <path transform="translate(0,-64)" d="m 68.60396,67.265453 -2.715336,0.877676 -0.754021,1.219216 -0.441387,-2.755916 -3.657702,-1.300167 3.890843,-0.372133 0.07705,-2.637241 2.28148,0.97297 2.452794,-0.400186 -1.839136,2.071828 z" inkscape:randomized="0.2" inkscape:rounded="0" inkscape:flatsided="false" sodipodi:arg2="1.2995622" sodipodi:arg1="0.67124369" sodipodi:r2="2.0213864" sodipodi:r1="4.0427723" sodipodi:cy="65.485558" sodipodi:cx="65.834312" sodipodi:sides="5" id="path4091" style="fill:yellow;fill-opacity:1;fill-rule:nonzero;stroke:none" sodipodi:type="star" />
          <path transform="translate(0,-64)" d="m 84.349235,49.807357 -2.021339,0.120809 -0.602597,2.50156 -1.194268,-1.962945 -2.084454,0.09857 1.748134,-1.54932 -0.628473,-1.682222 1.117484,0.832411 2.243169,-1.523275 -0.01698,2.341615 z" inkscape:randomized="0.2" inkscape:rounded="0" inkscape:flatsided="false" sodipodi:arg2="0.88530002" sodipodi:arg1="0.25698149" sodipodi:r2="1.4415019" sodipodi:r1="2.8830035" sodipodi:cy="49.26725" sodipodi:cx="81.21167" sodipodi:sides="5" id="path4093" style="fill:yellow;fill-opacity:1;fill-rule:nonzero;stroke:none" sodipodi:type="star" />
          <path transform="translate(0,-64)" d="m 21.202138,69.113357 -1.299702,1.005228 0.632167,1.321925 -1.275896,-0.380685 -1.795839,0.498804 0.814867,-1.909061 -1.324946,-0.363562 1.658199,-0.843207 0.0774,-1.561265 1.18358,1.772215 z" inkscape:randomized="0.2" inkscape:rounded="0" inkscape:flatsided="false" sodipodi:arg2="0.34855228" sodipodi:arg1="-0.27976625" sodipodi:r2="1.2499543" sodipodi:r1="2.4999084" sodipodi:cy="69.6903" sodipodi:cx="19.101561" sodipodi:sides="5" id="path4095" style="fill:yellow;fill-opacity:1;fill-rule:nonzero;stroke:none" sodipodi:type="star" />
          <path transform="translate(0,-64)" d="m 72.064161,53.151685 -1.98188,0.380351 -0.827862,-1.379956 1.236426,-1.198402 1.214135,0.272554 z" inkscape:randomized="0.2" inkscape:rounded="0" inkscape:flatsided="true" sodipodi:arg2="1.2289111" sodipodi:arg1="0.60059252" sodipodi:r2="1.2161011" sodipodi:r1="1.5031837" sodipodi:cy="52.150505" sodipodi:cx="70.759872" sodipodi:sides="5" id="path6642" style="fill:gray;fill-opacity:0.50148369;fill-rule:nonzero;stroke:none" sodipodi:type="star" />
          <path sodipodi:type="star" style="fill:gray;fill-opacity:0.50148369;fill-rule:nonzero;stroke:none" id="path6644" sodipodi:sides="5" sodipodi:cx="70.759872" sodipodi:cy="52.150505" sodipodi:r1="1.5031837" sodipodi:r2="1.2161011" sodipodi:arg1="0.60059252" sodipodi:arg2="1.2289111" inkscape:flatsided="true" inkscape:rounded="0" inkscape:randomized="0.2" d="m 72.064161,53.151685 -1.98188,0.380351 -0.827862,-1.379956 1.236426,-1.198402 1.214135,0.272554 z" transform="translate(-15.490845,-78.953678)" />
          <path transform="translate(0,-64)" d="m 28.751356,52.643022 -2.148527,0.305854 -0.427261,-2.598633 1.707524,-1.123805 2.314414,1.728577 z" inkscape:randomized="0.2" inkscape:rounded="0" inkscape:flatsided="true" sodipodi:arg2="1.6909512" sodipodi:arg1="1.0626327" sodipodi:r2="1.6766537" sodipodi:r1="2.072458" sodipodi:cy="51.189419" sodipodi:cx="27.991596" sodipodi:sides="5" id="path6646" style="fill:gray;fill-opacity:0.50148369;fill-rule:nonzero;stroke:none" sodipodi:type="star" />
          <path transform="translate(0,-64)" d="m 28.806481,34.112223 -1.561195,0.729614 -1.267403,-1.146963 0.532605,-1.73254 1.711843,0.137137 z" inkscape:randomized="0.2" inkscape:rounded="0" inkscape:flatsided="true" sodipodi:arg2="1.0059687" sodipodi:arg1="0.37765016" sodipodi:r2="1.2959001" sodipodi:r1="1.6018206" sodipodi:cy="33.409348" sodipodi:cx="27.511053" sodipodi:sides="5" id="path6648" style="fill:gray;fill-opacity:0.50148369;fill-rule:nonzero;stroke:none" sodipodi:type="star" />
          <path transform="translate(0,-64)" d="m 45.113324,15.928844 -1.011407,0.474588 -0.597026,-0.783519 0.575209,-0.575005 0.71529,0.133027 z" inkscape:randomized="0.2" inkscape:rounded="0" inkscape:flatsided="true" sodipodi:arg2="1.1337273" sodipodi:arg1="0.50540874" sodipodi:r2="0.61945659" sodipodi:r1="0.76569045" sodipodi:cy="15.629279" sodipodi:cx="44.33004" sodipodi:sides="5" id="path6650" style="fill:gray;fill-opacity:0.50148369;fill-rule:nonzero;stroke:none" sodipodi:type="star" />
          <path transform="translate(0,-64)" d="m 43.265989,60.750595 -1.902066,0.333166 -0.40399,-1.925065 1.450541,-0.914916 1.007935,1.281425 z" inkscape:randomized="0.2" inkscape:rounded="0" inkscape:flatsided="true" sodipodi:arg2="1.5770157" sodipodi:arg1="0.94869721" sodipodi:r2="1.155618" sodipodi:r1="1.4284225" sodipodi:cy="59.839184" sodipodi:cx="42.167599" sodipodi:sides="5" id="path6652" style="fill:gray;fill-opacity:0.50148369;fill-rule:nonzero;stroke:none" sodipodi:type="star" />
          <path transform="translate(0,-64)" d="m 42.218018,75.203272 -2.212124,-0.362683 -0.424424,-1.7987 1.481256,-0.765559 1.274203,0.967049 z" inkscape:randomized="0.2" inkscape:rounded="0" inkscape:flatsided="true" sodipodi:arg2="1.558332" sodipodi:arg1="0.93001348" sodipodi:r2="1.2363794" sodipodi:r1="1.528249" sodipodi:cy="73.77491" sodipodi:cx="41.086376" sodipodi:sides="5" id="path6654" style="fill:gray;fill-opacity:0.50148369;fill-rule:nonzero;stroke:none" sodipodi:type="star" />
        </g>
      </g>
      <rect y="-224" x="0" height="256" width="256" id="rect12817" style="fill:none;fill-opacity:0.25098039;stroke:none" />
      <g transform="matrix(5.9999996,0,0,5.9999996,711.99993,521.99996)" id="g5091">
        <circle style="fill:black;fill-opacity:1;fill-rule:nonzero;stroke:none;stroke-width:1;stroke-linecap:butt;stroke-linejoin:miter;stroke-miterlimit:4;stroke-dasharray:none;stroke-dashoffset:0;stroke-opacity:1" id="path4818-3" cx="-102.99999" cy="-100" r="15.000001" />
        <circle style="fill:red;fill-opacity:1;fill-rule:nonzero;stroke:none;stroke-width:0.1;stroke-linecap:round;stroke-linejoin:round;stroke-miterlimit:4;stroke-dasharray:none;stroke-dashoffset:0;stroke-opacity:1" id="path3403-7" cx="-103" cy="-100.00001" r="14" />
        <path sodipodi:type="arc" style="fill:#e1fff9;fill-opacity:1;fill-rule:nonzero;stroke:none;stroke-width:1;stroke-linecap:butt;stroke-linejoin:miter;stroke-miterlimit:4;stroke-dasharray:none;stroke-dashoffset:0;stroke-opacity:1" id="path3429-0" sodipodi:cx="-103" sodipodi:cy="-99.999992" sodipodi:rx="12.999999" sodipodi:ry="12.999993" d="m -90.000001,-99.999992 a 12.999999,12.999993 0 0 1 -6.5,11.258324 12.999999,12.999993 0 0 1 -12.999999,0 12.999999,12.999993 0 0 1 -6.5,-11.258325" sodipodi:start="0" sodipodi:end="3.1415927" sodipodi:open="true" />
        <circle style="fill:white;fill-opacity:1;fill-rule:nonzero;stroke:none;stroke-width:0.1;stroke-linecap:round;stroke-linejoin:round;stroke-miterlimit:4;stroke-dasharray:none;stroke-dashoffset:0;stroke-opacity:1" id="path3407-9" cx="-110" cy="-106.00001" r="4" />
        <circle id="path3425-4" style="fill:white;fill-opacity:1;fill-rule:nonzero;stroke:none;stroke-width:0.1;stroke-linecap:round;stroke-linejoin:round;stroke-miterlimit:4;stroke-dasharray:none;stroke-dashoffset:0;stroke-opacity:1" cx="-96" cy="-106.00001" r="4" />
        <circle style="fill:black;fill-opacity:1;fill-rule:nonzero;stroke:none;stroke-width:0.1;stroke-linecap:round;stroke-linejoin:round;stroke-miterlimit:4;stroke-dasharray:none;stroke-dashoffset:0;stroke-opacity:1" id="path3409-6" cx="-110" cy="-106" r="2" />
        <circle id="path3427-7" style="fill:black;fill-opacity:1;fill-rule:nonzero;stroke:none;stroke-width:0.1;stroke-linecap:round;stroke-linejoin:round;stroke-miterlimit:4;stroke-dasharray:none;stroke-dashoffset:0;stroke-opacity:1" cx="-96" cy="-106" r="2" />
        <path id="rect3904" d="m -116,-100 c 0,1.759902 0.36628,3.437908 1,4.96875 l 0,-4.96875 -1,0 z m 6,0 0,10.9375 c 0.63405,0.406313 1.29713,0.76966 2,1.0625 l 0,-12 -2,0 z m 7,0 0,13 c 0.67845,0 1.34959,-0.05607 2,-0.15625 l 0,-12.84375 -2,0 z m 7,0 0,10.9375 c 0.716806,-0.459347 1.388534,-0.9755 2,-1.5625 l 0,-9.375 -2,0 z" style="fill:#81e6ff;fill-opacity:0.25098039;stroke:none" inkscape:connector-curvature="0" />
        <path id="rect3912" d="m -112,-100 0,9.375 c 0.61147,0.587 1.28319,1.103153 2,1.5625 l 0,-10.9375 -2,0 z m 7,0 0,12.84375 c 0.65041,0.100181 1.32154,0.15625 2,0.15625 l 0,-13 -2,0 z m 7,0 0,12 c 0.702871,-0.29284 1.365954,-0.656187 2,-1.0625 l 0,-10.9375 -2,0 z m 7,0 0,4.96875 c 0.633722,-1.530842 1,-3.208848 1,-4.96875 l -1,0 z" style="fill:white;fill-opacity:1;stroke:none" inkscape:connector-curvature="0" />
        <path d="M -96.000008,-92.000005 -96.188569,-95.811438 -100,-96 l 3.811431,-0.188562 0.188562,-3.811433 0.188561,3.811433 3.811433,0.188562 -3.811433,0.188562 z" inkscape:randomized="0" inkscape:rounded="0" inkscape:flatsided="false" sodipodi:arg2="2.3561946" sodipodi:arg1="1.5707964" sodipodi:r2="0.26666632" sodipodi:r1="3.999995" sodipodi:cy="-96" sodipodi:cx="-96.000008" sodipodi:sides="4" id="path3963" style="fill:aqua;fill-opacity:1;stroke:none" sodipodi:type="star" />
      </g>
      <text sodipodi:linespacing="200%" id="text5107" y="26" x="164" style="font-style:normal;font-variant:normal;font-weight:bold;font-stretch:normal;font-size:62.5px;line-height:200%;font-family:'Linux Biolinum O';-inkscape-font-specification:'Linux Biolinum O Bold';text-align:center;writing-mode:lr-tb;text-anchor:middle;opacity:1;fill:yellow;fill-opacity:1;fill-rule:nonzero;stroke:black;stroke-width:1.77165354;stroke-linecap:round;stroke-linejoin:round;stroke-miterlimit:4;stroke-dasharray:none;stroke-dashoffset:0;stroke-opacity:1" xml:space="preserve"><tspan style="font-style:normal;font-variant:normal;font-weight:normal;font-stretch:condensed;font-family:Impact;-inkscape-font-specification:'Impact Condensed';fill:yellow;stroke:black;stroke-opacity:1;stroke-width:1.77165354;stroke-miterlimit:4;stroke-dasharray:none" y="26" x="164" id="tspan5109" sodipodi:role="line">TEASER</tspan></text>
    </g>
  </g>
</svg>
