<?xml version="1.0" encoding="UTF-8" standalone="no"?>
<!-- Created with Inkscape (http://www.inkscape.org/) -->

<svg
   xmlns:dc="http://purl.org/dc/elements/1.1/"
   xmlns:cc="http://creativecommons.org/ns#"
   xmlns:rdf="http://www.w3.org/1999/02/22-rdf-syntax-ns#"
   xmlns:svg="http://www.w3.org/2000/svg"
   xmlns="http://www.w3.org/2000/svg"
   xmlns:xlink="http://www.w3.org/1999/xlink"
   xmlns:sodipodi="http://sodipodi.sourceforge.net/DTD/sodipodi-0.dtd"
   xmlns:inkscape="http://www.inkscape.org/namespaces/inkscape"
   width="220"
   height="330"
   id="svg2"
   version="1.1"
   inkscape:version="0.91 r13725"
   sodipodi:docname="logo-3-4.svg"
   inkscape:export-filename="logo_64.png"
   inkscape:export-xdpi="180"
   inkscape:export-ydpi="180">
  <title
     id="title3928">McMinos logo</title>
  <defs
     id="defs4">
    <linearGradient
       id="linearGradient5105">
      <stop
         style="stop-color:#fc0;stop-opacity:1;"
         offset="0"
         id="stop5107" />
      <stop
         style="stop-color:white;stop-opacity:1;"
         offset="1"
         id="stop5109" />
    </linearGradient>
    <linearGradient
       inkscape:collect="always"
       xlink:href="#linearGradient5105"
       id="linearGradient3079"
       gradientUnits="userSpaceOnUse"
       gradientTransform="translate(-7.2052358,-3.0358125e-5)"
       x1="92"
       y1="740.36218"
       x2="92"
       y2="752.36218" />
    <linearGradient
       inkscape:collect="always"
       xlink:href="#linearGradient5105"
       id="linearGradient3125"
       gradientUnits="userSpaceOnUse"
       gradientTransform="translate(-7.2052358,-3.0358125e-5)"
       x1="92"
       y1="740.36218"
       x2="92"
       y2="752.36218" />
    <linearGradient
       inkscape:collect="always"
       xlink:href="#linearGradient5105"
       id="linearGradient3146"
       gradientUnits="userSpaceOnUse"
       gradientTransform="matrix(1.9999999,0,0,1.9999999,-88.773027,-754.42936)"
       x1="92"
       y1="740.36218"
       x2="92"
       y2="752.36218" />
  </defs>
  <sodipodi:namedview
     id="base"
     pagecolor="#ffffff"
     bordercolor="#666666"
     borderopacity="1.0"
     inkscape:pageopacity="0.0"
     inkscape:pageshadow="2"
     inkscape:zoom="4.0188679"
     inkscape:cx="86.717455"
     inkscape:cy="150.44131"
     inkscape:document-units="px"
     inkscape:current-layer="g4312"
     showgrid="true"
     units="px"
     objecttolerance="10000"
     gridtolerance="10000"
     guidetolerance="10000"
     inkscape:window-width="1440"
     inkscape:window-height="781"
     inkscape:window-x="0"
     inkscape:window-y="270"
     inkscape:window-maximized="1"
     fit-margin-top="0"
     fit-margin-left="0"
     fit-margin-right="0"
     fit-margin-bottom="0">
    <inkscape:grid
       type="xygrid"
       id="grid4954"
       empspacing="4"
       visible="true"
       enabled="true"
       snapvisiblegridlinesonly="true"
       originx="-0.70348249"
       originy="-5.965526e-05" />
  </sodipodi:namedview>
  <metadata
     id="metadata7">
    <rdf:RDF>
      <cc:Work
         rdf:about="">
        <dc:format>image/svg+xml</dc:format>
        <dc:type
           rdf:resource="http://purl.org/dc/dcmitype/StillImage" />
        <dc:title>McMinos logo</dc:title>
        <dc:creator>
          <cc:Agent>
            <dc:title>Andreas Neudecker &lt;zapyon@gmx.net&gt;</dc:title>
          </cc:Agent>
        </dc:creator>
        <dc:source>http://www.mcminos.com/</dc:source>
        <dc:date>2015-12-20</dc:date>
        <dc:rights>
          <cc:Agent>
            <dc:title>Copyright © 2015 by Andreas Neudecker</dc:title>
          </cc:Agent>
        </dc:rights>
        <dc:publisher>
          <cc:Agent>
            <dc:title>Andreas Neudecker &lt;zapyon@gmx.net&gt;</dc:title>
          </cc:Agent>
        </dc:publisher>
        <dc:identifier>mcminos-logo-web</dc:identifier>
        <dc:language>any</dc:language>
        <dc:subject>
          <rdf:Bag>
            <rdf:li>McMinos</rdf:li>
            <rdf:li>video game</rdf:li>
            <rdf:li>Videospiel</rdf:li>
            <rdf:li>retro game</rdf:li>
            <rdf:li>Atari game</rdf:li>
            <rdf:li>Android game</rdf:li>
            <rdf:li>Linux game</rdf:li>
            <rdf:li>mobile game</rdf:li>
          </rdf:Bag>
        </dc:subject>
      </cc:Work>
    </rdf:RDF>
  </metadata>
  <g
     inkscape:label="Ebene 1"
     inkscape:groupmode="layer"
     id="layer1"
     transform="translate(-408.65167,-373.47866)">
    <g
       transform="matrix(1.5266671,0,0,1.5266671,294.1868,-448.28375)"
       id="g4312">
      <g
         id="g4163"
         transform="translate(2.9272916,-87.117878)">
        <path
           style="color:#000000;font-style:normal;font-variant:normal;font-weight:normal;font-stretch:normal;font-size:medium;line-height:normal;font-family:Sans;-inkscape-font-specification:Sans;text-indent:0;text-align:start;text-decoration:none;text-decoration-line:none;letter-spacing:normal;word-spacing:normal;text-transform:none;direction:ltr;block-progression:tb;writing-mode:lr-tb;baseline-shift:baseline;text-anchor:start;display:inline;overflow:visible;visibility:visible;fill:#ffffff;fill-opacity:1;stroke:none;stroke-width:2;marker:none;enable-background:accumulate"
           d="m 182.97695,712.50813 -6.8125,6.8125 -0.375,1 -4.375,0.25 -3.8125,3.8125 -9.1875,0 c 0.48546,-1.05634 0.39894,-2.34494 0.3749,-3.1252 -0.018,-1.39768 -1.09076,-2.70356 -1.5625,-3.4376 -0.47174,-0.73404 -1.2984,-1.1557 -1.6874,-1.375 -0.42844,-0.24152 -1.07844,-0.48646 -1.875,-0.75 -0.54574,-0.1806 -1.8175,-0.3125 -2.6875,-0.3125 -0.80408,0 -1.62622,0.0762 -2.4375,0.3125 -0.39706,0.1156 -0.78452,0.42334 -1.1875,0.625 l -0.125,0 -28.79999,0 -4.2,4.1875 c -0.98676,0.028 -2.00314,0.0492 -2.9375,0.25 l -0.0626,0 0,-4.4375 -14.812497,0 -1.187399,1.1253 0,-1.125 -14.8125,0 -5.437499,5.375 0,28.87499 14.812499,0 1.1875,-1.1875 0,1.1875 9.249996,0 c 4.68884,4.11078 11.5597,5.22284 17.25,1.9375 0.8926,-0.44884 1.72858,-1.2635 2.4377,-1.8752 l 7.87499,0 1.1875,-1.1875 0,1.1875 44.625,0 c 0.1214,0.099 0.1488,0.149 0.3125,0.25 1.1369,0.7021 2.45784,1.27164 3.9375,1.5 1.84604,0.2849 3.75424,0.116 5.5,-0.375 0.60712,-0.1708 1.07674,-0.53568 1.625,-0.8125 l 0,1.4375 18.8125,0 9.4375,-9.43749 0,-10.8125 -2,0 0,-8.0625 -4,0 0,-2 -14.8125,0 -1.1875,1.125 0,-0.375 c -0.83334,0 -1.66666,0 -2.5,0 l 1.6875,-3.375 -5.0625,0 -2.375,-7.1875 z"
           id="path4308"
           inkscape:connector-curvature="0"
           sodipodi:nodetypes="cccccccsssszscccccccccccccccccccccccccscccccccccccccccc" />
        <path
           sodipodi:nodetypes="ccccccsssssssssssccccccccccscccccccccccccccccccaaaccccccccccccccccccccc"
           inkscape:connector-curvature="0"
           id="path9330"
           d="m 182.10195,716.23249 -4.25,4.25 -0.75,1.75 -4.8125,0.3125 -3.8125,3.8125 -13.1875,0 c 0.21962,-0.25222 0.44244,-0.53104 0.625,-0.8125 0.01,-0.016 -0.012,-0.0484 0,-0.0626 0.24082,-0.29068 0.3747,-0.66244 0.5,-0.9376 0.29268,-0.64276 0.43796,-1.31854 0.4375,-2.0625 -2e-4,-0.3311 -0.0268,-0.64598 -0.0626,-0.9376 -0.1106,-0.90128 -0.40812,-1.77724 -1.0625,-2.4375 -0.4561,-0.4602 -0.91252,-0.79 -1.4999,-1.125 -0.33128,-0.189 -0.76476,-0.28962 -1.0625,-0.3748 -0.70414,-0.20146 -1.4356,-0.25 -2.1875,-0.25 -0.6535,0 -1.27004,0.0738 -1.875,0.25 -0.60496,0.1762 -1.2104,0.44088 -1.6875,0.875 -0.0604,0.055 -0.1184,0.079 -0.1874,0.1252 l 0,-0.3126 -12,0 0,0.0626 -2,1.9375 -2,0 0,-2 -11.99999,0 0,0.0626 -4.125,4.0625 c -1.1261,-0.0576 -2.24818,0.0704 -3.375,0.3125 -0.8379,0.18 -1.686,0.40804 -2.5,0.75 l 0,-5.1875 -11.999997,0 -1.999999,2 -2,0 0,-2 -12,0 -4.25,4.25 0,25.99999 12,0 4,-3.99999 0,3.99999 7.812496,0 c 4.06388,4.108 10.47504,5.25946 15.6875,2.25 1.01338,-0.55594 1.803,-1.39566 2.625,-2.1875 l 7.87499,0 4,-3.99999 0,3.99999 43.375,0 c 0.21246,0.21898 0.3866,0.41522 0.6251,0.5625 0.9711,0.5997 2.05972,1.07592 3.1877,1.25 1.5271,0.23568 3.13754,0.1058 4.625,-0.3125 1.04056,-0.29266 2.0188,-0.826 2.875,-1.5 l 1.3125,0 0,2 16,0 8.25,-8.24999 0,-8 -2,0 0,-8.0625 -4,0 0,-2 -12,0 -2,2 -2,0 0,-1.25 -2,0 -1.5625,0 c -0.0398,-0.078 -0.016,-0.1762 -0.0626,-0.25 l 0.125,-0.25 1.4375,-2.875 -3.25,0 z"
           style="color:#000000;font-style:normal;font-variant:normal;font-weight:normal;font-stretch:normal;font-size:medium;line-height:normal;font-family:Sans;-inkscape-font-specification:Sans;text-indent:0;text-align:start;text-decoration:none;text-decoration-line:none;letter-spacing:normal;word-spacing:normal;text-transform:none;direction:ltr;block-progression:tb;writing-mode:lr-tb;text-anchor:start;visibility:visible;fill:#000000;fill-opacity:1;fill-rule:nonzero;stroke:none;stroke-width:2;marker:none" />
        <path
           inkscape:connector-curvature="0"
           id="path4156"
           d="m 83.225994,720.28631 0,22.0251 7.983076,0 0,-12.03602 2.006004,0 0,2.006 0,2.006 2.006004,0 2.006003,0 0,-2.006 0,-2.006 2.006004,0 0,12.03602 7.983075,0 0,-22.0251 -7.983075,0 0,2.006 -2.006004,0 0,2.006 0,2.00602 -2.006003,0 -2.006004,0 0,-2.00602 0,-2.006 -2.006004,0 0,-2.006 -7.983076,0 z m 37.991256,0 0,22.0251 8.024,0 0,-12.03602 2.00602,0 0,2.006 0,2.006 1.96506,0 2.006,0 0,-2.006 0,-2.006 2.006,0 0,12.03602 7.98308,0 0,-22.0251 -7.98308,0 0,2.006 -2.006,0 0,2.006 0,2.00602 -2.006,0 -1.96506,0 0,-2.00602 0,-2.006 -2.00602,0 0,-2.006 -8.024,0 z m 74.01744,6.01802 0,2.006 -4.012,0 0,1.96506 -2.00602,0 0,2.006 2.00602,0 0,2.006 2.006,0 0,2.00602 6.018,0 0,2.006 1.96508,0 0,2.006 -3.97108,0 0,-2.006 -8.02402,0 0,2.006 2.00602,0 0,2.006 2.006,0 0,1.96508 11.99508,0 0,-1.96508 2.006,0 0,-2.006 2.006,0 0,-2.006 0,-2.006 -2.006,0 0,-2.00602 -7.98308,0 0,-2.006 -2.006,0 0,-2.006 3.97108,0 0,2.006 6.018,0 0,-2.006 0,-1.96506 -4.012,0 0,-2.006 -7.98308,0 z m -48.02128,2.006 0,14.00108 8.02402,0 0,-14.00108 -8.02402,0 z m 10.03002,0 0,14.00108 7.98308,0 0,-8.02402 2.006,0 0,-2.006 2.006,0 0,2.006 0,8.02402 7.98308,0 0,-8.02402 0,-2.006 0,-2.006 -4.012,0 0,-1.96506 -5.97708,0 0,1.96506 -2.006,0 0,-1.96506 -7.98308,0 z"
           style="fill:url(#linearGradient3146);fill-opacity:1;stroke:none" />
        <path
           inkscape:connector-curvature="0"
           style="fill:#00ff00;fill-opacity:1;fill-rule:nonzero;stroke:none"
           d="m 150.96207,719.29499 c -2.33334,0 -3.11112,0.99224 -3.11112,3.1111 0,2.33334 0.77778,3.8889 3.11112,3.8889 2.33332,0 3.88888,-1.55556 3.88888,-3.8889 0,-2.33332 -1.55556,-3.1111 -3.88888,-3.1111 z"
           id="path4162"
           sodipodi:nodetypes="czzzz" />
        <path
           inkscape:connector-curvature="0"
           style="fill:#00a000;fill-opacity:1;fill-rule:nonzero;stroke:none"
           d="m 150.18429,720.85053 -2.28474,0.94792 c -0.016,0.191 -0.0486,0.39384 -0.0486,0.60764 0,2.33334 0.77778,3.8889 3.11112,3.8889 0.97888,0 1.80718,-0.28766 2.45486,-0.77778 -0.68136,-0.0364 -2.12414,-0.1944 -2.69792,-0.77778 -0.76502,-0.77778 0.24306,-1.55556 0.24306,-1.55556 0,0 -1.5456,0.47096 -2.01736,-0.24306 -0.47176,-0.71402 1.23958,-2.09028 1.23958,-2.09028 z"
           id="path4164" />
        <path
           inkscape:connector-curvature="0"
           style="fill:#c1ffc1;fill-opacity:1;fill-rule:nonzero;stroke:none"
           d="m 150.96207,719.29499 c -0.5193,0 -0.93874,0.0704 -1.3125,0.1702 0.1934,-0.018 1.3125,-0.1062 1.3125,0.60764 0,0.65496 0,1.30222 0,1.55554 0.0364,-0.51638 0.1944,-1.55554 0.77776,-1.55554 0.76924,0 2.15666,0.0236 2.1875,0.0244 -0.68396,-0.57162 -1.70968,-0.80208 -2.96526,-0.80208 z"
           id="path4166" />
        <path
           inkscape:connector-curvature="0"
           style="fill:#c1ffc1;fill-opacity:1;fill-rule:nonzero;stroke:none"
           d="m 153.85443,720.02415 -0.073,0.0486 0.4375,0.31596 c -0.1108,-0.1318 -0.22732,-0.2592 -0.3646,-0.36458 z m 0.36458,0.36458 c 0,0 -1.48464,0.33828 -1.7014,0.8993 -0.21676,0.56102 0.77778,0.68056 0.77778,0.68056 0,0 -0.77778,0.4375 -0.77778,1.21528 0,0.77778 0.3889,1.89584 0.3889,1.89584 0,0 -0.3889,-1.53882 0.38888,-1.89584 0.77778,-0.35702 1.45834,0.1458 1.45834,0.1458 0.0592,-0.29496 0.0972,-0.5958 0.0972,-0.92362 0,-0.8831 -0.22848,-1.53774 -0.63194,-2.01736 z"
           id="path4168" />
        <circle
           r="10.5"
           cy="21.5"
           cx="19.5"
           style="fill:#808080;fill-opacity:1;fill-rule:nonzero;stroke:none"
           id="path4172"
           transform="matrix(0.66666663,0,0,0.66664313,171.22695,722.96241)" />
        <rect
           style="fill:#909090;fill-opacity:1;fill-rule:nonzero;stroke:none"
           id="rect4174"
           width="3.333333"
           height="1.3332862"
           x="182.56029"
           y="729.62885" />
        <path
           inkscape:connector-curvature="0"
           id="path4176"
           d="m 182.35195,724.32063 a 0.65921947,0.65921947 0 1 0 0.125,1.3125 c 0.32008,0.0492 0.87528,0.36094 0.9375,0.4375 0.1782,0.2193 0.1874,0.29546 0.1874,0.875 a 0.65625,0.65625 0 0 0 1.3125,0 c 0,-0.75654 -0.1652,-1.33818 -0.5,-1.75 -0.45078,-0.55452 -1.1058,-0.77584 -1.75,-0.875 a 0.65508713,0.65508713 0 0 0 -0.3125,0 z"
           style="color:#000000;font-style:normal;font-variant:normal;font-weight:normal;font-stretch:normal;font-size:medium;line-height:normal;font-family:Sans;-inkscape-font-specification:Sans;text-indent:0;text-align:start;text-decoration:none;text-decoration-line:none;letter-spacing:normal;word-spacing:normal;text-transform:none;direction:ltr;block-progression:tb;writing-mode:lr-tb;baseline-shift:baseline;text-anchor:start;display:inline;overflow:visible;visibility:visible;fill:#e00000;fill-opacity:1;stroke:none;stroke-width:0.65502167;marker:none;enable-background:accumulate" />
        <rect
           style="fill:#909090;fill-opacity:1;fill-rule:nonzero;stroke:none"
           id="rect4178"
           width="5.9999995"
           height="2.6665723"
           x="181.22696"
           y="726.96222" />
        <path
           inkscape:connector-curvature="0"
           style="fill:#606060;fill-opacity:1;fill-rule:nonzero;stroke:none"
           d="m 179.27721,732.34565 c -2.73226,2.73218 -2.73226,7.167 0,9.89916 2.73226,2.73216 7.16722,2.73216 9.89948,0 -1.6914,1.69134 -5.2816,0.8466 -8.01388,-1.88556 -2.73226,-2.73216 -3.577,-6.32226 -1.8856,-8.0136 z"
           id="path4180"
           inkscape:transform-center-y="1.5368963"
           inkscape:transform-center-x="1.5368965" />
        <path
           inkscape:connector-curvature="0"
           style="fill:#606060;fill-opacity:1;fill-rule:nonzero;stroke:none"
           d="m 182.56029,729.62883 0,1.3333 1.33332,0 -0.66666,-1.3333 -0.66666,0 z"
           id="path4182" />
        <path
           inkscape:connector-curvature="0"
           inkscape:transform-center-y="-1.5368969"
           id="path4184"
           d="m 189.17669,742.24481 c 2.73226,-2.73216 2.73226,-7.16698 0,-9.89916 -2.73226,-2.73216 -7.16722,-2.73216 -9.89948,0 1.69138,-1.69132 5.2816,-0.8466 8.01386,1.88556 2.73226,2.73216 3.57702,6.32226 1.88562,8.0136 z"
           style="fill:#909090;fill-opacity:1;fill-rule:nonzero;stroke:none"
           inkscape:transform-center-x="-1.536897" />
        <path
           inkscape:connector-curvature="0"
           style="fill:#606060;fill-opacity:1;fill-rule:nonzero;stroke:none"
           d="m 181.22695,726.96227 0,2.66656 2.66666,0 -1.33332,-2.66656 -1.33334,0 z"
           id="path4186" />
        <rect
           style="fill:#606060;fill-opacity:1;fill-rule:nonzero;stroke:none"
           id="rect4188"
           width="4.4498315"
           height="0.66664308"
           x="182.77715"
           y="728.96222" />
        <path
           inkscape:connector-curvature="0"
           style="fill:#c0c0c0;fill-opacity:1;fill-rule:nonzero;stroke:none"
           d="m 185.68529,731.81627 -0.6875,2.58324 c 1.06638,0.28572 1.83926,1.05858 2.125,2.12492 l 2.58332,-0.68748 c -0.53972,-2.0142 -2.00656,-3.48098 -4.02082,-4.02068 z"
           id="path4190" />
        <path
           inkscape:connector-curvature="0"
           style="fill:#ffff00;fill-opacity:1;fill-rule:nonzero;stroke:none"
           d="m 181.01881,723.94997 -2.75118,0.1534 2.29266,1.52552 -0.66668,1.99994 2,-1.33328 2,1.33328 -0.66666,-2.66658 0.66666,-1.33328 -1.33332,0 -0.66668,-1.83406 -0.8748,2.15498 z"
           id="path4192"
           sodipodi:nodetypes="ccccccccccc" />
        <path
           transform="matrix(-1.5730968,0,0,1.5731203,126.75685,722.71003)"
           d="M 1.9105703,4.504348 A 6.9913044,6.9913044 0 0 1 9.7747002,1.2469185 6.9913044,6.9913044 0 0 1 14.956522,8 6.9913044,6.9913044 0 0 1 9.7747003,14.753081 6.9913044,6.9913044 0 0 1 1.9105703,11.495652 L 7.9652176,8 Z"
           sodipodi:ry="6.9913044"
           sodipodi:rx="6.9913044"
           sodipodi:cy="8"
           sodipodi:cx="7.9652176"
           id="path4200"
           style="fill:#ff0000;fill-opacity:1;fill-rule:nonzero;stroke:none"
           sodipodi:type="arc"
           sodipodi:start="3.6651914"
           sodipodi:end="2.6179939" />
        <circle
           r="2"
           cy="5"
           cx="8"
           id="path4202"
           style="fill:#ffffff;fill-opacity:1;fill-rule:nonzero;stroke:none"
           transform="matrix(-1.5711427,0,0,1.5711661,126.79593,722.72565)" />
        <circle
           r="1"
           cy="5"
           cx="8"
           transform="matrix(-1.5711427,0,0,1.5711661,128.36707,722.72565)"
           id="path4204"
           style="fill:#000000;fill-opacity:1;fill-rule:nonzero;stroke:none" />
      </g>
      <g
         id="g4177"
         transform="translate(0.07023832,-10.34196)">
        <rect
           ry="2.6200881"
           rx="2.6200929"
           y="683.68701"
           x="100.71704"
           height="26.200865"
           width="91.703033"
           id="rect4172"
           style="opacity:0.7;fill:#ffffff;fill-opacity:1;stroke:#699536;stroke-width:0.65502167;stroke-opacity:1" />
        <text
           sodipodi:linespacing="125%"
           id="text4198"
           y="706.41077"
           x="104.70583"
           style="font-style:normal;font-weight:normal;font-size:26.2008667px;line-height:125%;font-family:Sans;letter-spacing:0px;word-spacing:0px;fill:#000000;fill-opacity:1;stroke:none;stroke-width:1px;stroke-linecap:butt;stroke-linejoin:miter;stroke-opacity:1"
           xml:space="preserve"><tspan
             y="706.41077"
             x="104.70583"
             id="tspan4200"
             sodipodi:role="line">Teaser</tspan></text>
      </g>
    </g>
  </g>
</svg>
