<?xml version="1.0" encoding="UTF-8" standalone="no"?>
<!-- Created with Inkscape (http://www.inkscape.org/) -->

<svg
   xmlns:dc="http://purl.org/dc/elements/1.1/"
   xmlns:cc="http://creativecommons.org/ns#"
   xmlns:rdf="http://www.w3.org/1999/02/22-rdf-syntax-ns#"
   xmlns:svg="http://www.w3.org/2000/svg"
   xmlns="http://www.w3.org/2000/svg"
   xmlns:sodipodi="http://sodipodi.sourceforge.net/DTD/sodipodi-0.dtd"
   xmlns:inkscape="http://www.inkscape.org/namespaces/inkscape"
   id="svg2438"
   sodipodi:version="0.32"
   inkscape:version="0.47 r22583"
   width="32"
   height="32"
   version="1.0"
   sodipodi:docname="heart-00.svg"
   inkscape:output_extension="org.inkscape.output.svg.inkscape">
  <metadata
     id="metadata2443">
    <rdf:RDF>
      <cc:Work
         rdf:about="">
        <dc:format>image/svg+xml</dc:format>
        <dc:type
           rdf:resource="http://purl.org/dc/dcmitype/StillImage" />
      </cc:Work>
    </rdf:RDF>
  </metadata>
  <defs
     id="defs2441">
    <inkscape:perspective
       sodipodi:type="inkscape:persp3d"
       inkscape:vp_x="0 : 526.18109 : 1"
       inkscape:vp_y="0 : 1000 : 0"
       inkscape:vp_z="744.09448 : 526.18109 : 1"
       inkscape:persp3d-origin="372.04724 : 350.78739 : 1"
       id="perspective2445" />
  </defs>
  <sodipodi:namedview
     inkscape:window-height="796"
     inkscape:window-width="712"
     inkscape:pageshadow="2"
     inkscape:pageopacity="0.0"
     guidetolerance="4"
     gridtolerance="4"
     objecttolerance="4"
     borderopacity="1.0"
     bordercolor="#666666"
     pagecolor="#ffffff"
     id="base"
     showgrid="true"
     inkscape:snap-bbox="true"
     inkscape:object-paths="true"
     inkscape:object-nodes="true"
     inkscape:bbox-paths="true"
     inkscape:bbox-nodes="true"
     inkscape:zoom="17.822663"
     inkscape:cx="16.131148"
     inkscape:cy="16"
     inkscape:window-x="0"
     inkscape:window-y="37"
     inkscape:current-layer="svg2438"
     inkscape:window-maximized="0">
    <inkscape:grid
       type="xygrid"
       id="grid3221"
       units="px"
       visible="true"
       enabled="true"
       spacingx="1px"
       spacingy="1px" />
  </sodipodi:namedview>
  <g
     id="g2819">
    <rect
       y="0"
       x="0"
       height="32"
       width="32"
       id="rect2817"
       style="fill:none;stroke:none" />
    <g
       id="g3249">
      <path
         sodipodi:nodetypes="czczzcz"
         id="path3223"
         d="M 11,5 C 8,5 4,6 4,12 C 4,18 16,27 16,27 C 16,27 28,18 28,12 C 28,6 24,5 21,5 C 18,5 16.13913,7.4434783 16.13913,7.4434783 C 16.13913,7.4434783 14,5 11,5 z"
         style="opacity:1;fill:#ff0000;fill-opacity:1;fill-rule:nonzero;stroke:#000000;stroke-width:2;stroke-linecap:round;stroke-linejoin:miter;stroke-miterlimit:4;stroke-dasharray:none;stroke-dashoffset:0;stroke-opacity:1" />
      <path
         style="opacity:1;fill:#ff0000;fill-opacity:1;fill-rule:nonzero;stroke:none;stroke-width:2;stroke-linecap:round;stroke-linejoin:miter;stroke-miterlimit:4;stroke-dasharray:none;stroke-dashoffset:0;stroke-opacity:1"
         d="M 11,5 C 8,5 4,6 4,12 C 4,18 16,27 16,27 C 16,27 28,18 28,12 C 28,6 24,5 21,5 C 18,5 16.13913,7.4434783 16.13913,7.4434783 C 16.13913,7.4434783 14,5 11,5 z"
         id="path2449"
         sodipodi:nodetypes="czczzcz" />
      <path
         sodipodi:nodetypes="czsssccc"
         id="path3245"
         d="M 5.0069176,7.7379506 C 4.5264488,8.4645131 4,10.101562 4,12 C 4,13.898438 4.657924,14.989505 5.782924,16.735599 C 6.907924,18.481692 8.5,20.25 10,21.75 C 11.5,23.25 13,24.5625 14.125,25.5 C 15.25,26.4375 16,27 16,27 C 16,27 16.357105,26.879556 17.482105,25.824868 C 14,25 4.6369911,16 5.0069176,7.7379506 z"
         style="opacity:1;fill:#c00000;fill-opacity:1;fill-rule:nonzero;stroke:none;stroke-width:2;stroke-linecap:round;stroke-linejoin:miter;stroke-miterlimit:4;stroke-dasharray:none;stroke-dashoffset:0;stroke-opacity:1" />
      <path
         style="opacity:1;fill:#ffffff;fill-opacity:0.70588235;fill-rule:nonzero;stroke:none;stroke-width:2;stroke-linecap:round;stroke-linejoin:miter;stroke-miterlimit:4;stroke-dasharray:none;stroke-dashoffset:0;stroke-opacity:1"
         d="M 26.150497,10.093427 C 26.150497,10.093427 26,13.221887 24.699006,15.103102 C 23.914792,16.237061 22,18.657791 22,18.657791 L 21,16.909068 C 21,16.909068 22.814287,14.959399 23.342918,13.748627 C 24,12.243655 24,9.9964099 24,9.9964099 L 26.150497,10.093427 z"
         id="path3247"
         sodipodi:nodetypes="csccscc" />
    </g>
  </g>
</svg>
