<?xml version="1.0" encoding="UTF-8" standalone="no"?>
<!-- Created with Inkscape (http://www.inkscape.org/) -->

<svg xmlns:dc="http://purl.org/dc/elements/1.1/" xmlns:cc="http://creativecommons.org/ns#" xmlns:rdf="http://www.w3.org/1999/02/22-rdf-syntax-ns#" xmlns:svg="http://www.w3.org/2000/svg" xmlns="http://www.w3.org/2000/svg" xmlns:xlink="http://www.w3.org/1999/xlink" xmlns:sodipodi="http://sodipodi.sourceforge.net/DTD/sodipodi-0.dtd" xmlns:inkscape="http://www.inkscape.org/namespaces/inkscape" width="32" height="32" id="svg4150" version="1.1" inkscape:version="0.91 r13725" viewBox="0 0 32 32" sodipodi:docname="00.svg">
  <defs id="defs4152" />
  <sodipodi:namedview id="base" pagecolor="#ffffff" bordercolor="#666666" borderopacity="1.0" inkscape:pageopacity="0.0" inkscape:pageshadow="2" inkscape:zoom="22.125" inkscape:cx="16" inkscape:cy="16" inkscape:current-layer="layer1" showgrid="true" inkscape:grid-bbox="true" inkscape:document-units="px" objecttolerance="10000" inkscape:snap-perpendicular="true" guidetolerance="10000" inkscape:window-width="1600" inkscape:window-height="878" inkscape:window-x="0" inkscape:window-y="0" inkscape:window-maximized="1" showguides="true" inkscape:guide-bbox="true">
    <inkscape:grid type="xygrid" id="grid4698" empspacing="4" />
    <sodipodi:guide position="16,32" orientation="1,0" id="guide4769" />
    <sodipodi:guide position="-4,16" orientation="0,1" id="guide4771" />
    <sodipodi:guide position="16,16" orientation="-0.70710678,0.70710678" id="guide4773" />
    <sodipodi:guide position="16,16" orientation="0.70710678,0.70710678" id="guide4775" />
  </sodipodi:namedview>
  <metadata id="metadata4155">
    <rdf:RDF>
      <cc:Work rdf:about="">
        <dc:format>image/svg+xml</dc:format>
        <dc:type rdf:resource="http://purl.org/dc/dcmitype/StillImage" />
        <dc:title></dc:title>
      </cc:Work>
    </rdf:RDF>
  </metadata>
  <g id="layer1" inkscape:label="Layer 1" inkscape:groupmode="layer">
    <g id="g6222">
      <rect transform="scale(-1,1)" y="0" x="-32" height="31.999994" width="32" id="rect5494" style="fill:white;fill-opacity:1;fill-rule:nonzero;stroke:none" />
      <g transform="matrix(-1,0,0,1,32,0)" id="g3228">
        <path style="fill:white;fill-opacity:1;fill-rule:nonzero;stroke:none" d="M 0,0 0,32 32,32 32,0 0,0 Z M 1,1 31,1 31,31 1,31 1,1 Z" id="rect5481" inkscape:connector-curvature="0" />
      </g>
      <path sodipodi:nodetypes="cccccccccc" id="rect2448" d="M 31,1 31,31 1,31 1,1 31,1 Z M 30,2 2,2 2,30 30,30 30,2 Z" style="fill:green;fill-opacity:1;fill-rule:nonzero;stroke:none" inkscape:connector-curvature="0" />
      <path d="m 17.271484,9 c -1.231443,0 -2.230468,0.9990268 -2.230468,2.230469 0,0.787967 0.40413,1.485887 1.021484,1.882812 -0.08505,-0.02342 -0.162466,-0.04438 -0.253906,-0.04687 -0.08522,-0.0019 -0.17401,0.0064 -0.25586,0.02344 l -4.230468,0 c -0.204917,-1.65e-4 -0.405042,0.05556 -0.580078,0.162109 l -3.7187505,2.232422 c -0.5262001,0.320853 -0.6919471,1.007003 -0.3710937,1.533203 0.3208532,0.5262 1.0070136,0.691949 1.5332031,0.371094 l 3.4394531,-2.06836 1.462891,0 -7.759766,7.761719 c -0.4363612,0.436361 -0.4363612,1.143716 0,1.580078 0.4363612,0.436361 1.1437169,0.436361 1.5800781,0 l 3.9726559,-3.972656 2.8125,0.953125 -0.488281,1.951172 c -0.154009,0.603204 0.209295,1.217084 0.8125,1.371094 0.603205,0.15401 1.217084,-0.211249 1.371094,-0.814453 l 0.74414,-2.972657 c 0.151464,-0.575722 -0.17634,-1.170723 -0.74414,-1.349609 l -2.742188,-0.90625 2.464844,-2.462891 0.324219,1.673828 c 0.117248,0.602058 0.697998,0.996279 1.300781,0.882813 l 3.71875,-0.744141 c 0.417161,-0.04603 0.781514,-0.328036 0.929688,-0.720703 0.148175,-0.392666 0.05033,-0.828524 -0.232422,-1.138672 -0.282756,-0.310155 -0.710579,-0.435556 -1.115235,-0.324218 l -2.625,0.535156 -0.511718,-2.488281 c -0.0056,-0.104838 -0.01076,-0.198687 -0.04687,-0.300782 -0.02451,-0.0693 -0.0806,-0.123806 -0.117188,-0.185546 -0.0088,-0.01623 -0.01188,-0.03116 -0.02148,-0.04688 -0.05493,-0.08373 -0.11328,-0.166961 -0.1875,-0.232421 -0.0083,-0.0077 -0.01299,-0.01594 -0.02148,-0.02344 -0.0084,-0.007 -0.01484,-0.01664 -0.02344,-0.02344 0.246809,0.09417 0.509307,0.138672 0.789062,0.138672 1.231442,0 2.230469,-0.999026 2.230469,-2.230469 C 19.501953,9.9990258 18.502926,9 17.271484,9 Z" id="path6195" style="fill:black;fill-opacity:1;fill-rule:nonzero;stroke:none" inkscape:original="M 17.271484 9 C 16.040041 9 15.041016 9.9990268 15.041016 11.230469 C 15.041016 12.018436 15.445146 12.716356 16.0625 13.113281 C 15.977447 13.089861 15.900034 13.068906 15.808594 13.066406 C 15.723377 13.064546 15.634584 13.072834 15.552734 13.089844 L 11.322266 13.089844 C 11.117349 13.089679 10.917224 13.145401 10.742188 13.251953 L 7.0234375 15.484375 C 6.4972374 15.805228 6.3314904 16.491378 6.6523438 17.017578 C 6.973197 17.543778 7.6593574 17.709527 8.1855469 17.388672 L 11.625 15.320312 L 13.087891 15.320312 L 5.328125 23.082031 C 4.8917638 23.518392 4.8917638 24.225747 5.328125 24.662109 C 5.7644862 25.09847 6.4718419 25.09847 6.9082031 24.662109 L 10.880859 20.689453 L 13.693359 21.642578 L 13.205078 23.59375 C 13.051069 24.196954 13.414373 24.810834 14.017578 24.964844 C 14.620783 25.118854 15.234662 24.753595 15.388672 24.150391 L 16.132812 21.177734 C 16.284276 20.602012 15.956472 20.007011 15.388672 19.828125 L 12.646484 18.921875 L 15.111328 16.458984 L 15.435547 18.132812 C 15.552795 18.73487 16.133545 19.129091 16.736328 19.015625 L 20.455078 18.271484 C 20.872239 18.225452 21.236592 17.943448 21.384766 17.550781 C 21.532941 17.158115 21.435099 16.722257 21.152344 16.412109 C 20.869588 16.101954 20.441765 15.976553 20.037109 16.087891 L 17.412109 16.623047 L 16.900391 14.134766 C 16.894751 14.029928 16.889626 13.936079 16.853516 13.833984 C 16.829004 13.764686 16.772918 13.710178 16.736328 13.648438 C 16.727528 13.632207 16.724444 13.617282 16.714844 13.601562 C 16.659914 13.517836 16.601564 13.434601 16.527344 13.369141 C 16.519024 13.361451 16.514359 13.353203 16.505859 13.345703 C 16.497459 13.338733 16.491022 13.329066 16.482422 13.322266 C 16.729231 13.416435 16.991729 13.460938 17.271484 13.460938 C 18.502926 13.460938 19.501953 12.461912 19.501953 11.230469 C 19.501953 9.9990258 18.502926 9 17.271484 9 z " inkscape:radius="0" sodipodi:type="inkscape:offset" />
      <path sodipodi:nodetypes="cccccccccc" id="rect3222" d="M 29,3 29,29 3,29 3,3 29,3 Z M 28,4 4,4 4,28 28,28 28,4 Z" style="fill:black;fill-opacity:1;fill-rule:nonzero;stroke:none" inkscape:connector-curvature="0" />
      <rect y="3" x="3" height="26" width="26" id="rect6201" style="opacity:1;fill:green;fill-opacity:1;fill-rule:nonzero;stroke:none;stroke-width:2;stroke-linecap:butt;stroke-linejoin:miter;stroke-miterlimit:4;stroke-dasharray:none;stroke-dashoffset:0;stroke-opacity:1" />
      <path id="rect6190" d="M 14 5 L 14 27 L 27 27 L 27 5 L 14 5 z M 15 6 L 26 6 L 26 26 L 15 26 L 21 24 L 21 8 L 15 6 z " style="opacity:1;fill:white;fill-opacity:1;fill-rule:nonzero;stroke:none;stroke-width:2;stroke-linecap:butt;stroke-linejoin:miter;stroke-miterlimit:4;stroke-dasharray:none;stroke-dashoffset:0;stroke-opacity:1" />
      <path d="m 17.271484,8.0136719 c -1.765327,0 -3.216796,1.4514704 -3.216796,3.2167971 0,0.314509 0.13986,0.583303 0.224609,0.873047 l -2.957031,0 c -0.382297,-3.08e-4 -0.759216,0.104012 -1.087891,0.302734 l -0.002,0 c -0.0012,7.56e-4 -0.0027,0.0012 -0.0039,0.002 l -3.712891,2.230469 a 0.98723234,0.98723234 0 0 0 -0.00586,0.002 c -0.9816243,0.59855 -1.2992696,1.909744 -0.7011718,2.890625 0.5974205,0.979771 1.9044961,1.296648 2.8847656,0.703125 l 0.00195,-0.002 0.2167969,-0.128906 -4.28125,4.28125 c -0.8135261,0.813525 -0.8135248,2.161083 0,2.974609 0.8135263,0.813526 2.161083,0.813526 2.9746094,0 l 3.5390622,-3.539063 1.371094,0.464844 -0.267578,1.064453 c -1.71e-4,6.7e-4 1.7e-4,0.0013 0,0.002 l 0,0.002 c -0.2831,1.118056 0.406373,2.282652 1.525391,2.568359 1.121224,0.28627 2.286342,-0.407482 2.572265,-1.527344 a 0.98723234,0.98723234 0 0 0 0,-0.0039 l 0.742188,-2.960937 0,-0.002 c 0.131446,-0.501653 0.03116,-1.006274 -0.183594,-1.445312 0.005,-9.01e-4 0.0087,0.0048 0.01367,0.0039 a 0.98723234,0.98723234 0 0 0 0.01172,-0.002 l 3.71875,-0.744141 -0.08594,0.01172 c 0.791747,-0.08737 1.464322,-0.60681 1.746094,-1.353515 0.284041,-0.752714 0.08885,-1.585716 -0.427735,-2.152344 -0.527493,-0.578607 -1.346433,-0.818218 -2.105468,-0.609375 l 0.06445,-0.01563 -1.660156,0.33789 -0.236329,-1.148437 c 1.436956,-0.320444 2.544922,-1.55234 2.544922,-3.080078 0,-1.7653283 -1.45147,-3.2167971 -3.216797,-3.2167971 z M 14.537109,18.427734 c 0.01092,0.04143 0.05308,0.06129 0.06641,0.101563 l -0.125,-0.04297 0.05859,-0.05859 z" inkscape:href="#path6197" id="path6199" style="fill:white;fill-opacity:1;fill-rule:nonzero;stroke:none" xlink:href="#path6197" inkscape:original="M 17.271484 9 C 16.040041 9 15.041016 9.9990265 15.041016 11.230469 C 15.041016 12.018436 15.445146 12.716356 16.0625 13.113281 C 15.977447 13.089861 15.900034 13.068906 15.808594 13.066406 C 15.723377 13.064546 15.634584 13.072834 15.552734 13.089844 L 11.322266 13.089844 C 11.117349 13.089679 10.917223 13.145401 10.742188 13.251953 L 7.0234375 15.484375 C 6.4972374 15.805228 6.3314904 16.491378 6.6523438 17.017578 C 6.973197 17.543778 7.6593574 17.709527 8.1855469 17.388672 L 11.625 15.320312 L 13.087891 15.320312 L 5.328125 23.082031 C 4.8917638 23.518392 4.8917638 24.225747 5.328125 24.662109 C 5.7644862 25.09847 6.4718419 25.09847 6.9082031 24.662109 L 10.880859 20.689453 L 13.693359 21.642578 L 13.205078 23.59375 C 13.051069 24.196954 13.414373 24.810834 14.017578 24.964844 C 14.620783 25.118854 15.234662 24.753595 15.388672 24.150391 L 16.132812 21.177734 C 16.284276 20.602012 15.956472 20.007011 15.388672 19.828125 L 12.646484 18.921875 L 15.111328 16.458984 L 15.435547 18.132812 C 15.552795 18.73487 16.133545 19.129091 16.736328 19.015625 L 20.455078 18.271484 C 20.872239 18.225452 21.236592 17.943448 21.384766 17.550781 C 21.532941 17.158115 21.435099 16.722257 21.152344 16.412109 C 20.869588 16.101954 20.441765 15.976553 20.037109 16.087891 L 17.412109 16.623047 L 16.900391 14.134766 C 16.894751 14.029928 16.889626 13.936079 16.853516 13.833984 C 16.829004 13.764686 16.772918 13.710178 16.736328 13.648438 C 16.727528 13.632206 16.724444 13.617282 16.714844 13.601562 C 16.659914 13.517837 16.601564 13.434601 16.527344 13.369141 C 16.519024 13.361451 16.514359 13.353203 16.505859 13.345703 C 16.497459 13.338733 16.491022 13.329066 16.482422 13.322266 C 16.729231 13.416435 16.991729 13.460938 17.271484 13.460938 C 18.502926 13.460938 19.501953 12.461912 19.501953 11.230469 C 19.501953 9.9990256 18.502926 9 17.271484 9 z " inkscape:radius="0.98713362" sodipodi:type="inkscape:offset" />
      <path sodipodi:type="inkscape:offset" inkscape:radius="0" inkscape:original="M 17.271484 9 C 16.040041 9 15.041016 9.9990268 15.041016 11.230469 C 15.041016 12.018436 15.445146 12.716356 16.0625 13.113281 C 15.977447 13.089861 15.900034 13.068906 15.808594 13.066406 C 15.723377 13.064546 15.634584 13.072834 15.552734 13.089844 L 11.322266 13.089844 C 11.117349 13.089679 10.917224 13.145401 10.742188 13.251953 L 7.0234375 15.484375 C 6.4972374 15.805228 6.3314904 16.491378 6.6523438 17.017578 C 6.973197 17.543778 7.6593574 17.709527 8.1855469 17.388672 L 11.625 15.320312 L 13.087891 15.320312 L 5.328125 23.082031 C 4.8917638 23.518392 4.8917638 24.225747 5.328125 24.662109 C 5.7644862 25.09847 6.4718419 25.09847 6.9082031 24.662109 L 10.880859 20.689453 L 13.693359 21.642578 L 13.205078 23.59375 C 13.051069 24.196954 13.414373 24.810834 14.017578 24.964844 C 14.620783 25.118854 15.234662 24.753595 15.388672 24.150391 L 16.132812 21.177734 C 16.284276 20.602012 15.956472 20.007011 15.388672 19.828125 L 12.646484 18.921875 L 15.111328 16.458984 L 15.435547 18.132812 C 15.552795 18.73487 16.133545 19.129091 16.736328 19.015625 L 20.455078 18.271484 C 20.872239 18.225452 21.236592 17.943448 21.384766 17.550781 C 21.532941 17.158115 21.435099 16.722257 21.152344 16.412109 C 20.869588 16.101954 20.441765 15.976553 20.037109 16.087891 L 17.412109 16.623047 L 16.900391 14.134766 C 16.894751 14.029928 16.889626 13.936079 16.853516 13.833984 C 16.829004 13.764686 16.772918 13.710178 16.736328 13.648438 C 16.727528 13.632207 16.724444 13.617282 16.714844 13.601562 C 16.659914 13.517836 16.601564 13.434601 16.527344 13.369141 C 16.519024 13.361451 16.514359 13.353203 16.505859 13.345703 C 16.497459 13.338733 16.491022 13.329066 16.482422 13.322266 C 16.729231 13.416435 16.991729 13.460938 17.271484 13.460938 C 18.502926 13.460938 19.501953 12.461912 19.501953 11.230469 C 19.501953 9.9990258 18.502926 9 17.271484 9 z " style="fill:green;fill-opacity:1;fill-rule:nonzero;stroke:none" id="path6197" d="m 17.271484,9 c -1.231443,0 -2.230468,0.9990268 -2.230468,2.230469 0,0.787967 0.40413,1.485887 1.021484,1.882812 -0.08505,-0.02342 -0.162466,-0.04438 -0.253906,-0.04687 -0.08522,-0.0019 -0.17401,0.0064 -0.25586,0.02344 l -4.230468,0 c -0.204917,-1.65e-4 -0.405042,0.05556 -0.580078,0.162109 l -3.7187505,2.232422 c -0.5262001,0.320853 -0.6919471,1.007003 -0.3710937,1.533203 0.3208532,0.5262 1.0070136,0.691949 1.5332031,0.371094 l 3.4394531,-2.06836 1.462891,0 -7.759766,7.761719 c -0.4363612,0.436361 -0.4363612,1.143716 0,1.580078 0.4363612,0.436361 1.1437169,0.436361 1.5800781,0 l 3.9726559,-3.972656 2.8125,0.953125 -0.488281,1.951172 c -0.154009,0.603204 0.209295,1.217084 0.8125,1.371094 0.603205,0.15401 1.217084,-0.211249 1.371094,-0.814453 l 0.74414,-2.972657 c 0.151464,-0.575722 -0.17634,-1.170723 -0.74414,-1.349609 l -2.742188,-0.90625 2.464844,-2.462891 0.324219,1.673828 c 0.117248,0.602058 0.697998,0.996279 1.300781,0.882813 l 3.71875,-0.744141 c 0.417161,-0.04603 0.781514,-0.328036 0.929688,-0.720703 0.148175,-0.392666 0.05033,-0.828524 -0.232422,-1.138672 -0.282756,-0.310155 -0.710579,-0.435556 -1.115235,-0.324218 l -2.625,0.535156 -0.511718,-2.488281 c -0.0056,-0.104838 -0.01076,-0.198687 -0.04687,-0.300782 -0.02451,-0.0693 -0.0806,-0.123806 -0.117188,-0.185546 -0.0088,-0.01623 -0.01188,-0.03116 -0.02148,-0.04688 -0.05493,-0.08373 -0.11328,-0.166961 -0.1875,-0.232421 -0.0083,-0.0077 -0.01299,-0.01594 -0.02148,-0.02344 -0.0084,-0.007 -0.01484,-0.01664 -0.02344,-0.02344 0.246809,0.09417 0.509307,0.138672 0.789062,0.138672 1.231442,0 2.230469,-0.999026 2.230469,-2.230469 C 19.501953,9.9990258 18.502926,9 17.271484,9 Z" />
    </g>
  </g>
</svg>
