<?xml version="1.0" encoding="UTF-8" standalone="no"?>
<!-- Created with Inkscape (http://www.inkscape.org/) -->

<svg xmlns:dc="http://purl.org/dc/elements/1.1/" xmlns:cc="http://creativecommons.org/ns#" xmlns:rdf="http://www.w3.org/1999/02/22-rdf-syntax-ns#" xmlns:svg="http://www.w3.org/2000/svg" xmlns="http://www.w3.org/2000/svg" xmlns:sodipodi="http://sodipodi.sourceforge.net/DTD/sodipodi-0.dtd" xmlns:inkscape="http://www.inkscape.org/namespaces/inkscape" width="32px" height="32px" id="svg3505" sodipodi:version="0.32" inkscape:version="0.91 r13725" sodipodi:docname="mcminos-outline-00.svg" inkscape:output_extension="org.inkscape.output.svg.inkscape" version="1.1">
  <defs id="defs3507">
    <inkscape:perspective sodipodi:type="inkscape:persp3d" inkscape:vp_x="0 : 16 : 1" inkscape:vp_y="0 : 1000 : 0" inkscape:vp_z="32 : 16 : 1" inkscape:persp3d-origin="16 : 10.666667 : 1" id="perspective3513" />
    <inkscape:perspective id="perspective4690" inkscape:persp3d-origin="372.04724 : 350.78739 : 1" inkscape:vp_z="744.09448 : 526.18109 : 1" inkscape:vp_y="0 : 1000 : 0" inkscape:vp_x="0 : 526.18109 : 1" sodipodi:type="inkscape:persp3d" />
  </defs>
  <sodipodi:namedview id="base" pagecolor="#ffffff" bordercolor="#666666" borderopacity="1.0" inkscape:pageopacity="0.0" inkscape:pageshadow="2" inkscape:zoom="22.125" inkscape:cx="16" inkscape:cy="16" inkscape:current-layer="layer2" showgrid="true" inkscape:grid-bbox="true" inkscape:document-units="px" objecttolerance="10000" gridtolerance="10000" guidetolerance="10000" inkscape:window-width="1600" inkscape:window-height="878" inkscape:window-x="0" inkscape:window-y="0" inkscape:object-paths="true" inkscape:object-nodes="true" inkscape:snap-bbox="true" inkscape:snap-guide="true" inkscape:window-maximized="1" inkscape:snap-path-clip="true" inkscape:snap-path-mask="true" inkscape:snap-perpendicular="true" inkscape:snap-tangential="true">
    <inkscape:grid type="xygrid" id="grid3515" units="px" visible="true" enabled="true" spacingx="1px" spacingy="1px" empspacing="4" snapvisiblegridlinesonly="true" />
  </sodipodi:namedview>
  <metadata id="metadata3510">
    <rdf:RDF>
      <cc:Work rdf:about="">
        <dc:format>image/svg+xml</dc:format>
        <dc:type rdf:resource="http://purl.org/dc/dcmitype/StillImage" />
        <dc:title></dc:title>
        <dc:date>2010-04-26</dc:date>
        <dc:creator>
          <cc:Agent>
            <dc:title>Andreas Neudecker &lt;zapyon@gmx.net&gt;</dc:title>
          </cc:Agent>
        </dc:creator>
        <dc:rights>
          <cc:Agent>
            <dc:title>Copyright (C) 2010 by Andreas Neudecker</dc:title>
          </cc:Agent>
        </dc:rights>
        <dc:publisher>
          <cc:Agent>
            <dc:title>Andreas Neudecker</dc:title>
          </cc:Agent>
        </dc:publisher>
        <dc:identifier>vorlage-32x32-mcminos</dc:identifier>
        <dc:description>Vorlage für 32x32-Pixel-Icons für McMinos. Metadaten jeweils entsprechend anpassen!</dc:description>
      </cc:Work>
    </rdf:RDF>
  </metadata>
  <g inkscape:groupmode="layer" id="layer2" inkscape:label="coloured background" sodipodi:insensitive="true" style="display:none">
    <rect style="opacity:1;fill:navy;fill-opacity:1;fill-rule:nonzero;stroke:none;stroke-width:2;stroke-linecap:round;stroke-linejoin:round;stroke-miterlimit:4;stroke-dasharray:none;stroke-dashoffset:0;stroke-opacity:1" id="rect4143" width="40" height="40" x="-4" y="-4" />
  </g>
  <g id="layer1" inkscape:label="Layer 1" inkscape:groupmode="layer">
    <path style="fill:white;fill-opacity:1;fill-rule:nonzero;stroke:none;stroke-width:0.5;stroke-linecap:round;stroke-linejoin:round;stroke-miterlimit:4;stroke-dasharray:none;stroke-dashoffset:0;stroke-opacity:1" d="m 16,1 c -8.284271,6e-7 -14.9999994,6.715729 -15,15 6e-7,8.284271 6.715729,14.999999 15,15 8.284271,-1e-6 14.999999,-6.715729 15,-15 -1e-6,-8.284271 -6.715729,-14.9999994 -15,-15 z m 0,1 C 23.731986,2 30,8.2680135 30,16 30,23.731986 23.731986,30 16,30 8.2680135,30 2,23.731986 2,16 2,8.2680135 8.2680135,2 16,2 Z M 9,6 c -2.209139,0 -4,1.790861 -4,4 0,2.209139 1.790861,4 4,4 2.209139,0 4,-1.790861 4,-4 C 13,7.790861 11.209139,6 9,6 Z m 14,0 c -2.209139,0 -4,1.790861 -4,4 0,2.209139 1.790861,4 4,4 2.209139,0 4,-1.790861 4,-4 C 27,7.790861 25.209139,6 23,6 Z M 9,8 c 1.104569,0 2,0.8954305 2,2 0,1.104569 -0.895431,2 -2,2 C 7.8954305,12 7,11.104569 7,10 7,8.8954305 7.8954305,8 9,8 Z m 14,0 c 1.104569,0 2,0.8954305 2,2 0,1.104569 -0.895431,2 -2,2 -1.104569,0 -2,-0.895431 -2,-2 0,-1.1045695 0.895431,-2 2,-2 z M 3,16 c 1.831e-4,4.644267 2.4779446,8.935679 6.5,11.257812 4.022214,2.322225 8.977786,2.322225 13,0 C 26.522055,24.935679 28.999817,20.644267 29,16 Z m 1.0546875,1 23.8945315,0 C 27.623644,20.916094 25.401335,24.424657 22,26.392578 c -3.712813,2.143594 -8.287187,2.143594 -12,0 C 6.6001642,24.423731 4.3794159,20.915328 4.0546875,17 Z" id="path4168" inkscape:connector-curvature="0" sodipodi:nodetypes="sssssssssssssssssssssssssssssscssccccccc" />
  </g>
</svg>
