<?xml version="1.0" encoding="UTF-8" standalone="no"?>
<!-- Created with Inkscape (http://www.inkscape.org/) -->

<svg xmlns:dc="http://purl.org/dc/elements/1.1/" xmlns:cc="http://creativecommons.org/ns#" xmlns:rdf="http://www.w3.org/1999/02/22-rdf-syntax-ns#" xmlns:svg="http://www.w3.org/2000/svg" xmlns="http://www.w3.org/2000/svg" xmlns:sodipodi="http://sodipodi.sourceforge.net/DTD/sodipodi-0.dtd" xmlns:inkscape="http://www.inkscape.org/namespaces/inkscape" width="32" height="32" id="svg4150" version="1.1" inkscape:version="0.91 r13725" viewBox="0 0 32 32" sodipodi:docname="symbol-explosion-00.svg">
  <defs id="defs4152" />
  <sodipodi:namedview id="base" pagecolor="#ffffff" bordercolor="#666666" borderopacity="1.0" inkscape:pageopacity="0.0" inkscape:pageshadow="2" inkscape:zoom="22.125" inkscape:cx="13.265537" inkscape:cy="16" inkscape:current-layer="layer1" showgrid="true" inkscape:grid-bbox="true" inkscape:document-units="px" objecttolerance="10000" inkscape:snap-perpendicular="true" guidetolerance="10000" inkscape:window-width="1600" inkscape:window-height="878" inkscape:window-x="0" inkscape:window-y="0" inkscape:window-maximized="1" showguides="true" inkscape:guide-bbox="true">
    <inkscape:grid type="xygrid" id="grid4698" empspacing="4" />
    <sodipodi:guide position="16,32" orientation="1,0" id="guide4769" />
    <sodipodi:guide position="-4,16" orientation="0,1" id="guide4771" />
    <sodipodi:guide position="16,16" orientation="-0.70710678,0.70710678" id="guide4773" />
    <sodipodi:guide position="16,16" orientation="0.70710678,0.70710678" id="guide4775" />
  </sodipodi:namedview>
  <metadata id="metadata4155">
    <rdf:RDF>
      <cc:Work rdf:about="">
        <dc:format>image/svg+xml</dc:format>
        <dc:type rdf:resource="http://purl.org/dc/dcmitype/StillImage" />
        <dc:title></dc:title>
      </cc:Work>
    </rdf:RDF>
  </metadata>
  <g id="layer1" inkscape:label="Layer 1" inkscape:groupmode="layer">
    <path style="fill:none;fill-opacity:1;fill-rule:nonzero;stroke:black;stroke-linejoin:round;stroke-linecap:round;stroke-width:2;stroke-miterlimit:4;stroke-dasharray:none" d="m 18.726562,1.5722656 -1.390624,2.1542969 c -1.271203,-0.8558166 -2.814776,-1.359375 -4.480469,-1.359375 -2.756279,0 -5.1780154,1.3776982 -6.5820315,3.4570313 L 3.7265625,4.2988281 5.4785156,7.3652344 C 5.1687263,8.1832298 4.9921875,9.064296 4.9921875,9.9863281 c 0,0.5044979 0.057943,0.9943009 0.15625,1.4707029 -0.4590315,0.827784 -0.7379954,1.765967 -0.7988281,2.763672 -1.2744044,1.352796 -2.0546875,3.146691 -2.0546875,5.123047 0,0.07764 0.00739,0.153389 0.00977,0.230469 L 1,20.662109 2.453125,20.837891 c 0.5951523,2.89834 2.8803257,5.206706 5.8242188,5.90625 0.8748803,1.308275 2.1509782,2.340819 3.6601562,2.93164 l -0.0293,0.751953 0.517578,-0.595703 c 0.772995,0.246655 1.592376,0.394531 2.451172,0.394531 1.526543,0 2.950096,-0.426977 4.15625,-1.15625 0.872134,0.323129 1.819196,0.503907 2.808594,0.503907 2.468274,0 4.667727,-1.102678 6.109375,-2.826172 l 1.685547,0.732422 -1.197266,-1.390625 c 0.79697,-1.191343 1.265625,-2.607467 1.265625,-4.132813 0,-1.549198 -0.486625,-2.988748 -1.30664,-4.191406 0.405663,-0.918821 0.632812,-1.929633 0.632812,-2.992187 0,-0.08436 -0.01086,-0.1663 -0.01367,-0.25 L 31,13.84375 28.871094,13.236328 C 28.137123,9.7660143 24.967269,7.15625 21.167969,7.15625 c -0.281413,0 -0.555432,0.0268 -0.828125,0.056641 L 18.726562,1.572266 Z" id="path4951" inkscape:connector-curvature="0" />
    <path style="fill:white;fill-opacity:1;fill-rule:nonzero;stroke:none" d="m 18.726562,1.5722656 -1.390624,2.1542969 c -1.271203,-0.8558166 -2.814776,-1.359375 -4.480469,-1.359375 -2.756279,0 -5.1780154,1.3776982 -6.5820315,3.4570313 L 3.7265625,4.2988281 5.4785156,7.3652344 C 5.1687263,8.1832298 4.9921875,9.064296 4.9921875,9.9863281 c 0,0.5044979 0.057943,0.9943009 0.15625,1.4707029 -0.4590315,0.827784 -0.7379954,1.765967 -0.7988281,2.763672 -1.2744044,1.352796 -2.0546875,3.146691 -2.0546875,5.123047 0,0.07764 0.00739,0.153389 0.00977,0.230469 L 1,20.662109 2.453125,20.837891 c 0.5951523,2.89834 2.8803257,5.206706 5.8242188,5.90625 0.8748803,1.308275 2.1509782,2.340819 3.6601562,2.93164 l -0.0293,0.751953 0.517578,-0.595703 c 0.772995,0.246655 1.592376,0.394531 2.451172,0.394531 1.526543,0 2.950096,-0.426977 4.15625,-1.15625 0.872134,0.323129 1.819196,0.503907 2.808594,0.503907 2.468274,0 4.667727,-1.102678 6.109375,-2.826172 l 1.685547,0.732422 -1.197266,-1.390625 c 0.79697,-1.191343 1.265625,-2.607467 1.265625,-4.132813 0,-1.549198 -0.486625,-2.988748 -1.30664,-4.191406 0.405663,-0.918821 0.632812,-1.929633 0.632812,-2.992187 0,-0.08436 -0.01086,-0.1663 -0.01367,-0.25 L 31,13.84375 28.871094,13.236328 C 28.137123,9.7660143 24.967269,7.15625 21.167969,7.15625 c -0.281413,0 -0.555432,0.0268 -0.828125,0.056641 L 18.726562,1.572266 Z" id="path4884" inkscape:connector-curvature="0" />
    <path style="fill:silver;fill-opacity:0.50196078;fill-rule:nonzero;stroke:none" d="m 12.854643,2.3679584 c -4.3428326,0 -7.8633938,3.4105436 -7.8633938,7.6176624 0,1.1056582 0.2507133,2.1533002 0.6880468,3.1014762 -2.0444627,1.37561 -3.3840675,3.663245 -3.3840675,6.257366 0,3.579499 2.5466559,6.583739 5.9817961,7.400015 1.4010743,2.095133 3.8308904,3.48236 6.5996334,3.48236 1.526543,0 2.950211,-0.426979 4.156365,-1.156252 0.872134,0.323128 1.818957,0.50331 2.808355,0.50331 4.342832,0 7.863394,-3.410544 7.863394,-7.617663 0,-1.549198 -0.485869,-2.987056 -1.305885,-4.189714 0.405663,-0.918821 0.631879,-1.930098 0.631879,-2.992653 0,-4.207119 -3.520561,-7.6176626 -7.863393,-7.6176626 -0.334534,0 -0.659382,0.028733 -0.982924,0.068015 C 19.04305,4.3818615 16.192315,2.3679584 12.854643,2.3679584 Z" id="path2832" inkscape:connector-curvature="0" />
    <path style="fill:black;fill-opacity:1;fill-rule:nonzero;stroke:none" d="m 15.377056,12.784402 -0.311472,0 0,0.311472 0,1.245888 0,0.311472 0.311472,0 0.06813,0 c -1.306735,0.534217 -2.248439,1.774975 -2.248439,3.270457 0,1.973818 1.608111,3.581929 3.581929,3.581929 1.973818,0 3.581929,-1.608111 3.581929,-3.581929 0,-1.495482 -0.941704,-2.73624 -2.248439,-3.270457 l 0.06814,0 0.311472,0 0,-0.311472 0,-1.245888 0,-0.311472 -0.311472,0 -2.803249,0 z" id="path3196" sodipodi:nodetypes="cccccccssscccccccc" inkscape:connector-curvature="0" />
    <circle style="fill:gray;fill-opacity:1;fill-rule:nonzero;stroke:none" id="path2394" cx="16.778681" cy="17.923691" r="3.2704568" />
    <rect style="fill:#909090;fill-opacity:1;fill-rule:nonzero;stroke:none" id="rect2398" width="1.5573604" height="0.62294418" x="16" y="14.341763" />
    <rect style="fill:#909090;fill-opacity:1;fill-rule:nonzero;stroke:none" id="rect2400" width="2.8032486" height="1.2458884" x="15.377056" y="13.095874" />
    <path style="fill:#606060;fill-opacity:1;fill-rule:nonzero;stroke:none" d="m 14.466118,15.611129 c -1.276534,1.276534 -1.276534,3.34859 0,4.625124 1.276534,1.276535 3.34859,1.276535 4.625124,0 -0.790235,0.790236 -2.467613,0.395559 -3.744148,-0.880976 -1.276534,-1.276534 -1.671212,-2.953913 -0.880976,-3.744148 z" id="path3179" inkscape:transform-center-y="1.5368963" inkscape:transform-center-x="1.5368965" inkscape:connector-curvature="0" />
    <path style="fill:#606060;fill-opacity:1;fill-rule:nonzero;stroke:none" d="m 16,14.341762 0,0.622944 0.622944,0 -0.311472,-0.622944 -0.311472,0 z" id="path3190" inkscape:connector-curvature="0" />
    <path inkscape:transform-center-y="-1.5368969" id="path3184" d="m 19.091242,20.236253 c 1.276535,-1.276534 1.276535,-3.34859 0,-4.625124 -1.276534,-1.276534 -3.34859,-1.276534 -4.625124,0 0.790235,-0.790236 2.467614,-0.395558 3.744148,0.880976 1.276534,1.276535 1.671212,2.953913 0.880976,3.744148 z" style="fill:#909090;fill-opacity:1;fill-rule:nonzero;stroke:none" inkscape:transform-center-x="-1.536897" inkscape:connector-curvature="0" />
    <path style="fill:#606060;fill-opacity:1;fill-rule:nonzero;stroke:none" d="m 15.377056,13.095874 0,1.245888 1.245888,0 L 16,13.095874 l -0.622944,0 z" id="path3186" inkscape:connector-curvature="0" />
    <rect style="fill:#606060;fill-opacity:1;fill-rule:nonzero;stroke:none" id="rect3192" width="2.0789974" height="0.31147209" x="16.101307" y="14.03029" />
    <path style="fill:silver;fill-opacity:1;fill-rule:nonzero;stroke:none" d="m 17.460025,15.36378 -0.321205,1.206954 c 0.498222,0.133498 0.859319,0.494595 0.992817,0.992817 l 1.206954,-0.321205 C 19.086428,16.301259 18.401112,15.615943 17.460025,15.36378 Z" id="path3231" inkscape:connector-curvature="0" />
    <path style="fill:yellow;fill-opacity:1;fill-rule:nonzero;stroke:none" d="M 29.636364,27.480498 18.634245,22.69712 11.909091,30.428593 12.231461,22.025952 1,20.662316 9.1818183,13.844134 3.7272729,4.2986795 13.272727,10.017497 18.727273,1.5714069 21.454546,11.116862 31,13.844134 20.884863,17.310321 29.636364,27.480498 Z" id="path3152" sodipodi:nodetypes="ccccccccccccc" inkscape:connector-curvature="0" />
    <path style="fill:white;fill-opacity:1;fill-rule:nonzero;stroke:none" d="m 24.274375,14.416968 -5.980919,1.936293 4.142169,5.237595 -5.737268,-2.577013 -2.537107,3.6775 -0.147739,-4.746945 -6.2878861,0.407925 5.1160611,-3.01598 -3.2773112,-5.224628 5.9657432,3.048089 1.980984,-4.8396437 0.550013,5.3502187 6.21326,0.746589 z" id="path3926" sodipodi:nodetypes="ccccccccccccc" inkscape:connector-curvature="0" />
    <path style="fill:silver;fill-opacity:0.50196078;fill-rule:nonzero;stroke:none" d="m 10.873338,8.0786482 c -3.6118675,0 -6.5437196,2.9318518 -6.5437196,6.5437198 0,3.611867 2.9318521,6.543719 6.5437196,6.543719 0.478735,0 0.939516,-0.05668 1.388997,-0.154333 -0.01404,0.17498 -0.03086,0.346137 -0.03086,0.524733 -1e-6,3.611867 2.931851,6.543719 6.543718,6.543719 3.611868,0 6.54372,-2.931852 6.54372,-6.543719 0,-0.162685 -0.01919,-0.318728 -0.03087,-0.478433 1.088768,-1.168086 1.759396,-2.737436 1.759396,-4.460224 0,-3.611867 -2.931852,-6.543719 -6.543719,-6.543719 -1.487638,0 -2.852111,0.506079 -3.950925,1.342697 C 15.428339,9.4180825 13.311917,8.0786482 10.873338,8.0786482 Z" id="path3615" inkscape:connector-curvature="0" />
    <circle style="fill:silver;fill-opacity:0.50196078;fill-rule:nonzero;stroke:none" id="path3878" cx="12.609686" cy="10.292624" r="4.2926173" />
    <path style="fill:silver;fill-opacity:0.50196078;fill-rule:nonzero;stroke:none" d="m 21.950586,7.4753094 c -2.464814,0 -4.46294,1.9981261 -4.46294,4.4629396 0,1.152209 0.445394,2.195106 1.162224,2.986915 -1.910646,0.139039 -3.48544,1.486554 -3.974805,3.277471 -0.511818,-0.204516 -1.065539,-0.313801 -1.650358,-0.313801 -0.52879,0 -1.028559,0.0985 -1.499268,0.267311 0.008,-0.08879 0.01162,-0.176443 0.01162,-0.267311 0,-1.643209 -1.332084,-2.975293 -2.9752929,-2.975293 -1.643209,0 -2.9752928,1.332084 -2.9752928,2.975293 0,1.643209 1.3320838,2.975293 2.9752928,2.975293 0.090868,0 0.1785189,-0.0036 0.2673112,-0.01162 -0.1688076,0.470709 -0.2673112,0.970478 -0.2673112,1.499268 0,2.464813 1.9981259,4.462939 4.4629389,4.462939 2.056632,0 3.783074,-1.396478 4.300228,-3.289093 0.511818,0.204516 1.065539,0.313801 1.650358,0.313801 2.464813,0 4.462939,-1.998126 4.462939,-4.46294 0,-1.152209 -0.445393,-2.195106 -1.162224,-2.986914 2.311388,-0.168203 4.137516,-2.097017 4.137516,-4.451317 0,-2.4648135 -1.998125,-4.4629396 -4.462939,-4.4629396 z" id="path3880" inkscape:connector-curvature="0" />
    <circle style="fill:white;fill-opacity:0.50196078;fill-rule:nonzero;stroke:none" id="path3967" cx="8.5246706" cy="15.276178" r="1.3875929" />
    <circle id="path3969" style="fill:white;fill-opacity:0.50196078;fill-rule:nonzero;stroke:none" cx="12.262335" cy="9.0467367" r="2.4917767" />
    <circle style="fill:white;fill-opacity:0.50196078;fill-rule:nonzero;stroke:none" id="path3971" cx="18.491777" cy="22.751509" r="3.7376649" />
    <circle style="fill:white;fill-opacity:0.50196078;fill-rule:nonzero;stroke:none" id="path3973" cx="22.229443" cy="10.292625" r="2.4917767" />
    <path sodipodi:type="star" style="fill:yellow;fill-opacity:1;fill-rule:nonzero;stroke:none" id="path4087" sodipodi:sides="5" sodipodi:cx="15.229487" sodipodi:cy="9.6202828" sodipodi:r1="0.74281212" sodipodi:r2="0.3714061" sodipodi:arg1="1.0891234" sodipodi:arg2="1.7174419" inkscape:flatsided="false" inkscape:rounded="0" inkscape:randomized="0.2" d="M 15.513496,10.353244 15.05827,9.8740936 14.836179,10.069137 14.723039,9.6664467 14.50698,9.3903854 l 0.417226,-0.046678 0.353197,-0.371202 0.150039,0.4853855 0.488687,-0.054481 -0.488666,0.4217275 z" transform="translate(1.0493402,1.5714069)" />
    <path sodipodi:type="star" style="fill:yellow;fill-opacity:1;fill-rule:nonzero;stroke:none" id="path4089" sodipodi:sides="5" sodipodi:cx="10.963734" sodipodi:cy="14.971183" sodipodi:r1="1.0600246" sodipodi:r2="0.53001231" sodipodi:arg1="0.60444792" sodipodi:arg2="1.2327664" inkscape:flatsided="false" inkscape:rounded="0" inkscape:randomized="0.2" d="m 11.674543,15.777423 -0.681486,-0.315954 -0.237698,0.40245 -0.141034,-0.362951 -0.6236698,-0.553931 0.6668268,-0.273259 -0.123808,-0.816203 0.478268,0.56129 0.91693,0.06757 -0.345432,0.619177 z" transform="translate(1.0493402,1.5714069)" />
    <path sodipodi:type="star" style="fill:yellow;fill-opacity:1;fill-rule:nonzero;stroke:none" id="path4091" sodipodi:sides="5" sodipodi:cx="20.50555" sodipodi:cy="20.396923" sodipodi:r1="1.2592107" sodipodi:r2="0.62960542" sodipodi:arg1="0.67124369" sodipodi:arg2="1.2995622" inkscape:flatsided="false" inkscape:rounded="0" inkscape:randomized="0.2" d="m 21.689723,21.051735 -0.854541,0.127893 -0.95605,0.597407 -0.114547,-1.023433 -0.540937,-0.258514 0.764658,-0.44034 0.288729,-1.019483 0.392133,0.883186 0.71505,-0.275876 -0.414453,0.740138 z" transform="translate(1.0493402,1.5714069)" />
    <path sodipodi:type="star" style="fill:yellow;fill-opacity:1;fill-rule:nonzero;stroke:none" id="path4093" sodipodi:sides="5" sodipodi:cx="25.295168" sodipodi:cy="15.345373" sodipodi:r1="0.89797509" sodipodi:r2="0.44898758" sodipodi:arg1="0.25698149" sodipodi:arg2="0.88530002" inkscape:flatsided="false" inkscape:rounded="0" inkscape:randomized="0.2" d="m 26.041424,15.579671 -0.289938,0.115462 -0.558805,0.531891 -0.288421,-0.653649 -0.51271,0.115373 0.370418,-0.622447 -0.123906,-0.40455 0.454788,0.211423 0.644638,-0.393897 0.118257,0.727308 z" transform="translate(1.0493402,1.5714069)" />
    <path sodipodi:type="star" style="fill:yellow;fill-opacity:1;fill-rule:nonzero;stroke:none" id="path4095" sodipodi:sides="5" sodipodi:cx="5.9496028" sodipodi:cy="21.706583" sodipodi:r1="0.77865168" sodipodi:r2="0.38932588" sodipodi:arg1="-0.27976625" sodipodi:arg2="0.34855228" inkscape:flatsided="false" inkscape:rounded="0" inkscape:randomized="0.2" d="m 6.7349828,21.372886 -0.2800808,0.356449 -0.0567,0.565454 -0.3745269,-0.234634 -0.5052127,0.228277 0.1810783,-0.437853 -0.4584949,-0.437394 0.385534,0.06054 0.4126353,-0.646392 0.1212511,0.481619 z" transform="translate(1.0493402,1.5714069)" />
    <path sodipodi:type="star" style="fill:gray;fill-opacity:0.50148369;fill-rule:nonzero;stroke:none" id="path6642" sodipodi:sides="5" sodipodi:cx="22.039725" sodipodi:cy="16.243426" sodipodi:r1="0.46819976" sodipodi:r2="0.37878152" sodipodi:arg1="0.60059252" sodipodi:arg2="1.2289111" inkscape:flatsided="true" inkscape:rounded="0" inkscape:randomized="0.2" d="m 22.51226,16.439237 -0.668959,0.183639 -0.238401,-0.290342 0.308638,-0.513376 0.414844,0.06782 z" transform="translate(1.0493402,1.5714069)" />
    <path transform="translate(-3.7756255,-3.0862463)" d="m 22.51226,16.439237 -0.668959,0.183639 -0.238401,-0.290342 0.308638,-0.513376 0.414844,0.06782 z" inkscape:randomized="0.2" inkscape:rounded="0" inkscape:flatsided="true" sodipodi:arg2="1.2289111" sodipodi:arg1="0.60059252" sodipodi:r2="0.37878152" sodipodi:r1="0.46819976" sodipodi:cy="16.243426" sodipodi:cx="22.039725" sodipodi:sides="5" id="path6644" style="fill:gray;fill-opacity:0.50148369;fill-rule:nonzero;stroke:none" sodipodi:type="star" />
    <path sodipodi:type="star" style="fill:gray;fill-opacity:0.50148369;fill-rule:nonzero;stroke:none" id="path6646" sodipodi:sides="5" sodipodi:cx="8.7186007" sodipodi:cy="15.944075" sodipodi:r1="0.64551281" sodipodi:r2="0.52223083" sodipodi:arg1="1.0626327" sodipodi:arg2="1.6909512" inkscape:flatsided="true" inkscape:rounded="0" inkscape:randomized="0.2" d="M 9.1461004,16.493579 8.1854343,16.456774 8.128115,15.563261 8.8856698,15.295647 9.3288995,15.769501 Z" transform="translate(1.0493402,1.5714069)" />
    <path sodipodi:type="star" style="fill:gray;fill-opacity:0.50148369;fill-rule:nonzero;stroke:none" id="path6648" sodipodi:sides="5" sodipodi:cx="8.5689249" sodipodi:cy="10.406079" sodipodi:r1="0.49892239" sodipodi:r2="0.4036367" sodipodi:arg1="0.37765016" sodipodi:arg2="1.0059687" inkscape:flatsided="true" inkscape:rounded="0" inkscape:randomized="0.2" d="M 9.1224803,10.505448 8.5362129,10.991625 8.0102238,10.446746 8.3006852,10.008761 8.8429103,9.9454623 Z" transform="translate(1.0493402,1.5714069)" />
    <path sodipodi:type="star" style="fill:gray;fill-opacity:0.50148369;fill-rule:nonzero;stroke:none" id="path6650" sodipodi:sides="5" sodipodi:cx="13.80757" sodipodi:cy="4.8680841" sodipodi:r1="0.2384912" sodipodi:r2="0.19294343" sodipodi:arg1="0.50540874" sodipodi:arg2="1.1337273" inkscape:flatsided="true" inkscape:rounded="0" inkscape:randomized="0.2" d="M 13.990017,5.0142415 13.723409,5.077385 13.545115,4.8898931 13.688299,4.6458495 13.993889,4.72715 Z" transform="translate(1.0493402,1.5714069)" />
    <path sodipodi:type="star" style="fill:gray;fill-opacity:0.50148369;fill-rule:nonzero;stroke:none" id="path6652" sodipodi:sides="5" sodipodi:cx="13.13403" sodipodi:cy="18.638235" sodipodi:r1="0.44491371" sodipodi:r2="0.35994273" sodipodi:arg1="0.94869721" sodipodi:arg2="1.5770157" inkscape:flatsided="true" inkscape:rounded="0" inkscape:randomized="0.2" d="m 13.335412,19.087328 -0.455868,-0.02127 -0.234412,-0.514812 0.568735,-0.392285 0.419363,0.33652 z" transform="translate(1.0493402,1.5714069)" />
    <path sodipodi:type="star" style="fill:gray;fill-opacity:0.50148369;fill-rule:nonzero;stroke:none" id="path6654" sodipodi:sides="5" sodipodi:cx="12.797259" sodipodi:cy="22.978825" sodipodi:r1="0.4760069" sodipodi:r2="0.38509766" sodipodi:arg1="0.93001348" sodipodi:arg2="1.558332" inkscape:flatsided="true" inkscape:rounded="0" inkscape:randomized="0.2" d="m 13.016086,23.393715 -0.517437,-0.07995 -0.220797,-0.538252 0.488479,-0.324592 0.38862,0.332586 z" transform="translate(1.0493402,1.5714069)" />
  </g>
</svg>
