<?xml version="1.0" encoding="UTF-8" standalone="no"?>
<!-- Created with Inkscape (http://www.inkscape.org/) -->

<svg xmlns:dc="http://purl.org/dc/elements/1.1/" xmlns:cc="http://creativecommons.org/ns#" xmlns:rdf="http://www.w3.org/1999/02/22-rdf-syntax-ns#" xmlns:svg="http://www.w3.org/2000/svg" xmlns="http://www.w3.org/2000/svg" xmlns:sodipodi="http://sodipodi.sourceforge.net/DTD/sodipodi-0.dtd" xmlns:inkscape="http://www.inkscape.org/namespaces/inkscape" width="32" height="32" id="svg4150" version="1.1" inkscape:version="0.91 r13725" viewBox="0 0 32 32" sodipodi:docname="symbol-dynamite-fused-00.svg">
  <defs id="defs4152" />
  <sodipodi:namedview id="base" pagecolor="#ffffff" bordercolor="#666666" borderopacity="1.0" inkscape:pageopacity="0.0" inkscape:pageshadow="2" inkscape:zoom="22.125" inkscape:cx="16" inkscape:cy="16" inkscape:current-layer="layer1" showgrid="true" inkscape:grid-bbox="true" inkscape:document-units="px" objecttolerance="10000" inkscape:snap-perpendicular="true" guidetolerance="10000" inkscape:window-width="1600" inkscape:window-height="878" inkscape:window-x="0" inkscape:window-y="0" inkscape:window-maximized="1" showguides="true" inkscape:guide-bbox="true">
    <inkscape:grid type="xygrid" id="grid4698" empspacing="4" />
    <sodipodi:guide position="16,32" orientation="1,0" id="guide4769" />
    <sodipodi:guide position="-4,16" orientation="0,1" id="guide4771" />
    <sodipodi:guide position="16,16" orientation="-0.70710678,0.70710678" id="guide4773" />
    <sodipodi:guide position="16,16" orientation="0.70710678,0.70710678" id="guide4775" />
  </sodipodi:namedview>
  <metadata id="metadata4155">
    <rdf:RDF>
      <cc:Work rdf:about="">
        <dc:format>image/svg+xml</dc:format>
        <dc:type rdf:resource="http://purl.org/dc/dcmitype/StillImage" />
        <dc:title></dc:title>
      </cc:Work>
    </rdf:RDF>
  </metadata>
  <g id="layer1" inkscape:label="Layer 1" inkscape:groupmode="layer">
    <g transform="translate(-33,3)" id="g16694">
      <path inkscape:connector-curvature="0" id="path4225" d="m 36.505553,13.531214 c 0.0225,-0.814295 0.121004,-1.687698 0.53125,-2.375 0.691062,-1.157766 1.961339,-2.55985 3.15625,-3.6875 0.01085,-0.01024 0.02041,-0.02106 0.03125,-0.03125 0.806474,-0.845821 2.46875,-3.3125 2.46875,-3.3125 a 0.50005,0.50005 0 1 1 0.8125,0.5625 c 0,0 -1.598958,2.445026 -2.59375,3.46875 a 0.50005,0.50005 0 0 1 0,0.03125 c -1.157719,1.089032 -2.433986,2.499378 -3.03125,3.5 -0.237055,0.397147 -0.354725,1.141212 -0.375,1.875 -0.02027,0.733788 0.0434,1.45414 0.09375,1.78125 0.09229,0.599509 0.521603,1.451056 0.8125,1.6875 0.399889,0.325035 0.752983,0.46875 1.6875,0.46875 a 0.50005,0.50005 0 1 1 0,1 c -1.069659,0 -1.765694,-0.243049 -2.3125,-0.6875 -0.6558,-0.533042 -1.057125,-1.465575 -1.1875,-2.3125 -0.06098,-0.396108 -0.11625,-1.154455 -0.09375,-1.96875 z" style="color:black;font-style:normal;font-variant:normal;font-weight:normal;font-stretch:normal;font-size:medium;line-height:normal;font-family:'Bitstream Vera Sans';-inkscape-font-specification:'Bitstream Vera Sans';text-indent:0;text-align:start;text-decoration:none;text-decoration-line:none;letter-spacing:normal;word-spacing:normal;text-transform:none;direction:ltr;block-progression:tb;writing-mode:lr-tb;text-anchor:start;display:inline;overflow:visible;visibility:visible;fill:#e00000;fill-opacity:1;stroke:black;stroke-width:2;stroke-linejoin:round;stroke-miterlimit:4;stroke-dasharray:none;stroke-opacity:1;marker:none;enable-background:accumulate" />
      <path inkscape:connector-curvature="0" id="ellipse5400" d="m 40,12 a 2,6 0 0 0 -2,6 2,6 0 0 0 2,6 l 20,0 a 2,6 0 0 0 2,-6 2,6 0 0 0 -2,-6 l -20,0 z" style="opacity:1;fill:#d07070;fill-opacity:1;fill-rule:nonzero;stroke:black;stroke-width:2;stroke-linecap:butt;stroke-linejoin:miter;stroke-miterlimit:4;stroke-dasharray:none;stroke-dashoffset:0;stroke-opacity:1" />
      <ellipse ry="6" rx="2" cy="17.999998" cx="40" id="path4715" style="opacity:1;fill:#d07070;fill-opacity:1;fill-rule:nonzero;stroke:none;stroke-width:2;stroke-linecap:butt;stroke-linejoin:miter;stroke-miterlimit:4;stroke-dasharray:none;stroke-dashoffset:0;stroke-opacity:1" />
      <path inkscape:connector-curvature="0" id="ellipse4717" d="m 40,12 a 2,6 0 0 1 2,6 2,6 0 0 1 -2,6 l 20.000001,0 a 2,6 0 0 0 2,-6 2,6 0 0 0 -2,-6 L 40,12 Z" style="opacity:1;fill:#c04040;fill-opacity:1;fill-rule:nonzero;stroke:none;stroke-width:2;stroke-linecap:butt;stroke-linejoin:miter;stroke-miterlimit:4;stroke-dasharray:none;stroke-dashoffset:0;stroke-opacity:1" />
      <ellipse style="opacity:1;fill:maroon;fill-opacity:1;fill-rule:nonzero;stroke:none;stroke-width:2;stroke-linecap:butt;stroke-linejoin:miter;stroke-miterlimit:4;stroke-dasharray:none;stroke-dashoffset:0;stroke-opacity:1" id="ellipse4726" cx="40" cy="17.999998" rx="0.33438107" ry="1.0031432" />
      <path inkscape:connector-curvature="0" style="fill:none;stroke:#e00000;stroke-width:1;stroke-linecap:round;stroke-linejoin:round;stroke-miterlimit:4;stroke-dasharray:none;stroke-dashoffset:0;stroke-opacity:1" d="m 40.099303,18.006657 c -1.002088,0 -1.526652,-0.203136 -2,-0.587879 -0.473348,-0.384743 -0.888669,-1.276783 -1,-2 -0.111332,-0.723218 -0.293765,-2.915551 0.353535,-4 0.6473,-1.084449 1.920476,-2.495779 3.101502,-3.606735 0.895679,-0.921729 2.544963,-3.405829 2.544963,-3.405829" id="path4121" />
      <path inkscape:connector-curvature="0" id="path5405" d="M 41.730469,21 A 2,6 0 0 1 40,24 l 20,0 a 2,6 0 0 0 1.730469,-3 l -20,0 z" style="opacity:1;fill:#8a2e2e;fill-opacity:1;fill-rule:nonzero;stroke:none;stroke-width:2;stroke-linecap:butt;stroke-linejoin:miter;stroke-miterlimit:4;stroke-dasharray:none;stroke-dashoffset:0;stroke-opacity:1" />
      <path inkscape:connector-curvature="0" id="rect5411" d="m 40,12 a 2,6 0 0 1 1.488281,2 l 20,0 A 2,6 0 0 0 60,12 l -20,0 z" style="opacity:1;fill:#da8e8e;fill-opacity:1;fill-rule:nonzero;stroke:none;stroke-width:2;stroke-linecap:butt;stroke-linejoin:miter;stroke-miterlimit:4;stroke-dasharray:none;stroke-dashoffset:0;stroke-opacity:1" />
      <path inkscape:connector-curvature="0" id="path5416" d="m 41.099609,13 a 2,6 0 0 1 0.388672,1 l 20,0 a 2,6 0 0 0 -0.390625,-1 l -19.998047,0 z" style="opacity:1;fill:#d07070;fill-opacity:1;fill-rule:nonzero;stroke:none;stroke-width:2;stroke-linecap:butt;stroke-linejoin:miter;stroke-miterlimit:4;stroke-dasharray:none;stroke-dashoffset:0;stroke-opacity:1" />
      <path inkscape:connector-curvature="0" id="rect5425" d="m 40.021484,17 a 0.33438107,1.0031432 0 0 1 0.3125,1 0.33438107,1.0031432 0 0 1 -0.310546,1 L 41,19 l 0,-2 -0.978516,0 z" style="opacity:1;fill:#d07070;fill-opacity:1;fill-rule:nonzero;stroke:none;stroke-width:2;stroke-linecap:butt;stroke-linejoin:miter;stroke-miterlimit:4;stroke-dasharray:none;stroke-dashoffset:0;stroke-opacity:1" />
      <path inkscape:connector-curvature="0" id="path5433" d="M 41.099609,23 A 2,6 0 0 1 40,24 l 20,0 a 2,6 0 0 0 1.101562,-1 l -20.001953,0 z" style="opacity:1;fill:#602020;fill-opacity:1;fill-rule:nonzero;stroke:none;stroke-width:2;stroke-linecap:butt;stroke-linejoin:miter;stroke-miterlimit:4;stroke-dasharray:none;stroke-dashoffset:0;stroke-opacity:1" />
      <path inkscape:connector-curvature="0" style="fill:yellow;fill-opacity:1;fill-rule:nonzero;stroke:black;stroke-width:2;stroke-miterlimit:4;stroke-dasharray:none;stroke-opacity:1" d="m 38.099303,5.406214 3,-2 0,-1.754415 2,1.754415 2,-1 -1,3 0,3 -2,-2 -4,-1 z" id="path4098" />
      <path inkscape:connector-curvature="0" id="path4094" d="m 38.099303,5.406214 3,-2 0,-2 2,2 2,-1 -1,3 0,3 -2,-2 -4,-1 z" style="fill:yellow;fill-opacity:1;fill-rule:nonzero;stroke:none" />
    </g>
  </g>
</svg>
