<?xml version="1.0" encoding="UTF-8" standalone="no"?>
<!-- Created with Inkscape (http://www.inkscape.org/) -->

<svg xmlns:dc="http://purl.org/dc/elements/1.1/" xmlns:cc="http://creativecommons.org/ns#" xmlns:rdf="http://www.w3.org/1999/02/22-rdf-syntax-ns#" xmlns:svg="http://www.w3.org/2000/svg" xmlns="http://www.w3.org/2000/svg" xmlns:sodipodi="http://sodipodi.sourceforge.net/DTD/sodipodi-0.dtd" xmlns:inkscape="http://www.inkscape.org/namespaces/inkscape" width="32" height="32" id="svg4150" version="1.1" inkscape:version="0.91 r13725" viewBox="0 0 32 32" sodipodi:docname="symbol-castle-00.svg">
  <defs id="defs4152" />
  <sodipodi:namedview id="base" pagecolor="#ffffff" bordercolor="#666666" borderopacity="1.0" inkscape:pageopacity="0.0" inkscape:pageshadow="2" inkscape:zoom="22.125" inkscape:cx="16" inkscape:cy="16" inkscape:current-layer="layer1" showgrid="true" inkscape:grid-bbox="true" inkscape:document-units="px" objecttolerance="10000" inkscape:snap-perpendicular="true" guidetolerance="10000" inkscape:window-width="1600" inkscape:window-height="878" inkscape:window-x="0" inkscape:window-y="0" inkscape:window-maximized="1" showguides="true" inkscape:guide-bbox="true" inkscape:snap-path-clip="true" inkscape:snap-path-mask="true" inkscape:snap-tangential="true">
    <inkscape:grid type="xygrid" id="grid4698" empspacing="4" />
    <sodipodi:guide position="16,32" orientation="1,0" id="guide4769" />
    <sodipodi:guide position="-4,16" orientation="0,1" id="guide4771" />
    <sodipodi:guide position="16,16" orientation="-0.70710678,0.70710678" id="guide4773" />
    <sodipodi:guide position="16,16" orientation="0.70710678,0.70710678" id="guide4775" />
  </sodipodi:namedview>
  <metadata id="metadata4155">
    <rdf:RDF>
      <cc:Work rdf:about="">
        <dc:format>image/svg+xml</dc:format>
        <dc:type rdf:resource="http://purl.org/dc/dcmitype/StillImage" />
        <dc:title></dc:title>
      </cc:Work>
    </rdf:RDF>
  </metadata>
  <g id="layer1" inkscape:label="Layer 1" inkscape:groupmode="layer">
    <g id="g5367">
      <path sodipodi:nodetypes="ssccsssccccsssccsssccsssssccsss" style="fill:none;fill-opacity:1;fill-rule:nonzero;stroke:black;stroke-width:1.99999988;stroke-miterlimit:4;stroke-dasharray:none" d="m 14.064531,1.000026 c -0.804193,0 -1.451612,0.6490369 -1.451612,1.4516117 l 0,1.9354821 -4.3548353,0 0,-1.9203612 c 0,-0.8025748 -0.6474189,-1.4516116 -1.4516117,-1.4516116 l -4.3548349,0 c -0.8041928,0 -1.45641827,0.6490512 -1.4516116,1.4516116 l 0.015121,4.2147147 c 0.00388,0.6483381 0.3937361,1.1900124 0.9677411,1.3760069 L 1.9677666,23.167346 C 1.6734179,23.43212 1.483896,23.8125 1.483896,24.240934 l 0,5.307454 C 1.483896,30.350963 2.1313149,31 2.9355077,31 l 6.2903171,0 17.4193402,0 2.419353,0 c 0.804192,0 1.451611,-0.649037 1.451611,-1.451612 l 0,-5.307454 c 0,-0.428434 -0.189522,-0.808814 -0.48387,-1.073588 l 0,-15.0604713 C 30.595817,7.9081336 31,7.378141 31,6.7459887 L 31,2.5121215 C 31,1.7095467 30.352581,1.0605099 29.548388,1.0605099 l -4.354835,0 c -0.804192,0 -1.451611,0.6490368 -1.451611,1.4516116 l 0,1.9354822 -3.870965,0 0,-1.995966 c 0,-0.8025748 -0.647419,-1.4516117 -1.451611,-1.4516117 z" id="path5284" inkscape:connector-curvature="0" />
      <g transform="matrix(0.484375,0,0,0.484375,12.125,10.1875)" id="g3400" style="display:inline">
        <path id="path3821" d="M 16,1 C 11.584,1 8,4.584 8,9 L 8,10 7,4 C 7,2.344 5.656,1 4,1 2.344,1 1,2.344 1,4 l 0,20 9.75,5.0625 C 12.153893,30.280539 13.996861,31 16,31 c 2.003139,0 3.846107,-0.719461 5.25,-1.9375 L 31,24 31,4 C 31,2.344 29.656,1 28,1 26.344,1 25,2.344 25,4 l -1,6 0,-1 C 24,4.584 20.416,1 16,1 Z" style="display:inline;fill:white;fill-opacity:1;fill-rule:nonzero;stroke:black;stroke-width:4.12903214;stroke-linecap:round;stroke-linejoin:miter;stroke-miterlimit:4;stroke-dasharray:none;stroke-dashoffset:0;stroke-opacity:1" sodipodi:nodetypes="ccccscccscccscccc" inkscape:connector-curvature="0" />
        <path style="display:inline;fill:white;fill-opacity:1;fill-rule:nonzero;stroke:none" d="M 16,1 C 11.584,1 8,4.584 8,9 L 7,9 7,4 C 7,2.344 5.656,1 4,1 2.344,1 1,2.344 1,4 l 0,20 9.75,5.0625 C 12.153893,30.280539 13.996861,31 16,31 c 2.003139,0 3.846107,-0.719461 5.25,-1.9375 L 31,24 31,4 C 31,2.344 29.656,1 28,1 26.344,1 25,2.344 25,4 l 0,5 -1,0 C 24,4.584 20.416,1 16,1 Z" id="path3802" sodipodi:nodetypes="ccccscccscccscccc" inkscape:connector-curvature="0" />
        <ellipse ry="2.5" rx="1.5" cy="8.5" cx="11.5" style="display:inline;fill:black;fill-opacity:0.99356911;fill-rule:nonzero;stroke:none" id="path3768" transform="translate(2,0)" />
        <ellipse ry="2.5" rx="1.5" cy="8.5" cx="16.5" style="display:inline;fill:black;fill-opacity:0.99356911;fill-rule:nonzero;stroke:none" id="path3770" transform="translate(2,0)" />
        <path style="fill:silver;fill-opacity:1;fill-rule:nonzero;stroke:none" d="M 7,4 C 7,5.656 5.656,7 4,7 L 4,8 C 6.2079999,8 7.9999998,6.208 8,4 L 7,4 Z" id="path3806" inkscape:connector-curvature="0" />
        <path id="path3809" d="m 25,4 c 0,1.656 1.344,3 3,3 l 0,1 C 25.792,8 24,6.208 24,4 l 1,0 z" style="fill:silver;fill-opacity:1;fill-rule:nonzero;stroke:none" inkscape:connector-curvature="0" />
        <rect style="fill:silver;fill-opacity:1;fill-rule:nonzero;stroke:none" id="rect6061" width="1" height="8" x="26" y="17" />
        <rect y="17" x="5" height="8" width="1" id="rect6063" style="fill:silver;fill-opacity:1;fill-rule:nonzero;stroke:none" />
        <rect y="20" x="22" height="7" width="1" id="rect10110" style="fill:silver;fill-opacity:1;fill-rule:nonzero;stroke:none" />
        <rect style="fill:silver;fill-opacity:1;fill-rule:nonzero;stroke:none" id="rect10112" width="1" height="7" x="9" y="20" />
      </g>
      <path inkscape:connector-curvature="0" id="path8416" d="m 14.0625,0.984375 c -0.805031,0 -1.453125,0.6497135 -1.453125,1.453125 l 0,1.9375 -4.359375,0 0,-1.9223633 C 8.25,1.6492252 7.6019062,0.99951172 6.796875,0.99951172 l -4.359375,0 c -0.8050312,0 -1.45793669,0.64972788 -1.453125,1.45312498 l 0.0151367,3.3603516 c 0.003885,0.649014 0.39414658,1.191253 0.96874998,1.3774414 L 1.953125,23.174805 C 1.6584695,23.439855 1.46875,23.820632 1.46875,24.249512 l 0,5.312988 c 0,0.803411 0.6480938,1.453125 1.453125,1.453125 l 6.296875,0 17.4375,0 2.421875,0 c 0.805031,0 1.453125,-0.649714 1.453125,-1.453125 l 0,-5.312988 c 0,-0.42888 -0.18972,-0.809657 -0.484375,-1.074707 l 0,-15.0761722 c 0.564146,-0.1989483 0.96875,-0.7294934 0.96875,-1.3623047 l 0,-4.2382812 c 0,-0.8034115 -0.648094,-1.453125 -1.453125,-1.453125 l -4.359375,0 c -0.805031,0 -1.453125,0.6497135 -1.453125,1.453125 l 0,1.9375 -3.875,0 0,-1.9980469 c 0,-0.8034115 -0.648094,-1.453125 -1.453125,-1.453125 l -4.359375,0 z m 9.203125,8.71875 c 2.401878,0 4.359375,1.957497 4.359375,4.359375 l 0,3.875 0,0.484375 -0.484375,0 -7.75,0 -0.484375,0 0,-0.484375 0,-3.875 c 0,-2.401878 1.957497,-4.359375 4.359375,-4.359375 z" style="fill:silver;fill-opacity:1;fill-rule:nonzero;stroke:none" />
      <path inkscape:connector-curvature="0" id="path23754" d="m 23.265625,9.703125 c -2.401878,0 -4.359375,1.957497 -4.359375,4.359375 l 0,3.875 0,0.484375 0.484375,0 7.75,0 0.484375,0 0,-0.484375 0,-3.875 c 0,-2.401878 -1.957497,-4.359375 -4.359375,-4.359375 z m 0,0.96875 c 1.878325,0 3.390625,1.5123 3.390625,3.390625 l 0,3.390625 -6.78125,0 0,-3.390625 c 0,-1.878325 1.5123,-3.390625 3.390625,-3.390625 z" style="color:black;font-style:normal;font-variant:normal;font-weight:normal;font-stretch:normal;font-size:medium;line-height:normal;font-family:Sans;-inkscape-font-specification:Sans;text-indent:0;text-align:start;text-decoration:none;text-decoration-line:none;letter-spacing:normal;word-spacing:normal;text-transform:none;direction:ltr;block-progression:tb;writing-mode:lr-tb;baseline-shift:baseline;text-anchor:start;display:inline;overflow:visible;visibility:visible;fill:#e6e6e6;fill-opacity:1;stroke:none;stroke-width:2;marker:none;enable-background:accumulate" />
      <rect y="7.7656331" x="1.953125" height="0.96874171" width="28.365969" id="rect8827" style="fill:black;fill-opacity:0.25098039;fill-rule:nonzero;stroke:none" />
      <rect ry="3" rx="3" y="0.984375" x="0.984375" height="4.359375" width="7.265625" id="rect5105" style="fill:#a0a0a0;fill-opacity:1;fill-rule:nonzero;stroke:none" />
      <path id="rect5111" d="m 14.0625,0.984375 c -0.805031,0 -1.453125,0.6497135 -1.453125,1.453125 l 0,1.9980469 -2.300781,0 C 10.525459,4.9644247 11.03182,5.34375 11.640625,5.34375 l 4.359375,0 c 0.805031,0 1.453125,-0.6480938 1.453125,-1.453125 l 0,-1.453125 C 17.453125,1.6324688 16.805031,0.984375 16,0.984375 l -1.9375,0 z" style="fill:#a0a0a0;fill-opacity:1;fill-rule:nonzero;stroke:none" inkscape:connector-curvature="0" />
      <path sodipodi:nodetypes="sssssssss" inkscape:connector-curvature="0" id="rect5121" d="m 25.203125,4.8779474 4.359375,0 c 0.805031,0 1.453125,0.6480937 1.453125,1.453125 l 0,0.4658026 C 31.015625,7.6019062 30.367531,8.25 29.5625,8.25 l -4.359375,0 C 24.398094,8.25 23.75,7.6019062 23.75,6.796875 l 0,-0.4658026 c 0,-0.8050313 0.648094,-1.453125 1.453125,-1.453125 z" style="fill:#dedede;fill-opacity:1;fill-rule:nonzero;stroke:none" />
      <path id="rect5123" d="m 1.953125,14.0625 0,4.359375 0.484375,0 c 0.8050313,0 1.453125,-0.648094 1.453125,-1.453125 l 0,-1.453125 C 3.890625,14.710594 3.2425313,14.0625 2.4375,14.0625 l -0.484375,0 z" style="fill:#a0a0a0;fill-opacity:1;fill-rule:nonzero;stroke:none" inkscape:connector-curvature="0" />
      <path id="rect5125" d="M 18.90625,1.0751953 C 18.344627,1.2758885 17.9375,1.805215 17.9375,2.4375 l 0,0.484375 c 0,0.8050313 0.648094,1.453125 1.453125,1.453125 l 0.484375,0 0,-1.9375 c 0,-0.6310128 -0.407127,-1.1620153 -0.96875,-1.3623047 z m 5.630859,0.1362305 C 24.073027,1.4530305 23.75,1.9375588 23.75,2.4980469 l 0,1.8769531 c 0.805031,0 1.453125,-0.6480937 1.453125,-1.453125 l 0,-0.484375 c 0,-0.5151174 -0.263985,-0.9681456 -0.666016,-1.2260742 z" style="fill:#dedede;fill-opacity:1;fill-rule:nonzero;stroke:none" inkscape:connector-curvature="0" />
      <path id="rect5133" d="M 26.762207,1.0449219 C 26.146311,1.2135785 25.6875,1.7666406 25.6875,2.4375 l 0,0.484375 c 0,0.8050313 0.648094,1.453125 1.453125,1.453125 l 3.875,0 0,-1.8769531 c 0,-0.8034116 -0.648094,-1.453125 -1.453125,-1.453125 l -2.800293,0 z" style="fill:#a0a0a0;fill-opacity:1;fill-rule:nonzero;stroke:none" inkscape:connector-curvature="0" />
      <path id="rect5138" d="m 1.953125,18.664062 0,4.359375 0.96875,0 c 0.8050313,0 1.453125,-0.648093 1.453125,-1.453125 l 0,-1.453125 c 0,-0.805031 -0.6480937,-1.453125 -1.453125,-1.453125 l -0.96875,0 z" style="fill:#dedede;fill-opacity:1;fill-rule:nonzero;stroke:none" inkscape:connector-curvature="0" />
      <path id="rect5140" d="m 1.5595703,23.75 c -0.056897,0.153349 -0.09082,0.325345 -0.09082,0.499512 l 0,5.312988 c 0,0.652772 0.4370555,1.194374 1.0292969,1.377441 0.5922414,-0.183436 1.0292969,-0.723353 1.0292969,-1.377441 l 0,-4.359375 C 3.5273438,24.398094 2.87925,23.75 2.0742188,23.75 l -0.5146485,0 z" style="fill:gray;fill-opacity:1;fill-rule:nonzero;stroke:none" inkscape:connector-curvature="0" />
      <rect ry="3" rx="3" y="26.65625" x="23.273565" height="4.359375" width="7.265625" id="rect5148" style="fill:gray;fill-opacity:1;fill-rule:nonzero;stroke:none" />
      <path id="rect5150" d="m 29.5625,9.21875 c -0.805031,0 -1.453125,0.6480938 -1.453125,1.453125 l 0,1.453125 c 0,0.805031 0.648094,1.453125 1.453125,1.453125 l 0.484375,0 0,-4.359375 -0.484375,0 z" style="fill:gray;fill-opacity:1;fill-rule:nonzero;stroke:none" inkscape:connector-curvature="0" />
      <path id="rect5155" d="m 29.078125,15.03125 c -0.805031,0 -1.453125,0.648094 -1.453125,1.453125 l 0,0.484375 c 0,0.805031 0.648094,1.453125 1.453125,1.453125 l 0.96875,0 0,-3.390625 -0.96875,0 z" style="fill:#a0a0a0;fill-opacity:1;fill-rule:nonzero;stroke:none" inkscape:connector-curvature="0" />
      <path id="rect5157" d="m 28.185059,18.90625 c -0.805032,0 -1.453125,0.648094 -1.453125,1.453125 l 0,0.484375 c 0,0.805031 0.648093,1.453125 1.453125,1.453125 l 1.861816,0 0,-3.390625 -1.861816,0 z" style="fill:#dedede;fill-opacity:1;fill-rule:nonzero;stroke:none" inkscape:connector-curvature="0" />
      <rect style="fill:#a0a0a0;fill-opacity:1;fill-rule:nonzero;stroke:none" id="rect5165" width="7.265625" height="3.390625" x="8.25" y="9.7110653" rx="3" ry="3" />
      <path id="rect5167" d="m 30.177429,23.318604 c -0.629988,0.159293 -1.099304,0.719851 -1.099304,1.400146 l 0,0.484375 c 0,0.805031 0.648094,1.453125 1.453125,1.453125 l 0,-2.40863 c 0,-0.358776 -0.137922,-0.677803 -0.353821,-0.929016 z" style="fill:#a0a0a0;fill-opacity:1;fill-rule:nonzero;stroke:none" inkscape:connector-curvature="0" />
      <path id="rect5116" d="m 1.953125,9.703125 0,3.390625 2.421875,0 c 0.8050312,0 1.453125,-0.648094 1.453125,-1.453125 l 0,-0.484375 c 0,-0.805031 -0.6480937,-1.453125 -1.453125,-1.453125 l -2.421875,0 z" style="fill:#dedede;fill-opacity:1;fill-rule:nonzero;stroke:none" inkscape:connector-curvature="0" />
      <path id="rect8751" d="M 1.46875,1.3599548 C 1.1732308,1.6255833 0.984375,2.0070345 0.984375,2.4375 l 0,1.453125 c 0,0.8050312 0.6480938,1.453125 1.453125,1.453125 l 4.359375,0 c 0.3879272,0 0.7370463,-0.1532057 0.9971315,-0.399231 l -0.9536133,0 -3.8750001,0 c -0.8050313,0 -1.3281814,-0.6578487 -1.453125,-1.453125 L 1.46875,2.4375 l 0,-1.0775452 z" style="fill:black;fill-opacity:0.25098039;fill-rule:nonzero;stroke:none" inkscape:connector-curvature="0" />
      <path id="path8758" d="m 10.277374,4.3806763 c 0.200923,0.5611994 0.73125,0.9630737 1.363251,0.9630737 l 4.359375,0 c 0.387938,0 0.737039,-0.1532058 0.997131,-0.399231 l -0.953613,0 -3.875,0 c -0.46572,0 -0.833425,-0.2242884 -1.087952,-0.5638427 l -0.803192,0 z" style="fill:black;fill-opacity:0.25098039;fill-rule:nonzero;stroke:none" inkscape:connector-curvature="0" />
      <path sodipodi:nodetypes="cssssccsccc" id="path8760" d="M 24.234389,5.2111335 C 23.938861,5.4767618 23.75,5.8582129 23.75,6.2886784 l 0,0.484375 c 0,0.8050313 0.648113,1.453125 1.453167,1.453125 l 4.359501,0 c 0.387938,0 0.737067,-0.1532058 0.99716,-0.399231 l -0.953641,0 -3.875112,0 c -0.805054,0 -1.328219,-0.6578486 -1.453167,-1.453125 l -0.04352,-0.085144 z" style="fill:black;fill-opacity:0.25098039;fill-rule:nonzero;stroke:none" inkscape:connector-curvature="0" />
      <path id="path8762" d="m 23.750014,27.03183 c -0.295528,0.265628 -0.484389,0.647079 -0.484389,1.077545 l 0,1.453125 c 0,0.805031 0.648113,1.453125 1.453167,1.453125 l 4.359501,0 c 0.387938,0 0.737067,-0.153206 0.99716,-0.399231 l -0.953641,0 -3.875112,0 c -0.805054,0 -1.328219,-0.657849 -1.453167,-1.453125 l -0.04352,-1.053894 0,-1.077545 z" style="fill:black;fill-opacity:0.25098039;fill-rule:nonzero;stroke:none" inkscape:connector-curvature="0" />
      <path id="path8764" d="M 8.734375,10.086273 C 8.4388559,10.351902 8.25,10.733353 8.25,11.163818 l 0,0.476807 c 0,0.805031 0.6480705,1.453125 1.453125,1.453125 l 4.359375,0 c 0.387938,0 0.737039,-0.153206 0.997131,-0.399231 l -0.953613,0 -3.875,0 c -0.8050543,0 -1.3281774,-0.657849 -1.4531248,-1.453125 L 8.734375,10.1875 l 0,-0.101227 z" style="fill:black;fill-opacity:0.25098039;fill-rule:nonzero;stroke:none" inkscape:connector-curvature="0" />
      <path id="path8769" d="M 18.421875 1.3808594 C 18.36776 1.4298778 18.313781 1.4786249 18.267578 1.5351562 C 18.232527 1.577952 18.201962 1.6233117 18.171875 1.6699219 C 18.120387 1.7502682 18.075864 1.8355422 18.041016 1.9257812 C 18.025844 1.9646095 18.011808 2.0045111 18 2.0449219 C 17.965502 2.1654138 17.940914 2.2901714 17.939453 2.421875 C 17.939393 2.4273038 17.9375 2.4320557 17.9375 2.4375 C 17.937486 2.4401566 17.9375 2.4426521 17.9375 2.4453125 L 17.9375 2.921875 C 17.9375 3.7269063 18.585594 4.375 19.390625 4.375 L 19.875 4.375 L 19.875 3.9726562 C 19.095349 3.9487271 18.587459 3.303865 18.464844 2.5234375 L 18.421875 1.46875 L 18.421875 1.3808594 z M 23.75 3.9765625 L 23.75 4.375 C 23.847241 4.375 23.941407 4.3657029 24.033203 4.3476562 C 24.036489 4.3470014 24.039691 4.3463803 24.042969 4.3457031 C 24.130979 4.3277848 24.215518 4.3005416 24.296875 4.2675781 C 24.369342 4.2378406 24.437867 4.2006972 24.503906 4.1601562 C 24.51453 4.1536991 24.526668 4.1492981 24.537109 4.1425781 C 24.53831 4.1417979 24.539817 4.1414086 24.541016 4.140625 C 24.61503 4.0922335 24.68406 4.0370887 24.748047 3.9765625 L 23.792969 3.9765625 L 23.75 3.9765625 z " style="fill:black;fill-opacity:0.25098039;fill-rule:nonzero;stroke:none" />
      <path id="path8771" d="M 26.171875,1.3675232 C 25.876356,1.6331515 25.6875,2.0146028 25.6875,2.4450684 l 0,0.4768066 c 0,0.8050313 0.64807,1.453125 1.453125,1.453125 l 3.875,0 0,-0.399231 -3.347107,0 c -0.805054,0 -1.328177,-0.6578486 -1.453125,-1.453125 l -0.04352,-1.053894 0,-0.1012268 z" style="fill:black;fill-opacity:0.25098039;fill-rule:nonzero;stroke:none" inkscape:connector-curvature="0" />
      <path id="path8775" d="m 1.953125,12.694519 0,0.399231 2.421875,0 c 0.3879384,0 0.7370385,-0.153206 0.9971315,-0.399231 l -0.9536134,0 -2.4653931,0 z" style="fill:black;fill-opacity:0.25098039;fill-rule:nonzero;stroke:none" inkscape:connector-curvature="0" />
      <path id="path8777" d="M 28.109375,15.414398 C 27.813856,15.680027 27.625,16.061478 27.625,16.491943 l 0,0.476807 c 0,0.805031 0.64807,1.453125 1.453125,1.453125 l 0.96875,0 0,-0.399231 -0.440857,0 c -0.805054,0 -1.328177,-0.657849 -1.453125,-1.453125 l -0.04352,-1.053894 0,-0.101227 z" style="fill:black;fill-opacity:0.25098039;fill-rule:nonzero;stroke:none" inkscape:connector-curvature="0" />
      <path id="path8779" d="m 27.140625,19.289398 c -0.295519,0.265629 -0.484375,0.64708 -0.484375,1.077545 l 0,0.476807 c 0,0.805031 0.64807,1.453125 1.453125,1.453125 l 1.9375,0 0,-0.399231 -1.409607,0 c -0.805054,0 -1.328177,-0.657849 -1.453125,-1.453125 l -0.04352,-1.053894 0,-0.101227 z" style="fill:black;fill-opacity:0.25098039;fill-rule:nonzero;stroke:none" inkscape:connector-curvature="0" />
      <path id="path8781" d="m 29.5625,23.648773 c -0.295519,0.265629 -0.484375,0.64708 -0.484375,1.077545 l 0,0.476807 c 0,0.805031 0.64807,1.453125 1.453125,1.453125 l 0,-0.508026 c -0.503874,-0.217216 -0.830275,-0.739941 -0.925232,-1.34433 L 29.5625,23.75 l 0,-0.101227 z" style="fill:black;fill-opacity:0.25098039;fill-rule:nonzero;stroke:none" inkscape:connector-curvature="0" />
      <path id="path8783" d="m 1.953125,18.022644 0,0.399231 0.484375,0 c 0.3879385,0 0.7370387,-0.153206 0.9971314,-0.399231 l -0.9536133,0 -0.5278931,0 z" style="fill:black;fill-opacity:0.25098039;fill-rule:nonzero;stroke:none" inkscape:connector-curvature="0" />
      <path id="path8785" d="m 1.953125,22.624206 0,0.399231 0.96875,0 c 0.3879496,0 0.7370309,-0.153205 0.9971314,-0.399231 l -0.9536133,0 -1.0122681,0 z" style="fill:black;fill-opacity:0.25098039;fill-rule:nonzero;stroke:none" inkscape:connector-curvature="0" />
      <path id="path8789" d="m 1.9237976,30.616394 c 0.1456714,0.137784 0.3202248,0.24301 0.5137024,0.311249 0.1923255,-0.06897 0.3673198,-0.173679 0.5127564,-0.311249 l -0.9536133,0 -0.072845,0 z" style="fill:black;fill-opacity:0.25098039;fill-rule:nonzero;stroke:none" inkscape:connector-curvature="0" />
      <rect style="fill:black;fill-opacity:0.25098039;fill-rule:nonzero;stroke:none" id="rect8831" width="28.365969" height="0.48437086" x="1.953125" y="8.2500038" />
      <path inkscape:connector-curvature="0" id="rect23052" d="m 0.984375,5.34375 0,1.453125 C 0.984375,7.6019062 1.6324688,8.25 2.4375,8.25 l 1.453125,0 0.484375,0 C 5.1800312,8.25 5.828125,7.6019062 5.828125,6.796875 5.828125,5.9918437 5.1800312,5.34375 4.375,5.34375 l -3.390625,0 z" style="fill:#dedede;fill-opacity:1;stroke:none" />
      <path inkscape:connector-curvature="0" id="path23573" d="m 0.984375,5.34375 0,1.453125 C 0.984375,7.6019062 1.6324688,8.25 2.4375,8.25 l 1.9375,0 c 0.1945492,0 0.375636,-0.03719 0.5449219,-0.105957 0.00631,-0.00257 0.00887,-0.012463 0.015137,-0.015137 0.076634,-0.032308 0.157858,-0.061566 0.2270508,-0.1059571 0.054206,-0.035214 0.1023974,-0.079252 0.1513672,-0.1210937 0.019163,-0.01628 0.042265,-0.028171 0.060547,-0.04541 l -0.9536132,0 -1.9375,0 c -0.8050545,0 -1.3281776,-0.6578486 -1.453125,-1.453125 L 0.984375,5.34375 Z" style="fill:black;fill-opacity:0.25098039;stroke:none" />
      <g transform="matrix(0.484375,0,0,0.484375,21.8125,0.5)" id="g23685">
        <path id="path14540" d="m -20,30 c -4.668515,0 -8.872095,2.002799 -11.797838,5.195497 C -34.40708,38.042815 -36,41.836515 -36,46 l 0,16 16,0 16,0 0,-16 c 0,-8.832 -7.168,-16 -16,-16 z" style="fill:#e6e6e6;fill-opacity:1;fill-rule:nonzero;stroke:none" inkscape:connector-curvature="0" sodipodi:nodetypes="ssscccss" />
        <path sodipodi:nodetypes="sccss" inkscape:connector-curvature="0" style="fill:#666;fill-opacity:1;fill-rule:nonzero;stroke:none" d="m -20,30 c -4.668515,0 -8.872095,2.002799 -11.797838,5.195497 L -4,62 -4,46 c 0,-8.832 -7.168,-16 -16,-16 z" id="path23683" />
        <path id="path14542" d="m -20,31 c -8.28,0 -15,6.72 -15,15 l 0,15 15,0 15,0 0,-15 c 0,-8.28 -6.72,-15 -15,-15 z" style="fill:#d0aa00;fill-opacity:1;fill-rule:nonzero;stroke:none" inkscape:connector-curvature="0" />
        <path sodipodi:nodetypes="ccccc" id="path14544" d="m -32,40 2,-3 0,22 -2,0 0,-19 z" style="fill:#e6be00;fill-opacity:1;fill-rule:nonzero;stroke:none" inkscape:connector-curvature="0" />
        <path sodipodi:nodetypes="ccccc" id="path14546" d="m -12,35 2,2 0,22 -2,0 0,-24 z" style="fill:#e6be00;fill-opacity:1;fill-rule:nonzero;stroke:none" inkscape:connector-curvature="0" />
        <path style="fill:#e6be00;fill-opacity:1;fill-rule:nonzero;stroke:none" d="m -17,33 2,0 0,26 -2,0 0,-26 z" id="path14548" sodipodi:nodetypes="ccccc" inkscape:connector-curvature="0" />
        <path sodipodi:nodetypes="ccccc" id="path14550" d="m -30,59 -1,0 0,-21 1,-1 0,22 z" style="fill:#805500;fill-opacity:1;fill-rule:nonzero;stroke:none" inkscape:connector-curvature="0" />
        <path id="path14552" d="M -29.90625,36.09375 C -32.44025,38.62775 -34,42.136 -34,46 l 1,0 c 0,-3.588 1.4595,-6.8345 3.8125,-9.1875 l -0.71875,-0.71875 z" style="fill:#aa8000;fill-opacity:1;fill-rule:nonzero;stroke:none" inkscape:connector-curvature="0" />
        <path style="fill:#e6be00;fill-opacity:1;fill-rule:nonzero;stroke:none" d="m -27,34 2,0 0,25 -2,0 0,-25 z" id="path14558" sodipodi:nodetypes="ccccc" inkscape:connector-curvature="0" />
        <path style="fill:#805500;fill-opacity:1;fill-rule:nonzero;stroke:none" d="m -25,59 -1,0 0,-24.999829 1,0 L -25,59 Z" id="path14560" sodipodi:nodetypes="ccccc" inkscape:connector-curvature="0" />
        <rect y="46" x="-34" height="13.000003" width="0.99993849" id="rect14580" style="fill:#aa8000;fill-opacity:1;fill-rule:nonzero;stroke:none" />
        <path sodipodi:nodetypes="ccccc" id="path14582" d="m -22,33 2,0 0,26 -2,0 0,-26 z" style="fill:#e6be00;fill-opacity:1;fill-rule:nonzero;stroke:none" inkscape:connector-curvature="0" />
        <path id="path14584" d="m -20,32 0,1 c 7.176,0 13,5.824 13,13 l 1,0 c 0,-7.728 -6.272,-14 -14,-14 z" style="fill:#805500;fill-opacity:1;fill-rule:nonzero;stroke:none" inkscape:connector-curvature="0" />
        <path sodipodi:nodetypes="ccccc" id="path14586" d="m -10,59 -1,0 0,-23 1,1 0,22 z" style="fill:#805500;fill-opacity:1;fill-rule:nonzero;stroke:none" inkscape:connector-curvature="0" />
        <path style="fill:#805500;fill-opacity:1;fill-rule:nonzero;stroke:none" d="m -15,59 -1,0 0,-26 1,0 0,26 z" id="path14588" sodipodi:nodetypes="ccccc" inkscape:connector-curvature="0" />
        <path sodipodi:nodetypes="ccccc" id="path14590" d="m -7,46 1,0 0,14 -1,-1 0,-13 z" style="fill:#805500;fill-opacity:1;fill-rule:nonzero;stroke:none" inkscape:connector-curvature="0" />
        <path sodipodi:nodetypes="ccccc" id="path14592" d="m -34,59 27,0 1,1 -28,0 0,-1 z" style="fill:#e6be00;fill-opacity:1;fill-rule:nonzero;stroke:none" inkscape:connector-curvature="0" />
        <path id="path14594" d="m -20,32 c -3.864,0 -7.37225,1.55975 -9.90625,4.09375 l 0.71875,0.71875 C -26.8345,34.4595 -23.588,33 -20,33 l 0,-1 z" style="fill:#805500;fill-opacity:1;fill-rule:nonzero;stroke:none" inkscape:connector-curvature="0" />
        <path sodipodi:nodetypes="ccccc" id="path14596" d="m -20,59 -1,0 0,-26 1,0 0,26 z" style="fill:#805500;fill-opacity:1;fill-rule:nonzero;stroke:none" inkscape:connector-curvature="0" />
        <path sodipodi:type="arc" style="fill:#ccc;fill-opacity:1;stroke:none" id="path23627" sodipodi:cx="-20" sodipodi:cy="47" sodipodi:rx="6" sodipodi:ry="6" d="m -24.242641,42.757359 a 6,6 0 0 1 5.795555,-1.552914 6,6 0 0 1 4.242641,4.242641 6,6 0 0 1 -1.552914,5.795555 L -20,47 Z" sodipodi:start="3.9269908" sodipodi:end="0.78539819" />
        <path sodipodi:end="3.9269908" sodipodi:start="0.78539816" d="m -15.757359,51.242641 a 6,6 0 0 1 -8.485282,0 6,6 0 0 1 0,-8.485282 L -20,47 Z" sodipodi:ry="6" sodipodi:rx="6" sodipodi:cy="47" sodipodi:cx="-20" id="path23631" style="fill:gray;fill-opacity:1;stroke:none" sodipodi:type="arc" />
        <circle r="6" cy="47" cx="-20" id="path23629" style="fill:#b3b3b3;fill-opacity:1;stroke:none" transform="matrix(0.83333333,0,0,0.83333333,-3.3333333,7.8333333)" />
        <path style="fill:black;fill-opacity:0.25098039;stroke:none" d="m -20,45 c -0.55402,0 -1.048049,0.22844 -1.40625,0.59375 l -0.71875,0.75 -0.25,0.21875 C -22.751834,46.922096 -23,47.436072 -23,48 c 0,1.104569 0.895431,2 2,2 0.536857,0 1.019746,-0.216871 1.375,-0.5625 l 0.09375,-0.09375 0.9375,-0.9375 C -18.23077,48.04836 -18,47.552005 -18,47 c 0,-1.104569 -0.895431,-2 -2,-2 z" id="path23642" inkscape:connector-curvature="0" />
        <circle r="2.0983605" cy="52" cx="24" style="display:inline;fill:#a0a0a0;fill-opacity:1;fill-rule:nonzero;stroke:none" id="path4957" transform="matrix(0.9531251,0,0,0.9531251,-42.875001,-2.5626304)" />
        <path inkscape:connector-curvature="0" style="display:inline;fill:#606060;fill-opacity:1;fill-rule:nonzero;stroke:none" d="m -20.8125,45.187375 c -0.697129,0.312609 -1.187501,0.999443 -1.1875,1.8125 0,1.104 0.895999,2 2,2 0.813057,0 1.49989,-0.490372 1.8125,-1.1875 -0.249459,0.111863 -0.521557,0.1875 -0.8125,0.1875 -1.104,0 -2,-0.896 -2,-2 0,-0.290943 0.07564,-0.563041 0.1875,-0.8125 z" id="path4959" />
        <ellipse ry="0.89718908" rx="0.8902089" cy="51.10281" cx="24.890209" style="display:inline;fill:white;fill-opacity:1;fill-rule:nonzero;stroke:none" id="path5190" transform="matrix(0.8424989,0,0,0.8359442,-40.219973,3.5307766)" />
        <path inkscape:connector-curvature="0" style="fill:white;fill-opacity:0.75294118;stroke:none" d="m -18.5625,41.6875 -0.65625,2.4375 c 0.766341,0.210797 1.422644,0.702454 1.8125,1.375 L -15.25,44.25 c -0.729345,-1.263263 -1.903513,-2.184963 -3.3125,-2.5625 z" id="path23633" />
      </g>
      <path inkscape:connector-curvature="0" id="path23715" d="m 28.59375,9.597168 c -0.295528,0.2656283 -0.484375,0.644241 -0.484375,1.074707 l 0,1.453125 c 0,0.805031 0.64807,1.453125 1.453125,1.453125 l 0.484375,0 0,-0.393555 C 29.26837,13.159581 28.761669,12.511198 28.63916,11.731445 l -0.04541,-1.05957 0,-1.074707 z" style="fill:black;fill-opacity:0.25098039;fill-rule:nonzero;stroke:none" />
      <path inkscape:connector-curvature="0" id="path23737" d="m 23.265625,10.429688 c -2.006347,0 -3.632813,1.626465 -3.632813,3.632812 l 0,3.632812 7.265625,0 0,-3.632812 c 0,-2.006347 -1.626465,-3.632812 -3.632812,-3.632812 z" style="fill:aqua;fill-opacity:0.25098039;stroke:none" />
      <path inkscape:connector-curvature="0" id="path23969" d="m 23.265625,9.703125 c -1.199985,0 -2.283295,0.482979 -3.072754,1.271484 l 0,0.01514 0.666016,0.666016 c 0.612865,-0.612866 1.467576,-0.983887 2.406738,-0.983887 1.878325,0 3.390625,1.5123 3.390625,3.390625 l 0,3.390625 0.96875,0.96875 0,-0.484375 0,-3.875 c 0,-2.401878 -1.957497,-4.359375 -4.359375,-4.359375 z" style="color:black;font-style:normal;font-variant:normal;font-weight:normal;font-stretch:normal;font-size:medium;line-height:normal;font-family:Sans;-inkscape-font-specification:Sans;text-indent:0;text-align:start;text-decoration:none;text-decoration-line:none;letter-spacing:normal;word-spacing:normal;text-transform:none;direction:ltr;block-progression:tb;writing-mode:lr-tb;baseline-shift:baseline;text-anchor:start;display:inline;overflow:visible;visibility:visible;fill:#666;fill-opacity:1;stroke:none;stroke-width:2;marker:none;enable-background:accumulate" />
      <path inkscape:connector-curvature="0" id="path23720" d="m 23.265625,10.1875 c -2.140101,0 -3.875,1.734899 -3.875,3.875 l 0,3.875 7.75,0 0,-3.875 c 0,-2.140101 -1.734899,-3.875 -3.875,-3.875 z m -0.348145,0.499512 c 0.03462,-0.0035 0.07103,0.0025 0.105957,0 l 0,3.375488 -3.148437,0 c 0,-1.755553 1.332737,-3.201854 3.04248,-3.375488 z m 0.590332,0 c 1.759486,0.124256 3.148438,1.584382 3.148438,3.375488 l -3.148438,0 0,-3.375488 z m -3.632812,3.859863 0.04541,0 3.103027,0 0,2.90625 -3.148437,0 0,-2.90625 z m 3.632812,0 3.103028,0 0.04541,0 0,2.90625 -3.148438,0 0,-2.90625 z" style="fill:#4d4d4d;fill-opacity:1;stroke:none" />
    </g>
  </g>
</svg>
