<?xml version="1.0" encoding="UTF-8" standalone="no"?>
<!-- Created with Inkscape (http://www.inkscape.org/) -->

<svg
   xmlns:dc="http://purl.org/dc/elements/1.1/"
   xmlns:cc="http://creativecommons.org/ns#"
   xmlns:rdf="http://www.w3.org/1999/02/22-rdf-syntax-ns#"
   xmlns:svg="http://www.w3.org/2000/svg"
   xmlns="http://www.w3.org/2000/svg"
   xmlns:sodipodi="http://sodipodi.sourceforge.net/DTD/sodipodi-0.dtd"
   xmlns:inkscape="http://www.inkscape.org/namespaces/inkscape"
   width="96"
   height="96"
   id="svg3505"
   sodipodi:version="0.32"
   inkscape:version="0.47 r22583"
   sodipodi:docname="04.svg"
   inkscape:output_extension="org.inkscape.output.svg.inkscape"
   version="1.1">
  <defs
     id="defs3507">
    <inkscape:perspective
       sodipodi:type="inkscape:persp3d"
       inkscape:vp_x="0 : 16 : 1"
       inkscape:vp_y="0 : 1000 : 0"
       inkscape:vp_z="32 : 16 : 1"
       inkscape:persp3d-origin="16 : 10.666667 : 1"
       id="perspective2836" />
    <inkscape:perspective
       id="perspective2899"
       inkscape:persp3d-origin="0.5 : 0.33333333 : 1"
       inkscape:vp_z="1 : 0.5 : 1"
       inkscape:vp_y="0 : 1000 : 0"
       inkscape:vp_x="0 : 0.5 : 1"
       sodipodi:type="inkscape:persp3d" />
    <inkscape:perspective
       id="perspective3072"
       inkscape:persp3d-origin="0.5 : 0.33333333 : 1"
       inkscape:vp_z="1 : 0.5 : 1"
       inkscape:vp_y="0 : 1000 : 0"
       inkscape:vp_x="0 : 0.5 : 1"
       sodipodi:type="inkscape:persp3d" />
    <inkscape:perspective
       id="perspective3081"
       inkscape:persp3d-origin="0.5 : 0.33333333 : 1"
       inkscape:vp_z="1 : 0.5 : 1"
       inkscape:vp_y="0 : 1000 : 0"
       inkscape:vp_x="0 : 0.5 : 1"
       sodipodi:type="inkscape:persp3d" />
  </defs>
  <sodipodi:namedview
     id="base"
     pagecolor="#ffffff"
     bordercolor="#666666"
     borderopacity="1.0"
     inkscape:pageopacity="0.0"
     inkscape:pageshadow="2"
     inkscape:zoom="6.2395833"
     inkscape:cx="48"
     inkscape:cy="48"
     inkscape:current-layer="layer1"
     showgrid="true"
     inkscape:grid-bbox="true"
     inkscape:document-units="px"
     objecttolerance="4"
     gridtolerance="4"
     guidetolerance="4"
     inkscape:window-width="1600"
     inkscape:window-height="840"
     inkscape:window-x="0"
     inkscape:window-y="0"
     inkscape:object-paths="true"
     inkscape:object-nodes="true"
     inkscape:snap-bbox="true"
     inkscape:snap-guide="true"
     showguides="true"
     inkscape:guide-bbox="true"
     inkscape:window-maximized="1">
    <inkscape:grid
       type="xygrid"
       id="grid3515"
       units="px"
       visible="true"
       enabled="true"
       spacingx="1px"
       spacingy="1px"
       empspacing="4"
       snapvisiblegridlinesonly="true" />
    <sodipodi:guide
       orientation="1,0"
       position="32,64"
       id="guide2868" />
    <sodipodi:guide
       orientation="0,1"
       position="0,32"
       id="guide2870" />
    <sodipodi:guide
       orientation="0,1"
       position="0,64"
       id="guide2874" />
    <sodipodi:guide
       orientation="1,0"
       position="64,64"
       id="guide2876" />
  </sodipodi:namedview>
  <metadata
     id="metadata3510">
    <rdf:RDF>
      <cc:Work
         rdf:about="">
        <dc:format>image/svg+xml</dc:format>
        <dc:type
           rdf:resource="http://purl.org/dc/dcmitype/StillImage" />
        <dc:title />
        <dc:date>2010-08-08</dc:date>
        <dc:creator>
          <cc:Agent>
            <dc:title>Andreas Neudecker &lt;zapyon@gmx.net&gt;</dc:title>
          </cc:Agent>
        </dc:creator>
        <dc:rights>
          <cc:Agent>
            <dc:title>Copyright (C) 2010 by Andreas Neudecker</dc:title>
          </cc:Agent>
        </dc:rights>
        <dc:publisher>
          <cc:Agent>
            <dc:title>Andreas Neudecker</dc:title>
          </cc:Agent>
        </dc:publisher>
        <dc:identifier>bomb-explosion-04</dc:identifier>
        <dc:description>Explosion of a bomb for McMinos</dc:description>
      </cc:Work>
    </rdf:RDF>
  </metadata>
  <g
     id="layer1"
     inkscape:label="Layer 1"
     inkscape:groupmode="layer"
     transform="translate(0,64)">
    <g
       id="g2852">
      <path
         id="path2832"
         d="m 37.90164,-61.442623 c -13.942927,0 -25.245902,10.949757 -25.245902,24.456967 0,3.549784 0.80493,6.913301 2.209016,9.957479 C 8.3008823,-22.611698 4,-15.267108 4,-6.9385244 4,4.5536715 12.176193,14.198967 23.204919,16.819672 27.703153,23.546223 35.504226,28 44.393443,28 c 4.901058,0 9.471829,-1.370844 13.344262,-3.712219 2.800038,1.037424 5.839871,1.615907 9.016394,1.615907 C 80.697024,25.903688 92,14.953931 92,1.4467213 c 0,-4.9737966 -1.559911,-9.590126 -4.192623,-13.4513313 1.302408,-2.949932 2.028688,-6.196697 2.028688,-9.608095 0,-13.50721 -11.302974,-24.456967 -25.245901,-24.456967 -1.074042,0 -2.116985,0.09225 -3.155737,0.218365 -3.66453,-9.125558 -12.816988,-15.591316 -23.532787,-15.591316 z"
         style="fill:#c0c0c0;fill-opacity:0.50196078;fill-rule:nonzero;stroke:none" />
      <path
         sodipodi:nodetypes="cccccccssscccccccc"
         id="path3196"
         d="m 46,-28 -1,0 0,1 0,4 0,1 1,0 0.21875,0 C 42.023398,-20.284865 39,-16.301337 39,-11.5 39,-5.1629367 44.162937,3e-7 50.5,3e-7 56.837063,3e-7 62,-5.1629367 62,-11.5 62,-16.301337 58.976602,-20.284865 54.78125,-22 L 55,-22 l 1,0 0,-1 0,-4 0,-1 -1,0 -9,0 z"
         style="fill:#000000;fill-opacity:1;fill-rule:nonzero;stroke:none" />
      <path
         transform="translate(31,-33)"
         d="M 30,21.5 C 30,27.29899 25.29899,32 19.5,32 13.70101,32 9,27.29899 9,21.5 9,15.70101 13.70101,11 19.5,11 25.29899,11 30,15.70101 30,21.5 z"
         sodipodi:ry="10.5"
         sodipodi:rx="10.5"
         sodipodi:cy="21.5"
         sodipodi:cx="19.5"
         id="path2394"
         style="fill:#808080;fill-opacity:1;fill-rule:nonzero;stroke:none"
         sodipodi:type="arc" />
      <rect
         y="-23"
         x="48"
         height="2"
         width="5"
         id="rect2398"
         style="fill:#909090;fill-opacity:1;fill-rule:nonzero;stroke:none" />
      <rect
         y="-27"
         x="46"
         height="4"
         width="9"
         id="rect2400"
         style="fill:#909090;fill-opacity:1;fill-rule:nonzero;stroke:none" />
      <path
         inkscape:transform-center-x="1.5368965"
         inkscape:transform-center-y="1.5368963"
         id="path3179"
         d="m 43.075379,-18.924621 c -4.098391,4.098391 -4.098391,10.7508513 0,14.8492423 4.098391,4.098391 10.750851,4.098391 14.849242,0 -2.537098,2.537099 -7.922424,1.269964 -12.020815,-2.828427 -4.09839,-4.0983923 -5.365527,-9.4837163 -2.828427,-12.0208153 z"
         style="fill:#606060;fill-opacity:1;fill-rule:nonzero;stroke:none" />
      <path
         id="path3190"
         d="m 48,-23 0,2 2,0 -1,-2 -1,0 z"
         style="fill:#606060;fill-opacity:1;fill-rule:nonzero;stroke:none" />
      <path
         inkscape:transform-center-x="-1.536897"
         style="fill:#909090;fill-opacity:1;fill-rule:nonzero;stroke:none"
         d="m 57.924621,-4.0753787 c 4.098391,-4.098391 4.098391,-10.7508513 0,-14.8492423 -4.098391,-4.098391 -10.750851,-4.098391 -14.849242,0 2.537098,-2.537099 7.922424,-1.269964 12.020815,2.828427 4.09839,4.098392 5.365526,9.4837163 2.828427,12.0208153 z"
         id="path3184"
         inkscape:transform-center-y="-1.5368969" />
      <path
         id="path3186"
         d="m 46,-27 0,4 4,0 -2,-4 -2,0 z"
         style="fill:#606060;fill-opacity:1;fill-rule:nonzero;stroke:none" />
      <rect
         y="-24"
         x="48.325253"
         height="1"
         width="6.6747475"
         id="rect3192"
         style="fill:#606060;fill-opacity:1;fill-rule:nonzero;stroke:none" />
      <path
         id="path3231"
         d="m 52.6875,-19.71875 -1.03125,3.875 c 1.599574,0.428604 2.758896,1.587927 3.1875,3.1875 l 3.875,-1.03125 c -0.809586,-3.021415 -3.009835,-5.221664 -6.03125,-6.03125 z"
         style="fill:#c0c0c0;fill-opacity:1;fill-rule:nonzero;stroke:none" />
      <path
         sodipodi:nodetypes="ccccccccccccc"
         id="path3152"
         d="M 91.780373,19.182707 56.457402,3.8253817 34.865888,28.647746 35.900878,1.6705582 -0.15840957,-2.7074785 26.109814,-24.597664 8.5976654,-55.243926 39.243925,-36.883314 56.756074,-64 l 8.756075,30.646261 30.64626,8.756075 -32.47526,11.128403 28.097224,32.651968 z"
         style="fill:#ffff00;fill-opacity:1;fill-rule:nonzero;stroke:none" />
      <path
         sodipodi:nodetypes="ccccccccccccc"
         id="path3926"
         d="M 74.565383,-22.758547 55.363278,-16.54196 68.661965,0.27365534 50.242117,-8 42.096581,3.8068369 41.622256,-11.433519 l -20.187639,1.309668 16.425424,-9.682986 -10.522006,-16.773986 19.153379,9.786075 6.360069,-15.53797 1.765852,17.177201 19.948048,2.39697 z"
         style="fill:#ffffff;fill-opacity:1;fill-rule:nonzero;stroke:none" />
      <path
         id="path3615"
         d="m 31.540541,-43.108107 c -11.59612,0 -21.009009,9.412889 -21.009009,21.009009 0,11.596118 9.412889,21.0090076 21.009009,21.0090076 1.537006,0 3.016374,-0.1819728 4.459459,-0.4954954 -0.04509,0.561784 -0.09909,1.11129252 -0.09909,1.68468457 -4e-6,11.59611923 9.412885,21.00900823 21.009004,21.00900823 11.59612,0 21.009009,-9.412889 21.009009,-21.00900823 0,-0.52230924 -0.06161,-1.02329406 -0.0991,-1.53603587 3.495556,-3.7502127 5.648648,-8.7887059 5.648648,-14.3198199 0,-11.59612 -9.412889,-21.009008 -21.009009,-21.009008 -4.776151,0 -9.156875,1.624798 -12.684684,4.31081 -3.610131,-6.352817 -10.40503,-10.653152 -18.234237,-10.653152 z"
         style="fill:#c0c0c0;fill-opacity:0.50196078;fill-rule:nonzero;stroke:none" />
      <path
         transform="matrix(1.7227136,0,0,1.7227136,64.67861,-111.7994)"
         d="m -8,44 c 0,4.418278 -3.581722,8 -8,8 -4.418278,0 -8,-3.581722 -8,-8 0,-4.418278 3.581722,-8 8,-8 4.418278,0 8,3.581722 8,8 z"
         sodipodi:ry="8"
         sodipodi:rx="8"
         sodipodi:cy="44"
         sodipodi:cx="-16"
         id="path3878"
         style="fill:#c0c0c0;fill-opacity:0.50196078;fill-rule:nonzero;stroke:none"
         sodipodi:type="arc" />
      <path
         id="path3880"
         d="m 67.104716,-45.045163 c -7.913433,0 -14.328537,6.415105 -14.328537,14.328537 0,3.699239 1.429962,7.047522 3.73139,9.589672 -6.134246,0.446394 -11.190217,4.772674 -12.761353,10.522519 -1.643223,-0.65661 -3.420979,-1.007476 -5.298574,-1.007476 -1.697712,0 -3.302251,0.316253 -4.813493,0.85822 0.0256,-0.285073 0.03731,-0.566482 0.03731,-0.85822 0,-5.275621 -4.276736,-9.552357 -9.552357,-9.552357 -5.275622,0 -9.552358,4.276736 -9.552358,9.552357 0,5.275622 4.276736,9.5523582 9.552358,9.5523582 0.291737,0 0.573146,-0.011711 0.858219,-0.037314 -0.541967,1.51124156 -0.858219,3.1157809 -0.858219,4.8134928 0,7.9134319 6.415104,14.3285369 14.328536,14.3285369 6.602941,0 12.145787,-4.483477 13.806142,-10.5598332 1.643223,0.65661 3.420979,1.0074752 5.298574,1.0074752 7.913432,0 14.328536,-6.4151043 14.328536,-14.3285367 0,-3.6992393 -1.429961,-7.0475213 -3.731389,-9.5896713 7.42085,-0.540024 13.283747,-6.732598 13.283747,-14.291223 0,-7.913432 -6.415104,-14.328537 -14.328536,-14.328537 z"
         style="fill:#c0c0c0;fill-opacity:0.50196078;fill-rule:nonzero;stroke:none" />
      <path
         transform="matrix(0.55686887,0,0,0.55686887,37.364853,-40.047279)"
         d="m -16,36 c 0,4.418278 -3.581722,8 -8,8 -4.418278,0 -8,-3.581722 -8,-8 0,-4.418278 3.581722,-8 8,-8 4.418278,0 8,3.581722 8,8 z"
         sodipodi:ry="8"
         sodipodi:rx="8"
         sodipodi:cy="36"
         sodipodi:cx="-24"
         id="path3967"
         style="fill:#ffffff;fill-opacity:0.50196078;fill-rule:nonzero;stroke:none"
         sodipodi:type="arc" />
      <path
         sodipodi:type="arc"
         style="fill:#ffffff;fill-opacity:0.50196078;fill-rule:nonzero;stroke:none"
         id="path3969"
         sodipodi:cx="-24"
         sodipodi:cy="36"
         sodipodi:rx="8"
         sodipodi:ry="8"
         d="m -16,36 c 0,4.418278 -3.581722,8 -8,8 -4.418278,0 -8,-3.581722 -8,-8 0,-4.418278 3.581722,-8 8,-8 4.418278,0 8,3.581722 8,8 z"
         transform="translate(60,-76)" />
      <path
         transform="matrix(1.5,0,0,1.5,92,-50)"
         d="m -16,36 c 0,4.418278 -3.581722,8 -8,8 -4.418278,0 -8,-3.581722 -8,-8 0,-4.418278 3.581722,-8 8,-8 4.418278,0 8,3.581722 8,8 z"
         sodipodi:ry="8"
         sodipodi:rx="8"
         sodipodi:cy="36"
         sodipodi:cx="-24"
         id="path3971"
         style="fill:#ffffff;fill-opacity:0.50196078;fill-rule:nonzero;stroke:none"
         sodipodi:type="arc" />
      <path
         transform="translate(92,-72)"
         d="m -16,36 c 0,4.418278 -3.581722,8 -8,8 -4.418278,0 -8,-3.581722 -8,-8 0,-4.418278 3.581722,-8 8,-8 4.418278,0 8,3.581722 8,8 z"
         sodipodi:ry="8"
         sodipodi:rx="8"
         sodipodi:cy="36"
         sodipodi:cx="-24"
         id="path3973"
         style="fill:#ffffff;fill-opacity:0.50196078;fill-rule:nonzero;stroke:none"
         sodipodi:type="arc" />
      <path
         transform="translate(0,-64)"
         d="m 49.756549,33.141501 -1.214118,-0.884457 -1.209845,0.581857 0.838796,-1.75488 -1.517226,-1.553878 1.991782,0.657414 0.449849,-1.705378 0.407768,1.958231 1.656792,0.179116 -1.524466,0.817391 0.120668,1.704584 z"
         inkscape:randomized="0.2"
         inkscape:rounded="0"
         inkscape:flatsided="false"
         sodipodi:arg2="1.7174419"
         sodipodi:arg1="1.0891234"
         sodipodi:r2="1.1924218"
         sodipodi:r1="2.3848433"
         sodipodi:cy="30.886501"
         sodipodi:cx="48.895192"
         sodipodi:sides="5"
         id="path4087"
         style="fill:#ffff00;fill-opacity:1;fill-rule:nonzero;stroke:none"
         sodipodi:type="star" />
      <path
         transform="translate(0,-64)"
         d="m 38.278018,49.697741 -2.247941,-0.464928 -1.44886,2.184827 -1.074411,-2.364273 -2.266901,-1.276767 3.119417,-1.065844 -0.204883,-1.99737 0.961686,1.720759 3.408453,-1.025096 -1.929073,2.410337 1.682513,1.878355 z"
         inkscape:randomized="0.2"
         inkscape:rounded="0"
         inkscape:flatsided="false"
         sodipodi:arg2="1.2327664"
         sodipodi:arg1="0.60444792"
         sodipodi:r2="1.7016367"
         sodipodi:r1="3.403273"
         sodipodi:cy="48.065893"
         sodipodi:cx="35.199733"
         sodipodi:sides="5"
         id="path4089"
         style="fill:#ffff00;fill-opacity:1;fill-rule:nonzero;stroke:none"
         sodipodi:type="star" />
      <path
         transform="translate(0,-64)"
         d="m 68.60396,67.265453 -2.715336,0.877676 -0.754021,1.219216 -0.441387,-2.755916 -3.657702,-1.300167 3.890843,-0.372133 0.07705,-2.637241 2.28148,0.97297 2.452794,-0.400186 -1.839136,2.071828 0.705414,2.323953 z"
         inkscape:randomized="0.2"
         inkscape:rounded="0"
         inkscape:flatsided="false"
         sodipodi:arg2="1.2995622"
         sodipodi:arg1="0.67124369"
         sodipodi:r2="2.0213864"
         sodipodi:r1="4.0427723"
         sodipodi:cy="65.485556"
         sodipodi:cx="65.834312"
         sodipodi:sides="5"
         id="path4091"
         style="fill:#ffff00;fill-opacity:1;fill-rule:nonzero;stroke:none"
         sodipodi:type="star" />
      <path
         transform="translate(0,-64)"
         d="m 84.349235,49.807357 -2.021339,0.120809 -0.602597,2.50156 -1.194268,-1.962945 -2.084454,0.09857 1.748134,-1.54932 -0.628473,-1.682222 1.117484,0.832411 2.243169,-1.523275 -0.01698,2.341615 1.439327,0.822796 z"
         inkscape:randomized="0.2"
         inkscape:rounded="0"
         inkscape:flatsided="false"
         sodipodi:arg2="0.88530002"
         sodipodi:arg1="0.25698149"
         sodipodi:r2="1.4415019"
         sodipodi:r1="2.8830034"
         sodipodi:cy="49.267249"
         sodipodi:cx="81.21167"
         sodipodi:sides="5"
         id="path4093"
         style="fill:#ffff00;fill-opacity:1;fill-rule:nonzero;stroke:none"
         sodipodi:type="star" />
      <path
         transform="translate(0,-64)"
         d="m 21.202138,69.113357 -1.299702,1.005228 0.632167,1.321925 -1.275896,-0.380685 -1.795839,0.498804 0.814867,-1.909061 -1.324946,-0.363562 1.658199,-0.843207 0.0774,-1.561265 1.18358,1.772215 1.330174,0.459608 z"
         inkscape:randomized="0.2"
         inkscape:rounded="0"
         inkscape:flatsided="false"
         sodipodi:arg2="0.34855228"
         sodipodi:arg1="-0.27976625"
         sodipodi:r2="1.2499544"
         sodipodi:r1="2.4999085"
         sodipodi:cy="69.690302"
         sodipodi:cx="19.101561"
         sodipodi:sides="5"
         id="path4095"
         style="fill:#ffff00;fill-opacity:1;fill-rule:nonzero;stroke:none"
         sodipodi:type="star" />
      <path
         transform="translate(0,-64)"
         d="m 72.064161,53.151685 -1.98188,0.380351 -0.827862,-1.379956 1.236426,-1.198402 1.214135,0.272554 0.359181,1.925453 z"
         inkscape:randomized="0.2"
         inkscape:rounded="0"
         inkscape:flatsided="true"
         sodipodi:arg2="1.2289111"
         sodipodi:arg1="0.60059252"
         sodipodi:r2="1.2161011"
         sodipodi:r1="1.5031837"
         sodipodi:cy="52.150504"
         sodipodi:cx="70.759872"
         sodipodi:sides="5"
         id="path6642"
         style="fill:#808080;fill-opacity:0.50148368;fill-rule:nonzero;stroke:none"
         sodipodi:type="star" />
      <path
         sodipodi:type="star"
         style="fill:#808080;fill-opacity:0.50148369;fill-rule:nonzero;stroke:none"
         id="path6644"
         sodipodi:sides="5"
         sodipodi:cx="70.759872"
         sodipodi:cy="52.150505"
         sodipodi:r1="1.5031837"
         sodipodi:r2="1.2161011"
         sodipodi:arg1="0.60059252"
         sodipodi:arg2="1.2289111"
         inkscape:flatsided="true"
         inkscape:rounded="0"
         inkscape:randomized="0.2"
         d="m 72.064161,53.151685 -1.98188,0.380351 -0.827862,-1.379956 1.236426,-1.198402 1.214135,0.272554 0.359181,1.925453 z"
         transform="translate(-15.490845,-78.953678)" />
      <path
         transform="translate(0,-64)"
         d="m 28.751356,52.643022 -2.148527,0.305854 -0.427261,-2.598633 1.707524,-1.123805 2.314414,1.728577 -1.44615,1.688007 z"
         inkscape:randomized="0.2"
         inkscape:rounded="0"
         inkscape:flatsided="true"
         sodipodi:arg2="1.6909512"
         sodipodi:arg1="1.0626327"
         sodipodi:r2="1.6766537"
         sodipodi:r1="2.072458"
         sodipodi:cy="51.189419"
         sodipodi:cx="27.991596"
         sodipodi:sides="5"
         id="path6646"
         style="fill:#808080;fill-opacity:0.50148369;fill-rule:nonzero;stroke:none"
         sodipodi:type="star" />
      <path
         transform="translate(0,-64)"
         d="m 28.806481,34.112223 -1.561195,0.729614 -1.267403,-1.146963 0.532605,-1.73254 1.711843,0.137137 0.58415,2.012752 z"
         inkscape:randomized="0.2"
         inkscape:rounded="0"
         inkscape:flatsided="true"
         sodipodi:arg2="1.0059687"
         sodipodi:arg1="0.37765016"
         sodipodi:r2="1.2959001"
         sodipodi:r1="1.6018206"
         sodipodi:cy="33.409349"
         sodipodi:cx="27.511054"
         sodipodi:sides="5"
         id="path6648"
         style="fill:#808080;fill-opacity:0.50148369;fill-rule:nonzero;stroke:none"
         sodipodi:type="star" />
      <path
         transform="translate(0,-64)"
         d="m 45.113324,15.928844 -1.011407,0.474588 -0.597026,-0.783519 0.575209,-0.575005 0.71529,0.133027 0.317934,0.750909 z"
         inkscape:randomized="0.2"
         inkscape:rounded="0"
         inkscape:flatsided="true"
         sodipodi:arg2="1.1337273"
         sodipodi:arg1="0.50540874"
         sodipodi:r2="0.6194566"
         sodipodi:r1="0.76569046"
         sodipodi:cy="15.629279"
         sodipodi:cx="44.330039"
         sodipodi:sides="5"
         id="path6650"
         style="fill:#808080;fill-opacity:0.50148369;fill-rule:nonzero;stroke:none"
         sodipodi:type="star" />
      <path
         transform="translate(0,-64)"
         d="m 43.265989,60.750595 -1.902066,0.333166 -0.40399,-1.925065 1.450541,-0.914916 1.007935,1.281425 -0.15242,1.22539 z"
         inkscape:randomized="0.2"
         inkscape:rounded="0"
         inkscape:flatsided="true"
         sodipodi:arg2="1.5770157"
         sodipodi:arg1="0.94869721"
         sodipodi:r2="1.155618"
         sodipodi:r1="1.4284224"
         sodipodi:cy="59.839183"
         sodipodi:cx="42.167598"
         sodipodi:sides="5"
         id="path6652"
         style="fill:#808080;fill-opacity:0.50148369;fill-rule:nonzero;stroke:none"
         sodipodi:type="star" />
      <path
         transform="translate(0,-64)"
         d="m 42.218018,75.203272 -2.212124,-0.362683 -0.424424,-1.7987 1.481256,-0.765559 1.274203,0.967049 -0.118911,1.959893 z"
         inkscape:randomized="0.2"
         inkscape:rounded="0"
         inkscape:flatsided="true"
         sodipodi:arg2="1.558332"
         sodipodi:arg1="0.93001348"
         sodipodi:r2="1.2363794"
         sodipodi:r1="1.528249"
         sodipodi:cy="73.774913"
         sodipodi:cx="41.086377"
         sodipodi:sides="5"
         id="path6654"
         style="fill:#808080;fill-opacity:0.50148369;fill-rule:nonzero;stroke:none"
         sodipodi:type="star" />
    </g>
  </g>
</svg>
