<?xml version="1.0" encoding="UTF-8" standalone="no"?>
<!-- Created with Inkscape (http://www.inkscape.org/) -->
<svg
   xmlns:dc="http://purl.org/dc/elements/1.1/"
   xmlns:cc="http://creativecommons.org/ns#"
   xmlns:rdf="http://www.w3.org/1999/02/22-rdf-syntax-ns#"
   xmlns:svg="http://www.w3.org/2000/svg"
   xmlns="http://www.w3.org/2000/svg"
   xmlns:sodipodi="http://sodipodi.sourceforge.net/DTD/sodipodi-0.dtd"
   xmlns:inkscape="http://www.inkscape.org/namespaces/inkscape"
   width="32px"
   height="32px"
   id="svg3505"
   sodipodi:version="0.32"
   inkscape:version="0.46"
   sodipodi:docname="medicine-00.svg"
   inkscape:output_extension="org.inkscape.output.svg.inkscape">
  <defs
     id="defs3507">
    <inkscape:perspective
       sodipodi:type="inkscape:persp3d"
       inkscape:vp_x="0 : 16 : 1"
       inkscape:vp_y="0 : 1000 : 0"
       inkscape:vp_z="32 : 16 : 1"
       inkscape:persp3d-origin="16 : 10.666667 : 1"
       id="perspective3513" />
    <inkscape:perspective
       id="perspective4690"
       inkscape:persp3d-origin="372.04724 : 350.78739 : 1"
       inkscape:vp_z="744.09448 : 526.18109 : 1"
       inkscape:vp_y="0 : 1000 : 0"
       inkscape:vp_x="0 : 526.18109 : 1"
       sodipodi:type="inkscape:persp3d" />
    <inkscape:perspective
       id="perspective2415"
       inkscape:persp3d-origin="372.04724 : 350.78739 : 1"
       inkscape:vp_z="744.09448 : 526.18109 : 1"
       inkscape:vp_y="0 : 1000 : 0"
       inkscape:vp_x="0 : 526.18109 : 1"
       sodipodi:type="inkscape:persp3d" />
    <inkscape:perspective
       id="perspective5551"
       inkscape:persp3d-origin="372.04724 : 350.78739 : 1"
       inkscape:vp_z="744.09448 : 526.18109 : 1"
       inkscape:vp_y="0 : 1000 : 0"
       inkscape:vp_x="0 : 526.18109 : 1"
       sodipodi:type="inkscape:persp3d" />
    <inkscape:perspective
       id="perspective5594"
       inkscape:persp3d-origin="372.04724 : 350.78739 : 1"
       inkscape:vp_z="744.09448 : 526.18109 : 1"
       inkscape:vp_y="0 : 1000 : 0"
       inkscape:vp_x="0 : 526.18109 : 1"
       sodipodi:type="inkscape:persp3d" />
    <inkscape:perspective
       id="perspective3253"
       inkscape:persp3d-origin="372.04724 : 350.78739 : 1"
       inkscape:vp_z="744.09448 : 526.18109 : 1"
       inkscape:vp_y="0 : 1000 : 0"
       inkscape:vp_x="0 : 526.18109 : 1"
       sodipodi:type="inkscape:persp3d" />
    <inkscape:perspective
       id="perspective3722"
       inkscape:persp3d-origin="372.04724 : 350.78739 : 1"
       inkscape:vp_z="744.09448 : 526.18109 : 1"
       inkscape:vp_y="0 : 1000 : 0"
       inkscape:vp_x="0 : 526.18109 : 1"
       sodipodi:type="inkscape:persp3d" />
    <inkscape:perspective
       sodipodi:type="inkscape:persp3d"
       inkscape:vp_x="0 : 526.18109 : 1"
       inkscape:vp_y="0 : 1000 : 0"
       inkscape:vp_z="744.09448 : 526.18109 : 1"
       inkscape:persp3d-origin="372.04724 : 350.78739 : 1"
       id="perspective3956" />
    <inkscape:perspective
       sodipodi:type="inkscape:persp3d"
       inkscape:vp_x="0 : 526.18109 : 1"
       inkscape:vp_y="0 : 1000 : 0"
       inkscape:vp_z="744.09448 : 526.18109 : 1"
       inkscape:persp3d-origin="372.04724 : 350.78739 : 1"
       id="perspective3954" />
    <inkscape:perspective
       id="perspective3952"
       inkscape:persp3d-origin="16 : 10.666667 : 1"
       inkscape:vp_z="32 : 16 : 1"
       inkscape:vp_y="0 : 1000 : 0"
       inkscape:vp_x="0 : 16 : 1"
       sodipodi:type="inkscape:persp3d" />
  </defs>
  <sodipodi:namedview
     id="base"
     pagecolor="#ffffff"
     bordercolor="#666666"
     borderopacity="1.0"
     inkscape:pageopacity="0.0"
     inkscape:pageshadow="2"
     inkscape:zoom="14.375"
     inkscape:cx="16"
     inkscape:cy="16"
     inkscape:current-layer="layer1"
     showgrid="true"
     inkscape:grid-bbox="true"
     inkscape:document-units="px"
     objecttolerance="4"
     gridtolerance="4"
     guidetolerance="4"
     inkscape:window-width="641"
     inkscape:window-height="678"
     inkscape:window-x="0"
     inkscape:window-y="37"
     inkscape:object-paths="true"
     inkscape:object-nodes="true"
     inkscape:snap-bbox="true"
     inkscape:snap-guide="true"
     showguides="true"
     inkscape:guide-bbox="true">
    <inkscape:grid
       type="xygrid"
       id="grid3515"
       units="px"
       visible="true"
       enabled="true"
       spacingx="1px"
       spacingy="1px" />
  </sodipodi:namedview>
  <metadata
     id="metadata3510">
    <rdf:RDF>
      <cc:Work
         rdf:about="">
        <dc:format>image/svg+xml</dc:format>
        <dc:type
           rdf:resource="http://purl.org/dc/dcmitype/StillImage" />
        <dc:title>Skull 00</dc:title>
        <dc:date>2010-05-06</dc:date>
        <dc:creator>
          <cc:Agent>
            <dc:title>Andreas Neudecker &lt;zapyon@gmx.net&gt;</dc:title>
          </cc:Agent>
        </dc:creator>
        <dc:rights>
          <cc:Agent>
            <dc:title>Copyright (C) 2010 by Andreas Neudecker</dc:title>
          </cc:Agent>
        </dc:rights>
        <dc:publisher>
          <cc:Agent>
            <dc:title>Andreas Neudecker</dc:title>
          </cc:Agent>
        </dc:publisher>
        <dc:identifier>skull-00</dc:identifier>
        <dc:description>Poisonous skull.</dc:description>
      </cc:Work>
    </rdf:RDF>
  </metadata>
  <g
     id="layer1"
     inkscape:label="Layer 1"
     inkscape:groupmode="layer">
    <path
       style="fill:none;fill-opacity:1;fill-rule:nonzero;stroke:#000000;stroke-width:2;stroke-linecap:round;stroke-linejoin:miter;stroke-miterlimit:4;stroke-dasharray:none;stroke-dashoffset:0;stroke-opacity:1"
       d="M 11,1 L 12,5 L 10,5 C 9.448,5 9,5.448 9,6 L 9,8 C 9,8.552 9.448,9 10,9 L 12,9 L 12,10 L 12,11 C 11.861418,11.334566 11.722786,11.590765 11,12 C 10.277214,12.409235 7.9073835,13.486248 7,14 C 6.0926165,14.513752 5,15 5,17 C 5,18 5,18 5,18 L 5,28 C 5,29.656 6.344,31 8,31 L 23,31 C 23.282734,31 23.554451,30.949845 23.8125,30.875 C 23.907328,30.847879 24.003006,30.817225 24.09375,30.78125 C 24.115907,30.772351 24.134355,30.759413 24.15625,30.75 C 25.232875,30.294375 26,29.242 26,28 L 26,18 C 26,18 26,18 26,17 C 26,15 24.907383,14.513752 24,14 C 23.092617,13.486248 20.722786,12.409235 20,12 C 19.277214,11.590765 19.138582,11.334566 19,11 L 19,10 L 19,9 L 21,9 C 21.552,9 22,8.552 22,8 L 22,6 C 22,5.448 21.552,5 21,5 L 19,5 L 20,1 L 11,1 z"
       id="path3851" />
    <path
       style="fill:#008000;fill-opacity:1;fill-rule:nonzero;stroke:none;stroke-width:4;stroke-linecap:round;stroke-linejoin:round;stroke-miterlimit:4;stroke-dasharray:none;stroke-dashoffset:0;stroke-opacity:1"
       d="M 10,5 C 9.448,5 9,5.448 9,6 L 9,8 C 9,8.552 9.448,9 10,9 L 21,9 C 21.552,9 22,8.552 22,8 L 22,6 C 22,5.448 21.552,5 21,5 L 10,5 z"
       id="rect3748" />
    <path
       style="fill:#ffaa00;fill-opacity:1;fill-rule:nonzero;stroke:none;stroke-width:4;stroke-linecap:round;stroke-linejoin:round;stroke-miterlimit:4;stroke-dasharray:none;stroke-dashoffset:0;stroke-opacity:1"
       d="M 11,1 L 12,5 L 19,5 L 20,1 L 11,1 z"
       id="path3763" />
    <path
       style="fill:#aa5500;fill-opacity:1;fill-rule:nonzero;stroke:none;stroke-width:4;stroke-linecap:round;stroke-linejoin:round;stroke-miterlimit:4;stroke-dasharray:none;stroke-dashoffset:0;stroke-opacity:1"
       d="M 11,1 L 12,5 L 14,5 L 14,1 L 11,1 z"
       id="path3765"
       sodipodi:nodetypes="ccccc" />
    <path
       style="fill:#008000;fill-opacity:1;fill-rule:nonzero;stroke:none;stroke-width:4;stroke-linecap:round;stroke-linejoin:round;stroke-miterlimit:4;stroke-dasharray:none;stroke-dashoffset:0;stroke-opacity:1"
       d="M 12,9 L 12,10 L 12,11 C 11.861418,11.334566 11.722786,11.590765 11,12 C 10.277214,12.409235 7.9073835,13.486248 7,14 C 6.0926165,14.513752 5,15 5,17 C 5,18 5,18 5,18 L 5,28 C 5,29.656 6.344,31 8,31 L 23,31 C 24.656,31 26,29.656 26,28 L 26,18 C 26,18 26,18 26,17 C 26,15 24.907383,14.513752 24,14 C 23.092617,13.486248 20.722786,12.409235 20,12 C 19.277214,11.590765 19.138582,11.334566 19,11 L 19,10 L 19,9 L 12,9 z"
       id="path3769"
       sodipodi:nodetypes="cccsssccccccssscccc" />
    <path
       style="fill:#005500;fill-opacity:1;fill-rule:nonzero;stroke:none;stroke-width:4;stroke-linecap:round;stroke-linejoin:round;stroke-miterlimit:4;stroke-dasharray:none;stroke-dashoffset:0;stroke-opacity:1"
       d="M 12,9 L 12,10 L 12,11 C 11.861418,11.334566 11.722786,11.590765 11,12 C 10.277214,12.409235 7.9073835,13.486248 7,14 C 6.0926165,14.513752 5,15 5,17 C 5,18 5,18 5,18 L 5,28 C 5,29.656 6.344,31 8,31 L 23,31 C 23.771988,31 24.468171,30.698356 25,30.21875 L 25,30 C 25,30 18,29 16,29 C 14,29 9,30 8,29 C 7,28 7,27 7,27 C 7,27 7,18 7,17 C 7,16 11,14 12,13 C 13,12 13,9 13,9 L 12,9 z"
       id="path3784" />
    <path
       style="fill:#005500;fill-opacity:1;fill-rule:nonzero;stroke:none;stroke-width:4;stroke-linecap:round;stroke-linejoin:round;stroke-miterlimit:4;stroke-dasharray:none;stroke-dashoffset:0;stroke-opacity:1"
       d="M 10,5 C 9.448,5 9,5.448 9,6 L 9,8 C 9,8.552 9.448,9 10,9 L 21,9 C 21.552,9 22,8.552 22,8 C 22,8 12,8 11,8 C 10,8 10,5 10,5 z"
       id="path3789" />
    <path
       sodipodi:type="arc"
       style="fill:#aa5500;fill-opacity:1;fill-rule:nonzero;stroke:none;stroke-width:4;stroke-linecap:round;stroke-linejoin:round;stroke-miterlimit:4;stroke-dasharray:none;stroke-dashoffset:0;stroke-opacity:1"
       id="path3794"
       sodipodi:cx="15.5"
       sodipodi:cy="3.5"
       sodipodi:rx="0.5"
       sodipodi:ry="0.5"
       d="M 16,3.5 A 0.5,0.5 0 1 1 15,3.5 A 0.5,0.5 0 1 1 16,3.5 z" />
    <path
       sodipodi:type="arc"
       style="fill:#aa5500;fill-opacity:1;fill-rule:nonzero;stroke:none;stroke-width:4;stroke-linecap:round;stroke-linejoin:round;stroke-miterlimit:4;stroke-dasharray:none;stroke-dashoffset:0;stroke-opacity:1"
       id="path3796"
       sodipodi:cx="17.5"
       sodipodi:cy="2.5"
       sodipodi:rx="0.5"
       sodipodi:ry="0.5"
       d="M 18,2.5 A 0.5,0.5 0 1 1 17,2.5 A 0.5,0.5 0 1 1 18,2.5 z" />
    <path
       sodipodi:type="arc"
       style="fill:#aa5500;fill-opacity:1;fill-rule:nonzero;stroke:none;stroke-width:4;stroke-linecap:round;stroke-linejoin:round;stroke-miterlimit:4;stroke-dasharray:none;stroke-dashoffset:0;stroke-opacity:1"
       id="path3798"
       sodipodi:cx="18.5"
       sodipodi:cy="4.5"
       sodipodi:rx="0.5"
       sodipodi:ry="0.5"
       d="M 19,4.5 A 0.5,0.5 0 1 1 18,4.5 A 0.5,0.5 0 1 1 19,4.5 z" />
    <rect
       style="fill:#ffff00;fill-opacity:1;fill-rule:nonzero;stroke:none;stroke-width:4;stroke-linecap:round;stroke-linejoin:round;stroke-miterlimit:4;stroke-dasharray:none;stroke-dashoffset:0;stroke-opacity:1"
       id="rect3800"
       width="12.875"
       height="13"
       x="9.125"
       y="15" />
    <path
       style="fill:#000000;fill-opacity:1;fill-rule:nonzero;stroke:none;stroke-width:0.01;stroke-linecap:square;stroke-linejoin:bevel;stroke-miterlimit:4;stroke-dasharray:none;stroke-dashoffset:0;stroke-opacity:1"
       d="M 15.5625,16.026316 C 15.414985,16.026316 15.272607,16.030686 15.12829,16.039473 C 12.544002,16.196848 10.509868,17.734175 10.509868,19.605264 C 10.509868,20.905721 11.491322,22.044336 12.957236,22.671053 L 12.615132,24.026316 L 13.036184,24.026316 L 13.036184,24.86842 L 13.87829,24.86842 L 13.87829,24.026316 L 14.299342,24.026316 L 14.299342,24.86842 L 15.141447,24.86842 L 15.141447,24.026316 L 16.825658,24.026316 L 16.825658,24.86842 L 17.667764,24.86842 L 17.667764,24.026316 L 18.509868,24.026316 L 18.167763,22.671053 C 19.633678,22.044335 20.615132,20.905721 20.615132,19.605264 C 20.615132,17.734175 18.580998,16.196848 15.99671,16.039473 C 15.855222,16.027248 15.707764,16.026316 15.5625,16.026316 z M 14.088816,18.973684 C 14.669868,18.973684 15.141447,19.633894 15.141447,20.447368 C 15.141447,21.260841 14.669868,21.921052 14.088816,21.921052 C 13.507763,21.921052 13.036184,21.260841 13.036184,20.447368 C 13.036184,19.633894 13.507763,18.973684 14.088816,18.973684 z M 17.036184,18.973684 C 17.617237,18.973684 18.088815,19.633894 18.088815,20.447368 C 18.088815,21.260841 17.617237,21.921052 17.036184,21.921052 C 16.455132,21.921052 15.983553,21.260841 15.983553,20.447368 C 15.983553,19.633894 16.455132,18.973684 17.036184,18.973684 z M 15.351974,21.499999 L 15.351974,22.763158 L 14.720394,22.763158 L 15.351974,21.499999 z M 15.773026,21.499999 L 16.404605,22.763158 L 15.773026,22.763158 L 15.773026,21.499999 z M 13.036184,25.289474 L 13.036184,26.131579 L 12.615132,26.131579 C 12.615132,26.596421 13.181026,26.973684 13.87829,26.973684 L 17.24671,26.973684 C 17.34578,26.973684 17.443857,26.961703 17.536184,26.947369 C 17.553376,26.944611 17.571904,26.95059 17.588815,26.947369 C 17.673435,26.931768 17.749264,26.894838 17.825658,26.868421 C 17.845886,26.861356 17.871883,26.863024 17.891448,26.855262 C 17.985077,26.818392 18.065378,26.774979 18.141447,26.723684 C 18.370079,26.571264 18.509868,26.364 18.509868,26.131579 L 17.667764,26.131579 L 17.667764,25.289474 L 16.825658,25.289474 L 16.825658,26.131579 L 16.404605,26.131579 L 16.404605,25.289474 L 15.5625,25.289474 L 15.5625,26.131579 L 13.87829,26.131579 L 13.87829,25.289474 L 13.036184,25.289474 z"
       id="path2421"
       sodipodi:nodetypes="cssccccccccccccccccscccsssccsssccccccccccccccssssscccccccccccc" />
  </g>
</svg>
