<?xml version="1.0" encoding="UTF-8" standalone="no"?>
<!-- Created with Inkscape (http://www.inkscape.org/) -->

<svg xmlns:dc="http://purl.org/dc/elements/1.1/" xmlns:cc="http://creativecommons.org/ns#" xmlns:rdf="http://www.w3.org/1999/02/22-rdf-syntax-ns#" xmlns:svg="http://www.w3.org/2000/svg" xmlns="http://www.w3.org/2000/svg" xmlns:sodipodi="http://sodipodi.sourceforge.net/DTD/sodipodi-0.dtd" xmlns:inkscape="http://www.inkscape.org/namespaces/inkscape" width="32px" height="32px" id="svg3505" sodipodi:version="0.32" inkscape:version="0.91 r13725" sodipodi:docname="00.svg" inkscape:output_extension="org.inkscape.output.svg.inkscape" version="1.1">
  <defs id="defs3507">
    <inkscape:perspective sodipodi:type="inkscape:persp3d" inkscape:vp_x="0 : 16 : 1" inkscape:vp_y="0 : 1000 : 0" inkscape:vp_z="32 : 16 : 1" inkscape:persp3d-origin="16 : 10.666667 : 1" id="perspective3513" />
    <inkscape:perspective id="perspective4690" inkscape:persp3d-origin="372.04724 : 350.78739 : 1" inkscape:vp_z="744.09448 : 526.18109 : 1" inkscape:vp_y="0 : 1000 : 0" inkscape:vp_x="0 : 526.18109 : 1" sodipodi:type="inkscape:persp3d" />
    <inkscape:perspective id="perspective2564" inkscape:persp3d-origin="372.04724 : 350.78739 : 1" inkscape:vp_z="744.09448 : 526.18109 : 1" inkscape:vp_y="0 : 1000 : 0" inkscape:vp_x="0 : 526.18109 : 1" sodipodi:type="inkscape:persp3d" />
  </defs>
  <sodipodi:namedview id="base" pagecolor="#ffffff" bordercolor="#666666" borderopacity="1.0" inkscape:pageopacity="0.0" inkscape:pageshadow="2" inkscape:zoom="22.125" inkscape:cx="16" inkscape:cy="16.265943" inkscape:current-layer="layer1" showgrid="true" inkscape:grid-bbox="true" inkscape:document-units="px" objecttolerance="4" gridtolerance="4" guidetolerance="4" inkscape:window-width="1600" inkscape:window-height="878" inkscape:window-x="0" inkscape:window-y="0" inkscape:object-paths="true" inkscape:object-nodes="true" inkscape:snap-bbox="true" inkscape:snap-guide="true" showguides="true" inkscape:guide-bbox="true" inkscape:window-maximized="1">
    <inkscape:grid type="xygrid" id="grid3515" units="px" visible="true" enabled="true" spacingx="1px" spacingy="1px" empspacing="4" />
    <sodipodi:guide orientation="-0.70710678,0.70710678" position="33.245902,33.245902" id="guide3622" />
    <sodipodi:guide orientation="0.70710678,0.70710678" position="0,32" id="guide3624" />
  </sodipodi:namedview>
  <metadata id="metadata3510">
    <rdf:RDF>
      <cc:Work rdf:about="">
        <dc:format>image/svg+xml</dc:format>
        <dc:type rdf:resource="http://purl.org/dc/dcmitype/StillImage" />
        <dc:title>Vorlage f端r 32x32-Pixel-Icons f端r McMinos</dc:title>
        <dc:date>2010-04-05</dc:date>
        <dc:creator>
          <cc:Agent>
            <dc:title>Andreas Neudecker &lt;zapyon@gmx.net&gt;</dc:title>
          </cc:Agent>
        </dc:creator>
        <dc:rights>
          <cc:Agent>
            <dc:title>Copyright (C) 2010 by Andreas Neudecker</dc:title>
          </cc:Agent>
        </dc:rights>
        <dc:publisher>
          <cc:Agent>
            <dc:title>Andreas Neudecker</dc:title>
          </cc:Agent>
        </dc:publisher>
        <dc:identifier>vorlage-32x32-mcminos</dc:identifier>
        <dc:description>Vorlage f端r 32x32-Pixel-Icons f端r McMinos. Metadaten jeweils entsprechend anpassen!</dc:description>
      </cc:Work>
    </rdf:RDF>
  </metadata>
  <g id="layer1" inkscape:label="Layer 1" inkscape:groupmode="layer">
    <g id="g9764">
      <rect y="0" x="0" height="32" width="32" id="rect9762" style="opacity:1;fill:none;fill-opacity:0.50364966;fill-rule:nonzero;stroke:none;stroke-width:2;stroke-linecap:butt;stroke-linejoin:miter;stroke-miterlimit:4;stroke-dasharray:none;stroke-dashoffset:0;stroke-opacity:1" />
      <path id="path3635" d="M 3 3 L 3 8.15625 A 8 8 0 0 1 6.1328125 5.0078125 A 4 4 0 0 1 6 4 A 4 4 0 0 1 6.1308594 3 L 3 3 z M 26.236328 3 A 8 8 0 0 1 27.673828 5.7519531 A 4 4 0 0 1 30 5 A 4 4 0 0 1 32 5.5410156 L 32 3 L 29 3 L 26.236328 3 z M 32 12.458984 A 4 4 0 0 1 30 13 A 4 4 0 0 1 29.921875 12.996094 A 12 12 0 0 1 32 16.236328 L 32 12.458984 z M 3 15.863281 L 3 29 L 3 32 L 6.0097656 32 A 5 5 0 0 1 4 28 A 5 5 0 0 1 5.4121094 24.525391 A 8 8 0 0 1 4 20 A 8 8 0 0 1 4.3515625 17.658203 A 8 8 0 0 1 3 15.863281 z M 32 25.759766 A 12 12 0 0 1 29.925781 29 L 32 29 L 32 25.759766 z M 29 29.927734 A 12 12 0 0 1 25.783203 32 L 29 32 L 29 29.927734 z M 13.433594 30.302734 A 5 5 0 0 1 11.986328 32 L 16.248047 32 A 12 12 0 0 1 13.433594 30.302734 z " style="fill:black;fill-opacity:1;fill-rule:nonzero;stroke:none;stroke-width:2;stroke-linecap:round;stroke-linejoin:miter;stroke-miterlimit:4;stroke-dashoffset:0;stroke-opacity:1" />
      <path id="path3646" d="M 31.884766 16 A 12 12 0 0 1 32 16.236328 L 32 16 L 31.884766 16 z M 32 25.759766 A 12 12 0 0 1 30.728516 28 L 32 28 L 32 25.759766 z " style="fill:blue;fill-opacity:1;fill-rule:nonzero;stroke:none;stroke-width:2;stroke-linecap:round;stroke-linejoin:miter;stroke-miterlimit:4;stroke-dasharray:none;stroke-dashoffset:0;stroke-opacity:1" />
      <path id="path3648" d="M 28 30.734375 A 12 12 0 0 1 25.783203 32 L 28 32 L 28 30.734375 z M 16 31.884766 L 16 32 L 16.248047 32 A 12 12 0 0 1 16 31.884766 z " style="fill:aqua;fill-opacity:1;fill-rule:nonzero;stroke:none;stroke-width:2;stroke-linecap:round;stroke-linejoin:miter;stroke-miterlimit:4;stroke-dasharray:none;stroke-dashoffset:0;stroke-opacity:1" />
      <path id="path2570" d="M 4 4 L 5.4394531 5.4394531 A 8 8 0 0 1 6.1328125 5.0078125 A 4 4 0 0 1 6 4 L 4 4 z M 26.912109 4 A 8 8 0 0 1 27.673828 5.7519531 A 4 4 0 0 1 30 5 A 4 4 0 0 1 32 5.5410156 L 32 4 L 26.912109 4 z M 32 12.458984 A 4 4 0 0 1 30 13 A 4 4 0 0 1 29.921875 12.996094 A 12 12 0 0 1 31.884766 16 L 32 16 L 32 12.458984 z " style="fill:aqua;fill-opacity:1;fill-rule:nonzero;stroke:none;stroke-width:2;stroke-linecap:round;stroke-linejoin:miter;stroke-miterlimit:4;stroke-dasharray:none;stroke-dashoffset:0;stroke-opacity:1" />
      <path id="path3342" d="M 4 4 L 4 6.734375 A 8 8 0 0 1 5.4394531 5.4394531 L 4 4 z M 4 17.275391 L 4 20 A 8 8 0 0 1 4.3515625 17.658203 A 8 8 0 0 1 4 17.275391 z M 4 20 L 4 28 A 5 5 0 0 1 5.4121094 24.525391 A 8 8 0 0 1 4 20 z M 4 28 L 4 32 L 6.0097656 32 A 5 5 0 0 1 4 28 z M 13.433594 30.302734 A 5 5 0 0 1 11.986328 32 L 16 32 L 16 31.884766 A 12 12 0 0 1 13.433594 30.302734 z " style="fill:blue;fill-opacity:1;fill-rule:nonzero;stroke:none;stroke-width:2;stroke-linecap:round;stroke-linejoin:miter;stroke-miterlimit:4;stroke-dasharray:none;stroke-dashoffset:0;stroke-opacity:1" />
      <path id="path3626" d="M 5 5 L 5.4394531 5.4394531 A 8 8 0 0 1 6.1328125 5.0078125 A 4 4 0 0 1 6.1308594 5.0019531 L 5 5 z M 27.419922 5.0253906 A 8 8 0 0 1 27.673828 5.7519531 A 4 4 0 0 1 29.556641 5.0292969 L 27.419922 5.0253906 z M 30.443359 5.0292969 A 4 4 0 0 1 32 5.5410156 L 32 5.03125 L 30.443359 5.0292969 z M 29.949219 13.027344 A 12 12 0 0 1 30.740234 14.029297 L 32 14.03125 L 32 13.03125 L 29.949219 13.027344 z " style="fill:#c3c3c3;fill-opacity:1;fill-rule:nonzero;stroke:none;stroke-width:2;stroke-linecap:round;stroke-linejoin:miter;stroke-miterlimit:4;stroke-dasharray:none;stroke-dashoffset:0;stroke-opacity:1" />
      <path id="path3368" d="M 5 5 L 5 5.7753906 A 8 8 0 0 1 5.4394531 5.4394531 L 5 5 z M 5.0214844 23.892578 L 5.0234375 24.982422 A 5 5 0 0 1 5.4121094 24.525391 A 8 8 0 0 1 5.0214844 23.892578 z M 13.433594 30.302734 A 5 5 0 0 1 13.029297 30.941406 L 13.03125 32 L 14.03125 32 L 14.029297 30.740234 A 12 12 0 0 1 13.433594 30.302734 z M 5.0292969 31.029297 L 5.03125 32 L 6.0097656 32 A 5 5 0 0 1 5.0292969 31.029297 z M 12.03125 31.964844 A 5 5 0 0 1 11.986328 32 L 12.03125 32 L 12.03125 31.964844 z " style="fill:#6b6b6b;fill-opacity:1;fill-rule:nonzero;stroke:none;stroke-width:2;stroke-linecap:round;stroke-linejoin:miter;stroke-miterlimit:4;stroke-dasharray:none;stroke-dashoffset:0;stroke-opacity:1" />
      <path id="rect3926" d="M 31.367188 15 A 12 12 0 0 1 32 16.236328 L 32 15 L 31.367188 15 z M 15 31.367188 L 15 32 L 16.248047 32 A 12 12 0 0 1 15 31.367188 z " style="fill:#0080ff;fill-opacity:1;fill-rule:nonzero;stroke:none;stroke-width:2;stroke-linecap:round;stroke-linejoin:miter;stroke-miterlimit:4;stroke-dasharray:none;stroke-dashoffset:0;stroke-opacity:1" />
      <path id="path3650" d="M 31.892578 26 A 12 12 0 0 1 31.375 27 L 32 27 L 32 26 L 31.892578 26 z " style="fill:#6b6b6b;fill-opacity:1;fill-rule:nonzero;stroke:none;stroke-width:2;stroke-linecap:round;stroke-linejoin:miter;stroke-miterlimit:4;stroke-dasharray:none;stroke-dashoffset:0;stroke-opacity:1" />
      <path id="path3652" d="M 27 31.380859 A 12 12 0 0 1 26 31.894531 L 26 32 L 27 32 L 27 31.380859 z " style="fill:#c3c3c3;fill-opacity:1;fill-rule:nonzero;stroke:none;stroke-width:2;stroke-linecap:round;stroke-linejoin:miter;stroke-miterlimit:4;stroke-dasharray:none;stroke-dashoffset:0;stroke-opacity:1" />
    </g>
    <g id="g5562">
      <rect y="0" x="36" height="32" width="32" id="rect5558" style="opacity:1;fill:blue;fill-opacity:0.50196078;fill-rule:nonzero;stroke:none;stroke-width:2;stroke-linecap:butt;stroke-linejoin:miter;stroke-miterlimit:4;stroke-dasharray:none;stroke-dashoffset:0;stroke-opacity:1" />
      <rect style="opacity:1;fill:blue;fill-opacity:0.50196078;fill-rule:nonzero;stroke:none;stroke-width:2;stroke-linecap:butt;stroke-linejoin:miter;stroke-miterlimit:4;stroke-dasharray:none;stroke-dashoffset:0;stroke-opacity:1" id="rect5560" width="26" height="26" x="39" y="3" />
    </g>
    <g id="g5575">
      <path inkscape:connector-curvature="0" id="rect5566" d="m 39,0 0,3 26,0 0,-3 -26,0 z m 26,3 0,26 3,0 0,-26 -3,0 z m 0,26 -26,0 0,3 26,0 0,-3 z m -26,0 0,-26 -3,0 0,26 3,0 z" style="opacity:1;fill:yellow;fill-opacity:0.50196078;fill-rule:nonzero;stroke:none;stroke-width:2;stroke-linecap:butt;stroke-linejoin:miter;stroke-miterlimit:4;stroke-dasharray:none;stroke-dashoffset:0;stroke-opacity:1" />
    </g>
    <circle style="opacity:1;fill:red;fill-opacity:0.50196078;fill-rule:nonzero;stroke:none;stroke-width:2;stroke-linecap:butt;stroke-linejoin:miter;stroke-miterlimit:4;stroke-dasharray:none;stroke-dashoffset:0;stroke-opacity:1" id="path4749" cx="-48" cy="-20" r="8" transform="scale(-1,-1)" />
    <circle style="opacity:1;fill:red;fill-opacity:0.50196078;fill-rule:nonzero;stroke:none;stroke-width:2;stroke-linecap:butt;stroke-linejoin:miter;stroke-miterlimit:4;stroke-dasharray:none;stroke-dashoffset:0;stroke-opacity:1" id="path4751" cx="-57" cy="-21" r="12" transform="scale(-1,-1)" />
    <circle r="8" cy="-8" cx="-56" id="circle4753" style="opacity:1;fill:red;fill-opacity:0.50196078;fill-rule:nonzero;stroke:none;stroke-width:2;stroke-linecap:butt;stroke-linejoin:miter;stroke-miterlimit:4;stroke-dasharray:none;stroke-dashoffset:0;stroke-opacity:1" transform="scale(-1,-1)" />
    <circle r="5" cy="-28" cx="-45" id="circle4759" style="opacity:1;fill:red;fill-opacity:0.50196078;fill-rule:nonzero;stroke:none;stroke-width:2;stroke-linecap:butt;stroke-linejoin:miter;stroke-miterlimit:4;stroke-dasharray:none;stroke-dashoffset:0;stroke-opacity:1" transform="scale(-1,-1)" />
    <circle style="opacity:1;fill:red;fill-opacity:0.50196078;fill-rule:nonzero;stroke:none;stroke-width:2;stroke-linecap:butt;stroke-linejoin:miter;stroke-miterlimit:4;stroke-dasharray:none;stroke-dashoffset:0;stroke-opacity:1" id="circle4761" cx="-46" cy="-4" r="4" transform="scale(-1,-1)" />
    <circle style="opacity:1;fill:red;fill-opacity:0.50196078;fill-rule:nonzero;stroke:none;stroke-width:2;stroke-linecap:butt;stroke-linejoin:miter;stroke-miterlimit:4;stroke-dasharray:none;stroke-dashoffset:0;stroke-opacity:1" id="circle4765" cx="-58" cy="-6" r="4" transform="scale(-1,-1)" />
    <circle style="opacity:1;fill:red;fill-opacity:0.50196078;fill-rule:nonzero;stroke:none;stroke-width:2;stroke-linecap:butt;stroke-linejoin:miter;stroke-miterlimit:4;stroke-dasharray:none;stroke-dashoffset:0;stroke-opacity:1" id="circle4769" cx="-66" cy="-9" r="4" transform="scale(-1,-1)" />
    <circle style="opacity:1;fill:red;fill-opacity:0.50196078;fill-rule:nonzero;stroke:none;stroke-width:2;stroke-linecap:butt;stroke-linejoin:miter;stroke-miterlimit:4;stroke-dasharray:none;stroke-dashoffset:0;stroke-opacity:1" id="circle4771" cx="-46" cy="-12" r="8" transform="scale(-1,-1)" />
    <path inkscape:connector-curvature="0" id="path9717" d="m -26,0 a 4,4 0 0 0 -4,4 4,4 0 0 0 0.132812,1.0078125 A 8,8 0 0 0 -34,12 8,8 0 0 0 -31.648438,17.658203 8,8 0 0 0 -32,20 8,8 0 0 0 -30.587891,24.525391 5,5 0 0 0 -32,28 a 5,5 0 0 0 5,5 5,5 0 0 0 4.433594,-2.697266 A 12,12 0 0 0 -15,33 12,12 0 0 0 -3,21 12,12 0 0 0 -6.078125,12.996094 4,4 0 0 0 -6,13 4,4 0 0 0 -2,9 4,4 0 0 0 -6,5 4,4 0 0 0 -8.326172,5.7519531 8,8 0 0 0 -16,0 8,8 0 0 0 -22.158203,2.8964844 4,4 0 0 0 -26,0 Z" style="opacity:1;fill:red;fill-opacity:0.50196078;fill-rule:nonzero;stroke:none;stroke-width:2;stroke-linecap:butt;stroke-linejoin:miter;stroke-miterlimit:4;stroke-dasharray:none;stroke-dashoffset:0;stroke-opacity:1" />
  </g>
</svg>
