<?xml version="1.0" encoding="UTF-8" standalone="no"?>
<!-- Created with Inkscape (http://www.inkscape.org/) -->

<svg xmlns:dc="http://purl.org/dc/elements/1.1/" xmlns:cc="http://creativecommons.org/ns#" xmlns:rdf="http://www.w3.org/1999/02/22-rdf-syntax-ns#" xmlns:svg="http://www.w3.org/2000/svg" xmlns="http://www.w3.org/2000/svg" xmlns:sodipodi="http://sodipodi.sourceforge.net/DTD/sodipodi-0.dtd" xmlns:inkscape="http://www.inkscape.org/namespaces/inkscape" width="32px" height="32px" id="svg3505" sodipodi:version="0.32" inkscape:version="0.91 r13725" sodipodi:docname="00.svg" inkscape:output_extension="org.inkscape.output.svg.inkscape" version="1.1">
  <defs id="defs3507">
    <inkscape:perspective sodipodi:type="inkscape:persp3d" inkscape:vp_x="0 : 16 : 1" inkscape:vp_y="0 : 1000 : 0" inkscape:vp_z="32 : 16 : 1" inkscape:persp3d-origin="16 : 10.666667 : 1" id="perspective3513" />
    <inkscape:perspective id="perspective4690" inkscape:persp3d-origin="372.04724 : 350.78739 : 1" inkscape:vp_z="744.09448 : 526.18109 : 1" inkscape:vp_y="0 : 1000 : 0" inkscape:vp_x="0 : 526.18109 : 1" sodipodi:type="inkscape:persp3d" />
    <inkscape:perspective id="perspective2564" inkscape:persp3d-origin="372.04724 : 350.78739 : 1" inkscape:vp_z="744.09448 : 526.18109 : 1" inkscape:vp_y="0 : 1000 : 0" inkscape:vp_x="0 : 526.18109 : 1" sodipodi:type="inkscape:persp3d" />
  </defs>
  <sodipodi:namedview id="base" pagecolor="#ffffff" bordercolor="#666666" borderopacity="1.0" inkscape:pageopacity="0.0" inkscape:pageshadow="2" inkscape:zoom="22.125" inkscape:cx="16" inkscape:cy="16" inkscape:current-layer="layer1" showgrid="true" inkscape:grid-bbox="true" inkscape:document-units="px" objecttolerance="4" gridtolerance="4" guidetolerance="4" inkscape:window-width="1600" inkscape:window-height="878" inkscape:window-x="0" inkscape:window-y="0" inkscape:object-paths="true" inkscape:object-nodes="true" inkscape:snap-bbox="true" inkscape:snap-guide="true" showguides="true" inkscape:guide-bbox="true" inkscape:window-maximized="1">
    <inkscape:grid type="xygrid" id="grid3515" units="px" visible="true" enabled="true" spacingx="1px" spacingy="1px" empspacing="4" />
    <sodipodi:guide orientation="-0.70710678,0.70710678" position="33.245902,33.245902" id="guide3622" />
    <sodipodi:guide orientation="0.70710678,0.70710678" position="0,32" id="guide3624" />
  </sodipodi:namedview>
  <metadata id="metadata3510">
    <rdf:RDF>
      <cc:Work rdf:about="">
        <dc:format>image/svg+xml</dc:format>
        <dc:type rdf:resource="http://purl.org/dc/dcmitype/StillImage" />
        <dc:title>Vorlage f端r 32x32-Pixel-Icons f端r McMinos</dc:title>
        <dc:date>2010-04-05</dc:date>
        <dc:creator>
          <cc:Agent>
            <dc:title>Andreas Neudecker &lt;zapyon@gmx.net&gt;</dc:title>
          </cc:Agent>
        </dc:creator>
        <dc:rights>
          <cc:Agent>
            <dc:title>Copyright (C) 2010 by Andreas Neudecker</dc:title>
          </cc:Agent>
        </dc:rights>
        <dc:publisher>
          <cc:Agent>
            <dc:title>Andreas Neudecker</dc:title>
          </cc:Agent>
        </dc:publisher>
        <dc:identifier>vorlage-32x32-mcminos</dc:identifier>
        <dc:description>Vorlage f端r 32x32-Pixel-Icons f端r McMinos. Metadaten jeweils entsprechend anpassen!</dc:description>
      </cc:Work>
    </rdf:RDF>
  </metadata>
  <g id="layer1" inkscape:label="Layer 1" inkscape:groupmode="layer">
    <g id="g10572">
      <rect y="0" x="0" height="32" width="32" id="rect10570" style="opacity:1;fill:none;fill-opacity:0.50364966;fill-rule:nonzero;stroke:none;stroke-width:2;stroke-linecap:butt;stroke-linejoin:miter;stroke-miterlimit:4;stroke-dasharray:none;stroke-dashoffset:0;stroke-opacity:1" />
      <path id="path3635" d="M 3 0 L 3 2.6992188 A 11 11 0 0 1 5.6855469 0 L 3 0 z M 18.291016 0 A 11 11 0 0 1 19.541016 1.0019531 A 4 4 0 0 1 20.365234 0 L 18.291016 0 z M 25.638672 0 A 4 4 0 0 1 27 3 A 8 8 0 0 1 32 4.7558594 L 32 3 L 29 3 L 29 0 L 25.638672 0 z M 3 15.300781 L 3 24.365234 A 4 4 0 0 1 3.0332031 24.324219 A 8 8 0 0 1 6.4042969 18.455078 A 11 11 0 0 1 3 15.300781 z M 32 17.224609 A 8 8 0 0 1 30.371094 18.246094 A 4 4 0 0 1 32 19.363281 L 32 17.224609 z M 32 24.638672 A 4 4 0 0 1 29 26 A 4 4 0 0 1 28.392578 25.951172 A 8 8 0 0 1 29 29 L 32 29 L 32 24.638672 z M 29 29 A 8 8 0 0 1 28.412109 32 L 29 32 L 29 29 z M 3 29.640625 L 3 32 L 7.1542969 32 A 8 8 0 0 1 5.7109375 30.990234 A 4 4 0 0 1 3 29.640625 z " style="fill:black;fill-opacity:1;fill-rule:nonzero;stroke:none;stroke-width:2;stroke-linecap:round;stroke-linejoin:miter;stroke-miterlimit:4;stroke-dashoffset:0;stroke-opacity:1" />
      <path id="path3646" d="M 32 17.224609 A 8 8 0 0 1 30.371094 18.246094 A 4 4 0 0 1 32 19.363281 L 32 17.224609 z M 32 24.638672 A 4 4 0 0 1 29 26 A 4 4 0 0 1 28.392578 25.951172 A 8 8 0 0 1 28.927734 28 L 32 28 L 32 24.638672 z " style="opacity:1;fill:blue;fill-opacity:1;fill-rule:nonzero;stroke:none;stroke-width:2;stroke-linecap:round;stroke-linejoin:miter;stroke-miterlimit:4;stroke-dasharray:none;stroke-dashoffset:0;stroke-opacity:1" />
      <path id="path3644" d="M 4 0 L 4 1.4609375 A 11 11 0 0 1 5.6855469 0 L 4 0 z M 4 16.515625 L 4 21.15625 A 8 8 0 0 1 6.4042969 18.455078 A 11 11 0 0 1 4 16.515625 z M 4 30.458984 L 4 32 L 7.1542969 32 A 8 8 0 0 1 5.7109375 30.990234 A 4 4 0 0 1 4 30.458984 z " style="opacity:1;fill:blue;fill-opacity:1;fill-rule:nonzero;stroke:none;stroke-width:2;stroke-linecap:round;stroke-linejoin:miter;stroke-miterlimit:4;stroke-dasharray:none;stroke-dashoffset:0;stroke-opacity:1" />
      <path id="path2570" d="M 18.291016 0 A 11 11 0 0 1 19.541016 1.0019531 A 4 4 0 0 1 20.365234 0 L 18.291016 0 z M 25.638672 0 A 4 4 0 0 1 27 3 A 8 8 0 0 1 28 3.0722656 L 28 0 L 25.638672 0 z M 30.853516 4 A 8 8 0 0 1 32 4.7558594 L 32 4 L 30.853516 4 z " style="opacity:1;fill:aqua;fill-opacity:1;fill-rule:nonzero;stroke:none;stroke-width:2;stroke-linecap:round;stroke-linejoin:miter;stroke-miterlimit:4;stroke-dasharray:none;stroke-dashoffset:0;stroke-opacity:1" />
      <path id="path3626" d="M 18.291016 0 A 11 11 0 0 1 19 0.5390625 L 19 0 L 18.291016 0 z M 20 0 L 20 0.36914062 A 4 4 0 0 1 20.365234 0 L 20 0 z M 26 0 L 26 0.36132812 A 4 4 0 0 1 27 3 L 27 0 L 26 0 z " style="fill:#c3c3c3;fill-opacity:1;fill-rule:nonzero;stroke:none;stroke-width:2;stroke-linecap:round;stroke-linejoin:miter;stroke-miterlimit:4;stroke-dasharray:none;stroke-dashoffset:0;stroke-opacity:1" />
      <path id="path3638" d="M 5 0 L 5 0.52148438 A 11 11 0 0 1 5.6855469 0 L 5 0 z M 5 17.458984 L 5 19.728516 A 8 8 0 0 1 6 18.769531 L 6 18.199219 A 11 11 0 0 1 5 17.458984 z M 5 30.871094 L 5 32 L 6 32 L 6 31.220703 A 8 8 0 0 1 5.7109375 30.990234 A 4 4 0 0 1 5 30.871094 z M 7 31.919922 L 7 32 L 7.1542969 32 A 8 8 0 0 1 7 31.919922 z " style="fill:#6b6b6b;fill-opacity:1;fill-rule:nonzero;stroke:none;stroke-width:2;stroke-linecap:round;stroke-linejoin:miter;stroke-miterlimit:4;stroke-dasharray:none;stroke-dashoffset:0;stroke-opacity:1" />
      <path id="path3650" d="M 30.837891 18 A 8 8 0 0 1 30.371094 18.246094 A 4 4 0 0 1 31.634766 19 L 32 19 L 32 18 L 30.837891 18 z M 32 24.638672 A 4 4 0 0 1 31.638672 25 L 32 25 L 32 24.638672 z M 28.410156 26 A 8 8 0 0 1 28.732422 27 L 32 27 L 32 26 L 29 26 L 28.410156 26 z " style="fill:#6b6b6b;fill-opacity:1;fill-rule:nonzero;stroke:none;stroke-width:2;stroke-linecap:round;stroke-linejoin:miter;stroke-miterlimit:4;stroke-dasharray:none;stroke-dashoffset:0;stroke-opacity:1" />
    </g>
    <g id="g5562">
      <rect y="0" x="36" height="32" width="32" id="rect5558" style="opacity:1;fill:blue;fill-opacity:0.50196078;fill-rule:nonzero;stroke:none;stroke-width:2;stroke-linecap:butt;stroke-linejoin:miter;stroke-miterlimit:4;stroke-dasharray:none;stroke-dashoffset:0;stroke-opacity:1" />
      <rect style="opacity:1;fill:blue;fill-opacity:0.50196078;fill-rule:nonzero;stroke:none;stroke-width:2;stroke-linecap:butt;stroke-linejoin:miter;stroke-miterlimit:4;stroke-dasharray:none;stroke-dashoffset:0;stroke-opacity:1" id="rect5560" width="26" height="26" x="39" y="3" />
    </g>
    <g id="g5575">
      <path inkscape:connector-curvature="0" id="rect5566" d="m 39,0 0,3 26,0 0,-3 -26,0 z m 26,3 0,26 3,0 0,-26 -3,0 z m 0,26 -26,0 0,3 26,0 0,-3 z m -26,0 0,-26 -3,0 0,26 3,0 z" style="opacity:1;fill:yellow;fill-opacity:0.50196078;fill-rule:nonzero;stroke:none;stroke-width:2;stroke-linecap:butt;stroke-linejoin:miter;stroke-miterlimit:4;stroke-dasharray:none;stroke-dashoffset:0;stroke-opacity:1" />
    </g>
    <circle style="opacity:1;fill:red;fill-opacity:0.50196078;fill-rule:nonzero;stroke:none;stroke-width:2;stroke-linecap:butt;stroke-linejoin:miter;stroke-miterlimit:4;stroke-dasharray:none;stroke-dashoffset:0;stroke-opacity:1" id="path4749" cx="25" cy="47" r="8" transform="matrix(0,1,1,0,0,0)" />
    <circle style="opacity:1;fill:red;fill-opacity:0.50196078;fill-rule:nonzero;stroke:none;stroke-width:2;stroke-linecap:butt;stroke-linejoin:miter;stroke-miterlimit:4;stroke-dasharray:none;stroke-dashoffset:0;stroke-opacity:1" id="path4751" cx="9" cy="48" r="11" transform="matrix(0,1,1,0,0,0)" />
    <circle r="8" cy="63" cx="11" id="circle4753" style="opacity:1;fill:red;fill-opacity:0.50196078;fill-rule:nonzero;stroke:none;stroke-width:2;stroke-linecap:butt;stroke-linejoin:miter;stroke-miterlimit:4;stroke-dasharray:none;stroke-dashoffset:0;stroke-opacity:1" transform="matrix(0,1,1,0,0,0)" />
    <circle r="4" cy="42" cx="27.000002" id="circle4759" style="opacity:1;fill:red;fill-opacity:0.50196078;fill-rule:nonzero;stroke:none;stroke-width:2;stroke-linecap:butt;stroke-linejoin:miter;stroke-miterlimit:4;stroke-dasharray:none;stroke-dashoffset:0;stroke-opacity:1" transform="matrix(0,1,1,0,0,0)" />
    <circle style="opacity:1;fill:red;fill-opacity:0.50196078;fill-rule:nonzero;stroke:none;stroke-width:2;stroke-linecap:butt;stroke-linejoin:miter;stroke-miterlimit:4;stroke-dasharray:none;stroke-dashoffset:0;stroke-opacity:1" id="circle4761" cx="22" cy="65" r="4" transform="matrix(0,1,1,0,0,0)" />
    <circle style="opacity:1;fill:red;fill-opacity:0.50196078;fill-rule:nonzero;stroke:none;stroke-width:2;stroke-linecap:butt;stroke-linejoin:miter;stroke-miterlimit:4;stroke-dasharray:none;stroke-dashoffset:0;stroke-opacity:1" id="circle4765" cx="11" cy="63" r="4" transform="matrix(0,1,1,0,0,0)" />
    <circle style="opacity:1;fill:red;fill-opacity:0.50196078;fill-rule:nonzero;stroke:none;stroke-width:2;stroke-linecap:butt;stroke-linejoin:miter;stroke-miterlimit:4;stroke-dasharray:none;stroke-dashoffset:0;stroke-opacity:1" id="circle4769" cx="3.0000019" cy="59" r="4" transform="matrix(0,1,1,0,0,0)" />
    <circle style="opacity:1;fill:red;fill-opacity:0.50196078;fill-rule:nonzero;stroke:none;stroke-width:2;stroke-linecap:butt;stroke-linejoin:miter;stroke-miterlimit:4;stroke-dasharray:none;stroke-dashoffset:0;stroke-opacity:1" id="circle4771" cx="29.000002" cy="57" r="8" transform="matrix(0,1,1,0,0,0)" />
    <circle transform="matrix(0,1,1,0,0,0)" r="8" cy="57" cx="21.000002" id="circle10511" style="opacity:1;fill:red;fill-opacity:0.50196078;fill-rule:nonzero;stroke:none;stroke-width:2;stroke-linecap:butt;stroke-linejoin:miter;stroke-miterlimit:4;stroke-dasharray:none;stroke-dashoffset:0;stroke-opacity:1" />
    <path inkscape:connector-curvature="0" id="path10532" d="m -24,-2 a 11,11 0 0 0 -11,11 11,11 0 0 0 5.404297,9.455078 8,8 0 0 0 -3.371094,5.869141 A 4,4 0 0 0 -34,27 4,4 0 0 0 -30.289062,30.990234 8,8 0 0 0 -25,33 8,8 0 0 0 -22.193359,32.480469 8,8 0 0 0 -15,37 8,8 0 0 0 -7,29 8,8 0 0 0 -7.607422,25.951172 4,4 0 0 0 -7,26 4,4 0 0 0 -3,22 4,4 0 0 0 -5.628906,18.246094 8,8 0 0 0 -1,11 8,8 0 0 0 -9,3 4,4 0 0 0 -13,-1 4,4 0 0 0 -16.458984,1.0019531 11,11 0 0 0 -24,-2 Z" style="opacity:1;fill:red;fill-opacity:0.50196078;fill-rule:nonzero;stroke:none;stroke-width:2;stroke-linecap:butt;stroke-linejoin:miter;stroke-miterlimit:4;stroke-dasharray:none;stroke-dashoffset:0;stroke-opacity:1" />
  </g>
</svg>
