<?xml version="1.0" encoding="UTF-8" standalone="no"?>
<!-- Created with Inkscape (http://www.inkscape.org/) -->

<svg xmlns:dc="http://purl.org/dc/elements/1.1/" xmlns:cc="http://creativecommons.org/ns#" xmlns:rdf="http://www.w3.org/1999/02/22-rdf-syntax-ns#" xmlns:svg="http://www.w3.org/2000/svg" xmlns="http://www.w3.org/2000/svg" xmlns:sodipodi="http://sodipodi.sourceforge.net/DTD/sodipodi-0.dtd" xmlns:inkscape="http://www.inkscape.org/namespaces/inkscape" width="32px" height="32px" id="svg3505" sodipodi:version="0.32" inkscape:version="0.91 r13725" sodipodi:docname="00.svg" inkscape:output_extension="org.inkscape.output.svg.inkscape" version="1.1">
  <defs id="defs3507">
    <inkscape:perspective sodipodi:type="inkscape:persp3d" inkscape:vp_x="0 : 16 : 1" inkscape:vp_y="0 : 1000 : 0" inkscape:vp_z="32 : 16 : 1" inkscape:persp3d-origin="16 : 10.666667 : 1" id="perspective3513" />
    <inkscape:perspective id="perspective4690" inkscape:persp3d-origin="372.04724 : 350.78739 : 1" inkscape:vp_z="744.09448 : 526.18109 : 1" inkscape:vp_y="0 : 1000 : 0" inkscape:vp_x="0 : 526.18109 : 1" sodipodi:type="inkscape:persp3d" />
    <inkscape:perspective id="perspective2564" inkscape:persp3d-origin="372.04724 : 350.78739 : 1" inkscape:vp_z="744.09448 : 526.18109 : 1" inkscape:vp_y="0 : 1000 : 0" inkscape:vp_x="0 : 526.18109 : 1" sodipodi:type="inkscape:persp3d" />
  </defs>
  <sodipodi:namedview id="base" pagecolor="#ffffff" bordercolor="#666666" borderopacity="1.0" inkscape:pageopacity="0.0" inkscape:pageshadow="2" inkscape:zoom="22.125" inkscape:cx="16" inkscape:cy="16.617115" inkscape:current-layer="layer1" showgrid="true" inkscape:grid-bbox="true" inkscape:document-units="px" objecttolerance="4" gridtolerance="4" guidetolerance="4" inkscape:window-width="1600" inkscape:window-height="878" inkscape:window-x="0" inkscape:window-y="0" inkscape:object-paths="true" inkscape:object-nodes="true" inkscape:snap-bbox="true" inkscape:snap-guide="true" showguides="true" inkscape:guide-bbox="true" inkscape:window-maximized="1">
    <inkscape:grid type="xygrid" id="grid3515" units="px" visible="true" enabled="true" spacingx="1px" spacingy="1px" empspacing="4" />
    <sodipodi:guide orientation="-0.70710678,0.70710678" position="33.245902,33.245902" id="guide3622" />
    <sodipodi:guide orientation="0.70710678,0.70710678" position="0,32" id="guide3624" />
  </sodipodi:namedview>
  <metadata id="metadata3510">
    <rdf:RDF>
      <cc:Work rdf:about="">
        <dc:format>image/svg+xml</dc:format>
        <dc:type rdf:resource="http://purl.org/dc/dcmitype/StillImage" />
        <dc:title>Vorlage f端r 32x32-Pixel-Icons f端r McMinos</dc:title>
        <dc:date>2010-04-05</dc:date>
        <dc:creator>
          <cc:Agent>
            <dc:title>Andreas Neudecker &lt;zapyon@gmx.net&gt;</dc:title>
          </cc:Agent>
        </dc:creator>
        <dc:rights>
          <cc:Agent>
            <dc:title>Copyright (C) 2010 by Andreas Neudecker</dc:title>
          </cc:Agent>
        </dc:rights>
        <dc:publisher>
          <cc:Agent>
            <dc:title>Andreas Neudecker</dc:title>
          </cc:Agent>
        </dc:publisher>
        <dc:identifier>vorlage-32x32-mcminos</dc:identifier>
        <dc:description>Vorlage f端r 32x32-Pixel-Icons f端r McMinos. Metadaten jeweils entsprechend anpassen!</dc:description>
      </cc:Work>
    </rdf:RDF>
  </metadata>
  <g id="layer1" inkscape:label="Layer 1" inkscape:groupmode="layer">
    <g id="g16292">
      <rect y="0" x="0" height="32" width="32" id="rect16290" style="opacity:1;fill:none;fill-opacity:0.50364966;fill-rule:nonzero;stroke:none;stroke-width:2;stroke-linecap:butt;stroke-linejoin:miter;stroke-miterlimit:4;stroke-dasharray:none;stroke-dashoffset:0;stroke-opacity:1" />
      <path id="path7053" d="M 0 3 L 0 7.1347656 A 4 4 0 0 1 0.05859375 7.1171875 A 8 8 0 0 1 1.7675781 3 L 0 3 z M 14.228516 3 A 8 8 0 0 1 14.287109 3.0683594 A 4 4 0 0 1 15 3 L 14.228516 3 z M 15 3 A 4 4 0 0 1 18.84375 5.9023438 A 8 8 0 0 1 25 3 L 15 3 z M 25 3 A 8 8 0 0 1 32 7.1289062 L 32 3 L 25 3 z M 16.84375 10.544922 A 4 4 0 0 1 15.421875 10.976562 A 8 8 0 0 1 13.9375 13.347656 A 7.5 7.5 0 0 1 16 18.5 A 7.5 7.5 0 0 1 15.990234 18.771484 A 8 8 0 0 1 19.832031 17.095703 A 8 8 0 0 1 19.710938 16.990234 A 4 4 0 0 1 16 13 A 4 4 0 0 1 16.84375 10.544922 z M 32 14.849609 A 8 8 0 0 1 26.167969 18.904297 A 8 8 0 0 1 26.894531 19.605469 A 4 4 0 0 1 29 19 A 4 4 0 0 1 32 20.361328 L 32 14.849609 z M 0 14.869141 L 0 19.132812 A 4 4 0 0 1 1 19 A 4 4 0 0 1 1.0253906 19 A 7.5 7.5 0 0 1 1 18.5 A 7.5 7.5 0 0 1 1.9394531 14.882812 A 4 4 0 0 1 1 15 A 4 4 0 0 1 0 14.869141 z M 32 25.638672 A 4 4 0 0 1 29 27 A 4 4 0 0 1 28.742188 26.990234 A 8 8 0 0 1 24.863281 32 L 29 32 L 29 29 L 32 29 L 32 25.638672 z M 2.0039062 26.867188 A 4 4 0 0 1 1 27 A 4 4 0 0 1 0 26.869141 L 0 29 L 2.5410156 29 A 4 4 0 0 1 2 27 A 4 4 0 0 1 2.0039062 26.867188 z M 3 29.638672 L 3 32 L 6.7734375 32 A 8 8 0 0 1 6.0761719 30.996094 A 4 4 0 0 1 6 31 A 4 4 0 0 1 3 29.638672 z " style="fill:black;fill-opacity:1;fill-rule:nonzero;stroke:none;stroke-width:2;stroke-linecap:round;stroke-linejoin:miter;stroke-miterlimit:4;stroke-dashoffset:0;stroke-opacity:1" />
      <path id="path2570" d="M 16 16 L 16 18.5 L 16 18.763672 A 8 8 0 0 1 17.720703 17.720703 L 16 16 z M 28 28.84375 A 8 8 0 0 1 24.863281 32 L 28 32 L 28 28.84375 z " style="fill:aqua;fill-opacity:1;fill-rule:nonzero;stroke:none;stroke-width:2;stroke-linecap:round;stroke-linejoin:miter;stroke-miterlimit:4;stroke-dasharray:none;stroke-dashoffset:0;stroke-opacity:1" />
      <path id="path3342" d="M 0 16 L 0 19.132812 A 4 4 0 0 1 1 19 A 4 4 0 0 1 1.0253906 19 A 7.5 7.5 0 0 1 1 18.5 A 7.5 7.5 0 0 1 1.4433594 16 L 0 16 z M 15.556641 16 A 7.5 7.5 0 0 1 16 18.5 L 16 16 L 15.556641 16 z M 16 18.5 A 7.5 7.5 0 0 1 15.990234 18.771484 A 8 8 0 0 1 16 18.763672 L 16 18.5 z M 2.0039062 26.867188 A 4 4 0 0 1 1 27 A 4 4 0 0 1 0 26.869141 L 0 28 L 2.1328125 28 A 4 4 0 0 1 2 27 A 4 4 0 0 1 2.0039062 26.867188 z M 4 30.458984 L 4 32 L 6.7734375 32 A 8 8 0 0 1 6.0761719 30.996094 A 4 4 0 0 1 6 31 A 4 4 0 0 1 4 30.458984 z " style="fill:blue;fill-opacity:1;fill-rule:nonzero;stroke:none;stroke-width:2;stroke-linecap:round;stroke-linejoin:miter;stroke-miterlimit:4;stroke-dasharray:none;stroke-dashoffset:0;stroke-opacity:1" />
      <path id="path3626" d="M 26.988281 30.28125 A 8 8 0 0 1 25.996094 31.234375 L 26 32 L 27 32 L 26.988281 30.28125 z M 25 31.916016 A 8 8 0 0 1 24.863281 32 L 25 32 L 25 31.916016 z " style="fill:#c3c3c3;fill-opacity:1;fill-rule:nonzero;stroke:none;stroke-width:2;stroke-linecap:round;stroke-linejoin:miter;stroke-miterlimit:4;stroke-dasharray:none;stroke-dashoffset:0;stroke-opacity:1" />
      <path id="path3368" d="M 1.0273438 17.998047 L 0 18 L 0 19 L 1.0253906 18.998047 A 7.5 7.5 0 0 1 1 18.5 A 7.5 7.5 0 0 1 1.0273438 17.998047 z M 2.0039062 26.867188 A 4 4 0 0 1 1.1308594 26.992188 L 2 26.988281 A 4 4 0 0 1 2.0039062 26.867188 z M 0 26.869141 L 0 27 L 0.84570312 26.994141 A 4 4 0 0 1 0 26.869141 z M 5 30.869141 L 5 32 L 6 32 L 6 31 A 4 4 0 0 1 5 30.869141 z " style="fill:#6b6b6b;fill-opacity:1;fill-rule:nonzero;stroke:none;stroke-width:2;stroke-linecap:round;stroke-linejoin:miter;stroke-miterlimit:4;stroke-dasharray:none;stroke-dashoffset:0;stroke-opacity:1" />
      <path id="path7041" d="M 0 4 L 0 7.1347656 A 4 4 0 0 1 0.05859375 7.1171875 A 8 8 0 0 1 1.09375 4 L 0 4 z M 17.636719 4 A 4 4 0 0 1 18.84375 5.9023438 A 8 8 0 0 1 21.140625 4 L 17.636719 4 z M 28.853516 4 A 8 8 0 0 1 32 7.1289062 L 32 4 L 28.853516 4 z M 16.84375 10.544922 A 4 4 0 0 1 15.421875 10.976562 A 8 8 0 0 1 13.9375 13.347656 A 7.5 7.5 0 0 1 15.556641 16 L 17.361328 16 A 4 4 0 0 1 16 13 A 4 4 0 0 1 16.84375 10.544922 z M 32 14.849609 A 8 8 0 0 1 31.224609 16 L 32 16 L 32 14.849609 z M 0 14.869141 L 0 16 L 1.4433594 16 A 7.5 7.5 0 0 1 1.9394531 14.882812 A 4 4 0 0 1 1 15 A 4 4 0 0 1 0 14.869141 z " style="fill:aqua;fill-opacity:1;fill-rule:nonzero;stroke:none;stroke-width:2;stroke-linecap:round;stroke-linejoin:miter;stroke-miterlimit:4;stroke-dasharray:none;stroke-dashoffset:0;stroke-opacity:1" />
      <path id="path7045" d="M 16 16 L 17.720703 17.720703 A 8 8 0 0 1 19.832031 17.095703 A 8 8 0 0 1 19.710938 16.990234 A 4 4 0 0 1 17.361328 16 L 16 16 z M 31.224609 16 A 8 8 0 0 1 26.167969 18.904297 A 8 8 0 0 1 26.894531 19.605469 A 4 4 0 0 1 29 19 A 4 4 0 0 1 32 20.361328 L 32 16 L 31.224609 16 z M 32 25.638672 A 4 4 0 0 1 29 27 A 4 4 0 0 1 28.742188 26.990234 A 8 8 0 0 1 28.404297 28 L 32 28 L 32 25.638672 z " style="fill:blue;fill-opacity:1;fill-rule:nonzero;stroke:none;stroke-width:2;stroke-linecap:round;stroke-linejoin:miter;stroke-miterlimit:4;stroke-dasharray:none;stroke-dashoffset:0;stroke-opacity:1" />
      <path id="rect3926" d="M 0 15 L 0 17 L 1.15625 17 A 7.5 7.5 0 0 1 1.8828125 15 L 1 15 L 0 15 z M 15.121094 15 A 7.5 7.5 0 0 1 16 18.5 A 7.5 7.5 0 0 1 15.990234 18.771484 A 8 8 0 0 1 17 18.087891 L 17 17 L 19.722656 17 A 8 8 0 0 1 19.710938 16.990234 A 4 4 0 0 1 16.541016 15 L 15.121094 15 z M 31.921875 15 A 8 8 0 0 1 30.269531 17 L 32 17 L 32 15 L 31.921875 15 z " style="fill:#0080ff;fill-opacity:1;fill-rule:nonzero;stroke:none;stroke-width:2;stroke-linecap:round;stroke-linejoin:miter;stroke-miterlimit:4;stroke-dasharray:none;stroke-dashoffset:0;stroke-opacity:1" />
      <path id="rect4379" d="M 15.121094 15 A 7.5 7.5 0 0 1 15.845703 17 L 17 17 L 17 15.640625 A 4 4 0 0 1 16.541016 15 L 15.121094 15 z " style="fill:#00005c;fill-opacity:1;fill-rule:nonzero;stroke:none;stroke-width:2;stroke-linecap:round;stroke-linejoin:miter;stroke-miterlimit:4;stroke-dasharray:none;stroke-dashoffset:0;stroke-opacity:1" />
      <path id="path7028" d="M 0 5 L 0 6 L 0.26953125 6 A 8 8 0 0 1 0.59960938 5 L 0 5 z M 18.455078 5 A 4 4 0 0 1 18.84375 5.9023438 A 8 8 0 0 1 19.726562 5 L 18.455078 5 z M 30.277344 5 A 8 8 0 0 1 31.236328 6 L 32 6 L 32 5 L 30.277344 5 z M 0 7 L 0 7.1347656 A 4 4 0 0 1 0.05859375 7.1171875 A 8 8 0 0 1 0.076171875 7 L 0 7 z M 31.919922 7 A 8 8 0 0 1 32 7.1289062 L 32 7 L 31.919922 7 z M 15.412109 11 A 8 8 0 0 1 14.917969 12 L 16.130859 12 A 4 4 0 0 1 16.541016 11 L 15.412109 11 z M 14.220703 13 A 8 8 0 0 1 13.9375 13.347656 A 7.5 7.5 0 0 1 14.478516 14 L 16.132812 14 A 4 4 0 0 1 16 13 L 14.220703 13 z " style="fill:#c3c3c3;fill-opacity:1;fill-rule:nonzero;stroke:none;stroke-width:2;stroke-linecap:round;stroke-linejoin:miter;stroke-miterlimit:4;stroke-dasharray:none;stroke-dashoffset:0;stroke-opacity:1" />
      <path id="path7034" d="M 28.845703 17.992188 A 8 8 0 0 1 26.167969 18.904297 A 8 8 0 0 1 26.261719 18.986328 L 32 19 L 32 18 L 28.845703 17.992188 z M 31.636719 20 A 4 4 0 0 1 32 20.361328 L 32 20 L 31.636719 20 z M 31.640625 25.998047 A 4 4 0 0 1 29.339844 26.982422 L 32 27 L 32 26 L 31.640625 25.998047 z " style="fill:#6b6b6b;fill-opacity:1;fill-rule:nonzero;stroke:none;stroke-width:2;stroke-linecap:round;stroke-linejoin:miter;stroke-miterlimit:4;stroke-dasharray:none;stroke-dashoffset:0;stroke-opacity:1" />
    </g>
    <g id="g5562">
      <rect y="0" x="36" height="32" width="32" id="rect5558" style="opacity:1;fill:blue;fill-opacity:0.50196078;fill-rule:nonzero;stroke:none;stroke-width:2;stroke-linecap:butt;stroke-linejoin:miter;stroke-miterlimit:4;stroke-dasharray:none;stroke-dashoffset:0;stroke-opacity:1" />
      <rect style="opacity:1;fill:blue;fill-opacity:0.50196078;fill-rule:nonzero;stroke:none;stroke-width:2;stroke-linecap:butt;stroke-linejoin:miter;stroke-miterlimit:4;stroke-dasharray:none;stroke-dashoffset:0;stroke-opacity:1" id="rect5560" width="26" height="26" x="39" y="3" />
    </g>
    <g id="g5575">
      <path inkscape:connector-curvature="0" id="rect5566" d="m 39,0 0,3 26,0 0,-3 -26,0 z m 26,3 0,26 3,0 0,-26 -3,0 z m 0,26 -26,0 0,3 26,0 0,-3 z m -26,0 0,-26 -3,0 0,26 3,0 z" style="opacity:1;fill:yellow;fill-opacity:0.50196078;fill-rule:nonzero;stroke:none;stroke-width:2;stroke-linecap:butt;stroke-linejoin:miter;stroke-miterlimit:4;stroke-dasharray:none;stroke-dashoffset:0;stroke-opacity:1" />
    </g>
    <circle style="opacity:1;fill:red;fill-opacity:0.50196078;fill-rule:nonzero;stroke:none;stroke-width:2;stroke-linecap:butt;stroke-linejoin:miter;stroke-miterlimit:4;stroke-dasharray:none;stroke-dashoffset:0;stroke-opacity:1" id="path4749" cx="27" cy="49" r="8" transform="matrix(0,1,1,0,0,0)" />
    <circle style="opacity:1;fill:red;fill-opacity:0.50196078;fill-rule:nonzero;stroke:none;stroke-width:2;stroke-linecap:butt;stroke-linejoin:miter;stroke-miterlimit:4;stroke-dasharray:none;stroke-dashoffset:0;stroke-opacity:1" id="path4751" cx="18.5" cy="44.5" r="7.5" transform="matrix(0,1,1,0,0,0)" />
    <circle r="8" cy="61" cx="11" id="circle4753" style="opacity:1;fill:red;fill-opacity:0.50196078;fill-rule:nonzero;stroke:none;stroke-width:2;stroke-linecap:butt;stroke-linejoin:miter;stroke-miterlimit:4;stroke-dasharray:none;stroke-dashoffset:0;stroke-opacity:1" transform="matrix(0,1,1,0,0,0)" />
    <circle r="4" cy="42" cx="27.000002" id="circle4759" style="opacity:1;fill:red;fill-opacity:0.50196078;fill-rule:nonzero;stroke:none;stroke-width:2;stroke-linecap:butt;stroke-linejoin:miter;stroke-miterlimit:4;stroke-dasharray:none;stroke-dashoffset:0;stroke-opacity:1" transform="matrix(0,1,1,0,0,0)" />
    <circle style="opacity:1;fill:red;fill-opacity:0.50196078;fill-rule:nonzero;stroke:none;stroke-width:2;stroke-linecap:butt;stroke-linejoin:miter;stroke-miterlimit:4;stroke-dasharray:none;stroke-dashoffset:0;stroke-opacity:1" id="circle4761" cx="23.000002" cy="65" r="4" transform="matrix(0,1,1,0,0,0)" />
    <circle style="opacity:1;fill:red;fill-opacity:0.50196078;fill-rule:nonzero;stroke:none;stroke-width:2;stroke-linecap:butt;stroke-linejoin:miter;stroke-miterlimit:4;stroke-dasharray:none;stroke-dashoffset:0;stroke-opacity:1" id="circle4765" cx="13" cy="56" r="4" transform="matrix(0,1,1,0,0,0)" />
    <circle style="opacity:1;fill:red;fill-opacity:0.50196078;fill-rule:nonzero;stroke:none;stroke-width:2;stroke-linecap:butt;stroke-linejoin:miter;stroke-miterlimit:4;stroke-dasharray:none;stroke-dashoffset:0;stroke-opacity:1" id="circle4771" cx="25.000002" cy="57" r="8" transform="matrix(0,1,1,0,0,0)" />
    <circle transform="matrix(0,1,1,0,0,0)" style="opacity:1;fill:red;fill-opacity:0.50196078;fill-rule:nonzero;stroke:none;stroke-width:2;stroke-linecap:butt;stroke-linejoin:miter;stroke-miterlimit:4;stroke-dasharray:none;stroke-dashoffset:0;stroke-opacity:1" id="circle16213" cx="8" cy="44" r="8" />
    <circle style="opacity:1;fill:red;fill-opacity:0.50196078;fill-rule:nonzero;stroke:none;stroke-width:2;stroke-linecap:butt;stroke-linejoin:miter;stroke-miterlimit:4;stroke-dasharray:none;stroke-dashoffset:0;stroke-opacity:1" id="circle4769" cx="7.0000019" cy="51" r="4" transform="matrix(0,1,1,0,0,0)" />
    <circle transform="matrix(0,1,1,0,0,0)" r="4" cy="37" cx="23.000002" id="circle16215" style="opacity:1;fill:red;fill-opacity:0.50196078;fill-rule:nonzero;stroke:none;stroke-width:2;stroke-linecap:butt;stroke-linejoin:miter;stroke-miterlimit:4;stroke-dasharray:none;stroke-dashoffset:0;stroke-opacity:1" />
    <circle style="opacity:1;fill:red;fill-opacity:0.50196078;fill-rule:nonzero;stroke:none;stroke-width:2;stroke-linecap:butt;stroke-linejoin:miter;stroke-miterlimit:4;stroke-dasharray:none;stroke-dashoffset:0;stroke-opacity:1" id="circle16217" cx="11.000002" cy="37" r="4" transform="matrix(0,1,1,0,0,0)" />
    <path inkscape:connector-curvature="0" id="path16242" d="M -28,0 A 8,8 0 0 0 -35.941406,7.1171875 4,4 0 0 0 -39,11 a 4,4 0 0 0 4,4 4,4 0 0 0 0.939453,-0.117188 A 7.5,7.5 0 0 0 -35,18.5 7.5,7.5 0 0 0 -34.974609,19 4,4 0 0 0 -35,19 a 4,4 0 0 0 -4,4 4,4 0 0 0 4,4 4,4 0 0 0 1.003906,-0.132812 A 4,4 0 0 0 -34,27 a 4,4 0 0 0 4,4 4,4 0 0 0 0.07617,-0.0039 A 8,8 0 0 0 -23,35 8,8 0 0 0 -17.335938,32.644531 8,8 0 0 0 -15,33 8,8 0 0 0 -7.257812,26.990234 4,4 0 0 0 -7,27 4,4 0 0 0 -3,23 4,4 0 0 0 -7,19 4,4 0 0 0 -9.105469,19.605469 8,8 0 0 0 -9.832031,18.904297 8,8 0 0 0 -3,11 8,8 0 0 0 -11,3 8,8 0 0 0 -17.15625,5.9023438 4,4 0 0 0 -21,3 4,4 0 0 0 -21.712891,3.0683594 8,8 0 0 0 -28,0 Z m 8.84375,10.544922 A 4,4 0 0 0 -20,13 a 4,4 0 0 0 3.710938,3.990234 8,8 0 0 0 0.121093,0.105469 8,8 0 0 0 -3.841797,1.675781 A 7.5,7.5 0 0 0 -20,18.5 a 7.5,7.5 0 0 0 -2.0625,-5.152344 8,8 0 0 0 1.484375,-2.371094 4,4 0 0 0 1.421875,-0.43164 z" style="opacity:1;fill:red;fill-opacity:0.50196078;fill-rule:nonzero;stroke:none;stroke-width:2;stroke-linecap:butt;stroke-linejoin:miter;stroke-miterlimit:4;stroke-dasharray:none;stroke-dashoffset:0;stroke-opacity:1" />
  </g>
</svg>
