<?xml version="1.0" encoding="UTF-8" standalone="no"?>
<!-- Created with Inkscape (http://www.inkscape.org/) -->

<svg
   xmlns:dc="http://purl.org/dc/elements/1.1/"
   xmlns:cc="http://creativecommons.org/ns#"
   xmlns:rdf="http://www.w3.org/1999/02/22-rdf-syntax-ns#"
   xmlns:svg="http://www.w3.org/2000/svg"
   xmlns="http://www.w3.org/2000/svg"
   xmlns:xlink="http://www.w3.org/1999/xlink"
   xmlns:sodipodi="http://sodipodi.sourceforge.net/DTD/sodipodi-0.dtd"
   xmlns:inkscape="http://www.inkscape.org/namespaces/inkscape"
   width="32"
   height="32"
   id="svg4150"
   version="1.1"
   inkscape:version="0.48.5 r10040"
   viewBox="0 0 32 32"
   sodipodi:docname="Neues Dokument 16">
  <defs
     id="defs4152" />
  <sodipodi:namedview
     id="base"
     pagecolor="#ffffff"
     bordercolor="#666666"
     borderopacity="1.0"
     inkscape:pageopacity="0.0"
     inkscape:pageshadow="2"
     inkscape:zoom="16.5"
     inkscape:cx="16"
     inkscape:cy="16"
     inkscape:current-layer="layer1"
     showgrid="true"
     inkscape:grid-bbox="true"
     inkscape:document-units="px"
     objecttolerance="10000"
     inkscape:snap-perpendicular="true"
     guidetolerance="10000"
     inkscape:window-width="1024"
     inkscape:window-height="741"
     inkscape:window-x="0"
     inkscape:window-y="2"
     inkscape:window-maximized="1"
     showguides="true"
     inkscape:guide-bbox="true">
    <inkscape:grid
       type="xygrid"
       id="grid4698"
       empspacing="4" />
    <sodipodi:guide
       position="16,32"
       orientation="1,0"
       id="guide4769" />
    <sodipodi:guide
       position="-4,16"
       orientation="0,1"
       id="guide4771" />
    <sodipodi:guide
       position="16,16"
       orientation="-0.70710678,0.70710678"
       id="guide4773" />
    <sodipodi:guide
       position="16,16"
       orientation="0.70710678,0.70710678"
       id="guide4775" />
  </sodipodi:namedview>
  <metadata
     id="metadata4155">
    <rdf:RDF>
      <cc:Work
         rdf:about="">
        <dc:format>image/svg+xml</dc:format>
        <dc:type
           rdf:resource="http://purl.org/dc/dcmitype/StillImage" />
        <dc:title></dc:title>
      </cc:Work>
    </rdf:RDF>
  </metadata>
  <g
     id="layer1"
     inkscape:label="Layer 1"
     inkscape:groupmode="layer">
    <path
       sodipodi:type="star"
       style="fill:none;stroke:black;stroke-width:2;stroke-linecap:butt;stroke-linejoin:round;stroke-miterlimit:4;stroke-opacity:1;stroke-dasharray:none"
       id="path7169"
       sodipodi:sides="5"
       sodipodi:cx="16"
       sodipodi:cy="16"
       sodipodi:r1="14.035669"
       sodipodi:r2="8.421401"
       sodipodi:arg1="-1.5707963"
       sodipodi:arg2="-0.94247777"
       inkscape:flatsided="false"
       inkscape:rounded="0.25"
       inkscape:randomized="0.05"
       d="m 15.301648,2.4277719 c 2.147239,-0.078859 4.1531,5.2677514 5.9188,6.5680717 1.765701,1.3003204 6.796843,-0.023169 7.490761,2.0507354 0.693918,2.073905 -4.618548,5.201482 -5.27736,7.252198 -0.658812,2.050716 2.988111,7.639343 1.263644,9.013699 -1.724467,1.374356 -6.386814,-3.509817 -8.620424,-3.548546 -2.233611,-0.03873 -6.1571986,4.192543 -7.9741997,3.00546 -1.8170012,-1.187083 0.5431661,-5.981006 -0.1653374,-8.037224 -0.7085036,-2.056219 -5.9192359,-4.602538 -5.2512674,-6.63 0.6679686,-2.027462 7.121836,-1.203261 8.8882785,-2.4436462 1.766442,-1.2403855 1.579866,-7.1518887 3.727105,-7.2307479 z"
       inkscape:transform-center-y="-1.3402871" />
    <path
       inkscape:transform-center-y="-1.3402871"
       d="m 15.301648,2.4277719 c 2.147239,-0.078859 4.1531,5.2677514 5.9188,6.5680717 1.765701,1.3003204 6.796843,-0.023169 7.490761,2.0507354 0.693918,2.073905 -4.618548,5.201482 -5.27736,7.252198 -0.658812,2.050716 2.988111,7.639343 1.263644,9.013699 -1.724467,1.374356 -6.386814,-3.509817 -8.620424,-3.548546 -2.233611,-0.03873 -6.1571986,4.192543 -7.9741997,3.00546 -1.8170012,-1.187083 0.5431661,-5.981006 -0.1653374,-8.037224 -0.7085036,-2.056219 -5.9192359,-4.602538 -5.2512674,-6.63 0.6679686,-2.027462 7.121836,-1.203261 8.8882785,-2.4436462 1.766442,-1.2403855 1.579866,-7.1518887 3.727105,-7.2307479 z"
       inkscape:randomized="0.05"
       inkscape:rounded="0.25"
       inkscape:flatsided="false"
       sodipodi:arg2="-0.94247777"
       sodipodi:arg1="-1.5707963"
       sodipodi:r2="8.421401"
       sodipodi:r1="14.035669"
       sodipodi:cy="16"
       sodipodi:cx="16"
       sodipodi:sides="5"
       id="path7706"
       style="fill:#d4aa00;stroke:none"
       sodipodi:type="star" />
    <g
       id="g7688">
      <path
         d="m 18,16 a 2,2 0 1 1 -4,0 2,2 0 1 1 4,0 z"
         sodipodi:ry="2"
         sodipodi:rx="2"
         sodipodi:cy="16"
         sodipodi:cx="16"
         id="path7173"
         style="fill:white;fill-opacity:1;stroke:none"
         sodipodi:type="arc" />
      <path
         id="path7177"
         d="M 14.84375 14.375 C 14.332656 14.737312 14 15.325832 14 16 C 14 17.104569 14.895431 18 16 18 C 16.674168 18 17.262688 17.667344 17.625 17.15625 C 17.305798 17.371899 16.914214 17.5 16.5 17.5 C 15.395431 17.5 14.5 16.604569 14.5 15.5 C 14.5 15.085786 14.628101 14.694202 14.84375 14.375 z "
         style="fill:blue;fill-opacity:0.25098040999999999;stroke:none" />
    </g>
    <g
       id="g7692"
       transform="matrix(0.5,0,0,0.5,8,-3)">
      <path
         sodipodi:type="arc"
         style="fill:white;fill-opacity:1;stroke:none"
         id="path7694"
         sodipodi:cx="16"
         sodipodi:cy="16"
         sodipodi:rx="2"
         sodipodi:ry="2"
         d="m 18,16 c 0,1.104569 -0.895431,2 -2,2 -1.104569,0 -2,-0.895431 -2,-2 0,-1.104569 0.895431,-2 2,-2 1.104569,0 2,0.895431 2,2 z" />
      <path
         style="fill:blue;fill-opacity:0.25098039;stroke:none"
         d="M 14.84375,14.375 C 14.332656,14.737312 14,15.325832 14,16 c 0,1.104569 0.895431,2 2,2 0.674168,0 1.262688,-0.332656 1.625,-0.84375 C 17.305798,17.371899 16.914214,17.5 16.5,17.5 c -1.104569,0 -2,-0.895431 -2,-2 0,-0.414214 0.128101,-0.805798 0.34375,-1.125 z"
         id="path7696"
         inkscape:connector-curvature="0" />
    </g>
    <use
       x="0"
       y="0"
       xlink:href="#g7692"
       id="use7698"
       inkscape:transform-center-y="-11"
       width="32"
       height="32"
       transform="translate(10,7)" />
    <use
       x="0"
       y="0"
       xlink:href="#g7692"
       id="use7700"
       transform="translate(-10,8)"
       width="32"
       height="32" />
    <use
       x="0"
       y="0"
       xlink:href="#g7692"
       id="use7702"
       transform="translate(-7,20)"
       width="32"
       height="32" />
    <use
       x="0"
       y="0"
       xlink:href="#g7692"
       id="use7704"
       transform="translate(7,20)"
       width="32"
       height="32" />
    <path
       style="fill:black;fill-opacity:0.25098039;stroke:none"
       d="m 3.6875,11.1875 c -0.508879,0.21637 -0.8670354,0.502667 -1,0.90625 -0.6679686,2.027462 4.5414965,4.568781 5.25,6.625 0.7085035,2.056219 -1.6607511,6.875417 0.15625,8.0625 1.8170011,1.187083 5.735139,-3.069979 7.96875,-3.03125 2.233611,0.03873 6.900533,4.936856 8.625,3.5625 0.237019,-0.188898 0.378297,-0.453256 0.4375,-0.78125 C 23.100683,26.778948 19.081442,22.785007 17.0625,22.75 14.828914,22.711271 10.910731,26.968333 9.09375,25.78125 7.2767689,24.594167 9.6459957,19.774969 8.9375,17.71875 8.2389867,15.691502 3.1902396,13.200614 3.6875,11.1875 z"
       id="path7710"
       inkscape:connector-curvature="0"
       sodipodi:nodetypes="cssssscsssc" />
    <path
       style="fill:white;fill-opacity:0.25098039;stroke:none"
       d="M 15.3125,2.4375 C 14.758835,2.457834 14.348072,2.8529035 14.03125,3.46875 14.12135,3.440968 14.212755,3.441163 14.3125,3.4375 16.459739,3.358641 18.453049,8.6996797 20.21875,10 c 1.765701,1.30032 6.806082,-0.042655 7.5,2.03125 0.260219,0.777714 -0.320574,1.725793 -1.1875,2.6875 1.343785,-1.313136 2.538678,-2.63794 2.1875,-3.6875 C 28.024832,8.9573452 22.984451,10.30032 21.21875,9 19.453049,7.6996797 17.459739,2.3586408 15.3125,2.4375 z"
       id="path7713"
       inkscape:connector-curvature="0"
       sodipodi:nodetypes="scssscsss" />
    <use
       x="0"
       y="0"
       xlink:href="#g7692"
       id="use7718"
       transform="translate(-0.06060606,4.9090909)"
       width="32"
       height="32" />
    <use
       x="0"
       y="0"
       xlink:href="#g7692"
       id="use7720"
       transform="translate(5.3939394,8.9090909)"
       width="32"
       height="32" />
    <use
       x="0"
       y="0"
       xlink:href="#g7692"
       id="use7722"
       transform="translate(-5.8787879,9.5757575)"
       width="32"
       height="32" />
    <use
       x="0"
       y="0"
       xlink:href="#g7692"
       id="use7724"
       transform="translate(-4,16)"
       width="32"
       height="32" />
    <use
       x="0"
       y="0"
       xlink:href="#g7692"
       id="use7726"
       transform="translate(4,16)"
       width="32"
       height="32" />
  </g>
</svg>
