<?xml version="1.0" encoding="UTF-8" standalone="no"?>
<!-- Created with Inkscape (http://www.inkscape.org/) -->
<svg
   xmlns:dc="http://purl.org/dc/elements/1.1/"
   xmlns:cc="http://creativecommons.org/ns#"
   xmlns:rdf="http://www.w3.org/1999/02/22-rdf-syntax-ns#"
   xmlns:svg="http://www.w3.org/2000/svg"
   xmlns="http://www.w3.org/2000/svg"
   xmlns:sodipodi="http://sodipodi.sourceforge.net/DTD/sodipodi-0.dtd"
   xmlns:inkscape="http://www.inkscape.org/namespaces/inkscape"
   width="32px"
   height="32px"
   id="svg3505"
   sodipodi:version="0.32"
   inkscape:version="0.46"
   sodipodi:docname="wall-default-14.svg"
   inkscape:output_extension="org.inkscape.output.svg.inkscape">
  <defs
     id="defs3507">
    <inkscape:perspective
       sodipodi:type="inkscape:persp3d"
       inkscape:vp_x="0 : 16 : 1"
       inkscape:vp_y="0 : 1000 : 0"
       inkscape:vp_z="32 : 16 : 1"
       inkscape:persp3d-origin="16 : 10.666667 : 1"
       id="perspective3513" />
    <inkscape:perspective
       id="perspective4690"
       inkscape:persp3d-origin="372.04724 : 350.78739 : 1"
       inkscape:vp_z="744.09448 : 526.18109 : 1"
       inkscape:vp_y="0 : 1000 : 0"
       inkscape:vp_x="0 : 526.18109 : 1"
       sodipodi:type="inkscape:persp3d" />
    <inkscape:perspective
       id="perspective2564"
       inkscape:persp3d-origin="372.04724 : 350.78739 : 1"
       inkscape:vp_z="744.09448 : 526.18109 : 1"
       inkscape:vp_y="0 : 1000 : 0"
       inkscape:vp_x="0 : 526.18109 : 1"
       sodipodi:type="inkscape:persp3d" />
  </defs>
  <sodipodi:namedview
     id="base"
     pagecolor="#ffffff"
     bordercolor="#666666"
     borderopacity="1.0"
     inkscape:pageopacity="0.0"
     inkscape:pageshadow="2"
     inkscape:zoom="15.25"
     inkscape:cx="16"
     inkscape:cy="16"
     inkscape:current-layer="layer1"
     showgrid="true"
     inkscape:grid-bbox="true"
     inkscape:document-units="px"
     objecttolerance="4"
     gridtolerance="4"
     guidetolerance="4"
     inkscape:window-width="1280"
     inkscape:window-height="713"
     inkscape:window-x="0"
     inkscape:window-y="37"
     inkscape:object-paths="true"
     inkscape:object-nodes="true"
     inkscape:snap-bbox="true"
     inkscape:snap-guide="true"
     showguides="true"
     inkscape:guide-bbox="true">
    <inkscape:grid
       type="xygrid"
       id="grid3515"
       units="px"
       visible="true"
       enabled="true"
       spacingx="1px"
       spacingy="1px" />
    <sodipodi:guide
       orientation="-0.70710678,0.70710678"
       position="33.245902,33.245902"
       id="guide3622" />
    <sodipodi:guide
       orientation="0.70710678,0.70710678"
       position="0,32"
       id="guide3624" />
  </sodipodi:namedview>
  <metadata
     id="metadata3510">
    <rdf:RDF>
      <cc:Work
         rdf:about="">
        <dc:format>image/svg+xml</dc:format>
        <dc:type
           rdf:resource="http://purl.org/dc/dcmitype/StillImage" />
        <dc:title>Vorlage f端r 32x32-Pixel-Icons f端r McMinos</dc:title>
        <dc:date>2010-04-05</dc:date>
        <dc:creator>
          <cc:Agent>
            <dc:title>Andreas Neudecker &lt;zapyon@gmx.net&gt;</dc:title>
          </cc:Agent>
        </dc:creator>
        <dc:rights>
          <cc:Agent>
            <dc:title>Copyright (C) 2010 by Andreas Neudecker</dc:title>
          </cc:Agent>
        </dc:rights>
        <dc:publisher>
          <cc:Agent>
            <dc:title>Andreas Neudecker</dc:title>
          </cc:Agent>
        </dc:publisher>
        <dc:identifier>vorlage-32x32-mcminos</dc:identifier>
        <dc:description>Vorlage f端r 32x32-Pixel-Icons f端r McMinos. Metadaten jeweils entsprechend anpassen!</dc:description>
      </cc:Work>
    </rdf:RDF>
  </metadata>
  <g
     id="layer1"
     inkscape:label="Layer 1"
     inkscape:groupmode="layer">
    <g
       id="g4844">
      <path
         sodipodi:nodetypes="ccccccccc"
         id="path7053"
         d="M 32,29 L 29,29 L 29,32 L 3,32 L 3,29 L 0,29 L 0,3 L 32,3 L 32,29 z"
         style="fill:#000000;fill-opacity:1;fill-rule:nonzero;stroke:none;stroke-width:2;stroke-linecap:round;stroke-linejoin:miter;stroke-miterlimit:4;stroke-dashoffset:0;stroke-opacity:1" />
      <path
         sodipodi:nodetypes="ccccc"
         id="path2570"
         d="M 16,16 L 16,32 L 28,32 L 28,28 L 16,16 z"
         style="fill:#cccccc;fill-opacity:1;fill-rule:nonzero;stroke:none;stroke-width:2;stroke-linecap:round;stroke-linejoin:miter;stroke-miterlimit:4;stroke-dasharray:none;stroke-dashoffset:0;stroke-opacity:1" />
      <path
         sodipodi:nodetypes="ccccccc"
         style="fill:#666666;fill-opacity:1;fill-rule:nonzero;stroke:none;stroke-width:2;stroke-linecap:round;stroke-linejoin:miter;stroke-miterlimit:4;stroke-dasharray:none;stroke-dashoffset:0;stroke-opacity:1"
         d="M 0,16 L 0,28 L 4,28 L 4,32 L 16,32 L 16,16 L 0,16 z"
         id="path3342" />
      <path
         transform="matrix(0,-1,-1,0,32,32)"
         d="M 17,16 A 1,1 0 1 1 15,16 A 1,1 0 1 1 17,16 z"
         sodipodi:ry="1"
         sodipodi:rx="1"
         sodipodi:cy="16"
         sodipodi:cx="16"
         id="path3344"
         style="fill:#c0c0c0;fill-opacity:1;fill-rule:nonzero;stroke:none;stroke-width:2;stroke-linecap:round;stroke-linejoin:miter;stroke-miterlimit:4;stroke-dasharray:none;stroke-dashoffset:0;stroke-opacity:1"
         sodipodi:type="arc" />
      <path
         sodipodi:nodetypes="ccccccccccccccccccccccccc"
         id="path3626"
         d="M 18,32 L 17.96875,18 L 18.96875,19 L 19,32 L 18,32 z M 20,32 L 19.96875,20 L 20.96875,21 L 21,32 L 20,32 z M 22,32 L 22,22 L 23,23 L 23,32 L 22,32 z M 23.96875,32 L 23.96875,24 L 24.96875,25 L 25,32 L 23.96875,32 z M 26,32 L 25.96875,26 L 26.96875,27 L 27,32 L 26,32 z"
         style="fill:#bbbbbb;fill-opacity:1;fill-rule:nonzero;stroke:none;stroke-width:2;stroke-linecap:round;stroke-linejoin:miter;stroke-miterlimit:4;stroke-dasharray:none;stroke-dashoffset:0;stroke-opacity:1" />
      <path
         sodipodi:nodetypes="ccccccccccccccccccccccccccccccccccc"
         id="path3368"
         d="M 0,18 L 14,17.96875 L 14,32 L 13,32 L 13,18.96875 L 0,19 L 0,18 z M 0,20 L 12,19.96875 L 12,32 L 11,32 L 11,20.96875 L 0,21 L 0,20 z M 0,22 L 10,22 L 10,32 L 9,32 L 9,23 L 0,23 L 0,22 z M 0,24 L 8,23.96875 L 8,32 L 7,32 L 7,24.96875 L 0,25 L 0,24 z M 0,26 L 6,25.96875 L 6,32 L 5,32 L 5,26.96875 L 0,27 L 0,26 z"
         style="fill:#555555;fill-opacity:1;fill-rule:nonzero;stroke:none;stroke-width:2;stroke-linecap:round;stroke-linejoin:miter;stroke-miterlimit:4;stroke-dasharray:none;stroke-dashoffset:0;stroke-opacity:1" />
      <path
         transform="matrix(0,1,1,0,0,0)"
         sodipodi:type="arc"
         style="fill:#222222;fill-opacity:1;fill-rule:nonzero;stroke:none;stroke-width:2;stroke-linecap:round;stroke-linejoin:miter;stroke-miterlimit:4;stroke-dasharray:none;stroke-dashoffset:0;stroke-opacity:1"
         id="path3366"
         sodipodi:cx="16"
         sodipodi:cy="16"
         sodipodi:rx="1"
         sodipodi:ry="1"
         d="M 17,16 A 1,1 0 1 1 15,16 A 1,1 0 1 1 17,16 z" />
      <path
         sodipodi:nodetypes="ccccc"
         id="path7041"
         d="M 0,4 L 0,16 L 32,16 L 32,4 L 0,4 z"
         style="fill:#cccccc;fill-opacity:1;fill-rule:nonzero;stroke:none;stroke-width:2;stroke-linecap:round;stroke-linejoin:miter;stroke-miterlimit:4;stroke-dasharray:none;stroke-dashoffset:0;stroke-opacity:1" />
      <path
         sodipodi:nodetypes="ccccc"
         style="fill:#666666;fill-opacity:1;fill-rule:nonzero;stroke:none;stroke-width:2;stroke-linecap:round;stroke-linejoin:miter;stroke-miterlimit:4;stroke-dasharray:none;stroke-dashoffset:0;stroke-opacity:1"
         d="M 32,16 L 32,28 L 28,28 L 16,16 L 32,16 z"
         id="path7045" />
      <path
         sodipodi:nodetypes="ccccccccc"
         id="rect3926"
         d="M 32,17 L 17,17 L 17,32 L 15,32 L 15,17 L 0,17 L 0,15 L 32,15 L 32,17 z"
         style="fill:#eeeeee;fill-opacity:1;fill-rule:nonzero;stroke:none;stroke-width:2;stroke-linecap:round;stroke-linejoin:miter;stroke-miterlimit:4;stroke-dasharray:none;stroke-dashoffset:0;stroke-opacity:1" />
      <rect
         transform="matrix(0,-1,-1,0,0,0)"
         y="-17"
         x="-17"
         height="1.9999971"
         width="2"
         id="rect4379"
         style="fill:#222222;fill-opacity:1;fill-rule:nonzero;stroke:none;stroke-width:2;stroke-linecap:round;stroke-linejoin:miter;stroke-miterlimit:4;stroke-dasharray:none;stroke-dashoffset:0;stroke-opacity:1" />
      <path
         sodipodi:nodetypes="ccccccccccccccccccccccccc"
         id="path7028"
         d="M 32,14 L 0,14 L 0,13 L 32,13 L 32,14 z M 32,12 L 0,12 L 0,11 L 32,11 L 32,12 z M 32,10 L 0,10 L 0,9 L 32,9 L 32,10 z M 32,8 L 0,8 L 0,7 L 32,7 L 32,8 z M 32,6 L 0,6 L 0,5 L 32,5 L 32,6 z"
         style="fill:#bbbbbb;fill-opacity:1;fill-rule:nonzero;stroke:none;stroke-width:2;stroke-linecap:round;stroke-linejoin:miter;stroke-miterlimit:4;stroke-dasharray:none;stroke-dashoffset:0;stroke-opacity:1" />
      <path
         style="fill:#555555;fill-opacity:1;fill-rule:nonzero;stroke:none;stroke-width:2;stroke-linecap:round;stroke-linejoin:miter;stroke-miterlimit:4;stroke-dasharray:none;stroke-dashoffset:0;stroke-opacity:1"
         d="M 32,18 L 18,17.96875 L 19,18.96875 L 32,19 L 32,18 z M 32,20 L 20,19.96875 L 21,20.96875 L 32,21 L 32,20 z M 32,22 L 22,22 L 23,23 L 32,23 L 32,22 z M 32,24 L 24,23.96875 L 25,24.96875 L 32,25 L 32,24 z M 32,26 L 26,25.96875 L 27,26.96875 L 32,27 L 32,26 z"
         id="path7034"
         sodipodi:nodetypes="ccccccccccccccccccccccccc" />
    </g>
  </g>
</svg>
