<?xml version="1.0" encoding="UTF-8" standalone="no"?>
<!-- Created with Inkscape (http://www.inkscape.org/) -->

<svg
   xmlns:dc="http://purl.org/dc/elements/1.1/"
   xmlns:cc="http://creativecommons.org/ns#"
   xmlns:rdf="http://www.w3.org/1999/02/22-rdf-syntax-ns#"
   xmlns:svg="http://www.w3.org/2000/svg"
   xmlns="http://www.w3.org/2000/svg"
   xmlns:sodipodi="http://sodipodi.sourceforge.net/DTD/sodipodi-0.dtd"
   xmlns:inkscape="http://www.inkscape.org/namespaces/inkscape"
   width="32"
   height="32"
   id="svg3259"
   version="1.1"
   inkscape:version="0.48.5 r10040"
   sodipodi:docname="09.svg">
  <defs
     id="defs3261" />
  <sodipodi:namedview
     id="base"
     pagecolor="#ffffff"
     bordercolor="#666666"
     borderopacity="1.0"
     inkscape:pageopacity="0.0"
     inkscape:pageshadow="2"
     inkscape:zoom="17.21875"
     inkscape:cx="16"
     inkscape:cy="16"
     inkscape:document-units="px"
     inkscape:current-layer="layer1"
     showgrid="true"
     gridtolerance="17"
     showguides="true"
     inkscape:guide-bbox="true"
     inkscape:window-width="1024"
     inkscape:window-height="768"
     inkscape:window-x="0"
     inkscape:window-y="2"
     inkscape:window-maximized="0"
     guidetolerance="15">
    <inkscape:grid
       type="xygrid"
       id="grid3267"
       empspacing="4"
       visible="true"
       enabled="true"
       snapvisiblegridlinesonly="true" />
    <sodipodi:guide
       orientation="1,0"
       position="16,36"
       id="guide3269" />
    <sodipodi:guide
       orientation="0,1"
       position="-4,16"
       id="guide3271" />
    <sodipodi:guide
       orientation="-0.70710678,0.70710678"
       position="15,15"
       id="guide3860" />
    <sodipodi:guide
       orientation="-0.70710678,0.70710678"
       position="8,4"
       id="guide3864" />
    <sodipodi:guide
       orientation="-0.70710678,0.70710678"
       position="-4,12"
       id="guide3870" />
  </sodipodi:namedview>
  <metadata
     id="metadata3264">
    <rdf:RDF>
      <cc:Work
         rdf:about="">
        <dc:format>image/svg+xml</dc:format>
        <dc:type
           rdf:resource="http://purl.org/dc/dcmitype/StillImage" />
        <dc:title></dc:title>
      </cc:Work>
    </rdf:RDF>
  </metadata>
  <g
     inkscape:label="Ground level"
     inkscape:groupmode="layer"
     id="layer1"
     transform="translate(0,-1020.3622)">
    <path
       style="fill:black;fill-opacity:0.50196078;fill-rule:nonzero;stroke:none"
       d="m 5,984.3622 0,5 -5,0 0,1 6,0 0,-6 -1,0 z m 2,0 0,7 -7,0 0,1 8,0 0,-8 -1,0 z m 2,0 0,9 -9,0 0,1 10,0 0,-10 -1,0 z m 2,0 0,11 -11,0 0,1 12,0 0,-12 -1,0 z m 2,0 0,13 -13,0 0,1 14,0 0,-14 -1,0 z m 5,0 0,14 14,0 0,-1 -13,0 0,-13 -1,0 z m 2,0 0,12 12,0 0,-1 -11,0 0,-11 -1,0 z m 2,0 0,10 10,0 0,-1 -9,0 0,-9 -1,0 z m 2,0 0,8 8,0 0,-1 -7,0 0,-7 -1,0 z m 2,0 0,6 6,0 0,-1 -5,0 0,-5 -1,0 z m -26,18 0,1 13,0 0,13 1,0 0,-14 -14,0 z m 18,0 0,14 1,0 0,-13 13,0 0,-1 -14,0 z m -18,2 0,1 11,0 0,11 1,0 0,-12 -12,0 z m 20,0 0,12 1,0 0,-11 11,0 0,-1 -12,0 z m -20,2 0,1 9,0 0,9 1,0 0,-10 -10,0 z m 22,0 0,10 1,0 0,-9 9,0 0,-1 -10,0 z m -22,2 0,1 7,0 0,7 1,0 0,-8 -8,0 z m 24,0 0,8 1,0 0,-7 7,0 0,-1 -8,0 z m -24,2 0,1 5,0 0,5 1,0 0,-6 -6,0 z m 26,0 0,6 1,0 0,-5 5,0 0,-1 -6,0 z"
       id="path60920"
       inkscape:connector-curvature="0" />
    <g
       id="g65803">
      <path
         id="path65515"
         transform="translate(0,1020.3622)"
         d="M 5 0 L 5 6.5 C 5 5.6784835 5.3881928 4.95572 6 4.5 L 6 0 L 5 0 z M 5 6.5 L 5 22.03125 C 5.2792862 21.6578 5.6290605 21.313687 6 21.03125 L 6 8.5 C 5.3881928 8.04428 5 7.3215165 5 6.5 z M 7 0 L 7 4.0625 C 7.162744 4.0291975 7.327411 4 7.5 4 C 7.672589 4 7.837256 4.0291975 8 4.0625 L 8 0 L 7 0 z M 9 0 L 9 4.5 C 9.6118072 4.95572 10 5.6784835 10 6.5 L 10 0 L 9 0 z M 10 6.5 C 10 7.3215165 9.6118072 8.04428 9 8.5 L 9 11.71875 C 9.2978826 11.379022 9.6491703 11.066171 10 10.78125 L 10 6.5 z M 11 0 L 11 10.09375 C 11.326956 9.9024134 11.645398 9.7376147 12 9.59375 L 12 0 L 11 0 z M 13 0 L 13 9.25 C 13.321268 9.1671683 13.664206 9.1049176 14 9.0625 L 14 0 L 13 0 z M 18 0 L 18 9.5625 C 18.353612 9.7050168 18.673542 9.9042726 19 10.09375 L 19 0 L 18 0 z M 20 0 L 20 8.03125 C 20 7.0157154 20.376474 6.0804016 21 5.375 L 21 0 L 20 0 z M 20 8.03125 L 20 10.75 C 20.458805 11.117877 20.882122 11.541195 21.25 12 L 23.71875 12 C 22.799179 11.935456 21.956192 11.581803 21.3125 11 L 21 11 L 21 10.6875 C 20.376474 9.982089 20 9.0467386 20 8.03125 z M 22 0 L 22 4.59375 C 22.309889 4.4140991 22.644642 4.2791386 23 4.1875 L 23 0 L 22 0 z M 24 0 L 24 4.03125 C 24.345951 4.03125 24.679835 4.104937 25 4.1875 L 25 0 L 24 0 z M 26 0 L 26 4.59375 C 26.596896 4.9397858 27.087545 5.4056695 27.4375 6 L 32 6 L 32 5 L 27 5 L 27 0 L 26 0 z M 27.84375 7 C 27.92871 7.3193249 27.997343 7.6545435 28 8 L 32 8 L 32 7 L 27.84375 7 z M 7 8.9375 L 7 20.4375 C 7.3187168 20.297249 7.6505843 20.165251 8 20.09375 L 8 16.28125 A 8 8 0 0 0 7.03125 16.59375 C 7.093832 15.360962 7.4437143 14.21182 8 13.1875 L 8 8.9375 C 7.837256 8.9708025 7.672589 9 7.5 9 C 7.327411 9 7.162744 8.9708025 7 8.9375 z M 27.875 9 C 27.787053 9.3555459 27.644671 9.6890891 27.46875 10 L 32 10 L 32 9 L 27.875 9 z M 26.65625 11 C 26.013239 11.579246 25.198455 11.935622 24.28125 12 L 32 12 L 32 11 L 26.65625 11 z M 21.90625 13 C 22.094304 13.324003 22.264438 13.649233 22.40625 14 L 32 14 L 32 13 L 21.90625 13 z M 10 16 A 8 8 0 0 0 9 16.0625 L 9 20 C 9.345178 20 9.674512 20.027145 10 20.09375 L 10 16 z M 11 16.0625 L 11 20 L 11 20.4375 C 11.349289 20.591204 11.666768 20.77416 11.96875 21 C 11.975062 21.00472 11.993711 20.995251 12 21 L 17.40625 21 A 8 8 0 0 0 16.90625 20 L 12 20 L 12 16.25 A 8 8 0 0 0 11 16.0625 z M 13 16.625 L 13 18 L 13 19 L 14 19 L 16.21875 19 A 8 8 0 0 0 15.25 18 L 14 18 L 14 17.09375 A 8 8 0 0 0 13 16.625 z M 22.9375 18 C 22.894629 18.3469 22.80443 18.668287 22.71875 19 L 32 19 L 32 18 L 22.9375 18 z M 22.40625 20 C 22.26534 20.348176 22.092661 20.678216 21.90625 21 L 32 21 L 32 20 L 22.40625 20 z M 12.96875 22 C 13.205887 22.311446 13.402907 22.637328 13.5625 23 L 17.90625 23 A 8 8 0 0 0 17.71875 22 L 12.96875 22 z M 21.21875 22 C 20.931805 22.357624 20.624623 22.696725 20.28125 23 L 32 23 L 32 22 L 21.21875 22 z M 13.90625 24 C 13.972854 24.325486 14 24.654825 14 25 L 32 25 L 32 24 L 18.84375 24 C 18.559638 24.156082 18.272702 24.316349 17.96875 24.4375 A 8 8 0 0 0 17.96875 24 L 13.90625 24 z M 13.90625 26 C 13.834749 26.349414 13.70275 26.681284 13.5625 27 L 25.5 27 C 25.955718 26.388192 26.678476 26 27.5 26 L 13.90625 26 z M 27.5 26 C 28.321524 26 29.044282 26.388192 29.5 27 L 32 27 L 32 26 L 27.5 26 z "
         style="fill:black;fill-opacity:0.50196078;fill-rule:nonzero;stroke:none" />
      <rect
         y="1020.3622"
         x="0"
         height="32"
         width="32"
         id="rect10063"
         style="fill:none;stroke:none" />
      <path
         id="path3093"
         d="m 16.1875,1024.3622 a 12,12 0 0 0 -4.375,0.75 4,4 0 0 1 0.0625,0.2188 4,4 0 0 1 -1.0625,3.8437 4,4 0 0 1 -1.15625,0.8438 l 0.78125,0.7812 a 8,8 0 0 1 4.5625,-1.4375 8,8 0 0 1 8,8 8,8 0 0 1 -1.4375,4.5625 l 2.9375,2.9375 a 12,12 0 0 0 3.09375,-11.5937 12,12 0 0 0 -0.125,-0.4063 6,6 0 0 1 -6.71875,-1.2187 6,6 0 0 1 -1.1875,-6.7188 12,12 0 0 0 -0.46875,-0.1562 12,12 0 0 0 -2.90625,-0.4063 z m -6.34375,1.6875 c 0.044986,0.129 0.097184,0.2714 0.125,0.4063 a 2.5,2.5 0 0 0 -0.09375,-0.4063 12,12 0 0 0 -0.03125,0 z m 0.125,0.4063 C 9.996566,1026.5908 10,1026.7179 10,1026.8622 a 2.5,2.5 0 0 0 -0.03125,-0.4062 z m 11.78125,5.25 a 4,4 0 0 0 0.6875,0.375 c -0.239277,-0.1013 -0.474699,-0.2313 -0.6875,-0.375 z"
         style="fill:black;fill-opacity:0.25098039;stroke:none"
         inkscape:connector-curvature="0" />
      <path
         id="path3850"
         d="m 5.96875,1029.7997 a 12,12 0 0 0 -1.6875,4.0938 2.2585649,2.2585649 0 0 1 1.28125,1.5 2.2585649,2.2585649 0 0 1 -0.5625,2.1875 2.2585649,2.2585649 0 0 1 -0.84375,0.5312 12,12 0 0 0 0.125,0.6563 8,8 0 0 1 0.0625,-0.063 8,8 0 0 1 2.65625,-1.75 8,8 0 0 1 0.03125,0 8,8 0 0 1 3.40625,-6.1563 l -0.78125,-0.7812 -0.03125,0 a 4,4 0 0 1 -3.65625,-0.2188 z m 1.6875,10.75 a 5,5 0 0 0 -0.59375,0.2188 c 0.1914214,-0.081 0.390295,-0.1587 0.59375,-0.2188 z m 13.90625,1.375 a 8,8 0 0 1 -3.59375,2.8438 8,8 0 0 1 -1.0625,3.5625 12,12 0 0 0 7.59375,-3.4688 l -2.9375,-2.9375 z"
         style="fill:#f0f0f0;fill-opacity:0.25098039;stroke:none"
         inkscape:connector-curvature="0" />
      <path
         id="path3856"
         d="m 4.34375,1038.706 a 8,8 0 0 0 0,11.3125 8,8 0 0 0 11.3125,0 l -2.265625,-2.2657 A 5,5 0 0 1 9,1050.3622 a 5,5 0 0 1 -5,-5 5,5 0 0 1 2.6132812,-4.3867 L 4.34375,1038.706 z"
         style="fill:#f0f0f0;fill-opacity:0.25098039;stroke:none"
         inkscape:connector-curvature="0" />
      <path
         id="path3095"
         d="m 10.117188,1036.3622 a 8,8 0 0 0 -5.773438,2.3438 l 2.2695312,2.2695 A 5,5 0 0 1 9,1040.3622 a 5,5 0 0 1 5,5 5,5 0 0 1 -0.609375,2.3906 l 2.265625,2.2657 a 8,8 0 0 0 2.070312,-7.7266 8,8 0 0 0 -5.65625,-5.6563 8,8 0 0 0 -1.953124,-0.2734 z"
         style="fill:black;fill-opacity:0.25098039;stroke:none"
         inkscape:connector-curvature="0" />
      <path
         inkscape:connector-curvature="0"
         id="path3852"
         d="m 8.0585938,1022.3622 a 4,4 0 0 0 -2.8867188,1.1719 l 1.1347656,1.1347 A 2.5,2.5 0 0 1 7.5,1024.3622 a 2.5,2.5 0 0 1 2.5,2.5 2.5,2.5 0 0 1 -0.3046875,1.1953 l 1.1328125,1.1328 a 4,4 0 0 0 1.035156,-3.8633 4,4 0 0 0 -2.8281248,-2.8281 4,4 0 0 0 -0.9765624,-0.1367 z"
         style="fill:black;fill-opacity:0.25098039;stroke:none" />
      <path
         id="path3091"
         d="m 5.171875,1023.5341 a 4,4 0 0 0 0,5.6562 4,4 0 0 0 5.65625,0 l -1.1328125,-1.1328 A 2.5,2.5 0 0 1 7.5,1029.3622 a 2.5,2.5 0 0 1 -2.5,-2.5 2.5,2.5 0 0 1 1.3066406,-2.1934 l -1.1347656,-1.1347 z"
         style="fill:#f0f0f0;fill-opacity:0.25098039;stroke:none"
         inkscape:connector-curvature="0" />
      <path
         id="path3097"
         d="m 28.058594,1044.3622 a 4,4 0 0 0 -2.886719,1.1719 l 1.134766,1.1347 a 2.5,2.5 0 0 1 1.193359,-0.3066 2.5,2.5 0 0 1 2.5,2.5 2.5,2.5 0 0 1 -0.304688,1.1953 l 1.132813,1.1328 a 4,4 0 0 0 1.035156,-3.8633 4,4 0 0 0 -2.828125,-2.8281 4,4 0 0 0 -0.976562,-0.1367 z"
         style="fill:black;fill-opacity:0.25098039;stroke:none"
         inkscape:connector-curvature="0" />
      <path
         id="path3099"
         d="m 25.171875,1045.5341 a 4,4 0 0 0 0,5.6562 4,4 0 0 0 5.65625,0 l -1.132813,-1.1328 a 2.5,2.5 0 0 1 -2.195312,1.3047 2.5,2.5 0 0 1 -2.5,-2.5 2.5,2.5 0 0 1 1.306641,-2.1934 l -1.134766,-1.1347 z"
         style="fill:#f0f0f0;fill-opacity:0.25098039;stroke:none"
         inkscape:connector-curvature="0" />
      <path
         id="path4196"
         d="m 3.4199219,1033.7274 a 2.2585649,2.2585649 0 0 0 -1.6289063,0.6621 l 0.640625,0.6407 a 1.4116032,1.4116032 0 0 1 0.6738282,-0.1739 1.4116032,1.4116032 0 0 1 1.4121093,1.4122 1.4116032,1.4116032 0 0 1 -0.1738281,0.6738 l 0.640625,0.6406 a 2.2585649,2.2585649 0 0 0 0.5859375,-2.1816 2.2585649,2.2585649 0 0 0 -1.5976563,-1.5977 2.2585649,2.2585649 0 0 0 -0.5527343,-0.076 z"
         style="fill:black;fill-opacity:0.25098039;stroke:none"
         inkscape:connector-curvature="0" />
      <path
         id="path4198"
         d="m 1.7910156,1034.3895 a 2.2585649,2.2585649 0 0 0 0,3.1934 2.2585649,2.2585649 0 0 0 3.1933594,0 l -0.640625,-0.6406 a 1.4116032,1.4116032 0 0 1 -1.2382812,0.7383 1.4116032,1.4116032 0 0 1 -1.4121094,-1.4121 1.4116032,1.4116032 0 0 1 0.7382812,-1.2383 l -0.640625,-0.6407 z"
         style="fill:#f0f0f0;fill-opacity:0.25098039;stroke:none"
         inkscape:connector-curvature="0" />
      <path
         id="path5218"
         d="m 25.086984,1021.3999 a 6,6 0 0 0 -4.330078,1.7578 l 1.599609,1.5996 a 4,4 0 0 1 1.642578,-0.3574 4,4 0 0 1 4,4 4,4 0 0 1 -0.357421,1.6426 l 1.599609,1.5996 a 6,6 0 0 0 1.552734,-5.7949 6,6 0 0 0 -4.242187,-4.2442 6,6 0 0 0 -1.464844,-0.2031 z"
         style="fill:black;fill-opacity:0.25098039;stroke:none"
         inkscape:connector-curvature="0" />
      <path
         inkscape:connector-curvature="0"
         style="fill:black;fill-opacity:0.25098039;stroke:none"
         d="m 2.5209177,1022.3626 a 1.5000021,1.5000021 0 0 0 -1.0818209,0.4397 l 0.4254643,0.4255 a 0.93750139,0.93750139 0 0 1 0.4475159,-0.1155 0.93750139,0.93750139 0 0 1 0.9378375,0.9378 0.93750139,0.93750139 0 0 1 -0.1154461,0.4476 l 0.4254643,0.4254 a 1.5000021,1.5000021 0 0 0 0.3891443,-1.4489 1.5000021,1.5000021 0 0 0 -1.0610666,-1.0611 1.5000021,1.5000021 0 0 0 -0.3670927,-0.05 z"
         id="path5290" />
      <path
         inkscape:connector-curvature="0"
         style="fill:#f0f0f0;fill-opacity:0.25098039;stroke:none"
         d="m 1.4390968,1022.8023 a 1.5000021,1.5000021 0 0 0 0,2.1208 1.5000021,1.5000021 0 0 0 2.1208359,0 l -0.4254643,-0.4254 a 0.93750139,0.93750139 0 0 1 -0.8223914,0.4903 0.93750139,0.93750139 0 0 1 -0.9378376,-0.9379 0.93750139,0.93750139 0 0 1 0.4903217,-0.8223 l -0.4254643,-0.4255 z"
         id="path5292" />
      <path
         id="path5298"
         d="m 22.520918,1048.3626 a 1.5000021,1.5000021 0 0 0 -1.081821,0.4397 l 0.425464,0.4255 a 0.93750139,0.93750139 0 0 1 0.447516,-0.1155 0.93750139,0.93750139 0 0 1 0.937838,0.9378 0.93750139,0.93750139 0 0 1 -0.115446,0.4476 l 0.425464,0.4254 a 1.5000021,1.5000021 0 0 0 0.389144,-1.4489 1.5000021,1.5000021 0 0 0 -1.061066,-1.0611 1.5000021,1.5000021 0 0 0 -0.367093,-0.051 z"
         style="fill:black;fill-opacity:0.25098039;stroke:none"
         inkscape:connector-curvature="0" />
      <path
         id="path5300"
         d="m 21.439097,1048.8023 a 1.5000021,1.5000021 0 0 0 0,2.1208 1.5000021,1.5000021 0 0 0 2.120836,0 l -0.425464,-0.4254 a 0.93750139,0.93750139 0 0 1 -0.822392,0.4903 0.93750139,0.93750139 0 0 1 -0.937837,-0.9379 0.93750139,0.93750139 0 0 1 0.490321,-0.8223 l -0.425464,-0.4255 z"
         style="fill:#f0f0f0;fill-opacity:0.25098039;stroke:none"
         inkscape:connector-curvature="0" />
      <path
         inkscape:connector-curvature="0"
         style="fill:#f0f0f0;fill-opacity:0.25098039;stroke:none"
         d="m 20.756906,1023.1577 a 6,6 0 0 0 0,8.4844 6,6 0 0 0 8.484375,0 l -1.599609,-1.5996 a 4,4 0 0 1 -3.642579,2.3574 4,4 0 0 1 -4,-4 4,4 0 0 1 2.357422,-3.6426 l -1.599609,-1.5996 z"
         id="path12463" />
    </g>
    <path
       style="fill:red;fill-opacity:0.25098039;stroke:none"
       d="m 61.093432,1021.3949 a 6,6 0 0 0 -4.34375,1.75 6,6 0 0 0 -1.1875,1.7812 12,12 0 0 0 -0.03125,0 12,12 0 0 0 -0.4375,-0.1562 12,12 0 0 0 -2.90625,-0.4063 12,12 0 0 0 -4.375,0.75 4,4 0 0 0 -2.78125,-2.625 4,4 0 0 0 -0.96875,-0.125 4,4 0 0 0 -2.875,1.1875 4,4 0 0 0 0,5.625 4,4 0 0 0 0.78125,0.625 12,12 0 0 0 -1.6875,4.0938 2.2585649,2.2585649 0 0 1 0.1875,0.094 2.2585649,2.2585649 0 0 0 -0.5,-0.1875 2.2585649,2.2585649 0 0 0 -0.5625,-0.063 2.2585649,2.2585649 0 0 0 -1.625,0.6563 2.2585649,2.2585649 0 0 0 0,3.1875 2.2585649,2.2585649 0 0 0 2.375,0.5312 12,12 0 0 0 0.125,0.6563 8,8 0 0 0 0.0625,11.25 8,8 0 0 0 11.3125,0 8,8 0 0 0 1.25,-1.6875 12,12 0 0 0 7.59375,-3.4688 12,12 0 0 0 3.09375,-11.5937 12,12 0 0 0 -0.125,-0.4063 6,6 0 0 0 1.78125,-1.2187 6,6 0 0 0 1.53125,-5.7813 6,6 0 0 0 -4.21875,-4.25 6,6 0 0 0 -1.46875,-0.2187 z m -22.71875,0.9687 a 1.5000021,1.5000021 0 0 0 -0.9375,0.4375 1.5000021,1.5000021 0 0 0 0,2.125 1.5000021,1.5000021 0 0 0 2.125,0 1.5000021,1.5000021 0 0 0 0.375,-1.4375 1.5000021,1.5000021 0 0 0 -1.0625,-1.0625 1.5000021,1.5000021 0 0 0 -0.34375,-0.063 1.5000021,1.5000021 0 0 0 -0.15625,0 z m 4.875,2 a 2.5,2.5 0 0 1 0.25,0 2.5,2.5 0 0 1 0.5,0.063 c -0.162744,-0.033 -0.327411,-0.063 -0.5,-0.063 -0.172589,0 -0.337256,0.029 -0.5,0.063 a 2.5,2.5 0 0 1 0.25,-0.063 z m 16.65625,0.031 c -0.243349,0.01 -0.48801,0.047 -0.71875,0.094 a 4,4 0 0 1 0.71875,-0.094 z m -22.375,0.1562 c 0.03654,0.057 0.07737,0.1086 0.125,0.1563 a 0.93750139,0.93750139 0 0 1 -0.125,-0.1563 z m 10.375,0.9688 a 4,4 0 0 1 0.0625,0.375 4,4 0 0 0 -0.0625,-0.375 z m 14.90625,0.063 a 4,4 0 0 1 0.3125,0.3437 c -0.09531,-0.12 -0.204273,-0.2355 -0.3125,-0.3437 z m -21.75,0.7812 c -0.0333,0.1627 -0.0625,0.3274 -0.0625,0.5 0,0.1726 0.0292,0.3373 0.0625,0.5 a 2.5,2.5 0 0 1 -0.0625,-0.5 2.5,2.5 0 0 1 0.0625,-0.5 z m 4.875,0 a 2.5,2.5 0 0 1 0.03125,0.094 2.5,2.5 0 0 1 0,0.063 c 0.0081,0.052 0.02831,0.1043 0.03125,0.1562 a 2.5,2.5 0 0 1 0,0.1875 2.5,2.5 0 0 1 -0.0625,0.5 c 0.0333,-0.1627 0.0625,-0.3274 0.0625,-0.5 0,-0.1182 -0.01539,-0.23 -0.03125,-0.3437 -0.0073,-0.053 -0.02075,-0.105 -0.03125,-0.1563 z m 18,1.3438 a 4,4 0 0 1 0.0625,0.6873 c 0,-0.2331 -0.02426,-0.4655 -0.0625,-0.6875 z m -7.9375,0.6873 c 0,0.233 0.02426,0.4654 0.0625,0.6875 a 4,4 0 0 1 -0.0625,-0.6875 z m -13,0.9062 c 0.162744,0.033 0.327411,0.063 0.5,0.063 0.172589,0 0.337256,-0.029 0.5,-0.063 a 2.5,2.5 0 0 1 -0.5,0.063 2.5,2.5 0 0 1 -0.5,-0.063 z m 9.78125,0.25 a 8,8 0 0 1 1.34375,0.4375 c -0.429932,-0.1818 -0.879295,-0.3326 -1.34375,-0.4375 z m 6.46875,2.7813 c 0.241765,0.046 0.494974,0.063 0.75,0.063 a 4,4 0 0 1 -0.75,-0.063 z m -14.71875,0.375 c -0.144638,0.2018 -0.280488,0.4097 -0.40625,0.625 a 8,8 0 0 1 0.40625,-0.625 z m 15.46875,0.5937 a 6,6 0 0 0 1.09375,0.094 6,6 0 0 1 -1.09375,-0.094 z m -19.5,0.7188 a 2.2585649,2.2585649 0 0 1 0.1875,0.125 2.2585649,2.2585649 0 0 0 -0.1875,-0.125 z m 18.125,0.9687 a 8,8 0 0 1 0.15625,0.5 c -0.04126,-0.1725 -0.104016,-0.3321 -0.15625,-0.5 z m 0.375,2.375 a 8,8 0 0 1 -0.09375,1.1563 c 0.05376,-0.3753 0.09375,-0.7662 0.09375,-1.1563 z m -19.40625,0.2188 a 1.4116032,1.4116032 0 0 1 -0.375,0.094 c 0.128503,-0.012 0.258729,-0.05 0.375,-0.094 z m 19.28125,1.125 a 8,8 0 0 1 -0.1875,0.8125 c 0.07593,-0.2712 0.140152,-0.5306 0.1875,-0.8125 z m -0.3125,1.25 a 8,8 0 0 1 -0.3125,0.75 c 0.111245,-0.2419 0.225342,-0.496 0.3125,-0.75 z m -12.5625,0.5 a 5,5 0 0 1 0.9375,0.3125 5,5 0 0 1 0.71875,0.375 c -0.231401,-0.147 -0.463629,-0.2671 -0.71875,-0.375 -0.299096,-0.1266 -0.612012,-0.2459 -0.9375,-0.3125 z m -2.09375,0.031 c -0.290835,0.066 -0.574564,0.1674 -0.84375,0.2813 a 5,5 0 0 1 0.84375,-0.2813 z m 9.3125,0.4688 a 8,8 0 0 1 0.25,0.5625 8,8 0 0 1 0.25,0.7812 8,8 0 0 0 -0.25,-0.7812 8,8 0 0 0 -0.25,-0.5625 z m -4,1.7187 a 5,5 0 0 1 0.375,0.75 c -0.1116,-0.2639 -0.221692,-0.5116 -0.375,-0.75 z m -8.4375,0.031 c -0.146972,0.2314 -0.267093,0.4636 -0.375,0.7187 -0.126507,0.2991 -0.245896,0.612 -0.3125,0.9375 a 5,5 0 0 1 0.3125,-0.9375 5,5 0 0 1 0.375,-0.7187 z m 22.875,1.6562 a 4,4 0 0 0 -2.46875,1.1875 4,4 0 0 0 0,5.625 4,4 0 0 0 5.625,0 4,4 0 0 0 1.0625,-3.8437 4,4 0 0 0 -2.84375,-2.8438 4,4 0 0 0 -0.96875,-0.125 4,4 0 0 0 -0.40625,0 z m -13.6875,0.5 a 5,5 0 0 1 0.03125,0.5 c 0,-0.1726 -0.01418,-0.3319 -0.03125,-0.5 z m -9.96875,0.5 c 0,0.1726 0.01418,0.3319 0.03125,0.5 a 5,5 0 0 1 -0.03125,-0.4995 z m 9.90625,1 a 5,5 0 0 1 -0.3125,0.9375 c 0.126507,-0.2991 0.245896,-0.612 0.3125,-0.9375 z m 13.34375,0 a 2.5,2.5 0 0 1 0.25,0 2.5,2.5 0 0 1 0.5,0.063 c -0.162744,-0.033 -0.327411,-0.063 -0.5,-0.063 -0.172589,0 -0.337256,0.029 -0.5,0.063 a 2.5,2.5 0 0 1 0.25,-0.063 z m -22.84375,0.9375 c 0.1116,0.2639 0.221692,0.5116 0.375,0.75 a 5,5 0 0 1 -0.375,-0.75 z m 8.6875,0.9063 a 5,5 0 0 1 -0.5625,0.6875 5,5 0 0 1 -0.75,0.625 5,5 0 0 1 -0.5,0.2812 c 0.172991,-0.09 0.339536,-0.1728 0.5,-0.2812 0.266002,-0.1798 0.523794,-0.3988 0.75,-0.625 0.20581,-0.2059 0.394931,-0.4485 0.5625,-0.6875 z m 9.28125,0.1562 a 1.5000021,1.5000021 0 0 0 -0.9375,0.4375 1.5000021,1.5000021 0 0 0 0,2.125 1.5000021,1.5000021 0 0 0 2.125,0 1.5000021,1.5000021 0 0 0 0.375,-1.4375 1.5000021,1.5000021 0 0 0 -1.0625,-1.0625 1.5000021,1.5000021 0 0 0 -0.34375,-0.063 1.5000021,1.5000021 0 0 0 -0.15625,0 z m 2.6875,0 c -0.0333,0.1627 -0.0625,0.3274 -0.0625,0.5 0,0.1726 0.0292,0.3373 0.0625,0.5 a 2.5,2.5 0 0 1 -0.0625,-0.5 2.5,2.5 0 0 1 0.0625,-0.5 z m 4.875,0 a 2.5,2.5 0 0 1 0.0625,0.5 2.5,2.5 0 0 1 -0.0625,0.5 c 0.0333,-0.1627 0.0625,-0.3274 0.0625,-0.5 0,-0.1726 -0.0292,-0.3373 -0.0625,-0.5 z m -23.59375,1.2188 c 0.231401,0.1469 0.463629,0.267 0.71875,0.375 0.299096,0.1265 0.612012,0.2458 0.9375,0.3125 a 5,5 0 0 1 -0.9375,-0.3125 5,5 0 0 1 -0.71875,-0.375 z m 3.15625,0.75 a 5,5 0 0 1 -0.5,0.031 c 0.172589,0 0.331915,-0.014 0.5,-0.031 z m 12.03125,0.2187 c 0.03654,0.057 0.07737,0.1086 0.125,0.1563 a 0.93750139,0.93750139 0 0 1 -0.125,-0.1563 z m 5.46875,0.75 c 0.162744,0.033 0.327411,0.063 0.5,0.063 0.172589,0 0.337256,-0.029 0.5,-0.063 a 2.5,2.5 0 0 1 -0.5,0.063 2.5,2.5 0 0 1 -0.5,-0.063 z"
       id="path55595"
       inkscape:connector-curvature="0" />
    <path
       inkscape:transform-center-x="-2.5"
       inkscape:connector-curvature="0"
       id="path55669"
       d="m -4,1047.3636 0,-1 -26,0 -1,1 1,0 26,0 z m 0,-2 0,-1 -24,0 -1,1 1,0 24,0 z m 0,-2 0,-1 -22,0 -1,1 1,0 22,0 z m 0,-2 0,-1 -20,0 -1,1 1,0 20,0 z m 0,-2 0,-1 -18,0 -1,1 1,0 18,0 z m 0,-5 0,-1 -13,0 -1,1 14,0 z m 0,-2 0,-1 -11,0 -1,1 12,0 z m 0,-2 0,-1 -9,0 -1,1 10,0 z m 0,-2 0,-1 -7,0 -1,1 8,0 z m 0,-2 0,-1 -5,0 -1,1 6,0 z"
       style="fill:black;fill-opacity:0.50196078;fill-rule:nonzero;stroke:none" />
    <path
       id="path55671"
       d="m -31,1020.3636 0,26 0,1 1,-1 0,-26 -1,0 z m 2,0 0,24 0,1 1,-1 0,-24 -1,0 z m 2,0 0,22 0,1 1,-1 0,-22 -1,0 z m 2,0 0,20 0,1 1,-1 0,-20 -1,0 z m 2,0 0,18 0,1 1,-1 0,-18 -1,0 z m 5,0 0,14 1,-1 0,-13 -1,0 z m 2,0 0,12 1,-1 0,-11 -1,0 z m 2,0 0,10 1,-1 0,-9 -1,0 z m 2,0 0,8 1,-1 0,-7 -1,0 z m 2,0 0,6 1,-1 0,-5 -1,0 z"
       style="fill:black;fill-opacity:0.50196078;fill-rule:nonzero;stroke:none"
       inkscape:connector-curvature="0" />
    <path
       style="fill:red;fill-opacity:0.25098039;stroke:none"
       d="m 38.312182,1023.1122 c -0.517768,0 -0.9375,0.4197 -0.9375,0.9375 0,0.5178 0.419732,0.9375 0.9375,0.9375 0.517768,0 0.9375,-0.4197 0.9375,-0.9375 0,-0.5178 -0.419732,-0.9375 -0.9375,-0.9375 z m 5.1875,1.25 c -1.380712,0 -2.5,1.1193 -2.5,2.5 0,1.3807 1.119288,2.5 2.5,2.5 1.380712,0 2.5,-1.1193 2.5,-2.5 0,-1.3807 -1.119288,-2.5 -2.5,-2.5 z m 16.5,0.031 c -2.209139,0 -4,1.7908 -4,4 0,2.2091 1.790861,4 4,4 2.209139,0 4,-1.7909 4,-4 0,-2.2092 -1.790861,-4 -4,-4 z m -9,4.9687 c -4.280003,0 -7.754183,3.3671 -7.96875,7.5938 a 8,8 0 0 1 3.09375,-0.5938 8,8 0 0 1 1.9375,0.2813 8,8 0 0 1 5.65625,5.6562 8,8 0 0 1 0.25,2.5 c 2.952672,-1.1769 5.03125,-4.0651 5.03125,-7.4375 0,-4.4183 -3.581722,-8 -8,-8 z m -11.90625,5.5 c -0.779607,0 -1.40625,0.6266 -1.40625,1.4063 0,0.7796 0.626643,1.4062 1.40625,1.4062 0.779607,0 1.4375,-0.6266 1.4375,-1.4062 0,-0.7797 -0.657893,-1.4063 -1.4375,-1.4063 z m 5.90625,5.5 c -2.761424,0 -5,2.2386 -5,5 0,2.7614 2.238576,5 5,5 2.761424,0 5,-2.2386 5,-5 0,-2.7614 -2.238576,-5 -5,-5 z m 18.5,6 c -1.380712,0 -2.5,1.1193 -2.5,2.5 0,1.3807 1.119288,2.5 2.5,2.5 1.380712,0 2.5,-1.1193 2.5,-2.5 0,-1.3807 -1.119288,-2.5 -2.5,-2.5 z m -5.1875,2.75 c -0.517768,0 -0.9375,0.4197 -0.9375,0.9375 0,0.5178 0.419732,0.9375 0.9375,0.9375 0.517768,0 0.9375,-0.4197 0.9375,-0.9375 0,-0.5178 -0.419732,-0.9375 -0.9375,-0.9375 z"
       id="path60871"
       inkscape:connector-curvature="0" />
    <path
       inkscape:connector-curvature="0"
       style="fill:black;fill-opacity:0.50196078;fill-rule:nonzero;stroke:none"
       d="m -32,1060.3622 0,26 0,1 1,-1 0,-26 -1,0 z m 2,0 0,24 0,1 1,-1 0,-24 -1,0 z m 2,0 0,22 0,1 1,-1 0,-22 -1,0 z m 2,0 0,20 0,1 1,-1 0,-20 -1,0 z m 2,0 0,18 0,1 1,-1 0,-18 -1,0 z m 5,0 0,14 1,-1 0,-13 -1,0 z m 2,0 0,12 1,-1 0,-11 -1,0 z m 2,0 0,10 1,-1 0,-9 -1,0 z m 2,0 0,8 1,-1 0,-7 -1,0 z m 2,0 0,6 1,-1 0,-5 -1,0 z"
       id="path60890" />
    <path
       id="path60895"
       d="m -10,45 -1,1 6,0 0,-1 z m -2,2 -1,1 8,0 0,-1 z m -2,2 -1,1 10,0 0,-1 z m -2,2 -1,1 12,0 0,-1 z m -2,2 -1,1 14,0 0,-1 z"
       style="fill:black;fill-opacity:0.50196078;fill-rule:nonzero;stroke:none"
       inkscape:connector-curvature="0"
       inkscape:transform-center-x="-9"
       transform="translate(0,1020.3622)"
       sodipodi:nodetypes="ccccccccccccccccccccccccc" />
    <path
       sodipodi:nodetypes="ccccccccccccccccccccccccc"
       inkscape:transform-center-x="-9"
       inkscape:connector-curvature="0"
       style="fill:black;fill-opacity:0.50196078;fill-rule:nonzero;stroke:none"
       d="m -10,1087.3622 -1,-1 6,0 0,1 z m -2,-2 -1,-1 8,0 0,1 z m -2,-2 -1,-1 10,0 0,1 z m -2,-2 -1,-1 12,0 0,1 z m -2,-2 -1,-1 14,0 0,1 z"
       id="path60897" />
    <g
       id="g60904"
       transform="matrix(0,1,-1,0,1055.3622,1097.3622)"
       inkscape:transform-center-y="9">
      <path
         id="path60900"
         d="m -10,45 -1,1 6,0 0,-1 z m -2,2 -1,1 8,0 0,-1 z m -2,2 -1,1 10,0 0,-1 z m -2,2 -1,1 12,0 0,-1 z m -2,2 -1,1 14,0 0,-1 z"
         style="fill:black;fill-opacity:0.50196078;fill-rule:nonzero;stroke:none"
         inkscape:connector-curvature="0"
         inkscape:transform-center-x="-9"
         transform="translate(0,1020.3622)"
         sodipodi:nodetypes="ccccccccccccccccccccccccc" />
      <path
         sodipodi:nodetypes="ccccccccccccccccccccccccc"
         inkscape:transform-center-x="-9"
         inkscape:connector-curvature="0"
         style="fill:black;fill-opacity:0.50196078;fill-rule:nonzero;stroke:none"
         d="m -10,1087.3622 -1,-1 6,0 0,1 z m -2,-2 -1,-1 8,0 0,1 z m -2,-2 -1,-1 10,0 0,1 z m -2,-2 -1,-1 12,0 0,1 z m -2,-2 -1,-1 14,0 0,1 z"
         id="path60902" />
    </g>
    <path
       inkscape:connector-curvature="0"
       style="fill:black;fill-opacity:0.50196078;fill-rule:nonzero;stroke:none"
       d="m 5,1056.3622 0,26 0,1 0.00195,0 21.996089,0 0.002,0 0,-1 0,-26 -1,0 0,26 -19.9999924,0 0,-26 -0.9999996,0 z m 1.9999993,0 0,24 0,1 0.00195,0 17.9960907,0 0.002,0 0,-1 0,-24 -1,0 0,24 -15.9999939,0 0,-24 -0.9999997,0 z m 1.9999992,0 0,22 0,1 0.00195,0 13.9960915,0 0.002,0 0,-1 0,-22 -1.000001,0 0,22 -11.999995,0 0,-22 -0.9999995,0 z m 1.9999995,0 0,20 0,1 0.002,0 9.996091,0 0.002,0 0,-1 0,-20 -0.999999,0 0,20 -7.999998,0 0,-20 -0.999999,0 z m 1.999999,0 0,18 0,1 0.002,0 5.996092,0 0.002,0 0,-1 0,-18 -0.999999,0 0,18 -3.999999,0 0,-18 -1,0 z"
       id="rect10236" />
  </g>
  <g
     inkscape:groupmode="layer"
     id="layer7"
     inkscape:label="Holes" />
  <g
     inkscape:groupmode="layer"
     id="layer6"
     inkscape:label="Wall" />
  <g
     inkscape:groupmode="layer"
     id="layer5"
     inkscape:label="right"
     style="display:inline" />
  <g
     inkscape:groupmode="layer"
     id="layer4"
     inkscape:label="left" />
  <g
     inkscape:groupmode="layer"
     id="layer3"
     inkscape:label="bottom"
     style="display:inline" />
  <g
     inkscape:groupmode="layer"
     id="layer2"
     inkscape:label="top" />
</svg>
