<?xml version="1.0" encoding="UTF-8" standalone="no"?>
<!-- Created with Inkscape (http://www.inkscape.org/) -->

<svg xmlns:dc="http://purl.org/dc/elements/1.1/" xmlns:cc="http://creativecommons.org/ns#" xmlns:rdf="http://www.w3.org/1999/02/22-rdf-syntax-ns#" xmlns:svg="http://www.w3.org/2000/svg" xmlns="http://www.w3.org/2000/svg" xmlns:xlink="http://www.w3.org/1999/xlink" xmlns:sodipodi="http://sodipodi.sourceforge.net/DTD/sodipodi-0.dtd" xmlns:inkscape="http://www.inkscape.org/namespaces/inkscape" width="32" height="32" id="svg2" version="1.1" inkscape:version="0.91 r13725" sodipodi:docname="00.svg" viewBox="0 0 9.031111 9.0311112" inkscape:export-filename="/home/andreas/gravel-03-128x128.png" inkscape:export-xdpi="360" inkscape:export-ydpi="360">
  <defs id="defs4">
    <inkscape:perspective sodipodi:type="inkscape:persp3d" inkscape:vp_x="0 : 148.5 : 1" inkscape:vp_y="0 : 282.22222 : 0" inkscape:vp_z="210 : 148.5 : 1" inkscape:persp3d-origin="105 : 98.999998 : 1" id="perspective10" />
  </defs>
  <sodipodi:namedview id="base" pagecolor="#ffffff" bordercolor="#666666" borderopacity="1.0" inkscape:pageopacity="0.0" inkscape:pageshadow="2" inkscape:zoom="22.125" inkscape:cx="16" inkscape:cy="16" inkscape:document-units="mm" inkscape:current-layer="layer1" showgrid="true" units="mm" objecttolerance="10" gridtolerance="10" guidetolerance="10" inkscape:window-width="1600" inkscape:window-height="878" inkscape:window-x="0" inkscape:window-y="0" inkscape:window-maximized="1" inkscape:snap-perpendicular="true" inkscape:snap-tangential="true">
    <inkscape:grid type="xygrid" id="grid4134" empspacing="4" />
  </sodipodi:namedview>
  <metadata id="metadata7">
    <rdf:RDF>
      <cc:Work rdf:about="">
        <dc:format>image/svg+xml</dc:format>
        <dc:type rdf:resource="http://purl.org/dc/dcmitype/StillImage" />
        <dc:title></dc:title>
        <dc:creator>
          <cc:Agent>
            <dc:title>Andreas Neudecker &lt;zapyon@gmx.net&gt;</dc:title>
          </cc:Agent>
        </dc:creator>
        <dc:source />
      </cc:Work>
    </rdf:RDF>
  </metadata>
  <g inkscape:label="Ebene 1" inkscape:groupmode="layer" id="layer1" transform="translate(0,-509.23659)">
    <rect style="opacity:1;fill:#d4aa00;fill-opacity:1;fill-rule:nonzero;stroke:none;stroke-width:2;stroke-linecap:butt;stroke-linejoin:miter;stroke-miterlimit:4;stroke-dasharray:none;stroke-dashoffset:0;stroke-opacity:1" id="rect5314" width="9.0311108" height="9.0311108" x="-9.0342999" y="509.2366" transform="scale(-1,1)" />
    <g id="g4150" transform="matrix(-1,0,0,1,9.3165218,6.7733269)">
      <circle r="0.42333332" cy="510.78882" cx="0.42333332" id="path4138" style="opacity:1;fill:#a80;fill-opacity:1;fill-rule:nonzero;stroke:none;stroke-width:2;stroke-linecap:butt;stroke-linejoin:miter;stroke-miterlimit:4;stroke-dasharray:none;stroke-dashoffset:0;stroke-opacity:1" />
      <path transform="matrix(0.28222221,0,0,0.28222221,0,509.23659)" id="circle4141" d="M 1.2246094,4.0253906 A 1.5,1.5 0 0 0 0.02539063,5.2226562 1,1 0 0 0 1,6 1,1 0 0 0 2,5 1,1 0 0 0 1.2246094,4.0253906 Z" style="opacity:1;fill:#d3bc5f;fill-opacity:1;fill-rule:nonzero;stroke:none;stroke-width:2;stroke-linecap:butt;stroke-linejoin:miter;stroke-miterlimit:4;stroke-dasharray:none;stroke-dashoffset:0;stroke-opacity:1" inkscape:connector-curvature="0" />
    </g>
    <use x="0" y="0" xlink:href="#g4150" id="use5382" transform="matrix(1.3333333,0,0,1.3333333,-5.6455068,-171.81514)" width="100%" height="100%" />
    <use x="0" y="0" xlink:href="#g4150" id="use5384" transform="matrix(0.66666667,0,0,0.66666667,0.56550737,172.37961)" width="100%" height="100%" />
    <use x="0" y="0" xlink:href="#g4150" id="use5386" transform="matrix(1.6666667,0,0,1.6666667,-7.3399037,-345.04143)" width="100%" height="100%" style="fill:#d3bc5f" />
    <use x="0" y="0" xlink:href="#g4150" id="use5388" transform="translate(-4.7977775,0.28222222)" width="100%" height="100%" />
    <use x="0" y="0" xlink:href="#use5382" id="use5390" transform="translate(0,-9.0311104)" width="100%" height="100%" />
    <use x="0" y="0" xlink:href="#use5386" id="use5394" transform="translate(1.1288888,-1.1288888)" width="100%" height="100%" />
    <use height="100%" width="100%" transform="translate(-7.9022217,-1.1288888)" id="use5396" xlink:href="#use5386" y="0" x="0" />
    <use x="0" y="0" xlink:href="#use5384" id="use5400" transform="translate(1.1288888,-1.411117)" width="100%" height="100%" />
    <use x="0" y="0" xlink:href="#g4150" id="use5402" transform="translate(-1.9755555,-1.1288889)" width="100%" height="100%" />
    <use x="0" y="0" xlink:href="#use5382" id="use5404" transform="translate(-0.56444442,-1.6933332)" width="100%" height="100%" />
    <use x="0" y="0" xlink:href="#use5386" id="use5406" transform="translate(-1.1288888,-2.2577776)" width="100%" height="100%" />
    <use x="0" y="0" xlink:href="#use5406" id="use5408" transform="matrix(1.4,0,0,1.4,-6.2101641,-208.66174)" width="100%" height="100%" />
    <use x="0" y="0" xlink:href="#use5408" id="use5410" transform="matrix(0.7142857,0,0,0.7142857,0.48472059,144.52857)" width="100%" height="100%" />
    <use x="0" y="0" xlink:href="#use5404" id="use5412" transform="translate(0,-3.3866664)" width="100%" height="100%" />
    <use x="0" y="0" xlink:href="#use5404" id="use5414" transform="translate(3.3866664,-2.2577776)" width="100%" height="100%" />
    <use x="0" y="0" xlink:href="#use5414" id="use5416" transform="translate(-9.0311102,0)" width="100%" height="100%" />
    <use x="0" y="0" xlink:href="#use5404" id="use5418" transform="translate(-2.2577776,0.56444442)" width="100%" height="100%" />
    <use x="0" y="0" xlink:href="#use5400" id="use5420" transform="translate(-2.822222,0.84667258)" width="100%" height="100%" />
    <use x="0" y="0" xlink:href="#use5400" id="use5422" transform="translate(-3.3866664,0.56444442)" width="100%" height="100%" />
    <use x="0" y="0" xlink:href="#use5382" id="use5424" transform="translate(1.6933332,-6.2088884)" width="100%" height="100%" />
    <use x="0" y="0" xlink:href="#use5424" id="use5426" transform="translate(-6.7733328,-0.56444442)" width="100%" height="100%" />
    <use x="0" y="0" xlink:href="#use5426" id="use5428" transform="translate(-0.56444442,3.9511108)" width="100%" height="100%" />
    <use x="0" y="0" xlink:href="#use5384" id="use5430" transform="translate(1.411111,-2.822222)" width="100%" height="100%" />
    <use x="0" y="0" xlink:href="#use5384" id="use5432" transform="translate(0.56444442,-3.3866664)" width="100%" height="100%" />
    <use x="0" y="0" xlink:href="#use5384" id="use5434" transform="translate(1.6933332,-3.9511108)" width="100%" height="100%" />
    <use x="0" y="0" xlink:href="#use5384" id="use5436" transform="translate(-1.4111111,0.28221631)" width="100%" height="100%" />
    <use x="0" y="0" xlink:href="#use5384" id="use5438" transform="translate(-3.9511108,0)" width="100%" height="100%" />
    <use x="0" y="0" xlink:href="#use5438" id="use5440" transform="translate(-1.1288888,0.56444442)" width="100%" height="100%" />
    <use x="0" y="0" xlink:href="#use5440" id="use5442" transform="translate(-1.4111111,0.28218867)" width="100%" height="100%" />
    <use x="0" y="0" xlink:href="#use5442" id="use5444" transform="translate(0,-9.0311104)" width="100%" height="100%" />
    <use x="0" y="0" xlink:href="#use5444" id="use5446" transform="translate(9.0311102,0)" width="100%" height="100%" />
    <use x="0" y="0" xlink:href="#use5446" id="use5448" transform="translate(0,9.0311104)" width="100%" height="100%" />
    <use x="0" y="0" xlink:href="#g4150" id="use5450" transform="translate(-9.0311102,0)" width="100%" height="100%" />
    <use x="0" y="0" xlink:href="#use5384" id="use5452" transform="translate(-1.1288889,-3.1044526)" width="100%" height="100%" />
    <use x="0" y="0" xlink:href="#use5452" id="use5454" transform="translate(-3.3866664,1.6933332)" width="100%" height="100%" />
    <use x="0" y="0" xlink:href="#use5400" id="use5456" transform="translate(-4.5155552,-0.56444442)" width="100%" height="100%" />
    <use x="0" y="0" xlink:href="#use5456" id="use5458" transform="translate(-0.28222238,-0.84666846)" width="100%" height="100%" />
    <use x="0" y="0" xlink:href="#use5400" id="use5460" transform="translate(-0.56444438,-2.822222)" width="100%" height="100%" />
    <use x="0" y="0" xlink:href="#use5460" id="use5462" transform="translate(-0.56444442,-1.1288888)" width="100%" height="100%" />
    <use x="0" y="0" xlink:href="#use5462" id="use5464" transform="translate(-2.822222,-0.56444442)" width="100%" height="100%" />
    <use x="0" y="0" xlink:href="#use5464" id="use5466" transform="translate(0,-1.6933332)" width="100%" height="100%" />
    <use x="0" y="0" xlink:href="#use5466" id="use5468" transform="translate(-2.822222,0.56444442)" width="100%" height="100%" />
    <use x="0" y="0" xlink:href="#use5468" id="use5470" transform="translate(0,2.2577776)" width="100%" height="100%" />
    <use x="0" y="0" xlink:href="#use5470" id="use5472" transform="translate(0.56444442,2.2577776)" width="100%" height="100%" />
    <use x="0" y="0" xlink:href="#use5472" id="use5474" transform="translate(0,1.6933332)" width="100%" height="100%" />
    <use x="0" y="0" xlink:href="#use5474" id="use5476" transform="translate(-0.56444442,1.1288888)" width="100%" height="100%" />
    <use x="0" y="0" xlink:href="#use5476" id="use5478" transform="translate(3.9511108,-2.2577776)" width="100%" height="100%" />
    <use x="0" y="0" xlink:href="#use5404" id="use5480" transform="translate(-1.6933332,-2.2577776)" width="100%" height="100%" />
    <use x="0" y="0" xlink:href="#use5480" id="use5482" transform="translate(0.56444438,-2.2577776)" width="100%" height="100%" />
    <use x="0" y="0" xlink:href="#use5482" id="use5484" transform="translate(0.56444442,-2.2577776)" width="100%" height="100%" />
    <use x="0" y="0" xlink:href="#use5484" id="use5486" transform="translate(-2.2577781,-0.28221003)" width="100%" height="100%" />
    <use x="0" y="0" xlink:href="#use5486" id="use5488" transform="translate(0,9.0311104)" width="100%" height="100%" />
    <use x="0" y="0" xlink:href="#use5396" id="use5490" transform="translate(8.1844439,-6.2088884)" width="100%" height="100%" />
    <use x="0" y="0" xlink:href="#use5490" id="use5492" transform="matrix(1.2,0,0,1.2,-3.1050821,-101.33934)" width="100%" height="100%" />
    <use x="0" y="0" xlink:href="#use5418" id="use5494" transform="translate(-2.2577776,-3.3866664)" width="100%" height="100%" />
    <use x="0" y="0" xlink:href="#use5462" id="use5496" transform="translate(-1.6933332,-1.1288888)" width="100%" height="100%" />
    <use x="0" y="0" xlink:href="#use5462" id="use5498" transform="translate(2.2577776,-0.56444438)" width="100%" height="100%" />
    <use x="0" y="0" xlink:href="#use5434" id="use5500" transform="translate(0.84666667,-0.56444442)" width="100%" height="100%" />
    <use x="0" y="0" xlink:href="#use5500" id="use5502" transform="translate(-9.0311104,0)" width="100%" height="100%" />
    <use x="0" y="0" xlink:href="#use5402" id="use5504" transform="translate(1.9755555,-5.644444)" width="100%" height="100%" />
    <use x="0" y="0" xlink:href="#use5504" id="use5506" transform="translate(-9.0311104,0)" width="100%" height="100%" />
    <use x="0" y="0" xlink:href="#use5506" id="use5508" transform="translate(1.6933332,-1.1288888)" width="100%" height="100%" />
  </g>
</svg>
