<?xml version="1.0" encoding="UTF-8" standalone="no"?>
<!-- Created with Inkscape (http://www.inkscape.org/) -->

<svg
   xmlns:dc="http://purl.org/dc/elements/1.1/"
   xmlns:cc="http://creativecommons.org/ns#"
   xmlns:rdf="http://www.w3.org/1999/02/22-rdf-syntax-ns#"
   xmlns:svg="http://www.w3.org/2000/svg"
   xmlns="http://www.w3.org/2000/svg"
   xmlns:sodipodi="http://sodipodi.sourceforge.net/DTD/sodipodi-0.dtd"
   xmlns:inkscape="http://www.inkscape.org/namespaces/inkscape"
   width="32px"
   height="32px"
   id="svg3505"
   sodipodi:version="0.32"
   inkscape:version="0.47 r22583"
   sodipodi:docname="field-warp-hole-05.svg"
   inkscape:output_extension="org.inkscape.output.svg.inkscape"
   version="1.1"
   inkscape:export-filename="/home/andreas/Dokumente/Projekte/McMinos/svg/fields/field-warp-hole/field-warp-hole-01.png"
   inkscape:export-xdpi="135"
   inkscape:export-ydpi="135">
  <defs
     id="defs3507">
    <inkscape:perspective
       sodipodi:type="inkscape:persp3d"
       inkscape:vp_x="0 : 16 : 1"
       inkscape:vp_y="0 : 1000 : 0"
       inkscape:vp_z="32 : 16 : 1"
       inkscape:persp3d-origin="16 : 10.666667 : 1"
       id="perspective2836" />
    <inkscape:perspective
       id="perspective2899"
       inkscape:persp3d-origin="0.5 : 0.33333333 : 1"
       inkscape:vp_z="1 : 0.5 : 1"
       inkscape:vp_y="0 : 1000 : 0"
       inkscape:vp_x="0 : 0.5 : 1"
       sodipodi:type="inkscape:persp3d" />
    <inkscape:perspective
       id="perspective3072"
       inkscape:persp3d-origin="0.5 : 0.33333333 : 1"
       inkscape:vp_z="1 : 0.5 : 1"
       inkscape:vp_y="0 : 1000 : 0"
       inkscape:vp_x="0 : 0.5 : 1"
       sodipodi:type="inkscape:persp3d" />
    <inkscape:perspective
       id="perspective4334"
       inkscape:persp3d-origin="0.5 : 0.33333333 : 1"
       inkscape:vp_z="1 : 0.5 : 1"
       inkscape:vp_y="0 : 1000 : 0"
       inkscape:vp_x="0 : 0.5 : 1"
       sodipodi:type="inkscape:persp3d" />
    <inkscape:perspective
       id="perspective8722"
       inkscape:persp3d-origin="0.5 : 0.33333333 : 1"
       inkscape:vp_z="1 : 0.5 : 1"
       inkscape:vp_y="0 : 1000 : 0"
       inkscape:vp_x="0 : 0.5 : 1"
       sodipodi:type="inkscape:persp3d" />
  </defs>
  <sodipodi:namedview
     id="base"
     pagecolor="#ffffff"
     bordercolor="#666666"
     borderopacity="1.0"
     inkscape:pageopacity="0.0"
     inkscape:pageshadow="2"
     inkscape:zoom="18.59375"
     inkscape:cx="16"
     inkscape:cy="16"
     inkscape:current-layer="layer1"
     showgrid="true"
     inkscape:grid-bbox="true"
     inkscape:document-units="px"
     objecttolerance="4"
     gridtolerance="4"
     guidetolerance="4"
     inkscape:window-width="824"
     inkscape:window-height="836"
     inkscape:window-x="0"
     inkscape:window-y="0"
     inkscape:object-paths="true"
     inkscape:object-nodes="true"
     inkscape:snap-bbox="true"
     inkscape:snap-guide="true"
     showguides="true"
     inkscape:guide-bbox="true"
     inkscape:window-maximized="0">
    <inkscape:grid
       type="xygrid"
       id="grid3515"
       units="px"
       visible="true"
       enabled="true"
       spacingx="0.5px"
       spacingy="0.5px"
       empspacing="4"
       snapvisiblegridlinesonly="true" />
    <sodipodi:guide
       orientation="1,0"
       position="16,32"
       id="guide3625" />
    <sodipodi:guide
       orientation="0,1"
       position="0,16"
       id="guide3627" />
  </sodipodi:namedview>
  <metadata
     id="metadata3510">
    <rdf:RDF>
      <cc:Work
         rdf:about="">
        <dc:format>image/svg+xml</dc:format>
        <dc:type
           rdf:resource="http://purl.org/dc/dcmitype/StillImage" />
        <dc:title />
        <dc:date>2010-05-08</dc:date>
        <dc:creator>
          <cc:Agent>
            <dc:title>Andreas Neudecker &lt;zapyon@gmx.net&gt;</dc:title>
          </cc:Agent>
        </dc:creator>
        <dc:rights>
          <cc:Agent>
            <dc:title>Copyright (C) 2010 by Andreas Neudecker</dc:title>
          </cc:Agent>
        </dc:rights>
        <dc:publisher>
          <cc:Agent>
            <dc:title>Andreas Neudecker</dc:title>
          </cc:Agent>
        </dc:publisher>
        <dc:identifier>__empty__</dc:identifier>
        <dc:description>Template for McMinos SVG icons at a base size of 32x32 pixels.</dc:description>
      </cc:Work>
    </rdf:RDF>
  </metadata>
  <g
     id="layer1"
     inkscape:label="Layer 1"
     inkscape:groupmode="layer">
    <path
       id="path8712"
       d="m 32.000004,0 0,32 -32.0000001000006,0 0,-32 L 32.000004,0 z"
       style="fill:#000000;fill-opacity:1;fill-rule:nonzero;stroke:none"
       sodipodi:nodetypes="ccccc" />
    <g
       id="g4300"
       transform="matrix(-0.86602541,0.50000001,0.50000001,0.86602541,21.856409,-5.8564075)">
      <path
         id="path3629"
         d="m 5.0000039,5 c 6.0751321,-3e-7 11.0000001,4.9248678 11.0000001,11 -1.57236,-5.868127 -7.6006231,-9.3536102 -13.4687501,-7.78125 -3.929786,1.0529832 -6.761701,4.116884 -7.75,7.78125 l -0.78125,0 c 0,-6.075132 4.924868,-10.9999997 11,-11 z"
         style="fill:#000000;fill-opacity:1;fill-rule:nonzero;stroke:none" />
      <path
         inkscape:transform-center-y="-1.2308508"
         inkscape:transform-center-x="10.813957"
         style="fill:#800000;fill-opacity:1;fill-rule:nonzero;stroke:none"
         d="M 2.5278099,8.2218254 C 8.3959369,6.6494653 14.427644,10.131873 16.000004,16 12.962438,10.738781 6.2374729,8.9322923 0.9762549,11.969859 c -3.52335,2.034207 -5.465774,5.726661 -5.47199,9.521958 l -0.754629,0.202202 c -1.57236,-5.868127 1.910048,-11.8998334 7.778174,-13.4721936 z"
         id="path3654" />
      <path
         id="path3656"
         d="M 0.9737239,11.973721 C 6.2349429,8.9361544 12.962438,10.738781 16.000004,16 11.704237,11.704233 4.7408659,11.699848 0.4450999,15.9956 c -2.876804,2.876803 -3.797364,6.946176 -2.821073,10.61376 L -3.0525551,27 c -3.037566,-5.261219 -1.234939,-11.988713 4.026279,-15.026279 z"
         style="fill:#c00000;fill-opacity:1;fill-rule:nonzero;stroke:none"
         inkscape:transform-center-x="10.264058"
         inkscape:transform-center-y="2.7490817" />
      <path
         inkscape:transform-center-y="6.167262"
         inkscape:transform-center-x="9.3890849"
         style="fill:#ff0000;fill-opacity:1;fill-rule:nonzero;stroke:none"
         d="M 0.4436539,16.000001 C 4.7394219,11.704233 11.704237,11.704233 16.000004,16 10.738785,12.962434 4.0115509,14.760451 0.9739819,20.021655 c -2.034208,3.52335 -1.87017,7.692321 0.0221,10.982253 l -0.552423,0.552441 c -4.295767,-4.295767 -4.295767,-11.260582 -1e-6,-15.556348 z"
         id="path3658" />
      <path
         id="path3660"
         d="M 0.9737239,20.026281 C 4.0112909,14.765061 10.738785,12.962434 16.000004,16 10.131877,14.42764 4.0992289,17.905528 2.5268619,23.773641 c -1.052984,3.929787 0.184474,7.914247 2.863763,10.602322 l -0.390617,0.676595 c -5.261219,-3.037566 -7.063845,-9.765061 -4.02628,-15.026278 z"
         style="fill:#000000;fill-opacity:1;fill-rule:nonzero;stroke:none"
         inkscape:transform-center-x="8.2509161"
         inkscape:transform-center-y="8.7885005" />
      <path
         inkscape:transform-center-y="10.43641"
         inkscape:transform-center-x="6.9248677"
         style="fill:#800000;fill-opacity:1;fill-rule:nonzero;stroke:none"
         d="M 2.5278099,23.778176 C 4.1001709,17.910048 10.131877,14.42764 16.000004,16 9.9248719,16 4.9979249,20.920746 4.9979149,26.995866 c -10e-7,4.068415 2.226546,7.596831 5.5102651,9.499861 l -0.202191,0.754639 C 4.4378609,35.678007 0.9554549,29.646299 2.5278139,23.778174 z"
         id="path3662" />
      <path
         id="path3664"
         d="M 5.0000039,27.000001 C 5.0000049,20.924868 9.9248719,16 16.000004,16 c -5.868127,1.57236 -9.3536091,7.600623 -7.7812621,13.468741 1.052982,3.929787 4.1168821,6.761703 7.7812521,7.75 l 1.3e-5,0.781256 C 9.9248739,37.999998 5.0000079,33.075128 5.0000069,26.999998 z"
         style="fill:#c00000;fill-opacity:1;fill-rule:nonzero;stroke:none"
         inkscape:transform-center-x="5.4999982"
         inkscape:transform-center-y="10.999999" />
      <path
         inkscape:transform-center-y="10.813956"
         inkscape:transform-center-x="1.2308492"
         style="fill:#ff0000;fill-opacity:1;fill-rule:nonzero;stroke:none"
         d="M 8.2218299,29.472195 C 6.6494709,23.604066 10.131877,17.57236 16.000004,16 c -5.261219,3.037566 -7.0677061,9.76253 -4.030155,15.023744 2.034206,3.52335 5.72666,5.465776 9.52196,5.471988 l 0.202216,0.754632 C 15.825898,38.822726 9.7941919,35.340316 8.2218319,29.472191 z"
         id="path3666" />
      <path
         id="path3668"
         d="M 11.973726,31.026281 C 8.9361599,25.76506 10.738785,19.037566 16.000004,16 c -4.295767,4.295767 -4.300151,11.259137 -0.0044,15.554903 2.876803,2.876804 6.946176,3.797366 10.613762,2.82107 l 0.390639,0.676581 c -5.261218,3.037568 -11.988713,1.234939 -15.026278,-4.026278 z"
         style="fill:#000000;fill-opacity:1;fill-rule:nonzero;stroke:none"
         inkscape:transform-center-x="-2.7490829"
         inkscape:transform-center-y="10.264057" />
      <path
         inkscape:transform-center-y="9.3890855"
         inkscape:transform-center-x="-6.1672625"
         style="fill:#800000;fill-opacity:1;fill-rule:nonzero;stroke:none"
         d="M 16.000006,31.55635 C 11.704238,27.260581 11.704237,20.295767 16.000004,16 c -3.037566,5.261219 -1.239548,11.988452 4.021655,15.026021 3.52335,2.034208 7.692322,1.870171 10.982254,-0.0221 l 0.55244,0.552422 c -4.295766,4.295769 -11.260582,4.295767 -15.556347,1e-6 z"
         id="path3670" />
      <path
         id="path3672"
         d="M 20.026286,31.02628 C 14.765066,27.988712 12.962438,21.261219 16.000004,16 c -1.57236,5.868127 1.905529,11.900774 7.773641,13.473141 3.929787,1.052984 7.914248,-0.184473 10.602323,-2.863764 l 0.676593,0.390617 c -3.037564,5.26122 -9.76506,7.063845 -15.026277,4.02628 z"
         style="fill:#c00000;fill-opacity:1;fill-rule:nonzero;stroke:none"
         inkscape:transform-center-x="-8.7885005"
         inkscape:transform-center-y="8.2509164" />
      <path
         inkscape:transform-center-y="6.924868"
         inkscape:transform-center-x="-10.43641"
         style="fill:#ff0000;fill-opacity:1;fill-rule:nonzero;stroke:none"
         d="M 23.778181,29.472193 C 17.910053,27.899832 14.427644,21.868127 16.000004,16 c 0,6.075132 4.920747,11.002078 10.995866,11.002088 4.068415,1e-6 7.596832,-2.226545 9.499861,-5.510266 l 0.754638,0.202191 c -1.572358,5.868128 -7.604066,9.350535 -13.472191,7.778175 z"
         id="path3674" />
      <path
         id="path3676"
         d="M 27.000007,26.999999 C 20.924873,26.999998 16.000004,22.075132 16.000004,16 c 1.57236,5.868127 7.600624,9.353608 13.468741,7.781261 3.929788,-1.052982 6.761704,-4.116882 7.749999,-7.781253 L 38,15.999995 c 2e-6,6.075132 -4.924868,11 -10.999998,11 z"
         style="fill:#000000;fill-opacity:1;fill-rule:nonzero;stroke:none"
         inkscape:transform-center-x="-10.999998"
         inkscape:transform-center-y="5.499998" />
      <path
         inkscape:transform-center-y="1.2308489"
         inkscape:transform-center-x="-10.813955"
         style="fill:#800000;fill-opacity:1;fill-rule:nonzero;stroke:none"
         d="M 29.4722,23.778173 C 23.604071,25.350532 17.572364,21.868127 16.000004,16 c 3.037566,5.261219 9.762531,7.067705 15.023744,4.030154 3.523351,-2.034206 5.465777,-5.72666 5.471988,-9.52196 l 0.754631,-0.202217 c 1.572362,5.868127 -1.910047,11.899834 -7.778172,13.472193 z"
         id="path3678" />
      <path
         id="path3680"
         d="M 31.026286,20.026277 C 25.765065,23.063843 19.03757,21.261219 16.000004,16 c 4.295767,4.295767 11.259138,4.30015 15.554903,0.0044 2.876805,-2.876803 3.797366,-6.9461762 2.82107,-10.613762 l 0.67658,-0.3906397 c 3.037568,5.2612187 1.23494,11.9887137 -4.026277,15.0262787 z"
         style="fill:#c00000;fill-opacity:1;fill-rule:nonzero;stroke:none"
         inkscape:transform-center-x="-10.264056"
         inkscape:transform-center-y="-2.7490824" />
      <path
         inkscape:transform-center-y="-6.1672622"
         inkscape:transform-center-x="-9.3890847"
         style="fill:#ff0000;fill-opacity:1;fill-rule:nonzero;stroke:none"
         d="m 31.556355,15.999997 c -4.295769,4.295768 -11.260584,4.29577 -15.556351,3e-6 5.261219,3.037566 11.988453,1.239546 15.026021,-4.021656 2.034209,-3.5233504 1.870172,-7.6923219 -0.0221,-10.98225359 l 0.552421,-0.55244089 c 4.295769,4.29576658 4.295768,11.26058248 2e-6,15.55634848 z"
         id="path3682" />
      <path
         id="path3684"
         d="M 31.026285,11.973717 C 27.988717,17.234937 21.261223,19.037566 16.000004,16 21.868131,17.57236 27.900779,14.094469 29.473145,8.226358 30.52613,4.2965709 29.288673,0.31210959 26.609382,-2.3759646 l 0.390616,-0.6765942 c 5.261221,3.0375651 7.063846,9.7650611 4.026281,15.0262788 z"
         style="fill:#000000;fill-opacity:1;fill-rule:nonzero;stroke:none"
         inkscape:transform-center-x="-8.2509164"
         inkscape:transform-center-y="-8.7885001" />
      <path
         inkscape:transform-center-y="-10.436409"
         inkscape:transform-center-x="-6.9248679"
         style="fill:#800000;fill-opacity:1;fill-rule:nonzero;stroke:none"
         d="M 29.472198,8.2218215 C 27.899837,14.08995 21.868131,17.57236 16.000004,16 c 6.075132,0 11.002078,-4.920749 11.002089,-10.9958673 1e-6,-4.06841523 -2.226545,-7.5968319 -5.510266,-9.4998608 l 0.202191,-0.7546387 c 5.868128,1.5723586 9.350535,7.604067 7.778175,13.4721927 z"
         id="path3686" />
      <path
         id="path3688"
         d="M 27.000004,4.9999959 C 27.000003,11.07513 22.075136,16 16.000004,16 21.868132,14.42764 25.353612,8.3993739 23.781266,2.5312575 22.728284,-1.3985301 19.664384,-4.2304463 16.000013,-5.2187416 L 16,-5.9999975 c 6.075133,-1.6e-6 11,4.9248683 11,10.9999989 z"
         style="fill:#c00000;fill-opacity:1;fill-rule:nonzero;stroke:none"
         inkscape:transform-center-x="-5.4999984"
         inkscape:transform-center-y="-10.999997" />
      <path
         inkscape:transform-center-y="-10.813954"
         inkscape:transform-center-x="-1.2308492"
         style="fill:#ff0000;fill-opacity:1;fill-rule:nonzero;stroke:none"
         d="M 23.778178,2.5278023 C 25.350537,8.3959315 21.868132,14.42764 16.000004,16 21.261224,12.962433 23.06771,6.2374668 20.03016,0.97625478 17.995953,-2.5470967 14.303499,-4.489522 10.508199,-4.495733 l -0.202217,-0.7546318 c 5.868128,-1.5723617 11.899834,1.9100479 13.472194,7.7781733 z"
         id="path3690" />
      <path
         id="path3692"
         d="M 20.026282,0.97371663 C 23.063848,6.2349376 21.261224,12.962433 16.000004,16 20.295773,11.704232 20.300154,4.7408601 16.004405,0.44509525 13.127601,-2.4317094 9.0582279,-3.3522708 5.3906419,-2.3759742 l -0.39064,-0.6765807 C 10.261222,-6.090123 16.988716,-4.2874941 20.026282,0.97372311 z"
         style="fill:#000000;fill-opacity:1;fill-rule:nonzero;stroke:none"
         inkscape:transform-center-x="2.7490829"
         inkscape:transform-center-y="-10.264055" />
      <path
         inkscape:transform-center-y="-9.3890841"
         inkscape:transform-center-x="6.1672622"
         style="fill:#800000;fill-opacity:1;fill-rule:nonzero;stroke:none"
         d="M 16.000002,0.4436473 C 20.29577,4.7394164 20.295772,11.704232 16.000004,16 19.037572,10.73878 17.23955,4.0115452 11.97835,0.97397662 8.4549989,-1.0602316 4.2860269,-0.89619442 0.9960959,0.99607679 L 0.4436539,0.44365509 C 4.7394219,-3.8521143 11.704237,-3.8521121 16.000004,0.44365356 z"
         id="path3694" />
      <path
         id="path3696"
         d="M 11.973722,0.9737176 C 17.234942,4.0112853 19.037571,10.73878 16.000004,16 17.572366,10.131871 14.094473,4.0992237 8.2263639,2.5268565 4.2965759,1.4738726 0.3121149,2.7113297 -2.3759591,5.3906201 l -0.676595,-0.3906158 c 3.037566,-5.26122121 9.765061,-7.0638458 15.0262801,-4.02628117 z"
         style="fill:#c00000;fill-opacity:1;fill-rule:nonzero;stroke:none"
         inkscape:transform-center-x="8.7885001"
         inkscape:transform-center-y="-8.2509152" />
      <path
         inkscape:transform-center-y="-6.924867"
         inkscape:transform-center-x="10.43641"
         style="fill:#ff0000;fill-opacity:1;fill-rule:nonzero;stroke:none"
         d="M 8.2218269,2.5278041 C 14.089955,4.1001653 17.572365,10.131871 16.000004,16 16.000006,9.9248653 11.079255,4.9979205 5.0041389,4.9979087 c -4.068416,-3e-7 -7.596833,2.2265458 -9.499861,5.5102663 l -0.75464,-0.20219 c 1.572359,-5.8681295 7.604067,-9.35053499 13.472194,-7.7781765 z"
         id="path3698" />
    </g>
    <path
       style="fill:#000000;fill-opacity:1;fill-rule:nonzero;stroke:none"
       d="m 32.000004,0 0,32 -32.0000001000006,0 0,-32 L 32.000004,0 z m -1,1 -30.0000001,0 0,30 30.0000001,0 0,-30 z"
       id="rect3620" />
  </g>
</svg>
