<?xml version="1.0" encoding="UTF-8" standalone="no"?>
<!-- Created with Inkscape (http://www.inkscape.org/) -->

<svg
   xmlns:dc="http://purl.org/dc/elements/1.1/"
   xmlns:cc="http://creativecommons.org/ns#"
   xmlns:rdf="http://www.w3.org/1999/02/22-rdf-syntax-ns#"
   xmlns:svg="http://www.w3.org/2000/svg"
   xmlns="http://www.w3.org/2000/svg"
   xmlns:sodipodi="http://sodipodi.sourceforge.net/DTD/sodipodi-0.dtd"
   xmlns:inkscape="http://www.inkscape.org/namespaces/inkscape"
   width="32px"
   height="32px"
   id="svg3505"
   sodipodi:version="0.32"
   inkscape:version="0.48.5 r10040"
   sodipodi:docname="07.svg"
   inkscape:output_extension="org.inkscape.output.svg.inkscape"
   version="1.1"
   inkscape:export-filename="/home/andreas/Dokumente/Projekte/McMinos/svg/fields/field-warp-hole/field-warp-hole-01.png"
   inkscape:export-xdpi="135"
   inkscape:export-ydpi="135">
  <defs
     id="defs3507">
    <inkscape:perspective
       sodipodi:type="inkscape:persp3d"
       inkscape:vp_x="0 : 16 : 1"
       inkscape:vp_y="0 : 1000 : 0"
       inkscape:vp_z="32 : 16 : 1"
       inkscape:persp3d-origin="16 : 10.666667 : 1"
       id="perspective2836" />
    <inkscape:perspective
       id="perspective2899"
       inkscape:persp3d-origin="0.5 : 0.33333333 : 1"
       inkscape:vp_z="1 : 0.5 : 1"
       inkscape:vp_y="0 : 1000 : 0"
       inkscape:vp_x="0 : 0.5 : 1"
       sodipodi:type="inkscape:persp3d" />
    <inkscape:perspective
       id="perspective3072"
       inkscape:persp3d-origin="0.5 : 0.33333333 : 1"
       inkscape:vp_z="1 : 0.5 : 1"
       inkscape:vp_y="0 : 1000 : 0"
       inkscape:vp_x="0 : 0.5 : 1"
       sodipodi:type="inkscape:persp3d" />
  </defs>
  <sodipodi:namedview
     id="base"
     pagecolor="#ffffff"
     bordercolor="#666666"
     borderopacity="1.0"
     inkscape:pageopacity="0.0"
     inkscape:pageshadow="2"
     inkscape:zoom="8.25"
     inkscape:cx="13.878788"
     inkscape:cy="19.092987"
     inkscape:current-layer="layer1"
     showgrid="true"
     inkscape:grid-bbox="true"
     inkscape:document-units="px"
     objecttolerance="4"
     gridtolerance="4"
     guidetolerance="4"
     inkscape:window-width="1024"
     inkscape:window-height="741"
     inkscape:window-x="0"
     inkscape:window-y="2"
     inkscape:object-paths="true"
     inkscape:object-nodes="true"
     inkscape:snap-bbox="true"
     inkscape:snap-guide="true"
     showguides="true"
     inkscape:guide-bbox="true"
     inkscape:window-maximized="1">
    <inkscape:grid
       type="xygrid"
       id="grid3515"
       units="px"
       visible="true"
       enabled="true"
       spacingx="0.5px"
       spacingy="0.5px"
       empspacing="4"
       snapvisiblegridlinesonly="true" />
    <sodipodi:guide
       orientation="1,0"
       position="16,32"
       id="guide3625" />
    <sodipodi:guide
       orientation="0,1"
       position="0,16"
       id="guide3627" />
  </sodipodi:namedview>
  <metadata
     id="metadata3510">
    <rdf:RDF>
      <cc:Work
         rdf:about="">
        <dc:format>image/svg+xml</dc:format>
        <dc:type
           rdf:resource="http://purl.org/dc/dcmitype/StillImage" />
        <dc:title></dc:title>
        <dc:date>2010-05-08</dc:date>
        <dc:creator>
          <cc:Agent>
            <dc:title>Andreas Neudecker &lt;zapyon@gmx.net&gt;</dc:title>
          </cc:Agent>
        </dc:creator>
        <dc:rights>
          <cc:Agent>
            <dc:title>Copyright (C) 2010 by Andreas Neudecker</dc:title>
          </cc:Agent>
        </dc:rights>
        <dc:publisher>
          <cc:Agent>
            <dc:title>Andreas Neudecker</dc:title>
          </cc:Agent>
        </dc:publisher>
        <dc:identifier>__empty__</dc:identifier>
        <dc:description>Template for McMinos SVG icons at a base size of 32x32 pixels.</dc:description>
      </cc:Work>
    </rdf:RDF>
  </metadata>
  <g
     inkscape:groupmode="layer"
     id="layer3"
     inkscape:label="black"
     sodipodi:insensitive="true">
    <rect
       style="fill:black;fill-opacity:1;stroke:none"
       id="rect4123"
       width="31.748781"
       height="31.58901"
       x="0"
       y="0" />
  </g>
  <g
     id="layer1"
     inkscape:label="warp hole whirl"
     inkscape:groupmode="layer"
     style="display:inline">
    <g
       id="g4108"
       transform="matrix(-0.25881905,0.96592583,-0.96592583,-0.25881905,35.595917,4.6862916)">
      <path
         inkscape:transform-center-y="6.6559055"
         inkscape:transform-center-x="-6.6399818"
         inkscape:connector-curvature="0"
         id="path4076"
         d="M 20.5,1.3125 C 19.028758,1.2978177 17.515821,1.5174992 16,2 10.576564,3.7263334 5.4152618,10.369106 9,16 c 1.322812,2.077868 7,4.211626 7,0 C 13.894187,19.647375 10.044155,14.960892 9.9375,12.5 9.6484722,5.8311345 17.44,2.6583306 23,3.875 32.945536,6.0513364 37.112742,17.507279 34.1875,26.5 31.451676,34.910416 24.135806,40.09294 16,41.53125 L 16,44 C 29.063467,41.920884 39.880821,29.575548 37,16 35.343696,8.1948518 28.444709,1.3917842 20.5,1.3125 z"
         style="fill:#500;fill-opacity:1;stroke:none" />
      <path
         style="fill:#a00;fill-opacity:1;stroke:none"
         d="M 27.240864,5.5302519 C 25.974073,4.7819156 24.55399,4.2156969 23,3.8756443 17.44,2.6589749 9.6487948,5.8311336 9.9378222,12.5 10.044477,14.960892 13.894187,19.647375 16,16 12.352625,18.105813 11.361641,12.122184 12.499721,9.9376611 15.583848,4.0177402 23.917911,5.1657754 28.124678,8.999442 c 7.524918,6.857531 5.405853,18.862271 -1.623841,25.187575 -6.574501,5.915722 -15.501492,6.745984 -23.266462,3.923694 L 2,40.248711 C 14.352852,44.979878 29.893624,39.69718 34.186533,26.5 36.654706,18.912391 34.081542,9.5712685 27.240864,5.5302519 z"
         id="path4086"
         inkscape:connector-curvature="0"
         inkscape:transform-center-x="-2.5522528"
         inkscape:transform-center-y="6.7870967" />
      <path
         inkscape:transform-center-y="6.7473303"
         inkscape:transform-center-x="3.6923662"
         inkscape:connector-curvature="0"
         id="path4088"
         d="M 30.969748,12.553364 C 30.246843,11.27189 29.300124,10.071489 28.124356,8.9999999 23.917589,5.1663333 15.584128,4.0179008 12.5,9.9378222 11.36192,12.122345 12.352625,18.105813 16,16 11.788374,16 13.921971,10.322533 15.999839,8.999721 21.630732,5.4149826 28.274224,10.576242 30.000558,15.999678 33.088563,25.700933 25.251029,35.03781 16.000483,37.000837 7.3489372,38.836752 -0.79719475,35.092285 -6.110711,28.765625 L -8.2487111,30 C 0.083589,40.273737 16.183641,43.469172 26.5,34.186533 32.431305,28.849558 34.87344,19.473326 30.969748,12.553364 z"
         style="fill:red;fill-opacity:1;stroke:none" />
      <path
         style="fill:#a00;fill-opacity:1;stroke:none"
         d="M 30.6875,20.5 C 30.702183,19.028758 30.482501,17.515821 30,16 28.273667,10.576564 21.630894,5.4152617 16,9 c -2.077868,1.322812 -4.211626,7 0,7 -3.647375,-2.105813 1.039108,-5.955845 3.5,-6.0625 C 26.168866,9.648472 29.341669,17.44 28.125,23 25.948663,32.945536 14.492721,37.112742 5.4999998,34.1875 -2.9104161,31.451676 -8.0929398,24.135806 -9.5312499,16 L -12,16 c 2.0791153,13.063467 14.4244518,23.880821 28,21 7.805149,-1.656304 14.608216,-8.555291 14.6875,-16.5 z"
         id="path4090"
         inkscape:connector-curvature="0"
         inkscape:transform-center-x="6.6559056"
         inkscape:transform-center-y="6.6399817" />
      <path
         inkscape:transform-center-y="2.5522529"
         inkscape:transform-center-x="6.7870968"
         inkscape:connector-curvature="0"
         id="path4092"
         d="M 26.469748,27.240864 C 27.218085,25.974073 27.784303,24.55399 28.124356,23 29.341025,17.44 26.168866,9.6487947 19.5,9.9378221 17.039108,10.044477 12.352625,13.894187 16,16 c -2.105813,-3.647375 3.877816,-4.638359 6.062339,-3.500279 5.919921,3.084127 4.771885,11.41819 0.938219,15.624957 C 16.143027,35.649596 4.1382872,33.530531 -2.1870169,26.500837 -8.1027387,19.926336 -8.9330009,10.999345 -6.1107109,3.234375 L -8.2487112,1.9999999 C -12.979878,14.352852 -7.6971801,29.893623 5.5000001,34.186533 13.087609,36.654707 22.428732,34.081542 26.469748,27.240864 z"
         style="fill:#500;fill-opacity:1;stroke:none" />
      <path
         style="fill:#a00;fill-opacity:1;stroke:none"
         d="M 19.446636,30.969748 C 20.72811,30.246843 21.928511,29.300124 23,28.124356 26.833667,23.917589 27.982099,15.584128 22.062178,12.5 19.877655,11.36192 13.894187,12.352625 16,16 c 0,-4.211626 5.677467,-2.078029 7.000279,-1.61e-4 3.584739,5.630893 -1.576521,12.274385 -6.999957,14.000719 C 6.2990671,33.088563 -3.0378101,25.251029 -5.0008371,16.000483 -6.8367519,7.3489373 -3.0922846,-0.79719475 3.2343752,-6.110711 L 2.0000002,-8.2487114 C -8.2737365,0.08358895 -11.469171,16.18364 -2.1865331,26.5 3.150442,32.431305 12.526674,34.873441 19.446636,30.969748 z"
         id="path4094"
         inkscape:connector-curvature="0"
         inkscape:transform-center-x="6.7473302"
         inkscape:transform-center-y="-3.6923661" />
      <path
         inkscape:transform-center-y="-6.6559057"
         inkscape:transform-center-x="6.6399817"
         inkscape:connector-curvature="0"
         id="path4096"
         d="M 11.5,30.6875 C 12.971242,30.70218 14.484179,30.482501 16,30 c 5.423436,-1.726333 10.584738,-8.369106 7,-14 -1.322812,-2.077868 -7,-4.211626 -7,0 2.105813,-3.647375 5.955845,1.039108 6.0625,3.5 C 22.351529,26.168866 14.56,29.341669 8.9999999,28.125 -0.94553578,25.948663 -5.1127416,14.492721 -2.1874999,5.4999997 0.54832411,-2.9104161 7.8641939,-8.0929397 16,-9.5312499 L 16,-12 C 2.9365331,-9.9208846 -7.8808199,2.4244513 -4.9999996,16 -3.3436961,23.805148 3.555291,30.608216 11.5,30.6875 z"
         style="fill:red;fill-opacity:1;stroke:none" />
      <path
         style="fill:#a00;fill-opacity:1;stroke:none"
         d="m 4.7591357,26.469748 c 1.266793,0.748334 2.6868744,1.314555 4.2408644,1.654608 C 14.56,29.341025 22.351205,26.168866 22.062178,19.5 21.955523,17.039107 18.105813,12.352625 16,16 c 3.647375,-2.105813 4.638359,3.877816 3.500279,6.062339 C 16.416153,27.982261 8.082089,26.834224 3.8753222,23.000558 -3.6495959,16.143027 -1.530531,4.1382872 5.4991633,-2.187017 12.073664,-8.1027387 21.000655,-8.9330009 28.765625,-6.1107111 L 30,-8.2487114 C 17.647148,-12.979878 2.1063777,-7.6971801 -2.1865331,5.5000001 -4.6547062,13.087608 -2.0815421,22.428732 4.7591357,26.469748 z"
         id="path4098"
         inkscape:connector-curvature="0"
         inkscape:transform-center-x="2.5522531"
         inkscape:transform-center-y="-6.7870968" />
      <path
         inkscape:transform-center-y="-6.7473303"
         inkscape:transform-center-x="-3.6923658"
         inkscape:connector-curvature="0"
         id="path4100"
         d="M 1.030252,19.446636 C 1.7531599,20.728108 2.699876,21.928511 3.8756443,23 8.082411,26.833666 16.415872,27.982099 19.5,22.062178 20.638081,19.877654 19.647375,13.894187 16,16 c 4.211626,0 2.078029,5.677467 1.61e-4,7.000279 C 10.369269,26.585019 3.725776,21.423758 1.9994421,16.000322 -1.0885627,6.299067 6.7489713,-3.0378102 15.999517,-5.0008372 c 8.651546,-1.8359149 16.797678,1.9085524 22.111194,8.2352121 l 2.138,-1.2343751 C 31.916411,-8.2737366 15.81636,-11.469171 5.5000003,-2.1865333 -0.43130422,3.1504414 -2.8734407,12.526674 1.030252,19.446636 z"
         style="fill:#500;fill-opacity:1;stroke:none" />
      <path
         style="fill:#a00;fill-opacity:1;stroke:none"
         d="M 1.3125,11.5 C 1.2978206,12.971241 1.5174993,14.484179 2,16 c 1.7263338,5.423435 8.369106,10.584738 14,7 2.077869,-1.322813 4.211626,-7 0,-7 3.647375,2.105813 -1.039108,5.955845 -3.5,6.0625 C 5.8311344,22.35153 2.6583312,14.56 3.8750002,8.9999998 6.0513371,-0.94553587 17.507279,-5.1127417 26.5,-2.1875001 34.910416,0.54832394 40.09294,7.8641937 41.53125,16 L 44,16 C 41.920885,2.9365329 29.575549,-7.88082 16,-4.9999998 8.1948525,-3.3436964 1.3917839,3.555291 1.3125,11.5 z"
         id="path4102"
         inkscape:connector-curvature="0"
         inkscape:transform-center-x="-6.6559054"
         inkscape:transform-center-y="-6.6399817" />
      <path
         inkscape:transform-center-y="-2.552253"
         inkscape:transform-center-x="-6.7870967"
         inkscape:connector-curvature="0"
         id="path4104"
         d="M 5.5302519,4.7591356 C 4.7819187,6.0259279 4.215697,7.44601 3.8756444,8.9999999 2.6589758,14.559999 5.8311338,22.351205 12.5,22.062178 14.960894,21.955523 19.647375,18.105813 16,16 18.105813,19.647375 12.122184,20.638359 9.9376611,19.500279 4.0177391,16.416153 5.1657759,8.0820889 8.9994423,3.875322 15.856973,-3.6495961 27.861713,-1.5305313 34.187017,5.4991628 40.102739,12.073664 40.933001,21.000655 38.110711,28.765625 L 40.248711,30 C 44.979878,17.647148 39.69718,2.1063776 26.5,-2.1865334 18.912392,-4.6547064 9.5712683,-2.0815423 5.5302519,4.7591356 z"
         style="fill:red;fill-opacity:1;stroke:none" />
      <path
         style="fill:#a00;fill-opacity:1;stroke:none"
         d="M 12.553364,1.0302517 C 11.271893,1.7531594 10.071489,2.6998758 9.0000001,3.8756442 5.1663346,8.0824104 4.0179011,16.415872 9.9378221,19.5 12.122346,20.638081 18.105813,19.647375 16,16 16,20.211626 10.322533,18.078029 8.999721,16.000161 5.4149812,10.369269 10.576242,3.7257757 15.999678,1.9994419 25.700933,-1.088563 35.03781,6.748971 37.000837,15.999517 38.836752,24.651063 35.092285,32.797195 28.765625,38.110711 L 30,40.248711 C 40.273737,31.916411 43.469171,15.81636 34.186533,5.5 28.849559,-0.43130455 19.473326,-2.8734409 12.553364,1.0302517 z"
         id="path4106"
         inkscape:connector-curvature="0"
         inkscape:transform-center-x="-6.7473303"
         inkscape:transform-center-y="3.6923659" />
    </g>
  </g>
  <g
     inkscape:groupmode="layer"
     id="layer2"
     inkscape:label="Frame"
     sodipodi:insensitive="true">
    <path
       style="fill:black;fill-opacity:1;fill-rule:nonzero;stroke:none"
       d="m 32.000004,0 0,32 -32.0000001000006,0 0,-32 L 32.000004,0 z m -1,1 -30.0000001,0 0,30 30.0000001,0 0,-30 z"
       id="rect3620"
       inkscape:connector-curvature="0" />
  </g>
</svg>
