<?xml version="1.0" encoding="UTF-8" standalone="no"?>
<!-- Created with Inkscape (http://www.inkscape.org/) -->

<svg xmlns:dc="http://purl.org/dc/elements/1.1/" xmlns:cc="http://creativecommons.org/ns#" xmlns:rdf="http://www.w3.org/1999/02/22-rdf-syntax-ns#" xmlns:svg="http://www.w3.org/2000/svg" xmlns="http://www.w3.org/2000/svg" xmlns:sodipodi="http://sodipodi.sourceforge.net/DTD/sodipodi-0.dtd" xmlns:inkscape="http://www.inkscape.org/namespaces/inkscape" width="32px" height="32px" id="svg3505" sodipodi:version="0.32" inkscape:version="0.91 r13725" sodipodi:docname="00.svg" inkscape:output_extension="org.inkscape.output.svg.inkscape" version="1.1">
  <defs id="defs3507">
    <inkscape:perspective sodipodi:type="inkscape:persp3d" inkscape:vp_x="0 : 16 : 1" inkscape:vp_y="0 : 1000 : 0" inkscape:vp_z="32 : 16 : 1" inkscape:persp3d-origin="16 : 10.666667 : 1" id="perspective3513" />
    <inkscape:perspective id="perspective4690" inkscape:persp3d-origin="372.04724 : 350.78739 : 1" inkscape:vp_z="744.09448 : 526.18109 : 1" inkscape:vp_y="0 : 1000 : 0" inkscape:vp_x="0 : 526.18109 : 1" sodipodi:type="inkscape:persp3d" />
    <inkscape:perspective id="perspective2564" inkscape:persp3d-origin="372.04724 : 350.78739 : 1" inkscape:vp_z="744.09448 : 526.18109 : 1" inkscape:vp_y="0 : 1000 : 0" inkscape:vp_x="0 : 526.18109 : 1" sodipodi:type="inkscape:persp3d" />
  </defs>
  <sodipodi:namedview id="base" pagecolor="#ffffff" bordercolor="#666666" borderopacity="1.0" inkscape:pageopacity="0.0" inkscape:pageshadow="2" inkscape:zoom="22.125" inkscape:cx="16" inkscape:cy="16" inkscape:current-layer="layer1" showgrid="true" inkscape:grid-bbox="true" inkscape:document-units="px" objecttolerance="4" gridtolerance="4" guidetolerance="4" inkscape:window-width="1600" inkscape:window-height="878" inkscape:window-x="0" inkscape:window-y="0" inkscape:object-paths="true" inkscape:object-nodes="true" inkscape:snap-bbox="true" inkscape:snap-guide="true" showguides="true" inkscape:guide-bbox="true" inkscape:window-maximized="1">
    <inkscape:grid type="xygrid" id="grid3515" units="px" visible="true" enabled="true" spacingx="1px" spacingy="1px" empspacing="4" />
  </sodipodi:namedview>
  <metadata id="metadata3510">
    <rdf:RDF>
      <cc:Work rdf:about="">
        <dc:format>image/svg+xml</dc:format>
        <dc:type rdf:resource="http://purl.org/dc/dcmitype/StillImage" />
        <dc:title>Vorlage f端r 32x32-Pixel-Icons f端r McMinos</dc:title>
        <dc:date>2010-04-05</dc:date>
        <dc:creator>
          <cc:Agent>
            <dc:title>Andreas Neudecker &lt;zapyon@gmx.net&gt;</dc:title>
          </cc:Agent>
        </dc:creator>
        <dc:rights>
          <cc:Agent>
            <dc:title>Copyright (C) 2010 by Andreas Neudecker</dc:title>
          </cc:Agent>
        </dc:rights>
        <dc:publisher>
          <cc:Agent>
            <dc:title>Andreas Neudecker</dc:title>
          </cc:Agent>
        </dc:publisher>
        <dc:identifier>vorlage-32x32-mcminos</dc:identifier>
        <dc:description>Vorlage f端r 32x32-Pixel-Icons f端r McMinos. Metadaten jeweils entsprechend anpassen!</dc:description>
      </cc:Work>
    </rdf:RDF>
  </metadata>
  <g id="layer1" inkscape:label="Layer 1" inkscape:groupmode="layer">
    <g id="g5562">
      <rect y="0" x="36" height="32" width="32" id="rect5558" style="opacity:1;fill:blue;fill-opacity:0.50196078;fill-rule:nonzero;stroke:none;stroke-width:2;stroke-linecap:butt;stroke-linejoin:miter;stroke-miterlimit:4;stroke-dasharray:none;stroke-dashoffset:0;stroke-opacity:1" />
      <rect style="opacity:1;fill:blue;fill-opacity:0.50196078;fill-rule:nonzero;stroke:none;stroke-width:2;stroke-linecap:butt;stroke-linejoin:miter;stroke-miterlimit:4;stroke-dasharray:none;stroke-dashoffset:0;stroke-opacity:1" id="rect5560" width="26" height="26" x="39" y="3" />
    </g>
    <g id="g5575">
      <path id="rect5566" d="M 39 0 L 39 3 L 65 3 L 65 0 L 39 0 z M 65 3 L 65 29 L 68 29 L 68 3 L 65 3 z M 65 29 L 39 29 L 39 32 L 65 32 L 65 29 z M 39 29 L 39 3 L 36 3 L 36 29 L 39 29 z " style="opacity:1;fill:yellow;fill-opacity:0.50196078;fill-rule:nonzero;stroke:none;stroke-width:2;stroke-linecap:butt;stroke-linejoin:miter;stroke-miterlimit:4;stroke-dasharray:none;stroke-dashoffset:0;stroke-opacity:1" />
    </g>
    <circle style="opacity:1;fill:red;fill-opacity:0.50196078;fill-rule:nonzero;stroke:none;stroke-width:2;stroke-linecap:butt;stroke-linejoin:miter;stroke-miterlimit:4;stroke-dasharray:none;stroke-dashoffset:0;stroke-opacity:1" id="path4749" cx="-16.000002" cy="-53" r="8" transform="matrix(0,-1,-1,0,0,0)" />
    <circle style="opacity:1;fill:red;fill-opacity:0.50196078;fill-rule:nonzero;stroke:none;stroke-width:2;stroke-linecap:butt;stroke-linejoin:miter;stroke-miterlimit:4;stroke-dasharray:none;stroke-dashoffset:0;stroke-opacity:1" id="path4751" cx="-21.000002" cy="-53" r="12" transform="matrix(0,-1,-1,0,0,0)" />
    <circle r="8" cy="-45" cx="-22.000002" id="circle4753" style="opacity:1;fill:red;fill-opacity:0.50196078;fill-rule:nonzero;stroke:none;stroke-width:2;stroke-linecap:butt;stroke-linejoin:miter;stroke-miterlimit:4;stroke-dasharray:none;stroke-dashoffset:0;stroke-opacity:1" transform="matrix(0,-1,-1,0,0,0)" />
    <circle style="opacity:1;fill:red;fill-opacity:0.50196078;fill-rule:nonzero;stroke:none;stroke-width:2;stroke-linecap:butt;stroke-linejoin:miter;stroke-miterlimit:4;stroke-dasharray:none;stroke-dashoffset:0;stroke-opacity:1" id="circle4755" cx="-7.000001" cy="-55" r="8" transform="matrix(0,-1,-1,0,0,0)" />
    <circle r="4" cy="-61" cx="-8.000001" id="circle4759" style="opacity:1;fill:red;fill-opacity:0.50196078;fill-rule:nonzero;stroke:none;stroke-width:2;stroke-linecap:butt;stroke-linejoin:miter;stroke-miterlimit:4;stroke-dasharray:none;stroke-dashoffset:0;stroke-opacity:1" transform="matrix(0,-1,-1,0,0,0)" />
    <circle style="opacity:1;fill:red;fill-opacity:0.50196078;fill-rule:nonzero;stroke:none;stroke-width:2;stroke-linecap:butt;stroke-linejoin:miter;stroke-miterlimit:4;stroke-dasharray:none;stroke-dashoffset:0;stroke-opacity:1" id="circle4761" cx="-10.000001" cy="-41" r="4" transform="matrix(0,-1,-1,0,0,0)" />
    <circle style="opacity:1;fill:red;fill-opacity:0.50196078;fill-rule:nonzero;stroke:none;stroke-width:2;stroke-linecap:butt;stroke-linejoin:miter;stroke-miterlimit:4;stroke-dasharray:none;stroke-dashoffset:0;stroke-opacity:1" id="circle4765" cx="-22.000002" cy="-43" r="4" transform="matrix(0,-1,-1,0,0,0)" />
    <circle r="4" cy="-45" cx="-28" id="circle4767" style="opacity:1;fill:red;fill-opacity:0.50196078;fill-rule:nonzero;stroke:none;stroke-width:2;stroke-linecap:butt;stroke-linejoin:miter;stroke-miterlimit:4;stroke-dasharray:none;stroke-dashoffset:0;stroke-opacity:1" transform="matrix(0,-1,-1,0,0,0)" />
    <circle style="opacity:1;fill:red;fill-opacity:0.50196078;fill-rule:nonzero;stroke:none;stroke-width:2;stroke-linecap:butt;stroke-linejoin:miter;stroke-miterlimit:4;stroke-dasharray:none;stroke-dashoffset:0;stroke-opacity:1" id="circle4769" cx="-26" cy="-51" r="4" transform="matrix(0,-1,-1,0,0,0)" />
    <circle style="opacity:1;fill:red;fill-opacity:0.50196078;fill-rule:nonzero;stroke:none;stroke-width:2;stroke-linecap:butt;stroke-linejoin:miter;stroke-miterlimit:4;stroke-dasharray:none;stroke-dashoffset:0;stroke-opacity:1" id="circle4771" cx="-8.000001" cy="-47" r="8" transform="matrix(0,-1,-1,0,0,0)" />
    <path inkscape:connector-curvature="0" id="path5599" d="M -13,-1 A 8,8 0 0 0 -17.855469,0.65429688 8,8 0 0 0 -21,0 8,8 0 0 0 -28.841797,6.453125 4,4 0 0 0 -31,10 a 4,4 0 0 0 4,4 4,4 0 0 0 0.65625,-0.05859 8,8 0 0 0 0.660156,0.533203 A 8,8 0 0 0 -31,22 8,8 0 0 0 -26.871094,28.990234 4,4 0 0 0 -23,32 4,4 0 0 0 -20.929688,31.416016 12,12 0 0 0 -15,33 12,12 0 0 0 -3,21 12,12 0 0 0 -6.900391,12.162109 8,8 0 0 0 -6.746094,11.988281 4,4 0 0 0 -3,8 4,4 0 0 0 -5.478516,4.3046875 8,8 0 0 0 -13,-1 Z" style="opacity:1;fill:red;fill-opacity:0.50196078;fill-rule:nonzero;stroke:none;stroke-width:2;stroke-linecap:butt;stroke-linejoin:miter;stroke-miterlimit:4;stroke-dasharray:none;stroke-dashoffset:0;stroke-opacity:1" />
    <g id="g5624">
      <path id="rect3578" d="M 3 3 L 3 6.5449219 A 4 4 0 0 1 3.1582031 6.453125 A 8 8 0 0 1 4.765625 3 L 3 3 z M 25.910156 3 A 8 8 0 0 1 26.521484 4.3046875 A 4 4 0 0 1 29 8 L 29 3 L 25.910156 3 z M 29 8.0253906 A 4 4 0 0 1 25.253906 11.988281 A 8 8 0 0 1 25.099609 12.162109 A 12 12 0 0 1 29 21 L 29 8.0253906 z M 29 21 A 12 12 0 0 1 25.925781 29 L 29 29 L 29 21 z M 3 13.458984 L 3 16.722656 A 8 8 0 0 1 6.3164062 14.474609 A 8 8 0 0 1 5.65625 13.941406 A 4 4 0 0 1 5 14 A 4 4 0 0 1 3 13.458984 z M 3 27.269531 L 3 29 L 5.1328125 29 A 4 4 0 0 1 5.1289062 28.990234 A 8 8 0 0 1 3 27.269531 z " style="fill:black;fill-opacity:1;fill-rule:nonzero;stroke:none;stroke-width:2;stroke-linecap:round;stroke-linejoin:miter;stroke-miterlimit:4;stroke-dasharray:none;stroke-dashoffset:0;stroke-opacity:1" />
      <path id="path3342" d="M 4 4 L 4 4.1582031 A 8 8 0 0 1 4.0566406 4.0566406 L 4 4 z M 4 13.869141 L 4 15.777344 A 8 8 0 0 1 6.3164062 14.474609 A 8 8 0 0 1 5.65625 13.941406 A 4 4 0 0 1 5 14 A 4 4 0 0 1 4 13.869141 z M 27.238281 27.238281 A 12 12 0 0 1 26.728516 28 L 28 28 L 27.238281 27.238281 z " style="fill:blue;fill-opacity:1;fill-rule:nonzero;stroke:none;stroke-width:2;stroke-linecap:round;stroke-linejoin:miter;stroke-miterlimit:4;stroke-dasharray:none;stroke-dashoffset:0;stroke-opacity:1" />
      <path id="path2570" d="M 4 4 L 4.0566406 4.0566406 A 8 8 0 0 1 4.0898438 4 L 4 4 z M 26.394531 4 A 8 8 0 0 1 26.521484 4.3046875 A 4 4 0 0 1 28 5.3632812 L 28 4 L 26.394531 4 z M 28 10.638672 A 4 4 0 0 1 25.253906 11.988281 A 8 8 0 0 1 25.099609 12.162109 A 12 12 0 0 1 28 16.230469 L 28 10.638672 z M 28 25.759766 A 12 12 0 0 1 27.238281 27.238281 L 28 28 L 28 25.759766 z " style="fill:aqua;fill-opacity:1;fill-rule:nonzero;stroke:none;stroke-width:2;stroke-linecap:round;stroke-linejoin:miter;stroke-miterlimit:4;stroke-dasharray:none;stroke-dashoffset:0;stroke-opacity:1" />
      <path id="path3346" d="M 27 11.455078 A 4 4 0 0 1 26 11.867188 L 26 13.09375 A 12 12 0 0 1 27 14.398438 L 27 11.455078 z " style="fill:#c3c3c3;fill-opacity:1;fill-rule:nonzero;stroke:none;stroke-width:2;stroke-linecap:round;stroke-linejoin:miter;stroke-miterlimit:4;stroke-dasharray:none;stroke-dashoffset:0;stroke-opacity:1" />
      <path id="path3368" d="M 5.65625 13.941406 A 4 4 0 0 1 5 14 L 5 15.089844 A 8 8 0 0 1 6 14.605469 L 6 14.220703 A 8 8 0 0 1 5.65625 13.941406 z " style="fill:#6b6b6b;fill-opacity:1;fill-rule:nonzero;stroke:none;stroke-width:2;stroke-linecap:round;stroke-linejoin:miter;stroke-miterlimit:4;stroke-dasharray:none;stroke-dashoffset:0;stroke-opacity:1" />
      <rect y="0" x="0" height="32" width="32" id="rect5622" style="opacity:1;fill:none;fill-opacity:0.50364965;fill-rule:nonzero;stroke:none;stroke-width:2;stroke-linecap:butt;stroke-linejoin:miter;stroke-miterlimit:4;stroke-dasharray:none;stroke-dashoffset:0;stroke-opacity:1" />
    </g>
  </g>
</svg>
