<?xml version="1.0" encoding="UTF-8" standalone="no"?>
<!-- Created with Inkscape (http://www.inkscape.org/) -->

<svg xmlns:dc="http://purl.org/dc/elements/1.1/" xmlns:cc="http://creativecommons.org/ns#" xmlns:rdf="http://www.w3.org/1999/02/22-rdf-syntax-ns#" xmlns:svg="http://www.w3.org/2000/svg" xmlns="http://www.w3.org/2000/svg" xmlns:sodipodi="http://sodipodi.sourceforge.net/DTD/sodipodi-0.dtd" xmlns:inkscape="http://www.inkscape.org/namespaces/inkscape" width="32px" height="32px" id="svg3505" sodipodi:version="0.32" inkscape:version="0.91 r13725" sodipodi:docname="00.svg" inkscape:output_extension="org.inkscape.output.svg.inkscape" version="1.1">
  <defs id="defs3507">
    <inkscape:perspective sodipodi:type="inkscape:persp3d" inkscape:vp_x="0 : 16 : 1" inkscape:vp_y="0 : 1000 : 0" inkscape:vp_z="32 : 16 : 1" inkscape:persp3d-origin="16 : 10.666667 : 1" id="perspective3513" />
    <inkscape:perspective id="perspective4690" inkscape:persp3d-origin="372.04724 : 350.78739 : 1" inkscape:vp_z="744.09448 : 526.18109 : 1" inkscape:vp_y="0 : 1000 : 0" inkscape:vp_x="0 : 526.18109 : 1" sodipodi:type="inkscape:persp3d" />
    <inkscape:perspective id="perspective2564" inkscape:persp3d-origin="372.04724 : 350.78739 : 1" inkscape:vp_z="744.09448 : 526.18109 : 1" inkscape:vp_y="0 : 1000 : 0" inkscape:vp_x="0 : 526.18109 : 1" sodipodi:type="inkscape:persp3d" />
  </defs>
  <sodipodi:namedview id="base" pagecolor="#ffffff" bordercolor="#666666" borderopacity="1.0" inkscape:pageopacity="0.0" inkscape:pageshadow="2" inkscape:zoom="22.125" inkscape:cx="21.540437" inkscape:cy="14.749704" inkscape:current-layer="layer1" showgrid="true" inkscape:grid-bbox="true" inkscape:document-units="px" objecttolerance="20" gridtolerance="20" guidetolerance="20" inkscape:window-width="1600" inkscape:window-height="878" inkscape:window-x="0" inkscape:window-y="0" inkscape:object-paths="true" inkscape:object-nodes="true" inkscape:snap-bbox="true" inkscape:snap-guide="true" showguides="true" inkscape:guide-bbox="true" inkscape:window-maximized="1">
    <inkscape:grid type="xygrid" id="grid3515" units="px" visible="true" enabled="true" spacingx="1px" spacingy="1px" empspacing="4" />
    <sodipodi:guide orientation="-0.70710678,0.70710678" position="33.245902,33.245902" id="guide3622" />
    <sodipodi:guide orientation="0.70710678,0.70710678" position="0,32" id="guide3624" />
  </sodipodi:namedview>
  <metadata id="metadata3510">
    <rdf:RDF>
      <cc:Work rdf:about="">
        <dc:format>image/svg+xml</dc:format>
        <dc:type rdf:resource="http://purl.org/dc/dcmitype/StillImage" />
        <dc:title>Vorlage f端r 32x32-Pixel-Icons f端r McMinos</dc:title>
        <dc:date>2010-04-05</dc:date>
        <dc:creator>
          <cc:Agent>
            <dc:title>Andreas Neudecker &lt;zapyon@gmx.net&gt;</dc:title>
          </cc:Agent>
        </dc:creator>
        <dc:rights>
          <cc:Agent>
            <dc:title>Copyright (C) 2010 by Andreas Neudecker</dc:title>
          </cc:Agent>
        </dc:rights>
        <dc:publisher>
          <cc:Agent>
            <dc:title>Andreas Neudecker</dc:title>
          </cc:Agent>
        </dc:publisher>
        <dc:identifier>vorlage-32x32-mcminos</dc:identifier>
        <dc:description>Vorlage f端r 32x32-Pixel-Icons f端r McMinos. Metadaten jeweils entsprechend anpassen!</dc:description>
      </cc:Work>
    </rdf:RDF>
  </metadata>
  <g id="layer1" inkscape:label="Layer 1" inkscape:groupmode="layer">
    <g id="g9396">
      <rect y="0" x="0" height="32" width="32" id="rect9394" style="opacity:1;fill:none;fill-opacity:0.50196078;fill-rule:nonzero;stroke:none;stroke-width:2;stroke-linecap:butt;stroke-linejoin:miter;stroke-miterlimit:4;stroke-dasharray:none;stroke-dashoffset:0;stroke-opacity:1" />
      <g id="g9386">
        <path style="fill:black;fill-opacity:1;fill-rule:nonzero;stroke:none;stroke-width:2;stroke-linecap:round;stroke-linejoin:miter;stroke-miterlimit:4;stroke-dashoffset:0;stroke-opacity:1" d="M 0 3 L 0 8 A 4 4 0 0 1 4 4 A 4 4 0 0 1 6.2285156 4.6816406 A 4 4 0 0 1 7.3632812 3 L 3 3 L 0 3 z M 0 8 L 0 14 A 4 4 0 0 1 1.3613281 11 A 4 4 0 0 1 0 8 z M 0 14 L 0 21 A 12 12 0 0 1 0.88476562 16.5 A 4 4 0 0 1 0 14 z M 0 21 L 0 29 L 3 29 L 3.0722656 29 A 12 12 0 0 1 0 21 z M 25.867188 3 A 4 4 0 0 1 26 4 A 8 8 0 0 1 32 6.71875 L 32 3 L 29 3 L 25.867188 3 z M 32 23.859375 A 8 8 0 0 1 29.992188 26.242188 A 4 4 0 0 1 28.638672 29 L 29 29 L 32 29 L 32 23.859375 z " id="path3635" />
        <path style="fill:aqua;fill-opacity:1;fill-rule:nonzero;stroke:none;stroke-width:2;stroke-linecap:round;stroke-linejoin:miter;stroke-miterlimit:4;stroke-dasharray:none;stroke-dashoffset:0;stroke-opacity:1" d="M 0 4 L 0 8 A 4 4 0 0 1 4 4 L 0 4 z M 4 4 A 4 4 0 0 1 6.2285156 4.6816406 A 4 4 0 0 1 6.546875 4 L 4 4 z M 0 8 L 0 14 A 4 4 0 0 1 1.3613281 11 A 4 4 0 0 1 0 8 z M 0 14 L 0 16 L 0.54492188 16 A 4 4 0 0 1 0 14 z M 26 4 A 8 8 0 0 1 32 6.71875 L 32 4 L 26 4 z " id="path3648" />
        <path style="fill:blue;fill-opacity:1;fill-rule:nonzero;stroke:none;stroke-width:2;stroke-linecap:round;stroke-linejoin:miter;stroke-miterlimit:4;stroke-dasharray:none;stroke-dashoffset:0;stroke-opacity:1" d="M 0 16 L 0 21 A 12 12 0 0 1 0.88476562 16.5 A 4 4 0 0 1 0.54492188 16 L 0 16 z M 0 21 L 0 28 L 2.265625 28 A 12 12 0 0 1 0 21 z M 32 23.859375 A 8 8 0 0 1 29.992188 26.242188 A 4 4 0 0 1 29.457031 28 L 32 28 L 32 23.859375 z " id="path3644" />
        <path style="fill:#c3c3c3;fill-opacity:1;fill-rule:nonzero;stroke:none;stroke-width:2;stroke-linecap:round;stroke-linejoin:miter;stroke-miterlimit:4;stroke-dasharray:none;stroke-dashoffset:0;stroke-opacity:1" d="M 0 5 L 0 6 L 0.54101562 6 A 4 4 0 0 1 1.3613281 5 L 0 5 z M 29.853516 5 A 8 8 0 0 1 31.277344 6 L 32 6 L 32 5 L 29.853516 5 z M 0 7 L 0 8 A 4 4 0 0 1 0.13085938 7 L 0 7 z M 0 8 L 0 8.03125 L 0.001953125 8.03125 A 4 4 0 0 1 0 8 z M 0 9 L 0 10 L 0.54492188 10 A 4 4 0 0 1 0.1328125 9 L 0 9 z M 0 11 L 0 12 L 0.54296875 12 A 4 4 0 0 1 1.3613281 11 L 0 11 z M 0 13 L 0 14 A 4 4 0 0 1 0.12890625 13 L 0 13 z " id="path3626" />
        <path style="fill:#6b6b6b;fill-opacity:1;fill-rule:nonzero;stroke:none;stroke-width:2;stroke-linecap:round;stroke-linejoin:miter;stroke-miterlimit:4;stroke-dasharray:none;stroke-dashoffset:0;stroke-opacity:1" d="M 0 18 L 0 19 L 0.1796875 19 A 12 12 0 0 1 0.40039062 18 L 0 18 z M 0 20 L 0 21 A 12 12 0 0 1 0.044921875 20 L 0 20 z M 0 22 L 0 23 L 0.18164062 23 A 12 12 0 0 1 0.05078125 22 L 0 22 z M 0 24 L 0 25 L 0.70117188 25 A 12 12 0 0 1 0.39453125 24 L 0 24 z M 31.914062 24 A 8 8 0 0 1 31.228516 25 L 32 25 L 32 24 L 31.914062 24 z M 0 26 L 0 27 L 1.6191406 27 A 12 12 0 0 1 1.1054688 26 L 0 26 z M 30.265625 26 A 8 8 0 0 1 29.992188 26.242188 A 4 4 0 0 1 29.869141 27 L 32 27 L 32 26 L 30.265625 26 z " id="path3638" />
        <path style="fill:#0080ff;fill-opacity:1;fill-rule:nonzero;stroke:none;stroke-width:2;stroke-linecap:round;stroke-linejoin:miter;stroke-miterlimit:4;stroke-dasharray:none;stroke-dashoffset:0;stroke-opacity:1" d="M 0 15 L 0 17 L 0.70898438 17 A 12 12 0 0 1 0.88476562 16.5 A 4 4 0 0 1 0.13476562 15 L 0 15 z " id="rect3926" />
      </g>
    </g>
    <path inkscape:connector-curvature="0" id="path5433" d="m 36,28 4,0 0,4 24,0 0,-4 4,0 0,-24 -4,0 0,-4 -24,0 0,4 -4,0 z" style="opacity:1;fill:#b3b3b3;fill-opacity:0.50196078;fill-rule:nonzero;stroke:none;stroke-width:2;stroke-linecap:butt;stroke-linejoin:miter;stroke-miterlimit:4;stroke-dasharray:none;stroke-dashoffset:0;stroke-opacity:1" />
    <circle style="opacity:1;fill:red;fill-opacity:0.50196078;fill-rule:nonzero;stroke:none;stroke-width:2;stroke-linecap:butt;stroke-linejoin:miter;stroke-miterlimit:4;stroke-dasharray:none;stroke-dashoffset:0;stroke-opacity:1" id="path4749" cx="52" cy="-16" r="8" transform="scale(1,-1)" />
    <circle style="opacity:1;fill:red;fill-opacity:0.50196078;fill-rule:nonzero;stroke:none;stroke-width:2;stroke-linecap:butt;stroke-linejoin:miter;stroke-miterlimit:4;stroke-dasharray:none;stroke-dashoffset:0;stroke-opacity:1" id="path4751" cx="48" cy="-21" r="12" transform="scale(1,-1)" />
    <circle r="8" cy="-12" cx="50" id="circle4753" style="opacity:1;fill:red;fill-opacity:0.50196078;fill-rule:nonzero;stroke:none;stroke-width:2;stroke-linecap:butt;stroke-linejoin:miter;stroke-miterlimit:4;stroke-dasharray:none;stroke-dashoffset:0;stroke-opacity:1" transform="scale(1,-1)" />
    <circle style="opacity:1;fill:red;fill-opacity:0.50196078;fill-rule:nonzero;stroke:none;stroke-width:2;stroke-linecap:butt;stroke-linejoin:miter;stroke-miterlimit:4;stroke-dasharray:none;stroke-dashoffset:0;stroke-opacity:1" id="circle4755" cx="61" cy="-20" r="8" transform="scale(1,-1)" />
    <circle style="opacity:1;fill:red;fill-opacity:0.50196078;fill-rule:nonzero;stroke:none;stroke-width:2;stroke-linecap:butt;stroke-linejoin:miter;stroke-miterlimit:4;stroke-dasharray:none;stroke-dashoffset:0;stroke-opacity:1" id="path4757" cx="56" cy="-28" r="4" transform="scale(1,-1)" />
    <circle r="4" cy="-26" cx="62" id="circle4759" style="opacity:1;fill:red;fill-opacity:0.50196078;fill-rule:nonzero;stroke:none;stroke-width:2;stroke-linecap:butt;stroke-linejoin:miter;stroke-miterlimit:4;stroke-dasharray:none;stroke-dashoffset:0;stroke-opacity:1" transform="scale(1,-1)" />
    <circle style="opacity:1;fill:red;fill-opacity:0.50196078;fill-rule:nonzero;stroke:none;stroke-width:2;stroke-linecap:butt;stroke-linejoin:miter;stroke-miterlimit:4;stroke-dasharray:none;stroke-dashoffset:0;stroke-opacity:1" id="circle4761" cx="58" cy="-4" r="4" transform="scale(1,-1)" />
    <circle r="4" cy="-4" cx="52" id="circle4763" style="opacity:1;fill:red;fill-opacity:0.50196078;fill-rule:nonzero;stroke:none;stroke-width:2;stroke-linecap:butt;stroke-linejoin:miter;stroke-miterlimit:4;stroke-dasharray:none;stroke-dashoffset:0;stroke-opacity:1" transform="scale(1,-1)" />
    <circle style="opacity:1;fill:red;fill-opacity:0.50196078;fill-rule:nonzero;stroke:none;stroke-width:2;stroke-linecap:butt;stroke-linejoin:miter;stroke-miterlimit:4;stroke-dasharray:none;stroke-dashoffset:0;stroke-opacity:1" id="circle4765" cx="46" cy="-6" r="4" transform="scale(1,-1)" />
    <circle r="4" cy="-8" cx="40" id="circle4767" style="opacity:1;fill:red;fill-opacity:0.50196078;fill-rule:nonzero;stroke:none;stroke-width:2;stroke-linecap:butt;stroke-linejoin:miter;stroke-miterlimit:4;stroke-dasharray:none;stroke-dashoffset:0;stroke-opacity:1" transform="scale(1,-1)" />
    <circle style="opacity:1;fill:red;fill-opacity:0.50196078;fill-rule:nonzero;stroke:none;stroke-width:2;stroke-linecap:butt;stroke-linejoin:miter;stroke-miterlimit:4;stroke-dasharray:none;stroke-dashoffset:0;stroke-opacity:1" id="circle4769" cx="40" cy="-14" r="4" transform="scale(1,-1)" />
    <circle style="opacity:1;fill:red;fill-opacity:0.50196078;fill-rule:nonzero;stroke:none;stroke-width:2;stroke-linecap:butt;stroke-linejoin:miter;stroke-miterlimit:4;stroke-dasharray:none;stroke-dashoffset:0;stroke-opacity:1" id="circle4771" cx="62" cy="-12" r="8" transform="scale(1,-1)" />
  </g>
</svg>
