<?xml version="1.0" encoding="UTF-8" standalone="no"?>
<!-- Created with Inkscape (http://www.inkscape.org/) -->

<svg xmlns:dc="http://purl.org/dc/elements/1.1/" xmlns:cc="http://creativecommons.org/ns#" xmlns:rdf="http://www.w3.org/1999/02/22-rdf-syntax-ns#" xmlns:svg="http://www.w3.org/2000/svg" xmlns="http://www.w3.org/2000/svg" xmlns:sodipodi="http://sodipodi.sourceforge.net/DTD/sodipodi-0.dtd" xmlns:inkscape="http://www.inkscape.org/namespaces/inkscape" width="32px" height="32px" id="svg3505" sodipodi:version="0.32" inkscape:version="0.91 r13725" sodipodi:docname="00.svg" inkscape:output_extension="org.inkscape.output.svg.inkscape" version="1.1">
  <defs id="defs3507">
    <inkscape:perspective sodipodi:type="inkscape:persp3d" inkscape:vp_x="0 : 16 : 1" inkscape:vp_y="0 : 1000 : 0" inkscape:vp_z="32 : 16 : 1" inkscape:persp3d-origin="16 : 10.666667 : 1" id="perspective3513" />
    <inkscape:perspective id="perspective4690" inkscape:persp3d-origin="372.04724 : 350.78739 : 1" inkscape:vp_z="744.09448 : 526.18109 : 1" inkscape:vp_y="0 : 1000 : 0" inkscape:vp_x="0 : 526.18109 : 1" sodipodi:type="inkscape:persp3d" />
    <inkscape:perspective id="perspective2415" inkscape:persp3d-origin="372.04724 : 350.78739 : 1" inkscape:vp_z="744.09448 : 526.18109 : 1" inkscape:vp_y="0 : 1000 : 0" inkscape:vp_x="0 : 526.18109 : 1" sodipodi:type="inkscape:persp3d" />
    <inkscape:perspective id="perspective5551" inkscape:persp3d-origin="372.04724 : 350.78739 : 1" inkscape:vp_z="744.09448 : 526.18109 : 1" inkscape:vp_y="0 : 1000 : 0" inkscape:vp_x="0 : 526.18109 : 1" sodipodi:type="inkscape:persp3d" />
    <inkscape:perspective id="perspective5594" inkscape:persp3d-origin="372.04724 : 350.78739 : 1" inkscape:vp_z="744.09448 : 526.18109 : 1" inkscape:vp_y="0 : 1000 : 0" inkscape:vp_x="0 : 526.18109 : 1" sodipodi:type="inkscape:persp3d" />
    <inkscape:perspective id="perspective3253" inkscape:persp3d-origin="372.04724 : 350.78739 : 1" inkscape:vp_z="744.09448 : 526.18109 : 1" inkscape:vp_y="0 : 1000 : 0" inkscape:vp_x="0 : 526.18109 : 1" sodipodi:type="inkscape:persp3d" />
  </defs>
  <sodipodi:namedview id="base" pagecolor="#ffffff" bordercolor="#666666" borderopacity="1.0" inkscape:pageopacity="0.0" inkscape:pageshadow="2" inkscape:zoom="22.125" inkscape:cx="16" inkscape:cy="16" inkscape:current-layer="layer1" showgrid="true" inkscape:grid-bbox="true" inkscape:document-units="px" objecttolerance="10000" gridtolerance="10000" guidetolerance="10000" inkscape:window-width="1600" inkscape:window-height="878" inkscape:window-x="0" inkscape:window-y="0" inkscape:object-paths="true" inkscape:object-nodes="true" inkscape:snap-bbox="true" inkscape:snap-guide="true" showguides="true" inkscape:guide-bbox="true" inkscape:window-maximized="1">
    <inkscape:grid type="xygrid" id="grid3515" units="px" visible="true" enabled="true" spacingx="1px" spacingy="1px" empspacing="4" snapvisiblegridlinesonly="true" />
  </sodipodi:namedview>
  <metadata id="metadata3510">
    <rdf:RDF>
      <cc:Work rdf:about="">
        <dc:format>image/svg+xml</dc:format>
        <dc:type rdf:resource="http://purl.org/dc/dcmitype/StillImage" />
        <dc:title></dc:title>
        <dc:date>2010-05-06</dc:date>
        <dc:creator>
          <cc:Agent>
            <dc:title>Andreas Neudecker &lt;zapyon@gmx.net&gt;</dc:title>
          </cc:Agent>
        </dc:creator>
        <dc:rights>
          <cc:Agent>
            <dc:title>Copyright (C) 2010 by Andreas Neudecker</dc:title>
          </cc:Agent>
        </dc:rights>
        <dc:publisher>
          <cc:Agent>
            <dc:title>Andreas Neudecker</dc:title>
          </cc:Agent>
        </dc:publisher>
        <dc:identifier>skull-00</dc:identifier>
        <dc:description>Poisonous skull.</dc:description>
      </cc:Work>
    </rdf:RDF>
  </metadata>
  <g id="layer1" inkscape:label="Layer 1" inkscape:groupmode="layer">
    <g id="g6607">
      <g id="g17533" transform="translate(0,-1020.3622)">
        <rect style="fill:none;stroke:none" id="rect10063" width="32" height="32" x="0" y="1020.3622" />
        <path inkscape:connector-curvature="0" style="fill:black;fill-opacity:0.25098039;stroke:none" d="m 16.1875,1024.3622 a 12,12 0 0 0 -4.375,0.75 4,4 0 0 1 0.0625,0.2188 4,4 0 0 1 -1.0625,3.8437 4,4 0 0 1 -1.15625,0.8438 l 0.78125,0.7812 a 8,8 0 0 1 4.5625,-1.4375 8,8 0 0 1 8,8 8,8 0 0 1 -1.4375,4.5625 l 2.9375,2.9375 a 12,12 0 0 0 3.09375,-11.5937 12,12 0 0 0 -0.125,-0.4063 6,6 0 0 1 -6.71875,-1.2187 6,6 0 0 1 -1.1875,-6.7188 12,12 0 0 0 -0.46875,-0.1562 12,12 0 0 0 -2.90625,-0.4063 z m -6.34375,1.6875 c 0.044986,0.129 0.097184,0.2714 0.125,0.4063 a 2.5,2.5 0 0 0 -0.09375,-0.4063 12,12 0 0 0 -0.03125,0 z m 0.125,0.4063 C 9.996566,1026.5908 10,1026.7179 10,1026.8622 a 2.5,2.5 0 0 0 -0.03125,-0.4062 z m 11.78125,5.25 a 4,4 0 0 0 0.6875,0.375 c -0.239277,-0.1013 -0.474699,-0.2313 -0.6875,-0.375 z" id="path3093" />
        <path inkscape:connector-curvature="0" style="fill:#f0f0f0;fill-opacity:0.25098039;stroke:none" d="m 5.96875,1029.7997 a 12,12 0 0 0 -1.6875,4.0938 2.2585649,2.2585649 0 0 1 1.28125,1.5 2.2585649,2.2585649 0 0 1 -0.5625,2.1875 2.2585649,2.2585649 0 0 1 -0.84375,0.5312 12,12 0 0 0 0.125,0.6563 8,8 0 0 1 0.0625,-0.063 8,8 0 0 1 2.65625,-1.75 8,8 0 0 1 0.03125,0 8,8 0 0 1 3.40625,-6.1563 l -0.78125,-0.7812 -0.03125,0 a 4,4 0 0 1 -3.65625,-0.2188 z m 1.6875,10.75 a 5,5 0 0 0 -0.59375,0.2188 c 0.1914214,-0.081 0.390295,-0.1587 0.59375,-0.2188 z m 13.90625,1.375 a 8,8 0 0 1 -3.59375,2.8438 8,8 0 0 1 -1.0625,3.5625 12,12 0 0 0 7.59375,-3.4688 l -2.9375,-2.9375 z" id="path3850" />
        <path inkscape:connector-curvature="0" style="fill:gray;fill-opacity:0.25098039;stroke:none" d="m 15,1029.3622 c -4.280003,0 -7.7541826,3.3671 -7.96875,7.5938 a 8,8 0 0 1 3.09375,-0.5938 8,8 0 0 1 1.9375,0.2813 8,8 0 0 1 5.65625,5.6562 8,8 0 0 1 0.25,2.5 C 20.921422,1043.6228 23,1040.7346 23,1037.3622 c 0,-4.4183 -3.581722,-8 -8,-8 z m -1.78125,13.3125 c 0.153308,0.2384 0.2634,0.4861 0.375,0.75 a 5,5 0 0 0 -0.375,-0.75 z" id="path3858" />
        <path inkscape:connector-curvature="0" style="fill:#f0f0f0;fill-opacity:0.25098039;stroke:none" d="m 4.34375,1038.706 a 8,8 0 0 0 0,11.3125 8,8 0 0 0 11.3125,0 l -2.265625,-2.2657 A 5,5 0 0 1 9,1050.3622 a 5,5 0 0 1 -5,-5 5,5 0 0 1 2.6132812,-4.3867 L 4.34375,1038.706 Z" id="path3856" />
        <path inkscape:connector-curvature="0" style="fill:black;fill-opacity:0.25098039;stroke:none" d="m 10.117188,1036.3622 a 8,8 0 0 0 -5.773438,2.3438 l 2.2695312,2.2695 A 5,5 0 0 1 9,1040.3622 a 5,5 0 0 1 5,5 5,5 0 0 1 -0.609375,2.3906 l 2.265625,2.2657 a 8,8 0 0 0 2.070312,-7.7266 8,8 0 0 0 -5.65625,-5.6563 8,8 0 0 0 -1.953124,-0.2734 z" id="path3095" />
        <circle r="5" cy="1045.3622" cx="11" id="path3862" style="fill:gray;fill-opacity:0.25098039;stroke:none" transform="translate(-2,0)" />
        <path style="fill:black;fill-opacity:0.25098039;stroke:none" d="m 8.0585938,1022.3622 a 4,4 0 0 0 -2.8867188,1.1719 l 1.1347656,1.1347 A 2.5,2.5 0 0 1 7.5,1024.3622 a 2.5,2.5 0 0 1 2.5,2.5 2.5,2.5 0 0 1 -0.3046875,1.1953 l 1.1328125,1.1328 a 4,4 0 0 0 1.035156,-3.8633 4,4 0 0 0 -2.8281248,-2.8281 4,4 0 0 0 -0.9765624,-0.1367 z" id="path3852" inkscape:connector-curvature="0" />
        <path inkscape:connector-curvature="0" style="fill:#f0f0f0;fill-opacity:0.25098039;stroke:none" d="m 5.171875,1023.5341 a 4,4 0 0 0 0,5.6562 4,4 0 0 0 5.65625,0 l -1.1328125,-1.1328 A 2.5,2.5 0 0 1 7.5,1029.3622 a 2.5,2.5 0 0 1 -2.5,-2.5 2.5,2.5 0 0 1 1.3066406,-2.1934 l -1.1347656,-1.1347 z" id="path3091" />
        <circle r="2.5" cy="1028.8622" cx="7.5" id="path3866" style="fill:gray;fill-opacity:0.25098039;stroke:none" transform="translate(0,-2)" />
        <path inkscape:connector-curvature="0" style="fill:black;fill-opacity:0.25098039;stroke:none" d="m 28.058594,1044.3622 a 4,4 0 0 0 -2.886719,1.1719 l 1.134766,1.1347 a 2.5,2.5 0 0 1 1.193359,-0.3066 2.5,2.5 0 0 1 2.5,2.5 2.5,2.5 0 0 1 -0.304688,1.1953 l 1.132813,1.1328 a 4,4 0 0 0 1.035156,-3.8633 4,4 0 0 0 -2.828125,-2.8281 4,4 0 0 0 -0.976562,-0.1367 z" id="path3097" />
        <path inkscape:connector-curvature="0" style="fill:#f0f0f0;fill-opacity:0.25098039;stroke:none" d="m 25.171875,1045.5341 a 4,4 0 0 0 0,5.6562 4,4 0 0 0 5.65625,0 l -1.132813,-1.1328 a 2.5,2.5 0 0 1 -2.195312,1.3047 2.5,2.5 0 0 1 -2.5,-2.5 2.5,2.5 0 0 1 1.306641,-2.1934 l -1.134766,-1.1347 z" id="path3099" />
        <circle r="2.5" cy="1044.8622" cx="25.5" style="fill:gray;fill-opacity:0.25098039;stroke:none" id="path3101" transform="translate(2,4)" />
        <path inkscape:connector-curvature="0" style="fill:black;fill-opacity:0.25098039;stroke:none" d="m 3.4199219,1033.7274 a 2.2585649,2.2585649 0 0 0 -1.6289063,0.6621 l 0.640625,0.6407 a 1.4116032,1.4116032 0 0 1 0.6738282,-0.1739 1.4116032,1.4116032 0 0 1 1.4121093,1.4122 1.4116032,1.4116032 0 0 1 -0.1738281,0.6738 l 0.640625,0.6406 a 2.2585649,2.2585649 0 0 0 0.5859375,-2.1816 2.2585649,2.2585649 0 0 0 -1.5976563,-1.5977 2.2585649,2.2585649 0 0 0 -0.5527343,-0.076 z" id="path4196" />
        <path inkscape:connector-curvature="0" style="fill:#f0f0f0;fill-opacity:0.25098039;stroke:none" d="m 1.7910156,1034.3895 a 2.2585649,2.2585649 0 0 0 0,3.1934 2.2585649,2.2585649 0 0 0 3.1933594,0 l -0.640625,-0.6406 a 1.4116032,1.4116032 0 0 1 -1.2382812,0.7383 1.4116032,1.4116032 0 0 1 -1.4121094,-1.4121 1.4116032,1.4116032 0 0 1 0.7382812,-1.2383 l -0.640625,-0.6407 z" id="path4198" />
        <circle style="fill:gray;fill-opacity:0.25098039;stroke:none" id="path4200" cx="5.1055269" cy="1038.2683" r="1.4116032" transform="translate(-2,-2)" />
        <path inkscape:connector-curvature="0" style="fill:black;fill-opacity:0.25098039;stroke:none" d="m 25.086984,1021.3999 a 6,6 0 0 0 -4.330078,1.7578 l 1.599609,1.5996 a 4,4 0 0 1 1.642578,-0.3574 4,4 0 0 1 4,4 4,4 0 0 1 -0.357421,1.6426 l 1.599609,1.5996 a 6,6 0 0 0 1.552734,-5.7949 6,6 0 0 0 -4.242187,-4.2442 6,6 0 0 0 -1.464844,-0.2031 z" id="path5218" />
        <circle id="circle5220" style="fill:gray;fill-opacity:0.25098039;stroke:none" cx="1.8653295" cy="1028.0785" r="4" transform="translate(22.133859,0.32091688)" />
        <path id="path5290" d="m 2.5209177,1022.3626 a 1.5000021,1.5000021 0 0 0 -1.0818209,0.4397 l 0.4254643,0.4255 a 0.93750139,0.93750139 0 0 1 0.4475159,-0.1155 0.93750139,0.93750139 0 0 1 0.9378375,0.9378 0.93750139,0.93750139 0 0 1 -0.1154461,0.4476 l 0.4254643,0.4254 a 1.5000021,1.5000021 0 0 0 0.3891443,-1.4489 1.5000021,1.5000021 0 0 0 -1.0610666,-1.0611 1.5000021,1.5000021 0 0 0 -0.3670927,-0.05 z" style="fill:black;fill-opacity:0.25098039;stroke:none" inkscape:connector-curvature="0" />
        <path id="path5292" d="m 1.4390968,1022.8023 a 1.5000021,1.5000021 0 0 0 0,2.1208 1.5000021,1.5000021 0 0 0 2.1208359,0 l -0.4254643,-0.4254 a 0.93750139,0.93750139 0 0 1 -0.8223914,0.4903 0.93750139,0.93750139 0 0 1 -0.9378376,-0.9379 0.93750139,0.93750139 0 0 1 0.4903217,-0.8223 l -0.4254643,-0.4255 z" style="fill:#f0f0f0;fill-opacity:0.25098039;stroke:none" inkscape:connector-curvature="0" />
        <circle r="1.4116032" cy="1038.2683" cx="5.1055269" id="circle5294" style="fill:gray;fill-opacity:0.25098039;stroke:none" transform="matrix(0.66413946,0,0,0.66413946,-1.0786663,334.49508)" />
        <path inkscape:connector-curvature="0" style="fill:black;fill-opacity:0.25098039;stroke:none" d="m 22.520918,1048.3626 a 1.5000021,1.5000021 0 0 0 -1.081821,0.4397 l 0.425464,0.4255 a 0.93750139,0.93750139 0 0 1 0.447516,-0.1155 0.93750139,0.93750139 0 0 1 0.937838,0.9378 0.93750139,0.93750139 0 0 1 -0.115446,0.4476 l 0.425464,0.4254 a 1.5000021,1.5000021 0 0 0 0.389144,-1.4489 1.5000021,1.5000021 0 0 0 -1.061066,-1.0611 1.5000021,1.5000021 0 0 0 -0.367093,-0.051 z" id="path5298" />
        <path inkscape:connector-curvature="0" style="fill:#f0f0f0;fill-opacity:0.25098039;stroke:none" d="m 21.439097,1048.8023 a 1.5000021,1.5000021 0 0 0 0,2.1208 1.5000021,1.5000021 0 0 0 2.120836,0 l -0.425464,-0.4254 a 0.93750139,0.93750139 0 0 1 -0.822392,0.4903 0.93750139,0.93750139 0 0 1 -0.937837,-0.9379 0.93750139,0.93750139 0 0 1 0.490321,-0.8223 l -0.425464,-0.4255 z" id="path5300" />
        <circle style="fill:gray;fill-opacity:0.25098039;stroke:none" id="circle5302" cx="5.1055269" cy="1038.2683" r="1.4116032" transform="matrix(0.66413946,0,0,0.66413946,18.921334,360.49508)" />
        <path id="path12463" d="m 20.756906,1023.1577 a 6,6 0 0 0 0,8.4844 6,6 0 0 0 8.484375,0 l -1.599609,-1.5996 a 4,4 0 0 1 -3.642579,2.3574 4,4 0 0 1 -4,-4 4,4 0 0 1 2.357422,-3.6426 l -1.599609,-1.5996 z" style="fill:#f0f0f0;fill-opacity:0.25098039;stroke:none" inkscape:connector-curvature="0" />
      </g>
      <g transform="translate(-28,-8)" id="g16872">
        <path style="color:black;font-style:normal;font-variant:normal;font-weight:normal;font-stretch:normal;font-size:medium;line-height:normal;font-family:Sans;-inkscape-font-specification:Sans;text-indent:0;text-align:start;text-decoration:none;text-decoration-line:none;letter-spacing:normal;word-spacing:normal;text-transform:none;direction:ltr;block-progression:tb;writing-mode:lr-tb;baseline-shift:baseline;text-anchor:start;display:inline;overflow:visible;visibility:visible;fill:black;fill-opacity:1;fill-rule:nonzero;stroke:none;stroke-width:2;marker:none;enable-background:accumulate" d="m 32.71875,9.84375 -0.4375,0.4375 -1,1 -0.09375,0.125 -0.09375,0.15625 -1,2 -0.3125,0.625 0.5,0.53125 1,1 0.4375,0.4375 0.59375,-0.21875 3,-1 0.21875,-0.0625 0.1875,-0.15625 1,-1 1,-1.03125 -0.78125,-0.34375 0.46875,-0.9375 -1.09375,-0.34375 -3,-1 z" id="path16857" inkscape:connector-curvature="0" sodipodi:nodetypes="ccccccccccccccccccccc" />
        <path inkscape:connector-curvature="0" style="fill:#e6e6e6;fill-opacity:1;fill-rule:nonzero;stroke:none" d="m 32,12 -1,2 1,1 3,-1 -3,-1 2,-1 -1,-1 z" id="path3301" sodipodi:nodetypes="cccccccc" />
        <path inkscape:connector-curvature="0" style="fill:white;fill-opacity:1;fill-rule:nonzero;stroke:none" d="M 33.951304,12.024348 36,12 l -1,2 -3,-1 1.951304,-0.975652 z" id="path3524" sodipodi:nodetypes="ccccc" />
        <circle transform="translate(18,2)" style="fill:gray;fill-opacity:1;fill-rule:nonzero;stroke:none" id="path3349" cx="14.5" cy="11.5" r="0.5" />
        <circle transform="translate(20,4)" id="path3309" style="fill:#e6e6e6;fill-opacity:1;fill-rule:nonzero;stroke:none" cx="13.5" cy="8.5" r="0.5" />
        <path style="fill:#999;fill-opacity:1;stroke:none" d="M 36,12 33.951304,12.024348 33,11 Z" id="path16841" inkscape:connector-curvature="0" />
        <path style="fill:#4d4d4d;fill-opacity:1;fill-rule:nonzero;stroke:none" d="m 34,12 1,2 1,-1 z" id="path3283" inkscape:connector-curvature="0" sodipodi:nodetypes="cccc" />
      </g>
      <g transform="translate(0,-26)" id="g16817">
        <g transform="matrix(0,1,-1,0,64.3125,9.3125)" id="g16826">
          <path sodipodi:nodetypes="ccccccccccccccccccccc" inkscape:connector-curvature="0" id="path16802" d="m 28.1875,32.78125 -0.625,0.3125 -2,1 L 25,34.375 25,35 l 0,1 0,2 0,1 1,0 0.5625,0 0.71875,0.71875 1.15625,1.125 0.5,-1.53125 1,-3 L 30,36.15625 30,36 l 0,-1 0,-0.40625 -0.28125,-0.3125 -1,-1 z" style="color:black;font-style:normal;font-variant:normal;font-weight:normal;font-stretch:normal;font-size:medium;line-height:normal;font-family:Sans;-inkscape-font-specification:Sans;text-indent:0;text-align:start;text-decoration:none;text-decoration-line:none;letter-spacing:normal;word-spacing:normal;text-transform:none;direction:ltr;block-progression:tb;writing-mode:lr-tb;baseline-shift:baseline;text-anchor:start;display:inline;overflow:visible;visibility:visible;fill:black;fill-opacity:1;fill-rule:nonzero;stroke:none;stroke-width:2;marker:none;enable-background:accumulate" />
          <path id="path3279" d="m 26,36 2,1 0,2 -1,-1 -1,0 0,-2 z" style="fill:#ccc;fill-opacity:1;fill-rule:nonzero;stroke:none" inkscape:connector-curvature="0" />
          <path id="path3281" d="m 28,34 -1,1 1,1 1,0 0,-1 -1,-1 z" style="fill:#4d4d4d;fill-opacity:1;fill-rule:nonzero;stroke:none" inkscape:connector-curvature="0" />
          <path inkscape:connector-curvature="0" id="path16782" d="m 28,34 -2,1 0,1 2,1 0,-1 -1,-1 z" style="fill:white;fill-opacity:1;stroke:none" />
          <path inkscape:connector-curvature="0" id="path16784" d="m 29,36 -1,0 0,3 z" style="fill:#999;fill-opacity:1;stroke:none" />
          <circle transform="translate(11,19)" style="fill:#333;fill-opacity:1;fill-rule:nonzero;stroke:none" id="path3319" cx="16.5" cy="17.5" r="0.5" />
          <circle transform="translate(12,26)" style="fill:gray;fill-opacity:1;fill-rule:nonzero;stroke:none" id="path16786" cx="14.5" cy="11.5" r="0.5" />
        </g>
      </g>
      <circle id="path3263" style="fill:#333;fill-opacity:1;fill-rule:nonzero;stroke:none" cx="4.5" cy="7.5" r="0.5" />
      <circle id="path3265" style="fill:gray;fill-opacity:1;fill-rule:nonzero;stroke:none" cx="14.5" cy="11.5" r="0.5" />
      <circle id="path3267" style="fill:#e6e6e6;fill-opacity:1;fill-rule:nonzero;stroke:none" cx="11.5" cy="9.5" r="0.5" />
      <circle id="path3269" style="fill:#e6e6e6;fill-opacity:1;fill-rule:nonzero;stroke:none" cx="8.5" cy="4.5" r="0.5" />
      <circle id="path3271" style="fill:gray;fill-opacity:1;fill-rule:nonzero;stroke:none" cx="3.5" cy="16.5" r="0.5" />
      <circle id="path3273" style="fill:#333;fill-opacity:1;fill-rule:nonzero;stroke:none" cx="16.5" cy="17.5" r="0.5" />
      <circle id="path3275" style="fill:gray;fill-opacity:1;fill-rule:nonzero;stroke:none" cx="6.5" cy="26.5" r="0.5" />
      <circle id="path3277" style="fill:#333;fill-opacity:1;fill-rule:nonzero;stroke:none" cx="28.5" cy="27.5" r="0.5" />
      <circle style="fill:#e6e6e6;fill-opacity:1;fill-rule:nonzero;stroke:none" id="path3303" cx="12.5" cy="15" r="0.5" />
      <circle id="path3305" style="fill:#e6e6e6;fill-opacity:1;fill-rule:nonzero;stroke:none" cx="21.5" cy="12.5" r="0.5" />
      <circle style="fill:#e6e6e6;fill-opacity:1;fill-rule:nonzero;stroke:none" id="path3307" cx="15.5" cy="6.5" r="0.5" />
      <circle style="fill:#e6e6e6;fill-opacity:1;fill-rule:nonzero;stroke:none" id="path3313" cx="11" cy="25.5" r="0.5" />
      <circle style="fill:#333;fill-opacity:1;fill-rule:nonzero;stroke:none" id="path3315" cx="18.5" cy="29.5" r="0.5" />
      <circle id="path3317" style="fill:#333;fill-opacity:1;fill-rule:nonzero;stroke:none" cx="18.5" cy="27.5" r="0.5" />
      <circle id="path3321" style="fill:#333;fill-opacity:1;fill-rule:nonzero;stroke:none" cx="26.5" cy="10.5" r="0.5" />
      <circle id="path3323" style="fill:#333;fill-opacity:1;fill-rule:nonzero;stroke:none" cx="20.5" cy="28.595652" r="0.5" />
      <circle style="fill:#333;fill-opacity:1;fill-rule:nonzero;stroke:none" id="path3325" cx="14.5" cy="31.5" r="0.5" />
      <circle id="path3327" style="fill:#333;fill-opacity:1;fill-rule:nonzero;stroke:none" cx="9.5" cy="23.5" r="0.5" />
      <circle style="fill:#333;fill-opacity:1;fill-rule:nonzero;stroke:none" id="path3329" cx="4.5" cy="24.647825" r="0.5" />
      <circle id="path3331" style="fill:#333;fill-opacity:1;fill-rule:nonzero;stroke:none" cx="4.5" cy="21.5" r="0.5" />
      <circle style="fill:#333;fill-opacity:1;fill-rule:nonzero;stroke:none" id="path3333" cx="1.421739" cy="22.5" r="0.5" />
      <circle id="path3335" style="fill:#333;fill-opacity:1;fill-rule:nonzero;stroke:none" cx="8.5" cy="17.5" r="0.5" />
      <circle style="fill:#333;fill-opacity:1;fill-rule:nonzero;stroke:none" id="path3337" cx="1.5" cy="14.5" r="0.5" />
      <circle id="path3339" style="fill:#333;fill-opacity:1;fill-rule:nonzero;stroke:none" cx="0.5" cy="0.5" r="0.5" />
      <circle style="fill:#333;fill-opacity:1;fill-rule:nonzero;stroke:none" id="path3341" cx="12.5" cy="17.5" r="0.5" />
      <circle style="fill:gray;fill-opacity:1;fill-rule:nonzero;stroke:none" id="path3343" cx="19.5" cy="9.5" r="0.5" />
      <circle id="path3345" style="fill:gray;fill-opacity:1;fill-rule:nonzero;stroke:none" cx="24.5" cy="4.5" r="0.5" />
      <circle style="fill:gray;fill-opacity:1;fill-rule:nonzero;stroke:none" id="path3347" cx="29.404348" cy="1.5" r="0.5" />
      <circle style="fill:gray;fill-opacity:1;fill-rule:nonzero;stroke:none" id="path3351" cx="18.5" cy="13.5" r="0.5" />
      <circle id="path3353" style="fill:gray;fill-opacity:1;fill-rule:nonzero;stroke:none" cx="9.5" cy="12.5" r="0.5" />
      <circle style="fill:gray;fill-opacity:1;fill-rule:nonzero;stroke:none" id="path3355" cx="6.5" cy="9.5" r="0.5" />
      <circle id="path3357" style="fill:gray;fill-opacity:1;fill-rule:nonzero;stroke:none" cx="21.5" cy="22.5" r="0.5" />
      <circle style="fill:gray;fill-opacity:1;fill-rule:nonzero;stroke:none" id="path3359" cx="31.5" cy="22.5" r="0.5" />
      <circle id="path3361" style="fill:gray;fill-opacity:1;fill-rule:nonzero;stroke:none" cx="14.5" cy="21.595652" r="0.5" />
      <circle id="path3363" style="fill:#333;fill-opacity:1;fill-rule:nonzero;stroke:none" cx="31.334784" cy="4.5" r="0.5" />
      <circle style="fill:#333;fill-opacity:1;fill-rule:nonzero;stroke:none" id="path3365" cx="16.5" cy="1.595652" r="0.5" />
      <circle id="path3367" style="fill:#333;fill-opacity:1;fill-rule:nonzero;stroke:none" cx="17.5" cy="20.5" r="0.5" />
      <circle style="fill:#333;fill-opacity:1;fill-rule:nonzero;stroke:none" id="path3369" cx="13.534782" cy="28.5" r="0.5" />
      <circle id="path3371" style="fill:#333;fill-opacity:1;fill-rule:nonzero;stroke:none" cx="3.5347829" cy="30.5" r="0.5" />
      <circle id="path3373" style="fill:gray;fill-opacity:1;fill-rule:nonzero;stroke:none" cx="19.5" cy="16.5" r="0.5" />
      <circle style="fill:gray;fill-opacity:1;fill-rule:nonzero;stroke:none" id="path3375" cx="28.5" cy="17.5" r="0.5" />
      <circle id="path3377" style="fill:gray;fill-opacity:1;fill-rule:nonzero;stroke:none" cx="19.5" cy="18.5" r="0.5" />
      <circle id="path3379" style="fill:#e6e6e6;fill-opacity:1;fill-rule:nonzero;stroke:none" cx="20.5" cy="5.5" r="0.5" />
      <circle style="fill:#e6e6e6;fill-opacity:1;fill-rule:nonzero;stroke:none" id="path3381" cx="29.5" cy="6.5" r="0.5" />
      <circle id="path3383" style="fill:#e6e6e6;fill-opacity:1;fill-rule:nonzero;stroke:none" cx="30.5" cy="12.5" r="0.5" />
      <circle style="fill:#e6e6e6;fill-opacity:1;fill-rule:nonzero;stroke:none" id="path3385" cx="22.5" cy="17.5" r="0.5" />
      <circle id="path3387" style="fill:#e6e6e6;fill-opacity:1;fill-rule:nonzero;stroke:none" cx="22.5" cy="17.5" r="0.5" />
      <path id="path3532" d="M 8,10 8,9 7,9 8,10 Z" style="fill:white;fill-opacity:1;fill-rule:nonzero;stroke:none" inkscape:connector-curvature="0" />
      <circle style="fill:#333;fill-opacity:1;fill-rule:nonzero;stroke:none" id="path17101" transform="matrix(0,-1,1,0,0,0)" cx="-27.560869" cy="7.4391303" r="0.5" />
      <circle transform="matrix(0,-1,1,0,0,0)" style="fill:gray;fill-opacity:1;fill-rule:nonzero;stroke:none" id="path17103" cx="-17.560869" cy="11.439131" r="0.5" />
      <circle style="fill:#e6e6e6;fill-opacity:1;fill-rule:nonzero;stroke:none" id="path17105" transform="matrix(0,-1,1,0,0,0)" cx="-20.560869" cy="9.4391308" r="0.5" />
      <circle transform="matrix(0,-1,1,0,0,0)" style="fill:#e6e6e6;fill-opacity:1;fill-rule:nonzero;stroke:none" id="path17107" cx="-23.560869" cy="4.4391303" r="0.5" />
      <circle transform="matrix(0,-1,1,0,0,0)" style="fill:gray;fill-opacity:1;fill-rule:nonzero;stroke:none" id="path17109" cx="-28.560869" cy="16.439131" r="0.5" />
      <circle transform="matrix(0,-1,1,0,0,0)" style="fill:#333;fill-opacity:1;fill-rule:nonzero;stroke:none" id="path17111" cx="-15.560869" cy="17.439131" r="0.5" />
      <circle transform="matrix(0,-1,1,0,0,0)" style="fill:gray;fill-opacity:1;fill-rule:nonzero;stroke:none" id="path17113" cx="-25.560869" cy="26.439131" r="0.5" />
      <circle transform="matrix(0,-1,1,0,0,0)" style="fill:#333;fill-opacity:1;fill-rule:nonzero;stroke:none" id="path17115" cx="-3.560869" cy="27.439131" r="0.5" />
      <circle id="path17117" style="fill:#e6e6e6;fill-opacity:1;fill-rule:nonzero;stroke:none" transform="matrix(0,-1,1,0,0,0)" cx="-19.560869" cy="14.939131" r="0.5" />
      <circle style="fill:#e6e6e6;fill-opacity:1;fill-rule:nonzero;stroke:none" id="path17119" transform="matrix(0,-1,1,0,0,0)" cx="-10.560869" cy="12.439131" r="0.5" />
      <circle id="path17121" style="fill:#e6e6e6;fill-opacity:1;fill-rule:nonzero;stroke:none" transform="matrix(0,-1,1,0,0,0)" cx="-16.560869" cy="6.4391303" r="0.5" />
      <circle transform="matrix(0,-1,1,0,0,0)" id="path17123" style="fill:#e6e6e6;fill-opacity:1;fill-rule:nonzero;stroke:none" cx="-21.060869" cy="25.439131" r="0.5" />
      <circle id="path17125" style="fill:#333;fill-opacity:1;fill-rule:nonzero;stroke:none" transform="matrix(0,-1,1,0,0,0)" cx="-13.560869" cy="29.439131" r="0.5" />
      <circle transform="matrix(0,-1,1,0,0,0)" style="fill:#333;fill-opacity:1;fill-rule:nonzero;stroke:none" id="path17127" cx="-13.560869" cy="27.439131" r="0.5" />
      <circle transform="matrix(0,-1,1,0,0,0)" style="fill:#333;fill-opacity:1;fill-rule:nonzero;stroke:none" id="path17129" cx="-5.5608692" cy="10.439131" r="0.5" />
      <circle transform="matrix(0,-1,1,0,0,0)" style="fill:#333;fill-opacity:1;fill-rule:nonzero;stroke:none" id="path17131" cx="-11.560869" cy="28.534782" r="0.5" />
      <circle id="path17133" style="fill:#333;fill-opacity:1;fill-rule:nonzero;stroke:none" transform="matrix(0,-1,1,0,0,0)" cx="-17.5" cy="31.5" r="0.5" />
      <circle transform="matrix(0,-1,1,0,0,0)" style="fill:#333;fill-opacity:1;fill-rule:nonzero;stroke:none" id="path17135" cx="-22.560869" cy="23.439131" r="0.5" />
      <circle id="path17137" style="fill:#333;fill-opacity:1;fill-rule:nonzero;stroke:none" transform="matrix(0,-1,1,0,0,0)" cx="-27.560869" cy="24.586956" r="0.5" />
      <circle transform="matrix(0,-1,1,0,0,0)" style="fill:#333;fill-opacity:1;fill-rule:nonzero;stroke:none" id="path17139" cx="-27.560869" cy="21.439131" r="0.5" />
      <circle id="path17141" style="fill:#333;fill-opacity:1;fill-rule:nonzero;stroke:none" transform="matrix(0,-1,1,0,0,0)" cx="-30.63913" cy="22.439131" r="0.5" />
      <circle transform="matrix(0,-1,1,0,0,0)" style="fill:#333;fill-opacity:1;fill-rule:nonzero;stroke:none" id="path17143" cx="-23.560869" cy="17.439131" r="0.5" />
      <circle id="path17145" style="fill:#333;fill-opacity:1;fill-rule:nonzero;stroke:none" transform="matrix(0,-1,1,0,0,0)" cx="-30.560869" cy="14.439131" r="0.5" />
      <circle transform="matrix(0,-1,1,0,0,0)" style="fill:#333;fill-opacity:1;fill-rule:nonzero;stroke:none" id="path17147" cx="-31.5" cy="0.5" r="0.5" />
      <circle id="path17149" style="fill:#333;fill-opacity:1;fill-rule:nonzero;stroke:none" transform="matrix(0,-1,1,0,0,0)" cx="-19.560869" cy="17.439131" r="0.5" />
      <circle transform="matrix(0,-1,1,0,0,0)" style="fill:gray;fill-opacity:1;fill-rule:nonzero;stroke:none" id="path17153" cx="-7.5608692" cy="4.4391303" r="0.5" />
      <circle id="path17155" style="fill:gray;fill-opacity:1;fill-rule:nonzero;stroke:none" transform="matrix(0,-1,1,0,0,0)" cx="-2.6565211" cy="1.4391299" r="0.5" />
      <circle id="path17157" style="fill:gray;fill-opacity:1;fill-rule:nonzero;stroke:none" transform="matrix(0,-1,1,0,0,0)" cx="-13.560869" cy="13.439131" r="0.5" />
      <circle transform="matrix(0,-1,1,0,0,0)" style="fill:gray;fill-opacity:1;fill-rule:nonzero;stroke:none" id="path17159" cx="-22.560869" cy="12.439131" r="0.5" />
      <circle id="path17161" style="fill:gray;fill-opacity:1;fill-rule:nonzero;stroke:none" transform="matrix(0,-1,1,0,0,0)" cx="-25.560869" cy="9.4391308" r="0.5" />
      <circle transform="matrix(0,-1,1,0,0,0)" style="fill:gray;fill-opacity:1;fill-rule:nonzero;stroke:none" id="path17163" cx="-10.560869" cy="22.439131" r="0.5" />
      <circle id="path17165" style="fill:gray;fill-opacity:1;fill-rule:nonzero;stroke:none" transform="matrix(0,-1,1,0,0,0)" cx="-0.56086898" cy="22.439131" r="0.5" />
      <circle transform="matrix(0,-1,1,0,0,0)" style="fill:gray;fill-opacity:1;fill-rule:nonzero;stroke:none" id="path17167" cx="-17.560869" cy="21.534782" r="0.5" />
      <circle transform="matrix(0,-1,1,0,0,0)" style="fill:#333;fill-opacity:1;fill-rule:nonzero;stroke:none" id="path17169" cx="-0.72608602" cy="4.4391298" r="0.5" />
      <circle id="path17171" style="fill:#333;fill-opacity:1;fill-rule:nonzero;stroke:none" transform="matrix(0,-1,1,0,0,0)" cx="-15.560869" cy="1.5347821" r="0.5" />
      <circle transform="matrix(0,-1,1,0,0,0)" style="fill:#333;fill-opacity:1;fill-rule:nonzero;stroke:none" id="path17173" cx="-14.560869" cy="20.439131" r="0.5" />
      <circle id="path17175" style="fill:#333;fill-opacity:1;fill-rule:nonzero;stroke:none" transform="matrix(0,-1,1,0,0,0)" cx="-18.526087" cy="28.439131" r="0.5" />
      <circle transform="matrix(0,-1,1,0,0,0)" style="fill:#333;fill-opacity:1;fill-rule:nonzero;stroke:none" id="path17177" cx="-28.526087" cy="30.439131" r="0.5" />
      <circle transform="matrix(0,-1,1,0,0,0)" style="fill:gray;fill-opacity:1;fill-rule:nonzero;stroke:none" id="path17179" cx="-12.560869" cy="16.439131" r="0.5" />
      <circle id="path17181" style="fill:gray;fill-opacity:1;fill-rule:nonzero;stroke:none" transform="matrix(0,-1,1,0,0,0)" cx="-3.560869" cy="17.439131" r="0.5" />
      <circle transform="matrix(0,-1,1,0,0,0)" style="fill:gray;fill-opacity:1;fill-rule:nonzero;stroke:none" id="path17183" cx="-12.560869" cy="18.439131" r="0.5" />
      <circle style="fill:#e6e6e6;fill-opacity:1;fill-rule:nonzero;stroke:none" id="path17185" transform="matrix(0,-1,1,0,0,0)" cx="-11.560869" cy="5.4391303" r="0.5" />
      <circle transform="matrix(0,-1,1,0,0,0)" id="path17187" style="fill:#e6e6e6;fill-opacity:1;fill-rule:nonzero;stroke:none" cx="-6.5608692" cy="14.439131" r="0.5" />
      <circle style="fill:#e6e6e6;fill-opacity:1;fill-rule:nonzero;stroke:none" id="path17189" transform="matrix(0,-1,1,0,0,0)" cx="-1.560869" cy="12.439131" r="0.5" />
      <circle transform="matrix(0,-1,1,0,0,0)" id="path17191" style="fill:#e6e6e6;fill-opacity:1;fill-rule:nonzero;stroke:none" cx="-9.5608692" cy="17.439131" r="0.5" />
      <circle style="fill:#e6e6e6;fill-opacity:1;fill-rule:nonzero;stroke:none" id="path17193" transform="matrix(0,-1,1,0,0,0)" cx="-9.5608692" cy="17.439131" r="0.5" />
      <path inkscape:connector-curvature="0" style="fill:white;fill-opacity:1;fill-rule:nonzero;stroke:none" d="m 9.9391305,24.060869 -1,0 0,1 1,-1 z" id="path17195" />
      <g transform="matrix(0,1,-1,0,49.421875,10.59375)" id="g16775">
        <path style="color:black;font-style:normal;font-variant:normal;font-weight:normal;font-stretch:normal;font-size:medium;line-height:normal;font-family:Sans;-inkscape-font-specification:Sans;text-indent:0;text-align:start;text-decoration:none;text-decoration-line:none;letter-spacing:normal;word-spacing:normal;text-transform:none;direction:ltr;block-progression:tb;writing-mode:lr-tb;baseline-shift:baseline;text-anchor:start;display:inline;overflow:visible;visibility:visible;fill:black;fill-opacity:1;fill-rule:nonzero;stroke:none;stroke-width:2;marker:none;enable-background:accumulate" d="m 19.28125,32.84375 -0.59375,0.21875 -6,2 -1.3125,0.4375 0.8125,1.09375 3,4 L 15.5,41 l 0.5,0 2,0 0.75,0 0.4375,0.21875 L 19.40625,41 l 1,0 L 19.9375,40.5 20.71875,39.71875 21.40625,39 20.71875,38.28125 20.4375,38 20.71875,37.71875 21,37.40625 21,37 l 0,-2 0,-0.40625 -0.28125,-0.3125 -1,-1 z" id="path16256" inkscape:connector-curvature="0" sodipodi:nodetypes="cccccccccccccccccccccccccc" />
        <path style="fill:#666;fill-opacity:1;fill-rule:nonzero;stroke:none" d="m 16,40 0,-3 2,-1 2,-1 0,2 -1,1 1,1 -1,1 -2,-1 1,1 z" id="path3261" sodipodi:nodetypes="ccccccccccc" inkscape:connector-curvature="0" />
        <path inkscape:connector-curvature="0" style="fill:#e6e6e6;fill-opacity:1;fill-rule:nonzero;stroke:none" d="m 13,36 6,-2 -2,2 -2,0 1,4 -3,-4 z" id="path3297" />
        <circle style="fill:#e6e6e6;fill-opacity:1;fill-rule:nonzero;stroke:none" id="path3311" transform="translate(5,29)" cx="13.5" cy="8.5" r="0.5" />
        <path style="fill:#b3b3b3;fill-opacity:1;stroke:none" d="m 16,40 -1,-4 2,0 2,-2 1,1 -4,2 z" id="path16244" inkscape:connector-curvature="0" />
      </g>
      <g id="g6531" transform="matrix(0,-1,1,0,10.75,56.75)">
        <path sodipodi:nodetypes="cccccccccccccccccccc" inkscape:connector-curvature="0" id="path6533" d="m 32.71875,9.84375 -0.4375,0.4375 -1,1 -0.09375,0.125 -0.09375,0.15625 -1,2 -0.3125,0.625 0.5,0.53125 1,1 0.4375,0.4375 0.59375,-0.21875 3,-1 0.21875,-0.0625 0.1875,-0.15625 1,-1 1,-1.03125 -0.3125,-1.28125 -1.09375,-0.34375 -3,-1 z" style="color:black;font-style:normal;font-variant:normal;font-weight:normal;font-stretch:normal;font-size:medium;line-height:normal;font-family:Sans;-inkscape-font-specification:Sans;text-indent:0;text-align:start;text-decoration:none;text-decoration-line:none;letter-spacing:normal;word-spacing:normal;text-transform:none;direction:ltr;block-progression:tb;writing-mode:lr-tb;baseline-shift:baseline;text-anchor:start;display:inline;overflow:visible;visibility:visible;fill:black;fill-opacity:1;fill-rule:nonzero;stroke:none;stroke-width:2;marker:none;enable-background:accumulate" />
        <path sodipodi:nodetypes="cccccccc" id="path6535" d="m 32,12 -1,2 1,1 3,-1 -3,-1 2,-1 -1,-1 z" style="fill:#e6e6e6;fill-opacity:1;fill-rule:nonzero;stroke:none" inkscape:connector-curvature="0" />
        <path sodipodi:nodetypes="ccccc" id="path6537" d="M 33.951304,12.024348 36,12 l -1,2 -3,-1 1.951304,-0.975652 z" style="fill:white;fill-opacity:1;fill-rule:nonzero;stroke:none" inkscape:connector-curvature="0" />
        <circle r="0.5" cy="14.49435" cx="32.27401" id="circle6539" style="fill:gray;fill-opacity:1;fill-rule:nonzero;stroke:none" />
        <circle r="0.5" cy="8.5" cx="13.5" style="fill:#e6e6e6;fill-opacity:1;fill-rule:nonzero;stroke:none" id="circle6541" transform="translate(20,4)" />
        <path sodipodi:nodetypes="cccc" inkscape:connector-curvature="0" id="path6543" d="M 36,12 31.75,12.25 33,11 Z" style="fill:#999;fill-opacity:1;stroke:none" />
        <path sodipodi:nodetypes="ccccc" inkscape:connector-curvature="0" id="path6545" d="M 34,12 32.75,13.25 35,14 36,13 Z" style="fill:#4d4d4d;fill-opacity:1;fill-rule:nonzero;stroke:none" />
      </g>
      <path inkscape:connector-curvature="0" id="path6547" d="M 17,8 14,9 13,8 Z" style="opacity:1;fill:#333;fill-opacity:1;fill-rule:nonzero;stroke:none;stroke-width:1;stroke-linecap:butt;stroke-linejoin:miter;stroke-miterlimit:4;stroke-dasharray:none;stroke-dashoffset:0;stroke-opacity:0.62745098" />
      <path inkscape:connector-curvature="0" id="path6549" d="m 11,12 0,2 2,1 0,-1 -1,-1 0,-1 z" style="opacity:1;fill:black;fill-opacity:0.5;fill-rule:nonzero;stroke:none;stroke-width:1;stroke-linecap:butt;stroke-linejoin:miter;stroke-miterlimit:4;stroke-dasharray:none;stroke-dashoffset:0;stroke-opacity:0.62745098" />
      <path inkscape:connector-curvature="0" id="path6551" d="m 19,20 2,-1 1,1 z" style="opacity:1;fill:black;fill-opacity:0.5;fill-rule:nonzero;stroke:none;stroke-width:1;stroke-linecap:butt;stroke-linejoin:miter;stroke-miterlimit:4;stroke-dasharray:none;stroke-dashoffset:0;stroke-opacity:0.62745098" />
      <path inkscape:connector-curvature="0" id="path6553" d="m 14,15 0,2 2,1 z" style="opacity:1;fill:black;fill-opacity:0.5;fill-rule:nonzero;stroke:none;stroke-width:1;stroke-linecap:butt;stroke-linejoin:miter;stroke-miterlimit:4;stroke-dasharray:none;stroke-dashoffset:0;stroke-opacity:0.62745098" />
      <path inkscape:connector-curvature="0" id="path6555" d="m 9,19 3,0 2,1 -3,0 z" style="opacity:1;fill:#333333;fill-opacity:1;fill-rule:nonzero;stroke:none;stroke-width:1;stroke-linecap:butt;stroke-linejoin:miter;stroke-miterlimit:4;stroke-dasharray:none;stroke-dashoffset:0;stroke-opacity:0.62745098" />
      <g transform="translate(30,-4)" id="g6584">
        <path style="color:black;font-style:normal;font-variant:normal;font-weight:normal;font-stretch:normal;font-size:medium;line-height:normal;font-family:sans-serif;text-indent:0;text-align:start;text-decoration:none;text-decoration-line:none;text-decoration-style:solid;text-decoration-color:black;letter-spacing:normal;word-spacing:normal;text-transform:none;direction:ltr;block-progression:tb;writing-mode:lr-tb;baseline-shift:baseline;text-anchor:start;white-space:normal;clip-rule:nonzero;display:inline;overflow:visible;visibility:visible;opacity:1;isolation:auto;mix-blend-mode:normal;color-interpolation:sRGB;color-interpolation-filters:linearRGB;solid-color:black;solid-opacity:1;fill:black;fill-opacity:1;fill-rule:nonzero;stroke:none;stroke-width:2;stroke-linecap:butt;stroke-linejoin:miter;stroke-miterlimit:4;stroke-dasharray:none;stroke-dashoffset:0;stroke-opacity:1;color-rendering:auto;image-rendering:auto;shape-rendering:auto;text-rendering:auto;enable-background:accumulate" d="M -12.072266,5.8457031 -16,8.4648438 l 0,3.3164062 5.306641,1.326172 2.9101559,-2.910156 -1.4707031,-2.9433598 -0.2988282,-0.1484374 z" id="path6580" inkscape:connector-curvature="0" sodipodi:nodetypes="cccccccc" />
        <path style="opacity:1;fill:#b3b3b3;fill-opacity:1;fill-rule:nonzero;stroke:none;stroke-width:1;stroke-linecap:butt;stroke-linejoin:miter;stroke-miterlimit:4;stroke-dasharray:none;stroke-dashoffset:0;stroke-opacity:0.62745098" d="m -10,8 -2,-1 -3,2 0,2 4,1 2,-2 -1,-2 z" id="path6557" inkscape:connector-curvature="0" />
        <path style="opacity:1;fill:#e6e6e6;fill-opacity:1;fill-rule:nonzero;stroke:none;stroke-width:1;stroke-linecap:butt;stroke-linejoin:miter;stroke-miterlimit:4;stroke-dasharray:none;stroke-dashoffset:0;stroke-opacity:0.62745098" d="m -12,7 1,2 2,1 -1,-2 z" id="path6559" inkscape:connector-curvature="0" />
        <path style="opacity:1;fill:black;fill-opacity:0.50196078;fill-rule:nonzero;stroke:none;stroke-width:1;stroke-linecap:butt;stroke-linejoin:miter;stroke-miterlimit:4;stroke-dasharray:none;stroke-dashoffset:0;stroke-opacity:0.62745098" d="m -15,11 3,-1 1,2 1,-2 1,0 -2,2 z" id="path6576" inkscape:connector-curvature="0" />
        <path style="opacity:1;fill:#333;fill-opacity:1;fill-rule:nonzero;stroke:none;stroke-width:1;stroke-linecap:butt;stroke-linejoin:miter;stroke-miterlimit:4;stroke-dasharray:none;stroke-dashoffset:0;stroke-opacity:0.62745098" d="m -12,9 -2,0 -1,1 3,-1 z" id="path6578" inkscape:connector-curvature="0" />
      </g>
      <g transform="translate(12,2)" id="g6601">
        <path style="color:black;font-style:normal;font-variant:normal;font-weight:normal;font-stretch:normal;font-size:medium;line-height:normal;font-family:sans-serif;text-indent:0;text-align:start;text-decoration:none;text-decoration-line:none;text-decoration-style:solid;text-decoration-color:black;letter-spacing:normal;word-spacing:normal;text-transform:none;direction:ltr;block-progression:tb;writing-mode:lr-tb;baseline-shift:baseline;text-anchor:start;white-space:normal;clip-rule:nonzero;display:inline;overflow:visible;visibility:visible;opacity:1;isolation:auto;mix-blend-mode:normal;color-interpolation:sRGB;color-interpolation-filters:linearRGB;solid-color:black;solid-opacity:1;fill:black;fill-opacity:1;fill-rule:nonzero;stroke:none;stroke-width:2;stroke-linecap:butt;stroke-linejoin:miter;stroke-miterlimit:4;stroke-dasharray:none;stroke-dashoffset:0;stroke-opacity:1;color-rendering:auto;image-rendering:auto;shape-rendering:auto;text-rendering:auto;enable-background:accumulate" d="M -6.1972656,12.783203 -10.414062,17 -8,17 l 2.2363281,0 4,-2 -4.4335937,-2.216797 z" id="path6591" inkscape:connector-curvature="0" />
        <path inkscape:connector-curvature="0" id="path6593" d="m -8,16 2,-2 2,1 -2,1 z" style="opacity:1;fill:gray;fill-opacity:1;fill-rule:nonzero;stroke:none;stroke-width:2;stroke-linecap:butt;stroke-linejoin:miter;stroke-miterlimit:4;stroke-dasharray:none;stroke-dashoffset:0;stroke-opacity:1" />
        <path style="opacity:1;fill:#333;fill-opacity:1;fill-rule:nonzero;stroke:none;stroke-width:2;stroke-linecap:butt;stroke-linejoin:miter;stroke-miterlimit:4;stroke-dasharray:none;stroke-dashoffset:0;stroke-opacity:1" d="m -7,15 1,1 1,-1 1,0 -2,1 -2,0 z" id="path6595" inkscape:connector-curvature="0" sodipodi:nodetypes="ccccccc" />
        <path style="opacity:1;fill:white;fill-opacity:1;fill-rule:nonzero;stroke:none;stroke-width:2;stroke-linecap:butt;stroke-linejoin:miter;stroke-miterlimit:4;stroke-dasharray:none;stroke-dashoffset:0;stroke-opacity:1" d="m -6,14 1,1 1,0 z" id="path6597" inkscape:connector-curvature="0" />
      </g>
    </g>
  </g>
</svg>
