<?xml version="1.0" encoding="UTF-8" standalone="no"?>
<!-- Created with Inkscape (http://www.inkscape.org/) -->
<svg
   xmlns:dc="http://purl.org/dc/elements/1.1/"
   xmlns:cc="http://creativecommons.org/ns#"
   xmlns:rdf="http://www.w3.org/1999/02/22-rdf-syntax-ns#"
   xmlns:svg="http://www.w3.org/2000/svg"
   xmlns="http://www.w3.org/2000/svg"
   xmlns:sodipodi="http://sodipodi.sourceforge.net/DTD/sodipodi-0.dtd"
   xmlns:inkscape="http://www.inkscape.org/namespaces/inkscape"
   width="32px"
   height="32px"
   id="svg3505"
   sodipodi:version="0.32"
   inkscape:version="0.46"
   sodipodi:docname="power-pill-apple-00.svg"
   inkscape:output_extension="org.inkscape.output.svg.inkscape">
  <defs
     id="defs3507">
    <inkscape:perspective
       sodipodi:type="inkscape:persp3d"
       inkscape:vp_x="0 : 16 : 1"
       inkscape:vp_y="0 : 1000 : 0"
       inkscape:vp_z="32 : 16 : 1"
       inkscape:persp3d-origin="16 : 10.666667 : 1"
       id="perspective3513" />
    <inkscape:perspective
       id="perspective4690"
       inkscape:persp3d-origin="372.04724 : 350.78739 : 1"
       inkscape:vp_z="744.09448 : 526.18109 : 1"
       inkscape:vp_y="0 : 1000 : 0"
       inkscape:vp_x="0 : 526.18109 : 1"
       sodipodi:type="inkscape:persp3d" />
    <inkscape:perspective
       id="perspective7417"
       inkscape:persp3d-origin="372.04724 : 350.78739 : 1"
       inkscape:vp_z="744.09448 : 526.18109 : 1"
       inkscape:vp_y="0 : 1000 : 0"
       inkscape:vp_x="0 : 526.18109 : 1"
       sodipodi:type="inkscape:persp3d" />
  </defs>
  <sodipodi:namedview
     id="base"
     pagecolor="#ffffff"
     bordercolor="#666666"
     borderopacity="1.0"
     inkscape:pageopacity="0.0"
     inkscape:pageshadow="2"
     inkscape:zoom="5.6568542"
     inkscape:cx="16"
     inkscape:cy="16"
     inkscape:current-layer="layer1"
     showgrid="true"
     inkscape:grid-bbox="true"
     inkscape:document-units="px"
     objecttolerance="4"
     gridtolerance="4"
     guidetolerance="4"
     inkscape:window-width="1280"
     inkscape:window-height="713"
     inkscape:window-x="0"
     inkscape:window-y="37"
     inkscape:object-paths="true"
     inkscape:object-nodes="true"
     inkscape:snap-bbox="true"
     inkscape:snap-guide="true">
    <inkscape:grid
       type="xygrid"
       id="grid3515"
       units="px"
       visible="true"
       enabled="true"
       spacingx="1px"
       spacingy="1px" />
  </sodipodi:namedview>
  <metadata
     id="metadata3510">
    <rdf:RDF>
      <cc:Work
         rdf:about="">
        <dc:format>image/svg+xml</dc:format>
        <dc:type
           rdf:resource="http://purl.org/dc/dcmitype/StillImage" />
        <dc:title>Vorlage f端r 32x32-Pixel-Icons f端r McMinos</dc:title>
        <dc:date>2010-04-05</dc:date>
        <dc:creator>
          <cc:Agent>
            <dc:title>Andreas Neudecker &lt;zapyon@gmx.net&gt;</dc:title>
          </cc:Agent>
        </dc:creator>
        <dc:rights>
          <cc:Agent>
            <dc:title>Copyright (C) 2010 by Andreas Neudecker</dc:title>
          </cc:Agent>
        </dc:rights>
        <dc:publisher>
          <cc:Agent>
            <dc:title>Andreas Neudecker</dc:title>
          </cc:Agent>
        </dc:publisher>
        <dc:identifier>vorlage-32x32-mcminos</dc:identifier>
        <dc:description>Vorlage f端r 32x32-Pixel-Icons f端r McMinos. Metadaten jeweils entsprechend anpassen!</dc:description>
      </cc:Work>
    </rdf:RDF>
  </metadata>
  <g
     id="layer1"
     inkscape:label="Layer 1"
     inkscape:groupmode="layer">
    <g
       id="g7569">
      <path
         id="path7461"
         d="M 13.140625,1.3658588 C 12.835275,1.3615854 12.507084,1.3755418 12.203125,1.3971088 C 10.987288,1.4833767 8.8185868,2.0098507 7.546875,2.6783588 C 6.4078021,3.2771418 4.7144162,4.853135 4.328125,5.2096088 C 4.2831434,5.2511183 4.046875,5.4283588 4.046875,5.4283588 C 4.046875,5.4283588 5.703227,6.0380613 6.828125,6.3346088 C 7.9530233,6.6311563 10.414458,7.8540291 11.765625,7.7408588 C 13.116791,7.6276884 14.396481,6.6603171 15.296875,6.0846088 C 16.197268,5.5089006 17.765626,4.0221087 17.765625,4.0221088 C 18.42411,4.1184185 18.996603,4.2011253 19.328125,4.3033588 C 20.676763,4.7192471 21.223687,5.4503282 21.296875,5.5533588 C 20.508818,5.8438492 19.801066,6.1667022 19.328125,6.5846088 C 17.328125,8.3518757 15.953125,13.209609 15.953125,13.209609 C 15.332888,12.633967 13.980545,11.584609 12.328125,11.584609 C 10.063922,11.584609 8.5604462,12.252135 7.328125,13.584609 C 6.0958038,14.917083 5.3770613,17.806829 5.328125,19.990859 C 5.2791887,22.174889 5.7400745,25.963411 7.328125,27.584609 C 8.9161755,29.205807 14.328125,29.584609 14.328125,29.584609 C 14.328125,29.584609 16.381275,30.52566 17.328125,30.584609 C 18.854875,30.679661 21.142122,30.704826 22.578125,30.053359 C 24.014128,29.401891 25.855076,27.564787 26.609375,26.303359 C 27.363674,25.041931 27.758774,23.240633 27.640625,21.584609 C 27.522476,19.928585 26.355299,16.841528 25.328125,15.584609 C 24.300951,14.32769 22.971925,13.500611 21.328125,13.334609 C 20.176013,13.21826 18.428311,13.377962 17.359375,13.490859 C 17.418193,13.217938 18.154115,9.8702485 19.703125,8.5846088 C 21.316938,7.2451839 23.019094,6.8780783 24.671875,6.5846088 C 26.324657,6.2911393 27.953125,6.8346088 27.953125,6.8346088 L 27.328125,4.2721088 C 27.328125,4.2721089 25.47099,4.4446107 23.484375,4.8971088 L 23.828125,4.8033588 C 23.828125,4.8033589 20.896361,3.7402121 19.484375,3.5846088 C 18.940341,3.5246553 18.073146,3.3730003 17.109375,3.2096088 C 16.634473,2.6539131 16.034388,2.0264694 15.546875,1.8033588 C 14.916894,1.515048 14.056675,1.3786792 13.140625,1.3658588 z"
         style="fill:#00ff00;fill-opacity:1;fill-rule:nonzero;stroke:#000000;stroke-width:2;stroke-linecap:round;stroke-linejoin:miter;stroke-miterlimit:4;stroke-dasharray:none;stroke-dashoffset:0;stroke-opacity:1" />
      <path
         sodipodi:nodetypes="czzzzcszzzzzc"
         id="path7423"
         d="M 16.328125,13.584609 C 16.328125,13.584609 14.592328,11.584609 12.328125,11.584609 C 10.063922,11.584609 8.5604462,12.252135 7.328125,13.584609 C 6.0958038,14.917083 5.3770613,17.810415 5.328125,19.994445 C 5.2791887,22.178475 5.7400745,25.963411 7.328125,27.584609 C 8.9161755,29.205807 14.328125,29.584609 14.328125,29.584609 C 14.328125,29.584609 16.381275,30.52566 17.328125,30.584609 C 18.854875,30.679661 21.154417,30.695092 22.59042,30.043625 C 24.026423,29.392158 25.868908,27.550955 26.623207,26.289527 C 27.377506,25.028099 27.774143,23.240633 27.655994,21.584609 C 27.537845,19.928585 26.355299,16.841528 25.328125,15.584609 C 24.300951,14.32769 22.971925,13.488316 21.328125,13.322314 C 19.74925,13.162868 16.328125,13.584609 16.328125,13.584609 z"
         style="fill:#41ff41;fill-opacity:1;fill-rule:nonzero;stroke:none;stroke-width:2;stroke-linecap:round;stroke-linejoin:round;stroke-miterlimit:4;stroke-dasharray:none;stroke-dashoffset:0;stroke-opacity:1" />
      <path
         id="path7431"
         d="M 27.328125,4.2685648 C 27.328125,4.2685648 21.328125,4.8173419 19.328125,6.5846088 C 17.328125,8.3518757 15.961419,13.215888 15.961419,13.215888 L 16.328125,13.584609 L 17.328125,13.584609 C 17.328125,13.584609 18.100498,9.9240337 19.714311,8.5846088 C 21.328125,7.2451839 23.022562,6.8780783 24.675343,6.5846088 C 26.328125,6.2911393 27.957257,6.8254043 27.957257,6.8254043 L 27.328125,4.2685648 z"
         style="fill:#dc9100;fill-opacity:1;fill-rule:nonzero;stroke:none;stroke-width:2;stroke-linecap:round;stroke-linejoin:round;stroke-miterlimit:4;stroke-dasharray:none;stroke-dashoffset:0;stroke-opacity:1" />
      <path
         sodipodi:nodetypes="czzzczzzc"
         id="path7433"
         d="M 4.0519272,5.4271614 C 4.0519272,5.4271614 6.286101,3.3360362 7.557813,2.667528 C 8.829525,1.9990198 10.992228,1.477269 12.208065,1.3910011 C 13.423903,1.3047332 14.717216,1.4156495 15.55719,1.8000639 C 16.397164,2.1844782 17.773442,4.0112337 17.773442,4.0112337 C 17.773442,4.0112337 16.19519,5.5040235 15.294797,6.0797317 C 14.394403,6.65544 13.124568,7.6343845 11.773402,7.7475549 C 10.422235,7.8607253 7.9488979,6.646559 6.8239996,6.3500115 C 5.6991014,6.0534641 4.0519272,5.4271614 4.0519272,5.4271614 z"
         style="fill:#41ff41;fill-opacity:1;fill-rule:nonzero;stroke:none;stroke-width:2;stroke-linecap:round;stroke-linejoin:round;stroke-miterlimit:4;stroke-dasharray:none;stroke-dashoffset:0;stroke-opacity:1" />
      <path
         sodipodi:nodetypes="cszczscc"
         id="path7435"
         d="M 23.840578,4.8135322 C 23.840578,4.8135322 20.897327,3.7402121 19.485341,3.5846088 C 18.073355,3.4290055 14.792445,2.5846088 12.005631,2.8184169 C 9.2275322,3.0514938 4.328125,5.2226094 4.328125,5.2226094 C 4.328125,5.2226094 9.5630081,3.5846088 12.053199,3.5846088 C 14.505228,3.5846088 18.174568,3.9617464 19.328125,4.3174763 C 20.778273,4.764668 21.328125,5.5846088 21.328125,5.5846088 L 23.840578,4.8135322 z"
         style="fill:#00c000;fill-opacity:1;fill-rule:nonzero;stroke:none;stroke-width:2;stroke-linecap:round;stroke-linejoin:round;stroke-miterlimit:4;stroke-dasharray:none;stroke-dashoffset:0;stroke-opacity:1" />
      <path
         sodipodi:nodetypes="cssscssscczssc"
         id="path7446"
         d="M 7.859375,13.053359 C 7.6719652,13.215803 7.5031871,13.395319 7.328125,13.584609 C 6.0958038,14.917083 5.3770613,17.806829 5.328125,19.990859 C 5.2791887,22.174889 5.7400745,25.963411 7.328125,27.584609 C 8.9161755,29.205807 14.328125,29.584609 14.328125,29.584609 C 14.328125,29.584609 16.381275,30.52566 17.328125,30.584609 C 18.854875,30.679661 21.142122,30.704826 22.578125,30.053359 C 24.014128,29.401891 25.855076,27.564787 26.609375,26.303359 C 26.646307,26.241598 26.699177,26.180065 26.734375,26.115859 L 26.734375,26.084609 C 26.734375,26.084609 25.338187,22.859673 23.97843,21.584609 C 22.618673,20.309545 19.933934,18.584609 17.796875,17.584609 C 15.659815,16.584609 14.314663,15.045565 12.984375,14.053359 C 11.911075,13.252828 8.9908192,13.083234 7.859375,13.053359 z"
         style="fill:#01ff01;fill-opacity:1;fill-rule:nonzero;stroke:none;stroke-width:2;stroke-linecap:round;stroke-linejoin:round;stroke-miterlimit:4;stroke-dasharray:none;stroke-dashoffset:0;stroke-opacity:1" />
      <path
         id="path7437"
         d="M 5.515625,18.084609 C 5.4036159,18.746893 5.3416146,19.388819 5.328125,19.990859 C 5.2791887,22.174889 5.7400745,25.963411 7.328125,27.584609 C 8.9161755,29.205807 14.328125,29.584609 14.328125,29.584609 C 14.328125,29.584609 16.381275,30.52566 17.328125,30.584609 C 18.854875,30.679661 21.142122,30.704826 22.578125,30.053359 C 23.680556,29.553222 25.047843,28.34275 25.953125,27.240859 C 25.146526,27.497311 22.086331,28.458684 20.328125,28.928359 C 18.328125,29.462624 15.109375,28.053359 15.109375,28.053359 C 15.109375,28.053359 11.328125,25.892331 9.328125,24.365859 C 7.6210662,23.062971 5.9790702,19.23697 5.515625,18.084609 z"
         style="fill:#00d200;fill-opacity:1;fill-rule:nonzero;stroke:none;stroke-width:2;stroke-linecap:round;stroke-linejoin:round;stroke-miterlimit:4;stroke-dasharray:none;stroke-dashoffset:0;stroke-opacity:1" />
      <path
         id="path7442"
         d="M 10.660446,18 C 9.9169311,17.268277 9.0140771,16.615922 7.9737153,16.404972 C 7.1310875,16.222066 6.4589121,16.914462 6.0730422,17.579617 C 5.4923041,18.575178 5.0966376,19.792649 5.4807221,20.930559 C 6.0371426,22.694394 7.3204747,24.127753 8.7452444,25.258174 C 9.6998721,25.970711 10.846885,26.352831 11.93103,26.819002 C 12.985528,27.213115 14.037116,27.672914 15.158186,27.833894 C 15.808053,27.715576 14.828185,27.110886 14.594874,26.908045 C 13.802627,26.26335 12.916116,25.651292 12.421621,24.732844 C 12.216552,24.210729 12.196939,23.636528 11.987966,23.112701 C 11.712537,21.99462 11.699495,20.827926 11.374053,19.720213 C 11.253288,19.107362 11.115052,18.462394 10.660446,18 z"
         style="fill:#ff0000;fill-opacity:0.36012861;fill-rule:nonzero;stroke:none;stroke-width:2;stroke-linecap:round;stroke-linejoin:round;stroke-miterlimit:4;stroke-dasharray:none;stroke-dashoffset:0;stroke-opacity:1" />
      <path
         sodipodi:nodetypes="czzzzzzz"
         id="path7444"
         d="M 20.897327,14.59805 C 22.780578,14.478664 22.600707,15.171898 23.557096,15.98988 C 24.513485,16.807862 25.271663,18.785867 25.557096,19.996868 C 25.842529,21.207869 26.394633,23.290301 25.557096,23.813046 C 24.719559,24.335791 23.757942,23.387726 23.072549,22.59805 C 22.387156,21.808374 22.561884,19.589808 21.775048,18.59805 C 20.988212,17.606292 21.018143,17.624552 20.210415,16.943925 C 19.402687,16.263298 19.014076,14.717436 20.897327,14.59805 z"
         style="fill:#cdffcd;fill-opacity:1;fill-rule:nonzero;stroke:none;stroke-width:2;stroke-linecap:round;stroke-linejoin:round;stroke-miterlimit:4;stroke-dasharray:none;stroke-dashoffset:0;stroke-opacity:1" />
      <path
         sodipodi:nodetypes="csccccccccsc"
         id="path7427"
         d="M 15.311594,28.584609 C 14.759594,28.584609 14.311594,29.03261 14.311594,29.584609 C 14.311594,29.595433 14.311252,29.605118 14.311594,29.615859 L 13.676931,30.584609 L 14.695722,30.368327 L 15.096442,31.083479 L 15.635155,30.441887 L 16.609703,30.837077 L 16.342844,29.615859 L 16.311594,29.615859 C 16.311936,29.605118 16.311594,29.595433 16.311594,29.584609 C 16.311594,29.032609 15.863594,28.58461 15.311594,28.584609 z"
         style="fill:#805300;fill-opacity:1;fill-rule:nonzero;stroke:none;stroke-width:2;stroke-linecap:round;stroke-linejoin:round;stroke-miterlimit:4;stroke-dasharray:none;stroke-dashoffset:0;stroke-opacity:1" />
      <path
         sodipodi:nodetypes="cscscscscscscscscscsczzzcccssccsc"
         id="path7455"
         d="M 26.052912,5.2197043 C 26.052913,5.2197045 26.031472,6.0624396 25.328125,6.1783588 C 24.624778,6.2942779 24.328125,5.5846088 24.328125,5.5846088 C 24.328124,5.5846087 24.445395,6.3314336 23.890625,6.4596088 C 23.335855,6.5877841 22.956169,5.8527705 22.956169,5.8527705 C 22.95617,5.8527705 23.245434,6.6561897 22.828125,6.7721088 C 22.410817,6.8880281 21.992441,6.1642558 21.992441,6.1642558 C 21.992441,6.1642558 22.165787,6.7197043 21.609375,6.9283588 C 21.052963,7.1370135 20.76664,6.5846088 20.76664,6.5846088 C 20.76664,6.5846089 21.027277,7.3283382 20.671875,7.4596088 C 20.316473,7.5908792 19.915838,7.0876529 19.915838,7.0876529 C 19.915837,7.0876527 20.137581,7.8608367 19.859375,8.1158588 C 19.581169,8.370881 19.003551,7.9314029 19.003551,7.9314029 C 19.003551,7.931403 19.595591,8.4162851 19.328125,8.7408588 C 19.108859,9.0069404 18.328125,8.5846088 18.328125,8.5846088 C 18.328124,8.5846091 19.041534,9.0509931 18.703125,9.3971088 C 18.405005,9.7020177 17.832184,9.3295867 17.832184,9.3295867 C 17.832185,9.3295867 18.546128,9.7283462 18.328125,10.147109 C 18.118677,10.549438 17.627537,10.365859 17.627537,10.365859 C 17.627536,10.365858 18.173052,10.584609 18.078125,10.865859 C 18.004846,11.082971 17.328125,11.210624 17.328125,11.210624 C 17.328124,11.210624 17.635581,11.605403 17.609375,11.928359 C 17.583169,12.251315 16.89367,12.178359 16.893669,12.178359 C 16.893669,12.178359 17.44991,12.460225 17.328125,12.793263 C 17.20634,13.126302 16.549919,13.584609 16.549919,13.584609 L 17.234375,13.584609 L 17.328125,13.584609 C 17.328125,13.584609 18.089312,9.9240337 19.703125,8.5846088 C 21.316938,7.2451839 23.019094,6.8780783 24.671875,6.5846088 C 26.324657,6.2911393 27.953125,6.8346088 27.953125,6.8346088 L 27.671875,5.7096088 C 27.5401,5.9327532 27.315076,6.1576861 26.984375,6.0533588 C 26.322971,5.8447043 26.052912,5.2197043 26.052912,5.2197043 z"
         style="fill:#805100;fill-opacity:1;fill-rule:nonzero;stroke:none;stroke-width:2;stroke-linecap:round;stroke-linejoin:round;stroke-miterlimit:4;stroke-dasharray:none;stroke-dashoffset:0;stroke-opacity:1" />
      <path
         style="fill:#ff0000;fill-opacity:0.50196078;fill-rule:nonzero;stroke:none;stroke-width:2;stroke-linecap:round;stroke-linejoin:round;stroke-miterlimit:4;stroke-dasharray:none;stroke-dashoffset:0;stroke-opacity:1"
         d="M 10,19 C 9.5496688,18.463848 9.0228325,17.997669 8.4615559,17.883772 C 8.0059365,17.782092 7.7134814,18.357168 7.5682644,18.896823 C 7.3492454,19.704701 7.2456889,20.677168 7.5426802,21.548964 C 7.9826991,22.902221 8.7744156,23.961002 9.614352,24.775693 C 10.173328,25.286432 10.804809,25.529061 11.41057,25.840577 C 11.994743,26.097149 12.582959,26.40528 13.182161,26.476088 C 13.511584,26.351475 12.948558,25.926397 12.809514,25.77911 C 12.341099,25.31348 11.826211,24.878038 11.490137,24.183464 C 11.338804,23.784873 11.279929,23.336378 11.126412,22.936638 C 10.887854,22.075015 10.78223,21.162418 10.518428,20.311372 C 10.403444,19.837604 10.276616,19.339558 10,19 z"
         id="path7567" />
    </g>
  </g>
</svg>
