<?xml version="1.0" encoding="UTF-8" standalone="no"?>
<!-- Created with Inkscape (http://www.inkscape.org/) -->
<svg id="svg2985" xmlns:rdf="http://www.w3.org/1999/02/22-rdf-syntax-ns#" xmlns="http://www.w3.org/2000/svg" height="32" width="32" version="1.1" xmlns:cc="http://creativecommons.org/ns#" xmlns:dc="http://purl.org/dc/elements/1.1/">
 <metadata id="metadata2991">
  <rdf:RDF>
   <cc:Work rdf:about="">
    <dc:format>image/svg+xml</dc:format>
    <dc:type rdf:resource="http://purl.org/dc/dcmitype/StillImage"/>
    <dc:title/>
   </cc:Work>
  </rdf:RDF>
 </metadata>
 <g id="layer4">
  <g id="g4629">
   <rect id="rect4599" height="32" width="32" y="0" x="0" fill="none"/>
   <path id="rect2991" d="m10.5 4c-1.933 0-3.5 1.567-3.5 3.5 0 1.7653 1.301 3.2287 3 3.4688v4.031c-4.4183 0-8 3.5817-8 8h1c0-0.55228 0.44772-1 1-1s1 0.44772 1 1h1c0 0.55228 0.44772 1 1 1s1-0.44772 1-1h1c0-0.55228 0.44772-1 1-1s1 0.44772 1 1h1c0 0.55228 0.44772 1 1 1s1-0.44772 1-1h1c0-0.55228 0.44772-1 1-1s1 0.44772 1 1h1c0 0.55228 0.44772 1 1 1s1-0.44772 1-1h1c0-0.55228 0.44772-1 1-1s1 0.44772 1 1h1c0 0.55228 0.44772 1 1 1s1-0.44772 1-1h1c0-0.55228 0.44772-1 1-1s1 0.44772 1 1h1c0-4.4183-3.5817-8-8-8v-4.0312c1.699-0.24 3-1.7037 3-3.469 0-1.933-1.567-3.5-3.5-3.5s-3.5 1.567-3.5 3.5c0 1.7653 1.301 3.2287 3 3.4688v4.031h-10v-4.031c1.699-0.24 3-1.7037 3-3.469 0-1.933-1.567-3.5-3.5-3.5z" fill="#ff8000"/>
   <path id="path3817" d="m14 7.5a3.5 3.5 0 1 1 -7 0 3.5 3.5 0 1 1 7 0z" fill="#fff"/>
   <path id="path3819" d="m14 7.5a3.5 3.5 0 1 1 -7 0 3.5 3.5 0 1 1 7 0z" transform="translate(11)" fill="#fff"/>
   <path id="path3821" d="m12 8a1 1 0 1 1 -2 0 1 1 0 1 1 2 0z"/>
   <path id="path3823" d="m23 8a1 1 0 1 1 -2 0 1 1 0 1 1 2 0z"/>
   <path id="path3929" style="block-progression:tb;text-indent:0;color:black;text-transform:none" d="m10.5 3c-2.4734 0-4.5 2.0266-4.5 4.5 0 1.9332 1.2732 3.524 3 4.1562v2.5625c-4.4667 0.523-8 4.178-8 8.782 0.0000524 0.52358 0.47642 0.99995 1 1 0.55228 0 1-0.44772 1-1s0.44772-1 1-1 1 0.44772 1 1c0 1.1046 0.89543 2 2 2s2-0.89543 2-2c0-0.55228 0.44772-1 1-1s1 0.44772 1 1c0 1.1046 0.89543 2 2 2s2-0.89543 2-2c0-0.55228 0.44772-1 1-1s1 0.44772 1 1c0 1.1046 0.89543 2 2 2s2-0.89543 2-2c0-0.55228 0.44772-1 1-1s1 0.44772 1 1c0 1.1046 0.89543 2 2 2s2-0.89543 2-2c0-0.55228 0.44772-1 1-1s1 0.44772 1 1 0.44772 1 1 1c0.52358-0.000052 0.99995-0.47642 1-1 0-4.6036-3.5333-8.2587-8-8.7812v-2.5625c1.727-0.632 3-2.2228 3-4.156 0-2.4734-2.027-4.5-4.5-4.5s-4.5 2.0266-4.5 4.5c0 1.9332 1.2732 3.524 3 4.1562v2.344h-8v-2.344c1.727-0.632 3-2.2228 3-4.156 0-2.4734-2.027-4.5-4.5-4.5zm0 1c1.933 0 3.5 1.567 3.5 3.5 0 1.7653-1.301 3.2287-3 3.4688v4.031h10v-4.031c-1.699-0.24-3-1.7037-3-3.469 0-1.933 1.567-3.5 3.5-3.5s3.5 1.567 3.5 3.5c0 1.7653-1.301 3.2287-3 3.4688v4.031c4.28 0 7.7542 3.3671 7.9688 7.5938-0.187-0.912-1.003-1.594-1.969-1.594-1.1046 0-2 0.89543-2 2 0 0.55228-0.44772 1-1 1s-1-0.44772-1-1c0-1.1046-0.89543-2-2-2s-2 0.89543-2 2c0 0.55228-0.44772 1-1 1s-1-0.44772-1-1c0-1.1046-0.89543-2-2-2s-2 0.89543-2 2c0 0.55228-0.44772 1-1 1s-1-0.44772-1-1c0-1.1046-0.89543-2-2-2s-2 0.89543-2 2c0 0.55228-0.44772 1-1 1-0.5523 0-1-0.448-1-1 0-1.105-0.8954-2-2-2-0.9665 0-1.7823 0.682-1.9688 1.594 0.2146-4.227 3.6888-7.594 7.9688-7.594v-4.0312c-1.699-0.24-3-1.7037-3-3.469 0-1.933 1.567-3.5 3.5-3.5z"/>
   <path id="path4003" d="m14 23a1 1 0 1 1 -2 0h1z" transform="translate(-6)" fill="#fff"/>
   <path id="path3975" fill="#ff0" d="m6 23c0 0.55228 0.44772 1 1 1s1-0.44772 1-1c0 0.27614-0.44772 0.5-1 0.5s-1-0.22386-1-0.5z"/>
   <path id="path3999" fill="#fff" d="m14 23a1 1 0 1 1 -2 0h1z"/>
   <path id="path3983" d="m12 23c0 0.55228 0.44772 1 1 1s1-0.44772 1-1c0 0.27614-0.44772 0.5-1 0.5s-1-0.22386-1-0.5z" fill="#ff0"/>
   <path id="path4005" d="m14 23a1 1 0 1 1 -2 0h1z" transform="translate(6)" fill="#fff"/>
   <path id="path3985" fill="#ff0" d="m18 23c0 0.55228 0.44772 1 1 1s1-0.44772 1-1c0 0.27614-0.44772 0.5-1 0.5s-1-0.22386-1-0.5z"/>
   <path id="path4007" d="m14 23a1 1 0 1 1 -2 0h1z" transform="translate(12)" fill="#fff"/>
   <path id="path3987" d="m24 23c0 0.55228 0.44772 1 1 1s1-0.44772 1-1c0 0.27614-0.44772 0.5-1 0.5s-1-0.22386-1-0.5z" fill="#ff0"/>
   <path id="path4478" d="m7.0312 8c0.24009 1.699 1.7035 3 3.4688 3s3.2287-1.301 3.4688-3h-0.031c-0.327 1.1392-1.747 2-3.438 2-1.6914 0-3.1111-0.8608-3.4375-2h-0.0313z" fill="aqua"/>
   <path id="path4488" d="m18.031 8c0.24009 1.699 1.7035 3 3.4688 3s3.2287-1.301 3.4688-3h-0.03125c-0.32636 1.1392-1.7461 2-3.4375 2s-3.1111-0.86079-3.4375-2h-0.032z" fill="aqua"/>
   <path id="rect3769" d="m4 26c-0.55228 0-1 0.44772-1 1h-1c0 1.6569 1.3431 3 3 3h22c1.6569 0 3-1.3431 3-3h-1c0-0.55228-0.44772-1-1-1s-1 0.44772-1 1h-1c0 0.55228-0.44772 1-1 1s-1-0.44772-1-1h-0.5-0.5c0-0.55228-0.44772-1-1-1s-1 0.44772-1 1h-1c0 0.55228-0.44772 1-1 1s-1-0.44772-1-1h-0.5-0.5c0-0.55228-0.44772-1-1-1s-1 0.44772-1 1h-1c0 0.55228-0.44772 1-1 1s-1-0.44772-1-1h-0.5-0.5c0-0.55228-0.44772-1-1-1s-1 0.44772-1 1h-1c0 0.552-0.4477 1-1 1s-1-0.448-1-1h-0.5-0.5c0-0.552-0.4477-1-1-1z" fill="#ff8000"/>
   <path id="path4009" transform="matrix(1,0,0,-1,-9,50)" fill="#fff" d="m14 23a1 1 0 1 1 -2 0h1z"/>
   <path id="path3931" style="block-progression:tb;text-indent:0;color:black;text-transform:none" d="m4 25c-0.7396 0-1.3727 0.403-1.7188 1h-0.2812c-0.52358 0.000052-0.99995 0.47642-1 1 0 2.1973 1.8027 4 4 4h22c2.1973 0 4-1.8027 4-4-0.000052-0.52358-0.47642-0.99995-1-1h-0.28125c-0.346-0.597-0.979-1-1.719-1-1.1046 0-2 0.89543-2 2 0 0.55228-0.44772 1-1 1s-1-0.44772-1-1c0-1.1046-0.89543-2-2-2s-2 0.89543-2 2c0 0.55228-0.44772 1-1 1s-1-0.44772-1-1c0-1.1046-0.89543-2-2-2s-2 0.89543-2 2c0 0.55228-0.44772 1-1 1s-1-0.44772-1-1c0-1.1046-0.89543-2-2-2s-2 0.89543-2 2c0 0.55228-0.44772 1-1 1-0.5523 0-1-0.448-1-1 0-1.105-0.8954-2-2-2zm0 1c0.55228 0 1 0.44772 1 1 0 1.1046 0.89543 2 2 2s2-0.89543 2-2c0-0.55228 0.44772-1 1-1s1 0.44772 1 1c0 1.1046 0.89543 2 2 2s2-0.89543 2-2c0-0.55228 0.44772-1 1-1s1 0.44772 1 1c0 1.1046 0.89543 2 2 2s2-0.89543 2-2c0-0.55228 0.44772-1 1-1s1 0.44772 1 1c0 1.1046 0.89543 2 2 2s2-0.89543 2-2c0-0.55228 0.44772-1 1-1s1 0.44772 1 1h1c0 1.6569-1.3431 3-3 3h-22c-1.6569 0-3-1.343-3-3h1c0-0.55228 0.44772-1 1-1z"/>
   <path id="path4011" d="m14 23a1 1 0 1 1 -2 0h1z" transform="matrix(1,0,0,-1,-3,50)" fill="#fff"/>
   <path id="path3989" d="m3 27c0-0.55228 0.44772-1 1-1s1 0.44772 1 1c0-0.27614-0.44772-0.5-1-0.5s-1 0.22386-1 0.5z" fill="#ff0"/>
   <path id="path4013" d="m14 23a1 1 0 1 1 -2 0h1z" transform="matrix(1,0,0,-1,3,50)" fill="#fff"/>
   <path id="path3991" fill="#ff0" d="m9 27c0-0.55228 0.44772-1 1-1s1 0.44772 1 1c0-0.27614-0.44772-0.5-1-0.5s-1 0.22386-1 0.5z"/>
   <path id="path4015" transform="matrix(1,0,0,-1,9,50)" fill="#fff" d="m14 23a1 1 0 1 1 -2 0h1z"/>
   <path id="path3993" d="m15 27c0-0.55228 0.44772-1 1-1s1 0.44772 1 1c0-0.27614-0.44772-0.5-1-0.5s-1 0.22386-1 0.5z" fill="#ff0"/>
   <path id="path3995" fill="#ff0" d="m21 27c0-0.55228 0.44772-1 1-1s1 0.44772 1 1c0-0.27614-0.44772-0.5-1-0.5s-1 0.22386-1 0.5z"/>
   <path id="path4019" d="m14 23a1 1 0 1 1 -2 0h1z" transform="matrix(1,0,0,-1,15,50)" fill="#fff"/>
   <path id="path3997" d="m27 27c0-0.55228 0.44772-1 1-1s1 0.44772 1 1c0-0.27614-0.44772-0.5-1-0.5s-1 0.22386-1 0.5z" fill="#ff0"/>
  </g>
 </g>
</svg>
