<?xml version="1.0" encoding="UTF-8" standalone="no"?>
<!-- Created with Inkscape (http://www.inkscape.org/) -->

<svg
   xmlns:dc="http://purl.org/dc/elements/1.1/"
   xmlns:cc="http://creativecommons.org/ns#"
   xmlns:rdf="http://www.w3.org/1999/02/22-rdf-syntax-ns#"
   xmlns:svg="http://www.w3.org/2000/svg"
   xmlns="http://www.w3.org/2000/svg"
   xmlns:xlink="http://www.w3.org/1999/xlink"
   xmlns:sodipodi="http://sodipodi.sourceforge.net/DTD/sodipodi-0.dtd"
   xmlns:inkscape="http://www.inkscape.org/namespaces/inkscape"
   width="96"
   height="96"
   id="svg2"
   version="1.1"
   inkscape:version="0.48.5 r10040"
   sodipodi:docname="08.svg"
   inkscape:export-filename="/home/andreas/Dokumente/Projekte/McMinos/repository/extra/images-incoming/mcminos-cheering-front/mcminos-cheering-front-384x384.png"
   inkscape:export-xdpi="360"
   inkscape:export-ydpi="360">
  <defs
     id="defs4" />
  <sodipodi:namedview
     id="base"
     pagecolor="#ffffff"
     bordercolor="#666666"
     borderopacity="1.0"
     inkscape:pageopacity="0.0"
     inkscape:pageshadow="2"
     inkscape:zoom="5.4583333"
     inkscape:cx="48"
     inkscape:cy="48"
     inkscape:document-units="px"
     inkscape:current-layer="layer1"
     showgrid="true"
     gridtolerance="20"
     guidetolerance="20"
     showguides="true"
     inkscape:guide-bbox="true"
     inkscape:window-width="1024"
     inkscape:window-height="741"
     inkscape:window-x="0"
     inkscape:window-y="2"
     inkscape:window-maximized="1"
     fit-margin-top="0"
     fit-margin-left="0"
     fit-margin-right="0"
     fit-margin-bottom="0">
    <inkscape:grid
       type="xygrid"
       id="grid2985"
       empspacing="8"
       visible="true"
       enabled="true"
       snapvisiblegridlinesonly="true"
       spacingx="0.5px"
       spacingy="0.5px"
       originx="32px"
       originy="31.999983px" />
    <sodipodi:guide
       orientation="1,0"
       position="48,67.999983"
       id="guide2987" />
    <sodipodi:guide
       orientation="0,1"
       position="28,47.999983"
       id="guide2989" />
    <sodipodi:guide
       orientation="0.70710678,0.70710678"
       position="48,47.999983"
       id="guide2993" />
    <sodipodi:guide
       orientation="-0.70710678,0.70710678"
       position="0,-1.7e-05"
       id="guide3055" />
    <sodipodi:guide
       orientation="1,0"
       position="32,100"
       id="guide3057" />
    <sodipodi:guide
       orientation="1,0"
       position="64,99.999983"
       id="guide3059" />
    <sodipodi:guide
       orientation="0,1"
       position="-8,63.999983"
       id="guide3061" />
    <sodipodi:guide
       orientation="0,1"
       position="0,31.999983"
       id="guide3063" />
  </sodipodi:namedview>
  <metadata
     id="metadata7">
    <rdf:RDF>
      <cc:Work
         rdf:about="">
        <dc:format>image/svg+xml</dc:format>
        <dc:type
           rdf:resource="http://purl.org/dc/dcmitype/StillImage" />
        <dc:title />
      </cc:Work>
    </rdf:RDF>
  </metadata>
  <g
     inkscape:label="Ebene 1"
     inkscape:groupmode="layer"
     id="layer1"
     transform="translate(32,-988.36218)">
    <g
       id="g7826">
      <use
         height="96"
         width="96"
         transform="matrix(-1,0,0,1,32.007421,0)"
         id="use7824"
         xlink:href="#path7822"
         y="0"
         x="0" />
      <path
         transform="translate(-32,988.36218)"
         d="m 25,32.5 c -2.338264,0 -4,2.242829 -4,4.75 0,2.507171 1.661736,4.75 4,4.75 0.3809,0 0.719525,-0.133648 1.0625,-0.25 C 26.36159,41.859358 26.641314,42 27,42 c 0.133657,0 0.249187,-0.04535 0.375,-0.0625 L 34,45.75 a 1.0087749,1.0087749 0 0 0 1.375,-0.375 l 1,-1.75 A 1.0087749,1.0087749 0 0 0 36,42.25 l -5.9375,-3.40625 0.25,-0.46875 0.5,-0.84375 c 0.418126,-0.724187 0.152173,-1.649804 -0.5625,-2.0625 -0.501227,-0.289235 -1.041945,-0.16103 -1.5,0.125 C 28.201739,33.829335 26.804434,32.5 25,32.5 z"
         id="path7822"
         style="fill:black;fill-opacity:1;stroke:none"
         inkscape:original="M 25 33.5 C 23.343146 33.5 22 35.178931 22 37.25 C 22 39.321069 23.343146 41 25 41 C 25.380344 41 25.727672 40.91138 26.0625 40.75 C 26.343055 40.899946 26.659659 41 27 41 C 27.207107 41 27.405872 40.96469 27.59375 40.90625 L 34.5 44.875 L 35.5 43.125 L 28.96875 39.375 C 28.99156 39.254117 29 39.127513 29 39 C 29 38.893604 28.98475 38.789402 28.96875 38.6875 L 29.4375 37.875 L 29.9375 37.03125 C 30.07555 36.79215 29.98915 36.48185 29.75 36.34375 C 29.510854 36.20575 29.20055 36.29225 29.0625 36.53125 L 28.5625 37.375 L 28.4375 37.625 C 28.307145 37.48868 28.16424 37.376466 28 37.28125 C 28.000072 37.27056 28 37.26071 28 37.25 C 28 35.178931 26.656854 33.5 25 33.5 z "
         inkscape:radius="1.008674"
         sodipodi:type="inkscape:offset" />
      <path
         sodipodi:type="inkscape:offset"
         inkscape:radius="1.0453278"
         inkscape:original="M -6.5 3 C -7.8807119 3 -9 4.3431458 -9 6 C -9 7.6568542 -7.8807119 9 -6.5 9 C -6.246076 9 -6.0121541 8.928203 -5.78125 8.84375 C -5.5419733 8.9449555 -5.2761424 9 -5 9 C -4.7928932 9 -4.5941278 8.9646861 -4.40625 8.90625 L 2.5 12.875 L 3.5 11.125 L -3.03125 7.375 C -3.0084396 7.2541173 -3 7.1275128 -3 7 C -3 6.893604 -3.0152473 6.7894018 -3.03125 6.6875 L -2.5625 5.875 L -2.0625 5.03125 C -1.92445 4.79215 -2.010853 4.48185 -2.25 4.34375 C -2.4891462 4.20575 -2.79945 4.29225 -2.9375 4.53125 L -3.4375 5.375 L -3.5625 5.625 C -3.7182039 5.4621713 -3.8908916 5.3217436 -4.09375 5.21875 C -4.3841783 3.9478655 -5.34873 3 -6.5 3 z "
         style="fill:black;fill-opacity:1;stroke:none"
         id="use7784"
         d="m -6.5,1.96875 c -2.0586364,0 -3.53125,1.9036149 -3.53125,4.03125 0,2.1276351 1.4726136,4.03125 3.53125,4.03125 0.3057602,0 0.4973303,-0.089648 0.71875,-0.15625 0.2574428,0.069327 0.5074192,0.15625 0.78125,0.15625 0.1243642,0 0.2261065,-0.047716 0.34375,-0.0625 l 6.625,3.8125 a 1.0454323,1.0454323 0 0 0 1.4375,-0.375 l 1,-1.75 a 1.0454323,1.0454323 0 0 0 -0.375,-1.4375 l -5.9375,-3.40625 0.25,-0.40625 0.5,-0.84375 C -0.72794266,4.8206798 -0.98680337,3.8601766 -1.71875,3.4375 -2.3979014,3.0455937 -3.2235853,3.2787542 -3.6875,3.875 -4.3033243,2.8125019 -5.2231148,1.96875 -6.5,1.96875 z"
         transform="matrix(-1,0,0,1,32.021361,1020.3618)" />
      <rect
         inkscape:export-ydpi="360"
         inkscape:export-xdpi="360"
         y="988.36218"
         x="-32"
         height="96"
         width="96"
         id="rect6815"
         style="fill:none;stroke:none" />
      <path
         sodipodi:type="arc"
         style="fill:black;fill-opacity:1;fill-rule:nonzero;stroke:none"
         id="path6742"
         sodipodi:cx="8"
         sodipodi:cy="5"
         sodipodi:rx="1"
         sodipodi:ry="1"
         d="M 9,5 A 1,1 0 1 1 7,5 1,1 0 1 1 9,5 z"
         transform="matrix(5,0,0,5,-31,1003.3622)" />
      <path
         transform="matrix(5,0,0,5,-17,1003.3622)"
         d="M 9,5 A 1,1 0 1 1 7,5 1,1 0 1 1 9,5 z"
         sodipodi:ry="1"
         sodipodi:rx="1"
         sodipodi:cy="5"
         sodipodi:cx="8"
         id="path6744"
         style="fill:black;fill-opacity:1;fill-rule:nonzero;stroke:none"
         sodipodi:type="arc" />
      <rect
         y="1020.3622"
         x="0"
         height="32"
         width="32"
         id="rect6614"
         style="fill:none;stroke:none" />
      <path
         transform="matrix(1.0440591,0,0,0.9999439,-255.76471,900.30671)"
         d="m 274.6633,136.06313 a 14.367003,15.000842 0 1 1 -28.73401,0 14.367003,15.000842 0 1 1 28.73401,0 z"
         sodipodi:ry="15.000842"
         sodipodi:rx="14.367003"
         sodipodi:cy="136.06313"
         sodipodi:cx="260.2963"
         id="path4818"
         style="fill:black;fill-opacity:1;fill-rule:nonzero;stroke:none"
         sodipodi:type="arc" />
      <path
         transform="matrix(2.0024876,0,0,2.0024876,0.04974722,1020.3423)"
         d="M 14.956522,8 A 6.9913044,6.9913044 0 1 1 0.97391319,8 6.9913044,6.9913044 0 1 1 14.956522,8 z"
         sodipodi:ry="6.9913044"
         sodipodi:rx="6.9913044"
         sodipodi:cy="8"
         sodipodi:cx="7.9652176"
         id="path3403"
         style="fill:red;fill-opacity:1;fill-rule:nonzero;stroke:none"
         sodipodi:type="arc" />
      <path
         sodipodi:open="true"
         sodipodi:end="9.6865773"
         sodipodi:start="6.0213859"
         transform="matrix(3.127226,0,0,3.3996825,-72.05343,860.17746)"
         d="m 32.172431,50.834189 a 4.1570387,3.8238845 0 1 1 -8.030782,0"
         sodipodi:ry="3.8238845"
         sodipodi:rx="4.1570387"
         sodipodi:cy="51.823883"
         sodipodi:cx="28.15704"
         id="path3429"
         style="fill:maroon;fill-opacity:1;fill-rule:nonzero;stroke:none"
         sodipodi:type="arc" />
      <path
         transform="translate(0,1019.3619)"
         d="M 24,21 A 8,4.944272 0 1 1 8,21 8,4.944272 0 1 1 24,21 z"
         sodipodi:ry="4.944272"
         sodipodi:rx="8"
         sodipodi:cy="21"
         sodipodi:cx="16"
         id="path5770"
         style="fill:#500;fill-opacity:1;stroke:none"
         sodipodi:type="arc" />
      <path
         inkscape:connector-curvature="0"
         id="path5689"
         d="m 3,1035.9882 c 0,-1.0312 0.1168267,-2.0381 0.34375,-3 l 25.3125,0 c 0.226923,0.9619 0.34375,1.9688 0.34375,3 l -26,0 z"
         style="fill:white;fill-opacity:1;fill-rule:nonzero;stroke:none" />
      <path
         d="M 10,5 A 2,2 0 1 1 6,5 2,2 0 1 1 10,5 z"
         sodipodi:ry="2"
         sodipodi:rx="2"
         sodipodi:cy="5"
         sodipodi:cx="8"
         id="path3407"
         style="fill:white;fill-opacity:1;fill-rule:nonzero;stroke:none"
         sodipodi:type="arc"
         transform="matrix(2,0,0,2,-7.0000028,1018.3622)" />
      <path
         transform="matrix(2,0,0,2,6.999997,1018.3622)"
         sodipodi:type="arc"
         style="fill:white;fill-opacity:1;fill-rule:nonzero;stroke:none"
         id="path3425"
         sodipodi:cx="8"
         sodipodi:cy="5"
         sodipodi:rx="2"
         sodipodi:ry="2"
         d="M 10,5 A 2,2 0 1 1 6,5 2,2 0 1 1 10,5 z" />
      <path
         transform="matrix(2,0,0,2,-7,1018.3622)"
         d="M 9,5 A 1,1 0 1 1 7,5 1,1 0 1 1 9,5 z"
         sodipodi:ry="1"
         sodipodi:rx="1"
         sodipodi:cy="5"
         sodipodi:cx="8"
         id="path3409"
         style="fill:black;fill-opacity:1;fill-rule:nonzero;stroke:none"
         sodipodi:type="arc" />
      <path
         sodipodi:type="arc"
         style="fill:black;fill-opacity:1;fill-rule:nonzero;stroke:none"
         id="path3427"
         sodipodi:cx="8"
         sodipodi:cy="5"
         sodipodi:rx="1"
         sodipodi:ry="1"
         d="M 9,5 A 1,1 0 1 1 7,5 1,1 0 1 1 9,5 z"
         transform="matrix(2,0,0,2,7,1018.3622)" />
      <path
         transform="translate(0,1017.3622)"
         d="m 17,22 a 1,2 0 1 1 -2,0 1,2 0 1 1 2,0 z"
         sodipodi:ry="2"
         sodipodi:rx="1"
         sodipodi:cy="22"
         sodipodi:cx="16"
         id="path5707"
         style="fill:red;fill-opacity:1;stroke:none"
         sodipodi:type="arc" />
      <path
         inkscape:connector-curvature="0"
         id="rect3449"
         d="m 3,1035.9882 c 0,-1.0385 0.1400316,-2.0313 0.375,-3 l 0.625,0 0,3 -1,0 z m 5,0 0,-3 4,0 0,3 -4,0 z m 8,0 0,-3 4,0 0,3 -4,0 z m 8,0 0,-3 4,0 0,3 -4,0 z"
         style="fill:#f0ffff;fill-opacity:1;fill-rule:nonzero;stroke:none" />
      <path
         sodipodi:open="true"
         sodipodi:type="arc"
         style="fill:white;fill-opacity:1;fill-rule:nonzero;stroke:none"
         id="path3443"
         sodipodi:cx="28.15704"
         sodipodi:cy="51.823883"
         sodipodi:rx="4.1570387"
         sodipodi:ry="0.76477689"
         d="m 24.000001,51.823883 a 4.1570387,0.76477689 0 0 1 8.314077,0"
         transform="matrix(3.3677824,0,0,1.7603396e-6,-78.826783,1036.3621)"
         sodipodi:start="3.1415927"
         sodipodi:end="6.2831853" />
      <path
         sodipodi:nodetypes="caaacc"
         inkscape:connector-curvature="0"
         id="path5768"
         d="m 8,1047.3622 c 0,0 3.237334,-1.6605 5,-2 0.981956,-0.1891 2,0 3,0 1,0 2.018044,-0.1891 3,0 1.762666,0.3395 5,2 5,2 z"
         style="fill:red;fill-opacity:1;stroke:none" />
      <path
         inkscape:connector-curvature="0"
         id="path5694"
         d="m 7.6875,1046.3622 c 2.2521156,1.8716 5.155375,3 8.3125,3 3.157125,0 6.060384,-1.1284 8.3125,-3 l -16.625,0 z"
         style="fill:white;fill-opacity:1;fill-rule:nonzero;stroke:none" />
      <path
         inkscape:connector-curvature="0"
         id="path5699"
         d="m 8,1046.3622 0,0.25 c 1.1865572,0.9262 2.535541,1.653 4,2.125 l 0,-2.375 -4,0 z m 8,0 0,3 c 1.390897,0 2.743253,-0.22 4,-0.625 l 0,-2.375 -4,0 z m 8,0 0,0.25 c 0.104328,-0.081 0.210925,-0.1655 0.3125,-0.25 l -0.3125,0 z"
         style="fill:#f0ffff;fill-opacity:1;fill-rule:nonzero;stroke:none" />
      <rect
         inkscape:transform-center-y="-1.9999975"
         transform="matrix(0.8660254,0.5,-0.5,0.8660254,0,0)"
         inkscape:transform-center-x="3.4641036"
         y="891.55188"
         x="510.77917"
         height="2.0000174"
         width="8"
         id="rect6748"
         style="fill:red;fill-opacity:1;stroke:none" />
      <path
         sodipodi:type="arc"
         style="fill:red;fill-opacity:1;stroke:none"
         id="path6756"
         sodipodi:cx="38"
         sodipodi:cy="5"
         sodipodi:rx="2"
         sodipodi:ry="2"
         d="m 40,5 a 2,2 0 1 1 -4,0 2,2 0 1 1 4,0 z"
         transform="translate(-43,1022.3622)" />
      <path
         transform="matrix(1.5,0,0,1.8750008,-64,1016.2372)"
         d="m 40,5 a 2,2 0 1 1 -4,0 2,2 0 1 1 4,0 z"
         sodipodi:ry="2"
         sodipodi:rx="2"
         sodipodi:cy="5"
         sodipodi:cx="38"
         id="path6758"
         style="fill:red;fill-opacity:1;stroke:none"
         sodipodi:type="arc" />
      <path
         inkscape:transform-center-x="-0.5"
         inkscape:transform-center-y="-0.86602778"
         inkscape:connector-curvature="0"
         id="rect6762"
         d="m -2.25,1024.6971 c -0.2391462,-0.138 -0.5449627,-0.056 -0.6830127,0.183 l -0.5,0.8661 -0.5,0.866 c -0.13805,0.2391 -0.056134,0.5449 0.1830127,0.683 0.2391463,0.1381 0.5449627,0.056 0.6830127,-0.183 l 0.5,-0.866 0.5,-0.8661 c 0.13805,-0.2391 0.056134,-0.5449 -0.1830127,-0.683 z"
         style="fill:red;fill-opacity:1;stroke:none" />
      <use
         transform="matrix(-1,0,0,1,32.021361,-3.8125725e-4)"
         id="use7786"
         inkscape:transform-center-y="-1.9999975"
         inkscape:transform-center-x="3.4641036"
         xlink:href="#rect6748"
         y="0"
         x="0"
         width="96"
         height="96" />
      <use
         transform="matrix(-1,0,0,1,32.021361,-3.8125725e-4)"
         id="use7788"
         xlink:href="#path6756"
         y="0"
         x="0"
         width="96"
         height="96" />
      <use
         transform="matrix(-1,0,0,1,32.021361,-3.8125725e-4)"
         id="use7790"
         xlink:href="#path6758"
         y="0"
         x="0"
         width="96"
         height="96" />
      <use
         transform="matrix(-1,0,0,1,32.021361,-3.8125725e-4)"
         id="use7792"
         inkscape:transform-center-y="-0.86602778"
         inkscape:transform-center-x="-0.5"
         xlink:href="#rect6762"
         y="0"
         x="0"
         width="96"
         height="96" />
    </g>
  </g>
</svg>
