<?xml version="1.0" encoding="UTF-8" standalone="no"?>
<!-- Created with Inkscape (http://www.inkscape.org/) -->

<svg
   xmlns:dc="http://purl.org/dc/elements/1.1/"
   xmlns:cc="http://creativecommons.org/ns#"
   xmlns:rdf="http://www.w3.org/1999/02/22-rdf-syntax-ns#"
   xmlns:svg="http://www.w3.org/2000/svg"
   xmlns="http://www.w3.org/2000/svg"
   xmlns:sodipodi="http://sodipodi.sourceforge.net/DTD/sodipodi-0.dtd"
   xmlns:inkscape="http://www.inkscape.org/namespaces/inkscape"
   width="96"
   height="96"
   id="svg3505"
   sodipodi:version="0.32"
   inkscape:version="0.47 r22583"
   sodipodi:docname="11.svg"
   inkscape:output_extension="org.inkscape.output.svg.inkscape"
   version="1.1">
  <defs
     id="defs3507">
    <inkscape:perspective
       sodipodi:type="inkscape:persp3d"
       inkscape:vp_x="0 : 16 : 1"
       inkscape:vp_y="0 : 1000 : 0"
       inkscape:vp_z="32 : 16 : 1"
       inkscape:persp3d-origin="16 : 10.666667 : 1"
       id="perspective2836" />
    <inkscape:perspective
       id="perspective2899"
       inkscape:persp3d-origin="0.5 : 0.33333333 : 1"
       inkscape:vp_z="1 : 0.5 : 1"
       inkscape:vp_y="0 : 1000 : 0"
       inkscape:vp_x="0 : 0.5 : 1"
       sodipodi:type="inkscape:persp3d" />
    <inkscape:perspective
       id="perspective3072"
       inkscape:persp3d-origin="0.5 : 0.33333333 : 1"
       inkscape:vp_z="1 : 0.5 : 1"
       inkscape:vp_y="0 : 1000 : 0"
       inkscape:vp_x="0 : 0.5 : 1"
       sodipodi:type="inkscape:persp3d" />
    <inkscape:perspective
       id="perspective3081"
       inkscape:persp3d-origin="0.5 : 0.33333333 : 1"
       inkscape:vp_z="1 : 0.5 : 1"
       inkscape:vp_y="0 : 1000 : 0"
       inkscape:vp_x="0 : 0.5 : 1"
       sodipodi:type="inkscape:persp3d" />
  </defs>
  <sodipodi:namedview
     id="base"
     pagecolor="#ffffff"
     bordercolor="#666666"
     borderopacity="1.0"
     inkscape:pageopacity="0.0"
     inkscape:pageshadow="2"
     inkscape:zoom="6.2395833"
     inkscape:cx="48"
     inkscape:cy="48"
     inkscape:current-layer="layer1"
     showgrid="true"
     inkscape:grid-bbox="true"
     inkscape:document-units="px"
     objecttolerance="4"
     gridtolerance="4"
     guidetolerance="4"
     inkscape:window-width="1600"
     inkscape:window-height="840"
     inkscape:window-x="0"
     inkscape:window-y="0"
     inkscape:object-paths="true"
     inkscape:object-nodes="true"
     inkscape:snap-bbox="true"
     inkscape:snap-guide="true"
     showguides="true"
     inkscape:guide-bbox="true"
     inkscape:window-maximized="1">
    <inkscape:grid
       type="xygrid"
       id="grid3515"
       units="px"
       visible="true"
       enabled="true"
       spacingx="1px"
       spacingy="1px"
       empspacing="4"
       snapvisiblegridlinesonly="true" />
    <sodipodi:guide
       orientation="1,0"
       position="32,64"
       id="guide2868" />
    <sodipodi:guide
       orientation="0,1"
       position="0,32"
       id="guide2870" />
    <sodipodi:guide
       orientation="0,1"
       position="0,64"
       id="guide2874" />
    <sodipodi:guide
       orientation="1,0"
       position="64,64"
       id="guide2876" />
  </sodipodi:namedview>
  <metadata
     id="metadata3510">
    <rdf:RDF>
      <cc:Work
         rdf:about="">
        <dc:format>image/svg+xml</dc:format>
        <dc:type
           rdf:resource="http://purl.org/dc/dcmitype/StillImage" />
        <dc:title></dc:title>
        <dc:date>2010-08-08</dc:date>
        <dc:creator>
          <cc:Agent>
            <dc:title>Andreas Neudecker &lt;zapyon@gmx.net&gt;</dc:title>
          </cc:Agent>
        </dc:creator>
        <dc:rights>
          <cc:Agent>
            <dc:title>Copyright (C) 2010 by Andreas Neudecker</dc:title>
          </cc:Agent>
        </dc:rights>
        <dc:publisher>
          <cc:Agent>
            <dc:title>Andreas Neudecker</dc:title>
          </cc:Agent>
        </dc:publisher>
        <dc:identifier>bomb-explosion-11</dc:identifier>
        <dc:description>Explosion of a bomb for McMinos</dc:description>
      </cc:Work>
    </rdf:RDF>
  </metadata>
  <g
     id="layer1"
     inkscape:label="Layer 1"
     inkscape:groupmode="layer"
     transform="translate(0,64)">
    <path
       sodipodi:type="arc"
       style="fill:#c0c0c0;fill-opacity:0.09411765;fill-rule:nonzero;stroke:none"
       id="path3878"
       sodipodi:cx="-16"
       sodipodi:cy="44"
       sodipodi:rx="8"
       sodipodi:ry="8"
       d="m -8,44 a 8,8 0 1 1 -16,0 8,8 0 1 1 16,0 z"
       transform="matrix(1.7227136,0,0,1.7227136,64.67861,-111.7994)" />
    <path
       style="fill:#c0c0c0;fill-opacity:0.0627451;fill-rule:nonzero;stroke:none"
       d="m 68.571433,-47.428578 c -8.520967,0 -15.428574,6.907609 -15.428574,15.428574 0,3.983239 1.539743,7.588579 4.017858,10.325895 -6.605188,0.480665 -12.049319,5.139085 -13.741075,11.33036 -1.769377,-0.707019 -3.683616,-1.084822 -5.705358,-1.084822 -1.82805,0 -3.555774,0.340532 -5.183038,0.924108 0.02757,-0.306959 0.04017,-0.609973 0.04017,-0.924108 0,-5.680644 -4.605072,-10.285716 -10.285715,-10.285716 -5.680645,0 -10.285717,4.605072 -10.285717,10.285716 0,5.6806444 4.605072,10.2857165 10.285717,10.2857165 0.314134,0 0.617147,-0.01261 0.924107,-0.040179 -0.583576,1.62726333 -0.924107,3.3549872 -0.924107,5.1830368 0,8.5209654 6.907608,15.4285744 15.428573,15.4285744 7.109866,0 13.07825,-4.827684 14.866074,-11.3705379 1.769378,0.7070196 3.683617,1.0848217 5.70536,1.0848217 8.520965,0 15.428573,-6.9076081 15.428573,-15.4285747 0,-3.9832391 -1.539742,-7.5885771 -4.017857,-10.3258941 C 77.686994,-17.19309 84,-23.861084 84,-32.000004 84,-40.52097 77.092393,-47.428578 68.571426,-47.428578 z"
       id="path3880" />
    <path
       sodipodi:type="arc"
       style="fill:#ffffff;fill-opacity:0.1254902;fill-rule:nonzero;stroke:none"
       id="path3971"
       sodipodi:cx="-24"
       sodipodi:cy="36"
       sodipodi:rx="8"
       sodipodi:ry="8"
       d="m -16,36 a 8,8 0 1 1 -16,0 8,8 0 1 1 16,0 z"
       transform="matrix(2.9999997,0,0,2.9999997,128,-103.99999)" />
    <path
       sodipodi:type="arc"
       style="fill:#ffffff;fill-opacity:0.0627451;fill-rule:nonzero;stroke:none"
       id="path3973"
       sodipodi:cx="-24"
       sodipodi:cy="36"
       sodipodi:rx="8"
       sodipodi:ry="8"
       d="m -16,36 a 8,8 0 1 1 -16,0 8,8 0 1 1 16,0 z"
       transform="matrix(2.6378878,0,0,2.6378878,136.41241,-129.86086)" />
    <path
       sodipodi:type="arc"
       style="fill:#ffffff;fill-opacity:0.0627451;fill-rule:nonzero;stroke:none"
       id="path3997"
       sodipodi:cx="21.929884"
       sodipodi:cy="62.043407"
       sodipodi:rx="10.070117"
       sodipodi:ry="9.9565945"
       d="m 32.000001,62.043407 a 10.070117,9.9565945 0 1 1 -20.140234,0 10.070117,9.9565945 0 1 1 20.140234,0 z"
       transform="translate(-9.5367432e-7,-56.086813)" />
    <path
       sodipodi:type="star"
       style="fill:#787878;fill-opacity:0.50196078;fill-rule:nonzero;stroke:none"
       id="path6628"
       sodipodi:sides="5"
       sodipodi:cx="16.828047"
       sodipodi:cy="36"
       sodipodi:r1="2.5423467"
       sodipodi:r2="2.0568018"
       sodipodi:arg1="0.71289975"
       sodipodi:arg2="1.3412183"
       inkscape:flatsided="true"
       inkscape:rounded="0"
       inkscape:randomized="0.2"
       d="m 18.800451,38.157627 -3.284398,-0.09459 -1.014327,-2.358624 1.449674,-2.282113 3.068656,1.458696 -0.219605,3.276631 z"
       transform="translate(-2.8004505,-26.157627)" />
    <path
       sodipodi:type="star"
       style="fill:#787878;fill-opacity:0.50196078;fill-rule:nonzero;stroke:none"
       id="path6630"
       sodipodi:sides="5"
       sodipodi:cx="54.971619"
       sodipodi:cy="21.636061"
       sodipodi:r1="1.3037275"
       sodipodi:r2="1.0547377"
       sodipodi:arg1="0.66194164"
       sodipodi:arg2="1.2902602"
       inkscape:flatsided="true"
       inkscape:rounded="0"
       inkscape:randomized="0.2"
       d="m 56.235485,22.396096 -1.476864,0.245816 -0.884838,-1.182584 0.710704,-0.947454 1.504637,0.547937 0.146361,1.336285 z"
       transform="translate(1.415513,-36.511874)" />
    <path
       sodipodi:type="star"
       style="fill:#787878;fill-opacity:0.50196078;fill-rule:nonzero;stroke:none"
       id="path6634"
       sodipodi:sides="5"
       sodipodi:cx="71.479134"
       sodipodi:cy="51.12521"
       sodipodi:r1="2.5034523"
       sodipodi:r2="2.0253356"
       sodipodi:arg1="-0.69473828"
       sodipodi:arg2="-0.066419745"
       inkscape:flatsided="true"
       inkscape:rounded="0"
       inkscape:randomized="0.2"
       d="m 73.759803,49.170681 -0.616779,2.796231 -2.193807,1.811985 -1.948769,-1.99834 1.33358,-2.601384 3.425775,-0.0085 z"
       transform="translate(-5.7598031,-37.778897)" />
    <path
       sodipodi:type="star"
       style="fill:#787878;fill-opacity:0.50196078;fill-rule:nonzero;stroke:none"
       id="path6640"
       sodipodi:sides="5"
       sodipodi:cx="88.307182"
       sodipodi:cy="35.5793"
       sodipodi:r1="2.5034523"
       sodipodi:r2="2.0253356"
       sodipodi:arg1="0.69473828"
       sodipodi:arg2="1.3230568"
       inkscape:flatsided="true"
       inkscape:rounded="0"
       inkscape:randomized="0.2"
       d="m 90.311539,37.463817 -2.874664,0.675343 -1.888943,-2.836174 2.440309,-2.181385 2.647893,1.392988 -0.324595,2.949228 z"
       transform="translate(-4.1485079,-34.13916)" />
    <path
       sodipodi:type="arc"
       style="fill:#a0a0a0;fill-opacity:0.1254902;fill-rule:nonzero;stroke:none"
       id="path6712"
       sodipodi:cx="4.166945"
       sodipodi:cy="59.619366"
       sodipodi:rx="11.619366"
       sodipodi:ry="11.619366"
       d="m 15.786311,59.619366 a 11.619366,11.619366 0 1 1 -23.2387317,0 11.619366,11.619366 0 1 1 23.2387317,0 z"
       transform="matrix(1.1544393,0,0,1.1544393,21.775663,-67.413085)" />
    <path
       style="fill:#a0a0a0;fill-opacity:0.0627451;fill-rule:nonzero;stroke:none"
       d="m 65.638393,-30.857143 c -5.034809,0 -9.187733,3.585031 -10.116072,8.348214 -2.29405,-1.309938 -4.977195,-2.0625 -7.808035,-2.0625 C 39.035525,-24.571429 32,-17.535904 32,-8.8571429 c 0,8.67876119 7.035525,15.7142858 15.714286,15.7142858 8.678761,0 15.714285,-7.03552461 15.714285,-15.7142858 0,-0.5260451 -0.04772,-1.0586572 -0.09821,-1.5714281 0.750227,0.172949 1.505279,0.294642 2.308036,0.294642 5.71596,0 10.361607,-4.645647 10.361607,-10.361607 0,-5.71596 -4.645647,-10.361607 -10.361607,-10.361607 z"
       id="path6714" />
    <path
       style="fill:#a0a0a0;fill-opacity:0.0627451;fill-rule:nonzero;stroke:none"
       d="m 18.712449,-47.387088 c -9.022925,0 -16.337449,7.314524 -16.337449,16.337449 0,9.022923 7.314524,16.337447 16.337449,16.337447 4.642537,0 8.819252,-1.945169 11.793595,-5.054398 0.140127,5.820682 4.918106,10.4661782 10.772505,10.4661782 C 47.22118,-9.3004118 52,-14.079231 52,-20.021862 c 0,-5.942632 -4.77882,-10.772506 -10.721451,-10.772506 -2.414195,0 -4.637629,0.801711 -6.43287,2.144291 0.116024,-0.785626 0.204219,-1.58169 0.204219,-2.399562 0,-9.022925 -7.314526,-16.337449 -16.337449,-16.337449 z"
       id="path6718" />
    <path
       sodipodi:type="arc"
       style="fill:#c0c0c0;fill-opacity:0.1254902;fill-rule:nonzero;stroke:none"
       id="path6728"
       sodipodi:cx="-20"
       sodipodi:cy="56"
       sodipodi:rx="4"
       sodipodi:ry="4"
       d="m -16,56 a 4,4 0 1 1 -8,0 4,4 0 1 1 8,0 z"
       transform="matrix(2.628745,0,0,2.628745,86.05992,-152.23092)" />
    <path
       transform="matrix(3,0,0,3,104,-196)"
       d="m -16,56 a 4,4 0 1 1 -8,0 4,4 0 1 1 8,0 z"
       sodipodi:ry="4"
       sodipodi:rx="4"
       sodipodi:cy="56"
       sodipodi:cx="-20"
       id="path6730"
       style="fill:#c0c0c0;fill-opacity:0.0627451;fill-rule:nonzero;stroke:none"
       sodipodi:type="arc" />
    <path
       style="fill:#c0c0c0;fill-opacity:0.0627451;fill-rule:nonzero;stroke:none"
       d="m 63.428571,-1.7142857 c -5.49474,0 -10.125063,3.534267 -11.834821,8.4464286 C 49.587337,5.3766364 47.175056,4.5714286 44.571429,4.5714286 37.62842,4.5714286 32,10.199849 32,17.142857 c 0,6.943008 5.62842,12.571429 12.571429,12.571429 5.49474,0 10.125063,-3.534267 11.834821,-8.446429 2.006413,1.355507 4.418694,2.160714 7.022321,2.160714 C 70.37158,23.428571 76,17.800151 76,10.857143 76,3.9141346 70.37158,-1.7142857 63.428571,-1.7142857 z"
       id="path6732" />
  </g>
</svg>
