<?xml version="1.0" encoding="UTF-8" standalone="no"?>
<!-- Created with Inkscape (http://www.inkscape.org/) -->

<svg
   xmlns:dc="http://purl.org/dc/elements/1.1/"
   xmlns:cc="http://creativecommons.org/ns#"
   xmlns:rdf="http://www.w3.org/1999/02/22-rdf-syntax-ns#"
   xmlns:svg="http://www.w3.org/2000/svg"
   xmlns="http://www.w3.org/2000/svg"
   xmlns:xlink="http://www.w3.org/1999/xlink"
   xmlns:sodipodi="http://sodipodi.sourceforge.net/DTD/sodipodi-0.dtd"
   xmlns:inkscape="http://www.inkscape.org/namespaces/inkscape"
   sodipodi:docname="01-clones.svg"
   viewBox="0 0 32 32"
   inkscape:version="0.48.5 r10040"
   version="1.1"
   id="svg4150"
   height="32"
   width="32">
  <defs
     id="defs4152" />
  <sodipodi:namedview
     id="base"
     pagecolor="#ffffff"
     bordercolor="#666666"
     borderopacity="1.0"
     inkscape:pageopacity="0.0"
     inkscape:pageshadow="2"
     inkscape:zoom="16.5"
     inkscape:cx="16"
     inkscape:cy="16.467901"
     inkscape:current-layer="layer1"
     showgrid="true"
     inkscape:grid-bbox="true"
     inkscape:document-units="px"
     objecttolerance="10000"
     inkscape:snap-perpendicular="true"
     guidetolerance="10000"
     inkscape:window-width="1024"
     inkscape:window-height="741"
     inkscape:window-x="0"
     inkscape:window-y="2"
     inkscape:window-maximized="1"
     showguides="true"
     inkscape:guide-bbox="true">
    <inkscape:grid
       type="xygrid"
       id="grid4698"
       empspacing="4" />
    <sodipodi:guide
       position="16,32"
       orientation="1,0"
       id="guide4769" />
    <sodipodi:guide
       position="-4,16"
       orientation="0,1"
       id="guide4771" />
    <sodipodi:guide
       position="16,16"
       orientation="-0.70710678,0.70710678"
       id="guide4773" />
    <sodipodi:guide
       position="16,16"
       orientation="0.70710678,0.70710678"
       id="guide4775" />
  </sodipodi:namedview>
  <metadata
     id="metadata4155">
    <rdf:RDF>
      <cc:Work
         rdf:about="">
        <dc:format>image/svg+xml</dc:format>
        <dc:type
           rdf:resource="http://purl.org/dc/dcmitype/StillImage" />
        <dc:title></dc:title>
      </cc:Work>
    </rdf:RDF>
  </metadata>
  <g
     id="layer1"
     inkscape:label="Layer 1"
     inkscape:groupmode="layer">
    <path
       style="fill:red;fill-opacity:0.25098039;stroke:none"
       d="m -32,3 12,0 0,16 4,0 -10,10 -10,-10 4,0 z"
       id="path3353"
       inkscape:connector-curvature="0" />
    <g
       id="g3121">
      <path
         inkscape:connector-curvature="0"
         id="path2995"
         d="M 10,2 C 8.8954305,2 8,2.8954305 8,4 8,5.1045695 8.8954305,6 10,6 11.104569,6 12,5.1045695 12,4 12,2.8954305 11.104569,2 10,2 z m 0,1 c 0.552285,0 1,0.4477153 1,1 0,0.5522847 -0.447715,1 -1,1 C 9.4477153,5 9,4.5522847 9,4 9,3.4477153 9.4477153,3 10,3 z"
         style="fill:green;fill-opacity:1;stroke:none" />
      <path
         transform="translate(-6,-26)"
         d="m 17,30 c 0,0.552285 -0.447715,1 -1,1 -0.552285,0 -1,-0.447715 -1,-1 0,-0.552285 0.447715,-1 1,-1 0.552285,0 1,0.447715 1,1 z"
         sodipodi:ry="1"
         sodipodi:rx="1"
         sodipodi:cy="30"
         sodipodi:cx="16"
         id="path4220"
         style="fill:lime;fill-opacity:1;stroke:none"
         sodipodi:type="arc" />
    </g>
    <use
       x="0"
       y="0"
       xlink:href="#g3121"
       id="use3125"
       transform="translate(6,0)"
       width="32"
       height="32" />
    <use
       x="0"
       y="0"
       xlink:href="#g3121"
       id="use3127"
       transform="translate(12,0)"
       width="32"
       height="32" />
    <use
       x="0"
       y="0"
       xlink:href="#g3121"
       id="use3129"
       transform="translate(0,6)"
       width="32"
       height="32" />
    <use
       x="0"
       y="0"
       xlink:href="#g3121"
       id="use3131"
       transform="translate(0,12)"
       width="32"
       height="32" />
    <use
       x="0"
       y="0"
       xlink:href="#g3121"
       id="use3133"
       transform="translate(12,6)"
       width="32"
       height="32" />
    <use
       x="0"
       y="0"
       xlink:href="#g3121"
       id="use3135"
       transform="translate(12,12)"
       width="32"
       height="32" />
    <use
       x="0"
       y="0"
       xlink:href="#g3121"
       id="use3175"
       transform="translate(-6,13)"
       width="32"
       height="32" />
    <use
       x="0"
       y="0"
       xlink:href="#g3121"
       id="use3177"
       transform="translate(-2,17)"
       width="32"
       height="32" />
    <use
       x="0"
       y="0"
       xlink:href="#g3121"
       id="use3179"
       transform="translate(2,21)"
       width="32"
       height="32" />
    <use
       x="0"
       y="0"
       xlink:href="#g3121"
       id="use3181"
       transform="translate(6,25)"
       width="32"
       height="32" />
    <use
       x="0"
       y="0"
       xlink:href="#g3121"
       id="use3183"
       transform="translate(18,13)"
       width="32"
       height="32" />
    <use
       x="0"
       y="0"
       xlink:href="#g3121"
       id="use3185"
       transform="translate(14,17)"
       width="32"
       height="32" />
    <use
       x="0"
       y="0"
       xlink:href="#g3121"
       id="use3187"
       transform="translate(10,21)"
       width="32"
       height="32" />
  </g>
</svg>
