<?xml version="1.0" encoding="UTF-8" standalone="no"?>
<!-- Created with Inkscape (http://www.inkscape.org/) -->

<svg
   xmlns:dc="http://purl.org/dc/elements/1.1/"
   xmlns:cc="http://creativecommons.org/ns#"
   xmlns:rdf="http://www.w3.org/1999/02/22-rdf-syntax-ns#"
   xmlns:svg="http://www.w3.org/2000/svg"
   xmlns="http://www.w3.org/2000/svg"
   xmlns:sodipodi="http://sodipodi.sourceforge.net/DTD/sodipodi-0.dtd"
   xmlns:inkscape="http://www.inkscape.org/namespaces/inkscape"
   width="32px"
   height="32px"
   id="svg3505"
   sodipodi:version="0.32"
   inkscape:version="0.47 r22583"
   sodipodi:docname="cloud-neu-00.svg"
   inkscape:output_extension="org.inkscape.output.svg.inkscape"
   version="1.1">
  <defs
     id="defs3507">
    <inkscape:perspective
       sodipodi:type="inkscape:persp3d"
       inkscape:vp_x="0 : 16 : 1"
       inkscape:vp_y="0 : 1000 : 0"
       inkscape:vp_z="32 : 16 : 1"
       inkscape:persp3d-origin="16 : 10.666667 : 1"
       id="perspective3513" />
    <inkscape:perspective
       id="perspective4690"
       inkscape:persp3d-origin="372.04724 : 350.78739 : 1"
       inkscape:vp_z="744.09448 : 526.18109 : 1"
       inkscape:vp_y="0 : 1000 : 0"
       inkscape:vp_x="0 : 526.18109 : 1"
       sodipodi:type="inkscape:persp3d" />
  </defs>
  <sodipodi:namedview
     id="base"
     pagecolor="#ffffff"
     bordercolor="#666666"
     borderopacity="1.0"
     inkscape:pageopacity="0.0"
     inkscape:pageshadow="2"
     inkscape:zoom="14.75"
     inkscape:cx="16"
     inkscape:cy="16"
     inkscape:current-layer="layer1"
     showgrid="true"
     inkscape:grid-bbox="true"
     inkscape:document-units="px"
     objecttolerance="4"
     gridtolerance="4"
     guidetolerance="4"
     inkscape:window-width="1280"
     inkscape:window-height="713"
     inkscape:window-x="52"
     inkscape:window-y="0"
     inkscape:object-paths="true"
     inkscape:object-nodes="true"
     inkscape:snap-bbox="true"
     inkscape:snap-guide="true"
     inkscape:window-maximized="0">
    <inkscape:grid
       type="xygrid"
       id="grid3515"
       units="px"
       visible="true"
       enabled="true"
       spacingx="1px"
       spacingy="1px" />
  </sodipodi:namedview>
  <metadata
     id="metadata3510">
    <rdf:RDF>
      <cc:Work
         rdf:about="">
        <dc:format>image/svg+xml</dc:format>
        <dc:type
           rdf:resource="http://purl.org/dc/dcmitype/StillImage" />
        <dc:title>Vorlage f端r 32x32-Pixel-Icons f端r McMinos</dc:title>
        <dc:date>2010-04-05</dc:date>
        <dc:creator>
          <cc:Agent>
            <dc:title>Andreas Neudecker &lt;zapyon@gmx.net&gt;</dc:title>
          </cc:Agent>
        </dc:creator>
        <dc:rights>
          <cc:Agent>
            <dc:title>Copyright (C) 2010 by Andreas Neudecker</dc:title>
          </cc:Agent>
        </dc:rights>
        <dc:publisher>
          <cc:Agent>
            <dc:title>Andreas Neudecker</dc:title>
          </cc:Agent>
        </dc:publisher>
        <dc:identifier>vorlage-32x32-mcminos</dc:identifier>
        <dc:description>Vorlage f端r 32x32-Pixel-Icons f端r McMinos. Metadaten jeweils entsprechend anpassen!</dc:description>
      </cc:Work>
    </rdf:RDF>
  </metadata>
  <g
     id="layer1"
     inkscape:label="Layer 1"
     inkscape:groupmode="layer">
    <g
       id="g12139">
      <rect
         y="0"
         x="0"
         height="32"
         width="32"
         id="rect12084"
         style="fill:none;fill-opacity:0;fill-rule:nonzero;stroke:none" />
      <path
         id="path11970"
         d="m 20,4.09375 c -2.036879,0 -3.785892,0.9844767 -5.0625,2.375 -0.451646,-0.1626463 -0.881035,-0.375 -1.40625,-0.375 C 12.978886,6.09375 12.478328,6.26013 12,6.4375 11.354264,6.2448647 10.691292,6.09375 10,6.09375 6.1799102,6.09375 3.0861694,9.192507 3.03125,13 1.2448358,14.469296 0,16.607346 0,19.09375 c 0,3.537893 2.2954406,6.546174 5.5,7.59375 0.036006,0.01177 0.057516,0.05123 0.09375,0.0625 l 0,-0.03125 c 1.0910222,0.830068 2.4330336,1.375 3.90625,1.375 0.655631,0 1.276206,-0.1623 1.875,-0.34375 1.359947,0.819462 2.930933,1.34375 4.625,1.34375 2.23633,0 4.213028,-0.900656 5.78125,-2.25 0.551316,0.123926 1.099297,0.25 1.71875,0.25 4.682576,0 8.5,-3.817424 8.5,-8.5 C 32,18.202243 31.95391,17.842845 31.90625,17.5 31.94784,17.241862 32,16.969636 32,16.625 32,13.52023 29.765934,11.00929 26.84375,10.375 26.464635,6.8737005 23.59889,4.09375 20,4.09375 z m 0,1 c 3.313708,0 6,2.6862915 6,6 0,0.02063 7.61e-4,0.04172 0,0.0625 2.802867,0.252992 5,2.600003 5,5.46875 0,0.301973 -0.04693,0.586249 -0.09375,0.875 C 30.96028,17.861506 31,18.216954 31,18.59375 c 0,4.142136 -3.357864,7.5 -7.5,7.5 -0.676304,0 -1.314213,-0.113421 -1.9375,-0.28125 -1.441093,1.402163 -3.393003,2.28125 -5.5625,2.28125 -1.664893,0 -3.219491,-0.504504 -4.5,-1.375 -0.617798,0.240216 -1.297271,0.375 -2,0.375 -1.3605765,0 -2.6023031,-0.49403 -3.5625,-1.3125 -0.00558,-0.0048 -0.025687,0.0048 -0.03125,0 C 3.05677,24.89497 1,22.234869 1,19.09375 c 0,-2.375623 1.1905403,-4.484522 3,-5.75 -0.00331,-0.08182 0,-0.167364 0,-0.25 0,-3.313708 2.6862915,-6 6,-6 0.715737,0 1.396125,0.1127931 2.03125,0.34375 0.456786,-0.2148875 0.959974,-0.34375 1.5,-0.34375 0.602192,0 1.160869,0.172602 1.65625,0.4375 C 16.280735,6.0606309 18.025852,5.09375 20,5.09375 z"
         style="font-size:medium;font-style:normal;font-variant:normal;font-weight:normal;font-stretch:normal;text-indent:0;text-align:start;text-decoration:none;line-height:normal;letter-spacing:normal;word-spacing:normal;text-transform:none;direction:ltr;block-progression:tb;writing-mode:lr-tb;text-anchor:start;color:#000000;fill:#000000;fill-opacity:1;stroke:none;stroke-width:2;marker:none;visibility:visible;display:inline;overflow:visible;enable-background:accumulate;font-family:Bitstream Vera Sans;-inkscape-font-specification:Bitstream Vera Sans" />
      <path
         id="path11943"
         d="M 20,5 C 17.421521,5 15.22369,6.6232804 14.375,8.90625 13.280113,7.7363667 11.728732,7 10,7 6.6862915,7 4,9.686292 4,13 4,13.08264 3.99669,13.168176 4,13.25 2.1905403,14.515478 1,16.624377 1,19 c 0,3.865993 3.1340068,7 7,7 0.7998607,0 1.5653298,-0.159214 2.28125,-0.40625 C 11.733567,27.078051 13.759328,28 16,28 18.169497,28 20.121407,27.120913 21.5625,25.71875 22.185787,25.886579 22.823696,26 23.5,26 27.642136,26 31,22.642136 31,18.5 31,15.228998 28.889358,12.462956 25.96875,11.4375 25.97888,11.29495 26,11.14513 26,11 26,7.6862915 23.313708,5 20,5 z"
         style="fill:#f0ffff;fill-opacity:0.50196078;stroke:#000000;stroke-width:0;stroke-linecap:round;stroke-linejoin:round;stroke-miterlimit:4;stroke-opacity:1;stroke-dasharray:none;stroke-dashoffset:0" />
      <path
         id="path11954"
         d="m 8.40625,11 c -3.0375661,0 -5.5,2.462434 -5.5,5.5 0,3.037566 2.4624339,5.5 5.5,5.5 0.6127706,0 1.1995336,-0.09633 1.75,-0.28125 0.769277,3.017372 3.493079,5.25 6.75,5.25 3.256921,0 5.980723,-2.232628 6.75,-5.25 0.550466,0.184925 1.137229,0.28125 1.75,0.28125 3.037566,0 5.5,-2.462434 5.5,-5.5 0,-3.037566 -2.462434,-5.5 -5.5,-5.5 -2.149993,0 -4.001749,1.233207 -4.90625,3.03125 -1.051125,-0.634364 -2.276512,-1 -3.59375,-1 -1.317238,0 -2.542625,0.365636 -3.59375,1 C 12.407999,12.233207 10.556243,11 8.40625,11 z"
         style="fill:#f0ffff;fill-opacity:0.50196078;stroke:#000000;stroke-width:0;stroke-linecap:round;stroke-linejoin:round;stroke-miterlimit:4;stroke-opacity:1;stroke-dasharray:none;stroke-dashoffset:0" />
      <path
         id="path11961"
         d="m 13.4375,6.96875 c -1.956399,0 -3.53125,1.574851 -3.53125,3.53125 0,1.956399 1.574851,3.5625 3.53125,3.5625 0.190912,0 0.379772,-0.03342 0.5625,-0.0625 -0.06267,0.316157 -0.09375,0.634193 -0.09375,0.96875 0,2.761424 2.238576,5 5,5 2.761424,0 5,-2.238576 5,-5 0,-2.761424 -2.238576,-5 -5,-5 -0.690356,0 -1.339308,0.153236 -1.9375,0.40625 C 16.897884,8.481073 15.348759,6.96875 13.4375,6.96875 z"
         style="fill:#f0ffff;fill-opacity:0.50196078;stroke:#000000;stroke-width:0;stroke-linecap:round;stroke-linejoin:round;stroke-miterlimit:4;stroke-opacity:1;stroke-dasharray:none;stroke-dashoffset:0" />
      <path
         transform="translate(-0.09375,-1.03125)"
         d="m 15,22.5 a 5.5,5.5 0 1 1 -11,0 5.5,5.5 0 1 1 11,0 z"
         sodipodi:ry="5.5"
         sodipodi:rx="5.5"
         sodipodi:cy="22.5"
         sodipodi:cx="9.5"
         id="path11968"
         style="fill:#f0ffff;fill-opacity:0.50196078;fill-rule:nonzero;stroke:#000000;stroke-width:0;stroke-linecap:round;stroke-linejoin:round;stroke-miterlimit:4;stroke-opacity:1;stroke-dasharray:none;stroke-dashoffset:0"
         sodipodi:type="arc" />
    </g>
  </g>
</svg>
