<?xml version="1.0" encoding="UTF-8" standalone="no"?>
<!-- Created with Inkscape (http://www.inkscape.org/) -->

<svg xmlns:dc="http://purl.org/dc/elements/1.1/" xmlns:cc="http://creativecommons.org/ns#" xmlns:rdf="http://www.w3.org/1999/02/22-rdf-syntax-ns#" xmlns:svg="http://www.w3.org/2000/svg" xmlns="http://www.w3.org/2000/svg" xmlns:sodipodi="http://sodipodi.sourceforge.net/DTD/sodipodi-0.dtd" xmlns:inkscape="http://www.inkscape.org/namespaces/inkscape" width="32px" height="32px" id="svg3505" sodipodi:version="0.32" inkscape:version="0.91 r13725" sodipodi:docname="00.svg" inkscape:output_extension="org.inkscape.output.svg.inkscape" version="1.1">
  <defs id="defs3507">
    <inkscape:perspective sodipodi:type="inkscape:persp3d" inkscape:vp_x="0 : 16 : 1" inkscape:vp_y="0 : 1000 : 0" inkscape:vp_z="32 : 16 : 1" inkscape:persp3d-origin="16 : 10.666667 : 1" id="perspective3513" />
    <inkscape:perspective id="perspective4690" inkscape:persp3d-origin="372.04724 : 350.78739 : 1" inkscape:vp_z="744.09448 : 526.18109 : 1" inkscape:vp_y="0 : 1000 : 0" inkscape:vp_x="0 : 526.18109 : 1" sodipodi:type="inkscape:persp3d" />
    <inkscape:perspective id="perspective2564" inkscape:persp3d-origin="372.04724 : 350.78739 : 1" inkscape:vp_z="744.09448 : 526.18109 : 1" inkscape:vp_y="0 : 1000 : 0" inkscape:vp_x="0 : 526.18109 : 1" sodipodi:type="inkscape:persp3d" />
  </defs>
  <sodipodi:namedview id="base" pagecolor="#ffffff" bordercolor="#666666" borderopacity="1.0" inkscape:pageopacity="0.0" inkscape:pageshadow="2" inkscape:zoom="22.125" inkscape:cx="25.450473" inkscape:cy="16" inkscape:current-layer="layer1" showgrid="true" inkscape:grid-bbox="true" inkscape:document-units="px" objecttolerance="4" gridtolerance="4" guidetolerance="4" inkscape:window-width="1600" inkscape:window-height="878" inkscape:window-x="0" inkscape:window-y="0" inkscape:object-paths="true" inkscape:object-nodes="true" inkscape:snap-bbox="true" inkscape:snap-guide="true" showguides="true" inkscape:guide-bbox="true" inkscape:window-maximized="1">
    <inkscape:grid type="xygrid" id="grid3515" units="px" visible="true" enabled="true" spacingx="1px" spacingy="1px" empspacing="4" />
    <sodipodi:guide orientation="-0.70710678,0.70710678" position="33.245902,33.245902" id="guide3622" />
    <sodipodi:guide orientation="0.70710678,0.70710678" position="0,32" id="guide3624" />
  </sodipodi:namedview>
  <metadata id="metadata3510">
    <rdf:RDF>
      <cc:Work rdf:about="">
        <dc:format>image/svg+xml</dc:format>
        <dc:type rdf:resource="http://purl.org/dc/dcmitype/StillImage" />
        <dc:title>Vorlage f端r 32x32-Pixel-Icons f端r McMinos</dc:title>
        <dc:date>2010-04-05</dc:date>
        <dc:creator>
          <cc:Agent>
            <dc:title>Andreas Neudecker &lt;zapyon@gmx.net&gt;</dc:title>
          </cc:Agent>
        </dc:creator>
        <dc:rights>
          <cc:Agent>
            <dc:title>Copyright (C) 2010 by Andreas Neudecker</dc:title>
          </cc:Agent>
        </dc:rights>
        <dc:publisher>
          <cc:Agent>
            <dc:title>Andreas Neudecker</dc:title>
          </cc:Agent>
        </dc:publisher>
        <dc:identifier>vorlage-32x32-mcminos</dc:identifier>
        <dc:description>Vorlage f端r 32x32-Pixel-Icons f端r McMinos. Metadaten jeweils entsprechend anpassen!</dc:description>
      </cc:Work>
    </rdf:RDF>
  </metadata>
  <g id="layer1" inkscape:label="Layer 1" inkscape:groupmode="layer">
    <g id="g8148">
      <rect y="0" x="0" height="32" width="32" id="rect8132" style="opacity:1;fill:none;fill-opacity:0.50364966;fill-rule:nonzero;stroke:none;stroke-width:2;stroke-linecap:butt;stroke-linejoin:miter;stroke-miterlimit:4;stroke-dasharray:none;stroke-dashoffset:0;stroke-opacity:1" />
      <path id="path3635" d="M 3 0 L 3 3 L 3 7.2402344 A 12 12 0 0 1 14 0 L 3 0 z M 14 0 A 12 12 0 0 1 19.541016 1.3652344 A 8 8 0 0 1 24 0 L 14 0 z M 24 0 A 8 8 0 0 1 29 1.7558594 L 29 0 L 24 0 z M 30.236328 3 A 8 8 0 0 1 32 8 L 32 3 L 30.236328 3 z M 32 8 A 8 8 0 0 1 30.882812 12.060547 A 4 4 0 0 1 31 13 A 4 4 0 0 1 29.931641 15.712891 A 8 8 0 0 1 32 18.140625 L 32 8 z M 3 16.763672 L 3 21.357422 A 4 4 0 0 1 5.0039062 20.128906 A 8 8 0 0 1 5 20 A 8 8 0 0 1 5.0039062 19.919922 A 12 12 0 0 1 3 16.763672 z M 32 25.84375 A 8 8 0 0 1 28.837891 29 L 29 29 L 32 29 L 32 25.84375 z M 3 26.638672 L 3 29 L 8.359375 29 A 4 4 0 0 1 7.4042969 27.744141 A 4 4 0 0 1 6 28 A 4 4 0 0 1 3 26.638672 z M 17.003906 26.914062 A 8 8 0 0 1 14.546875 27.841797 A 4 4 0 0 1 13.636719 29 L 17.419922 29 A 5 5 0 0 1 17 27 A 5 5 0 0 1 17.003906 26.914062 z " style="fill:black;fill-opacity:1;fill-rule:nonzero;stroke:none;stroke-width:2;stroke-linecap:round;stroke-linejoin:miter;stroke-miterlimit:4;stroke-dashoffset:0;stroke-opacity:1" />
      <path id="path3646" d="M 4 0 L 4 5.3789062 A 12 12 0 0 1 4.0058594 5.3710938 A 12 12 0 0 1 4.7011719 4.4257812 A 12 12 0 0 1 4.7773438 4.3398438 A 12 12 0 0 1 5.5117188 3.5273438 A 12 12 0 0 1 5.5449219 3.4960938 A 12 12 0 0 1 6.3847656 2.734375 A 12 12 0 0 1 6.5390625 2.6171875 A 12 12 0 0 1 7.34375 2.0214844 A 12 12 0 0 1 7.53125 1.9082031 A 12 12 0 0 1 8.3671875 1.4101562 A 12 12 0 0 1 8.6132812 1.2910156 A 12 12 0 0 1 9.4472656 0.90234375 A 12 12 0 0 1 9.7363281 0.796875 A 12 12 0 0 1 10.572266 0.50390625 A 12 12 0 0 1 10.931641 0.41210938 A 12 12 0 0 1 11.720703 0.22265625 A 12 12 0 0 1 12.226562 0.14648438 A 12 12 0 0 1 12.890625 0.056640625 A 12 12 0 0 1 14 0 L 4 0 z M 14 0 A 12 12 0 0 1 15.144531 0.064453125 A 12 12 0 0 1 15.917969 0.16601562 A 12 12 0 0 1 16 0.17773438 L 16 0 L 14 0 z M 30.261719 16 A 8 8 0 0 1 30.263672 16.001953 A 8 8 0 0 1 30.810547 16.527344 A 8 8 0 0 1 30.867188 16.587891 A 8 8 0 0 1 31.287109 17.080078 A 8 8 0 0 1 31.431641 17.269531 A 8 8 0 0 1 31.722656 17.689453 A 8 8 0 0 1 32 18.140625 L 32 16 L 30.261719 16 z M 4 18.597656 L 4 20.542969 A 4 4 0 0 1 4.0117188 20.537109 A 4 4 0 0 1 4.3339844 20.369141 A 4 4 0 0 1 4.4238281 20.332031 A 4 4 0 0 1 4.6933594 20.226562 A 4 4 0 0 1 5.0039062 20.128906 A 8 8 0 0 1 5 20 A 8 8 0 0 1 5.0039062 19.919922 A 12 12 0 0 1 4.4375 19.205078 A 12 12 0 0 1 4.2109375 18.90625 A 12 12 0 0 1 4.0039062 18.603516 A 12 12 0 0 1 4 18.597656 z M 32 25.84375 A 8 8 0 0 1 31.597656 26.496094 A 8 8 0 0 1 31.580078 26.525391 A 8 8 0 0 1 31.568359 26.541016 A 8 8 0 0 1 31.136719 27.105469 A 8 8 0 0 1 31.068359 27.189453 A 8 8 0 0 1 30.632812 27.65625 A 8 8 0 0 1 30.458984 27.828125 A 8 8 0 0 1 30.273438 28 L 32 28 L 32 25.84375 z M 17.003906 26.914062 A 8 8 0 0 1 16.544922 27.150391 A 8 8 0 0 1 16.167969 27.330078 A 8 8 0 0 1 15.839844 27.458984 A 8 8 0 0 1 15.427734 27.607422 A 8 8 0 0 1 15.039062 27.716797 A 8 8 0 0 1 14.546875 27.841797 A 4 4 0 0 1 14.455078 28 L 17.101562 28 A 5 5 0 0 1 17.099609 27.994141 A 5 5 0 0 1 17.060547 27.728516 A 5 5 0 0 1 17.025391 27.5 A 5 5 0 0 1 17 27.007812 A 5 5 0 0 1 17 27 A 5 5 0 0 1 17.003906 26.914062 z M 4 27.458984 L 4 28 L 6 28 A 4 4 0 0 1 5.6367188 27.980469 A 4 4 0 0 1 5.5175781 27.964844 A 4 4 0 0 1 5.2402344 27.923828 A 4 4 0 0 1 5.1289062 27.898438 A 4 4 0 0 1 4.8398438 27.824219 A 4 4 0 0 1 4.7734375 27.802734 A 4 4 0 0 1 4.4589844 27.6875 A 4 4 0 0 1 4.4082031 27.664062 A 4 4 0 0 1 4.0839844 27.505859 A 4 4 0 0 1 4 27.458984 z M 6 28 L 7.5429688 28 A 4 4 0 0 1 7.4042969 27.744141 A 4 4 0 0 1 7.0917969 27.84375 A 4 4 0 0 1 6.9257812 27.886719 A 4 4 0 0 1 6.7050781 27.933594 A 4 4 0 0 1 6.53125 27.960938 A 4 4 0 0 1 6.296875 27.986328 A 4 4 0 0 1 6 28 z " style="fill:blue;fill-opacity:1;fill-rule:nonzero;stroke:none;stroke-width:2;stroke-linecap:round;stroke-linejoin:miter;stroke-miterlimit:4;stroke-dasharray:none;stroke-dashoffset:0;stroke-opacity:1" />
      <path id="path2570" d="M 16 0 L 16 0.17773438 A 12 12 0 0 1 19.541016 1.3652344 A 8 8 0 0 1 24 0 L 16 0 z M 24 0 A 8 8 0 0 1 28 1.0839844 L 28 0 L 24 0 z M 30.919922 4 A 8 8 0 0 1 32 8 L 32 4 L 30.919922 4 z M 32 8 A 8 8 0 0 1 30.882812 12.060547 A 4 4 0 0 1 31 13 A 4 4 0 0 1 29.931641 15.712891 A 8 8 0 0 1 30.261719 16 L 32 16 L 32 8 z " style="fill:aqua;fill-opacity:1;fill-rule:nonzero;stroke:none;stroke-width:2;stroke-linecap:round;stroke-linejoin:miter;stroke-miterlimit:4;stroke-dasharray:none;stroke-dashoffset:0;stroke-opacity:1" />
      <path id="path3626" d="M 18 0 L 18 0.70703125 A 12 12 0 0 1 19 1.1152344 L 19 0 L 18 0 z M 20 0 L 20 1.0859375 A 8 8 0 0 1 21 0.59375 L 21 0 L 20 0 z M 22 0 L 22 0.26757812 A 8 8 0 0 1 23 0.072265625 L 23 0 L 22 0 z M 23.96875 0 L 23.96875 0.001953125 A 8 8 0 0 1 24 0 L 23.96875 0 z M 24 0 A 8 8 0 0 1 25 0.072265625 L 25 0 L 24 0 z M 26 0 L 26 0.25976562 A 8 8 0 0 1 27 0.58789062 L 27 0 L 26 0 z M 31.421875 5.03125 A 8 8 0 0 1 31.744141 6.03125 L 32 6.03125 L 32 5.03125 L 31.421875 5.03125 z M 31.935547 7.03125 A 8 8 0 0 1 32 8 L 32 7.03125 L 31.935547 7.03125 z M 31.929688 9.03125 A 8 8 0 0 1 31.726562 10.03125 L 32 10.03125 L 32 9.03125 L 31.929688 9.03125 z M 31.386719 11.03125 A 8 8 0 0 1 30.898438 12.03125 L 32 12.03125 L 32 11.03125 L 31.386719 11.03125 z M 31 13.03125 A 4 4 0 0 1 30.859375 14.03125 L 32 14.03125 L 32 13.03125 L 31 13.03125 z " style="fill:#c3c3c3;fill-opacity:1;fill-rule:nonzero;stroke:none;stroke-width:2;stroke-linecap:round;stroke-linejoin:miter;stroke-miterlimit:4;stroke-dasharray:none;stroke-dashoffset:0;stroke-opacity:1" />
      <path id="rect3926" d="M 15 0 L 15 0.044921875 A 12 12 0 0 1 17 0.3984375 L 17 0 L 15 0 z M 30.455078 15 A 4 4 0 0 1 29.931641 15.712891 A 8 8 0 0 1 31.226562 17 L 32 17 L 32 15 L 30.455078 15 z " style="fill:#0080ff;fill-opacity:1;fill-rule:nonzero;stroke:none;stroke-width:2;stroke-linecap:round;stroke-linejoin:miter;stroke-miterlimit:4;stroke-dasharray:none;stroke-dashoffset:0;stroke-opacity:1" />
      <path id="path3638" d="M 5 0 L 5 4.0859375 A 12 12 0 0 1 5.8027344 3.2558594 A 12 12 0 0 1 6 3.0722656 L 6 0 L 5 0 z M 7 0 L 7 2.265625 A 12 12 0 0 1 7.0078125 2.2597656 A 12 12 0 0 1 7.9804688 1.6328125 A 12 12 0 0 1 8 1.6191406 L 8 0 L 7 0 z M 9 0 L 9 1.1054688 A 12 12 0 0 1 10 0.70117188 L 10 0 L 9 0 z M 11 0 L 11 0.39453125 A 12 12 0 0 1 11.021484 0.390625 A 12 12 0 0 1 12 0.18164062 L 12 0 L 11 0 z M 13 0 L 13 0.05078125 A 12 12 0 0 1 14 0 L 13 0 z M 31.914062 18 A 8 8 0 0 1 32 18.140625 L 32 18 L 31.914062 18 z M 5 19.916016 L 5 20 A 8 8 0 0 1 5.0039062 19.919922 A 12 12 0 0 1 5 19.916016 z M 5 20 L 5 20.130859 A 4 4 0 0 1 5.0039062 20.128906 A 8 8 0 0 1 5 20 z M 31.917969 26 A 8 8 0 0 1 31.912109 26.007812 A 8 8 0 0 1 31.230469 26.992188 A 8 8 0 0 1 31.224609 27 L 32 27 L 32 26 L 31.917969 26 z M 17.003906 26.914062 A 8 8 0 0 1 16.851562 27 L 17 27 A 5 5 0 0 1 17.003906 26.914062 z " style="fill:#6b6b6b;fill-opacity:1;fill-rule:nonzero;stroke:none;stroke-width:2;stroke-linecap:round;stroke-linejoin:miter;stroke-miterlimit:4;stroke-dasharray:none;stroke-dashoffset:0;stroke-opacity:1" />
    </g>
    <g id="g5562">
      <rect y="0" x="36" height="32" width="32" id="rect5558" style="opacity:1;fill:blue;fill-opacity:0.50196078;fill-rule:nonzero;stroke:none;stroke-width:2;stroke-linecap:butt;stroke-linejoin:miter;stroke-miterlimit:4;stroke-dasharray:none;stroke-dashoffset:0;stroke-opacity:1" />
      <rect style="opacity:1;fill:blue;fill-opacity:0.50196078;fill-rule:nonzero;stroke:none;stroke-width:2;stroke-linecap:butt;stroke-linejoin:miter;stroke-miterlimit:4;stroke-dasharray:none;stroke-dashoffset:0;stroke-opacity:1" id="rect5560" width="26" height="26" x="39" y="3" />
    </g>
    <g id="g5575">
      <path inkscape:connector-curvature="0" id="rect5566" d="m 39,0 0,3 26,0 0,-3 -26,0 z m 26,3 0,26 3,0 0,-26 -3,0 z m 0,26 -26,0 0,3 26,0 0,-3 z m -26,0 0,-26 -3,0 0,26 3,0 z" style="opacity:1;fill:yellow;fill-opacity:0.50196078;fill-rule:nonzero;stroke:none;stroke-width:2;stroke-linecap:butt;stroke-linejoin:miter;stroke-miterlimit:4;stroke-dasharray:none;stroke-dashoffset:0;stroke-opacity:1" />
    </g>
    <circle style="opacity:1;fill:red;fill-opacity:0.50196078;fill-rule:nonzero;stroke:none;stroke-width:2;stroke-linecap:butt;stroke-linejoin:miter;stroke-miterlimit:4;stroke-dasharray:none;stroke-dashoffset:0;stroke-opacity:1" id="path4749" cx="60" cy="7.999999" r="8" />
    <circle style="opacity:1;fill:red;fill-opacity:0.50196078;fill-rule:nonzero;stroke:none;stroke-width:2;stroke-linecap:butt;stroke-linejoin:miter;stroke-miterlimit:4;stroke-dasharray:none;stroke-dashoffset:0;stroke-opacity:1" id="path4751" cx="50" cy="11.999999" r="12" />
    <circle r="8" cy="20" cx="49" id="circle4753" style="opacity:1;fill:red;fill-opacity:0.50196078;fill-rule:nonzero;stroke:none;stroke-width:2;stroke-linecap:butt;stroke-linejoin:miter;stroke-miterlimit:4;stroke-dasharray:none;stroke-dashoffset:0;stroke-opacity:1" />
    <circle r="4" cy="12.999999" cx="63" id="circle4759" style="opacity:1;fill:red;fill-opacity:0.50196078;fill-rule:nonzero;stroke:none;stroke-width:2;stroke-linecap:butt;stroke-linejoin:miter;stroke-miterlimit:4;stroke-dasharray:none;stroke-dashoffset:0;stroke-opacity:1" />
    <circle style="opacity:1;fill:red;fill-opacity:0.50196078;fill-rule:nonzero;stroke:none;stroke-width:2;stroke-linecap:butt;stroke-linejoin:miter;stroke-miterlimit:4;stroke-dasharray:none;stroke-dashoffset:0;stroke-opacity:1" id="circle4761" cx="58" cy="27" r="5" />
    <circle style="opacity:1;fill:red;fill-opacity:0.50196078;fill-rule:nonzero;stroke:none;stroke-width:2;stroke-linecap:butt;stroke-linejoin:miter;stroke-miterlimit:4;stroke-dasharray:none;stroke-dashoffset:0;stroke-opacity:1" id="circle4765" cx="47" cy="26" r="4" />
    <circle style="opacity:1;fill:red;fill-opacity:0.50196078;fill-rule:nonzero;stroke:none;stroke-width:2;stroke-linecap:butt;stroke-linejoin:miter;stroke-miterlimit:4;stroke-dasharray:none;stroke-dashoffset:0;stroke-opacity:1" id="circle4769" cx="42" cy="24" r="4" />
    <circle style="opacity:1;fill:red;fill-opacity:0.50196078;fill-rule:nonzero;stroke:none;stroke-width:2;stroke-linecap:butt;stroke-linejoin:miter;stroke-miterlimit:4;stroke-dasharray:none;stroke-dashoffset:0;stroke-opacity:1" id="circle4771" cx="61" cy="22" r="8" />
    <path inkscape:connector-curvature="0" id="path8097" d="m -22,0 a 12,12 0 0 0 -12,12 12,12 0 0 0 3.003906,7.919922 A 8,8 0 0 0 -31,20 8,8 0 0 0 -30.9961,20.128906 4,4 0 0 0 -34,24 a 4,4 0 0 0 4,4 4,4 0 0 0 1.404297,-0.255859 A 4,4 0 0 0 -25,30 4,4 0 0 0 -21.453125,27.841797 8,8 0 0 0 -18.996094,26.914062 5,5 0 0 0 -19,27 5,5 0 0 0 -14,32 5,5 0 0 0 -9.947266,29.919922 8,8 0 0 0 -3,22 8,8 0 0 0 -6.068359,15.712891 4,4 0 0 0 -5,13 4,4 0 0 0 -5.117188,12.060547 8,8 0 0 0 -4,8 8,8 0 0 0 -12,0 8,8 0 0 0 -16.458984,1.3652344 12,12 0 0 0 -22,0 Z" style="opacity:1;fill:red;fill-opacity:0.50196078;fill-rule:nonzero;stroke:none;stroke-width:2;stroke-linecap:butt;stroke-linejoin:miter;stroke-miterlimit:4;stroke-dasharray:none;stroke-dashoffset:0;stroke-opacity:1" />
  </g>
</svg>
