<?xml version="1.0" encoding="UTF-8" standalone="no"?>
<!-- Created with Inkscape (http://www.inkscape.org/) -->

<svg
   xmlns:dc="http://purl.org/dc/elements/1.1/"
   xmlns:cc="http://creativecommons.org/ns#"
   xmlns:rdf="http://www.w3.org/1999/02/22-rdf-syntax-ns#"
   xmlns:svg="http://www.w3.org/2000/svg"
   xmlns="http://www.w3.org/2000/svg"
   xmlns:sodipodi="http://sodipodi.sourceforge.net/DTD/sodipodi-0.dtd"
   xmlns:inkscape="http://www.inkscape.org/namespaces/inkscape"
   width="32px"
   height="32px"
   id="svg3505"
   sodipodi:version="0.32"
   inkscape:version="0.48.5 r10040"
   sodipodi:docname="04.svg"
   inkscape:output_extension="org.inkscape.output.svg.inkscape"
   version="1.1">
  <defs
     id="defs3507">
    <inkscape:perspective
       sodipodi:type="inkscape:persp3d"
       inkscape:vp_x="0 : 16 : 1"
       inkscape:vp_y="0 : 1000 : 0"
       inkscape:vp_z="32 : 16 : 1"
       inkscape:persp3d-origin="16 : 10.666667 : 1"
       id="perspective2836" />
    <inkscape:perspective
       id="perspective2899"
       inkscape:persp3d-origin="0.5 : 0.33333333 : 1"
       inkscape:vp_z="1 : 0.5 : 1"
       inkscape:vp_y="0 : 1000 : 0"
       inkscape:vp_x="0 : 0.5 : 1"
       sodipodi:type="inkscape:persp3d" />
    <inkscape:perspective
       id="perspective3072"
       inkscape:persp3d-origin="0.5 : 0.33333333 : 1"
       inkscape:vp_z="1 : 0.5 : 1"
       inkscape:vp_y="0 : 1000 : 0"
       inkscape:vp_x="0 : 0.5 : 1"
       sodipodi:type="inkscape:persp3d" />
    <inkscape:perspective
       id="perspective4021"
       inkscape:persp3d-origin="0.5 : 0.33333333 : 1"
       inkscape:vp_z="1 : 0.5 : 1"
       inkscape:vp_y="0 : 1000 : 0"
       inkscape:vp_x="0 : 0.5 : 1"
       sodipodi:type="inkscape:persp3d" />
    <inkscape:perspective
       id="perspective4256"
       inkscape:persp3d-origin="0.5 : 0.33333333 : 1"
       inkscape:vp_z="1 : 0.5 : 1"
       inkscape:vp_y="0 : 1000 : 0"
       inkscape:vp_x="0 : 0.5 : 1"
       sodipodi:type="inkscape:persp3d" />
    <inkscape:perspective
       id="perspective4413"
       inkscape:persp3d-origin="0.5 : 0.33333333 : 1"
       inkscape:vp_z="1 : 0.5 : 1"
       inkscape:vp_y="0 : 1000 : 0"
       inkscape:vp_x="0 : 0.5 : 1"
       sodipodi:type="inkscape:persp3d" />
  </defs>
  <sodipodi:namedview
     id="base"
     pagecolor="#ffffff"
     bordercolor="#666666"
     borderopacity="1.0"
     inkscape:pageopacity="0.0"
     inkscape:pageshadow="2"
     inkscape:zoom="16.5"
     inkscape:cx="16"
     inkscape:cy="16"
     inkscape:current-layer="layer1"
     showgrid="true"
     inkscape:grid-bbox="true"
     inkscape:document-units="px"
     objecttolerance="4"
     gridtolerance="4"
     guidetolerance="4"
     inkscape:window-width="1024"
     inkscape:window-height="741"
     inkscape:window-x="0"
     inkscape:window-y="2"
     inkscape:object-paths="true"
     inkscape:object-nodes="true"
     inkscape:snap-bbox="true"
     inkscape:snap-guide="true"
     showguides="true"
     inkscape:guide-bbox="true"
     inkscape:window-maximized="1">
    <inkscape:grid
       type="xygrid"
       id="grid3515"
       units="px"
       visible="true"
       enabled="true"
       spacingx="0.5px"
       spacingy="0.5px"
       empspacing="4"
       snapvisiblegridlinesonly="true" />
  </sodipodi:namedview>
  <metadata
     id="metadata3510">
    <rdf:RDF>
      <cc:Work
         rdf:about="">
        <dc:format>image/svg+xml</dc:format>
        <dc:type
           rdf:resource="http://purl.org/dc/dcmitype/StillImage" />
        <dc:title />
        <dc:date>2010-08-08</dc:date>
        <dc:creator>
          <cc:Agent>
            <dc:title>Andreas Neudecker &lt;zapyon@gmx.net&gt;</dc:title>
          </cc:Agent>
        </dc:creator>
        <dc:rights>
          <cc:Agent>
            <dc:title>Copyright (C) 2010 by Andreas Neudecker</dc:title>
          </cc:Agent>
        </dc:rights>
        <dc:publisher>
          <cc:Agent>
            <dc:title>Andreas Neudecker</dc:title>
          </cc:Agent>
        </dc:publisher>
        <dc:identifier>ghost-jumping-pill-04</dc:identifier>
        <dc:description>Jumping Pill for McMinos.</dc:description>
      </cc:Work>
    </rdf:RDF>
  </metadata>
  <g
     id="layer1"
     inkscape:label="Layer 1"
     inkscape:groupmode="layer">
    <path
       sodipodi:nodetypes="ccczc"
       id="path4885"
       d="m 14,17 -1.5,2 1,1.5 c 0,0 -0.506456,0.644274 -1,1 -0.493544,0.355726 -2,1 -2,1"
       style="fill:none;stroke:#000000;stroke-linecap:round;stroke-linejoin:round;stroke-opacity:1;stroke-width:3;stroke-miterlimit:4;stroke-dasharray:none" />
    <path
       sodipodi:nodetypes="ccczc"
       id="path4887"
       d="m 17,17 2,2 -0.5,2 c 0,0 1.495898,0.214582 2,0.5 0.504102,0.285418 1,1 1,1"
       style="fill:none;stroke:#000000;stroke-width:3;stroke-linecap:round;stroke-linejoin:round;stroke-miterlimit:4;stroke-opacity:1;stroke-dasharray:none;stroke-dashoffset:0" />
    <path
       style="fill:none;stroke:#ff0000;stroke-linecap:round;stroke-linejoin:round;stroke-opacity:1"
       d="m 14,17 -1.5,2 1,1.5 c 0,0 -0.506456,0.644274 -1,1 -0.493544,0.355726 -2,1 -2,1"
       id="path3101"
       sodipodi:nodetypes="ccczc" />
    <path
       style="fill:none;stroke:red;stroke-width:1;stroke-linecap:round;stroke-linejoin:round;stroke-miterlimit:4;stroke-opacity:1;stroke-dasharray:none;stroke-dashoffset:0"
       d="m 17,17 2,2 -0.5,2 c 0,0 1.495898,0.214582 2,0.5 0.504102,0.285418 1,1 1,1"
       id="path3875"
       sodipodi:nodetypes="ccczc"
       inkscape:connector-curvature="0" />
    <g
       id="g3526"
       transform="translate(0,-3)">
      <path
         style="fill:#00ff00;fill-opacity:1;fill-rule:nonzero;stroke:#000000;stroke-width:2;stroke-linecap:round;stroke-linejoin:round;stroke-miterlimit:4;stroke-opacity:1;stroke-dasharray:none;stroke-dashoffset:0"
         d="m 15,11 c -3,0 -4,1.275739 -4,4 0,3 1,5 4,5 3,0 5,-2 5,-5 0,-3 -2,-4 -5,-4 z"
         id="path3524"
         sodipodi:nodetypes="czzzz" />
      <path
         sodipodi:nodetypes="czzzz"
         id="path2735"
         d="m 15,11 c -3,0 -4,1.275739 -4,4 0,3 1,5 4,5 3,0 5,-2 5,-5 0,-3 -2,-4 -5,-4 z"
         style="fill:#00ff00;fill-opacity:1;fill-rule:nonzero;stroke:none" />
      <path
         id="path3507"
         d="m 14,13 -2.9375,1.21875 C 11.041108,14.464326 11,14.725104 11,15 c 0,3 1,5 4,5 1.258567,0 2.323516,-0.369839 3.15625,-1 C 17.280225,18.953125 15.425204,18.75 14.6875,18 13.703893,17 15,16 15,16 15,16 13.012807,16.605533 12.40625,15.6875 11.799692,14.769467 14,13 14,13 z"
         style="fill:#00c000;fill-opacity:1;fill-rule:nonzero;stroke:none" />
      <path
         id="path3512"
         d="m 15,11 c -0.667647,0 -1.206943,0.09048 -1.6875,0.21875 C 13.561078,11.195502 15,11.082317 15,12 c 0,0.842105 0,1.674301 0,2 0.04687,-0.663934 0.25,-2 1,-2 0.989012,0 2.772834,0.03034 2.8125,0.03125 C 17.933111,11.29631 16.614329,11 15,11 z"
         style="fill:#80ff00;fill-opacity:1;fill-rule:nonzero;stroke:none" />
      <path
         id="path3519"
         d="M 18.71875,11.9375 18.625,12 19.1875,12.40625 C 19.044956,12.236802 18.895244,12.072998 18.71875,11.9375 z m 0.46875,0.46875 c 0,0 -1.908811,0.434939 -2.1875,1.15625 -0.278689,0.721312 1,0.875 1,0.875 0,0 -1,0.5625 -1,1.5625 0,1 0.5,2.4375 0.5,2.4375 -1e-6,1e-6 -0.5,-1.978484 0.5,-2.4375 1,-0.459016 1.875,0.1875 1.875,0.1875 C 19.951185,15.808259 20,15.421493 20,15 20,13.864583 19.706252,13.022915 19.1875,12.40625 z"
         style="fill:#80ff00;fill-opacity:1;fill-rule:nonzero;stroke:none" />
    </g>
    <g
       id="g6742"
       transform="translate(0,-7)">
      <circle
         d="m 25,16 c 0,4.970563 -4.029437,9 -9,9 -4.970563,0 -9,-4.029437 -9,-9 0,-4.970563 4.029437,-9 9,-9 4.970563,0 9,4.029437 9,9 z"
         sodipodi:ry="9"
         sodipodi:rx="9"
         sodipodi:cy="16"
         sodipodi:cx="16"
         r="9"
         cy="16"
         cx="16"
         id="path6740"
         style="fill:black;fill-opacity:1;fill-rule:nonzero;stroke:none" />
      <circle
         d="m 24,16 c 0,4.418278 -3.581722,8 -8,8 -4.418278,0 -8,-3.581722 -8,-8 0,-4.418278 3.581722,-8 8,-8 4.418278,0 8,3.581722 8,8 z"
         sodipodi:ry="8"
         sodipodi:rx="8"
         sodipodi:cy="16"
         sodipodi:cx="16"
         r="8"
         cy="16"
         cx="16"
         id="path6718"
         style="fill:#ffa000;fill-opacity:1;fill-rule:nonzero;stroke:none" />
      <path
         inkscape:connector-curvature="0"
         id="circle6724"
         d="m 11.500249,10.554608 c -0.181074,0.179722 -0.354664,0.370827 -0.519282,0.574525 -2.2037751,2.726941 -2.0188664,6.959408 0.872835,9.197912 2.341937,1.812922 5.947598,1.622954 7.78508,-0.910124 1.420066,-1.957645 1.220903,-4.951979 -0.97089,-6.376391 -0.788201,-0.512238 -1.734238,-0.704173 -2.648889,-0.555189 -0.914651,0.148983 -1.831278,0.695201 -2.320194,1.640709 -0.314896,0.608971 -0.390406,1.287181 -0.215447,1.963878 0.17496,0.676697 0.742137,1.404668 1.593752,1.593753 0.653054,0.144998 0.997924,-0.01426 1.437694,-0.327312 0.219884,-0.156528 0.487297,-0.404567 0.581428,-0.849359 0.09413,-0.444788 -0.122859,-0.948737 -0.38808,-1.213958 a 1.0001,1.0001 0 0 0 -1.242961,-0.151917 c 0.0086,-0.02845 -5.87e-4,-0.07546 0.0097,-0.0953 0.179123,-0.346403 0.463006,-0.521328 0.86593,-0.586954 0.402921,-0.06563 0.891514,0.03435 1.236056,0.258259 1.132895,0.73625 1.242431,2.421486 0.443323,3.523105 -1.120328,1.544438 -3.441402,1.666375 -4.942842,0.504089 -1.944795,-1.505491 -2.073583,-4.462495 -0.541379,-6.358436 1.890879,-2.339764 5.486393,-2.4738437 7.774031,-0.567619 2.73176,2.276298 2.869858,6.513354 0.586954,9.191007 a 1.0001,1.0001 0 0 0 -0.02486,1.325828 8,8 0 0 0 0.785827,-0.678104 8,8 0 0 0 0.0055,-11.308184 c -0.002,-0.0017 -0.0035,-0.0038 -0.0055,-0.0055 a 8,8 0 0 0 -0.06628,-0.06077 C 18.674067,7.8513473 14.216359,7.8587825 11.500249,10.554608 z"
         style="fill:#520;fill-opacity:1;fill-rule:nonzero;stroke:none"
         inkscape:transform-center-x="-0.74279474"
         inkscape:transform-center-y="-0.58387768" />
      <path
         inkscape:transform-center-y="-1.1768185"
         inkscape:transform-center-x="-1.1712349"
         inkscape:connector-curvature="0"
         id="circle6729"
         d="m 16.117188,8 a 8,8 0 0 0 -5.773438,2.34375 l 0.707031,0.707031 A 7,7 0 0 1 17.8125,9.2382812 7,7 0 0 1 22.761719,14.1875 a 7,7 0 0 1 -1.8125,6.761719 L 21.65625,21.65625 A 8,8 0 0 0 23.726562,13.929688 8,8 0 0 0 18.070312,8.2734375 8,8 0 0 0 16.117188,8 z"
         style="fill:#fc0;fill-opacity:0.25098039;fill-rule:nonzero;stroke:none" />
      <path
         style="fill:#520;fill-opacity:0.25098039;fill-rule:nonzero;stroke:none"
         d="m 15.88312,24.009058 a 8,8 0 0 0 5.773438,-2.34375 l -0.707031,-0.707031 a 7,7 0 0 1 -6.761719,1.8125 7,7 0 0 1 -4.9492191,-4.949219 7,7 0 0 1 1.8125001,-6.761719 l -0.707031,-0.707031 a 8,8 0 0 0 -2.0703121,7.726562 8,8 0 0 0 5.6562501,5.656251 8,8 0 0 0 1.953124,0.273437 z"
         id="path6738"
         inkscape:connector-curvature="0"
         inkscape:transform-center-x="1.1712349"
         inkscape:transform-center-y="1.1768183" />
    </g>
  </g>
</svg>
