<?xml version="1.0" encoding="UTF-8" standalone="no"?>
<!-- Created with Inkscape (http://www.inkscape.org/) -->

<svg xmlns:dc="http://purl.org/dc/elements/1.1/" xmlns:cc="http://creativecommons.org/ns#" xmlns:rdf="http://www.w3.org/1999/02/22-rdf-syntax-ns#" xmlns:svg="http://www.w3.org/2000/svg" xmlns="http://www.w3.org/2000/svg" xmlns:sodipodi="http://sodipodi.sourceforge.net/DTD/sodipodi-0.dtd" xmlns:inkscape="http://www.inkscape.org/namespaces/inkscape" width="32px" height="32px" id="svg3505" sodipodi:version="0.32" inkscape:version="0.91 r13725" sodipodi:docname="00.svg" inkscape:output_extension="org.inkscape.output.svg.inkscape" version="1.1">
  <defs id="defs3507">
    <inkscape:perspective sodipodi:type="inkscape:persp3d" inkscape:vp_x="0 : 16 : 1" inkscape:vp_y="0 : 1000 : 0" inkscape:vp_z="32 : 16 : 1" inkscape:persp3d-origin="16 : 10.666667 : 1" id="perspective3513" />
    <inkscape:perspective id="perspective4690" inkscape:persp3d-origin="372.04724 : 350.78739 : 1" inkscape:vp_z="744.09448 : 526.18109 : 1" inkscape:vp_y="0 : 1000 : 0" inkscape:vp_x="0 : 526.18109 : 1" sodipodi:type="inkscape:persp3d" />
    <inkscape:perspective id="perspective2564" inkscape:persp3d-origin="372.04724 : 350.78739 : 1" inkscape:vp_z="744.09448 : 526.18109 : 1" inkscape:vp_y="0 : 1000 : 0" inkscape:vp_x="0 : 526.18109 : 1" sodipodi:type="inkscape:persp3d" />
  </defs>
  <sodipodi:namedview id="base" pagecolor="#ffffff" bordercolor="#666666" borderopacity="1.0" inkscape:pageopacity="0.0" inkscape:pageshadow="2" inkscape:zoom="22.125" inkscape:cx="16" inkscape:cy="16" inkscape:current-layer="layer1" showgrid="true" inkscape:grid-bbox="true" inkscape:document-units="px" objecttolerance="4" gridtolerance="4" guidetolerance="4" inkscape:window-width="1600" inkscape:window-height="878" inkscape:window-x="0" inkscape:window-y="0" inkscape:object-paths="true" inkscape:object-nodes="true" inkscape:snap-bbox="true" inkscape:snap-guide="true" showguides="true" inkscape:guide-bbox="true" inkscape:window-maximized="1">
    <inkscape:grid type="xygrid" id="grid3515" units="px" visible="true" enabled="true" spacingx="1px" spacingy="1px" empspacing="4" />
    <sodipodi:guide orientation="-0.70710678,0.70710678" position="33.245902,33.245902" id="guide3622" />
    <sodipodi:guide orientation="0.70710678,0.70710678" position="0,32" id="guide3624" />
  </sodipodi:namedview>
  <metadata id="metadata3510">
    <rdf:RDF>
      <cc:Work rdf:about="">
        <dc:format>image/svg+xml</dc:format>
        <dc:type rdf:resource="http://purl.org/dc/dcmitype/StillImage" />
        <dc:title>Vorlage f端r 32x32-Pixel-Icons f端r McMinos</dc:title>
        <dc:date>2010-04-05</dc:date>
        <dc:creator>
          <cc:Agent>
            <dc:title>Andreas Neudecker &lt;zapyon@gmx.net&gt;</dc:title>
          </cc:Agent>
        </dc:creator>
        <dc:rights>
          <cc:Agent>
            <dc:title>Copyright (C) 2010 by Andreas Neudecker</dc:title>
          </cc:Agent>
        </dc:rights>
        <dc:publisher>
          <cc:Agent>
            <dc:title>Andreas Neudecker</dc:title>
          </cc:Agent>
        </dc:publisher>
        <dc:identifier>vorlage-32x32-mcminos</dc:identifier>
        <dc:description>Vorlage f端r 32x32-Pixel-Icons f端r McMinos. Metadaten jeweils entsprechend anpassen!</dc:description>
      </cc:Work>
    </rdf:RDF>
  </metadata>
  <g id="layer1" inkscape:label="Layer 1" inkscape:groupmode="layer">
    <g id="g8911">
      <rect y="0" x="36" height="32" width="32" id="rect5558" style="opacity:1;fill:blue;fill-opacity:0.50196078;fill-rule:nonzero;stroke:none;stroke-width:2;stroke-linecap:butt;stroke-linejoin:miter;stroke-miterlimit:4;stroke-dasharray:none;stroke-dashoffset:0;stroke-opacity:1" />
      <rect style="opacity:1;fill:blue;fill-opacity:0.50196078;fill-rule:nonzero;stroke:none;stroke-width:2;stroke-linecap:butt;stroke-linejoin:miter;stroke-miterlimit:4;stroke-dasharray:none;stroke-dashoffset:0;stroke-opacity:1" id="rect5560" width="26" height="26" x="39" y="3" />
      <path inkscape:connector-curvature="0" id="rect5566" d="m 39,0 0,3 26,0 0,-3 -26,0 z m 26,3 0,26 3,0 0,-26 -3,0 z m 0,26 -26,0 0,3 26,0 0,-3 z m -26,0 0,-26 -3,0 0,26 3,0 z" style="opacity:1;fill:yellow;fill-opacity:0.50196078;fill-rule:nonzero;stroke:none;stroke-width:2;stroke-linecap:butt;stroke-linejoin:miter;stroke-miterlimit:4;stroke-dasharray:none;stroke-dashoffset:0;stroke-opacity:1" />
    </g>
    <g id="g8962">
      <rect y="0" x="0" height="32" width="32" id="rect8960" style="opacity:1;fill:none;fill-opacity:0.50364966;fill-rule:nonzero;stroke:none;stroke-width:2;stroke-linecap:butt;stroke-linejoin:miter;stroke-miterlimit:4;stroke-dasharray:none;stroke-dashoffset:0;stroke-opacity:1" />
      <path id="path3635" d="M 3 0 L 3 0.61914062 A 12 12 0 0 1 4.2167969 0 L 3 0 z M 13.748047 0 A 12 12 0 0 1 16.333984 1.5097656 A 8 8 0 0 1 21 0 L 13.748047 0 z M 21 0 A 8 8 0 0 1 26.578125 2.265625 A 4 4 0 0 1 28 2 A 4 4 0 0 1 29 2.1308594 L 29 0 L 21 0 z M 29 9.8652344 A 4 4 0 0 1 28.755859 9.9257812 A 8 8 0 0 1 25.689453 14.472656 A 8 8 0 0 1 29 16.726562 L 29 9.8652344 z M 3 21.357422 L 3 26 A 8 8 0 0 1 4.1152344 21.943359 A 12 12 0 0 1 3 21.357422 z M 3 26 L 3 29 L 3 32 L 5.7226562 32 A 8 8 0 0 1 3 26 z M 29 27.273438 A 8 8 0 0 1 28.394531 27.894531 A 4 4 0 0 1 29 30 L 29 29 L 29 27.273438 z M 29 30 A 4 4 0 0 1 28.458984 32 L 29 32 L 29 30 z M 20.644531 29.636719 A 4 4 0 0 1 17 32 L 21.541016 32 A 4 4 0 0 1 21 30 A 4 4 0 0 1 21.009766 29.742188 A 8 8 0 0 1 20.644531 29.636719 z M 17 32 A 4 4 0 0 1 16.341797 31.943359 A 8 8 0 0 1 16.277344 32 L 17 32 z " style="fill:black;fill-opacity:1;fill-rule:nonzero;stroke:none;stroke-width:2;stroke-linecap:round;stroke-linejoin:miter;stroke-miterlimit:4;stroke-dashoffset:0;stroke-opacity:1" />
      <path id="path3648" d="M 16 0 L 16 1.2773438 A 12 12 0 0 1 16.333984 1.5097656 A 8 8 0 0 1 21 0 L 16 0 z M 21 0 A 8 8 0 0 1 26.578125 2.265625 A 4 4 0 0 1 28 2 L 28 0 L 21 0 z M 28 11.833984 A 8 8 0 0 1 25.689453 14.472656 A 8 8 0 0 1 28 15.765625 L 28 11.833984 z M 20.644531 29.636719 A 4 4 0 0 1 17 32 L 21.541016 32 A 4 4 0 0 1 21 30 A 4 4 0 0 1 21.009766 29.742188 A 8 8 0 0 1 20.644531 29.636719 z M 17 32 A 4 4 0 0 1 16.341797 31.943359 A 8 8 0 0 1 16.277344 32 L 17 32 z " style="fill:aqua;fill-opacity:1;fill-rule:nonzero;stroke:none;stroke-width:2;stroke-linecap:round;stroke-linejoin:miter;stroke-miterlimit:4;stroke-dasharray:none;stroke-dashoffset:0;stroke-opacity:1" />
      <path id="path3644" d="M 4 0 L 4 0.10546875 A 12 12 0 0 1 4.2167969 0 L 4 0 z M 13.748047 0 A 12 12 0 0 1 16 1.2773438 L 16 0 L 13.748047 0 z M 4 21.888672 L 4 22.162109 A 8 8 0 0 1 4.1152344 21.943359 A 12 12 0 0 1 4 21.888672 z M 4 29.871094 L 4 32 L 5.7226562 32 A 8 8 0 0 1 4 29.871094 z " style="fill:blue;fill-opacity:1;fill-rule:nonzero;stroke:none;stroke-width:2;stroke-linecap:round;stroke-linejoin:miter;stroke-miterlimit:4;stroke-dasharray:none;stroke-dashoffset:0;stroke-opacity:1" />
      <path id="path3626" d="M 18 0 L 18 0.59375 A 8 8 0 0 1 19 0.26757812 L 19 0 L 18 0 z M 20 0 L 20 0.072265625 A 8 8 0 0 1 21 0 L 20 0 z M 22 0 L 22 0.072265625 A 8 8 0 0 1 23 0.25976562 L 23 0 L 22 0 z M 23.96875 0 L 23.96875 0.57617188 A 8 8 0 0 1 25 1.0820312 L 25 0 L 23.96875 0 z M 26 0 L 26 1.7578125 A 8 8 0 0 1 26.578125 2.265625 A 4 4 0 0 1 27 2.1347656 L 27 0 L 26 0 z M 27 13.269531 A 8 8 0 0 1 26 14.222656 L 26 14.597656 A 8 8 0 0 1 27 15.089844 L 27 13.269531 z M 20.644531 29.636719 A 4 4 0 0 1 20 30.630859 L 20 32 L 21 32 L 21 30 L 21 29.740234 A 8 8 0 0 1 20.644531 29.636719 z M 19 31.457031 A 4 4 0 0 1 18 31.867188 L 18 32 L 19 32 L 19 31.457031 z " style="fill:#c3c3c3;fill-opacity:1;fill-rule:nonzero;stroke:none;stroke-width:2;stroke-linecap:round;stroke-linejoin:miter;stroke-miterlimit:4;stroke-dasharray:none;stroke-dashoffset:0;stroke-opacity:1" />
      <path id="path3638" d="M 13.748047 0 A 12 12 0 0 1 14 0.109375 L 14 0 L 13.748047 0 z M 5 31.28125 L 5 32 L 5.7226562 32 A 8 8 0 0 1 5 31.28125 z " style="fill:#6b6b6b;fill-opacity:1;fill-rule:nonzero;stroke:none;stroke-width:2;stroke-linecap:round;stroke-linejoin:miter;stroke-miterlimit:4;stroke-dasharray:none;stroke-dashoffset:0;stroke-opacity:1" />
      <path id="rect3926" d="M 15 0 L 15 0.62890625 A 12 12 0 0 1 16.333984 1.5097656 A 8 8 0 0 1 17 1.0859375 L 17 0 L 15 0 z M 16.341797 31.943359 A 8 8 0 0 1 16.277344 32 L 17 32 A 4 4 0 0 1 16.341797 31.943359 z " style="fill:#0080ff;fill-opacity:1;fill-rule:nonzero;stroke:none;stroke-width:2;stroke-linecap:round;stroke-linejoin:miter;stroke-miterlimit:4;stroke-dasharray:none;stroke-dashoffset:0;stroke-opacity:1" />
    </g>
    <circle style="opacity:1;fill:red;fill-opacity:0.50196078;fill-rule:nonzero;stroke:none;stroke-width:2;stroke-linecap:butt;stroke-linejoin:miter;stroke-miterlimit:4;stroke-dasharray:none;stroke-dashoffset:0;stroke-opacity:1" id="path4749" cx="-22.000002" cy="-59" r="8" transform="matrix(0,-1,-1,0,0,0)" />
    <circle style="opacity:1;fill:red;fill-opacity:0.50196078;fill-rule:nonzero;stroke:none;stroke-width:2;stroke-linecap:butt;stroke-linejoin:miter;stroke-miterlimit:4;stroke-dasharray:none;stroke-dashoffset:0;stroke-opacity:1" id="path4751" cx="-11.000002" cy="-45" r="12" transform="matrix(0,-1,-1,0,0,0)" />
    <circle r="8" cy="-47" cx="-26.000002" id="circle4753" style="opacity:1;fill:red;fill-opacity:0.50196078;fill-rule:nonzero;stroke:none;stroke-width:2;stroke-linecap:butt;stroke-linejoin:miter;stroke-miterlimit:4;stroke-dasharray:none;stroke-dashoffset:0;stroke-opacity:1" transform="matrix(0,-1,-1,0,0,0)" />
    <circle r="4" cy="-64" cx="-6.000001" id="circle4759" style="opacity:1;fill:red;fill-opacity:0.50196078;fill-rule:nonzero;stroke:none;stroke-width:2;stroke-linecap:butt;stroke-linejoin:miter;stroke-miterlimit:4;stroke-dasharray:none;stroke-dashoffset:0;stroke-opacity:1" transform="matrix(0,-1,-1,0,0,0)" />
    <circle style="opacity:1;fill:red;fill-opacity:0.50196078;fill-rule:nonzero;stroke:none;stroke-width:2;stroke-linecap:butt;stroke-linejoin:miter;stroke-miterlimit:4;stroke-dasharray:none;stroke-dashoffset:0;stroke-opacity:1" id="circle4761" cx="-10.000001" cy="-41" r="4" transform="matrix(0,-1,-1,0,0,0)" />
    <circle style="opacity:1;fill:red;fill-opacity:0.50196078;fill-rule:nonzero;stroke:none;stroke-width:2;stroke-linecap:butt;stroke-linejoin:miter;stroke-miterlimit:4;stroke-dasharray:none;stroke-dashoffset:0;stroke-opacity:1" id="circle4765" cx="-30" cy="-61" r="4" transform="matrix(0,-1,-1,0,0,0)" />
    <circle style="opacity:1;fill:red;fill-opacity:0.50196078;fill-rule:nonzero;stroke:none;stroke-width:2;stroke-linecap:butt;stroke-linejoin:miter;stroke-miterlimit:4;stroke-dasharray:none;stroke-dashoffset:0;stroke-opacity:1" id="circle4769" cx="-28" cy="-53" r="4" transform="matrix(0,-1,-1,0,0,0)" />
    <circle style="opacity:1;fill:red;fill-opacity:0.50196078;fill-rule:nonzero;stroke:none;stroke-width:2;stroke-linecap:butt;stroke-linejoin:miter;stroke-miterlimit:4;stroke-dasharray:none;stroke-dashoffset:0;stroke-opacity:1" id="circle4771" cx="-8.000001" cy="-57" r="8" transform="matrix(0,-1,-1,0,0,0)" />
    <path inkscape:connector-curvature="0" id="path8933" d="M -27,-1 A 12,12 0 0 0 -39,11 12,12 0 0 0 -31.884766,21.943359 8,8 0 0 0 -33,26 a 8,8 0 0 0 8,8 8,8 0 0 0 5.341797,-2.056641 A 4,4 0 0 0 -19,32 a 4,4 0 0 0 3.644531,-2.363281 8,8 0 0 0 0.365235,0.105469 A 4,4 0 0 0 -15,30 4,4 0 0 0 -11,34 4,4 0 0 0 -7,30 4,4 0 0 0 -7.605469,27.894531 8,8 0 0 0 -5,22 8,8 0 0 0 -10.310547,14.472656 8,8 0 0 0 -7.244141,9.9257812 4,4 0 0 0 -4,6 4,4 0 0 0 -8,2 4,4 0 0 0 -9.421875,2.265625 8,8 0 0 0 -15,0 8,8 0 0 0 -19.666016,1.5097656 12,12 0 0 0 -27,-1 Z" style="opacity:1;fill:red;fill-opacity:0.50196078;fill-rule:nonzero;stroke:none;stroke-width:2;stroke-linecap:butt;stroke-linejoin:miter;stroke-miterlimit:4;stroke-dasharray:none;stroke-dashoffset:0;stroke-opacity:1" />
  </g>
</svg>
