<?xml version="1.0" encoding="UTF-8" standalone="no"?>
<!-- Created with Inkscape (http://www.inkscape.org/) -->

<svg
   xmlns:dc="http://purl.org/dc/elements/1.1/"
   xmlns:cc="http://creativecommons.org/ns#"
   xmlns:rdf="http://www.w3.org/1999/02/22-rdf-syntax-ns#"
   xmlns:svg="http://www.w3.org/2000/svg"
   xmlns="http://www.w3.org/2000/svg"
   xmlns:sodipodi="http://sodipodi.sourceforge.net/DTD/sodipodi-0.dtd"
   xmlns:inkscape="http://www.inkscape.org/namespaces/inkscape"
   width="32px"
   height="32px"
   id="svg2816"
   version="1.1"
   inkscape:version="0.47 r22583"
   sodipodi:docname="pill-ball-large-00.svg">
  <defs
     id="defs2818">
    <inkscape:perspective
       sodipodi:type="inkscape:persp3d"
       inkscape:vp_x="0 : 16 : 1"
       inkscape:vp_y="0 : 1000 : 0"
       inkscape:vp_z="32 : 16 : 1"
       inkscape:persp3d-origin="16 : 10.666667 : 1"
       id="perspective2824" />
  </defs>
  <sodipodi:namedview
     id="base"
     pagecolor="#ffffff"
     bordercolor="#666666"
     borderopacity="1.0"
     inkscape:pageopacity="0.0"
     inkscape:pageshadow="2"
     inkscape:zoom="18.53125"
     inkscape:cx="16"
     inkscape:cy="16"
     inkscape:current-layer="layer1"
     showgrid="false"
     inkscape:grid-bbox="true"
     inkscape:document-units="px"
     inkscape:window-width="793"
     inkscape:window-height="834"
     inkscape:window-x="0"
     inkscape:window-y="0"
     inkscape:window-maximized="0"
     showguides="true"
     inkscape:guide-bbox="true"
     objecttolerance="4"
     gridtolerance="4"
     guidetolerance="4"
     inkscape:snap-to-guides="true"
     inkscape:snap-grids="true">
    <inkscape:grid
       type="xygrid"
       id="grid2826"
       units="px"
       empspacing="4"
       visible="true"
       enabled="true"
       snapvisiblegridlinesonly="true"
       spacingx="1px"
       spacingy="1px" />
    <sodipodi:guide
       orientation="0.70710678,0.70710678"
       position="16,16"
       id="guide4567" />
    <sodipodi:guide
       orientation="0.70710678,0.70710678"
       position="17,17"
       id="guide4573" />
    <sodipodi:guide
       orientation="0.70710678,0.70710678"
       position="15,15"
       id="guide4575" />
  </sodipodi:namedview>
  <metadata
     id="metadata2821">
    <rdf:RDF>
      <cc:Work
         rdf:about="">
        <dc:format>image/svg+xml</dc:format>
        <dc:type
           rdf:resource="http://purl.org/dc/dcmitype/StillImage" />
        <dc:title></dc:title>
      </cc:Work>
    </rdf:RDF>
  </metadata>
  <g
     id="layer1"
     inkscape:label="Layer 1"
     inkscape:groupmode="layer">
    <g
       id="g4628">
      <rect
         y="0"
         x="0"
         height="32"
         width="32"
         id="rect2818"
         style="fill:none;stroke:none" />
      <g
         id="g4616">
        <path
           sodipodi:type="arc"
           style="fill:#000000;fill-opacity:1;fill-rule:nonzero;stroke:none"
           id="path2830"
           sodipodi:cx="10"
           sodipodi:cy="10"
           sodipodi:rx="7"
           sodipodi:ry="7"
           d="M 17,10 A 7,7 0 1 1 3,10 7,7 0 1 1 17,10 z"
           transform="translate(6,6)" />
        <path
           sodipodi:type="arc"
           style="fill:#ffffff;fill-opacity:1;fill-rule:nonzero;stroke:none"
           id="path2828"
           sodipodi:cx="10"
           sodipodi:cy="10"
           sodipodi:rx="6"
           sodipodi:ry="6"
           d="M 16,10 A 6,6 0 1 1 4,10 6,6 0 1 1 16,10 z"
           transform="translate(6,6)" />
        <path
           sodipodi:type="arc"
           style="fill:#ffffff;fill-opacity:0.80059521;fill-rule:nonzero;stroke:none"
           id="path3606"
           sodipodi:cx="9.5"
           sodipodi:cy="9.5"
           sodipodi:rx="1.5"
           sodipodi:ry="1.5"
           d="m 11,9.5 a 1.5,1.5 0 1 1 -3,0 1.5,1.5 0 1 1 3,0 z"
           transform="translate(8.5,4)" />
        <path
           transform="translate(6,6)"
           d="M 14.242641,14.242641 A 6,6 0 0 1 5.7573592,5.7573594 L 10,10 z"
           sodipodi:ry="6"
           sodipodi:rx="6"
           sodipodi:cy="10"
           sodipodi:cx="10"
           id="path4569"
           style="fill:#ffff40;fill-opacity:1;fill-rule:nonzero;stroke:none"
           sodipodi:type="arc"
           sodipodi:start="0.78539816"
           sodipodi:end="3.9269908" />
        <path
           sodipodi:end="7.0685835"
           sodipodi:start="3.9269908"
           sodipodi:type="arc"
           style="fill:#ffffff;fill-opacity:1;fill-rule:nonzero;stroke:none"
           id="path4571"
           sodipodi:cx="10"
           sodipodi:cy="10"
           sodipodi:rx="6"
           sodipodi:ry="6"
           d="M 5.7573592,5.7573594 A 6,6 0 1 1 14.242641,14.242641 L 10,10 z"
           transform="translate(6,6)" />
        <path
           transform="matrix(0.83333333,0,0,0.83333333,7.6666667,7.6666667)"
           d="M 16,10 A 6,6 0 1 1 4,10 6,6 0 1 1 16,10 z"
           sodipodi:ry="6"
           sodipodi:rx="6"
           sodipodi:cy="10"
           sodipodi:cx="10"
           id="path4557"
           style="fill:#ffff80;fill-opacity:1;fill-rule:nonzero;stroke:none"
           sodipodi:type="arc" />
        <path
           style="fill:#000000;fill-opacity:0.1254902;fill-rule:nonzero;stroke:none"
           d="M 11.75 11.75 C 9.4068543 14.093146 9.4068543 17.906854 11.75 20.25 C 14.093146 22.593146 17.906854 22.593146 20.25 20.25 L 19.53125 19.53125 C 18.626428 20.436072 17.380712 21 16 21 C 13.238576 21 11 18.761424 11 16 C 11 14.619288 11.563928 13.373572 12.46875 12.46875 L 11.75 11.75 z "
           id="path4585" />
        <path
           style="fill:#ffffff;fill-opacity:1;fill-rule:nonzero;stroke:none"
           d="m 11.728585,11.728585 -0.14217,1.85783 6.801321,6.801321 1.85783,-0.14217 -8.516981,-8.516981 z"
           id="path4577"
           sodipodi:nodetypes="ccccc" />
        <path
           sodipodi:nodetypes="ccccc"
           id="path4581"
           d="m 20.271415,20.271415 0.14217,-1.85783 -6.801321,-6.801321 -1.85783,0.14217 8.516981,8.516981 z"
           style="fill:#ffff40;fill-opacity:1;fill-rule:nonzero;stroke:none"
           inkscape:transform-center-x="-0.0840095"
           inkscape:transform-center-y="-0.0581605" />
        <path
           inkscape:transform-center-y="-0.0581605"
           inkscape:transform-center-x="-0.0840095"
           style="fill:#000000;fill-opacity:0.1254902;fill-rule:nonzero;stroke:none"
           d="m 20.271415,20.271415 0.14217,-1.85783 -6.801321,-6.801321 -1.85783,0.14217 8.516981,8.516981 z"
           id="path4588"
           sodipodi:nodetypes="ccccc" />
      </g>
    </g>
  </g>
</svg>
