<?xml version="1.0" encoding="UTF-8" standalone="no"?>
<!-- Created with Inkscape (http://www.inkscape.org/) -->

<svg
   xmlns:dc="http://purl.org/dc/elements/1.1/"
   xmlns:cc="http://creativecommons.org/ns#"
   xmlns:rdf="http://www.w3.org/1999/02/22-rdf-syntax-ns#"
   xmlns:svg="http://www.w3.org/2000/svg"
   xmlns="http://www.w3.org/2000/svg"
   xmlns:sodipodi="http://sodipodi.sourceforge.net/DTD/sodipodi-0.dtd"
   xmlns:inkscape="http://www.inkscape.org/namespaces/inkscape"
   width="32"
   height="32"
   id="svg4150"
   version="1.1"
   inkscape:version="0.48.5 r10040"
   viewBox="0 0 32 32"
   sodipodi:docname="01.svg">
  <defs
     id="defs4152" />
  <sodipodi:namedview
     id="base"
     pagecolor="#ffffff"
     bordercolor="#666666"
     borderopacity="1.0"
     inkscape:pageopacity="0.0"
     inkscape:pageshadow="2"
     inkscape:zoom="16.5"
     inkscape:cx="16"
     inkscape:cy="16"
     inkscape:current-layer="layer1"
     showgrid="true"
     inkscape:grid-bbox="true"
     inkscape:document-units="px"
     objecttolerance="10000"
     inkscape:snap-perpendicular="true"
     guidetolerance="10000"
     inkscape:window-width="1024"
     inkscape:window-height="741"
     inkscape:window-x="0"
     inkscape:window-y="2"
     inkscape:window-maximized="1"
     showguides="true"
     inkscape:guide-bbox="true">
    <inkscape:grid
       type="xygrid"
       id="grid4698"
       empspacing="4"
       visible="true"
       enabled="true"
       snapvisiblegridlinesonly="true" />
    <sodipodi:guide
       position="16,32"
       orientation="1,0"
       id="guide4769" />
    <sodipodi:guide
       position="-4,16"
       orientation="0,1"
       id="guide4771" />
    <sodipodi:guide
       position="16,16"
       orientation="-0.70710678,0.70710678"
       id="guide4773" />
    <sodipodi:guide
       position="16,16"
       orientation="0.70710678,0.70710678"
       id="guide4775" />
  </sodipodi:namedview>
  <metadata
     id="metadata4155">
    <rdf:RDF>
      <cc:Work
         rdf:about="">
        <dc:format>image/svg+xml</dc:format>
        <dc:type
           rdf:resource="http://purl.org/dc/dcmitype/StillImage" />
        <dc:title />
      </cc:Work>
    </rdf:RDF>
  </metadata>
  <g
     id="layer1"
     inkscape:label="Layer 1"
     inkscape:groupmode="layer">
    <g
       id="g3002"
       transform="translate(0,-0.99999952)">
      <path
         inkscape:connector-curvature="0"
         id="path3071"
         d="m 15,3.999515 0,1 -2,1 1,1 0.5,1.03125 c -1.655396,1.580454 -4.033,2.911954 -5.03125,4.499999 L 9,12.999514 l 0,-1 -1,1 -2,-1 1,2 -1,0 1,1 0,1 1,-1 0.4375,0.4375 c -1.2977903,2.882305 -3.6277966,6.67178 -2.4375,9.5625 1.397993,3.395126 5.735869,5.959645 10,6 4.264131,0.04036 8.743321,-2.439409 10,-6 1.083313,-3.069388 -1.674556,-6.79704 -3.3125,-9.6875 l 0.3125,-0.3125 2,1 -1,-2 1,-1 -1,0 0,-1 -1,1 -0.75,-0.75 C 21.255216,9.8926393 19.95951,6.9182351 17.90625,6.093265 L 18,5.999515 l -0.4375,0 C 17.383113,5.9503491 17.190104,5.9196159 17,5.905765 l 0,-1.90625 -1,1 -1,-1 z"
         style="fill:#e6e6e6;fill-opacity:1;stroke:black;stroke-width:2;stroke-linejoin:round;stroke-miterlimit:4;stroke-opacity:1;stroke-dasharray:none" />
      <path
         sodipodi:nodetypes="zzzccz"
         inkscape:connector-curvature="0"
         id="path3050"
         d="m 6,24.999514 c 1.397993,3.395126 5.735869,5.959645 10,6 4.264131,0.04036 8.743321,-2.439409 10,-6 1.256679,-3.560591 -2.666667,-8 -4,-11 -4.333333,0 -8.666667,0 -13,0 -0.9375,2.9375 -4.397993,7.604874 -3,11 z"
         style="fill:#e6e6e6;fill-opacity:1;stroke:none" />
      <path
         sodipodi:nodetypes="cccc"
         inkscape:connector-curvature="0"
         id="path2993"
         d="m 16,5.999515 c -1.237307,3.1254149 -7,5 -7,7.999999 l 14,0 C 21.700321,11.229689 19.832512,5.0168858 16,5.999515 z"
         style="fill:#d40000;fill-opacity:1;stroke:none" />
      <path
         inkscape:connector-curvature="0"
         id="path3858"
         d="M 16.6875,5.905765 C 16.462976,5.913565 16.239532,5.938101 16,5.999515 l 1.5625,0 C 17.285542,5.923607 16.990298,5.8952494 16.6875,5.905765 z M 16,5.999515 c -1.237307,3.1254149 -7,5 -7,7.999999 l 2,0 c -0.831519,-3.147571 4.869163,-4.372146 5,-7.999999 z"
         style="fill:black;fill-opacity:0.25098039;stroke:none" />
      <path
         sodipodi:nodetypes="ccccccccccccc"
         inkscape:connector-curvature="0"
         id="path2995"
         d="m 17,3.999515 -1,1 -1,-1 0,1 -2,1 1,1 1,2 1,-1 1,0 0,-1 1,-1 -1,0 z"
         style="fill:white;fill-opacity:1;stroke:none" />
      <path
         sodipodi:nodetypes="ccccccccccccccccccccccccccccccccccccccccccccccccc"
         inkscape:connector-curvature="0"
         id="path2997"
         d="m 8,12.999514 1,-1 0,1 1,-1 1,1 1,-1.999999 1,1.999999 1,-1 1,1 1,-1 0,1 2,-1 0,1 1,-1 1,1 1,-1.999999 0,1.999999 1,-1 1,1 1,-1 0,1 1,0 -1,1 1,2 -2,-1 -1,1 -1,-1 -1,1 -1,-2 -1,1 -1,-1 0,1 -2,-1 0,1 -1,-1 -1,2 -1,-2 -1,2 0,-2 -1,1 0,-1 -1,2 -1,-1 -1,1 0,-1 -1,-1 1,0 -1,-2 z"
         style="fill:white;fill-opacity:1;stroke:none" />
      <path
         sodipodi:end="6.2831853"
         sodipodi:start="3.1415927"
         transform="matrix(1.3333333,0,0,1.5,-5,-11.000486)"
         d="m 12,20 c 0,-1.10457 0.671573,-2 1.5,-2 0.828427,0 1.5,0.895431 1.5,2 l -1.5,0 z"
         sodipodi:ry="2"
         sodipodi:rx="1.5"
         sodipodi:cy="20"
         sodipodi:cx="13.5"
         id="path3009"
         style="fill:black;fill-opacity:1;stroke:none"
         sodipodi:type="arc" />
      <path
         sodipodi:end="6.2831853"
         sodipodi:start="3.1415927"
         sodipodi:type="arc"
         style="fill:black;fill-opacity:1;stroke:none"
         id="path3011"
         sodipodi:cx="13.5"
         sodipodi:cy="20"
         sodipodi:rx="1.5"
         sodipodi:ry="2"
         d="m 12,20 c 0,-1.10457 0.671573,-2 1.5,-2 0.828427,0 1.5,0.895431 1.5,2 l -1.5,0 z"
         transform="matrix(1.3333333,0,0,1.5,1,-11.000486)" />
      <path
         inkscape:connector-curvature="0"
         id="path3013"
         d="m 8,19.076437 c -0.3398669,0 -0.615384,0.275518 -0.615384,0.615384 0,0.339868 0.2755171,0.615384 0.615384,0.615384 0.3398682,0 0.6153854,-0.275516 0.6153854,-0.615384 0,-0.339866 -0.2755172,-0.615384 -0.6153854,-0.615384 z m 0,1.230768 c -0.3398669,0 -0.615384,0.275519 -0.615384,0.615386 0,0.103611 0.03169,0.18356 0.076921,0.26923 -0.035508,0.114957 -0.076921,0.219536 -0.076921,0.346154 0,0.230547 0.082005,0.430928 0.1923083,0.615385 -0.1103017,0.184457 -0.1923083,0.384836 -0.1923083,0.615384 0,0.679737 0.5510343,1.23077 1.2307694,1.23077 0,0.679735 0.551034,1.230769 1.2307689,1.230769 0.043326,0 0.073211,-0.03409 0.1153897,-0.03846 -0.073794,0.199506 -0.1153897,0.42868 -0.1153897,0.653842 0,1.019603 0.8265517,1.846155 1.8461547,1.846155 0.30588,0 0.592125,-0.09909 0.846153,-0.230771 0.307053,0.137616 0.641731,0.230771 1,0.230771 0,0.679734 0.551034,1.230768 1.230769,1.230768 0.40048,0 0.736782,-0.203821 0.961538,-0.5 0.413679,0.315163 0.939805,0.5 1.5,0.5 0.928685,0 1.734663,-0.509925 2.153846,-1.26923 0.194665,-0.03184 0.369319,-0.104629 0.538462,-0.192309 0.307054,0.137616 0.641731,0.230771 0.999998,0.230771 1.359471,0 2.46154,-1.102069 2.46154,-2.461539 0.679736,-4e-6 1.230769,-0.551039 1.230769,-1.230773 0,-0.679736 -0.551033,-1.230771 -1.230769,-1.230771 0.679736,0 1.230769,-0.551032 1.230769,-1.230769 0,-0.679735 -0.551033,-1.230769 -1.230769,-1.230769 -0.679735,0 -1.230769,0.551034 -1.230769,1.230769 -0.679736,0 -1.230771,0.551034 -1.230771,1.230769 -0.358267,0 -0.692944,0.09314 -0.999998,0.230769 -0.254028,-0.131672 -0.540274,-0.230769 -0.846155,-0.230769 -0.807185,0 -1.479888,0.509032 -1.730768,1.230771 -0.03854,-0.0018 -0.0764,0 -0.115389,0 -0.509803,0 -0.991751,0.157662 -1.384615,0.423076 -0.335591,-0.960337 -1.232862,-1.653847 -2.307693,-1.653847 -0.928682,0 -1.734663,0.509925 -2.153846,1.269232 -0.117514,0.01921 -0.23721,0.03663 -0.346153,0.07693 0.0043,-0.04216 0.03847,-0.07207 0.03847,-0.115389 0,-0.679736 -0.551034,-1.23077 -1.2307693,-1.23077 0,-0.230547 -0.082,-0.430927 -0.1923086,-0.615384 0.1103086,-0.184458 0.1923086,-0.384838 0.1923086,-0.615385 0,-0.679735 -0.5510343,-1.230769 -1.2307697,-1.230769 -0.1266175,0 -0.2311982,0.04142 -0.3461546,0.07693 -0.085666,-0.04524 -0.1656121,-0.07693 -0.2692308,-0.07693 z m 16,-1.230768 c -0.339869,0 -0.615385,0.275518 -0.615385,0.615384 0,0.339868 0.275516,0.615384 0.615385,0.615384 0.339866,0 0.615384,-0.275516 0.615384,-0.615384 0,-0.339866 -0.275518,-0.615384 -0.615384,-0.615384 z"
         style="fill:white;fill-opacity:1;stroke:none" />
      <path
         transform="translate(0,1.999515)"
         sodipodi:end="3.1415927"
         sodipodi:start="0"
         d="m 15,17 c 0,0.552285 -0.895431,1 -2,1 -1.104569,0 -2,-0.447715 -2,-1 0,0 0,0 0,0 l 2,0 z"
         sodipodi:ry="1"
         sodipodi:rx="2"
         sodipodi:cy="17"
         sodipodi:cx="13"
         id="path3046"
         style="fill:black;fill-opacity:1;stroke:none"
         sodipodi:type="arc" />
      <path
         transform="translate(6,1.999515)"
         sodipodi:type="arc"
         style="fill:black;fill-opacity:1;stroke:none"
         id="path3048"
         sodipodi:cx="13"
         sodipodi:cy="17"
         sodipodi:rx="2"
         sodipodi:ry="1"
         d="m 15,17 c 0,0.552285 -0.895431,1 -2,1 -1.104569,0 -2,-0.447715 -2,-1 0,0 0,0 0,0 l 2,0 z"
         sodipodi:start="0"
         sodipodi:end="3.1415927" />
      <path
         inkscape:connector-curvature="0"
         id="path3865"
         d="m 9,13.999514 c -0.9375,2.9375 -4.397993,7.604874 -3,11 1.397993,3.395126 5.735869,5.959645 10,6 -4,-1 -7,-3 -8,-7 -1,-4 2,-10 2,-10 l -1,0 z"
         style="fill:black;fill-opacity:0.25098039;stroke:none" />
      <path
         inkscape:connector-curvature="0"
         id="path3868"
         d="m 15,4.999515 -1,1 1,0 -1,1 1,0 0,1 1,-1 1,1 -1,0 -1,1 -1,-2 -1,-1 z"
         style="fill:black;fill-opacity:0.25098039;stroke:none" />
      <path
         sodipodi:nodetypes="ccccccccccccccccccccccccccccccccccccccccccc"
         inkscape:connector-curvature="0"
         id="path3870"
         d="m 7,13.999514 1,1 0,-1 1,0 1,-1 0,1 2,-1 1,1 1,-1 1,1 2,-1 1,1 2,-1 1,1 1,0 1,1 0,-1 2,-1 -1,1 1,2 -2,-1 -1,1 -1,-1 -1,1 -1,-2 -1,1 -1,-1 0,1 -2,-1 0,1 -1,-1 -1,2 -1,-2 -1,2 0,-2 -1,1 0,-1 -1,0 -1,1 0,0 -1,1 -1,-2 z"
         style="fill:black;fill-opacity:0.25098039;stroke:none" />
      <path
         sodipodi:nodetypes="cccscscscscssccscsccscsccscsccsscscscsccccccsc"
         inkscape:connector-curvature="0"
         id="path3887"
         d="m 7.78125,20.249514 c -5.1875,8.5 -2.59375,4.25 0,0 z M 7.75,20.343264 c -0.2208705,0.09342 -0.375,0.33885 -0.375,0.59375 0,0.103611 0.048519,0.16433 0.09375,0.25 -0.035508,0.114957 -0.09375,0.217132 -0.09375,0.34375 0,0.230547 0.077197,0.440543 0.1875,0.625 -0.1103017,0.184457 -0.1875,0.394452 -0.1875,0.625 0,0.679737 0.5702649,1.21875 1.25,1.21875 0,0.679735 0.5390151,1.21875 1.21875,1.21875 0.043326,0 0.082821,-0.02688 0.125,-0.03125 -0.073794,0.199506 -0.125,0.431088 -0.125,0.65625 0,1.019603 0.824147,1.84375 1.84375,1.84375 0.30588,0 0.589722,-0.08707 0.84375,-0.21875 0.307053,0.137616 0.641731,0.21875 1,0.21875 0,0.679734 0.570265,1.25 1.25,1.25 0.40048,0 0.712744,-0.203821 0.9375,-0.5 0.413679,0.315163 0.939805,0.5 1.5,0.5 0.928685,0 1.737067,-0.521945 2.15625,-1.28125 0.194665,-0.03184 0.393357,-0.09982 0.5625,-0.1875 0.307054,0.137616 0.641733,0.21875 1,0.21875 1.295994,0 2.341144,-1.009928 2.4375,-2.28125 -0.456017,0.478686 -1.133867,0.78125 -1.90625,0.78125 -0.361866,0 -0.689861,-0.06709 -1,-0.1875 -0.170842,0.07672 -0.36588,0.12839 -0.5625,0.15625 -0.423394,0.664392 -1.218238,1.125 -2.15625,1.125 -0.565823,0 -1.113416,-0.161732 -1.53125,-0.4375 -0.227014,0.259157 -0.564247,0.4375 -0.96875,0.4375 -0.686562,0 -1.25,-0.498982 -1.25,-1.09375 -0.361867,0 -0.689862,-0.06709 -1,-0.1875 -0.256579,0.115224 -0.534798,0.1875 -0.84375,0.1875 -1.029844,0 -1.875,-0.701598 -1.875,-1.59375 0,-0.197017 0.05046,-0.419182 0.125,-0.59375 -0.0426,0.0038 -0.08124,0.0625 -0.125,0.0625 -0.6865623,0 -1.25,-0.498982 -1.25,-1.09375 -0.6865627,0 -1.25,-0.46773 -1.25,-1.0625 0,-0.201729 0.1073403,-0.4011 0.21875,-0.5625 -0.111412,-0.1614 -0.21875,-0.329521 -0.21875,-0.53125 0,-0.11079 0.057885,-0.211913 0.09375,-0.3125 -0.032295,-0.05299 -0.050349,-0.09918 -0.0625,-0.15625 -0.018961,0.0059 -0.044377,-0.0077 -0.0625,0 z m 16.84375,3.53125 c -0.188577,0.09987 -0.387797,0.187499 -0.625,0.1875 0,0.431438 -0.154095,0.81933 -0.40625,1.15625 0.590777,-0.09027 1.0625,-0.602741 1.0625,-1.21875 0,-0.04314 -0.02692,-0.08301 -0.03125,-0.125 z"
         style="fill:black;fill-opacity:0.25098039;stroke:none" />
    </g>
  </g>
</svg>
