<?xml version="1.0" encoding="UTF-8" standalone="no"?>
<!-- Created with Inkscape (http://www.inkscape.org/) -->

<svg
   xmlns:dc="http://purl.org/dc/elements/1.1/"
   xmlns:cc="http://creativecommons.org/ns#"
   xmlns:rdf="http://www.w3.org/1999/02/22-rdf-syntax-ns#"
   xmlns:svg="http://www.w3.org/2000/svg"
   xmlns="http://www.w3.org/2000/svg"
   xmlns:xlink="http://www.w3.org/1999/xlink"
   xmlns:sodipodi="http://sodipodi.sourceforge.net/DTD/sodipodi-0.dtd"
   xmlns:inkscape="http://www.inkscape.org/namespaces/inkscape"
   width="32px"
   height="32px"
   id="svg3505"
   sodipodi:version="0.32"
   inkscape:version="0.48.5 r10040"
   sodipodi:docname="00.svg"
   inkscape:output_extension="org.inkscape.output.svg.inkscape"
   version="1.1">
  <defs
     id="defs3507">
    <inkscape:perspective
       sodipodi:type="inkscape:persp3d"
       inkscape:vp_x="0 : 16 : 1"
       inkscape:vp_y="0 : 1000 : 0"
       inkscape:vp_z="32 : 16 : 1"
       inkscape:persp3d-origin="16 : 10.666667 : 1"
       id="perspective3513" />
    <inkscape:perspective
       id="perspective4690"
       inkscape:persp3d-origin="372.04724 : 350.78739 : 1"
       inkscape:vp_z="744.09448 : 526.18109 : 1"
       inkscape:vp_y="0 : 1000 : 0"
       inkscape:vp_x="0 : 526.18109 : 1"
       sodipodi:type="inkscape:persp3d" />
    <inkscape:perspective
       id="perspective2564"
       inkscape:persp3d-origin="372.04724 : 350.78739 : 1"
       inkscape:vp_z="744.09448 : 526.18109 : 1"
       inkscape:vp_y="0 : 1000 : 0"
       inkscape:vp_x="0 : 526.18109 : 1"
       sodipodi:type="inkscape:persp3d" />
    <linearGradient
       inkscape:collect="always"
       xlink:href="#linearGradient8649"
       id="linearGradient10689"
       gradientUnits="userSpaceOnUse"
       x1="19"
       y1="13"
       x2="13"
       y2="19" />
    <linearGradient
       id="linearGradient8649">
      <stop
         style="stop-color:black;stop-opacity:0.50196081;"
         offset="0"
         id="stop8651" />
      <stop
         style="stop-color:white;stop-opacity:0.50196081;"
         offset="1"
         id="stop8653" />
    </linearGradient>
    <linearGradient
       inkscape:collect="always"
       xlink:href="#linearGradient8649"
       id="linearGradient11028"
       gradientUnits="userSpaceOnUse"
       x1="19"
       y1="13"
       x2="13"
       y2="19" />
    <linearGradient
       id="linearGradient11030">
      <stop
         style="stop-color:black;stop-opacity:0.50196081;"
         offset="0"
         id="stop11032" />
      <stop
         style="stop-color:white;stop-opacity:0.50196081;"
         offset="1"
         id="stop11034" />
    </linearGradient>
    <linearGradient
       inkscape:collect="always"
       xlink:href="#linearGradient8649"
       id="linearGradient11036"
       gradientUnits="userSpaceOnUse"
       x1="19"
       y1="13"
       x2="13"
       y2="19" />
    <linearGradient
       id="linearGradient11038">
      <stop
         style="stop-color:black;stop-opacity:0.50196081;"
         offset="0"
         id="stop11040" />
      <stop
         style="stop-color:white;stop-opacity:0.50196081;"
         offset="1"
         id="stop11042" />
    </linearGradient>
    <linearGradient
       inkscape:collect="always"
       xlink:href="#linearGradient8649"
       id="linearGradient7437"
       gradientUnits="userSpaceOnUse"
       x1="19"
       y1="13"
       x2="13"
       y2="19" />
  </defs>
  <sodipodi:namedview
     id="base"
     pagecolor="#ffffff"
     bordercolor="#666666"
     borderopacity="1.0"
     inkscape:pageopacity="0.0"
     inkscape:pageshadow="2"
     inkscape:zoom="16.5"
     inkscape:cx="16"
     inkscape:cy="16"
     inkscape:current-layer="layer1"
     showgrid="true"
     inkscape:grid-bbox="true"
     inkscape:document-units="px"
     objecttolerance="10000"
     gridtolerance="10000"
     guidetolerance="10000"
     inkscape:window-width="1024"
     inkscape:window-height="741"
     inkscape:window-x="0"
     inkscape:window-y="2"
     inkscape:object-paths="true"
     inkscape:object-nodes="true"
     inkscape:snap-bbox="true"
     inkscape:snap-guide="true"
     showguides="true"
     inkscape:guide-bbox="true"
     inkscape:window-maximized="1">
    <inkscape:grid
       type="xygrid"
       id="grid3515"
       units="px"
       visible="true"
       enabled="true"
       spacingx="1px"
       spacingy="1px"
       empspacing="4"
       snapvisiblegridlinesonly="true" />
    <sodipodi:guide
       orientation="-0.70710678,0.70710678"
       position="33.245902,33.245902"
       id="guide3622" />
    <sodipodi:guide
       orientation="0.70710678,0.70710678"
       position="0,32"
       id="guide3624" />
  </sodipodi:namedview>
  <metadata
     id="metadata3510">
    <rdf:RDF>
      <cc:Work
         rdf:about="">
        <dc:format>image/svg+xml</dc:format>
        <dc:type
           rdf:resource="http://purl.org/dc/dcmitype/StillImage" />
        <dc:title>Vorlage f端r 32x32-Pixel-Icons f端r McMinos</dc:title>
        <dc:date>2010-04-05</dc:date>
        <dc:creator>
          <cc:Agent>
            <dc:title>Andreas Neudecker &lt;zapyon@gmx.net&gt;</dc:title>
          </cc:Agent>
        </dc:creator>
        <dc:rights>
          <cc:Agent>
            <dc:title>Copyright (C) 2010 by Andreas Neudecker</dc:title>
          </cc:Agent>
        </dc:rights>
        <dc:publisher>
          <cc:Agent>
            <dc:title>Andreas Neudecker</dc:title>
          </cc:Agent>
        </dc:publisher>
        <dc:identifier>vorlage-32x32-mcminos</dc:identifier>
        <dc:description>Vorlage f端r 32x32-Pixel-Icons f端r McMinos. Metadaten jeweils entsprechend anpassen!</dc:description>
      </cc:Work>
    </rdf:RDF>
  </metadata>
  <g
     id="layer1"
     inkscape:label="Layer 1"
     inkscape:groupmode="layer">
    <g
       id="g7514">
      <rect
         y="0"
         x="0"
         height="32"
         width="32"
         id="rect11310"
         style="fill:none;stroke:none" />
      <rect
         style="fill:black;fill-opacity:1;stroke:none"
         id="rect3935"
         width="30"
         height="30"
         x="1"
         y="-31"
         transform="matrix(0,1,-1,0,0,0)" />
      <path
         id="path3635"
         d="M 3 0 L 3 2 L 29 2 L 29 0 L 3 0 z M 0 3 L 0 29 L 2 29 L 2 3 L 0 3 z "
         style="fill:black;fill-opacity:1;fill-rule:nonzero;stroke:none" />
      <path
         id="path3646"
         d="M 4 0 L 4 2 L 16 2 L 16 0 L 4 0 z "
         style="fill:blue;fill-opacity:1;fill-rule:nonzero;stroke:none" />
      <path
         id="path3648"
         d="M 0 4 L 0 16 L 2 16 L 2 4 L 0 4 z "
         style="fill:#00ffff;fill-opacity:1;fill-rule:nonzero;stroke:none" />
      <path
         id="path2570"
         d="M 16 0 L 16 2 L 28 2 L 28 0 L 16 0 z "
         style="fill:#00ffff;fill-opacity:1;fill-rule:nonzero;stroke:none" />
      <path
         id="path3342"
         d="M 0 16 L 0 28 L 2 28 L 2 16 L 0 16 z "
         style="fill:blue;fill-opacity:1;fill-rule:nonzero;stroke:none" />
      <path
         transform="matrix(0,-1,-1,0,32,32)"
         d="m 17,16 a 1,1 0 1 1 -2,0 1,1 0 1 1 2,0 z"
         sodipodi:ry="1"
         sodipodi:rx="1"
         sodipodi:cy="16"
         sodipodi:cx="16"
         id="path3344"
         style="fill:silver;fill-opacity:1;fill-rule:nonzero;stroke:none"
         sodipodi:type="arc" />
      <path
         id="path3626"
         d="M 17.96875 0 L 17.96875 2 L 18.96875 2 L 18.96875 0 L 17.96875 0 z M 19.96875 0 L 19.96875 2 L 20.96875 2 L 20.96875 0 L 19.96875 0 z M 21.96875 0 L 21.96875 2 L 22.96875 2 L 22.96875 0 L 21.96875 0 z M 23.96875 0 L 23.96875 2 L 24.96875 2 L 24.96875 0 L 23.96875 0 z M 25.96875 0 L 25.96875 2 L 26.96875 2 L 26.96875 0 L 25.96875 0 z "
         style="fill:#c3c3c3;fill-opacity:1;fill-rule:nonzero;stroke:none" />
      <path
         id="path3368"
         d="M 0 17.96875 L 0 18.96875 L 2 18.96875 L 2 17.96875 L 0 17.96875 z M 0 19.96875 L 0 20.96875 L 2 20.96875 L 2 19.96875 L 0 19.96875 z M 0 21.96875 L 0 22.96875 L 2 22.96875 L 2 21.96875 L 0 21.96875 z M 0 23.96875 L 0 24.96875 L 2 24.96875 L 2 23.96875 L 0 23.96875 z M 0 25.96875 L 0 26.96875 L 2 26.96875 L 2 25.96875 L 0 25.96875 z "
         style="fill:#6b6b6b;fill-opacity:1;fill-rule:nonzero;stroke:none" />
      <path
         transform="matrix(0,1,1,0,0,0)"
         sodipodi:type="arc"
         style="fill:#00005c;fill-opacity:1;fill-rule:nonzero;stroke:none"
         id="path3366"
         sodipodi:cx="16"
         sodipodi:cy="16"
         sodipodi:rx="1"
         sodipodi:ry="1"
         d="m 17,16 a 1,1 0 1 1 -2,0 1,1 0 1 1 2,0 z" />
      <path
         inkscape:connector-curvature="0"
         id="rect3926"
         d="m 15,0 0,2 2,0 0,-2 -2,0 z m -15,15 0,2 2,0 0,-2 -2,0 z"
         style="fill:#0080ff;fill-opacity:1;fill-rule:nonzero;stroke:none" />
      <path
         id="path3650"
         d="M 5 0 L 5 2 L 6 2 L 6 0 L 5 0 z M 7 0 L 7 2 L 8 2 L 8 0 L 7 0 z M 9 0 L 9 2 L 10 2 L 10 0 L 9 0 z M 11 0 L 11 2 L 12 2 L 12 0 L 11 0 z M 13 0 L 13 2 L 14 2 L 14 0 L 13 0 z "
         style="fill:#6b6b6b;fill-opacity:1;fill-rule:nonzero;stroke:none" />
      <path
         id="path3652"
         d="M 0 5 L 0 6 L 2 6 L 2 5 L 0 5 z M 0 7 L 0 8 L 2 8 L 2 7 L 0 7 z M 0 9 L 0 10 L 2 10 L 2 9 L 0 9 z M 0 11 L 0 12 L 2 12 L 2 11 L 0 11 z M 0 13 L 0 14 L 2 14 L 2 13 L 0 13 z "
         style="fill:#c3c3c3;fill-opacity:1;fill-rule:nonzero;stroke:none" />
      <rect
         style="fill:#ccc;fill-opacity:1;stroke:none"
         id="rect3138"
         width="28"
         height="28"
         x="2"
         y="-30"
         transform="matrix(0,1,-1,0,0,0)" />
      <path
         sodipodi:nodetypes="ccccc"
         inkscape:connector-curvature="0"
         id="rect3915"
         d="M 2,30 2,20 20,20 30,30 z"
         style="fill:#000000;fill-opacity:0.50196081;stroke:none" />
      <path
         sodipodi:nodetypes="ccccc"
         inkscape:connector-curvature="0"
         id="rect3917"
         d="M 20,20 20,2 30,2 30,30 z"
         style="fill:white;fill-opacity:0.50196081000000004;stroke:none" />
      <use
         height="32"
         width="32"
         transform="matrix(0.86588081,0.49991652,-0.49991652,0.86588081,1.144571,-5.8527576)"
         id="use9276"
         xlink:href="#path8647"
         y="0"
         x="0" />
      <use
         height="32"
         width="32"
         transform="matrix(0.96568614,0.25875482,-0.25875482,0.96568614,4.6890986,-12.591055)"
         id="use9274"
         xlink:href="#path8647"
         y="0"
         x="0" />
      <path
         transform="matrix(1.0031299,0,0,1.0031299,-0.050078,-0.0500784)"
         d="m 19.98752,16 a 3.9875195,3.9875195 0 1 1 -7.97504,0 3.9875195,3.9875195 0 1 1 7.97504,0 z"
         sodipodi:ry="3.9875195"
         sodipodi:rx="3.9875195"
         sodipodi:cy="16"
         sodipodi:cx="16"
         id="path8647"
         style="fill:url(#linearGradient7437);fill-opacity:1;stroke:none"
         sodipodi:type="arc" />
      <g
         transform="matrix(0.8658808,-0.49991651,0.49991651,0.8658808,1.07429,6.1452393)"
         id="g4361">
        <path
           transform="matrix(1.0606602,-1.0606602,1.0606602,1.0606602,-13.213204,16)"
           d="m 12,10 c 0,1.104569 -0.895431,2 -2,2 -1.1045695,0 -2,-0.895431 -2,-2 0,-1.1045695 0.8954305,-2 2,-2 1.104569,0 2,0.8954305 2,2 z"
           sodipodi:ry="2"
           sodipodi:rx="2"
           sodipodi:cy="10"
           sodipodi:cx="10"
           id="path4371"
           style="fill:#a0a0a0;fill-opacity:1;stroke:none"
           sodipodi:type="arc" />
        <path
           transform="matrix(1.0606602,-1.0606602,1.0606602,1.0606602,-13.213204,16)"
           d="M 10,12 C 8.8954306,12 8,11.10457 8,10 8,8.8954306 8.8954304,8 9.9999999,8 10,8 10,8 10,8"
           sodipodi:ry="2"
           sodipodi:rx="2"
           sodipodi:cy="10"
           sodipodi:cx="10"
           id="path4369"
           style="fill:#6b6b6b;fill-opacity:1;stroke:none"
           sodipodi:type="arc"
           sodipodi:start="1.5707963"
           sodipodi:end="4.712389"
           sodipodi:open="true" />
        <path
           inkscape:connector-curvature="0"
           id="path3783"
           d="m 6.2812499,13.5625 c -0.139926,0.09889 -0.2854232,0.191673 -0.40625,0.3125 L 10.125,18.125 c 0.120827,-0.120826 0.213609,-0.266324 0.3125,-0.40625 L 6.2812499,13.5625 z"
           style="fill:#6b6b6b;fill-opacity:1;stroke:none" />
        <path
           inkscape:connector-curvature="0"
           id="path3010"
           d="m 5.8749999,13.875 c -0.1208269,0.120827 -0.213609,0.266324 -0.3125,0.40625 L 9.71875,18.4375 C 9.858676,18.33861 10.004173,18.245827 10.125,18.125 l -4.2500001,-4.25 z"
           style="fill:#c3c3c3;fill-opacity:1;stroke:none" />
      </g>
      <use
         x="0"
         y="0"
         xlink:href="#g4361"
         id="use4367"
         transform="matrix(0.96452626,-0.25928051,0.25799585,0.96597495,-3.5603543,-4.3071108)"
         width="32"
         height="32" />
      <use
         x="0"
         y="0"
         xlink:href="#g4361"
         id="use4369"
         transform="matrix(0.96441425,-0.25886227,0.25841403,0.96608711,-12.565253,4.6844026)"
         width="32"
         height="32" />
      <path
         inkscape:connector-curvature="0"
         id="path10606"
         d="M 12,12 12,2 2,2 z"
         style="fill:#000000;fill-opacity:0.50196081;stroke:none" />
      <path
         style="fill:white;fill-opacity:0.50196081000000004;stroke:none"
         d="m 2,2 0,10 10,0 z"
         id="path10608"
         inkscape:connector-curvature="0" />
      <rect
         y="4"
         x="1"
         height="24"
         width="1"
         id="rect7478"
         style="fill:#000000;fill-opacity:0.50196081;stroke:none" />
    </g>
  </g>
</svg>
