<?xml version="1.0" encoding="UTF-8" standalone="no"?>
<!-- Created with Inkscape (http://www.inkscape.org/) -->

<svg
   xmlns:dc="http://purl.org/dc/elements/1.1/"
   xmlns:cc="http://creativecommons.org/ns#"
   xmlns:rdf="http://www.w3.org/1999/02/22-rdf-syntax-ns#"
   xmlns:svg="http://www.w3.org/2000/svg"
   xmlns="http://www.w3.org/2000/svg"
   xmlns:sodipodi="http://sodipodi.sourceforge.net/DTD/sodipodi-0.dtd"
   xmlns:inkscape="http://www.inkscape.org/namespaces/inkscape"
   width="32px"
   height="32px"
   id="svg3505"
   sodipodi:version="0.32"
   inkscape:version="0.48.5 r10040"
   sodipodi:docname="22.svg"
   inkscape:output_extension="org.inkscape.output.svg.inkscape"
   version="1.1">
  <defs
     id="defs3507">
    <inkscape:perspective
       sodipodi:type="inkscape:persp3d"
       inkscape:vp_x="0 : 16 : 1"
       inkscape:vp_y="0 : 1000 : 0"
       inkscape:vp_z="32 : 16 : 1"
       inkscape:persp3d-origin="16 : 10.666667 : 1"
       id="perspective3513" />
    <inkscape:perspective
       id="perspective4690"
       inkscape:persp3d-origin="372.04724 : 350.78739 : 1"
       inkscape:vp_z="744.09448 : 526.18109 : 1"
       inkscape:vp_y="0 : 1000 : 0"
       inkscape:vp_x="0 : 526.18109 : 1"
       sodipodi:type="inkscape:persp3d" />
  </defs>
  <sodipodi:namedview
     id="base"
     pagecolor="#ffffff"
     bordercolor="#666666"
     borderopacity="1.0"
     inkscape:pageopacity="0.0"
     inkscape:pageshadow="2"
     inkscape:zoom="16.375"
     inkscape:cx="16"
     inkscape:cy="16"
     inkscape:current-layer="layer1"
     showgrid="true"
     inkscape:grid-bbox="true"
     inkscape:document-units="px"
     objecttolerance="10000"
     gridtolerance="10000"
     guidetolerance="10000"
     inkscape:window-width="1024"
     inkscape:window-height="741"
     inkscape:window-x="0"
     inkscape:window-y="2"
     inkscape:object-paths="true"
     inkscape:object-nodes="true"
     inkscape:snap-bbox="true"
     inkscape:snap-guide="true"
     inkscape:window-maximized="1">
    <inkscape:grid
       type="xygrid"
       id="grid3515"
       units="px"
       visible="true"
       enabled="true"
       spacingx="1px"
       spacingy="1px"
       empspacing="4"
       snapvisiblegridlinesonly="true" />
  </sodipodi:namedview>
  <metadata
     id="metadata3510">
    <rdf:RDF>
      <cc:Work
         rdf:about="">
        <dc:format>image/svg+xml</dc:format>
        <dc:type
           rdf:resource="http://purl.org/dc/dcmitype/StillImage" />
        <dc:title />
        <dc:date>2010-04-26</dc:date>
        <dc:creator>
          <cc:Agent>
            <dc:title>Andreas Neudecker &lt;zapyon@gmx.net&gt;</dc:title>
          </cc:Agent>
        </dc:creator>
        <dc:rights>
          <cc:Agent>
            <dc:title>Copyright (C) 2010 by Andreas Neudecker</dc:title>
          </cc:Agent>
        </dc:rights>
        <dc:publisher>
          <cc:Agent>
            <dc:title>Andreas Neudecker</dc:title>
          </cc:Agent>
        </dc:publisher>
        <dc:identifier>mcminos-front-02</dc:identifier>
        <dc:description>McMinos, frontal, animation step 02.</dc:description>
      </cc:Work>
    </rdf:RDF>
  </metadata>
  <g
     id="layer1"
     inkscape:label="Layer 1"
     inkscape:groupmode="layer">
    <g
       id="g8022">
      <rect
         y="5.1161846e-06"
         x="0"
         height="32"
         width="32"
         id="rect7732"
         style="fill:none;stroke:none" />
      <path
         transform="matrix(1.0440591,0,0,0.9999439,-255.76471,-120.05548)"
         d="m 274.6633,136.06313 a 14.367003,15.000842 0 1 1 -28.73401,0 14.367003,15.000842 0 1 1 28.73401,0 z"
         sodipodi:ry="15.000842"
         sodipodi:rx="14.367003"
         sodipodi:cy="136.06313"
         sodipodi:cx="260.2963"
         id="path4818"
         style="fill:black;fill-opacity:1;fill-rule:nonzero;stroke:none"
         sodipodi:type="arc" />
      <path
         transform="matrix(2.0024876,0,0,2.0024876,0.04974722,-0.0199)"
         d="M 14.956522,8 A 6.9913044,6.9913044 0 1 1 0.97391319,8 6.9913044,6.9913044 0 1 1 14.956522,8 z"
         sodipodi:ry="6.9913044"
         sodipodi:rx="6.9913044"
         sodipodi:cy="8"
         sodipodi:cx="7.9652176"
         id="path3403"
         style="fill:#ff8000;fill-opacity:1;fill-rule:nonzero;stroke:none"
         sodipodi:type="arc" />
      <path
         d="m 10,5 a 2,2 0 1 1 -4,-1e-7 L 8,5 z"
         sodipodi:ry="2"
         sodipodi:rx="2"
         sodipodi:cy="5"
         sodipodi:cx="8"
         id="path3407"
         style="fill:white;fill-opacity:1;fill-rule:nonzero;stroke:none"
         sodipodi:type="arc"
         transform="matrix(2,0,0,2,-7.0000028,0)"
         sodipodi:start="0"
         sodipodi:end="3.1415927" />
      <path
         transform="matrix(2,0,0,2,6.999997,0)"
         sodipodi:type="arc"
         style="fill:white;fill-opacity:1;fill-rule:nonzero;stroke:none"
         id="path3425"
         sodipodi:cx="8"
         sodipodi:cy="5"
         sodipodi:rx="2"
         sodipodi:ry="2"
         d="m 10,5 a 2,2 0 1 1 -4,-1e-7 L 8,5 z"
         sodipodi:start="0"
         sodipodi:end="3.1415927" />
      <path
         transform="matrix(2,0,0,2,-7,5.1161847e-6)"
         d="M 9,5 A 1,1 0 1 1 7,5 l 1,0 z"
         sodipodi:ry="1"
         sodipodi:rx="1"
         sodipodi:cy="5"
         sodipodi:cx="8"
         id="path3409"
         style="fill:black;fill-opacity:1;fill-rule:nonzero;stroke:none"
         sodipodi:type="arc"
         sodipodi:start="0"
         sodipodi:end="3.1415927" />
      <path
         sodipodi:type="arc"
         style="fill:black;fill-opacity:1;fill-rule:nonzero;stroke:none"
         id="path3427"
         sodipodi:cx="8"
         sodipodi:cy="5"
         sodipodi:rx="1"
         sodipodi:ry="1"
         d="M 9,5 A 1,1 0 1 1 7,5 l 1,0 z"
         transform="matrix(2,0,0,2,7,5.1161847e-6)"
         sodipodi:start="0"
         sodipodi:end="3.1415927" />
      <path
         sodipodi:open="true"
         sodipodi:type="arc"
         style="fill:white;fill-opacity:1;fill-rule:nonzero;stroke:none"
         id="path3443"
         sodipodi:cx="28.15704"
         sodipodi:cy="51.823883"
         sodipodi:rx="4.1570387"
         sodipodi:ry="0.76477689"
         d="m 24.000001,51.823883 a 4.1570387,0.76477689 0 0 1 8.314077,0"
         transform="matrix(3.3677824,0,0,1.7603396e-6,-78.826783,15.99991)"
         sodipodi:start="3.1415927"
         sodipodi:end="6.2831853" />
      <path
         sodipodi:open="true"
         sodipodi:end="3.1415927"
         sodipodi:start="0"
         transform="matrix(3.127226,0,0,0.5230265,-72.05343,-11.105252)"
         d="m 32.314078,51.823883 a 4.1570387,3.8238845 0 1 1 -8.314077,0"
         sodipodi:ry="3.8238845"
         sodipodi:rx="4.1570387"
         sodipodi:cy="51.823883"
         sodipodi:cx="28.15704"
         id="path3429"
         style="fill:maroon;fill-opacity:1;fill-rule:nonzero;stroke:none"
         sodipodi:type="arc" />
      <path
         inkscape:connector-curvature="0"
         style="fill:#500;fill-opacity:1;stroke:none"
         d="m 16,16.000005 c -1.924816,0 -3.570552,0.759045 -4.40625,1.875 1.380907,0.07688 2.852904,0.125 4.40625,0.125 1.553346,0 3.025343,-0.04812 4.40625,-0.125 -0.835698,-1.115955 -2.481434,-1.875 -4.40625,-1.875 z"
         id="path5770" />
      <path
         sodipodi:type="arc"
         style="fill:#ff0001;fill-opacity:1;stroke:none"
         id="path5707"
         sodipodi:cx="16"
         sodipodi:cy="22"
         sodipodi:rx="1"
         sodipodi:ry="2"
         d="m 15,22 a 1,2 0 0 1 2,0 l -1,0 z"
         transform="matrix(0.75,0,0,1,4,-3.9999949)"
         sodipodi:start="3.1415927"
         sodipodi:end="6.2831853" />
      <path
         transform="matrix(0,1,-1,0,31.024742,-0.4464534)"
         d="M 11.532718,4.9071454 9.9249127,4.5339067 7.7456099,6.2678127 8.1885201,3.5125089 5.9566436,3.3982374 7.9815644,2.1749455 8.0823236,-0.34345529 9.0636591,1.7939512 11.234216,0.88646742 9.87128,2.7194129 z"
         inkscape:randomized="0.17"
         inkscape:rounded="0"
         inkscape:flatsided="false"
         sodipodi:arg2="1.193468"
         sodipodi:arg1="0.56514944"
         sodipodi:r2="1.2734149"
         sodipodi:r1="3.1835372"
         sodipodi:cy="2.8852458"
         sodipodi:cx="8.9180326"
         sodipodi:sides="5"
         id="path5848"
         style="fill:yellow;fill-opacity:1;fill-rule:nonzero;stroke:none"
         sodipodi:type="star" />
      <path
         d="m 24.90832,18.013372 -1.648098,-0.403891 -1.714291,1.119835 -0.433062,-1.514359 -1.280033,-0.98375 1.782988,-0.93578 0.440009,-1.715252 1.373388,1.506718 1.910385,-0.447304 -1.581058,1.70723 z"
         inkscape:randomized="0.15"
         inkscape:rounded="0"
         inkscape:flatsided="false"
         sodipodi:arg2="1.3082274"
         sodipodi:arg1="0.67990884"
         sodipodi:r2="1.3750492"
         sodipodi:r1="2.9724617"
         sodipodi:cy="16.131147"
         sodipodi:cx="22.688524"
         sodipodi:sides="5"
         id="path5561"
         style="fill:yellow;fill-opacity:1;fill-rule:nonzero;stroke:none"
         sodipodi:type="star"
         transform="matrix(0,1,-1,0,27.849796,2.5351112)" />
      <path
         d="m 27.207119,27.384274 -2.49416,-0.652323 -1.844768,1.598934 0.384072,-1.903308 -2.933107,-1.0214 2.685701,-1.151941 -0.594927,-2.477917 2.42307,2.030661 2.328458,0.204008 -1.884987,1.919725 z"
         inkscape:randomized="0.17"
         inkscape:rounded="0"
         inkscape:flatsided="false"
         sodipodi:arg2="1.2793953"
         sodipodi:arg1="0.65107672"
         sodipodi:r2="1.3849577"
         sodipodi:r1="3.4623945"
         sodipodi:cy="25.508198"
         sodipodi:cx="23.934425"
         sodipodi:sides="5"
         id="path5290"
         style="fill:yellow;fill-opacity:1;fill-rule:nonzero;stroke:none"
         sodipodi:type="star"
         transform="matrix(0,1,-1,0,29.277373,-11.717152)" />
    </g>
  </g>
</svg>
