<?xml version="1.0" encoding="UTF-8" standalone="no"?>
<!-- Created with Inkscape (http://www.inkscape.org/) -->

<svg
   xmlns:dc="http://purl.org/dc/elements/1.1/"
   xmlns:cc="http://creativecommons.org/ns#"
   xmlns:rdf="http://www.w3.org/1999/02/22-rdf-syntax-ns#"
   xmlns:svg="http://www.w3.org/2000/svg"
   xmlns="http://www.w3.org/2000/svg"
   xmlns:sodipodi="http://sodipodi.sourceforge.net/DTD/sodipodi-0.dtd"
   xmlns:inkscape="http://www.inkscape.org/namespaces/inkscape"
   width="32"
   height="32"
   id="svg3259"
   version="1.1"
   inkscape:version="0.48.5 r10040"
   sodipodi:docname="03.svg">
  <defs
     id="defs3261" />
  <sodipodi:namedview
     id="base"
     pagecolor="#ffffff"
     bordercolor="#666666"
     borderopacity="1.0"
     inkscape:pageopacity="0.0"
     inkscape:pageshadow="2"
     inkscape:zoom="16.5"
     inkscape:cx="14.939394"
     inkscape:cy="16"
     inkscape:document-units="px"
     inkscape:current-layer="layer2"
     showgrid="true"
     gridtolerance="10000"
     showguides="true"
     inkscape:guide-bbox="true"
     inkscape:window-width="1024"
     inkscape:window-height="741"
     inkscape:window-x="0"
     inkscape:window-y="2"
     inkscape:window-maximized="1"
     guidetolerance="10000"
     objecttolerance="10000"
     inkscape:snap-path-clip="true"
     inkscape:snap-path-mask="true"
     inkscape:snap-perpendicular="true"
     inkscape:snap-tangential="true">
    <inkscape:grid
       type="xygrid"
       id="grid3267"
       empspacing="4"
       visible="true"
       enabled="true"
       snapvisiblegridlinesonly="true" />
    <sodipodi:guide
       orientation="1,0"
       position="16,36"
       id="guide3269" />
    <sodipodi:guide
       orientation="0,1"
       position="-4,16"
       id="guide3271" />
    <sodipodi:guide
       orientation="-0.70710678,0.70710678"
       position="15,15"
       id="guide3860" />
    <sodipodi:guide
       orientation="-0.70710678,0.70710678"
       position="8,4"
       id="guide3864" />
    <sodipodi:guide
       orientation="-0.70710678,0.70710678"
       position="-4,12"
       id="guide3870" />
  </sodipodi:namedview>
  <metadata
     id="metadata3264">
    <rdf:RDF>
      <cc:Work
         rdf:about="">
        <dc:format>image/svg+xml</dc:format>
        <dc:type
           rdf:resource="http://purl.org/dc/dcmitype/StillImage" />
        <dc:title></dc:title>
      </cc:Work>
    </rdf:RDF>
  </metadata>
  <g
     inkscape:label="Ground level"
     inkscape:groupmode="layer"
     id="layer1"
     transform="translate(0,-1020.3622)">
    <path
       style="fill:black;fill-opacity:0.50196078;fill-rule:nonzero;stroke:none"
       d="M 5 0 L 5 3.40625 A 4 4 0 0 1 5.1875 3.1875 A 4 4 0 0 1 6 2.5625 L 6 0 L 5 0 z M 7 0 L 7 2.125 A 4 4 0 0 1 8 2 L 8 0 L 7 0 z M 9 0 L 9 2.125 A 4 4 0 0 1 9.03125 2.125 A 4 4 0 0 1 10 2.53125 L 10 0 L 9 0 z M 11 0 L 11 3.34375 A 4 4 0 0 1 11.8125 4.75 A 12 12 0 0 1 12 4.6875 L 12 0 L 11 0 z M 13 0 L 13 4.375 A 12 12 0 0 1 14 4.15625 L 14 0 L 13 0 z M 18 0 L 18 4.1875 A 12 12 0 0 1 19 4.375 L 19 0 L 18 0 z M 20 0 L 20 3.71875 A 6 6 0 0 1 20.75 2.78125 A 6 6 0 0 1 21 2.5625 L 21 0 L 20 0 z M 22 0 L 22 1.84375 A 6 6 0 0 1 23 1.375 L 23 0 L 22 0 z M 24 0 L 24 1.125 A 6 6 0 0 1 25 1.03125 L 25 0 L 24 0 z M 26 0 L 26 1.125 A 6 6 0 0 1 26.5625 1.25 A 6 6 0 0 1 27 1.375 L 27 0 L 26 0 z M 7.25 4 A 2.5 2.5 0 0 0 7 4.0625 C 7.162744 4.0285 7.327411 4 7.5 4 A 2.5 2.5 0 0 0 7.25 4 z M 0 5 L 0 6 L 4.03125 6 A 4 4 0 0 1 4.15625 5 L 2.65625 5 L 2.375 5 L 0 5 z M 30.625 5 A 6 6 0 0 1 30.78125 5.5 A 6 6 0 0 1 30.875 6 L 32 6 L 32 5 L 30.625 5 z M 0 7 L 0 8 L 4.5625 8 A 4 4 0 0 1 4.15625 7 L 0 7 z M 31 7 A 6 6 0 0 1 30.90625 8 L 32 8 L 32 7 L 31 7 z M 27.9375 7.34375 C 27.974016 7.5557418 27.997931 7.7774877 28 8 A 4 4 0 0 0 27.9375 7.34375 z M 20 8.03125 A 4 4 0 0 0 20 8.3125 A 4 4 0 0 0 20.0625 8.71875 C 20.02426 8.49665 20 8.26425 20 8.03125 z M 0 9 L 0 10 L 5.65625 10 A 12 12 0 0 1 5.96875 9.4375 A 4 4 0 0 1 5.375 9 L 0 9 z M 30.65625 9 A 6 6 0 0 1 30.21875 10 L 32 10 L 32 9 L 30.65625 9 z M 0 11 L 0 12 L 4.71875 12 A 12 12 0 0 1 5.125 11 L 0 11 z M 29.5 11 A 6 6 0 0 1 29.25 11.28125 A 6 6 0 0 1 28.34375 12 L 32 12 L 32 11 L 29.5 11 z M 0 13 L 0 14 L 1.8125 14 A 2.2585649 2.2585649 0 0 1 3.40625 13.375 A 2.2585649 2.2585649 0 0 1 3.96875 13.4375 A 2.2585649 2.2585649 0 0 1 4.28125 13.53125 A 12 12 0 0 1 4.4375 13 L 0 13 z M 27.625 13 A 12 12 0 0 1 27.8125 14 L 32 14 L 32 13 L 27.625 13 z M 0 18 L 0 19 L 3.75 19 A 8 8 0 0 1 4.28125 18.40625 A 12 12 0 0 1 4.21875 18 L 0 18 z M 27.84375 18 A 12 12 0 0 1 27.625 19 L 32 19 L 32 18 L 27.84375 18 z M 0 20 L 0 21 L 2.59375 21 A 8 8 0 0 1 3.0625 20 L 0 20 z M 27.3125 20 A 12 12 0 0 1 26.90625 21 L 32 21 L 32 20 L 27.3125 20 z M 7.90625 20.125 A 5 5 0 0 0 7.0625 20.40625 C 7.331686 20.29235 7.615415 20.191 7.90625 20.125 z M 0 22 L 0 23 L 2.09375 23 A 8 8 0 0 1 2.28125 22 L 0 22 z M 26.40625 22 A 12 12 0 0 1 25.75 23 L 32 23 L 32 22 L 26.40625 22 z M 13.21875 22.3125 C 13.372058 22.5509 13.48215 22.7986 13.59375 23.0625 A 5 5 0 0 0 13.21875 22.3125 z M 0 24 L 0 25 L 2.0625 25 A 8 8 0 0 1 2 24 L 0 24 z M 24.96875 24 A 12 12 0 0 1 24.5 24.5 A 12 12 0 0 1 24 24.9375 L 24 29.46875 A 1.5000021 1.5000021 0 0 1 24 29.625 L 24 32 L 25 32 L 25 30.59375 A 4 4 0 0 1 25 25.40625 L 25 25 L 25.375 25 A 4 4 0 0 1 27.65625 24 L 24.96875 24 z M 28.25 24 A 4 4 0 0 1 29.03125 24.125 A 4 4 0 0 1 30.65625 25 L 32 25 L 32 24 L 28.25 24 z M 23 25.75 A 12 12 0 0 1 22 26.40625 L 22 28.09375 A 1.5000021 1.5000021 0 0 1 22.375 28 A 1.5000021 1.5000021 0 0 1 22.53125 28 A 1.5000021 1.5000021 0 0 1 22.875 28.0625 A 1.5000021 1.5000021 0 0 1 23 28.09375 L 23 25.75 z M 0 26 L 0 27 L 2.59375 27 A 8 8 0 0 1 2.28125 26 L 0 26 z M 27.25 26 A 2.5 2.5 0 0 0 27 26.0625 C 27.162744 26.0285 27.327411 26 27.5 26 L 27.25 26 z M 31.46875 26 A 4 4 0 0 1 31.875 26.96875 A 4 4 0 0 1 31.875 27 L 32 27 L 32 26 L 31.46875 26 z M 21 26.90625 A 12 12 0 0 1 20 27.3125 L 20 32 L 21 32 L 21 29.65625 A 1.5000021 1.5000021 0 0 1 21 29.375 L 21 26.90625 z M 19 27.625 A 12 12 0 0 1 18 27.8125 L 18 32 L 19 32 L 19 27.625 z M 5 30.21875 L 5 32 L 6 32 L 6 30.90625 A 8 8 0 0 1 5 30.21875 z M 14 30.9375 A 8 8 0 0 1 13 31.40625 L 13 32 L 14 32 L 14 30.9375 z M 22 30.9375 L 22 32 L 23 32 L 23 30.9375 A 1.5000021 1.5000021 0 0 1 22 30.9375 z M 7 31.40625 L 7 32 L 8 32 L 8 31.75 A 8 8 0 0 1 7 31.40625 z M 26 31.4375 L 26 32 L 27 32 L 27 31.84375 A 4 4 0 0 1 26 31.4375 z M 12 31.71875 A 8 8 0 0 1 11 31.9375 L 11 32 L 12 32 L 12 31.71875 z M 9 31.9375 L 9 32 L 10 32 A 8 8 0 0 1 9 31.9375 z "
       transform="translate(0,1020.3622)"
       id="path60920" />
    <path
       inkscape:connector-curvature="0"
       style="fill:gray;fill-opacity:0.25098039;stroke:none"
       d="m 15,1029.3622 c -4.280003,0 -7.7541826,3.3671 -7.96875,7.5938 a 8,8 0 0 1 3.09375,-0.5938 8,8 0 0 1 1.9375,0.2813 8,8 0 0 1 5.65625,5.6562 8,8 0 0 1 0.25,2.5 C 20.921422,1043.6228 23,1040.7346 23,1037.3622 c 0,-4.4183 -3.581722,-8 -8,-8 z m -1.78125,13.3125 c 0.153308,0.2384 0.2634,0.4861 0.375,0.75 a 5,5 0 0 0 -0.375,-0.75 z"
       id="path3858" />
    <rect
       style="fill:none;stroke:none"
       id="rect10063"
       width="32"
       height="32"
       x="0"
       y="1020.3622" />
    <path
       inkscape:connector-curvature="0"
       style="fill:black;fill-opacity:0.25098039;stroke:none"
       d="m 16.1875,1024.3622 a 12,12 0 0 0 -4.375,0.75 4,4 0 0 1 0.0625,0.2188 4,4 0 0 1 -1.0625,3.8437 4,4 0 0 1 -1.15625,0.8438 l 0.78125,0.7812 a 8,8 0 0 1 4.5625,-1.4375 8,8 0 0 1 8,8 8,8 0 0 1 -1.4375,4.5625 l 2.9375,2.9375 a 12,12 0 0 0 3.09375,-11.5937 12,12 0 0 0 -0.125,-0.4063 6,6 0 0 1 -6.71875,-1.2187 6,6 0 0 1 -1.1875,-6.7188 12,12 0 0 0 -0.46875,-0.1562 12,12 0 0 0 -2.90625,-0.4063 z m -6.34375,1.6875 c 0.044986,0.129 0.097184,0.2714 0.125,0.4063 a 2.5,2.5 0 0 0 -0.09375,-0.4063 12,12 0 0 0 -0.03125,0 z m 0.125,0.4063 C 9.996566,1026.5908 10,1026.7179 10,1026.8622 a 2.5,2.5 0 0 0 -0.03125,-0.4062 z m 11.78125,5.25 a 4,4 0 0 0 0.6875,0.375 c -0.239277,-0.1013 -0.474699,-0.2313 -0.6875,-0.375 z"
       id="path3093" />
    <path
       inkscape:connector-curvature="0"
       style="fill:#f0f0f0;fill-opacity:0.25098039;stroke:none"
       d="m 5.96875,1029.7997 a 12,12 0 0 0 -1.6875,4.0938 2.2585649,2.2585649 0 0 1 1.28125,1.5 2.2585649,2.2585649 0 0 1 -0.5625,2.1875 2.2585649,2.2585649 0 0 1 -0.84375,0.5312 12,12 0 0 0 0.125,0.6563 8,8 0 0 1 0.0625,-0.063 8,8 0 0 1 2.65625,-1.75 8,8 0 0 1 0.03125,0 8,8 0 0 1 3.40625,-6.1563 l -0.78125,-0.7812 -0.03125,0 a 4,4 0 0 1 -3.65625,-0.2188 z m 1.6875,10.75 a 5,5 0 0 0 -0.59375,0.2188 c 0.1914214,-0.081 0.390295,-0.1587 0.59375,-0.2188 z m 13.90625,1.375 a 8,8 0 0 1 -3.59375,2.8438 8,8 0 0 1 -1.0625,3.5625 12,12 0 0 0 7.59375,-3.4688 l -2.9375,-2.9375 z"
       id="path3850" />
    <path
       inkscape:connector-curvature="0"
       style="fill:#f0f0f0;fill-opacity:0.25098039;stroke:none"
       d="m 4.34375,1038.706 a 8,8 0 0 0 0,11.3125 8,8 0 0 0 11.3125,0 l -2.265625,-2.2657 A 5,5 0 0 1 9,1050.3622 a 5,5 0 0 1 -5,-5 5,5 0 0 1 2.6132812,-4.3867 L 4.34375,1038.706 z"
       id="path3856" />
    <path
       inkscape:connector-curvature="0"
       style="fill:black;fill-opacity:0.25098039;stroke:none"
       d="m 10.117188,1036.3622 a 8,8 0 0 0 -5.773438,2.3438 l 2.2695312,2.2695 A 5,5 0 0 1 9,1040.3622 a 5,5 0 0 1 5,5 5,5 0 0 1 -0.609375,2.3906 l 2.265625,2.2657 a 8,8 0 0 0 2.070312,-7.7266 8,8 0 0 0 -5.65625,-5.6563 8,8 0 0 0 -1.953124,-0.2734 z"
       id="path3095" />
    <circle
       r="5"
       cy="1045.3622"
       cx="11"
       id="path3862"
       style="fill:gray;fill-opacity:0.25098039;stroke:none"
       sodipodi:cx="11"
       sodipodi:cy="1045.3622"
       sodipodi:rx="5"
       sodipodi:ry="5"
       transform="translate(-2,0)"
       d="m 16,1045.3622 c 0,2.7614 -2.238576,5 -5,5 -2.7614237,0 -5,-2.2386 -5,-5 0,-2.7614 2.2385763,-5 5,-5 2.761424,0 5,2.2386 5,5 z" />
    <path
       style="fill:black;fill-opacity:0.25098039;stroke:none"
       d="m 8.0585938,1022.3622 a 4,4 0 0 0 -2.8867188,1.1719 l 1.1347656,1.1347 A 2.5,2.5 0 0 1 7.5,1024.3622 a 2.5,2.5 0 0 1 2.5,2.5 2.5,2.5 0 0 1 -0.3046875,1.1953 l 1.1328125,1.1328 a 4,4 0 0 0 1.035156,-3.8633 4,4 0 0 0 -2.8281248,-2.8281 4,4 0 0 0 -0.9765624,-0.1367 z"
       id="path3852"
       inkscape:connector-curvature="0" />
    <path
       inkscape:connector-curvature="0"
       style="fill:#f0f0f0;fill-opacity:0.25098039;stroke:none"
       d="m 5.171875,1023.5341 a 4,4 0 0 0 0,5.6562 4,4 0 0 0 5.65625,0 l -1.1328125,-1.1328 A 2.5,2.5 0 0 1 7.5,1029.3622 a 2.5,2.5 0 0 1 -2.5,-2.5 2.5,2.5 0 0 1 1.3066406,-2.1934 l -1.1347656,-1.1347 z"
       id="path3091" />
    <circle
       r="2.5"
       cy="1028.8622"
       cx="7.5"
       id="path3866"
       style="fill:gray;fill-opacity:0.25098039;stroke:none"
       sodipodi:cx="7.5"
       sodipodi:cy="1028.8622"
       sodipodi:rx="2.5"
       sodipodi:ry="2.5"
       transform="translate(0,-2)"
       d="m 10,1028.8622 c 0,1.3807 -1.1192881,2.5 -2.5,2.5 -1.3807119,0 -2.5,-1.1193 -2.5,-2.5 0,-1.3807 1.1192881,-2.5 2.5,-2.5 1.3807119,0 2.5,1.1193 2.5,2.5 z" />
    <path
       inkscape:connector-curvature="0"
       style="fill:black;fill-opacity:0.25098039;stroke:none"
       d="m 28.058594,1044.3622 a 4,4 0 0 0 -2.886719,1.1719 l 1.134766,1.1347 a 2.5,2.5 0 0 1 1.193359,-0.3066 2.5,2.5 0 0 1 2.5,2.5 2.5,2.5 0 0 1 -0.304688,1.1953 l 1.132813,1.1328 a 4,4 0 0 0 1.035156,-3.8633 4,4 0 0 0 -2.828125,-2.8281 4,4 0 0 0 -0.976562,-0.1367 z"
       id="path3097" />
    <path
       inkscape:connector-curvature="0"
       style="fill:#f0f0f0;fill-opacity:0.25098039;stroke:none"
       d="m 25.171875,1045.5341 a 4,4 0 0 0 0,5.6562 4,4 0 0 0 5.65625,0 l -1.132813,-1.1328 a 2.5,2.5 0 0 1 -2.195312,1.3047 2.5,2.5 0 0 1 -2.5,-2.5 2.5,2.5 0 0 1 1.306641,-2.1934 l -1.134766,-1.1347 z"
       id="path3099" />
    <circle
       r="2.5"
       cy="1044.8622"
       cx="25.5"
       style="fill:gray;fill-opacity:0.25098039;stroke:none"
       id="path3101"
       sodipodi:cx="25.5"
       sodipodi:cy="1044.8622"
       sodipodi:rx="2.5"
       sodipodi:ry="2.5"
       transform="translate(2,4)"
       d="m 28,1044.8622 c 0,1.3807 -1.119288,2.5 -2.5,2.5 -1.380712,0 -2.5,-1.1193 -2.5,-2.5 0,-1.3807 1.119288,-2.5 2.5,-2.5 1.380712,0 2.5,1.1193 2.5,2.5 z" />
    <path
       inkscape:connector-curvature="0"
       style="fill:black;fill-opacity:0.25098039;stroke:none"
       d="m 3.4199219,1033.7274 a 2.2585649,2.2585649 0 0 0 -1.6289063,0.6621 l 0.640625,0.6407 a 1.4116032,1.4116032 0 0 1 0.6738282,-0.1739 1.4116032,1.4116032 0 0 1 1.4121093,1.4122 1.4116032,1.4116032 0 0 1 -0.1738281,0.6738 l 0.640625,0.6406 a 2.2585649,2.2585649 0 0 0 0.5859375,-2.1816 2.2585649,2.2585649 0 0 0 -1.5976563,-1.5977 2.2585649,2.2585649 0 0 0 -0.5527343,-0.076 z"
       id="path4196" />
    <path
       inkscape:connector-curvature="0"
       style="fill:#f0f0f0;fill-opacity:0.25098039;stroke:none"
       d="m 1.7910156,1034.3895 a 2.2585649,2.2585649 0 0 0 0,3.1934 2.2585649,2.2585649 0 0 0 3.1933594,0 l -0.640625,-0.6406 a 1.4116032,1.4116032 0 0 1 -1.2382812,0.7383 1.4116032,1.4116032 0 0 1 -1.4121094,-1.4121 1.4116032,1.4116032 0 0 1 0.7382812,-1.2383 l -0.640625,-0.6407 z"
       id="path4198" />
    <circle
       style="fill:gray;fill-opacity:0.25098039;stroke:none"
       id="path4200"
       cx="5.1055269"
       cy="1038.2683"
       r="1.4116032"
       sodipodi:cx="5.1055269"
       sodipodi:cy="1038.2683"
       sodipodi:rx="1.4116032"
       sodipodi:ry="1.4116032"
       transform="translate(-2,-2)"
       d="m 6.5171301,1038.2683 c 0,0.7796 -0.6319962,1.4116 -1.4116032,1.4116 -0.7796069,0 -1.4116032,-0.632 -1.4116032,-1.4116 0,-0.7796 0.6319963,-1.4116 1.4116032,-1.4116 0.779607,0 1.4116032,0.632 1.4116032,1.4116 z" />
    <path
       inkscape:connector-curvature="0"
       style="fill:black;fill-opacity:0.25098039;stroke:none"
       d="m 25.086984,1021.3999 a 6,6 0 0 0 -4.330078,1.7578 l 1.599609,1.5996 a 4,4 0 0 1 1.642578,-0.3574 4,4 0 0 1 4,4 4,4 0 0 1 -0.357421,1.6426 l 1.599609,1.5996 a 6,6 0 0 0 1.552734,-5.7949 6,6 0 0 0 -4.242187,-4.2442 6,6 0 0 0 -1.464844,-0.2031 z"
       id="path5218" />
    <circle
       id="circle5220"
       style="fill:gray;fill-opacity:0.25098039;stroke:none"
       cx="1.8653295"
       cy="1028.0785"
       r="4"
       sodipodi:cx="1.8653295"
       sodipodi:cy="1028.0785"
       sodipodi:rx="4"
       sodipodi:ry="4"
       transform="translate(22.133859,0.32091688)"
       d="m 5.8653295,1028.0785 c 0,2.2091 -1.790861,4 -4,4 -2.209139,0 -4,-1.7909 -4,-4 0,-2.2091 1.790861,-4 4,-4 2.209139,0 4,1.7909 4,4 z" />
    <path
       id="path5290"
       d="m 2.5209177,1022.3626 a 1.5000021,1.5000021 0 0 0 -1.0818209,0.4397 l 0.4254643,0.4255 a 0.93750139,0.93750139 0 0 1 0.4475159,-0.1155 0.93750139,0.93750139 0 0 1 0.9378375,0.9378 0.93750139,0.93750139 0 0 1 -0.1154461,0.4476 l 0.4254643,0.4254 a 1.5000021,1.5000021 0 0 0 0.3891443,-1.4489 1.5000021,1.5000021 0 0 0 -1.0610666,-1.0611 1.5000021,1.5000021 0 0 0 -0.3670927,-0.05 z"
       style="fill:black;fill-opacity:0.25098039;stroke:none"
       inkscape:connector-curvature="0" />
    <path
       id="path5292"
       d="m 1.4390968,1022.8023 a 1.5000021,1.5000021 0 0 0 0,2.1208 1.5000021,1.5000021 0 0 0 2.1208359,0 l -0.4254643,-0.4254 a 0.93750139,0.93750139 0 0 1 -0.8223914,0.4903 0.93750139,0.93750139 0 0 1 -0.9378376,-0.9379 0.93750139,0.93750139 0 0 1 0.4903217,-0.8223 l -0.4254643,-0.4255 z"
       style="fill:#f0f0f0;fill-opacity:0.25098039;stroke:none"
       inkscape:connector-curvature="0" />
    <circle
       r="1.4116032"
       cy="1038.2683"
       cx="5.1055269"
       id="circle5294"
       style="fill:gray;fill-opacity:0.25098039;stroke:none"
       sodipodi:cx="5.1055269"
       sodipodi:cy="1038.2683"
       sodipodi:rx="1.4116032"
       sodipodi:ry="1.4116032"
       transform="matrix(0.66413946,0,0,0.66413946,-1.0786663,334.49508)"
       d="m 6.5171301,1038.2683 c 0,0.7796 -0.6319962,1.4116 -1.4116032,1.4116 -0.7796069,0 -1.4116032,-0.632 -1.4116032,-1.4116 0,-0.7796 0.6319963,-1.4116 1.4116032,-1.4116 0.779607,0 1.4116032,0.632 1.4116032,1.4116 z" />
    <path
       inkscape:connector-curvature="0"
       style="fill:black;fill-opacity:0.25098039;stroke:none"
       d="m 22.520918,1048.3626 a 1.5000021,1.5000021 0 0 0 -1.081821,0.4397 l 0.425464,0.4255 a 0.93750139,0.93750139 0 0 1 0.447516,-0.1155 0.93750139,0.93750139 0 0 1 0.937838,0.9378 0.93750139,0.93750139 0 0 1 -0.115446,0.4476 l 0.425464,0.4254 a 1.5000021,1.5000021 0 0 0 0.389144,-1.4489 1.5000021,1.5000021 0 0 0 -1.061066,-1.0611 1.5000021,1.5000021 0 0 0 -0.367093,-0.051 z"
       id="path5298" />
    <path
       inkscape:connector-curvature="0"
       style="fill:#f0f0f0;fill-opacity:0.25098039;stroke:none"
       d="m 21.439097,1048.8023 a 1.5000021,1.5000021 0 0 0 0,2.1208 1.5000021,1.5000021 0 0 0 2.120836,0 l -0.425464,-0.4254 a 0.93750139,0.93750139 0 0 1 -0.822392,0.4903 0.93750139,0.93750139 0 0 1 -0.937837,-0.9379 0.93750139,0.93750139 0 0 1 0.490321,-0.8223 l -0.425464,-0.4255 z"
       id="path5300" />
    <circle
       style="fill:gray;fill-opacity:0.25098039;stroke:none"
       id="circle5302"
       cx="5.1055269"
       cy="1038.2683"
       r="1.4116032"
       sodipodi:cx="5.1055269"
       sodipodi:cy="1038.2683"
       sodipodi:rx="1.4116032"
       sodipodi:ry="1.4116032"
       transform="matrix(0.66413946,0,0,0.66413946,18.921334,360.49508)"
       d="m 6.5171301,1038.2683 c 0,0.7796 -0.6319962,1.4116 -1.4116032,1.4116 -0.7796069,0 -1.4116032,-0.632 -1.4116032,-1.4116 0,-0.7796 0.6319963,-1.4116 1.4116032,-1.4116 0.779607,0 1.4116032,0.632 1.4116032,1.4116 z" />
    <path
       id="path12463"
       d="m 20.756906,1023.1577 a 6,6 0 0 0 0,8.4844 6,6 0 0 0 8.484375,0 l -1.599609,-1.5996 a 4,4 0 0 1 -3.642579,2.3574 4,4 0 0 1 -4,-4 4,4 0 0 1 2.357422,-3.6426 l -1.599609,-1.5996 z"
       style="fill:#f0f0f0;fill-opacity:0.25098039;stroke:none"
       inkscape:connector-curvature="0" />
    <path
       style="fill:red;fill-opacity:0.25098039;stroke:none"
       d="m 61.093432,1021.3949 a 6,6 0 0 0 -4.34375,1.75 6,6 0 0 0 -1.1875,1.7812 12,12 0 0 0 -0.03125,0 12,12 0 0 0 -0.4375,-0.1562 12,12 0 0 0 -2.90625,-0.4063 12,12 0 0 0 -4.375,0.75 4,4 0 0 0 -2.78125,-2.625 4,4 0 0 0 -0.96875,-0.125 4,4 0 0 0 -2.875,1.1875 4,4 0 0 0 0,5.625 4,4 0 0 0 0.78125,0.625 12,12 0 0 0 -1.6875,4.0938 2.2585649,2.2585649 0 0 1 0.1875,0.094 2.2585649,2.2585649 0 0 0 -0.5,-0.1875 2.2585649,2.2585649 0 0 0 -0.5625,-0.063 2.2585649,2.2585649 0 0 0 -1.625,0.6563 2.2585649,2.2585649 0 0 0 0,3.1875 2.2585649,2.2585649 0 0 0 2.375,0.5312 12,12 0 0 0 0.125,0.6563 8,8 0 0 0 0.0625,11.25 8,8 0 0 0 11.3125,0 8,8 0 0 0 1.25,-1.6875 12,12 0 0 0 7.59375,-3.4688 12,12 0 0 0 3.09375,-11.5937 12,12 0 0 0 -0.125,-0.4063 6,6 0 0 0 1.78125,-1.2187 6,6 0 0 0 1.53125,-5.7813 6,6 0 0 0 -4.21875,-4.25 6,6 0 0 0 -1.46875,-0.2187 z m -22.71875,0.9687 a 1.5000021,1.5000021 0 0 0 -0.9375,0.4375 1.5000021,1.5000021 0 0 0 0,2.125 1.5000021,1.5000021 0 0 0 2.125,0 1.5000021,1.5000021 0 0 0 0.375,-1.4375 1.5000021,1.5000021 0 0 0 -1.0625,-1.0625 1.5000021,1.5000021 0 0 0 -0.34375,-0.063 1.5000021,1.5000021 0 0 0 -0.15625,0 z m 4.875,2 a 2.5,2.5 0 0 1 0.25,0 2.5,2.5 0 0 1 0.5,0.063 c -0.162744,-0.033 -0.327411,-0.063 -0.5,-0.063 -0.172589,0 -0.337256,0.029 -0.5,0.063 a 2.5,2.5 0 0 1 0.25,-0.063 z m 16.65625,0.031 c -0.243349,0.01 -0.48801,0.047 -0.71875,0.094 a 4,4 0 0 1 0.71875,-0.094 z m -22.375,0.1562 c 0.03654,0.057 0.07737,0.1086 0.125,0.1563 a 0.93750139,0.93750139 0 0 1 -0.125,-0.1563 z m 10.375,0.9688 a 4,4 0 0 1 0.0625,0.375 4,4 0 0 0 -0.0625,-0.375 z m 14.90625,0.063 a 4,4 0 0 1 0.3125,0.3437 c -0.09531,-0.12 -0.204273,-0.2355 -0.3125,-0.3437 z m -21.75,0.7812 c -0.0333,0.1627 -0.0625,0.3274 -0.0625,0.5 0,0.1726 0.0292,0.3373 0.0625,0.5 a 2.5,2.5 0 0 1 -0.0625,-0.5 2.5,2.5 0 0 1 0.0625,-0.5 z m 4.875,0 a 2.5,2.5 0 0 1 0.03125,0.094 2.5,2.5 0 0 1 0,0.063 c 0.0081,0.052 0.02831,0.1043 0.03125,0.1562 a 2.5,2.5 0 0 1 0,0.1875 2.5,2.5 0 0 1 -0.0625,0.5 c 0.0333,-0.1627 0.0625,-0.3274 0.0625,-0.5 0,-0.1182 -0.01539,-0.23 -0.03125,-0.3437 -0.0073,-0.053 -0.02075,-0.105 -0.03125,-0.1563 z m 18,1.3438 a 4,4 0 0 1 0.0625,0.6873 c 0,-0.2331 -0.02426,-0.4655 -0.0625,-0.6875 z m -7.9375,0.6873 c 0,0.233 0.02426,0.4654 0.0625,0.6875 a 4,4 0 0 1 -0.0625,-0.6875 z m -13,0.9062 c 0.162744,0.033 0.327411,0.063 0.5,0.063 0.172589,0 0.337256,-0.029 0.5,-0.063 a 2.5,2.5 0 0 1 -0.5,0.063 2.5,2.5 0 0 1 -0.5,-0.063 z m 9.78125,0.25 a 8,8 0 0 1 1.34375,0.4375 c -0.429932,-0.1818 -0.879295,-0.3326 -1.34375,-0.4375 z m 6.46875,2.7813 c 0.241765,0.046 0.494974,0.063 0.75,0.063 a 4,4 0 0 1 -0.75,-0.063 z m -14.71875,0.375 c -0.144638,0.2018 -0.280488,0.4097 -0.40625,0.625 a 8,8 0 0 1 0.40625,-0.625 z m 15.46875,0.5937 a 6,6 0 0 0 1.09375,0.094 6,6 0 0 1 -1.09375,-0.094 z m -19.5,0.7188 a 2.2585649,2.2585649 0 0 1 0.1875,0.125 2.2585649,2.2585649 0 0 0 -0.1875,-0.125 z m 18.125,0.9687 a 8,8 0 0 1 0.15625,0.5 c -0.04126,-0.1725 -0.104016,-0.3321 -0.15625,-0.5 z m 0.375,2.375 a 8,8 0 0 1 -0.09375,1.1563 c 0.05376,-0.3753 0.09375,-0.7662 0.09375,-1.1563 z m -19.40625,0.2188 a 1.4116032,1.4116032 0 0 1 -0.375,0.094 c 0.128503,-0.012 0.258729,-0.05 0.375,-0.094 z m 19.28125,1.125 a 8,8 0 0 1 -0.1875,0.8125 c 0.07593,-0.2712 0.140152,-0.5306 0.1875,-0.8125 z m -0.3125,1.25 a 8,8 0 0 1 -0.3125,0.75 c 0.111245,-0.2419 0.225342,-0.496 0.3125,-0.75 z m -12.5625,0.5 a 5,5 0 0 1 0.9375,0.3125 5,5 0 0 1 0.71875,0.375 c -0.231401,-0.147 -0.463629,-0.2671 -0.71875,-0.375 -0.299096,-0.1266 -0.612012,-0.2459 -0.9375,-0.3125 z m -2.09375,0.031 c -0.290835,0.066 -0.574564,0.1674 -0.84375,0.2813 a 5,5 0 0 1 0.84375,-0.2813 z m 9.3125,0.4688 a 8,8 0 0 1 0.25,0.5625 8,8 0 0 1 0.25,0.7812 8,8 0 0 0 -0.25,-0.7812 8,8 0 0 0 -0.25,-0.5625 z m -4,1.7187 a 5,5 0 0 1 0.375,0.75 c -0.1116,-0.2639 -0.221692,-0.5116 -0.375,-0.75 z m -8.4375,0.031 c -0.146972,0.2314 -0.267093,0.4636 -0.375,0.7187 -0.126507,0.2991 -0.245896,0.612 -0.3125,0.9375 a 5,5 0 0 1 0.3125,-0.9375 5,5 0 0 1 0.375,-0.7187 z m 22.875,1.6562 a 4,4 0 0 0 -2.46875,1.1875 4,4 0 0 0 0,5.625 4,4 0 0 0 5.625,0 4,4 0 0 0 1.0625,-3.8437 4,4 0 0 0 -2.84375,-2.8438 4,4 0 0 0 -0.96875,-0.125 4,4 0 0 0 -0.40625,0 z m -13.6875,0.5 a 5,5 0 0 1 0.03125,0.5 c 0,-0.1726 -0.01418,-0.3319 -0.03125,-0.5 z m -9.96875,0.5 c 0,0.1726 0.01418,0.3319 0.03125,0.5 a 5,5 0 0 1 -0.03125,-0.4995 z m 9.90625,1 a 5,5 0 0 1 -0.3125,0.9375 c 0.126507,-0.2991 0.245896,-0.612 0.3125,-0.9375 z m 13.34375,0 a 2.5,2.5 0 0 1 0.25,0 2.5,2.5 0 0 1 0.5,0.063 c -0.162744,-0.033 -0.327411,-0.063 -0.5,-0.063 -0.172589,0 -0.337256,0.029 -0.5,0.063 a 2.5,2.5 0 0 1 0.25,-0.063 z m -22.84375,0.9375 c 0.1116,0.2639 0.221692,0.5116 0.375,0.75 a 5,5 0 0 1 -0.375,-0.75 z m 8.6875,0.9063 a 5,5 0 0 1 -0.5625,0.6875 5,5 0 0 1 -0.75,0.625 5,5 0 0 1 -0.5,0.2812 c 0.172991,-0.09 0.339536,-0.1728 0.5,-0.2812 0.266002,-0.1798 0.523794,-0.3988 0.75,-0.625 0.20581,-0.2059 0.394931,-0.4485 0.5625,-0.6875 z m 9.28125,0.1562 a 1.5000021,1.5000021 0 0 0 -0.9375,0.4375 1.5000021,1.5000021 0 0 0 0,2.125 1.5000021,1.5000021 0 0 0 2.125,0 1.5000021,1.5000021 0 0 0 0.375,-1.4375 1.5000021,1.5000021 0 0 0 -1.0625,-1.0625 1.5000021,1.5000021 0 0 0 -0.34375,-0.063 1.5000021,1.5000021 0 0 0 -0.15625,0 z m 2.6875,0 c -0.0333,0.1627 -0.0625,0.3274 -0.0625,0.5 0,0.1726 0.0292,0.3373 0.0625,0.5 a 2.5,2.5 0 0 1 -0.0625,-0.5 2.5,2.5 0 0 1 0.0625,-0.5 z m 4.875,0 a 2.5,2.5 0 0 1 0.0625,0.5 2.5,2.5 0 0 1 -0.0625,0.5 c 0.0333,-0.1627 0.0625,-0.3274 0.0625,-0.5 0,-0.1726 -0.0292,-0.3373 -0.0625,-0.5 z m -23.59375,1.2188 c 0.231401,0.1469 0.463629,0.267 0.71875,0.375 0.299096,0.1265 0.612012,0.2458 0.9375,0.3125 a 5,5 0 0 1 -0.9375,-0.3125 5,5 0 0 1 -0.71875,-0.375 z m 3.15625,0.75 a 5,5 0 0 1 -0.5,0.031 c 0.172589,0 0.331915,-0.014 0.5,-0.031 z m 12.03125,0.2187 c 0.03654,0.057 0.07737,0.1086 0.125,0.1563 a 0.93750139,0.93750139 0 0 1 -0.125,-0.1563 z m 5.46875,0.75 c 0.162744,0.033 0.327411,0.063 0.5,0.063 0.172589,0 0.337256,-0.029 0.5,-0.063 a 2.5,2.5 0 0 1 -0.5,0.063 2.5,2.5 0 0 1 -0.5,-0.063 z"
       id="path55595"
       inkscape:connector-curvature="0" />
    <path
       style="fill:red;fill-opacity:0.25098039;stroke:none"
       d="m 38.312182,1023.1122 c -0.517768,0 -0.9375,0.4197 -0.9375,0.9375 0,0.5178 0.419732,0.9375 0.9375,0.9375 0.517768,0 0.9375,-0.4197 0.9375,-0.9375 0,-0.5178 -0.419732,-0.9375 -0.9375,-0.9375 z m 5.1875,1.25 c -1.380712,0 -2.5,1.1193 -2.5,2.5 0,1.3807 1.119288,2.5 2.5,2.5 1.380712,0 2.5,-1.1193 2.5,-2.5 0,-1.3807 -1.119288,-2.5 -2.5,-2.5 z m 16.5,0.031 c -2.209139,0 -4,1.7908 -4,4 0,2.2091 1.790861,4 4,4 2.209139,0 4,-1.7909 4,-4 0,-2.2092 -1.790861,-4 -4,-4 z m -9,4.9687 c -4.280003,0 -7.754183,3.3671 -7.96875,7.5938 a 8,8 0 0 1 3.09375,-0.5938 8,8 0 0 1 1.9375,0.2813 8,8 0 0 1 5.65625,5.6562 8,8 0 0 1 0.25,2.5 c 2.952672,-1.1769 5.03125,-4.0651 5.03125,-7.4375 0,-4.4183 -3.581722,-8 -8,-8 z m -11.90625,5.5 c -0.779607,0 -1.40625,0.6266 -1.40625,1.4063 0,0.7796 0.626643,1.4062 1.40625,1.4062 0.779607,0 1.4375,-0.6266 1.4375,-1.4062 0,-0.7797 -0.657893,-1.4063 -1.4375,-1.4063 z m 5.90625,5.5 c -2.761424,0 -5,2.2386 -5,5 0,2.7614 2.238576,5 5,5 2.761424,0 5,-2.2386 5,-5 0,-2.7614 -2.238576,-5 -5,-5 z m 18.5,6 c -1.380712,0 -2.5,1.1193 -2.5,2.5 0,1.3807 1.119288,2.5 2.5,2.5 1.380712,0 2.5,-1.1193 2.5,-2.5 0,-1.3807 -1.119288,-2.5 -2.5,-2.5 z m -5.1875,2.75 c -0.517768,0 -0.9375,0.4197 -0.9375,0.9375 0,0.5178 0.419732,0.9375 0.9375,0.9375 0.517768,0 0.9375,-0.4197 0.9375,-0.9375 0,-0.5178 -0.419732,-0.9375 -0.9375,-0.9375 z"
       id="path60871"
       inkscape:connector-curvature="0" />
  </g>
  <g
     inkscape:groupmode="layer"
     id="layer7"
     inkscape:label="Holes" />
  <g
     inkscape:groupmode="layer"
     id="layer6"
     inkscape:label="Wall">
    <g
       transform="translate(8.9999998,22)"
       id="g6895">
      <path
         sodipodi:nodetypes="ccccc"
         inkscape:connector-curvature="0"
         id="path6884"
         d="m 13.876953,0.01171875 -3.21875,6.43554685 3.539063,1.7695313 3.089843,-3.0898438 z"
         style="font-size:medium;font-style:normal;font-variant:normal;font-weight:normal;font-stretch:normal;text-indent:0;text-align:start;text-decoration:none;line-height:normal;letter-spacing:normal;word-spacing:normal;text-transform:none;direction:ltr;block-progression:tb;writing-mode:lr-tb;text-anchor:start;baseline-shift:baseline;color:black;fill:black;fill-opacity:1;fill-rule:nonzero;stroke:none;visibility:visible;display:inline;overflow:visible;enable-background:accumulate;font-family:sans-serif" />
      <path
         style="fill:#4d4d4d;fill-opacity:1;fill-rule:nonzero;stroke:none"
         d="m 14,7 c 0,0 0,-5 0,-5 l -2,4 z"
         id="path5165"
         inkscape:connector-curvature="0" />
      <path
         style="fill:blue;fill-opacity:1;fill-rule:nonzero;stroke:none"
         d="M 14,7 16,5 14,2 z"
         id="path5167"
         inkscape:connector-curvature="0" />
      <path
         style="fill:#6b6b6b;fill-opacity:1;fill-rule:nonzero;stroke:none"
         d="m 14.5,6.5 1,-1 0,-1.25 -1,-1.5 0,3.75 z"
         id="path5169"
         inkscape:connector-curvature="0" />
    </g>
    <g
       transform="matrix(0.5,-0.8660254,0.8660254,0.5,-14.643545,33.679599)"
       id="g6852">
      <path
         sodipodi:nodetypes="ccccccc"
         inkscape:connector-curvature="0"
         id="path6835"
         d="M 25.837891,3 21.699219,4.3808592 25.453125,14.390625 28.707031,12.763672 32.183594,6.9726562 29.535156,3 z"
         style="font-size:medium;font-style:normal;font-variant:normal;font-weight:normal;font-stretch:normal;text-indent:0;text-align:start;text-decoration:none;line-height:normal;letter-spacing:normal;word-spacing:normal;text-transform:none;direction:ltr;block-progression:tb;writing-mode:lr-tb;text-anchor:start;baseline-shift:baseline;color:black;fill:black;fill-opacity:1;fill-rule:nonzero;stroke:none;visibility:visible;display:inline;overflow:visible;enable-background:accumulate;font-family:sans-serif" />
      <path
         inkscape:connector-curvature="0"
         id="path6379"
         d="m 26,4 0,8 2,0 0,-8 -2,0 z"
         style="fill:#0080ff;fill-opacity:1;fill-rule:nonzero;stroke:none" />
      <path
         inkscape:connector-curvature="0"
         id="path6400"
         d="m 23,5 3,-1 0,8 -3,-7 z"
         style="fill:blue;fill-opacity:1;fill-rule:nonzero;stroke:none" />
      <path
         inkscape:connector-curvature="0"
         id="path6402"
         d="m 28,4 1,0 1,3 -2,5 z"
         style="fill:aqua;fill-opacity:1;fill-rule:nonzero;stroke:none" />
      <path
         inkscape:connector-curvature="0"
         id="path6404"
         d="m 25,4.333984 -1,0.332032 0,2.667968 1,2.332032 0,-5.332032 z"
         style="fill:#c3c3c3;fill-opacity:1;fill-rule:nonzero;stroke:none" />
      <path
         inkscape:connector-curvature="0"
         id="path6419"
         d="M 29,4 29,9.5 30,7 29,4 z"
         style="fill:#6b6b6b;fill-opacity:1;fill-rule:nonzero;stroke:none" />
      <path
         inkscape:connector-curvature="0"
         id="path6424"
         d="m 23,5 3,8 2,-1 -2,0 z"
         style="fill:#4d4d4d;fill-opacity:1;fill-rule:nonzero;stroke:none" />
      <path
         inkscape:connector-curvature="0"
         id="path6426"
         d="m 29,4 2,3 -3,5 2,-5 z"
         style="fill:#e6e6e6;fill-opacity:1;fill-rule:nonzero;stroke:none" />
    </g>
    <g
       id="g6923"
       transform="matrix(-0.5,0.8660254,-0.8660254,-0.5,29.522036,-1.929288)">
      <path
         style="font-size:medium;font-style:normal;font-variant:normal;font-weight:normal;font-stretch:normal;text-indent:0;text-align:start;text-decoration:none;line-height:normal;letter-spacing:normal;word-spacing:normal;text-transform:none;direction:ltr;block-progression:tb;writing-mode:lr-tb;text-anchor:start;baseline-shift:baseline;color:black;fill:black;fill-opacity:1;fill-rule:nonzero;stroke:none;visibility:visible;display:inline;overflow:visible;enable-background:accumulate;font-family:sans-serif"
         d="m 13.876953,0.01171875 -3.21875,6.43554685 3.539063,1.7695313 3.089843,-3.0898438 z"
         id="path6925"
         inkscape:connector-curvature="0"
         sodipodi:nodetypes="ccccc" />
      <path
         inkscape:connector-curvature="0"
         id="path6927"
         d="m 14,7 c 0,0 0,-5 0,-5 l -2,4 z"
         style="fill:#e6e6e6;fill-opacity:1;fill-rule:nonzero;stroke:none" />
      <path
         inkscape:connector-curvature="0"
         id="path6929"
         d="M 14,7 16,5 14,2 z"
         style="fill:aqua;fill-opacity:1;fill-rule:nonzero;stroke:none" />
      <path
         inkscape:connector-curvature="0"
         id="path6931"
         d="m 14.5,6.5 1,-1 0,-1.25 -1,-1.5 0,3.75 z"
         style="fill:#c3c3c3;fill-opacity:1;fill-rule:nonzero;stroke:none" />
    </g>
  </g>
  <g
     inkscape:groupmode="layer"
     id="layer5"
     inkscape:label="right"
     style="display:inline" />
  <g
     inkscape:groupmode="layer"
     id="layer4"
     inkscape:label="left" />
  <g
     inkscape:groupmode="layer"
     id="layer3"
     inkscape:label="bottom"
     style="display:inline" />
  <g
     inkscape:groupmode="layer"
     id="layer2"
     inkscape:label="top">
    <g
       id="g9950"
       transform="matrix(-1,0,0,-1,32,32)">
      <circle
         r="0.5"
         cy="11.5"
         cx="14.5"
         style="fill:gray;fill-opacity:1;fill-rule:nonzero;stroke:none"
         id="path3265"
         d="M 15,11.5 C 15,11.776142 14.776142,12 14.5,12 14.223858,12 14,11.776142 14,11.5 14,11.223858 14.223858,11 14.5,11 c 0.276142,0 0.5,0.223858 0.5,0.5 z"
         sodipodi:cx="14.5"
         sodipodi:cy="11.5"
         sodipodi:rx="0.5"
         sodipodi:ry="0.5"
         transform="translate(-4.4609701,-7.7855519)" />
      <circle
         r="0.5"
         cy="9.5"
         cx="11.5"
         style="fill:#e6e6e6;fill-opacity:1;fill-rule:nonzero;stroke:none"
         id="path3267"
         d="M 12,9.5 C 12,9.7761424 11.776142,10 11.5,10 11.223858,10 11,9.7761424 11,9.5 11,9.2238576 11.223858,9 11.5,9 11.776142,9 12,9.2238576 12,9.5 z"
         sodipodi:cx="11.5"
         sodipodi:cy="9.5"
         sodipodi:rx="0.5"
         sodipodi:ry="0.5"
         transform="translate(-5.4179,14.349849)" />
      <circle
         r="0.5"
         cy="4.5"
         cx="8.5"
         style="fill:aqua;fill-opacity:1;fill-rule:nonzero;stroke:none"
         id="path3269"
         d="M 9,4.5 C 9,4.7761424 8.7761424,5 8.5,5 8.2238576,5 8,4.7761424 8,4.5 8,4.2238576 8.2238576,4 8.5,4 8.7761424,4 9,4.2238576 9,4.5 z"
         sodipodi:cx="8.5"
         sodipodi:cy="4.5"
         sodipodi:rx="0.5"
         sodipodi:ry="0.5"
         transform="translate(15.354242,0.88783597)" />
      <circle
         r="0.5"
         cy="16.5"
         cx="3.5"
         style="fill:gray;fill-opacity:1;fill-rule:nonzero;stroke:none"
         id="path3271"
         d="M 4,16.5 C 4,16.776142 3.7761424,17 3.5,17 3.2238576,17 3,16.776142 3,16.5 3,16.223858 3.2238576,16 3.5,16 3.7761424,16 4,16.223858 4,16.5 z"
         sodipodi:cx="3.5"
         sodipodi:cy="16.5"
         sodipodi:rx="0.5"
         sodipodi:ry="0.5"
         transform="translate(20.983341,-14.293635)" />
      <circle
         r="0.5"
         cy="17.5"
         cx="16.5"
         style="fill:#333;fill-opacity:1;fill-rule:nonzero;stroke:none"
         id="path3273"
         d="M 17,17.5 C 17,17.776142 16.776142,18 16.5,18 16.223858,18 16,17.776142 16,17.5 16,17.223858 16.223858,17 16.5,17 c 0.276142,0 0.5,0.223858 0.5,0.5 z"
         sodipodi:cx="16.5"
         sodipodi:cy="17.5"
         sodipodi:rx="0.5"
         sodipodi:ry="0.5"
         transform="translate(-12.882062,-15.680467)" />
      <circle
         r="0.5"
         cy="26.5"
         cx="6.5"
         style="fill:aqua;fill-opacity:1;fill-rule:nonzero;stroke:none"
         id="path3275"
         d="M 7,26.5 C 7,26.776142 6.7761424,27 6.5,27 6.2238576,27 6,26.776142 6,26.5 6,26.223858 6.2238576,26 6.5,26 6.7761424,26 7,26.223858 7,26.5 z"
         sodipodi:cx="6.5"
         sodipodi:cy="26.5"
         sodipodi:rx="0.5"
         sodipodi:ry="0.5"
         transform="translate(-5.5789624,2.7922906)" />
      <circle
         r="0.5"
         cy="27.5"
         cx="28.5"
         style="fill:#333;fill-opacity:1;fill-rule:nonzero;stroke:none"
         id="path3277"
         d="M 29,27.5 C 29,27.776142 28.776142,28 28.5,28 28.223858,28 28,27.776142 28,27.5 28,27.223858 28.223858,27 28.5,27 c 0.276142,0 0.5,0.223858 0.5,0.5 z"
         sodipodi:cx="28.5"
         sodipodi:cy="27.5"
         sodipodi:rx="0.5"
         sodipodi:ry="0.5"
         transform="translate(-27.878278,-22.619261)" />
      <circle
         r="0.5"
         cy="12.5"
         cx="21.5"
         style="fill:#e6e6e6;fill-opacity:1;fill-rule:nonzero;stroke:none"
         id="path3305"
         d="M 22,12.5 C 22,12.776142 21.776142,13 21.5,13 21.223858,13 21,12.776142 21,12.5 21,12.223858 21.223858,12 21.5,12 c 0.276142,0 0.5,0.223858 0.5,0.5 z"
         sodipodi:cx="21.5"
         sodipodi:cy="12.5"
         sodipodi:rx="0.5"
         sodipodi:ry="0.5"
         transform="translate(-19.804717,-7.9100135)" />
      <circle
         r="0.5"
         cy="29.5"
         cx="18.5"
         id="path3315"
         style="fill:#333;fill-opacity:1;fill-rule:nonzero;stroke:none"
         d="M 19,29.5 C 19,29.776142 18.776142,30 18.5,30 18.223858,30 18,29.776142 18,29.5 18,29.223858 18.223858,29 18.5,29 c 0.276142,0 0.5,0.223858 0.5,0.5 z"
         sodipodi:cx="18.5"
         sodipodi:cy="29.5"
         sodipodi:rx="0.5"
         sodipodi:ry="0.5"
         transform="translate(-16.943173,-27.094541)" />
      <circle
         r="0.5"
         cy="27.5"
         cx="18.5"
         style="fill:#333;fill-opacity:1;fill-rule:nonzero;stroke:none"
         id="path3317"
         d="M 19,27.5 C 19,27.776142 18.776142,28 18.5,28 18.223858,28 18,27.776142 18,27.5 18,27.223858 18.223858,27 18.5,27 c 0.276142,0 0.5,0.223858 0.5,0.5 z"
         sodipodi:cx="18.5"
         sodipodi:cy="27.5"
         sodipodi:rx="0.5"
         sodipodi:ry="0.5"
         transform="translate(1.4197356,-18.289257)" />
      <circle
         r="0.5"
         cy="10.5"
         cx="26.5"
         style="fill:#333;fill-opacity:1;fill-rule:nonzero;stroke:none"
         id="path3321"
         d="M 27,10.5 C 27,10.776142 26.776142,11 26.5,11 26.223858,11 26,10.776142 26,10.5 26,10.223858 26.223858,10 26.5,10 c 0.276142,0 0.5,0.223858 0.5,0.5 z"
         sodipodi:cx="26.5"
         sodipodi:cy="10.5"
         sodipodi:rx="0.5"
         sodipodi:ry="0.5"
         transform="translate(-11.855648,11.788726)" />
      <circle
         r="0.5"
         cy="28.595652"
         cx="20.5"
         style="fill:blue;fill-opacity:1;fill-rule:nonzero;stroke:none"
         id="path3323"
         d="m 21,28.595652 c 0,0.276142 -0.223858,0.5 -0.5,0.5 -0.276142,0 -0.5,-0.223858 -0.5,-0.5 0,-0.276143 0.223858,-0.5 0.5,-0.5 0.276142,0 0.5,0.223857 0.5,0.5 z"
         sodipodi:cx="20.5"
         sodipodi:cy="28.595652"
         sodipodi:rx="0.5"
         sodipodi:ry="0.5"
         transform="translate(-8.1643961,-19.886131)" />
      <circle
         r="0.5"
         cy="23.5"
         cx="9.5"
         style="fill:#333;fill-opacity:1;fill-rule:nonzero;stroke:none"
         id="path3327"
         d="M 10,23.5 C 10,23.776142 9.7761424,24 9.5,24 9.2238576,24 9,23.776142 9,23.5 9,23.223858 9.2238576,23 9.5,23 9.7761424,23 10,23.223858 10,23.5 z"
         sodipodi:cx="9.5"
         sodipodi:cy="23.5"
         sodipodi:rx="0.5"
         sodipodi:ry="0.5"
         transform="translate(1.9136882,-0.1664777)" />
      <circle
         r="0.5"
         cy="24.647825"
         cx="4.5"
         id="path3329"
         style="fill:aqua;fill-opacity:1;fill-rule:nonzero;stroke:none"
         d="m 5,24.647825 c 0,0.276143 -0.2238576,0.5 -0.5,0.5 -0.2761424,0 -0.5,-0.223857 -0.5,-0.5 0,-0.276142 0.2238576,-0.5 0.5,-0.5 0.2761424,0 0.5,0.223858 0.5,0.5 z"
         sodipodi:cx="4.5"
         sodipodi:cy="24.647825"
         sodipodi:rx="0.5"
         sodipodi:ry="0.5"
         transform="translate(7.3379208,-1.1930945)" />
      <circle
         r="0.5"
         cy="21.5"
         cx="4.5"
         style="fill:blue;fill-opacity:1;fill-rule:nonzero;stroke:none"
         id="path3331"
         d="M 5,21.5 C 5,21.776142 4.7761424,22 4.5,22 4.2238576,22 4,21.776142 4,21.5 4,21.223858 4.2238576,21 4.5,21 4.7761424,21 5,21.223858 5,21.5 z"
         sodipodi:cx="4.5"
         sodipodi:cy="21.5"
         sodipodi:rx="0.5"
         sodipodi:ry="0.5"
         transform="translate(14.252388,-13.326999)" />
      <circle
         r="0.5"
         cy="22.5"
         cx="1.421739"
         id="path3333"
         style="fill:#333;fill-opacity:1;fill-rule:nonzero;stroke:none"
         d="m 1.921739,22.5 c 0,0.276142 -0.2238576,0.5 -0.5,0.5 -0.2761424,0 -0.50000002,-0.223858 -0.50000002,-0.5 0,-0.276142 0.22385762,-0.5 0.50000002,-0.5 0.2761424,0 0.5,0.223858 0.5,0.5 z"
         sodipodi:cx="1.421739"
         sodipodi:cy="22.5"
         sodipodi:rx="0.5"
         sodipodi:ry="0.5"
         transform="translate(5.1218017,2.9003888)" />
      <circle
         r="0.5"
         cy="0.5"
         cx="0.5"
         style="fill:#333;fill-opacity:1;fill-rule:nonzero;stroke:none"
         id="path3339"
         d="M 1,0.5 C 1,0.77614237 0.77614237,1 0.5,1 0.22385763,1 0,0.77614237 0,0.5 0,0.22385763 0.22385763,0 0.5,0 0.77614237,0 1,0.22385763 1,0.5 z"
         sodipodi:cx="0.5"
         sodipodi:cy="0.5"
         sodipodi:rx="0.5"
         sodipodi:ry="0.5"
         transform="translate(3.4130468,20.923488)" />
      <circle
         r="0.5"
         cy="17.5"
         cx="12.5"
         id="path3341"
         style="fill:#333;fill-opacity:1;fill-rule:nonzero;stroke:none"
         d="M 13,17.5 C 13,17.776142 12.776142,18 12.5,18 12.223858,18 12,17.776142 12,17.5 12,17.223858 12.223858,17 12.5,17 c 0.276142,0 0.5,0.223858 0.5,0.5 z"
         sodipodi:cx="12.5"
         sodipodi:cy="17.5"
         sodipodi:rx="0.5"
         sodipodi:ry="0.5"
         transform="translate(-10.32055,12.210762)" />
      <circle
         r="0.5"
         cy="4.5"
         cx="24.5"
         style="fill:gray;fill-opacity:1;fill-rule:nonzero;stroke:none"
         id="path3345"
         d="M 25,4.5 C 25,4.7761424 24.776142,5 24.5,5 24.223858,5 24,4.7761424 24,4.5 24,4.2238576 24.223858,4 24.5,4 24.776142,4 25,4.2238576 25,4.5 z"
         sodipodi:cx="24.5"
         sodipodi:cy="4.5"
         sodipodi:rx="0.5"
         sodipodi:ry="0.5"
         transform="translate(-0.88552578,10.671999)" />
      <circle
         r="0.5"
         cy="1.5"
         cx="29.404348"
         id="path3347"
         style="fill:gray;fill-opacity:1;fill-rule:nonzero;stroke:none"
         d="m 29.904348,1.5 c 0,0.2761424 -0.223857,0.5 -0.5,0.5 -0.276142,0 -0.5,-0.2238576 -0.5,-0.5 0,-0.2761424 0.223858,-0.5 0.5,-0.5 0.276143,0 0.5,0.2238576 0.5,0.5 z"
         sodipodi:cx="29.404348"
         sodipodi:cy="1.5"
         sodipodi:rx="0.5"
         sodipodi:ry="0.5"
         transform="translate(-0.52056504,16.012312)" />
      <circle
         r="0.5"
         cy="13.5"
         cx="18.5"
         id="path3351"
         style="fill:aqua;fill-opacity:1;fill-rule:nonzero;stroke:none"
         d="M 19,13.5 C 19,13.776142 18.776142,14 18.5,14 18.223858,14 18,13.776142 18,13.5 18,13.223858 18.223858,13 18.5,13 c 0.276142,0 0.5,0.223858 0.5,0.5 z"
         sodipodi:cx="18.5"
         sodipodi:cy="13.5"
         sodipodi:rx="0.5"
         sodipodi:ry="0.5"
         transform="translate(-10.091561,13.392266)" />
      <circle
         r="0.5"
         cy="12.5"
         cx="9.5"
         style="fill:gray;fill-opacity:1;fill-rule:nonzero;stroke:none"
         id="path3353"
         d="M 10,12.5 C 10,12.776142 9.7761424,13 9.5,13 9.2238576,13 9,12.776142 9,12.5 9,12.223858 9.2238576,12 9.5,12 9.7761424,12 10,12.223858 10,12.5 z"
         sodipodi:cx="9.5"
         sodipodi:cy="12.5"
         sodipodi:rx="0.5"
         sodipodi:ry="0.5"
         transform="translate(-5.1554256,-9.5095458)" />
      <circle
         r="0.5"
         cy="9.5"
         cx="6.5"
         id="path3355"
         style="fill:gray;fill-opacity:1;fill-rule:nonzero;stroke:none"
         d="M 7,9.5 C 7,9.7761424 6.7761424,10 6.5,10 6.2238576,10 6,9.7761424 6,9.5 6,9.2238576 6.2238576,9 6.5,9 6.7761424,9 7,9.2238576 7,9.5 z"
         sodipodi:cx="6.5"
         sodipodi:cy="9.5"
         sodipodi:rx="0.5"
         sodipodi:ry="0.5"
         transform="translate(-3.0919458,-0.57870119)" />
      <circle
         r="0.5"
         cy="22.5"
         cx="31.5"
         id="path3359"
         style="fill:blue;fill-opacity:1;fill-rule:nonzero;stroke:none"
         d="M 32,22.5 C 32,22.776142 31.776142,23 31.5,23 31.223858,23 31,22.776142 31,22.5 31,22.223858 31.223858,22 31.5,22 c 0.276142,0 0.5,0.223858 0.5,0.5 z"
         sodipodi:cx="31.5"
         sodipodi:cy="22.5"
         sodipodi:rx="0.5"
         sodipodi:ry="0.5"
         transform="translate(-24.495598,3.2518386)" />
      <circle
         r="0.5"
         cy="21.595652"
         cx="14.5"
         style="fill:gray;fill-opacity:1;fill-rule:nonzero;stroke:none"
         id="path3361"
         d="m 15,21.595652 c 0,0.276142 -0.223858,0.5 -0.5,0.5 -0.276142,0 -0.5,-0.223858 -0.5,-0.5 0,-0.276143 0.223858,-0.5 0.5,-0.5 0.276142,0 0.5,0.223857 0.5,0.5 z"
         sodipodi:cx="14.5"
         sodipodi:cy="21.595652"
         sodipodi:rx="0.5"
         sodipodi:ry="0.5"
         transform="translate(11.357654,-1.2179051)" />
      <circle
         r="0.5"
         cy="4.5"
         cx="31.334784"
         style="fill:#333;fill-opacity:1;fill-rule:nonzero;stroke:none"
         id="path3363"
         d="m 31.834784,4.5 c 0,0.2761424 -0.223858,0.5 -0.5,0.5 -0.276143,0 -0.5,-0.2238576 -0.5,-0.5 0,-0.2761424 0.223857,-0.5 0.5,-0.5 0.276142,0 0.5,0.2238576 0.5,0.5 z"
         sodipodi:cx="31.334784"
         sodipodi:cy="4.5"
         sodipodi:rx="0.5"
         sodipodi:ry="0.5"
         transform="translate(-10.343725,24.231183)" />
      <circle
         r="0.5"
         cy="1.595652"
         cx="16.5"
         id="path3365"
         style="fill:#333;fill-opacity:1;fill-rule:nonzero;stroke:none"
         d="m 17,1.595652 c 0,0.2761424 -0.223858,0.5 -0.5,0.5 -0.276142,0 -0.5,-0.2238576 -0.5,-0.5 0,-0.2761424 0.223858,-0.5 0.5,-0.5 0.276142,0 0.5,0.2238576 0.5,0.5 z"
         sodipodi:cx="16.5"
         sodipodi:cy="1.595652"
         sodipodi:rx="0.5"
         sodipodi:ry="0.5"
         transform="translate(7.2029396,26.649676)" />
      <circle
         r="0.5"
         cy="30.5"
         cx="3.5347829"
         style="fill:#333;fill-opacity:1;fill-rule:nonzero;stroke:none"
         id="path3371"
         d="m 4.0347829,30.5 c 0,0.276142 -0.2238576,0.5 -0.5,0.5 -0.2761424,0 -0.5,-0.223858 -0.5,-0.5 0,-0.276142 0.2238576,-0.5 0.5,-0.5 0.2761424,0 0.5,0.223858 0.5,0.5 z"
         sodipodi:cx="3.5347829"
         sodipodi:cy="30.5"
         sodipodi:rx="0.5"
         sodipodi:ry="0.5"
         transform="translate(15.063421,-4.6453034)" />
      <circle
         r="0.5"
         cy="16.5"
         cx="19.5"
         style="fill:aqua;fill-opacity:1;fill-rule:nonzero;stroke:none"
         id="path3373"
         d="M 20,16.5 C 20,16.776142 19.776142,17 19.5,17 19.223858,17 19,16.776142 19,16.5 19,16.223858 19.223858,16 19.5,16 c 0.276142,0 0.5,0.223858 0.5,0.5 z"
         sodipodi:cx="19.5"
         sodipodi:cy="16.5"
         sodipodi:rx="0.5"
         sodipodi:ry="0.5"
         transform="translate(-18.477439,11.223854)" />
      <circle
         r="0.5"
         cy="17.5"
         cx="28.5"
         id="path3375"
         style="fill:gray;fill-opacity:1;fill-rule:nonzero;stroke:none"
         d="M 29,17.5 C 29,17.776142 28.776142,18 28.5,18 28.223858,18 28,17.776142 28,17.5 28,17.223858 28.223858,17 28.5,17 c 0.276142,0 0.5,0.223858 0.5,0.5 z"
         sodipodi:cx="28.5"
         sodipodi:cy="17.5"
         sodipodi:rx="0.5"
         sodipodi:ry="0.5"
         transform="translate(-25.007538,-10.25257)" />
      <circle
         r="0.5"
         cy="18.5"
         cx="19.5"
         style="fill:gray;fill-opacity:1;fill-rule:nonzero;stroke:none"
         id="path3377"
         d="M 20,18.5 C 20,18.776142 19.776142,19 19.5,19 19.223858,19 19,18.776142 19,18.5 19,18.223858 19.223858,18 19.5,18 c 0.276142,0 0.5,0.223858 0.5,0.5 z"
         sodipodi:cx="19.5"
         sodipodi:cy="18.5"
         sodipodi:rx="0.5"
         sodipodi:ry="0.5"
         transform="translate(11.309956,-7.8643576)" />
      <circle
         r="0.5"
         cy="6.5"
         cx="29.5"
         id="path3381"
         style="fill:blue;fill-opacity:1;fill-rule:nonzero;stroke:none"
         d="M 30,6.5 C 30,6.7761424 29.776142,7 29.5,7 29.223858,7 29,6.7761424 29,6.5 29,6.2238576 29.223858,6 29.5,6 29.776142,6 30,6.2238576 30,6.5 z"
         sodipodi:cx="29.5"
         sodipodi:cy="6.5"
         sodipodi:rx="0.5"
         sodipodi:ry="0.5"
         transform="translate(-25.177218,4.9013407)" />
      <circle
         r="0.5"
         cy="12.5"
         cx="30.5"
         style="fill:#e6e6e6;fill-opacity:1;fill-rule:nonzero;stroke:none"
         id="path3383"
         d="M 31,12.5 C 31,12.776142 30.776142,13 30.5,13 30.223858,13 30,12.776142 30,12.5 30,12.223858 30.223858,12 30.5,12 c 0.276142,0 0.5,0.223858 0.5,0.5 z"
         sodipodi:cx="30.5"
         sodipodi:cy="12.5"
         sodipodi:rx="0.5"
         sodipodi:ry="0.5"
         transform="translate(-2.9345858,0.6964177)" />
      <circle
         r="0.5"
         cy="7.4391303"
         cx="-27.560869"
         transform="matrix(0,-1,1,0,15.538987,-5.6794963)"
         id="path17101"
         style="fill:aqua;fill-opacity:1;fill-rule:nonzero;stroke:none"
         d="m -27.060869,7.4391303 c 0,0.2761424 -0.223858,0.5 -0.5,0.5 -0.276143,0 -0.5,-0.2238576 -0.5,-0.5 0,-0.2761424 0.223857,-0.5 0.5,-0.5 0.276142,0 0.5,0.2238576 0.5,0.5 z"
         sodipodi:cx="-27.560869"
         sodipodi:cy="7.4391303"
         sodipodi:rx="0.5"
         sodipodi:ry="0.5" />
      <circle
         r="0.5"
         cy="11.439131"
         cx="-17.560869"
         id="path17103"
         style="fill:gray;fill-opacity:1;fill-rule:nonzero;stroke:none"
         transform="matrix(0,-1,1,0,3.7703241,7.5517149)"
         d="m -17.060869,11.439131 c 0,0.276142 -0.223858,0.5 -0.5,0.5 -0.276143,0 -0.5,-0.223858 -0.5,-0.5 0,-0.276143 0.223857,-0.5 0.5,-0.5 0.276142,0 0.5,0.223857 0.5,0.5 z"
         sodipodi:cx="-17.560869"
         sodipodi:cy="11.439131"
         sodipodi:rx="0.5"
         sodipodi:ry="0.5" />
      <circle
         r="0.5"
         cy="16.439131"
         cx="-28.560869"
         id="path17109"
         style="fill:gray;fill-opacity:1;fill-rule:nonzero;stroke:none"
         transform="matrix(0,-1,1,0,-3.1551575,-15.814078)"
         d="m -28.060869,16.439131 c 0,0.276142 -0.223858,0.5 -0.5,0.5 -0.276143,0 -0.5,-0.223858 -0.5,-0.5 0,-0.276143 0.223857,-0.5 0.5,-0.5 0.276142,0 0.5,0.223857 0.5,0.5 z"
         sodipodi:cx="-28.560869"
         sodipodi:cy="16.439131"
         sodipodi:rx="0.5"
         sodipodi:ry="0.5" />
      <circle
         r="0.5"
         cy="17.439131"
         cx="-15.560869"
         id="path17111"
         style="fill:#333;fill-opacity:1;fill-rule:nonzero;stroke:none"
         transform="matrix(0,-1,1,0,-6.5393783,8.2799514)"
         d="m -15.060869,17.439131 c 0,0.276142 -0.223858,0.5 -0.5,0.5 -0.276143,0 -0.5,-0.223858 -0.5,-0.5 0,-0.276143 0.223857,-0.5 0.5,-0.5 0.276142,0 0.5,0.223857 0.5,0.5 z"
         sodipodi:cx="-15.560869"
         sodipodi:cy="17.439131"
         sodipodi:rx="0.5"
         sodipodi:ry="0.5" />
      <circle
         r="0.5"
         cy="26.439131"
         cx="-25.560869"
         id="path17113"
         style="fill:gray;fill-opacity:1;fill-rule:nonzero;stroke:none"
         transform="matrix(0,-1,1,0,-6.3756409,3.632073)"
         d="m -25.060869,26.439131 c 0,0.276142 -0.223858,0.5 -0.5,0.5 -0.276143,0 -0.5,-0.223858 -0.5,-0.5 0,-0.276143 0.223857,-0.5 0.5,-0.5 0.276142,0 0.5,0.223857 0.5,0.5 z"
         sodipodi:cx="-25.560869"
         sodipodi:cy="26.439131"
         sodipodi:rx="0.5"
         sodipodi:ry="0.5" />
      <circle
         r="0.5"
         cy="27.439131"
         cx="-3.560869"
         id="path17115"
         style="fill:blue;fill-opacity:1;fill-rule:nonzero;stroke:none"
         transform="matrix(0,-1,1,0,-5.879242,6.4279932)"
         d="m -3.060869,27.439131 c 0,0.276142 -0.2238576,0.5 -0.5,0.5 -0.2761424,0 -0.5,-0.223858 -0.5,-0.5 0,-0.276143 0.2238576,-0.5 0.5,-0.5 0.2761424,0 0.5,0.223857 0.5,0.5 z"
         sodipodi:cx="-3.560869"
         sodipodi:cy="27.439131"
         sodipodi:rx="0.5"
         sodipodi:ry="0.5" />
      <circle
         r="0.5"
         cy="29.439131"
         cx="-13.560869"
         transform="matrix(0,-1,1,0,-22.610835,0.10786021)"
         style="fill:#333;fill-opacity:1;fill-rule:nonzero;stroke:none"
         id="path17125"
         d="m -13.060869,29.439131 c 0,0.276142 -0.223858,0.5 -0.5,0.5 -0.276143,0 -0.5,-0.223858 -0.5,-0.5 0,-0.276143 0.223857,-0.5 0.5,-0.5 0.276142,0 0.5,0.223857 0.5,0.5 z"
         sodipodi:cx="-13.560869"
         sodipodi:cy="29.439131"
         sodipodi:rx="0.5"
         sodipodi:ry="0.5" />
      <circle
         r="0.5"
         cy="27.439131"
         cx="-13.560869"
         id="path17127"
         style="fill:#333;fill-opacity:1;fill-rule:nonzero;stroke:none"
         transform="matrix(0,-1,1,0,-14.374355,-5.014858)"
         d="m -13.060869,27.439131 c 0,0.276142 -0.223858,0.5 -0.5,0.5 -0.276143,0 -0.5,-0.223858 -0.5,-0.5 0,-0.276143 0.223857,-0.5 0.5,-0.5 0.276142,0 0.5,0.223857 0.5,0.5 z"
         sodipodi:cx="-13.560869"
         sodipodi:cy="27.439131"
         sodipodi:rx="0.5"
         sodipodi:ry="0.5" />
      <circle
         r="0.5"
         cy="10.439131"
         cx="-5.5608692"
         id="path17129"
         style="fill:#333;fill-opacity:1;fill-rule:nonzero;stroke:none"
         transform="matrix(0,-1,1,0,0.94262615,12.106188)"
         d="m -5.0608692,10.439131 c 0,0.276142 -0.2238576,0.5 -0.5,0.5 -0.2761424,0 -0.5,-0.223858 -0.5,-0.5 0,-0.276143 0.2238576,-0.5000002 0.5,-0.5000002 0.2761424,0 0.5,0.2238572 0.5,0.5000002 z"
         sodipodi:cx="-5.5608692"
         sodipodi:cy="10.439131"
         sodipodi:rx="0.5"
         sodipodi:ry="0.5" />
      <circle
         r="0.5"
         cy="28.534782"
         cx="-11.560869"
         id="path17131"
         style="fill:#333;fill-opacity:1;fill-rule:nonzero;stroke:none"
         transform="matrix(0,-1,1,0,-12.014994,-10.721163)"
         d="m -11.060869,28.534782 c 0,0.276143 -0.223858,0.5 -0.5,0.5 -0.276143,0 -0.5,-0.223857 -0.5,-0.5 0,-0.276142 0.223857,-0.5 0.5,-0.5 0.276142,0 0.5,0.223858 0.5,0.5 z"
         sodipodi:cx="-11.560869"
         sodipodi:cy="28.534782"
         sodipodi:rx="0.5"
         sodipodi:ry="0.5" />
      <circle
         r="0.5"
         cy="31.5"
         cx="-17.5"
         transform="matrix(0,-1,1,0,-22.255182,4.1514122)"
         style="fill:#333;fill-opacity:1;fill-rule:nonzero;stroke:none"
         id="path17133"
         d="m -17,31.5 c 0,0.276142 -0.223858,0.5 -0.5,0.5 -0.276142,0 -0.5,-0.223858 -0.5,-0.5 0,-0.276142 0.223858,-0.5 0.5,-0.5 0.276142,0 0.5,0.223858 0.5,0.5 z"
         sodipodi:cx="-17.5"
         sodipodi:cy="31.5"
         sodipodi:rx="0.5"
         sodipodi:ry="0.5" />
      <circle
         r="0.5"
         cy="24.586956"
         cx="-27.560869"
         transform="matrix(0,-1,1,0,-19.365524,-14.285919)"
         style="fill:#333;fill-opacity:1;fill-rule:nonzero;stroke:none"
         id="path17137"
         d="m -27.060869,24.586956 c 0,0.276142 -0.223858,0.5 -0.5,0.5 -0.276143,0 -0.5,-0.223858 -0.5,-0.5 0,-0.276142 0.223857,-0.5 0.5,-0.5 0.276142,0 0.5,0.223858 0.5,0.5 z"
         sodipodi:cx="-27.560869"
         sodipodi:cy="24.586956"
         sodipodi:rx="0.5"
         sodipodi:ry="0.5" />
      <circle
         r="0.5"
         cy="21.439131"
         cx="-27.560869"
         id="path17139"
         style="fill:#333;fill-opacity:1;fill-rule:nonzero;stroke:none"
         transform="matrix(0,-1,1,0,7.8610933,-10.721167)"
         d="m -27.060869,21.439131 c 0,0.276142 -0.223858,0.5 -0.5,0.5 -0.276143,0 -0.5,-0.223858 -0.5,-0.5 0,-0.276143 0.223857,-0.5 0.5,-0.5 0.276142,0 0.5,0.223857 0.5,0.5 z"
         sodipodi:cx="-27.560869"
         sodipodi:cy="21.439131"
         sodipodi:rx="0.5"
         sodipodi:ry="0.5" />
      <circle
         r="0.5"
         cy="22.439131"
         cx="-30.63913"
         transform="matrix(0,-1,1,0,-6.1258195,0.63615633)"
         style="fill:blue;fill-opacity:1;fill-rule:nonzero;stroke:none"
         id="path17141"
         d="m -30.13913,22.439131 c 0,0.276142 -0.223857,0.5 -0.5,0.5 -0.276142,0 -0.5,-0.223858 -0.5,-0.5 0,-0.276143 0.223858,-0.5 0.5,-0.5 0.276143,0 0.5,0.223857 0.5,0.5 z"
         sodipodi:cx="-30.63913"
         sodipodi:cy="22.439131"
         sodipodi:rx="0.5"
         sodipodi:ry="0.5" />
      <circle
         r="0.5"
         cy="0.5"
         cx="-31.5"
         id="path17147"
         style="fill:#333;fill-opacity:1;fill-rule:nonzero;stroke:none"
         transform="matrix(0,-1,1,0,14.734497,-15.311329)"
         d="M -31,0.5 C -31,0.77614237 -31.223858,1 -31.5,1 -31.776142,1 -32,0.77614237 -32,0.5 -32,0.22385763 -31.776142,0 -31.5,0 c 0.276142,0 0.5,0.22385763 0.5,0.5 z"
         sodipodi:cx="-31.5"
         sodipodi:cy="0.5"
         sodipodi:rx="0.5"
         sodipodi:ry="0.5" />
      <circle
         r="0.5"
         cy="4.4391303"
         cx="-7.5608692"
         id="path17153"
         style="fill:gray;fill-opacity:1;fill-rule:nonzero;stroke:none"
         transform="matrix(0,-1,1,0,1.2476819,0.51059005)"
         d="m -7.0608692,4.4391303 c 0,0.2761424 -0.2238576,0.5 -0.5,0.5 -0.2761424,0 -0.5,-0.2238576 -0.5,-0.5 0,-0.2761424 0.2238576,-0.5 0.5,-0.5 0.2761424,0 0.5,0.2238576 0.5,0.5 z"
         sodipodi:cx="-7.5608692"
         sodipodi:cy="4.4391303"
         sodipodi:rx="0.5"
         sodipodi:ry="0.5" />
      <circle
         r="0.5"
         cy="1.4391299"
         cx="-2.6565211"
         transform="matrix(0,-1,1,0,27.495446,4.8848106)"
         style="fill:gray;fill-opacity:1;fill-rule:nonzero;stroke:none"
         id="path17155"
         d="m -2.1565211,1.4391299 c 0,0.2761424 -0.2238576,0.5 -0.5,0.5 -0.2761424,0 -0.5,-0.2238576 -0.5,-0.5 0,-0.2761423 0.2238576,-0.49999995 0.5,-0.49999995 0.2761424,0 0.5,0.22385765 0.5,0.49999995 z"
         sodipodi:cx="-2.6565211"
         sodipodi:cy="1.4391299"
         sodipodi:rx="0.5"
         sodipodi:ry="0.5" />
      <circle
         r="0.5"
         cy="13.439131"
         cx="-13.560869"
         transform="matrix(0,-1,1,0,15.936289,17.496281)"
         style="fill:gray;fill-opacity:1;fill-rule:nonzero;stroke:none"
         id="path17157"
         d="m -13.060869,13.439131 c 0,0.276142 -0.223858,0.5 -0.5,0.5 -0.276143,0 -0.5,-0.223858 -0.5,-0.5 0,-0.276143 0.223857,-0.5 0.5,-0.5 0.276142,0 0.5,0.223857 0.5,0.5 z"
         sodipodi:cx="-13.560869"
         sodipodi:cy="13.439131"
         sodipodi:rx="0.5"
         sodipodi:ry="0.5" />
      <circle
         r="0.5"
         cy="12.439131"
         cx="-22.560869"
         id="path17159"
         style="fill:gray;fill-opacity:1;fill-rule:nonzero;stroke:none"
         transform="matrix(0,-1,1,0,10.214033,-22.024686)"
         d="m -22.060869,12.439131 c 0,0.276142 -0.223858,0.5 -0.5,0.5 -0.276143,0 -0.5,-0.223858 -0.5,-0.5 0,-0.276143 0.223857,-0.5 0.5,-0.5 0.276142,0 0.5,0.223857 0.5,0.5 z"
         sodipodi:cx="-22.560869"
         sodipodi:cy="12.439131"
         sodipodi:rx="0.5"
         sodipodi:ry="0.5" />
      <circle
         r="0.5"
         cy="22.439131"
         cx="-10.560869"
         id="path17163"
         style="fill:blue;fill-opacity:1;fill-rule:nonzero;stroke:none"
         transform="matrix(0,-1,1,0,-9.9676426,7.7936974)"
         d="m -10.060869,22.439131 c 0,0.276142 -0.223858,0.5 -0.5,0.5 -0.276143,0 -0.5,-0.223858 -0.5,-0.5 0,-0.276143 0.223857,-0.5 0.5,-0.5 0.276142,0 0.5,0.223857 0.5,0.5 z"
         sodipodi:cx="-10.560869"
         sodipodi:cy="22.439131"
         sodipodi:rx="0.5"
         sodipodi:ry="0.5" />
      <circle
         r="0.5"
         cy="22.439131"
         cx="-0.56086898"
         transform="matrix(0,-1,1,0,8.7060928,18.052194)"
         style="fill:gray;fill-opacity:1;fill-rule:nonzero;stroke:none"
         id="path17165"
         d="m -0.06086898,22.439131 c 0,0.276142 -0.22385762,0.5 -0.5,0.5 -0.27614237,0 -0.50000002,-0.223858 -0.50000002,-0.5 0,-0.276143 0.22385765,-0.5 0.50000002,-0.5 0.27614238,0 0.5,0.223857 0.5,0.5 z"
         sodipodi:cx="-0.56086898"
         sodipodi:cy="22.439131"
         sodipodi:rx="0.5"
         sodipodi:ry="0.5" />
      <circle
         r="0.5"
         cy="21.534782"
         cx="-17.560869"
         id="path17167"
         style="fill:gray;fill-opacity:1;fill-rule:nonzero;stroke:none"
         transform="matrix(0,-1,1,0,-17.661071,-1.3890238)"
         d="m -17.060869,21.534782 c 0,0.276143 -0.223858,0.5 -0.5,0.5 -0.276143,0 -0.5,-0.223857 -0.5,-0.5 0,-0.276142 0.223857,-0.5 0.5,-0.5 0.276142,0 0.5,0.223858 0.5,0.5 z"
         sodipodi:cx="-17.560869"
         sodipodi:cy="21.534782"
         sodipodi:rx="0.5"
         sodipodi:ry="0.5" />
      <circle
         r="0.5"
         cy="4.4391298"
         cx="-0.72608602"
         id="path17169"
         style="fill:aqua;fill-opacity:1;fill-rule:nonzero;stroke:none"
         transform="matrix(0,-1,1,0,1.6159762,1.8912466)"
         d="m -0.22608602,4.4391298 c 0,0.2761424 -0.22385763,0.5 -0.5,0.5 -0.27614238,0 -0.49999998,-0.2238576 -0.49999998,-0.5 0,-0.2761423 0.2238576,-0.5 0.49999998,-0.5 0.27614237,0 0.5,0.2238577 0.5,0.5 z"
         sodipodi:cx="-0.72608602"
         sodipodi:cy="4.4391298"
         sodipodi:rx="0.5"
         sodipodi:ry="0.5" />
      <circle
         r="0.5"
         cy="20.439131"
         cx="-14.560869"
         id="path17173"
         style="fill:#333;fill-opacity:1;fill-rule:nonzero;stroke:none"
         transform="matrix(0,-1,1,0,10.724361,2.9553272)"
         d="m -14.060869,20.439131 c 0,0.276142 -0.223858,0.5 -0.5,0.5 -0.276143,0 -0.5,-0.223858 -0.5,-0.5 0,-0.276143 0.223857,-0.5 0.5,-0.5 0.276142,0 0.5,0.223857 0.5,0.5 z"
         sodipodi:cx="-14.560869"
         sodipodi:cy="20.439131"
         sodipodi:rx="0.5"
         sodipodi:ry="0.5" />
      <circle
         r="0.5"
         cy="28.439131"
         cx="-18.526087"
         transform="matrix(0,-1,1,0,-17.8066,-7.3129506)"
         style="fill:#333;fill-opacity:1;fill-rule:nonzero;stroke:none"
         id="path17175"
         d="m -18.026087,28.439131 c 0,0.276142 -0.223857,0.5 -0.5,0.5 -0.276142,0 -0.5,-0.223858 -0.5,-0.5 0,-0.276143 0.223858,-0.5 0.5,-0.5 0.276143,0 0.5,0.223857 0.5,0.5 z"
         sodipodi:cx="-18.526087"
         sodipodi:cy="28.439131"
         sodipodi:rx="0.5"
         sodipodi:ry="0.5" />
      <circle
         r="0.5"
         cy="30.439131"
         cx="-28.526087"
         id="path17177"
         style="fill:#333;fill-opacity:1;fill-rule:nonzero;stroke:none"
         transform="matrix(0,-1,1,0,-24.28899,-3.6194719)"
         d="m -28.026087,30.439131 c 0,0.276142 -0.223857,0.5 -0.5,0.5 -0.276142,0 -0.5,-0.223858 -0.5,-0.5 0,-0.276143 0.223858,-0.5 0.5,-0.5 0.276143,0 0.5,0.223857 0.5,0.5 z"
         sodipodi:cx="-28.526087"
         sodipodi:cy="30.439131"
         sodipodi:rx="0.5"
         sodipodi:ry="0.5" />
      <circle
         r="0.5"
         cy="16.439131"
         cx="-12.560869"
         id="path17179"
         style="fill:gray;fill-opacity:1;fill-rule:nonzero;stroke:none"
         transform="matrix(0,-1,1,0,-8.2262284,12.274376)"
         d="m -12.060869,16.439131 c 0,0.276142 -0.223858,0.5 -0.5,0.5 -0.276143,0 -0.5,-0.223858 -0.5,-0.5 0,-0.276143 0.223857,-0.5 0.5,-0.5 0.276142,0 0.5,0.223857 0.5,0.5 z"
         sodipodi:cx="-12.560869"
         sodipodi:cy="16.439131"
         sodipodi:rx="0.5"
         sodipodi:ry="0.5" />
      <circle
         r="0.5"
         cy="18.439131"
         cx="-12.560869"
         id="path17183"
         style="fill:gray;fill-opacity:1;fill-rule:nonzero;stroke:none"
         transform="matrix(0,-1,1,0,-13.127955,-8.0009221)"
         d="m -12.060869,18.439131 c 0,0.276142 -0.223858,0.5 -0.5,0.5 -0.276143,0 -0.5,-0.223858 -0.5,-0.5 0,-0.276143 0.223857,-0.5 0.5,-0.5 0.276142,0 0.5,0.223857 0.5,0.5 z"
         sodipodi:cx="-12.560869"
         sodipodi:cy="18.439131"
         sodipodi:rx="0.5"
         sodipodi:ry="0.5" />
      <circle
         r="0.5"
         cy="5.4391303"
         cx="-11.560869"
         transform="matrix(0,-1,1,0,22.963861,6.5975168)"
         id="path17185"
         style="fill:aqua;fill-opacity:1;fill-rule:nonzero;stroke:none"
         d="m -11.060869,5.4391303 c 0,0.2761424 -0.223858,0.5 -0.5,0.5 -0.276143,0 -0.5,-0.2238576 -0.5,-0.5 0,-0.2761424 0.223857,-0.5 0.5,-0.5 0.276142,0 0.5,0.2238576 0.5,0.5 z"
         sodipodi:cx="-11.560869"
         sodipodi:cy="5.4391303"
         sodipodi:rx="0.5"
         sodipodi:ry="0.5" />
      <circle
         r="0.5"
         cy="12.439131"
         cx="-1.560869"
         transform="matrix(0,-1,1,0,-4.0909929,26.689818)"
         id="path17189"
         style="fill:#e6e6e6;fill-opacity:1;fill-rule:nonzero;stroke:none"
         d="m -1.060869,12.439131 c 0,0.276142 -0.2238576,0.5 -0.5,0.5 -0.2761424,0 -0.5,-0.223858 -0.5,-0.5 0,-0.276143 0.2238576,-0.5 0.5,-0.5 0.2761424,0 0.5,0.223857 0.5,0.5 z"
         sodipodi:cx="-1.560869"
         sodipodi:cy="12.439131"
         sodipodi:rx="0.5"
         sodipodi:ry="0.5" />
      <circle
         r="0.5"
         cy="17.439131"
         cx="-9.5608692"
         transform="matrix(0,-1,1,0,5.921495,9.3460549)"
         id="path17193"
         style="fill:#e6e6e6;fill-opacity:1;fill-rule:nonzero;stroke:none"
         d="m -9.0608692,17.439131 c 0,0.276142 -0.2238576,0.5 -0.5,0.5 -0.2761424,0 -0.4999998,-0.223858 -0.4999998,-0.5 0,-0.276143 0.2238574,-0.5 0.4999998,-0.5 0.2761424,0 0.5,0.223857 0.5,0.5 z"
         sodipodi:cx="-9.5608692"
         sodipodi:cy="17.439131"
         sodipodi:rx="0.5"
         sodipodi:ry="0.5" />
      <path
         style="fill:black;fill-opacity:0.5;fill-rule:nonzero;stroke:none"
         d="m 19.368215,21.987664 0,2 2,1 0,-1 -1,-1 0,-1 z"
         id="path6549"
         inkscape:connector-curvature="0" />
      <path
         style="fill:blue;fill-opacity:1;fill-rule:nonzero;stroke:none"
         d="m 0.85303354,28.222969 1.99999996,-1 1,1 z"
         id="path6551"
         inkscape:connector-curvature="0" />
      <path
         style="fill:black;fill-opacity:0.5;fill-rule:nonzero;stroke:none"
         d="m 11.287545,22.301571 0,2 2,1 z"
         id="path6553"
         inkscape:connector-curvature="0" />
      <path
         style="fill:aqua;fill-opacity:1;fill-rule:nonzero;stroke:none"
         d="m 13.968814,29.792269 3,0 2,1 -3,0 z"
         id="path6555"
         inkscape:connector-curvature="0" />
    </g>
  </g>
</svg>
