<?xml version="1.0" encoding="UTF-8" standalone="no"?>
<!-- Created with Inkscape (http://www.inkscape.org/) -->

<svg
   xmlns:dc="http://purl.org/dc/elements/1.1/"
   xmlns:cc="http://creativecommons.org/ns#"
   xmlns:rdf="http://www.w3.org/1999/02/22-rdf-syntax-ns#"
   xmlns:svg="http://www.w3.org/2000/svg"
   xmlns="http://www.w3.org/2000/svg"
   xmlns:sodipodi="http://sodipodi.sourceforge.net/DTD/sodipodi-0.dtd"
   xmlns:inkscape="http://www.inkscape.org/namespaces/inkscape"
   width="64"
   height="64"
   id="svg3505"
   sodipodi:version="0.32"
   inkscape:version="0.48.5 r10040"
   sodipodi:docname="06.svg"
   inkscape:output_extension="org.inkscape.output.svg.inkscape"
   version="1.0">
  <sodipodi:namedview
     inkscape:window-maximized="1"
     inkscape:guide-bbox="true"
     showguides="true"
     inkscape:bbox-nodes="true"
     inkscape:bbox-paths="true"
     inkscape:snap-guide="true"
     inkscape:snap-bbox="true"
     inkscape:object-nodes="true"
     inkscape:object-paths="true"
     inkscape:window-y="2"
     inkscape:window-x="0"
     inkscape:window-height="741"
     inkscape:window-width="1024"
     guidetolerance="10000"
     gridtolerance="10000"
     objecttolerance="10000"
     inkscape:document-units="px"
     inkscape:grid-bbox="true"
     showgrid="true"
     inkscape:current-layer="layer1"
     inkscape:cy="32"
     inkscape:cx="29.878788"
     inkscape:zoom="8.25"
     inkscape:pageshadow="2"
     inkscape:pageopacity="0.0"
     borderopacity="1.0"
     bordercolor="#666666"
     pagecolor="#ffffff"
     id="base">
    <inkscape:grid
       type="xygrid"
       id="grid3515"
       units="px"
       visible="true"
       enabled="true"
       spacingx="0.5px"
       spacingy="0.5px"
       empspacing="8"
       snapvisiblegridlinesonly="true" />
    <sodipodi:guide
       orientation="1,0"
       position="40,43"
       id="guide2843" />
    <sodipodi:guide
       orientation="0,1"
       position="-39,33"
       id="guide2845" />
    <sodipodi:guide
       orientation="-0.70710678,0.70710678"
       position="-22.499999,17.750126"
       id="guide23646" />
    <sodipodi:guide
       orientation="-0.70710678,0.70710678"
       position="-20.21875,13.96875"
       id="guide23648" />
    <sodipodi:guide
       orientation="0.70710678,0.70710678"
       position="-48,0"
       id="guide23681" />
    <sodipodi:guide
       orientation="0.70710678,0.70710678"
       position="40,43"
       id="guide23971" />
    <sodipodi:guide
       orientation="1,0"
       position="-39,3"
       id="guide4430" />
    <sodipodi:guide
       orientation="1,0"
       position="-9,3"
       id="guide4432" />
    <sodipodi:guide
       orientation="0,1"
       position="-27.5,3"
       id="guide4434" />
    <sodipodi:guide
       orientation="1,0"
       position="-20,5"
       id="guide4436" />
    <sodipodi:guide
       id="guide6195"
       position="8,17.5"
       orientation="1,0" />
  </sodipodi:namedview>
  <title
     id="title2851">Ghosts' Castle for McMinos</title>
  <defs
     id="defs3507">
    <inkscape:perspective
       sodipodi:type="inkscape:persp3d"
       inkscape:vp_x="0 : 16 : 1"
       inkscape:vp_y="0 : 1000 : 0"
       inkscape:vp_z="32 : 16 : 1"
       inkscape:persp3d-origin="16 : 10.666667 : 1"
       id="perspective3513" />
    <inkscape:perspective
       id="perspective4690"
       inkscape:persp3d-origin="372.04724 : 350.78739 : 1"
       inkscape:vp_z="744.09448 : 526.18109 : 1"
       inkscape:vp_y="0 : 1000 : 0"
       inkscape:vp_x="0 : 526.18109 : 1"
       sodipodi:type="inkscape:persp3d" />
    <inkscape:perspective
       id="perspective7260"
       inkscape:persp3d-origin="372.04724 : 350.78739 : 1"
       inkscape:vp_z="744.09448 : 526.18109 : 1"
       inkscape:vp_y="0 : 1000 : 0"
       inkscape:vp_x="0 : 526.18109 : 1"
       sodipodi:type="inkscape:persp3d" />
  </defs>
  <metadata
     id="metadata3510">
    <rdf:RDF>
      <cc:Work
         rdf:about="">
        <dc:format>image/svg+xml</dc:format>
        <dc:type
           rdf:resource="http://purl.org/dc/dcmitype/StillImage" />
        <dc:title>Ghosts' Castle for McMinos</dc:title>
        <dc:date>2010-08-08</dc:date>
        <dc:creator>
          <cc:Agent>
            <dc:title>Andreas Neudecker &lt;zapyon@gmx.net&gt;</dc:title>
          </cc:Agent>
        </dc:creator>
        <dc:rights>
          <cc:Agent>
            <dc:title>Copyright (C) 2010 by Andreas Neudecker</dc:title>
          </cc:Agent>
        </dc:rights>
        <dc:publisher>
          <cc:Agent>
            <dc:title>Andreas Neudecker</dc:title>
          </cc:Agent>
        </dc:publisher>
        <dc:identifier>castle-00</dc:identifier>
        <dc:description>Ghosts' Castle for McMinos</dc:description>
      </cc:Work>
    </rdf:RDF>
  </metadata>
  <g
     id="layer1"
     inkscape:label="Schloss NEU"
     inkscape:groupmode="layer"
     style="display:inline">
    <path
       inkscape:connector-curvature="0"
       id="path6019"
       d="m -52,61 0,-30 24,-3 0,36 z"
       style="fill:red;fill-opacity:0.25098039;stroke:none" />
    <path
       style="fill:red;fill-opacity:0.25098039;stroke:none"
       d="m -52,61 0,-30 24,-3 0,36 z"
       id="path4438"
       inkscape:connector-curvature="0" />
    <path
       inkscape:connector-curvature="0"
       id="path6367"
       d="m -52,61 0,-30 24,-3 0,36 z"
       style="fill:red;fill-opacity:0.25098039;stroke:none" />
    <g
       id="g23685"
       transform="translate(108,0)">
      <path
         sodipodi:nodetypes="ssscccss"
         inkscape:connector-curvature="0"
         style="fill:#e6e6e6;fill-opacity:1;fill-rule:nonzero;stroke:none"
         d="m -20,30 c -4.668515,0 -8.872095,2.002799 -11.797838,5.195497 C -34.40708,38.042815 -36,41.836515 -36,46 l 0,16 16,0 16,0 0,-16 c 0,-8.832 -7.168,-16 -16,-16 z"
         id="path14540" />
      <path
         id="path23683"
         d="m -20,30 c -4.668515,0 -8.872095,2.002799 -11.797838,5.195497 L -4,62 -4,46 c 0,-8.832 -7.168,-16 -16,-16 z"
         style="fill:#666;fill-opacity:1;fill-rule:nonzero;stroke:none"
         inkscape:connector-curvature="0"
         sodipodi:nodetypes="sccss" />
      <path
         inkscape:connector-curvature="0"
         style="fill:#d0aa00;fill-opacity:1;fill-rule:nonzero;stroke:none"
         d="m -20,31 c -8.28,0 -15,6.72 -15,15 l 0,15 15,0 15,0 0,-15 c 0,-8.28 -6.72,-15 -15,-15 z"
         id="path14542" />
      <path
         inkscape:connector-curvature="0"
         style="fill:#e6be00;fill-opacity:1;fill-rule:nonzero;stroke:none"
         d="m -32,40 2,-3 0,22 -2,0 0,-19 z"
         id="path14544"
         sodipodi:nodetypes="ccccc" />
      <path
         inkscape:connector-curvature="0"
         style="fill:#e6be00;fill-opacity:1;fill-rule:nonzero;stroke:none"
         d="m -12,35 2,2 0,22 -2,0 0,-24 z"
         id="path14546"
         sodipodi:nodetypes="ccccc" />
      <path
         inkscape:connector-curvature="0"
         sodipodi:nodetypes="ccccc"
         id="path14548"
         d="m -17,33 2,0 0,26 -2,0 0,-26 z"
         style="fill:#e6be00;fill-opacity:1;fill-rule:nonzero;stroke:none" />
      <path
         inkscape:connector-curvature="0"
         style="fill:#805500;fill-opacity:1;fill-rule:nonzero;stroke:none"
         d="m -30,59 -1,0 0,-21 1,-1 0,22 z"
         id="path14550"
         sodipodi:nodetypes="ccccc" />
      <path
         inkscape:connector-curvature="0"
         style="fill:#aa8000;fill-opacity:1;fill-rule:nonzero;stroke:none"
         d="M -29.90625,36.09375 C -32.44025,38.62775 -34,42.136 -34,46 l 1,0 c 0,-3.588 1.4595,-6.8345 3.8125,-9.1875 l -0.71875,-0.71875 z"
         id="path14552" />
      <path
         inkscape:connector-curvature="0"
         sodipodi:nodetypes="ccccc"
         id="path14558"
         d="m -27,34 2,0 0,25 -2,0 0,-25 z"
         style="fill:#e6be00;fill-opacity:1;fill-rule:nonzero;stroke:none" />
      <path
         inkscape:connector-curvature="0"
         sodipodi:nodetypes="ccccc"
         id="path14560"
         d="m -25,59 -1,0 0,-24.999829 1,0 L -25,59 z"
         style="fill:#805500;fill-opacity:1;fill-rule:nonzero;stroke:none" />
      <rect
         style="fill:#aa8000;fill-opacity:1;fill-rule:nonzero;stroke:none"
         id="rect14580"
         width="0.99993849"
         height="13.000003"
         x="-34"
         y="46" />
      <path
         inkscape:connector-curvature="0"
         style="fill:#e6be00;fill-opacity:1;fill-rule:nonzero;stroke:none"
         d="m -22,33 2,0 0,26 -2,0 0,-26 z"
         id="path14582"
         sodipodi:nodetypes="ccccc" />
      <path
         inkscape:connector-curvature="0"
         style="fill:#805500;fill-opacity:1;fill-rule:nonzero;stroke:none"
         d="m -20,32 0,1 c 7.176,0 13,5.824 13,13 l 1,0 c 0,-7.728 -6.272,-14 -14,-14 z"
         id="path14584" />
      <path
         inkscape:connector-curvature="0"
         style="fill:#805500;fill-opacity:1;fill-rule:nonzero;stroke:none"
         d="m -10,59 -1,0 0,-23 1,1 0,22 z"
         id="path14586"
         sodipodi:nodetypes="ccccc" />
      <path
         inkscape:connector-curvature="0"
         sodipodi:nodetypes="ccccc"
         id="path14588"
         d="m -15,59 -1,0 0,-26 1,0 0,26 z"
         style="fill:#805500;fill-opacity:1;fill-rule:nonzero;stroke:none" />
      <path
         inkscape:connector-curvature="0"
         style="fill:#805500;fill-opacity:1;fill-rule:nonzero;stroke:none"
         d="m -7,46 1,0 0,14 -1,-1 0,-13 z"
         id="path14590"
         sodipodi:nodetypes="ccccc" />
      <path
         inkscape:connector-curvature="0"
         style="fill:#e6be00;fill-opacity:1;fill-rule:nonzero;stroke:none"
         d="m -34,59 27,0 1,1 -28,0 0,-1 z"
         id="path14592"
         sodipodi:nodetypes="ccccc" />
      <path
         inkscape:connector-curvature="0"
         style="fill:#805500;fill-opacity:1;fill-rule:nonzero;stroke:none"
         d="m -20,32 c -3.864,0 -7.37225,1.55975 -9.90625,4.09375 l 0.71875,0.71875 C -26.8345,34.4595 -23.588,33 -20,33 l 0,-1 z"
         id="path14594" />
      <path
         inkscape:connector-curvature="0"
         style="fill:#805500;fill-opacity:1;fill-rule:nonzero;stroke:none"
         d="m -20,59 -1,0 0,-26 1,0 0,26 z"
         id="path14596"
         sodipodi:nodetypes="ccccc" />
      <path
         sodipodi:end="7.0685835"
         sodipodi:start="3.9269908"
         d="m -24.242641,42.757359 c 2.343146,-2.343145 6.142136,-2.343145 8.485282,0 2.343145,2.343146 2.343145,6.142136 0,8.485282 0,0 0,0 0,0 L -20,47 z"
         sodipodi:ry="6"
         sodipodi:rx="6"
         sodipodi:cy="47"
         sodipodi:cx="-20"
         id="path23627"
         style="fill:#ccc;fill-opacity:1;stroke:none"
         sodipodi:type="arc" />
      <path
         sodipodi:type="arc"
         style="fill:gray;fill-opacity:1;stroke:none"
         id="path23631"
         sodipodi:cx="-20"
         sodipodi:cy="47"
         sodipodi:rx="6"
         sodipodi:ry="6"
         d="m -15.757359,51.242641 c -2.343146,2.343145 -6.142136,2.343145 -8.485282,0 -2.343145,-2.343146 -2.343145,-6.142136 0,-8.485282 L -20,47 z"
         sodipodi:start="0.78539816"
         sodipodi:end="3.9269908" />
      <circle
         d="m -14,47 c 0,3.313708 -2.686292,6 -6,6 -3.313708,0 -6,-2.686292 -6,-6 0,-3.313708 2.686292,-6 6,-6 3.313708,0 6,2.686292 6,6 z"
         sodipodi:cx="-20"
         sodipodi:cy="47"
         sodipodi:rx="6"
         sodipodi:ry="6"
         sodipodi:type="arc"
         transform="matrix(0.83333333,0,0,0.83333333,-3.3333333,7.8333333)"
         style="fill:#b3b3b3;fill-opacity:1;stroke:none"
         id="path23629" />
      <path
         inkscape:connector-curvature="0"
         id="path23642"
         d="m -20,45 c -0.55402,0 -1.048049,0.22844 -1.40625,0.59375 l -0.71875,0.75 -0.25,0.21875 C -22.751834,46.922096 -23,47.436072 -23,48 c 0,1.104569 0.895431,2 2,2 0.536857,0 1.019746,-0.216871 1.375,-0.5625 l 0.09375,-0.09375 0.9375,-0.9375 C -18.23077,48.04836 -18,47.552005 -18,47 c 0,-1.104569 -0.895431,-2 -2,-2 z"
         style="fill:black;fill-opacity:0.25098039;stroke:none" />
      <circle
         d="m 26.098361,52 c 0,1.158893 -0.939468,2.098361 -2.098361,2.098361 -1.158893,0 -2.098361,-0.939468 -2.098361,-2.098361 0,-1.158893 0.939468,-2.098361 2.098361,-2.098361 1.158893,0 2.098361,0.939468 2.098361,2.098361 z"
         sodipodi:cx="24"
         sodipodi:cy="52"
         sodipodi:rx="2.0983605"
         sodipodi:ry="2.0983605"
         sodipodi:type="arc"
         transform="matrix(0.9531251,0,0,0.9531251,-42.875001,-2.5626304)"
         id="path4957"
         style="fill:#a0a0a0;fill-opacity:1;fill-rule:nonzero;stroke:none;display:inline" />
      <path
         id="path4959"
         d="m -20.8125,45.187375 c -0.697129,0.312609 -1.187501,0.999443 -1.1875,1.8125 0,1.104 0.895999,2 2,2 0.813057,0 1.49989,-0.490372 1.8125,-1.1875 -0.249459,0.111863 -0.521557,0.1875 -0.8125,0.1875 -1.104,0 -2,-0.896 -2,-2 0,-0.290943 0.07564,-0.563041 0.1875,-0.8125 z"
         style="fill:#606060;fill-opacity:1;fill-rule:nonzero;stroke:none;display:inline"
         inkscape:connector-curvature="0" />
      <ellipse
         d="m 25.780418,51.10281 c 0,0.495504 -0.39856,0.897189 -0.890209,0.897189 C 24.39856,51.999999 24,51.598314 24,51.10281 c 0,-0.495504 0.39856,-0.897189 0.890209,-0.897189 0.491649,0 0.890209,0.401685 0.890209,0.897189 z"
         sodipodi:cx="24.890209"
         sodipodi:cy="51.10281"
         sodipodi:rx="0.8902089"
         sodipodi:ry="0.89718908"
         sodipodi:type="arc"
         transform="matrix(0.8424989,0,0,0.8359442,-40.219973,3.5307766)"
         id="path5190"
         style="fill:white;fill-opacity:1;fill-rule:nonzero;stroke:none;display:inline" />
      <path
         id="path23633"
         d="m -18.5625,41.6875 -0.65625,2.4375 c 0.766341,0.210797 1.422644,0.702454 1.8125,1.375 L -15.25,44.25 c -0.729345,-1.263263 -1.903513,-2.184963 -3.3125,-2.5625 z"
         style="fill:white;fill-opacity:0.75294118;stroke:none"
         inkscape:connector-curvature="0" />
    </g>
    <path
       style="font-size:medium;font-style:normal;font-variant:normal;font-weight:normal;font-stretch:normal;text-indent:0;text-align:start;text-decoration:none;line-height:normal;letter-spacing:normal;word-spacing:normal;text-transform:none;direction:ltr;block-progression:tb;writing-mode:lr-tb;text-anchor:start;baseline-shift:baseline;color:black;fill:black;fill-opacity:1;fill-rule:nonzero;stroke:none;visibility:visible;display:inline;overflow:visible;enable-background:accumulate;font-family:sans-serif"
       d="m 28,0 c -2.197694,0 -4,1.7976999 -4,3.9941406 l 0,3.0175782 -7,0 0,-2.9921876 C 17,1.8230904 15.197694,0.02539063 13,0.02539063 l -9,0 c -2.1976938,0 -4,1.79769977 -4,3.99414057 L 0,13 c 0,1.434815 0.8483935,2.580686 2,3.28125 L 2,46.519531 C 1.4200332,47.206458 1,48.049829 1,49.027344 L 1,60.005859 C 1,62.2023 2.8023061,64 5,64 l 13,0 36,0 5,0 c 2.197694,0 4,-1.7977 4,-3.994141 l 0,-10.978515 c 0,-0.977515 -0.420033,-1.820886 -1,-2.507813 L 62,16.255859 C 63.137771,15.5539 64,14.430622 64,13 L 64,4.1191406 C 64,1.9226998 62.197694,0.125 60,0.125 l -9,0 c -2.197694,0 -4,1.7976998 -4,3.9941406 l 0,2.9921875 -6,0 0,-3.1171875 C 41,1.7976998 39.197694,0 37,0 z"
       id="path8741"
       inkscape:connector-curvature="0"
       sodipodi:nodetypes="ssccsssssccsssccsssccsssssccsss" />
    <g
       style="display:inline"
       id="g9352"
       transform="translate(10,20)">
      <path
         inkscape:connector-curvature="0"
         sodipodi:nodetypes="ccccscccscccscccc"
         style="fill:white;fill-opacity:1;fill-rule:nonzero;stroke:black;stroke-width:2;stroke-linecap:round;stroke-linejoin:miter;stroke-miterlimit:4;stroke-opacity:1;stroke-dasharray:none;stroke-dashoffset:0;display:inline"
         d="M 16,1 C 11.584,1 8,4.584 8,9 l 0,1 -1,0 C 7,8.344 5.656,7 4,7 2.344,7 1,8.344 1,10 l 0,20 9.75,-0.9375 C 12.153893,30.280539 13.996861,31 16,31 c 2.003139,0 3.846107,-0.719461 5.25,-1.9375 L 31,30 31,10 C 31,8.344 29.656,7 28,7 26.344,7 25,8.344 25,10 l -1,0 0,-1 C 24,4.584 20.416,1 16,1 z"
         id="path3821" />
      <path
         inkscape:connector-curvature="0"
         sodipodi:nodetypes="ccccscccscccscccc"
         id="path3802"
         d="M 16,1 C 11.584,1 8,4.584 8,9 l 0,1 -1,0 C 7,8.344 5.656,7 4,7 2.344,7 1,8.344 1,10 l 0,20 9.75,-0.9375 C 12.153893,30.280539 13.996861,31 16,31 c 2.003139,0 3.846107,-0.719461 5.25,-1.9375 L 31,30 31,10 C 31,8.344 29.656,7 28,7 26.344,7 25,8.344 25,10 l -1,0 0,-1 C 24,4.584 20.416,1 16,1 z"
         style="fill:white;fill-opacity:1;fill-rule:nonzero;stroke:none;display:inline" />
      <path
         transform="translate(2,0)"
         d="M 13,8.5 C 13,9.8807119 12.328427,11 11.5,11 10.671573,11 10,9.8807119 10,8.5 10,7.1192881 10.671573,6 11.5,6 12.328427,6 13,7.1192881 13,8.5 z"
         sodipodi:ry="2.5"
         sodipodi:rx="1.5"
         sodipodi:cy="8.5"
         sodipodi:cx="11.5"
         id="path3768"
         style="fill:black;fill-opacity:0.99356911;fill-rule:nonzero;stroke:none;display:inline"
         sodipodi:type="arc" />
      <path
         transform="translate(2,0)"
         d="M 18,8.5 C 18,9.8807119 17.328427,11 16.5,11 15.671573,11 15,9.8807119 15,8.5 15,7.1192881 15.671573,6 16.5,6 17.328427,6 18,7.1192881 18,8.5 z"
         sodipodi:ry="2.5"
         sodipodi:rx="1.5"
         sodipodi:cy="8.5"
         sodipodi:cx="16.5"
         id="path3770"
         style="fill:black;fill-opacity:0.99356911;fill-rule:nonzero;stroke:none;display:inline"
         sodipodi:type="arc" />
      <path
         inkscape:connector-curvature="0"
         id="path3806"
         d="m 7,10 c 0,1.656 -1.344,3 -3,3 l 0,1 c 2.2079999,0 3.9999998,-1.792 4,-4 l -1,0 z"
         style="fill:silver;fill-opacity:1;fill-rule:nonzero;stroke:none" />
      <path
         inkscape:connector-curvature="0"
         style="fill:silver;fill-opacity:1;fill-rule:nonzero;stroke:none"
         d="m 25,10 c 0,1.656 1.344,3 3,3 l 0,1 c -2.208,0 -4,-1.792 -4,-4 l 1,0 z"
         id="path3809" />
      <path
         inkscape:connector-curvature="0"
         sodipodi:nodetypes="czczc"
         id="path3813"
         d="m 10,12 c 0,0 3,7 6,7 3,0 6,-7 6,-7 0,0 -3.836669,2 -6,2 -2.163331,0 -6,-2 -6,-2 z"
         style="fill:black;fill-opacity:1;fill-rule:nonzero;stroke:none" />
      <rect
         y="20"
         x="7"
         height="8"
         width="1"
         id="rect3823"
         style="fill:silver;fill-opacity:1;fill-rule:nonzero;stroke:none" />
      <rect
         style="fill:silver;fill-opacity:1;fill-rule:nonzero;stroke:none"
         id="rect3825"
         width="1"
         height="8"
         x="3"
         y="21" />
      <rect
         y="21"
         x="28"
         height="8"
         width="1"
         id="rect3827"
         style="fill:silver;fill-opacity:1;fill-rule:nonzero;stroke:none" />
      <rect
         style="fill:silver;fill-opacity:1;fill-rule:nonzero;stroke:none"
         id="rect3829"
         width="1"
         height="8"
         x="24"
         y="20" />
    </g>
    <path
       id="path4292"
       d="M 24,31 C 15.72,31 9,37.72 9,46 l 0,15 15,0 15,0 0,-15 C 39,37.72 32.28,31 24,31 z"
       style="fill:black;fill-opacity:0.25490196;fill-rule:nonzero;stroke:none"
       inkscape:connector-curvature="0" />
    <path
       inkscape:connector-curvature="0"
       id="path8416"
       d="m 28,1 c -1.662,0 -3,1.3413441 -3,3 l 0,4 -9,0 0,-3.96875 c 0,-1.658656 -1.338,-3 -3,-3 l -9,0 c -1.662,0 -3.00993382,1.3413737 -3,3 l 0.03125,6.9375 c 0.00802,1.3399 0.813722,2.459361 2,2.84375 L 3,46.8125 C 2.391679,47.359701 2,48.14582 2,49.03125 L 2,60 c 0,1.658656 1.338,3 3,3 l 13,0 36,0 5,0 c 1.662,0 3,-1.341344 3,-3 l 0,-10.96875 c 0,-0.88543 -0.391679,-1.671549 -1,-2.21875 l 0,-31.125 c 1.164689,-0.410732 2,-1.506051 2,-2.8125 l 0,-8.75 c 0,-1.658656 -1.338,-3 -3,-3 l -9,0 c -1.662,0 -3,1.341344 -3,3 l 0,4 -8,0 L 40,4 C 40,2.341344 38.662,1 37,1 l -9,0 z m 19,18 c 4.958715,0 9,4.041285 9,9 l 0,8 0,1 -1,0 -16,0 -1,0 0,-1 0,-8 c 0,-4.958715 4.041285,-9 9,-9 z M 24,31 c 8.28,0 15,6.72 15,15 L 39,61 24,61 9,61 9,46 C 9,37.72 15.72,31 24,31 z"
       style="fill:silver;fill-opacity:1;fill-rule:nonzero;stroke:none" />
    <path
       style="font-size:medium;font-style:normal;font-variant:normal;font-weight:normal;font-stretch:normal;text-indent:0;text-align:start;text-decoration:none;line-height:normal;letter-spacing:normal;word-spacing:normal;text-transform:none;direction:ltr;block-progression:tb;writing-mode:lr-tb;text-anchor:start;baseline-shift:baseline;color:black;fill:#e6e6e6;fill-opacity:1;stroke:none;stroke-width:2;marker:none;visibility:visible;display:inline;overflow:visible;enable-background:accumulate;font-family:Sans;-inkscape-font-specification:Sans"
       d="m 47,19 c -4.958715,0 -9,4.041285 -9,9 l 0,8 0,1 1,0 16,0 1,0 0,-1 0,-8 c 0,-4.958715 -4.041285,-9 -9,-9 z m 0,2 c 3.877833,0 7,3.122167 7,7 l 0,7 -14,0 0,-7 c 0,-3.877833 3.122167,-7 7,-7 z"
       id="path23754"
       inkscape:connector-curvature="0" />
    <rect
       style="fill:black;fill-opacity:0.25098039;fill-rule:nonzero;stroke:none"
       id="rect8827"
       width="58.562"
       height="1.999983"
       x="3"
       y="15.000017" />
    <rect
       style="fill:#a0a0a0;fill-opacity:1;fill-rule:nonzero;stroke:none"
       id="rect5105"
       width="15"
       height="9"
       x="1"
       y="1"
       rx="3"
       ry="3" />
    <path
       inkscape:connector-curvature="0"
       style="fill:#a0a0a0;fill-opacity:1;fill-rule:nonzero;stroke:none"
       d="m 28,1 c -1.662,0 -3,1.3413441 -3,3 l 0,4.125 -4.75,0 C 20.697722,9.2168769 21.743113,10 23,10 l 9,0 c 1.662,0 3,-1.338 3,-3 L 35,4 C 35,2.338 33.662,1 32,1 l -4,0 z"
       id="rect5111" />
    <path
       style="fill:#dedede;fill-opacity:1;fill-rule:nonzero;stroke:none"
       d="m 51,9.038343 9,0 c 1.662,0 3,1.338 3,3 L 63,13 c 0,1.662 -1.338,3 -3,3 l -9,0 c -1.662,0 -3,-1.338 -3,-3 l 0,-0.961657 c 0,-1.662 1.338,-3 3,-3 z"
       id="rect5121"
       inkscape:connector-curvature="0"
       sodipodi:nodetypes="sssssssss" />
    <path
       inkscape:connector-curvature="0"
       style="fill:#a0a0a0;fill-opacity:1;fill-rule:nonzero;stroke:none"
       d="m 3,28 0,9 1,0 c 1.662,0 3,-1.338 3,-3 L 7,31 C 7,29.338 5.662,28 4,28 l -1,0 z"
       id="rect5123" />
    <path
       inkscape:connector-curvature="0"
       style="fill:#dedede;fill-opacity:1;fill-rule:nonzero;stroke:none"
       d="M 38,1.1875 C 36.840521,1.6018343 36,2.6946375 36,4 l 0,1 c 0,1.662 1.338,3 3,3 l 1,0 0,-4 C 40,2.697264 39.159479,1.6010006 38,1.1875 z M 49.625,1.46875 C 48.666894,1.9675469 48,2.9678633 48,4.125 L 48,8 c 1.662,0 3,-1.338 3,-3 L 51,4 C 51,2.9365319 50.454998,2.0012478 49.625,1.46875 z"
       id="rect5125" />
    <path
       inkscape:connector-curvature="0"
       style="fill:#a0a0a0;fill-opacity:1;fill-rule:nonzero;stroke:none"
       d="M 54.21875,1.125 C 52.947222,1.4731944 52,2.615 52,4 l 0,1 c 0,1.662 1.338,3 3,3 l 8,0 0,-3.875 c 0,-1.6586561 -1.338,-3 -3,-3 l -5.78125,0 z"
       id="rect5133" />
    <path
       inkscape:connector-curvature="0"
       style="fill:#dedede;fill-opacity:1;fill-rule:nonzero;stroke:none"
       d="m 3,37.5 0,9 2,0 c 1.662,0 3,-1.338 3,-3 l 0,-3 c 0,-1.662 -1.338,-3 -3,-3 l -2,0 z"
       id="rect5138" />
    <path
       inkscape:connector-curvature="0"
       style="fill:gray;fill-opacity:1;fill-rule:nonzero;stroke:none"
       d="M 2.1875,48 C 2.0700349,48.316591 2,48.671679 2,49.03125 L 2,60 c 0,1.347659 0.9023081,2.465804 2.125,2.84375 C 5.3476919,62.465042 6.25,61.350375 6.25,60 l 0,-9 c 0,-1.662 -1.338,-3 -3,-3 l -1.0625,0 z"
       id="rect5140" />
    <rect
       style="fill:gray;fill-opacity:1;fill-rule:nonzero;stroke:none"
       id="rect5148"
       width="15"
       height="9"
       x="47.016392"
       y="54"
       rx="3"
       ry="3" />
    <path
       inkscape:connector-curvature="0"
       style="fill:gray;fill-opacity:1;fill-rule:nonzero;stroke:none"
       d="m 60,18 c -1.662,0 -3,1.338 -3,3 l 0,3 c 0,1.662 1.338,3 3,3 l 1,0 0,-9 -1,0 z"
       id="rect5150" />
    <path
       inkscape:connector-curvature="0"
       style="fill:#a0a0a0;fill-opacity:1;fill-rule:nonzero;stroke:none"
       d="m 59,30 c -1.662,0 -3,1.338 -3,3 l 0,1 c 0,1.662 1.338,3 3,3 l 2,0 0,-7 -2,0 z"
       id="rect5155" />
    <path
       inkscape:connector-curvature="0"
       style="fill:#dedede;fill-opacity:1;fill-rule:nonzero;stroke:none"
       d="m 57.15625,38 c -1.662,0 -3,1.338 -3,3 l 0,1 c 0,1.662 1.338,3 3,3 L 61,45 l 0,-7 -3.84375,0 z"
       id="rect5157" />
    <rect
       ry="3"
       rx="3"
       y="19.016394"
       x="16"
       height="7"
       width="15"
       id="rect5165"
       style="fill:#a0a0a0;fill-opacity:1;fill-rule:nonzero;stroke:none" />
    <path
       inkscape:connector-curvature="0"
       style="fill:#a0a0a0;fill-opacity:1;fill-rule:nonzero;stroke:none"
       d="M 61.269531,47.109375 C 59.96891,47.438239 59,48.595519 59,50 l 0,1 c 0,1.662 1.338,3 3,3 l 0,-4.972656 c 0,-0.740698 -0.284743,-1.399335 -0.730469,-1.917969 z"
       id="rect5167" />
    <path
       inkscape:connector-curvature="0"
       style="fill:#dedede;fill-opacity:1;fill-rule:nonzero;stroke:none"
       d="m 3,19 0,7 5,0 c 1.662,0 3,-1.338 3,-3 l 0,-1 C 11,20.338 9.662,19 8,19 l -5,0 z"
       id="rect5116" />
    <path
       inkscape:connector-curvature="0"
       style="fill:black;fill-opacity:0.25098039;fill-rule:nonzero;stroke:none"
       d="M 2,1.7753906 C 1.3898959,2.3237849 1,3.111297 1,4 l 0,3 c 0,1.662 1.338,3 3,3 l 9,0 c 0.800882,0 1.521644,-0.3162957 2.058594,-0.8242188 l -1.96875,0 -8.0000002,0 c -1.662,0 -2.7420519,-1.3581392 -3,-3 L 2,4 2,1.7753906 z"
       id="rect8751" />
    <path
       inkscape:connector-curvature="0"
       style="fill:black;fill-opacity:0.25098039;fill-rule:nonzero;stroke:none"
       d="M 20.185547,8.0117188 C 20.600355,9.1703241 21.695224,10 23,10 l 9,0 c 0.800905,0 1.521628,-0.3162958 2.058594,-0.8242188 l -1.96875,0 -8,0 c -0.961486,0 -1.720619,-0.463047 -2.246094,-1.1640624 l -1.658203,0 z"
       id="path8758" />
    <path
       inkscape:connector-curvature="0"
       style="fill:black;fill-opacity:0.25098039;fill-rule:nonzero;stroke:none"
       d="M 49.000029,9.726211 C 48.389907,10.274605 48,11.062117 48,11.95082 l 0,1 c 0,1.662 1.338039,3 3.000087,3 l 9.00026,0 c 0.800905,0 1.521687,-0.316296 2.058653,-0.824219 l -1.968807,0 -8.000231,0 c -1.662048,0 -2.742131,-1.358139 -3.000087,-3 l -0.08985,-0.175781 z"
       id="path8760"
       sodipodi:nodetypes="cssssccsccc" />
    <path
       inkscape:connector-curvature="0"
       style="fill:black;fill-opacity:0.25098039;fill-rule:nonzero;stroke:none"
       d="M 48.000029,54.775391 C 47.389907,55.323785 47,56.111297 47,57 l 0,3 c 0,1.662 1.338039,3 3.000087,3 l 9.00026,0 c 0.800905,0 1.521687,-0.316296 2.058653,-0.824219 l -1.968807,0 -8.000231,0 c -1.662048,0 -2.742131,-1.358139 -3.000087,-3 L 48.000029,57 l 0,-2.224609 z"
       id="path8762" />
    <path
       inkscape:connector-curvature="0"
       style="fill:black;fill-opacity:0.25098039;fill-rule:nonzero;stroke:none"
       d="m 17,19.791016 c -0.610104,0.548394 -1,1.335906 -1,2.224609 L 16,23 c 0,1.662 1.337952,3 3,3 l 9,0 c 0.800905,0 1.521628,-0.316296 2.058594,-0.824219 l -1.96875,0 -8,0 c -1.662048,0 -2.742044,-1.358139 -3,-3 L 17,20 17,19.791016 z"
       id="path8764" />
    <path
       id="path8769"
       d="M 37,1.791016 C 36.389896,2.33941 36,3.126922 36,4.015625 L 36,5 c 0,1.662 1.337952,3 3,3 l 9,0 c 0.800905,0 1.521628,-0.316296 2.058594,-0.824219 l -1.96875,0 -8,0 c -1.662048,0 -2.742044,-1.358139 -3,-3 L 37,2 37,1.791016 z"
       style="fill:black;fill-opacity:0.25098039;fill-rule:nonzero;stroke:none"
       inkscape:connector-curvature="0" />
    <path
       inkscape:connector-curvature="0"
       style="fill:black;fill-opacity:0.25098039;fill-rule:nonzero;stroke:none"
       d="M 53,1.7910156 C 52.389896,2.3394096 52,3.126922 52,4.015625 L 52,5 c 0,1.662 1.337952,3 3,3 l 8,0 0,-0.8242188 -6.910156,0 c -1.662048,0 -2.742044,-1.358139 -3,-3 L 53,2 53,1.7910156 z"
       id="path8771" />
    <path
       inkscape:connector-curvature="0"
       style="fill:black;fill-opacity:0.25098039;fill-rule:nonzero;stroke:none"
       d="M 3,25.175781 3,26 8,26 c 0.800905,0 1.5216278,-0.316296 2.058594,-0.824219 l -1.9687502,0 -5.0898438,0 z"
       id="path8775" />
    <path
       inkscape:connector-curvature="0"
       style="fill:black;fill-opacity:0.25098039;fill-rule:nonzero;stroke:none"
       d="m 57,30.791016 c -0.610104,0.548394 -1,1.335906 -1,2.224609 L 56,34 c 0,1.662 1.337952,3 3,3 l 2,0 0,-0.824219 -0.910156,0 c -1.662048,0 -2.742044,-1.358139 -3,-3 L 57,31 57,30.791016 z"
       id="path8777" />
    <path
       inkscape:connector-curvature="0"
       style="fill:black;fill-opacity:0.25098039;fill-rule:nonzero;stroke:none"
       d="m 55,38.791016 c -0.610104,0.548394 -1,1.335906 -1,2.224609 L 54,42 c 0,1.662 1.337952,3 3,3 l 4,0 0,-0.824219 -2.910156,0 c -1.662048,0 -2.742044,-1.358139 -3,-3 L 55,39 55,38.791016 z"
       id="path8779" />
    <path
       inkscape:connector-curvature="0"
       style="fill:black;fill-opacity:0.25098039;fill-rule:nonzero;stroke:none"
       d="m 60,47.791016 c -0.610104,0.548394 -1,1.335906 -1,2.224609 L 59,51 c 0,1.662 1.337952,3 3,3 l 0,-1.048828 C 60.959745,52.502727 60.285883,51.423551 60.089844,50.175781 L 60,48 60,47.791016 z"
       id="path8781" />
    <path
       inkscape:connector-curvature="0"
       style="fill:black;fill-opacity:0.25098039;fill-rule:nonzero;stroke:none"
       d="M 3,36.175781 3,37 4,37 c 0.8009052,0 1.5216283,-0.316296 2.0585938,-0.824219 l -1.96875,0 -1.0898438,0 z"
       id="path8783" />
    <path
       inkscape:connector-curvature="0"
       style="fill:black;fill-opacity:0.25098039;fill-rule:nonzero;stroke:none"
       d="M 3,45.675781 3,46.5 l 2,0 c 0.8009282,0 1.5216122,-0.316296 2.0585938,-0.824219 l -1.96875,0 -2.0898438,0 z"
       id="path8785" />
    <path
       inkscape:connector-curvature="0"
       style="fill:black;fill-opacity:0.25098039;fill-rule:nonzero;stroke:none"
       d="M 2.9394531,62.175781 C 3.240194,62.460238 3.6005623,62.67748 4,62.818359 4.3970591,62.675973 4.7583376,62.459797 5.0585938,62.175781 l -1.96875,0 -0.1503907,0 z"
       id="path8789" />
    <rect
       y="16.000008"
       x="3"
       height="0.99999148"
       width="58.562"
       id="rect8831"
       style="fill:black;fill-opacity:0.25098039;fill-rule:nonzero;stroke:none" />
    <path
       style="fill:#dedede;fill-opacity:1;stroke:none"
       d="m 1,10 0,3 c 0,1.662 1.338,3 3,3 l 3,0 1,0 c 1.662,0 3,-1.338 3,-3 0,-1.662 -1.338,-3 -3,-3 l -7,0 z"
       id="rect23052"
       inkscape:connector-curvature="0" />
    <path
       style="fill:black;fill-opacity:0.25098039;stroke:none"
       d="m 1,10 0,3 c 0,1.662 1.338,3 3,3 l 4,0 C 8.40165,16 8.7755066,15.92322 9.125,15.78125 9.138028,15.77595 9.143315,15.75552 9.15625,15.75 9.3144619,15.6833 9.4821504,15.622897 9.625,15.53125 c 0.111909,-0.0727 0.2114012,-0.163617 0.3125,-0.25 0.039562,-0.03361 0.087256,-0.05816 0.125,-0.09375 l -1.96875,0 -4,0 c -1.662048,0 -2.742044,-1.358139 -3,-3 L 1,10 z"
       id="path23573"
       inkscape:connector-curvature="0" />
    <path
       inkscape:connector-curvature="0"
       style="fill:black;fill-opacity:0.25098039;fill-rule:nonzero;stroke:none"
       d="M 58,18.78125 C 57.389878,19.329644 57,20.111297 57,21 l 0,3 c 0,1.662 1.337952,3 3,3 l 1,0 0,-0.8125 c -1.607237,-0.05159 -2.653329,-1.390189 -2.90625,-3 L 58,21 58,18.78125 z"
       id="path23715" />
    <path
       style="fill:aqua;fill-opacity:0.1254902;stroke:none"
       d="m 47,20.5 c -4.142136,0 -7.5,3.357864 -7.5,7.5 l 0,7.5 15,0 0,-7.5 c 0,-4.142135 -3.357865,-7.5 -7.5,-7.5 z"
       id="path23737"
       inkscape:connector-curvature="0" />
    <path
       style="font-size:medium;font-style:normal;font-variant:normal;font-weight:normal;font-stretch:normal;text-indent:0;text-align:start;text-decoration:none;line-height:normal;letter-spacing:normal;word-spacing:normal;text-transform:none;direction:ltr;block-progression:tb;writing-mode:lr-tb;text-anchor:start;baseline-shift:baseline;color:black;fill:#666;fill-opacity:1;stroke:none;stroke-width:2;marker:none;visibility:visible;display:inline;overflow:visible;enable-background:accumulate;font-family:Sans;-inkscape-font-specification:Sans"
       d="m 47,19 c -2.477389,0 -4.7139,0.997117 -6.34375,2.625 l 0,0.03125 1.375,1.375 C 43.296521,21.765979 45.061084,21 47,21 c 3.877833,0 7,3.122167 7,7 l 0,7 2,2 0,-1 0,-8 c 0,-4.958715 -4.041285,-9 -9,-9 z"
       id="path23969"
       inkscape:connector-curvature="0" />
    <path
       style="fill:#4d4d4d;fill-opacity:1;stroke:none"
       d="m 47,20 c -4.418274,0 -8,3.581726 -8,8 l 0,8 16,0 0,-8 c 0,-4.418274 -3.581726,-8 -8,-8 z m -0.71875,1.03125 c 0.07148,-0.0073 0.146647,0.0051 0.21875,0 L 46.5,28 40,28 c 0,-3.624368 2.751458,-6.61028 6.28125,-6.96875 z m 1.21875,0 C 51.132486,21.287779 54,24.302232 54,28 l -6.5,0 0,-6.96875 z M 40,29 l 0.09375,0 6.40625,0 0,6 -6.5,0 0,-6 z m 7.5,0 6.40625,0 0.09375,0 0,6 -6.5,0 0,-6 z"
       id="path23720"
       inkscape:connector-curvature="0" />
    <path
       id="path4211"
       d="M 24,30 C 19.331485,30 15.113243,31.994802 12.1875,35.1875 9.578258,38.034818 8,41.836515 8,46 l 0,16 16,0 16,0 0,-16 C 40,37.168 32.832,30 24,30 z m 0,1 c 8.28,0 15,6.72 15,15 L 39,61 24,61 9,61 9,46 C 9,37.72 15.72,31 24,31 z"
       style="fill:#e6e6e6;fill-opacity:1;fill-rule:nonzero;stroke:none"
       inkscape:connector-curvature="0" />
    <path
       id="path4213"
       d="m 24,30 c -4.668515,0 -8.886757,1.994802 -11.8125,5.1875 l 0.75,0.71875 C 15.681154,32.901251 19.61335,31 24,31 c 8.28,0 15,6.72 15,15 L 39,61 38.96875,61 40,62 40,46 C 40,37.168 32.832,30 24,30 z"
       style="fill:#666;fill-opacity:1;fill-rule:nonzero;stroke:none"
       inkscape:connector-curvature="0" />
    <g
       id="g7916"
       transform="translate(61,0)">
      <path
         inkscape:connector-curvature="0"
         style="fill:#8e7400;fill-opacity:1;fill-rule:nonzero;stroke:none"
         d="M -40.090909,29.636364 C -46.34626,30.418283 -51,37.72 -51,46 c 0,0 0,15 0,15 0,0 10.909091,1.363636 10.909091,1.363636 C -40.090909,62.363636 -27,64 -27,64 c 0,0 0,-18 0,-18 0,-9.936 -6.174579,-17.228178 -13.090909,-16.363636 0,0 0,0 0,0"
         id="path7813" />
      <g
         id="g7667">
        <g
           id="g7319">
          <path
             id="path5937"
             d="M -41.090909,29.636364 C -47.34626,30.418283 -52,37.72 -52,46 c 0,0 0,15 0,15 0,0 10.909091,1.363636 10.909091,1.363636 C -41.090909,62.363636 -28,64 -28,64 c 0,0 0,-18 0,-18 0,-9.936 -6.174579,-17.228178 -13.090909,-16.363636 0,0 0,0 0,0"
             style="fill:#d0aa00;fill-opacity:1;fill-rule:nonzero;stroke:none"
             inkscape:connector-curvature="0" />
          <path
             sodipodi:nodetypes="ccccc"
             id="path5939"
             d="m -49.966102,39.898305 c 0,0 1.394673,-3.155448 1.394673,-3.155448 0,0 0,22.628572 0,22.628572 0,0 -1.394673,-0.15109 -1.394673,-0.15109 0,0 0,-19.322034 0,-19.322034 0,0 0,0 0,0"
             style="fill:#e6be00;fill-opacity:1;fill-rule:nonzero;stroke:none"
             inkscape:connector-curvature="0" />
          <path
             sodipodi:nodetypes="ccccc"
             id="path5941"
             d="m -34.420382,33.388535 c 0,0 1.775221,2.159852 1.775221,2.159852 0,0 0,25.548387 0,25.548387 0,0 -1.775221,-0.192315 -1.775221,-0.192315 0,0 0,-27.515924 0,-27.515924 0,0 0,0 0,0"
             style="fill:#e6be00;fill-opacity:1;fill-rule:nonzero;stroke:none"
             inkscape:connector-curvature="0" />
          <path
             style="fill:#e6be00;fill-opacity:1;fill-rule:nonzero;stroke:none"
             d="m -38.666667,31.555556 c 0,0 1.666667,-0.180556 1.666667,-0.180556 0,0 0,29.25 0,29.25 0,0 -1.666667,-0.180556 -1.666667,-0.180556 0,0 0,-28.888888 0,-28.888888 0,0 0,0 0,0"
             id="path5943"
             sodipodi:nodetypes="ccccc"
             inkscape:connector-curvature="0" />
          <path
             sodipodi:nodetypes="ccccc"
             id="path5945"
             d="m -48.571429,59.371429 c 0,0 -0.701298,-0.07597 -0.701298,-0.07597 0,0 0,-21.477273 0,-21.477273 0,0 0.701298,-1.075325 0.701298,-1.075325 0,0 0,22.628572 0,22.628572 0,0 0,0 0,0"
             style="fill:#805500;fill-opacity:1;fill-rule:nonzero;stroke:none"
             inkscape:connector-curvature="0" />
          <path
             id="path5947"
             d="m -48.505271,35.805253 c -1.763611,2.716145 -2.824338,6.30916 -2.824338,10.194747 0,0 0.677924,0 0.677924,0 0,-3.628315 1.003213,-6.968429 2.655991,-9.49408 0,0 -0.509577,-0.700667 -0.509577,-0.700667 0,0 0,0 0,0"
             style="fill:#aa8000;fill-opacity:1;fill-rule:nonzero;stroke:none"
             inkscape:connector-curvature="0" />
          <path
             style="fill:#e6be00;fill-opacity:1;fill-rule:nonzero;stroke:none"
             d="m -46.418605,33.44186 c 0,0 1.477429,-0.147742 1.477429,-0.147742 0,0 0,26.470588 0,26.470588 0,0 -1.477429,-0.160055 -1.477429,-0.160055 0,0 0,-26.162791 0,-26.162791 0,0 0,0 0,0"
             id="path5949"
             sodipodi:nodetypes="ccccc"
             inkscape:connector-curvature="0" />
          <path
             style="fill:#805500;fill-opacity:1;fill-rule:nonzero;stroke:none"
             d="m -44.941176,59.764706 c 0,0 -0.743035,-0.08049 -0.743035,-0.08049 0,0 0,-26.31561 0,-26.31561 0,0 0.743035,-0.0743 0.743035,-0.0743 0,0 0,26.470407 0,26.470407 0,0 0,0 0,0"
             id="path5951"
             sodipodi:nodetypes="ccccc"
             inkscape:connector-curvature="0" />
          <path
             style="fill:#aa8000;fill-opacity:1;fill-rule:nonzero;stroke:none"
             d="m -51.329609,46 c 0,0 0.677881,0 0.677881,0 0,0 0,13.146066 0,13.146066 0,0 -0.677881,-0.07344 -0.677881,-0.07344 0,0 0,-13.072629 0,-13.072629"
             id="rect5953"
             inkscape:connector-curvature="0" />
          <path
             sodipodi:nodetypes="ccccc"
             id="path5955"
             d="m -42.658683,31.988024 c 0,0 1.567774,-0.169842 1.567774,-0.169842 0,0 0,28.363636 0,28.363636 0,0 -1.567774,-0.169842 -1.567774,-0.169842 0,0 0,-28.023952 0,-28.023952 0,0 0,0 0,0"
             style="fill:#e6be00;fill-opacity:1;fill-rule:nonzero;stroke:none"
             inkscape:connector-curvature="0" />
          <path
             id="path5957"
             d="m -41.090909,30.727273 c 0,0 0,1.090909 0,1.090909 5.952223,-0.644824 11.196172,5.683923 11.196172,14.181818 0,0 0.941095,0 0.941095,0 0,-9.212185 -5.704682,-16.023195 -12.137267,-15.272727 0,0 0,0 0,0"
             style="fill:#805500;fill-opacity:1;fill-rule:nonzero;stroke:none"
             inkscape:connector-curvature="0" />
          <path
             sodipodi:nodetypes="ccccc"
             id="path5959"
             d="m -32.645161,61.096774 c 0,0 -0.893301,-0.09677 -0.893301,-0.09677 0,0 0,-26.538462 0,-26.538462 0,0 0.893301,1.086849 0.893301,1.086849 0,0 0,25.548387 0,25.548387 0,0 0,0 0,0"
             style="fill:#805500;fill-opacity:1;fill-rule:nonzero;stroke:none"
             inkscape:connector-curvature="0" />
          <path
             style="fill:#805500;fill-opacity:1;fill-rule:nonzero;stroke:none"
             d="m -37,60.625 c 0,0 -0.838509,-0.09084 -0.838509,-0.09084 0,0 0,-29.068322 0,-29.068322 0,0 0.838509,-0.09084 0.838509,-0.09084 0,0 0,29.25 0,29.25 0,0 0,0 0,0"
             id="path5961"
             sodipodi:nodetypes="ccccc"
             inkscape:connector-curvature="0" />
          <path
             sodipodi:nodetypes="ccccc"
             id="path5963"
             d="m -29.894737,46 c 0,0 0.941095,0 0.941095,0 0,0 0,16.688742 0,16.688742 0,0 -0.941095,-1.294005 -0.941095,-1.294005 0,0 0,-15.394737 0,-15.394737 0,0 0,0 0,0"
             style="fill:#805500;fill-opacity:1;fill-rule:nonzero;stroke:none"
             inkscape:connector-curvature="0" />
          <path
             sodipodi:nodetypes="ccccc"
             id="path5965"
             d="m -51.329609,59.072626 c 0,0 21.434872,2.322111 21.434872,2.322111 0,0 0.941095,1.294005 0.941095,1.294005 0,0 -22.375967,-2.61053 -22.375967,-2.61053 0,0 0,-1.005586 0,-1.005586 0,0 0,0 0,0"
             style="fill:#e6be00;fill-opacity:1;fill-rule:nonzero;stroke:none"
             inkscape:connector-curvature="0" />
          <path
             id="path5967"
             d="m -41.090909,30.727273 c -2.995504,0.349475 -5.598898,2.281976 -7.414362,5.07798 0,0 0.509577,0.700667 0.509577,0.700667 1.698041,-2.594819 4.118692,-4.385911 6.904785,-4.687738 0,0 0,-1.090909 0,-1.090909 0,0 0,0 0,0"
             style="fill:#805500;fill-opacity:1;fill-rule:nonzero;stroke:none"
             inkscape:connector-curvature="0" />
          <path
             sodipodi:nodetypes="ccccc"
             id="path5969"
             d="m -41.090909,60.181818 c 0,0 -0.788609,-0.08543 -0.788609,-0.08543 0,0 0,-28.192772 0,-28.192772 0,0 0.788609,-0.08543 0.788609,-0.08543 0,0 0,28.363636 0,28.363636 0,0 0,0 0,0"
             style="fill:#805500;fill-opacity:1;fill-rule:nonzero;stroke:none"
             inkscape:connector-curvature="0" />
          <path
             inkscape:connector-curvature="0"
             style="fill:#ccc;fill-opacity:1;stroke:none"
             d="m -44.37259,42.551251 c 1.153371,-1.657828 2.872277,-2.369751 4.525451,-1.83247 1.695596,0.551068 3.05058,2.325371 3.521743,4.656082 0.474458,2.347012 -0.03167,4.837858 -1.310615,6.495322 0,0 -3.454898,-4.779276 -3.454898,-4.779276 0,0 -3.281681,-4.539658 -3.281681,-4.539658"
             id="path5971" />
          <path
             inkscape:connector-curvature="0"
             style="fill:gray;fill-opacity:1;stroke:none"
             d="m -37.636011,51.870185 c -0.933941,1.210347 -2.180085,1.840543 -3.454898,1.766179 -1.250459,-0.07294 -2.427464,-0.818423 -3.281681,-2.060492 -0.842933,-1.225661 -1.311621,-2.848189 -1.311621,-4.52324 0,-1.675052 0.468688,-3.289768 1.311621,-4.501381 0,0 3.281681,4.539658 3.281681,4.539658 0,0 3.454898,4.779276 3.454898,4.779276"
             id="path5973" />
          <path
             inkscape:connector-curvature="0"
             style="fill:#b3b3b3;fill-opacity:1;stroke:none"
             d="m -37,47.125 c 0,1.491843 -0.443016,2.909301 -1.224436,3.931197 -0.772397,1.010095 -1.805851,1.542289 -2.866473,1.489258 -1.04371,-0.05219 -2.029158,-0.667224 -2.746207,-1.701396 -0.709116,-1.022727 -1.10406,-2.381148 -1.10406,-3.785235 0,-1.404088 0.394944,-2.755926 1.10406,-3.766835 0.717049,-1.022221 1.702497,-1.620835 2.746207,-1.655625 1.060622,-0.03535 2.094076,0.514063 2.866473,1.537032 C -37.443016,44.208315 -37,45.633157 -37,47.125 c 0,0 0,0 0,0"
             id="circle5975" />
          <path
             style="fill:black;fill-opacity:0.25098039;stroke:none"
             d="m -41.090909,44.909091 c -0.438082,0.0037 -0.826262,0.25452 -1.106274,0.651472 0,0 -0.55824,0.809669 -0.55824,0.809669 0,0 -0.193046,0.234697 -0.193046,0.234697 -0.289899,0.384493 -0.480102,0.93372 -0.480102,1.537928 0,1.183467 0.68895,2.165822 1.549053,2.194492 0.422185,0.01407 0.804277,-0.209805 1.086807,-0.578807 0,0 0.07476,-0.100422 0.07476,-0.100422 0,0 0.752333,-1.010556 0.752333,-1.010556 0.293608,-0.388769 0.480953,-0.933693 0.480953,-1.54327 0,-1.219769 -0.723988,-2.202555 -1.606246,-2.195203 0,0 0,0 0,0"
             id="path5977"
             inkscape:connector-curvature="0" />
          <path
             inkscape:connector-curvature="0"
             style="fill:white;fill-opacity:0.75294118;stroke:none"
             d="m -39.94039,41.254108 c 0,0 -0.527736,2.690706 -0.527736,2.690706 0.616683,0.222502 1.149432,0.758728 1.467934,1.50102 0,0 1.789584,-1.411513 1.789584,-1.411513 -0.610687,-1.403619 -1.582287,-2.402363 -2.729782,-2.780213 0,0 0,0 0,0"
             id="path5985" />
        </g>
        <g
           id="g6014"
           transform="translate(-1.5,0)">
          <circle
             sodipodi:ry="2"
             sodipodi:rx="2"
             sodipodi:cy="46.999874"
             sodipodi:cx="-40"
             d="m -38,46.999874 c 0,1.10457 -0.895431,2 -2,2 -1.104569,0 -2,-0.89543 -2,-2 0,-1.104569 0.895431,-2 2,-2 1.104569,0 2,0.895431 2,2 z"
             r="2"
             cy="46.999874"
             cx="-40"
             style="fill:#a0a0a0;fill-opacity:1;fill-rule:nonzero;stroke:none;display:inline"
             id="circle5979" />
          <path
             inkscape:connector-curvature="0"
             style="fill:#606060;fill-opacity:1;fill-rule:nonzero;stroke:none;display:inline"
             d="m -40.8125,45.187375 c -0.697129,0.312609 -1.187501,0.999443 -1.1875,1.8125 0,1.104 0.895999,2 2,2 0.813057,0 1.49989,-0.490372 1.8125,-1.1875 -0.249459,0.111863 -0.521557,0.1875 -0.8125,0.1875 -1.104,0 -2,-0.896 -2,-2 0,-0.290943 0.07564,-0.563041 0.1875,-0.8125 z"
             id="path5981" />
          <circle
             sodipodi:ry="0.75"
             sodipodi:rx="0.75"
             sodipodi:cy="46.249874"
             sodipodi:cx="-39.25"
             d="m -38.5,46.249874 c 0,0.414214 -0.335786,0.75 -0.75,0.75 -0.414214,0 -0.75,-0.335786 -0.75,-0.75 0,-0.414213 0.335786,-0.75 0.75,-0.75 0.414214,0 0.75,0.335787 0.75,0.75 z"
             cy="46.249874"
             cx="-39.25"
             style="fill:white;fill-opacity:1;fill-rule:nonzero;stroke:none;display:inline"
             id="ellipse5983"
             r="0.75" />
        </g>
      </g>
      <path
         inkscape:connector-curvature="0"
         id="path7914"
         d="m -27,64 -1,0 0,-0.5 z"
         style="fill:#8e7400;fill-opacity:1;fill-rule:nonzero;stroke:none" />
    </g>
  </g>
</svg>
