<?xml version="1.0" encoding="UTF-8" standalone="no"?>
<!-- Created with Inkscape (http://www.inkscape.org/) -->

<svg xmlns:dc="http://purl.org/dc/elements/1.1/" xmlns:cc="http://creativecommons.org/ns#" xmlns:rdf="http://www.w3.org/1999/02/22-rdf-syntax-ns#" xmlns:svg="http://www.w3.org/2000/svg" xmlns="http://www.w3.org/2000/svg" xmlns:sodipodi="http://sodipodi.sourceforge.net/DTD/sodipodi-0.dtd" xmlns:inkscape="http://www.inkscape.org/namespaces/inkscape" width="32px" height="32px" id="svg3505" sodipodi:version="0.32" inkscape:version="0.91 r13725" sodipodi:docname="key-option-down-00.svg" inkscape:output_extension="org.inkscape.output.svg.inkscape" version="1.1">
  <title id="title3644">Key 01</title>
  <defs id="defs3507">
    <inkscape:perspective sodipodi:type="inkscape:persp3d" inkscape:vp_x="0 : 16 : 1" inkscape:vp_y="0 : 1000 : 0" inkscape:vp_z="32 : 16 : 1" inkscape:persp3d-origin="16 : 10.666667 : 1" id="perspective2836" />
    <inkscape:perspective id="perspective2899" inkscape:persp3d-origin="0.5 : 0.33333333 : 1" inkscape:vp_z="1 : 0.5 : 1" inkscape:vp_y="0 : 1000 : 0" inkscape:vp_x="0 : 0.5 : 1" sodipodi:type="inkscape:persp3d" />
    <inkscape:perspective id="perspective3072" inkscape:persp3d-origin="0.5 : 0.33333333 : 1" inkscape:vp_z="1 : 0.5 : 1" inkscape:vp_y="0 : 1000 : 0" inkscape:vp_x="0 : 0.5 : 1" sodipodi:type="inkscape:persp3d" />
    <inkscape:perspective id="perspective2840" inkscape:persp3d-origin="0.5 : 0.33333333 : 1" inkscape:vp_z="1 : 0.5 : 1" inkscape:vp_y="0 : 1000 : 0" inkscape:vp_x="0 : 0.5 : 1" sodipodi:type="inkscape:persp3d" />
  </defs>
  <sodipodi:namedview id="base" pagecolor="#ffffff" bordercolor="#666666" borderopacity="1.0" inkscape:pageopacity="0.0" inkscape:pageshadow="2" inkscape:zoom="22.125" inkscape:cx="16" inkscape:cy="16" inkscape:current-layer="layer1" showgrid="true" inkscape:grid-bbox="true" inkscape:document-units="px" objecttolerance="4" gridtolerance="4" guidetolerance="4" inkscape:window-width="1600" inkscape:window-height="878" inkscape:window-x="0" inkscape:window-y="0" inkscape:object-paths="true" inkscape:object-nodes="true" inkscape:snap-bbox="true" inkscape:snap-guide="true" showguides="true" inkscape:guide-bbox="true" inkscape:window-maximized="1">
    <inkscape:grid type="xygrid" id="grid3515" units="px" visible="true" enabled="true" spacingx="1px" spacingy="1px" empspacing="4" snapvisiblegridlinesonly="true" />
    <sodipodi:guide orientation="0,1" position="-4,16" id="guide3718" />
    <sodipodi:guide orientation="1,0" position="24.570834,23.342069" id="guide3720" />
  </sodipodi:namedview>
  <metadata id="metadata3510">
    <rdf:RDF>
      <cc:Work rdf:about="">
        <dc:format>image/svg+xml</dc:format>
        <dc:type rdf:resource="http://purl.org/dc/dcmitype/StillImage" />
        <dc:title>Key 01</dc:title>
        <dc:date>2010-10-08</dc:date>
        <dc:creator>
          <cc:Agent>
            <dc:title>Andreas Neudecker &lt;zapyon@gmx.net&gt;</dc:title>
          </cc:Agent>
        </dc:creator>
        <dc:rights>
          <cc:Agent>
            <dc:title>Copyright (C) 2010 by Andreas Neudecker</dc:title>
          </cc:Agent>
        </dc:rights>
        <dc:publisher>
          <cc:Agent>
            <dc:title>Andreas Neudecker</dc:title>
          </cc:Agent>
        </dc:publisher>
        <dc:identifier>key-00</dc:identifier>
        <dc:description>Key. For McMinos.</dc:description>
      </cc:Work>
    </rdf:RDF>
  </metadata>
  <g id="layer1" inkscape:label="Layer 1" inkscape:groupmode="layer">
    <g id="g7743" transform="matrix(0,-1,-1,0,32,32)">
      <rect y="0" x="0" height="32" width="32" id="rect2835" style="fill:none;stroke:none" />
      <path id="path3738" d="M 23.96875,8 C 20.943984,8.079875 18.81498,9.7409641 17.25,12 l -1.25,0 -1,0 0,1 -11.6875,0 -0.46875,0 -0.28125,0.375 -1.6875,2 -0.5625,0.6875 0.625,0.65625 3,3 L 4.5,20.25 5.15625,19.875 5.8125,19.5 5.9375,19.625 6.65625,20.3125 7.375,19.625 8,19 l 0.71875,0.71875 0.71875,0.71875 0.6875,-0.71875 0.625,-0.625 0.75,0.71875 0.5625,-0.65625 0.5625,0.5625 0.71875,0.6875 0.6875,-0.6875 0.5,-0.5 0.03125,0 0.1875,0.125 0.25,0 0,0.65625 1,0 1.15625,0 c 1.389363,2.372989 3.904602,4 6.84375,4 4.406433,0 8,-3.593567 8,-8 0,-4.406433 -3.593567,-8 -8,-8 L 23.96875,8 Z M 24,9 c 3.865993,0 7,3.134007 7,7 0,3.865993 -3.134007,7 -7,7 -2.791944,0 -5.20052,-1.635671 -6.324219,-4 L 16,19 l 0,-0.666016 -1,0 L 14.333984,18 l -1,1 L 12,17.666016 l -0.570312,0.675781 -0.667969,-0.666016 -1.3320315,1.332031 -1.4375,-1.4375 -1.3339844,1.333985 -0.6660156,-0.666016 -1.3339844,0.769531 -3,-3 1.6660157,-2 L 16,14 l 0,-1 1.675781,0 C 18.79948,10.635671 21.208056,9 24,9 Z m 2.666016,5 c -1.104569,0 -2,0.895431 -2,2 0,1.104569 0.895431,2 2,2 1.10457,0 2,-0.895431 2,-2 0,-1.104569 -0.89543,-2 -2,-2 z m -0.0098,1 c 0.56413,0 1,0.435871 1,1 0,0.564129 -0.43587,1 -1,1 -0.564128,0 -1,-0.435872 -1,-1 0,-0.564128 0.435872,-1 1,-1 z" style="color:black;font-style:normal;font-variant:normal;font-weight:normal;font-stretch:normal;font-size:medium;line-height:normal;font-family:'Bitstream Vera Sans';-inkscape-font-specification:'Bitstream Vera Sans';text-indent:0;text-align:start;text-decoration:none;text-decoration-line:none;letter-spacing:normal;word-spacing:normal;text-transform:none;direction:ltr;block-progression:tb;writing-mode:lr-tb;text-anchor:start;display:inline;overflow:visible;visibility:visible;fill:#d40000;fill-opacity:1;fill-rule:nonzero;stroke:none;stroke-width:2;marker:none;enable-background:accumulate" inkscape:connector-curvature="0" />
    </g>
  </g>
</svg>
