<?xml version="1.0" encoding="UTF-8" standalone="no"?>
<!-- Created with Inkscape (http://www.inkscape.org/) -->

<svg xmlns:dc="http://purl.org/dc/elements/1.1/" xmlns:cc="http://creativecommons.org/ns#" xmlns:rdf="http://www.w3.org/1999/02/22-rdf-syntax-ns#" xmlns:svg="http://www.w3.org/2000/svg" xmlns="http://www.w3.org/2000/svg" xmlns:sodipodi="http://sodipodi.sourceforge.net/DTD/sodipodi-0.dtd" xmlns:inkscape="http://www.inkscape.org/namespaces/inkscape" width="32px" height="32px" id="svg3505" sodipodi:version="0.32" inkscape:version="0.91 r13725" sodipodi:docname="key-selected-down-00.svg" inkscape:output_extension="org.inkscape.output.svg.inkscape" version="1.1">
  <title id="title3644">Key 01</title>
  <defs id="defs3507">
    <inkscape:perspective sodipodi:type="inkscape:persp3d" inkscape:vp_x="0 : 16 : 1" inkscape:vp_y="0 : 1000 : 0" inkscape:vp_z="32 : 16 : 1" inkscape:persp3d-origin="16 : 10.666667 : 1" id="perspective2836" />
    <inkscape:perspective id="perspective2899" inkscape:persp3d-origin="0.5 : 0.33333333 : 1" inkscape:vp_z="1 : 0.5 : 1" inkscape:vp_y="0 : 1000 : 0" inkscape:vp_x="0 : 0.5 : 1" sodipodi:type="inkscape:persp3d" />
    <inkscape:perspective id="perspective3072" inkscape:persp3d-origin="0.5 : 0.33333333 : 1" inkscape:vp_z="1 : 0.5 : 1" inkscape:vp_y="0 : 1000 : 0" inkscape:vp_x="0 : 0.5 : 1" sodipodi:type="inkscape:persp3d" />
    <inkscape:perspective id="perspective2840" inkscape:persp3d-origin="0.5 : 0.33333333 : 1" inkscape:vp_z="1 : 0.5 : 1" inkscape:vp_y="0 : 1000 : 0" inkscape:vp_x="0 : 0.5 : 1" sodipodi:type="inkscape:persp3d" />
  </defs>
  <sodipodi:namedview id="base" pagecolor="#ffffff" bordercolor="#666666" borderopacity="1.0" inkscape:pageopacity="0.0" inkscape:pageshadow="2" inkscape:zoom="22.008958" inkscape:cx="16" inkscape:cy="16" inkscape:current-layer="layer1" showgrid="true" inkscape:grid-bbox="true" inkscape:document-units="px" objecttolerance="4" gridtolerance="4" guidetolerance="4" inkscape:window-width="1600" inkscape:window-height="878" inkscape:window-x="0" inkscape:window-y="0" inkscape:object-paths="true" inkscape:object-nodes="true" inkscape:snap-bbox="true" inkscape:snap-guide="true" showguides="true" inkscape:guide-bbox="true" inkscape:window-maximized="1">
    <inkscape:grid type="xygrid" id="grid3515" units="px" visible="true" enabled="true" spacingx="1px" spacingy="1px" empspacing="4" snapvisiblegridlinesonly="true" />
    <sodipodi:guide orientation="0,1" position="-4,16" id="guide3718" />
    <sodipodi:guide orientation="1,0" position="24.570834,23.342069" id="guide3720" />
  </sodipodi:namedview>
  <metadata id="metadata3510">
    <rdf:RDF>
      <cc:Work rdf:about="">
        <dc:format>image/svg+xml</dc:format>
        <dc:type rdf:resource="http://purl.org/dc/dcmitype/StillImage" />
        <dc:title>Key 01</dc:title>
        <dc:date>2010-10-08</dc:date>
        <dc:creator>
          <cc:Agent>
            <dc:title>Andreas Neudecker &lt;zapyon@gmx.net&gt;</dc:title>
          </cc:Agent>
        </dc:creator>
        <dc:rights>
          <cc:Agent>
            <dc:title>Copyright (C) 2010 by Andreas Neudecker</dc:title>
          </cc:Agent>
        </dc:rights>
        <dc:publisher>
          <cc:Agent>
            <dc:title>Andreas Neudecker</dc:title>
          </cc:Agent>
        </dc:publisher>
        <dc:identifier>key-00</dc:identifier>
        <dc:description>Key. For McMinos.</dc:description>
      </cc:Work>
    </rdf:RDF>
  </metadata>
  <g id="layer1" inkscape:label="Layer 1" inkscape:groupmode="layer">
    <g id="g6844" transform="matrix(0,-1,-1,0,32,32)">
      <rect style="fill:none;stroke:none" id="rect6846" width="32" height="32" x="0" y="0" />
      <path inkscape:connector-curvature="0" style="color:black;font-style:normal;font-variant:normal;font-weight:normal;font-stretch:normal;font-size:medium;line-height:normal;font-family:'Bitstream Vera Sans';-inkscape-font-specification:'Bitstream Vera Sans';text-indent:0;text-align:start;text-decoration:none;text-decoration-line:none;letter-spacing:normal;word-spacing:normal;text-transform:none;direction:ltr;block-progression:tb;writing-mode:lr-tb;text-anchor:start;display:inline;overflow:visible;visibility:visible;fill:#d40000;fill-opacity:1;fill-rule:nonzero;stroke:none;stroke-width:2;marker:none;enable-background:accumulate" d="M 23.96875,8 C 20.943984,8.079875 18.81498,9.7409641 17.25,12 l -1.25,0 -1,0 0,1 -11.6875,0 -0.46875,0 -0.28125,0.375 -1.6875,2 -0.5625,0.6875 0.625,0.65625 3,3 L 4.5,20.25 5.15625,19.875 5.8125,19.5 5.9375,19.625 6.65625,20.3125 7.375,19.625 8,19 l 0.71875,0.71875 0.71875,0.71875 0.6875,-0.71875 0.625,-0.625 0.75,0.71875 0.5625,-0.65625 0.5625,0.5625 0.71875,0.6875 0.6875,-0.6875 0.5,-0.5 0.03125,0 0.1875,0.125 0.25,0 0,0.65625 1,0 1.15625,0 c 1.389363,2.372989 3.904602,4 6.84375,4 4.406433,0 8,-3.593567 8,-8 0,-4.406433 -3.593567,-8 -8,-8 l -0.03125,0 z m 2.6875,7 c 0.56413,0 1,0.435871 1,1 0,0.564129 -0.43587,1 -1,1 -0.564128,0 -1,-0.435872 -1,-1 0,-0.564128 0.435872,-1 1,-1 z" id="path6850" sodipodi:nodetypes="cccccccccccccccccccccccccccccccccccsscccsssc" />
      <path inkscape:connector-curvature="0" style="fill:#e0e0e0;fill-opacity:1;fill-rule:nonzero;stroke:none" d="m 24,9.0000001 c -2.791944,0 -5.201301,1.6356709 -6.325,3.9999999 L 16,13 l 0,1 -12.675,0.0083 -1.6666666,2 2.9999999,3 1.3333333,-0.770833 0.6666666,0.666666 L 7.9916665,17.5708 9.429167,19.0083 10.7625,17.675 11.429166,18.341666 12,17.6667 l 1.333333,1.333333 1,-1 L 15,18.333366 l 1,0 0,0.666667 1.675,0 c 1.123699,2.364329 3.533056,4 6.325,4 3.865993,0 7,-3.134007 7,-7 0,-3.865993 -3.134007,-6.9999999 -7,-6.9999999 l 0,-3.3e-5 z M 26.666666,14 c 1.10457,0 2,0.895431 2,2 0,1.104569 -0.89543,2 -2,2 -1.104569,0 -2,-0.895431 -2,-2 0,-1.104569 0.895431,-2 2,-2 z" id="path6852" sodipodi:nodetypes="ccccccccccccccccccccsscccsscc" />
      <path inkscape:connector-curvature="0" style="fill:white;fill-opacity:1;fill-rule:nonzero;stroke:none" d="m 2.4930551,15 -0.55,0.666667 16.3902779,0 C 18.701523,15.666667 19,15.368189 19,15 l -0.666667,0 -15.8402779,0 z" id="path6854" sodipodi:nodetypes="cccccc" />
      <path inkscape:connector-curvature="0" style="fill:#949494;fill-opacity:1;fill-rule:nonzero;stroke:none" d="M 1.9833338,16.333333 2.6500004,17 18.333333,17 19,17 c 0,-0.368189 -0.298477,-0.666667 -0.666667,-0.666667 l -16.3499992,0 z" id="path6856" sodipodi:nodetypes="cccccc" />
      <path inkscape:connector-curvature="0" style="fill:#f8f8f8;fill-opacity:1;fill-rule:nonzero;stroke:none" d="m 24,9.6666668 c -2.274071,0 -4.266352,1.2001502 -5.383333,3.0000002 l 0.05,0 L 20,14 l 0,4 -1.333333,1.333333 -0.05,0 c 1.116981,1.799849 3.109262,3 5.383333,3 3.497804,0 6.333333,-2.835529 6.333333,-6.333333 0,-3.497804 -2.835529,-6.3333332 -6.333333,-6.3333332 z M 26.666666,14 c 1.10457,0 2,0.895431 2,2 0,1.104569 -0.89543,2 -2,2 -1.104569,0 -2,-0.895431 -2,-2 0,-1.104569 0.895431,-2 2,-2 z" id="path6858" />
      <path inkscape:connector-curvature="0" style="fill:#e0e0e0;fill-opacity:1;fill-rule:nonzero;stroke:none" d="m 26.666666,14 c -1.104569,0 -2,0.895431 -2,2 0,1.104569 0.895431,2 2,2 1.10457,0 2,-0.895431 2,-2 0,-1.104569 -0.89543,-2 -2,-2 z m 0,0.333333 c 0.920475,0 1.666667,0.746192 1.666667,1.666667 0,0.920475 -0.746192,1.666667 -1.666667,1.666667 C 25.746192,17.666667 25,16.920475 25,16 c 0,-0.920475 0.746192,-1.666667 1.666666,-1.666667 z" id="path6860" />
      <path inkscape:connector-curvature="0" style="fill:#949494;fill-opacity:1;fill-rule:nonzero;stroke:none" d="m 3.0642325,14.321254 -0.5725658,0.687079 15.8416663,-0.0083 0.666667,0 c 0,-0.368189 -0.298477,-0.666667 -0.666667,-0.666667 L 3.0642325,14.321254 Z" id="path6862" sodipodi:nodetypes="cccccc" />
      <path inkscape:connector-curvature="0" style="fill:white;fill-opacity:1;fill-rule:nonzero;stroke:none" d="m 2.6500006,17 0.6666667,0.666667 15.0166657,0 C 18.701523,17.666667 19,17.368189 19,17 l -0.666667,0 -15.6833324,0 z" id="path6864" sodipodi:nodetypes="cccccc" />
      <path inkscape:connector-curvature="0" style="fill:silver;fill-opacity:1;fill-rule:nonzero;stroke:none" d="m 3.319604,17.666667 12.680396,0 0,0.666666 -0.290524,-0.325 -3.397548,0 L 12,17.666667 l -0.301226,0.341666 -0.591054,0.01189 -0.343194,-0.353553 -0.33536,0.341666 -2,0 -0.3095621,-0.341666 -0.2024528,0 L 7.6052224,18.008333 3.6529373,18 3.319604,17.666667 Z" id="path6866" sodipodi:nodetypes="cccccccccccccccc" />
      <path inkscape:connector-curvature="0" style="fill:white;fill-opacity:0.86943623;fill-rule:nonzero;stroke:none" d="M 23.370833,9.6916668 C 21.360527,9.892613 19.6273,11.031675 18.616667,12.666667 l 0.05,0 0.15,0.15 c 0.938049,-1.705124 2.606358,-2.9081321 4.554166,-3.1250002 z m 6.9375,6.9375002 c -0.335627,3.014444 -3.029185,5.362499 -6.3,5.362499 -2.169236,0 -4.071076,-1.15024 -5.125,-2.874999 l -0.216666,0.216666 -0.0375,0 c 1.117898,1.795503 3.108389,2.991667 5.379166,2.991667 3.282607,0 5.980288,-2.497371 6.3,-5.695833 z" id="path6868" />
      <path inkscape:connector-curvature="0" style="fill:white;fill-opacity:1;fill-rule:nonzero;stroke:none" d="m 26.666666,13.666667 c -1.288664,0 -2.333333,1.044669 -2.333333,2.333333 0,1.288664 1.044669,2.333333 2.333333,2.333333 C 27.95533,18.333333 29,17.288664 29,16 29,14.711336 27.95533,13.666667 26.666666,13.666667 Z m 0,0.333333 c 1.10457,0 2,0.895431 2,2 0,1.104569 -0.89543,2 -2,2 -1.104569,0 -2,-0.895431 -2,-2 0,-1.104569 0.895431,-2 2,-2 z" id="path6870" />
      <path inkscape:connector-curvature="0" style="fill:#b4b4b4;fill-opacity:1;fill-rule:nonzero;stroke:none" d="M 26.429166,14.008333 C 25.252569,14.110753 24.333333,14.964465 24.333333,16 c 0,1.288664 1.044669,2.333333 2.333333,2.333333 1.04521,0 1.902475,-0.936757 1.991667,-2.129166 C 28.555913,17.212679 27.7022,18 26.666666,18 c -1.104569,0 -2,-0.895431 -2,-2 0,-1.035533 0.787322,-1.889247 1.795834,-1.991667 -0.01104,8e-4 -0.02234,-9.33e-4 -0.03333,0 z" id="path6872" />
      <path inkscape:connector-curvature="0" style="fill:#b4b4b4;fill-opacity:1;fill-rule:nonzero;stroke:none" d="m 24,9.6666668 c -2.273992,-2e-7 -4.266357,1.1999842 -5.383333,3.0000002 l 0.05,0 0.04167,0.04167 c 1.132594,-1.629641 3.078385,-2.708333 5.291667,-2.708333 3.313708,0 6,2.686292 6,6 0,3.27082 -2.348056,5.964373 -5.3625,6.3 3.198462,-0.319712 5.695833,-3.017393 5.695833,-6.3 0,-3.497804 -2.835529,-6.3333331 -6.333333,-6.3333332 z" id="path6874" />
      <path inkscape:connector-curvature="0" style="fill:white;fill-opacity:1;fill-rule:nonzero;stroke:none" d="M 18.666667,19.333333 19,19.333333 20.159711,18 l 0.02003,-4 -1.322204,-1.333333 -0.190873,0 L 19.999997,14 l 0,4 -1.333333,1.333333 z" id="path6876" />
    </g>
  </g>
</svg>
