<?xml version="1.0" encoding="UTF-8" standalone="no"?>
<!-- Created with Inkscape (http://www.inkscape.org/) -->

<svg xmlns:dc="http://purl.org/dc/elements/1.1/" xmlns:cc="http://creativecommons.org/ns#" xmlns:rdf="http://www.w3.org/1999/02/22-rdf-syntax-ns#" xmlns:svg="http://www.w3.org/2000/svg" xmlns="http://www.w3.org/2000/svg" xmlns:sodipodi="http://sodipodi.sourceforge.net/DTD/sodipodi-0.dtd" xmlns:inkscape="http://www.inkscape.org/namespaces/inkscape" width="32px" height="32px" id="svg3505" sodipodi:version="0.32" inkscape:version="0.91 r13725" sodipodi:docname="key-option-left-00.svg" inkscape:output_extension="org.inkscape.output.svg.inkscape" version="1.1">
  <title id="title3644">Key 01</title>
  <defs id="defs3507">
    <inkscape:perspective sodipodi:type="inkscape:persp3d" inkscape:vp_x="0 : 16 : 1" inkscape:vp_y="0 : 1000 : 0" inkscape:vp_z="32 : 16 : 1" inkscape:persp3d-origin="16 : 10.666667 : 1" id="perspective2836" />
    <inkscape:perspective id="perspective2899" inkscape:persp3d-origin="0.5 : 0.33333333 : 1" inkscape:vp_z="1 : 0.5 : 1" inkscape:vp_y="0 : 1000 : 0" inkscape:vp_x="0 : 0.5 : 1" sodipodi:type="inkscape:persp3d" />
    <inkscape:perspective id="perspective3072" inkscape:persp3d-origin="0.5 : 0.33333333 : 1" inkscape:vp_z="1 : 0.5 : 1" inkscape:vp_y="0 : 1000 : 0" inkscape:vp_x="0 : 0.5 : 1" sodipodi:type="inkscape:persp3d" />
    <inkscape:perspective id="perspective2840" inkscape:persp3d-origin="0.5 : 0.33333333 : 1" inkscape:vp_z="1 : 0.5 : 1" inkscape:vp_y="0 : 1000 : 0" inkscape:vp_x="0 : 0.5 : 1" sodipodi:type="inkscape:persp3d" />
  </defs>
  <sodipodi:namedview id="base" pagecolor="#ffffff" bordercolor="#666666" borderopacity="1.0" inkscape:pageopacity="0.0" inkscape:pageshadow="2" inkscape:zoom="22.125" inkscape:cx="16" inkscape:cy="16" inkscape:current-layer="layer1" showgrid="true" inkscape:grid-bbox="true" inkscape:document-units="px" objecttolerance="4" gridtolerance="4" guidetolerance="4" inkscape:window-width="1600" inkscape:window-height="878" inkscape:window-x="0" inkscape:window-y="0" inkscape:object-paths="true" inkscape:object-nodes="true" inkscape:snap-bbox="true" inkscape:snap-guide="true" showguides="true" inkscape:guide-bbox="true" inkscape:window-maximized="1">
    <inkscape:grid type="xygrid" id="grid3515" units="px" visible="true" enabled="true" spacingx="1px" spacingy="1px" empspacing="4" snapvisiblegridlinesonly="true" />
    <sodipodi:guide orientation="0,1" position="-4,16" id="guide3718" />
    <sodipodi:guide orientation="1,0" position="24.570834,23.342069" id="guide3720" />
  </sodipodi:namedview>
  <metadata id="metadata3510">
    <rdf:RDF>
      <cc:Work rdf:about="">
        <dc:format>image/svg+xml</dc:format>
        <dc:type rdf:resource="http://purl.org/dc/dcmitype/StillImage" />
        <dc:title>Key 01</dc:title>
        <dc:date>2010-10-08</dc:date>
        <dc:creator>
          <cc:Agent>
            <dc:title>Andreas Neudecker &lt;zapyon@gmx.net&gt;</dc:title>
          </cc:Agent>
        </dc:creator>
        <dc:rights>
          <cc:Agent>
            <dc:title>Copyright (C) 2010 by Andreas Neudecker</dc:title>
          </cc:Agent>
        </dc:rights>
        <dc:publisher>
          <cc:Agent>
            <dc:title>Andreas Neudecker</dc:title>
          </cc:Agent>
        </dc:publisher>
        <dc:identifier>key-00</dc:identifier>
        <dc:description>Key. For McMinos.</dc:description>
      </cc:Work>
    </rdf:RDF>
  </metadata>
  <g id="layer1" inkscape:label="Layer 1" inkscape:groupmode="layer">
    <g id="g7743">
      <rect y="0" x="0" height="32" width="32" id="rect2835" style="fill:none;stroke:none" />
      <path id="path3738" d="M 23.96875 8 C 20.943984 8.079875 18.81498 9.7409641 17.25 12 L 16 12 L 15 12 L 15 13 L 3.3125 13 L 2.84375 13 L 2.5625 13.375 L 0.875 15.375 L 0.3125 16.0625 L 0.9375 16.71875 L 3.9375 19.71875 L 4.5 20.25 L 5.15625 19.875 L 5.8125 19.5 L 5.9375 19.625 L 6.65625 20.3125 L 7.375 19.625 L 8 19 L 8.71875 19.71875 L 9.4375 20.4375 L 10.125 19.71875 L 10.75 19.09375 L 11.5 19.8125 L 12.0625 19.15625 L 12.625 19.71875 L 13.34375 20.40625 L 14.03125 19.71875 L 14.53125 19.21875 L 14.5625 19.21875 L 14.75 19.34375 L 15 19.34375 L 15 20 L 16 20 L 17.15625 20 C 18.545613 22.372989 21.060852 24 24 24 C 28.406433 24 32 20.406433 32 16 C 32 11.593567 28.406433 8 24 8 L 23.96875 8 z M 24 9 C 27.865993 9 31 12.134007 31 16 C 31 19.865993 27.865993 23 24 23 C 21.208056 23 18.79948 21.364329 17.675781 19 L 16 19 L 16 18.333984 L 15 18.333984 L 14.333984 18 L 13.333984 19 L 12 17.666016 L 11.429688 18.341797 L 10.761719 17.675781 L 9.4296875 19.007812 L 7.9921875 17.570312 L 6.6582031 18.904297 L 5.9921875 18.238281 L 4.6582031 19.007812 L 1.6582031 16.007812 L 3.3242188 14.007812 L 16 14 L 16 13 L 17.675781 13 C 18.79948 10.635671 21.208056 9 24 9 z M 26.666016 14 C 25.561447 14 24.666016 14.895431 24.666016 16 C 24.666016 17.104569 25.561447 18 26.666016 18 C 27.770586 18 28.666016 17.104569 28.666016 16 C 28.666016 14.895431 27.770586 14 26.666016 14 z M 26.65625 15 C 27.22038 15 27.65625 15.435871 27.65625 16 C 27.65625 16.564129 27.22038 17 26.65625 17 C 26.092122 17 25.65625 16.564128 25.65625 16 C 25.65625 15.435872 26.092122 15 26.65625 15 z " style="color:black;font-style:normal;font-variant:normal;font-weight:normal;font-stretch:normal;font-size:medium;line-height:normal;font-family:'Bitstream Vera Sans';-inkscape-font-specification:'Bitstream Vera Sans';text-indent:0;text-align:start;text-decoration:none;text-decoration-line:none;letter-spacing:normal;word-spacing:normal;text-transform:none;direction:ltr;block-progression:tb;writing-mode:lr-tb;text-anchor:start;display:inline;overflow:visible;visibility:visible;fill:#d40000;fill-opacity:1;fill-rule:nonzero;stroke:none;stroke-width:2;marker:none;enable-background:accumulate" />
    </g>
  </g>
</svg>
