<?xml version="1.0" encoding="UTF-8" standalone="no"?>
<!-- Created with Inkscape (http://www.inkscape.org/) -->

<svg xmlns:dc="http://purl.org/dc/elements/1.1/" xmlns:cc="http://creativecommons.org/ns#" xmlns:rdf="http://www.w3.org/1999/02/22-rdf-syntax-ns#" xmlns:svg="http://www.w3.org/2000/svg" xmlns="http://www.w3.org/2000/svg" xmlns:sodipodi="http://sodipodi.sourceforge.net/DTD/sodipodi-0.dtd" xmlns:inkscape="http://www.inkscape.org/namespaces/inkscape" width="32" height="32" id="svg3259" version="1.1" inkscape:version="0.91 r13725" sodipodi:docname="holes-with-wall-traces-00.svg">
  <defs id="defs3261" />
  <sodipodi:namedview id="base" pagecolor="#ffffff" bordercolor="#666666" borderopacity="1.0" inkscape:pageopacity="0.0" inkscape:pageshadow="2" inkscape:zoom="21.8125" inkscape:cx="15.197708" inkscape:cy="16" inkscape:document-units="px" inkscape:current-layer="layer1" showgrid="true" gridtolerance="17" showguides="true" inkscape:guide-bbox="true" inkscape:window-width="1066" inkscape:window-height="868" inkscape:window-x="532" inkscape:window-y="6" inkscape:window-maximized="0" guidetolerance="15">
    <inkscape:grid type="xygrid" id="grid3267" empspacing="4" visible="true" enabled="true" snapvisiblegridlinesonly="true" />
    <sodipodi:guide orientation="1,0" position="16,36" id="guide3269" />
    <sodipodi:guide orientation="0,1" position="-4,16" id="guide3271" />
    <sodipodi:guide orientation="-0.70710678,0.70710678" position="15,15" id="guide3860" />
    <sodipodi:guide orientation="-0.70710678,0.70710678" position="8,4" id="guide3864" />
    <sodipodi:guide orientation="-0.70710678,0.70710678" position="-4,12" id="guide3870" />
  </sodipodi:namedview>
  <metadata id="metadata3264">
    <rdf:RDF>
      <cc:Work rdf:about="">
        <dc:format>image/svg+xml</dc:format>
        <dc:type rdf:resource="http://purl.org/dc/dcmitype/StillImage" />
        <dc:title></dc:title>
      </cc:Work>
    </rdf:RDF>
  </metadata>
  <g inkscape:label="Ground level" inkscape:groupmode="layer" id="layer1" transform="translate(0,-1020.3622)">
    <g id="g10065">
      <rect y="1020.3622" x="0" height="32" width="32" id="rect10063" style="opacity:1;fill:none;fill-opacity:0.50196078;fill-rule:nonzero;stroke:none;stroke-width:2;stroke-linecap:butt;stroke-linejoin:miter;stroke-miterlimit:4;stroke-dasharray:none;stroke-dashoffset:0;stroke-opacity:1" />
      <g id="g5250">
        <path style="fill:black;fill-opacity:0.50196078;stroke:none" d="M 16.175781 4.0019531 A 12 12 0 0 0 7.515625 7.515625 L 10.439453 10.439453 A 8 8 0 0 1 15 9 A 8 8 0 0 1 23 17 A 8 8 0 0 1 21.566406 21.566406 L 24.484375 24.484375 A 12 12 0 0 0 27.591797 12.894531 A 12 12 0 0 0 19.105469 4.4082031 A 12 12 0 0 0 16.175781 4.0019531 z " transform="translate(0,1020.3622)" id="path3093" />
        <path style="fill:#cccccc;fill-opacity:0.50196081;stroke:none" d="M 7.515625 7.515625 A 12 12 0 0 0 7.515625 24.484375 A 12 12 0 0 0 24.484375 24.484375 L 21.566406 21.566406 A 8 8 0 0 1 15 25 A 8 8 0 0 1 7 17 A 8 8 0 0 1 10.439453 10.439453 L 7.515625 7.515625 z " transform="translate(0,1020.3622)" id="path3850" />
        <circle r="8" cy="1037.3622" cx="15" id="path3858" style="fill:#999;fill-opacity:0.50196078;stroke:none" />
      </g>
      <g transform="translate(-2,0)" id="g5261">
        <path inkscape:connector-curvature="0" style="fill:#ccc;fill-opacity:0.50196078;stroke:none" d="m 6.34375,18.34375 a 8,8 0 0 0 0,11.3125 8,8 0 0 0 11.3125,0 L 15.390625,27.390625 A 5,5 0 0 1 11,30 5,5 0 0 1 6,25 5,5 0 0 1 8.6132812,20.613281 L 6.34375,18.34375 Z" transform="translate(0,1020.3622)" id="path3856" />
        <path inkscape:connector-curvature="0" style="fill:black;fill-opacity:0.50196078;stroke:none" d="M 12.117188,16 A 8,8 0 0 0 6.34375,18.34375 l 2.2695312,2.269531 A 5,5 0 0 1 11,20 a 5,5 0 0 1 5,5 5,5 0 0 1 -0.609375,2.390625 l 2.265625,2.265625 a 8,8 0 0 0 2.070312,-7.726562 8,8 0 0 0 -5.65625,-5.65625 A 8,8 0 0 0 12.117188,16 Z" transform="translate(0,1020.3622)" id="path3095" />
        <circle r="5" cy="1045.3622" cx="11" id="path3862" style="fill:#999;fill-opacity:0.50196078;stroke:none" />
      </g>
      <g transform="translate(0,-2)" id="g5239">
        <path style="fill:black;fill-opacity:0.50196078;stroke:none" d="m 8.0585938,1024.3622 a 4,4 0 0 0 -2.8867188,1.1719 l 1.1347656,1.1347 A 2.5,2.5 0 0 1 7.5,1026.3622 a 2.5,2.5 0 0 1 2.5,2.5 2.5,2.5 0 0 1 -0.3046875,1.1953 l 1.1328125,1.1328 a 4,4 0 0 0 1.035156,-3.8633 4,4 0 0 0 -2.8281248,-2.8281 4,4 0 0 0 -0.9765624,-0.1367 z" id="path3852" inkscape:connector-curvature="0" />
        <path inkscape:connector-curvature="0" style="fill:#e6e6e6;fill-opacity:0.50196078;stroke:none" d="m 5.171875,5.171875 a 4,4 0 0 0 0,5.65625 4,4 0 0 0 5.65625,0 L 9.6953125,9.6953125 A 2.5,2.5 0 0 1 7.5,11 2.5,2.5 0 0 1 5,8.5 2.5,2.5 0 0 1 6.3066406,6.3066406 L 5.171875,5.171875 Z" transform="translate(0,1020.3622)" id="path3091" />
        <circle r="2.5" cy="1028.8622" cx="7.5" id="path3866" style="fill:#999;fill-opacity:0.50196078;stroke:none" />
      </g>
      <g transform="translate(2,4)" id="g5283">
        <path inkscape:connector-curvature="0" style="fill:black;fill-opacity:0.50196078;stroke:none" d="m 26.058594,20 a 4,4 0 0 0 -2.886719,1.171875 l 1.134766,1.134766 A 2.5,2.5 0 0 1 25.5,22 2.5,2.5 0 0 1 28,24.5 2.5,2.5 0 0 1 27.695312,25.695312 l 1.132813,1.132813 A 4,4 0 0 0 29.863281,22.964844 4,4 0 0 0 27.035156,20.136719 4,4 0 0 0 26.058594,20 Z" transform="translate(0,1020.3622)" id="path3097" />
        <path inkscape:connector-curvature="0" style="fill:#ccc;fill-opacity:0.50196078;stroke:none" d="m 23.171875,21.171875 a 4,4 0 0 0 0,5.65625 4,4 0 0 0 5.65625,0 L 27.695312,25.695312 A 2.5,2.5 0 0 1 25.5,27 2.5,2.5 0 0 1 23,24.5 2.5,2.5 0 0 1 24.306641,22.306641 l -1.134766,-1.134766 z" transform="translate(0,1020.3622)" id="path3099" />
        <circle r="2.5" cy="1044.8622" cx="25.5" style="fill:#999;fill-opacity:0.50196078;stroke:none" id="path3101" />
      </g>
      <g transform="translate(-2,-2)" id="g5272">
        <path inkscape:connector-curvature="0" style="fill:black;fill-opacity:0.50196078;stroke:none" d="m 5.4199219,15.365234 a 2.2585649,2.2585649 0 0 0 -1.6289063,0.66211 l 0.640625,0.640625 A 1.4116032,1.4116032 0 0 1 5.1054688,16.494141 1.4116032,1.4116032 0 0 1 6.5175781,17.90625 1.4116032,1.4116032 0 0 1 6.34375,18.580078 l 0.640625,0.640625 A 2.2585649,2.2585649 0 0 0 7.5703125,17.039062 2.2585649,2.2585649 0 0 0 5.9726562,15.441406 2.2585649,2.2585649 0 0 0 5.4199219,15.365234 Z" transform="translate(0,1020.3622)" id="path4196" />
        <path inkscape:connector-curvature="0" style="fill:#ccc;fill-opacity:0.50196078;stroke:none" d="m 3.7910156,16.027344 a 2.2585649,2.2585649 0 0 0 0,3.193359 2.2585649,2.2585649 0 0 0 3.1933594,0 L 6.34375,18.580078 A 1.4116032,1.4116032 0 0 1 5.1054688,19.318359 1.4116032,1.4116032 0 0 1 3.6933594,17.90625 1.4116032,1.4116032 0 0 1 4.4316406,16.667969 l -0.640625,-0.640625 z" id="path4198" transform="translate(0,1020.3622)" />
        <circle style="fill:#999;fill-opacity:0.50196078;stroke:none" id="path4200" cx="5.1055269" cy="1038.2683" r="1.4116032" />
      </g>
      <g transform="translate(22.133859,0.32091688)" id="g5234">
        <path inkscape:connector-curvature="0" style="fill:#ccc;fill-opacity:0.50196078;stroke:none" d="m -1.3769531,2.4746094 a 6,6 0 0 0 0,8.4843746 6,6 0 0 0 8.484375,0 L 5.5078125,9.359375 a 4,4 0 0 1 -3.6425781,2.357422 4,4 0 0 1 -4,-4.0000001 4,4 0 0 1 2.35742185,-3.6425781 L -1.3769531,2.4746094 Z" transform="translate(0,1020.3622)" id="path5216" />
        <path inkscape:connector-curvature="0" style="fill:#000000;fill-opacity:0.50196081;stroke:none" d="M 2.953125,0.71679688 A 6,6 0 0 0 -1.3769531,2.4746094 l 1.59960935,1.5996094 a 4,4 0 0 1 1.64257815,-0.3574219 4,4 0 0 1 4,4 4,4 0 0 1 -0.3574219,1.6425781 l 1.5996094,1.599609 A 6,6 0 0 0 8.6601562,5.1640625 6,6 0 0 0 4.4179688,0.91992188 6,6 0 0 0 2.953125,0.71679688 Z" transform="translate(0,1020.3622)" id="path5218" />
        <circle id="circle5220" style="fill:#999999;fill-opacity:0.50196081;stroke:none" cx="1.8653295" cy="1028.0785" r="4" />
      </g>
      <g id="g5288" transform="matrix(0.66413946,0,0,0.66413946,-1.0786663,334.49508)">
        <path id="path5290" transform="translate(0,1020.3622)" d="m 5.4199219,15.365234 a 2.2585649,2.2585649 0 0 0 -1.6289063,0.66211 l 0.640625,0.640625 A 1.4116032,1.4116032 0 0 1 5.1054688,16.494141 1.4116032,1.4116032 0 0 1 6.5175781,17.90625 1.4116032,1.4116032 0 0 1 6.34375,18.580078 l 0.640625,0.640625 A 2.2585649,2.2585649 0 0 0 7.5703125,17.039062 2.2585649,2.2585649 0 0 0 5.9726562,15.441406 2.2585649,2.2585649 0 0 0 5.4199219,15.365234 Z" style="fill:black;fill-opacity:0.50196078;stroke:none" inkscape:connector-curvature="0" />
        <path transform="translate(0,1020.3622)" id="path5292" d="m 3.7910156,16.027344 a 2.2585649,2.2585649 0 0 0 0,3.193359 2.2585649,2.2585649 0 0 0 3.1933594,0 L 6.34375,18.580078 A 1.4116032,1.4116032 0 0 1 5.1054688,19.318359 1.4116032,1.4116032 0 0 1 3.6933594,17.90625 1.4116032,1.4116032 0 0 1 4.4316406,16.667969 l -0.640625,-0.640625 z" style="fill:#ccc;fill-opacity:0.50196078;stroke:none" inkscape:connector-curvature="0" />
        <circle r="1.4116032" cy="1038.2683" cx="5.1055269" id="circle5294" style="fill:#999;fill-opacity:0.50196078;stroke:none" />
      </g>
      <g transform="matrix(0.66413946,0,0,0.66413946,18.921334,360.49508)" id="g5296">
        <path inkscape:connector-curvature="0" style="fill:black;fill-opacity:0.50196078;stroke:none" d="m 5.4199219,15.365234 a 2.2585649,2.2585649 0 0 0 -1.6289063,0.66211 l 0.640625,0.640625 A 1.4116032,1.4116032 0 0 1 5.1054688,16.494141 1.4116032,1.4116032 0 0 1 6.5175781,17.90625 1.4116032,1.4116032 0 0 1 6.34375,18.580078 l 0.640625,0.640625 A 2.2585649,2.2585649 0 0 0 7.5703125,17.039062 2.2585649,2.2585649 0 0 0 5.9726562,15.441406 2.2585649,2.2585649 0 0 0 5.4199219,15.365234 Z" transform="translate(0,1020.3622)" id="path5298" />
        <path inkscape:connector-curvature="0" style="fill:#ccc;fill-opacity:0.50196078;stroke:none" d="m 3.7910156,16.027344 a 2.2585649,2.2585649 0 0 0 0,3.193359 2.2585649,2.2585649 0 0 0 3.1933594,0 L 6.34375,18.580078 A 1.4116032,1.4116032 0 0 1 5.1054688,19.318359 1.4116032,1.4116032 0 0 1 3.6933594,17.90625 1.4116032,1.4116032 0 0 1 4.4316406,16.667969 l -0.640625,-0.640625 z" id="path5300" transform="translate(0,1020.3622)" />
        <circle style="fill:#999;fill-opacity:0.50196078;stroke:none" id="circle5302" cx="5.1055269" cy="1038.2683" r="1.4116032" />
      </g>
    </g>
  </g>
  <g inkscape:groupmode="layer" id="layer7" inkscape:label="Holes" />
  <g inkscape:groupmode="layer" id="layer6" inkscape:label="Wall" />
  <g inkscape:groupmode="layer" id="layer5" inkscape:label="right" style="display:inline" />
  <g inkscape:groupmode="layer" id="layer4" inkscape:label="left" />
  <g inkscape:groupmode="layer" id="layer3" inkscape:label="bottom" style="display:inline" />
  <g inkscape:groupmode="layer" id="layer2" inkscape:label="top" />
</svg>
