<?xml version="1.0" encoding="UTF-8" standalone="no"?>
<!-- Created with Inkscape (http://www.inkscape.org/) -->

<svg xmlns:dc="http://purl.org/dc/elements/1.1/" xmlns:cc="http://creativecommons.org/ns#" xmlns:rdf="http://www.w3.org/1999/02/22-rdf-syntax-ns#" xmlns:svg="http://www.w3.org/2000/svg" xmlns="http://www.w3.org/2000/svg" xmlns:sodipodi="http://sodipodi.sourceforge.net/DTD/sodipodi-0.dtd" xmlns:inkscape="http://www.inkscape.org/namespaces/inkscape" width="32" height="32" id="svg3259" version="1.1" inkscape:version="0.91 r13725" sodipodi:docname="06.svg">
  <defs id="defs3261" />
  <sodipodi:namedview id="base" pagecolor="#ffffff" bordercolor="#666666" borderopacity="1.0" inkscape:pageopacity="0.0" inkscape:pageshadow="2" inkscape:zoom="21.821085" inkscape:cx="16" inkscape:cy="14.157296" inkscape:document-units="px" inkscape:current-layer="layer1" showgrid="true" gridtolerance="17" showguides="true" inkscape:guide-bbox="true" inkscape:window-width="1066" inkscape:window-height="868" inkscape:window-x="532" inkscape:window-y="6" inkscape:window-maximized="0" guidetolerance="15">
    <inkscape:grid type="xygrid" id="grid3267" empspacing="4" visible="true" enabled="true" snapvisiblegridlinesonly="true" />
    <sodipodi:guide orientation="1,0" position="16,36" id="guide3269" />
    <sodipodi:guide orientation="0,1" position="-4,16" id="guide3271" />
    <sodipodi:guide orientation="-0.70710678,0.70710678" position="2,2" id="guide3860" />
    <sodipodi:guide orientation="-0.70710678,0.70710678" position="8,4" id="guide3864" />
    <sodipodi:guide orientation="-0.70710678,0.70710678" position="-4,12" id="guide3870" />
  </sodipodi:namedview>
  <metadata id="metadata3264">
    <rdf:RDF>
      <cc:Work rdf:about="">
        <dc:format>image/svg+xml</dc:format>
        <dc:type rdf:resource="http://purl.org/dc/dcmitype/StillImage" />
        <dc:title></dc:title>
      </cc:Work>
    </rdf:RDF>
  </metadata>
  <g inkscape:label="Ground level" inkscape:groupmode="layer" id="layer1" transform="translate(0,-1020.3622)">
    <path style="fill:gray;fill-opacity:0.25098039;stroke:none" d="m 0,1024.3622 0,24 3,0 1,0 24,0 3,0 1,0 0,-24 -3,0 -1,0 -24,0 -2,0 -2,0 z" id="rect3761" inkscape:connector-curvature="0" />
    <path sodipodi:type="arc" style="fill:black;fill-opacity:0.50196078;stroke:none" id="path3856" sodipodi:cx="12" sodipodi:cy="1044.3622" sodipodi:rx="8" sodipodi:ry="8" d="m 17.656854,1050.019 a 8,8 0 0 1 -11.3137082,0 8,8 0 0 1 -1e-7,-11.3137" sodipodi:start="0.78539816" sodipodi:end="3.9269908" sodipodi:open="true" />
    <path sodipodi:type="arc" style="fill:black;fill-opacity:0.50196078;stroke:none" id="path3850" sodipodi:cx="16" sodipodi:cy="1036.3622" sodipodi:rx="12" sodipodi:ry="12" d="m 24.485281,1044.8475 a 12,12 0 0 1 -16.9705623,0 12,12 0 0 1 -2e-7,-16.9706" sodipodi:start="0.78539816" sodipodi:end="3.9269908" sodipodi:open="true" />
    <path d="m 6.3431457,1038.7053 a 8,8 0 0 1 7.7274063,-2.0705 8,8 0 0 1 5.656855,5.6568 8,8 0 0 1 -2.070553,7.7274 L 12,1044.3622 Z" sodipodi:ry="8" sodipodi:rx="8" sodipodi:cy="1044.3622" sodipodi:cx="12" id="path3095" style="fill:black;fill-opacity:0.50196078;stroke:none" sodipodi:type="arc" sodipodi:start="3.9269908" sodipodi:end="0.78539819" />
    <path d="m 28.242641,1032.6048 a 6,6 0 0 1 -8.485282,0 6,6 0 0 1 0,-8.4853 L 24,1028.3622 Z" sodipodi:ry="6" sodipodi:rx="6" sodipodi:cy="1028.3622" sodipodi:cx="24" id="path3854" style="fill:black;fill-opacity:0.50196078;stroke:none" sodipodi:type="arc" sodipodi:start="0.78539816" sodipodi:end="3.9269908" />
    <path d="m 7.5147185,1027.8769 a 12,12 0 0 1 11.5911105,-3.1058 12,12 0 0 1 8.485281,8.4853 12,12 0 0 1 -3.105829,11.5911" sodipodi:ry="12" sodipodi:rx="12" sodipodi:cy="1036.3622" sodipodi:cx="16" id="path3093" style="fill:black;fill-opacity:0.50196078;stroke:none" sodipodi:type="arc" sodipodi:start="3.9269908" sodipodi:end="0.78539819" sodipodi:open="true" />
    <path sodipodi:type="arc" style="fill:black;fill-opacity:0.50196078;stroke:none" id="path3852" sodipodi:cx="8" sodipodi:cy="1028.3622" sodipodi:rx="4" sodipodi:ry="4" d="m 5.1715728,1025.5338 a 4,4 0 0 1 3.8637034,-1.0353 4,4 0 0 1 2.8284268,2.8284 4,4 0 0 1 -1.035276,3.8637 L 8,1028.3622 Z" sodipodi:start="3.9269908" sodipodi:end="0.78539819" />
    <path d="m 10.828427,1031.1906 a 4,4 0 0 1 -5.6568541,0 4,4 0 0 1 -1e-7,-5.6568 L 8,1028.3622 Z" sodipodi:ry="4" sodipodi:rx="4" sodipodi:cy="1028.3622" sodipodi:cx="8" id="path3091" style="fill:black;fill-opacity:0.50196078;stroke:none" sodipodi:type="arc" sodipodi:start="0.78539816" sodipodi:end="3.9269908" />
    <path sodipodi:type="arc" style="fill:black;fill-opacity:0.50196078;stroke:none" id="path3089" sodipodi:cx="24" sodipodi:cy="1028.3622" sodipodi:rx="6" sodipodi:ry="6" d="m 19.757359,1024.1195 a 6,6 0 0 1 5.795555,-1.5529 6,6 0 0 1 4.242641,4.2427 6,6 0 0 1 -1.552914,5.7955" sodipodi:start="3.9269908" sodipodi:end="0.78539819" sodipodi:open="true" />
    <circle r="8" cy="1038.3622" cx="14" id="path3858" style="fill:silver;fill-opacity:0.50196078;stroke:none" />
    <circle r="5" cy="1046.3622" cx="10" id="path3862" style="fill:silver;fill-opacity:0.50196078;stroke:none" />
    <circle r="2.5" cy="1028.8622" cx="7.5" id="path3866" style="fill:silver;fill-opacity:0.50196078;stroke:none" />
    <circle r="4" cy="1029.3622" cx="23" style="fill:silver;fill-opacity:0.50196078;stroke:none" id="path3868" />
    <path sodipodi:end="0.78539819" sodipodi:start="3.9269908" d="m 23.171573,1041.5338 a 4,4 0 0 1 3.863703,-1.0353 4,4 0 0 1 2.828427,2.8284 4,4 0 0 1 -1.035276,3.8637 L 26,1044.3622 Z" sodipodi:ry="4" sodipodi:rx="4" sodipodi:cy="1044.3622" sodipodi:cx="26" id="path3097" style="fill:black;fill-opacity:0.50196078;stroke:none" sodipodi:type="arc" />
    <path sodipodi:end="3.9269908" sodipodi:start="0.78539816" sodipodi:type="arc" style="fill:black;fill-opacity:0.50196078;stroke:none" id="path3099" sodipodi:cx="26" sodipodi:cy="1044.3622" sodipodi:rx="4" sodipodi:ry="4" d="m 28.828427,1047.1906 a 4,4 0 0 1 -5.656854,0 4,4 0 0 1 0,-5.6568 L 26,1044.3622 Z" />
    <circle r="2.5" cy="1044.8622" cx="25.5" style="fill:silver;fill-opacity:0.50196078;stroke:none" id="path3101" />
    <path sodipodi:end="0.78539819" sodipodi:start="3.9269908" d="m 3.7908008,1036.3889 a 2.2585649,2.2585649 0 0 1 2.1816062,-0.5845 2.2585649,2.2585649 0 0 1 1.5970466,1.597 2.2585649,2.2585649 0 0 1 -0.5845596,2.1816 l -1.5970466,-1.597 z" sodipodi:ry="2.2585649" sodipodi:rx="2.2585649" sodipodi:cy="1037.986" sodipodi:cx="5.3878474" id="path4196" style="fill:black;fill-opacity:0.50196078;stroke:none" sodipodi:type="arc" />
    <path sodipodi:end="3.9269908" sodipodi:start="0.78539816" sodipodi:type="arc" style="fill:black;fill-opacity:0.50196078;stroke:none" id="path4198" sodipodi:cx="5.3878474" sodipodi:cy="1037.986" sodipodi:rx="2.2585649" sodipodi:ry="2.2585649" d="m 6.984894,1039.583 a 2.2585649,2.2585649 0 0 1 -3.1940932,0 2.2585649,2.2585649 0 0 1 0,-3.1941 l 1.5970466,1.5971 z" />
    <circle style="fill:silver;fill-opacity:0.50196078;stroke:none" id="path4200" cx="5.1055269" cy="1038.2683" r="1.4116032" />
  </g>
  <g inkscape:groupmode="layer" id="layer7" inkscape:label="Holes" />
  <g inkscape:groupmode="layer" id="layer6" inkscape:label="Wall">
    <path style="fill:black;fill-opacity:1;stroke:none" d="m 0,28 0,1 32.046268,0 0,-1.02123 z" id="path3824-2" inkscape:connector-curvature="0" sodipodi:nodetypes="ccccc" />
    <path style="fill:black;fill-opacity:1;stroke:none" d="m 0,3 0,1 32.046268,0 0,-1.0212297 z" id="path3824" inkscape:connector-curvature="0" sodipodi:nodetypes="ccccc" />
  </g>
  <g inkscape:groupmode="layer" id="layer5" inkscape:label="right" style="display:inline" />
  <g inkscape:groupmode="layer" id="layer4" inkscape:label="left" />
  <g inkscape:groupmode="layer" id="layer3" inkscape:label="bottom" style="display:inline" />
  <g inkscape:groupmode="layer" id="layer2" inkscape:label="top" />
</svg>
