<?xml version="1.0" encoding="UTF-8" standalone="no"?>
<!-- Created with Inkscape (http://www.inkscape.org/) -->

<svg xmlns:dc="http://purl.org/dc/elements/1.1/" xmlns:cc="http://creativecommons.org/ns#" xmlns:rdf="http://www.w3.org/1999/02/22-rdf-syntax-ns#" xmlns:svg="http://www.w3.org/2000/svg" xmlns="http://www.w3.org/2000/svg" xmlns:sodipodi="http://sodipodi.sourceforge.net/DTD/sodipodi-0.dtd" xmlns:inkscape="http://www.inkscape.org/namespaces/inkscape" width="32" height="32" id="svg4150" version="1.1" inkscape:version="0.91 r13725" viewBox="0 0 32 32" sodipodi:docname="parts-01.svg">
  <defs id="defs4152" />
  <sodipodi:namedview id="base" pagecolor="#ffffff" bordercolor="#666666" borderopacity="1.0" inkscape:pageopacity="0.0" inkscape:pageshadow="2" inkscape:zoom="22.125" inkscape:cx="25.129944" inkscape:cy="16" inkscape:current-layer="layer1" showgrid="true" inkscape:grid-bbox="true" inkscape:document-units="px" objecttolerance="10000" inkscape:snap-perpendicular="true" guidetolerance="10000" inkscape:window-width="1600" inkscape:window-height="878" inkscape:window-x="0" inkscape:window-y="0" inkscape:window-maximized="1" showguides="true" inkscape:guide-bbox="true" inkscape:snap-path-clip="true" inkscape:snap-path-mask="true" inkscape:snap-tangential="true">
    <inkscape:grid type="xygrid" id="grid4698" empspacing="4" />
    <sodipodi:guide position="16,32" orientation="1,0" id="guide4769" />
    <sodipodi:guide position="-4,16" orientation="0,1" id="guide4771" />
    <sodipodi:guide position="16,16" orientation="-0.70710678,0.70710678" id="guide4773" />
    <sodipodi:guide position="16,16" orientation="0.70710678,0.70710678" id="guide4775" />
    <sodipodi:guide position="-8,31" orientation="1,0" id="guide6406" />
    <sodipodi:guide position="-8,24" orientation="0,1" id="guide6408" />
    <sodipodi:guide position="-14,16" orientation="0,1" id="guide6413" />
  </sodipodi:namedview>
  <metadata id="metadata4155">
    <rdf:RDF>
      <cc:Work rdf:about="">
        <dc:format>image/svg+xml</dc:format>
        <dc:type rdf:resource="http://purl.org/dc/dcmitype/StillImage" />
        <dc:title></dc:title>
      </cc:Work>
    </rdf:RDF>
  </metadata>
  <g id="layer1" inkscape:label="Layer 1" inkscape:groupmode="layer">
    <g id="g6907">
      <path sodipodi:nodetypes="cccccc" inkscape:connector-curvature="0" id="path6862" d="m 3.3828125,9 -1.5,3 1.5,3 L 5.5,15 10,9 Z" style="color:black;font-style:normal;font-variant:normal;font-weight:normal;font-stretch:normal;font-size:medium;line-height:normal;font-family:sans-serif;text-indent:0;text-align:start;text-decoration:none;text-decoration-line:none;text-decoration-style:solid;text-decoration-color:black;letter-spacing:normal;word-spacing:normal;text-transform:none;direction:ltr;block-progression:tb;writing-mode:lr-tb;baseline-shift:baseline;text-anchor:start;white-space:normal;clip-rule:nonzero;display:inline;overflow:visible;visibility:visible;opacity:1;isolation:auto;mix-blend-mode:normal;color-interpolation:sRGB;color-interpolation-filters:linearRGB;solid-color:black;solid-opacity:1;fill:black;fill-opacity:1;fill-rule:nonzero;stroke:none;stroke-width:2;stroke-linecap:round;stroke-linejoin:miter;stroke-miterlimit:4;stroke-dasharray:none;stroke-dashoffset:0;stroke-opacity:1;color-rendering:auto;image-rendering:auto;shape-rendering:auto;text-rendering:auto;enable-background:accumulate" />
      <path inkscape:connector-curvature="0" id="path5064" d="M 8,10 5,14 4,13 4,10 Z" style="opacity:1;fill:aqua;fill-opacity:1;fill-rule:nonzero;stroke:none;stroke-width:40;stroke-linecap:round;stroke-linejoin:miter;stroke-miterlimit:4;stroke-dasharray:none;stroke-dashoffset:0;stroke-opacity:1" />
      <path id="path55669-6" d="m 7.210937,10 -1,0 0,2.3848 1,-1.3321 0,-1.0527 z m -2,0 -1,0 0,3.2109 L 5,14 l 0.210937,-0.2812 0,-3.7188 z" style="fill:#c3c3c3;fill-opacity:1;fill-rule:nonzero;stroke:none" inkscape:connector-curvature="0" />
      <path inkscape:connector-curvature="0" id="path5105" d="m 4,10 -1,2 1,2 1,0 -1,-1 z" style="opacity:1;fill:#4d4d4d;fill-opacity:1;fill-rule:nonzero;stroke:none;stroke-width:40;stroke-linecap:round;stroke-linejoin:miter;stroke-miterlimit:4;stroke-dasharray:none;stroke-dashoffset:0;stroke-opacity:1" />
    </g>
    <g id="g6901">
      <path sodipodi:nodetypes="ccccc" inkscape:connector-curvature="0" id="path6873" d="M 5.8027344,0.78320312 2.7128906,3.8730469 6.1230469,8.9882812 9.3417969,2.5527344 Z" style="color:black;font-style:normal;font-variant:normal;font-weight:normal;font-stretch:normal;font-size:medium;line-height:normal;font-family:sans-serif;text-indent:0;text-align:start;text-decoration:none;text-decoration-line:none;text-decoration-style:solid;text-decoration-color:black;letter-spacing:normal;word-spacing:normal;text-transform:none;direction:ltr;block-progression:tb;writing-mode:lr-tb;baseline-shift:baseline;text-anchor:start;white-space:normal;clip-rule:nonzero;display:inline;overflow:visible;visibility:visible;opacity:1;isolation:auto;mix-blend-mode:normal;color-interpolation:sRGB;color-interpolation-filters:linearRGB;solid-color:black;solid-opacity:1;fill:black;fill-opacity:1;fill-rule:nonzero;stroke:none;stroke-width:2;stroke-linecap:round;stroke-linejoin:miter;stroke-miterlimit:4;stroke-dasharray:none;stroke-dashoffset:0;stroke-opacity:1;color-rendering:auto;image-rendering:auto;shape-rendering:auto;text-rendering:auto;enable-background:accumulate" />
      <path inkscape:connector-curvature="0" id="path5107" d="M 6,2 C 6,2 6,7 6,7 L 8,3 Z" style="opacity:1;fill:#ccc;fill-opacity:1;fill-rule:nonzero;stroke:none;stroke-width:40;stroke-linecap:round;stroke-linejoin:miter;stroke-miterlimit:4;stroke-dasharray:none;stroke-dashoffset:0;stroke-opacity:1" />
      <path inkscape:connector-curvature="0" id="path5109" d="M 6,2 4,4 6,7 Z" style="opacity:1;fill:blue;fill-opacity:1;fill-rule:nonzero;stroke:none;stroke-width:40;stroke-linecap:round;stroke-linejoin:miter;stroke-miterlimit:4;stroke-dasharray:none;stroke-dashoffset:0;stroke-opacity:1" />
      <path inkscape:connector-curvature="0" id="path5135" d="m 5.5,2.5 -1,1 0,1.25 1,1.5 0,-3.75 z" style="fill:#6b6b6b;fill-opacity:1;fill-rule:nonzero;stroke:none" />
    </g>
    <g id="g6895">
      <path sodipodi:nodetypes="ccccc" inkscape:connector-curvature="0" id="path6884" d="m 13.876953,0.01171875 -3.21875,6.43554685 3.539063,1.7695313 3.089843,-3.0898438 z" style="color:black;font-style:normal;font-variant:normal;font-weight:normal;font-stretch:normal;font-size:medium;line-height:normal;font-family:sans-serif;text-indent:0;text-align:start;text-decoration:none;text-decoration-line:none;text-decoration-style:solid;text-decoration-color:black;letter-spacing:normal;word-spacing:normal;text-transform:none;direction:ltr;block-progression:tb;writing-mode:lr-tb;baseline-shift:baseline;text-anchor:start;white-space:normal;clip-rule:nonzero;display:inline;overflow:visible;visibility:visible;opacity:1;isolation:auto;mix-blend-mode:normal;color-interpolation:sRGB;color-interpolation-filters:linearRGB;solid-color:black;solid-opacity:1;fill:black;fill-opacity:1;fill-rule:nonzero;stroke:none;stroke-width:2;stroke-linecap:round;stroke-linejoin:miter;stroke-miterlimit:4;stroke-dasharray:none;stroke-dashoffset:0;stroke-opacity:1;color-rendering:auto;image-rendering:auto;shape-rendering:auto;text-rendering:auto;enable-background:accumulate" />
      <path style="opacity:1;fill:#4d4d4d;fill-opacity:1;fill-rule:nonzero;stroke:none;stroke-width:40;stroke-linecap:round;stroke-linejoin:miter;stroke-miterlimit:4;stroke-dasharray:none;stroke-dashoffset:0;stroke-opacity:1" d="m 14,7 c 0,0 0,-5 0,-5 l -2,4 z" id="path5165" inkscape:connector-curvature="0" />
      <path style="opacity:1;fill:blue;fill-opacity:1;fill-rule:nonzero;stroke:none;stroke-width:40;stroke-linecap:round;stroke-linejoin:miter;stroke-miterlimit:4;stroke-dasharray:none;stroke-dashoffset:0;stroke-opacity:1" d="M 14,7 16,5 14,2 Z" id="path5167" inkscape:connector-curvature="0" />
      <path style="fill:#6b6b6b;fill-opacity:1;fill-rule:nonzero;stroke:none" d="m 14.5,6.5 1,-1 0,-1.25 -1,-1.5 0,3.75 z" id="path5169" inkscape:connector-curvature="0" />
    </g>
    <path style="opacity:1;fill:#c3c3c3;fill-opacity:1;fill-rule:nonzero;stroke:none;stroke-width:40;stroke-linecap:round;stroke-linejoin:miter;stroke-miterlimit:4;stroke-dasharray:none;stroke-dashoffset:0;stroke-opacity:1" d="m -16,4 0,1 16,0 0,-1 -16,0 z m 0,2 0,1 16,0 0,-1 -16,0 z m 0,2 0,1 16,0 0,-1 -16,0 z m 0,2 0,1 16,0 0,-1 -16,0 z" id="rect6361" inkscape:connector-curvature="0" inkscape:transform-center-y="-0.5" />
    <path inkscape:connector-curvature="0" id="path6370" d="m -16,12 0,1 16,0 0,-1 -16,0 z m 0,2 0,1 16,0 0,-1 -16,0 z m 0,2 0,1 16,0 0,-1 -16,0 z m 0,2 0,1 16,0 0,-1 -16,0 z" style="opacity:1;fill:#6b6b6b;fill-opacity:1;fill-rule:nonzero;stroke:none;stroke-width:40;stroke-linecap:round;stroke-linejoin:miter;stroke-miterlimit:4;stroke-dasharray:none;stroke-dashoffset:0;stroke-opacity:1" />
    <g id="g6829">
      <path sodipodi:nodetypes="ccccccc" inkscape:connector-curvature="0" id="path6820" d="m 7.5859375,23 -2.8027344,2.802734 1.5078125,3.015625 3.7539064,1.25 8.324219,-3.566406 L 16.617188,23 Z" style="color:black;font-style:normal;font-variant:normal;font-weight:normal;font-stretch:normal;font-size:medium;line-height:normal;font-family:sans-serif;text-indent:0;text-align:start;text-decoration:none;text-decoration-line:none;text-decoration-style:solid;text-decoration-color:black;letter-spacing:normal;word-spacing:normal;text-transform:none;direction:ltr;block-progression:tb;writing-mode:lr-tb;baseline-shift:baseline;text-anchor:start;white-space:normal;clip-rule:nonzero;display:inline;overflow:visible;visibility:visible;opacity:1;isolation:auto;mix-blend-mode:normal;color-interpolation:sRGB;color-interpolation-filters:linearRGB;solid-color:black;solid-opacity:1;fill:black;fill-opacity:1;fill-rule:nonzero;stroke:none;stroke-width:2;stroke-linecap:butt;stroke-linejoin:miter;stroke-miterlimit:4;stroke-dasharray:none;stroke-dashoffset:0;stroke-opacity:1;color-rendering:auto;image-rendering:auto;shape-rendering:auto;text-rendering:auto;enable-background:accumulate" />
      <path inkscape:connector-curvature="0" id="path6359" d="m 8,24 8,0 1,2 -7,2 -4,-2 z" style="opacity:1;fill:aqua;fill-opacity:1;fill-rule:nonzero;stroke:none;stroke-width:40;stroke-linecap:round;stroke-linejoin:miter;stroke-miterlimit:4;stroke-dasharray:none;stroke-dashoffset:0;stroke-opacity:1" />
      <path inkscape:connector-curvature="0" id="path6372" d="M 8,24 7.6894531,24.310547 11.072266,27.693359 12.171875,27.378906 8.7929688,24 8,24 Z m 2.207031,0 3.064453,3.064453 1.09961,-0.314453 -2.75,-2.75 -1.414063,0 z m 2.828125,0 2.4375,2.4375 1.09961,-0.314453 L 14.449219,24 13.035156,24 Z m -6.0527341,1.017578 -0.7070313,0.707031 0.8261719,0.826172 2.828125,1.414063 -2.9472656,-2.947266 z" style="opacity:1;fill:#c3c3c3;fill-opacity:1;fill-rule:nonzero;stroke:none;stroke-width:40;stroke-linecap:round;stroke-linejoin:miter;stroke-miterlimit:4;stroke-dasharray:none;stroke-dashoffset:0;stroke-opacity:1" />
      <path inkscape:connector-curvature="0" id="path6377" d="m 6,26 1,2 3,1 7,-3 -7,2 -4,-2 z" style="opacity:1;fill:#4d4d4d;fill-opacity:1;fill-rule:nonzero;stroke:none;stroke-width:40;stroke-linecap:round;stroke-linejoin:miter;stroke-miterlimit:4;stroke-dasharray:none;stroke-dashoffset:0;stroke-opacity:1" />
    </g>
    <path style="opacity:1;fill:#6b6b6b;fill-opacity:1;fill-rule:nonzero;stroke:none;stroke-width:40;stroke-linecap:round;stroke-linejoin:miter;stroke-miterlimit:4;stroke-dasharray:none;stroke-dashoffset:0;stroke-opacity:1" d="m 1e-7,20 -1,0 0,16 1,0 0,-16 z m -2,0 -1,0 0,16 1,0 0,-16 z m -2,0 -1,0 0,16 1,0 0,-16 z M -6,20 l -1,0 0,16 1,0 0,-16 z" id="path6415" inkscape:connector-curvature="0" inkscape:transform-center-x="-0.49885232" inkscape:transform-center-y="-0.00055155" />
    <path inkscape:connector-curvature="0" id="path6417" d="m -8,20 -1,0 0,16 1,0 0,-16 z m -2,0 -1,0 0,16 1,0 0,-16 z m -2,0 -1,0 0,16 1,0 0,-16 z m -2,0 -1,0 0,16 1,0 0,-16 z" style="opacity:1;fill:#c3c3c3;fill-opacity:1;fill-rule:nonzero;stroke:none;stroke-width:40;stroke-linecap:round;stroke-linejoin:miter;stroke-miterlimit:4;stroke-dasharray:none;stroke-dashoffset:0;stroke-opacity:1" inkscape:transform-center-x="-0.5" />
    <g id="g6852">
      <path sodipodi:nodetypes="ccccccc" inkscape:connector-curvature="0" id="path6835" d="M 25.837891,3 21.699219,4.3808592 25.453125,14.390625 28.707031,12.763672 32.183594,6.9726562 29.535156,3 Z" style="color:black;font-style:normal;font-variant:normal;font-weight:normal;font-stretch:normal;font-size:medium;line-height:normal;font-family:sans-serif;text-indent:0;text-align:start;text-decoration:none;text-decoration-line:none;text-decoration-style:solid;text-decoration-color:black;letter-spacing:normal;word-spacing:normal;text-transform:none;direction:ltr;block-progression:tb;writing-mode:lr-tb;baseline-shift:baseline;text-anchor:start;white-space:normal;clip-rule:nonzero;display:inline;overflow:visible;visibility:visible;opacity:1;isolation:auto;mix-blend-mode:normal;color-interpolation:sRGB;color-interpolation-filters:linearRGB;solid-color:black;solid-opacity:1;fill:black;fill-opacity:1;fill-rule:nonzero;stroke:none;stroke-width:2;stroke-linecap:round;stroke-linejoin:miter;stroke-miterlimit:4;stroke-dasharray:none;stroke-dashoffset:0;stroke-opacity:1;color-rendering:auto;image-rendering:auto;shape-rendering:auto;text-rendering:auto;enable-background:accumulate" />
      <path inkscape:connector-curvature="0" id="path6379" d="m 26,4 0,8 2,0 0,-8 -2,0 z" style="opacity:1;fill:#0080ff;fill-opacity:1;fill-rule:nonzero;stroke:none;stroke-width:40;stroke-linecap:round;stroke-linejoin:miter;stroke-miterlimit:4;stroke-dasharray:none;stroke-dashoffset:0;stroke-opacity:1" />
      <path inkscape:connector-curvature="0" id="path6400" d="m 23,5 3,-1 0,8 -3,-7 z" style="opacity:1;fill:blue;fill-opacity:1;fill-rule:nonzero;stroke:none;stroke-width:40;stroke-linecap:round;stroke-linejoin:miter;stroke-miterlimit:4;stroke-dasharray:none;stroke-dashoffset:0;stroke-opacity:1" />
      <path inkscape:connector-curvature="0" id="path6402" d="m 28,4 1,0 1,3 -2,5 z" style="opacity:1;fill:aqua;fill-opacity:1;fill-rule:nonzero;stroke:none;stroke-width:40;stroke-linecap:round;stroke-linejoin:miter;stroke-miterlimit:4;stroke-dasharray:none;stroke-dashoffset:0;stroke-opacity:1" />
      <path inkscape:connector-curvature="0" id="path6404" d="m 25,4.333984 -1,0.332032 0,2.667968 1,2.332032 0,-5.332032 z" style="opacity:1;fill:#c3c3c3;fill-opacity:1;fill-rule:nonzero;stroke:none;stroke-width:40;stroke-linecap:round;stroke-linejoin:miter;stroke-miterlimit:4;stroke-dasharray:none;stroke-dashoffset:0;stroke-opacity:1" />
      <path inkscape:connector-curvature="0" id="path6419" d="M 29,4 29,9.5 30,7 29,4 Z" style="opacity:1;fill:#6b6b6b;fill-opacity:1;fill-rule:nonzero;stroke:none;stroke-width:40;stroke-linecap:round;stroke-linejoin:miter;stroke-miterlimit:4;stroke-dasharray:none;stroke-dashoffset:0;stroke-opacity:1" />
      <path inkscape:connector-curvature="0" id="path6424" d="m 23,5 3,8 2,-1 -2,0 z" style="opacity:1;fill:#4d4d4d;fill-opacity:1;fill-rule:nonzero;stroke:none;stroke-width:40;stroke-linecap:round;stroke-linejoin:miter;stroke-miterlimit:4;stroke-dasharray:none;stroke-dashoffset:0;stroke-opacity:1" />
      <path inkscape:connector-curvature="0" id="path6426" d="m 29,4 2,3 -3,5 2,-5 z" style="opacity:1;fill:#e6e6e6;fill-opacity:1;fill-rule:nonzero;stroke:none;stroke-width:40;stroke-linecap:round;stroke-linejoin:miter;stroke-miterlimit:4;stroke-dasharray:none;stroke-dashoffset:0;stroke-opacity:1" />
    </g>
    <g id="g6810" transform="translate(4,4)">
      <path sodipodi:nodetypes="cccccccccc" inkscape:connector-curvature="0" id="path6793" d="m 26,14.71875 -1.242188,0.310547 -9.376953,2.34375 2.332032,3.5 -1,1 2.845703,4.267578 L 25,24.78125 l 0,-2.566406 1,-1.976563 z" style="color:black;font-style:normal;font-variant:normal;font-weight:normal;font-stretch:normal;font-size:medium;line-height:normal;font-family:sans-serif;text-indent:0;text-align:start;text-decoration:none;text-decoration-line:none;text-decoration-style:solid;text-decoration-color:black;letter-spacing:normal;word-spacing:normal;text-transform:none;direction:ltr;block-progression:tb;writing-mode:lr-tb;baseline-shift:baseline;text-anchor:start;white-space:normal;clip-rule:nonzero;display:inline;overflow:visible;visibility:visible;opacity:1;isolation:auto;mix-blend-mode:normal;color-interpolation:sRGB;color-interpolation-filters:linearRGB;solid-color:black;solid-opacity:1;fill:black;fill-opacity:1;fill-rule:nonzero;stroke:none;stroke-width:2;stroke-linecap:round;stroke-linejoin:miter;stroke-miterlimit:4;stroke-dasharray:none;stroke-dashoffset:0;stroke-opacity:1;color-rendering:auto;image-rendering:auto;shape-rendering:auto;text-rendering:auto;enable-background:accumulate" />
      <path sodipodi:nodetypes="ccccc" inkscape:connector-curvature="0" id="rect6772" d="m 20,20 5,0 -1.010687,1.996187 L 20,22 Z" style="opacity:1;fill:#0080ff;fill-opacity:1;fill-rule:nonzero;stroke:none;stroke-width:40;stroke-linecap:round;stroke-linejoin:miter;stroke-miterlimit:4;stroke-dasharray:none;stroke-dashoffset:0;stroke-opacity:1" />
      <path inkscape:connector-curvature="0" id="path6775" d="m 24,22 0,2 -4,1 0,-3 z" style="opacity:1;fill:blue;fill-opacity:1;fill-rule:nonzero;stroke:none;stroke-width:40;stroke-linecap:round;stroke-linejoin:miter;stroke-miterlimit:4;stroke-dasharray:none;stroke-dashoffset:0;stroke-opacity:1" />
      <path inkscape:connector-curvature="0" id="path6777" d="m 20,20 -1,-2 6,-2 0,4 z" style="opacity:1;fill:aqua;fill-opacity:1;fill-rule:nonzero;stroke:none;stroke-width:40;stroke-linecap:round;stroke-linejoin:miter;stroke-miterlimit:4;stroke-dasharray:none;stroke-dashoffset:0;stroke-opacity:1" />
      <path inkscape:connector-curvature="0" id="path6779" d="m 20,25 -2,-3 1,-1 -2,-3 2,0 1,2 z" style="opacity:1;fill:#4d4d4d;fill-opacity:1;fill-rule:nonzero;stroke:none;stroke-width:40;stroke-linecap:round;stroke-linejoin:miter;stroke-miterlimit:4;stroke-dasharray:none;stroke-dashoffset:0;stroke-opacity:1" />
      <path inkscape:connector-curvature="0" id="path6781" d="m 17,18 8,-2 -6,2 z" style="opacity:1;fill:#e6e6e6;fill-opacity:1;fill-rule:nonzero;stroke:none;stroke-width:40;stroke-linecap:round;stroke-linejoin:miter;stroke-miterlimit:4;stroke-dasharray:none;stroke-dashoffset:0;stroke-opacity:1" />
      <path id="path6783" d="m 20,23 0,1 4,0 0,-1 -4,0 z" style="opacity:1;fill:#6b6b6b;fill-opacity:1;fill-rule:nonzero;stroke:none;stroke-width:40;stroke-linecap:round;stroke-linejoin:miter;stroke-miterlimit:4;stroke-dasharray:none;stroke-dashoffset:0;stroke-opacity:1" inkscape:connector-curvature="0" />
      <path id="path6785" d="m 25,16 -3,1 3,0 0,-1 z m -6,2 0.5,1 5.5,0 0,-1 -6,0 z" style="opacity:1;fill:#c3c3c3;fill-opacity:1;fill-rule:nonzero;stroke:none;stroke-width:40;stroke-linecap:round;stroke-linejoin:miter;stroke-miterlimit:4;stroke-dasharray:none;stroke-dashoffset:0;stroke-opacity:1" inkscape:connector-curvature="0" />
    </g>
    <g id="g6913" transform="matrix(-0.70710678,0.70710678,-0.70710678,-0.70710678,28.627896,18.284073)">
      <path style="color:black;font-style:normal;font-variant:normal;font-weight:normal;font-stretch:normal;font-size:medium;line-height:normal;font-family:sans-serif;text-indent:0;text-align:start;text-decoration:none;text-decoration-line:none;text-decoration-style:solid;text-decoration-color:black;letter-spacing:normal;word-spacing:normal;text-transform:none;direction:ltr;block-progression:tb;writing-mode:lr-tb;baseline-shift:baseline;text-anchor:start;white-space:normal;clip-rule:nonzero;display:inline;overflow:visible;visibility:visible;opacity:1;isolation:auto;mix-blend-mode:normal;color-interpolation:sRGB;color-interpolation-filters:linearRGB;solid-color:black;solid-opacity:1;fill:black;fill-opacity:1;fill-rule:nonzero;stroke:none;stroke-width:2;stroke-linecap:round;stroke-linejoin:miter;stroke-miterlimit:4;stroke-dasharray:none;stroke-dashoffset:0;stroke-opacity:1;color-rendering:auto;image-rendering:auto;shape-rendering:auto;text-rendering:auto;enable-background:accumulate" d="m 3.3828125,9 -1.5,3 1.5,3 L 5.5,15 10,9 Z" id="path6915" inkscape:connector-curvature="0" sodipodi:nodetypes="cccccc" />
      <path style="opacity:1;fill:aqua;fill-opacity:1;fill-rule:nonzero;stroke:none;stroke-width:40;stroke-linecap:round;stroke-linejoin:miter;stroke-miterlimit:4;stroke-dasharray:none;stroke-dashoffset:0;stroke-opacity:1" d="M 8,10 5,14 4,13 4,10 Z" id="path6917" inkscape:connector-curvature="0" />
      <path inkscape:connector-curvature="0" style="fill:#c3c3c3;fill-opacity:1;fill-rule:nonzero;stroke:none" d="m 7.210937,10 -1,0 0,2.3848 1,-1.3321 0,-1.0527 z m -2,0 -1,0 0,3.2109 L 5,14 l 0.210937,-0.2812 0,-3.7188 z" id="path6919" />
      <path style="opacity:1;fill:#e6e6e6;fill-opacity:1;fill-rule:nonzero;stroke:none;stroke-width:40;stroke-linecap:round;stroke-linejoin:miter;stroke-miterlimit:4;stroke-dasharray:none;stroke-dashoffset:0;stroke-opacity:1" d="m 4,10 -1,2 1,2 1,0 -1,-1 z" id="path6921" inkscape:connector-curvature="0" />
    </g>
    <g id="g6923" transform="matrix(-0.5,0.8660254,-0.8660254,-0.5,20.522036,8.0707117)">
      <path style="color:black;font-style:normal;font-variant:normal;font-weight:normal;font-stretch:normal;font-size:medium;line-height:normal;font-family:sans-serif;text-indent:0;text-align:start;text-decoration:none;text-decoration-line:none;text-decoration-style:solid;text-decoration-color:black;letter-spacing:normal;word-spacing:normal;text-transform:none;direction:ltr;block-progression:tb;writing-mode:lr-tb;baseline-shift:baseline;text-anchor:start;white-space:normal;clip-rule:nonzero;display:inline;overflow:visible;visibility:visible;opacity:1;isolation:auto;mix-blend-mode:normal;color-interpolation:sRGB;color-interpolation-filters:linearRGB;solid-color:black;solid-opacity:1;fill:black;fill-opacity:1;fill-rule:nonzero;stroke:none;stroke-width:2;stroke-linecap:round;stroke-linejoin:miter;stroke-miterlimit:4;stroke-dasharray:none;stroke-dashoffset:0;stroke-opacity:1;color-rendering:auto;image-rendering:auto;shape-rendering:auto;text-rendering:auto;enable-background:accumulate" d="m 13.876953,0.01171875 -3.21875,6.43554685 3.539063,1.7695313 3.089843,-3.0898438 z" id="path6925" inkscape:connector-curvature="0" sodipodi:nodetypes="ccccc" />
      <path inkscape:connector-curvature="0" id="path6927" d="m 14,7 c 0,0 0,-5 0,-5 l -2,4 z" style="opacity:1;fill:#e6e6e6;fill-opacity:1;fill-rule:nonzero;stroke:none;stroke-width:40;stroke-linecap:round;stroke-linejoin:miter;stroke-miterlimit:4;stroke-dasharray:none;stroke-dashoffset:0;stroke-opacity:1" />
      <path inkscape:connector-curvature="0" id="path6929" d="M 14,7 16,5 14,2 Z" style="opacity:1;fill:aqua;fill-opacity:1;fill-rule:nonzero;stroke:none;stroke-width:40;stroke-linecap:round;stroke-linejoin:miter;stroke-miterlimit:4;stroke-dasharray:none;stroke-dashoffset:0;stroke-opacity:1" />
      <path inkscape:connector-curvature="0" id="path6931" d="m 14.5,6.5 1,-1 0,-1.25 -1,-1.5 0,3.75 z" style="fill:#c3c3c3;fill-opacity:1;fill-rule:nonzero;stroke:none" />
    </g>
    <g id="g9950" transform="matrix(0,1,-1,0,76,0)">
      <circle r="0.5" cy="11.5" cx="14.5" style="fill:gray;fill-opacity:1;fill-rule:nonzero;stroke:none" id="path3265" />
      <circle r="0.5" cy="9.5" cx="11.5" style="fill:#e6e6e6;fill-opacity:1;fill-rule:nonzero;stroke:none" id="path3267" />
      <circle r="0.5" cy="4.5" cx="8.5" style="fill:aqua;fill-opacity:1;fill-rule:nonzero;stroke:none" id="path3269" />
      <circle r="0.5" cy="16.5" cx="3.5" style="fill:gray;fill-opacity:1;fill-rule:nonzero;stroke:none" id="path3271" />
      <circle r="0.5" cy="17.5" cx="16.5" style="fill:#333;fill-opacity:1;fill-rule:nonzero;stroke:none" id="path3273" />
      <circle r="0.5" cy="26.5" cx="6.5" style="fill:aqua;fill-opacity:1;fill-rule:nonzero;stroke:none" id="path3275" />
      <circle r="0.5" cy="27.5" cx="28.5" style="fill:#333;fill-opacity:1;fill-rule:nonzero;stroke:none" id="path3277" />
      <circle r="0.5" cy="12.5" cx="21.5" style="fill:#e6e6e6;fill-opacity:1;fill-rule:nonzero;stroke:none" id="path3305" />
      <circle r="0.5" cy="29.5" cx="18.5" id="path3315" style="fill:#333;fill-opacity:1;fill-rule:nonzero;stroke:none" />
      <circle r="0.5" cy="27.5" cx="18.5" style="fill:#333;fill-opacity:1;fill-rule:nonzero;stroke:none" id="path3317" />
      <circle r="0.5" cy="10.5" cx="26.5" style="fill:#333;fill-opacity:1;fill-rule:nonzero;stroke:none" id="path3321" />
      <circle r="0.5" cy="28.595652" cx="20.5" style="fill:blue;fill-opacity:1;fill-rule:nonzero;stroke:none" id="path3323" />
      <circle r="0.5" cy="23.5" cx="9.5" style="fill:#333;fill-opacity:1;fill-rule:nonzero;stroke:none" id="path3327" />
      <circle r="0.5" cy="24.647825" cx="4.5" id="path3329" style="fill:aqua;fill-opacity:1;fill-rule:nonzero;stroke:none" />
      <circle r="0.5" cy="21.5" cx="4.5" style="fill:blue;fill-opacity:1;fill-rule:nonzero;stroke:none" id="path3331" />
      <circle r="0.5" cy="22.5" cx="1.421739" id="path3333" style="fill:#333;fill-opacity:1;fill-rule:nonzero;stroke:none" />
      <circle r="0.5" cy="0.5" cx="0.5" style="fill:#333;fill-opacity:1;fill-rule:nonzero;stroke:none" id="path3339" />
      <circle r="0.5" cy="17.5" cx="12.5" id="path3341" style="fill:#333;fill-opacity:1;fill-rule:nonzero;stroke:none" />
      <circle r="0.5" cy="4.5" cx="24.5" style="fill:gray;fill-opacity:1;fill-rule:nonzero;stroke:none" id="path3345" />
      <circle r="0.5" cy="1.5" cx="29.404348" id="path3347" style="fill:gray;fill-opacity:1;fill-rule:nonzero;stroke:none" />
      <circle r="0.5" cy="13.5" cx="18.5" id="path3351" style="fill:aqua;fill-opacity:1;fill-rule:nonzero;stroke:none" />
      <circle r="0.5" cy="12.5" cx="9.5" style="fill:gray;fill-opacity:1;fill-rule:nonzero;stroke:none" id="path3353" />
      <circle r="0.5" cy="9.5" cx="6.5" id="path3355" style="fill:gray;fill-opacity:1;fill-rule:nonzero;stroke:none" />
      <circle r="0.5" cy="22.5" cx="31.5" id="path3359" style="fill:blue;fill-opacity:1;fill-rule:nonzero;stroke:none" />
      <circle r="0.5" cy="21.595652" cx="14.5" style="fill:gray;fill-opacity:1;fill-rule:nonzero;stroke:none" id="path3361" />
      <circle r="0.5" cy="4.5" cx="31.334784" style="fill:#333;fill-opacity:1;fill-rule:nonzero;stroke:none" id="path3363" />
      <circle r="0.5" cy="1.595652" cx="16.5" id="path3365" style="fill:#333;fill-opacity:1;fill-rule:nonzero;stroke:none" />
      <circle r="0.5" cy="30.5" cx="3.5347829" style="fill:#333;fill-opacity:1;fill-rule:nonzero;stroke:none" id="path3371" />
      <circle r="0.5" cy="16.5" cx="19.5" style="fill:aqua;fill-opacity:1;fill-rule:nonzero;stroke:none" id="path3373" />
      <circle r="0.5" cy="17.5" cx="28.5" id="path3375" style="fill:gray;fill-opacity:1;fill-rule:nonzero;stroke:none" />
      <circle r="0.5" cy="18.5" cx="19.5" style="fill:gray;fill-opacity:1;fill-rule:nonzero;stroke:none" id="path3377" />
      <circle r="0.5" cy="6.5" cx="29.5" id="path3381" style="fill:blue;fill-opacity:1;fill-rule:nonzero;stroke:none" />
      <circle r="0.5" cy="12.5" cx="30.5" style="fill:#e6e6e6;fill-opacity:1;fill-rule:nonzero;stroke:none" id="path3383" />
      <circle r="0.5" cy="7.4391303" cx="-27.560869" transform="matrix(0,-1,1,0,0,0)" id="path17101" style="fill:aqua;fill-opacity:1;fill-rule:nonzero;stroke:none" />
      <circle r="0.5" cy="11.439131" cx="-17.560869" id="path17103" style="fill:gray;fill-opacity:1;fill-rule:nonzero;stroke:none" transform="matrix(0,-1,1,0,0,0)" />
      <circle r="0.5" cy="16.439131" cx="-28.560869" id="path17109" style="fill:gray;fill-opacity:1;fill-rule:nonzero;stroke:none" transform="matrix(0,-1,1,0,0,0)" />
      <circle r="0.5" cy="17.439131" cx="-15.560869" id="path17111" style="fill:#333;fill-opacity:1;fill-rule:nonzero;stroke:none" transform="matrix(0,-1,1,0,0,0)" />
      <circle r="0.5" cy="26.439131" cx="-25.560869" id="path17113" style="fill:gray;fill-opacity:1;fill-rule:nonzero;stroke:none" transform="matrix(0,-1,1,0,0,0)" />
      <circle r="0.5" cy="27.439131" cx="-3.560869" id="path17115" style="fill:blue;fill-opacity:1;fill-rule:nonzero;stroke:none" transform="matrix(0,-1,1,0,0,0)" />
      <circle r="0.5" cy="29.439131" cx="-13.560869" transform="matrix(0,-1,1,0,0,0)" style="fill:#333;fill-opacity:1;fill-rule:nonzero;stroke:none" id="path17125" />
      <circle r="0.5" cy="27.439131" cx="-13.560869" id="path17127" style="fill:#333;fill-opacity:1;fill-rule:nonzero;stroke:none" transform="matrix(0,-1,1,0,0,0)" />
      <circle r="0.5" cy="10.439131" cx="-5.5608692" id="path17129" style="fill:#333;fill-opacity:1;fill-rule:nonzero;stroke:none" transform="matrix(0,-1,1,0,0,0)" />
      <circle r="0.5" cy="28.534782" cx="-11.560869" id="path17131" style="fill:#333;fill-opacity:1;fill-rule:nonzero;stroke:none" transform="matrix(0,-1,1,0,0,0)" />
      <circle r="0.5" cy="31.5" cx="-17.5" transform="matrix(0,-1,1,0,0,0)" style="fill:#333;fill-opacity:1;fill-rule:nonzero;stroke:none" id="path17133" />
      <circle r="0.5" cy="24.586956" cx="-27.560869" transform="matrix(0,-1,1,0,0,0)" style="fill:#333;fill-opacity:1;fill-rule:nonzero;stroke:none" id="path17137" />
      <circle r="0.5" cy="21.439131" cx="-27.560869" id="path17139" style="fill:#333;fill-opacity:1;fill-rule:nonzero;stroke:none" transform="matrix(0,-1,1,0,0,0)" />
      <circle r="0.5" cy="22.439131" cx="-30.63913" transform="matrix(0,-1,1,0,0,0)" style="fill:blue;fill-opacity:1;fill-rule:nonzero;stroke:none" id="path17141" />
      <circle r="0.5" cy="0.5" cx="-31.5" id="path17147" style="fill:#333;fill-opacity:1;fill-rule:nonzero;stroke:none" transform="matrix(0,-1,1,0,0,0)" />
      <circle r="0.5" cy="4.4391303" cx="-7.5608692" id="path17153" style="fill:gray;fill-opacity:1;fill-rule:nonzero;stroke:none" transform="matrix(0,-1,1,0,0,0)" />
      <circle r="0.5" cy="1.4391299" cx="-2.6565211" transform="matrix(0,-1,1,0,0,0)" style="fill:gray;fill-opacity:1;fill-rule:nonzero;stroke:none" id="path17155" />
      <circle r="0.5" cy="13.439131" cx="-13.560869" transform="matrix(0,-1,1,0,0,0)" style="fill:gray;fill-opacity:1;fill-rule:nonzero;stroke:none" id="path17157" />
      <circle r="0.5" cy="12.439131" cx="-22.560869" id="path17159" style="fill:gray;fill-opacity:1;fill-rule:nonzero;stroke:none" transform="matrix(0,-1,1,0,0,0)" />
      <circle r="0.5" cy="22.439131" cx="-10.560869" id="path17163" style="fill:blue;fill-opacity:1;fill-rule:nonzero;stroke:none" transform="matrix(0,-1,1,0,0,0)" />
      <circle r="0.5" cy="22.439131" cx="-0.56086898" transform="matrix(0,-1,1,0,0,0)" style="fill:gray;fill-opacity:1;fill-rule:nonzero;stroke:none" id="path17165" />
      <circle r="0.5" cy="21.534782" cx="-17.560869" id="path17167" style="fill:gray;fill-opacity:1;fill-rule:nonzero;stroke:none" transform="matrix(0,-1,1,0,0,0)" />
      <circle r="0.5" cy="4.4391298" cx="-0.72608602" id="path17169" style="fill:aqua;fill-opacity:1;fill-rule:nonzero;stroke:none" transform="matrix(0,-1,1,0,0,0)" />
      <circle r="0.5" cy="20.439131" cx="-14.560869" id="path17173" style="fill:#333;fill-opacity:1;fill-rule:nonzero;stroke:none" transform="matrix(0,-1,1,0,0,0)" />
      <circle r="0.5" cy="28.439131" cx="-18.526087" transform="matrix(0,-1,1,0,0,0)" style="fill:#333;fill-opacity:1;fill-rule:nonzero;stroke:none" id="path17175" />
      <circle r="0.5" cy="30.439131" cx="-28.526087" id="path17177" style="fill:#333;fill-opacity:1;fill-rule:nonzero;stroke:none" transform="matrix(0,-1,1,0,0,0)" />
      <circle r="0.5" cy="16.439131" cx="-12.560869" id="path17179" style="fill:gray;fill-opacity:1;fill-rule:nonzero;stroke:none" transform="matrix(0,-1,1,0,0,0)" />
      <circle r="0.5" cy="18.439131" cx="-12.560869" id="path17183" style="fill:gray;fill-opacity:1;fill-rule:nonzero;stroke:none" transform="matrix(0,-1,1,0,0,0)" />
      <circle r="0.5" cy="5.4391303" cx="-11.560869" transform="matrix(0,-1,1,0,0,0)" id="path17185" style="fill:aqua;fill-opacity:1;fill-rule:nonzero;stroke:none" />
      <circle r="0.5" cy="12.439131" cx="-1.560869" transform="matrix(0,-1,1,0,0,0)" id="path17189" style="fill:#e6e6e6;fill-opacity:1;fill-rule:nonzero;stroke:none" />
      <circle r="0.5" cy="17.439131" cx="-9.5608692" transform="matrix(0,-1,1,0,0,0)" id="path17193" style="fill:#e6e6e6;fill-opacity:1;fill-rule:nonzero;stroke:none" />
      <path style="opacity:1;fill:black;fill-opacity:0.5;fill-rule:nonzero;stroke:none;stroke-width:1;stroke-linecap:butt;stroke-linejoin:miter;stroke-miterlimit:4;stroke-dasharray:none;stroke-dashoffset:0;stroke-opacity:0.62745098" d="m 11,12 0,2 2,1 0,-1 -1,-1 0,-1 z" id="path6549" inkscape:connector-curvature="0" />
      <path style="opacity:1;fill:blue;fill-opacity:1;fill-rule:nonzero;stroke:none;stroke-width:1;stroke-linecap:butt;stroke-linejoin:miter;stroke-miterlimit:4;stroke-dasharray:none;stroke-dashoffset:0;stroke-opacity:0.62745098" d="m 19,20 2,-1 1,1 z" id="path6551" inkscape:connector-curvature="0" />
      <path style="opacity:1;fill:black;fill-opacity:0.5;fill-rule:nonzero;stroke:none;stroke-width:1;stroke-linecap:butt;stroke-linejoin:miter;stroke-miterlimit:4;stroke-dasharray:none;stroke-dashoffset:0;stroke-opacity:0.62745098" d="m 14,15 0,2 2,1 z" id="path6553" inkscape:connector-curvature="0" />
      <path style="opacity:1;fill:aqua;fill-opacity:1;fill-rule:nonzero;stroke:none;stroke-width:1;stroke-linecap:butt;stroke-linejoin:miter;stroke-miterlimit:4;stroke-dasharray:none;stroke-dashoffset:0;stroke-opacity:0.62745098" d="m 9,19 3,0 2,1 -3,0 z" id="path6555" inkscape:connector-curvature="0" />
    </g>
  </g>
</svg>
