<?xml version="1.0" encoding="UTF-8" standalone="no"?>
<!-- Created with Inkscape (http://www.inkscape.org/) -->

<svg xmlns:dc="http://purl.org/dc/elements/1.1/" xmlns:cc="http://creativecommons.org/ns#" xmlns:rdf="http://www.w3.org/1999/02/22-rdf-syntax-ns#" xmlns:svg="http://www.w3.org/2000/svg" xmlns="http://www.w3.org/2000/svg" xmlns:sodipodi="http://sodipodi.sourceforge.net/DTD/sodipodi-0.dtd" xmlns:inkscape="http://www.inkscape.org/namespaces/inkscape" width="32" height="32" id="svg4150" version="1.1" inkscape:version="0.91 r13725" viewBox="0 0 32 32" sodipodi:docname="button-tools-00.svg">
  <defs id="defs4152" />
  <sodipodi:namedview id="base" pagecolor="#ffffff" bordercolor="#666666" borderopacity="1.0" inkscape:pageopacity="0.0" inkscape:pageshadow="2" inkscape:zoom="22.125" inkscape:cx="16" inkscape:cy="14.539879" inkscape:current-layer="layer2" showgrid="true" inkscape:grid-bbox="true" inkscape:document-units="px" objecttolerance="10000" inkscape:snap-perpendicular="true" guidetolerance="10000" inkscape:window-width="1600" inkscape:window-height="878" inkscape:window-x="0" inkscape:window-y="0" inkscape:window-maximized="1" showguides="true" inkscape:guide-bbox="true">
    <inkscape:grid type="xygrid" id="grid4698" empspacing="4" />
    <sodipodi:guide position="16,-6" orientation="1,0" id="guide4769" />
    <sodipodi:guide position="-4,16" orientation="0,1" id="guide4771" />
    <sodipodi:guide position="16,16" orientation="-0.70710678,0.70710678" id="guide4773" />
    <sodipodi:guide position="16,16" orientation="0.70710678,0.70710678" id="guide4775" />
    <sodipodi:guide orientation="1,0" position="13,22" id="guide10351" />
  </sodipodi:namedview>
  <metadata id="metadata4155">
    <rdf:RDF>
      <cc:Work rdf:about="">
        <dc:format>image/svg+xml</dc:format>
        <dc:type rdf:resource="http://purl.org/dc/dcmitype/StillImage" />
        <dc:title />
      </cc:Work>
    </rdf:RDF>
  </metadata>
  <g id="layer1" inkscape:label="button" inkscape:groupmode="layer" />
  <g inkscape:groupmode="layer" id="layer2" inkscape:label="symbol">
    <rect ry="4" y="0" x="0" height="32" width="32" id="rect3767" style="fill:#fc0;fill-opacity:1;stroke:none" />
    <path inkscape:connector-curvature="0" style="fill:black;fill-opacity:0.37647059;stroke:none" d="M 1.875,1.875 C 1.33275,2.41725 1,3.169 1,4 l 0,24 c 0,1.662 1.338,3 3,3 l 24,0 c 0.831,0 1.58275,-0.33275 2.125,-0.875 L 29.40625,29.40625 C 29.04475,29.76775 28.554,30 28,30 L 4,30 C 2.892,30 2,29.108 2,28 L 2,4 C 2,3.446 2.23225,2.95525 2.59375,2.59375 L 1.875,1.875 z" id="rect2997" />
    <path style="fill:black;fill-opacity:1;stroke:none" d="M 4,0 C 1.784,0 0,1.784 0,4 l 0,24 c 0,2.216 1.784,4 4,4 l 24,0 c 2.216,0 4,-1.784 4,-4 L 32,4 C 32,1.784 30.216,0 28,0 L 4,0 z m 0,1 24,0 c 1.662,0 3,1.338 3,3 l 0,24 c 0,1.662 -1.338,3 -3,3 L 4,31 C 2.338,31 1,29.662 1,28 L 1,4 C 1,2.338 2.338,1 4,1 z" id="rect2993" inkscape:connector-curvature="0" />
    <path style="fill:white;fill-opacity:0.37647059;stroke:none" d="M 4,1 C 3.169,1 2.41725,1.33275 1.875,1.875 L 2.59375,2.59375 C 2.95525,2.23225 3.446,2 4,2 l 24,0 c 1.108,0 2,0.892 2,2 l 0,24 c 0,0.554 -0.23225,1.04475 -0.59375,1.40625 L 30.125,30.125 C 30.66725,29.58275 31,28.831 31,28 L 31,4 C 31,2.338 29.662,1 28,1 L 4,1 z" id="rect3774" inkscape:connector-curvature="0" />
    <rect style="fill:white;fill-opacity:0.50196078;stroke:none" id="rect3793" width="26" height="2" x="3" y="2" ry="1" rx="1" />
    <rect style="fill:white;fill-opacity:0.50196078;stroke:none" id="rect3795" width="24" height="1" x="4" y="2" ry="0.5" rx="0.5" />
    <g id="g17091">
      <path inkscape:connector-curvature="0" id="rect10908" d="m 16,8 c -4.418278,0 -8,3.581722 -8,8 0,0.170091 0.02094,0.332103 0.03125,0.5 0.0103,0.167709 0.01092,0.334953 0.03125,0.5 0.0025,0.02016 -0.0026,0.04239 0,0.0625 0.02323,0.182408 0.0625,0.341127 0.0625,0.53125 C 8.125,18.91929 7.591854,20.105179 6.75,21 L 1,26.78125 1,28 c 0,0.831 0.33275,1.58275 0.875,2.125 C 2.41725,30.66725 3.169,31 4,31 l 1.21875,0 5.34375,-5.34375 0.03125,0 C 10.727729,25.543487 10.85242,25.412896 11,25.25 c 0.891738,-0.835372 2.086244,-1.34375 3.40625,-1.34375 0.184954,0 0.381189,0.01185 0.5625,0.03125 0.01004,0.0011 0.02131,-0.0011 0.03125,0 0.33028,0.04068 0.66001,0.0625 1,0.0625 4.619632,0 8.557798,-2.064902 10.1875,-5 L 16,19 16,18.84375 14.375,16 16,13.15625 16,13 26.1875,13 C 24.557798,10.064902 20.619632,8.0000002 16,8 z" style="fill:#333;fill-opacity:1;stroke:none" />
      <path transform="matrix(1.1547005,0,0,1.1547005,1.5247914,-2.4752086)" d="m 19,16 -1.5,2.598076 -3,0 L 13,16 l 1.5,-2.598076 3,0 z" inkscape:randomized="0" inkscape:rounded="0" inkscape:flatsided="true" sodipodi:arg2="0.52359878" sodipodi:arg1="0" sodipodi:r2="2.5980761" sodipodi:r1="3" sodipodi:cy="16" sodipodi:cx="16" sodipodi:sides="6" id="path10906" style="fill:#666;fill-opacity:1;stroke:none" sodipodi:type="star" />
      <path id="path17077" d="M 2 25.775391 L 1 26.78125 L 1 28 C 1 28.4155 1.0834062 28.810328 1.234375 29.169922 C 1.5371875 29.888234 2.1117656 30.462812 2.8300781 30.765625 C 3.1896719 30.916594 3.5845 31 4 31 L 5.21875 31 L 6.21875 30 L 4 30 C 2.892 30 2 29.108 2 28 L 2 25.775391 z " style="fill:#000000;fill-opacity:0.3764706;stroke:none" />
    </g>
  </g>
</svg>
