<?xml version="1.0" encoding="UTF-8" standalone="no"?>
<!-- Created with Inkscape (http://www.inkscape.org/) -->

<svg xmlns:dc="http://purl.org/dc/elements/1.1/" xmlns:cc="http://creativecommons.org/ns#" xmlns:rdf="http://www.w3.org/1999/02/22-rdf-syntax-ns#" xmlns:svg="http://www.w3.org/2000/svg" xmlns="http://www.w3.org/2000/svg" xmlns:xlink="http://www.w3.org/1999/xlink" xmlns:sodipodi="http://sodipodi.sourceforge.net/DTD/sodipodi-0.dtd" xmlns:inkscape="http://www.inkscape.org/namespaces/inkscape" width="32" height="32" id="svg4150" version="1.1" inkscape:version="0.91 r13725" viewBox="0 0 32 32" sodipodi:docname="button-language-english-usuk-00.svg">
  <defs id="defs4152" />
  <sodipodi:namedview id="base" pagecolor="#ffffff" bordercolor="#666666" borderopacity="1.0" inkscape:pageopacity="0.0" inkscape:pageshadow="2" inkscape:zoom="22.125" inkscape:cx="15.20904" inkscape:cy="16" inkscape:current-layer="layer2" showgrid="true" inkscape:grid-bbox="true" inkscape:document-units="px" objecttolerance="10000" inkscape:snap-perpendicular="true" guidetolerance="10000" inkscape:window-width="1600" inkscape:window-height="878" inkscape:window-x="0" inkscape:window-y="0" inkscape:window-maximized="1" showguides="true" inkscape:guide-bbox="true" inkscape:snap-path-clip="true" inkscape:snap-path-mask="true" inkscape:snap-tangential="true">
    <inkscape:grid type="xygrid" id="grid4698" empspacing="4" />
    <sodipodi:guide position="16,32" orientation="1,0" id="guide4769" />
    <sodipodi:guide position="-4,16" orientation="0,1" id="guide4771" />
    <sodipodi:guide position="16,16" orientation="-0.70710678,0.70710678" id="guide4773" />
    <sodipodi:guide position="16,16" orientation="0.70710678,0.70710678" id="guide4775" />
    <sodipodi:guide position="-4,23" orientation="0,1" id="guide6498" />
  </sodipodi:namedview>
  <metadata id="metadata4155">
    <rdf:RDF>
      <cc:Work rdf:about="">
        <dc:format>image/svg+xml</dc:format>
        <dc:type rdf:resource="http://purl.org/dc/dcmitype/StillImage" />
        <dc:title></dc:title>
      </cc:Work>
    </rdf:RDF>
  </metadata>
  <g id="layer1" inkscape:label="button" inkscape:groupmode="layer" sodipodi:insensitive="true">
    <g id="g3627">
      <rect style="fill:#fc0;fill-opacity:1;stroke:none" id="rect3767" width="32" height="32" x="0" y="0" ry="4" />
      <path id="rect2997" d="M 1.875,1.875 C 1.33275,2.41725 1,3.169 1,4 l 0,24 c 0,1.662 1.338,3 3,3 l 24,0 c 0.831,0 1.58275,-0.33275 2.125,-0.875 L 29.40625,29.40625 C 29.04475,29.76775 28.554,30 28,30 L 4,30 C 2.892,30 2,29.108 2,28 L 2,4 C 2,3.446 2.23225,2.95525 2.59375,2.59375 L 1.875,1.875 Z" style="fill:black;fill-opacity:0.37647059;stroke:none" inkscape:connector-curvature="0" />
      <path inkscape:connector-curvature="0" id="rect2993" d="M 4,0 C 1.784,0 0,1.784 0,4 l 0,24 c 0,2.216 1.784,4 4,4 l 24,0 c 2.216,0 4,-1.784 4,-4 L 32,4 C 32,1.784 30.216,0 28,0 L 4,0 Z m 0,1 24,0 c 1.662,0 3,1.338 3,3 l 0,24 c 0,1.662 -1.338,3 -3,3 L 4,31 C 2.338,31 1,29.662 1,28 L 1,4 C 1,2.338 2.338,1 4,1 Z" style="fill:black;fill-opacity:1;stroke:none" />
      <path inkscape:connector-curvature="0" id="rect3774" d="M 4,1 C 3.169,1 2.41725,1.33275 1.875,1.875 L 2.59375,2.59375 C 2.95525,2.23225 3.446,2 4,2 l 24,0 c 1.108,0 2,0.892 2,2 l 0,24 c 0,0.554 -0.23225,1.04475 -0.59375,1.40625 L 30.125,30.125 C 30.66725,29.58275 31,28.831 31,28 L 31,4 C 31,2.338 29.662,1 28,1 L 4,1 Z" style="fill:white;fill-opacity:0.37647059;stroke:none" />
      <rect rx="1" ry="1" y="2" x="3" height="2" width="26" id="rect3793" style="fill:white;fill-opacity:0.50196078;stroke:none" />
      <rect rx="0.5" ry="0.5" y="2" x="4" height="1" width="24" id="rect3795" style="fill:white;fill-opacity:0.50196078;stroke:none" />
    </g>
  </g>
  <g inkscape:groupmode="layer" id="layer2" inkscape:label="symbol">
    <g id="g4207">
      <rect y="10" x="2" height="14" width="26" id="rect4205" style="opacity:1;fill:black;fill-opacity:0.50196078;fill-rule:nonzero;stroke:none;stroke-width:1;stroke-linecap:round;stroke-linejoin:round;stroke-miterlimit:4;stroke-dasharray:none;stroke-dashoffset:0;stroke-opacity:1" />
      <g id="g5444" transform="matrix(0.00350877,0,0,0.00358984,3,8.9996258)">
        <rect id="rect4" height="3900" width="7410" x="0" y="0" style="fill:#b22234" />
        <path inkscape:connector-curvature="0" id="path6" d="m 0,300 0,300 7410,0 0,-300 -7410,0 z m 0,600 0,300 7410,0 0,-300 -7410,0 z m 0,600 0,300 7410,0 0,-300 -7410,0 z m 0,600 0,300 7410,0 0,-300 -7410,0 z m 0,600 0,300 7410,0 0,-300 -7410,0 z m 0,600 0,300 7410,0 0,-300 -7410,0 z" style="color:black;font-style:normal;font-variant:normal;font-weight:normal;font-stretch:normal;font-size:medium;line-height:normal;font-family:sans-serif;text-indent:0;text-align:start;text-decoration:none;text-decoration-line:none;text-decoration-style:solid;text-decoration-color:black;letter-spacing:normal;word-spacing:normal;text-transform:none;direction:ltr;block-progression:tb;writing-mode:lr-tb;baseline-shift:baseline;text-anchor:start;white-space:normal;clip-rule:nonzero;display:inline;overflow:visible;visibility:visible;opacity:1;isolation:auto;mix-blend-mode:normal;color-interpolation:sRGB;color-interpolation-filters:linearRGB;solid-color:black;solid-opacity:1;fill:white;fill-opacity:1;fill-rule:nonzero;stroke:none;stroke-width:300;stroke-linecap:butt;stroke-linejoin:miter;stroke-miterlimit:4;stroke-dasharray:none;stroke-dashoffset:0;stroke-opacity:1;color-rendering:auto;image-rendering:auto;shape-rendering:auto;text-rendering:auto;enable-background:accumulate" />
        <rect id="rect8" height="2100" width="2964" x="0" y="0" style="fill:#3c3b6e" />
        <g id="g4493">
          <path style="fill:white" inkscape:connector-curvature="0" d="m 247,90 70.53423,217.08204 -184.66101,-134.16408 228.25356,0 -184.66101,134.16408 z" id="s" />
          <use style="fill:none" height="100%" width="100%" x="0" id="use17" y="420" xlink:href="#s" />
          <use style="fill:none" height="100%" width="100%" x="0" id="use19" y="840" xlink:href="#s" />
          <use style="fill:none" height="100%" width="100%" x="0" id="use21" y="1260" xlink:href="#s" />
          <use style="fill:none" xlink:href="#s" y="1680" id="use23" x="0" width="100%" height="100%" />
          <use x="0" y="0" xlink:href="#use4405" id="use4473" transform="translate(0,-420)" width="100%" height="100%" style="fill:none" />
          <use style="fill:none" xlink:href="#s" y="420" id="use4405" x="0" width="100%" height="100%" transform="translate(247,210)" />
          <use style="fill:none" xlink:href="#s" y="840" id="use4407" x="0" width="100%" height="100%" transform="translate(247,210)" />
          <use style="fill:none" xlink:href="#s" y="1260" id="use4409" x="0" width="100%" height="100%" transform="translate(247,210)" />
          <use x="0" y="0" xlink:href="#use4225" id="use4475" transform="translate(0,-420)" width="100%" height="100%" style="fill:none" />
          <use x="0" y="0" xlink:href="#use4415" id="use4477" transform="translate(0,-420)" width="100%" height="100%" style="fill:none" />
          <use style="fill:none" xlink:href="#s" y="420" id="use4225" x="0" width="100%" height="100%" transform="translate(494,0)" />
          <use style="fill:none" xlink:href="#s" y="840" id="use4227" x="0" width="100%" height="100%" transform="translate(494,0)" />
          <use style="fill:none" xlink:href="#s" y="1260" id="use4229" x="0" width="100%" height="100%" transform="translate(494,0)" />
          <use style="fill:none" height="100%" width="100%" x="0" id="use4231" y="1680" xlink:href="#s" transform="translate(494,0)" />
          <use x="0" y="0" xlink:href="#use4195" id="use4479" transform="translate(0,-420)" width="100%" height="100%" style="fill:none" />
          <use style="fill:none" xlink:href="#s" y="420" id="use4415" x="0" width="100%" height="100%" transform="translate(741,210)" />
          <use style="fill:none" xlink:href="#s" y="840" id="use4417" x="0" width="100%" height="100%" transform="translate(741,210)" />
          <use style="fill:none" xlink:href="#s" y="1260" id="use4419" x="0" width="100%" height="100%" transform="translate(741,210)" />
          <use x="0" y="0" xlink:href="#use4395" id="use4481" transform="translate(0,-420)" width="100%" height="100%" style="fill:none" />
          <use x="0" y="0" xlink:href="#use4283" id="use4483" transform="translate(0,-420)" width="100%" height="100%" style="fill:none" />
          <use style="fill:none" xlink:href="#s" y="420" id="use4195" x="0" width="100%" height="100%" transform="translate(988,0)" />
          <use style="fill:none" xlink:href="#s" y="840" id="use4197" x="0" width="100%" height="100%" transform="translate(988,0)" />
          <use style="fill:none" xlink:href="#s" y="1260" id="use4199" x="0" width="100%" height="100%" transform="translate(988,0)" />
          <use style="fill:none" height="100%" width="100%" x="0" id="use4201" y="1680" xlink:href="#s" transform="translate(988,0)" />
          <use x="0" y="0" xlink:href="#use4385" id="use4485" transform="translate(0,-420)" width="100%" height="100%" style="fill:none" />
          <use style="fill:none" xlink:href="#s" y="420" id="use4395" x="0" width="100%" height="100%" transform="translate(1235,210)" />
          <use style="fill:none" xlink:href="#s" y="840" id="use4397" x="0" width="100%" height="100%" transform="translate(1235,210)" />
          <use style="fill:none" xlink:href="#s" y="1260" id="use4399" x="0" width="100%" height="100%" transform="translate(1235,210)" />
          <use x="0" y="0" xlink:href="#use4243" id="use4487" transform="translate(0,-420)" width="100%" height="100%" style="fill:none" />
          <use x="0" y="0" xlink:href="#use4375" id="use4489" transform="translate(0,-420)" width="100%" height="100%" style="fill:none" />
          <use style="fill:none" height="100%" width="100%" x="0" id="use4283" y="420" xlink:href="#s" transform="translate(1482,0)" />
          <use style="fill:none" height="100%" width="100%" x="0" id="use4285" y="840" xlink:href="#s" transform="translate(1482,0)" />
          <use style="fill:none" height="100%" width="100%" x="0" id="use4287" y="1260" xlink:href="#s" transform="translate(1482,0)" />
          <use style="fill:none" xlink:href="#s" y="1680" id="use4289" x="0" width="100%" height="100%" transform="translate(1482,0)" />
          <use x="0" y="0" xlink:href="#use4259" id="use4491" transform="translate(0,-420)" width="100%" height="100%" style="fill:none" />
          <use style="fill:none" xlink:href="#s" y="420" id="use4385" x="0" width="100%" height="100%" transform="translate(1729,210)" />
          <use style="fill:none" xlink:href="#s" y="840" id="use4387" x="0" width="100%" height="100%" transform="translate(1729,210)" />
          <use style="fill:none" xlink:href="#s" y="1260" id="use4389" x="0" width="100%" height="100%" transform="translate(1729,210)" />
          <use style="fill:none" xlink:href="#s" y="420" id="use4243" x="0" width="100%" height="100%" transform="translate(1976,0)" />
          <use style="fill:none" xlink:href="#s" y="840" id="use4245" x="0" width="100%" height="100%" transform="translate(1976,0)" />
          <use style="fill:none" xlink:href="#s" y="1260" id="use4247" x="0" width="100%" height="100%" transform="translate(1976,0)" />
          <use style="fill:none" height="100%" width="100%" x="0" id="use4249" y="1680" xlink:href="#s" transform="translate(1976,0)" />
          <use style="fill:none" xlink:href="#s" y="420" id="use4375" x="0" width="100%" height="100%" transform="translate(2223,210)" />
          <use style="fill:none" xlink:href="#s" y="840" id="use4377" x="0" width="100%" height="100%" transform="translate(2223,210)" />
          <use style="fill:none" xlink:href="#s" y="1260" id="use4379" x="0" width="100%" height="100%" transform="translate(2223,210)" />
          <use style="fill:none" height="100%" width="100%" x="0" id="use4259" y="420" xlink:href="#s" transform="translate(2470,0)" />
          <use style="fill:none" height="100%" width="100%" x="0" id="use4261" y="840" xlink:href="#s" transform="translate(2470,0)" />
          <use style="fill:none" height="100%" width="100%" x="0" id="use4263" y="1260" xlink:href="#s" transform="translate(2470,0)" />
          <use style="fill:none" xlink:href="#s" y="1680" id="use4265" x="0" width="100%" height="100%" transform="translate(2470,0)" />
        </g>
      </g>
      <path sodipodi:nodetypes="cccc" id="path5778" d="m 3,22.999316 25.997758,0 0,-13.9993161 z" inkscape:connector-curvature="0" style="fill:#00247d" />
      <path id="path5780" d="M 28.998047 9.0019531 L 3 23 L 5.90625 23 L 13.832031 18.732422 L 13.832031 23 L 18.166016 23 L 18.166016 18.732422 L 26.089844 23 L 28.998047 23 L 28.998047 21.433594 L 23.238281 18.332031 L 28.998047 18.332031 L 28.998047 13.666016 L 23.238281 13.666016 L 28.998047 10.564453 L 28.998047 9.0019531 z " style="color:black;font-style:normal;font-variant:normal;font-weight:normal;font-stretch:normal;font-size:medium;line-height:normal;font-family:sans-serif;text-indent:0;text-align:start;text-decoration:none;text-decoration-line:none;text-decoration-style:solid;text-decoration-color:black;letter-spacing:normal;word-spacing:normal;text-transform:none;direction:ltr;block-progression:tb;writing-mode:lr-tb;baseline-shift:baseline;text-anchor:start;white-space:normal;clip-rule:nonzero;display:inline;overflow:visible;visibility:visible;opacity:1;isolation:auto;mix-blend-mode:normal;color-interpolation:sRGB;color-interpolation-filters:linearRGB;solid-color:black;solid-opacity:1;fill:white;fill-opacity:1;fill-rule:nonzero;stroke:none;stroke-width:6;stroke-linecap:butt;stroke-linejoin:miter;stroke-miterlimit:4;stroke-dasharray:none;stroke-dashoffset:0;stroke-opacity:1;color-rendering:auto;image-rendering:auto;shape-rendering:auto;text-rendering:auto;enable-background:accumulate" />
      <path id="path6430" d="M 18.601562 14.599609 L 13.398438 17.400391 L 14.699219 17.400391 L 14.699219 23 L 17.298828 23 L 17.298828 17.400391 L 28.998047 17.400391 L 28.998047 14.599609 L 18.601562 14.599609 z M 11.669922 18.332031 L 3 23 L 4.9394531 23 L 13.601562 18.332031 L 11.669922 18.332031 z M 20.332031 18.332031 L 29 23 L 29 21.955078 L 22.273438 18.333984 L 20.332031 18.332031 z " style="opacity:1;fill:#cf142b;fill-opacity:1;fill-rule:nonzero;stroke:none;stroke-width:1;stroke-linecap:round;stroke-linejoin:round;stroke-miterlimit:4;stroke-dasharray:none;stroke-dashoffset:0;stroke-opacity:1" />
    </g>
  </g>
</svg>
