<?xml version="1.0" encoding="UTF-8" standalone="no"?>
<!-- Created with Inkscape (http://www.inkscape.org/) -->

<svg
   xmlns:dc="http://purl.org/dc/elements/1.1/"
   xmlns:cc="http://creativecommons.org/ns#"
   xmlns:rdf="http://www.w3.org/1999/02/22-rdf-syntax-ns#"
   xmlns:svg="http://www.w3.org/2000/svg"
   xmlns="http://www.w3.org/2000/svg"
   xmlns:xlink="http://www.w3.org/1999/xlink"
   xmlns:sodipodi="http://sodipodi.sourceforge.net/DTD/sodipodi-0.dtd"
   xmlns:inkscape="http://www.inkscape.org/namespaces/inkscape"
   width="32"
   height="32"
   id="svg4150"
   version="1.1"
   inkscape:version="0.48.5 r10040"
   viewBox="0 0 32 32"
   sodipodi:docname="lorbeerkranz-00.svg">
  <defs
     id="defs4152" />
  <sodipodi:namedview
     id="base"
     pagecolor="#ffffff"
     bordercolor="#666666"
     borderopacity="1.0"
     inkscape:pageopacity="0.0"
     inkscape:pageshadow="2"
     inkscape:zoom="11.667262"
     inkscape:cx="-1.7230246"
     inkscape:cy="13.397116"
     inkscape:current-layer="layer2"
     showgrid="true"
     inkscape:grid-bbox="true"
     inkscape:document-units="px"
     objecttolerance="10000"
     inkscape:snap-perpendicular="true"
     guidetolerance="10000"
     inkscape:window-width="1024"
     inkscape:window-height="741"
     inkscape:window-x="0"
     inkscape:window-y="2"
     inkscape:window-maximized="1"
     showguides="true"
     inkscape:guide-bbox="true">
    <inkscape:grid
       type="xygrid"
       id="grid4698"
       empspacing="4"
       visible="true"
       enabled="true"
       snapvisiblegridlinesonly="true"
       spacingx="0.5px"
       spacingy="0.5px" />
    <sodipodi:guide
       position="16,32"
       orientation="1,0"
       id="guide4769" />
    <sodipodi:guide
       position="-4,16"
       orientation="0,1"
       id="guide4771" />
    <sodipodi:guide
       position="16,16"
       orientation="-0.70710678,0.70710678"
       id="guide4773" />
    <sodipodi:guide
       position="16,16"
       orientation="0.70710678,0.70710678"
       id="guide4775" />
    <sodipodi:guide
       orientation="1,0"
       position="16,32.5"
       id="guide3775" />
  </sodipodi:namedview>
  <metadata
     id="metadata4155">
    <rdf:RDF>
      <cc:Work
         rdf:about="">
        <dc:format>image/svg+xml</dc:format>
        <dc:type
           rdf:resource="http://purl.org/dc/dcmitype/StillImage" />
        <dc:title></dc:title>
      </cc:Work>
    </rdf:RDF>
  </metadata>
  <g
     id="layer1"
     inkscape:label="button"
     inkscape:groupmode="layer"
     sodipodi:insensitive="true">
    <g
       id="g3627">
      <rect
         style="fill:#fc0;fill-opacity:1;stroke:none"
         id="rect3767"
         width="32"
         height="32"
         x="0"
         y="0"
         ry="4" />
      <path
         id="rect2997"
         d="M 1.875,1.875 C 1.33275,2.41725 1,3.169 1,4 l 0,24 c 0,1.662 1.338,3 3,3 l 24,0 c 0.831,0 1.58275,-0.33275 2.125,-0.875 L 29.40625,29.40625 C 29.04475,29.76775 28.554,30 28,30 L 4,30 C 2.892,30 2,29.108 2,28 L 2,4 C 2,3.446 2.23225,2.95525 2.59375,2.59375 L 1.875,1.875 Z"
         style="fill:black;fill-opacity:0.37647059;stroke:none"
         inkscape:connector-curvature="0" />
      <path
         inkscape:connector-curvature="0"
         id="rect2993"
         d="M 4,0 C 1.784,0 0,1.784 0,4 l 0,24 c 0,2.216 1.784,4 4,4 l 24,0 c 2.216,0 4,-1.784 4,-4 L 32,4 C 32,1.784 30.216,0 28,0 L 4,0 Z m 0,1 24,0 c 1.662,0 3,1.338 3,3 l 0,24 c 0,1.662 -1.338,3 -3,3 L 4,31 C 2.338,31 1,29.662 1,28 L 1,4 C 1,2.338 2.338,1 4,1 Z"
         style="fill:black;fill-opacity:1;stroke:none" />
      <path
         inkscape:connector-curvature="0"
         id="rect3774"
         d="M 4,1 C 3.169,1 2.41725,1.33275 1.875,1.875 L 2.59375,2.59375 C 2.95525,2.23225 3.446,2 4,2 l 24,0 c 1.108,0 2,0.892 2,2 l 0,24 c 0,0.554 -0.23225,1.04475 -0.59375,1.40625 L 30.125,30.125 C 30.66725,29.58275 31,28.831 31,28 L 31,4 C 31,2.338 29.662,1 28,1 L 4,1 Z"
         style="fill:white;fill-opacity:0.37647059;stroke:none" />
      <rect
         rx="1"
         ry="1"
         y="2"
         x="3"
         height="2"
         width="26"
         id="rect3793"
         style="fill:white;fill-opacity:0.50196078;stroke:none" />
      <rect
         rx="0.5"
         ry="0.5"
         y="2"
         x="4"
         height="1"
         width="24"
         id="rect3795"
         style="fill:white;fill-opacity:0.50196078;stroke:none" />
    </g>
  </g>
  <g
     inkscape:groupmode="layer"
     id="layer2"
     inkscape:label="symbol">
    <g
       id="g3805"
       transform="matrix(0.96594109,-0.25881905,0.25882314,0.96592583,-3.7535996,5.7870603)">
      <path
         sodipodi:open="true"
         sodipodi:end="3.9269907"
         sodipodi:start="1.5707963"
         transform="matrix(0.75,0,0,1.0820356,4,-2.4688544)"
         d="m 16,24 c -4.418278,0 -7.9999999,-3.581722 -8,-8 -1e-7,-2.121731 0.8428544,-4.156563 2.343145,-5.656854"
         sodipodi:ry="8"
         sodipodi:rx="8"
         sodipodi:cy="16"
         sodipodi:cx="16"
         id="path3771"
         style="fill:none;stroke:green;stroke-width:1.11005664;stroke-linecap:round;stroke-linejoin:round;stroke-miterlimit:4;stroke-opacity:1;stroke-dasharray:none"
         sodipodi:type="arc" />
      <path
         inkscape:tile-y0="2.704445"
         inkscape:tile-x0="11.708658"
         inkscape:tile-h="5.795555"
         inkscape:tile-w="2.1355977"
         inkscape:tile-cy="8.5"
         inkscape:tile-cx="12"
         inkscape:transform-center-x="-0.77645721"
         inkscape:transform-center-y="-2.8977775"
         sodipodi:nodetypes="czczc"
         inkscape:connector-curvature="0"
         id="path3773"
         d="m 11.491342,8.5 c 0,0 -0.50053,-1.9956986 -0.189469,-3.1565965 0.311062,-1.160898 1.742383,-2.6389585 1.742383,-2.6389585 0,0 0.500531,1.9956986 0.189469,3.1565966 C 12.922663,7.0219395 11.491342,8.5 11.491342,8.5 z"
         style="fill:green;stroke:none" />
      <use
         height="32"
         width="32"
         inkscape:transform-center-y="-2.5980759"
         inkscape:transform-center-x="1.5000001"
         id="use3779"
         transform="matrix(0.70710678,-0.70710678,0.70710678,0.70710678,-4.2699876,14.213274)"
         xlink:href="#path3773"
         inkscape:tiled-clone-of="#path3773"
         y="0"
         x="0" />
      <use
         height="32"
         width="32"
         inkscape:transform-center-y="-1.5000001"
         inkscape:transform-center-x="-2.5980761"
         id="use3781"
         transform="matrix(0.70710678,0.70710678,-0.70710678,0.70710678,9.7867261,-5.2699876)"
         xlink:href="#path3773"
         inkscape:tiled-clone-of="#path3773"
         y="0"
         x="0" />
      <use
         height="32"
         width="32"
         inkscape:transform-center-y="-1.5"
         inkscape:transform-center-x="2.5980762"
         id="use3783"
         transform="matrix(0.25881905,-0.96592583,0.96592583,0.25881905,-1.5279512,25.210353)"
         xlink:href="#path3773"
         inkscape:tiled-clone-of="#path3773"
         y="0"
         x="0" />
      <use
         height="32"
         width="32"
         inkscape:transform-center-y="-2.8977774"
         inkscape:transform-center-x="0.77645728"
         id="use3785"
         transform="matrix(0.8660254,-0.5,0.5,0.8660254,-3.5123247,8.0410514)"
         xlink:href="#path3773"
         inkscape:tiled-clone-of="#path3773"
         y="0"
         x="0" />
      <use
         height="32"
         width="32"
         inkscape:transform-center-y="-2.1213205"
         inkscape:transform-center-x="-2.1213202"
         id="use3787"
         transform="matrix(0.8660254,0.5,-0.5,0.8660254,4.6592482,-0.86450343)"
         xlink:href="#path3773"
         inkscape:tiled-clone-of="#path3773"
         y="0"
         x="0" />
      <use
         height="32"
         width="32"
         inkscape:transform-center-y="-2.1213201"
         inkscape:transform-center-x="2.1213202"
         id="use3789"
         transform="matrix(0.50000001,-0.86602541,0.86602541,0.50000001,-3.5088107,20.067819)"
         xlink:href="#path3773"
         inkscape:tiled-clone-of="#path3773"
         y="0"
         x="0" />
      <use
         inkscape:transform-center-y="-0.77645736"
         height="32"
         width="32"
         inkscape:transform-center-x="2.8977774"
         id="use3791"
         transform="matrix(0,-1,1,0,1.9999999,29.991342)"
         xlink:href="#path3773"
         inkscape:tiled-clone-of="#path3773"
         y="0"
         x="0" />
      <use
         height="32"
         width="32"
         inkscape:transform-center-x="2.9999998"
         id="use3793"
         transform="matrix(-0.25881905,-0.96592582,0.96592582,-0.25881905,5.8618844,33.165772)"
         xlink:href="#path3773"
         inkscape:tiled-clone-of="#path3773"
         y="0"
         x="0" />
      <use
         height="32"
         width="32"
         inkscape:transform-center-y="-2.1213204"
         inkscape:transform-center-x="-2.1213202"
         id="use3795"
         transform="matrix(0.8660254,0.5,-0.5,0.8660254,4.6592482,4.6354966)"
         xlink:href="#path3773"
         inkscape:tiled-clone-of="#path3773"
         y="0"
         x="0" />
      <use
         height="32"
         width="32"
         inkscape:transform-center-y="-2.1213204"
         inkscape:transform-center-x="-2.1213199"
         id="use3797"
         transform="matrix(0.8660254,0.5,-0.5,0.8660254,4.2982062,1.8931135)"
         xlink:href="#path3773"
         inkscape:tiled-clone-of="#path3773"
         y="0"
         x="0" />
      <use
         height="32"
         width="32"
         inkscape:transform-center-y="-2.5980762"
         inkscape:transform-center-x="-1.4999996"
         id="use3799"
         transform="matrix(0.96592582,0.25881905,-0.25881905,0.96592582,2.6859647,9.1438796)"
         xlink:href="#path3773"
         inkscape:tiled-clone-of="#path3773"
         y="0"
         x="0" />
      <use
         height="32"
         width="32"
         transform="translate(2.266275,14.138958)"
         id="use3801"
         inkscape:transform-center-y="-2.8977775"
         inkscape:transform-center-x="-0.77645721"
         xlink:href="#path3773"
         y="0"
         x="0" />
      <use
         transform="matrix(-0.25881905,-0.96592583,0.96592583,-0.25881905,-6.109984,41.433024)"
         height="32"
         width="32"
         id="use3803"
         inkscape:transform-center-x="2.9999999"
         xlink:href="#use3801"
         y="0"
         x="0" />
      <use
         x="0"
         y="0"
         xlink:href="#path3773"
         inkscape:transform-center-x="2.897777"
         inkscape:transform-center-y="0.77645666"
         id="use3860"
         transform="matrix(-0.49999315,-0.86603726,0.86601356,-0.50000684,13.153888,37.219316)"
         width="32"
         height="32" />
    </g>
    <use
       x="0"
       y="0"
       xlink:href="#g3805"
       id="use3822"
       transform="matrix(-1,0,0,1,32.283802,-2.8239167e-8)"
       width="32"
       height="32" />
  </g>
</svg>
