<?xml version="1.0" encoding="UTF-8" standalone="no"?>
<!-- Created with Inkscape (http://www.inkscape.org/) -->

<svg
   xmlns:dc="http://purl.org/dc/elements/1.1/"
   xmlns:cc="http://creativecommons.org/ns#"
   xmlns:rdf="http://www.w3.org/1999/02/22-rdf-syntax-ns#"
   xmlns:svg="http://www.w3.org/2000/svg"
   xmlns="http://www.w3.org/2000/svg"
   xmlns:xlink="http://www.w3.org/1999/xlink"
   xmlns:sodipodi="http://sodipodi.sourceforge.net/DTD/sodipodi-0.dtd"
   xmlns:inkscape="http://www.inkscape.org/namespaces/inkscape"
   width="32"
   height="32"
   id="svg4150"
   version="1.1"
   inkscape:version="0.48.5 r10040"
   viewBox="0 0 32 32"
   sodipodi:docname="Neues Dokument 2">
  <defs
     id="defs4152">
    <linearGradient
       inkscape:collect="always"
       xlink:href="#linearGradient11681"
       id="linearGradient11750"
       gradientUnits="userSpaceOnUse"
       x1="22"
       y1="10"
       x2="22"
       y2="5" />
    <linearGradient
       id="linearGradient11681">
      <stop
         style="stop-color:#c09a00;stop-opacity:1;"
         offset="0"
         id="stop11683" />
      <stop
         id="stop11700"
         offset="0.5"
         style="stop-color:#ffeea9;stop-opacity:1;" />
      <stop
         style="stop-color:#fc0;stop-opacity:1;"
         offset="1"
         id="stop11685" />
    </linearGradient>
  </defs>
  <sodipodi:namedview
     id="base"
     pagecolor="#ffffff"
     bordercolor="#666666"
     borderopacity="1.0"
     inkscape:pageopacity="0.0"
     inkscape:pageshadow="2"
     inkscape:zoom="16.5"
     inkscape:cx="16"
     inkscape:cy="16"
     inkscape:current-layer="layer1"
     showgrid="true"
     inkscape:grid-bbox="true"
     inkscape:document-units="px"
     objecttolerance="10000"
     inkscape:snap-perpendicular="true"
     guidetolerance="10000"
     inkscape:window-width="1024"
     inkscape:window-height="741"
     inkscape:window-x="0"
     inkscape:window-y="2"
     inkscape:window-maximized="1"
     showguides="true"
     inkscape:guide-bbox="true">
    <inkscape:grid
       type="xygrid"
       id="grid4698"
       empspacing="4" />
    <sodipodi:guide
       position="16,32"
       orientation="1,0"
       id="guide4769" />
    <sodipodi:guide
       position="-4,16"
       orientation="0,1"
       id="guide4771" />
    <sodipodi:guide
       position="16,16"
       orientation="-0.70710678,0.70710678"
       id="guide4773" />
    <sodipodi:guide
       position="16,16"
       orientation="0.70710678,0.70710678"
       id="guide4775" />
  </sodipodi:namedview>
  <metadata
     id="metadata4155">
    <rdf:RDF>
      <cc:Work
         rdf:about="">
        <dc:format>image/svg+xml</dc:format>
        <dc:type
           rdf:resource="http://purl.org/dc/dcmitype/StillImage" />
        <dc:title></dc:title>
      </cc:Work>
    </rdf:RDF>
  </metadata>
  <g
     id="layer1"
     inkscape:label="Layer 1"
     inkscape:groupmode="layer">
    <g
       id="g11744"
       inkscape:transform-center-y="-0.5"
       inkscape:transform-center-x="-1"
       transform="matrix(0,-1,1,0,-1,33)">
      <g
         inkscape:transform-center-x="0.5"
         transform="matrix(0,1,-1,0,33,-1)"
         id="g11702">
        <path
           style="fill:blue;fill-opacity:1;stroke:none"
           d="m 16,4 c -1.108,0 -2,0.892 -2,2 l 0,6 -2,3 0,3 1,0 0,1 -1,1 0,2 0,5 c 0,1.108 0.892,2 2,2 l 2,0 12,0 c 1.108,0 2,-0.892 2,-2 L 30,6 C 30,4.892 29.108,4 28,4 L 16,4 z"
           id="rect11656"
           inkscape:connector-curvature="0" />
        <path
           inkscape:connector-curvature="0"
           style="fill:url(#linearGradient11750);fill-opacity:1;stroke:none"
           d="m 18,5 0,6 2,0 0,-6 -2,0 z m 6,0 0,6 2,0 0,-6 -2,0 z m -9,1 0,5 2,0 0,-5 -2,0 z m 6,0 0,5 2,0 0,-5 -2,0 z m 6,0 0,5 2,0 0,-5 -2,0 z"
           id="rect11662" />
      </g>
      <path
         sodipodi:nodetypes="cccccccc"
         inkscape:connector-curvature="0"
         id="rect11710"
         d="m 10,5 0,5 -4,0 10,7 10,-7 -4,0 0,-5 z"
         style="fill:#d40000;fill-opacity:1;stroke:none" />
    </g>
  </g>
</svg>
