<?xml version="1.0" encoding="UTF-8" standalone="no"?>
<!-- Created with Inkscape (http://www.inkscape.org/) -->

<svg
   xmlns:dc="http://purl.org/dc/elements/1.1/"
   xmlns:cc="http://creativecommons.org/ns#"
   xmlns:rdf="http://www.w3.org/1999/02/22-rdf-syntax-ns#"
   xmlns:svg="http://www.w3.org/2000/svg"
   xmlns="http://www.w3.org/2000/svg"
   xmlns:sodipodi="http://sodipodi.sourceforge.net/DTD/sodipodi-0.dtd"
   xmlns:inkscape="http://www.inkscape.org/namespaces/inkscape"
   width="32"
   height="32"
   id="svg4150"
   version="1.1"
   inkscape:version="0.48.5 r10040"
   viewBox="0 0 32 32"
   sodipodi:docname="tutorial-01.svg">
  <defs
     id="defs4152" />
  <sodipodi:namedview
     id="base"
     pagecolor="#ffffff"
     bordercolor="#666666"
     borderopacity="1.0"
     inkscape:pageopacity="0.0"
     inkscape:pageshadow="2"
     inkscape:zoom="16.5"
     inkscape:cx="16"
     inkscape:cy="16"
     inkscape:current-layer="layer1"
     showgrid="true"
     inkscape:grid-bbox="true"
     inkscape:document-units="px"
     objecttolerance="10000"
     inkscape:snap-perpendicular="true"
     guidetolerance="10000"
     inkscape:window-width="1024"
     inkscape:window-height="741"
     inkscape:window-x="0"
     inkscape:window-y="2"
     inkscape:window-maximized="1"
     showguides="true"
     inkscape:guide-bbox="true">
    <inkscape:grid
       type="xygrid"
       id="grid4698"
       empspacing="4" />
    <sodipodi:guide
       position="16,32"
       orientation="1,0"
       id="guide4769" />
    <sodipodi:guide
       position="-4,16"
       orientation="0,1"
       id="guide4771" />
  </sodipodi:namedview>
  <metadata
     id="metadata4155">
    <rdf:RDF>
      <cc:Work
         rdf:about="">
        <dc:format>image/svg+xml</dc:format>
        <dc:type
           rdf:resource="http://purl.org/dc/dcmitype/StillImage" />
        <dc:title />
      </cc:Work>
    </rdf:RDF>
  </metadata>
  <g
     id="layer1"
     inkscape:label="Layer 1"
     inkscape:groupmode="layer">
    <g
       id="g3043">
      <rect
         y="0"
         x="0"
         height="32"
         width="32"
         id="rect6876"
         style="fill:none;stroke:none" />
      <g
         transform="translate(0,2)"
         id="g3037">
        <path
           style="fill:black;fill-opacity:1;stroke:none"
           d="M 13,7 31,7 22,13 1,13 z"
           id="path6868"
           inkscape:connector-curvature="0"
           sodipodi:nodetypes="ccccc" />
        <path
           sodipodi:type="arc"
           style="fill:black;fill-opacity:1;stroke:none"
           id="path6870"
           sodipodi:cx="16"
           sodipodi:cy="16"
           sodipodi:rx="8"
           sodipodi:ry="8"
           d="m 8,16 c 2e-7,-4.418278 3.581722,-8.0000002 8,-8 4.418278,2e-7 8,3.581722 8,8 l -8,0 z"
           transform="matrix(1.125,0,0,1.3560606,-2,-1.6969697)"
           sodipodi:start="3.1415927"
           sodipodi:end="6.2831853" />
        <path
           sodipodi:type="arc"
           style="fill:black;fill-opacity:1;stroke:none"
           id="path6872"
           sodipodi:cx="16"
           sodipodi:cy="20"
           sodipodi:rx="8"
           sodipodi:ry="4"
           d="m 24,20 c 0,2.209139 -3.581722,4 -8,4 -4.418278,0 -8,-1.790861 -8,-4 0,0 0,0 0,0 l 8,0 z"
           transform="matrix(1.125,0,0,0.5,-2,10)"
           sodipodi:start="0"
           sodipodi:end="3.1415927" />
        <path
           style="fill:red;fill-opacity:1;stroke:none"
           d="m 21,26 c 0.405877,-0.52158 0.739211,-0.260789 0.918388,-0.746097 C 22.278925,25.639463 22.594123,25.741391 23,26 19.101859,21.549469 21.423482,17.353259 20,15 c -0.333333,0 -0.666667,0 -1,0 2.159351,3.41236 0.02582,7.297152 2,11 z"
           id="path6874"
           inkscape:connector-curvature="0"
           sodipodi:nodetypes="cccccc" />
      </g>
    </g>
  </g>
</svg>
