<?xml version="1.0" encoding="UTF-8" standalone="no"?>
<!-- Created with Inkscape (http://www.inkscape.org/) -->

<svg
   xmlns:dc="http://purl.org/dc/elements/1.1/"
   xmlns:cc="http://creativecommons.org/ns#"
   xmlns:rdf="http://www.w3.org/1999/02/22-rdf-syntax-ns#"
   xmlns:svg="http://www.w3.org/2000/svg"
   xmlns="http://www.w3.org/2000/svg"
   xmlns:sodipodi="http://sodipodi.sourceforge.net/DTD/sodipodi-0.dtd"
   xmlns:inkscape="http://www.inkscape.org/namespaces/inkscape"
   width="96"
   height="96"
   id="svg3505"
   sodipodi:version="0.32"
   inkscape:version="0.47 r22583"
   sodipodi:docname="08.svg"
   inkscape:output_extension="org.inkscape.output.svg.inkscape"
   version="1.1">
  <defs
     id="defs3507">
    <inkscape:perspective
       sodipodi:type="inkscape:persp3d"
       inkscape:vp_x="0 : 16 : 1"
       inkscape:vp_y="0 : 1000 : 0"
       inkscape:vp_z="32 : 16 : 1"
       inkscape:persp3d-origin="16 : 10.666667 : 1"
       id="perspective2836" />
    <inkscape:perspective
       id="perspective2899"
       inkscape:persp3d-origin="0.5 : 0.33333333 : 1"
       inkscape:vp_z="1 : 0.5 : 1"
       inkscape:vp_y="0 : 1000 : 0"
       inkscape:vp_x="0 : 0.5 : 1"
       sodipodi:type="inkscape:persp3d" />
    <inkscape:perspective
       id="perspective3072"
       inkscape:persp3d-origin="0.5 : 0.33333333 : 1"
       inkscape:vp_z="1 : 0.5 : 1"
       inkscape:vp_y="0 : 1000 : 0"
       inkscape:vp_x="0 : 0.5 : 1"
       sodipodi:type="inkscape:persp3d" />
    <inkscape:perspective
       id="perspective3081"
       inkscape:persp3d-origin="0.5 : 0.33333333 : 1"
       inkscape:vp_z="1 : 0.5 : 1"
       inkscape:vp_y="0 : 1000 : 0"
       inkscape:vp_x="0 : 0.5 : 1"
       sodipodi:type="inkscape:persp3d" />
  </defs>
  <sodipodi:namedview
     id="base"
     pagecolor="#ffffff"
     bordercolor="#666666"
     borderopacity="1.0"
     inkscape:pageopacity="0.0"
     inkscape:pageshadow="2"
     inkscape:zoom="6.2395833"
     inkscape:cx="45.595993"
     inkscape:cy="48"
     inkscape:current-layer="layer1"
     showgrid="true"
     inkscape:grid-bbox="true"
     inkscape:document-units="px"
     objecttolerance="4"
     gridtolerance="4"
     guidetolerance="4"
     inkscape:window-width="1600"
     inkscape:window-height="840"
     inkscape:window-x="0"
     inkscape:window-y="0"
     inkscape:object-paths="true"
     inkscape:object-nodes="true"
     inkscape:snap-bbox="true"
     inkscape:snap-guide="true"
     showguides="true"
     inkscape:guide-bbox="true"
     inkscape:window-maximized="1">
    <inkscape:grid
       type="xygrid"
       id="grid3515"
       units="px"
       visible="true"
       enabled="true"
       spacingx="1px"
       spacingy="1px"
       empspacing="4"
       snapvisiblegridlinesonly="true" />
    <sodipodi:guide
       orientation="1,0"
       position="32,64"
       id="guide2868" />
    <sodipodi:guide
       orientation="0,1"
       position="0,32"
       id="guide2870" />
    <sodipodi:guide
       orientation="0,1"
       position="0,64"
       id="guide2874" />
    <sodipodi:guide
       orientation="1,0"
       position="64,64"
       id="guide2876" />
  </sodipodi:namedview>
  <metadata
     id="metadata3510">
    <rdf:RDF>
      <cc:Work
         rdf:about="">
        <dc:format>image/svg+xml</dc:format>
        <dc:type
           rdf:resource="http://purl.org/dc/dcmitype/StillImage" />
        <dc:title></dc:title>
        <dc:date>2010-08-08</dc:date>
        <dc:creator>
          <cc:Agent>
            <dc:title>Andreas Neudecker &lt;zapyon@gmx.net&gt;</dc:title>
          </cc:Agent>
        </dc:creator>
        <dc:rights>
          <cc:Agent>
            <dc:title>Copyright (C) 2010 by Andreas Neudecker</dc:title>
          </cc:Agent>
        </dc:rights>
        <dc:publisher>
          <cc:Agent>
            <dc:title>Andreas Neudecker</dc:title>
          </cc:Agent>
        </dc:publisher>
        <dc:identifier>bomb-explosion-08</dc:identifier>
        <dc:description>Explosion of a bomb for McMinos</dc:description>
      </cc:Work>
    </rdf:RDF>
  </metadata>
  <g
     id="layer1"
     inkscape:label="Layer 1"
     inkscape:groupmode="layer"
     transform="translate(0,64)">
    <path
       style="fill:#c0c0c0;fill-opacity:0.0627451;fill-rule:nonzero;stroke:none"
       d="m 38.878608,-55.984344 c -12.61871,0 -22.855634,9.789937 -22.855634,21.866438 0,3.173784 0.73369,6.181032 2.004424,8.902764 -5.940475,3.948678 -9.839898,10.515313 -9.839898,17.9617174 0,10.2749202 7.407742,18.8985676 17.389024,21.2416826 4.071019,6.014062 11.140225,9.996086 19.185198,9.996086 4.435584,0 8.57395,-1.238656 12.078604,-3.332028 2.534107,0.927537 5.273015,1.457762 8.14785,1.457762 12.618711,0 22.855636,-9.789937 22.855636,-21.86643804 0,-3.78743716 -1.035637,-7.33449916 -2.8114,-10.43862096 C 86.922952,-13.590434 88,-17.486778 88,-21.64883 88,-34.68742 77.428042,-45.259377 64.389452,-45.259377 c -1.888385,0 -3.732431,0.205942 -5.49264,0.624755 -3.886935,-6.755823 -11.389541,-11.349722 -20.018204,-11.349722 z"
       id="path2832" />
    <path
       style="fill:#ffff00;fill-opacity:1;fill-rule:nonzero;stroke:none"
       d="M 53.364468,-13.159764 49.036296,-15.041518 46.390659,-12 l 0.126819,-3.305552 -4.418394,-0.536446 3.218681,-2.682235 -2.145787,-3.755128 3.755128,2.249751 2.145787,-3.322644 1.072894,3.755128 3.755128,1.072893 -3.979238,1.363579 3.442791,4.00089 z"
       id="path3152"
       sodipodi:nodetypes="ccccccccccccc" />
    <path
       style="fill:#c0c0c0;fill-opacity:0.09411765;fill-rule:nonzero;stroke:none"
       d="m 34,-38 c -9.751283,0 -17.666667,7.915384 -17.666667,17.666667 0,9.751282 7.915384,17.6666663 17.666667,17.6666663 1.292482,0 2.536497,-0.1530226 3.75,-0.4166666 -0.03792,0.4724093 -0.08333,0.934496 -0.08333,1.4166666 C 37.666671,8.0846161 45.582055,16 55.333337,16 c 9.751284,0 17.666668,-7.9153839 17.666668,-17.6666667 0,-0.4392146 -0.05181,-0.8604972 -0.08334,-1.2916666 2.939445,-3.153588 4.75,-7.3905027 4.75,-12.0416677 0,-9.751282 -7.915384,-17.666665 -17.666667,-17.666665 -4.01631,0 -7.7001,1.366307 -10.666666,3.624999 C 46.297544,-34.383809 40.583652,-38 34,-38 z"
       id="path3615" />
    <path
       sodipodi:type="arc"
       style="fill:#c0c0c0;fill-opacity:0.3764706;fill-rule:nonzero;stroke:none"
       id="path3878"
       sodipodi:cx="-16"
       sodipodi:cy="44"
       sodipodi:rx="8"
       sodipodi:ry="8"
       d="m -8,44 a 8,8 0 1 1 -16,0 8,8 0 1 1 16,0 z"
       transform="matrix(1.7227136,0,0,1.7227136,64.67861,-111.7994)" />
    <path
       style="fill:#c0c0c0;fill-opacity:0.1882353;fill-rule:nonzero;stroke:none"
       d="m 67.104716,-45.045163 c -7.913433,0 -14.328537,6.415105 -14.328537,14.328537 0,3.699239 1.429962,7.047522 3.73139,9.589672 -6.134246,0.446394 -11.190217,4.772674 -12.761353,10.522519 -1.643223,-0.65661 -3.420979,-1.007476 -5.298574,-1.007476 -1.697712,0 -3.302251,0.316253 -4.813493,0.85822 0.0256,-0.285073 0.03731,-0.566482 0.03731,-0.85822 0,-5.275621 -4.276736,-9.552357 -9.552357,-9.552357 -5.275622,0 -9.552358,4.276736 -9.552358,9.552357 0,5.275622 4.276736,9.5523582 9.552358,9.5523582 0.291737,0 0.573146,-0.011711 0.858219,-0.037314 -0.541967,1.51124156 -0.858219,3.1157809 -0.858219,4.8134928 0,7.9134319 6.415104,14.3285369 14.328536,14.3285369 6.602941,0 12.145787,-4.483477 13.806142,-10.5598332 1.643223,0.65661 3.420979,1.0074752 5.298574,1.0074752 7.913432,0 14.328536,-6.4151043 14.328536,-14.3285367 0,-3.6992393 -1.429961,-7.0475213 -3.731389,-9.5896713 7.42085,-0.540024 13.283747,-6.732598 13.283747,-14.291223 0,-7.913432 -6.415104,-14.328537 -14.328536,-14.328537 z"
       id="path3880" />
    <path
       style="fill:#ffffff;fill-opacity:0.1882353;fill-rule:nonzero;stroke:none"
       d="M 37.466667,-64 C 25.39004,-64 15.6,-54.20996 15.6,-42.133333 c 0,4.078516 1.130822,7.878972 3.075,11.146875 -7.913019,1.167255 -14.0083333,7.949057 -14.0083333,16.186458 0,9.0574699 7.3425303,16.4 16.4000003,16.4 9.057469,0 16.4,-7.3425301 16.4,-16.4 0,-1.943148 -0.361973,-3.779654 -0.982292,-5.509375 0.329928,0.01478 0.648716,0.04271 0.982292,0.04271 12.076626,0 21.866666,-9.79004 21.866666,-21.866666 C 59.333333,-54.20996 49.543293,-64 37.466667,-64 z"
       id="path3967" />
    <path
       sodipodi:type="arc"
       style="fill:#ffffff;fill-opacity:0.3764706;fill-rule:nonzero;stroke:none"
       id="path3971"
       sodipodi:cx="-24"
       sodipodi:cy="36"
       sodipodi:rx="8"
       sodipodi:ry="8"
       d="m -16,36 a 8,8 0 1 1 -16,0 8,8 0 1 1 16,0 z"
       transform="matrix(3.4999995,0,0,3.4999995,139.99999,-121.99998)" />
    <path
       sodipodi:type="arc"
       style="fill:#ffffff;fill-opacity:0.25098041;fill-rule:nonzero;stroke:none"
       id="path3973"
       sodipodi:cx="-24"
       sodipodi:cy="36"
       sodipodi:rx="8"
       sodipodi:ry="8"
       d="m -16,36 a 8,8 0 1 1 -16,0 8,8 0 1 1 16,0 z"
       transform="matrix(2.6378878,0,0,2.6378878,136.41241,-129.86086)" />
    <path
       sodipodi:type="arc"
       style="fill:#ffffff;fill-opacity:0.25098041;fill-rule:nonzero;stroke:none"
       id="path3997"
       sodipodi:cx="21.929884"
       sodipodi:cy="62.043407"
       sodipodi:rx="10.070117"
       sodipodi:ry="9.9565945"
       d="m 32.000001,62.043407 a 10.070117,9.9565945 0 1 1 -20.140234,0 10.070117,9.9565945 0 1 1 20.140234,0 z"
       transform="translate(-9.5367432e-7,-56.086813)" />
    <path
       sodipodi:type="star"
       style="fill:#787878;fill-opacity:0.50196078;fill-rule:nonzero;stroke:none"
       id="path6628"
       sodipodi:sides="5"
       sodipodi:cx="16.828047"
       sodipodi:cy="36"
       sodipodi:r1="2.5423467"
       sodipodi:r2="2.0568018"
       sodipodi:arg1="0.71289975"
       sodipodi:arg2="1.3412183"
       inkscape:flatsided="true"
       inkscape:rounded="0"
       inkscape:randomized="0.2"
       d="m 18.800451,38.157627 -3.284398,-0.09459 -1.014327,-2.358624 1.449674,-2.282113 3.068656,1.458696 -0.219605,3.276631 z"
       transform="translate(0.48394744,-58.063037)" />
    <path
       sodipodi:type="star"
       style="fill:#787878;fill-opacity:0.50196078;fill-rule:nonzero;stroke:none"
       id="path6630"
       sodipodi:sides="5"
       sodipodi:cx="54.971619"
       sodipodi:cy="21.636061"
       sodipodi:r1="1.3037275"
       sodipodi:r2="1.0547377"
       sodipodi:arg1="0.66194164"
       sodipodi:arg2="1.2902602"
       inkscape:flatsided="true"
       inkscape:rounded="0"
       inkscape:randomized="0.2"
       d="m 56.235485,22.396096 -1.476864,0.245816 -0.884838,-1.182584 0.710704,-0.947454 1.504637,0.547937 0.146361,1.336285 z"
       transform="translate(2.1262174,-62.641912)" />
    <path
       sodipodi:type="star"
       style="fill:#787878;fill-opacity:0.50196078;fill-rule:nonzero;stroke:none"
       id="path6634"
       sodipodi:sides="5"
       sodipodi:cx="71.479134"
       sodipodi:cy="51.12521"
       sodipodi:r1="2.5034523"
       sodipodi:r2="2.0253356"
       sodipodi:arg1="-0.69473828"
       sodipodi:arg2="-0.066419745"
       inkscape:flatsided="true"
       inkscape:rounded="0"
       inkscape:randomized="0.2"
       d="m 73.759803,49.170681 -0.616779,2.796231 -2.193807,1.811985 -1.948769,-1.99834 1.33358,-2.601384 3.425775,-0.0085 z"
       transform="translate(-5.0004477,-57.170681)" />
    <path
       sodipodi:type="star"
       style="fill:#787878;fill-opacity:0.50196078;fill-rule:nonzero;stroke:none"
       id="path6636"
       sodipodi:sides="5"
       sodipodi:cx="78.691154"
       sodipodi:cy="64.427376"
       sodipodi:r1="2.6673763"
       sodipodi:r2="2.1579528"
       sodipodi:arg1="0.57133748"
       sodipodi:arg2="1.199656"
       inkscape:flatsided="true"
       inkscape:rounded="0"
       inkscape:randomized="0.2"
       d="m 80.904979,66.388192 -3.418546,0.720325 -0.960506,-2.161184 1.028631,-2.963368 3.657456,0.323758 -0.307035,4.080469 z"
       transform="translate(-4.5259271,-53.983965)" />
    <path
       sodipodi:type="star"
       style="fill:#787878;fill-opacity:0.50196078;fill-rule:nonzero;stroke:none"
       id="path6638"
       sodipodi:sides="5"
       sodipodi:cx="36.701168"
       sodipodi:cy="84.621033"
       sodipodi:r1="2.6528926"
       sodipodi:r2="2.1462352"
       sodipodi:arg1="0.43662716"
       sodipodi:arg2="1.0649457"
       inkscape:flatsided="true"
       inkscape:rounded="0"
       inkscape:randomized="0.2"
       d="m 39.42323,85.460082 -3.353934,2.303358 -2.379952,-2.708452 2.220534,-2.788165 2.094893,0.237033 1.418459,2.956226 z"
       transform="translate(4.5767697,-62.266823)" />
    <path
       sodipodi:type="star"
       style="fill:#787878;fill-opacity:0.50196078;fill-rule:nonzero;stroke:none"
       id="path6640"
       sodipodi:sides="5"
       sodipodi:cx="88.307182"
       sodipodi:cy="35.5793"
       sodipodi:r1="2.5034523"
       sodipodi:r2="2.0253356"
       sodipodi:arg1="0.69473828"
       sodipodi:arg2="1.3230568"
       inkscape:flatsided="true"
       inkscape:rounded="0"
       inkscape:randomized="0.2"
       d="m 90.311539,37.463817 -2.874664,0.675343 -1.888943,-2.836174 2.440309,-2.181385 2.647893,1.392988 -0.324595,2.949228 z"
       transform="translate(-3.9882408,-61.121601)" />
    <path
       sodipodi:type="arc"
       style="fill:#a0a0a0;fill-opacity:0.25098041;fill-rule:nonzero;stroke:none"
       id="path6712"
       sodipodi:cx="4.166945"
       sodipodi:cy="59.619366"
       sodipodi:rx="11.619366"
       sodipodi:ry="11.619366"
       d="m 15.786311,59.619366 a 11.619366,11.619366 0 1 1 -23.2387317,0 11.619366,11.619366 0 1 1 23.2387317,0 z"
       transform="matrix(1.1544393,0,0,1.1544393,21.775663,-67.413085)" />
    <path
       style="fill:#a0a0a0;fill-opacity:0.25098041;fill-rule:nonzero;stroke:none"
       d="m 65.638393,-30.857143 c -5.034809,0 -9.187733,3.585031 -10.116072,8.348214 -2.29405,-1.309938 -4.977195,-2.0625 -7.808035,-2.0625 C 39.035525,-24.571429 32,-17.535904 32,-8.8571429 c 0,8.67876119 7.035525,15.7142858 15.714286,15.7142858 8.678761,0 15.714285,-7.03552461 15.714285,-15.7142858 0,-0.5260451 -0.04772,-1.0586572 -0.09821,-1.5714281 0.750227,0.172949 1.505279,0.294642 2.308036,0.294642 5.71596,0 10.361607,-4.645647 10.361607,-10.361607 0,-5.71596 -4.645647,-10.361607 -10.361607,-10.361607 z"
       id="path6714" />
    <path
       style="fill:#a0a0a0;fill-opacity:0.25098041;fill-rule:nonzero;stroke:none"
       d="m 20.442496,-43.499693 c -7.181038,0 -13.002418,5.82138 -13.002418,13.002418 0,7.181037 5.82138,13.002417 13.002418,13.002417 3.694837,0 7.018942,-1.548094 9.38612,-4.022623 0.111522,4.632482 3.914153,8.329674 8.573469,8.329674 4.729537,0 8.532837,-3.803299 8.532837,-8.532836 0,-4.729538 -3.8033,-8.57347 -8.532837,-8.57347 -1.921375,0 -3.690931,0.638054 -5.119702,1.706568 0.09234,-0.625253 0.162531,-1.258813 0.162531,-1.90973 0,-7.181038 -5.821381,-13.002418 -13.002418,-13.002418 z"
       id="path6718" />
    <path
       transform="matrix(0.98231287,0,0,0.98231287,76.492905,-77.978723)"
       d="m 15.786311,59.619366 a 11.619366,11.619366 0 1 1 -23.2387317,0 11.619366,11.619366 0 1 1 23.2387317,0 z"
       sodipodi:ry="11.619366"
       sodipodi:rx="11.619366"
       sodipodi:cy="59.619366"
       sodipodi:cx="4.166945"
       id="path6724"
       style="fill:#a0a0a0;fill-opacity:0.1882353;fill-rule:nonzero;stroke:none"
       sodipodi:type="arc" />
    <path
       sodipodi:type="arc"
       style="fill:#c0c0c0;fill-opacity:0.25098041;fill-rule:nonzero;stroke:none"
       id="path6728"
       sodipodi:cx="-20"
       sodipodi:cy="56"
       sodipodi:rx="4"
       sodipodi:ry="4"
       d="m -16,56 a 4,4 0 1 1 -8,0 4,4 0 1 1 8,0 z"
       transform="matrix(2.628745,0,0,2.628745,86.05992,-152.23092)" />
    <path
       transform="matrix(3,0,0,3,104,-196)"
       d="m -16,56 a 4,4 0 1 1 -8,0 4,4 0 1 1 8,0 z"
       sodipodi:ry="4"
       sodipodi:rx="4"
       sodipodi:cy="56"
       sodipodi:cx="-20"
       id="path6730"
       style="fill:#c0c0c0;fill-opacity:0.25098041;fill-rule:nonzero;stroke:none"
       sodipodi:type="arc" />
    <path
       style="fill:#c0c0c0;fill-opacity:0.25098041;fill-rule:nonzero;stroke:none"
       d="m 63.428571,-1.7142857 c -5.49474,0 -10.125063,3.534267 -11.834821,8.4464286 C 49.587337,5.3766364 47.175056,4.5714286 44.571429,4.5714286 37.62842,4.5714286 32,10.199849 32,17.142857 c 0,6.943008 5.62842,12.571429 12.571429,12.571429 5.49474,0 10.125063,-3.534267 11.834821,-8.446429 2.006413,1.355507 4.418694,2.160714 7.022321,2.160714 C 70.37158,23.428571 76,17.800151 76,10.857143 76,3.9141346 70.37158,-1.7142857 63.428571,-1.7142857 z"
       id="path6732" />
  </g>
</svg>
