<?xml version="1.0" encoding="UTF-8" standalone="no"?>
<!-- Created with Inkscape (http://www.inkscape.org/) -->

<svg
   xmlns:dc="http://purl.org/dc/elements/1.1/"
   xmlns:cc="http://creativecommons.org/ns#"
   xmlns:rdf="http://www.w3.org/1999/02/22-rdf-syntax-ns#"
   xmlns:svg="http://www.w3.org/2000/svg"
   xmlns="http://www.w3.org/2000/svg"
   xmlns:sodipodi="http://sodipodi.sourceforge.net/DTD/sodipodi-0.dtd"
   xmlns:inkscape="http://www.inkscape.org/namespaces/inkscape"
   width="32"
   height="32"
   id="svg3259"
   version="1.1"
   inkscape:version="0.48.5 r10040"
   sodipodi:docname="00.svg">
  <defs
     id="defs3261" />
  <sodipodi:namedview
     id="base"
     pagecolor="#ffffff"
     bordercolor="#666666"
     borderopacity="1.0"
     inkscape:pageopacity="0.0"
     inkscape:pageshadow="2"
     inkscape:zoom="17.21875"
     inkscape:cx="16"
     inkscape:cy="16"
     inkscape:document-units="px"
     inkscape:current-layer="layer1"
     showgrid="true"
     gridtolerance="10000"
     showguides="true"
     inkscape:guide-bbox="true"
     inkscape:window-width="1024"
     inkscape:window-height="768"
     inkscape:window-x="0"
     inkscape:window-y="2"
     inkscape:window-maximized="0"
     guidetolerance="10000"
     objecttolerance="10000">
    <inkscape:grid
       type="xygrid"
       id="grid3267"
       empspacing="4"
       visible="true"
       enabled="true"
       snapvisiblegridlinesonly="true" />
    <sodipodi:guide
       orientation="1,0"
       position="16,36"
       id="guide3269" />
    <sodipodi:guide
       orientation="0,1"
       position="-4,16"
       id="guide3271" />
    <sodipodi:guide
       orientation="-0.70710678,0.70710678"
       position="15,15"
       id="guide3860" />
    <sodipodi:guide
       orientation="-0.70710678,0.70710678"
       position="8,4"
       id="guide3864" />
    <sodipodi:guide
       orientation="-0.70710678,0.70710678"
       position="-4,12"
       id="guide3870" />
  </sodipodi:namedview>
  <metadata
     id="metadata3264">
    <rdf:RDF>
      <cc:Work
         rdf:about="">
        <dc:format>image/svg+xml</dc:format>
        <dc:type
           rdf:resource="http://purl.org/dc/dcmitype/StillImage" />
        <dc:title></dc:title>
      </cc:Work>
    </rdf:RDF>
  </metadata>
  <g
     inkscape:label="Ground level"
     inkscape:groupmode="layer"
     id="layer1"
     transform="translate(0,-1020.3622)">
    <path
       style="fill:red;fill-opacity:0.25098039000000000;stroke:none"
       d="m 60.09375,1021.3949 a 6,6 0 0 0 -4.34375,1.75 6,6 0 0 0 -1.1875,1.7812 12,12 0 0 0 -0.03125,0 12,12 0 0 0 -0.4375,-0.1562 12,12 0 0 0 -2.90625,-0.4063 12,12 0 0 0 -4.375,0.75 4,4 0 0 0 -2.78125,-2.625 4,4 0 0 0 -0.96875,-0.125 4,4 0 0 0 -2.875,1.1875 4,4 0 0 0 0,5.625 4,4 0 0 0 0.78125,0.625 12,12 0 0 0 -1.6875,4.0938 2.2585649,2.2585649 0 0 1 0.1875,0.094 2.2585649,2.2585649 0 0 0 -0.5,-0.1875 2.2585649,2.2585649 0 0 0 -0.5625,-0.063 2.2585649,2.2585649 0 0 0 -1.625,0.6563 2.2585649,2.2585649 0 0 0 0,3.1875 2.2585649,2.2585649 0 0 0 2.375,0.5312 12,12 0 0 0 0.125,0.6563 8,8 0 0 0 0.0625,11.25 8,8 0 0 0 11.3125,0 8,8 0 0 0 1.25,-1.6875 12,12 0 0 0 7.59375,-3.4688 12,12 0 0 0 3.09375,-11.5937 12,12 0 0 0 -0.125,-0.4063 6,6 0 0 0 1.78125,-1.2187 6,6 0 0 0 1.53125,-5.7813 6,6 0 0 0 -4.21875,-4.25 6,6 0 0 0 -1.46875,-0.2187 z m -22.71875,0.9687 a 1.5000021,1.5000021 0 0 0 -0.9375,0.4375 1.5000021,1.5000021 0 0 0 0,2.125 1.5000021,1.5000021 0 0 0 2.125,0 1.5000021,1.5000021 0 0 0 0.375,-1.4375 1.5000021,1.5000021 0 0 0 -1.0625,-1.0625 1.5000021,1.5000021 0 0 0 -0.34375,-0.063 1.5000021,1.5000021 0 0 0 -0.15625,0 z m 4.875,2 a 2.5,2.5 0 0 1 0.25,0 2.5,2.5 0 0 1 0.5,0.063 c -0.162744,-0.033 -0.327411,-0.063 -0.5,-0.063 -0.172589,0 -0.337256,0.029 -0.5,0.063 a 2.5,2.5 0 0 1 0.25,-0.063 z m 16.65625,0.031 c -0.243349,0.01 -0.48801,0.047 -0.71875,0.094 a 4,4 0 0 1 0.71875,-0.094 z m -22.375,0.1562 c 0.03654,0.057 0.07737,0.1086 0.125,0.1563 a 0.93750139,0.93750139 0 0 1 -0.125,-0.1563 z m 10.375,0.9688 a 4,4 0 0 1 0.0625,0.375 4,4 0 0 0 -0.0625,-0.375 z m 14.90625,0.063 a 4,4 0 0 1 0.3125,0.3437 c -0.09531,-0.12 -0.204273,-0.2355 -0.3125,-0.3437 z m -21.75,0.7812 c -0.0333,0.1627 -0.0625,0.3274 -0.0625,0.5 0,0.1726 0.0292,0.3373 0.0625,0.5 a 2.5,2.5 0 0 1 -0.0625,-0.5 2.5,2.5 0 0 1 0.0625,-0.5 z m 4.875,0 a 2.5,2.5 0 0 1 0.03125,0.094 2.5,2.5 0 0 1 0,0.063 c 0.0081,0.052 0.02831,0.1043 0.03125,0.1562 a 2.5,2.5 0 0 1 0,0.1875 2.5,2.5 0 0 1 -0.0625,0.5 c 0.0333,-0.1627 0.0625,-0.3274 0.0625,-0.5 0,-0.1182 -0.01539,-0.23 -0.03125,-0.3437 -0.0073,-0.053 -0.02075,-0.105 -0.03125,-0.1563 z m 18,1.3438 A 4,4 0 0 1 63,1028.3949 c 0,-0.2331 -0.02426,-0.4655 -0.0625,-0.6875 z M 55,1028.3949 c 0,0.233 0.02426,0.4654 0.0625,0.6875 A 4,4 0 0 1 55,1028.3949 z m -13,0.9062 c 0.162744,0.033 0.327411,0.063 0.5,0.063 0.172589,0 0.337256,-0.029 0.5,-0.063 a 2.5,2.5 0 0 1 -0.5,0.063 2.5,2.5 0 0 1 -0.5,-0.063 z m 9.78125,0.25 a 8,8 0 0 1 1.34375,0.4375 c -0.429932,-0.1818 -0.879295,-0.3326 -1.34375,-0.4375 z m 6.46875,2.7813 c 0.241765,0.046 0.494974,0.063 0.75,0.063 a 4,4 0 0 1 -0.75,-0.063 z m -14.71875,0.375 c -0.144638,0.2018 -0.280488,0.4097 -0.40625,0.625 a 8,8 0 0 1 0.40625,-0.625 z M 59,1033.3011 a 6,6 0 0 0 1.09375,0.094 A 6,6 0 0 1 59,1033.3011 z m -19.5,0.7188 a 2.2585649,2.2585649 0 0 1 0.1875,0.125 2.2585649,2.2585649 0 0 0 -0.1875,-0.125 z m 18.125,0.9687 a 8,8 0 0 1 0.15625,0.5 c -0.04126,-0.1725 -0.104016,-0.3321 -0.15625,-0.5 z m 0.375,2.375 a 8,8 0 0 1 -0.09375,1.1563 C 57.960014,1038.1446 58,1037.7537 58,1037.3636 z m -19.40625,0.2188 a 1.4116032,1.4116032 0 0 1 -0.375,0.094 c 0.128503,-0.012 0.258729,-0.05 0.375,-0.094 z m 19.28125,1.125 a 8,8 0 0 1 -0.1875,0.8125 c 0.07593,-0.2712 0.140152,-0.5306 0.1875,-0.8125 z m -0.3125,1.25 a 8,8 0 0 1 -0.3125,0.75 c 0.111245,-0.2419 0.225342,-0.496 0.3125,-0.75 z m -12.5625,0.5 a 5,5 0 0 1 0.9375,0.3125 5,5 0 0 1 0.71875,0.375 c -0.231401,-0.147 -0.463629,-0.2671 -0.71875,-0.375 -0.299096,-0.1266 -0.612012,-0.2459 -0.9375,-0.3125 z m -2.09375,0.031 c -0.290835,0.066 -0.574564,0.1674 -0.84375,0.2813 a 5,5 0 0 1 0.84375,-0.2813 z m 9.3125,0.4688 a 8,8 0 0 1 0.25,0.5625 8,8 0 0 1 0.25,0.7812 8,8 0 0 0 -0.25,-0.7812 8,8 0 0 0 -0.25,-0.5625 z m -4,1.7187 a 5,5 0 0 1 0.375,0.75 c -0.1116,-0.2639 -0.221692,-0.5116 -0.375,-0.75 z m -8.4375,0.031 c -0.146972,0.2314 -0.267093,0.4636 -0.375,0.7187 -0.126507,0.2991 -0.245896,0.612 -0.3125,0.9375 a 5,5 0 0 1 0.3125,-0.9375 5,5 0 0 1 0.375,-0.7187 z m 22.875,1.6562 a 4,4 0 0 0 -2.46875,1.1875 4,4 0 0 0 0,5.625 4,4 0 0 0 5.625,0 4,4 0 0 0 1.0625,-3.8437 4,4 0 0 0 -2.84375,-2.8438 4,4 0 0 0 -0.96875,-0.125 4,4 0 0 0 -0.40625,0 z m -13.6875,0.5 a 5,5 0 0 1 0.03125,0.5 c 0,-0.1726 -0.01418,-0.3319 -0.03125,-0.5 z m -9.96875,0.5 c 0,0.1726 0.01418,0.3319 0.03125,0.5 A 5,5 0 0 1 39,1045.3636 z m 9.90625,1 a 5,5 0 0 1 -0.3125,0.9375 c 0.126507,-0.2991 0.245896,-0.612 0.3125,-0.9375 z m 13.34375,0 a 2.5,2.5 0 0 1 0.25,0 2.5,2.5 0 0 1 0.5,0.063 c -0.162744,-0.033 -0.327411,-0.063 -0.5,-0.063 -0.172589,0 -0.337256,0.029 -0.5,0.063 a 2.5,2.5 0 0 1 0.25,-0.063 z m -22.84375,0.9375 c 0.1116,0.2639 0.221692,0.5116 0.375,0.75 a 5,5 0 0 1 -0.375,-0.75 z m 8.6875,0.9063 a 5,5 0 0 1 -0.5625,0.6875 5,5 0 0 1 -0.75,0.625 5,5 0 0 1 -0.5,0.2812 c 0.172991,-0.09 0.339536,-0.1728 0.5,-0.2812 0.266002,-0.1798 0.523794,-0.3988 0.75,-0.625 0.20581,-0.2059 0.394931,-0.4485 0.5625,-0.6875 z m 9.28125,0.1562 a 1.5000021,1.5000021 0 0 0 -0.9375,0.4375 1.5000021,1.5000021 0 0 0 0,2.125 1.5000021,1.5000021 0 0 0 2.125,0 1.5000021,1.5000021 0 0 0 0.375,-1.4375 1.5000021,1.5000021 0 0 0 -1.0625,-1.0625 1.5000021,1.5000021 0 0 0 -0.34375,-0.063 1.5000021,1.5000021 0 0 0 -0.15625,0 z m 2.6875,0 c -0.0333,0.1627 -0.0625,0.3274 -0.0625,0.5 0,0.1726 0.0292,0.3373 0.0625,0.5 a 2.5,2.5 0 0 1 -0.0625,-0.5 2.5,2.5 0 0 1 0.0625,-0.5 z m 4.875,0 a 2.5,2.5 0 0 1 0.0625,0.5 2.5,2.5 0 0 1 -0.0625,0.5 c 0.0333,-0.1627 0.0625,-0.3274 0.0625,-0.5 0,-0.1726 -0.0292,-0.3373 -0.0625,-0.5 z m -23.59375,1.2188 c 0.231401,0.1469 0.463629,0.267 0.71875,0.375 0.299096,0.1265 0.612012,0.2458 0.9375,0.3125 a 5,5 0 0 1 -0.9375,-0.3125 5,5 0 0 1 -0.71875,-0.375 z m 3.15625,0.75 a 5,5 0 0 1 -0.5,0.031 c 0.172589,0 0.331915,-0.014 0.5,-0.031 z m 12.03125,0.2187 c 0.03654,0.057 0.07737,0.1086 0.125,0.1563 a 0.93750139,0.93750139 0 0 1 -0.125,-0.1563 z m 5.46875,0.75 c 0.162744,0.033 0.327411,0.063 0.5,0.063 0.172589,0 0.337256,-0.029 0.5,-0.063 a 2.5,2.5 0 0 1 -0.5,0.063 2.5,2.5 0 0 1 -0.5,-0.063 z"
       id="path55595"
       inkscape:connector-curvature="0" />
    <path
       inkscape:transform-center-x="-2.5"
       inkscape:connector-curvature="0"
       id="path55669"
       d="m -5,1047.3636 0,-1 -26,0 -1,1 1,0 26,0 z m 0,-2 0,-1 -24,0 -1,1 1,0 24,0 z m 0,-2 0,-1 -22,0 -1,1 1,0 22,0 z m 0,-2 0,-1 -20,0 -1,1 1,0 20,0 z m 0,-2 0,-1 -18,0 -1,1 1,0 18,0 z m 0,-5 0,-1 -13,0 -1,1 14,0 z m 0,-2 0,-1 -11,0 -1,1 12,0 z m 0,-2 0,-1 -9,0 -1,1 10,0 z m 0,-2 0,-1 -7,0 -1,1 8,0 z m 0,-2 0,-1 -5,0 -1,1 6,0 z"
       style="fill:black;fill-opacity:0.50196078;fill-rule:nonzero;stroke:none" />
    <path
       id="path55671"
       d="m -32,1020.3636 0,26 0,1 1,-1 0,-26 -1,0 z m 2,0 0,24 0,1 1,-1 0,-24 -1,0 z m 2,0 0,22 0,1 1,-1 0,-22 -1,0 z m 2,0 0,20 0,1 1,-1 0,-20 -1,0 z m 2,0 0,18 0,1 1,-1 0,-18 -1,0 z m 5,0 0,14 1,-1 0,-13 -1,0 z m 2,0 0,12 1,-1 0,-11 -1,0 z m 2,0 0,10 1,-1 0,-9 -1,0 z m 2,0 0,8 1,-1 0,-7 -1,0 z m 2,0 0,6 1,-1 0,-5 -1,0 z"
       style="fill:black;fill-opacity:0.50196078;fill-rule:nonzero;stroke:none"
       inkscape:connector-curvature="0" />
    <path
       style="fill:red;fill-opacity:0.25098039000000000;stroke:none"
       d="M 37.3125 2.75 C 36.794732 2.75 36.375 3.1697323 36.375 3.6875 C 36.375 4.2052677 36.794732 4.625 37.3125 4.625 C 37.830268 4.625 38.25 4.2052677 38.25 3.6875 C 38.25 3.1697323 37.830268 2.75 37.3125 2.75 z M 42.5 4 C 41.119288 4 40 5.1192881 40 6.5 C 40 7.8807119 41.119288 9 42.5 9 C 43.880712 9 45 7.8807119 45 6.5 C 45 5.1192881 43.880712 4 42.5 4 z M 59 4.03125 C 56.790861 4.03125 55 5.822111 55 8.03125 C 55 10.240389 56.790861 12.03125 59 12.03125 C 61.209139 12.03125 63 10.240389 63 8.03125 C 63 5.822111 61.209139 4.03125 59 4.03125 z M 50 9 C 45.719997 9 42.245817 12.36705 42.03125 16.59375 A 8 8 0 0 1 45.125 16 A 8 8 0 0 1 47.0625 16.28125 A 8 8 0 0 1 52.71875 21.9375 A 8 8 0 0 1 52.96875 24.4375 C 55.921422 23.2606 58 20.3724 58 17 C 58 12.5817 54.418278 9 50 9 z M 38.09375 14.5 C 37.314143 14.5 36.6875 15.126643 36.6875 15.90625 C 36.6875 16.685857 37.314143 17.3125 38.09375 17.3125 C 38.873357 17.3125 39.53125 16.685857 39.53125 15.90625 C 39.53125 15.126643 38.873357 14.5 38.09375 14.5 z M 44 20 C 41.238576 20 39 22.238576 39 25 C 39 27.761424 41.238576 30 44 30 C 46.761424 30 49 27.761424 49 25 C 49 22.238576 46.761424 20 44 20 z M 62.5 26 C 61.119288 26 60 27.119288 60 28.5 C 60 29.880712 61.119288 31 62.5 31 C 63.880712 31 65 29.880712 65 28.5 C 65 27.119288 63.880712 26 62.5 26 z M 57.3125 28.75 C 56.794732 28.75 56.375 29.169732 56.375 29.6875 C 56.375 30.205268 56.794732 30.625 57.3125 30.625 C 57.830268 30.625 58.25 30.205268 58.25 29.6875 C 58.25 29.169732 57.830268 28.75 57.3125 28.75 z "
       transform="translate(0,1020.3622)"
       id="path60871" />
    <path
       inkscape:connector-curvature="0"
       style="fill:black;fill-opacity:0.50196078;fill-rule:nonzero;stroke:none"
       d="m -32,1060.3622 0,26 0,1 1,-1 0,-26 -1,0 z m 2,0 0,24 0,1 1,-1 0,-24 -1,0 z m 2,0 0,22 0,1 1,-1 0,-22 -1,0 z m 2,0 0,20 0,1 1,-1 0,-20 -1,0 z m 2,0 0,18 0,1 1,-1 0,-18 -1,0 z m 5,0 0,14 1,-1 0,-13 -1,0 z m 2,0 0,12 1,-1 0,-11 -1,0 z m 2,0 0,10 1,-1 0,-9 -1,0 z m 2,0 0,8 1,-1 0,-7 -1,0 z m 2,0 0,6 1,-1 0,-5 -1,0 z"
       id="path60890" />
    <path
       id="path60895"
       d="m -10,45 -1,1 6,0 0,-1 z m -2,2 -1,1 8,0 0,-1 z m -2,2 -1,1 10,0 0,-1 z m -2,2 -1,1 12,0 0,-1 z m -2,2 -1,1 14,0 0,-1 z"
       style="fill:black;fill-opacity:0.50196078;fill-rule:nonzero;stroke:none"
       inkscape:connector-curvature="0"
       inkscape:transform-center-x="-9"
       transform="translate(0,1020.3622)"
       sodipodi:nodetypes="ccccccccccccccccccccccccc" />
    <path
       sodipodi:nodetypes="ccccccccccccccccccccccccc"
       inkscape:transform-center-x="-9"
       inkscape:connector-curvature="0"
       style="fill:black;fill-opacity:0.50196078;fill-rule:nonzero;stroke:none"
       d="m -10,1087.3622 -1,-1 6,0 0,1 z m -2,-2 -1,-1 8,0 0,1 z m -2,-2 -1,-1 10,0 0,1 z m -2,-2 -1,-1 12,0 0,1 z m -2,-2 -1,-1 14,0 0,1 z"
       id="path60897" />
    <g
       id="g60904"
       transform="matrix(0,1,-1,0,1055.3622,1097.3622)"
       inkscape:transform-center-y="9">
      <path
         id="path60900"
         d="m -10,45 -1,1 6,0 0,-1 z m -2,2 -1,1 8,0 0,-1 z m -2,2 -1,1 10,0 0,-1 z m -2,2 -1,1 12,0 0,-1 z m -2,2 -1,1 14,0 0,-1 z"
         style="fill:black;fill-opacity:0.50196078;fill-rule:nonzero;stroke:none"
         inkscape:connector-curvature="0"
         inkscape:transform-center-x="-9"
         transform="translate(0,1020.3622)"
         sodipodi:nodetypes="ccccccccccccccccccccccccc" />
      <path
         sodipodi:nodetypes="ccccccccccccccccccccccccc"
         inkscape:transform-center-x="-9"
         inkscape:connector-curvature="0"
         style="fill:black;fill-opacity:0.50196078;fill-rule:nonzero;stroke:none"
         d="m -10,1087.3622 -1,-1 6,0 0,1 z m -2,-2 -1,-1 8,0 0,1 z m -2,-2 -1,-1 10,0 0,1 z m -2,-2 -1,-1 12,0 0,1 z m -2,-2 -1,-1 14,0 0,1 z"
         id="path60902" />
    </g>
    <path
       id="path14540"
       d="m 16,984.3622 c -8.832,0 -16,7.168 -16,16 l 0,16 16,0 16,0 0,-16 c 0,-8.832 -7.168,-16 -16,-16 z"
       style="fill:black;fill-opacity:1;fill-rule:nonzero;stroke:none"
       inkscape:connector-curvature="0" />
    <path
       id="path14542"
       d="m 16,985.3622 c -8.28,0 -15,6.72 -15,15 l 0,15 15,0 15,0 0,-15 c 0,-8.28 -6.72,-15 -15,-15 z"
       style="fill:#d0aa00;fill-opacity:1;fill-rule:nonzero;stroke:none"
       inkscape:connector-curvature="0" />
    <path
       sodipodi:nodetypes="ccccc"
       id="path14544"
       d="m 4,994.3622 2,-3 0,22 -2,0 0,-19 z"
       style="fill:#e6be00;fill-opacity:1;fill-rule:nonzero;stroke:none"
       inkscape:connector-curvature="0" />
    <path
       sodipodi:nodetypes="ccccc"
       id="path14546"
       d="m 24,989.3622 2,2 0,22 -2,0 0,-24 z"
       style="fill:#e6be00;fill-opacity:1;fill-rule:nonzero;stroke:none"
       inkscape:connector-curvature="0" />
    <path
       style="fill:red;fill-opacity:0.25098039;stroke:none"
       d="M 16 -35 C 15.662173 -35 15.332283 -34.990773 15 -34.96875 L 15 -5 L 16 -5 L 20 -5 L 20 -34.4375 C 18.727669 -34.788664 17.383511 -35 16 -35 z "
       transform="translate(0,1020.3622)"
       id="rect4525" />
    <path
       style="fill:#e6be00;fill-opacity:1;fill-rule:nonzero;stroke:none"
       d="m 19,987.3622 2,0 0,26 -2,0 0,-26 z"
       id="path14548"
       sodipodi:nodetypes="ccccc"
       inkscape:connector-curvature="0" />
    <path
       sodipodi:nodetypes="ccccc"
       id="path14550"
       d="m 6,1013.3622 -1,0 0,-21 1,-1 0,22 z"
       style="fill:#805500;fill-opacity:1;fill-rule:nonzero;stroke:none"
       inkscape:connector-curvature="0" />
    <path
       id="path14552"
       d="M 6.09375,990.45595 C 3.55975,992.98995 2,996.4982 2,1000.3622 l 1,0 c 0,-3.588 1.4595,-6.8345 3.8125,-9.1875 l -0.71875,-0.71875 z"
       style="fill:#aa8000;fill-opacity:1;fill-rule:nonzero;stroke:none"
       inkscape:connector-curvature="0" />
    <path
       style="fill:#e6be00;fill-opacity:1;fill-rule:nonzero;stroke:none"
       d="m 9,988.3622 2,0 0,25 -2,0 0,-25 z"
       id="path14558"
       sodipodi:nodetypes="ccccc"
       inkscape:connector-curvature="0" />
    <path
       style="fill:#805500;fill-opacity:1;fill-rule:nonzero;stroke:none"
       d="m 11,1013.3622 -1,0 0,-24.99983 1,0 0,24.99983 z"
       id="path14560"
       sodipodi:nodetypes="ccccc"
       inkscape:connector-curvature="0" />
    <g
       id="g4732">
      <rect
         y="997.36218"
         x="1"
         height="13"
         width="7"
         id="rect14554"
         style="fill:black;fill-opacity:0.99678458;fill-rule:nonzero;stroke:none" />
      <rect
         style="fill:silver;fill-opacity:1;fill-rule:nonzero;stroke:none"
         id="rect14556"
         width="6"
         height="11"
         x="1"
         y="998.36218" />
      <path
         inkscape:connector-curvature="0"
         style="fill:black;fill-opacity:1;fill-rule:nonzero;stroke:none"
         d="m 4,999.3622 c -1.093063,0 -2,0.9069 -2,2 0,1.0931 0.906937,2 2,2 0.702291,0 1.205054,-0.4424 1.5625,-1 l 5.4375,0 c 0.817063,0 1.5,-0.6829 1.5,-1.5 0,-0.8171 -0.682937,-1.5 -1.5,-1.5 l -7,0 z"
         id="path14562" />
      <path
         inkscape:connector-curvature="0"
         style="fill:silver;fill-opacity:1;fill-rule:nonzero;stroke:none"
         d="m 4,1000.3622 c -0.552,0 -1,0.448 -1,1 0,0.552 0.448,1 1,1 0.552,0 1,-0.448 1,-1 l 6,0 c 0.276,0 0.5,-0.224 0.5,-0.5 0,-0.276 -0.224,-0.5 -0.5,-0.5 l -7,0 z"
         id="path14564" />
      <path
         inkscape:connector-curvature="0"
         style="fill:black;fill-opacity:1;fill-rule:nonzero;stroke:none"
         d="m 4,1004.3622 c -0.552,0 -1,0.448 -1,1 0,0.3648 0.207994,0.6691 0.5,0.8438 l 0,1.1562 c 0,0.276 0.224,0.5 0.5,0.5 0.276,0 0.5,-0.224 0.5,-0.5 l 0,-1.1562 c 0.292006,-0.1747 0.5,-0.479 0.5,-0.8438 0,-0.552 -0.448,-1 -1,-1 z"
         id="path14566" />
    </g>
    <rect
       y="1010.3622"
       x="2"
       height="3"
       width="1"
       id="rect14580"
       style="fill:#aa8000;fill-opacity:1;fill-rule:nonzero;stroke:none" />
    <path
       sodipodi:nodetypes="ccccc"
       id="path14582"
       d="m 14,987.3622 2,0 0,26 -2,0 0,-26 z"
       style="fill:#e6be00;fill-opacity:1;fill-rule:nonzero;stroke:none"
       inkscape:connector-curvature="0" />
    <path
       id="path14584"
       d="m 16,986.3622 0,1 c 7.176,0 13,5.824 13,13 l 1,0 c 0,-7.728 -6.272,-14 -14,-14 z"
       style="fill:#805500;fill-opacity:1;fill-rule:nonzero;stroke:none"
       inkscape:connector-curvature="0" />
    <path
       sodipodi:nodetypes="ccccc"
       id="path14586"
       d="m 26,1013.3622 -1,0 0,-23 1,1 0,22 z"
       style="fill:#805500;fill-opacity:1;fill-rule:nonzero;stroke:none"
       inkscape:connector-curvature="0" />
    <path
       style="fill:#805500;fill-opacity:1;fill-rule:nonzero;stroke:none"
       d="m 21,1013.3622 -1,0 0,-26 1,0 0,26 z"
       id="path14588"
       sodipodi:nodetypes="ccccc"
       inkscape:connector-curvature="0" />
    <path
       sodipodi:nodetypes="ccccc"
       id="path14590"
       d="m 29,1000.3622 1,0 0,14 -1,-1 0,-13 z"
       style="fill:#805500;fill-opacity:1;fill-rule:nonzero;stroke:none"
       inkscape:connector-curvature="0" />
    <path
       sodipodi:nodetypes="ccccc"
       id="path14592"
       d="m 2,1013.3622 27,0 1,1 -28,0 0,-1 z"
       style="fill:#e6be00;fill-opacity:1;fill-rule:nonzero;stroke:none"
       inkscape:connector-curvature="0" />
    <path
       id="path14594"
       d="m 16,986.3622 c -3.864,0 -7.37225,1.55975 -9.90625,4.09375 l 0.71875,0.71875 c 2.353,-2.353 5.5995,-3.8125 9.1875,-3.8125 l 0,-1 z"
       style="fill:#805500;fill-opacity:1;fill-rule:nonzero;stroke:none"
       inkscape:connector-curvature="0" />
    <path
       sodipodi:nodetypes="ccccc"
       id="path14596"
       d="m 16,1013.3622 -1,0 0,-26 1,0 0,26 z"
       style="fill:#805500;fill-opacity:1;fill-rule:nonzero;stroke:none"
       inkscape:connector-curvature="0" />
    <rect
       y="980.36218"
       x="-13"
       height="40"
       width="5"
       id="rect3747"
       style="fill:red;fill-opacity:0.25098039;stroke:none" />
    <path
       style="fill:#805500;fill-opacity:1;fill-rule:nonzero;stroke:none"
       d="M 16 -34 L 16 -33 C 17.03069 -33 18.038343 -32.883293 19 -32.65625 L 19 -33.65625 C 18.029105 -33.86954 17.03465 -34 16 -34 z "
       transform="translate(0,1020.3622)"
       id="path4520" />
    <path
       inkscape:connector-curvature="0"
       sodipodi:nodetypes="ccccc"
       id="path4530"
       d="m 19,987.3622 1,0 0,26 -1,0 0,-26 z"
       style="fill:#e6be00;fill-opacity:1;fill-rule:nonzero;stroke:none" />
    <path
       inkscape:connector-curvature="0"
       style="fill:#805500;fill-opacity:1;fill-rule:nonzero;stroke:none"
       d="m 16,1013.3622 -1,0 0,-26 1,0 0,26 z"
       id="path4532"
       sodipodi:nodetypes="ccccc" />
    <path
       style="fill:#805500;fill-opacity:1;fill-rule:nonzero;stroke:none"
       d="M 16 -34 C 15.664178 -34 15.330041 -33.991929 15 -33.96875 L 15 -32.96875 C 15.327186 -32.993519 15.666469 -33 16 -33 C 17.390897 -33 18.743253 -32.780035 20 -32.375 L 20 -33.40625 C 18.729347 -33.785925 17.39359 -34 16 -34 z "
       transform="translate(0,1020.3622)"
       id="path4534" />
    <path
       style="fill:#e6be00;fill-opacity:1;fill-rule:nonzero;stroke:none"
       d="M 15 -7 L 15 -6 L 20 -6 L 20 -7 L 15 -7 z "
       transform="translate(0,1020.3622)"
       id="path4542" />
    <path
       id="path4568"
       transform="translate(0,1020.3622)"
       d="M 16 -35 C 15.662173 -35 15.332283 -34.990773 15 -34.96875 L 15 -5 L 16 -5 L 20 -5 L 20 -34.4375 C 18.727669 -34.788664 17.383511 -35 16 -35 z "
       style="fill:red;fill-opacity:0.25098039;stroke:none" />
    <path
       inkscape:connector-curvature="0"
       sodipodi:nodetypes="ccccc"
       id="path4570"
       d="m 19,987.3622 2,0 0,26 -2,0 0,-26 z"
       style="fill:#e6be00;fill-opacity:1;fill-rule:nonzero;stroke:none" />
    <path
       inkscape:connector-curvature="0"
       style="fill:#e6be00;fill-opacity:1;fill-rule:nonzero;stroke:none"
       d="m 14,987.3622 2,0 0,26 -2,0 0,-26 z"
       id="path4572"
       sodipodi:nodetypes="ccccc" />
    <path
       inkscape:connector-curvature="0"
       sodipodi:nodetypes="ccccc"
       id="path4574"
       d="m 21,1013.3622 -1,0 0,-26 1,0 0,26 z"
       style="fill:#805500;fill-opacity:1;fill-rule:nonzero;stroke:none" />
    <path
       inkscape:connector-curvature="0"
       style="fill:#805500;fill-opacity:1;fill-rule:nonzero;stroke:none"
       d="m 16,1013.3622 -1,0 0,-26 1,0 0,26 z"
       id="path4576"
       sodipodi:nodetypes="ccccc" />
    <path
       id="path4578"
       transform="translate(0,1020.3622)"
       d="M 16 -34 L 16 -33 C 17.03069 -33 18.038343 -32.883293 19 -32.65625 L 19 -33.65625 C 18.029105 -33.86954 17.03465 -34 16 -34 z "
       style="fill:#805500;fill-opacity:1;fill-rule:nonzero;stroke:none" />
    <path
       style="fill:#e6be00;fill-opacity:1;fill-rule:nonzero;stroke:none"
       d="m 19,987.3622 1,0 0,26 -1,0 0,-26 z"
       id="path4580"
       sodipodi:nodetypes="ccccc"
       inkscape:connector-curvature="0" />
    <path
       sodipodi:nodetypes="ccccc"
       id="path4582"
       d="m 16,1013.3622 -1,0 0,-26 1,0 0,26 z"
       style="fill:#805500;fill-opacity:1;fill-rule:nonzero;stroke:none"
       inkscape:connector-curvature="0" />
    <path
       id="path4584"
       transform="translate(0,1020.3622)"
       d="M 16 -34 C 15.664178 -34 15.330041 -33.991929 15 -33.96875 L 15 -32.96875 C 15.327186 -32.993519 15.666469 -33 16 -33 C 17.390897 -33 18.743253 -32.780035 20 -32.375 L 20 -33.40625 C 18.729347 -33.785925 17.39359 -34 16 -34 z "
       style="fill:#805500;fill-opacity:1;fill-rule:nonzero;stroke:none" />
    <path
       id="path4586"
       transform="translate(0,1020.3622)"
       d="M 15 -7 L 15 -6 L 20 -6 L 20 -7 L 15 -7 z "
       style="fill:#e6be00;fill-opacity:1;fill-rule:nonzero;stroke:none" />
    <path
       id="path4621"
       d="m 25,1057.3625 c -0.337827,0 -0.667717,0.01 -1,0.031 l 0,29.9687 1,0 4,0 0,-29.4375 c -1.272331,-0.3512 -2.616489,-0.5625 -4,-0.5625 z"
       style="fill:#d0aa00;fill-opacity:1;stroke:none"
       inkscape:connector-curvature="0" />
    <path
       inkscape:connector-curvature="0"
       style="fill:#805500;fill-opacity:1;fill-rule:nonzero;stroke:none"
       d="m 25,1085.3625 -1,0 0,-26 1,0 0,26 z"
       id="path4623"
       sodipodi:nodetypes="ccccc" />
    <path
       id="path4625"
       d="m 25,1058.3625 0,1 c 1.03069,0 2.038343,0.1167 3,0.3438 l 0,-1 c -0.970895,-0.2133 -1.96535,-0.3438 -3,-0.3438 z"
       style="fill:#805500;fill-opacity:1;fill-rule:nonzero;stroke:none"
       inkscape:connector-curvature="0" />
    <path
       style="fill:#e6be00;fill-opacity:1;fill-rule:nonzero;stroke:none"
       d="m 28,1059.3625 1,0 0,26 -1,0 0,-26 z"
       id="path4627"
       sodipodi:nodetypes="ccccc"
       inkscape:connector-curvature="0" />
    <path
       sodipodi:nodetypes="ccccc"
       id="path4629"
       d="m 25,1085.3625 -1,0 0,-26 1,0 0,26 z"
       style="fill:#805500;fill-opacity:1;fill-rule:nonzero;stroke:none"
       inkscape:connector-curvature="0" />
    <path
       id="path4631"
       d="m 25,1058.3625 c -0.335822,0 -0.669959,0.01 -1,0.031 l 0,1 c 0.327186,-0.025 0.666469,-0.031 1,-0.031 1.390897,0 2.743253,0.22 4,0.625 l 0,-1.0312 c -1.270653,-0.3797 -2.60641,-0.5938 -4,-0.5938 z"
       style="fill:#805500;fill-opacity:1;fill-rule:nonzero;stroke:none"
       inkscape:connector-curvature="0" />
    <path
       id="path4633"
       d="m 24,1085.3625 0,1 5,0 0,-1 -5,0 z"
       style="fill:#e6be00;fill-opacity:1;fill-rule:nonzero;stroke:none"
       inkscape:connector-curvature="0" />
    <path
       inkscape:connector-curvature="0"
       id="path4635"
       d="m 24,1080.3622 1,-4 0,2 1,-3 0,4 1,-1 0,2 1,-4 0,3 1,-5 0,14 -5,0 z"
       style="fill:red;fill-opacity:0.25098039;stroke:none" />
    <path
       style="fill:red;fill-opacity:0.25098039;stroke:none"
       d="m 24,1080.3622 1,-4 0,2 1,-3 0,4 1,-1 0,2 1,-4 0,3 1,-5 0,14 -5,0 z"
       id="path4637"
       inkscape:connector-curvature="0" />
    <path
       inkscape:connector-curvature="0"
       id="path4639"
       d="m 24,1080.3622 1,-4 0,2 1,-3 0,4 1,-1 0,2 1,-4 0,3 1,-5 0,14 -5,0 z"
       style="fill:red;fill-opacity:0.25098039;stroke:none" />
    <path
       style="fill:red;fill-opacity:0.25098039;stroke:none"
       d="m 24,1080.3622 1,-4 0,2 1,-3 0,4 1,-1 0,2 1,-4 0,3 1,-5 0,14 -5,0 z"
       id="path4641"
       inkscape:connector-curvature="0" />
    <g
       id="g4716">
      <path
         sodipodi:nodetypes="cccccccccccccccccccccccccccccc"
         inkscape:connector-curvature="0"
         id="path4707"
         d="m 16.96875,1064.1122 -1.96875,-0.75 0,1 0,13 0,0.25 0.09375,0.1875 1,2 0.75,-0.1875 0.15625,0.75 1,1 0.59375,-0.9687 0.84375,0.8125 0.5,-1.5313 0.375,-1.0937 0.625,0.094 1,-3 0.0625,-0.1562 0,-0.1563 0,-8 0,-2.4062 -1,0.9687 0,-1.4062 0,-1.1566 -2,0.8441 -0.15625,1 -0.8125,-0.094 -0.25,0.9688 -0.34375,-0.063 -0.46875,-1.9063 z"
         style="font-size:medium;font-style:normal;font-variant:normal;font-weight:normal;font-stretch:normal;text-indent:0;text-align:start;text-decoration:none;line-height:normal;letter-spacing:normal;word-spacing:normal;text-transform:none;direction:ltr;block-progression:tb;writing-mode:lr-tb;text-anchor:start;baseline-shift:baseline;color:black;fill:black;fill-opacity:1;fill-rule:nonzero;stroke:none;stroke-width:2;marker:none;visibility:visible;display:inline;overflow:visible;enable-background:accumulate;font-family:Sans;-inkscape-font-specification:Sans" />
      <path
         id="path4665"
         transform="translate(0,1020.3622)"
         d="M 16 44 L 16 57 L 17 59 L 17 55 L 18 60 L 18 58 L 19 59 L 20 56 L 20 58 L 21 55 L 21 47 L 20 48 L 20 44 L 19 50 L 19 45 L 18 49 L 18 46 L 17 48 L 16 44 z "
         style="fill:#d0aa00;fill-opacity:1;stroke:none" />
      <path
         id="path4671"
         transform="translate(0,1020.3622)"
         d="M 21 47 L 20 48 L 20 56 L 20 58 L 21 55 L 21 47 z "
         style="fill:#e6be00;fill-opacity:1;fill-rule:nonzero;stroke:none" />
      <path
         id="path4673"
         transform="translate(0,1020.3622)"
         d="M 16 44 L 16 57 L 17 59 L 17 55 L 17 48 L 16 44 z "
         style="fill:#805500;fill-opacity:1;fill-rule:nonzero;stroke:none" />
    </g>
    <g
       id="g4949">
      <rect
         y="1020.3622"
         x="0"
         height="32"
         width="32"
         id="rect10063"
         style="fill:none;stroke:none" />
      <path
         id="path3093"
         d="m 16.1875,1024.3622 a 12,12 0 0 0 -4.375,0.75 4,4 0 0 1 0.0625,0.2188 4,4 0 0 1 -1.0625,3.8437 4,4 0 0 1 -1.15625,0.8438 l 0.78125,0.7812 a 8,8 0 0 1 4.5625,-1.4375 8,8 0 0 1 8,8 8,8 0 0 1 -1.4375,4.5625 l 2.9375,2.9375 a 12,12 0 0 0 3.09375,-11.5937 12,12 0 0 0 -0.125,-0.4063 6,6 0 0 1 -6.71875,-1.2187 6,6 0 0 1 -1.1875,-6.7188 12,12 0 0 0 -0.46875,-0.1562 12,12 0 0 0 -2.90625,-0.4063 z m -6.34375,1.6875 c 0.044986,0.129 0.097184,0.2714 0.125,0.4063 a 2.5,2.5 0 0 0 -0.09375,-0.4063 12,12 0 0 0 -0.03125,0 z m 0.125,0.4063 C 9.996566,1026.5908 10,1026.7179 10,1026.8622 a 2.5,2.5 0 0 0 -0.03125,-0.4062 z m 11.78125,5.25 a 4,4 0 0 0 0.6875,0.375 c -0.239277,-0.1013 -0.474699,-0.2313 -0.6875,-0.375 z"
         style="fill:black;fill-opacity:0.25098039;stroke:none"
         inkscape:connector-curvature="0" />
      <path
         id="path3850"
         d="m 5.96875,1029.7997 a 12,12 0 0 0 -1.6875,4.0938 2.2585649,2.2585649 0 0 1 1.28125,1.5 2.2585649,2.2585649 0 0 1 -0.5625,2.1875 2.2585649,2.2585649 0 0 1 -0.84375,0.5312 12,12 0 0 0 0.125,0.6563 8,8 0 0 1 0.0625,-0.063 8,8 0 0 1 2.65625,-1.75 8,8 0 0 1 0.03125,0 8,8 0 0 1 3.40625,-6.1563 l -0.78125,-0.7812 -0.03125,0 a 4,4 0 0 1 -3.65625,-0.2188 z m 1.6875,10.75 a 5,5 0 0 0 -0.59375,0.2188 c 0.1914214,-0.081 0.390295,-0.1587 0.59375,-0.2188 z m 13.90625,1.375 a 8,8 0 0 1 -3.59375,2.8438 8,8 0 0 1 -1.0625,3.5625 12,12 0 0 0 7.59375,-3.4688 l -2.9375,-2.9375 z"
         style="fill:#f0f0f0;fill-opacity:0.25098039;stroke:none"
         inkscape:connector-curvature="0" />
      <path
         id="path3858"
         d="m 15,1029.3622 c -4.280003,0 -7.7541826,3.3671 -7.96875,7.5938 a 8,8 0 0 1 3.09375,-0.5938 8,8 0 0 1 1.9375,0.2813 8,8 0 0 1 5.65625,5.6562 8,8 0 0 1 0.25,2.5 C 20.921422,1043.6228 23,1040.7346 23,1037.3622 c 0,-4.4183 -3.581722,-8 -8,-8 z m -1.78125,13.3125 c 0.153308,0.2384 0.2634,0.4861 0.375,0.75 a 5,5 0 0 0 -0.375,-0.75 z"
         style="fill:gray;fill-opacity:0.25098039;stroke:none"
         inkscape:connector-curvature="0" />
      <path
         id="path3856"
         d="m 4.34375,1038.706 a 8,8 0 0 0 0,11.3125 8,8 0 0 0 11.3125,0 l -2.265625,-2.2657 A 5,5 0 0 1 9,1050.3622 a 5,5 0 0 1 -5,-5 5,5 0 0 1 2.6132812,-4.3867 L 4.34375,1038.706 z"
         style="fill:#f0f0f0;fill-opacity:0.25098039;stroke:none"
         inkscape:connector-curvature="0" />
      <path
         id="path3095"
         d="m 10.117188,1036.3622 a 8,8 0 0 0 -5.773438,2.3438 l 2.2695312,2.2695 A 5,5 0 0 1 9,1040.3622 a 5,5 0 0 1 5,5 5,5 0 0 1 -0.609375,2.3906 l 2.265625,2.2657 a 8,8 0 0 0 2.070312,-7.7266 8,8 0 0 0 -5.65625,-5.6563 8,8 0 0 0 -1.953124,-0.2734 z"
         style="fill:black;fill-opacity:0.25098039;stroke:none"
         inkscape:connector-curvature="0" />
      <circle
         transform="translate(-2,0)"
         sodipodi:ry="5"
         sodipodi:rx="5"
         sodipodi:cy="1045.3622"
         sodipodi:cx="11"
         d="m 16,1045.3622 c 0,2.7614 -2.238576,5 -5,5 -2.7614237,0 -5,-2.2386 -5,-5 0,-2.7614 2.2385763,-5 5,-5 2.761424,0 5,2.2386 5,5 z"
         style="fill:gray;fill-opacity:0.25098039;stroke:none"
         id="path3862"
         cx="11"
         cy="1045.3622"
         r="5" />
      <path
         inkscape:connector-curvature="0"
         id="path3852"
         d="m 8.0585938,1022.3622 a 4,4 0 0 0 -2.8867188,1.1719 l 1.1347656,1.1347 A 2.5,2.5 0 0 1 7.5,1024.3622 a 2.5,2.5 0 0 1 2.5,2.5 2.5,2.5 0 0 1 -0.3046875,1.1953 l 1.1328125,1.1328 a 4,4 0 0 0 1.035156,-3.8633 4,4 0 0 0 -2.8281248,-2.8281 4,4 0 0 0 -0.9765624,-0.1367 z"
         style="fill:black;fill-opacity:0.25098039;stroke:none" />
      <path
         id="path3091"
         d="m 5.171875,1023.5341 a 4,4 0 0 0 0,5.6562 4,4 0 0 0 5.65625,0 l -1.1328125,-1.1328 A 2.5,2.5 0 0 1 7.5,1029.3622 a 2.5,2.5 0 0 1 -2.5,-2.5 2.5,2.5 0 0 1 1.3066406,-2.1934 l -1.1347656,-1.1347 z"
         style="fill:#f0f0f0;fill-opacity:0.25098039;stroke:none"
         inkscape:connector-curvature="0" />
      <circle
         transform="translate(0,-2)"
         sodipodi:ry="2.5"
         sodipodi:rx="2.5"
         sodipodi:cy="1028.8622"
         sodipodi:cx="7.5"
         d="m 10,1028.8622 c 0,1.3807 -1.1192881,2.5 -2.5,2.5 -1.3807119,0 -2.5,-1.1193 -2.5,-2.5 0,-1.3807 1.1192881,-2.5 2.5,-2.5 1.3807119,0 2.5,1.1193 2.5,2.5 z"
         style="fill:gray;fill-opacity:0.25098039;stroke:none"
         id="path3866"
         cx="7.5"
         cy="1028.8622"
         r="2.5" />
      <path
         id="path3097"
         d="m 28.058594,1044.3622 a 4,4 0 0 0 -2.886719,1.1719 l 1.134766,1.1347 a 2.5,2.5 0 0 1 1.193359,-0.3066 2.5,2.5 0 0 1 2.5,2.5 2.5,2.5 0 0 1 -0.304688,1.1953 l 1.132813,1.1328 a 4,4 0 0 0 1.035156,-3.8633 4,4 0 0 0 -2.828125,-2.8281 4,4 0 0 0 -0.976562,-0.1367 z"
         style="fill:black;fill-opacity:0.25098039;stroke:none"
         inkscape:connector-curvature="0" />
      <path
         id="path3099"
         d="m 25.171875,1045.5341 a 4,4 0 0 0 0,5.6562 4,4 0 0 0 5.65625,0 l -1.132813,-1.1328 a 2.5,2.5 0 0 1 -2.195312,1.3047 2.5,2.5 0 0 1 -2.5,-2.5 2.5,2.5 0 0 1 1.306641,-2.1934 l -1.134766,-1.1347 z"
         style="fill:#f0f0f0;fill-opacity:0.25098039;stroke:none"
         inkscape:connector-curvature="0" />
      <circle
         transform="translate(2,4)"
         sodipodi:ry="2.5"
         sodipodi:rx="2.5"
         sodipodi:cy="1044.8622"
         sodipodi:cx="25.5"
         d="m 28,1044.8622 c 0,1.3807 -1.119288,2.5 -2.5,2.5 -1.380712,0 -2.5,-1.1193 -2.5,-2.5 0,-1.3807 1.119288,-2.5 2.5,-2.5 1.380712,0 2.5,1.1193 2.5,2.5 z"
         id="path3101"
         style="fill:gray;fill-opacity:0.25098039;stroke:none"
         cx="25.5"
         cy="1044.8622"
         r="2.5" />
      <path
         id="path4196"
         d="m 3.4199219,1033.7274 a 2.2585649,2.2585649 0 0 0 -1.6289063,0.6621 l 0.640625,0.6407 a 1.4116032,1.4116032 0 0 1 0.6738282,-0.1739 1.4116032,1.4116032 0 0 1 1.4121093,1.4122 1.4116032,1.4116032 0 0 1 -0.1738281,0.6738 l 0.640625,0.6406 a 2.2585649,2.2585649 0 0 0 0.5859375,-2.1816 2.2585649,2.2585649 0 0 0 -1.5976563,-1.5977 2.2585649,2.2585649 0 0 0 -0.5527343,-0.076 z"
         style="fill:black;fill-opacity:0.25098039;stroke:none"
         inkscape:connector-curvature="0" />
      <path
         id="path4198"
         d="m 1.7910156,1034.3895 a 2.2585649,2.2585649 0 0 0 0,3.1934 2.2585649,2.2585649 0 0 0 3.1933594,0 l -0.640625,-0.6406 a 1.4116032,1.4116032 0 0 1 -1.2382812,0.7383 1.4116032,1.4116032 0 0 1 -1.4121094,-1.4121 1.4116032,1.4116032 0 0 1 0.7382812,-1.2383 l -0.640625,-0.6407 z"
         style="fill:#f0f0f0;fill-opacity:0.25098039;stroke:none"
         inkscape:connector-curvature="0" />
      <circle
         transform="translate(-2,-2)"
         sodipodi:ry="1.4116032"
         sodipodi:rx="1.4116032"
         sodipodi:cy="1038.2683"
         sodipodi:cx="5.1055269"
         d="m 6.5171301,1038.2683 c 0,0.7796 -0.6319962,1.4116 -1.4116032,1.4116 -0.7796069,0 -1.4116032,-0.632 -1.4116032,-1.4116 0,-0.7796 0.6319963,-1.4116 1.4116032,-1.4116 0.779607,0 1.4116032,0.632 1.4116032,1.4116 z"
         r="1.4116032"
         cy="1038.2683"
         cx="5.1055269"
         id="path4200"
         style="fill:gray;fill-opacity:0.25098039;stroke:none" />
      <path
         id="path5218"
         d="m 25.086984,1021.3999 a 6,6 0 0 0 -4.330078,1.7578 l 1.599609,1.5996 a 4,4 0 0 1 1.642578,-0.3574 4,4 0 0 1 4,4 4,4 0 0 1 -0.357421,1.6426 l 1.599609,1.5996 a 6,6 0 0 0 1.552734,-5.7949 6,6 0 0 0 -4.242187,-4.2442 6,6 0 0 0 -1.464844,-0.2031 z"
         style="fill:black;fill-opacity:0.25098039;stroke:none"
         inkscape:connector-curvature="0" />
      <circle
         transform="translate(22.133859,0.32091688)"
         sodipodi:ry="4"
         sodipodi:rx="4"
         sodipodi:cy="1028.0785"
         sodipodi:cx="1.8653295"
         d="m 5.8653295,1028.0785 c 0,2.2091 -1.790861,4 -4,4 -2.209139,0 -4,-1.7909 -4,-4 0,-2.2091 1.790861,-4 4,-4 2.209139,0 4,1.7909 4,4 z"
         r="4"
         cy="1028.0785"
         cx="1.8653295"
         style="fill:gray;fill-opacity:0.25098039;stroke:none"
         id="circle5220" />
      <path
         inkscape:connector-curvature="0"
         style="fill:black;fill-opacity:0.25098039;stroke:none"
         d="m 2.5209177,1022.3626 a 1.5000021,1.5000021 0 0 0 -1.0818209,0.4397 l 0.4254643,0.4255 a 0.93750139,0.93750139 0 0 1 0.4475159,-0.1155 0.93750139,0.93750139 0 0 1 0.9378375,0.9378 0.93750139,0.93750139 0 0 1 -0.1154461,0.4476 l 0.4254643,0.4254 a 1.5000021,1.5000021 0 0 0 0.3891443,-1.4489 1.5000021,1.5000021 0 0 0 -1.0610666,-1.0611 1.5000021,1.5000021 0 0 0 -0.3670927,-0.05 z"
         id="path5290" />
      <path
         inkscape:connector-curvature="0"
         style="fill:#f0f0f0;fill-opacity:0.25098039;stroke:none"
         d="m 1.4390968,1022.8023 a 1.5000021,1.5000021 0 0 0 0,2.1208 1.5000021,1.5000021 0 0 0 2.1208359,0 l -0.4254643,-0.4254 a 0.93750139,0.93750139 0 0 1 -0.8223914,0.4903 0.93750139,0.93750139 0 0 1 -0.9378376,-0.9379 0.93750139,0.93750139 0 0 1 0.4903217,-0.8223 l -0.4254643,-0.4255 z"
         id="path5292" />
      <circle
         transform="matrix(0.66413946,0,0,0.66413946,-1.0786663,334.49508)"
         sodipodi:ry="1.4116032"
         sodipodi:rx="1.4116032"
         sodipodi:cy="1038.2683"
         sodipodi:cx="5.1055269"
         d="m 6.5171301,1038.2683 c 0,0.7796 -0.6319962,1.4116 -1.4116032,1.4116 -0.7796069,0 -1.4116032,-0.632 -1.4116032,-1.4116 0,-0.7796 0.6319963,-1.4116 1.4116032,-1.4116 0.779607,0 1.4116032,0.632 1.4116032,1.4116 z"
         style="fill:gray;fill-opacity:0.25098039;stroke:none"
         id="circle5294"
         cx="5.1055269"
         cy="1038.2683"
         r="1.4116032" />
      <path
         id="path5298"
         d="m 22.520918,1048.3626 a 1.5000021,1.5000021 0 0 0 -1.081821,0.4397 l 0.425464,0.4255 a 0.93750139,0.93750139 0 0 1 0.447516,-0.1155 0.93750139,0.93750139 0 0 1 0.937838,0.9378 0.93750139,0.93750139 0 0 1 -0.115446,0.4476 l 0.425464,0.4254 a 1.5000021,1.5000021 0 0 0 0.389144,-1.4489 1.5000021,1.5000021 0 0 0 -1.061066,-1.0611 1.5000021,1.5000021 0 0 0 -0.367093,-0.051 z"
         style="fill:black;fill-opacity:0.25098039;stroke:none"
         inkscape:connector-curvature="0" />
      <path
         id="path5300"
         d="m 21.439097,1048.8023 a 1.5000021,1.5000021 0 0 0 0,2.1208 1.5000021,1.5000021 0 0 0 2.120836,0 l -0.425464,-0.4254 a 0.93750139,0.93750139 0 0 1 -0.822392,0.4903 0.93750139,0.93750139 0 0 1 -0.937837,-0.9379 0.93750139,0.93750139 0 0 1 0.490321,-0.8223 l -0.425464,-0.4255 z"
         style="fill:#f0f0f0;fill-opacity:0.25098039;stroke:none"
         inkscape:connector-curvature="0" />
      <circle
         transform="matrix(0.66413946,0,0,0.66413946,18.921334,360.49508)"
         sodipodi:ry="1.4116032"
         sodipodi:rx="1.4116032"
         sodipodi:cy="1038.2683"
         sodipodi:cx="5.1055269"
         d="m 6.5171301,1038.2683 c 0,0.7796 -0.6319962,1.4116 -1.4116032,1.4116 -0.7796069,0 -1.4116032,-0.632 -1.4116032,-1.4116 0,-0.7796 0.6319963,-1.4116 1.4116032,-1.4116 0.779607,0 1.4116032,0.632 1.4116032,1.4116 z"
         r="1.4116032"
         cy="1038.2683"
         cx="5.1055269"
         id="circle5302"
         style="fill:gray;fill-opacity:0.25098039;stroke:none" />
      <path
         inkscape:connector-curvature="0"
         style="fill:#f0f0f0;fill-opacity:0.25098039;stroke:none"
         d="m 20.756906,1023.1577 a 6,6 0 0 0 0,8.4844 6,6 0 0 0 8.484375,0 l -1.599609,-1.5996 a 4,4 0 0 1 -3.642579,2.3574 4,4 0 0 1 -4,-4 4,4 0 0 1 2.357422,-3.6426 l -1.599609,-1.5996 z"
         id="path12463" />
      <g
         transform="matrix(-0.70710678,-0.70710678,-0.70710678,0.70710678,785.65529,285.2446)"
         id="g4806">
        <path
           sodipodi:nodetypes="ccccccccccccccccccc"
           inkscape:connector-curvature="0"
           id="path4808"
           d="m 0,1067.3622 0,1 -1,0 0,1 0,11 0,1 1,0 6,0 1,0 0,-1 0,-1.7812 0.5625,-0.375 0.4375,-0.3125 0,-0.5313 0,-9 0,-1 -1,0 -6,0 z"
           style="font-size:medium;font-style:normal;font-variant:normal;font-weight:normal;font-stretch:normal;text-indent:0;text-align:start;text-decoration:none;line-height:normal;letter-spacing:normal;word-spacing:normal;text-transform:none;direction:ltr;block-progression:tb;writing-mode:lr-tb;text-anchor:start;baseline-shift:baseline;color:black;fill:black;fill-opacity:1;fill-rule:nonzero;stroke:none;stroke-width:2;marker:none;visibility:visible;display:inline;overflow:visible;enable-background:accumulate;font-family:Sans;-inkscape-font-specification:Sans" />
        <g
           id="g4810"
           inkscape:transform-center-x="-0.41432389"
           transform="matrix(0.25881904,-0.96592582,0.96592582,0.25881904,-1031.8917,797.93696)"
           inkscape:transform-center-y="-3.1954032">
          <path
             inkscape:transform-center-x="-3.25"
             id="path4812"
             d="m 4,1069.3622 c -1.093063,0 -2,0.9069 -2,2 0,1.0931 0.906937,2 2,2 0.702291,0 1.205054,-0.4424 1.5625,-1 l 5.4375,0 c 0.817063,0 1.5,-0.6829 1.5,-1.5 0,-0.8171 -0.682937,-1.5 -1.5,-1.5 l -7,0 z"
             style="fill:black;fill-opacity:1;fill-rule:nonzero;stroke:none"
             inkscape:connector-curvature="0" />
          <path
             inkscape:transform-center-x="-3.25"
             id="path4814"
             d="m 4,1070.3622 c -0.552,0 -1,0.448 -1,1 0,0.552 0.448,1 1,1 0.552,0 1,-0.448 1,-1 l 6,0 c 0.276,0 0.5,-0.224 0.5,-0.5 0,-0.276 -0.224,-0.5 -0.5,-0.5 l -7,0 z"
             style="fill:silver;fill-opacity:1;fill-rule:nonzero;stroke:none"
             inkscape:connector-curvature="0" />
        </g>
        <rect
           y="1069.3622"
           x="0"
           height="11"
           width="6"
           id="rect4816"
           style="fill:#666;fill-opacity:1;stroke:none" />
        <path
           sodipodi:nodetypes="cccccc"
           inkscape:connector-curvature="0"
           id="path4818"
           d="m 1,1068.3622 6,0 0,9 -3,2 -3,0 z"
           style="fill:silver;fill-opacity:1;fill-rule:nonzero;stroke:none" />
        <g
           inkscape:transform-center-y="-2.4016898"
           transform="matrix(0.70710678,-0.70710678,0.70710678,0.70710678,-756.3959,316.62315)"
           inkscape:transform-center-x="-2.0481374"
           id="g4820">
          <path
             inkscape:connector-curvature="0"
             style="fill:black;fill-opacity:1;fill-rule:nonzero;stroke:none"
             d="m 4,1069.3622 c -1.093063,0 -2,0.9069 -2,2 0,1.0931 0.906937,2 2,2 0.702291,0 1.205054,-0.4424 1.5625,-1 l 5.4375,0 c 0.817063,0 1.5,-0.6829 1.5,-1.5 0,-0.8171 -0.682937,-1.5 -1.5,-1.5 l -7,0 z"
             id="path4822"
             inkscape:transform-center-x="-3.25" />
          <path
             inkscape:connector-curvature="0"
             style="fill:silver;fill-opacity:1;fill-rule:nonzero;stroke:none"
             d="m 4,1070.3622 c -0.552,0 -1,0.448 -1,1 0,0.552 0.448,1 1,1 0.552,0 1,-0.448 1,-1 l 6,0 c 0.276,0 0.5,-0.224 0.5,-0.5 0,-0.276 -0.224,-0.5 -0.5,-0.5 l -7,0 z"
             id="path4824"
             inkscape:transform-center-x="-3.25" />
        </g>
        <path
           id="path4826"
           d="m 4,1074.3622 c -0.552,0 -1,0.448 -1,1 0,0.3648 0.207994,0.6691 0.5,0.8438 l 0,1.1562 c 0,0.276 0.224,0.5 0.5,0.5 0.276,0 0.5,-0.224 0.5,-0.5 l 0,-1.1562 c 0.292006,-0.1747 0.5,-0.479 0.5,-0.8438 0,-0.552 -0.448,-1 -1,-1 z"
           style="fill:black;fill-opacity:1;fill-rule:nonzero;stroke:none"
           inkscape:connector-curvature="0" />
        <path
           transform="translate(0,1020.3622)"
           inkscape:connector-curvature="0"
           id="path4828"
           d="m 4,59 1,-3 2,1 z"
           style="fill:gray;fill-opacity:1;stroke:none" />
      </g>
      <g
         transform="matrix(0.8660254,-0.5,-0.5,-0.8660254,534.344,1972.8052)"
         id="g4657">
        <path
           inkscape:connector-curvature="0"
           style="fill:#d0aa00;fill-opacity:1;stroke:black;stroke-width:2;stroke-linecap:square;stroke-miterlimit:4;stroke-opacity:1;stroke-dasharray:none"
           d="m 15,37 c -0.337827,0 -0.667717,0.01025 -1,0.03125 l 0,1 L 14,39 14,39.03125 14,60 l 1,-4 0,2 1,-3 0,4 1,-1 0,2 1,-4 0,3 1,-5 0,-14.375 0,-1.03125 0,-1.03125 C 17.727669,37.2113 16.383511,37 15,37 z"
           transform="translate(0,1020.3622)"
           id="path4646" />
        <path
           inkscape:connector-curvature="0"
           style="fill:#d0aa00;fill-opacity:1;stroke:none"
           d="m 15,37 c -0.337827,0 -0.667717,0.01025 -1,0.03125 L 14,60 l 1,-4 0,2 1,-3 0,4 1,-1 0,2 1,-4 0,3 1,-5 0,-16.4375 C 17.727669,37.2113 16.383511,37 15,37 z"
           transform="translate(0,1020.3622)"
           id="rect4525-9" />
        <path
           inkscape:connector-curvature="0"
           style="fill:#805500;fill-opacity:1;fill-rule:nonzero;stroke:none"
           d="m 15,1058.3625 0,1 c 1.03069,0 2.038343,0.1167 3,0.3438 l 0,-1 c -0.970895,-0.2133 -1.96535,-0.3438 -3,-0.3438 z"
           id="path4520-5" />
        <path
           inkscape:connector-curvature="0"
           style="fill:#e6be00;fill-opacity:1;fill-rule:nonzero;stroke:none"
           d="m 18,39 0,17 0,3 1,-5 0,-15 -1,0 z"
           transform="translate(0,1020.3622)"
           id="path4530-8" />
        <path
           style="fill:#805500;fill-opacity:1;fill-rule:nonzero;stroke:none"
           d="m 14,1059.3622 0,21 1,-4 0,-17 -1,0 z"
           id="path4532-8"
           inkscape:connector-curvature="0" />
        <path
           inkscape:connector-curvature="0"
           style="fill:#805500;fill-opacity:1;fill-rule:nonzero;stroke:none"
           d="m 15,1058.3625 c -0.335822,0 -0.669959,0.01 -1,0.031 l 0,1 c 0.327186,-0.025 0.666469,-0.031 1,-0.031 1.390897,0 2.743253,0.22 4,0.625 l 0,-1.0312 c -1.270653,-0.3797 -2.60641,-0.5938 -4,-0.5938 z"
           id="path4534-4" />
      </g>
      <g
         transform="matrix(0.96592583,0.25881905,0.25881905,-0.96592583,-270.14791,2060.894)"
         id="g4722">
        <path
           sodipodi:nodetypes="cccccccccccccccccccccccccccccc"
           inkscape:connector-curvature="0"
           id="path4724"
           d="m 16.96875,1064.1122 -1.96875,-0.75 0,1 0,13 0,0.25 0.09375,0.1875 1,2 0.75,-0.1875 0.15625,0.75 1,1 0.59375,-0.9687 0.84375,0.8125 0.5,-1.5313 0.375,-1.0937 0.625,0.094 1,-3 0.0625,-0.1562 0,-0.1563 0,-8 0,-2.4062 -1,0.9687 0,-1.4062 0,-1.1566 -2,0.8441 -0.15625,1 -0.8125,-0.094 -0.25,0.9688 -0.34375,-0.063 -0.46875,-1.9063 z"
           style="font-size:medium;font-style:normal;font-variant:normal;font-weight:normal;font-stretch:normal;text-indent:0;text-align:start;text-decoration:none;line-height:normal;letter-spacing:normal;word-spacing:normal;text-transform:none;direction:ltr;block-progression:tb;writing-mode:lr-tb;text-anchor:start;baseline-shift:baseline;color:black;fill:black;fill-opacity:1;fill-rule:nonzero;stroke:none;stroke-width:2;marker:none;visibility:visible;display:inline;overflow:visible;enable-background:accumulate;font-family:Sans;-inkscape-font-specification:Sans" />
        <path
           inkscape:connector-curvature="0"
           id="path4726"
           transform="translate(0,1020.3622)"
           d="m 16,44 0,13 1,2 0,-4 1,5 0,-2 1,1 1,-3 0,2 1,-3 0,-8 -1,1 0,-4 -1,6 0,-5 -1,4 0,-3 -1,2 -1,-4 z"
           style="fill:#d0aa00;fill-opacity:1;stroke:none" />
        <path
           inkscape:connector-curvature="0"
           id="path4728"
           transform="translate(0,1020.3622)"
           d="m 21,47 -1,1 0,8 0,2 1,-3 0,-8 z"
           style="fill:#e6be00;fill-opacity:1;fill-rule:nonzero;stroke:none" />
        <path
           inkscape:connector-curvature="0"
           id="path4730"
           transform="translate(0,1020.3622)"
           d="m 16,44 0,13 1,2 0,-4 0,-7 -1,-4 z"
           style="fill:#805500;fill-opacity:1;fill-rule:nonzero;stroke:none" />
      </g>
    </g>
    <path
       style="fill:black;fill-opacity:0.99678458;fill-rule:nonzero;stroke:none"
       d="m -12,1067.3622 8,0 0,13 -8,0 z"
       id="rect4741"
       inkscape:connector-curvature="0" />
    <g
       transform="translate(19,0)"
       id="g4751">
      <path
         inkscape:connector-curvature="0"
         style="fill:#d0aa00;fill-opacity:1;stroke:black;stroke-width:2;stroke-linecap:square;stroke-miterlimit:4;stroke-opacity:1;stroke-dasharray:none"
         d="m 15,37 c -0.337827,0 -0.667717,0.01025 -1,0.03125 l 0,1 L 14,39 14,39.03125 14,60 l 1,-4 0,2 1,-3 0,4 1,-1 0,2 1,-4 0,3 1,-5 0,-14.375 0,-1.03125 0,-1.03125 C 17.727669,37.2113 16.383511,37 15,37 z"
         transform="translate(0,1020.3622)"
         id="path4753" />
      <path
         inkscape:connector-curvature="0"
         style="fill:#d0aa00;fill-opacity:1;stroke:none"
         d="m 15,37 c -0.337827,0 -0.667717,0.01025 -1,0.03125 L 14,60 l 1,-4 0,2 1,-3 0,4 1,-1 0,2 1,-4 0,3 1,-5 0,-16.4375 C 17.727669,37.2113 16.383511,37 15,37 z"
         transform="translate(0,1020.3622)"
         id="path4755" />
      <path
         inkscape:connector-curvature="0"
         style="fill:#805500;fill-opacity:1;fill-rule:nonzero;stroke:none"
         d="m 15,1058.3625 0,1 c 1.03069,0 2.038343,0.1167 3,0.3438 l 0,-1 c -0.970895,-0.2133 -1.96535,-0.3438 -3,-0.3438 z"
         id="path4757" />
      <path
         inkscape:connector-curvature="0"
         style="fill:#e6be00;fill-opacity:1;fill-rule:nonzero;stroke:none"
         d="m 18,39 0,17 0,3 1,-5 0,-15 -1,0 z"
         transform="translate(0,1020.3622)"
         id="path4759" />
      <path
         style="fill:#805500;fill-opacity:1;fill-rule:nonzero;stroke:none"
         d="m 14,1059.3622 0,21 1,-4 0,-17 -1,0 z"
         id="path4761"
         inkscape:connector-curvature="0" />
      <path
         inkscape:connector-curvature="0"
         style="fill:#805500;fill-opacity:1;fill-rule:nonzero;stroke:none"
         d="m 15,1058.3625 c -0.335822,0 -0.669959,0.01 -1,0.031 l 0,1 c 0.327186,-0.025 0.666469,-0.031 1,-0.031 1.390897,0 2.743253,0.22 4,0.625 l 0,-1.0312 c -1.270653,-0.3797 -2.60641,-0.5938 -4,-0.5938 z"
         id="path4763" />
    </g>
    <g
       id="g4793">
      <path
         sodipodi:nodetypes="ccccccccccccccccccc"
         inkscape:connector-curvature="0"
         id="rect4786"
         d="m 0,1067.3622 0,1 -1,0 0,1 0,11 0,1 1,0 6,0 1,0 0,-1 0,-1.7812 0.5625,-0.375 0.4375,-0.3125 0,-0.5313 0,-9 0,-1 -1,0 -6,0 z"
         style="font-size:medium;font-style:normal;font-variant:normal;font-weight:normal;font-stretch:normal;text-indent:0;text-align:start;text-decoration:none;line-height:normal;letter-spacing:normal;word-spacing:normal;text-transform:none;direction:ltr;block-progression:tb;writing-mode:lr-tb;text-anchor:start;baseline-shift:baseline;color:black;fill:black;fill-opacity:1;fill-rule:nonzero;stroke:none;stroke-width:2;marker:none;visibility:visible;display:inline;overflow:visible;enable-background:accumulate;font-family:Sans;-inkscape-font-specification:Sans" />
      <g
         id="g4780"
         inkscape:transform-center-x="-0.41432389"
         transform="matrix(0.25881904,-0.96592582,0.96592582,0.25881904,-1031.8917,797.93696)"
         inkscape:transform-center-y="-3.1954032">
        <path
           inkscape:transform-center-x="-3.25"
           id="path4782"
           d="m 4,1069.3622 c -1.093063,0 -2,0.9069 -2,2 0,1.0931 0.906937,2 2,2 0.702291,0 1.205054,-0.4424 1.5625,-1 l 5.4375,0 c 0.817063,0 1.5,-0.6829 1.5,-1.5 0,-0.8171 -0.682937,-1.5 -1.5,-1.5 l -7,0 z"
           style="fill:black;fill-opacity:1;fill-rule:nonzero;stroke:none"
           inkscape:connector-curvature="0" />
        <path
           inkscape:transform-center-x="-3.25"
           id="path4784"
           d="m 4,1070.3622 c -0.552,0 -1,0.448 -1,1 0,0.552 0.448,1 1,1 0.552,0 1,-0.448 1,-1 l 6,0 c 0.276,0 0.5,-0.224 0.5,-0.5 0,-0.276 -0.224,-0.5 -0.5,-0.5 l -7,0 z"
           style="fill:silver;fill-opacity:1;fill-rule:nonzero;stroke:none"
           inkscape:connector-curvature="0" />
      </g>
      <rect
         y="1069.3622"
         x="0"
         height="11"
         width="6"
         id="rect4774"
         style="fill:#666;fill-opacity:1;stroke:none" />
      <path
         sodipodi:nodetypes="cccccc"
         inkscape:connector-curvature="0"
         id="rect4743"
         d="m 1,1068.3622 6,0 0,9 -3,2 -3,0 z"
         style="fill:silver;fill-opacity:1;fill-rule:nonzero;stroke:none" />
      <g
         inkscape:transform-center-y="-2.4016898"
         transform="matrix(0.70710678,-0.70710678,0.70710678,0.70710678,-756.3959,316.62315)"
         inkscape:transform-center-x="-2.0481374"
         id="g4776">
        <path
           inkscape:connector-curvature="0"
           style="fill:black;fill-opacity:1;fill-rule:nonzero;stroke:none"
           d="m 4,1069.3622 c -1.093063,0 -2,0.9069 -2,2 0,1.0931 0.906937,2 2,2 0.702291,0 1.205054,-0.4424 1.5625,-1 l 5.4375,0 c 0.817063,0 1.5,-0.6829 1.5,-1.5 0,-0.8171 -0.682937,-1.5 -1.5,-1.5 l -7,0 z"
           id="path4745"
           inkscape:transform-center-x="-3.25" />
        <path
           inkscape:connector-curvature="0"
           style="fill:silver;fill-opacity:1;fill-rule:nonzero;stroke:none"
           d="m 4,1070.3622 c -0.552,0 -1,0.448 -1,1 0,0.552 0.448,1 1,1 0.552,0 1,-0.448 1,-1 l 6,0 c 0.276,0 0.5,-0.224 0.5,-0.5 0,-0.276 -0.224,-0.5 -0.5,-0.5 l -7,0 z"
           id="path4747"
           inkscape:transform-center-x="-3.25" />
      </g>
      <path
         id="path4749"
         d="m 4,1074.3622 c -0.552,0 -1,0.448 -1,1 0,0.3648 0.207994,0.6691 0.5,0.8438 l 0,1.1562 c 0,0.276 0.224,0.5 0.5,0.5 0.276,0 0.5,-0.224 0.5,-0.5 l 0,-1.1562 c 0.292006,-0.1747 0.5,-0.479 0.5,-0.8438 0,-0.552 -0.448,-1 -1,-1 z"
         style="fill:black;fill-opacity:1;fill-rule:nonzero;stroke:none"
         inkscape:connector-curvature="0" />
      <path
         transform="translate(0,1020.3622)"
         inkscape:connector-curvature="0"
         id="path4772"
         d="m 4,59 1,-3 2,1 z"
         style="fill:gray;fill-opacity:1;stroke:none;stroke-width:2;stroke-linecap:square;stroke-linejoin:round;stroke-miterlimit:4;stroke-opacity:1;stroke-dasharray:none" />
    </g>
  </g>
  <g
     inkscape:groupmode="layer"
     id="layer7"
     inkscape:label="Holes" />
  <g
     inkscape:groupmode="layer"
     id="layer6"
     inkscape:label="Wall" />
  <g
     inkscape:groupmode="layer"
     id="layer5"
     inkscape:label="right"
     style="display:inline" />
  <g
     inkscape:groupmode="layer"
     id="layer4"
     inkscape:label="left" />
  <g
     inkscape:groupmode="layer"
     id="layer3"
     inkscape:label="bottom"
     style="display:inline" />
  <g
     inkscape:groupmode="layer"
     id="layer2"
     inkscape:label="top" />
</svg>
