<?xml version="1.0" encoding="UTF-8" standalone="no"?>
<!-- Created with Inkscape (http://www.inkscape.org/) -->

<svg xmlns:dc="http://purl.org/dc/elements/1.1/" xmlns:cc="http://creativecommons.org/ns#" xmlns:rdf="http://www.w3.org/1999/02/22-rdf-syntax-ns#" xmlns:svg="http://www.w3.org/2000/svg" xmlns="http://www.w3.org/2000/svg" xmlns:xlink="http://www.w3.org/1999/xlink" xmlns:sodipodi="http://sodipodi.sourceforge.net/DTD/sodipodi-0.dtd" xmlns:inkscape="http://www.inkscape.org/namespaces/inkscape" width="96" height="96" id="svg3505" sodipodi:version="0.32" inkscape:version="0.91 r13725" sodipodi:docname="00.svg" inkscape:output_extension="org.inkscape.output.svg.inkscape" version="1.1">
  <defs id="defs3507">
    <inkscape:perspective sodipodi:type="inkscape:persp3d" inkscape:vp_x="0 : 16 : 1" inkscape:vp_y="0 : 1000 : 0" inkscape:vp_z="32 : 16 : 1" inkscape:persp3d-origin="16 : 10.666667 : 1" id="perspective3513" />
    <inkscape:perspective id="perspective4690" inkscape:persp3d-origin="372.04724 : 350.78739 : 1" inkscape:vp_z="744.09448 : 526.18109 : 1" inkscape:vp_y="0 : 1000 : 0" inkscape:vp_x="0 : 526.18109 : 1" sodipodi:type="inkscape:persp3d" />
  </defs>
  <sodipodi:namedview id="base" pagecolor="#ffffff" bordercolor="#666666" borderopacity="1.0" inkscape:pageopacity="0.0" inkscape:pageshadow="2" inkscape:zoom="7.375" inkscape:cx="48" inkscape:cy="48" inkscape:current-layer="layer1" showgrid="true" inkscape:grid-bbox="true" inkscape:document-units="px" objecttolerance="10000" gridtolerance="10000" guidetolerance="10000" inkscape:window-width="1600" inkscape:window-height="878" inkscape:window-x="0" inkscape:window-y="0" inkscape:object-paths="true" inkscape:object-nodes="true" inkscape:snap-bbox="true" inkscape:snap-guide="true" showguides="true" inkscape:guide-bbox="true" inkscape:window-maximized="1">
    <inkscape:grid type="xygrid" id="grid3515" units="px" visible="true" enabled="true" spacingx="1px" spacingy="1px" empspacing="4" />
  </sodipodi:namedview>
  <metadata id="metadata3510">
    <rdf:RDF>
      <cc:Work rdf:about="">
        <dc:format>image/svg+xml</dc:format>
        <dc:type rdf:resource="http://purl.org/dc/dcmitype/StillImage" />
        <dc:title>Vorlage f端r 32x32-Pixel-Icons f端r McMinos</dc:title>
        <dc:date>2010-04-05</dc:date>
        <dc:creator>
          <cc:Agent>
            <dc:title>Andreas Neudecker &lt;zapyon@gmx.net&gt;</dc:title>
          </cc:Agent>
        </dc:creator>
        <dc:rights>
          <cc:Agent>
            <dc:title>Copyright (C) 2010 by Andreas Neudecker</dc:title>
          </cc:Agent>
        </dc:rights>
        <dc:publisher>
          <cc:Agent>
            <dc:title>Andreas Neudecker</dc:title>
          </cc:Agent>
        </dc:publisher>
        <dc:identifier>vorlage-32x32-mcminos</dc:identifier>
        <dc:description>Vorlage f端r 32x32-Pixel-Icons f端r McMinos. Metadaten jeweils entsprechend anpassen!</dc:description>
      </cc:Work>
    </rdf:RDF>
  </metadata>
  <g id="layer1" inkscape:label="Layer 1" inkscape:groupmode="layer" transform="translate(0,64)">
    <g id="g19960">
      <rect y="0" x="-36" height="32" width="32" id="rect2489" style="fill:#c0ff00;fill-opacity:1;fill-rule:nonzero;stroke:none;stroke-width:2;stroke-linecap:round;stroke-linejoin:miter;stroke-miterlimit:4;stroke-dasharray:none;stroke-dashoffset:0;stroke-opacity:1" />
      <g transform="translate(-42.5,-10.5)" id="g3295">
        <g id="g3279">
          <circle transform="matrix(0.75,0,0,0.75,1.5,3)" style="opacity:1;fill:white;fill-opacity:1;fill-rule:nonzero;stroke:none;stroke-width:2;stroke-linecap:round;stroke-linejoin:miter;stroke-miterlimit:4;stroke-dasharray:none;stroke-dashoffset:0;stroke-opacity:1" id="path3271" cx="14" cy="14" r="2" />
          <circle id="path3273" style="opacity:1;fill:white;fill-opacity:1;fill-rule:nonzero;stroke:none;stroke-width:2;stroke-linecap:round;stroke-linejoin:miter;stroke-miterlimit:4;stroke-dasharray:none;stroke-dashoffset:0;stroke-opacity:1" transform="matrix(0.75,0,0,0.75,3,1.5)" cx="14" cy="14" r="2" />
          <circle transform="matrix(0.75,0,0,0.75,4.5,3)" style="opacity:1;fill:white;fill-opacity:1;fill-rule:nonzero;stroke:none;stroke-width:2;stroke-linecap:round;stroke-linejoin:miter;stroke-miterlimit:4;stroke-dasharray:none;stroke-dashoffset:0;stroke-opacity:1" id="path3275" cx="14" cy="14" r="2" />
          <circle id="path3277" style="opacity:1;fill:white;fill-opacity:1;fill-rule:nonzero;stroke:none;stroke-width:2;stroke-linecap:round;stroke-linejoin:miter;stroke-miterlimit:4;stroke-dasharray:none;stroke-dashoffset:0;stroke-opacity:1" transform="matrix(0.7499877,0,0,0.75,3.0001966,4.5)" cx="14" cy="14" r="2" />
        </g>
        <circle style="opacity:1;fill:yellow;fill-opacity:1;fill-rule:nonzero;stroke:none;stroke-width:2;stroke-linecap:round;stroke-linejoin:miter;stroke-miterlimit:4;stroke-dasharray:none;stroke-dashoffset:0;stroke-opacity:1" id="path3269" transform="matrix(0.75,0,0,0.75,3,3)" cx="14" cy="14" r="2" />
      </g>
      <g id="g3303" transform="translate(-20.5,-2.5)">
        <g id="g3305">
          <circle id="path3307" style="opacity:1;fill:white;fill-opacity:1;fill-rule:nonzero;stroke:none;stroke-width:2;stroke-linecap:round;stroke-linejoin:miter;stroke-miterlimit:4;stroke-dasharray:none;stroke-dashoffset:0;stroke-opacity:1" transform="matrix(0.75,0,0,0.75,1.5,3)" cx="14" cy="14" r="2" />
          <circle transform="matrix(0.75,0,0,0.75,3,1.5)" style="opacity:1;fill:white;fill-opacity:1;fill-rule:nonzero;stroke:none;stroke-width:2;stroke-linecap:round;stroke-linejoin:miter;stroke-miterlimit:4;stroke-dasharray:none;stroke-dashoffset:0;stroke-opacity:1" id="path3309" cx="14" cy="14" r="2" />
          <circle id="path3311" style="opacity:1;fill:white;fill-opacity:1;fill-rule:nonzero;stroke:none;stroke-width:2;stroke-linecap:round;stroke-linejoin:miter;stroke-miterlimit:4;stroke-dasharray:none;stroke-dashoffset:0;stroke-opacity:1" transform="matrix(0.75,0,0,0.75,4.5,3)" cx="14" cy="14" r="2" />
          <circle transform="matrix(0.7499877,0,0,0.75,3.0001966,4.5)" style="opacity:1;fill:white;fill-opacity:1;fill-rule:nonzero;stroke:none;stroke-width:2;stroke-linecap:round;stroke-linejoin:miter;stroke-miterlimit:4;stroke-dasharray:none;stroke-dashoffset:0;stroke-opacity:1" id="path3313" cx="14" cy="14" r="2" />
        </g>
        <circle transform="matrix(0.75,0,0,0.75,3,3)" id="path3315" style="opacity:1;fill:yellow;fill-opacity:1;fill-rule:nonzero;stroke:none;stroke-width:2;stroke-linecap:round;stroke-linejoin:miter;stroke-miterlimit:4;stroke-dasharray:none;stroke-dashoffset:0;stroke-opacity:1" cx="14" cy="14" r="2" />
      </g>
      <g transform="translate(-34.5,9.5)" id="g3317">
        <g id="g3319">
          <circle transform="matrix(0.75,0,0,0.75,1.5,3)" style="opacity:1;fill:white;fill-opacity:1;fill-rule:nonzero;stroke:none;stroke-width:2;stroke-linecap:round;stroke-linejoin:miter;stroke-miterlimit:4;stroke-dasharray:none;stroke-dashoffset:0;stroke-opacity:1" id="path3321" cx="14" cy="14" r="2" />
          <circle id="path3323" style="opacity:1;fill:white;fill-opacity:1;fill-rule:nonzero;stroke:none;stroke-width:2;stroke-linecap:round;stroke-linejoin:miter;stroke-miterlimit:4;stroke-dasharray:none;stroke-dashoffset:0;stroke-opacity:1" transform="matrix(0.75,0,0,0.75,3,1.5)" cx="14" cy="14" r="2" />
          <circle transform="matrix(0.75,0,0,0.75,4.5,3)" style="opacity:1;fill:white;fill-opacity:1;fill-rule:nonzero;stroke:none;stroke-width:2;stroke-linecap:round;stroke-linejoin:miter;stroke-miterlimit:4;stroke-dasharray:none;stroke-dashoffset:0;stroke-opacity:1" id="path3325" cx="14" cy="14" r="2" />
          <circle id="path3327" style="opacity:1;fill:white;fill-opacity:1;fill-rule:nonzero;stroke:none;stroke-width:2;stroke-linecap:round;stroke-linejoin:miter;stroke-miterlimit:4;stroke-dasharray:none;stroke-dashoffset:0;stroke-opacity:1" transform="matrix(0.7499877,0,0,0.75,3.0001966,4.5)" cx="14" cy="14" r="2" />
        </g>
        <circle style="opacity:1;fill:yellow;fill-opacity:1;fill-rule:nonzero;stroke:none;stroke-width:2;stroke-linecap:round;stroke-linejoin:miter;stroke-miterlimit:4;stroke-dasharray:none;stroke-dashoffset:0;stroke-opacity:1" id="path3329" transform="matrix(0.75,0,0,0.75,3,3)" cx="14" cy="14" r="2" />
      </g>
      <g transform="translate(-34,-2)" id="g3393">
        <path style="fill:green;fill-opacity:1;fill-rule:nonzero;stroke:none;stroke-width:2;stroke-linecap:round;stroke-linejoin:miter;stroke-miterlimit:4;stroke-dasharray:none;stroke-dashoffset:0;stroke-opacity:1" d="m 8,20 c 0,0 -0.4945834,-2 0,-4 0.4945834,-2 4,-4 4,-4 0,0 -2,2 -3,4 -1,2 -1.0642707,4.152292 -1,4 z" id="path3331" inkscape:connector-curvature="0" />
        <path id="path3333" d="m 7.5441566,20 c 0,0 0.4417732,-2.012324 -0.105279,-3.998615 -0.5470509,-1.986289 -2.9023484,-2.77642 -2.9023484,-2.77642 0,0 0.8504022,0.829753 1.9026949,2.80274 C 7.4915171,18.000693 7.6124135,20.150548 7.5441566,20 Z" style="fill:#00a000;fill-opacity:1;fill-rule:nonzero;stroke:none;stroke-width:2;stroke-linecap:round;stroke-linejoin:miter;stroke-miterlimit:4;stroke-dasharray:none;stroke-dashoffset:0;stroke-opacity:1" sodipodi:nodetypes="cscsc" inkscape:connector-curvature="0" />
        <path style="fill:#00c000;fill-opacity:1;fill-rule:nonzero;stroke:none;stroke-width:2;stroke-linecap:round;stroke-linejoin:miter;stroke-miterlimit:4;stroke-dasharray:none;stroke-dashoffset:0;stroke-opacity:1" d="m 6.5737705,19.737705 c 0,0 1.1489379,-3.963346 0.9747385,-5.357051 C 7.3967664,13.166618 5,13 5,13 c 0,0 3.8567243,0.04484 3.6393443,0.936768 -0.4874402,2 -1.9344263,5.735363 -2.0655738,5.800937 z" id="path3335" sodipodi:nodetypes="cscsc" inkscape:connector-curvature="0" />
        <path style="fill:lime;fill-opacity:1;fill-rule:nonzero;stroke:none;stroke-width:2;stroke-linecap:round;stroke-linejoin:miter;stroke-miterlimit:4;stroke-dasharray:none;stroke-dashoffset:0;stroke-opacity:1" d="m 7,19.606557 c 0,0 1.4098361,-2.819672 2.704918,-2.950819 C 11,16.52459 13,14.42623 13,14.42623 c 0,0 -1,2.590163 -2,3.081967 C 10,18 8.3869006,17.668569 8.1934503,18.334285 8,19 6.8852459,19.672131 7,19.606557 Z" id="path3337" inkscape:connector-curvature="0" />
      </g>
      <g transform="translate(-36.498147,-4)" id="g3458">
        <path id="path3401" d="m 26.498147,32 c 0,0 -0.494583,-2 0,-4 0.494583,-2 4,-4 4,-4 0,0 -2,2 -3,4 -1,2 -1.064271,4.152292 -1,4 z" style="fill:#00c000;fill-opacity:1;fill-rule:nonzero;stroke:none;stroke-width:2;stroke-linecap:round;stroke-linejoin:miter;stroke-miterlimit:4;stroke-dasharray:none;stroke-dashoffset:0;stroke-opacity:1" inkscape:connector-curvature="0" />
        <path sodipodi:nodetypes="cscsc" style="fill:#00a000;fill-opacity:1;fill-rule:nonzero;stroke:none;stroke-width:2;stroke-linecap:round;stroke-linejoin:miter;stroke-miterlimit:4;stroke-dasharray:none;stroke-dashoffset:0;stroke-opacity:1" d="m 26.242372,32 c 0,0 -0.113904,-2.47134 0.433148,-4.457631 0.547051,-1.986289 1.164644,-4.219043 1.164644,-4.219043 0,0 0.559434,2.731392 -0.492859,4.704379 C 26.295012,30.000693 26.174116,32.150548 26.242372,32 Z" id="path3403" inkscape:connector-curvature="0" />
        <path sodipodi:nodetypes="cscsc" id="path3405" d="m 27.278332,31.540984 c 0,0 -1.296122,-1.900114 -1.121923,-3.293819 0.151743,-1.214036 1.285858,-3.902902 1.285858,-3.902902 0,0 -2.298991,2.960535 -2.081611,3.852459 0.48744,2 1.786529,3.278688 1.917676,3.344262 z" style="fill:green;fill-opacity:1;fill-rule:nonzero;stroke:none;stroke-width:2;stroke-linecap:round;stroke-linejoin:miter;stroke-miterlimit:4;stroke-dasharray:none;stroke-dashoffset:0;stroke-opacity:1" inkscape:connector-curvature="0" />
        <path id="path3407" d="m 20.829643,27.007606 c 0,0 3.84611,0.985593 4.206883,2.236305 C 25.397299,30.494623 27,31.983797 27,31.983797 c 0,0 -1.350249,-1.044966 -2.013055,-1.940822 -0.662806,-0.895857 -1.37947,-1.39999 -1.937911,-1.799064 -0.564033,-0.40307 -2.304441,-1.337473 -2.219391,-1.236305 z" style="fill:lime;fill-opacity:1;fill-rule:nonzero;stroke:none;stroke-width:2;stroke-linecap:round;stroke-linejoin:miter;stroke-miterlimit:4;stroke-dasharray:none;stroke-dashoffset:0;stroke-opacity:1" sodipodi:nodetypes="cscssc" inkscape:connector-curvature="0" />
        <path style="opacity:1;fill:#00a000;fill-opacity:1;fill-rule:nonzero;stroke:none;stroke-width:2;stroke-linecap:round;stroke-linejoin:miter;stroke-miterlimit:4;stroke-dasharray:none;stroke-dashoffset:0;stroke-opacity:1" d="m 26.244933,31.64858 c 0,0 -1.937633,-3.091942 -1.740912,-4.305057 0.196722,-1.213115 0.934427,-3.081967 0.754099,-3.786885 -0.180328,-0.704918 0.327869,-1.754099 0.327869,-1.754099 0,0 -0.229509,0.95082 -0.163935,1.327869 0.06557,0.377049 0.556683,1.563998 0.295082,2 -0.442623,0.737705 -0.901639,2 -0.704918,2.639344 0.279623,0.908774 1.262295,3.934426 1.232715,3.878828 z" id="path3413" sodipodi:nodetypes="csscsssc" inkscape:connector-curvature="0" />
      </g>
      <g id="g3446" transform="translate(-52.999976,15.5)">
        <circle id="path3448" style="fill:#ffc000;fill-opacity:1;fill-rule:nonzero;stroke:none;stroke-width:2;stroke-linecap:round;stroke-linejoin:miter;stroke-miterlimit:4;stroke-dasharray:none;stroke-dashoffset:0;stroke-opacity:1" transform="matrix(0.75,0,0,0.75,7.9999756,-4.5)" cx="14" cy="14" r="2" />
        <circle transform="matrix(0.75,0,0,0.75,9.4999756,-6)" style="fill:#ffc000;fill-opacity:1;fill-rule:nonzero;stroke:none;stroke-width:2;stroke-linecap:round;stroke-linejoin:miter;stroke-miterlimit:4;stroke-dasharray:none;stroke-dashoffset:0;stroke-opacity:1" id="path3450" cx="14" cy="14" r="2" />
        <circle id="path3452" style="fill:#ffc000;fill-opacity:1;fill-rule:nonzero;stroke:none;stroke-width:2;stroke-linecap:round;stroke-linejoin:miter;stroke-miterlimit:4;stroke-dasharray:none;stroke-dashoffset:0;stroke-opacity:1" transform="matrix(0.75,0,0,0.75,10.999976,-4.5)" cx="14" cy="14" r="2" />
        <circle transform="matrix(0.7499877,0,0,0.75,9.5001722,-3)" style="fill:#ffc000;fill-opacity:1;fill-rule:nonzero;stroke:none;stroke-width:2;stroke-linecap:round;stroke-linejoin:miter;stroke-miterlimit:4;stroke-dasharray:none;stroke-dashoffset:0;stroke-opacity:1" id="path3454" cx="14" cy="14" r="2" />
        <circle style="fill:yellow;fill-opacity:1;fill-rule:nonzero;stroke:none;stroke-width:2;stroke-linecap:round;stroke-linejoin:miter;stroke-miterlimit:4;stroke-dasharray:none;stroke-dashoffset:0;stroke-opacity:1" id="path3456" transform="matrix(0.75,0,0,0.75,9.4999756,-4.5)" cx="14" cy="14" r="2" />
      </g>
      <g transform="translate(-36,0)" id="g19808">
        <path inkscape:connector-curvature="0" style="opacity:1;fill:#00d700;fill-opacity:1;fill-rule:nonzero;stroke:none;stroke-width:2;stroke-linecap:round;stroke-linejoin:miter;stroke-miterlimit:4;stroke-dasharray:none;stroke-dashoffset:0;stroke-opacity:1" d="M 20,9 C 20,9 18.71388,5 17,5 14.557377,5 13.502588,7 15,7.3934426 16.131183,7.690659 16.416177,7 17.57377,7 18.564591,7 20.065574,8.9836066 20,9 Z" id="path3465" sodipodi:nodetypes="csssc" />
        <path inkscape:connector-curvature="0" sodipodi:nodetypes="csssc" id="path3467" d="m 19.001507,9.256066 c 0,0 1.050308,-2.4098361 2.672131,-3 2.295375,-0.8352621 3.825281,0.6065574 2.327869,1 -1.131183,0.2972164 -0.826013,0 -1.983606,0 -0.990821,0 -3.081968,1.9836066 -3.016394,2 z" style="opacity:1;fill:green;fill-opacity:1;fill-rule:nonzero;stroke:none;stroke-width:2;stroke-linecap:round;stroke-linejoin:miter;stroke-miterlimit:4;stroke-dasharray:none;stroke-dashoffset:0;stroke-opacity:1" />
        <path inkscape:connector-curvature="0" style="opacity:1;fill:#00a000;fill-opacity:1;fill-rule:nonzero;stroke:none;stroke-width:2;stroke-linecap:round;stroke-linejoin:miter;stroke-miterlimit:4;stroke-dasharray:none;stroke-dashoffset:0;stroke-opacity:1" d="m 18.501932,6.6721311 c 1.311475,0 2.390122,0.7757757 1.603237,1.2183987 -0.786885,0.442623 -1.693588,0.8127729 -3,-0.1311475 -0.565577,-0.408646 1.331189,-1.152825 1.396763,-1.0872512 z" id="path3469" sodipodi:nodetypes="cssc" />
        <g id="g3439" transform="translate(2.44e-5,-2)">
          <circle r="2" cy="14" cx="14" id="path3419" style="fill:#ffc000;fill-opacity:1;fill-rule:nonzero;stroke:none;stroke-width:2;stroke-linecap:round;stroke-linejoin:miter;stroke-miterlimit:4;stroke-dasharray:none;stroke-dashoffset:0;stroke-opacity:1" transform="matrix(0.75,0,0,0.75,7.9999756,-4.5)" />
          <circle r="2" cy="14" cx="14" transform="matrix(0.75,0,0,0.75,9.4999756,-6)" style="fill:#ffc000;fill-opacity:1;fill-rule:nonzero;stroke:none;stroke-width:2;stroke-linecap:round;stroke-linejoin:miter;stroke-miterlimit:4;stroke-dasharray:none;stroke-dashoffset:0;stroke-opacity:1" id="path3421" />
          <circle r="2" cy="14" cx="14" id="path3423" style="fill:#ffc000;fill-opacity:1;fill-rule:nonzero;stroke:none;stroke-width:2;stroke-linecap:round;stroke-linejoin:miter;stroke-miterlimit:4;stroke-dasharray:none;stroke-dashoffset:0;stroke-opacity:1" transform="matrix(0.75,0,0,0.75,10.999976,-4.5)" />
          <circle r="2" cy="14" cx="14" transform="matrix(0.7499877,0,0,0.75,9.5001722,-3)" style="fill:#ffc000;fill-opacity:1;fill-rule:nonzero;stroke:none;stroke-width:2;stroke-linecap:round;stroke-linejoin:miter;stroke-miterlimit:4;stroke-dasharray:none;stroke-dashoffset:0;stroke-opacity:1" id="path3425" />
          <circle r="2" cy="14" cx="14" style="fill:yellow;fill-opacity:1;fill-rule:nonzero;stroke:none;stroke-width:2;stroke-linecap:round;stroke-linejoin:miter;stroke-miterlimit:4;stroke-dasharray:none;stroke-dashoffset:0;stroke-opacity:1" id="path3427" transform="matrix(0.75,0,0,0.75,9.4999756,-4.5)" />
        </g>
      </g>
    </g>
    <g id="g22570">
      <rect style="opacity:1;fill:#c0ff00;fill-opacity:1;fill-rule:nonzero;stroke:none;stroke-width:2;stroke-linecap:butt;stroke-linejoin:miter;stroke-miterlimit:4;stroke-dasharray:none;stroke-dashoffset:0;stroke-opacity:1" id="rect19792" width="96" height="96" x="0" y="-64" />
      <g id="g19794" transform="translate(-6.5,-10.5)">
        <g id="g19796">
          <circle r="2" cy="14" cx="14" id="circle19798" style="opacity:1;fill:white;fill-opacity:1;fill-rule:nonzero;stroke:none;stroke-width:2;stroke-linecap:round;stroke-linejoin:miter;stroke-miterlimit:4;stroke-dasharray:none;stroke-dashoffset:0;stroke-opacity:1" transform="matrix(0.75,0,0,0.75,1.5,3)" />
          <circle r="2" cy="14" cx="14" transform="matrix(0.75,0,0,0.75,3,1.5)" style="opacity:1;fill:white;fill-opacity:1;fill-rule:nonzero;stroke:none;stroke-width:2;stroke-linecap:round;stroke-linejoin:miter;stroke-miterlimit:4;stroke-dasharray:none;stroke-dashoffset:0;stroke-opacity:1" id="circle19800" />
          <circle r="2" cy="14" cx="14" id="circle19802" style="opacity:1;fill:white;fill-opacity:1;fill-rule:nonzero;stroke:none;stroke-width:2;stroke-linecap:round;stroke-linejoin:miter;stroke-miterlimit:4;stroke-dasharray:none;stroke-dashoffset:0;stroke-opacity:1" transform="matrix(0.75,0,0,0.75,4.5,3)" />
          <circle r="2" cy="14" cx="14" transform="matrix(0.7499877,0,0,0.75,3.0001966,4.5)" style="opacity:1;fill:white;fill-opacity:1;fill-rule:nonzero;stroke:none;stroke-width:2;stroke-linecap:round;stroke-linejoin:miter;stroke-miterlimit:4;stroke-dasharray:none;stroke-dashoffset:0;stroke-opacity:1" id="circle19804" />
        </g>
        <circle r="2" cy="14" cx="14" transform="matrix(0.75,0,0,0.75,3,3)" id="circle19806" style="opacity:1;fill:yellow;fill-opacity:1;fill-rule:nonzero;stroke:none;stroke-width:2;stroke-linecap:round;stroke-linejoin:miter;stroke-miterlimit:4;stroke-dasharray:none;stroke-dashoffset:0;stroke-opacity:1" />
      </g>
      <g transform="translate(21.498068,-22.672131)" id="g19819">
        <path sodipodi:nodetypes="csssc" id="path19821" d="M 20,9 C 20,9 18.71388,5 17,5 14.557377,5 13.502588,7 15,7.3934426 16.131183,7.690659 16.416177,7 17.57377,7 18.564591,7 20.065574,8.9836066 20,9 Z" style="opacity:1;fill:#00d700;fill-opacity:1;fill-rule:nonzero;stroke:none;stroke-width:2;stroke-linecap:round;stroke-linejoin:miter;stroke-miterlimit:4;stroke-dasharray:none;stroke-dashoffset:0;stroke-opacity:1" inkscape:connector-curvature="0" />
        <path style="opacity:1;fill:green;fill-opacity:1;fill-rule:nonzero;stroke:none;stroke-width:2;stroke-linecap:round;stroke-linejoin:miter;stroke-miterlimit:4;stroke-dasharray:none;stroke-dashoffset:0;stroke-opacity:1" d="m 19.001507,9.256066 c 0,0 1.050308,-2.4098361 2.672131,-3 2.295375,-0.8352621 3.825281,0.6065574 2.327869,1 -1.131183,0.2972164 -0.826013,0 -1.983606,0 -0.990821,0 -3.081968,1.9836066 -3.016394,2 z" id="path19823" sodipodi:nodetypes="csssc" inkscape:connector-curvature="0" />
        <path sodipodi:nodetypes="cssc" id="path19825" d="m 18.501932,6.6721311 c 1.311475,0 2.390122,0.7757757 1.603237,1.2183987 -0.786885,0.442623 -1.693588,0.8127729 -3,-0.1311475 -0.565577,-0.408646 1.331189,-1.152825 1.396763,-1.0872512 z" style="opacity:1;fill:#00a000;fill-opacity:1;fill-rule:nonzero;stroke:none;stroke-width:2;stroke-linecap:round;stroke-linejoin:miter;stroke-miterlimit:4;stroke-dasharray:none;stroke-dashoffset:0;stroke-opacity:1" inkscape:connector-curvature="0" />
        <g transform="translate(2.44e-5,-2)" id="g19827">
          <circle transform="matrix(0.75,0,0,0.75,7.9999756,-4.5)" style="fill:#ffc000;fill-opacity:1;fill-rule:nonzero;stroke:none;stroke-width:2;stroke-linecap:round;stroke-linejoin:miter;stroke-miterlimit:4;stroke-dasharray:none;stroke-dashoffset:0;stroke-opacity:1" id="circle19829" cx="14" cy="14" r="2" />
          <circle id="circle19831" style="fill:#ffc000;fill-opacity:1;fill-rule:nonzero;stroke:none;stroke-width:2;stroke-linecap:round;stroke-linejoin:miter;stroke-miterlimit:4;stroke-dasharray:none;stroke-dashoffset:0;stroke-opacity:1" transform="matrix(0.75,0,0,0.75,9.4999756,-6)" cx="14" cy="14" r="2" />
          <circle transform="matrix(0.75,0,0,0.75,10.999976,-4.5)" style="fill:#ffc000;fill-opacity:1;fill-rule:nonzero;stroke:none;stroke-width:2;stroke-linecap:round;stroke-linejoin:miter;stroke-miterlimit:4;stroke-dasharray:none;stroke-dashoffset:0;stroke-opacity:1" id="circle19833" cx="14" cy="14" r="2" />
          <circle id="circle19835" style="fill:#ffc000;fill-opacity:1;fill-rule:nonzero;stroke:none;stroke-width:2;stroke-linecap:round;stroke-linejoin:miter;stroke-miterlimit:4;stroke-dasharray:none;stroke-dashoffset:0;stroke-opacity:1" transform="matrix(0.7499877,0,0,0.75,9.5001722,-3)" cx="14" cy="14" r="2" />
          <circle transform="matrix(0.75,0,0,0.75,9.4999756,-4.5)" id="circle19837" style="fill:yellow;fill-opacity:1;fill-rule:nonzero;stroke:none;stroke-width:2;stroke-linecap:round;stroke-linejoin:miter;stroke-miterlimit:4;stroke-dasharray:none;stroke-dashoffset:0;stroke-opacity:1" cx="14" cy="14" r="2" />
        </g>
      </g>
      <g id="g19839" transform="translate(2,-2)">
        <path inkscape:connector-curvature="0" id="path19841" d="m 8,20 c 0,0 -0.4945834,-2 0,-4 0.4945834,-2 4,-4 4,-4 0,0 -2,2 -3,4 -1,2 -1.0642707,4.152292 -1,4 z" style="fill:green;fill-opacity:1;fill-rule:nonzero;stroke:none;stroke-width:2;stroke-linecap:round;stroke-linejoin:miter;stroke-miterlimit:4;stroke-dasharray:none;stroke-dashoffset:0;stroke-opacity:1" />
        <path inkscape:connector-curvature="0" sodipodi:nodetypes="cscsc" style="fill:#00a000;fill-opacity:1;fill-rule:nonzero;stroke:none;stroke-width:2;stroke-linecap:round;stroke-linejoin:miter;stroke-miterlimit:4;stroke-dasharray:none;stroke-dashoffset:0;stroke-opacity:1" d="m 7.5441566,20 c 0,0 0.4417732,-2.012324 -0.105279,-3.998615 -0.5470509,-1.986289 -2.9023484,-2.77642 -2.9023484,-2.77642 0,0 0.8504022,0.829753 1.9026949,2.80274 C 7.4915171,18.000693 7.6124135,20.150548 7.5441566,20 Z" id="path19843" />
        <path inkscape:connector-curvature="0" sodipodi:nodetypes="cscsc" id="path19845" d="m 6.5737705,19.737705 c 0,0 1.1489379,-3.963346 0.9747385,-5.357051 C 7.3967664,13.166618 5,13 5,13 c 0,0 3.8567243,0.04484 3.6393443,0.936768 -0.4874402,2 -1.9344263,5.735363 -2.0655738,5.800937 z" style="fill:#00c000;fill-opacity:1;fill-rule:nonzero;stroke:none;stroke-width:2;stroke-linecap:round;stroke-linejoin:miter;stroke-miterlimit:4;stroke-dasharray:none;stroke-dashoffset:0;stroke-opacity:1" />
        <path inkscape:connector-curvature="0" id="path19847" d="m 7,19.606557 c 0,0 1.4098361,-2.819672 2.704918,-2.950819 C 11,16.52459 13,14.42623 13,14.42623 c 0,0 -1,2.590163 -2,3.081967 C 10,18 8.3869006,17.668569 8.1934503,18.334285 8,19 6.8852459,19.672131 7,19.606557 Z" style="fill:lime;fill-opacity:1;fill-rule:nonzero;stroke:none;stroke-width:2;stroke-linecap:round;stroke-linejoin:miter;stroke-miterlimit:4;stroke-dasharray:none;stroke-dashoffset:0;stroke-opacity:1" />
      </g>
      <g id="g19849" transform="translate(-0.498147,-4)">
        <path inkscape:connector-curvature="0" style="fill:#00c000;fill-opacity:1;fill-rule:nonzero;stroke:none;stroke-width:2;stroke-linecap:round;stroke-linejoin:miter;stroke-miterlimit:4;stroke-dasharray:none;stroke-dashoffset:0;stroke-opacity:1" d="m 26.498147,32 c 0,0 -0.494583,-2 0,-4 0.494583,-2 4,-4 4,-4 0,0 -2,2 -3,4 -1,2 -1.064271,4.152292 -1,4 z" id="path19851" />
        <path inkscape:connector-curvature="0" id="path19853" d="m 26.242372,32 c 0,0 -0.113904,-2.47134 0.433148,-4.457631 0.547051,-1.986289 1.164644,-4.219043 1.164644,-4.219043 0,0 0.559434,2.731392 -0.492859,4.704379 C 26.295012,30.000693 26.174116,32.150548 26.242372,32 Z" style="fill:#00a000;fill-opacity:1;fill-rule:nonzero;stroke:none;stroke-width:2;stroke-linecap:round;stroke-linejoin:miter;stroke-miterlimit:4;stroke-dasharray:none;stroke-dashoffset:0;stroke-opacity:1" sodipodi:nodetypes="cscsc" />
        <path inkscape:connector-curvature="0" style="fill:green;fill-opacity:1;fill-rule:nonzero;stroke:none;stroke-width:2;stroke-linecap:round;stroke-linejoin:miter;stroke-miterlimit:4;stroke-dasharray:none;stroke-dashoffset:0;stroke-opacity:1" d="m 27.278332,31.540984 c 0,0 -1.296122,-1.900114 -1.121923,-3.293819 0.151743,-1.214036 1.285858,-3.902902 1.285858,-3.902902 0,0 -2.298991,2.960535 -2.081611,3.852459 0.48744,2 1.786529,3.278688 1.917676,3.344262 z" id="path19855" sodipodi:nodetypes="cscsc" />
        <path inkscape:connector-curvature="0" sodipodi:nodetypes="cscssc" style="fill:lime;fill-opacity:1;fill-rule:nonzero;stroke:none;stroke-width:2;stroke-linecap:round;stroke-linejoin:miter;stroke-miterlimit:4;stroke-dasharray:none;stroke-dashoffset:0;stroke-opacity:1" d="m 20.829643,27.007606 c 0,0 3.84611,0.985593 4.206883,2.236305 C 25.397299,30.494623 27,31.983797 27,31.983797 c 0,0 -1.350249,-1.044966 -2.013055,-1.940822 -0.662806,-0.895857 -1.37947,-1.39999 -1.937911,-1.799064 -0.564033,-0.40307 -2.304441,-1.337473 -2.219391,-1.236305 z" id="path19857" />
        <path inkscape:connector-curvature="0" sodipodi:nodetypes="csscsssc" id="path19859" d="m 26.244933,31.64858 c 0,0 -1.937633,-3.091942 -1.740912,-4.305057 0.196722,-1.213115 0.934427,-3.081967 0.754099,-3.786885 -0.180328,-0.704918 0.327869,-1.754099 0.327869,-1.754099 0,0 -0.229509,0.95082 -0.163935,1.327869 0.06557,0.377049 0.556683,1.563998 0.295082,2 -0.442623,0.737705 -0.901639,2 -0.704918,2.639344 0.279623,0.908774 1.262295,3.934426 1.232715,3.878828 z" style="opacity:1;fill:#00a000;fill-opacity:1;fill-rule:nonzero;stroke:none;stroke-width:2;stroke-linecap:round;stroke-linejoin:miter;stroke-miterlimit:4;stroke-dasharray:none;stroke-dashoffset:0;stroke-opacity:1" />
      </g>
      <g transform="translate(-16.999976,15.5)" id="g19861">
        <circle r="2" cy="14" cx="14" transform="matrix(0.75,0,0,0.75,7.9999756,-4.5)" style="fill:#ffc000;fill-opacity:1;fill-rule:nonzero;stroke:none;stroke-width:2;stroke-linecap:round;stroke-linejoin:miter;stroke-miterlimit:4;stroke-dasharray:none;stroke-dashoffset:0;stroke-opacity:1" id="circle19863" />
        <circle r="2" cy="14" cx="14" id="circle19865" style="fill:#ffc000;fill-opacity:1;fill-rule:nonzero;stroke:none;stroke-width:2;stroke-linecap:round;stroke-linejoin:miter;stroke-miterlimit:4;stroke-dasharray:none;stroke-dashoffset:0;stroke-opacity:1" transform="matrix(0.75,0,0,0.75,9.4999756,-6)" />
        <circle r="2" cy="14" cx="14" transform="matrix(0.75,0,0,0.75,10.999976,-4.5)" style="fill:#ffc000;fill-opacity:1;fill-rule:nonzero;stroke:none;stroke-width:2;stroke-linecap:round;stroke-linejoin:miter;stroke-miterlimit:4;stroke-dasharray:none;stroke-dashoffset:0;stroke-opacity:1" id="circle19867" />
        <circle r="2" cy="14" cx="14" id="circle19869" style="fill:#ffc000;fill-opacity:1;fill-rule:nonzero;stroke:none;stroke-width:2;stroke-linecap:round;stroke-linejoin:miter;stroke-miterlimit:4;stroke-dasharray:none;stroke-dashoffset:0;stroke-opacity:1" transform="matrix(0.7499877,0,0,0.75,9.5001722,-3)" />
        <circle r="2" cy="14" cx="14" transform="matrix(0.75,0,0,0.75,9.4999756,-4.5)" id="circle19871" style="fill:yellow;fill-opacity:1;fill-rule:nonzero;stroke:none;stroke-width:2;stroke-linecap:round;stroke-linejoin:miter;stroke-miterlimit:4;stroke-dasharray:none;stroke-dashoffset:0;stroke-opacity:1" />
      </g>
      <g transform="translate(19,-13)" id="g20115">
        <path style="fill:green;fill-opacity:1;fill-rule:nonzero;stroke:none;stroke-width:2;stroke-linecap:round;stroke-linejoin:miter;stroke-miterlimit:4;stroke-dasharray:none;stroke-dashoffset:0;stroke-opacity:1" d="m 44,0 c 0,0 -0.494583,-2 0,-4 0.494583,-2 4,-4 4,-4 0,0 -2,2 -3,4 -1,2 -1.064271,4.152292 -1,4 z" id="path20013" inkscape:connector-curvature="0" />
        <path id="path20015" d="m 43.544157,0 c 0,0 0.441773,-2.012324 -0.105279,-3.998615 -0.547051,-1.986289 -2.902349,-2.77642 -2.902349,-2.77642 0,0 0.850402,0.829753 1.902695,2.80274 1.052293,1.972988 1.17319,4.122843 1.104933,3.972295 z" style="fill:#00a000;fill-opacity:1;fill-rule:nonzero;stroke:none;stroke-width:2;stroke-linecap:round;stroke-linejoin:miter;stroke-miterlimit:4;stroke-dasharray:none;stroke-dashoffset:0;stroke-opacity:1" sodipodi:nodetypes="cscsc" inkscape:connector-curvature="0" />
        <path style="fill:#00c000;fill-opacity:1;fill-rule:nonzero;stroke:none;stroke-width:2;stroke-linecap:round;stroke-linejoin:miter;stroke-miterlimit:4;stroke-dasharray:none;stroke-dashoffset:0;stroke-opacity:1" d="m 42.573771,-0.262295 c 0,0 1.148937,-3.963346 0.974738,-5.357051 C 43.396766,-6.833382 41,-7 41,-7 c 0,0 3.856724,0.04484 3.639344,0.936768 -0.48744,2 -1.934426,5.735363 -2.065573,5.800937 z" id="path20017" sodipodi:nodetypes="cscsc" inkscape:connector-curvature="0" />
        <path style="fill:lime;fill-opacity:1;fill-rule:nonzero;stroke:none;stroke-width:2;stroke-linecap:round;stroke-linejoin:miter;stroke-miterlimit:4;stroke-dasharray:none;stroke-dashoffset:0;stroke-opacity:1" d="m 43,-0.393443 c 0,0 1.409836,-2.819672 2.704918,-2.950819 C 47,-3.47541 49,-5.57377 49,-5.57377 c 0,0 -1,2.590163 -2,3.081967 C 46,-2 44.386901,-2.331431 44.19345,-1.665715 44,-1 42.885246,-0.327869 43,-0.393443 Z" id="path20019" inkscape:connector-curvature="0" />
        <path id="path20023" d="m 42,0 c 0,0 0.494583,-2 0,-4 -0.494583,-2 -4,-4 -4,-4 0,0 2,2 3,4 1,2 1.064271,4.152292 1,4 z" style="fill:#00c000;fill-opacity:1;fill-rule:nonzero;stroke:none;stroke-width:2;stroke-linecap:round;stroke-linejoin:miter;stroke-miterlimit:4;stroke-dasharray:none;stroke-dashoffset:0;stroke-opacity:1" inkscape:connector-curvature="0" />
        <path sodipodi:nodetypes="cscsc" style="fill:#00a000;fill-opacity:1;fill-rule:nonzero;stroke:none;stroke-width:2;stroke-linecap:round;stroke-linejoin:miter;stroke-miterlimit:4;stroke-dasharray:none;stroke-dashoffset:0;stroke-opacity:1" d="m 43.402208,-0.323326 c 0,0 -0.113904,-2.47134 0.433148,-4.457631 C 44.382407,-6.767246 45,-9 45,-9 c 0,0 0.559434,2.731392 -0.492859,4.704379 -1.052293,1.972988 -1.173189,4.122843 -1.104933,3.972295 z" id="path20025" inkscape:connector-curvature="0" />
        <path sodipodi:nodetypes="cscsc" id="path20027" d="m 44.830408,-0.75487336 c 0,0 0.305162,-2.27974594 1.365955,-3.20033174 C 47.120404,-4.7571133 49.760754,-6 49.760754,-6 c 0,0 -3.688577,0.6667267 -4.122762,1.4755939 -0.973592,1.8137575 -0.861351,3.63311925 -0.807584,3.76953274 z" style="fill:green;fill-opacity:1;fill-rule:nonzero;stroke:none;stroke-width:2;stroke-linecap:round;stroke-linejoin:miter;stroke-miterlimit:4;stroke-dasharray:none;stroke-dashoffset:0;stroke-opacity:1" inkscape:connector-curvature="0" inkscape:transform-center-x="-2.6833926" inkscape:transform-center-y="-2.2786555" />
        <path id="path20029" d="m 36.829643,-4.976191 c 0,0 3.84611,0.985593 4.206883,2.236305 C 41.397299,-1.489174 43,0 43,0 c 0,0 -1.350249,-1.044966 -2.013055,-1.940822 -0.662806,-0.895857 -1.37947,-1.39999 -1.937911,-1.799064 -0.564033,-0.40307 -2.304441,-1.337473 -2.219391,-1.236305 z" style="fill:lime;fill-opacity:1;fill-rule:nonzero;stroke:none;stroke-width:2;stroke-linecap:round;stroke-linejoin:miter;stroke-miterlimit:4;stroke-dasharray:none;stroke-dashoffset:0;stroke-opacity:1" sodipodi:nodetypes="cscssc" inkscape:connector-curvature="0" />
        <path style="opacity:1;fill:#00a000;fill-opacity:1;fill-rule:nonzero;stroke:none;stroke-width:2;stroke-linecap:round;stroke-linejoin:miter;stroke-miterlimit:4;stroke-dasharray:none;stroke-dashoffset:0;stroke-opacity:1" d="m 42.658944,-0.153959 c 0,0 -1.937633,-3.091942 -1.740912,-4.305057 0.196722,-1.213115 0.934427,-3.081967 0.754099,-3.786885 C 41.491803,-8.950819 42,-10 42,-10 c 0,0 -0.229509,0.95082 -0.163935,1.327869 0.06557,0.377049 0.556683,1.563998 0.295082,2 -0.442623,0.737705 -0.901639,2 -0.704918,2.639344 0.279623,0.908774 1.262295,3.934426 1.232715,3.878828 z" id="path20031" sodipodi:nodetypes="csscsssc" inkscape:connector-curvature="0" />
      </g>
      <g transform="translate(-60.992372,-15.775035)" id="g20109">
        <path inkscape:connector-curvature="0" sodipodi:nodetypes="cscsc" style="fill:#00a000;fill-opacity:1;fill-rule:nonzero;stroke:none;stroke-width:2;stroke-linecap:round;stroke-linejoin:miter;stroke-miterlimit:4;stroke-dasharray:none;stroke-dashoffset:0;stroke-opacity:1" d="m 72.992372,-36.224965 c 0,0 -0.441773,-2.012324 0.105279,-3.998615 C 73.644702,-42.209869 76,-43 76,-43 c 0,0 -0.850402,0.829753 -1.902695,2.80274 -1.052293,1.972988 -1.17319,4.122843 -1.104933,3.972295 z" id="path20078" />
        <path inkscape:connector-curvature="0" style="fill:#00c000;fill-opacity:1;fill-rule:nonzero;stroke:none;stroke-width:2;stroke-linecap:round;stroke-linejoin:miter;stroke-miterlimit:4;stroke-dasharray:none;stroke-dashoffset:0;stroke-opacity:1" d="m 73.080154,-36 c 0,0 0.05937,-2.05939 -0.847953,-3.909089 -0.907319,-1.849699 -4.757042,-3.061136 -4.757042,-3.061136 0,0 2.378521,1.530568 3.77977,3.273124 1.401248,1.742557 1.920319,3.832307 1.825225,3.697101 z" id="path20084" inkscape:transform-center-x="2.7569595" inkscape:transform-center-y="-3.1081867" />
        <path inkscape:connector-curvature="0" id="path20086" d="m 72.597792,-36.323326 c 0,0 0.113904,-2.47134 -0.433148,-4.457631 C 71.617593,-42.767246 71,-45 71,-45 c 0,0 -0.559434,2.731392 0.492859,4.704379 1.052293,1.972988 1.173189,4.122843 1.104933,3.972295 z" style="fill:#00a000;fill-opacity:1;fill-rule:nonzero;stroke:none;stroke-width:2;stroke-linecap:round;stroke-linejoin:miter;stroke-miterlimit:4;stroke-dasharray:none;stroke-dashoffset:0;stroke-opacity:1" sodipodi:nodetypes="cscsc" />
        <path inkscape:transform-center-y="-1.5506155" inkscape:transform-center-x="-3.1895706" inkscape:connector-curvature="0" style="fill:green;fill-opacity:1;fill-rule:nonzero;stroke:none;stroke-width:2;stroke-linecap:round;stroke-linejoin:miter;stroke-miterlimit:4;stroke-dasharray:none;stroke-dashoffset:0;stroke-opacity:1" d="m 72.897476,-36.17658 c 0,0 0.873296,-2.127844 2.132862,-2.749338 C 76.127527,-39.467292 78.996749,-40 78.996749,-40 c 0,0 -3.737081,-0.290433 -4.36219,0.381892 -1.401709,1.507583 -1.7545,3.295938 -1.737083,3.441528 z" id="path20088" sodipodi:nodetypes="cscsc" />
      </g>
      <g transform="translate(-7.587386,49.57377)" id="g20094">
        <path inkscape:connector-curvature="0" id="path20076" d="m 85,-37 c 0,0 -0.494583,-2 0,-4 0.494583,-2 4,-4 4,-4 0,0 -2,2 -3,4 -1,2 -1.064271,4.152292 -1,4 z" style="fill:green;fill-opacity:1;fill-rule:nonzero;stroke:none;stroke-width:2;stroke-linecap:round;stroke-linejoin:miter;stroke-miterlimit:4;stroke-dasharray:none;stroke-dashoffset:0;stroke-opacity:1" />
        <path inkscape:connector-curvature="0" sodipodi:nodetypes="cscsc" id="path20080" d="m 86.111649,-36.311671 c 0,0 -1.782741,-3.721559 -1.839231,-5.124972 -0.04921,-1.222493 2.287876,-1.77953 2.287876,-1.77953 0,0 -3.797266,0.676094 -3.436695,1.520357 0.80852,1.893117 2.847932,5.340943 2.98805,5.384145 z" style="fill:#00c000;fill-opacity:1;fill-rule:nonzero;stroke:none;stroke-width:2;stroke-linecap:round;stroke-linejoin:miter;stroke-miterlimit:4;stroke-dasharray:none;stroke-dashoffset:0;stroke-opacity:1" inkscape:transform-center-y="-2.882605" inkscape:transform-center-x="0.93341179" />
        <path inkscape:connector-curvature="0" id="path20082" d="m 85.587386,-36.393443 c 0,0 -1.409836,-2.819672 -2.704918,-2.950819 -1.295082,-0.131148 -3.295082,-2.229508 -3.295082,-2.229508 0,0 1,2.590163 2,3.081967 1,0.491803 2.613099,0.160372 2.80655,0.826088 0.19345,0.665715 1.308204,1.337846 1.19345,1.272272 z" style="fill:lime;fill-opacity:1;fill-rule:nonzero;stroke:none;stroke-width:2;stroke-linecap:round;stroke-linejoin:miter;stroke-miterlimit:4;stroke-dasharray:none;stroke-dashoffset:0;stroke-opacity:1" />
        <path inkscape:connector-curvature="0" sodipodi:nodetypes="cscssc" style="fill:lime;fill-opacity:1;fill-rule:nonzero;stroke:none;stroke-width:2;stroke-linecap:round;stroke-linejoin:miter;stroke-miterlimit:4;stroke-dasharray:none;stroke-dashoffset:0;stroke-opacity:1" d="m 90.170357,-40.976191 c 0,0 -3.84611,0.985593 -4.206883,2.236305 C 85.602701,-37.489174 84,-36 84,-36 c 0,0 1.350249,-1.044966 2.013055,-1.940822 0.662806,-0.895857 1.37947,-1.39999 1.937911,-1.799064 0.564033,-0.40307 2.304441,-1.337473 2.219391,-1.236305 z" id="path20090" />
        <path inkscape:connector-curvature="0" sodipodi:nodetypes="csscsssc" id="path20092" d="m 85.092339,-36.026153 c 0,0 -0.498315,-3.614721 -1.427714,-4.418815 -0.929398,-0.804093 -2.694506,-1.76389 -3.008602,-2.420222 C 80.341927,-43.521522 79.278864,-44 79.278864,-44 c 0,0 0.786212,0.581896 0.977899,0.913139 0.19169,0.331241 0.576794,1.556694 1.057226,1.72318 0.81288,0.281689 1.974995,0.955169 2.234436,1.571731 0.368773,0.876394 1.55691,3.827418 1.543914,3.765797 z" style="opacity:1;fill:#00a000;fill-opacity:1;fill-rule:nonzero;stroke:none;stroke-width:2;stroke-linecap:round;stroke-linejoin:miter;stroke-miterlimit:4;stroke-dasharray:none;stroke-dashoffset:0;stroke-opacity:1" inkscape:transform-center-x="2.6518322" inkscape:transform-center-y="-3.2627326" />
      </g>
      <g transform="matrix(-1,0,0,1,141.58739,-41)" id="g20126">
        <g transform="translate(19,-3)" id="g20146">
          <path style="fill:green;fill-opacity:1;fill-rule:nonzero;stroke:none;stroke-width:2;stroke-linecap:round;stroke-linejoin:miter;stroke-miterlimit:4;stroke-dasharray:none;stroke-dashoffset:0;stroke-opacity:1" d="m 44,0 c 0,0 -0.494583,-2 0,-4 0.494583,-2 4,-4 4,-4 0,0 -2,2 -3,4 -1,2 -1.064271,4.152292 -1,4 z" id="path20128" inkscape:connector-curvature="0" />
          <path id="path20130" d="m 43.544157,0 c 0,0 0.441773,-2.012324 -0.105279,-3.998615 -0.547051,-1.986289 -2.902349,-2.77642 -2.902349,-2.77642 0,0 0.850402,0.829753 1.902695,2.80274 1.052293,1.972988 1.17319,4.122843 1.104933,3.972295 z" style="fill:#00a000;fill-opacity:1;fill-rule:nonzero;stroke:none;stroke-width:2;stroke-linecap:round;stroke-linejoin:miter;stroke-miterlimit:4;stroke-dasharray:none;stroke-dashoffset:0;stroke-opacity:1" sodipodi:nodetypes="cscsc" inkscape:connector-curvature="0" />
          <path style="fill:lime;fill-opacity:1;fill-rule:nonzero;stroke:none;stroke-width:2;stroke-linecap:round;stroke-linejoin:miter;stroke-miterlimit:4;stroke-dasharray:none;stroke-dashoffset:0;stroke-opacity:1" d="m 43,-0.393443 c 0,0 1.409836,-2.819672 2.704918,-2.950819 C 47,-3.47541 49,-5.57377 49,-5.57377 c 0,0 -1,2.590163 -2,3.081967 C 46,-2 44.386901,-2.331431 44.19345,-1.665715 44,-1 42.885246,-0.327869 43,-0.393443 Z" id="path20134" inkscape:connector-curvature="0" />
          <path id="path20136" d="m 43.588897,0.05490661 c 0,0 -0.248882,-2.04515781 -1.422286,-3.73859631 C 40.993206,-5.3771282 37.005728,-6 37.005728,-6 c 0,0 2.580442,1.1581551 4.226234,2.6718818 1.645792,1.5137266 2.471156,3.50251145 2.356935,3.38302481 z" style="fill:#00c000;fill-opacity:1;fill-rule:nonzero;stroke:none;stroke-width:2;stroke-linecap:round;stroke-linejoin:miter;stroke-miterlimit:4;stroke-dasharray:none;stroke-dashoffset:0;stroke-opacity:1" inkscape:connector-curvature="0" inkscape:transform-center-x="-3.4349827" inkscape:transform-center-y="-2.9933311" />
          <path id="path20142" d="m 42.58739,-8 c 0,0 2.223375,3.2894616 1.66336,4.4645446 -0.560016,1.1750831 -0.349147,3.35265604 -0.349147,3.35265604 0,0 -0.31676,-1.67773324 -0.218171,-2.78775574 0.09859,-1.1100232 -0.103043,-1.9627255 -0.256018,-2.6318405 C 43.272906,-6.2782108 42.590893,-8.1321219 42.58739,-8 Z" style="fill:lime;fill-opacity:1;fill-rule:nonzero;stroke:none;stroke-width:2;stroke-linecap:round;stroke-linejoin:miter;stroke-miterlimit:4;stroke-dasharray:none;stroke-dashoffset:0;stroke-opacity:1" sodipodi:nodetypes="cscssc" inkscape:connector-curvature="0" inkscape:transform-center-x="-0.3723165" inkscape:transform-center-y="-3.7390017" />
          <path sodipodi:nodetypes="cscsc" style="fill:#00a000;fill-opacity:1;fill-rule:nonzero;stroke:none;stroke-width:2;stroke-linecap:round;stroke-linejoin:miter;stroke-miterlimit:4;stroke-dasharray:none;stroke-dashoffset:0;stroke-opacity:1" d="m 43.402208,-0.323326 c 0,0 -0.113904,-2.47134 0.433148,-4.457631 C 44.382407,-6.767246 45,-9 45,-9 c 0,0 0.559434,2.731392 -0.492859,4.704379 -1.052293,1.972988 -1.173189,4.122843 -1.104933,3.972295 z" id="path20138" inkscape:connector-curvature="0" />
          <path sodipodi:nodetypes="cscsc" id="path20140" d="m 44.830408,-0.75487336 c 0,0 0.305162,-2.27974594 1.365955,-3.20033174 C 47.120404,-4.7571133 49.760754,-6 49.760754,-6 c 0,0 -3.688577,0.6667267 -4.122762,1.4755939 -0.973592,1.8137575 -0.861351,3.63311925 -0.807584,3.76953274 z" style="fill:green;fill-opacity:1;fill-rule:nonzero;stroke:none;stroke-width:2;stroke-linecap:round;stroke-linejoin:miter;stroke-miterlimit:4;stroke-dasharray:none;stroke-dashoffset:0;stroke-opacity:1" inkscape:connector-curvature="0" inkscape:transform-center-x="-2.6833926" inkscape:transform-center-y="-2.2786555" />
        </g>
      </g>
      <use height="100%" width="100%" transform="translate(28,-48)" id="use20155" xlink:href="#g19794" y="0" x="0" />
      <use height="100%" width="100%" transform="translate(60,-74)" id="use20157" xlink:href="#g19861" y="0" x="0" />
      <use height="100%" width="100%" transform="matrix(-1,0,0,1,111.9015,38)" id="use20159" xlink:href="#g19819" y="0" x="0" />
      <use height="100%" width="100%" transform="translate(26,-64)" id="use20161" xlink:href="#g19849" y="0" x="0" />
      <use height="100%" width="100%" transform="matrix(-1,0,0,1,102.4083,46)" id="use20163" xlink:href="#g20126" y="0" x="0" />
      <use height="100%" width="100%" transform="translate(54,26)" id="use20165" xlink:href="#g19794" y="0" x="0" />
      <use height="100%" width="100%" transform="translate(84,-52)" id="use20167" xlink:href="#g19861" y="0" x="0" />
      <g id="g22559">
        <path style="opacity:1;fill:#41b500;fill-opacity:1;fill-rule:nonzero;stroke:none;stroke-width:2;stroke-linecap:butt;stroke-linejoin:miter;stroke-miterlimit:4;stroke-dasharray:none;stroke-dashoffset:0;stroke-opacity:1" d="m 17.879177,-35.003727 c 0,0 -5.628922,1.711453 -3.349816,3.990558 2.279105,2.279106 3.349816,-3.990558 3.349816,-3.990558 z" id="path22549" inkscape:connector-curvature="0" inkscape:transform-center-x="1.9415474" inkscape:transform-center-y="2.2291841" />
        <use x="0" y="0" xlink:href="#path22549" inkscape:transform-center-x="2.3666237" inkscape:transform-center-y="-1.7466644" id="use22553" transform="matrix(0.12824441,0.9917426,-0.9917426,0.12824441,-17.997009,-48.254908)" width="100%" height="100%" />
        <use height="100%" width="100%" transform="matrix(-0.21981314,0.97554199,0.97554199,0.21981314,57.056005,-44.76151)" id="use22555" inkscape:transform-center-y="-1.587013" inkscape:transform-center-x="-2.4465085" xlink:href="#path22549" y="0" x="0" />
        <path inkscape:transform-center-y="2.5453719" inkscape:transform-center-x="-1.1524724" inkscape:connector-curvature="0" id="path22557" d="m 19,-35 c 0,0 4.57819,3.695135 1.611363,4.954729 C 17.644535,-28.785676 19,-35 19,-35 Z" style="opacity:1;fill:#41b500;fill-opacity:1;fill-rule:nonzero;stroke:none;stroke-width:2;stroke-linecap:butt;stroke-linejoin:miter;stroke-miterlimit:4;stroke-dasharray:none;stroke-dashoffset:0;stroke-opacity:1" />
        <g transform="matrix(0.06981847,0,0,0.06981847,14.856448,-90.313508)" id="g4792">
          <path inkscape:connector-curvature="0" style="fill:#a59eff;fill-opacity:1;fill-rule:nonzero;stroke:none" d="m 59.294118,776.19411 c 0,0 -0.20111,-47.79889 -32,-16 -31.7988924,31.79889 16,32 16,32 0,0 -47.7988924,0.20111 -16,32 31.79889,31.79889 32,-16 32,-16 0,0 -0.052,48.05205 32,16 32.052052,-32.05205 -16,-32 -16,-32 0,0 47.798892,-0.20111 16,-32 -31.79889,-31.79889 -32,16 -32,16 z" id="path4794" sodipodi:nodetypes="czczczczc" />
          <circle r="16" cy="112" cx="112" style="fill:yellow;fill-opacity:1;fill-rule:nonzero;stroke:none" id="path4796" transform="translate(-52.705882,680.19411)" />
        </g>
      </g>
      <use height="100%" width="100%" transform="translate(38,30)" id="use22568" xlink:href="#g22559" y="0" x="0" />
    </g>
  </g>
</svg>
