<?xml version="1.0" encoding="UTF-8" standalone="no"?>
<!-- Created with Inkscape (http://www.inkscape.org/) -->

<svg
   xmlns:dc="http://purl.org/dc/elements/1.1/"
   xmlns:cc="http://creativecommons.org/ns#"
   xmlns:rdf="http://www.w3.org/1999/02/22-rdf-syntax-ns#"
   xmlns:svg="http://www.w3.org/2000/svg"
   xmlns="http://www.w3.org/2000/svg"
   xmlns:xlink="http://www.w3.org/1999/xlink"
   xmlns:sodipodi="http://sodipodi.sourceforge.net/DTD/sodipodi-0.dtd"
   xmlns:inkscape="http://www.inkscape.org/namespaces/inkscape"
   width="32"
   height="32"
   id="svg4150"
   version="1.1"
   inkscape:version="0.91 r13725"
   viewBox="0 0 32 32"
   sodipodi:docname="button-restart-00.svg">
  <defs
     id="defs4152" />
  <sodipodi:namedview
     id="base"
     pagecolor="#ffffff"
     bordercolor="#666666"
     borderopacity="1.0"
     inkscape:pageopacity="0.0"
     inkscape:pageshadow="2"
     inkscape:zoom="13.612951"
     inkscape:cx="8.9265537"
     inkscape:cy="15.909605"
     inkscape:current-layer="layer2"
     showgrid="true"
     inkscape:grid-bbox="true"
     inkscape:document-units="px"
     objecttolerance="10000"
     inkscape:snap-perpendicular="true"
     guidetolerance="10000"
     inkscape:window-width="1376"
     inkscape:window-height="720"
     inkscape:window-x="416"
     inkscape:window-y="262"
     inkscape:window-maximized="0"
     showguides="true"
     inkscape:guide-bbox="true">
    <inkscape:grid
       type="xygrid"
       id="grid4698"
       empspacing="4" />
    <sodipodi:guide
       position="16,32"
       orientation="1,0"
       id="guide4769" />
    <sodipodi:guide
       position="-4,16"
       orientation="0,1"
       id="guide4771" />
    <sodipodi:guide
       position="16,16"
       orientation="-0.70710678,0.70710678"
       id="guide4773" />
    <sodipodi:guide
       position="16,16"
       orientation="0.70710678,0.70710678"
       id="guide4775" />
    <sodipodi:guide
       orientation="0,1"
       position="-4,20"
       id="guide8137" />
    <sodipodi:guide
       orientation="0,1"
       position="-4,12"
       id="guide8139" />
  </sodipodi:namedview>
  <metadata
     id="metadata4155">
    <rdf:RDF>
      <cc:Work
         rdf:about="">
        <dc:format>image/svg+xml</dc:format>
        <dc:type
           rdf:resource="http://purl.org/dc/dcmitype/StillImage" />
        <dc:title></dc:title>
      </cc:Work>
    </rdf:RDF>
  </metadata>
  <g
     id="layer1"
     inkscape:label="button"
     inkscape:groupmode="layer"
     sodipodi:insensitive="true">
    <g
       id="g8228">
      <rect
         style="fill:#fc0;fill-opacity:1;stroke:none"
         id="rect3767"
         width="32"
         height="32"
         x="0"
         y="0"
         ry="4" />
      <path
         id="rect2997"
         d="M 1.875,1.875 C 1.33275,2.41725 1,3.169 1,4 l 0,24 c 0,1.662 1.338,3 3,3 l 24,0 c 0.831,0 1.58275,-0.33275 2.125,-0.875 L 29.40625,29.40625 C 29.04475,29.76775 28.554,30 28,30 L 4,30 C 2.892,30 2,29.108 2,28 L 2,4 C 2,3.446 2.23225,2.95525 2.59375,2.59375 L 1.875,1.875 z"
         style="fill:black;fill-opacity:0.37647059;stroke:none"
         inkscape:connector-curvature="0" />
      <path
         inkscape:connector-curvature="0"
         id="rect2993"
         d="M 4,0 C 1.784,0 0,1.784 0,4 l 0,24 c 0,2.216 1.784,4 4,4 l 24,0 c 2.216,0 4,-1.784 4,-4 L 32,4 C 32,1.784 30.216,0 28,0 L 4,0 z m 0,1 24,0 c 1.662,0 3,1.338 3,3 l 0,24 c 0,1.662 -1.338,3 -3,3 L 4,31 C 2.338,31 1,29.662 1,28 L 1,4 C 1,2.338 2.338,1 4,1 z"
         style="fill:black;fill-opacity:1;stroke:none" />
      <path
         inkscape:connector-curvature="0"
         id="rect3774"
         d="M 4,1 C 3.169,1 2.41725,1.33275 1.875,1.875 L 2.59375,2.59375 C 2.95525,2.23225 3.446,2 4,2 l 24,0 c 1.108,0 2,0.892 2,2 l 0,24 c 0,0.554 -0.23225,1.04475 -0.59375,1.40625 L 30.125,30.125 C 30.66725,29.58275 31,28.831 31,28 L 31,4 C 31,2.338 29.662,1 28,1 L 4,1 z"
         style="fill:white;fill-opacity:0.37647059;stroke:none" />
      <rect
         rx="1"
         ry="1"
         y="2"
         x="3"
         height="2"
         width="26"
         id="rect3793"
         style="fill:white;fill-opacity:0.50196078;stroke:none" />
      <rect
         rx="0.5"
         ry="0.5"
         y="2"
         x="4"
         height="1"
         width="24"
         id="rect3795"
         style="fill:white;fill-opacity:0.50196078;stroke:none" />
    </g>
  </g>
  <g
     inkscape:groupmode="layer"
     id="layer2"
     inkscape:label="symbol"
     style="display:inline">
    <g
       transform="translate(0.23686347,0.10189184)"
       id="g3729">
      <g
         style="stroke:#000000;stroke-width:1.99997926;stroke-miterlimit:4;stroke-dasharray:none;stroke-opacity:1"
         transform="matrix(1.0000207,0,0,1,-1.243181,1.25)"
         id="g2948">
        <path
           inkscape:connector-curvature="0"
           style="color:#000000;font-style:normal;font-variant:normal;font-weight:normal;font-stretch:normal;font-size:medium;line-height:normal;font-family:'Bitstream Vera Sans';-inkscape-font-specification:'Bitstream Vera Sans';text-indent:0;text-align:start;text-decoration:none;text-decoration-line:none;letter-spacing:normal;word-spacing:normal;text-transform:none;direction:ltr;block-progression:tb;writing-mode:lr-tb;text-anchor:start;display:inline;overflow:visible;visibility:visible;fill:#ff0000;fill-opacity:1;stroke:#000000;stroke-width:1.99997926;stroke-miterlimit:4;stroke-dasharray:none;stroke-opacity:1;marker:none;enable-background:accumulate"
           d="M 3.375,13.40625 C 1.2299592,17.121569 2.2355457,21.809352 5.53125,24.375 L 4.75,25.75 l 4,0 -2,-3.46875 L 6.03125,23.5 C 3.2063279,21.217741 2.3764323,17.151365 4.25,13.90625 l -0.875,-0.5 z"
           id="path2950" />
        <path
           inkscape:connector-curvature="0"
           sodipodi:nodetypes="ccccccccccc"
           id="path2952"
           d="m 3,12.03125 -0.5,0.875 C 0.26162298,16.783232 1.1863354,21.543456 4.3125,24.5 l -1.28125,2.25 7.4375,0 -3.71875,-6.46875 -0.875,1.5 0,0.03125 C 4.1502446,19.77683 3.7097978,16.857453 5.125,14.40625 l 0.5,-0.875 -2.625,-1.5 z"
           style="color:#000000;font-style:normal;font-variant:normal;font-weight:normal;font-stretch:normal;font-size:medium;line-height:normal;font-family:'Bitstream Vera Sans';-inkscape-font-specification:'Bitstream Vera Sans';text-indent:0;text-align:start;text-decoration:none;text-decoration-line:none;letter-spacing:normal;word-spacing:normal;text-transform:none;direction:ltr;block-progression:tb;writing-mode:lr-tb;text-anchor:start;display:inline;overflow:visible;visibility:visible;fill:#000000;fill-opacity:1;fill-rule:nonzero;stroke:none;stroke-width:1.99997926;marker:none;enable-background:accumulate" />
      </g>
      <g
         transform="matrix(1.0000207,0,0,1,-1.243181,1.25)"
         id="g5234">
        <path
           inkscape:connector-curvature="0"
           id="path3656"
           d="M 3.375,13.40625 C 1.2299592,17.121569 2.2355457,21.809352 5.53125,24.375 L 4.75,25.75 l 4,0 -2,-3.46875 L 6.03125,23.5 C 3.2063279,21.217741 2.3764323,17.151365 4.25,13.90625 l -0.875,-0.5 z"
           style="color:#000000;font-style:normal;font-variant:normal;font-weight:normal;font-stretch:normal;font-size:medium;line-height:normal;font-family:'Bitstream Vera Sans';-inkscape-font-specification:'Bitstream Vera Sans';text-indent:0;text-align:start;text-decoration:none;text-decoration-line:none;letter-spacing:normal;word-spacing:normal;text-transform:none;direction:ltr;block-progression:tb;writing-mode:lr-tb;text-anchor:start;display:inline;overflow:visible;visibility:visible;fill:#ff0000;fill-opacity:1;stroke:none;stroke-width:1;marker:none;enable-background:accumulate" />
        <path
           inkscape:connector-curvature="0"
           style="color:#000000;font-style:normal;font-variant:normal;font-weight:normal;font-stretch:normal;font-size:medium;line-height:normal;font-family:'Bitstream Vera Sans';-inkscape-font-specification:'Bitstream Vera Sans';text-indent:0;text-align:start;text-decoration:none;text-decoration-line:none;letter-spacing:normal;word-spacing:normal;text-transform:none;direction:ltr;block-progression:tb;writing-mode:lr-tb;text-anchor:start;display:inline;overflow:visible;visibility:visible;fill:#ff0000;fill-opacity:1;stroke:none;stroke-width:1;marker:none;enable-background:accumulate"
           d="M 3.375,13.40625 C 1.2299592,17.121569 2.2355457,21.809352 5.53125,24.375 L 4.75,25.75 l 4,0 -2,-3.46875 L 6.03125,23.5 C 3.2063279,21.217741 2.3764323,17.151365 4.25,13.90625 l -0.875,-0.5 z"
           id="path2946" />
      </g>
      <g
         style="stroke:#000000;stroke-width:2;stroke-miterlimit:4;stroke-dasharray:none;stroke-opacity:1"
         transform="translate(0,-1)"
         id="g2920">
        <path
           inkscape:connector-curvature="0"
           sodipodi:nodetypes="cscccccc"
           id="path2922"
           d="M 8,1 C 4.1458513,1 1,4.1458513 1,8 c 0,3.854149 3.1458514,7 7,7 L 8,33 32,33 32,5 14.25,5 C 13.120176,2.6468852 10.773933,1 8,1 Z"
           style="color:#000000;font-style:normal;font-variant:normal;font-weight:normal;font-stretch:normal;font-size:medium;line-height:normal;font-family:'Bitstream Vera Sans';-inkscape-font-specification:'Bitstream Vera Sans';text-indent:0;text-align:start;text-decoration:none;text-decoration-line:none;letter-spacing:normal;word-spacing:normal;text-transform:none;direction:ltr;block-progression:tb;writing-mode:lr-tb;text-anchor:start;display:inline;overflow:visible;visibility:visible;fill:#000000;fill-opacity:1;fill-rule:nonzero;stroke:none;stroke-width:2;marker:none;enable-background:accumulate" />
      </g>
      <g
         transform="translate(0,-1)"
         id="g3644">
        <circle
           r="2.5"
           cy="4.5"
           cx="4.5"
           style="fill:#ff0000;fill-opacity:1;fill-rule:nonzero;stroke:none"
           id="path2854"
           transform="matrix(2.4,0,0,2.4,-2.8,-2.8)" />
      </g>
      <circle
         r="1.5"
         cy="5.5"
         cx="5.5"
         transform="translate(0,-1)"
         id="path3630"
         style="fill:#ffffff;fill-opacity:1;fill-rule:nonzero;stroke:none" />
      <circle
         r="1.5"
         cy="5.5"
         cx="5.5"
         transform="translate(5,-1)"
         style="fill:#ffffff;fill-opacity:1;fill-rule:nonzero;stroke:none"
         id="path3632" />
      <circle
         r="0.5"
         cy="5.5"
         cx="5.5"
         transform="translate(0,-1)"
         id="path3634"
         style="fill:#000000;fill-opacity:1;fill-rule:nonzero;stroke:none" />
      <circle
         r="0.5"
         cy="5.5"
         cx="5.5"
         transform="translate(5,-1)"
         style="fill:#000000;fill-opacity:1;fill-rule:nonzero;stroke:none"
         id="path3636" />
      <path
         sodipodi:open="true"
         sodipodi:end="5.4977871"
         sodipodi:start="3.9269908"
         transform="matrix(1.9635937,0,0,1.9636992,-7.8031396,-5.0790828)"
         d="m 6.1656041,7.1656041 a 2.5942276,2.5942276 0 0 1 3.6687917,-1e-7"
         sodipodi:ry="2.5942276"
         sodipodi:rx="2.5942276"
         sodipodi:cy="9"
         sodipodi:cx="8"
         id="path5243"
         style="fill:none;stroke:#000000;stroke-width:0.50924844;stroke-linecap:butt;stroke-linejoin:miter;stroke-miterlimit:4;stroke-dasharray:none;stroke-opacity:1"
         sodipodi:type="arc" />
      <rect
         y="5"
         x="9"
         height="26"
         width="22"
         id="rect3628"
         style="fill:#202020;fill-opacity:1;fill-rule:nonzero;stroke:none" />
      <g
         transform="translate(33,8)"
         id="g3388">
        <circle
           r="2"
           cy="14"
           cx="26"
           style="fill:#ff0000;fill-opacity:1;fill-rule:nonzero;stroke:none"
           id="path3241"
           transform="translate(-33,0)" />
        <circle
           r="0.5"
           cy="13.5"
           cx="25.5"
           style="fill:#000000;fill-opacity:1;fill-rule:nonzero;stroke:none"
           id="path3243"
           transform="translate(-33.5,0)" />
        <circle
           r="0.5"
           cy="13.5"
           cx="26.5"
           style="fill:#000000;fill-opacity:1;fill-rule:nonzero;stroke:none"
           id="path3245"
           transform="translate(-32.5,0)" />
      </g>
      <use
         height="32"
         width="32"
         transform="translate(0,4)"
         id="use3229"
         xlink:href="#path2409"
         y="0"
         x="0" />
      <use
         height="32"
         width="32"
         transform="translate(0,16)"
         id="use3237"
         xlink:href="#path2409"
         y="0"
         x="0" />
      <use
         x="0"
         y="0"
         xlink:href="#path2409"
         id="use3239"
         transform="translate(0,8)"
         width="32"
         height="32" />
      <g
         id="g3399">
        <path
           inkscape:connector-curvature="0"
           style="fill:#e4b800;fill-opacity:1;fill-rule:nonzero;stroke:none"
           d="m 17.500001,16 0,2 1,0 0,-2 -1,0 z"
           id="path3262"
           sodipodi:nodetypes="ccccc" />
        <ellipse
           ry="1.6639345"
           rx="1.8688525"
           cy="14.663935"
           cx="14.131147"
           style="fill:#00ff00;fill-opacity:1;fill-rule:nonzero;stroke:none"
           id="path3260"
           transform="matrix(1.0701754,0,0,0.9014778,2.877194,5.2807884)" />
      </g>
      <path
         inkscape:connector-curvature="0"
         id="rect3371"
         d="m 9,5 0,2 0,24 2,0 20,0 0,-2 L 31,7 31,5 9,5 Z m 2,2 18,0 0,22 -5,0 -1,0 -2,0 -1,0 -9,0 0,-6 1,0 0,-2 -1,0 0,-14 z m 5,6 0,2 5,0 0,6 -5,0 0,2 4,0 1,0 2,0 0,-8 0,-2 -7,0 z"
         style="fill:#0000ff;fill-opacity:1;fill-rule:nonzero;stroke:none" />
      <circle
         r="1"
         cy="6"
         cx="6"
         transform="translate(8,4)"
         id="path2409"
         style="fill:#80ff00;fill-opacity:1;fill-rule:nonzero;stroke:none" />
      <use
         x="0"
         y="0"
         xlink:href="#path2409"
         id="use3203"
         transform="translate(4,0)"
         width="32"
         height="32" />
      <use
         height="32"
         width="32"
         transform="translate(8,0)"
         id="use3205"
         xlink:href="#path2409"
         y="0"
         x="0" />
      <use
         height="32"
         width="32"
         transform="translate(12,0)"
         id="use3201"
         xlink:href="#path2409"
         y="0"
         x="0" />
      <use
         x="0"
         y="0"
         xlink:href="#path2409"
         id="use3219"
         transform="translate(12,4)"
         width="32"
         height="32" />
      <g
         id="g5327" />
      <g
         id="g5348" />
      <path
         inkscape:connector-curvature="0"
         id="path2897"
         d="m 9,5 1,1 20,0 0,24 1,1 L 31,5 9,5 Z"
         style="fill:#00ffff;fill-opacity:1;fill-rule:nonzero;stroke:none" />
      <path
         inkscape:connector-curvature="0"
         id="path2899"
         d="m 10,6 1,1 0,14 1,0 0,1 -2,0 0,-16 z"
         style="fill:#00ffff;fill-opacity:1;fill-rule:nonzero;stroke:none" />
      <path
         inkscape:connector-curvature="0"
         id="path2901"
         d="m 16,13 1,1 5,0 0,8 1,1 0,-10 -7,0 z"
         style="fill:#00ffff;fill-opacity:1;fill-rule:nonzero;stroke:none" />
      <path
         inkscape:connector-curvature="0"
         sodipodi:nodetypes="ccccc"
         id="path2903"
         d="m 16,21 5,0 1,1 -6,0 0,-1 z"
         style="fill:#00ffff;fill-opacity:1;fill-rule:nonzero;stroke:none" />
      <path
         inkscape:connector-curvature="0"
         id="path2905"
         d="m 10,22 1,1 0,6 18,0 1,1 -20,0 0,-8 z"
         style="fill:#00ffff;fill-opacity:1;fill-rule:nonzero;stroke:none" />
      <g
         id="g3800">
        <path
           inkscape:connector-curvature="0"
           style="fill:#d0aa00;fill-opacity:1;fill-rule:nonzero;stroke:none"
           d="m 14,20 c -1.104569,0 -2,0.895431 -2,2 l 0,2 2,0 2,0 0,-2 c 0,-1.104569 -0.895431,-2 -2,-2 z"
           id="path2923" />
        <path
           inkscape:connector-curvature="0"
           style="fill:#805500;fill-opacity:1;fill-rule:nonzero;stroke:none"
           d="M 13,20.267565 C 12.403104,20.613608 12,21.260396 12,22 l 0,2 1,0 0,-3.732435 z"
           id="path3728"
           sodipodi:nodetypes="ccccc" />
        <path
           inkscape:connector-curvature="0"
           style="fill:#805500;fill-opacity:1;fill-rule:nonzero;stroke:none"
           d="m 14,20 0,4 1,0 0,-3.736633 C 14.705456,20.092609 14.364965,20 14,20 Z"
           id="path3733"
           sodipodi:nodetypes="ccccc" />
        <path
           inkscape:connector-curvature="0"
           style="fill:#c0c0c0;fill-opacity:1;fill-rule:nonzero;stroke:none"
           d="m 12.5,21.5 c -0.276142,0 -0.5,0.223858 -0.5,0.5 0,0.276142 0.223858,0.5 0.5,0.5 0.276142,0 0.5,-0.223858 0.5,-0.5 l 1,0 c 0.138071,0 0.25,-0.111929 0.25,-0.25 0,-0.138071 -0.111929,-0.25 -0.25,-0.25 l -1.5,0 z"
           id="path3738" />
        <path
           inkscape:connector-curvature="0"
           style="fill:#000000;fill-opacity:0.37647059;fill-rule:nonzero;stroke:none"
           d="m 12.75,21.75 0,0.25 c 0,0.207107 -0.06652,0.424096 -0.15625,0.5 C 12.831995,22.452367 13,22.240692 13,22 l 1,0 c 0.138071,0 0.25,-0.111929 0.25,-0.25 l -0.25,0 -1.25,0 z"
           id="path3756" />
      </g>
      <g
         id="g3721"
         transform="translate(6,0)">
        <path
           inkscape:connector-curvature="0"
           style="fill:#ffffff;fill-opacity:1;fill-rule:nonzero;stroke:none"
           d="M 17.000002,24 C 15.896002,24 15,24.865104 15,25.931034 l 0,1.517242 C 15,27.752828 15.256,28 15.571429,28 c 0.315429,0 0.571429,-0.247172 0.571429,-0.551724 0,-0.07614 0.06401,-0.13794 0.142867,-0.13794 0.07886,0 0.142846,0.0618 0.142846,0.13794 C 16.428571,27.752828 16.684571,28 17,28 c 0.315429,0 0.571429,-0.247172 0.571429,-0.551724 0,-0.07614 0.06401,-0.13794 0.142867,-0.13794 0.07886,0 0.142846,0.0618 0.142846,0.13794 C 17.857142,27.752828 18.113144,28 18.428571,28 18.744,28 19,27.752828 19,27.448276 l 0,-1.517242 C 19.000004,24.865104 18.104004,24 17.000002,24 Z"
           id="path2857"
           sodipodi:nodetypes="cccsssssssssccc" />
        <circle
           r="0.5"
           cy="25.5"
           cx="16.5"
           style="fill:#000000;fill-opacity:1;fill-rule:nonzero;stroke:none"
           id="path3717"
           transform="translate(-0.5,0)" />
        <circle
           r="0.5"
           cy="25.5"
           cx="16.5"
           transform="translate(1.5,0)"
           id="path3719"
           style="fill:#000000;fill-opacity:1;fill-rule:nonzero;stroke:none" />
      </g>
    </g>
  </g>
</svg>
