<?xml version="1.0" encoding="UTF-8" standalone="no"?>
<!-- Created with Inkscape (http://www.inkscape.org/) -->

<svg
   xmlns:dc="http://purl.org/dc/elements/1.1/"
   xmlns:cc="http://creativecommons.org/ns#"
   xmlns:rdf="http://www.w3.org/1999/02/22-rdf-syntax-ns#"
   xmlns:svg="http://www.w3.org/2000/svg"
   xmlns="http://www.w3.org/2000/svg"
   xmlns:sodipodi="http://sodipodi.sourceforge.net/DTD/sodipodi-0.dtd"
   xmlns:inkscape="http://www.inkscape.org/namespaces/inkscape"
   width="32px"
   height="32px"
   id="svg3505"
   sodipodi:version="0.32"
   inkscape:version="0.47 r22583"
   sodipodi:docname="hiscore.svg"
   inkscape:output_extension="org.inkscape.output.svg.inkscape"
   inkscape:export-filename="/home/andreas/Dokumente/Projekte/McMinos/svg/menu/hiscore-24x24.png"
   inkscape:export-xdpi="67.5"
   inkscape:export-ydpi="67.5"
   version="1.1">
  <defs
     id="defs3507">
    <inkscape:perspective
       sodipodi:type="inkscape:persp3d"
       inkscape:vp_x="0 : 16 : 1"
       inkscape:vp_y="0 : 1000 : 0"
       inkscape:vp_z="32 : 16 : 1"
       inkscape:persp3d-origin="16 : 10.666667 : 1"
       id="perspective3513" />
    <inkscape:perspective
       id="perspective4690"
       inkscape:persp3d-origin="372.04724 : 350.78739 : 1"
       inkscape:vp_z="744.09448 : 526.18109 : 1"
       inkscape:vp_y="0 : 1000 : 0"
       inkscape:vp_x="0 : 526.18109 : 1"
       sodipodi:type="inkscape:persp3d" />
    <inkscape:perspective
       id="perspective2398"
       inkscape:persp3d-origin="372.04724 : 350.78739 : 1"
       inkscape:vp_z="744.09448 : 526.18109 : 1"
       inkscape:vp_y="0 : 1000 : 0"
       inkscape:vp_x="0 : 526.18109 : 1"
       sodipodi:type="inkscape:persp3d" />
  </defs>
  <sodipodi:namedview
     id="base"
     pagecolor="#ffffff"
     bordercolor="#666666"
     borderopacity="1.0"
     inkscape:pageopacity="0.0"
     inkscape:pageshadow="2"
     inkscape:zoom="18.625"
     inkscape:cx="16"
     inkscape:cy="16"
     inkscape:current-layer="layer1"
     showgrid="true"
     inkscape:grid-bbox="true"
     inkscape:document-units="px"
     objecttolerance="4"
     gridtolerance="4"
     guidetolerance="4"
     inkscape:window-width="857"
     inkscape:window-height="837"
     inkscape:window-x="0"
     inkscape:window-y="0"
     inkscape:object-paths="true"
     inkscape:object-nodes="true"
     inkscape:snap-bbox="true"
     inkscape:snap-guide="true"
     inkscape:window-maximized="0">
    <inkscape:grid
       type="xygrid"
       id="grid3515"
       units="px"
       visible="true"
       enabled="true"
       spacingx="1px"
       spacingy="1px" />
  </sodipodi:namedview>
  <metadata
     id="metadata3510">
    <rdf:RDF>
      <cc:Work
         rdf:about="">
        <dc:format>image/svg+xml</dc:format>
        <dc:type
           rdf:resource="http://purl.org/dc/dcmitype/StillImage" />
        <dc:title>Vorlage f端r 32x32-Pixel-Icons f端r McMinos</dc:title>
        <dc:date>2010-04-05</dc:date>
        <dc:creator>
          <cc:Agent>
            <dc:title>Andreas Neudecker &lt;zapyon@gmx.net&gt;</dc:title>
          </cc:Agent>
        </dc:creator>
        <dc:rights>
          <cc:Agent>
            <dc:title>Copyright (C) 2010 by Andreas Neudecker</dc:title>
          </cc:Agent>
        </dc:rights>
        <dc:publisher>
          <cc:Agent>
            <dc:title>Andreas Neudecker</dc:title>
          </cc:Agent>
        </dc:publisher>
        <dc:identifier>vorlage-32x32-mcminos</dc:identifier>
        <dc:description>Vorlage f端r 32x32-Pixel-Icons f端r McMinos. Metadaten jeweils entsprechend anpassen!</dc:description>
      </cc:Work>
    </rdf:RDF>
  </metadata>
  <g
     id="layer1"
     inkscape:label="Layer 1"
     inkscape:groupmode="layer"
     style="display:inline">
    <g
       id="g3431">
      <path
         id="path3327"
         d="M 15.5,1 C 14.682937,1 14,1.6829372 14,2.5 L 14,3.28125 C 13.838259,3.3468324 13.655987,3.3422131 13.5,3.46875 C 13.323687,3.6117751 13.156207,3.8168495 13.0625,4.125 C 12.968793,4.4331505 13.01375,4.8278401 13.15625,5.09375 C 13.402572,5.5533907 13.747293,5.7270707 14.0625,5.84375 C 14.14338,5.873689 14.230164,5.8536521 14.3125,5.875 C 14.326409,5.9202005 14.359676,5.9556306 14.375,6 L 14,6 L 13.1875,6 L 13.03125,6.8125 L 12.03125,11.8125 L 12,11.90625 L 12,12 C 12,12.687266 12.134325,13.33115 12.40625,13.875 C 12.601347,14.265194 12.971113,14.577052 13.4375,14.78125 L 13.03125,16.8125 L 13.03125,16.84375 C 12.97925,16.900269 12.921049,16.936937 12.875,17 L 11,17 L 11,16.90625 L 10.96875,16.8125 L 9.96875,11.8125 L 9.8125,11 L 9,11 L 8.65625,11 C 8.6733322,10.94966 8.6722237,10.89514 8.6875,10.84375 C 8.9605942,10.779071 9.2456934,10.737544 9.5,10.53125 C 9.676313,10.388225 9.8437926,10.18315 9.9375,9.875 C 10.031207,9.5668496 9.9862502,9.1721598 9.84375,8.90625 C 9.6115769,8.4730089 9.2978695,8.3040399 9,8.1875 L 9,7.5 C 9,6.6829372 8.3170628,6 7.5,6 L 6.5,6 L 5.5,6 C 4.6829372,6 4,6.6829372 4,7.5 L 4,8.28125 C 3.8382592,8.3468324 3.6559874,8.342213 3.5,8.46875 C 3.323687,8.6117751 3.1562074,8.8168492 3.0625,9.125 C 2.9687926,9.4331508 3.0137493,9.8278402 3.15625,10.09375 C 3.4025714,10.553392 3.7472929,10.727071 4.0625,10.84375 C 4.1433797,10.873689 4.230164,10.853652 4.3125,10.875 C 4.3264094,10.9202 4.3596756,10.955631 4.375,11 L 4,11 L 3.1875,11 L 3.03125,11.8125 L 2.03125,16.8125 L 2,16.90625 L 2,17 C 2,17.687266 2.1343248,18.33115 2.40625,18.875 C 2.601347,19.265194 2.9711134,19.577052 3.4375,19.78125 L 3.03125,21.8125 L 3.03125,21.84375 C 2.9792499,21.900269 2.921049,21.936937 2.875,22 L 2,22 L 1,22 L 1,23 L 1,31 L 1,32 L 2,32 L 31,32 L 32,32 L 32,31 L 32,23 L 32,22 L 31,22 L 30.125,22 C 30.078951,21.936937 30.02075,21.900269 29.96875,21.84375 C 29.963417,21.837953 29.974137,21.818226 29.96875,21.8125 L 29.5625,19.78125 C 30.028887,19.577052 30.398653,19.265194 30.59375,18.875 C 30.865675,18.33115 31,17.687266 31,17 L 31,16.90625 L 30.96875,16.8125 L 29.96875,11.8125 L 29.8125,11 L 29,11 L 28.65625,11 C 28.673332,10.94966 28.672224,10.89514 28.6875,10.84375 C 28.960594,10.779071 29.245693,10.737544 29.5,10.53125 C 29.676313,10.388225 29.843793,10.183151 29.9375,9.875 C 30.031207,9.5668495 29.98625,9.1721599 29.84375,8.90625 C 29.611577,8.4730101 29.297869,8.3040399 29,8.1875 L 29,7.5 C 29,6.6829372 28.317063,6 27.5,6 L 26.5,6 L 25.5,6 C 24.682937,6 24,6.6829372 24,7.5 L 24,8.28125 C 23.838259,8.3468324 23.655987,8.3422131 23.5,8.46875 C 23.323687,8.6117751 23.156207,8.8168495 23.0625,9.125 C 22.968793,9.4331505 23.01375,9.8278401 23.15625,10.09375 C 23.402572,10.553391 23.747293,10.727071 24.0625,10.84375 C 24.14338,10.873689 24.230164,10.853652 24.3125,10.875 C 24.326409,10.9202 24.359676,10.955631 24.375,11 L 24,11 L 23.1875,11 L 23.03125,11.8125 L 22.03125,16.8125 L 22,16.90625 L 22,17 L 20.125,17 C 20.078951,16.936937 20.02075,16.900269 19.96875,16.84375 C 19.963417,16.837953 19.974137,16.818226 19.96875,16.8125 L 19.5625,14.78125 C 20.028887,14.577052 20.398653,14.265194 20.59375,13.875 C 20.865675,13.33115 21,12.687266 21,12 L 21,11.90625 L 20.96875,11.8125 L 19.96875,6.8125 L 19.8125,6 L 19,6 L 18.65625,6 C 18.673332,5.9496598 18.672224,5.8951396 18.6875,5.84375 C 18.960594,5.7790707 19.245693,5.7375436 19.5,5.53125 C 19.676313,5.3882249 19.843793,5.1831505 19.9375,4.875 C 20.031207,4.5668495 19.98625,4.1721599 19.84375,3.90625 C 19.611577,3.4730101 19.297869,3.3040399 19,3.1875 L 19,2.5 C 19,1.6829372 18.317063,1 17.5,1 L 16.5,1 L 15.5,1 z M 16.15625,3 L 16.5,3 L 17,3 L 17,4 L 17,4.625 L 16.96875,4.84375 C 16.918771,5.2780064 16.790114,5.6560011 16.65625,5.84375 C 16.522386,6.0314989 16.465418,6 16.5,6 C 16.533946,6 16.476501,6.0269666 16.34375,5.84375 C 16.210999,5.6605334 16.083692,5.301775 16.03125,4.875 L 15.96875,4.53125 L 16.03125,4.15625 C 16.05961,3.9098735 16.059761,3.8930476 16.03125,4.125 L 16.15625,3 z M 6.15625,8 L 6.5,8 L 7,8 L 7,9 L 7,9.625 L 6.96875,9.84375 C 6.9187708,10.278007 6.7901137,10.656001 6.65625,10.84375 C 6.5223863,11.031499 6.4654177,11 6.5,11 C 6.5339465,11 6.4765009,11.026967 6.34375,10.84375 C 6.2109991,10.660533 6.0836926,10.301775 6.03125,9.875 L 5.96875,9.53125 L 6.03125,9.15625 C 6.0595994,8.9099243 6.0597437,8.8931106 6.03125,9.125 L 6.15625,8 z M 14.8125,8 L 16,8 L 16.5,8 L 17,8 L 18.1875,8 L 18.34375,8.78125 L 17,9 L 17,12 L 17,12.09375 L 17.03125,12.1875 L 17.34375,13.8125 L 15.625,13.84375 L 15.96875,12.1875 L 16,12.09375 L 16,12 L 16,9 L 14.65625,8.78125 L 14.8125,8 z M 26.15625,8 L 26.5,8 L 27,8 L 27,9 L 27,9.625 L 26.96875,9.84375 C 26.918771,10.278006 26.790114,10.656001 26.65625,10.84375 C 26.522386,11.031499 26.465418,11 26.5,11 C 26.533946,11 26.476501,11.026967 26.34375,10.84375 C 26.210999,10.660533 26.083692,10.301775 26.03125,9.875 L 25.96875,9.53125 L 26.03125,9.15625 C 26.05961,8.9098735 26.059761,8.8930476 26.03125,9.125 L 26.15625,8 z M 4.8125,13 L 6,13 L 6.5,13 L 7,13 L 8.1875,13 L 8.34375,13.78125 L 7,14 L 7,17 L 7,17.09375 L 7.03125,17.1875 L 7.34375,18.8125 L 5.625,18.84375 L 5.96875,17.1875 L 6,17.09375 L 6,17 L 6,14 L 4.65625,13.78125 L 4.8125,13 z M 24.8125,13 L 26,13 L 26.5,13 L 27,13 L 28.1875,13 L 28.34375,13.78125 L 27,14 L 27,17 L 27,17.09375 L 27.03125,17.1875 L 27.34375,18.8125 L 25.625,18.84375 L 25.96875,17.1875 L 26,17.09375 L 26,17 L 26,14 L 24.65625,13.78125 L 24.8125,13 z M 15,18 C 15.233646,18 15.423694,18.074129 15.5,18.125 C 15.576306,18.175871 15.5,18.129797 15.5,18 L 16,18 L 16.15625,18 L 16.84375,18 L 17.5,18 C 17.5,18.129797 17.423694,18.175871 17.5,18.125 C 17.576306,18.074129 17.766354,18 18,18 C 18.233646,18 18.423694,18.074129 18.5,18.125 L 18.5,19 L 19.5,19 L 21,19 L 21,23 L 21,24 L 22,24 L 23.5,24 L 24.5,24 L 24.5,23.125 C 24.576306,23.074129 24.766354,23 25,23 C 25.233646,23 25.423694,23.074129 25.5,23.125 C 25.576306,23.175871 25.5,23.129797 25.5,23 L 26,23 L 26.15625,23 L 26.84375,23 L 27.5,23 C 27.5,23.129797 27.423694,23.175871 27.5,23.125 C 27.576306,23.074129 27.766354,23 28,23 C 28.233646,23 28.423694,23.074129 28.5,23.125 L 28.5,24 L 29.5,24 L 30,24 L 30,30 L 3,30 L 3,24 L 3.5,24 L 4.5,24 L 4.5,23.125 C 4.5763059,23.074129 4.7663543,23 5,23 C 5.2336457,23 5.4236941,23.074129 5.5,23.125 C 5.5763059,23.175871 5.5,23.129797 5.5,23 L 6,23 L 6.15625,23 L 6.84375,23 L 7.5,23 C 7.5,23.129797 7.4236941,23.175871 7.5,23.125 C 7.5763059,23.074129 7.7663543,23 8,23 C 8.2336457,23 8.4236941,23.074129 8.5,23.125 L 8.5,24 L 9.5,24 L 11,24 L 12,24 L 12,23 L 12,19 L 13.5,19 L 14.5,19 L 14.5,18.125 C 14.576306,18.074129 14.766354,18 15,18 z M 10,19.625 L 10,21.875 C 9.9845891,21.857493 9.9846415,21.82939 9.96875,21.8125 L 9.5625,19.78125 C 9.703863,19.719357 9.8850766,19.719256 10,19.625 z M 23,19.625 C 23.114923,19.719256 23.296137,19.719357 23.4375,19.78125 L 23.03125,21.8125 L 23.03125,21.84375 C 23.02085,21.855054 23.010187,21.863428 23,21.875 L 23,19.625 z"
         style="fill:#000000;fill-opacity:1;fill-rule:nonzero;stroke:none;stroke-width:2;stroke-linecap:round;stroke-linejoin:miter;stroke-miterlimit:4;stroke-dasharray:none;stroke-dashoffset:0;stroke-opacity:1" />
      <g
         id="g3425">
        <path
           style="opacity:1;fill:#ffff00;fill-opacity:1;fill-rule:nonzero;stroke:none;stroke-width:2;stroke-linecap:round;stroke-linejoin:round;stroke-miterlimit:4;stroke-dasharray:none;stroke-dashoffset:0;stroke-opacity:1"
           d="M 2,23 L 2,31 L 31,31 L 31,23 L 22,23 L 22,18 L 11,18 L 11,23 L 2,23 z"
           id="path2404" />
        <path
           style="opacity:1;fill:#000000;fill-opacity:1;fill-rule:nonzero;stroke:none;stroke-width:2;stroke-linecap:round;stroke-linejoin:round;stroke-miterlimit:4;stroke-dasharray:none;stroke-dashoffset:0;stroke-opacity:1"
           d="M 15,20 L 18,20 L 18,21 L 17,21 L 17,23 L 18,23 L 18,24 L 15,24 L 15,23 L 16,23 L 16,21 L 15,21 L 15,20 z"
           id="path3176" />
        <path
           style="opacity:1;fill:#000000;fill-opacity:1;fill-rule:nonzero;stroke:none;stroke-width:2;stroke-linecap:round;stroke-linejoin:round;stroke-miterlimit:4;stroke-dasharray:none;stroke-dashoffset:0;stroke-opacity:1"
           d="M 5,25 L 5,26 L 6,26 L 6,28 L 5,28 L 5,29 L 10,29 L 10,28 L 9,28 L 9,26 L 10,26 L 10,25 L 5,25 z M 7,26 L 8,26 L 8,28 L 7,28 L 7,26 z"
           id="path3178" />
        <path
           style="opacity:1;fill:#000000;fill-opacity:1;fill-rule:nonzero;stroke:none;stroke-width:2;stroke-linecap:round;stroke-linejoin:round;stroke-miterlimit:4;stroke-dasharray:none;stroke-dashoffset:0;stroke-opacity:1"
           d="M 22,25 L 22,26 L 23,26 L 23,28 L 22,28 L 22,29 L 29,29 L 29,28 L 28,28 L 28,26 L 29,26 L 29,25 L 22,25 z M 24,26 L 25,26 L 25,28 L 24,28 L 24,26 z M 26,26 L 27,26 L 27,28 L 26,28 L 26,26 z"
           id="path3182" />
      </g>
      <g
         id="g3397">
        <path
           sodipodi:type="arc"
           style="fill:#ffaa00;fill-opacity:1;fill-rule:nonzero;stroke:none;stroke-width:2;stroke-linecap:round;stroke-linejoin:round;stroke-miterlimit:4;stroke-dasharray:none;stroke-dashoffset:0;stroke-opacity:1"
           id="path3191"
           sodipodi:cx="16.5"
           sodipodi:cy="4.5"
           sodipodi:rx="1.5"
           sodipodi:ry="2.5"
           d="M 18,4.5 A 1.5,2.5 0 1 1 15,4.5 A 1.5,2.5 0 1 1 18,4.5 z" />
        <path
           sodipodi:type="arc"
           style="fill:#ffaa00;fill-opacity:1;fill-rule:nonzero;stroke:none;stroke-width:2;stroke-linecap:round;stroke-linejoin:round;stroke-miterlimit:4;stroke-dasharray:none;stroke-dashoffset:0;stroke-opacity:1"
           id="path3193"
           sodipodi:cx="20.5"
           sodipodi:cy="4.5"
           sodipodi:rx="0.5"
           sodipodi:ry="0.5"
           d="M 20.37059,4.0170371 A 0.5,0.5 0 1 1 20.37059,4.9829629 L 20.5,4.5 z"
           transform="matrix(2,0,0,1,-23,0)"
           sodipodi:start="4.4505896"
           sodipodi:end="8.115781" />
        <path
           transform="matrix(2,0,0,1,-26,0)"
           d="M 20.62941,4.9829629 A 0.5,0.5 0 1 1 20.62941,4.0170371 L 20.5,4.5 z"
           sodipodi:ry="0.5"
           sodipodi:rx="0.5"
           sodipodi:cy="4.5"
           sodipodi:cx="20.5"
           id="path3195"
           style="fill:#ffaa00;fill-opacity:1;fill-rule:nonzero;stroke:none;stroke-width:2;stroke-linecap:round;stroke-linejoin:round;stroke-miterlimit:4;stroke-dasharray:none;stroke-dashoffset:0;stroke-opacity:1"
           sodipodi:type="arc"
           sodipodi:start="1.3089969"
           sodipodi:end="4.9741884" />
        <path
           sodipodi:type="arc"
           style="fill:#000000;fill-opacity:1;fill-rule:nonzero;stroke:none;stroke-width:2;stroke-linecap:round;stroke-linejoin:round;stroke-miterlimit:4;stroke-dasharray:none;stroke-dashoffset:0;stroke-opacity:1"
           id="path3199"
           sodipodi:cx="15.5"
           sodipodi:cy="3.5"
           sodipodi:rx="0.5"
           sodipodi:ry="0.5"
           d="M 16,3.5 A 0.5,0.5 0 1 1 15,3.5 A 0.5,0.5 0 1 1 16,3.5 z"
           transform="translate(0,1)" />
        <path
           transform="translate(2,1)"
           d="M 16,3.5 A 0.5,0.5 0 1 1 15,3.5 A 0.5,0.5 0 1 1 16,3.5 z"
           sodipodi:ry="0.5"
           sodipodi:rx="0.5"
           sodipodi:cy="3.5"
           sodipodi:cx="15.5"
           id="path3201"
           style="fill:#000000;fill-opacity:1;fill-rule:nonzero;stroke:none;stroke-width:2;stroke-linecap:round;stroke-linejoin:round;stroke-miterlimit:4;stroke-dasharray:none;stroke-dashoffset:0;stroke-opacity:1"
           sodipodi:type="arc" />
        <path
           style="fill:#aa5500;fill-opacity:1;fill-rule:nonzero;stroke:none;stroke-width:2;stroke-linecap:round;stroke-linejoin:round;stroke-miterlimit:4;stroke-dasharray:none;stroke-dashoffset:0;stroke-opacity:1"
           d="M 15.5,2 C 15.224,2 15,2.224 15,2.5 L 15,4 L 16,3 L 18,4 L 18,2.5 C 18,2.224 17.776,2 17.5,2 L 16.5,2 L 15.5,2 z"
           id="path3203" />
        <path
           style="fill:#ff0000;fill-opacity:1;fill-rule:nonzero;stroke:none;stroke-width:2;stroke-linecap:round;stroke-linejoin:round;stroke-miterlimit:4;stroke-dasharray:none;stroke-dashoffset:0;stroke-opacity:1"
           d="M 16,7 L 14,7 L 13,12 L 14,12 L 15,9 L 15,12 L 18,12 L 18,9 L 19,12 L 20,12 L 19,7 L 17,7 L 16,7 z"
           id="path3205"
           sodipodi:nodetypes="ccccccccccccc" />
        <path
           style="fill:#0000ff;fill-opacity:1;fill-rule:nonzero;stroke:none;stroke-width:2;stroke-linecap:round;stroke-linejoin:round;stroke-miterlimit:4;stroke-dasharray:none;stroke-dashoffset:0;stroke-opacity:1"
           d="M 15,12 L 14,17 L 16,17 L 16.459016,14 L 17,17 L 19,17 L 18,12 L 15,12 z"
           id="path3209" />
        <path
           sodipodi:type="arc"
           style="fill:#ffaa00;fill-opacity:1;fill-rule:nonzero;stroke:none;stroke-width:2;stroke-linecap:round;stroke-linejoin:round;stroke-miterlimit:4;stroke-dasharray:none;stroke-dashoffset:0;stroke-opacity:1"
           id="path3211"
           sodipodi:cx="20.5"
           sodipodi:cy="4.5"
           sodipodi:rx="0.5"
           sodipodi:ry="0.5"
           d="M 20.5,5 A 0.5,0.5 0 0 1 20,4.5 L 20.5,4.5 z"
           transform="matrix(2,0,0,4,-27,-5.9999999)"
           sodipodi:start="1.5707963"
           sodipodi:end="3.1415927" />
        <path
           sodipodi:end="1.5707963"
           sodipodi:start="0"
           transform="matrix(2,0,0,4,-22,-6)"
           d="M 21,4.5 A 0.5,0.5 0 0 1 20.5,5 L 20.5,4.5 z"
           sodipodi:ry="0.5"
           sodipodi:rx="0.5"
           sodipodi:cy="4.5"
           sodipodi:cx="20.5"
           id="path3213"
           style="fill:#ffaa00;fill-opacity:1;fill-rule:nonzero;stroke:none;stroke-width:2;stroke-linecap:round;stroke-linejoin:round;stroke-miterlimit:4;stroke-dasharray:none;stroke-dashoffset:0;stroke-opacity:1"
           sodipodi:type="arc" />
        <path
           sodipodi:type="arc"
           style="fill:#ff0000;fill-opacity:1;fill-rule:nonzero;stroke:none;stroke-width:2;stroke-linecap:round;stroke-linejoin:round;stroke-miterlimit:4;stroke-dasharray:none;stroke-dashoffset:0;stroke-opacity:1"
           id="path3215"
           sodipodi:cx="14.5"
           sodipodi:cy="18"
           sodipodi:rx="1.5"
           sodipodi:ry="1"
           d="M 13,18 A 1.5,1 0 0 1 16,18 L 14.5,18 z"
           sodipodi:start="3.1415927"
           sodipodi:end="6.2831853"
           transform="translate(0.5,0)" />
        <path
           transform="translate(3.5,0)"
           sodipodi:end="6.2831853"
           sodipodi:start="3.1415927"
           d="M 13,18 A 1.5,1 0 0 1 16,18 L 14.5,18 z"
           sodipodi:ry="1"
           sodipodi:rx="1.5"
           sodipodi:cy="18"
           sodipodi:cx="14.5"
           id="path3217"
           style="fill:#ff0000;fill-opacity:1;fill-rule:nonzero;stroke:none;stroke-width:2;stroke-linecap:round;stroke-linejoin:round;stroke-miterlimit:4;stroke-dasharray:none;stroke-dashoffset:0;stroke-opacity:1"
           sodipodi:type="arc" />
      </g>
      <g
         id="g3383">
        <path
           d="M 18,4.5 A 1.5,2.5 0 1 1 15,4.5 A 1.5,2.5 0 1 1 18,4.5 z"
           sodipodi:ry="2.5"
           sodipodi:rx="1.5"
           sodipodi:cy="4.5"
           sodipodi:cx="16.5"
           id="path3241"
           style="fill:#ffaa00;fill-opacity:1;fill-rule:nonzero;stroke:none;stroke-width:2;stroke-linecap:round;stroke-linejoin:round;stroke-miterlimit:4;stroke-dasharray:none;stroke-dashoffset:0;stroke-opacity:1"
           sodipodi:type="arc"
           transform="translate(-10,5)" />
        <path
           sodipodi:end="8.115781"
           sodipodi:start="4.4505896"
           transform="matrix(2,0,0,1,-33,5)"
           d="M 20.37059,4.0170371 A 0.5,0.5 0 1 1 20.37059,4.9829629 L 20.5,4.5 z"
           sodipodi:ry="0.5"
           sodipodi:rx="0.5"
           sodipodi:cy="4.5"
           sodipodi:cx="20.5"
           id="path3243"
           style="fill:#ffaa00;fill-opacity:1;fill-rule:nonzero;stroke:none;stroke-width:2;stroke-linecap:round;stroke-linejoin:round;stroke-miterlimit:4;stroke-dasharray:none;stroke-dashoffset:0;stroke-opacity:1"
           sodipodi:type="arc" />
        <path
           sodipodi:end="4.9741884"
           sodipodi:start="1.3089969"
           sodipodi:type="arc"
           style="fill:#ffaa00;fill-opacity:1;fill-rule:nonzero;stroke:none;stroke-width:2;stroke-linecap:round;stroke-linejoin:round;stroke-miterlimit:4;stroke-dasharray:none;stroke-dashoffset:0;stroke-opacity:1"
           id="path3245"
           sodipodi:cx="20.5"
           sodipodi:cy="4.5"
           sodipodi:rx="0.5"
           sodipodi:ry="0.5"
           d="M 20.62941,4.9829629 A 0.5,0.5 0 1 1 20.62941,4.0170371 L 20.5,4.5 z"
           transform="matrix(2,0,0,1,-36,5)" />
        <path
           transform="translate(-10,6)"
           d="M 16,3.5 A 0.5,0.5 0 1 1 15,3.5 A 0.5,0.5 0 1 1 16,3.5 z"
           sodipodi:ry="0.5"
           sodipodi:rx="0.5"
           sodipodi:cy="3.5"
           sodipodi:cx="15.5"
           id="path3247"
           style="fill:#004000;fill-opacity:1;fill-rule:nonzero;stroke:none;stroke-width:2;stroke-linecap:round;stroke-linejoin:round;stroke-miterlimit:4;stroke-dasharray:none;stroke-dashoffset:0;stroke-opacity:1"
           sodipodi:type="arc" />
        <path
           sodipodi:type="arc"
           style="fill:#004000;fill-opacity:1;fill-rule:nonzero;stroke:none;stroke-width:2;stroke-linecap:round;stroke-linejoin:round;stroke-miterlimit:4;stroke-dasharray:none;stroke-dashoffset:0;stroke-opacity:1"
           id="path3249"
           sodipodi:cx="15.5"
           sodipodi:cy="3.5"
           sodipodi:rx="0.5"
           sodipodi:ry="0.5"
           d="M 16,3.5 A 0.5,0.5 0 1 1 15,3.5 A 0.5,0.5 0 1 1 16,3.5 z"
           transform="translate(-8,6)" />
        <path
           id="path3251"
           d="M 5.5,7 C 5.224,7 5,7.224 5,7.5 L 5,9 L 6,8 L 8,9 L 8,7.5 C 8,7.224 7.776,7 7.5,7 L 6.5,7 L 5.5,7 z"
           style="fill:#ff0000;fill-opacity:1;fill-rule:nonzero;stroke:none;stroke-width:2;stroke-linecap:round;stroke-linejoin:round;stroke-miterlimit:4;stroke-dasharray:none;stroke-dashoffset:0;stroke-opacity:1" />
        <path
           sodipodi:nodetypes="ccccccccccccc"
           id="path3253"
           d="M 6,12 L 4,12 L 3,17 L 4,17 L 5,14 L 5,17 L 8,17 L 8,14 L 9,17 L 10,17 L 9,12 L 7,12 L 6,12 z"
           style="fill:#00ff00;fill-opacity:1;fill-rule:nonzero;stroke:none;stroke-width:2;stroke-linecap:round;stroke-linejoin:round;stroke-miterlimit:4;stroke-dasharray:none;stroke-dashoffset:0;stroke-opacity:1" />
        <path
           id="path3255"
           d="M 5,17 L 4,22 L 6,22 L 6.459016,19 L 7,22 L 9,22 L 8,17 L 5,17 z"
           style="fill:#0000ff;fill-opacity:1;fill-rule:nonzero;stroke:none;stroke-width:2;stroke-linecap:round;stroke-linejoin:round;stroke-miterlimit:4;stroke-dasharray:none;stroke-dashoffset:0;stroke-opacity:1" />
        <path
           sodipodi:end="3.1415927"
           sodipodi:start="1.5707963"
           transform="matrix(2,0,0,4,-37,-0.9999999)"
           d="M 20.5,5 A 0.5,0.5 0 0 1 20,4.5 L 20.5,4.5 z"
           sodipodi:ry="0.5"
           sodipodi:rx="0.5"
           sodipodi:cy="4.5"
           sodipodi:cx="20.5"
           id="path3257"
           style="fill:#ffaa00;fill-opacity:1;fill-rule:nonzero;stroke:none;stroke-width:2;stroke-linecap:round;stroke-linejoin:round;stroke-miterlimit:4;stroke-dasharray:none;stroke-dashoffset:0;stroke-opacity:1"
           sodipodi:type="arc" />
        <path
           sodipodi:type="arc"
           style="fill:#ffaa00;fill-opacity:1;fill-rule:nonzero;stroke:none;stroke-width:2;stroke-linecap:round;stroke-linejoin:round;stroke-miterlimit:4;stroke-dasharray:none;stroke-dashoffset:0;stroke-opacity:1"
           id="path3259"
           sodipodi:cx="20.5"
           sodipodi:cy="4.5"
           sodipodi:rx="0.5"
           sodipodi:ry="0.5"
           d="M 21,4.5 A 0.5,0.5 0 0 1 20.5,5 L 20.5,4.5 z"
           transform="matrix(2,0,0,4,-32,-1)"
           sodipodi:start="0"
           sodipodi:end="1.5707963" />
        <path
           transform="translate(-9.5,5)"
           sodipodi:end="6.2831853"
           sodipodi:start="3.1415927"
           d="M 13,18 A 1.5,1 0 0 1 16,18 L 14.5,18 z"
           sodipodi:ry="1"
           sodipodi:rx="1.5"
           sodipodi:cy="18"
           sodipodi:cx="14.5"
           id="path3261"
           style="fill:#00ff00;fill-opacity:1;fill-rule:nonzero;stroke:none;stroke-width:2;stroke-linecap:round;stroke-linejoin:round;stroke-miterlimit:4;stroke-dasharray:none;stroke-dashoffset:0;stroke-opacity:1"
           sodipodi:type="arc" />
        <path
           sodipodi:type="arc"
           style="fill:#00ff00;fill-opacity:1;fill-rule:nonzero;stroke:none;stroke-width:2;stroke-linecap:round;stroke-linejoin:round;stroke-miterlimit:4;stroke-dasharray:none;stroke-dashoffset:0;stroke-opacity:1"
           id="path3263"
           sodipodi:cx="14.5"
           sodipodi:cy="18"
           sodipodi:rx="1.5"
           sodipodi:ry="1"
           d="M 13,18 A 1.5,1 0 0 1 16,18 L 14.5,18 z"
           sodipodi:start="3.1415927"
           sodipodi:end="6.2831853"
           transform="translate(-6.5,5)" />
      </g>
      <g
         id="g3411">
        <path
           sodipodi:type="arc"
           style="fill:#ffaa00;fill-opacity:1;fill-rule:nonzero;stroke:none;stroke-width:2;stroke-linecap:round;stroke-linejoin:round;stroke-miterlimit:4;stroke-dasharray:none;stroke-dashoffset:0;stroke-opacity:1"
           id="path3267"
           sodipodi:cx="16.5"
           sodipodi:cy="4.5"
           sodipodi:rx="1.5"
           sodipodi:ry="2.5"
           d="M 18,4.5 A 1.5,2.5 0 1 1 15,4.5 A 1.5,2.5 0 1 1 18,4.5 z"
           transform="translate(10,5)" />
        <path
           sodipodi:type="arc"
           style="fill:#ffaa00;fill-opacity:1;fill-rule:nonzero;stroke:none;stroke-width:2;stroke-linecap:round;stroke-linejoin:round;stroke-miterlimit:4;stroke-dasharray:none;stroke-dashoffset:0;stroke-opacity:1"
           id="path3269"
           sodipodi:cx="20.5"
           sodipodi:cy="4.5"
           sodipodi:rx="0.5"
           sodipodi:ry="0.5"
           d="M 20.37059,4.0170371 A 0.5,0.5 0 1 1 20.37059,4.9829629 L 20.5,4.5 z"
           transform="matrix(2,0,0,1,-13,5)"
           sodipodi:start="4.4505896"
           sodipodi:end="8.115781" />
        <path
           transform="matrix(2,0,0,1,-16,5)"
           d="M 20.62941,4.9829629 A 0.5,0.5 0 1 1 20.62941,4.0170371 L 20.5,4.5 z"
           sodipodi:ry="0.5"
           sodipodi:rx="0.5"
           sodipodi:cy="4.5"
           sodipodi:cx="20.5"
           id="path3271"
           style="fill:#ffaa00;fill-opacity:1;fill-rule:nonzero;stroke:none;stroke-width:2;stroke-linecap:round;stroke-linejoin:round;stroke-miterlimit:4;stroke-dasharray:none;stroke-dashoffset:0;stroke-opacity:1"
           sodipodi:type="arc"
           sodipodi:start="1.3089969"
           sodipodi:end="4.9741884" />
        <path
           sodipodi:type="arc"
           style="fill:#000080;fill-opacity:1;fill-rule:nonzero;stroke:none;stroke-width:2;stroke-linecap:round;stroke-linejoin:round;stroke-miterlimit:4;stroke-dasharray:none;stroke-dashoffset:0;stroke-opacity:1"
           id="path3273"
           sodipodi:cx="15.5"
           sodipodi:cy="3.5"
           sodipodi:rx="0.5"
           sodipodi:ry="0.5"
           d="M 16,3.5 A 0.5,0.5 0 1 1 15,3.5 A 0.5,0.5 0 1 1 16,3.5 z"
           transform="translate(10,6)" />
        <path
           transform="translate(12,6)"
           d="M 16,3.5 A 0.5,0.5 0 1 1 15,3.5 A 0.5,0.5 0 1 1 16,3.5 z"
           sodipodi:ry="0.5"
           sodipodi:rx="0.5"
           sodipodi:cy="3.5"
           sodipodi:cx="15.5"
           id="path3275"
           style="fill:#000080;fill-opacity:1;fill-rule:nonzero;stroke:none;stroke-width:2;stroke-linecap:round;stroke-linejoin:round;stroke-miterlimit:4;stroke-dasharray:none;stroke-dashoffset:0;stroke-opacity:1"
           sodipodi:type="arc" />
        <path
           style="fill:#ffff00;fill-opacity:1;fill-rule:nonzero;stroke:none;stroke-width:2;stroke-linecap:round;stroke-linejoin:round;stroke-miterlimit:4;stroke-dasharray:none;stroke-dashoffset:0;stroke-opacity:1"
           d="M 25.5,7 C 25.224,7 25,7.224 25,7.5 L 25,9 L 26,8 L 28,9 L 28,7.5 C 28,7.224 27.776,7 27.5,7 L 26.5,7 L 25.5,7 z"
           id="path3277" />
        <path
           style="fill:#00ffff;fill-opacity:1;fill-rule:nonzero;stroke:none;stroke-width:2;stroke-linecap:round;stroke-linejoin:round;stroke-miterlimit:4;stroke-dasharray:none;stroke-dashoffset:0;stroke-opacity:1"
           d="M 26,12 L 24,12 L 23,17 L 24,17 L 25,14 L 25,17 L 28,17 L 28,14 L 29,17 L 30,17 L 29,12 L 27,12 L 26,12 z"
           id="path3279"
           sodipodi:nodetypes="ccccccccccccc" />
        <path
           style="fill:#0000ff;fill-opacity:1;fill-rule:nonzero;stroke:none;stroke-width:2;stroke-linecap:round;stroke-linejoin:round;stroke-miterlimit:4;stroke-dasharray:none;stroke-dashoffset:0;stroke-opacity:1"
           d="M 25,17 L 24,22 L 26,22 L 26.459016,19 L 27,22 L 29,22 L 28,17 L 25,17 z"
           id="path3281" />
        <path
           sodipodi:type="arc"
           style="fill:#ffaa00;fill-opacity:1;fill-rule:nonzero;stroke:none;stroke-width:2;stroke-linecap:round;stroke-linejoin:round;stroke-miterlimit:4;stroke-dasharray:none;stroke-dashoffset:0;stroke-opacity:1"
           id="path3283"
           sodipodi:cx="20.5"
           sodipodi:cy="4.5"
           sodipodi:rx="0.5"
           sodipodi:ry="0.5"
           d="M 20.5,5 A 0.5,0.5 0 0 1 20,4.5 L 20.5,4.5 z"
           transform="matrix(2,0,0,4,-17,-0.9999999)"
           sodipodi:start="1.5707963"
           sodipodi:end="3.1415927" />
        <path
           sodipodi:end="1.5707963"
           sodipodi:start="0"
           transform="matrix(2,0,0,4,-12,-1)"
           d="M 21,4.5 A 0.5,0.5 0 0 1 20.5,5 L 20.5,4.5 z"
           sodipodi:ry="0.5"
           sodipodi:rx="0.5"
           sodipodi:cy="4.5"
           sodipodi:cx="20.5"
           id="path3285"
           style="fill:#ffaa00;fill-opacity:1;fill-rule:nonzero;stroke:none;stroke-width:2;stroke-linecap:round;stroke-linejoin:round;stroke-miterlimit:4;stroke-dasharray:none;stroke-dashoffset:0;stroke-opacity:1"
           sodipodi:type="arc" />
        <path
           sodipodi:type="arc"
           style="fill:#00ffff;fill-opacity:1;fill-rule:nonzero;stroke:none;stroke-width:2;stroke-linecap:round;stroke-linejoin:round;stroke-miterlimit:4;stroke-dasharray:none;stroke-dashoffset:0;stroke-opacity:1"
           id="path3287"
           sodipodi:cx="14.5"
           sodipodi:cy="18"
           sodipodi:rx="1.5"
           sodipodi:ry="1"
           d="M 13,18 A 1.5,1 0 0 1 16,18 L 14.5,18 z"
           sodipodi:start="3.1415927"
           sodipodi:end="6.2831853"
           transform="translate(10.5,5)" />
        <path
           transform="translate(13.5,5)"
           sodipodi:end="6.2831853"
           sodipodi:start="3.1415927"
           d="M 13,18 A 1.5,1 0 0 1 16,18 L 14.5,18 z"
           sodipodi:ry="1"
           sodipodi:rx="1.5"
           sodipodi:cy="18"
           sodipodi:cx="14.5"
           id="path3289"
           style="fill:#00ffff;fill-opacity:1;fill-rule:nonzero;stroke:none;stroke-width:2;stroke-linecap:round;stroke-linejoin:round;stroke-miterlimit:4;stroke-dasharray:none;stroke-dashoffset:0;stroke-opacity:1"
           sodipodi:type="arc" />
      </g>
    </g>
    <path
       sodipodi:type="arc"
       style="opacity:1;fill:#ffe800;fill-opacity:1;fill-rule:nonzero;stroke:none;stroke-width:2;stroke-linecap:round;stroke-linejoin:miter;stroke-miterlimit:4;stroke-dasharray:none;stroke-dashoffset:0;stroke-opacity:1"
       id="path3674"
       sodipodi:cx="-11.5"
       sodipodi:cy="10.5"
       sodipodi:rx="6.5"
       sodipodi:ry="6.5"
       d="M -5,10.5 A 6.5,6.5 0 1 1 -18,10.5 A 6.5,6.5 0 1 1 -5,10.5 z"
       transform="matrix(0.1538462,0,0,0.1538462,18.269232,7.3846152)" />
    <path
       transform="matrix(0.1538462,0,0,0.1538462,8.2692316,12.384615)"
       d="M -5,10.5 A 6.5,6.5 0 1 1 -18,10.5 A 6.5,6.5 0 1 1 -5,10.5 z"
       sodipodi:ry="6.5"
       sodipodi:rx="6.5"
       sodipodi:cy="10.5"
       sodipodi:cx="-11.5"
       id="path3676"
       style="opacity:1;fill:#f0f0f0;fill-opacity:1;fill-rule:nonzero;stroke:none;stroke-width:2;stroke-linecap:round;stroke-linejoin:miter;stroke-miterlimit:4;stroke-dasharray:none;stroke-dashoffset:0;stroke-opacity:1"
       sodipodi:type="arc" />
    <path
       sodipodi:type="arc"
       style="opacity:1;fill:#cac000;fill-opacity:1;fill-rule:nonzero;stroke:none;stroke-width:2;stroke-linecap:round;stroke-linejoin:miter;stroke-miterlimit:4;stroke-dasharray:none;stroke-dashoffset:0;stroke-opacity:1"
       id="path3678"
       sodipodi:cx="-11.5"
       sodipodi:cy="10.5"
       sodipodi:rx="6.5"
       sodipodi:ry="6.5"
       d="M -5,10.5 A 6.5,6.5 0 1 1 -18,10.5 A 6.5,6.5 0 1 1 -5,10.5 z"
       transform="matrix(0.1538462,0,0,0.1538462,28.269232,12.384615)" />
  </g>
</svg>
