<?xml version="1.0" encoding="UTF-8" standalone="no"?>
<!-- Created with Inkscape (http://www.inkscape.org/) -->

<svg xmlns:dc="http://purl.org/dc/elements/1.1/" xmlns:cc="http://creativecommons.org/ns#" xmlns:rdf="http://www.w3.org/1999/02/22-rdf-syntax-ns#" xmlns:svg="http://www.w3.org/2000/svg" xmlns="http://www.w3.org/2000/svg" xmlns:xlink="http://www.w3.org/1999/xlink" xmlns:sodipodi="http://sodipodi.sourceforge.net/DTD/sodipodi-0.dtd" xmlns:inkscape="http://www.inkscape.org/namespaces/inkscape" width="32" height="32" id="svg4150" version="1.1" inkscape:version="0.91 r13725" viewBox="0 0 32 32" sodipodi:docname="settings-00.svg">
  <defs id="defs4152" />
  <sodipodi:namedview id="base" pagecolor="#ffffff" bordercolor="#666666" borderopacity="1.0" inkscape:pageopacity="0.0" inkscape:pageshadow="2" inkscape:zoom="22.125" inkscape:cx="16" inkscape:cy="16" inkscape:current-layer="layer1" showgrid="true" inkscape:grid-bbox="true" inkscape:document-units="px" objecttolerance="10000" inkscape:snap-perpendicular="true" guidetolerance="10000" inkscape:window-width="1600" inkscape:window-height="878" inkscape:window-x="0" inkscape:window-y="0" inkscape:window-maximized="1" showguides="true" inkscape:guide-bbox="true">
    <inkscape:grid type="xygrid" id="grid4698" empspacing="4" />
    <sodipodi:guide position="16,32" orientation="1,0" id="guide4769" />
    <sodipodi:guide position="-4,16" orientation="0,1" id="guide4771" />
    <sodipodi:guide position="16,16" orientation="-0.70710678,0.70710678" id="guide4773" />
    <sodipodi:guide position="16,16" orientation="0.70710678,0.70710678" id="guide4775" />
  </sodipodi:namedview>
  <metadata id="metadata4155">
    <rdf:RDF>
      <cc:Work rdf:about="">
        <dc:format>image/svg+xml</dc:format>
        <dc:type rdf:resource="http://purl.org/dc/dcmitype/StillImage" />
        <dc:title />
      </cc:Work>
    </rdf:RDF>
  </metadata>
  <g id="layer1" inkscape:label="Layer 1" inkscape:groupmode="layer">
    <g id="g5547">
      <rect y="0" x="0" height="32" width="32" id="rect5545" style="opacity:1;fill:none;fill-opacity:1;fill-rule:nonzero;stroke:none;stroke-width:2;stroke-linecap:round;stroke-linejoin:round;stroke-miterlimit:4;stroke-dasharray:none;stroke-dashoffset:0;stroke-opacity:1" />
      <g id="g8054" transform="translate(-0.5,0)">
        <rect style="fill:#666;fill-opacity:1;stroke:black;stroke-width:0.99999982;stroke-linecap:square;stroke-linejoin:round;stroke-miterlimit:4;stroke-dasharray:none;stroke-opacity:1" id="rect7405" width="2" height="21" x="8.5" y="5.5" ry="0.99999988" rx="1" inkscape:tile-cx="3" inkscape:tile-cy="16" inkscape:tile-w="2" inkscape:tile-h="27" inkscape:tile-x0="2" inkscape:tile-y0="2.5" />
        <use x="0" y="0" inkscape:tiled-clone-of="#rect7405" xlink:href="#rect7405" transform="translate(7,0)" id="use7419" width="32" height="32" />
        <use x="0" y="0" inkscape:tiled-clone-of="#rect7405" xlink:href="#rect7405" transform="translate(14,0)" id="use7421" width="32" height="32" />
        <rect y="11" x="7" height="7" width="5" id="rect7433" style="fill:red;fill-opacity:1;stroke:black;stroke-width:0.99999994;stroke-opacity:1" inkscape:tile-cx="4" inkscape:tile-cy="14.75" inkscape:tile-w="4" inkscape:tile-h="5.5" inkscape:tile-x0="2" inkscape:tile-y0="12" ry="2.5" rx="2.5" />
        <g id="g3952" inkscape:tile-cx="5.5" inkscape:tile-cy="19.5" inkscape:tile-w="4" inkscape:tile-h="6" inkscape:tile-x0="3.5" inkscape:tile-y0="16.5" transform="translate(4,-4.9999999)">
          <path id="rect3916" d="m 5.5,16.5 c -0.554,0 -1.04475,0.23225 -1.40625,0.59375 l 0.6875,0.6875 C 4.962,17.6005 5.223,17.5 5.5,17.5 c 0.554,0 1,0.446 1,1 l 0,2 c 0,0.277 -0.1005,0.538 -0.28125,0.71875 l 0.6875,0.6875 C 7.26775,21.54475 7.5,21.054 7.5,20.5 l 0,-2 c 0,-1.108 -0.892,-2 -2,-2 z" style="fill:white;fill-opacity:0.25098039;stroke:none" inkscape:connector-curvature="0" />
          <path id="rect3142" d="M 4.09375,17.09375 C 3.73225,17.45525 3.5,17.946 3.5,18.5 l 0,2 c 0,1.108 0.892,2 2,2 0.554,0 1.04475,-0.23225 1.40625,-0.59375 l -0.6875,-0.6875 C 6.038,21.3995 5.777,21.5 5.5,21.5 c -0.554,0 -1,-0.446 -1,-1 l 0,-2 c 0,-0.277 0.1005,-0.538 0.28125,-0.71875 l -0.6875,-0.6875 z" style="fill:black;fill-opacity:0.25098039;stroke:none" inkscape:connector-curvature="0" />
        </g>
        <rect ry="2.5" inkscape:tile-y0="16" inkscape:tile-x0="10" inkscape:tile-h="7" inkscape:tile-w="5" inkscape:tile-cy="19.5" inkscape:tile-cx="12.5" style="fill:lime;fill-opacity:1;stroke:black;stroke-width:0.99999994;stroke-opacity:1" id="rect3944" width="5" height="7" x="14" y="17" rx="2.5" />
        <use x="0" y="0" inkscape:tiled-clone-of="#rect3944" xlink:href="#rect3944" id="use3946" width="100%" height="100%" />
        <use x="0" y="0" inkscape:tiled-clone-of="#rect3944" xlink:href="#rect3944" transform="translate(7,-10)" id="use3948" width="32" height="32" />
        <use x="0" y="0" inkscape:tiled-clone-of="#g3952" xlink:href="#g3952" id="use3956" width="32" height="32" />
        <use x="0" y="0" inkscape:tiled-clone-of="#g3952" xlink:href="#g3952" transform="translate(7,6)" id="use3958" width="32" height="32" />
        <use x="0" y="0" inkscape:tiled-clone-of="#g3952" xlink:href="#g3952" transform="translate(14,-4)" id="use3960" width="32" height="32" />
      </g>
    </g>
  </g>
</svg>
