<?xml version="1.0" encoding="UTF-8" standalone="no"?>
<!-- Created with Inkscape (http://www.inkscape.org/) -->

<svg
   xmlns:dc="http://purl.org/dc/elements/1.1/"
   xmlns:cc="http://creativecommons.org/ns#"
   xmlns:rdf="http://www.w3.org/1999/02/22-rdf-syntax-ns#"
   xmlns:svg="http://www.w3.org/2000/svg"
   xmlns="http://www.w3.org/2000/svg"
   xmlns:sodipodi="http://sodipodi.sourceforge.net/DTD/sodipodi-0.dtd"
   xmlns:inkscape="http://www.inkscape.org/namespaces/inkscape"
   id="svg6800"
   sodipodi:modified="true"
   sodipodi:docname="us-uk-flag-00.svg"
   inkscape:export-filename="/Users/miialainen/Documents/Word play/Word Play images/US-UK_Flag.png"
   viewBox="0 0 425.19685 425.19686"
   sodipodi:version="0.32"
   inkscape:export-xdpi="90"
   version="1.0"
   inkscape:output_extension="org.inkscape.output.svg.inkscape"
   inkscape:export-ydpi="90"
   inkscape:version="0.91 r13725"
   width="120mm"
   height="120mm">
  <defs
     id="defs91" />
  <sodipodi:namedview
     id="base"
     fit-margin-left="0"
     inkscape:showpageshadow="false"
     inkscape:zoom="1.5736842"
     height="200px"
     borderopacity="1.0"
     inkscape:current-layer="layer1"
     inkscape:cx="79.320949"
     inkscape:cy="215.14607"
     borderlayer="false"
     fit-margin-right="0"
     inkscape:window-maximized="0"
     showgrid="false"
     width="380px"
     inkscape:document-units="px"
     bordercolor="#666666"
     inkscape:window-x="120"
     guidetolerance="10"
     objecttolerance="10"
     inkscape:window-y="30"
     fit-margin-bottom="0"
     inkscape:window-width="1794"
     inkscape:pageopacity="0.0"
     inkscape:pageshadow="2"
     pagecolor="#ffffff"
     gridtolerance="10000"
     inkscape:window-height="969"
     showborder="true"
     fit-margin-top="0"
     units="mm">
    <inkscape:grid
       id="grid3830"
       enabled="true"
       visible="true"
       snapvisiblegridlinesonly="true"
       type="xygrid"
       empspacing="5"
       originx="0.17399999"
       originy="1.2983104" />
  </sodipodi:namedview>
  <g
     id="layer4"
     inkscape:label="stripes"
     inkscape:groupmode="layer"
     transform="translate(0.674,223.39836)" />
  <g
     id="layer5"
     inkscape:label="field"
     inkscape:groupmode="layer"
     transform="translate(0.674,223.39836)" />
  <g
     id="layer6"
     inkscape:label="stars"
     inkscape:groupmode="layer"
     transform="translate(0.674,223.39836)" />
  <g
     id="layer7"
     inkscape:label="uk white background"
     inkscape:groupmode="layer"
     transform="translate(0.674,223.39836)" />
  <g
     id="layer8"
     inkscape:label="UK blue"
     inkscape:groupmode="layer"
     transform="translate(0.674,223.39836)" />
  <g
     id="layer9"
     inkscape:label="UK white n red stripes"
     inkscape:groupmode="layer"
     transform="translate(0.674,223.39836)" />
  <g
     id="layer3"
     inkscape:label="UK"
     inkscape:groupmode="layer"
     transform="translate(0.674,223.39836)" />
  <g
     id="layer1"
     inkscape:label="bg_border"
     inkscape:groupmode="layer"
     transform="translate(0.674,223.39836)">
    <g
       id="g4294"
       transform="translate(21.971088,-111.94745)">
      <rect
         x="0"
         y="184"
         width="379"
         height="16"
         style="fill:#bf0a30;fill-rule:evenodd"
         id="rect8767"
         transform="translate(0,1.3723625e-6)" />
      <rect
         x="0"
         y="168"
         width="379"
         height="16"
         style="fill:#ffffff;fill-rule:evenodd"
         id="rect8769"
         transform="translate(0,1.3723625e-6)" />
      <rect
         x="0"
         y="152"
         width="379"
         height="16"
         style="fill:#bf0a30;fill-rule:evenodd"
         id="rect8771"
         transform="translate(0,1.3723625e-6)" />
      <rect
         x="0"
         y="136"
         width="379"
         height="16"
         style="fill:#ffffff;fill-rule:evenodd"
         id="rect8773"
         transform="translate(0,1.3723625e-6)" />
      <rect
         x="0"
         y="121"
         width="379"
         height="15"
         style="fill:#bf0a30;fill-rule:evenodd"
         id="rect8775"
         transform="translate(0,1.3723625e-6)" />
      <rect
         x="0"
         y="106"
         width="379"
         height="15"
         style="fill:#ffffff;fill-rule:evenodd"
         id="rect8777"
         transform="translate(0,1.3723625e-6)" />
      <rect
         x="0"
         y="91"
         width="379"
         height="15"
         style="fill:#bf0a30;fill-rule:evenodd"
         id="rect8779"
         transform="translate(0,1.3723625e-6)" />
      <rect
         x="0"
         y="76"
         width="379"
         height="15"
         style="fill:#ffffff;fill-rule:evenodd"
         id="rect8781"
         transform="translate(0,1.3723625e-6)" />
      <rect
         x="0"
         y="61"
         width="379"
         height="15"
         style="fill:#bf0a30;fill-rule:evenodd"
         id="rect8783"
         transform="translate(0,1.3723625e-6)" />
      <rect
         x="0"
         y="46"
         width="379"
         height="15"
         style="fill:#ffffff;fill-rule:evenodd"
         id="rect8785"
         transform="translate(0,1.3723625e-6)" />
      <rect
         x="0"
         y="31"
         width="379"
         height="15"
         style="fill:#bf0a30;fill-rule:evenodd"
         id="rect8787"
         transform="translate(0,1.3723625e-6)" />
      <rect
         x="0"
         y="16"
         width="379"
         height="15"
         style="fill:#ffffff;fill-rule:evenodd"
         id="rect8791"
         transform="translate(0,1.3723625e-6)" />
      <rect
         x="0"
         y="1"
         width="379"
         height="15"
         style="fill:#bf0a30;fill-rule:evenodd"
         id="rect8793"
         transform="translate(0,1.3723625e-6)" />
      <rect
         x="0"
         y="1"
         width="152"
         height="105"
         style="fill:#002868;fill-rule:evenodd"
         id="rect8796"
         transform="translate(0,1.3723625e-6)" />
      <path
         d="m 100.33333,146.66667 4.13886,-0.77244 1.27511,-4.01259 2.01361,3.69759 4.21023,-0.0273 -2.89438,3.05767 1.32696,3.99575 -3.80244,-1.80785 -3.39013,2.49677 0.54435,-4.17499 z"
         inkscape:flatsided="false"
         inkscape:rounded="0"
         sodipodi:cx="106.33333"
         sodipodi:cy="148"
         inkscape:randomized="0"
         transform="matrix(1.0487,0.089951,-0.08593,1.0977,-86.263,-76.410998)"
         sodipodi:arg2="-2.2946052"
         sodipodi:arg1="-2.9229237"
         sodipodi:r2="2.810354"
         sodipodi:r1="6.1463628"
         sodipodi:sides="5"
         sodipodi:type="star"
         style="fill:#ffffff;fill-rule:evenodd"
         id="path8825" />
      <path
         d="m 100.33333,146.66667 4.13886,-0.77244 1.27511,-4.01259 2.01361,3.69759 4.21023,-0.0273 -2.89438,3.05767 1.32696,3.99575 -3.80244,-1.80785 -3.39013,2.49677 0.54435,-4.17499 z"
         inkscape:flatsided="false"
         inkscape:rounded="0"
         sodipodi:cx="106.33333"
         sodipodi:cy="148"
         inkscape:randomized="0"
         transform="matrix(1.0487,0.089951,-0.08593,1.0977,-61.263,-76.410998)"
         sodipodi:arg2="-2.2946052"
         sodipodi:arg1="-2.9229237"
         sodipodi:r2="2.810354"
         sodipodi:r1="6.1463628"
         sodipodi:sides="5"
         sodipodi:type="star"
         style="fill:#ffffff;fill-rule:evenodd"
         id="path8827" />
      <path
         d="m 100.33333,146.66667 4.13886,-0.77244 1.27511,-4.01259 2.01361,3.69759 4.21023,-0.0273 -2.89438,3.05767 1.32696,3.99575 -3.80244,-1.80785 -3.39013,2.49677 0.54435,-4.17499 z"
         inkscape:flatsided="false"
         inkscape:rounded="0"
         sodipodi:cx="106.33333"
         sodipodi:cy="148"
         inkscape:randomized="0"
         transform="matrix(1.0487,0.089951,-0.08593,1.0977,-35.263,-76.410998)"
         sodipodi:arg2="-2.2946052"
         sodipodi:arg1="-2.9229237"
         sodipodi:r2="2.810354"
         sodipodi:r1="6.1463628"
         sodipodi:sides="5"
         sodipodi:type="star"
         style="fill:#ffffff;fill-rule:evenodd"
         id="path8829" />
      <path
         d="m 100.33333,146.66667 4.13886,-0.77244 1.27511,-4.01259 2.01361,3.69759 4.21023,-0.0273 -2.89438,3.05767 1.32696,3.99575 -3.80244,-1.80785 -3.39013,2.49677 0.54435,-4.17499 z"
         inkscape:flatsided="false"
         inkscape:rounded="0"
         sodipodi:cx="106.33333"
         sodipodi:cy="148"
         inkscape:randomized="0"
         transform="matrix(1.0487,0.089951,-0.08593,1.0977,-10.263,-76.410998)"
         sodipodi:arg2="-2.2946052"
         sodipodi:arg1="-2.9229237"
         sodipodi:r2="2.810354"
         sodipodi:r1="6.1463628"
         sodipodi:sides="5"
         sodipodi:type="star"
         style="fill:#ffffff;fill-rule:evenodd"
         id="path8831" />
      <path
         d="m 100.33333,146.66667 4.13886,-0.77244 1.27511,-4.01259 2.01361,3.69759 4.21023,-0.0273 -2.89438,3.05767 1.32696,3.99575 -3.80244,-1.80785 -3.39013,2.49677 0.54435,-4.17499 z"
         inkscape:flatsided="false"
         inkscape:rounded="0"
         sodipodi:cx="106.33333"
         sodipodi:cy="148"
         inkscape:randomized="0"
         transform="matrix(1.0487,0.089951,-0.08593,1.0977,14.737,-76.410998)"
         sodipodi:arg2="-2.2946052"
         sodipodi:arg1="-2.9229237"
         sodipodi:r2="2.810354"
         sodipodi:r1="6.1463628"
         sodipodi:sides="5"
         sodipodi:type="star"
         style="fill:#ffffff;fill-rule:evenodd"
         id="path8833" />
      <path
         d="m 100.33333,146.66667 4.13886,-0.77244 1.27511,-4.01259 2.01361,3.69759 4.21023,-0.0273 -2.89438,3.05767 1.32696,3.99575 -3.80244,-1.80785 -3.39013,2.49677 0.54435,-4.17499 z"
         inkscape:flatsided="false"
         inkscape:rounded="0"
         sodipodi:cx="106.33333"
         sodipodi:cy="148"
         inkscape:randomized="0"
         transform="matrix(1.0487,0.089951,-0.08593,1.0977,40.737,-76.410998)"
         sodipodi:arg2="-2.2946052"
         sodipodi:arg1="-2.9229237"
         sodipodi:r2="2.810354"
         sodipodi:r1="6.1463628"
         sodipodi:sides="5"
         sodipodi:type="star"
         style="fill:#ffffff;fill-rule:evenodd"
         id="path8835" />
      <path
         d="m 100.33333,146.66667 4.13886,-0.77244 1.27511,-4.01259 2.01361,3.69759 4.21023,-0.0273 -2.89438,3.05767 1.32696,3.99575 -3.80244,-1.80785 -3.39013,2.49677 0.54435,-4.17499 z"
         inkscape:flatsided="false"
         inkscape:rounded="0"
         sodipodi:cx="106.33333"
         sodipodi:cy="148"
         inkscape:randomized="0"
         transform="matrix(1.0487,0.089951,-0.08593,1.0977,-73.263,-86.410999)"
         sodipodi:arg2="-2.2946052"
         sodipodi:arg1="-2.9229237"
         sodipodi:r2="2.810354"
         sodipodi:r1="6.1463628"
         sodipodi:sides="5"
         sodipodi:type="star"
         style="fill:#ffffff;fill-rule:evenodd"
         id="path8837" />
      <path
         d="m 100.33333,146.66667 4.13886,-0.77244 1.27511,-4.01259 2.01361,3.69759 4.21023,-0.0273 -2.89438,3.05767 1.32696,3.99575 -3.80244,-1.80785 -3.39013,2.49677 0.54435,-4.17499 z"
         inkscape:flatsided="false"
         inkscape:rounded="0"
         sodipodi:cx="106.33333"
         sodipodi:cy="148"
         inkscape:randomized="0"
         transform="matrix(1.0487,0.089951,-0.08593,1.0977,-86.263,-97.411)"
         sodipodi:arg2="-2.2946052"
         sodipodi:arg1="-2.9229237"
         sodipodi:r2="2.810354"
         sodipodi:r1="6.1463628"
         sodipodi:sides="5"
         sodipodi:type="star"
         style="fill:#ffffff;fill-rule:evenodd"
         id="path8839" />
      <path
         d="m 100.33333,146.66667 4.13886,-0.77244 1.27511,-4.01259 2.01361,3.69759 4.21023,-0.0273 -2.89438,3.05767 1.32696,3.99575 -3.80244,-1.80785 -3.39013,2.49677 0.54435,-4.17499 z"
         inkscape:flatsided="false"
         inkscape:rounded="0"
         sodipodi:cx="106.33333"
         sodipodi:cy="148"
         inkscape:randomized="0"
         transform="matrix(1.0487,0.089951,-0.08593,1.0977,-73.263,-107.41)"
         sodipodi:arg2="-2.2946052"
         sodipodi:arg1="-2.9229237"
         sodipodi:r2="2.810354"
         sodipodi:r1="6.1463628"
         sodipodi:sides="5"
         sodipodi:type="star"
         style="fill:#ffffff;fill-rule:evenodd"
         id="path8841" />
      <path
         d="m 100.33333,146.66667 4.13886,-0.77244 1.27511,-4.01259 2.01361,3.69759 4.21023,-0.0273 -2.89438,3.05767 1.32696,3.99575 -3.80244,-1.80785 -3.39013,2.49677 0.54435,-4.17499 z"
         inkscape:flatsided="false"
         inkscape:rounded="0"
         sodipodi:cx="106.33333"
         sodipodi:cy="148"
         inkscape:randomized="0"
         transform="matrix(1.0487,0.089951,-0.08593,1.0977,-86.263,-118.41)"
         sodipodi:arg2="-2.2946052"
         sodipodi:arg1="-2.9229237"
         sodipodi:r2="2.810354"
         sodipodi:r1="6.1463628"
         sodipodi:sides="5"
         sodipodi:type="star"
         style="fill:#ffffff;fill-rule:evenodd"
         id="path8843" />
      <path
         d="m 100.33333,146.66667 4.13886,-0.77244 1.27511,-4.01259 2.01361,3.69759 4.21023,-0.0273 -2.89438,3.05767 1.32696,3.99575 -3.80244,-1.80785 -3.39013,2.49677 0.54435,-4.17499 z"
         inkscape:flatsided="false"
         inkscape:rounded="0"
         sodipodi:cx="106.33333"
         sodipodi:cy="148"
         inkscape:randomized="0"
         transform="matrix(1.0487,0.089951,-0.08593,1.0977,-73.263,-128.41)"
         sodipodi:arg2="-2.2946052"
         sodipodi:arg1="-2.9229237"
         sodipodi:r2="2.810354"
         sodipodi:r1="6.1463628"
         sodipodi:sides="5"
         sodipodi:type="star"
         style="fill:#ffffff;fill-rule:evenodd"
         id="path8845" />
      <path
         d="m 100.33333,146.66667 4.13886,-0.77244 1.27511,-4.01259 2.01361,3.69759 4.21023,-0.0273 -2.89438,3.05767 1.32696,3.99575 -3.80244,-1.80785 -3.39013,2.49677 0.54435,-4.17499 z"
         inkscape:flatsided="false"
         inkscape:rounded="0"
         sodipodi:cx="106.33333"
         sodipodi:cy="148"
         inkscape:randomized="0"
         transform="matrix(1.0487,0.089951,-0.08593,1.0977,-86.263,-139.41)"
         sodipodi:arg2="-2.2946052"
         sodipodi:arg1="-2.9229237"
         sodipodi:r2="2.810354"
         sodipodi:r1="6.1463628"
         sodipodi:sides="5"
         sodipodi:type="star"
         style="fill:#ffffff;fill-rule:evenodd"
         id="path8847" />
      <path
         d="m 100.33333,146.66667 4.13886,-0.77244 1.27511,-4.01259 2.01361,3.69759 4.21023,-0.0273 -2.89438,3.05767 1.32696,3.99575 -3.80244,-1.80785 -3.39013,2.49677 0.54435,-4.17499 z"
         inkscape:flatsided="false"
         inkscape:rounded="0"
         sodipodi:cx="106.33333"
         sodipodi:cy="148"
         inkscape:randomized="0"
         transform="matrix(1.0487,0.089951,-0.08593,1.0977,-73.263,-149.41)"
         sodipodi:arg2="-2.2946052"
         sodipodi:arg1="-2.9229237"
         sodipodi:r2="2.810354"
         sodipodi:r1="6.1463628"
         sodipodi:sides="5"
         sodipodi:type="star"
         style="fill:#ffffff;fill-rule:evenodd"
         id="path8849" />
      <path
         d="m 100.33333,146.66667 4.13886,-0.77244 1.27511,-4.01259 2.01361,3.69759 4.21023,-0.0273 -2.89438,3.05767 1.32696,3.99575 -3.80244,-1.80785 -3.39013,2.49677 0.54435,-4.17499 z"
         inkscape:flatsided="false"
         inkscape:rounded="0"
         sodipodi:cx="106.33333"
         sodipodi:cy="148"
         inkscape:randomized="0"
         transform="matrix(1.0487,0.089951,-0.08593,1.0977,-86.263,-160.41)"
         sodipodi:arg2="-2.2946052"
         sodipodi:arg1="-2.9229237"
         sodipodi:r2="2.810354"
         sodipodi:r1="6.1463628"
         sodipodi:sides="5"
         sodipodi:type="star"
         style="fill:#ffffff;fill-rule:evenodd"
         id="path8851" />
      <path
         d="m 100.33333,146.66667 4.13886,-0.77244 1.27511,-4.01259 2.01361,3.69759 4.21023,-0.0273 -2.89438,3.05767 1.32696,3.99575 -3.80244,-1.80785 -3.39013,2.49677 0.54435,-4.17499 z"
         inkscape:flatsided="false"
         inkscape:rounded="0"
         sodipodi:cx="106.33333"
         sodipodi:cy="148"
         inkscape:randomized="0"
         transform="matrix(1.0487,0.089951,-0.08593,1.0977,-48.263,-86.410999)"
         sodipodi:arg2="-2.2946052"
         sodipodi:arg1="-2.9229237"
         sodipodi:r2="2.810354"
         sodipodi:r1="6.1463628"
         sodipodi:sides="5"
         sodipodi:type="star"
         style="fill:#ffffff;fill-rule:evenodd"
         id="path8853" />
      <path
         d="m 100.33333,146.66667 4.13886,-0.77244 1.27511,-4.01259 2.01361,3.69759 4.21023,-0.0273 -2.89438,3.05767 1.32696,3.99575 -3.80244,-1.80785 -3.39013,2.49677 0.54435,-4.17499 z"
         inkscape:flatsided="false"
         inkscape:rounded="0"
         sodipodi:cx="106.33333"
         sodipodi:cy="148"
         inkscape:randomized="0"
         transform="matrix(1.0487,0.089951,-0.08593,1.0977,-61.263,-97.411)"
         sodipodi:arg2="-2.2946052"
         sodipodi:arg1="-2.9229237"
         sodipodi:r2="2.810354"
         sodipodi:r1="6.1463628"
         sodipodi:sides="5"
         sodipodi:type="star"
         style="fill:#ffffff;fill-rule:evenodd"
         id="path8855" />
      <path
         d="m 100.33333,146.66667 4.13886,-0.77244 1.27511,-4.01259 2.01361,3.69759 4.21023,-0.0273 -2.89438,3.05767 1.32696,3.99575 -3.80244,-1.80785 -3.39013,2.49677 0.54435,-4.17499 z"
         inkscape:flatsided="false"
         inkscape:rounded="0"
         sodipodi:cx="106.33333"
         sodipodi:cy="148"
         inkscape:randomized="0"
         transform="matrix(1.0487,0.089951,-0.08593,1.0977,-48.263,-107.41)"
         sodipodi:arg2="-2.2946052"
         sodipodi:arg1="-2.9229237"
         sodipodi:r2="2.810354"
         sodipodi:r1="6.1463628"
         sodipodi:sides="5"
         sodipodi:type="star"
         style="fill:#ffffff;fill-rule:evenodd"
         id="path8857" />
      <path
         d="m 100.33333,146.66667 4.13886,-0.77244 1.27511,-4.01259 2.01361,3.69759 4.21023,-0.0273 -2.89438,3.05767 1.32696,3.99575 -3.80244,-1.80785 -3.39013,2.49677 0.54435,-4.17499 z"
         inkscape:flatsided="false"
         inkscape:rounded="0"
         sodipodi:cx="106.33333"
         sodipodi:cy="148"
         inkscape:randomized="0"
         transform="matrix(1.0487,0.089951,-0.08593,1.0977,-61.263,-118.41)"
         sodipodi:arg2="-2.2946052"
         sodipodi:arg1="-2.9229237"
         sodipodi:r2="2.810354"
         sodipodi:r1="6.1463628"
         sodipodi:sides="5"
         sodipodi:type="star"
         style="fill:#ffffff;fill-rule:evenodd"
         id="path8859" />
      <path
         d="m 100.33333,146.66667 4.13886,-0.77244 1.27511,-4.01259 2.01361,3.69759 4.21023,-0.0273 -2.89438,3.05767 1.32696,3.99575 -3.80244,-1.80785 -3.39013,2.49677 0.54435,-4.17499 z"
         inkscape:flatsided="false"
         inkscape:rounded="0"
         sodipodi:cx="106.33333"
         sodipodi:cy="148"
         inkscape:randomized="0"
         transform="matrix(1.0487,0.089951,-0.08593,1.0977,-48.263,-128.41)"
         sodipodi:arg2="-2.2946052"
         sodipodi:arg1="-2.9229237"
         sodipodi:r2="2.810354"
         sodipodi:r1="6.1463628"
         sodipodi:sides="5"
         sodipodi:type="star"
         style="fill:#ffffff;fill-rule:evenodd"
         id="path8861" />
      <path
         d="m 100.33333,146.66667 4.13886,-0.77244 1.27511,-4.01259 2.01361,3.69759 4.21023,-0.0273 -2.89438,3.05767 1.32696,3.99575 -3.80244,-1.80785 -3.39013,2.49677 0.54435,-4.17499 z"
         inkscape:flatsided="false"
         inkscape:rounded="0"
         sodipodi:cx="106.33333"
         sodipodi:cy="148"
         inkscape:randomized="0"
         transform="matrix(1.0487,0.089951,-0.08593,1.0977,-61.263,-139.41)"
         sodipodi:arg2="-2.2946052"
         sodipodi:arg1="-2.9229237"
         sodipodi:r2="2.810354"
         sodipodi:r1="6.1463628"
         sodipodi:sides="5"
         sodipodi:type="star"
         style="fill:#ffffff;fill-rule:evenodd"
         id="path8863" />
      <path
         d="m 100.33333,146.66667 4.13886,-0.77244 1.27511,-4.01259 2.01361,3.69759 4.21023,-0.0273 -2.89438,3.05767 1.32696,3.99575 -3.80244,-1.80785 -3.39013,2.49677 0.54435,-4.17499 z"
         inkscape:flatsided="false"
         inkscape:rounded="0"
         sodipodi:cx="106.33333"
         sodipodi:cy="148"
         inkscape:randomized="0"
         transform="matrix(1.0487,0.089951,-0.08593,1.0977,-48.263,-149.41)"
         sodipodi:arg2="-2.2946052"
         sodipodi:arg1="-2.9229237"
         sodipodi:r2="2.810354"
         sodipodi:r1="6.1463628"
         sodipodi:sides="5"
         sodipodi:type="star"
         style="fill:#ffffff;fill-rule:evenodd"
         id="path8865" />
      <path
         d="m 100.33333,146.66667 4.13886,-0.77244 1.27511,-4.01259 2.01361,3.69759 4.21023,-0.0273 -2.89438,3.05767 1.32696,3.99575 -3.80244,-1.80785 -3.39013,2.49677 0.54435,-4.17499 z"
         inkscape:flatsided="false"
         inkscape:rounded="0"
         sodipodi:cx="106.33333"
         sodipodi:cy="148"
         inkscape:randomized="0"
         transform="matrix(1.0487,0.089951,-0.08593,1.0977,-61.263,-160.41)"
         sodipodi:arg2="-2.2946052"
         sodipodi:arg1="-2.9229237"
         sodipodi:r2="2.810354"
         sodipodi:r1="6.1463628"
         sodipodi:sides="5"
         sodipodi:type="star"
         style="fill:#ffffff;fill-rule:evenodd"
         id="path8867" />
      <path
         d="m 100.33333,146.66667 4.13886,-0.77244 1.27511,-4.01259 2.01361,3.69759 4.21023,-0.0273 -2.89438,3.05767 1.32696,3.99575 -3.80244,-1.80785 -3.39013,2.49677 0.54435,-4.17499 z"
         inkscape:flatsided="false"
         inkscape:rounded="0"
         sodipodi:cx="106.33333"
         sodipodi:cy="148"
         inkscape:randomized="0"
         transform="matrix(1.0487,0.089951,-0.08593,1.0977,-23.263,-86.410999)"
         sodipodi:arg2="-2.2946052"
         sodipodi:arg1="-2.9229237"
         sodipodi:r2="2.810354"
         sodipodi:r1="6.1463628"
         sodipodi:sides="5"
         sodipodi:type="star"
         style="fill:#ffffff;fill-rule:evenodd"
         id="path8869" />
      <path
         d="m 100.33333,146.66667 4.13886,-0.77244 1.27511,-4.01259 2.01361,3.69759 4.21023,-0.0273 -2.89438,3.05767 1.32696,3.99575 -3.80244,-1.80785 -3.39013,2.49677 0.54435,-4.17499 z"
         inkscape:flatsided="false"
         inkscape:rounded="0"
         sodipodi:cx="106.33333"
         sodipodi:cy="148"
         inkscape:randomized="0"
         transform="matrix(1.0487,0.089951,-0.08593,1.0977,-35.263,-97.411)"
         sodipodi:arg2="-2.2946052"
         sodipodi:arg1="-2.9229237"
         sodipodi:r2="2.810354"
         sodipodi:r1="6.1463628"
         sodipodi:sides="5"
         sodipodi:type="star"
         style="fill:#ffffff;fill-rule:evenodd"
         id="path8871" />
      <path
         d="m 100.33333,146.66667 4.13886,-0.77244 1.27511,-4.01259 2.01361,3.69759 4.21023,-0.0273 -2.89438,3.05767 1.32696,3.99575 -3.80244,-1.80785 -3.39013,2.49677 0.54435,-4.17499 z"
         inkscape:flatsided="false"
         inkscape:rounded="0"
         sodipodi:cx="106.33333"
         sodipodi:cy="148"
         inkscape:randomized="0"
         transform="matrix(1.0487,0.089951,-0.08593,1.0977,14.737,-97.411)"
         sodipodi:arg2="-2.2946052"
         sodipodi:arg1="-2.9229237"
         sodipodi:r2="2.810354"
         sodipodi:r1="6.1463628"
         sodipodi:sides="5"
         sodipodi:type="star"
         style="fill:#ffffff;fill-rule:evenodd"
         id="path8873" />
      <path
         d="m 100.33333,146.66667 4.13886,-0.77244 1.27511,-4.01259 2.01361,3.69759 4.21023,-0.0273 -2.89438,3.05767 1.32696,3.99575 -3.80244,-1.80785 -3.39013,2.49677 0.54435,-4.17499 z"
         inkscape:flatsided="false"
         inkscape:rounded="0"
         sodipodi:cx="106.33333"
         sodipodi:cy="148"
         inkscape:randomized="0"
         transform="matrix(1.0487,0.089951,-0.08593,1.0977,-10.263,-97.411)"
         sodipodi:arg2="-2.2946052"
         sodipodi:arg1="-2.9229237"
         sodipodi:r2="2.810354"
         sodipodi:r1="6.1463628"
         sodipodi:sides="5"
         sodipodi:type="star"
         style="fill:#ffffff;fill-rule:evenodd"
         id="path8875" />
      <path
         d="m 100.33333,146.66667 4.13886,-0.77244 1.27511,-4.01259 2.01361,3.69759 4.21023,-0.0273 -2.89438,3.05767 1.32696,3.99575 -3.80244,-1.80785 -3.39013,2.49677 0.54435,-4.17499 z"
         inkscape:flatsided="false"
         inkscape:rounded="0"
         sodipodi:cx="106.33333"
         sodipodi:cy="148"
         inkscape:randomized="0"
         transform="matrix(1.0487,0.089951,-0.08593,1.0977,27.737,-86.410999)"
         sodipodi:arg2="-2.2946052"
         sodipodi:arg1="-2.9229237"
         sodipodi:r2="2.810354"
         sodipodi:r1="6.1463628"
         sodipodi:sides="5"
         sodipodi:type="star"
         style="fill:#ffffff;fill-rule:evenodd"
         id="path8877" />
      <path
         d="m 100.33333,146.66667 4.13886,-0.77244 1.27511,-4.01259 2.01361,3.69759 4.21023,-0.0273 -2.89438,3.05767 1.32696,3.99575 -3.80244,-1.80785 -3.39013,2.49677 0.54435,-4.17499 z"
         inkscape:flatsided="false"
         inkscape:rounded="0"
         sodipodi:cx="106.33333"
         sodipodi:cy="148"
         inkscape:randomized="0"
         transform="matrix(1.0487,0.089951,-0.08593,1.0977,2.7366,-86.410999)"
         sodipodi:arg2="-2.2946052"
         sodipodi:arg1="-2.9229237"
         sodipodi:r2="2.810354"
         sodipodi:r1="6.1463628"
         sodipodi:sides="5"
         sodipodi:type="star"
         style="fill:#ffffff;fill-rule:evenodd"
         id="path8879" />
      <path
         d="m 100.33333,146.66667 4.13886,-0.77244 1.27511,-4.01259 2.01361,3.69759 4.21023,-0.0273 -2.89438,3.05767 1.32696,3.99575 -3.80244,-1.80785 -3.39013,2.49677 0.54435,-4.17499 z"
         inkscape:flatsided="false"
         inkscape:rounded="0"
         sodipodi:cx="106.33333"
         sodipodi:cy="148"
         inkscape:randomized="0"
         transform="matrix(1.0487,0.089951,-0.08593,1.0977,-35.263,-160.41)"
         sodipodi:arg2="-2.2946052"
         sodipodi:arg1="-2.9229237"
         sodipodi:r2="2.810354"
         sodipodi:r1="6.1463628"
         sodipodi:sides="5"
         sodipodi:type="star"
         style="fill:#ffffff;fill-rule:evenodd"
         id="path8881" />
      <path
         d="m 100.33333,146.66667 4.13886,-0.77244 1.27511,-4.01259 2.01361,3.69759 4.21023,-0.0273 -2.89438,3.05767 1.32696,3.99575 -3.80244,-1.80785 -3.39013,2.49677 0.54435,-4.17499 z"
         inkscape:flatsided="false"
         inkscape:rounded="0"
         sodipodi:cx="106.33333"
         sodipodi:cy="148"
         inkscape:randomized="0"
         transform="matrix(1.0487,0.089951,-0.08593,1.0977,-23.263,-149.41)"
         sodipodi:arg2="-2.2946052"
         sodipodi:arg1="-2.9229237"
         sodipodi:r2="2.810354"
         sodipodi:r1="6.1463628"
         sodipodi:sides="5"
         sodipodi:type="star"
         style="fill:#ffffff;fill-rule:evenodd"
         id="path8883" />
      <path
         d="m 100.33333,146.66667 4.13886,-0.77244 1.27511,-4.01259 2.01361,3.69759 4.21023,-0.0273 -2.89438,3.05767 1.32696,3.99575 -3.80244,-1.80785 -3.39013,2.49677 0.54435,-4.17499 z"
         inkscape:flatsided="false"
         inkscape:rounded="0"
         sodipodi:cx="106.33333"
         sodipodi:cy="148"
         inkscape:randomized="0"
         transform="matrix(1.0487,0.089951,-0.08593,1.0977,-35.263,-139.41)"
         sodipodi:arg2="-2.2946052"
         sodipodi:arg1="-2.9229237"
         sodipodi:r2="2.810354"
         sodipodi:r1="6.1463628"
         sodipodi:sides="5"
         sodipodi:type="star"
         style="fill:#ffffff;fill-rule:evenodd"
         id="path8885" />
      <path
         d="m 100.33333,146.66667 4.13886,-0.77244 1.27511,-4.01259 2.01361,3.69759 4.21023,-0.0273 -2.89438,3.05767 1.32696,3.99575 -3.80244,-1.80785 -3.39013,2.49677 0.54435,-4.17499 z"
         inkscape:flatsided="false"
         inkscape:rounded="0"
         sodipodi:cx="106.33333"
         sodipodi:cy="148"
         inkscape:randomized="0"
         transform="matrix(1.0487,0.089951,-0.08593,1.0977,-23.263,-128.41)"
         sodipodi:arg2="-2.2946052"
         sodipodi:arg1="-2.9229237"
         sodipodi:r2="2.810354"
         sodipodi:r1="6.1463628"
         sodipodi:sides="5"
         sodipodi:type="star"
         style="fill:#ffffff;fill-rule:evenodd"
         id="path8887" />
      <path
         d="m 100.33333,146.66667 4.13886,-0.77244 1.27511,-4.01259 2.01361,3.69759 4.21023,-0.0273 -2.89438,3.05767 1.32696,3.99575 -3.80244,-1.80785 -3.39013,2.49677 0.54435,-4.17499 z"
         inkscape:flatsided="false"
         inkscape:rounded="0"
         sodipodi:cx="106.33333"
         sodipodi:cy="148"
         inkscape:randomized="0"
         transform="matrix(1.0487,0.089951,-0.08593,1.0977,-35.263,-118.41)"
         sodipodi:arg2="-2.2946052"
         sodipodi:arg1="-2.9229237"
         sodipodi:r2="2.810354"
         sodipodi:r1="6.1463628"
         sodipodi:sides="5"
         sodipodi:type="star"
         style="fill:#ffffff;fill-rule:evenodd"
         id="path8889" />
      <path
         d="m 100.33333,146.66667 4.13886,-0.77244 1.27511,-4.01259 2.01361,3.69759 4.21023,-0.0273 -2.89438,3.05767 1.32696,3.99575 -3.80244,-1.80785 -3.39013,2.49677 0.54435,-4.17499 z"
         inkscape:flatsided="false"
         inkscape:rounded="0"
         sodipodi:cx="106.33333"
         sodipodi:cy="148"
         inkscape:randomized="0"
         transform="matrix(1.0487,0.089951,-0.08593,1.0977,-23.263,-107.41)"
         sodipodi:arg2="-2.2946052"
         sodipodi:arg1="-2.9229237"
         sodipodi:r2="2.810354"
         sodipodi:r1="6.1463628"
         sodipodi:sides="5"
         sodipodi:type="star"
         style="fill:#ffffff;fill-rule:evenodd"
         id="path8891" />
      <path
         d="m 100.33333,146.66667 4.13886,-0.77244 1.27511,-4.01259 2.01361,3.69759 4.21023,-0.0273 -2.89438,3.05767 1.32696,3.99575 -3.80244,-1.80785 -3.39013,2.49677 0.54435,-4.17499 z"
         inkscape:flatsided="false"
         inkscape:rounded="0"
         sodipodi:cx="106.33333"
         sodipodi:cy="148"
         inkscape:randomized="0"
         transform="matrix(1.0487,0.089951,-0.08593,1.0977,40.737,-97.411)"
         sodipodi:arg2="-2.2946052"
         sodipodi:arg1="-2.9229237"
         sodipodi:r2="2.810354"
         sodipodi:r1="6.1463628"
         sodipodi:sides="5"
         sodipodi:type="star"
         style="fill:#ffffff;fill-rule:evenodd"
         id="path8893" />
      <path
         d="m 100.33333,146.66667 4.13886,-0.77244 1.27511,-4.01259 2.01361,3.69759 4.21023,-0.0273 -2.89438,3.05767 1.32696,3.99575 -3.80244,-1.80785 -3.39013,2.49677 0.54435,-4.17499 z"
         inkscape:flatsided="false"
         inkscape:rounded="0"
         sodipodi:cx="106.33333"
         sodipodi:cy="148"
         inkscape:randomized="0"
         transform="matrix(1.0487,0.089951,-0.08593,1.0977,-10.263,-118.41)"
         sodipodi:arg2="-2.2946052"
         sodipodi:arg1="-2.9229237"
         sodipodi:r2="2.810354"
         sodipodi:r1="6.1463628"
         sodipodi:sides="5"
         sodipodi:type="star"
         style="fill:#ffffff;fill-rule:evenodd"
         id="path8895" />
      <path
         d="m 100.33333,146.66667 4.13886,-0.77244 1.27511,-4.01259 2.01361,3.69759 4.21023,-0.0273 -2.89438,3.05767 1.32696,3.99575 -3.80244,-1.80785 -3.39013,2.49677 0.54435,-4.17499 z"
         inkscape:flatsided="false"
         inkscape:rounded="0"
         sodipodi:cx="106.33333"
         sodipodi:cy="148"
         inkscape:randomized="0"
         transform="matrix(1.0487,0.089951,-0.08593,1.0977,-10.263,-160.41)"
         sodipodi:arg2="-2.2946052"
         sodipodi:arg1="-2.9229237"
         sodipodi:r2="2.810354"
         sodipodi:r1="6.1463628"
         sodipodi:sides="5"
         sodipodi:type="star"
         style="fill:#ffffff;fill-rule:evenodd"
         id="path8897" />
      <path
         d="m 100.33333,146.66667 4.13886,-0.77244 1.27511,-4.01259 2.01361,3.69759 4.21023,-0.0273 -2.89438,3.05767 1.32696,3.99575 -3.80244,-1.80785 -3.39013,2.49677 0.54435,-4.17499 z"
         inkscape:flatsided="false"
         inkscape:rounded="0"
         sodipodi:cx="106.33333"
         sodipodi:cy="148"
         inkscape:randomized="0"
         transform="matrix(1.0487,0.089951,-0.08593,1.0977,-10.263,-139.41)"
         sodipodi:arg2="-2.2946052"
         sodipodi:arg1="-2.9229237"
         sodipodi:r2="2.810354"
         sodipodi:r1="6.1463628"
         sodipodi:sides="5"
         sodipodi:type="star"
         style="fill:#ffffff;fill-rule:evenodd"
         id="path8899" />
      <path
         d="m 100.33333,146.66667 4.13886,-0.77244 1.27511,-4.01259 2.01361,3.69759 4.21023,-0.0273 -2.89438,3.05767 1.32696,3.99575 -3.80244,-1.80785 -3.39013,2.49677 0.54435,-4.17499 z"
         inkscape:flatsided="false"
         inkscape:rounded="0"
         sodipodi:cx="106.33333"
         sodipodi:cy="148"
         inkscape:randomized="0"
         transform="matrix(1.0487,0.089951,-0.08593,1.0977,27.737,-107.41)"
         sodipodi:arg2="-2.2946052"
         sodipodi:arg1="-2.9229237"
         sodipodi:r2="2.810354"
         sodipodi:r1="6.1463628"
         sodipodi:sides="5"
         sodipodi:type="star"
         style="fill:#ffffff;fill-rule:evenodd"
         id="path8901" />
      <path
         d="m 100.33333,146.66667 4.13886,-0.77244 1.27511,-4.01259 2.01361,3.69759 4.21023,-0.0273 -2.89438,3.05767 1.32696,3.99575 -3.80244,-1.80785 -3.39013,2.49677 0.54435,-4.17499 z"
         inkscape:flatsided="false"
         inkscape:rounded="0"
         sodipodi:cx="106.33333"
         sodipodi:cy="148"
         inkscape:randomized="0"
         transform="matrix(1.0487,0.089951,-0.08593,1.0977,2.7366,-107.41)"
         sodipodi:arg2="-2.2946052"
         sodipodi:arg1="-2.9229237"
         sodipodi:r2="2.810354"
         sodipodi:r1="6.1463628"
         sodipodi:sides="5"
         sodipodi:type="star"
         style="fill:#ffffff;fill-rule:evenodd"
         id="path8903" />
      <path
         d="m 100.33333,146.66667 4.13886,-0.77244 1.27511,-4.01259 2.01361,3.69759 4.21023,-0.0273 -2.89438,3.05767 1.32696,3.99575 -3.80244,-1.80785 -3.39013,2.49677 0.54435,-4.17499 z"
         inkscape:flatsided="false"
         inkscape:rounded="0"
         sodipodi:cx="106.33333"
         sodipodi:cy="148"
         inkscape:randomized="0"
         transform="matrix(1.0487,0.089951,-0.08593,1.0977,2.7366,-149.41)"
         sodipodi:arg2="-2.2946052"
         sodipodi:arg1="-2.9229237"
         sodipodi:r2="2.810354"
         sodipodi:r1="6.1463628"
         sodipodi:sides="5"
         sodipodi:type="star"
         style="fill:#ffffff;fill-rule:evenodd"
         id="path8905" />
      <path
         d="m 100.33333,146.66667 4.13886,-0.77244 1.27511,-4.01259 2.01361,3.69759 4.21023,-0.0273 -2.89438,3.05767 1.32696,3.99575 -3.80244,-1.80785 -3.39013,2.49677 0.54435,-4.17499 z"
         inkscape:flatsided="false"
         inkscape:rounded="0"
         sodipodi:cx="106.33333"
         sodipodi:cy="148"
         inkscape:randomized="0"
         transform="matrix(1.0487,0.089951,-0.08593,1.0977,2.7366,-128.41)"
         sodipodi:arg2="-2.2946052"
         sodipodi:arg1="-2.9229237"
         sodipodi:r2="2.810354"
         sodipodi:r1="6.1463628"
         sodipodi:sides="5"
         sodipodi:type="star"
         style="fill:#ffffff;fill-rule:evenodd"
         id="path8907" />
      <path
         d="m 100.33333,146.66667 4.13886,-0.77244 1.27511,-4.01259 2.01361,3.69759 4.21023,-0.0273 -2.89438,3.05767 1.32696,3.99575 -3.80244,-1.80785 -3.39013,2.49677 0.54435,-4.17499 z"
         inkscape:flatsided="false"
         inkscape:rounded="0"
         sodipodi:cx="106.33333"
         sodipodi:cy="148"
         inkscape:randomized="0"
         transform="matrix(1.0487,0.089951,-0.08593,1.0977,40.737,-118.41)"
         sodipodi:arg2="-2.2946052"
         sodipodi:arg1="-2.9229237"
         sodipodi:r2="2.810354"
         sodipodi:r1="6.1463628"
         sodipodi:sides="5"
         sodipodi:type="star"
         style="fill:#ffffff;fill-rule:evenodd"
         id="path8909" />
      <path
         d="m 100.33333,146.66667 4.13886,-0.77244 1.27511,-4.01259 2.01361,3.69759 4.21023,-0.0273 -2.89438,3.05767 1.32696,3.99575 -3.80244,-1.80785 -3.39013,2.49677 0.54435,-4.17499 z"
         inkscape:flatsided="false"
         inkscape:rounded="0"
         sodipodi:cx="106.33333"
         sodipodi:cy="148"
         inkscape:randomized="0"
         transform="matrix(1.0487,0.089951,-0.08593,1.0977,14.737,-118.41)"
         sodipodi:arg2="-2.2946052"
         sodipodi:arg1="-2.9229237"
         sodipodi:r2="2.810354"
         sodipodi:r1="6.1463628"
         sodipodi:sides="5"
         sodipodi:type="star"
         style="fill:#ffffff;fill-rule:evenodd"
         id="path8911" />
      <path
         d="m 100.33333,146.66667 4.13886,-0.77244 1.27511,-4.01259 2.01361,3.69759 4.21023,-0.0273 -2.89438,3.05767 1.32696,3.99575 -3.80244,-1.80785 -3.39013,2.49677 0.54435,-4.17499 z"
         inkscape:flatsided="false"
         inkscape:rounded="0"
         sodipodi:cx="106.33333"
         sodipodi:cy="148"
         inkscape:randomized="0"
         transform="matrix(1.0487,0.089951,-0.08593,1.0977,14.737,-160.41)"
         sodipodi:arg2="-2.2946052"
         sodipodi:arg1="-2.9229237"
         sodipodi:r2="2.810354"
         sodipodi:r1="6.1463628"
         sodipodi:sides="5"
         sodipodi:type="star"
         style="fill:#ffffff;fill-rule:evenodd"
         id="path8913" />
      <path
         d="m 100.33333,146.66667 4.13886,-0.77244 1.27511,-4.01259 2.01361,3.69759 4.21023,-0.0273 -2.89438,3.05767 1.32696,3.99575 -3.80244,-1.80785 -3.39013,2.49677 0.54435,-4.17499 z"
         inkscape:flatsided="false"
         inkscape:rounded="0"
         sodipodi:cx="106.33333"
         sodipodi:cy="148"
         inkscape:randomized="0"
         transform="matrix(1.0487,0.089951,-0.08593,1.0977,14.737,-139.41)"
         sodipodi:arg2="-2.2946052"
         sodipodi:arg1="-2.9229237"
         sodipodi:r2="2.810354"
         sodipodi:r1="6.1463628"
         sodipodi:sides="5"
         sodipodi:type="star"
         style="fill:#ffffff;fill-rule:evenodd"
         id="path8915" />
      <path
         d="m 100.33333,146.66667 4.13886,-0.77244 1.27511,-4.01259 2.01361,3.69759 4.21023,-0.0273 -2.89438,3.05767 1.32696,3.99575 -3.80244,-1.80785 -3.39013,2.49677 0.54435,-4.17499 z"
         inkscape:flatsided="false"
         inkscape:rounded="0"
         sodipodi:cx="106.33333"
         sodipodi:cy="148"
         inkscape:randomized="0"
         transform="matrix(1.0487,0.089951,-0.08593,1.0977,40.737,-160.41)"
         sodipodi:arg2="-2.2946052"
         sodipodi:arg1="-2.9229237"
         sodipodi:r2="2.810354"
         sodipodi:r1="6.1463628"
         sodipodi:sides="5"
         sodipodi:type="star"
         style="fill:#ffffff;fill-rule:evenodd"
         id="path8917" />
      <path
         d="m 100.33333,146.66667 4.13886,-0.77244 1.27511,-4.01259 2.01361,3.69759 4.21023,-0.0273 -2.89438,3.05767 1.32696,3.99575 -3.80244,-1.80785 -3.39013,2.49677 0.54435,-4.17499 z"
         inkscape:flatsided="false"
         inkscape:rounded="0"
         sodipodi:cx="106.33333"
         sodipodi:cy="148"
         inkscape:randomized="0"
         transform="matrix(1.0487,0.089951,-0.08593,1.0977,27.737,-149.41)"
         sodipodi:arg2="-2.2946052"
         sodipodi:arg1="-2.9229237"
         sodipodi:r2="2.810354"
         sodipodi:r1="6.1463628"
         sodipodi:sides="5"
         sodipodi:type="star"
         style="fill:#ffffff;fill-rule:evenodd"
         id="path8919" />
      <path
         d="m 100.33333,146.66667 4.13886,-0.77244 1.27511,-4.01259 2.01361,3.69759 4.21023,-0.0273 -2.89438,3.05767 1.32696,3.99575 -3.80244,-1.80785 -3.39013,2.49677 0.54435,-4.17499 z"
         inkscape:flatsided="false"
         inkscape:rounded="0"
         sodipodi:cx="106.33333"
         sodipodi:cy="148"
         inkscape:randomized="0"
         transform="matrix(1.0487,0.089951,-0.08593,1.0977,40.737,-139.41)"
         sodipodi:arg2="-2.2946052"
         sodipodi:arg1="-2.9229237"
         sodipodi:r2="2.810354"
         sodipodi:r1="6.1463628"
         sodipodi:sides="5"
         sodipodi:type="star"
         style="fill:#ffffff;fill-rule:evenodd"
         id="path8921" />
      <path
         d="m 100.33333,146.66667 4.13886,-0.77244 1.27511,-4.01259 2.01361,3.69759 4.21023,-0.0273 -2.89438,3.05767 1.32696,3.99575 -3.80244,-1.80785 -3.39013,2.49677 0.54435,-4.17499 z"
         inkscape:flatsided="false"
         inkscape:rounded="0"
         sodipodi:cx="106.33333"
         sodipodi:cy="148"
         inkscape:randomized="0"
         transform="matrix(1.0487,0.089951,-0.08593,1.0977,27.737,-128.41)"
         sodipodi:arg2="-2.2946052"
         sodipodi:arg1="-2.9229237"
         sodipodi:r2="2.810354"
         sodipodi:r1="6.1463628"
         sodipodi:sides="5"
         sodipodi:type="star"
         style="fill:#ffffff;fill-rule:evenodd"
         id="path8923" />
      <path
         d="m -0.44933,200.45 381.03,-198.61 -0.89,199.06 z"
         inkscape:connector-curvature="0"
         style="fill:#ffffff"
         sodipodi:nodetypes="cccc"
         id="path3835"
         transform="translate(0,1.3723625e-6)" />
      <path
         d="m 220.56,200.2 -0.31953,-72.639 158.65,0.15886 0.22467,72.321 z"
         inkscape:connector-curvature="0"
         style="fill:#00247d"
         sodipodi:nodetypes="ccccc"
         id="path3839"
         transform="translate(0,1.3723625e-6)" />
      <path
         d="m 379.01,1.3952 -128.96,68.298 128.73,0 z"
         inkscape:connector-curvature="0"
         style="fill:#00247d"
         sodipodi:nodetypes="cccc"
         id="path3843"
         transform="translate(0,1.3723625e-6)" />
      <path
         d="M -1.4253e-8,200.22 141.54,126.53 l 19.771,0.22467 -0.44933,73.69 z"
         inkscape:connector-curvature="0"
         style="fill:#00247d"
         sodipodi:nodetypes="ccccc"
         id="path3845"
         transform="translate(0,1.3723625e-6)" />
      <path
         d="m 379.85,180.2 -0.41083,19.538 -33.127,2.0605 -130.02,-68.203 1.4831,-9.5152 57.668,1.5727 z"
         inkscape:connector-curvature="0"
         style="fill:#ffffff"
         sodipodi:nodetypes="ccccccc"
         id="path3847"
         transform="translate(0,1.3723625e-6)" />
      <path
         d="m 380.13,0.49656 -133.45,70.994 41.339,0.89866 91.439,-48.528 z"
         inkscape:connector-curvature="0"
         style="fill:#ffffff"
         sodipodi:nodetypes="ccccc"
         id="path3855"
         transform="translate(0,1.3723625e-6)" />
      <path
         d="m -0.44933,199.55 148.59,-76.35 15.232,0.58094 0.0545,14.497 -116.63,61.72 z"
         inkscape:connector-curvature="0"
         style="fill:#ffffff"
         sodipodi:nodetypes="cccccc"
         id="path3859"
         transform="translate(0,1.3723625e-6)" />
      <path
         d="m -0.674,199.78 146.56,-75.53 15.425,0.0545 -0.44933,7.8474 -129.42,67.85 z"
         inkscape:connector-curvature="0"
         style="fill:#cf142b"
         sodipodi:nodetypes="cccccc"
         id="path4355"
         transform="translate(0,1.3723625e-6)" />
      <path
         d="m 238.15,125.41 28.757,0.89866 112.33,60.21 -0.44933,13.031 z"
         inkscape:connector-curvature="0"
         style="fill:#cf142b"
         sodipodi:nodetypes="ccccc"
         id="path4357"
         transform="translate(0,1.3723625e-6)" />
      <path
         d="m 378.97,116.66 -218.89,-0.22466 72.581,-37.175 146.34,0.29047 z"
         inkscape:connector-curvature="0"
         style="fill:#cf142b"
         sodipodi:nodetypes="ccccc"
         id="path3058"
         transform="translate(0,1.3723625e-6)" />
      <path
         inkscape:connector-curvature="0"
         style="fill:#cf142b"
         sodipodi:nodetypes="ccccc"
         d="m 209.21,199.54 0.44934,-107.53 -37.86,19.142 0.0771,88.803 z"
         id="path3060"
         transform="translate(0,1.3723625e-6)" />
      <rect
         x="0"
         y="1"
         width="379"
         height="199"
         style="fill:none;stroke:#000000"
         id="rect8764" />
    </g>
  </g>
  <metadata
     id="metadata89">
    <rdf:RDF>
      <cc:Work>
        <dc:format>image/svg+xml</dc:format>
        <dc:type
           rdf:resource="http://purl.org/dc/dcmitype/StillImage" />
        <cc:license
           rdf:resource="http://creativecommons.org/publicdomain/zero/1.0/" />
        <dc:publisher>
          <cc:Agent
             rdf:about="http://openclipart.org/">
            <dc:title>Openclipart</dc:title>
          </cc:Agent>
        </dc:publisher>
        <dc:title>US/UK flag</dc:title>
        <dc:date>2012-02-12T12:07:18</dc:date>
        <dc:description>English language flag.</dc:description>
        <dc:source>https://openclipart.org/detail/168121/usuk-flag-by-klainen</dc:source>
        <dc:creator>
          <cc:Agent>
            <dc:title>klainen</dc:title>
          </cc:Agent>
        </dc:creator>
        <dc:subject>
          <rdf:Bag>
            <rdf:li>English</rdf:li>
            <rdf:li>English language flag</rdf:li>
            <rdf:li>UK</rdf:li>
            <rdf:li>US</rdf:li>
            <rdf:li>flag</rdf:li>
          </rdf:Bag>
        </dc:subject>
      </cc:Work>
      <cc:License
         rdf:about="http://creativecommons.org/publicdomain/zero/1.0/">
        <cc:permits
           rdf:resource="http://creativecommons.org/ns#Reproduction" />
        <cc:permits
           rdf:resource="http://creativecommons.org/ns#Distribution" />
        <cc:permits
           rdf:resource="http://creativecommons.org/ns#DerivativeWorks" />
      </cc:License>
    </rdf:RDF>
  </metadata>
</svg>
