<?xml version="1.0" encoding="UTF-8" standalone="no"?>
<!-- Created with Inkscape (http://www.inkscape.org/) -->

<svg
   xmlns:dc="http://purl.org/dc/elements/1.1/"
   xmlns:cc="http://creativecommons.org/ns#"
   xmlns:rdf="http://www.w3.org/1999/02/22-rdf-syntax-ns#"
   xmlns:svg="http://www.w3.org/2000/svg"
   xmlns="http://www.w3.org/2000/svg"
   xmlns:sodipodi="http://sodipodi.sourceforge.net/DTD/sodipodi-0.dtd"
   xmlns:inkscape="http://www.inkscape.org/namespaces/inkscape"
   width="32"
   height="32"
   id="svg4150"
   version="1.1"
   inkscape:version="0.91 r13725"
   viewBox="0 0 32 32"
   sodipodi:docname="button-zoom-in-00.svg">
  <defs
     id="defs4152" />
  <sodipodi:namedview
     id="base"
     pagecolor="#ffffff"
     bordercolor="#666666"
     borderopacity="1.0"
     inkscape:pageopacity="0.0"
     inkscape:pageshadow="2"
     inkscape:zoom="16.5"
     inkscape:cx="5.3333334"
     inkscape:cy="15.878788"
     inkscape:current-layer="layer2"
     showgrid="true"
     inkscape:grid-bbox="true"
     inkscape:document-units="px"
     objecttolerance="10000"
     inkscape:snap-perpendicular="true"
     guidetolerance="10000"
     inkscape:window-width="1440"
     inkscape:window-height="781"
     inkscape:window-x="0"
     inkscape:window-y="270"
     inkscape:window-maximized="1"
     showguides="false"
     inkscape:guide-bbox="true">
    <inkscape:grid
       type="xygrid"
       id="grid4698"
       empspacing="4" />
    <sodipodi:guide
       position="16,32"
       orientation="1,0"
       id="guide4769" />
    <sodipodi:guide
       position="-4,16"
       orientation="0,1"
       id="guide4771" />
    <sodipodi:guide
       position="16,16"
       orientation="-0.70710678,0.70710678"
       id="guide4773" />
    <sodipodi:guide
       position="16,16"
       orientation="0.70710678,0.70710678"
       id="guide4775" />
  </sodipodi:namedview>
  <metadata
     id="metadata4155">
    <rdf:RDF>
      <cc:Work
         rdf:about="">
        <dc:format>image/svg+xml</dc:format>
        <dc:type
           rdf:resource="http://purl.org/dc/dcmitype/StillImage" />
        <dc:title />
      </cc:Work>
    </rdf:RDF>
  </metadata>
  <g
     inkscape:groupmode="layer"
     id="layer2"
     inkscape:label="symbol">
    <rect
       style="fill:none;stroke:none"
       id="rect6861"
       width="32"
       height="32"
       x="0"
       y="0" />
    <g
       id="g4187">
      <path
         sodipodi:nodetypes="cccccccsscccccccccc"
         inkscape:connector-curvature="0"
         id="rect6619"
         d="M 7.09375,22.09375 6.375,22.78125 5.40625,23.75 3.875,23.25 3.28125,23.03125 2.84375,23.46875 1,25.3125 1,28 c 0,1.662 1.338,3 3,3 l 2.6875,0 1.84375,-1.84375 0.4375,-0.4375 L 8.75,28.125 8.25,26.59375 9.21875,25.625 9.90625,24.90625 9.21875,24.1875 7.8125,22.78125 Z"
         style="color:#000000;font-style:normal;font-variant:normal;font-weight:normal;font-stretch:normal;font-size:medium;line-height:normal;font-family:Sans;-inkscape-font-specification:Sans;text-indent:0;text-align:start;text-decoration:none;text-decoration-line:none;letter-spacing:normal;word-spacing:normal;text-transform:none;direction:ltr;block-progression:tb;writing-mode:lr-tb;baseline-shift:baseline;text-anchor:start;display:inline;overflow:visible;visibility:visible;fill:#000000;fill-opacity:1;fill-rule:nonzero;stroke:none;stroke-width:2;marker:none;enable-background:accumulate" />
      <rect
         transform="matrix(0.70710678,0.70710678,-0.70710678,0.70710678,0,0)"
         y="11.585787"
         x="21.627415"
         height="2"
         width="2"
         id="rect6573"
         style="fill:#cccccc;fill-opacity:1;stroke:none" />
      <path
         inkscape:connector-curvature="0"
         id="path6575"
         d="m 5.686291,24.899495 -2.12132,-0.707107 4.24264,4.242641 -0.707106,-2.121321 z"
         style="fill:#cccccc;fill-opacity:1;stroke:none" />
      <path
         sodipodi:nodetypes="ccssccc"
         inkscape:connector-curvature="0"
         id="rect6577"
         d="M 3.5625,24.1875 1,26.75 1,28 c 0,1.662 1.338,3 3,3 l 1.25,0 2.5625,-2.5625 z"
         style="fill:#4d4d4d;fill-opacity:1;stroke:none" />
      <path
         inkscape:connector-curvature="0"
         id="path6054"
         d="m 18.34375,7.3125 -1.03125,3.84375 c 1.702955,0.466753 3.064497,1.828295 3.53125,3.53125 L 24.6875,13.65625 C 23.855296,10.550422 21.449578,8.1447043 18.34375,7.3125 Z"
         style="fill:#ffffff;fill-opacity:0.50196078;stroke:none" />
      <path
         sodipodi:nodetypes="ccccccccccccc"
         inkscape:connector-curvature="0"
         id="path6843"
         d="m 15,8 c 0,0 -0.713918,2.552476 -0.9375,6.0625 C 10.552476,14.286082 8,15 8,15 l 0,2 c 0,0 2.552476,0.713918 6.0625,0.9375 C 14.286082,21.447524 15,24 15,24 l 2,0 c 0,0 0.713918,-2.552476 0.9375,-6.0625 C 21.447524,17.713918 24,17 24,17 l 0,-2 C 24,15 21.447524,14.286082 17.9375,14.0625 17.713918,10.552476 17,8 17,8 Z"
         style="fill:#d40000;fill-opacity:1;stroke:none" />
      <path
         inkscape:connector-curvature="0"
         id="path6052"
         d="M 16,4 C 9.372583,4 4,9.372583 4,16 4,22.627417 9.372583,28 16,28 22.627417,28 28,22.627417 28,16 28,9.372583 22.627417,4 16,4 Z m 2.34375,3.3125 c 3.105828,0.8322043 5.511546,3.237922 6.34375,6.34375 L 20.84375,14.6875 C 20.376997,12.984545 19.015455,11.623003 17.3125,11.15625 L 18.34375,7.3125 Z"
         style="fill:#0000ff;fill-opacity:0.18823529;stroke:none" />
      <path
         inkscape:connector-curvature="0"
         id="path5626"
         d="M 16,4 C 9.372583,4 4,9.372583 4,16 4,22.627417 9.372583,28 16,28 22.627417,28 28,22.627417 28,16 28,9.372583 22.627417,4 16,4 Z m 0,2 c 5.522847,0 10,4.477153 10,10 0,5.522847 -4.477153,10 -10,10 C 10.477153,26 6,21.522847 6,16 6,10.477153 10.477153,6 16,6 Z"
         style="fill:#000000;fill-opacity:1;stroke:none" />
      <path
         inkscape:connector-curvature="0"
         id="path4184"
         d="m 2,25.75 -1,1 0,1.25 c 0,1.662 1.338,3 3,3 l 1.25,0 1,-1 L 4,30 C 2.892,30 2,29.108 2,28 l 0,-2.25 z"
         style="fill:#000000;fill-opacity:0.37647059;stroke:none" />
    </g>
  </g>
</svg>
