<?xml version="1.0" encoding="UTF-8" standalone="no"?>
<!-- Created with Inkscape (http://www.inkscape.org/) -->

<svg
   xmlns:dc="http://purl.org/dc/elements/1.1/"
   xmlns:cc="http://creativecommons.org/ns#"
   xmlns:rdf="http://www.w3.org/1999/02/22-rdf-syntax-ns#"
   xmlns:svg="http://www.w3.org/2000/svg"
   xmlns="http://www.w3.org/2000/svg"
   xmlns:xlink="http://www.w3.org/1999/xlink"
   xmlns:sodipodi="http://sodipodi.sourceforge.net/DTD/sodipodi-0.dtd"
   xmlns:inkscape="http://www.inkscape.org/namespaces/inkscape"
   width="32px"
   height="32px"
   id="svg3505"
   sodipodi:version="0.32"
   inkscape:version="0.91 r13725"
   sodipodi:docname="symbol-www-00.svg"
   inkscape:output_extension="org.inkscape.output.svg.inkscape"
   version="1.1">
  <defs
     id="defs3507">
    <inkscape:perspective
       sodipodi:type="inkscape:persp3d"
       inkscape:vp_x="0 : 16 : 1"
       inkscape:vp_y="0 : 1000 : 0"
       inkscape:vp_z="32 : 16 : 1"
       inkscape:persp3d-origin="16 : 10.666667 : 1"
       id="perspective3513" />
    <inkscape:perspective
       id="perspective4690"
       inkscape:persp3d-origin="372.04724 : 350.78739 : 1"
       inkscape:vp_z="744.09448 : 526.18109 : 1"
       inkscape:vp_y="0 : 1000 : 0"
       inkscape:vp_x="0 : 526.18109 : 1"
       sodipodi:type="inkscape:persp3d" />
    <radialGradient
       id="radialGradient3968"
       gradientUnits="userSpaceOnUse"
       cy="15.716"
       cx="18.247999"
       gradientTransform="scale(0.99999,1)"
       r="29.993"
       inkscape:collect="always">
      <stop
         id="stop3964"
         style="stop-color:#d3e9ff"
         offset="0" />
      <stop
         id="stop4134"
         style="stop-color:#d3e9ff"
         offset=".15517" />
      <stop
         id="stop4346"
         style="stop-color:#4074ae"
         offset=".75" />
      <stop
         id="stop3966"
         style="stop-color:#36486c"
         offset="1" />
    </radialGradient>
    <radialGradient
       id="radialGradient4132"
       gradientUnits="userSpaceOnUse"
       cy="12.142"
       cx="15.601"
       gradientTransform="scale(0.99999,1)"
       r="43.527"
       inkscape:collect="always">
      <stop
         id="stop4128"
         style="stop-color:#ffffff"
         offset="0" />
      <stop
         id="stop4130"
         style="stop-color:#ffffff;stop-opacity:.16495"
         offset="1" />
    </radialGradient>
    <linearGradient
       id="linearGradient6007"
       y2="21.042"
       xlink:href="#linearGradient6001"
       gradientUnits="userSpaceOnUse"
       x2="-22.252001"
       y1="30.056999"
       x1="-25.176001"
       inkscape:collect="always" />
    <linearGradient
       id="linearGradient6001"
       inkscape:collect="always">
      <stop
         id="stop6003"
         style="stop-color:#ffffff"
         offset="0" />
      <stop
         id="stop6005"
         style="stop-color:#ffffff;stop-opacity:0"
         offset="1" />
    </linearGradient>
    <linearGradient
       id="linearGradient6011"
       y2="22.662001"
       xlink:href="#linearGradient6001"
       gradientUnits="userSpaceOnUse"
       x2="-22.114"
       y1="30.056999"
       x1="-25.176001"
       inkscape:collect="always" />
    <radialGradient
       id="radialGradient5983"
       xlink:href="#linearGradient6001"
       gradientUnits="userSpaceOnUse"
       cy="12.493"
       cx="12.071"
       r="6.7175002"
       inkscape:collect="always" />
    <linearGradient
       id="linearGradient6015"
       y2="22.662001"
       xlink:href="#linearGradient6001"
       gradientUnits="userSpaceOnUse"
       x2="-22.114"
       y1="28.337999"
       x1="-22.823"
       inkscape:collect="always" />
    <linearGradient
       id="linearGradient6019"
       y2="21.336"
       xlink:href="#linearGradient6001"
       gradientUnits="userSpaceOnUse"
       x2="-21.962"
       y1="15.649"
       x1="-21.659"
       inkscape:collect="always" />
    <radialGradient
       id="radialGradient4314"
       xlink:href="#linearGradient6001"
       gradientUnits="userSpaceOnUse"
       cy="12.493"
       cx="12.071"
       r="6.7175002"
       inkscape:collect="always" />
    <radialGradient
       id="radialGradient4322"
       xlink:href="#linearGradient6001"
       gradientUnits="userSpaceOnUse"
       cy="12.493"
       cx="12.071"
       r="6.7175002"
       inkscape:collect="always" />
    <radialGradient
       id="radialGradient4330"
       xlink:href="#linearGradient6001"
       gradientUnits="userSpaceOnUse"
       cy="12.493"
       cx="12.071"
       r="6.7175002"
       inkscape:collect="always" />
    <radialGradient
       r="6.7175002"
       cy="12.493"
       cx="12.071"
       gradientUnits="userSpaceOnUse"
       id="radialGradient4394"
       xlink:href="#linearGradient6001"
       inkscape:collect="always" />
    <radialGradient
       r="6.7175002"
       cy="12.493"
       cx="12.071"
       gradientUnits="userSpaceOnUse"
       id="radialGradient4396"
       xlink:href="#linearGradient6001"
       inkscape:collect="always" />
    <radialGradient
       r="6.7175002"
       cy="12.493"
       cx="12.071"
       gradientUnits="userSpaceOnUse"
       id="radialGradient4398"
       xlink:href="#linearGradient6001"
       inkscape:collect="always" />
  </defs>
  <sodipodi:namedview
     id="base"
     pagecolor="#ffffff"
     bordercolor="#666666"
     borderopacity="1.0"
     inkscape:pageopacity="0.0"
     inkscape:pageshadow="2"
     inkscape:zoom="16.375"
     inkscape:cx="25.629831"
     inkscape:cy="25.167075"
     inkscape:current-layer="g5380"
     showgrid="true"
     inkscape:grid-bbox="true"
     inkscape:document-units="px"
     objecttolerance="10000"
     gridtolerance="10000"
     guidetolerance="10000"
     inkscape:window-width="1920"
     inkscape:window-height="1021"
     inkscape:window-x="1440"
     inkscape:window-y="30"
     inkscape:object-paths="true"
     inkscape:object-nodes="true"
     inkscape:snap-bbox="true"
     inkscape:snap-guide="true"
     inkscape:window-maximized="1"
     showguides="false">
    <inkscape:grid
       type="xygrid"
       id="grid3515"
       units="px"
       visible="true"
       enabled="true"
       spacingx="1px"
       spacingy="1px"
       empspacing="4"
       snapvisiblegridlinesonly="true" />
  </sodipodi:namedview>
  <metadata
     id="metadata3510">
    <rdf:RDF>
      <cc:Work
         rdf:about="">
        <dc:format>image/svg+xml</dc:format>
        <dc:type
           rdf:resource="http://purl.org/dc/dcmitype/StillImage" />
        <dc:title />
        <dc:date>2010-04-26</dc:date>
        <dc:creator>
          <cc:Agent>
            <dc:title>Andreas Neudecker &lt;zapyon@gmx.net&gt;</dc:title>
          </cc:Agent>
        </dc:creator>
        <dc:rights>
          <cc:Agent>
            <dc:title>Copyright (C) 2010 by Andreas Neudecker</dc:title>
          </cc:Agent>
        </dc:rights>
        <dc:publisher>
          <cc:Agent>
            <dc:title>Andreas Neudecker</dc:title>
          </cc:Agent>
        </dc:publisher>
        <dc:identifier>vorlage-32x32-mcminos</dc:identifier>
        <dc:description>Vorlage für 32x32-Pixel-Icons für McMinos. Metadaten jeweils entsprechend anpassen!</dc:description>
      </cc:Work>
    </rdf:RDF>
  </metadata>
  <g
     id="layer1"
     inkscape:label="Layer 1"
     inkscape:groupmode="layer">
    <g
       id="g5380">
      <g
         id="g4149"
         transform="translate(-0.125,0)">
        <rect
           style="opacity:1;fill:none;fill-opacity:1;fill-rule:nonzero;stroke:none;stroke-width:2;stroke-linecap:butt;stroke-linejoin:miter;stroke-miterlimit:4;stroke-dasharray:none;stroke-dashoffset:0;stroke-opacity:1"
           id="rect5378"
           width="30"
           height="30"
           x="1.125"
           y="1" />
        <circle
           r="14.062501"
           cy="16.000002"
           cx="16.125006"
           style="fill:#000000;fill-opacity:1;fill-rule:nonzero;stroke:none;stroke-width:1;stroke-linecap:butt;stroke-linejoin:miter;stroke-miterlimit:4;stroke-dasharray:none;stroke-dashoffset:0;stroke-opacity:1"
           id="path4818" />
        <circle
           r="13.125"
           cy="15.999996"
           cx="16.124996"
           style="fill:#ff0000;fill-opacity:1;fill-rule:nonzero;stroke:none;stroke-width:0.1;stroke-linecap:round;stroke-linejoin:round;stroke-miterlimit:4;stroke-dasharray:none;stroke-dashoffset:0;stroke-opacity:1"
           id="path3403" />
        <path
           sodipodi:type="arc"
           style="fill:#e1fff9;fill-opacity:1;fill-rule:nonzero;stroke:none;stroke-width:1;stroke-linecap:butt;stroke-linejoin:miter;stroke-miterlimit:4;stroke-dasharray:none;stroke-dashoffset:0;stroke-opacity:1"
           id="path3429"
           sodipodi:cx="16.124996"
           sodipodi:cy="16.000008"
           sodipodi:rx="12.187499"
           sodipodi:ry="12.187493"
           d="m 28.312495,16.000008 a 12.187499,12.187493 0 0 1 -6.093749,10.554679 12.187499,12.187493 0 0 1 -12.1875,-1e-6 12.187499,12.187493 0 0 1 -6.0937489,-10.554679"
           sodipodi:start="0"
           sodipodi:end="3.1415927"
           sodipodi:open="true" />
        <circle
           r="3.75"
           cy="10.374995"
           cx="9.5624971"
           style="fill:#ffffff;fill-opacity:1;fill-rule:nonzero;stroke:none;stroke-width:0.1;stroke-linecap:round;stroke-linejoin:round;stroke-miterlimit:4;stroke-dasharray:none;stroke-dashoffset:0;stroke-opacity:1"
           id="path3407" />
        <circle
           r="3.75"
           cy="10.374995"
           cx="22.687498"
           id="path3425"
           style="fill:#ffffff;fill-opacity:1;fill-rule:nonzero;stroke:none;stroke-width:0.1;stroke-linecap:round;stroke-linejoin:round;stroke-miterlimit:4;stroke-dasharray:none;stroke-dashoffset:0;stroke-opacity:1" />
        <circle
           r="1.875"
           cy="10.375"
           cx="9.5625"
           style="fill:#000000;fill-opacity:1;fill-rule:nonzero;stroke:none;stroke-width:0.1;stroke-linecap:round;stroke-linejoin:round;stroke-miterlimit:4;stroke-dasharray:none;stroke-dashoffset:0;stroke-opacity:1"
           id="path3409" />
        <circle
           r="1.875"
           cy="10.375"
           cx="22.6875"
           id="path3427"
           style="fill:#000000;fill-opacity:1;fill-rule:nonzero;stroke:none;stroke-width:0.1;stroke-linecap:round;stroke-linejoin:round;stroke-miterlimit:4;stroke-dasharray:none;stroke-dashoffset:0;stroke-opacity:1" />
        <path
           sodipodi:end="6.2831853"
           sodipodi:start="3.1415927"
           sodipodi:ry="1.2621254e-06"
           sodipodi:rx="13.125002"
           sodipodi:cy="15.999996"
           sodipodi:cx="16.125"
           id="path3443"
           style="fill:#ffffff;fill-opacity:1;fill-rule:nonzero;stroke:none;stroke-width:1;stroke-linecap:butt;stroke-linejoin:miter;stroke-miterlimit:4;stroke-dasharray:none;stroke-dashoffset:0;stroke-opacity:1"
           sodipodi:type="arc"
           sodipodi:open="true" />
        <path
           inkscape:connector-curvature="0"
           id="rect3904"
           d="m 3.9375,16 c 0,1.649908 0.3433855,3.223039 0.9375,4.658203 L 4.875,16 3.9375,16 Z m 5.625,0 0,10.253906 c 0.594418,0.380919 1.216058,0.721556 1.875,0.996094 l 0,-11.25 -1.875,0 z m 6.5625,0 0,12.1875 c 0.636052,0 1.265238,-0.05257 1.875,-0.146484 L 18,16 16.125,16 Z m 6.5625,0 0,10.253906 c 0.672006,-0.430638 1.301751,-0.914531 1.875,-1.464844 l 0,-8.789062 -1.875,0 z"
           style="fill:#81e6ff;fill-opacity:0.25098039;stroke:none" />
        <path
           inkscape:connector-curvature="0"
           id="rect3912"
           d="m 7.6875,16 0,8.789062 c 0.5732494,0.550313 1.2029944,1.034206 1.875,1.464844 L 9.5625,16 7.6875,16 Z m 6.5625,0 0,12.041016 c 0.609762,0.09392 1.238948,0.146484 1.875,0.146484 L 16.125,16 14.25,16 Z m 6.5625,0 0,11.25 c 0.658942,-0.274538 1.280582,-0.615175 1.875,-0.996094 l 0,-10.253906 -1.875,0 z m 6.5625,0 0,4.658203 C 27.969114,19.223039 28.3125,17.649908 28.3125,16 l -0.9375,0 z"
           style="fill:#ffffff;fill-opacity:1;stroke:none" />
        <path
           d="m 22.687494,25.375009 -0.265165,-5.35984 -5.359839,-0.265166 5.359839,-0.265164 0.265166,-5.35984 0.265165,5.35984 5.359839,0.265165 -5.359839,0.265165 z"
           inkscape:randomized="0"
           inkscape:rounded="0"
           inkscape:flatsided="false"
           sodipodi:arg2="2.3561946"
           sodipodi:arg1="1.5707964"
           sodipodi:r2="0.3750003"
           sodipodi:r1="5.6250048"
           sodipodi:cy="19.750004"
           sodipodi:cx="22.687494"
           sodipodi:sides="4"
           id="path3963"
           style="fill:#00ffff;fill-opacity:1;stroke:none"
           sodipodi:type="star" />
      </g>
      <g
         transform="matrix(0.70453422,0,0,0.70453422,-1.1175947,-0.88827079)"
         id="g4209"
         style="opacity:0.758">
        <path
           inkscape:connector-curvature="0"
           d="m 43.96,23.485 c 0,10.71 -8.682,19.392 -19.39,19.392 -10.71,0 -19.391,-8.682 -19.391,-19.392 -3e-4,-10.709 8.681,-19.39 19.391,-19.39 10.708,2e-4 19.39,8.681 19.39,19.39 z"
           style="fill:url(#radialGradient3968);stroke:#39396c"
           id="path3214" />
        <g
           transform="matrix(0.98237,0,0,0.98237,0.12108,0.23291)"
           style="fill:#204a87;fill-opacity:0.71344999"
           id="g4136">
          <g
             style="fill:#204a87"
             id="g4138">
            <g
               style="fill:#204a87"
               id="g4142">
              <path
                 inkscape:connector-curvature="0"
                 d="m 44.071,20.714 0,0 -0.545,0.618 c -0.334,-0.394 -0.709,-0.725 -1.089,-1.071 l -0.836,0.123 -0.764,-0.863 0,1.068 0.654,0.495 0.436,0.494 0.582,-0.658 c 0.146,0.274 0.291,0.548 0.436,0.823 l 0,0.822 -0.655,0.74 -1.199,0.823 -0.908,0.907 -0.582,-0.661 0.291,-0.74 -0.582,-0.658 -0.981,-2.098 -0.836,-0.945 -0.219,0.246 0.328,1.194 0.618,0.699 c 0.352,1.017 0.701,1.99 1.164,2.963 0.718,0 1.394,-0.077 2.107,-0.166 l 0,0.576 -0.872,2.139 -0.8,0.904 -0.654,1.401 0,2.303 0.219,0.906 -0.364,0.41 -0.8,0.494 -0.836,0.699 0.691,0.782 -0.945,0.824 0.182,0.533 -1.418,1.606 -0.945,0 -0.8,0.494 -0.509,0 0,-0.659 -0.217,-1.318 c -0.281,-0.826 -0.574,-1.647 -0.872,-2.467 0,-0.605 0.036,-1.205 0.072,-1.81 l 0.364,-0.823 -0.509,-0.988 0.037,-1.357 -0.692,-0.782 0.346,-1.13 -0.563,-0.639 -0.982,0 -0.327,-0.37 -0.981,0.618 -0.4,-0.454 -0.909,0.782 c -0.617,-0.7 -1.235,-1.399 -1.854,-2.098 l -0.726,-1.729 0.654,-0.986 -0.363,-0.411 0.799,-1.894 c 0.656,-0.816 1.341,-1.599 2.035,-2.385 l 1.236,-0.329 1.381,-0.165 0.945,0.248 1.345,1.356 0.473,-0.534 0.653,-0.082 1.236,0.411 0.946,0 0.654,-0.576 0.291,-0.411 -0.655,-0.412 -1.091,-0.082 C 35.663,17.045 35.382,16.603 35.022,16.23 l -0.364,0.164 -0.145,1.07 -0.655,-0.74 -0.144,-0.824 -0.727,-0.574 -0.292,0 0.728,0.822 -0.291,0.74 -0.581,0.164 0.363,-0.74 -0.655,-0.328 -0.581,-0.658 -1.091,0.246 -0.145,0.328 -0.654,0.412 -0.363,0.906 -0.909,0.452 -0.4,-0.452 -0.436,0 0,-1.482 0.946,-0.494 0.726,0 -0.146,-0.575 -0.58,-0.576 0.98,-0.206 0.545,-0.617 0.436,-0.741 0.801,0 -0.219,-0.575 0.509,-0.329 0,0.658 1.09,0.246 1.09,-0.904 0.073,-0.412 0.945,-0.658 c -0.342,0.043 -0.684,0.074 -1.018,0.165 l 0,-0.7414 0.363,-0.8228 -0.363,0 -0.798,0.7402 -0.219,0.412 0.219,0.576 -0.365,0.987 -0.581,-0.329 -0.508,-0.576 -0.8,0.576 -0.291,-1.316 1.381,-0.9052 0,-0.4941 0.872,-0.5757 1.381,-0.3296 0.946,0.3296 1.744,0.3291 -0.436,0.4932 -0.945,0 0.945,0.9877 0.727,-0.8227 0.221,-0.3618 c 0,0 2.787,2.4975 4.379,5.2305 1.593,2.733 2.341,5.955 2.341,6.609 z"
                 style="fill:#204a87"
                 id="path4144" />
            </g>
          </g>
          <g
             style="fill:#204a87"
             id="g4146">
            <g
               style="fill:#204a87"
               id="g4150">
              <path
                 inkscape:connector-curvature="0"
                 d="M 26.07,9.2363 25.997,9.7295 26.507,10.059 27.378,9.4829 26.942,8.9892 26.36,9.3188 26.07,9.2363"
                 style="fill:#204a87"
                 id="path4152" />
            </g>
          </g>
          <g
             style="fill:#204a87"
             id="g4154">
            <g
               style="fill:#204a87"
               id="g4158">
              <path
                 inkscape:connector-curvature="0"
                 d="m 26.87,5.8633 -1.89,-0.7407 -2.18,0.2466 -2.691,0.7402 -0.508,0.4941 1.671,1.1514 0,0.6582 -0.654,0.6582 0.873,1.7287 0.58,-0.33 L 22.8,9.3188 C 23.923,8.9716 24.93,8.5781 25.997,8.0844 L 26.87,5.8632"
                 style="fill:#204a87"
                 id="path4160" />
            </g>
          </g>
          <g
             style="fill:#204a87"
             id="g4162">
            <g
               style="fill:#204a87"
               id="g4166">
              <path
                 inkscape:connector-curvature="0"
                 d="m 28.833,12.775 -0.291,-0.741 -0.51,0.165 0.147,0.904 0.654,-0.328"
                 style="fill:#204a87"
                 id="path4168" />
            </g>
          </g>
          <g
             style="fill:#204a87"
             id="g4170">
            <g
               style="fill:#204a87"
               id="g4174">
              <path
                 inkscape:connector-curvature="0"
                 d="m 29.123,12.609 -0.145,0.988 0.799,-0.165 0.581,-0.575 -0.508,-0.494 c -0.171,-0.455 -0.368,-0.88 -0.582,-1.317 l -0.435,0 0,0.494 0.29,0.329 0,0.74"
                 style="fill:#204a87"
                 id="path4176" />
            </g>
          </g>
          <g
             style="fill:#204a87"
             id="g4178">
            <g
               style="fill:#204a87"
               id="g4182">
              <path
                 inkscape:connector-curvature="0"
                 d="m 18.365,28.242 -0.582,-1.152 -1.09,-0.247 -0.582,-1.562 -1.453,0.164 -1.236,-0.904 -1.309,1.151 0,0.182 c -0.396,-0.115 -0.883,-0.13 -1.235,-0.347 l -0.291,-0.822 0,-0.906 -0.8722,0.082 c 0.0728,-0.576 0.145,-1.151 0.2183,-1.727 l -0.5093,0 -0.5083,0.658 -0.5093,0.246 -0.7271,-0.41 -0.0728,-0.905 0.1455,-0.988 1.0908,-0.822 0.8721,0 0.145,-0.494 1.0903,0.246 0.8,0.988 0.145,-1.646 1.382,-1.152 0.508,-1.234 1.018,-0.411 0.581,-0.822 1.309,-0.248 0.654,-0.987 -1.963,0 1.236,-0.576 0.872,0 1.236,-0.412 0.146,-0.492 -0.437,-0.412 -0.509,-0.165 0.146,-0.494 -0.363,-0.74 -0.873,0.328 0.146,-0.657 -1.018,-0.5765 -0.799,1.3975 0.072,0.494 -0.799,0.331 -0.51,1.069 -0.218,-0.987 -1.381,-0.577 -0.218,-0.74 1.817,-1.0701 0.8,-0.7402 0.073,-0.9048 -0.436,-0.2471 -0.582,-0.0825 -0.363,0.9053 c 0,0 -0.608,0.1191 -0.764,0.1577 -1.996,1.8397 -6.0294,5.8097 -6.9664,13.306 0.0371,0.174 0.6792,1.182 0.6792,1.182 l 1.5264,0.904 1.5264,0.412 0.6544,0.824 1.018,0.74 0.581,-0.082 0.436,0.196 0,0.133 -0.581,1.563 -0.437,0.658 0.146,0.33 -0.363,1.233 1.308,2.386 1.308,1.153 0.582,0.822 -0.073,1.728 0.437,0.987 -0.437,1.892 c 0,0 -0.034,-0.011 0.022,0.178 0.056,0.19 2.329,1.451 2.473,1.344 0.144,-0.109 0.267,-0.205 0.267,-0.205 l -0.145,-0.41 0.581,-0.577 0.219,-0.576 0.945,-0.33 0.727,-1.81 -0.218,-0.493 0.508,-0.74 1.09,-0.248 0.582,-1.316 -0.145,-1.645 0.872,-1.234 0.145,-1.235 c -1.193,-0.591 -2.376,-1.201 -3.561,-1.81"
                 style="fill:#204a87"
                 id="path4184" />
            </g>
          </g>
          <g
             style="fill:#204a87"
             id="g4186">
            <g
               style="fill:#204a87"
               id="g4190">
              <path
                 inkscape:connector-curvature="0"
                 d="m 16.766,9.5649 0.726,0.4941 0.582,0 0,-0.5761 -0.726,-0.3291 -0.582,0.4111"
                 style="fill:#204a87"
                 id="path4192" />
            </g>
          </g>
          <g
             style="fill:#204a87"
             id="g4194">
            <g
               style="fill:#204a87"
               id="g4198">
              <path
                 inkscape:connector-curvature="0"
                 d="m 14.876,8.9072 -0.364,0.9048 0.727,0 0.364,-0.8228 C 15.917,8.7675 16.229,8.5444 16.548,8.331 l 0.727,0.2471 c 0.484,0.3291 0.969,0.6582 1.454,0.9868 L 19.456,8.9072 18.656,8.5781 18.292,7.8374 16.911,7.6728 16.838,7.2612 16.184,7.4262 15.894,8.002 15.53,7.2613 l -0.145,0.3291 0.073,0.8228 -0.582,0.494"
                 style="fill:#204a87"
                 id="path4200" />
            </g>
          </g>
          <g
             style="fill:#204a87"
             id="g4202">
            <g
               style="opacity:0.75;fill:#204a87"
               id="g4204" />
            <g
               style="fill:#204a87"
               id="g4208" />
          </g>
          <g
             style="fill:#204a87"
             id="g4212">
            <g
               style="opacity:0.75;fill:#204a87"
               id="g4214" />
            <g
               style="fill:#204a87"
               id="g4218" />
          </g>
          <g
             style="fill:#204a87"
             id="g4222">
            <g
               style="fill:#204a87"
               id="g4226">
              <path
                 inkscape:connector-curvature="0"
                 d="M 17.492,6.8496 17.856,6.521 18.583,6.3564 C 19.081,6.1142 19.581,5.9511 20.11,5.7802 l -0.29,-0.4937 -0.939,0.1348 -0.443,0.4419 -0.731,0.106 -0.65,0.3052 -0.316,0.1528 -0.193,0.2583 0.944,0.1641"
                 style="fill:#204a87"
                 id="path4228" />
            </g>
          </g>
          <g
             style="fill:#204a87"
             id="g4230">
            <g
               style="fill:#204a87"
               id="g4234">
              <path
                 inkscape:connector-curvature="0"
                 d="m 18.728,14.666 0.437,-0.658 -0.655,-0.493 0.218,1.151"
                 style="fill:#204a87"
                 id="path4236" />
            </g>
          </g>
        </g>
        <path
           inkscape:connector-curvature="0"
           d="m 42.975,23.486 c 0,10.165 -8.241,18.406 -18.406,18.406 C 14.404,41.892 6.163,33.651 6.163,23.486 6.1634,13.32 14.404,5.08 24.569,5.08 34.734,5.0799 42.975,13.32 42.975,23.486 Z"
           style="opacity:0.39560002;fill:none;stroke:url(#radialGradient4132)"
           id="path4122" />
        <ellipse
           ry="9.4575529"
           rx="15.733126"
           cy="21.041553"
           cx="-18.561554"
           inkscape:r_cx="true"
           inkscape:r_cy="true"
           transform="matrix(1.131,0.6131,-0.47656,0.87914,54.091,16.044)"
           style="color:#000000;fill:none;stroke:url(#linearGradient6007);stroke-width:0.88164002;stroke-linecap:round;stroke-linejoin:round"
           id="path5991" />
        <ellipse
           ry="9.4575529"
           rx="15.733126"
           cy="21.041553"
           cx="-18.561554"
           inkscape:r_cx="true"
           transform="matrix(0.93933,-0.87909,0.68331,0.73013,32.314,-4.4516)"
           inkscape:r_cy="true"
           style="color:#000000;fill:none;stroke:url(#linearGradient6011);stroke-width:0.88164002;stroke-linecap:round;stroke-linejoin:round"
           id="path6009" />
        <g
           transform="matrix(-1.0458,0.76725,0.76725,1.0458,35.617,-22.144)"
           inkscape:r_cx="true"
           inkscape:r_cy="true"
           id="g4933"
           style="">
          <circle
             r="6.7175145"
             cy="12.493138"
             cx="12.071323"
             inkscape:r_cx="true"
             transform="translate(14.95,22.93)"
             inkscape:r_cy="true"
             style="color:#000000;fill:url(#radialGradient4394);fill-rule:evenodd"
             id="path4935" />
          <circle
             r="6.7175145"
             cy="12.493138"
             cx="12.071323"
             inkscape:r_cx="true"
             inkscape:r_cy="true"
             transform="matrix(0.30827,0,0,0.30827,23.3,31.572)"
             style="color:#000000;fill:#ffffff;fill-rule:evenodd"
             id="path4937" />
        </g>
        <ellipse
           ry="9.4575529"
           rx="15.733126"
           cy="21.041553"
           cx="-18.561554"
           inkscape:r_cx="true"
           inkscape:r_cy="true"
           transform="matrix(-1.2803,-0.12616,0.098062,-0.99518,-2.4051,40.524)"
           style="color:#000000;fill:none;stroke:url(#linearGradient6015);stroke-width:0.88164002;stroke-linecap:round;stroke-linejoin:round"
           id="path6013" />
        <ellipse
           ry="9.4575529"
           rx="15.733126"
           cy="21.041553"
           cx="-18.561554"
           inkscape:r_cx="true"
           inkscape:r_cy="true"
           transform="matrix(0.91787,-0.85898,0.6677,0.71343,27.633,-6.9091)"
           style="color:#000000;fill:none;stroke:url(#linearGradient6019);stroke-width:0.90226001;stroke-linecap:round;stroke-linejoin:round"
           id="path6017" />
        <g
           transform="matrix(-0.80628,0.59154,0.59154,0.80628,12.386,-18.029)"
           inkscape:r_cy="true"
           inkscape:r_cx="true"
           id="g5075"
           style="">
          <circle
             r="6.7175145"
             cy="12.493138"
             cx="12.071323"
             inkscape:r_cx="true"
             transform="translate(14.95,22.93)"
             inkscape:r_cy="true"
             style="color:#000000;fill:url(#radialGradient4396);fill-rule:evenodd"
             id="path5077" />
          <circle
             r="6.7175145"
             cy="12.493138"
             cx="12.071323"
             inkscape:r_cx="true"
             inkscape:r_cy="true"
             transform="matrix(0.30827,0,0,0.30827,23.3,31.572)"
             style="color:#000000;fill:#ffffff;fill-rule:evenodd"
             id="path5079" />
        </g>
        <g
           transform="matrix(-0.80628,0.59154,0.59154,0.80628,13.499,-31.5)"
           inkscape:r_cx="true"
           inkscape:r_cy="true"
           id="g4945"
           style="">
          <circle
             r="6.7175145"
             cy="12.493138"
             cx="12.071323"
             inkscape:r_cx="true"
             inkscape:r_cy="true"
             transform="translate(14.95,22.93)"
             style="color:#000000;fill:url(#radialGradient4398);fill-rule:evenodd"
             id="path4947" />
          <circle
             r="6.7175145"
             cy="12.493138"
             cx="12.071323"
             inkscape:r_cx="true"
             transform="matrix(0.30827,0,0,0.30827,23.3,31.572)"
             inkscape:r_cy="true"
             style="color:#000000;fill:#ffffff;fill-rule:evenodd"
             id="path4949" />
        </g>
        <g
           transform="matrix(-0.87023,0.63857,0.63846,0.87038,25.205,-35.313)"
           inkscape:r_cy="true"
           inkscape:r_cx="true"
           id="g4939"
           style="">
          <circle
             r="6.7175145"
             cy="12.493138"
             cx="12.071323"
             inkscape:r_cx="true"
             inkscape:r_cy="true"
             transform="translate(14.95,22.93)"
             style="color:#000000;fill:url(#radialGradient5983);fill-rule:evenodd"
             id="path4941" />
          <circle
             r="6.7175145"
             cy="12.493138"
             cx="12.071323"
             inkscape:r_cx="true"
             transform="matrix(0.30827,0,0,0.30827,23.3,31.572)"
             inkscape:r_cy="true"
             style="color:#000000;fill:#ffffff;fill-rule:evenodd"
             id="path4943" />
        </g>
      </g>
      <text
         xml:space="preserve"
         style="font-style:normal;font-weight:normal;font-size:40px;line-height:125%;font-family:Sans;letter-spacing:0px;word-spacing:0px;fill:#000000;fill-opacity:1;stroke:none;stroke-width:1px;stroke-linecap:butt;stroke-linejoin:miter;stroke-opacity:1"
         x="6.7952881"
         y="18.050781"
         id="text4344"
         sodipodi:linespacing="125%"><tspan
           sodipodi:role="line"
           id="tspan4346"
           x="6.7952881"
           y="18.050781"
           style="font-size:7.5px">www</tspan></text>
    </g>
  </g>
</svg>
