<?xml version="1.0" encoding="UTF-8" standalone="no"?>
<!-- Created with Inkscape (http://www.inkscape.org/) -->

<svg
   xmlns:dc="http://purl.org/dc/elements/1.1/"
   xmlns:cc="http://creativecommons.org/ns#"
   xmlns:rdf="http://www.w3.org/1999/02/22-rdf-syntax-ns#"
   xmlns:svg="http://www.w3.org/2000/svg"
   xmlns="http://www.w3.org/2000/svg"
   xmlns:xlink="http://www.w3.org/1999/xlink"
   xmlns:sodipodi="http://sodipodi.sourceforge.net/DTD/sodipodi-0.dtd"
   xmlns:inkscape="http://www.inkscape.org/namespaces/inkscape"
   width="16"
   height="16"
   id="svg2"
   sodipodi:version="0.32"
   inkscape:version="0.48.5 r10040"
   version="1.0"
   sodipodi:docname="favicon.svg"
   inkscape:output_extension="org.inkscape.output.svg.inkscape"
   inkscape:export-filename="favicon-128.png"
   inkscape:export-xdpi="720"
   inkscape:export-ydpi="720">
  <defs
     id="defs4">
    <inkscape:perspective
       sodipodi:type="inkscape:persp3d"
       inkscape:vp_x="0 : 526.18109 : 1"
       inkscape:vp_y="0 : 1000 : 0"
       inkscape:vp_z="744.09448 : 526.18109 : 1"
       inkscape:persp3d-origin="372.04724 : 350.78739 : 1"
       id="perspective10" />
    <linearGradient
       inkscape:collect="always"
       xlink:href="#linearGradient5105"
       id="linearGradient4302"
       gradientUnits="userSpaceOnUse"
       x1="111"
       y1="740.36218"
       x2="111"
       y2="752.36218" />
    <linearGradient
       id="linearGradient5105">
      <stop
         style="stop-color:#fc0;stop-opacity:1;"
         offset="0"
         id="stop5107" />
      <stop
         style="stop-color:white;stop-opacity:1;"
         offset="1"
         id="stop5109" />
    </linearGradient>
    <linearGradient
       gradientTransform="translate(-104,-736.36218)"
       y2="752.36218"
       x2="111"
       y1="740.36218"
       x1="111"
       gradientUnits="userSpaceOnUse"
       id="linearGradient4971"
       xlink:href="#linearGradient5105"
       inkscape:collect="always" />
  </defs>
  <sodipodi:namedview
     id="base"
     pagecolor="#ffffff"
     bordercolor="#666666"
     borderopacity="1.0"
     inkscape:pageopacity="0.0"
     inkscape:pageshadow="2"
     inkscape:zoom="1.18"
     inkscape:cx="8"
     inkscape:cy="8"
     inkscape:document-units="px"
     inkscape:current-layer="layer1"
     showgrid="false"
     objecttolerance="10000"
     gridtolerance="10000"
     guidetolerance="10000"
     inkscape:window-width="1024"
     inkscape:window-height="741"
     inkscape:window-x="0"
     inkscape:window-y="2"
     inkscape:snap-perpendicular="true"
     inkscape:snap-tangential="true"
     showguides="false"
     inkscape:guide-bbox="true"
     inkscape:window-maximized="1">
    <inkscape:grid
       type="xygrid"
       id="grid2383"
       units="px"
       visible="true"
       enabled="true"
       empspacing="4"
       spacingx="1"
       spacingy="1" />
    <sodipodi:guide
       position="8,16"
       orientation="1,0"
       id="guide5299" />
    <sodipodi:guide
       position="0,8"
       orientation="0,1"
       id="guide5301" />
    <sodipodi:guide
       position="8,8"
       orientation="-0.70710678,0.70710678"
       id="guide5303" />
    <sodipodi:guide
       position="8,8"
       orientation="0.70710678,0.70710678"
       id="guide5305" />
  </sodipodi:namedview>
  <metadata
     id="metadata7">
    <rdf:RDF>
      <cc:Work
         rdf:about="">
        <dc:format>image/svg+xml</dc:format>
        <dc:type
           rdf:resource="http://purl.org/dc/dcmitype/StillImage" />
        <dc:title />
      </cc:Work>
    </rdf:RDF>
  </metadata>
  <g
     inkscape:label="Ebene 1"
     inkscape:groupmode="layer"
     id="layer1">
    <path
       style="font-size:medium;font-style:normal;font-variant:normal;font-weight:normal;font-stretch:normal;text-indent:0;text-align:start;text-decoration:none;line-height:normal;letter-spacing:normal;word-spacing:normal;text-transform:none;direction:ltr;block-progression:tb;writing-mode:lr-tb;text-anchor:start;baseline-shift:baseline;color:black;fill:black;fill-opacity:1;stroke:none;stroke-width:2.54273605;marker:none;visibility:visible;display:inline;overflow:visible;enable-background:accumulate;font-family:Sans;-inkscape-font-specification:Sans"
       d="M 10.375 3 C 9.1251641 3.0227433 7.8468563 3.4150604 6.75 4.1875 C 3.8250488 6.2473387 3.1276924 10.325005 5.1875 13.25 C 7.2473076 16.174994 11.293799 16.872338 14.21875 14.8125 C 14.829628 14.382301 15.382524 13.861039 15.8125 13.25 L 16 13 L 16 12.15625 L 12.25 9.5 L 16 6.84375 L 16 6 L 15.8125 5.75 C 14.782596 4.2875026 13.234552 3.3785279 11.59375 3.09375 C 11.183549 3.0225555 10.791612 2.9924189 10.375 3 z "
       id="path5577" />
    <path
       style="fill:black;stroke:none"
       d="m 0,0 0,13 6,0 0,-4 2,0 0,4 6,0 L 14,0 8,0 8,1 6,1 6,0 z"
       id="path5007"
       inkscape:connector-curvature="0" />
    <path
       style="fill:url(#linearGradient4971);fill-opacity:1;stroke:none"
       d="M 1,1 1,12 5,12 5,6 6,6 6,7 6,8 7,8 8,8 8,7 8,6 9,6 9,12 13,12 13,1 9,1 9,2 8,2 8,3 8,4 7,4 6,4 6,3 6,2 5,2 5,1 1,1 z"
       id="path4158"
       inkscape:connector-curvature="0" />
    <path
       sodipodi:end="8.8115791"
       sodipodi:start="3.755145"
       sodipodi:type="arc"
       style="fill:red;fill-opacity:1;fill-rule:nonzero;stroke:none"
       id="path4200"
       sodipodi:cx="7.9652176"
       sodipodi:cy="8"
       sodipodi:rx="6.9913044"
       sodipodi:ry="6.9913044"
       d="m 2.2490724,3.9745781 a 6.9913044,6.9913044 0 1 1 -0.00142,8.0488229 L 7.9652176,8 z"
       transform="matrix(-0.78654846,0,0,0.7865602,16.76495,3.20752)" />
    <path
       transform="matrix(-0.78557138,0,0,0.78558308,16.78449,3.21533)"
       sodipodi:type="arc"
       style="fill:white;fill-opacity:1;fill-rule:nonzero;stroke:none"
       id="path4202"
       sodipodi:cx="8"
       sodipodi:cy="5"
       sodipodi:rx="2"
       sodipodi:ry="2"
       d="M 10,5 A 2,2 0 1 1 6,5 2,2 0 1 1 10,5 z" />
    <path
       sodipodi:type="arc"
       style="fill:black;fill-opacity:1;fill-rule:nonzero;stroke:none"
       id="path4204"
       sodipodi:cx="8"
       sodipodi:cy="5"
       sodipodi:rx="1"
       sodipodi:ry="1"
       d="M 9,5 A 1,1 0 1 1 7,5 1,1 0 1 1 9,5 z"
       transform="matrix(-0.78557138,0,0,0.78558308,17.57006,3.21533)" />
  </g>
</svg>
