<?xml version="1.0" encoding="UTF-8" standalone="no"?>
<!-- Created with Inkscape (http://www.inkscape.org/) -->

<svg xmlns:dc="http://purl.org/dc/elements/1.1/" xmlns:cc="http://creativecommons.org/ns#" xmlns:rdf="http://www.w3.org/1999/02/22-rdf-syntax-ns#" xmlns:svg="http://www.w3.org/2000/svg" xmlns="http://www.w3.org/2000/svg" xmlns:xlink="http://www.w3.org/1999/xlink" xmlns:sodipodi="http://sodipodi.sourceforge.net/DTD/sodipodi-0.dtd" xmlns:inkscape="http://www.inkscape.org/namespaces/inkscape" width="1280" height="1280" id="svg2" version="1.1" inkscape:version="0.91 r13725" sodipodi:docname="loadscreen-new2.svg" inkscape:export-filename="loadscreen-new2.png" inkscape:export-xdpi="112.5" inkscape:export-ydpi="112.5">
  <defs id="defs4">
    <linearGradient id="linearGradient5105">
      <stop style="stop-color:#fc0;stop-opacity:1;" offset="0" id="stop5107" />
      <stop style="stop-color:white;stop-opacity:1;" offset="1" id="stop5109" />
    </linearGradient>
    <inkscape:perspective sodipodi:type="inkscape:persp3d" inkscape:vp_x="0 : 526.18109 : 1" inkscape:vp_y="0 : 1000 : 0" inkscape:vp_z="744.09448 : 526.18109 : 1" inkscape:persp3d-origin="372.04724 : 350.78739 : 1" id="perspective10" />
    <linearGradient inkscape:collect="always" xlink:href="#linearGradient5105" id="linearGradient5111" x1="640" y1="576" x2="640" y2="768" gradientUnits="userSpaceOnUse" />
  </defs>
  <sodipodi:namedview id="base" pagecolor="black" bordercolor="#666666" borderopacity="1.0" inkscape:pageopacity="1" inkscape:pageshadow="2" inkscape:zoom="0.51625" inkscape:cx="612.88136" inkscape:cy="629.15254" inkscape:document-units="px" inkscape:current-layer="layer1" showgrid="true" units="px" objecttolerance="10000" gridtolerance="10000" guidetolerance="10000" inkscape:window-width="1600" inkscape:window-height="878" inkscape:window-x="0" inkscape:window-y="0" inkscape:window-maximized="1" showguides="true" inkscape:guide-bbox="true">
    <inkscape:grid type="xygrid" id="grid4437" empspacing="4" visible="true" enabled="true" snapvisiblegridlinesonly="true" />
    <sodipodi:guide orientation="1,0" position="640,1280" id="guide4439" />
    <sodipodi:guide orientation="0,1" position="-96,640" id="guide4441" />
  </sodipodi:namedview>
  <metadata id="metadata7">
    <rdf:RDF>
      <cc:Work rdf:about="">
        <dc:format>image/svg+xml</dc:format>
        <dc:type rdf:resource="http://purl.org/dc/dcmitype/StillImage" />
        <dc:title></dc:title>
        <dc:creator>
          <cc:Agent>
            <dc:title>Andreas Neudecker &lt;zapyon@gmx.net&gt;</dc:title>
          </cc:Agent>
        </dc:creator>
        <dc:source />
      </cc:Work>
    </rdf:RDF>
  </metadata>
  <g inkscape:label="Ebene 1" inkscape:groupmode="layer" id="layer1" transform="translate(0,227.63782)">
    <path style="font-size:medium;font-style:normal;font-variant:normal;font-weight:normal;font-stretch:normal;text-indent:0;text-align:start;text-decoration:none;line-height:normal;letter-spacing:normal;word-spacing:normal;text-transform:none;direction:ltr;block-progression:tb;writing-mode:lr-tb;text-anchor:start;baseline-shift:baseline;color:black;fill:white;fill-opacity:1;fill-rule:nonzero;stroke:none;stroke-width:40;marker:none;visibility:visible;display:inline;overflow:visible;enable-background:accumulate;font-family:Sans;-inkscape-font-specification:Sans" d="m 931.78125,240.3125 -57.25,57.25 -1.53125,3.53125 -0.75,1.75 -31.09375,2.03125 -27.90625,27.875 -59.0625,0 c 0.46085,-2.87777 0.78125,-5.83448 0.78125,-8.875 0,-3.09387 -0.26511,-5.8695 -0.59375,-8.5 l 0.0313,0 c 0.40161,4.01555 0.47329,3.98016 0,-0.5625 l -0.0625,-0.34375 -0.0313,-0.375 c -1.34465,-9.5349 -5.168,-19.4973 -12.15625,-27.84375 l 0.0313,-0.0313 c -0.0685,-0.0853 -0.14936,-0.16513 -0.21875,-0.25 -0.0782,-0.0921 -0.13975,-0.18954 -0.21875,-0.28125 l -0.0313,0.0313 c -4.99168,-5.98422 -12.21698,-10.7811 -17.625,-13.375 -0.0407,-0.0195 -0.0218,-0.0119 -0.0625,-0.0313 -3.45179,-1.64327 -7.25044,-2.76337 -5.5,-2.125 l -0.0313,-0.0313 -0.0313,0 c 0.85568,0.30834 -2.47796,-1.06763 -5.96875,-1.96875 l 0,0.0313 c -7.35178,-1.90155 -14.49951,-2.5 -21.28125,-2.5 -6.37351,0 -12.99309,0.74286 -19.5625,2.65625 -3.50509,1.02089 -7.13919,2.41774 -10.75,4.3125 L 448,272.36218 l -32.25,31.07532 -15.53125,1.875 0,-32.625 -117.65625,0 -1.53125,1.53125 0,-1.53125 -117.65625,0 -43.375,43.375 0,221.96875 117.65625,0 1.53125,-1.53125 0,1.53125 70.34375,0 c 36.49109,31.82465 90.44629,39.60555 134.6875,14.0625 l 0.5625,-0.3125 0.53125,-0.375 5.59375,-3.71875 c 3.04285,-1.82818 5.8995,-3.82331 8.09375,-5.9375 1.63522,-1.57556 2.27701,-2.34794 3.125,-3.28125 l 58.59375,0 1.5,-1.5 0,1.5 335.65625,0 c 0.59454,0.42157 0.90575,0.79389 1.59375,1.21875 8.89151,5.49092 19.29981,10.22306 31.21875,12.0625 14.56446,2.24776 29.24354,0.99844 42.90625,-2.84375 1.9874,-0.55896 3.87747,-1.26083 5.78125,-1.96875 l 0,6.4375 147.4688,0 73.1562,-73.15625 0,-87.875 -14.9062,0 0,-60.0625 -29.7813,0 0,-14.90625 -117.6875,0 -5.5625,5.59375 -11.5,0 12.5625,-25.125 -42.15625,0 z" id="path5084" inkscape:connector-curvature="0" sodipodi:nodetypes="cccccccscccccccccccccccccsscccccccccccccccccccsccccccscccccccccccccccc" />
    <path sodipodi:nodetypes="ccccccccccsccccccccsscccccccccccccscccccccccccccccccccccaaaccccccccccccccccccccc" inkscape:connector-curvature="0" id="path9330" d="m 923.05154,277.32653 -31.65729,31.65729 -5.58658,13.03535 -35.84722,2.32774 -28.39844,28.39845 -98.2307,0 c 1.6359,-1.87873 3.2937,-3.95694 4.65549,-6.05213 0.0745,-0.11918 -0.0745,-0.35009 0,-0.46629 1.33928,-2.09519 2.73101,-4.2309 3.72438,-6.51768 0.0596,-0.13407 -0.0596,-0.3337 0,-0.46629 2.0511,-4.84453 3.25884,-9.8215 3.25884,-15.36309 0,-2.10205 -0.19218,-4.43009 -0.46629,-6.51768 -0.0149,-0.14898 0.0149,-0.32328 0,-0.46629 -0.94451,-6.69749 -3.39515,-12.91007 -7.91432,-18.15639 l -4.18994,-5.12103 -1.3959,0 c -2.014,-1.4391 -3.94412,-2.4788 -5.58658,-3.25884 -1.71992,-0.82681 -3.00543,-1.1337 -3.72439,-1.3959 -0.69869,-0.25177 -2.11813,-0.86108 -4.18993,-1.3959 -5.28163,-1.3661 -10.69346,-1.86219 -16.29419,-1.86219 -4.86777,0 -9.46024,0.54972 -13.96645,1.86219 -4.50621,1.31248 -8.92646,3.38517 -12.56981,6.51768 -0.10428,0.1743 -0.38882,0.26964 -0.46629,0.46629 l -0.92961,0.4663 0,-1.8622 0,-0.46629 -89.38527,0 0,0.46629 -14.89755,14.432 -14.89754,0 0,-14.89755 -89.38528,0 0,0.4663 -30.72619,30.26064 c -8.38806,-0.42905 -16.74618,0.52439 -25.13961,2.32774 -6.24132,1.34078 -12.55863,3.0394 -18.62193,5.58658 l 0,-38.64051 -89.38528,0 -14.89754,14.89754 -14.89755,0 0,-14.89754 -89.38527,0 -31.65729,31.65728 0,193.6681 89.38528,0 29.79509,-29.79509 0,29.79509 58.19354,0 c 30.27092,30.59956 78.02619,39.17653 116.85263,16.75974 l 5.58657,-3.72439 c 5.83031,-3.36624 5.08215,-3.68535 9.77652,-8.37986 l 4.18993,-4.18994 58.65909,0 29.79509,-29.79509 0,29.79509 323.09053,0 c 1.58257,1.63113 2.8797,3.09288 4.65623,4.18994 7.2335,4.46702 15.34239,8.01428 23.74445,9.31096 11.37503,1.75553 23.37083,0.78808 34.45058,-2.32774 7.75089,-2.17996 15.03758,-6.15269 21.41522,-11.17316 l 9.77652,0 0,14.89755 119.18041,0 61.4523,-61.45238 0,-59.59018 -14.8975,0 0,-60.05574 -29.7951,0 0,-14.89754 -89.3853,0 -14.89753,14.89754 -14.89754,0 0,-9.31096 -14.89755,0 -11.63871,0 c -0.29646,-0.58101 -0.11918,-1.31248 -0.46629,-1.8622 l 0.9311,-1.86219 10.70761,-21.41522 -24.20852,0 z" style="font-size:medium;font-style:normal;font-variant:normal;font-weight:normal;font-stretch:normal;text-indent:0;text-align:start;text-decoration:none;line-height:normal;letter-spacing:normal;word-spacing:normal;text-transform:none;direction:ltr;block-progression:tb;writing-mode:lr-tb;text-anchor:start;color:black;fill:black;fill-opacity:1;fill-rule:nonzero;stroke:none;stroke-width:2;marker:none;visibility:visible;font-family:Sans;-inkscape-font-specification:Sans" />
    <path style="fill:#fc0;fill-opacity:1;stroke:none" d="m 186.55411,307.58718 0,163.873 59.59018,0 0,-89.38527 14.89755,0 0,14.89754 0,14.89755 14.89754,0 14.89755,0 0,-14.89755 0,-14.89754 14.89755,0 0,89.38527 59.59018,0 0,-163.873 -59.59018,0 0,14.89754 -14.89755,0 0,14.89755 0,14.89754 -14.89755,0 -14.89754,0 0,-14.89754 0,-14.89755 -14.89755,0 0,-14.89754 -59.59018,0 z" id="path4156" inkscape:connector-curvature="0" />
    <path inkscape:connector-curvature="0" id="path4158" d="m 469.60748,307.58718 0,163.873 59.59019,0 0,-89.38527 14.89754,0 0,14.89754 0,14.89755 14.89755,0 14.89754,0 0,-14.89755 0,-14.89754 14.89755,0 0,89.38527 59.59018,0 0,-163.873 -59.59018,0 0,14.89754 -14.89755,0 0,14.89755 0,14.89754 -14.89754,0 -14.89755,0 0,-14.89754 0,-14.89755 -14.89754,0 0,-14.89754 -59.59019,0 z" style="fill:#fc0;fill-opacity:1;stroke:none" />
    <rect style="fill:#fc0;fill-opacity:1;stroke:none" id="rect4160" width="59.590183" height="104.28282" x="663.27557" y="367.1774" />
    <path inkscape:connector-curvature="0" style="fill:lime;fill-opacity:1;fill-rule:nonzero;stroke:none" d="m 691.09764,300.1384 c -17.38052,0 -23.17403,7.39097 -23.17403,23.17388 0,17.38052 5.79351,28.96753 23.17403,28.96753 17.38037,0 28.96739,-11.58701 28.96739,-28.96753 0,-17.38037 -11.58702,-23.17388 -28.96739,-23.17388 z" id="path4162" sodipodi:nodetypes="czzzz" />
    <path inkscape:connector-curvature="0" style="fill:#00a000;fill-opacity:1;fill-rule:nonzero;stroke:none" d="m 685.30413,311.72527 -17.01851,7.06084 c -0.11918,1.42271 -0.36201,2.93362 -0.36201,4.52617 0,17.38052 5.79351,28.96753 23.17403,28.96753 7.29146,0 13.46127,-2.14271 18.2857,-5.7935 -5.0753,-0.27114 -15.82224,-1.44804 -20.0962,-5.79351 -5.69846,-5.79351 1.8105,-11.58701 1.8105,-11.58701 0,0 -11.51282,3.50807 -15.02686,-1.8105 -3.51403,-5.31858 9.23335,-15.57002 9.23335,-15.57002 z" id="path4164" />
    <path inkscape:connector-curvature="0" style="fill:#c1ffc1;fill-opacity:1;fill-rule:nonzero;stroke:none" d="m 691.09764,300.1384 c -3.86815,0 -6.99246,0.5244 -9.77651,1.26778 1.44059,-0.13407 9.77651,-0.79106 9.77651,4.52618 0,4.87864 0,9.69994 0,11.58686 0.27114,-3.8464 1.44804,-11.58686 5.79336,-11.58686 5.72989,0 16.06447,0.17579 16.29419,0.18175 -5.09466,-4.25787 -12.73502,-5.97452 -22.08755,-5.97452 z" id="path4166" />
    <path inkscape:connector-curvature="0" style="fill:#c1ffc1;fill-opacity:1;fill-rule:nonzero;stroke:none" d="m 712.64217,305.56975 -0.54376,0.36201 3.25884,2.35351 c -0.82532,-0.98174 -1.69325,-1.93072 -2.71582,-2.71567 z m 2.71568,2.71567 c 0,0 -11.05875,2.51977 -12.67334,6.69868 -1.6146,4.17892 5.7935,5.06934 5.7935,5.06934 0,0 -5.7935,3.25884 -5.7935,9.05235 0,5.7935 2.89682,14.12168 2.89682,14.12168 0,0 -2.89682,-11.46232 2.89668,-14.12168 5.79351,-2.65936 10.86285,1.08603 10.86285,1.08603 0.44096,-2.19709 0.72402,-4.43798 0.72402,-6.87984 0,-6.57801 -1.7019,-11.45427 -4.70718,-15.02685 z" id="path4168" />
    <path sodipodi:type="arc" style="fill:gray;fill-opacity:1;fill-rule:nonzero;stroke:none" id="path4172" sodipodi:cx="19.5" sodipodi:cy="21.5" sodipodi:rx="10.5" sodipodi:ry="10.5" d="M 30,21.5 A 10.5,10.5 0 0 1 19.5,32 10.5,10.5 0 0 1 9,21.5 10.5,10.5 0 0 1 19.5,11 10.5,10.5 0 0 1 30,21.5 Z" transform="matrix(4.9658486,0,0,4.9656736,842.04613,327.45618)" />
    <rect style="fill:#909090;fill-opacity:1;fill-rule:nonzero;stroke:none" id="rect4174" width="24.829243" height="9.9313469" x="926.46497" y="377.11304" />
    <path style="font-size:medium;font-style:normal;font-variant:normal;font-weight:normal;font-stretch:normal;text-indent:0;text-align:start;text-decoration:none;line-height:normal;letter-spacing:normal;word-spacing:normal;text-transform:none;direction:ltr;block-progression:tb;writing-mode:lr-tb;text-anchor:start;baseline-shift:baseline;color:black;fill:#e00000;fill-opacity:1;stroke:none;stroke-width:1;marker:none;visibility:visible;display:inline;overflow:visible;enable-background:accumulate;font-family:Sans;-inkscape-font-specification:Sans" d="m 925.37928,334.77996 a 7.4495179,7.4495179 0 0 0 0,14.89755 c 1.74838,0.26965 5.41958,2.69511 5.12103,2.32774 1.02048,1.25586 1.3959,1.15158 1.3959,5.12103 a 7.4495179,7.4495179 0 1 0 14.89755,0 c 0,-5.98255 -1.8549,-10.98694 -4.65549,-14.43199 -4.11976,-5.06815 -8.99767,-7.07783 -14.43199,-7.91433 a 7.4495179,7.4495179 0 0 0 -2.32774,0 z" id="path4176" inkscape:connector-curvature="0" />
    <rect style="fill:#909090;fill-opacity:1;fill-rule:nonzero;stroke:none" id="rect4178" width="44.692638" height="19.862694" x="916.53387" y="357.24994" />
    <path inkscape:connector-curvature="0" style="fill:#606060;fill-opacity:1;fill-rule:nonzero;stroke:none" d="m 902.01069,397.34981 c -20.35198,20.35138 -20.35198,53.38535 0,73.73659 20.35199,20.35124 53.387,20.35124 73.73898,0 -12.59885,12.59841 -39.34144,6.30613 -59.69357,-14.04511 -20.35199,-20.35124 -26.64426,-47.09308 -14.04541,-59.69148 z" id="path4180" inkscape:transform-center-y="1.5368963" inkscape:transform-center-x="1.5368965" />
    <path inkscape:connector-curvature="0" style="fill:#606060;fill-opacity:1;fill-rule:nonzero;stroke:none" d="m 926.46561,377.11283 0,9.93145 9.9316,0 -4.9658,-9.93145 -4.9658,0 z" id="path4182" />
    <path inkscape:connector-curvature="0" inkscape:transform-center-y="-1.5368969" id="path4184" d="m 975.74967,471.0864 c 20.35199,-20.35124 20.35199,-53.38521 0,-73.73659 -20.35198,-20.35124 -53.38699,-20.35124 -73.73898,0 12.59871,-12.59826 39.34144,-6.30614 59.69343,14.0451 20.35198,20.35124 26.64441,47.09308 14.04555,59.69149 z" style="fill:#909090;fill-opacity:1;fill-rule:nonzero;stroke:none" inkscape:transform-center-x="-1.536897" />
    <path inkscape:connector-curvature="0" style="fill:#606060;fill-opacity:1;fill-rule:nonzero;stroke:none" d="m 916.53386,357.25023 0,19.8626 19.86335,0 -9.9316,-19.8626 -9.93175,0 z" id="path4186" />
    <rect style="fill:#606060;fill-opacity:1;fill-rule:nonzero;stroke:none" id="rect4188" width="33.145786" height="4.9656734" x="928.08075" y="372.14749" />
    <path inkscape:connector-curvature="0" style="fill:silver;fill-opacity:1;fill-rule:nonzero;stroke:none" d="m 949.74302,393.40657 -5.12103,19.24197 c 7.94323,2.12827 13.70023,7.88513 15.82865,15.82805 l 19.24256,-5.12088 c -4.02025,-15.00332 -14.94641,-25.92903 -29.95018,-29.94914 z" id="path4190" />
    <path inkscape:connector-curvature="0" style="fill:yellow;fill-opacity:1;fill-rule:nonzero;stroke:none" d="m 914.98347,334.81229 -20.49291,1.14264 17.0775,11.36326 -4.96594,14.89709 14.89754,-9.9313 14.89755,9.9313 -4.9658,-19.86274 4.9658,-9.9313 -9.9316,0 -4.96595,-13.6615 -6.51619,16.05196 z" id="path4192" sodipodi:nodetypes="ccccccccccc" />
    <path inkscape:connector-curvature="0" style="fill:#fc0;fill-opacity:1;stroke:none" d="m 737.76331,367.17736 0,104.28282 59.59018,0 0,-59.59018 14.89755,0 0,-14.89755 14.89755,0 0,14.89755 0,59.59018 59.59018,0 0,-59.59018 0,-14.89755 0,-14.89754 -29.79509,0 0,-14.89755 -44.69264,0 0,14.89755 -14.89755,0 0,-14.89755 -59.59018,0 z" id="path4194" />
    <path inkscape:connector-curvature="0" style="fill:#fc0;fill-opacity:1;stroke:none" d="m 1020.8167,352.27981 0,14.89755 -29.79511,0 0,14.89755 -14.89754,0 0,14.89754 14.89754,0 0,14.89755 14.89751,0 0,14.89754 44.6927,0 0,14.89755 14.8975,0 0,14.89755 -29.7951,0 0,-14.89755 -59.59015,0 0,14.89755 14.89754,0 0,14.89754 14.89751,0 0,14.89755 89.3853,0 0,-14.89755 14.8976,0 0,-14.89754 14.8975,0 0,-14.89755 0,-14.89755 -14.8975,0 0,-14.89754 -59.5902,0 0,-14.89755 -14.8976,0 0,-14.89754 29.7951,0 0,14.89754 44.6927,0 0,-14.89754 0,-14.89755 -29.7951,0 0,-14.89755 -59.5902,0 z" id="path4196" />
    <path style="fill:url(#linearGradient5111);fill-opacity:1;stroke:none" d="M 186.5625 535.21875 L 186.5625 699.09375 L 246.15625 699.09375 L 246.15625 609.71875 L 261.03125 609.71875 L 261.03125 624.625 L 261.03125 639.5 L 275.9375 639.5 L 290.84375 639.5 L 290.84375 624.625 L 290.84375 609.71875 L 305.75 609.71875 L 305.75 699.09375 L 365.3125 699.09375 L 365.3125 535.21875 L 305.75 535.21875 L 305.75 550.125 L 290.84375 550.125 L 290.84375 565.03125 L 290.84375 579.90625 L 275.9375 579.90625 L 261.03125 579.90625 L 261.03125 565.03125 L 261.03125 550.125 L 246.15625 550.125 L 246.15625 535.21875 L 186.5625 535.21875 z M 469.59375 535.21875 L 469.59375 699.09375 L 529.1875 699.09375 L 529.1875 609.71875 L 544.09375 609.71875 L 544.09375 624.625 L 544.09375 639.5 L 559 639.5 L 573.875 639.5 L 573.875 624.625 L 573.875 609.71875 L 588.78125 609.71875 L 588.78125 699.09375 L 648.375 699.09375 L 648.375 535.21875 L 588.78125 535.21875 L 588.78125 550.125 L 573.875 550.125 L 573.875 565.03125 L 573.875 579.90625 L 559 579.90625 L 544.09375 579.90625 L 544.09375 565.03125 L 544.09375 550.125 L 529.1875 550.125 L 529.1875 535.21875 L 469.59375 535.21875 z M 1020.8125 579.90625 L 1020.8125 594.8125 L 991.03125 594.8125 L 991.03125 609.71875 L 976.125 609.71875 L 976.125 624.625 L 991.03125 624.625 L 991.03125 639.5 L 1005.9062 639.5 L 1005.9062 654.40625 L 1050.625 654.40625 L 1050.625 669.3125 L 1065.5 669.3125 L 1065.5 684.1875 L 1035.7188 684.1875 L 1035.7188 669.3125 L 976.125 669.3125 L 976.125 684.1875 L 991.03125 684.1875 L 991.03125 699.09375 L 1005.9062 699.09375 L 1005.9062 714 L 1095.3125 714 L 1095.3125 699.09375 L 1110.1875 699.09375 L 1110.1875 684.1875 L 1125.0938 684.1875 L 1125.0938 669.3125 L 1125.0938 654.40625 L 1110.1875 654.40625 L 1110.1875 639.5 L 1050.625 639.5 L 1050.625 624.625 L 1035.7188 624.625 L 1035.7188 609.71875 L 1065.5 609.71875 L 1065.5 624.625 L 1110.1875 624.625 L 1110.1875 609.71875 L 1110.1875 594.8125 L 1080.4062 594.8125 L 1080.4062 579.90625 L 1020.8125 579.90625 z M 663.28125 594.8125 L 663.28125 699.09375 L 722.875 699.09375 L 722.875 594.8125 L 663.28125 594.8125 z M 737.75 594.8125 L 737.75 699.09375 L 797.34375 699.09375 L 797.34375 639.5 L 812.25 639.5 L 812.25 624.625 L 827.15625 624.625 L 827.15625 639.5 L 827.15625 699.09375 L 886.75 699.09375 L 886.75 639.5 L 886.75 624.625 L 886.75 609.71875 L 856.9375 609.71875 L 856.9375 594.8125 L 812.25 594.8125 L 812.25 609.71875 L 797.34375 609.71875 L 797.34375 594.8125 L 737.75 594.8125 z " id="path5086" transform="translate(0,-227.63782)" />
    <path transform="matrix(-11.717642,0,0,11.717817,510.79845,325.57626)" d="M 1.9105703,4.504348 A 6.9913044,6.9913044 0 0 1 9.7747002,1.2469185 6.9913044,6.9913044 0 0 1 14.956522,7.9999999 6.9913044,6.9913044 0 0 1 9.7747003,14.753081 6.9913044,6.9913044 0 0 1 1.9105703,11.495652 L 7.9652176,8 Z" sodipodi:ry="6.9913044" sodipodi:rx="6.9913044" sodipodi:cy="8" sodipodi:cx="7.9652176" id="path4200" style="fill:red;fill-opacity:1;fill-rule:nonzero;stroke:none" sodipodi:type="arc" sodipodi:start="3.6651914" sodipodi:end="8.9011792" />
    <path d="M 10,5 A 2,2 0 0 1 8,7 2,2 0 0 1 6,5 2,2 0 0 1 8,3 2,2 0 0 1 10,5 Z" sodipodi:ry="2" sodipodi:rx="2" sodipodi:cy="5" sodipodi:cx="8" id="path4202" style="fill:white;fill-opacity:1;fill-rule:nonzero;stroke:none" sodipodi:type="arc" transform="matrix(-11.703086,0,0,11.70326,511.08955,325.69261)" />
    <path transform="matrix(-11.703086,0,0,11.70326,522.79262,325.69261)" d="M 9,5 A 1,1 0 0 1 8,6 1,1 0 0 1 7,5 1,1 0 0 1 8,4 1,1 0 0 1 9,5 Z" sodipodi:ry="1" sodipodi:rx="1" sodipodi:cy="5" sodipodi:cx="8" id="path4204" style="fill:black;fill-opacity:1;fill-rule:nonzero;stroke:none" sodipodi:type="arc" />
  </g>
</svg>
