<?xml version="1.0" encoding="UTF-8" standalone="no"?>
<!-- Created with Inkscape (http://www.inkscape.org/) -->

<svg
   xmlns:dc="http://purl.org/dc/elements/1.1/"
   xmlns:cc="http://creativecommons.org/ns#"
   xmlns:rdf="http://www.w3.org/1999/02/22-rdf-syntax-ns#"
   xmlns:svg="http://www.w3.org/2000/svg"
   xmlns="http://www.w3.org/2000/svg"
   xmlns:xlink="http://www.w3.org/1999/xlink"
   xmlns:sodipodi="http://sodipodi.sourceforge.net/DTD/sodipodi-0.dtd"
   xmlns:inkscape="http://www.inkscape.org/namespaces/inkscape"
   width="1280"
   height="1280"
   id="svg2"
   version="1.1"
   inkscape:version="0.48.5 r10040"
   sodipodi:docname="loadscreen-new3.svg"
   inkscape:export-filename="loadscreen-new3.png"
   inkscape:export-xdpi="112.5"
   inkscape:export-ydpi="112.5">
  <defs
     id="defs4">
    <linearGradient
       id="linearGradient5105">
      <stop
         style="stop-color:#fc0;stop-opacity:1;"
         offset="0"
         id="stop5107" />
      <stop
         style="stop-color:white;stop-opacity:1;"
         offset="1"
         id="stop5109" />
    </linearGradient>
    <inkscape:perspective
       sodipodi:type="inkscape:persp3d"
       inkscape:vp_x="0 : 526.18109 : 1"
       inkscape:vp_y="0 : 1000 : 0"
       inkscape:vp_z="744.09448 : 526.18109 : 1"
       inkscape:persp3d-origin="372.04724 : 350.78739 : 1"
       id="perspective10" />
    <linearGradient
       inkscape:collect="always"
       xlink:href="#linearGradient5105-8"
       id="linearGradient4305"
       gradientUnits="userSpaceOnUse"
       x1="92"
       y1="740.36218"
       x2="92"
       y2="752.36218" />
    <linearGradient
       id="linearGradient5105-8">
      <stop
         style="stop-color:#fc0;stop-opacity:1;"
         offset="0"
         id="stop5107-8" />
      <stop
         style="stop-color:white;stop-opacity:1;"
         offset="1"
         id="stop5109-4" />
    </linearGradient>
    <linearGradient
       inkscape:collect="always"
       xlink:href="#linearGradient5105-8"
       id="linearGradient4302"
       gradientUnits="userSpaceOnUse"
       x1="111"
       y1="740.36218"
       x2="111"
       y2="752.36218" />
    <linearGradient
       id="linearGradient4421">
      <stop
         style="stop-color:#fc0;stop-opacity:1;"
         offset="0"
         id="stop4423" />
      <stop
         style="stop-color:white;stop-opacity:1;"
         offset="1"
         id="stop4425" />
    </linearGradient>
    <linearGradient
       inkscape:collect="always"
       xlink:href="#linearGradient5105-8"
       id="linearGradient4299"
       gradientUnits="userSpaceOnUse"
       x1="120"
       y1="740.36218"
       x2="120"
       y2="752.36218" />
    <linearGradient
       id="linearGradient4428">
      <stop
         style="stop-color:#fc0;stop-opacity:1;"
         offset="0"
         id="stop4430" />
      <stop
         style="stop-color:white;stop-opacity:1;"
         offset="1"
         id="stop4432" />
    </linearGradient>
    <linearGradient
       inkscape:collect="always"
       xlink:href="#linearGradient5105-8"
       id="linearGradient4281"
       gradientUnits="userSpaceOnUse"
       x1="128"
       y1="741.36218"
       x2="128"
       y2="752.36218" />
    <linearGradient
       id="linearGradient4435">
      <stop
         style="stop-color:#fc0;stop-opacity:1;"
         offset="0"
         id="stop4437" />
      <stop
         style="stop-color:white;stop-opacity:1;"
         offset="1"
         id="stop4439" />
    </linearGradient>
    <linearGradient
       inkscape:collect="always"
       xlink:href="#linearGradient5105-8"
       id="linearGradient4278"
       gradientUnits="userSpaceOnUse"
       x1="144"
       y1="739.36218"
       x2="144"
       y2="752.36218" />
    <linearGradient
       id="linearGradient4442">
      <stop
         style="stop-color:#fc0;stop-opacity:1;"
         offset="0"
         id="stop4444" />
      <stop
         style="stop-color:white;stop-opacity:1;"
         offset="1"
         id="stop4446" />
    </linearGradient>
    <linearGradient
       inkscape:collect="always"
       xlink:href="#linearGradient5105-5"
       id="linearGradient4370"
       gradientUnits="userSpaceOnUse"
       x1="144"
       y1="768.36218"
       x2="144"
       y2="780.36218" />
    <linearGradient
       id="linearGradient5105-5">
      <stop
         style="stop-color:#fc0;stop-opacity:1;"
         offset="0"
         id="stop5107-0" />
      <stop
         style="stop-color:white;stop-opacity:1;"
         offset="1"
         id="stop5109-8" />
    </linearGradient>
    <linearGradient
       inkscape:collect="always"
       xlink:href="#linearGradient5105-5"
       id="linearGradient4367"
       gradientUnits="userSpaceOnUse"
       x1="92"
       y1="768.36218"
       x2="92"
       y2="780.36218" />
    <linearGradient
       id="linearGradient4633">
      <stop
         style="stop-color:#fc0;stop-opacity:1;"
         offset="0"
         id="stop4635" />
      <stop
         style="stop-color:white;stop-opacity:1;"
         offset="1"
         id="stop4637" />
    </linearGradient>
    <linearGradient
       inkscape:collect="always"
       xlink:href="#linearGradient5105-5"
       id="linearGradient4364"
       gradientUnits="userSpaceOnUse"
       x1="111"
       y1="768.36218"
       x2="111"
       y2="780.36218" />
    <linearGradient
       id="linearGradient4640">
      <stop
         style="stop-color:#fc0;stop-opacity:1;"
         offset="0"
         id="stop4642" />
      <stop
         style="stop-color:white;stop-opacity:1;"
         offset="1"
         id="stop4644" />
    </linearGradient>
    <linearGradient
       inkscape:collect="always"
       xlink:href="#linearGradient5105-5"
       id="linearGradient4358"
       gradientUnits="userSpaceOnUse"
       x1="120"
       y1="768.36218"
       x2="120"
       y2="780.36218" />
    <linearGradient
       id="linearGradient4647">
      <stop
         style="stop-color:#fc0;stop-opacity:1;"
         offset="0"
         id="stop4649" />
      <stop
         style="stop-color:white;stop-opacity:1;"
         offset="1"
         id="stop4651" />
    </linearGradient>
    <linearGradient
       inkscape:collect="always"
       xlink:href="#linearGradient5105-5"
       id="linearGradient4351"
       gradientUnits="userSpaceOnUse"
       x1="128"
       y1="768.36218"
       x2="128"
       y2="780.36218" />
    <linearGradient
       id="linearGradient4654">
      <stop
         style="stop-color:#fc0;stop-opacity:1;"
         offset="0"
         id="stop4656" />
      <stop
         style="stop-color:white;stop-opacity:1;"
         offset="1"
         id="stop4658" />
    </linearGradient>
  </defs>
  <sodipodi:namedview
     id="base"
     pagecolor="black"
     bordercolor="#666666"
     borderopacity="1.0"
     inkscape:pageopacity="1"
     inkscape:pageshadow="2"
     inkscape:zoom="0.43471154"
     inkscape:cx="599.74342"
     inkscape:cy="640"
     inkscape:document-units="px"
     inkscape:current-layer="layer1"
     showgrid="true"
     units="px"
     objecttolerance="10000"
     gridtolerance="10000"
     guidetolerance="10000"
     inkscape:window-width="1024"
     inkscape:window-height="741"
     inkscape:window-x="0"
     inkscape:window-y="2"
     inkscape:window-maximized="1"
     showguides="true"
     inkscape:guide-bbox="true">
    <inkscape:grid
       type="xygrid"
       id="grid4437"
       empspacing="4"
       visible="true"
       enabled="true"
       snapvisiblegridlinesonly="true" />
    <sodipodi:guide
       orientation="1,0"
       position="640,1280"
       id="guide4439" />
    <sodipodi:guide
       orientation="0,1"
       position="-96,640"
       id="guide4441" />
  </sodipodi:namedview>
  <metadata
     id="metadata7">
    <rdf:RDF>
      <cc:Work
         rdf:about="">
        <dc:format>image/svg+xml</dc:format>
        <dc:type
           rdf:resource="http://purl.org/dc/dcmitype/StillImage" />
        <dc:title></dc:title>
        <dc:creator>
          <cc:Agent>
            <dc:title>Andreas Neudecker &lt;zapyon@gmx.net&gt;</dc:title>
          </cc:Agent>
        </dc:creator>
        <dc:source />
      </cc:Work>
    </rdf:RDF>
  </metadata>
  <g
     inkscape:label="Ebene 1"
     inkscape:groupmode="layer"
     id="layer1"
     transform="translate(0,227.63782)">
    <g
       transform="matrix(14.39492,0,0,14.39492,-1038.5805,-10699.615)"
       id="g4379">
      <path
         sodipodi:nodetypes="ccccccssssscccccccccccccccccccscccccczccssccczzzzzcccccscccccccccc"
         inkscape:connector-curvature="0"
         id="path4373"
         d="m 135.8125,761.46875 -3.375,3.375 -0.2187,0.5 -2.125,0.125 -1.90625,1.90625 -4.5625,0 c 0.3244,-1.01777 0.20016,-1.4865 -2e-4,-2.18765 -0.15171,-0.53089 -0.43884,-1.06797 -0.8751,-1.4064 -0.79394,-0.61589 -1.54975,-1.01877 -2.875,-0.90625 -0.19748,0.0168 -0.39821,-10e-4 -0.59375,0.0313 -0.41645,0.0688 -0.82948,0.18053 -1.21875,0.34375 -0.0774,0.0325 -0.15211,0.089 -0.21875,0.125 l -5.78125,0 -1.21875,1.1875 -0.78125,-1.1875 -6.46875,0 c -0.73639,0.66802 -1.42207,1.39082 -2.125,2.09375 -0.11853,5e-4 -0.21869,-0.008 -0.34375,0 -0.36709,0.024 -0.74625,0.10721 -1.125,0.1875 l 0,-2.28125 -6.9375,0 -1.21875,1.1875 -0.78125,-1.1875 -6.46875,0 -2.71875,2.6875 0,14.4375 7.40625,0 0.59375,-0.59375 0,0.59375 4.625,0 c 2.347789,2.05202 5.78552,2.5769 8.625,0.9375 0.47108,-0.27198 0.86268,-0.59894 1.21875,-0.9375 l 3.9375,0 0.59375,-0.59375 0,0.59375 22.32525,0 c 0.33543,0.18236 0.67932,0.35454 1.0186,0.53135 0.30506,0.15879 0.6017,0.22671 1.2501,0.34375 0.6484,0.11704 1.81057,0.0824 2.625,-0.1875 0.71678,-0.23411 1.35412,-0.65567 1.90625,-1.15625 1.01664,0.48412 2.16291,0.87564 3.46875,0.96875 1.65861,0.11825 3.18239,-0.14748 4.46875,-0.6875 0.61291,-0.2573 1.25907,-0.60281 1.78125,-1.125 0.61388,-0.62565 1.49179,-1.52527 1.8437,-1.87495 0.57443,-0.5025 0.79455,-0.93402 1.0001,-1.21875 0.0476,-0.15607 0.1775,-0.39085 0.21875,-0.59395 0.0412,-0.2031 0.0729,-0.46711 0.0937,-0.6563 0.0208,-0.18919 0.0458,-0.33975 0,-0.625 -0.0458,-0.28525 -0.14176,-0.65529 -0.2188,-0.9063 -0.077,-0.25101 -0.18828,-0.34231 -0.2812,-0.49995 -0.0929,-0.15764 -0.25555,-0.33872 -0.375,-0.46875 0.44792,-0.44792 0.89583,-0.89583 1.34375,-1.34375 -0.57066,-0.66746 -1.16261,-1.31609 -1.75,-1.96875 -0.18615,-0.20657 -0.35854,-0.34885 -0.5,-0.46875 -0.13733,-0.11757 -0.30782,-0.27023 -0.5625,-0.4375 -0.60135,-0.39494 -1.28563,-0.67355 -1.96875,-0.875 -0.68563,-0.20219 -1.41277,-0.322 -2.15625,-0.375 -1.1496,-0.082 -2.24757,0.0126 -3.25,0.3125 -0.33869,0.10139 -0.66969,0.23405 -0.96875,0.375 l -0.1875,0.0937 0,-0.9375 -1.25,0 0.84375,-1.6875 -2.5,0 -1.28125,-3.5625 z"
         style="font-size:medium;font-style:normal;font-variant:normal;font-weight:normal;font-stretch:normal;text-indent:0;text-align:start;text-decoration:none;line-height:normal;letter-spacing:normal;word-spacing:normal;text-transform:none;direction:ltr;block-progression:tb;writing-mode:lr-tb;text-anchor:start;baseline-shift:baseline;color:black;fill:white;fill-opacity:1;stroke:none;stroke-width:2;marker:none;visibility:visible;display:inline;overflow:visible;enable-background:accumulate;font-family:Sans;-inkscape-font-specification:Sans" />
      <path
         sodipodi:nodetypes="ccccccccsccssccsscccccccccccscccccccccccccscccccccccccccccccscssczzcczcccccccsscsscccccccccccccccc"
         inkscape:connector-curvature="0"
         id="path11615"
         d="m 135.40625,763.29968 -2.125,2.125 c -0.12177,0.29373 -0.25256,0.58157 -0.375,0.875 -0.7915,0.0547 -1.58326,0.10572 -2.375,0.15625 L 128.5,768.48718 c -0.16998,0.0379 -0.33439,0.0721 -0.5,0.125 l 0,-0.25 -5.96875,0 c 0.40627,-0.42833 0.5634,-0.96525 0.71875,-1.4063 0.0595,-0.16897 0.0625,-0.34312 0.0625,-0.53125 0.0166,-0.31899 -0.078,-0.61008 -0.125,-0.9063 -0.0801,-0.29056 -0.21838,-0.56213 -0.4375,-0.78125 l -0.0313,-0.0313 c -0.24528,-0.24528 -0.45497,-0.39882 -0.7187,-0.53125 -0.15652,-0.12793 -0.38693,-0.13656 -0.53125,-0.1875 -0.35448,-0.0917 -0.71783,-0.125 -1.09375,-0.125 -0.16338,0 -0.34059,0.0143 -0.5,0.0313 -0.31883,0.0339 -0.59727,0.11096 -0.875,0.25 -0.13886,0.0695 -0.28397,0.14486 -0.40625,0.25 l 0,0.0313 c -0.008,0.0115 -0.0263,0.0183 -0.0313,0.0313 l -0.0624,0.0625 0,-0.15625 -5.53125,0 -1.75,1.75 -1.1875,-1.75 -5.53125,0 -2.09375,2.09375 c -0.23754,-0.011 -0.47969,-0.0156 -0.71875,0 -0.40888,0.0267 -0.81355,0.0835 -1.21875,0.1875 -0.326718,0.0794 -0.650011,0.17859 -0.96875,0.3125 l 0,-2.59375 -5.53125,0 -1.75,1.75 -1.1875,-1.75 -5.53125,0 -2.125,2.125 0,13 6,0 2,-2 0,2 3.90625,0 c 2.032171,2.05096 5.23904,2.5976 7.84375,1.09375 0.44799,-0.25865 0.83097,-0.58097 1.1875,-0.9375 l 0.125,-0.15625 0.0313,0 3.90625,0 2,-2 0,2 21.71875,0 c 0.0178,0.0152 0.0468,0.0164 0.0625,0.0313 l -0.0313,0.0313 c 0.002,-0.002 0.0629,0.0524 0.21875,0.15625 0.0211,0.0146 0.006,0.0145 0.0313,0.0313 0.26145,0.17205 0.52089,0.2914 0.71875,0.375 l 0.0313,0 c 0.16869,0.0689 0.30455,0.112 0.34375,0.125 0.0377,0.0123 0.20987,0.0983 0.46875,0.15625 l 0.0313,0 c 0.788,0.15983 1.58921,0.0834 2.3125,-0.15625 0.6485,-0.21181 1.23441,-0.57816 1.71875,-1.0625 l 0.31235,-0.3125 c 1.03472,0.59534 2.2796,1.02239 3.71875,1.125 1.51409,0.10795 2.91041,-0.12322 4.03125,-0.59375 0.53869,-0.22614 1.04751,-0.51625 1.4375,-0.90625 0,0 1.77317,-1.8363 1.84375,-1.875 0.0706,-0.0387 0.22764,-0.2259 0.31255,-0.3125 0.0849,-0.0866 0.12199,-0.15019 0.21875,-0.25 0.2249,-0.28765 0.3111,-0.56422 0.4375,-0.84385 0.0423,-0.13629 0.0517,-0.28661 0.0625,-0.4375 0.0108,-0.15089 0.0137,-0.31721 0,-0.4375 -0.0343,-0.22222 -0.10557,-0.42213 -0.1563,-0.625 -0.11447,-0.35508 -0.38452,-0.6014 -0.59375,-0.875 -0.15325,-0.169 -0.33561,-0.3487 -0.53125,-0.5 l 1.375,-1.375 -1.125,-1.25 c -0.12797,-0.14201 -0.259,-0.25019 -0.40625,-0.375 -0.15218,-0.13029 -0.29793,-0.26281 -0.46875,-0.375 -0.49347,-0.32409 -1.07529,-0.56946 -1.6875,-0.75 -0.61221,-0.18054 -1.26126,-0.29554 -1.9375,-0.34375 -1.04324,-0.0744 -2.0404,0.0222 -2.90625,0.28125 -0.28862,0.0864 -0.55301,0.1902 -0.8125,0.3125 -0.16247,0.0766 -0.32423,0.1838 -0.46875,0.28125 -0.043,0.0301 -0.0836,0.0619 -0.125,0.0937 -0.11566,0.0858 -0.20837,0.18346 -0.3125,0.28125 -0.0266,0.0253 -0.0678,0.0365 -0.0937,0.0625 -0.0479,0.0476 -0.0795,0.10628 -0.125,0.15625 l -0.34375,0.3125 -0.1563,-0.0937 0,-0.84375 0,-1 -1,0 -0.28125,0 c -0.0865,-0.2113 -0.0769,-0.48174 -0.21875,-0.65625 -0.0113,-0.0139 -0.0197,-0.0177 -0.0313,-0.0313 l 0.5,-1 -1.59375,0 c -0.33169,-0.90364 -0.64974,-1.81054 -0.96875,-2.71875 z"
         style="font-size:medium;font-style:normal;font-variant:normal;font-weight:normal;font-stretch:normal;text-indent:0;text-align:start;text-decoration:none;line-height:normal;letter-spacing:normal;word-spacing:normal;text-transform:none;direction:ltr;block-progression:tb;writing-mode:lr-tb;text-anchor:start;color:black;fill:black;fill-opacity:1;fill-rule:nonzero;stroke:none;stroke-width:2;marker:none;visibility:visible;font-family:Sans;-inkscape-font-specification:Sans" />
      <path
         inkscape:connector-curvature="0"
         id="path11233"
         d="m 144.28429,768.86689 c -2.47899,-0.17674 -4.56821,0.79644 -4.66639,2.17365 -0.0982,1.37722 1.83183,2.63695 4.31081,2.81369 0.55089,0.0393 0.98155,0.29441 0.96191,0.56985 -0.0196,0.27544 -0.48214,0.4669 -1.03302,0.42762 -0.45907,-0.0327 -0.80738,-0.22135 -0.90846,-0.44072 l -3.93414,0.25211 c 0.50651,1.13184 2.44307,2.02261 4.70037,2.18355 2.75443,0.19638 5.06694,-0.76088 5.16513,-2.1381 0.0982,-1.37721 -2.05512,-2.65286 -4.80956,-2.84924 -0.55088,-0.0393 -0.98154,-0.29441 -0.96191,-0.56985 0.0196,-0.27545 0.48214,-0.4669 1.03303,-0.42762 0.34995,0.025 0.62436,0.15811 0.79266,0.30715 l 3.15704,-0.77746 c -0.74681,-0.82871 -2.20384,-1.4103 -3.80747,-1.52463 z"
         style="fill:url(#linearGradient4370);fill-opacity:1;stroke:none" />
      <path
         sodipodi:nodetypes="cccccccccccccc"
         inkscape:connector-curvature="0"
         id="path11235"
         d="m 86,765.36218 0,11 0,0 4,0 0,-6 2,3 2,-3 0,6 4,0 0,-11 -4,0 -2,3 -2,-3 z"
         style="fill:url(#linearGradient4367);fill-opacity:1;stroke:none" />
      <path
         style="fill:url(#linearGradient4364);fill-opacity:1;stroke:none"
         d="m 105,765.36218 0,11 0,0 4,0 0,-6 2,3 2,-3 0,6 4,0 0,-11 -4,0 -2,3 -2,-3 z"
         id="path11237"
         inkscape:connector-curvature="0"
         sodipodi:nodetypes="cccccccccccccc" />
      <path
         transform="matrix(-0.78654846,0,0,0.7865602,107.76495,766.5697)"
         d="M 1.9105703,4.504348 C 3.8411656,1.1604586 8.1169802,0.01475738 11.46087,1.9453527 14.804759,3.875948 15.95046,8.1517626 14.019865,11.495652 12.08927,14.839541 7.8134549,15.985243 4.4695656,14.054647 3.4067529,13.441032 2.5241855,12.558465 1.9105703,11.495652 L 7.9652176,8 z"
         sodipodi:ry="6.9913044"
         sodipodi:rx="6.9913044"
         sodipodi:cy="8"
         sodipodi:cx="7.9652176"
         id="path11241"
         style="fill:red;fill-opacity:1;fill-rule:nonzero;stroke:none"
         sodipodi:type="arc"
         sodipodi:start="3.6651914"
         sodipodi:end="8.9011792" />
      <path
         d="M 10,5 C 10,6.1045695 9.1045695,7 8,7 6.8954305,7 6,6.1045695 6,5 6,3.8954305 6.8954305,3 8,3 c 1.1045695,0 2,0.8954305 2,2 z"
         sodipodi:ry="2"
         sodipodi:rx="2"
         sodipodi:cy="5"
         sodipodi:cx="8"
         id="path11243"
         style="fill:white;fill-opacity:1;fill-rule:nonzero;stroke:none"
         sodipodi:type="arc"
         transform="matrix(-0.78557138,0,0,0.78558308,107.78449,766.57751)" />
      <path
         transform="matrix(-0.78557138,0,0,0.78558308,108.57006,766.57751)"
         d="M 9,5 C 9,5.5522847 8.5522847,6 8,6 7.4477153,6 7,5.5522847 7,5 7,4.4477153 7.4477153,4 8,4 8.5522847,4 9,4.4477153 9,5 z"
         sodipodi:ry="1"
         sodipodi:rx="1"
         sodipodi:cy="5"
         sodipodi:cx="8"
         id="path11245"
         style="fill:black;fill-opacity:1;fill-rule:nonzero;stroke:none"
         sodipodi:type="arc" />
      <rect
         style="fill:url(#linearGradient4358);fill-opacity:1;stroke:none"
         id="rect11247"
         width="4"
         height="7"
         x="118"
         y="769.36218" />
      <path
         inkscape:connector-curvature="0"
         style="fill:lime;fill-opacity:1;fill-rule:nonzero;stroke:none"
         d="m 119.86756,764.86218 c -1.16667,0 -1.55556,0.49612 -1.55556,1.55555 0,1.16667 0.38889,1.94445 1.55556,1.94445 1.16666,0 1.94444,-0.77778 1.94444,-1.94445 0,-1.16666 -0.77778,-1.55555 -1.94444,-1.55555 z"
         id="path11251"
         sodipodi:nodetypes="czzzz" />
      <path
         inkscape:connector-curvature="0"
         style="fill:#00a000;fill-opacity:1;fill-rule:nonzero;stroke:none"
         d="m 119.47867,765.63995 -1.14236,0.47396 c -0.008,0.0955 -0.0243,0.19692 -0.0243,0.30382 0,1.16667 0.38889,1.94445 1.55556,1.94445 0.48944,0 0.90359,-0.14383 1.22743,-0.38889 -0.34068,-0.0182 -1.06208,-0.0972 -1.34896,-0.38889 -0.38251,-0.38889 0.12153,-0.77778 0.12153,-0.77778 0,0 -0.7728,0.23548 -1.00868,-0.12153 -0.23589,-0.35701 0.61979,-1.04514 0.61979,-1.04514 z"
         id="path11253" />
      <path
         inkscape:connector-curvature="0"
         style="fill:#c1ffc1;fill-opacity:1;fill-rule:nonzero;stroke:none"
         d="m 119.86756,764.86218 c -0.25964,0 -0.46937,0.0352 -0.65625,0.0851 0.0967,-0.009 0.65625,-0.0531 0.65625,0.30382 0,0.32748 0,0.65111 0,0.77777 0.0182,-0.25819 0.0972,-0.77777 0.38889,-0.77777 0.38461,0 1.07832,0.0118 1.09375,0.0122 -0.34199,-0.28581 -0.85485,-0.40104 -1.48264,-0.40104 z"
         id="path11255" />
      <path
         inkscape:connector-curvature="0"
         style="fill:#c1ffc1;fill-opacity:1;fill-rule:nonzero;stroke:none"
         d="m 121.31374,765.22676 -0.0365,0.0243 0.21875,0.15798 c -0.0554,-0.0659 -0.11366,-0.1296 -0.18229,-0.18229 z m 0.18229,0.18229 c 0,0 -0.74232,0.16914 -0.8507,0.44965 -0.10837,0.28051 0.38889,0.34028 0.38889,0.34028 0,0 -0.38889,0.21875 -0.38889,0.60764 0,0.38889 0.19445,0.94792 0.19445,0.94792 0,0 -0.19445,-0.76941 0.19444,-0.94792 0.38889,-0.17851 0.72917,0.0729 0.72917,0.0729 0.0296,-0.14748 0.0486,-0.2979 0.0486,-0.46181 0,-0.44155 -0.11423,-0.76887 -0.31597,-1.00868 z"
         id="path11257" />
      <path
         inkscape:connector-curvature="0"
         id="path11259"
         d="m 123,769.36218 0,7 4,0 0,-4 c 0,-0.55228 0.44772,-1 1,-1 0.55228,0 1,0.44772 1,1 l 0,4 4,0 0,-4 c 0,-1.65685 -1.567,-3 -3.5,-3 -0.98376,0 -1.86415,0.34618 -2.5,0.90625 l 0,-0.90625 -4,0 z"
         style="fill:url(#linearGradient4351);fill-opacity:1;stroke:none" />
      <path
         sodipodi:type="arc"
         style="fill:gray;fill-opacity:1;fill-rule:nonzero;stroke:none"
         id="path11263"
         sodipodi:cx="19.5"
         sodipodi:cy="21.5"
         sodipodi:rx="10.5"
         sodipodi:ry="10.5"
         d="M 30,21.5 C 30,27.29899 25.29899,32 19.5,32 13.70101,32 9,27.29899 9,21.5 9,15.70101 13.70101,11 19.5,11 25.29899,11 30,15.70101 30,21.5 z"
         transform="matrix(0.33333333,0,0,0.33332158,130,766.69589)" />
      <rect
         style="fill:#909090;fill-opacity:1;fill-rule:nonzero;stroke:none"
         id="rect11265"
         width="1.6666666"
         height="0.66664314"
         x="135.66667"
         y="770.02911" />
      <path
         inkscape:connector-curvature="0"
         sodipodi:nodetypes="czz"
         id="path11267"
         d="m 136.5293,768.69582 c 0,-0.33402 -0.0677,-0.50887 -0.19596,-0.66665 -0.12825,-0.15777 -0.4256,-0.29621 -0.66667,-0.33332"
         style="fill:none;stroke:#e00000;stroke-width:0.06946895;stroke-linecap:round;stroke-linejoin:round;stroke-miterlimit:4;stroke-opacity:1;stroke-dasharray:none;stroke-dashoffset:0" />
      <rect
         style="fill:#909090;fill-opacity:1;fill-rule:nonzero;stroke:none"
         id="rect11269"
         width="3"
         height="1.3332863"
         x="135"
         y="768.6958" />
      <path
         inkscape:connector-curvature="0"
         style="fill:#606060;fill-opacity:1;fill-rule:nonzero;stroke:none"
         d="m 134.02513,771.38751 c -1.36613,1.36609 -1.36613,3.5835 0,4.94958 1.36613,1.36608 3.58362,1.36608 4.94975,0 -0.8457,0.84567 -2.64081,0.4233 -4.00694,-0.94278 -1.36613,-1.36608 -1.78851,-3.16113 -0.94281,-4.0068 z"
         id="path11271"
         inkscape:transform-center-y="1.5368963"
         inkscape:transform-center-x="1.5368965" />
      <path
         inkscape:connector-curvature="0"
         style="fill:#606060;fill-opacity:1;fill-rule:nonzero;stroke:none"
         d="m 135.66667,770.0291 0,0.66665 0.66667,0 L 136,770.0291 l -0.33333,0 z"
         id="path11273" />
      <path
         inkscape:connector-curvature="0"
         inkscape:transform-center-y="-1.5368969"
         id="path11275"
         d="m 138.97488,776.33709 c 1.36613,-1.36608 1.36613,-3.58349 0,-4.94958 -1.36613,-1.36608 -3.58362,-1.36608 -4.94975,0 0.8457,-0.84566 2.64081,-0.4233 4.00694,0.94278 1.36613,1.36608 1.78851,3.16113 0.94281,4.0068 z"
         style="fill:#909090;fill-opacity:1;fill-rule:nonzero;stroke:none"
         inkscape:transform-center-x="-1.536897" />
      <path
         inkscape:connector-curvature="0"
         style="fill:#606060;fill-opacity:1;fill-rule:nonzero;stroke:none"
         d="m 135,768.69582 0,1.33328 1.33334,0 -0.66667,-1.33328 -0.66667,0 z"
         id="path11277" />
      <rect
         style="fill:#606060;fill-opacity:1;fill-rule:nonzero;stroke:none"
         id="rect11279"
         width="2.2249157"
         height="0.33332157"
         x="135.77509"
         y="769.6958" />
      <path
         inkscape:connector-curvature="0"
         style="fill:silver;fill-opacity:1;fill-rule:nonzero;stroke:none"
         d="m 137.22917,771.12282 -0.34375,1.29162 c 0.53319,0.14286 0.91963,0.52929 1.0625,1.06246 l 1.29167,-0.34374 c -0.26987,-1.0071 -1.00328,-1.74049 -2.01042,-2.01034 z"
         id="path11281" />
      <path
         inkscape:connector-curvature="0"
         style="fill:yellow;fill-opacity:1;fill-rule:nonzero;stroke:none"
         d="m 134.89594,767.18967 -1.3756,0.0767 1.14633,0.76276 -0.33333,0.99997 1,-0.66664 1,0.66664 -0.33334,-1.33329 0.33334,-0.66664 -0.66667,0 -0.33333,-0.91703 -0.4374,1.07749 z"
         id="path11283"
         sodipodi:nodetypes="ccccccccccc" />
    </g>
  </g>
</svg>
