<?xml version="1.0" encoding="UTF-8" standalone="no"?>
<!-- Created with Inkscape (http://www.inkscape.org/) -->

<svg
   xmlns:dc="http://purl.org/dc/elements/1.1/"
   xmlns:cc="http://creativecommons.org/ns#"
   xmlns:rdf="http://www.w3.org/1999/02/22-rdf-syntax-ns#"
   xmlns:svg="http://www.w3.org/2000/svg"
   xmlns="http://www.w3.org/2000/svg"
   xmlns:xlink="http://www.w3.org/1999/xlink"
   xmlns:sodipodi="http://sodipodi.sourceforge.net/DTD/sodipodi-0.dtd"
   xmlns:inkscape="http://www.inkscape.org/namespaces/inkscape"
   width="128"
   height="32"
   id="svg2"
   version="1.1"
   inkscape:version="0.48.5 r10040"
   sodipodi:docname="logo.svg"
   inkscape:export-filename="logo_64.png"
   inkscape:export-xdpi="180"
   inkscape:export-ydpi="180">
  <defs
     id="defs4">
    <inkscape:perspective
       sodipodi:type="inkscape:persp3d"
       inkscape:vp_x="0 : 526.18109 : 1"
       inkscape:vp_y="0 : 1000 : 0"
       inkscape:vp_z="744.09448 : 526.18109 : 1"
       inkscape:persp3d-origin="372.04724 : 350.78739 : 1"
       id="perspective10" />
    <linearGradient
       inkscape:collect="always"
       xlink:href="#linearGradient5105"
       id="linearGradient4305"
       gradientUnits="userSpaceOnUse"
       x1="92"
       y1="740.36218"
       x2="92"
       y2="752.36218" />
    <linearGradient
       id="linearGradient5105">
      <stop
         style="stop-color:#fc0;stop-opacity:1;"
         offset="0"
         id="stop5107" />
      <stop
         style="stop-color:white;stop-opacity:1;"
         offset="1"
         id="stop5109" />
    </linearGradient>
    <linearGradient
       inkscape:collect="always"
       xlink:href="#linearGradient5105"
       id="linearGradient4302"
       gradientUnits="userSpaceOnUse"
       x1="111"
       y1="740.36218"
       x2="111"
       y2="752.36218" />
    <linearGradient
       id="linearGradient4798">
      <stop
         style="stop-color:#fc0;stop-opacity:1;"
         offset="0"
         id="stop4800" />
      <stop
         style="stop-color:white;stop-opacity:1;"
         offset="1"
         id="stop4802" />
    </linearGradient>
    <linearGradient
       inkscape:collect="always"
       xlink:href="#linearGradient5105"
       id="linearGradient4299"
       gradientUnits="userSpaceOnUse"
       x1="120"
       y1="740.36218"
       x2="120"
       y2="752.36218" />
    <linearGradient
       id="linearGradient4805">
      <stop
         style="stop-color:#fc0;stop-opacity:1;"
         offset="0"
         id="stop4807" />
      <stop
         style="stop-color:white;stop-opacity:1;"
         offset="1"
         id="stop4809" />
    </linearGradient>
    <linearGradient
       inkscape:collect="always"
       xlink:href="#linearGradient5105"
       id="linearGradient4281"
       gradientUnits="userSpaceOnUse"
       x1="128"
       y1="741.36218"
       x2="128"
       y2="752.36218" />
    <linearGradient
       id="linearGradient4812">
      <stop
         style="stop-color:#fc0;stop-opacity:1;"
         offset="0"
         id="stop4814" />
      <stop
         style="stop-color:white;stop-opacity:1;"
         offset="1"
         id="stop4816" />
    </linearGradient>
    <linearGradient
       inkscape:collect="always"
       xlink:href="#linearGradient5105"
       id="linearGradient4278"
       gradientUnits="userSpaceOnUse"
       x1="144"
       y1="739.36218"
       x2="144"
       y2="752.36218" />
    <linearGradient
       id="linearGradient4819">
      <stop
         style="stop-color:#fc0;stop-opacity:1;"
         offset="0"
         id="stop4821" />
      <stop
         style="stop-color:white;stop-opacity:1;"
         offset="1"
         id="stop4823" />
    </linearGradient>
  </defs>
  <sodipodi:namedview
     id="base"
     pagecolor="#ffffff"
     bordercolor="#666666"
     borderopacity="1.0"
     inkscape:pageopacity="0.0"
     inkscape:pageshadow="2"
     inkscape:zoom="7.0146635"
     inkscape:cx="64"
     inkscape:cy="16"
     inkscape:document-units="px"
     inkscape:current-layer="g4312"
     showgrid="true"
     units="px"
     objecttolerance="10000"
     gridtolerance="10000"
     guidetolerance="10000"
     inkscape:window-width="1024"
     inkscape:window-height="741"
     inkscape:window-x="0"
     inkscape:window-y="2"
     inkscape:window-maximized="1"
     fit-margin-top="0"
     fit-margin-left="0"
     fit-margin-right="0"
     fit-margin-bottom="0">
    <inkscape:grid
       type="xygrid"
       id="grid4954"
       empspacing="4"
       visible="true"
       enabled="true"
       snapvisiblegridlinesonly="true" />
  </sodipodi:namedview>
  <metadata
     id="metadata7">
    <rdf:RDF>
      <cc:Work
         rdf:about="">
        <dc:format>image/svg+xml</dc:format>
        <dc:type
           rdf:resource="http://purl.org/dc/dcmitype/StillImage" />
        <dc:title></dc:title>
        <dc:creator>
          <cc:Agent>
            <dc:title>Andreas Neudecker &lt;zapyon@gmx.net&gt;</dc:title>
          </cc:Agent>
        </dc:creator>
        <dc:source />
      </cc:Work>
    </rdf:RDF>
  </metadata>
  <g
     inkscape:label="Ebene 1"
     inkscape:groupmode="layer"
     id="layer1"
     transform="translate(-407.94818,-671.47871)">
    <g
       transform="matrix(1.5266671,0,0,1.5266671,294.1868,-448.28375)"
       id="g4312">
      <path
         sodipodi:nodetypes="cccccccsssszscccccccccccccccccccccccccscccccccccccccccc"
         inkscape:connector-curvature="0"
         id="path4308"
         d="m 135.875,733.46875 -3.40625,3.40625 -0.1875,0.5 -2.1875,0.125 -1.90625,1.90625 -4.59375,0 c 0.24273,-0.52817 0.19947,-1.17247 0.18745,-1.5626 -0.009,-0.69884 -0.54538,-1.35178 -0.78125,-1.7188 -0.23587,-0.36702 -0.6492,-0.57785 -0.8437,-0.6875 -0.21422,-0.12076 -0.53922,-0.24323 -0.9375,-0.375 -0.27287,-0.0903 -0.90875,-0.15625 -1.34375,-0.15625 -0.40204,0 -0.81311,0.0381 -1.21875,0.15625 -0.19853,0.0578 -0.39226,0.21167 -0.59375,0.3125 l -0.0625,0 -14.4,0 -2.1,2.09375 c -0.49338,0.014 -1.00157,0.0246 -1.46875,0.125 l -0.0313,0 0,-2.21875 -7.40625,0 -0.5937,0.56265 0,-0.5625 -7.40625,0 -2.71875,2.6875 0,14.4375 7.40625,0 0.59375,-0.59375 0,0.59375 4.625,0 c 2.34442,2.05539 5.77985,2.61142 8.625,0.96875 0.4463,-0.22442 0.86429,-0.63175 1.21885,-0.9376 l 3.9375,0 0.59375,-0.59375 0,0.59375 22.3125,0 c 0.0607,0.0495 0.0744,0.0745 0.15625,0.125 0.56845,0.35105 1.22892,0.63582 1.96875,0.75 0.92302,0.14245 1.87712,0.058 2.75,-0.1875 0.30356,-0.0854 0.53837,-0.26784 0.8125,-0.40625 l 0,0.71875 9.40625,0 4.71875,-4.71875 0,-5.40625 -1,0 0,-4.03125 -2,0 0,-1 -7.40625,0 -0.59375,0.5625 0,-0.1875 c -0.41667,0 -0.83333,0 -1.25,0 l 0.84375,-1.6875 -2.53125,0 -1.1875,-3.59375 z"
         style="font-size:medium;font-style:normal;font-variant:normal;font-weight:normal;font-stretch:normal;text-indent:0;text-align:start;text-decoration:none;line-height:normal;letter-spacing:normal;word-spacing:normal;text-transform:none;direction:ltr;block-progression:tb;writing-mode:lr-tb;text-anchor:start;baseline-shift:baseline;color:black;fill:white;fill-opacity:1;stroke:none;stroke-width:2;marker:none;visibility:visible;display:inline;overflow:visible;enable-background:accumulate;font-family:Sans;-inkscape-font-specification:Sans" />
      <path
         style="font-size:medium;font-style:normal;font-variant:normal;font-weight:normal;font-stretch:normal;text-indent:0;text-align:start;text-decoration:none;line-height:normal;letter-spacing:normal;word-spacing:normal;text-transform:none;direction:ltr;block-progression:tb;writing-mode:lr-tb;text-anchor:start;color:black;fill:black;fill-opacity:1;fill-rule:nonzero;stroke:none;stroke-width:2;marker:none;visibility:visible;font-family:Sans;-inkscape-font-specification:Sans"
         d="m 135.4375,735.33093 -2.125,2.125 -0.375,0.875 -2.40625,0.15625 -1.90625,1.90625 -6.59375,0 c 0.10981,-0.12611 0.22122,-0.26552 0.3125,-0.40625 0.005,-0.008 -0.006,-0.0242 0,-0.0313 0.12041,-0.14534 0.18735,-0.33122 0.25,-0.4688 0.14634,-0.32138 0.21898,-0.65927 0.21875,-1.03125 -1e-4,-0.16555 -0.0134,-0.32299 -0.0313,-0.4688 -0.0553,-0.45064 -0.20406,-0.88862 -0.53125,-1.21875 -0.22805,-0.2301 -0.45626,-0.395 -0.74995,-0.5625 -0.16564,-0.0945 -0.38238,-0.14481 -0.53125,-0.1874 -0.35207,-0.10073 -0.7178,-0.125 -1.09375,-0.125 -0.32675,0 -0.63502,0.0369 -0.9375,0.125 -0.30248,0.0881 -0.6052,0.22044 -0.84375,0.4375 -0.0302,0.0275 -0.0592,0.0395 -0.0937,0.0626 l 0,-0.1563 -6,0 0,0.0313 -1,0.96875 -1,0 0,-1 -6,0 0,0.0313 -2.0625,2.03125 c -0.56305,-0.0288 -1.12409,0.0352 -1.6875,0.15625 -0.41895,0.09 -0.843,0.20402 -1.25,0.375 l 0,-2.59375 -6,0 -1,1 -1,0 0,-1 -6,0 -2.125,2.125 0,13 6,0 2,-2 0,2 3.90625,0 c 2.031937,2.054 5.23752,2.62973 7.84375,1.125 0.50669,-0.27797 0.9015,-0.69783 1.3125,-1.09375 l 3.9375,0 2,-2 0,2 21.6875,0 c 0.10623,0.10949 0.1933,0.20761 0.31255,0.28125 0.48555,0.29985 1.02986,0.53796 1.59385,0.625 0.76355,0.11784 1.56877,0.0529 2.3125,-0.15625 0.52028,-0.14633 1.0094,-0.413 1.4375,-0.75 l 0.65625,0 0,1 8,0 4.125,-4.125 0,-4 -1,0 0,-4.03125 -2,0 0,-1 -6,0 -1,1 -1,0 0,-0.625 -1,0 -0.78125,0 c -0.0199,-0.039 -0.008,-0.0881 -0.0313,-0.125 l 0.0625,-0.125 0.71875,-1.4375 -1.625,0 z"
         id="path9330"
         inkscape:connector-curvature="0"
         sodipodi:nodetypes="ccccccsssssssssssccccccccccscccccccccccccccccccaaaccccccccccccccccccccc" />
      <path
         inkscape:connector-curvature="0"
         id="path4156"
         d="m 86,737.36218 0,11 4,0 0,-6 1,0 0,1 0,1 1,0 1,0 0,-1 0,-1 1,0 0,6 4,0 0,-11 -4,0 0,1 -1,0 0,1 0,1 -1,0 -1,0 0,-1 0,-1 -1,0 0,-1 -4,0 z"
         style="fill:url(#linearGradient4305);fill-opacity:1;stroke:none" />
      <path
         style="fill:url(#linearGradient4302);fill-opacity:1;stroke:none"
         d="m 105,737.36218 0,11 4,0 0,-6 1,0 0,1 0,1 1,0 1,0 0,-1 0,-1 1,0 0,6 4,0 0,-11 -4,0 0,1 -1,0 0,1 0,1 -1,0 -1,0 0,-1 0,-1 -1,0 0,-1 -4,0 z"
         id="path4158"
         inkscape:connector-curvature="0" />
      <rect
         y="741.36218"
         x="118"
         height="7"
         width="4"
         id="rect4160"
         style="fill:url(#linearGradient4299);fill-opacity:1;stroke:none" />
      <path
         sodipodi:nodetypes="czzzz"
         id="path4162"
         d="m 119.86756,736.86218 c -1.16667,0 -1.55556,0.49612 -1.55556,1.55555 0,1.16667 0.38889,1.94445 1.55556,1.94445 1.16666,0 1.94444,-0.77778 1.94444,-1.94445 0,-1.16666 -0.77778,-1.55555 -1.94444,-1.55555 z"
         style="fill:lime;fill-opacity:1;fill-rule:nonzero;stroke:none"
         inkscape:connector-curvature="0" />
      <path
         id="path4164"
         d="m 119.47867,737.63995 -1.14237,0.47396 c -0.008,0.0955 -0.0243,0.19692 -0.0243,0.30382 0,1.16667 0.38889,1.94445 1.55556,1.94445 0.48944,0 0.90359,-0.14383 1.22743,-0.38889 -0.34068,-0.0182 -1.06207,-0.0972 -1.34896,-0.38889 -0.38251,-0.38889 0.12153,-0.77778 0.12153,-0.77778 0,0 -0.7728,0.23548 -1.00868,-0.12153 -0.23588,-0.35701 0.61979,-1.04514 0.61979,-1.04514 z"
         style="fill:#00a000;fill-opacity:1;fill-rule:nonzero;stroke:none"
         inkscape:connector-curvature="0" />
      <path
         id="path4166"
         d="m 119.86756,736.86218 c -0.25965,0 -0.46937,0.0352 -0.65625,0.0851 0.0967,-0.009 0.65625,-0.0531 0.65625,0.30382 0,0.32748 0,0.65111 0,0.77777 0.0182,-0.25819 0.0972,-0.77777 0.38888,-0.77777 0.38462,0 1.07833,0.0118 1.09375,0.0122 -0.34198,-0.28581 -0.85484,-0.40104 -1.48263,-0.40104 z"
         style="fill:#c1ffc1;fill-opacity:1;fill-rule:nonzero;stroke:none"
         inkscape:connector-curvature="0" />
      <path
         id="path4168"
         d="m 121.31374,737.22676 -0.0365,0.0243 0.21875,0.15798 c -0.0554,-0.0659 -0.11366,-0.1296 -0.1823,-0.18229 z m 0.18229,0.18229 c 0,0 -0.74232,0.16914 -0.8507,0.44965 -0.10838,0.28051 0.38889,0.34028 0.38889,0.34028 0,0 -0.38889,0.21875 -0.38889,0.60764 0,0.38889 0.19445,0.94792 0.19445,0.94792 0,0 -0.19445,-0.76941 0.19444,-0.94792 0.38889,-0.17851 0.72917,0.0729 0.72917,0.0729 0.0296,-0.14748 0.0486,-0.2979 0.0486,-0.46181 0,-0.44155 -0.11424,-0.76887 -0.31597,-1.00868 z"
         style="fill:#c1ffc1;fill-opacity:1;fill-rule:nonzero;stroke:none"
         inkscape:connector-curvature="0" />
      <path
         transform="matrix(0.33333333,0,0,0.33332158,130,738.69589)"
         d="M 30,21.5 C 30,27.29899 25.29899,32 19.5,32 13.70101,32 9,27.29899 9,21.5 9,15.70101 13.70101,11 19.5,11 25.29899,11 30,15.70101 30,21.5 z"
         sodipodi:ry="10.5"
         sodipodi:rx="10.5"
         sodipodi:cy="21.5"
         sodipodi:cx="19.5"
         id="path4172"
         style="fill:gray;fill-opacity:1;fill-rule:nonzero;stroke:none"
         sodipodi:type="arc" />
      <rect
         y="742.02911"
         x="135.66666"
         height="0.66664314"
         width="1.6666666"
         id="rect4174"
         style="fill:#909090;fill-opacity:1;fill-rule:nonzero;stroke:none" />
      <path
         style="fill:none;stroke:#e00000;stroke-width:0.65502167;stroke-linecap:round;stroke-linejoin:round;stroke-miterlimit:4;stroke-opacity:1;stroke-dasharray:none;stroke-dashoffset:0"
         d="m 136.52929,740.69582 c 0,-0.33402 -0.0677,-0.50887 -0.19596,-0.66665 -0.12825,-0.15777 -0.42559,-0.29621 -0.66666,-0.33332"
         id="path4176"
         sodipodi:nodetypes="czz"
         inkscape:connector-curvature="0" />
      <rect
         y="740.6958"
         x="135"
         height="1.3332863"
         width="3"
         id="rect4178"
         style="fill:#909090;fill-opacity:1;fill-rule:nonzero;stroke:none" />
      <path
         inkscape:transform-center-x="1.5368965"
         inkscape:transform-center-y="1.5368963"
         id="path4180"
         d="m 134.02513,743.38751 c -1.36613,1.36609 -1.36613,3.5835 0,4.94958 1.36613,1.36608 3.58361,1.36608 4.94974,0 -0.8457,0.84567 -2.6408,0.4233 -4.00694,-0.94278 -1.36613,-1.36608 -1.7885,-3.16113 -0.9428,-4.0068 z"
         style="fill:#606060;fill-opacity:1;fill-rule:nonzero;stroke:none"
         inkscape:connector-curvature="0" />
      <path
         id="path4182"
         d="m 135.66667,742.0291 0,0.66665 0.66666,0 L 136,742.0291 l -0.33333,0 z"
         style="fill:#606060;fill-opacity:1;fill-rule:nonzero;stroke:none"
         inkscape:connector-curvature="0" />
      <path
         inkscape:transform-center-x="-1.536897"
         style="fill:#909090;fill-opacity:1;fill-rule:nonzero;stroke:none"
         d="m 138.97487,748.33709 c 1.36613,-1.36608 1.36613,-3.58349 0,-4.94958 -1.36613,-1.36608 -3.58361,-1.36608 -4.94974,0 0.84569,-0.84566 2.6408,-0.4233 4.00693,0.94278 1.36613,1.36608 1.78851,3.16113 0.94281,4.0068 z"
         id="path4184"
         inkscape:transform-center-y="-1.5368969"
         inkscape:connector-curvature="0" />
      <path
         id="path4186"
         d="m 135,740.69582 0,1.33328 1.33333,0 -0.66666,-1.33328 -0.66667,0 z"
         style="fill:#606060;fill-opacity:1;fill-rule:nonzero;stroke:none"
         inkscape:connector-curvature="0" />
      <rect
         y="741.6958"
         x="135.77509"
         height="0.33332157"
         width="2.2249157"
         id="rect4188"
         style="fill:#606060;fill-opacity:1;fill-rule:nonzero;stroke:none" />
      <path
         id="path4190"
         d="m 137.22917,743.12282 -0.34375,1.29162 c 0.53319,0.14286 0.91963,0.52929 1.0625,1.06246 l 1.29166,-0.34374 c -0.26986,-1.0071 -1.00328,-1.74049 -2.01041,-2.01034 z"
         style="fill:silver;fill-opacity:1;fill-rule:nonzero;stroke:none"
         inkscape:connector-curvature="0" />
      <path
         sodipodi:nodetypes="ccccccccccc"
         id="path4192"
         d="m 134.89593,739.18967 -1.37559,0.0767 1.14633,0.76276 -0.33334,0.99997 1,-0.66664 1,0.66664 -0.33333,-1.33329 0.33333,-0.66664 -0.66666,0 -0.33334,-0.91703 -0.4374,1.07749 z"
         style="fill:yellow;fill-opacity:1;fill-rule:nonzero;stroke:none"
         inkscape:connector-curvature="0" />
      <path
         id="path4194"
         d="m 123,741.36218 0,7 4,0 0,-4 1,0 0,-1 1,0 0,1 0,4 4,0 0,-4 0,-1 0,-1 -2,0 0,-1 -3,0 0,1 -1,0 0,-1 -4,0 z"
         style="fill:url(#linearGradient4281);fill-opacity:1;stroke:none"
         inkscape:connector-curvature="0" />
      <path
         id="path4196"
         d="m 142,740.36218 0,1 -2,0 0,1 -1,0 0,1 1,0 0,1 1,0 0,1 3,0 0,1 1,0 0,1 -2,0 0,-1 -4,0 0,1 1,0 0,1 1,0 0,1 6,0 0,-1 1,0 0,-1 1,0 0,-1 0,-1 -1,0 0,-1 -4,0 0,-1 -1,0 0,-1 2,0 0,1 3,0 0,-1 0,-1 -2,0 0,-1 -4,0 z"
         style="fill:url(#linearGradient4278);fill-opacity:1;stroke:none"
         inkscape:connector-curvature="0" />
      <path
         sodipodi:end="8.9011792"
         sodipodi:start="3.6651914"
         sodipodi:type="arc"
         style="fill:red;fill-opacity:1;fill-rule:nonzero;stroke:none"
         id="path4200"
         sodipodi:cx="7.9652176"
         sodipodi:cy="8"
         sodipodi:rx="6.9913044"
         sodipodi:ry="6.9913044"
         d="M 1.9105703,4.504348 C 3.8411656,1.1604586 8.1169802,0.01475738 11.46087,1.9453527 14.804759,3.875948 15.95046,8.1517626 14.019865,11.495652 12.08927,14.839541 7.8134549,15.985243 4.4695656,14.054647 3.4067529,13.441032 2.5241855,12.558465 1.9105703,11.495652 L 7.9652176,8 z"
         transform="matrix(-0.78654846,0,0,0.7865602,107.76495,738.5697)" />
      <path
         transform="matrix(-0.78557138,0,0,0.78558308,107.78449,738.57751)"
         sodipodi:type="arc"
         style="fill:white;fill-opacity:1;fill-rule:nonzero;stroke:none"
         id="path4202"
         sodipodi:cx="8"
         sodipodi:cy="5"
         sodipodi:rx="2"
         sodipodi:ry="2"
         d="M 10,5 C 10,6.1045695 9.1045695,7 8,7 6.8954305,7 6,6.1045695 6,5 6,3.8954305 6.8954305,3 8,3 c 1.1045695,0 2,0.8954305 2,2 z" />
      <path
         sodipodi:type="arc"
         style="fill:black;fill-opacity:1;fill-rule:nonzero;stroke:none"
         id="path4204"
         sodipodi:cx="8"
         sodipodi:cy="5"
         sodipodi:rx="1"
         sodipodi:ry="1"
         d="M 9,5 C 9,5.5522847 8.5522847,6 8,6 7.4477153,6 7,5.5522847 7,5 7,4.4477153 7.4477153,4 8,4 8.5522847,4 9,4.4477153 9,5 z"
         transform="matrix(-0.78557138,0,0,0.78558308,108.57006,738.57751)" />
    </g>
  </g>
</svg>
