<?xml version="1.0" encoding="UTF-8" standalone="no"?>
<!-- Created with Inkscape (http://www.inkscape.org/) -->
<svg id="svg2" xmlns:rdf="http://www.w3.org/1999/02/22-rdf-syntax-ns#" xmlns="http://www.w3.org/2000/svg" height="64" width="212" version="1.1" xmlns:cc="http://creativecommons.org/ns#" xmlns:xlink="http://www.w3.org/1999/xlink" xmlns:dc="http://purl.org/dc/elements/1.1/">
 <title id="title3928">McMinos logo</title>
 <defs id="defs4">
  <linearGradient id="linearGradient3146" y2="752.36" gradientUnits="userSpaceOnUse" x2="92" gradientTransform="matrix(2 0 0 2 -88.773 -754.43)" y1="740.36" x1="92">
   <stop id="stop5107" stop-color="#fc0" offset="0"/>
   <stop id="stop5109" stop-color="#fff" offset="1"/>
  </linearGradient>
 </defs>
 <metadata id="metadata7">
  <rdf:RDF>
   <cc:Work rdf:about="">
    <dc:format>image/svg+xml</dc:format>
    <dc:type rdf:resource="http://purl.org/dc/dcmitype/StillImage"/>
    <dc:title>McMinos logo</dc:title>
    <dc:creator>
     <cc:Agent>
      <dc:title>Andreas Neudecker &lt;zapyon@gmx.net&gt;</dc:title>
     </cc:Agent>
    </dc:creator>
    <dc:source>http://www.mcminos.com/</dc:source>
    <dc:date>2015-12-20</dc:date>
    <dc:rights>
     <cc:Agent>
      <dc:title>Copyright © 2015 by Andreas Neudecker</dc:title>
     </cc:Agent>
    </dc:rights>
    <dc:publisher>
     <cc:Agent>
      <dc:title>Andreas Neudecker &lt;zapyon@gmx.net&gt;</dc:title>
     </cc:Agent>
    </dc:publisher>
    <dc:identifier>mcminos-logo-web</dc:identifier>
    <dc:language>any</dc:language>
    <dc:subject>
     <rdf:Bag>
      <rdf:li>McMinos</rdf:li>
      <rdf:li>video game</rdf:li>
      <rdf:li>Videospiel</rdf:li>
      <rdf:li>retro game</rdf:li>
      <rdf:li>Atari game</rdf:li>
      <rdf:li>Android game</rdf:li>
      <rdf:li>Linux game</rdf:li>
      <rdf:li>mobile game</rdf:li>
     </rdf:Bag>
    </dc:subject>
   </cc:Work>
  </rdf:RDF>
 </metadata>
 <g id="layer1" transform="translate(-408.18 -639.48)">
  <g id="g4312" transform="matrix(1.5267 0 0 1.5267 294.19 -448.28)">
   <path id="path4308" style="block-progression:tb;text-indent:0;color:black;text-transform:none" d="m182.98 712.51-6.8125 6.8125-0.375 1-4.375 0.25-3.8125 3.8125h-9.1875c0.48546-1.0563 0.39894-2.3449 0.3749-3.1252-0.018-1.3977-1.0908-2.7036-1.5625-3.4376-0.47174-0.73404-1.2984-1.1557-1.6874-1.375-0.42844-0.24152-1.0784-0.48646-1.875-0.75-0.54574-0.1806-1.8175-0.3125-2.6875-0.3125-0.80408 0-1.6262 0.0762-2.4375 0.3125-0.39706 0.1156-0.78452 0.42334-1.1875 0.625h-0.125-28.8l-4.2 4.1875c-0.98676 0.028-2.0031 0.0492-2.9375 0.25h-0.0626v-4.4375h-14.812l-1.1874 1.1253v-1.125h-14.812l-5.4375 5.375v28.875h14.812l1.1875-1.1875v1.1875h9.25c4.6888 4.1108 11.56 5.2228 17.25 1.9375 0.8926-0.44884 1.7286-1.2635 2.4377-1.8752h7.875l1.1875-1.1875v1.1875h44.625c0.1214 0.099 0.1488 0.149 0.3125 0.25 1.1369 0.7021 2.4578 1.2716 3.9375 1.5 1.846 0.2849 3.7542 0.116 5.5-0.375 0.60712-0.1708 1.0767-0.53568 1.625-0.8125v1.4375h18.812l9.4375-9.4375v-10.812h-2v-8.0625h-4v-2h-14.812l-1.1875 1.125v-0.375h-2.5l1.6875-3.375h-5.0625l-2.375-7.1875z" fill="#fff"/>
   <path id="path9330" style="block-progression:tb;color:black;text-transform:none;text-indent:0" d="m182.1 716.23-4.25 4.25-0.75 1.75-4.8125 0.3125-3.8125 3.8125h-13.188c0.21962-0.25222 0.44244-0.53104 0.625-0.8125 0.01-0.016-0.012-0.0484 0-0.0626 0.24082-0.29068 0.3747-0.66244 0.5-0.9376 0.29268-0.64276 0.43796-1.3185 0.4375-2.0625-0.0002-0.3311-0.0268-0.64598-0.0626-0.9376-0.1106-0.90128-0.40812-1.7772-1.0625-2.4375-0.4561-0.4602-0.91252-0.79-1.4999-1.125-0.33128-0.189-0.76476-0.28962-1.0625-0.3748-0.70414-0.20146-1.4356-0.25-2.1875-0.25-0.6535 0-1.27 0.0738-1.875 0.25-0.60496 0.1762-1.2104 0.44088-1.6875 0.875-0.0604 0.055-0.1184 0.079-0.1874 0.1252v-0.3126h-12v0.0626l-2 1.9375h-2v-2h-12v0.0626l-4.125 4.0625c-1.1261-0.0576-2.2482 0.0704-3.375 0.3125-0.8379 0.18-1.686 0.40804-2.5 0.75v-5.1875h-12l-2 2h-2v-2h-12l-4.25 4.25v26h12l4-4v4h7.8125c4.0639 4.108 10.475 5.2595 15.688 2.25 1.0134-0.55594 1.803-1.3957 2.625-2.1875h7.875l4-4v4h43.375c0.21246 0.21898 0.3866 0.41522 0.6251 0.5625 0.9711 0.5997 2.0597 1.0759 3.1877 1.25 1.5271 0.23568 3.1375 0.1058 4.625-0.3125 1.0406-0.29266 2.0188-0.826 2.875-1.5h1.3125v2h16l8.25-8.25v-8h-2v-8.0625h-4v-2h-12l-2 2h-2v-1.25h-2-1.5625c-0.0398-0.078-0.016-0.1762-0.0626-0.25l0.125-0.25 1.4375-2.875h-3.25z"/>
   <path id="path4156" fill="url(#linearGradient3146)" d="m83.226 720.29v22.025h7.9831v-12.036h2.006v2.006 2.006h2.006 2.006v-2.006-2.006h2.006v12.036h7.9831v-22.025h-7.9831v2.006h-2.006v2.006 2.006h-2.006-2.006v-2.006-2.006h-2.006v-2.006h-7.9831zm37.991 0v22.025h8.024v-12.036h2.006v2.006 2.006h1.9651 2.006v-2.006-2.006h2.006v12.036h7.9831v-22.025h-7.9831v2.006h-2.006v2.006 2.006h-2.006-1.9651v-2.006-2.006h-2.006v-2.006h-8.024zm74.017 6.018v2.006h-4.012v1.9651h-2.006v2.006h2.006v2.006h2.006v2.006h6.018v2.006h1.9651v2.006h-3.9711v-2.006h-8.024v2.006h2.006v2.006h2.006v1.9651h11.995v-1.9651h2.006v-2.006h2.006v-2.006-2.006h-2.006v-2.006h-7.9831v-2.006h-2.006v-2.006h3.9711v2.006h6.018v-2.006-1.9651h-4.012v-2.006h-7.9831zm-48.021 2.006v14.001h8.024v-14.001h-8.024zm10.03 0v14.001h7.9831v-8.024h2.006v-2.006h2.006v2.006 8.024h7.9831v-8.024-2.006-2.006h-4.012v-1.9651h-5.9771v1.9651h-2.006v-1.9651h-7.9831z"/>
   <path id="path4162" d="m150.96 719.29c-2.3333 0-3.1111 0.99224-3.1111 3.1111 0 2.3333 0.77778 3.8889 3.1111 3.8889s3.8889-1.5556 3.8889-3.8889-1.5556-3.1111-3.8889-3.1111z" fill="lime"/>
   <path id="path4164" d="m150.18 720.85-2.2847 0.94792c-0.016 0.191-0.0486 0.39384-0.0486 0.60764 0 2.3333 0.77778 3.8889 3.1111 3.8889 0.97888 0 1.8072-0.28766 2.4549-0.77778-0.68136-0.0364-2.1241-0.1944-2.6979-0.77778-0.76502-0.77778 0.24306-1.5556 0.24306-1.5556s-1.5456 0.47096-2.0174-0.24306c-0.47176-0.71402 1.2396-2.0903 1.2396-2.0903z" fill="#00a000"/>
   <path id="path4166" d="m150.96 719.29c-0.5193 0-0.93874 0.0704-1.3125 0.1702 0.1934-0.018 1.3125-0.1062 1.3125 0.60764v1.5555c0.0364-0.51638 0.1944-1.5555 0.77776-1.5555 0.76924 0 2.1567 0.0236 2.1875 0.0244-0.68396-0.57162-1.7097-0.80208-2.9653-0.80208z" fill="#c1ffc1"/>
   <path id="path4168" d="m153.85 720.02-0.073 0.0486 0.4375 0.31596c-0.1108-0.1318-0.22732-0.2592-0.3646-0.36458zm0.36458 0.36458s-1.4846 0.33828-1.7014 0.8993c-0.21676 0.56102 0.77778 0.68056 0.77778 0.68056s-0.77778 0.4375-0.77778 1.2153c0 0.77778 0.3889 1.8958 0.3889 1.8958s-0.3889-1.5388 0.38888-1.8958c0.77778-0.35702 1.4583 0.1458 1.4583 0.1458 0.0592-0.29496 0.0972-0.5958 0.0972-0.92362 0-0.8831-0.22848-1.5377-0.63194-2.0174z" fill="#c1ffc1"/>
   <path id="path4172" d="m30 21.5a10.5 10.5 0 1 1 -21 0 10.5 10.5 0 1 1 21 0z" transform="matrix(.66667 0 0 .66664 171.23 722.96)" fill="gray"/>
   <rect id="rect4174" height="1.3333" width="3.3333" y="729.63" x="182.56" fill="#909090"/>
   <path id="path4176" style="block-progression:tb;text-indent:0;color:black;text-transform:none" d="m182.35 724.32a0.65922 0.65922 0 1 0 0.125 1.3125c0.32008 0.0492 0.87528 0.36094 0.9375 0.4375 0.1782 0.2193 0.1874 0.29546 0.1874 0.875a0.65625 0.65625 0 0 0 1.3125 0c0-0.75654-0.1652-1.3382-0.5-1.75-0.45078-0.55452-1.1058-0.77584-1.75-0.875a0.65509 0.65509 0 0 0 -0.3125 0z" fill="#e00000"/>
   <rect id="rect4178" height="2.6666" width="6" y="726.96" x="181.23" fill="#909090"/>
   <path id="path4180" d="m179.28 732.35c-2.7323 2.7322-2.7323 7.167 0 9.8992s7.1672 2.7322 9.8995 0c-1.6914 1.6913-5.2816 0.8466-8.0139-1.8856s-3.577-6.3223-1.8856-8.0136z" fill="#606060"/>
   <path id="path4182" d="m182.56 729.63v1.3333h1.3333l-0.66666-1.3333h-0.66666z" fill="#606060"/>
   <path id="path4184" d="m189.18 742.24c2.7323-2.7322 2.7323-7.167 0-9.8992s-7.1672-2.7322-9.8995 0c1.6914-1.6913 5.2816-0.8466 8.0139 1.8856s3.577 6.3223 1.8856 8.0136z" fill="#909090"/>
   <path id="path4186" d="m181.23 726.96v2.6666h2.6667l-1.3333-2.6666h-1.3333z" fill="#606060"/>
   <rect id="rect4188" height=".66664" width="4.4498" y="728.96" x="182.78" fill="#606060"/>
   <path id="path4190" d="m185.69 731.82-0.6875 2.5832c1.0664 0.28572 1.8393 1.0586 2.125 2.1249l2.5833-0.68748c-0.53972-2.0142-2.0066-3.481-4.0208-4.0207z" fill="silver"/>
   <path id="path4192" d="m181.02 723.95-2.7512 0.1534 2.2927 1.5255-0.66668 1.9999 2-1.3333 2 1.3333-0.66666-2.6666 0.66666-1.3333h-1.3333l-0.66668-1.8341-0.8748 2.155z" fill="#ff0"/>
   <path id="path4200" transform="matrix(-1.5731 0 0 1.5731 126.76 722.71)" fill="red" d="m1.9106 4.5043a6.9913 6.9913 0 1 1 0 6.9913l6.0546-3.496z"/>
   <path id="path4202" d="m10 5a2 2 0 1 1 -4 0 2 2 0 1 1 4 0z" transform="matrix(-1.5711 0 0 1.5712 126.8 722.73)" fill="#fff"/>
   <path id="path4204" d="m9 5a1 1 0 1 1 -2 0 1 1 0 1 1 2 0z" transform="matrix(-1.5711 0 0 1.5712 128.37 722.73)"/>
  </g>
 </g>
</svg>
