<?xml version="1.0" encoding="UTF-8" standalone="no"?>
<!-- Created with Inkscape (http://www.inkscape.org/) -->

<svg
   xmlns:dc="http://purl.org/dc/elements/1.1/"
   xmlns:cc="http://creativecommons.org/ns#"
   xmlns:rdf="http://www.w3.org/1999/02/22-rdf-syntax-ns#"
   xmlns:svg="http://www.w3.org/2000/svg"
   xmlns="http://www.w3.org/2000/svg"
   xmlns:xlink="http://www.w3.org/1999/xlink"
   xmlns:sodipodi="http://sodipodi.sourceforge.net/DTD/sodipodi-0.dtd"
   xmlns:inkscape="http://www.inkscape.org/namespaces/inkscape"
   width="320"
   height="320"
   id="svg2"
   version="1.1"
   inkscape:version="0.48.5 r10040"
   sodipodi:docname="mcminos-logo-title.svg">
  <sodipodi:namedview
     id="base"
     pagecolor="navy"
     bordercolor="#666666"
     borderopacity="1.0"
     inkscape:pageopacity="1"
     inkscape:pageshadow="2"
     inkscape:zoom="1.65"
     inkscape:cx="160"
     inkscape:cy="208.48485"
     inkscape:document-units="px"
     inkscape:current-layer="layer1"
     showgrid="true"
     objecttolerance="10000"
     gridtolerance="10000"
     guidetolerance="10000"
     inkscape:window-width="1024"
     inkscape:window-height="741"
     inkscape:window-x="0"
     inkscape:window-y="2"
     inkscape:window-maximized="1"
     showguides="true"
     inkscape:guide-bbox="true">
    <inkscape:grid
       spacingy="0.1px"
       spacingx="0.1px"
       snapvisiblegridlinesonly="true"
       enabled="true"
       visible="true"
       empspacing="4"
       units="px"
       id="grid2837"
       type="xygrid" />
    <sodipodi:guide
       id="guide3767"
       position="2,325"
       orientation="0,1" />
    <sodipodi:guide
       id="guide3769"
       position="-1,316"
       orientation="0,1" />
    <sodipodi:guide
       id="guide3771"
       position="4,324"
       orientation="1,0" />
    <sodipodi:guide
       id="guide3773"
       position="16,324"
       orientation="1,0" />
    <sodipodi:guide
       id="guide3775"
       position="0,300"
       orientation="0,1" />
    <sodipodi:guide
       id="guide11285"
       position="86,326"
       orientation="1,0" />
  </sodipodi:namedview>
  <defs
     id="defs4">
    <linearGradient
       id="linearGradient5105">
      <stop
         style="stop-color:#fc0;stop-opacity:1;"
         offset="0"
         id="stop5107" />
      <stop
         style="stop-color:white;stop-opacity:1;"
         offset="1"
         id="stop5109" />
    </linearGradient>
    <linearGradient
       gradientTransform="translate(-604,336.36218)"
       y2="768"
       x2="640"
       y1="576"
       x1="640"
       gradientUnits="userSpaceOnUse"
       id="linearGradient3394"
       xlink:href="#linearGradient5105"
       inkscape:collect="always" />
    <linearGradient
       inkscape:collect="always"
       xlink:href="#linearGradient5105"
       id="linearGradient4278"
       gradientUnits="userSpaceOnUse"
       x1="144"
       y1="739.36218"
       x2="144"
       y2="752.36218" />
    <linearGradient
       inkscape:collect="always"
       xlink:href="#linearGradient5105"
       id="linearGradient4281"
       gradientUnits="userSpaceOnUse"
       x1="128"
       y1="741.36218"
       x2="128"
       y2="752.36218" />
    <linearGradient
       inkscape:collect="always"
       xlink:href="#linearGradient5105"
       id="linearGradient4299"
       gradientUnits="userSpaceOnUse"
       x1="120"
       y1="740.36218"
       x2="120"
       y2="752.36218" />
    <linearGradient
       inkscape:collect="always"
       xlink:href="#linearGradient5105"
       id="linearGradient4302"
       gradientUnits="userSpaceOnUse"
       x1="111"
       y1="740.36218"
       x2="111"
       y2="752.36218" />
    <linearGradient
       inkscape:collect="always"
       xlink:href="#linearGradient5105"
       id="linearGradient4305"
       gradientUnits="userSpaceOnUse"
       x1="92"
       y1="740.36218"
       x2="92"
       y2="752.36218" />
    <linearGradient
       inkscape:collect="always"
       xlink:href="#linearGradient5105"
       id="linearGradient4351"
       gradientUnits="userSpaceOnUse"
       x1="128"
       y1="768.36218"
       x2="128"
       y2="780.36218" />
    <linearGradient
       inkscape:collect="always"
       xlink:href="#linearGradient5105"
       id="linearGradient4358"
       gradientUnits="userSpaceOnUse"
       x1="120"
       y1="768.36218"
       x2="120"
       y2="780.36218" />
    <linearGradient
       inkscape:collect="always"
       xlink:href="#linearGradient5105"
       id="linearGradient4364"
       gradientUnits="userSpaceOnUse"
       x1="111"
       y1="768.36218"
       x2="111"
       y2="780.36218" />
    <linearGradient
       inkscape:collect="always"
       xlink:href="#linearGradient5105"
       id="linearGradient4367"
       gradientUnits="userSpaceOnUse"
       x1="92"
       y1="768.36218"
       x2="92"
       y2="780.36218" />
    <linearGradient
       inkscape:collect="always"
       xlink:href="#linearGradient5105"
       id="linearGradient4370"
       gradientUnits="userSpaceOnUse"
       x1="144"
       y1="768.36218"
       x2="144"
       y2="780.36218" />
  </defs>
  <metadata
     id="metadata7">
    <rdf:RDF>
      <cc:Work
         rdf:about="">
        <dc:format>image/svg+xml</dc:format>
        <dc:type
           rdf:resource="http://purl.org/dc/dcmitype/StillImage" />
        <dc:title />
      </cc:Work>
    </rdf:RDF>
  </metadata>
  <g
     transform="translate(0,-732.36218)"
     id="layer1"
     inkscape:groupmode="layer"
     inkscape:label="Ebene 1">
    <path
       sodipodi:nodetypes="ccccccccsccccccsccccccccccccccccccccccscccccccccccccccccccccccccccccccccccccccccc"
       inkscape:connector-curvature="0"
       id="path11225"
       d="m 53.4375,735.29968 c -0.411487,0.96662 -0.821824,1.93363 -1.21875,2.90625 -1.227467,0.10598 -2.458045,0.17152 -3.6875,0.25 0.971947,0.66755 1.946123,1.33097 2.9375,1.96875 -0.108827,0.30782 -0.191023,0.62394 -0.28125,0.9375 -0.395833,0 -0.791667,0 -1.1875,0 l 0,-1 -9.96875,0 c 0.46103,-0.52948 0.78125,-1.19353 0.78125,-1.9375 0,-0.60452 -0.158015,-1.21794 -0.5625,-1.6875 l -0.28125,-0.34375 -0.09375,0 c -0.135179,-0.0966 -0.264752,-0.16639 -0.375,-0.21875 -0.115486,-0.0556 -0.201764,-0.076 -0.25,-0.0937 -0.04683,-0.0169 -0.142178,-0.0578 -0.28125,-0.0937 -0.354525,-0.0917 -0.717802,-0.125 -1.09375,-0.125 -0.653508,0 -1.292131,0.14196 -1.78125,0.5625 -0.0582,0.05 -0.04333,0.13244 -0.09375,0.1875 l 0,-0.25 -6,0 0,1 -2,0 0,-1 -6,0 0,2.53125 c -1.568654,-0.6574 -3.35812,-0.62727 -5,0.0625 l 0,-2.59375 -6,0 0,1 -2,0 0,-1 -6,0 0,13 6,0 0,-4 2,0 0,4 3.90625,0 c 2.031943,2.05399 5.237508,2.62974 7.84375,1.125 0.505865,-0.29207 0.914212,-0.71971 1.3125,-1.125 l 3.9375,0 0,-4 2,0 0,4 21.6875,0 c 0.09588,0.0839 0.157323,0.16628 0.28125,0.25 -0.032,-0.0176 -0.176366,-0.10577 0.03125,0.0313 0.261158,0.17186 0.521029,0.2602 0.71875,0.34375 0.0071,0.003 0.02432,-0.003 0.03125,0 0.168125,0.0686 0.30435,0.11194 0.34375,0.125 0.03758,0.0123 0.210076,0.0982 0.46875,0.15625 0.01562,0.004 0.01477,-0.003 0.03125,0 0.788006,0.15983 1.589221,0.0834 2.3125,-0.15625 0.519562,-0.1697 1.009403,-0.413 1.4375,-0.75 l 0.65625,0 0,1 8,0 0,-1 1,0 0,-1 1,0 0,-4 -1,0 0,-4 -2,0 0,-1 -6,0 0,1 -2,0 0,-0.65625 -1.28125,0 c -0.08572,-0.20502 -0.08058,-0.45502 -0.21875,-0.625 -0.01126,-0.0138 -0.01971,-0.0178 -0.03125,-0.0313 l 0.5,-1.03125 -1.625,0 c -0.280079,-0.91292 -0.600847,-1.81385 -0.90625,-2.71875 z M 22,744.58093 l 0,0.5625 -0.5,-0.28125 z"
       style="font-size:medium;font-style:normal;font-variant:normal;font-weight:normal;font-stretch:normal;text-indent:0;text-align:start;text-decoration:none;line-height:normal;letter-spacing:normal;word-spacing:normal;text-transform:none;direction:ltr;block-progression:tb;writing-mode:lr-tb;text-anchor:start;baseline-shift:baseline;color:black;fill:black;fill-opacity:1;fill-rule:nonzero;stroke:none;stroke-width:2;marker:none;visibility:visible;display:inline;overflow:visible;enable-background:accumulate;font-family:Sans;-inkscape-font-specification:Sans" />
    <path
       inkscape:connector-curvature="0"
       style="fill:#fc0;fill-opacity:1;stroke:black;stroke-width:2;stroke-miterlimit:4;stroke-opacity:1;stroke-dasharray:none"
       d="m 37.875,764.86218 c -1.034737,0 -1.448832,0.42261 -1.53125,1.25 -0.0083,0.0955 -0.03125,0.2056 -0.03125,0.3125 0,1.16667 0.395833,1.9375 1.5625,1.9375 0.341766,0 0.643021,-0.0617 0.90625,-0.1875 0.02015,-0.009 0.04286,-0.0211 0.0625,-0.0313 0.09201,-0.048 0.16904,-0.095 0.25,-0.15625 0.455314,-0.33839 0.71875,-0.87932 0.71875,-1.5625 0,-0.44791 -0.105217,-0.79062 -0.3125,-1.03125 0,0 -0.02923,-4.7e-4 -0.03125,0 -0.03936,-0.044 -0.0794,-0.0873 -0.125,-0.125 -0.02192,-0.0183 -0.03919,-0.0456 -0.0625,-0.0625 -0.06661,-0.0476 -0.141327,-0.0882 -0.21875,-0.125 -0.04874,-0.0234 -0.103452,-0.0431 -0.15625,-0.0625 -0.05932,-0.0214 -0.123311,-0.0459 -0.1875,-0.0625 -0.249437,-0.0645 -0.529853,-0.0937 -0.84375,-0.0937 z m -33.875,0.5 0,11 4,0 0,-6 2,3 2,-3 0,6 3.25,0 c 1.677966,2.03582 4.63952,2.61284 7,1.25 0.563694,-0.32545 1.055375,-0.75356 1.46875,-1.25 l 3.28125,0 0,-6 2,3 2,-3 0,6 4,0 0,-11 -4,0 -2,3 -2,-3 -4,0 0,3.28125 c -1.719909,-1.42569 -4.202012,-1.71367 -6.25,-0.53125 -0.269651,0.15569 -0.517441,0.30831 -0.75,0.5 l 0,-3.25 -4,0 -2,3 -2,-3 -4,0 z m 49.34375,0.75 -0.4375,1.0625 -1.375,0.0937 1.125,0.75 -0.3125,1 1,-0.65625 0.53125,0.34375 -0.21875,0 -0.65625,0 0,1.3125 0.65625,0 0,0.46875 c -0.105846,0.0261 -0.210693,0.0583 -0.3125,0.0937 -0.04976,0.0176 -0.10717,0.0114 -0.15625,0.0313 -0.02114,0.008 -0.04156,0.0224 -0.0625,0.0313 -0.188379,0.0807 -0.387859,0.16599 -0.5625,0.28125 -0.01181,0.008 -0.01954,0.0233 -0.03125,0.0313 -0.180788,0.12259 -0.339865,0.27737 -0.5,0.4375 -0.158344,0.15834 -0.311705,0.31381 -0.4375,0.5 -0.0081,0.012 -0.02328,0.0192 -0.03125,0.0313 -0.115816,0.17598 -0.198266,0.36631 -0.28125,0.5625 -0.03885,0.0907 -0.06292,0.1882 -0.09375,0.28125 -0.04066,0.12449 -0.09836,0.24481 -0.125,0.375 -0.05054,0.23941 -0.0625,0.47506 -0.0625,0.71875 0,0.22397 0.01981,0.43561 0.0625,0.65625 0.02814,0.15076 0.0782,0.29421 0.125,0.4375 0.02372,0.0716 0.03404,0.14853 0.0625,0.21875 0.0085,0.0211 0.0224,0.0416 0.03125,0.0625 0.08069,0.18837 0.165983,0.38787 0.28125,0.5625 0.0078,0.0118 0.02334,0.0195 0.03125,0.0313 0.122594,0.18078 0.277365,0.33987 0.4375,0.5 0.158344,0.15834 0.313799,0.31171 0.5,0.4375 0.012,0.008 0.01917,0.0233 0.03125,0.0313 0.175983,0.11581 0.366303,0.19827 0.5625,0.28125 0.0907,0.0389 0.188197,0.0629 0.28125,0.0937 0.124491,0.0407 0.244805,0.0984 0.375,0.125 0.606145,0.12795 1.220957,0.071 1.8125,-0.125 0.760651,-0.24844 1.412236,-0.71933 1.84375,-1.375 0.07684,-0.11642 0.126024,-0.25211 0.1875,-0.375 0.8578,0.7515 2.377262,1.31512 4.09375,1.4375 2.754433,0.19638 5.05806,-0.77903 5.15625,-2.15625 0.09819,-1.37721 -2.058068,-2.64737 -4.8125,-2.84375 -0.550887,-0.0393 -0.988388,-0.28706 -0.96875,-0.5625 0.01964,-0.27545 0.511614,-0.47678 1.0625,-0.4375 0.349949,0.025 0.612946,0.16346 0.78125,0.3125 l 3.15625,-0.78125 c -0.746805,-0.82871 -2.208875,-1.41692 -3.8125,-1.53125 -2.478988,-0.17674 -4.55806,0.81029 -4.65625,2.1875 -0.09819,1.37722 1.833512,2.63576 4.3125,2.8125 0.550887,0.0393 0.957138,0.28706 0.9375,0.5625 -0.01964,0.27544 -0.480363,0.47678 -1.03125,0.4375 -0.459072,-0.0327 -0.805172,-0.21813 -0.90625,-0.4375 l -3,0.1875 c 0.0021,-0.01 -0.002,-0.0217 0,-0.0313 0.004,-0.0197 -0.0037,-0.0427 0,-0.0625 0.08914,-0.46071 0.09699,-0.91556 0,-1.375 -0.04196,-0.20505 -0.111385,-0.40347 -0.1875,-0.59375 -0.0085,-0.0211 -0.02228,-0.0416 -0.03125,-0.0625 -0.08298,-0.19619 -0.165434,-0.38652 -0.28125,-0.5625 -0.008,-0.0121 -0.02311,-0.0192 -0.03125,-0.0313 -0.125795,-0.18619 -0.279156,-0.34166 -0.4375,-0.5 -0.160135,-0.16013 -0.319212,-0.31491 -0.5,-0.4375 -0.247382,-0.16712 -0.525589,-0.27497 -0.8125,-0.375 -0.102039,-0.036 -0.208142,-0.0675 -0.3125,-0.0937 l 0,-0.46875 0.65625,0 0,-0.3125 0,-1 -0.96875,0 a 0.50005,0.50005 0 0 0 0,-0.0313 c 0,-0.40159 -0.124539,-0.73751 -0.3125,-0.96875 -0.162526,-0.19994 -0.336327,-0.2912 -0.53125,-0.375 l 0.15625,-0.3125 -0.6875,0 -0.3125,-0.90625 z m -2.34375,7.75 0,-1.5 c 0,-1.65685 -1.567003,-3 -3.5,-3 -0.983757,0 -1.864147,0.34618 -2.5,0.90625 l 0,-0.90625 -4,0 0,7 4,0 0,-4 c 0,-0.55228 0.447715,-1 1,-1 0.552285,0 1,0.44772 1,1 l 0,4 4,0 0,-2.5 z m -15,-4.5 0,7 4,0 0,-7 -4,0 z m -13,1.46875 0,4.0625 -3.5,-2.03125 3.5,-2.03125 z"
       id="path11072" />
    <g
       id="g10798">
      <path
         style="fill:#fc0;fill-opacity:1;stroke:none"
         d="m 62.28429,768.86689 c -2.478988,-0.17674 -4.568205,0.79644 -4.666395,2.17365 -0.09819,1.37722 1.83183,2.63695 4.310818,2.81369 0.550887,0.0393 0.981549,0.29441 0.961911,0.56985 -0.01964,0.27544 -0.482139,0.4669 -1.033026,0.42762 -0.459072,-0.0327 -0.80738,-0.22135 -0.908458,-0.44072 l -3.93414,0.25211 c 0.506506,1.13184 2.443068,2.02261 4.700367,2.18355 2.754433,0.19638 5.066939,-0.76088 5.165129,-2.1381 0.09819,-1.37721 -2.05512,-2.65286 -4.809552,-2.84924 -0.550887,-0.0393 -0.981548,-0.29441 -0.96191,-0.56985 0.01964,-0.27545 0.482139,-0.4669 1.033025,-0.42762 0.349949,0.025 0.62436,0.15811 0.792664,0.30715 l 3.157033,-0.77746 c -0.746805,-0.82871 -2.203841,-1.4103 -3.807466,-1.52463 z"
         id="path4690"
         inkscape:connector-curvature="0" />
      <path
         style="fill:#fc0;fill-opacity:1;stroke:none"
         d="m 4,765.36218 0,11 0,0 4,0 0,-6 2,3 2,-3 0,6 4,0 0,-11 -4,0 -2,3 -2,-3 z"
         id="path2997"
         inkscape:connector-curvature="0"
         sodipodi:nodetypes="cccccccccccccc" />
      <path
         sodipodi:nodetypes="cccccccccccccc"
         inkscape:connector-curvature="0"
         id="path4203"
         d="m 23,765.36218 0,11 0,0 4,0 0,-6 2,3 2,-3 0,6 4,0 0,-11 -4,0 -2,3 -2,-3 z"
         style="fill:#fc0;fill-opacity:1;stroke:none" />
      <g
         transform="matrix(1.1,0,0,1.1,-1.4000001,-45.936216)"
         id="g4205">
        <path
           transform="matrix(-0.71504405,0,0,0.71505473,24.695408,738.64174)"
           d="M 1.9105703,4.504348 C 3.8411656,1.1604586 8.1169802,0.01475738 11.46087,1.9453527 14.804759,3.875948 15.95046,8.1517626 14.019865,11.495652 12.08927,14.839541 7.8134549,15.985243 4.4695656,14.054647 3.4067529,13.441032 2.5241855,12.558465 1.9105703,11.495652 L 7.9652176,8 z"
           sodipodi:ry="6.9913044"
           sodipodi:rx="6.9913044"
           sodipodi:cy="8"
           sodipodi:cx="7.9652176"
           id="path4207"
           style="fill:red;fill-opacity:1;fill-rule:nonzero;stroke:none"
           sodipodi:type="arc"
           sodipodi:start="3.6651914"
           sodipodi:end="8.9011792" />
        <path
           d="M 10,5 C 10,6.1045695 9.1045695,7 8,7 6.8954305,7 6,6.1045695 6,5 6,3.8954305 6.8954305,3 8,3 c 1.1045695,0 2,0.8954305 2,2 z"
           sodipodi:ry="2"
           sodipodi:rx="2"
           sodipodi:cy="5"
           sodipodi:cx="8"
           id="path4209"
           style="fill:white;fill-opacity:1;fill-rule:nonzero;stroke:none"
           sodipodi:type="arc"
           transform="matrix(-0.7141558,0,0,0.71416644,24.713174,738.64884)" />
        <path
           transform="matrix(-0.7141558,0,0,0.71416644,25.42733,738.64884)"
           d="M 9,5 C 9,5.5522847 8.5522847,6 8,6 7.4477153,6 7,5.5522847 7,5 7,4.4477153 7.4477153,4 8,4 8.5522847,4 9,4.4477153 9,5 z"
           sodipodi:ry="1"
           sodipodi:rx="1"
           sodipodi:cy="5"
           sodipodi:cx="8"
           id="path4211"
           style="fill:black;fill-opacity:1;fill-rule:nonzero;stroke:none"
           sodipodi:type="arc" />
      </g>
      <rect
         y="769.36218"
         x="36"
         height="7"
         width="4"
         id="rect4213"
         style="fill:#fc0;fill-opacity:1;stroke:none" />
      <g
         transform="matrix(0.38888889,0,0,0.38888889,23.357138,480.44355)"
         id="g4215">
        <path
           inkscape:connector-curvature="0"
           style="fill:lime;fill-opacity:1;fill-rule:nonzero;stroke:none"
           d="m 37.3125,731.36218 c -3,0 -4,1.27574 -4,4 0,3 1,5 4,5 3,0 5,-2 5,-5 0,-3 -2,-4 -5,-4 z"
           id="path4217"
           sodipodi:nodetypes="czzzz" />
        <path
           inkscape:connector-curvature="0"
           style="fill:#00a000;fill-opacity:1;fill-rule:nonzero;stroke:none"
           d="m 36.3125,733.36218 -2.9375,1.21875 c -0.02139,0.24558 -0.0625,0.50635 -0.0625,0.78125 0,3 1,5 4,5 1.258567,0 2.323516,-0.36984 3.15625,-1 -0.876025,-0.0469 -2.731046,-0.25 -3.46875,-1 -0.983607,-1 0.3125,-2 0.3125,-2 0,0 -1.987193,0.60553 -2.59375,-0.3125 -0.606558,-0.91803 1.59375,-2.6875 1.59375,-2.6875 z"
           id="path4219" />
        <path
           inkscape:connector-curvature="0"
           style="fill:#c1ffc1;fill-opacity:1;fill-rule:nonzero;stroke:none"
           d="m 37.3125,731.36218 c -0.667647,0 -1.206943,0.0905 -1.6875,0.21875 0.248578,-0.0232 1.6875,-0.13643 1.6875,0.78125 0,0.8421 0,1.6743 0,2 0.04687,-0.66393 0.25,-2 1,-2 0.989012,0 2.772834,0.0303 2.8125,0.0313 -0.879389,-0.73494 -2.198171,-1.03125 -3.8125,-1.03125 z"
           id="path4221" />
        <path
           inkscape:connector-curvature="0"
           style="fill:#c1ffc1;fill-opacity:1;fill-rule:nonzero;stroke:none"
           d="m 41.03125,732.29968 -0.09375,0.0625 0.5625,0.40625 c -0.142544,-0.16945 -0.292256,-0.33325 -0.46875,-0.46875 z M 41.5,732.76843 c 0,0 -1.908811,0.43494 -2.1875,1.15625 -0.278689,0.72131 1,0.875 1,0.875 0,0 -1,0.5625 -1,1.5625 0,1 0.5,2.4375 0.5,2.4375 -10e-7,0 -0.5,-1.97848 0.5,-2.4375 1,-0.45902 1.875,0.1875 1.875,0.1875 0.07618,-0.37924 0.125,-0.76601 0.125,-1.1875 0,-1.13542 -0.293748,-1.97709 -0.8125,-2.59375 z"
           id="path4223" />
      </g>
      <path
         style="fill:#fc0;fill-opacity:1;stroke:none"
         d="m 41,769.36218 0,7 4,0 0,-4 c 0,-0.55228 0.447715,-1 1,-1 0.552285,0 1,0.44772 1,1 l 0,4 4,0 0,-4 c 0,-1.65685 -1.567003,-3 -3.5,-3 -0.983757,0 -1.864147,0.34618 -2.5,0.90625 l 0,-0.90625 -4,0 z"
         id="rect4225"
         inkscape:connector-curvature="0" />
      <g
         transform="matrix(0.33333333,0,0,0.33332158,27.666667,520.58384)"
         id="g4650">
        <path
           sodipodi:type="arc"
           style="fill:gray;fill-opacity:1;fill-rule:nonzero;stroke:none"
           id="path4652"
           sodipodi:cx="19.5"
           sodipodi:cy="21.5"
           sodipodi:rx="10.5"
           sodipodi:ry="10.5"
           d="M 30,21.5 C 30,27.29899 25.29899,32 19.5,32 13.70101,32 9,27.29899 9,21.5 9,15.70101 13.70101,11 19.5,11 25.29899,11 30,15.70101 30,21.5 z"
           transform="translate(61,738.36219)" />
        <rect
           style="fill:#909090;fill-opacity:1;fill-rule:nonzero;stroke:none"
           id="rect4654"
           width="5"
           height="2"
           x="78"
           y="748.36218" />
        <path
           inkscape:connector-curvature="0"
           sodipodi:nodetypes="czz"
           id="path4656"
           d="m 80.587879,744.36218 c 0,-1.00208 -0.203136,-1.52666 -0.587879,-2 -0.384743,-0.47335 -1.276783,-0.88867 -2,-1"
           style="fill:none;stroke:#e00000;stroke-width:3.00005293;stroke-linecap:round;stroke-linejoin:round;stroke-miterlimit:4;stroke-opacity:1;stroke-dasharray:none;stroke-dashoffset:0" />
        <rect
           style="fill:#909090;fill-opacity:1;fill-rule:nonzero;stroke:none"
           id="rect4658"
           width="9"
           height="4"
           x="76"
           y="744.36218" />
        <path
           inkscape:connector-curvature="0"
           style="fill:#606060;fill-opacity:1;fill-rule:nonzero;stroke:none"
           d="m 73.075379,752.43755 c -4.098391,4.0984 -4.098391,10.75086 0,14.84925 4.098391,4.09839 10.750851,4.09839 14.849242,0 -2.537098,2.5371 -7.922424,1.26996 -12.020815,-2.82843 -4.09839,-4.09839 -5.365527,-9.48372 -2.828427,-12.02082 z"
           id="path4660"
           inkscape:transform-center-y="1.5368963"
           inkscape:transform-center-x="1.5368965" />
        <path
           inkscape:connector-curvature="0"
           style="fill:#606060;fill-opacity:1;fill-rule:nonzero;stroke:none"
           d="m 78,748.36218 0,2 2,0 -1,-2 -1,0 z"
           id="path4662" />
        <path
           inkscape:connector-curvature="0"
           inkscape:transform-center-y="-1.5368969"
           id="path4664"
           d="m 87.924621,767.2868 c 4.098391,-4.09839 4.098391,-10.75085 0,-14.84925 -4.098391,-4.09839 -10.750851,-4.09839 -14.849242,0 2.537098,-2.53709 7.922424,-1.26995 12.020815,2.82844 4.09839,4.09838 5.365526,9.48371 2.828427,12.02081 z"
           style="fill:#909090;fill-opacity:1;fill-rule:nonzero;stroke:none"
           inkscape:transform-center-x="-1.536897" />
        <path
           inkscape:connector-curvature="0"
           style="fill:#606060;fill-opacity:1;fill-rule:nonzero;stroke:none"
           d="m 76,744.36218 0,4 4,0 -2,-4 -2,0 z"
           id="path4666" />
        <rect
           style="fill:#606060;fill-opacity:1;fill-rule:nonzero;stroke:none"
           id="rect4668"
           width="6.6747475"
           height="1"
           x="78.325256"
           y="747.36218" />
        <path
           inkscape:connector-curvature="0"
           style="fill:silver;fill-opacity:1;fill-rule:nonzero;stroke:none"
           d="m 82.6875,751.64343 -1.03125,3.875 c 1.599574,0.4286 2.758896,1.58793 3.1875,3.1875 l 3.875,-1.03125 c -0.809586,-3.02142 -3.009835,-5.22167 -6.03125,-6.03125 z"
           id="path4670" />
        <path
           inkscape:connector-curvature="0"
           style="fill:yellow;fill-opacity:1;fill-rule:nonzero;stroke:none"
           d="M 75.687796,739.84358 71.561019,740.0738 75,742.36218 l -1,3 3,-2 3,2 -1,-4 1,-2 -2,0 -1,-2.75118 -1.312204,3.23258 z"
           id="path4672"
           sodipodi:nodetypes="ccccccccccc" />
      </g>
    </g>
    <g
       id="g11104">
      <path
         style="fill:#fc0;fill-opacity:1;stroke:none"
         d="m 4,737.36218 0,11 4,0 0,-6 1,0 0,1 0,1 1,0 1,0 0,-1 0,-1 1,0 0,6 4,0 0,-11 -4,0 0,1 -1,0 0,1 0,1 -1,0 -1,0 0,-1 0,-1 -1,0 0,-1 -4,0 z"
         id="path3777"
         inkscape:connector-curvature="0" />
      <path
         inkscape:connector-curvature="0"
         id="path4023"
         d="m 23,737.36218 0,11 4,0 0,-6 1,0 0,1 0,1 1,0 1,0 0,-1 0,-1 1,0 0,6 4,0 0,-11 -4,0 0,1 -1,0 0,1 0,1 -1,0 -1,0 0,-1 0,-1 -1,0 0,-1 -4,0 z"
         style="fill:#fc0;fill-opacity:1;stroke:none" />
      <rect
         style="fill:#fc0;fill-opacity:1;stroke:none"
         id="rect4025"
         width="4"
         height="7"
         x="36"
         y="741.36218" />
      <path
         inkscape:connector-curvature="0"
         style="fill:lime;fill-opacity:1;fill-rule:nonzero;stroke:none"
         d="m 37.867555,736.86218 c -1.166667,0 -1.555556,0.49612 -1.555556,1.55555 0,1.16667 0.388889,1.94445 1.555556,1.94445 1.166666,0 1.944444,-0.77778 1.944444,-1.94445 0,-1.16666 -0.777778,-1.55555 -1.944444,-1.55555 z"
         id="path2735"
         sodipodi:nodetypes="czzzz" />
      <path
         inkscape:connector-curvature="0"
         style="fill:#00a000;fill-opacity:1;fill-rule:nonzero;stroke:none"
         d="m 37.478666,737.63995 -1.142361,0.47396 c -0.0083,0.0955 -0.02431,0.19692 -0.02431,0.30382 0,1.16667 0.388889,1.94445 1.555556,1.94445 0.489442,0 0.903589,-0.14383 1.22743,-0.38889 -0.340676,-0.0182 -1.062073,-0.0972 -1.348958,-0.38889 -0.382514,-0.38889 0.121528,-0.77778 0.121528,-0.77778 0,0 -0.772798,0.23548 -1.008681,-0.12153 -0.235884,-0.35701 0.619792,-1.04514 0.619792,-1.04514 z"
         id="path3507" />
      <path
         inkscape:connector-curvature="0"
         style="fill:#c1ffc1;fill-opacity:1;fill-rule:nonzero;stroke:none"
         d="m 37.867555,736.86218 c -0.259641,0 -0.469367,0.0352 -0.65625,0.0851 0.09667,-0.009 0.65625,-0.0531 0.65625,0.30382 0,0.32748 0,0.65111 0,0.77777 0.01823,-0.25819 0.09722,-0.77777 0.388889,-0.77777 0.384615,0 1.078324,0.0118 1.09375,0.0122 -0.341985,-0.28581 -0.854845,-0.40104 -1.482639,-0.40104 z"
         id="path3512" />
      <path
         inkscape:connector-curvature="0"
         style="fill:#c1ffc1;fill-opacity:1;fill-rule:nonzero;stroke:none"
         d="m 39.313735,737.22676 -0.03646,0.0243 0.21875,0.15798 c -0.05543,-0.0659 -0.113655,-0.1296 -0.182292,-0.18229 z m 0.182292,0.18229 c 0,0 -0.742315,0.16914 -0.850695,0.44965 -0.108379,0.28051 0.388889,0.34028 0.388889,0.34028 0,0 -0.388889,0.21875 -0.388889,0.60764 0,0.38889 0.194445,0.94792 0.194445,0.94792 0,0 -0.194445,-0.76941 0.194444,-0.94792 0.388889,-0.17851 0.729167,0.0729 0.729167,0.0729 0.02963,-0.14748 0.04861,-0.2979 0.04861,-0.46181 0,-0.44155 -0.114235,-0.76887 -0.315972,-1.00868 z"
         id="path3519" />
      <g
         id="g4890">
        <path
           transform="matrix(0.33333333,0,0,0.33332158,47.999999,738.69589)"
           d="M 30,21.5 C 30,27.29899 25.29899,32 19.5,32 13.70101,32 9,27.29899 9,21.5 9,15.70101 13.70101,11 19.5,11 25.29899,11 30,15.70101 30,21.5 z"
           sodipodi:ry="10.5"
           sodipodi:rx="10.5"
           sodipodi:cy="21.5"
           sodipodi:cx="19.5"
           id="path2394"
           style="fill:gray;fill-opacity:1;fill-rule:nonzero;stroke:none"
           sodipodi:type="arc" />
        <rect
           y="742.02911"
           x="53.666664"
           height="0.66664314"
           width="1.6666666"
           id="rect2398"
           style="fill:#909090;fill-opacity:1;fill-rule:nonzero;stroke:none" />
        <path
           style="fill:none;stroke:#e00000;stroke-width:1;stroke-linecap:round;stroke-linejoin:round;stroke-miterlimit:4;stroke-opacity:1;stroke-dasharray:none;stroke-dashoffset:0"
           d="m 54.529292,740.69582 c 0,-0.33402 -0.06771,-0.50887 -0.19596,-0.66665 -0.128247,-0.15777 -0.425594,-0.29621 -0.666666,-0.33332"
           id="path4121"
           sodipodi:nodetypes="czz"
           inkscape:connector-curvature="0" />
        <rect
           y="740.6958"
           x="53"
           height="1.3332863"
           width="3"
           id="rect2400"
           style="fill:#909090;fill-opacity:1;fill-rule:nonzero;stroke:none" />
        <path
           inkscape:transform-center-x="1.5368965"
           inkscape:transform-center-y="1.5368963"
           id="path3179"
           d="m 52.025125,743.38751 c -1.36613,1.36609 -1.36613,3.5835 0,4.94958 1.366131,1.36608 3.583617,1.36608 4.949748,0 -0.8457,0.84567 -2.640808,0.4233 -4.006939,-0.94278 -1.36613,-1.36608 -1.788509,-3.16113 -0.942809,-4.0068 z"
           style="fill:#606060;fill-opacity:1;fill-rule:nonzero;stroke:none"
           inkscape:connector-curvature="0" />
        <path
           id="path3190"
           d="m 53.666666,742.0291 0,0.66665 0.666666,0 -0.333333,-0.66665 -0.333333,0 z"
           style="fill:#606060;fill-opacity:1;fill-rule:nonzero;stroke:none"
           inkscape:connector-curvature="0" />
        <path
           inkscape:transform-center-x="-1.536897"
           style="fill:#909090;fill-opacity:1;fill-rule:nonzero;stroke:none"
           d="m 56.974873,748.33709 c 1.36613,-1.36608 1.36613,-3.58349 0,-4.94958 -1.366131,-1.36608 -3.583617,-1.36608 -4.949748,0 0.8457,-0.84566 2.640808,-0.4233 4.006939,0.94278 1.36613,1.36608 1.788508,3.16113 0.942809,4.0068 z"
           id="path3184"
           inkscape:transform-center-y="-1.5368969"
           inkscape:connector-curvature="0" />
        <path
           id="path3186"
           d="m 52.999999,740.69582 0,1.33328 1.333333,0 -0.666666,-1.33328 -0.666667,0 z"
           style="fill:#606060;fill-opacity:1;fill-rule:nonzero;stroke:none"
           inkscape:connector-curvature="0" />
        <rect
           y="741.6958"
           x="53.775085"
           height="0.33332157"
           width="2.2249157"
           id="rect3192"
           style="fill:#606060;fill-opacity:1;fill-rule:nonzero;stroke:none" />
        <path
           id="path3231"
           d="m 55.229166,743.12282 -0.34375,1.29162 c 0.533191,0.14286 0.919632,0.52929 1.0625,1.06246 l 1.291666,-0.34374 c -0.269862,-1.0071 -1.003278,-1.74049 -2.010416,-2.01034 z"
           style="fill:silver;fill-opacity:1;fill-rule:nonzero;stroke:none"
           inkscape:connector-curvature="0" />
        <path
           sodipodi:nodetypes="ccccccccccc"
           id="path4094-3"
           d="m 52.895931,739.18967 -1.375592,0.0767 1.146327,0.76276 -0.333334,0.99997 1,-0.66664 1,0.66664 -0.333333,-1.33329 0.333333,-0.66664 -0.666666,0 -0.333334,-0.91703 -0.437401,1.07749 z"
           style="fill:yellow;fill-opacity:1;fill-rule:nonzero;stroke:none"
           inkscape:connector-curvature="0" />
      </g>
      <path
         inkscape:connector-curvature="0"
         style="fill:#fc0;fill-opacity:1;stroke:none"
         d="m 41,741.36218 0,7 4,0 0,-4 1,0 0,-1 1,0 0,1 0,4 4,0 0,-4 0,-1 0,-1 -2,0 0,-1 -3,0 0,1 -1,0 0,-1 -4,0 z"
         id="rect4189" />
      <path
         inkscape:connector-curvature="0"
         style="fill:#fc0;fill-opacity:1;stroke:none"
         d="m 60,740.36218 0,1 -2,0 0,1 -1,0 0,1 1,0 0,1 1,0 0,1 3,0 0,1 1,0 0,1 -2,0 0,-1 -4,0 0,1 1,0 0,1 1,0 0,1 6,0 0,-1 1,0 0,-1 1,0 0,-1 0,-1 -1,0 0,-1 -4,0 0,-1 -1,0 0,-1 2,0 0,1 3,0 0,-1 0,-1 -2,0 0,-1 -4,0 z"
         id="rect4713" />
      <g
         id="g4885">
        <path
           sodipodi:end="8.9011792"
           sodipodi:start="3.6651914"
           sodipodi:type="arc"
           style="fill:red;fill-opacity:1;fill-rule:nonzero;stroke:none"
           id="path3303"
           sodipodi:cx="7.9652176"
           sodipodi:cy="8"
           sodipodi:rx="6.9913044"
           sodipodi:ry="6.9913044"
           d="M 1.9105703,4.504348 C 3.8411656,1.1604586 8.1169802,0.01475738 11.46087,1.9453527 14.804759,3.875948 15.95046,8.1517626 14.019865,11.495652 12.08927,14.839541 7.8134549,15.985243 4.4695656,14.054647 3.4067529,13.441032 2.5241855,12.558465 1.9105703,11.495652 L 7.9652176,8 z"
           transform="matrix(-0.78654846,0,0,0.7865602,25.764949,738.5697)" />
        <path
           transform="matrix(-0.78557138,0,0,0.78558308,25.784491,738.57751)"
           sodipodi:type="arc"
           style="fill:white;fill-opacity:1;fill-rule:nonzero;stroke:none"
           id="path3305"
           sodipodi:cx="8"
           sodipodi:cy="5"
           sodipodi:rx="2"
           sodipodi:ry="2"
           d="M 10,5 C 10,6.1045695 9.1045695,7 8,7 6.8954305,7 6,6.1045695 6,5 6,3.8954305 6.8954305,3 8,3 c 1.1045695,0 2,0.8954305 2,2 z" />
        <path
           sodipodi:type="arc"
           style="fill:black;fill-opacity:1;fill-rule:nonzero;stroke:none"
           id="path3307"
           sodipodi:cx="8"
           sodipodi:cy="5"
           sodipodi:rx="1"
           sodipodi:ry="1"
           d="M 9,5 C 9,5.5522847 8.5522847,6 8,6 7.4477153,6 7,5.5522847 7,5 7,4.4477153 7.4477153,4 8,4 8.5522847,4 9,4.4477153 9,5 z"
           transform="matrix(-0.78557138,0,0,0.78558308,26.570063,738.57751)" />
      </g>
    </g>
    <path
       style="font-size:medium;font-style:normal;font-variant:normal;font-weight:normal;font-stretch:normal;text-indent:0;text-align:start;text-decoration:none;line-height:normal;letter-spacing:normal;word-spacing:normal;text-transform:none;direction:ltr;block-progression:tb;writing-mode:lr-tb;text-anchor:start;baseline-shift:baseline;color:black;fill:red;fill-opacity:0.25098039;fill-rule:nonzero;stroke:none;stroke-width:2;marker:none;visibility:visible;display:inline;overflow:visible;enable-background:accumulate;font-family:Sans;-inkscape-font-specification:Sans"
       d="m 133.86127,1034.2994 -0.99902,2.3613 -0.18165,0.4541 -0.72656,0.061 -2.8457,0.1817 2.36133,1.6045 0.48437,0.3027 -0.0908,0.2724 -0.18164,0.6358 -0.18164,0 -0.96875,0 0,-0.9688 -0.96875,0 -2.90625,0 -0.96875,0 -3.875,0 -0.93848,0 c 0.44663,-0.5129 0.75684,-1.1562 0.75684,-1.8769 0,-0.5856 -0.15308,-1.1799 -0.54492,-1.6348 l -0.27246,-0.333 -0.0908,0 c -0.13096,-0.094 -0.25648,-0.1612 -0.36328,-0.2119 -0.11184,-0.054 -0.19544,-0.074 -0.24219,-0.091 -0.0454,-0.016 -0.13774,-0.056 -0.27246,-0.091 -0.34345,-0.089 -0.69537,-0.1211 -1.05957,-0.1211 -0.63309,0 -1.25175,0.1375 -1.72559,0.5449 -0.0564,0.048 -0.042,0.1283 -0.0908,0.1817 l 0,-0.2422 -0.96875,0 -3.875,0 -0.96875,0 0,0.9687 -0.96875,0 -0.96875,0 0,-0.9687 -0.96875,0 -3.875,0 -0.96875,0 0,0.9687 0,1.4834 c -1.51963,-0.6368 -3.25318,-0.6076 -4.84375,0.061 l 0,-1.5439 0,-0.9688 -0.96875,0 -3.875,0 -0.96875,0 0,0.9688 -0.96875,0 -0.96875,0 0,-0.9688 -0.96875,0 -3.875,0 -0.96875,0 0,0.9688 0,10.6562 0,0.9688 0.96875,0 3.875,0 0.96875,0 0,-0.9688 0,-2.9062 0.96875,0 0.96875,0 0,2.9062 0,0.9688 0.96875,0 2.81543,0 c 1.96845,1.9898 5.07384,2.5475 7.59863,1.0898 0.49006,-0.2829 0.88565,-0.6972 1.27149,-1.0898 l 2.8457,0 0.96875,0 0,-0.9688 0,-2.9062 0.96875,0 0.96875,0 0,2.9062 0,0.9688 0.96875,0 3.875,0 0.96875,0 3.875,0 0.96875,0 3.875,0 0.96875,0 0.96875,0 3.875,0 0.66602,0 c 0.0929,0.081 0.1524,0.1611 0.27246,0.2422 -0.30526,-0.2061 -0.30632,-0.1918 0.0303,0.03 0.253,0.1665 0.50475,0.252 0.69629,0.333 0.007,0 0.0236,-0 0.0303,0 0.16288,0.066 0.29483,0.1084 0.333,0.1211 0.0364,0.012 0.2035,0.095 0.45411,0.1513 0.0151,0 0.0143,-0 0.0303,0 0.76338,0.1549 1.53955,0.081 2.24023,-0.1513 0.50333,-0.1644 0.97786,-0.4001 1.39258,-0.7266 l 0.63574,0 0,0.9688 0.96875,0 5.8125,0 0.96875,0 0,-0.9688 0.96875,0 0,-0.9687 0.96875,0 0,-0.9688 0,-0.9687 0,-0.9688 0,-0.9687 -0.96875,0 0,-0.9688 0,-0.9687 0,-0.9688 0,-0.9687 -0.96875,0 -0.96875,0 0,-0.9688 -0.96875,0 -3.875,0 -0.96875,0 0,0.9688 -0.96875,0 -0.96875,0 0,-0.6358 -0.96875,0 -0.75683,0 c -0.0193,-0.038 -0.008,-0.085 -0.0303,-0.1211 l 0.0605,-0.1211 0.69629,-1.3925 -1.57422,0 -0.0606,-0.212 -0.81739,-2.4218 z"
       id="path4117"
       inkscape:connector-curvature="0"
       sodipodi:nodetypes="cccccccccccccccccsccccccsccccccccccccccccccccccccccccccccccccccccccsccccccccccccccccccccccccccccccccccccccccccccccccccccccccccccccccc" />
    <g
       id="g4312">
      <path
         sodipodi:nodetypes="cccccccsssszscccccccccccccccccccccccccscccccccccccccccc"
         inkscape:connector-curvature="0"
         id="path4308"
         d="m 135.875,733.46875 -3.40625,3.40625 -0.1875,0.5 -2.1875,0.125 -1.90625,1.90625 -4.59375,0 c 0.24273,-0.52817 0.19947,-1.17247 0.18745,-1.5626 -0.009,-0.69884 -0.54538,-1.35178 -0.78125,-1.7188 -0.23587,-0.36702 -0.6492,-0.57785 -0.8437,-0.6875 -0.21422,-0.12076 -0.53922,-0.24323 -0.9375,-0.375 -0.27287,-0.0903 -0.90875,-0.15625 -1.34375,-0.15625 -0.40204,0 -0.81311,0.0381 -1.21875,0.15625 -0.19853,0.0578 -0.39226,0.21167 -0.59375,0.3125 l -0.0625,0 -14.4,0 -2.1,2.09375 c -0.49338,0.014 -1.00157,0.0246 -1.46875,0.125 l -0.0313,0 0,-2.21875 -7.40625,0 -0.5937,0.56265 0,-0.5625 -7.40625,0 -2.71875,2.6875 0,14.4375 7.40625,0 0.59375,-0.59375 0,0.59375 4.625,0 c 2.34442,2.05539 5.77985,2.61142 8.625,0.96875 0.4463,-0.22442 0.86429,-0.63175 1.21885,-0.9376 l 3.9375,0 0.59375,-0.59375 0,0.59375 22.3125,0 c 0.0607,0.0495 0.0744,0.0745 0.15625,0.125 0.56845,0.35105 1.22892,0.63582 1.96875,0.75 0.92302,0.14245 1.87712,0.058 2.75,-0.1875 0.30356,-0.0854 0.53837,-0.26784 0.8125,-0.40625 l 0,0.71875 9.40625,0 4.71875,-4.71875 0,-5.40625 -1,0 0,-4.03125 -2,0 0,-1 -7.40625,0 -0.59375,0.5625 0,-0.1875 c -0.41667,0 -0.83333,0 -1.25,0 l 0.84375,-1.6875 -2.53125,0 -1.1875,-3.59375 z"
         style="font-size:medium;font-style:normal;font-variant:normal;font-weight:normal;font-stretch:normal;text-indent:0;text-align:start;text-decoration:none;line-height:normal;letter-spacing:normal;word-spacing:normal;text-transform:none;direction:ltr;block-progression:tb;writing-mode:lr-tb;text-anchor:start;baseline-shift:baseline;color:black;fill:white;fill-opacity:1;stroke:none;stroke-width:2;marker:none;visibility:visible;display:inline;overflow:visible;enable-background:accumulate;font-family:Sans;-inkscape-font-specification:Sans" />
      <path
         style="font-size:medium;font-style:normal;font-variant:normal;font-weight:normal;font-stretch:normal;text-indent:0;text-align:start;text-decoration:none;line-height:normal;letter-spacing:normal;word-spacing:normal;text-transform:none;direction:ltr;block-progression:tb;writing-mode:lr-tb;text-anchor:start;color:black;fill:black;fill-opacity:1;fill-rule:nonzero;stroke:none;stroke-width:2;marker:none;visibility:visible;font-family:Sans;-inkscape-font-specification:Sans"
         d="m 135.4375,735.33093 -2.125,2.125 -0.375,0.875 -2.40625,0.15625 -1.90625,1.90625 -6.59375,0 c 0.10981,-0.12611 0.22122,-0.26552 0.3125,-0.40625 0.005,-0.008 -0.006,-0.0242 0,-0.0313 0.12041,-0.14534 0.18735,-0.33122 0.25,-0.4688 0.14634,-0.32138 0.21898,-0.65927 0.21875,-1.03125 -1e-4,-0.16555 -0.0134,-0.32299 -0.0313,-0.4688 -0.0553,-0.45064 -0.20406,-0.88862 -0.53125,-1.21875 -0.22805,-0.2301 -0.45626,-0.395 -0.74995,-0.5625 -0.16564,-0.0945 -0.38238,-0.14481 -0.53125,-0.1874 -0.35207,-0.10073 -0.7178,-0.125 -1.09375,-0.125 -0.32675,0 -0.63502,0.0369 -0.9375,0.125 -0.30248,0.0881 -0.6052,0.22044 -0.84375,0.4375 -0.0302,0.0275 -0.0592,0.0395 -0.0937,0.0626 l 0,-0.1563 -6,0 0,0.0313 -1,0.96875 -1,0 0,-1 -6,0 0,0.0313 -2.0625,2.03125 c -0.56305,-0.0288 -1.12409,0.0352 -1.6875,0.15625 -0.41895,0.09 -0.843,0.20402 -1.25,0.375 l 0,-2.59375 -6,0 -1,1 -1,0 0,-1 -6,0 -2.125,2.125 0,13 6,0 2,-2 0,2 3.90625,0 c 2.031937,2.054 5.23752,2.62973 7.84375,1.125 0.50669,-0.27797 0.9015,-0.69783 1.3125,-1.09375 l 3.9375,0 2,-2 0,2 21.6875,0 c 0.10623,0.10949 0.1933,0.20761 0.31255,0.28125 0.48555,0.29985 1.02986,0.53796 1.59385,0.625 0.76355,0.11784 1.56877,0.0529 2.3125,-0.15625 0.52028,-0.14633 1.0094,-0.413 1.4375,-0.75 l 0.65625,0 0,1 8,0 4.125,-4.125 0,-4 -1,0 0,-4.03125 -2,0 0,-1 -6,0 -1,1 -1,0 0,-0.625 -1,0 -0.78125,0 c -0.0199,-0.039 -0.008,-0.0881 -0.0313,-0.125 l 0.0625,-0.125 0.71875,-1.4375 -1.625,0 z"
         id="path9330"
         inkscape:connector-curvature="0"
         sodipodi:nodetypes="ccccccsssssssssssccccccccccscccccccccccccccccccaaaccccccccccccccccccccc" />
      <path
         inkscape:connector-curvature="0"
         id="path4156"
         d="m 86,737.36218 0,11 4,0 0,-6 1,0 0,1 0,1 1,0 1,0 0,-1 0,-1 1,0 0,6 4,0 0,-11 -4,0 0,1 -1,0 0,1 0,1 -1,0 -1,0 0,-1 0,-1 -1,0 0,-1 -4,0 z"
         style="fill:url(#linearGradient4305);fill-opacity:1;stroke:none" />
      <path
         style="fill:url(#linearGradient4302);fill-opacity:1;stroke:none"
         d="m 105,737.36218 0,11 4,0 0,-6 1,0 0,1 0,1 1,0 1,0 0,-1 0,-1 1,0 0,6 4,0 0,-11 -4,0 0,1 -1,0 0,1 0,1 -1,0 -1,0 0,-1 0,-1 -1,0 0,-1 -4,0 z"
         id="path4158"
         inkscape:connector-curvature="0" />
      <rect
         y="741.36218"
         x="118"
         height="7"
         width="4"
         id="rect4160"
         style="fill:url(#linearGradient4299);fill-opacity:1;stroke:none" />
      <path
         sodipodi:nodetypes="czzzz"
         id="path4162"
         d="m 119.86756,736.86218 c -1.16667,0 -1.55556,0.49612 -1.55556,1.55555 0,1.16667 0.38889,1.94445 1.55556,1.94445 1.16666,0 1.94444,-0.77778 1.94444,-1.94445 0,-1.16666 -0.77778,-1.55555 -1.94444,-1.55555 z"
         style="fill:lime;fill-opacity:1;fill-rule:nonzero;stroke:none"
         inkscape:connector-curvature="0" />
      <path
         id="path4164"
         d="m 119.47867,737.63995 -1.14237,0.47396 c -0.008,0.0955 -0.0243,0.19692 -0.0243,0.30382 0,1.16667 0.38889,1.94445 1.55556,1.94445 0.48944,0 0.90359,-0.14383 1.22743,-0.38889 -0.34068,-0.0182 -1.06207,-0.0972 -1.34896,-0.38889 -0.38251,-0.38889 0.12153,-0.77778 0.12153,-0.77778 0,0 -0.7728,0.23548 -1.00868,-0.12153 -0.23588,-0.35701 0.61979,-1.04514 0.61979,-1.04514 z"
         style="fill:#00a000;fill-opacity:1;fill-rule:nonzero;stroke:none"
         inkscape:connector-curvature="0" />
      <path
         id="path4166"
         d="m 119.86756,736.86218 c -0.25965,0 -0.46937,0.0352 -0.65625,0.0851 0.0967,-0.009 0.65625,-0.0531 0.65625,0.30382 0,0.32748 0,0.65111 0,0.77777 0.0182,-0.25819 0.0972,-0.77777 0.38888,-0.77777 0.38462,0 1.07833,0.0118 1.09375,0.0122 -0.34198,-0.28581 -0.85484,-0.40104 -1.48263,-0.40104 z"
         style="fill:#c1ffc1;fill-opacity:1;fill-rule:nonzero;stroke:none"
         inkscape:connector-curvature="0" />
      <path
         id="path4168"
         d="m 121.31374,737.22676 -0.0365,0.0243 0.21875,0.15798 c -0.0554,-0.0659 -0.11366,-0.1296 -0.1823,-0.18229 z m 0.18229,0.18229 c 0,0 -0.74232,0.16914 -0.8507,0.44965 -0.10838,0.28051 0.38889,0.34028 0.38889,0.34028 0,0 -0.38889,0.21875 -0.38889,0.60764 0,0.38889 0.19445,0.94792 0.19445,0.94792 0,0 -0.19445,-0.76941 0.19444,-0.94792 0.38889,-0.17851 0.72917,0.0729 0.72917,0.0729 0.0296,-0.14748 0.0486,-0.2979 0.0486,-0.46181 0,-0.44155 -0.11424,-0.76887 -0.31597,-1.00868 z"
         style="fill:#c1ffc1;fill-opacity:1;fill-rule:nonzero;stroke:none"
         inkscape:connector-curvature="0" />
      <path
         transform="matrix(0.33333333,0,0,0.33332158,130,738.69589)"
         d="m 30,21.5 a 10.5,10.5 0 1 1 -21,0 10.5,10.5 0 1 1 21,0 z"
         sodipodi:ry="10.5"
         sodipodi:rx="10.5"
         sodipodi:cy="21.5"
         sodipodi:cx="19.5"
         id="path4172"
         style="fill:gray;fill-opacity:1;fill-rule:nonzero;stroke:none"
         sodipodi:type="arc" />
      <rect
         y="742.02911"
         x="135.66666"
         height="0.66664314"
         width="1.6666666"
         id="rect4174"
         style="fill:#909090;fill-opacity:1;fill-rule:nonzero;stroke:none" />
      <path
         style="fill:none;stroke:#e00000;stroke-width:1;stroke-linecap:round;stroke-linejoin:round;stroke-miterlimit:4;stroke-opacity:1;stroke-dasharray:none;stroke-dashoffset:0"
         d="m 136.52929,740.69582 c 0,-0.33402 -0.0677,-0.50887 -0.19596,-0.66665 -0.12825,-0.15777 -0.42559,-0.29621 -0.66666,-0.33332"
         id="path4176"
         sodipodi:nodetypes="czz"
         inkscape:connector-curvature="0" />
      <rect
         y="740.6958"
         x="135"
         height="1.3332863"
         width="3"
         id="rect4178"
         style="fill:#909090;fill-opacity:1;fill-rule:nonzero;stroke:none" />
      <path
         inkscape:transform-center-x="1.5368965"
         inkscape:transform-center-y="1.5368963"
         id="path4180"
         d="m 134.02513,743.38751 c -1.36613,1.36609 -1.36613,3.5835 0,4.94958 1.36613,1.36608 3.58361,1.36608 4.94974,0 -0.8457,0.84567 -2.6408,0.4233 -4.00694,-0.94278 -1.36613,-1.36608 -1.7885,-3.16113 -0.9428,-4.0068 z"
         style="fill:#606060;fill-opacity:1;fill-rule:nonzero;stroke:none"
         inkscape:connector-curvature="0" />
      <path
         id="path4182"
         d="m 135.66667,742.0291 0,0.66665 0.66666,0 L 136,742.0291 l -0.33333,0 z"
         style="fill:#606060;fill-opacity:1;fill-rule:nonzero;stroke:none"
         inkscape:connector-curvature="0" />
      <path
         inkscape:transform-center-x="-1.536897"
         style="fill:#909090;fill-opacity:1;fill-rule:nonzero;stroke:none"
         d="m 138.97487,748.33709 c 1.36613,-1.36608 1.36613,-3.58349 0,-4.94958 -1.36613,-1.36608 -3.58361,-1.36608 -4.94974,0 0.84569,-0.84566 2.6408,-0.4233 4.00693,0.94278 1.36613,1.36608 1.78851,3.16113 0.94281,4.0068 z"
         id="path4184"
         inkscape:transform-center-y="-1.5368969"
         inkscape:connector-curvature="0" />
      <path
         id="path4186"
         d="m 135,740.69582 0,1.33328 1.33333,0 -0.66666,-1.33328 -0.66667,0 z"
         style="fill:#606060;fill-opacity:1;fill-rule:nonzero;stroke:none"
         inkscape:connector-curvature="0" />
      <rect
         y="741.6958"
         x="135.77509"
         height="0.33332157"
         width="2.2249157"
         id="rect4188"
         style="fill:#606060;fill-opacity:1;fill-rule:nonzero;stroke:none" />
      <path
         id="path4190"
         d="m 137.22917,743.12282 -0.34375,1.29162 c 0.53319,0.14286 0.91963,0.52929 1.0625,1.06246 l 1.29166,-0.34374 c -0.26986,-1.0071 -1.00328,-1.74049 -2.01041,-2.01034 z"
         style="fill:silver;fill-opacity:1;fill-rule:nonzero;stroke:none"
         inkscape:connector-curvature="0" />
      <path
         sodipodi:nodetypes="ccccccccccc"
         id="path4192"
         d="m 134.89593,739.18967 -1.37559,0.0767 1.14633,0.76276 -0.33334,0.99997 1,-0.66664 1,0.66664 -0.33333,-1.33329 0.33333,-0.66664 -0.66666,0 -0.33334,-0.91703 -0.4374,1.07749 z"
         style="fill:yellow;fill-opacity:1;fill-rule:nonzero;stroke:none"
         inkscape:connector-curvature="0" />
      <path
         id="path4194"
         d="m 123,741.36218 0,7 4,0 0,-4 1,0 0,-1 1,0 0,1 0,4 4,0 0,-4 0,-1 0,-1 -2,0 0,-1 -3,0 0,1 -1,0 0,-1 -4,0 z"
         style="fill:url(#linearGradient4281);fill-opacity:1;stroke:none"
         inkscape:connector-curvature="0" />
      <path
         id="path4196"
         d="m 142,740.36218 0,1 -2,0 0,1 -1,0 0,1 1,0 0,1 1,0 0,1 3,0 0,1 1,0 0,1 -2,0 0,-1 -4,0 0,1 1,0 0,1 1,0 0,1 6,0 0,-1 1,0 0,-1 1,0 0,-1 0,-1 -1,0 0,-1 -4,0 0,-1 -1,0 0,-1 2,0 0,1 3,0 0,-1 0,-1 -2,0 0,-1 -4,0 z"
         style="fill:url(#linearGradient4278);fill-opacity:1;stroke:none"
         inkscape:connector-curvature="0" />
      <g
         id="g5542">
        <path
           transform="matrix(-0.78654846,0,0,0.7865602,107.76495,738.5697)"
           d="m 1.9105703,4.504348 a 6.9913044,6.9913044 0 1 1 0,6.991304 L 7.9652176,8 z"
           sodipodi:ry="6.9913044"
           sodipodi:rx="6.9913044"
           sodipodi:cy="8"
           sodipodi:cx="7.9652176"
           id="path4200"
           style="fill:red;fill-opacity:1;fill-rule:nonzero;stroke:none"
           sodipodi:type="arc"
           sodipodi:start="3.6651914"
           sodipodi:end="8.9011792" />
        <path
           d="M 10,5 A 2,2 0 1 1 6,5 2,2 0 1 1 10,5 z"
           sodipodi:ry="2"
           sodipodi:rx="2"
           sodipodi:cy="5"
           sodipodi:cx="8"
           id="path4202"
           style="fill:white;fill-opacity:1;fill-rule:nonzero;stroke:none"
           sodipodi:type="arc"
           transform="matrix(-0.78557138,0,0,0.78558308,107.78449,738.57751)" />
        <path
           transform="matrix(-0.78557138,0,0,0.78558308,108.57006,738.57751)"
           d="M 9,5 A 1,1 0 1 1 7,5 1,1 0 1 1 9,5 z"
           sodipodi:ry="1"
           sodipodi:rx="1"
           sodipodi:cy="5"
           sodipodi:cx="8"
           id="path4204"
           style="fill:black;fill-opacity:1;fill-rule:nonzero;stroke:none"
           sodipodi:type="arc" />
      </g>
    </g>
    <g
       id="g4379">
      <path
         sodipodi:nodetypes="ccccccssssscccccccccccccccccccscccccczccssccczzzzzcccccscccccccccc"
         inkscape:connector-curvature="0"
         id="path4373"
         d="m 135.8125,761.46875 -3.375,3.375 -0.2187,0.5 -2.125,0.125 -1.90625,1.90625 -4.5625,0 c 0.3244,-1.01777 0.20016,-1.4865 -2e-4,-2.18765 -0.15171,-0.53089 -0.43884,-1.06797 -0.8751,-1.4064 -0.79394,-0.61589 -1.54975,-1.01877 -2.875,-0.90625 -0.19748,0.0168 -0.39821,-10e-4 -0.59375,0.0313 -0.41645,0.0688 -0.82948,0.18053 -1.21875,0.34375 -0.0774,0.0325 -0.15211,0.089 -0.21875,0.125 l -5.78125,0 -1.21875,1.1875 -0.78125,-1.1875 -6.46875,0 c -0.73639,0.66802 -1.42207,1.39082 -2.125,2.09375 -0.11853,5e-4 -0.21869,-0.008 -0.34375,0 -0.36709,0.024 -0.74625,0.10721 -1.125,0.1875 l 0,-2.28125 -6.9375,0 -1.21875,1.1875 -0.78125,-1.1875 -6.46875,0 -2.71875,2.6875 0,14.4375 7.40625,0 0.59375,-0.59375 0,0.59375 4.625,0 c 2.347789,2.05202 5.78552,2.5769 8.625,0.9375 0.47108,-0.27198 0.86268,-0.59894 1.21875,-0.9375 l 3.9375,0 0.59375,-0.59375 0,0.59375 22.32525,0 c 0.33543,0.18236 0.67932,0.35454 1.0186,0.53135 0.30506,0.15879 0.6017,0.22671 1.2501,0.34375 0.6484,0.11704 1.81057,0.0824 2.625,-0.1875 0.71678,-0.23411 1.35412,-0.65567 1.90625,-1.15625 1.01664,0.48412 2.16291,0.87564 3.46875,0.96875 1.65861,0.11825 3.18239,-0.14748 4.46875,-0.6875 0.61291,-0.2573 1.25907,-0.60281 1.78125,-1.125 0.61388,-0.62565 1.49179,-1.52527 1.8437,-1.87495 0.57443,-0.5025 0.79455,-0.93402 1.0001,-1.21875 0.0476,-0.15607 0.1775,-0.39085 0.21875,-0.59395 0.0412,-0.2031 0.0729,-0.46711 0.0937,-0.6563 0.0208,-0.18919 0.0458,-0.33975 0,-0.625 -0.0458,-0.28525 -0.14176,-0.65529 -0.2188,-0.9063 -0.077,-0.25101 -0.18828,-0.34231 -0.2812,-0.49995 -0.0929,-0.15764 -0.25555,-0.33872 -0.375,-0.46875 0.44792,-0.44792 0.89583,-0.89583 1.34375,-1.34375 -0.57066,-0.66746 -1.16261,-1.31609 -1.75,-1.96875 -0.18615,-0.20657 -0.35854,-0.34885 -0.5,-0.46875 -0.13733,-0.11757 -0.30782,-0.27023 -0.5625,-0.4375 -0.60135,-0.39494 -1.28563,-0.67355 -1.96875,-0.875 -0.68563,-0.20219 -1.41277,-0.322 -2.15625,-0.375 -1.1496,-0.082 -2.24757,0.0126 -3.25,0.3125 -0.33869,0.10139 -0.66969,0.23405 -0.96875,0.375 l -0.1875,0.0937 0,-0.9375 -1.25,0 0.84375,-1.6875 -2.5,0 -1.28125,-3.5625 z"
         style="font-size:medium;font-style:normal;font-variant:normal;font-weight:normal;font-stretch:normal;text-indent:0;text-align:start;text-decoration:none;line-height:normal;letter-spacing:normal;word-spacing:normal;text-transform:none;direction:ltr;block-progression:tb;writing-mode:lr-tb;text-anchor:start;baseline-shift:baseline;color:black;fill:white;fill-opacity:1;stroke:none;stroke-width:2;marker:none;visibility:visible;display:inline;overflow:visible;enable-background:accumulate;font-family:Sans;-inkscape-font-specification:Sans" />
      <path
         sodipodi:nodetypes="ccccccccsccssccsscccccccccccscccccccccccccscccccccccccccccccscssczzcczcccccccsscsscccccccccccccccc"
         inkscape:connector-curvature="0"
         id="path11615"
         d="m 135.40625,763.29968 -2.125,2.125 c -0.12177,0.29373 -0.25256,0.58157 -0.375,0.875 -0.7915,0.0547 -1.58326,0.10572 -2.375,0.15625 L 128.5,768.48718 c -0.16998,0.0379 -0.33439,0.0721 -0.5,0.125 l 0,-0.25 -5.96875,0 c 0.40627,-0.42833 0.5634,-0.96525 0.71875,-1.4063 0.0595,-0.16897 0.0625,-0.34312 0.0625,-0.53125 0.0166,-0.31899 -0.078,-0.61008 -0.125,-0.9063 -0.0801,-0.29056 -0.21838,-0.56213 -0.4375,-0.78125 l -0.0313,-0.0313 c -0.24528,-0.24528 -0.45497,-0.39882 -0.7187,-0.53125 -0.15652,-0.12793 -0.38693,-0.13656 -0.53125,-0.1875 -0.35448,-0.0917 -0.71783,-0.125 -1.09375,-0.125 -0.16338,0 -0.34059,0.0143 -0.5,0.0313 -0.31883,0.0339 -0.59727,0.11096 -0.875,0.25 -0.13886,0.0695 -0.28397,0.14486 -0.40625,0.25 l 0,0.0313 c -0.008,0.0115 -0.0263,0.0183 -0.0313,0.0313 l -0.0624,0.0625 0,-0.15625 -5.53125,0 -1.75,1.75 -1.1875,-1.75 -5.53125,0 -2.09375,2.09375 c -0.23754,-0.011 -0.47969,-0.0156 -0.71875,0 -0.40888,0.0267 -0.81355,0.0835 -1.21875,0.1875 -0.326718,0.0794 -0.650011,0.17859 -0.96875,0.3125 l 0,-2.59375 -5.53125,0 -1.75,1.75 -1.1875,-1.75 -5.53125,0 -2.125,2.125 0,13 6,0 2,-2 0,2 3.90625,0 c 2.032171,2.05096 5.23904,2.5976 7.84375,1.09375 0.44799,-0.25865 0.83097,-0.58097 1.1875,-0.9375 l 0.125,-0.15625 0.0313,0 3.90625,0 2,-2 0,2 21.71875,0 c 0.0178,0.0152 0.0468,0.0164 0.0625,0.0313 l -0.0313,0.0313 c 0.002,-0.002 0.0629,0.0524 0.21875,0.15625 0.0211,0.0146 0.006,0.0145 0.0313,0.0313 0.26145,0.17205 0.52089,0.2914 0.71875,0.375 l 0.0313,0 c 0.16869,0.0689 0.30455,0.112 0.34375,0.125 0.0377,0.0123 0.20987,0.0983 0.46875,0.15625 l 0.0313,0 c 0.788,0.15983 1.58921,0.0834 2.3125,-0.15625 0.6485,-0.21181 1.23441,-0.57816 1.71875,-1.0625 l 0.31235,-0.3125 c 1.03472,0.59534 2.2796,1.02239 3.71875,1.125 1.51409,0.10795 2.91041,-0.12322 4.03125,-0.59375 0.53869,-0.22614 1.04751,-0.51625 1.4375,-0.90625 0,0 1.77317,-1.8363 1.84375,-1.875 0.0706,-0.0387 0.22764,-0.2259 0.31255,-0.3125 0.0849,-0.0866 0.12199,-0.15019 0.21875,-0.25 0.2249,-0.28765 0.3111,-0.56422 0.4375,-0.84385 0.0423,-0.13629 0.0517,-0.28661 0.0625,-0.4375 0.0108,-0.15089 0.0137,-0.31721 0,-0.4375 -0.0343,-0.22222 -0.10557,-0.42213 -0.1563,-0.625 -0.11447,-0.35508 -0.38452,-0.6014 -0.59375,-0.875 -0.15325,-0.169 -0.33561,-0.3487 -0.53125,-0.5 l 1.375,-1.375 -1.125,-1.25 c -0.12797,-0.14201 -0.259,-0.25019 -0.40625,-0.375 -0.15218,-0.13029 -0.29793,-0.26281 -0.46875,-0.375 -0.49347,-0.32409 -1.07529,-0.56946 -1.6875,-0.75 -0.61221,-0.18054 -1.26126,-0.29554 -1.9375,-0.34375 -1.04324,-0.0744 -2.0404,0.0222 -2.90625,0.28125 -0.28862,0.0864 -0.55301,0.1902 -0.8125,0.3125 -0.16247,0.0766 -0.32423,0.1838 -0.46875,0.28125 -0.043,0.0301 -0.0836,0.0619 -0.125,0.0937 -0.11566,0.0858 -0.20837,0.18346 -0.3125,0.28125 -0.0266,0.0253 -0.0678,0.0365 -0.0937,0.0625 -0.0479,0.0476 -0.0795,0.10628 -0.125,0.15625 l -0.34375,0.3125 -0.1563,-0.0937 0,-0.84375 0,-1 -1,0 -0.28125,0 c -0.0865,-0.2113 -0.0769,-0.48174 -0.21875,-0.65625 -0.0113,-0.0139 -0.0197,-0.0177 -0.0313,-0.0313 l 0.5,-1 -1.59375,0 c -0.33169,-0.90364 -0.64974,-1.81054 -0.96875,-2.71875 z"
         style="font-size:medium;font-style:normal;font-variant:normal;font-weight:normal;font-stretch:normal;text-indent:0;text-align:start;text-decoration:none;line-height:normal;letter-spacing:normal;word-spacing:normal;text-transform:none;direction:ltr;block-progression:tb;writing-mode:lr-tb;text-anchor:start;color:black;fill:black;fill-opacity:1;fill-rule:nonzero;stroke:none;stroke-width:2;marker:none;visibility:visible;font-family:Sans;-inkscape-font-specification:Sans" />
      <path
         inkscape:connector-curvature="0"
         id="path11233"
         d="m 144.28429,768.86689 c -2.47899,-0.17674 -4.56821,0.79644 -4.66639,2.17365 -0.0982,1.37722 1.83183,2.63695 4.31081,2.81369 0.55089,0.0393 0.98155,0.29441 0.96191,0.56985 -0.0196,0.27544 -0.48214,0.4669 -1.03302,0.42762 -0.45907,-0.0327 -0.80738,-0.22135 -0.90846,-0.44072 l -3.93414,0.25211 c 0.50651,1.13184 2.44307,2.02261 4.70037,2.18355 2.75443,0.19638 5.06694,-0.76088 5.16513,-2.1381 0.0982,-1.37721 -2.05512,-2.65286 -4.80956,-2.84924 -0.55088,-0.0393 -0.98154,-0.29441 -0.96191,-0.56985 0.0196,-0.27545 0.48214,-0.4669 1.03303,-0.42762 0.34995,0.025 0.62436,0.15811 0.79266,0.30715 l 3.15704,-0.77746 c -0.74681,-0.82871 -2.20384,-1.4103 -3.80747,-1.52463 z"
         style="fill:url(#linearGradient4370);fill-opacity:1;stroke:none" />
      <path
         sodipodi:nodetypes="cccccccccccccc"
         inkscape:connector-curvature="0"
         id="path11235"
         d="m 86,765.36218 0,11 0,0 4,0 0,-6 2,3 2,-3 0,6 4,0 0,-11 -4,0 -2,3 -2,-3 z"
         style="fill:url(#linearGradient4367);fill-opacity:1;stroke:none" />
      <path
         style="fill:url(#linearGradient4364);fill-opacity:1;stroke:none"
         d="m 105,765.36218 0,11 0,0 4,0 0,-6 2,3 2,-3 0,6 4,0 0,-11 -4,0 -2,3 -2,-3 z"
         id="path11237"
         inkscape:connector-curvature="0"
         sodipodi:nodetypes="cccccccccccccc" />
      <path
         transform="matrix(-0.78654846,0,0,0.7865602,107.76495,766.5697)"
         d="m 1.9105703,4.504348 a 6.9913044,6.9913044 0 1 1 0,6.991304 L 7.9652176,8 z"
         sodipodi:ry="6.9913044"
         sodipodi:rx="6.9913044"
         sodipodi:cy="8"
         sodipodi:cx="7.9652176"
         id="path11241"
         style="fill:red;fill-opacity:1;fill-rule:nonzero;stroke:none"
         sodipodi:type="arc"
         sodipodi:start="3.6651914"
         sodipodi:end="8.9011792" />
      <path
         d="M 10,5 A 2,2 0 1 1 6,5 2,2 0 1 1 10,5 z"
         sodipodi:ry="2"
         sodipodi:rx="2"
         sodipodi:cy="5"
         sodipodi:cx="8"
         id="path11243"
         style="fill:white;fill-opacity:1;fill-rule:nonzero;stroke:none"
         sodipodi:type="arc"
         transform="matrix(-0.78557138,0,0,0.78558308,107.78449,766.57751)" />
      <path
         transform="matrix(-0.78557138,0,0,0.78558308,108.57006,766.57751)"
         d="M 9,5 A 1,1 0 1 1 7,5 1,1 0 1 1 9,5 z"
         sodipodi:ry="1"
         sodipodi:rx="1"
         sodipodi:cy="5"
         sodipodi:cx="8"
         id="path11245"
         style="fill:black;fill-opacity:1;fill-rule:nonzero;stroke:none"
         sodipodi:type="arc" />
      <rect
         style="fill:url(#linearGradient4358);fill-opacity:1;stroke:none"
         id="rect11247"
         width="4"
         height="7"
         x="118"
         y="769.36218" />
      <path
         inkscape:connector-curvature="0"
         style="fill:lime;fill-opacity:1;fill-rule:nonzero;stroke:none"
         d="m 119.86756,764.86218 c -1.16667,0 -1.55556,0.49612 -1.55556,1.55555 0,1.16667 0.38889,1.94445 1.55556,1.94445 1.16666,0 1.94444,-0.77778 1.94444,-1.94445 0,-1.16666 -0.77778,-1.55555 -1.94444,-1.55555 z"
         id="path11251"
         sodipodi:nodetypes="czzzz" />
      <path
         inkscape:connector-curvature="0"
         style="fill:#00a000;fill-opacity:1;fill-rule:nonzero;stroke:none"
         d="m 119.47867,765.63995 -1.14236,0.47396 c -0.008,0.0955 -0.0243,0.19692 -0.0243,0.30382 0,1.16667 0.38889,1.94445 1.55556,1.94445 0.48944,0 0.90359,-0.14383 1.22743,-0.38889 -0.34068,-0.0182 -1.06208,-0.0972 -1.34896,-0.38889 -0.38251,-0.38889 0.12153,-0.77778 0.12153,-0.77778 0,0 -0.7728,0.23548 -1.00868,-0.12153 -0.23589,-0.35701 0.61979,-1.04514 0.61979,-1.04514 z"
         id="path11253" />
      <path
         inkscape:connector-curvature="0"
         style="fill:#c1ffc1;fill-opacity:1;fill-rule:nonzero;stroke:none"
         d="m 119.86756,764.86218 c -0.25964,0 -0.46937,0.0352 -0.65625,0.0851 0.0967,-0.009 0.65625,-0.0531 0.65625,0.30382 0,0.32748 0,0.65111 0,0.77777 0.0182,-0.25819 0.0972,-0.77777 0.38889,-0.77777 0.38461,0 1.07832,0.0118 1.09375,0.0122 -0.34199,-0.28581 -0.85485,-0.40104 -1.48264,-0.40104 z"
         id="path11255" />
      <path
         inkscape:connector-curvature="0"
         style="fill:#c1ffc1;fill-opacity:1;fill-rule:nonzero;stroke:none"
         d="m 121.31374,765.22676 -0.0365,0.0243 0.21875,0.15798 c -0.0554,-0.0659 -0.11366,-0.1296 -0.18229,-0.18229 z m 0.18229,0.18229 c 0,0 -0.74232,0.16914 -0.8507,0.44965 -0.10837,0.28051 0.38889,0.34028 0.38889,0.34028 0,0 -0.38889,0.21875 -0.38889,0.60764 0,0.38889 0.19445,0.94792 0.19445,0.94792 0,0 -0.19445,-0.76941 0.19444,-0.94792 0.38889,-0.17851 0.72917,0.0729 0.72917,0.0729 0.0296,-0.14748 0.0486,-0.2979 0.0486,-0.46181 0,-0.44155 -0.11423,-0.76887 -0.31597,-1.00868 z"
         id="path11257" />
      <path
         inkscape:connector-curvature="0"
         id="path11259"
         d="m 123,769.36218 0,7 4,0 0,-4 c 0,-0.55228 0.44772,-1 1,-1 0.55228,0 1,0.44772 1,1 l 0,4 4,0 0,-4 c 0,-1.65685 -1.567,-3 -3.5,-3 -0.98376,0 -1.86415,0.34618 -2.5,0.90625 l 0,-0.90625 -4,0 z"
         style="fill:url(#linearGradient4351);fill-opacity:1;stroke:none" />
      <path
         sodipodi:type="arc"
         style="fill:gray;fill-opacity:1;fill-rule:nonzero;stroke:none"
         id="path11263"
         sodipodi:cx="19.5"
         sodipodi:cy="21.5"
         sodipodi:rx="10.5"
         sodipodi:ry="10.5"
         d="m 30,21.5 a 10.5,10.5 0 1 1 -21,0 10.5,10.5 0 1 1 21,0 z"
         transform="matrix(0.33333333,0,0,0.33332158,130,766.69589)" />
      <rect
         style="fill:#909090;fill-opacity:1;fill-rule:nonzero;stroke:none"
         id="rect11265"
         width="1.6666666"
         height="0.66664314"
         x="135.66667"
         y="770.02911" />
      <path
         inkscape:connector-curvature="0"
         sodipodi:nodetypes="czz"
         id="path11267"
         d="m 136.5293,768.69582 c 0,-0.33402 -0.0677,-0.50887 -0.19596,-0.66665 -0.12825,-0.15777 -0.4256,-0.29621 -0.66667,-0.33332"
         style="fill:none;stroke:#e00000;stroke-width:1;stroke-linecap:round;stroke-linejoin:round;stroke-miterlimit:4;stroke-opacity:1;stroke-dasharray:none;stroke-dashoffset:0" />
      <rect
         style="fill:#909090;fill-opacity:1;fill-rule:nonzero;stroke:none"
         id="rect11269"
         width="3"
         height="1.3332863"
         x="135"
         y="768.6958" />
      <path
         inkscape:connector-curvature="0"
         style="fill:#606060;fill-opacity:1;fill-rule:nonzero;stroke:none"
         d="m 134.02513,771.38751 c -1.36613,1.36609 -1.36613,3.5835 0,4.94958 1.36613,1.36608 3.58362,1.36608 4.94975,0 -0.8457,0.84567 -2.64081,0.4233 -4.00694,-0.94278 -1.36613,-1.36608 -1.78851,-3.16113 -0.94281,-4.0068 z"
         id="path11271"
         inkscape:transform-center-y="1.5368963"
         inkscape:transform-center-x="1.5368965" />
      <path
         inkscape:connector-curvature="0"
         style="fill:#606060;fill-opacity:1;fill-rule:nonzero;stroke:none"
         d="m 135.66667,770.0291 0,0.66665 0.66667,0 L 136,770.0291 l -0.33333,0 z"
         id="path11273" />
      <path
         inkscape:connector-curvature="0"
         inkscape:transform-center-y="-1.5368969"
         id="path11275"
         d="m 138.97488,776.33709 c 1.36613,-1.36608 1.36613,-3.58349 0,-4.94958 -1.36613,-1.36608 -3.58362,-1.36608 -4.94975,0 0.8457,-0.84566 2.64081,-0.4233 4.00694,0.94278 1.36613,1.36608 1.78851,3.16113 0.94281,4.0068 z"
         style="fill:#909090;fill-opacity:1;fill-rule:nonzero;stroke:none"
         inkscape:transform-center-x="-1.536897" />
      <path
         inkscape:connector-curvature="0"
         style="fill:#606060;fill-opacity:1;fill-rule:nonzero;stroke:none"
         d="m 135,768.69582 0,1.33328 1.33334,0 -0.66667,-1.33328 -0.66667,0 z"
         id="path11277" />
      <rect
         style="fill:#606060;fill-opacity:1;fill-rule:nonzero;stroke:none"
         id="rect11279"
         width="2.2249157"
         height="0.33332157"
         x="135.77509"
         y="769.6958" />
      <path
         inkscape:connector-curvature="0"
         style="fill:silver;fill-opacity:1;fill-rule:nonzero;stroke:none"
         d="m 137.22917,771.12282 -0.34375,1.29162 c 0.53319,0.14286 0.91963,0.52929 1.0625,1.06246 l 1.29167,-0.34374 c -0.26987,-1.0071 -1.00328,-1.74049 -2.01042,-2.01034 z"
         id="path11281" />
      <path
         inkscape:connector-curvature="0"
         style="fill:yellow;fill-opacity:1;fill-rule:nonzero;stroke:none"
         d="m 134.89594,767.18967 -1.3756,0.0767 1.14633,0.76276 -0.33333,0.99997 1,-0.66664 1,0.66664 -0.33334,-1.33329 0.33334,-0.66664 -0.66667,0 -0.33333,-0.91703 -0.4374,1.07749 z"
         id="path11283"
         sodipodi:nodetypes="ccccccccccc" />
    </g>
  </g>
</svg>
