<?xml version="1.0" encoding="UTF-8" standalone="no"?>
<!-- Created with Inkscape (http://www.inkscape.org/) -->
<svg
   xmlns:dc="http://purl.org/dc/elements/1.1/"
   xmlns:cc="http://creativecommons.org/ns#"
   xmlns:rdf="http://www.w3.org/1999/02/22-rdf-syntax-ns#"
   xmlns:svg="http://www.w3.org/2000/svg"
   xmlns="http://www.w3.org/2000/svg"
   xmlns:sodipodi="http://sodipodi.sourceforge.net/DTD/sodipodi-0.dtd"
   xmlns:inkscape="http://www.inkscape.org/namespaces/inkscape"
   width="32px"
   height="32px"
   id="svg3505"
   sodipodi:version="0.32"
   inkscape:version="0.46"
   sodipodi:docname="rock-00.svg"
   inkscape:output_extension="org.inkscape.output.svg.inkscape">
  <defs
     id="defs3507">
    <inkscape:perspective
       sodipodi:type="inkscape:persp3d"
       inkscape:vp_x="0 : 16 : 1"
       inkscape:vp_y="0 : 1000 : 0"
       inkscape:vp_z="32 : 16 : 1"
       inkscape:persp3d-origin="16 : 10.666667 : 1"
       id="perspective3513" />
    <inkscape:perspective
       id="perspective4690"
       inkscape:persp3d-origin="372.04724 : 350.78739 : 1"
       inkscape:vp_z="744.09448 : 526.18109 : 1"
       inkscape:vp_y="0 : 1000 : 0"
       inkscape:vp_x="0 : 526.18109 : 1"
       sodipodi:type="inkscape:persp3d" />
    <inkscape:perspective
       id="perspective2415"
       inkscape:persp3d-origin="372.04724 : 350.78739 : 1"
       inkscape:vp_z="744.09448 : 526.18109 : 1"
       inkscape:vp_y="0 : 1000 : 0"
       inkscape:vp_x="0 : 526.18109 : 1"
       sodipodi:type="inkscape:persp3d" />
    <inkscape:perspective
       id="perspective5551"
       inkscape:persp3d-origin="372.04724 : 350.78739 : 1"
       inkscape:vp_z="744.09448 : 526.18109 : 1"
       inkscape:vp_y="0 : 1000 : 0"
       inkscape:vp_x="0 : 526.18109 : 1"
       sodipodi:type="inkscape:persp3d" />
    <inkscape:perspective
       id="perspective5594"
       inkscape:persp3d-origin="372.04724 : 350.78739 : 1"
       inkscape:vp_z="744.09448 : 526.18109 : 1"
       inkscape:vp_y="0 : 1000 : 0"
       inkscape:vp_x="0 : 526.18109 : 1"
       sodipodi:type="inkscape:persp3d" />
    <inkscape:perspective
       id="perspective3253"
       inkscape:persp3d-origin="372.04724 : 350.78739 : 1"
       inkscape:vp_z="744.09448 : 526.18109 : 1"
       inkscape:vp_y="0 : 1000 : 0"
       inkscape:vp_x="0 : 526.18109 : 1"
       sodipodi:type="inkscape:persp3d" />
  </defs>
  <sodipodi:namedview
     id="base"
     pagecolor="#ffffff"
     bordercolor="#666666"
     borderopacity="1.0"
     inkscape:pageopacity="0.0"
     inkscape:pageshadow="2"
     inkscape:zoom="14.375"
     inkscape:cx="16"
     inkscape:cy="16.330361"
     inkscape:current-layer="layer1"
     showgrid="true"
     inkscape:grid-bbox="true"
     inkscape:document-units="px"
     objecttolerance="4"
     gridtolerance="4"
     guidetolerance="4"
     inkscape:window-width="641"
     inkscape:window-height="678"
     inkscape:window-x="0"
     inkscape:window-y="37"
     inkscape:object-paths="true"
     inkscape:object-nodes="true"
     inkscape:snap-bbox="true"
     inkscape:snap-guide="true"
     showguides="true"
     inkscape:guide-bbox="true">
    <inkscape:grid
       type="xygrid"
       id="grid3515"
       units="px"
       visible="true"
       enabled="true"
       spacingx="1px"
       spacingy="1px" />
  </sodipodi:namedview>
  <metadata
     id="metadata3510">
    <rdf:RDF>
      <cc:Work
         rdf:about="">
        <dc:format>image/svg+xml</dc:format>
        <dc:type
           rdf:resource="http://purl.org/dc/dcmitype/StillImage" />
        <dc:title>Skull 00</dc:title>
        <dc:date>2010-05-06</dc:date>
        <dc:creator>
          <cc:Agent>
            <dc:title>Andreas Neudecker &lt;zapyon@gmx.net&gt;</dc:title>
          </cc:Agent>
        </dc:creator>
        <dc:rights>
          <cc:Agent>
            <dc:title>Copyright (C) 2010 by Andreas Neudecker</dc:title>
          </cc:Agent>
        </dc:rights>
        <dc:publisher>
          <cc:Agent>
            <dc:title>Andreas Neudecker</dc:title>
          </cc:Agent>
        </dc:publisher>
        <dc:identifier>skull-00</dc:identifier>
        <dc:description>Poisonous skull.</dc:description>
      </cc:Work>
    </rdf:RDF>
  </metadata>
  <g
     id="layer1"
     inkscape:label="Layer 1"
     inkscape:groupmode="layer">
    <path
       style="opacity:1;fill:#b3b3b3;fill-opacity:1;fill-rule:nonzero;stroke:#000000;stroke-width:2;stroke-linecap:round;stroke-linejoin:round;stroke-miterlimit:4;stroke-dasharray:none;stroke-dashoffset:0;stroke-opacity:1"
       d="M 8 3 L 7 5 L 5 5 L 3 7 L 3 14 L 2 16 L 2 19 L 3 21 L 3 23 L 2 25 L 2 26 L 3 27 L 3 28 L 5 28 L 6 28 L 6.5 27.5 L 7.125 28.125 L 8 29 L 10 29 L 11 29 L 12 28 L 13 29 L 15 29 L 17 29 L 18 30 L 21 30 L 21 29.65625 L 21.8125 29.8125 L 22 30 L 24 30 L 25 29 L 28 29 L 28 28 L 27.9375 28 L 28.125 27.8125 C 28.216741 27.92105 28.346854 28 28.5 28 C 28.776 28 29 27.776 29 27.5 C 29 27.346854 28.92105 27.216741 28.8125 27.125 L 29 26.9375 L 29 25.9375 L 28 24.9375 L 29 22.9375 L 29 22 L 29 21 L 29 20.9375 L 28.03125 19.96875 L 28.03125 19.875 L 29 17.9375 L 29 16.9375 L 28 15.9375 L 26.28125 15 L 25 13 L 27 13 L 29 11 L 29 9 L 28.96875 8.96875 L 27.4375 7.15625 L 27.34375 7 L 25 5 L 23.375 5 L 22.9375 4.96875 L 21 4 L 18 3 L 14 3 L 12 4 L 11 3 L 8 3 z "
       id="path3391" />
    <path
       style="opacity:1;fill:#b3b3b3;fill-opacity:1;fill-rule:nonzero;stroke:none;stroke-width:4;stroke-linecap:round;stroke-linejoin:round;stroke-miterlimit:4;stroke-dasharray:none;stroke-dashoffset:0;stroke-opacity:1"
       d="M 3,7 L 5,5 L 7,5 L 8,3 L 11,3 L 12,4 L 14,3 L 18,3 L 21,4 L 23,5 L 25,5 L 27.33913,7 L 28,8 L 29,9 L 29,11 L 27,13 L 25,13 L 26.295652,15 L 28.004906,15.930546 L 29.004906,16.930546 L 29.004906,17.930546 L 28.004906,19.930546 L 29.004906,20.930546 L 29.004906,22.930546 L 28.004906,24.930546 L 29.004906,25.930546 L 29.004906,26.930546 L 27.004906,28.930546 L 26.004906,28.930546 L 26,28 L 24,30 L 22,30 L 21,29 L 21,30 L 18,30 L 16,28 L 15,29 L 13,29 L 12,28 L 11,29 L 9,29 L 7,27 L 6,28 L 4,28 L 2,26 L 2,25 L 3,23 L 3,21 L 2,19 L 2,16 L 3,14 L 3,7 z"
       id="path3259"
       sodipodi:nodetypes="cccccccccccccccccccccccccccccccccccccccccccccccccccc" />
    <path
       style="opacity:1;fill:#666666;fill-opacity:1;fill-rule:nonzero;stroke:none;stroke-width:4;stroke-linecap:round;stroke-linejoin:round;stroke-miterlimit:4;stroke-dasharray:none;stroke-dashoffset:0;stroke-opacity:1"
       d="M 23,15 L 24,15 L 25,16 L 27,16 L 28,17 L 28.015652,19.968696 L 29,21 L 29,22 L 27,24 L 28,25 L 27,26 L 26,25 L 26,26 L 27,26 L 27,27 L 26,28 L 28,28 L 28,29 L 24,29 L 23,30 L 17,29 L 13,29 L 12,28 L 10,29 L 8,29 L 7.1347826,28.134783 L 6,27 L 5,28 L 3,28 L 3,24 L 4,22 L 5,22 L 8,26 L 9,25 L 5,22 L 6,18 L 7,21 L 7,22 L 8,21 L 7,20 L 8,19 L 10,21 L 12,19 L 14,20 L 14,19 L 16,20 L 16,21 L 13,22 L 14,24 L 16,26 L 16,23 L 18,22 L 20,21 L 20,23 L 19,24 L 20,25 L 19,26 L 17,25 L 18,26 L 18,27 L 21,25 L 20,24 L 23,19 L 25,21 L 26,22 L 27,21 L 25,20 L 24,17 L 23,15 z"
       id="path3261"
       sodipodi:nodetypes="ccccccccccccccccccccccccccccccccccccccccccccccccccccccccccccccccccccc" />
    <path
       sodipodi:type="arc"
       style="opacity:1;fill:#333333;fill-opacity:1;fill-rule:nonzero;stroke:none;stroke-width:4;stroke-linecap:round;stroke-linejoin:round;stroke-miterlimit:4;stroke-dasharray:none;stroke-dashoffset:0;stroke-opacity:1"
       id="path3263"
       sodipodi:cx="10.5"
       sodipodi:cy="13.5"
       sodipodi:rx="0.5"
       sodipodi:ry="0.5"
       d="M 11,13.5 A 0.5,0.5 0 1 1 10,13.5 A 0.5,0.5 0 1 1 11,13.5 z" />
    <path
       sodipodi:type="arc"
       style="opacity:1;fill:#808080;fill-opacity:1;fill-rule:nonzero;stroke:none;stroke-width:4;stroke-linecap:round;stroke-linejoin:round;stroke-miterlimit:4;stroke-dasharray:none;stroke-dashoffset:0;stroke-opacity:1"
       id="path3265"
       sodipodi:cx="14.5"
       sodipodi:cy="11.5"
       sodipodi:rx="0.5"
       sodipodi:ry="0.5"
       d="M 15,11.5 A 0.5,0.5 0 1 1 14,11.5 A 0.5,0.5 0 1 1 15,11.5 z" />
    <path
       style="opacity:1;fill:#666666;fill-opacity:1;fill-rule:nonzero;stroke:none;stroke-width:4;stroke-linecap:round;stroke-linejoin:round;stroke-miterlimit:4;stroke-dasharray:none;stroke-dashoffset:0;stroke-opacity:1"
       d="M 17,3 L 15,4 L 14,5 L 11,5 L 12,7 L 9,9 L 8,11 L 10,10 L 11,9 L 13,10 L 9,14 L 14,11 L 13,9 L 14,8 L 16,11 L 18,9 L 17,8 L 18,6 L 16,4 L 17,3 z"
       id="path3287" />
    <path
       sodipodi:type="arc"
       style="opacity:1;fill:#e6e6e6;fill-opacity:1;fill-rule:nonzero;stroke:none;stroke-width:4;stroke-linecap:round;stroke-linejoin:round;stroke-miterlimit:4;stroke-dasharray:none;stroke-dashoffset:0;stroke-opacity:1"
       id="path3267"
       sodipodi:cx="13.5"
       sodipodi:cy="8.5"
       sodipodi:rx="0.5"
       sodipodi:ry="0.5"
       d="M 14,8.5 A 0.5,0.5 0 1 1 13,8.5 A 0.5,0.5 0 1 1 14,8.5 z"
       transform="translate(-2,1)" />
    <path
       sodipodi:type="arc"
       style="opacity:1;fill:#e6e6e6;fill-opacity:1;fill-rule:nonzero;stroke:none;stroke-width:4;stroke-linecap:round;stroke-linejoin:round;stroke-miterlimit:4;stroke-dasharray:none;stroke-dashoffset:0;stroke-opacity:1"
       id="path3269"
       sodipodi:cx="8.5"
       sodipodi:cy="4.5"
       sodipodi:rx="0.5"
       sodipodi:ry="0.5"
       d="M 9,4.5 A 0.5,0.5 0 1 1 8,4.5 A 0.5,0.5 0 1 1 9,4.5 z" />
    <path
       sodipodi:type="arc"
       style="opacity:1;fill:#808080;fill-opacity:1;fill-rule:nonzero;stroke:none;stroke-width:4;stroke-linecap:round;stroke-linejoin:round;stroke-miterlimit:4;stroke-dasharray:none;stroke-dashoffset:0;stroke-opacity:1"
       id="path3271"
       sodipodi:cx="3.5"
       sodipodi:cy="16.5"
       sodipodi:rx="0.5"
       sodipodi:ry="0.5"
       d="M 4,16.5 A 0.5,0.5 0 1 1 3,16.5 A 0.5,0.5 0 1 1 4,16.5 z" />
    <path
       sodipodi:type="arc"
       style="opacity:1;fill:#333333;fill-opacity:1;fill-rule:nonzero;stroke:none;stroke-width:4;stroke-linecap:round;stroke-linejoin:round;stroke-miterlimit:4;stroke-dasharray:none;stroke-dashoffset:0;stroke-opacity:1"
       id="path3273"
       sodipodi:cx="16.5"
       sodipodi:cy="17.5"
       sodipodi:rx="0.5"
       sodipodi:ry="0.5"
       d="M 17,17.5 A 0.5,0.5 0 1 1 16,17.5 A 0.5,0.5 0 1 1 17,17.5 z" />
    <path
       sodipodi:type="arc"
       style="opacity:1;fill:#808080;fill-opacity:1;fill-rule:nonzero;stroke:none;stroke-width:4;stroke-linecap:round;stroke-linejoin:round;stroke-miterlimit:4;stroke-dasharray:none;stroke-dashoffset:0;stroke-opacity:1"
       id="path3275"
       sodipodi:cx="6.5"
       sodipodi:cy="26.5"
       sodipodi:rx="0.5"
       sodipodi:ry="0.5"
       d="M 7,26.5 A 0.5,0.5 0 1 1 6,26.5 A 0.5,0.5 0 1 1 7,26.5 z" />
    <path
       sodipodi:type="arc"
       style="opacity:1;fill:#333333;fill-opacity:1;fill-rule:nonzero;stroke:none;stroke-width:4;stroke-linecap:round;stroke-linejoin:round;stroke-miterlimit:4;stroke-dasharray:none;stroke-dashoffset:0;stroke-opacity:1"
       id="path3277"
       sodipodi:cx="28.5"
       sodipodi:cy="27.5"
       sodipodi:rx="0.5"
       sodipodi:ry="0.5"
       d="M 29,27.5 A 0.5,0.5 0 1 1 28,27.5 A 0.5,0.5 0 1 1 29,27.5 z" />
    <path
       style="opacity:1;fill:#4d4d4d;fill-opacity:1;fill-rule:nonzero;stroke:none;stroke-width:4;stroke-linecap:round;stroke-linejoin:round;stroke-miterlimit:4;stroke-dasharray:none;stroke-dashoffset:0;stroke-opacity:1"
       d="M 22,24 L 24,25 L 24,27 L 23,26 L 22,26 L 22,24 z"
       id="path3279" />
    <path
       style="opacity:1;fill:#4d4d4d;fill-opacity:1;fill-rule:nonzero;stroke:none;stroke-width:4;stroke-linecap:round;stroke-linejoin:round;stroke-miterlimit:4;stroke-dasharray:none;stroke-dashoffset:0;stroke-opacity:1"
       d="M 24,22 L 23,23 L 24,24 L 25,24 L 25,23 L 24,22 z"
       id="path3281" />
    <path
       style="opacity:1;fill:#4d4d4d;fill-opacity:1;fill-rule:nonzero;stroke:none;stroke-width:4;stroke-linecap:round;stroke-linejoin:round;stroke-miterlimit:4;stroke-dasharray:none;stroke-dashoffset:0;stroke-opacity:1"
       d="M 28,16 L 27,18 L 29,17 L 28,16 z"
       id="path3283" />
    <path
       style="opacity:1;fill:#f2f2f2;fill-opacity:1;fill-rule:nonzero;stroke:none;stroke-width:4;stroke-linecap:round;stroke-linejoin:round;stroke-miterlimit:4;stroke-dasharray:none;stroke-dashoffset:0;stroke-opacity:1"
       d="M 22.94087,4.9704348 L 25.144145,5.1232467 L 27.447125,7.1634125 L 28.956522,8.9565217 L 29,11 L 27,8.626087 L 26.365217,10.713043 L 21.565217,12 L 26,10 L 24,9 L 24,7 L 26,9 L 27,8 L 25,7 L 25.321739,6 L 22.94087,4.9704348 z"
       id="path3289"
       sodipodi:nodetypes="cccccccccccccccc" />
    <path
       style="opacity:1;fill:#808080;fill-opacity:1;fill-rule:nonzero;stroke:none;stroke-width:4;stroke-linecap:round;stroke-linejoin:round;stroke-miterlimit:4;stroke-dasharray:none;stroke-dashoffset:0;stroke-opacity:1"
       d="M 3,7 L 6.4,10.365217 L 7,9 L 8,10 L 6,11 L 7,12 L 6,13 L 5,11 L 5,10 L 4,11 L 4,13 L 5,14 L 4,15 L 2,16 L 3,14 L 3,7 z"
       id="path3291" />
    <path
       style="opacity:1;fill:#e6e6e6;fill-opacity:1;fill-rule:nonzero;stroke:none;stroke-width:4;stroke-linecap:round;stroke-linejoin:round;stroke-miterlimit:4;stroke-dasharray:none;stroke-dashoffset:0;stroke-opacity:1"
       d="M 13,12 L 12,14 L 13,14 L 12,15 L 11,15 L 10,14 L 12,18 L 12,16 L 13,16 L 14,17 L 14,14 L 17,14 L 14,13 L 15,12 L 13,12 z"
       id="path3293" />
    <path
       style="opacity:1;fill:#e6e6e6;fill-opacity:1;fill-rule:nonzero;stroke:none;stroke-width:4;stroke-linecap:round;stroke-linejoin:round;stroke-miterlimit:4;stroke-dasharray:none;stroke-dashoffset:0;stroke-opacity:1"
       d="M 26,22 L 26.921739,21.078261 L 25,20 L 24,17 L 21,19 L 22,19 L 21.114066,22.143223 L 23,19 L 26,22 z"
       id="path3295" />
    <path
       style="opacity:1;fill:#e6e6e6;fill-opacity:1;fill-rule:nonzero;stroke:none;stroke-width:4;stroke-linecap:round;stroke-linejoin:round;stroke-miterlimit:4;stroke-dasharray:none;stroke-dashoffset:0;stroke-opacity:1"
       d="M 13,22 L 19,20 L 17,22 L 15,22 L 16,26 L 13,22 z"
       id="path3297" />
    <path
       style="opacity:1;fill:#e6e6e6;fill-opacity:1;fill-rule:nonzero;stroke:none;stroke-width:4;stroke-linecap:round;stroke-linejoin:round;stroke-miterlimit:4;stroke-dasharray:none;stroke-dashoffset:0;stroke-opacity:1"
       d="M 11,5 L 8.88,9.24 L 11.947826,6.8956522 L 11,5 z"
       id="path3299" />
    <path
       style="opacity:1;fill:#e6e6e6;fill-opacity:1;fill-rule:nonzero;stroke:none;stroke-width:4;stroke-linecap:round;stroke-linejoin:round;stroke-miterlimit:4;stroke-dasharray:none;stroke-dashoffset:0;stroke-opacity:1"
       d="M 18,6 L 17,8 L 17.926087,8.926087 L 21,8 L 18,7 L 20,6 L 19,5 L 18,6 z"
       id="path3301" />
    <path
       d="M 14,8.5 A 0.5,0.5 0 1 1 13,8.5 A 0.5,0.5 0 1 1 14,8.5 z"
       sodipodi:ry="0.5"
       sodipodi:rx="0.5"
       sodipodi:cy="8.5"
       sodipodi:cx="13.5"
       id="path3303"
       style="opacity:1;fill:#e6e6e6;fill-opacity:1;fill-rule:nonzero;stroke:none;stroke-width:4;stroke-linecap:round;stroke-linejoin:round;stroke-miterlimit:4;stroke-dasharray:none;stroke-dashoffset:0;stroke-opacity:1"
       sodipodi:type="arc"
       transform="translate(-1,-3.5)" />
    <path
       sodipodi:type="arc"
       style="opacity:1;fill:#e6e6e6;fill-opacity:1;fill-rule:nonzero;stroke:none;stroke-width:4;stroke-linecap:round;stroke-linejoin:round;stroke-miterlimit:4;stroke-dasharray:none;stroke-dashoffset:0;stroke-opacity:1"
       id="path3305"
       sodipodi:cx="13.5"
       sodipodi:cy="8.5"
       sodipodi:rx="0.5"
       sodipodi:ry="0.5"
       d="M 14,8.5 A 0.5,0.5 0 1 1 13,8.5 A 0.5,0.5 0 1 1 14,8.5 z"
       transform="translate(6,4)" />
    <path
       d="M 14,8.5 A 0.5,0.5 0 1 1 13,8.5 A 0.5,0.5 0 1 1 14,8.5 z"
       sodipodi:ry="0.5"
       sodipodi:rx="0.5"
       sodipodi:cy="8.5"
       sodipodi:cx="13.5"
       id="path3307"
       style="opacity:1;fill:#e6e6e6;fill-opacity:1;fill-rule:nonzero;stroke:none;stroke-width:4;stroke-linecap:round;stroke-linejoin:round;stroke-miterlimit:4;stroke-dasharray:none;stroke-dashoffset:0;stroke-opacity:1"
       sodipodi:type="arc"
       transform="translate(2,-2)" />
    <path
       transform="translate(8,6)"
       d="M 14,8.5 A 0.5,0.5 0 1 1 13,8.5 A 0.5,0.5 0 1 1 14,8.5 z"
       sodipodi:ry="0.5"
       sodipodi:rx="0.5"
       sodipodi:cy="8.5"
       sodipodi:cx="13.5"
       id="path3309"
       style="opacity:1;fill:#e6e6e6;fill-opacity:1;fill-rule:nonzero;stroke:none;stroke-width:4;stroke-linecap:round;stroke-linejoin:round;stroke-miterlimit:4;stroke-dasharray:none;stroke-dashoffset:0;stroke-opacity:1"
       sodipodi:type="arc" />
    <path
       sodipodi:type="arc"
       style="opacity:1;fill:#e6e6e6;fill-opacity:1;fill-rule:nonzero;stroke:none;stroke-width:4;stroke-linecap:round;stroke-linejoin:round;stroke-miterlimit:4;stroke-dasharray:none;stroke-dashoffset:0;stroke-opacity:1"
       id="path3311"
       sodipodi:cx="13.5"
       sodipodi:cy="8.5"
       sodipodi:rx="0.5"
       sodipodi:ry="0.5"
       d="M 14,8.5 A 0.5,0.5 0 1 1 13,8.5 A 0.5,0.5 0 1 1 14,8.5 z"
       transform="translate(5,15)" />
    <path
       transform="translate(-2.5,17)"
       d="M 14,8.5 A 0.5,0.5 0 1 1 13,8.5 A 0.5,0.5 0 1 1 14,8.5 z"
       sodipodi:ry="0.5"
       sodipodi:rx="0.5"
       sodipodi:cy="8.5"
       sodipodi:cx="13.5"
       id="path3313"
       style="opacity:1;fill:#e6e6e6;fill-opacity:1;fill-rule:nonzero;stroke:none;stroke-width:4;stroke-linecap:round;stroke-linejoin:round;stroke-miterlimit:4;stroke-dasharray:none;stroke-dashoffset:0;stroke-opacity:1"
       sodipodi:type="arc" />
    <path
       d="M 17,17.5 A 0.5,0.5 0 1 1 16,17.5 A 0.5,0.5 0 1 1 17,17.5 z"
       sodipodi:ry="0.5"
       sodipodi:rx="0.5"
       sodipodi:cy="17.5"
       sodipodi:cx="16.5"
       id="path3315"
       style="opacity:1;fill:#333333;fill-opacity:1;fill-rule:nonzero;stroke:none;stroke-width:4;stroke-linecap:round;stroke-linejoin:round;stroke-miterlimit:4;stroke-dasharray:none;stroke-dashoffset:0;stroke-opacity:1"
       sodipodi:type="arc"
       transform="translate(2,12)" />
    <path
       transform="translate(2,10)"
       sodipodi:type="arc"
       style="opacity:1;fill:#333333;fill-opacity:1;fill-rule:nonzero;stroke:none;stroke-width:4;stroke-linecap:round;stroke-linejoin:round;stroke-miterlimit:4;stroke-dasharray:none;stroke-dashoffset:0;stroke-opacity:1"
       id="path3317"
       sodipodi:cx="16.5"
       sodipodi:cy="17.5"
       sodipodi:rx="0.5"
       sodipodi:ry="0.5"
       d="M 17,17.5 A 0.5,0.5 0 1 1 16,17.5 A 0.5,0.5 0 1 1 17,17.5 z" />
    <path
       d="M 17,17.5 A 0.5,0.5 0 1 1 16,17.5 A 0.5,0.5 0 1 1 17,17.5 z"
       sodipodi:ry="0.5"
       sodipodi:rx="0.5"
       sodipodi:cy="17.5"
       sodipodi:cx="16.5"
       id="path3319"
       style="opacity:1;fill:#333333;fill-opacity:1;fill-rule:nonzero;stroke:none;stroke-width:4;stroke-linecap:round;stroke-linejoin:round;stroke-miterlimit:4;stroke-dasharray:none;stroke-dashoffset:0;stroke-opacity:1"
       sodipodi:type="arc"
       transform="translate(5,6)" />
    <path
       transform="translate(10,-7)"
       sodipodi:type="arc"
       style="opacity:1;fill:#333333;fill-opacity:1;fill-rule:nonzero;stroke:none;stroke-width:4;stroke-linecap:round;stroke-linejoin:round;stroke-miterlimit:4;stroke-dasharray:none;stroke-dashoffset:0;stroke-opacity:1"
       id="path3321"
       sodipodi:cx="16.5"
       sodipodi:cy="17.5"
       sodipodi:rx="0.5"
       sodipodi:ry="0.5"
       d="M 17,17.5 A 0.5,0.5 0 1 1 16,17.5 A 0.5,0.5 0 1 1 17,17.5 z" />
    <path
       transform="translate(4,11.095652)"
       sodipodi:type="arc"
       style="opacity:1;fill:#333333;fill-opacity:1;fill-rule:nonzero;stroke:none;stroke-width:4;stroke-linecap:round;stroke-linejoin:round;stroke-miterlimit:4;stroke-dasharray:none;stroke-dashoffset:0;stroke-opacity:1"
       id="path3323"
       sodipodi:cx="16.5"
       sodipodi:cy="17.5"
       sodipodi:rx="0.5"
       sodipodi:ry="0.5"
       d="M 17,17.5 A 0.5,0.5 0 1 1 16,17.5 A 0.5,0.5 0 1 1 17,17.5 z" />
    <path
       d="M 17,17.5 A 0.5,0.5 0 1 1 16,17.5 A 0.5,0.5 0 1 1 17,17.5 z"
       sodipodi:ry="0.5"
       sodipodi:rx="0.5"
       sodipodi:cy="17.5"
       sodipodi:cx="16.5"
       id="path3325"
       style="opacity:1;fill:#333333;fill-opacity:1;fill-rule:nonzero;stroke:none;stroke-width:4;stroke-linecap:round;stroke-linejoin:round;stroke-miterlimit:4;stroke-dasharray:none;stroke-dashoffset:0;stroke-opacity:1"
       sodipodi:type="arc"
       transform="translate(-2,10.121739)" />
    <path
       transform="translate(-7,10)"
       sodipodi:type="arc"
       style="opacity:1;fill:#333333;fill-opacity:1;fill-rule:nonzero;stroke:none;stroke-width:4;stroke-linecap:round;stroke-linejoin:round;stroke-miterlimit:4;stroke-dasharray:none;stroke-dashoffset:0;stroke-opacity:1"
       id="path3327"
       sodipodi:cx="16.5"
       sodipodi:cy="17.5"
       sodipodi:rx="0.5"
       sodipodi:ry="0.5"
       d="M 17,17.5 A 0.5,0.5 0 1 1 16,17.5 A 0.5,0.5 0 1 1 17,17.5 z" />
    <path
       d="M 17,17.5 A 0.5,0.5 0 1 1 16,17.5 A 0.5,0.5 0 1 1 17,17.5 z"
       sodipodi:ry="0.5"
       sodipodi:rx="0.5"
       sodipodi:cy="17.5"
       sodipodi:cx="16.5"
       id="path3329"
       style="opacity:1;fill:#333333;fill-opacity:1;fill-rule:nonzero;stroke:none;stroke-width:4;stroke-linecap:round;stroke-linejoin:round;stroke-miterlimit:4;stroke-dasharray:none;stroke-dashoffset:0;stroke-opacity:1"
       sodipodi:type="arc"
       transform="translate(-12,7.1478261)" />
    <path
       transform="translate(-12,4)"
       sodipodi:type="arc"
       style="opacity:1;fill:#333333;fill-opacity:1;fill-rule:nonzero;stroke:none;stroke-width:4;stroke-linecap:round;stroke-linejoin:round;stroke-miterlimit:4;stroke-dasharray:none;stroke-dashoffset:0;stroke-opacity:1"
       id="path3331"
       sodipodi:cx="16.5"
       sodipodi:cy="17.5"
       sodipodi:rx="0.5"
       sodipodi:ry="0.5"
       d="M 17,17.5 A 0.5,0.5 0 1 1 16,17.5 A 0.5,0.5 0 1 1 17,17.5 z" />
    <path
       d="M 17,17.5 A 0.5,0.5 0 1 1 16,17.5 A 0.5,0.5 0 1 1 17,17.5 z"
       sodipodi:ry="0.5"
       sodipodi:rx="0.5"
       sodipodi:cy="17.5"
       sodipodi:cx="16.5"
       id="path3333"
       style="opacity:1;fill:#333333;fill-opacity:1;fill-rule:nonzero;stroke:none;stroke-width:4;stroke-linecap:round;stroke-linejoin:round;stroke-miterlimit:4;stroke-dasharray:none;stroke-dashoffset:0;stroke-opacity:1"
       sodipodi:type="arc"
       transform="translate(-9.0782609,1)" />
    <path
       transform="translate(-8,0)"
       sodipodi:type="arc"
       style="opacity:1;fill:#333333;fill-opacity:1;fill-rule:nonzero;stroke:none;stroke-width:4;stroke-linecap:round;stroke-linejoin:round;stroke-miterlimit:4;stroke-dasharray:none;stroke-dashoffset:0;stroke-opacity:1"
       id="path3335"
       sodipodi:cx="16.5"
       sodipodi:cy="17.5"
       sodipodi:rx="0.5"
       sodipodi:ry="0.5"
       d="M 17,17.5 A 0.5,0.5 0 1 1 16,17.5 A 0.5,0.5 0 1 1 17,17.5 z" />
    <path
       d="M 17,17.5 A 0.5,0.5 0 1 1 16,17.5 A 0.5,0.5 0 1 1 17,17.5 z"
       sodipodi:ry="0.5"
       sodipodi:rx="0.5"
       sodipodi:cy="17.5"
       sodipodi:cx="16.5"
       id="path3337"
       style="opacity:1;fill:#333333;fill-opacity:1;fill-rule:nonzero;stroke:none;stroke-width:4;stroke-linecap:round;stroke-linejoin:round;stroke-miterlimit:4;stroke-dasharray:none;stroke-dashoffset:0;stroke-opacity:1"
       sodipodi:type="arc"
       transform="translate(-9,-1)" />
    <path
       transform="translate(-6,-1)"
       sodipodi:type="arc"
       style="opacity:1;fill:#333333;fill-opacity:1;fill-rule:nonzero;stroke:none;stroke-width:4;stroke-linecap:round;stroke-linejoin:round;stroke-miterlimit:4;stroke-dasharray:none;stroke-dashoffset:0;stroke-opacity:1"
       id="path3339"
       sodipodi:cx="16.5"
       sodipodi:cy="17.5"
       sodipodi:rx="0.5"
       sodipodi:ry="0.5"
       d="M 17,17.5 A 0.5,0.5 0 1 1 16,17.5 A 0.5,0.5 0 1 1 17,17.5 z" />
    <path
       d="M 17,17.5 A 0.5,0.5 0 1 1 16,17.5 A 0.5,0.5 0 1 1 17,17.5 z"
       sodipodi:ry="0.5"
       sodipodi:rx="0.5"
       sodipodi:cy="17.5"
       sodipodi:cx="16.5"
       id="path3341"
       style="opacity:1;fill:#333333;fill-opacity:1;fill-rule:nonzero;stroke:none;stroke-width:4;stroke-linecap:round;stroke-linejoin:round;stroke-miterlimit:4;stroke-dasharray:none;stroke-dashoffset:0;stroke-opacity:1"
       sodipodi:type="arc"
       transform="translate(-4,0)" />
    <path
       d="M 15,11.5 A 0.5,0.5 0 1 1 14,11.5 A 0.5,0.5 0 1 1 15,11.5 z"
       sodipodi:ry="0.5"
       sodipodi:rx="0.5"
       sodipodi:cy="11.5"
       sodipodi:cx="14.5"
       id="path3343"
       style="opacity:1;fill:#808080;fill-opacity:1;fill-rule:nonzero;stroke:none;stroke-width:4;stroke-linecap:round;stroke-linejoin:round;stroke-miterlimit:4;stroke-dasharray:none;stroke-dashoffset:0;stroke-opacity:1"
       sodipodi:type="arc"
       transform="translate(5,-2)" />
    <path
       transform="translate(6,-1)"
       sodipodi:type="arc"
       style="opacity:1;fill:#808080;fill-opacity:1;fill-rule:nonzero;stroke:none;stroke-width:4;stroke-linecap:round;stroke-linejoin:round;stroke-miterlimit:4;stroke-dasharray:none;stroke-dashoffset:0;stroke-opacity:1"
       id="path3345"
       sodipodi:cx="14.5"
       sodipodi:cy="11.5"
       sodipodi:rx="0.5"
       sodipodi:ry="0.5"
       d="M 15,11.5 A 0.5,0.5 0 1 1 14,11.5 A 0.5,0.5 0 1 1 15,11.5 z" />
    <path
       d="M 15,11.5 A 0.5,0.5 0 1 1 14,11.5 A 0.5,0.5 0 1 1 15,11.5 z"
       sodipodi:ry="0.5"
       sodipodi:rx="0.5"
       sodipodi:cy="11.5"
       sodipodi:cx="14.5"
       id="path3347"
       style="opacity:1;fill:#808080;fill-opacity:1;fill-rule:nonzero;stroke:none;stroke-width:4;stroke-linecap:round;stroke-linejoin:round;stroke-miterlimit:4;stroke-dasharray:none;stroke-dashoffset:0;stroke-opacity:1"
       sodipodi:type="arc"
       transform="translate(6.9043478,-2)" />
    <path
       transform="translate(6,2)"
       sodipodi:type="arc"
       style="opacity:1;fill:#808080;fill-opacity:1;fill-rule:nonzero;stroke:none;stroke-width:4;stroke-linecap:round;stroke-linejoin:round;stroke-miterlimit:4;stroke-dasharray:none;stroke-dashoffset:0;stroke-opacity:1"
       id="path3349"
       sodipodi:cx="14.5"
       sodipodi:cy="11.5"
       sodipodi:rx="0.5"
       sodipodi:ry="0.5"
       d="M 15,11.5 A 0.5,0.5 0 1 1 14,11.5 A 0.5,0.5 0 1 1 15,11.5 z" />
    <path
       d="M 15,11.5 A 0.5,0.5 0 1 1 14,11.5 A 0.5,0.5 0 1 1 15,11.5 z"
       sodipodi:ry="0.5"
       sodipodi:rx="0.5"
       sodipodi:cy="11.5"
       sodipodi:cx="14.5"
       id="path3351"
       style="opacity:1;fill:#808080;fill-opacity:1;fill-rule:nonzero;stroke:none;stroke-width:4;stroke-linecap:round;stroke-linejoin:round;stroke-miterlimit:4;stroke-dasharray:none;stroke-dashoffset:0;stroke-opacity:1"
       sodipodi:type="arc"
       transform="translate(4,2)" />
    <path
       transform="translate(5,3)"
       sodipodi:type="arc"
       style="opacity:1;fill:#808080;fill-opacity:1;fill-rule:nonzero;stroke:none;stroke-width:4;stroke-linecap:round;stroke-linejoin:round;stroke-miterlimit:4;stroke-dasharray:none;stroke-dashoffset:0;stroke-opacity:1"
       id="path3353"
       sodipodi:cx="14.5"
       sodipodi:cy="11.5"
       sodipodi:rx="0.5"
       sodipodi:ry="0.5"
       d="M 15,11.5 A 0.5,0.5 0 1 1 14,11.5 A 0.5,0.5 0 1 1 15,11.5 z" />
    <path
       d="M 15,11.5 A 0.5,0.5 0 1 1 14,11.5 A 0.5,0.5 0 1 1 15,11.5 z"
       sodipodi:ry="0.5"
       sodipodi:rx="0.5"
       sodipodi:cy="11.5"
       sodipodi:cx="14.5"
       id="path3355"
       style="opacity:1;fill:#808080;fill-opacity:1;fill-rule:nonzero;stroke:none;stroke-width:4;stroke-linecap:round;stroke-linejoin:round;stroke-miterlimit:4;stroke-dasharray:none;stroke-dashoffset:0;stroke-opacity:1"
       sodipodi:type="arc"
       transform="translate(4,4)" />
    <path
       transform="translate(3,5)"
       sodipodi:type="arc"
       style="opacity:1;fill:#808080;fill-opacity:1;fill-rule:nonzero;stroke:none;stroke-width:4;stroke-linecap:round;stroke-linejoin:round;stroke-miterlimit:4;stroke-dasharray:none;stroke-dashoffset:0;stroke-opacity:1"
       id="path3357"
       sodipodi:cx="14.5"
       sodipodi:cy="11.5"
       sodipodi:rx="0.5"
       sodipodi:ry="0.5"
       d="M 15,11.5 A 0.5,0.5 0 1 1 14,11.5 A 0.5,0.5 0 1 1 15,11.5 z" />
    <path
       d="M 15,11.5 A 0.5,0.5 0 1 1 14,11.5 A 0.5,0.5 0 1 1 15,11.5 z"
       sodipodi:ry="0.5"
       sodipodi:rx="0.5"
       sodipodi:cy="11.5"
       sodipodi:cx="14.5"
       id="path3359"
       style="opacity:1;fill:#808080;fill-opacity:1;fill-rule:nonzero;stroke:none;stroke-width:4;stroke-linecap:round;stroke-linejoin:round;stroke-miterlimit:4;stroke-dasharray:none;stroke-dashoffset:0;stroke-opacity:1"
       sodipodi:type="arc"
       transform="translate(1,7)" />
    <path
       transform="translate(0,6.0956522)"
       sodipodi:type="arc"
       style="opacity:1;fill:#808080;fill-opacity:1;fill-rule:nonzero;stroke:none;stroke-width:4;stroke-linecap:round;stroke-linejoin:round;stroke-miterlimit:4;stroke-dasharray:none;stroke-dashoffset:0;stroke-opacity:1"
       id="path3361"
       sodipodi:cx="14.5"
       sodipodi:cy="11.5"
       sodipodi:rx="0.5"
       sodipodi:ry="0.5"
       d="M 15,11.5 A 0.5,0.5 0 1 1 14,11.5 A 0.5,0.5 0 1 1 15,11.5 z" />
    <path
       transform="translate(-1.1652174,11)"
       sodipodi:type="arc"
       style="opacity:1;fill:#333333;fill-opacity:1;fill-rule:nonzero;stroke:none;stroke-width:4;stroke-linecap:round;stroke-linejoin:round;stroke-miterlimit:4;stroke-dasharray:none;stroke-dashoffset:0;stroke-opacity:1"
       id="path3363"
       sodipodi:cx="16.5"
       sodipodi:cy="17.5"
       sodipodi:rx="0.5"
       sodipodi:ry="0.5"
       d="M 17,17.5 A 0.5,0.5 0 1 1 16,17.5 A 0.5,0.5 0 1 1 17,17.5 z" />
    <path
       d="M 17,17.5 A 0.5,0.5 0 1 1 16,17.5 A 0.5,0.5 0 1 1 17,17.5 z"
       sodipodi:ry="0.5"
       sodipodi:rx="0.5"
       sodipodi:cy="17.5"
       sodipodi:cx="16.5"
       id="path3365"
       style="opacity:1;fill:#333333;fill-opacity:1;fill-rule:nonzero;stroke:none;stroke-width:4;stroke-linecap:round;stroke-linejoin:round;stroke-miterlimit:4;stroke-dasharray:none;stroke-dashoffset:0;stroke-opacity:1"
       sodipodi:type="arc"
       transform="translate(0,10.095652)" />
    <path
       transform="translate(1,11)"
       sodipodi:type="arc"
       style="opacity:1;fill:#333333;fill-opacity:1;fill-rule:nonzero;stroke:none;stroke-width:4;stroke-linecap:round;stroke-linejoin:round;stroke-miterlimit:4;stroke-dasharray:none;stroke-dashoffset:0;stroke-opacity:1"
       id="path3367"
       sodipodi:cx="16.5"
       sodipodi:cy="17.5"
       sodipodi:rx="0.5"
       sodipodi:ry="0.5"
       d="M 17,17.5 A 0.5,0.5 0 1 1 16,17.5 A 0.5,0.5 0 1 1 17,17.5 z" />
    <path
       d="M 17,17.5 A 0.5,0.5 0 1 1 16,17.5 A 0.5,0.5 0 1 1 17,17.5 z"
       sodipodi:ry="0.5"
       sodipodi:rx="0.5"
       sodipodi:cy="17.5"
       sodipodi:cx="16.5"
       id="path3369"
       style="opacity:1;fill:#333333;fill-opacity:1;fill-rule:nonzero;stroke:none;stroke-width:4;stroke-linecap:round;stroke-linejoin:round;stroke-miterlimit:4;stroke-dasharray:none;stroke-dashoffset:0;stroke-opacity:1"
       sodipodi:type="arc"
       transform="translate(-2.9652174,11)" />
    <path
       transform="translate(-2.9652174,11)"
       sodipodi:type="arc"
       style="opacity:1;fill:#333333;fill-opacity:1;fill-rule:nonzero;stroke:none;stroke-width:4;stroke-linecap:round;stroke-linejoin:round;stroke-miterlimit:4;stroke-dasharray:none;stroke-dashoffset:0;stroke-opacity:1"
       id="path3371"
       sodipodi:cx="16.5"
       sodipodi:cy="17.5"
       sodipodi:rx="0.5"
       sodipodi:ry="0.5"
       d="M 17,17.5 A 0.5,0.5 0 1 1 16,17.5 A 0.5,0.5 0 1 1 17,17.5 z" />
    <path
       transform="translate(5,5)"
       sodipodi:type="arc"
       style="opacity:1;fill:#808080;fill-opacity:1;fill-rule:nonzero;stroke:none;stroke-width:4;stroke-linecap:round;stroke-linejoin:round;stroke-miterlimit:4;stroke-dasharray:none;stroke-dashoffset:0;stroke-opacity:1"
       id="path3373"
       sodipodi:cx="14.5"
       sodipodi:cy="11.5"
       sodipodi:rx="0.5"
       sodipodi:ry="0.5"
       d="M 15,11.5 A 0.5,0.5 0 1 1 14,11.5 A 0.5,0.5 0 1 1 15,11.5 z" />
    <path
       d="M 15,11.5 A 0.5,0.5 0 1 1 14,11.5 A 0.5,0.5 0 1 1 15,11.5 z"
       sodipodi:ry="0.5"
       sodipodi:rx="0.5"
       sodipodi:cy="11.5"
       sodipodi:cx="14.5"
       id="path3375"
       style="opacity:1;fill:#808080;fill-opacity:1;fill-rule:nonzero;stroke:none;stroke-width:4;stroke-linecap:round;stroke-linejoin:round;stroke-miterlimit:4;stroke-dasharray:none;stroke-dashoffset:0;stroke-opacity:1"
       sodipodi:type="arc"
       transform="translate(4,6)" />
    <path
       transform="translate(5,7)"
       sodipodi:type="arc"
       style="opacity:1;fill:#808080;fill-opacity:1;fill-rule:nonzero;stroke:none;stroke-width:4;stroke-linecap:round;stroke-linejoin:round;stroke-miterlimit:4;stroke-dasharray:none;stroke-dashoffset:0;stroke-opacity:1"
       id="path3377"
       sodipodi:cx="14.5"
       sodipodi:cy="11.5"
       sodipodi:rx="0.5"
       sodipodi:ry="0.5"
       d="M 15,11.5 A 0.5,0.5 0 1 1 14,11.5 A 0.5,0.5 0 1 1 15,11.5 z" />
    <path
       sodipodi:type="arc"
       style="opacity:1;fill:#e6e6e6;fill-opacity:1;fill-rule:nonzero;stroke:none;stroke-width:4;stroke-linecap:round;stroke-linejoin:round;stroke-miterlimit:4;stroke-dasharray:none;stroke-dashoffset:0;stroke-opacity:1"
       id="path3379"
       sodipodi:cx="13.5"
       sodipodi:cy="8.5"
       sodipodi:rx="0.5"
       sodipodi:ry="0.5"
       d="M 14,8.5 A 0.5,0.5 0 1 1 13,8.5 A 0.5,0.5 0 1 1 14,8.5 z"
       transform="translate(7,7)" />
    <path
       transform="translate(8,8)"
       d="M 14,8.5 A 0.5,0.5 0 1 1 13,8.5 A 0.5,0.5 0 1 1 14,8.5 z"
       sodipodi:ry="0.5"
       sodipodi:rx="0.5"
       sodipodi:cy="8.5"
       sodipodi:cx="13.5"
       id="path3381"
       style="opacity:1;fill:#e6e6e6;fill-opacity:1;fill-rule:nonzero;stroke:none;stroke-width:4;stroke-linecap:round;stroke-linejoin:round;stroke-miterlimit:4;stroke-dasharray:none;stroke-dashoffset:0;stroke-opacity:1"
       sodipodi:type="arc" />
    <path
       sodipodi:type="arc"
       style="opacity:1;fill:#e6e6e6;fill-opacity:1;fill-rule:nonzero;stroke:none;stroke-width:4;stroke-linecap:round;stroke-linejoin:round;stroke-miterlimit:4;stroke-dasharray:none;stroke-dashoffset:0;stroke-opacity:1"
       id="path3383"
       sodipodi:cx="13.5"
       sodipodi:cy="8.5"
       sodipodi:rx="0.5"
       sodipodi:ry="0.5"
       d="M 14,8.5 A 0.5,0.5 0 1 1 13,8.5 A 0.5,0.5 0 1 1 14,8.5 z"
       transform="translate(9,8)" />
    <path
       transform="translate(9,9)"
       d="M 14,8.5 A 0.5,0.5 0 1 1 13,8.5 A 0.5,0.5 0 1 1 14,8.5 z"
       sodipodi:ry="0.5"
       sodipodi:rx="0.5"
       sodipodi:cy="8.5"
       sodipodi:cx="13.5"
       id="path3385"
       style="opacity:1;fill:#e6e6e6;fill-opacity:1;fill-rule:nonzero;stroke:none;stroke-width:4;stroke-linecap:round;stroke-linejoin:round;stroke-miterlimit:4;stroke-dasharray:none;stroke-dashoffset:0;stroke-opacity:1"
       sodipodi:type="arc" />
    <path
       sodipodi:type="arc"
       style="opacity:1;fill:#e6e6e6;fill-opacity:1;fill-rule:nonzero;stroke:none;stroke-width:4;stroke-linecap:round;stroke-linejoin:round;stroke-miterlimit:4;stroke-dasharray:none;stroke-dashoffset:0;stroke-opacity:1"
       id="path3387"
       sodipodi:cx="13.5"
       sodipodi:cy="8.5"
       sodipodi:rx="0.5"
       sodipodi:ry="0.5"
       d="M 14,8.5 A 0.5,0.5 0 1 1 13,8.5 A 0.5,0.5 0 1 1 14,8.5 z"
       transform="translate(9,9)" />
    <path
       style="opacity:1;fill:#f9f9f9;fill-opacity:1;fill-rule:nonzero;stroke:none;stroke-width:2;stroke-linecap:round;stroke-linejoin:round;stroke-miterlimit:4;stroke-dasharray:none;stroke-dashoffset:0;stroke-opacity:1"
       d="M 18,3 L 16.086957,3.9130435 L 18,6 L 18,4 L 21.076522,4.0382609 L 18,3 z"
       id="path3520"
       sodipodi:nodetypes="cccccc" />
    <path
       style="opacity:1;fill:#f2f2f2;fill-opacity:1;fill-rule:nonzero;stroke:none;stroke-width:2;stroke-linecap:round;stroke-linejoin:round;stroke-miterlimit:4;stroke-dasharray:none;stroke-dashoffset:0;stroke-opacity:1"
       d="M 13.886957,8.1130435 L 13.895652,10.791304 L 13,9 L 13.886957,8.1130435 z"
       id="path3522" />
    <path
       style="opacity:1;fill:#ffffff;fill-opacity:1;fill-rule:nonzero;stroke:none;stroke-width:2;stroke-linecap:round;stroke-linejoin:round;stroke-miterlimit:4;stroke-dasharray:none;stroke-dashoffset:0;stroke-opacity:1"
       d="M 19.951304,6.0243478 L 22,6 L 21,8 L 18,7 L 19.951304,6.0243478 z"
       id="path3524"
       sodipodi:nodetypes="ccccc" />
    <path
       style="opacity:1;fill:#ffffff;fill-opacity:1;fill-rule:nonzero;stroke:none;stroke-width:2;stroke-linecap:round;stroke-linejoin:round;stroke-miterlimit:4;stroke-dasharray:none;stroke-dashoffset:0;stroke-opacity:1"
       d="M 12.097391,3.9513043 L 17,3 L 14,3 L 12.097391,3.9513043 z"
       id="path3526" />
    <path
       style="opacity:1;fill:#ffffff;fill-opacity:1;fill-rule:nonzero;stroke:none;stroke-width:2;stroke-linecap:round;stroke-linejoin:round;stroke-miterlimit:4;stroke-dasharray:none;stroke-dashoffset:0;stroke-opacity:1"
       d="M 27,8 L 24.082609,7.0826087 L 25.96087,8.9608696 L 27,8 z"
       id="path3528" />
    <path
       style="opacity:1;fill:#ffffff;fill-opacity:1;fill-rule:nonzero;stroke:none;stroke-width:2;stroke-linecap:round;stroke-linejoin:round;stroke-miterlimit:4;stroke-dasharray:none;stroke-dashoffset:0;stroke-opacity:1"
       d="M 25.273194,6.1508839 L 21.912436,6.0010407 L 23,5 L 25.273194,6.1508839 z"
       id="path3530" />
    <path
       style="opacity:1;fill:#ffffff;fill-opacity:1;fill-rule:nonzero;stroke:none;stroke-width:2;stroke-linecap:round;stroke-linejoin:round;stroke-miterlimit:4;stroke-dasharray:none;stroke-dashoffset:0;stroke-opacity:1"
       d="M 8,10 L 8,9 L 7,9 L 8,10 z"
       id="path3532" />
    <path
       style="opacity:1;fill:#ffffff;fill-opacity:1;fill-rule:nonzero;stroke:none;stroke-width:2;stroke-linecap:round;stroke-linejoin:round;stroke-miterlimit:4;stroke-dasharray:none;stroke-dashoffset:0;stroke-opacity:1"
       d="M 8,3 L 12,4 L 11.06087,3.0608696 L 8,3 z"
       id="path3534" />
  </g>
</svg>
