<?xml version="1.0" encoding="UTF-8" standalone="no"?>
<!-- Created with Inkscape (http://www.inkscape.org/) -->

<svg
   xmlns:dc="http://purl.org/dc/elements/1.1/"
   xmlns:cc="http://creativecommons.org/ns#"
   xmlns:rdf="http://www.w3.org/1999/02/22-rdf-syntax-ns#"
   xmlns:svg="http://www.w3.org/2000/svg"
   xmlns="http://www.w3.org/2000/svg"
   xmlns:sodipodi="http://sodipodi.sourceforge.net/DTD/sodipodi-0.dtd"
   xmlns:inkscape="http://www.inkscape.org/namespaces/inkscape"
   width="4"
   height="4"
   id="svg2"
   version="1.1"
   inkscape:version="0.48.5 r10040"
   sodipodi:docname="Neues Dokument 70">
  <defs
     id="defs4" />
  <sodipodi:namedview
     id="base"
     pagecolor="#ffffff"
     bordercolor="#666666"
     borderopacity="1.0"
     inkscape:pageopacity="0.0"
     inkscape:pageshadow="2"
     inkscape:zoom="132"
     inkscape:cx="2"
     inkscape:cy="2"
     inkscape:document-units="px"
     inkscape:current-layer="layer1"
     showgrid="true"
     objecttolerance="10000"
     guidetolerance="10000"
     showguides="true"
     inkscape:guide-bbox="true"
     inkscape:window-width="1024"
     inkscape:window-height="741"
     inkscape:window-x="0"
     inkscape:window-y="2"
     inkscape:window-maximized="1">
    <inkscape:grid
       type="xygrid"
       id="grid3004"
       empspacing="8"
       visible="true"
       enabled="true"
       snapvisiblegridlinesonly="true"
       spacingx="0.5px"
       spacingy="0.5px" />
    <sodipodi:guide
       orientation="0,1"
       position="5,0"
       id="guide3006" />
    <sodipodi:guide
       orientation="-0.70710678,0.70710678"
       position="0,0"
       id="guide3008" />
    <sodipodi:guide
       orientation="0.70710678,0.70710678"
       position="-1,5"
       id="guide3010" />
    <sodipodi:guide
       orientation="1,0"
       position="0,5"
       id="guide3012" />
  </sodipodi:namedview>
  <metadata
     id="metadata7">
    <rdf:RDF>
      <cc:Work
         rdf:about="">
        <dc:format>image/svg+xml</dc:format>
        <dc:type
           rdf:resource="http://purl.org/dc/dcmitype/StillImage" />
        <dc:title></dc:title>
      </cc:Work>
    </rdf:RDF>
  </metadata>
  <g
     inkscape:label="Ebene 1"
     inkscape:groupmode="layer"
     id="layer1"
     transform="translate(0,-1048.3622)">
    <path
       style="fill:#ff8000;fill-opacity:1;stroke:none"
       d="M 1 0 C 0.72385763 5.5511151e-17 0.5 0.22385763 0.5 0.5 L 0.5 1.53125 C 0.19962457 1.7936641 -4.8953772e-18 2.1270245 0 2.5 C 0 3.3284271 0.8954305 4 2 4 C 3.1045695 4 4 3.3284271 4 2.5 C 4 2.1270245 3.8003754 1.7936641 3.5 1.53125 L 3.5 0.5 C 3.5 0.22385763 3.2761424 -1.2966219e-16 3 0 C 2.7238576 5.5511151e-17 2.5 0.22385763 2.5 0.5 L 2.5 1.0625 C 2.3396752 1.0314373 2.1732658 1 2 1 C 1.8267342 1 1.6603248 1.0314373 1.5 1.0625 L 1.5 0.5 C 1.5 0.22385763 1.2761424 -1.3587549e-16 1 0 z "
       transform="translate(0,1048.3622)"
       id="path15641" />
  </g>
</svg>
