<?xml version="1.0" encoding="UTF-8" standalone="no"?>
<!-- Created with Inkscape (http://www.inkscape.org/) -->
<svg
   xmlns:dc="http://purl.org/dc/elements/1.1/"
   xmlns:cc="http://creativecommons.org/ns#"
   xmlns:rdf="http://www.w3.org/1999/02/22-rdf-syntax-ns#"
   xmlns:svg="http://www.w3.org/2000/svg"
   xmlns="http://www.w3.org/2000/svg"
   xmlns:sodipodi="http://sodipodi.sourceforge.net/DTD/sodipodi-0.dtd"
   xmlns:inkscape="http://www.inkscape.org/namespaces/inkscape"
   width="32px"
   height="32px"
   id="svg3505"
   sodipodi:version="0.32"
   inkscape:version="0.46"
   sodipodi:docname="wall-default-08.svg"
   inkscape:output_extension="org.inkscape.output.svg.inkscape">
  <defs
     id="defs3507">
    <inkscape:perspective
       sodipodi:type="inkscape:persp3d"
       inkscape:vp_x="0 : 16 : 1"
       inkscape:vp_y="0 : 1000 : 0"
       inkscape:vp_z="32 : 16 : 1"
       inkscape:persp3d-origin="16 : 10.666667 : 1"
       id="perspective3513" />
    <inkscape:perspective
       id="perspective4690"
       inkscape:persp3d-origin="372.04724 : 350.78739 : 1"
       inkscape:vp_z="744.09448 : 526.18109 : 1"
       inkscape:vp_y="0 : 1000 : 0"
       inkscape:vp_x="0 : 526.18109 : 1"
       sodipodi:type="inkscape:persp3d" />
    <inkscape:perspective
       id="perspective2564"
       inkscape:persp3d-origin="372.04724 : 350.78739 : 1"
       inkscape:vp_z="744.09448 : 526.18109 : 1"
       inkscape:vp_y="0 : 1000 : 0"
       inkscape:vp_x="0 : 526.18109 : 1"
       sodipodi:type="inkscape:persp3d" />
  </defs>
  <sodipodi:namedview
     id="base"
     pagecolor="#ffffff"
     bordercolor="#666666"
     borderopacity="1.0"
     inkscape:pageopacity="0.0"
     inkscape:pageshadow="2"
     inkscape:zoom="8"
     inkscape:cx="16"
     inkscape:cy="11.03979"
     inkscape:current-layer="layer1"
     showgrid="true"
     inkscape:grid-bbox="true"
     inkscape:document-units="px"
     objecttolerance="4"
     gridtolerance="4"
     guidetolerance="4"
     inkscape:window-width="1280"
     inkscape:window-height="713"
     inkscape:window-x="0"
     inkscape:window-y="37"
     inkscape:object-paths="true"
     inkscape:object-nodes="true"
     inkscape:snap-bbox="true"
     inkscape:snap-guide="true"
     showguides="true"
     inkscape:guide-bbox="true">
    <inkscape:grid
       type="xygrid"
       id="grid3515"
       units="px"
       visible="true"
       enabled="true"
       spacingx="1px"
       spacingy="1px" />
    <sodipodi:guide
       orientation="-0.70710678,0.70710678"
       position="33.245902,33.245902"
       id="guide3622" />
    <sodipodi:guide
       orientation="0.70710678,0.70710678"
       position="0,32"
       id="guide3624" />
  </sodipodi:namedview>
  <metadata
     id="metadata3510">
    <rdf:RDF>
      <cc:Work
         rdf:about="">
        <dc:format>image/svg+xml</dc:format>
        <dc:type
           rdf:resource="http://purl.org/dc/dcmitype/StillImage" />
        <dc:title>Vorlage f端r 32x32-Pixel-Icons f端r McMinos</dc:title>
        <dc:date>2010-04-05</dc:date>
        <dc:creator>
          <cc:Agent>
            <dc:title>Andreas Neudecker &lt;zapyon@gmx.net&gt;</dc:title>
          </cc:Agent>
        </dc:creator>
        <dc:rights>
          <cc:Agent>
            <dc:title>Copyright (C) 2010 by Andreas Neudecker</dc:title>
          </cc:Agent>
        </dc:rights>
        <dc:publisher>
          <cc:Agent>
            <dc:title>Andreas Neudecker</dc:title>
          </cc:Agent>
        </dc:publisher>
        <dc:identifier>vorlage-32x32-mcminos</dc:identifier>
        <dc:description>Vorlage f端r 32x32-Pixel-Icons f端r McMinos. Metadaten jeweils entsprechend anpassen!</dc:description>
      </cc:Work>
    </rdf:RDF>
  </metadata>
  <g
     id="layer1"
     inkscape:label="Layer 1"
     inkscape:groupmode="layer">
    <g
       id="g5666"
       transform="matrix(0,-1,-1,0,32,32)">
      <path
         sodipodi:nodetypes="ccccccccc"
         id="path3635"
         d="M 3,3 L 3,5.71875 L 3,29.28125 L 3,32 L 29,32 L 29,29.28125 L 29,5.71875 L 29,3 L 3,3 z"
         style="fill:#000000;fill-opacity:1;fill-rule:nonzero;stroke:none;stroke-width:2;stroke-linecap:round;stroke-linejoin:miter;stroke-miterlimit:4;stroke-dashoffset:0;stroke-opacity:1" />
      <path
         sodipodi:nodetypes="ccccc"
         id="path3648"
         d="M 16,4 L 16,32 L 28,32 L 28,4 L 16,4 z"
         style="fill:#00ffff;fill-opacity:1;fill-rule:nonzero;stroke:none;stroke-width:2;stroke-linecap:round;stroke-linejoin:miter;stroke-miterlimit:4;stroke-dasharray:none;stroke-dashoffset:0;stroke-opacity:1" />
      <path
         id="path3644"
         d="M 4,4 L 4,16 L 4,28 L 4,32 L 16,32 L 16,16 L 4,4 z"
         style="fill:#0000ff;fill-opacity:1;fill-rule:nonzero;stroke:none;stroke-width:2;stroke-linecap:round;stroke-linejoin:miter;stroke-miterlimit:4;stroke-dasharray:none;stroke-dashoffset:0;stroke-opacity:1" />
      <path
         sodipodi:nodetypes="ccccccccccccccccccccccccccccccccccc"
         id="path3626"
         d="M 27,5 L 27,25 L 27,32 L 26,32 L 26,24 L 26,6 L 27,5 z M 25,7 L 25,23 L 25,32 L 24,32 L 24,22 L 24,8 L 25,7 z M 23,9 L 23,32 L 22,32 L 22,20.03125 L 21.96875,20 L 22,10 L 23,9 z M 21,11 L 21,19 L 21,32 L 20,32 L 20,18 L 20,12 L 21,11 z M 19,13 L 19,17 L 19,32 L 18,32 L 18,16 L 18,14 L 19,13 z"
         style="fill:#c3c3c3;fill-opacity:1;fill-rule:nonzero;stroke:none;stroke-width:2;stroke-linecap:round;stroke-linejoin:miter;stroke-miterlimit:4;stroke-dasharray:none;stroke-dashoffset:0;stroke-opacity:1" />
      <path
         style="fill:#6b6b6b;fill-opacity:1;fill-rule:nonzero;stroke:none;stroke-width:2;stroke-linecap:round;stroke-linejoin:miter;stroke-miterlimit:4;stroke-dasharray:none;stroke-dashoffset:0;stroke-opacity:1"
         d="M 14,14 L 14,32 L 13,32 L 13,13 L 14,14 z M 12,12 L 12,32 L 11,32 L 11,11 L 12,12 z M 10,10 L 10,32 L 9,32 L 9,9 L 10,10 z M 8,8 L 8,32 L 7,32 L 7,7 L 8,8 z M 6,6 L 6,32 L 5,32 L 5,5 L 6,6 z"
         id="path3638"
         sodipodi:nodetypes="ccccccccccccccccccccccccc" />
      <path
         sodipodi:nodetypes="ccccc"
         id="rect3926"
         d="M 15,15 L 15,32 L 17,32 L 17,15 L 15,15 z"
         style="fill:#0080ff;fill-opacity:1;fill-rule:nonzero;stroke:none;stroke-width:2;stroke-linecap:round;stroke-linejoin:miter;stroke-miterlimit:4;stroke-dasharray:none;stroke-dashoffset:0;stroke-opacity:1" />
      <rect
         y="15"
         x="15"
         height="1.9999971"
         width="2"
         id="rect4549"
         style="fill:#00005c;fill-opacity:1;fill-rule:nonzero;stroke:none;stroke-width:2;stroke-linecap:round;stroke-linejoin:miter;stroke-miterlimit:4;stroke-dasharray:none;stroke-dashoffset:0;stroke-opacity:1" />
      <path
         sodipodi:nodetypes="ccccc"
         id="path2570"
         d="M 4,4 L 16,16 L 17,16 L 17,4 L 4,4 z"
         style="fill:#00ffff;fill-opacity:1;fill-rule:nonzero;stroke:none;stroke-width:2;stroke-linecap:round;stroke-linejoin:miter;stroke-miterlimit:4;stroke-dasharray:none;stroke-dashoffset:0;stroke-opacity:1" />
      <path
         sodipodi:nodetypes="ccccccccccccccccccccccccc"
         id="path5620"
         d="M 5,5 L 16,5 L 16,6 L 6,6 L 5,5 z M 7,7 L 16,7 L 16,8 L 8,8 L 7,7 z M 9.03125,9 L 16,9 L 16,10 L 10.03125,10 L 9.03125,9 z M 11,11 L 16,11 L 16,12 L 12,12 L 11,11 z M 13,13 L 16,13 L 16,14 L 14,14 L 13,13 z"
         style="fill:#c3c3c3;fill-opacity:1;fill-rule:nonzero;stroke:none;stroke-width:2;stroke-linecap:round;stroke-linejoin:miter;stroke-miterlimit:4;stroke-dasharray:none;stroke-dashoffset:0;stroke-opacity:1" />
      <rect
         y="15"
         x="15"
         height="1.9999971"
         width="2"
         id="rect4379"
         style="fill:#00005c;fill-opacity:1;fill-rule:nonzero;stroke:none;stroke-width:2;stroke-linecap:round;stroke-linejoin:miter;stroke-miterlimit:4;stroke-dasharray:none;stroke-dashoffset:0;stroke-opacity:1" />
      <path
         style="fill:#c3c3c3;fill-opacity:1;fill-rule:nonzero;stroke:none;stroke-width:2;stroke-linecap:round;stroke-linejoin:miter;stroke-miterlimit:4;stroke-dasharray:none;stroke-dashoffset:0;stroke-opacity:1"
         d="M 27,5 L 16,5 L 16,6 L 26,6 L 27,5 z M 25,7 L 16,7 L 16,8 L 24,8 L 25,7 z M 22.96875,9 L 16,9 L 16,10 L 21.96875,10 L 22.96875,9 z M 21,11 L 16,11 L 16,12 L 20,12 L 21,11 z M 19,13 L 16,13 L 16,14 L 18,14 L 19,13 z"
         id="path5643"
         sodipodi:nodetypes="ccccccccccccccccccccccccc" />
    </g>
  </g>
</svg>
