<?xml version="1.0" encoding="UTF-8" standalone="no"?>
<!-- Created with Inkscape (http://www.inkscape.org/) -->
<svg id="svg3505" xmlns:rdf="http://www.w3.org/1999/02/22-rdf-syntax-ns#" xmlns="http://www.w3.org/2000/svg" height="32px" width="32px" version="1.1" xmlns:cc="http://creativecommons.org/ns#" xmlns:dc="http://purl.org/dc/elements/1.1/">
 <metadata id="metadata3510">
  <rdf:RDF>
   <cc:Work rdf:about="">
    <dc:format>image/svg+xml</dc:format>
    <dc:type rdf:resource="http://purl.org/dc/dcmitype/StillImage"/>
    <dc:title/>
    <dc:date>2010-08-08</dc:date>
    <dc:creator>
     <cc:Agent>
      <dc:title>Andreas Neudecker &lt;zapyon@gmx.net&gt;</dc:title>
     </cc:Agent>
    </dc:creator>
    <dc:rights>
     <cc:Agent>
      <dc:title>Copyright (C) 2010 by Andreas Neudecker</dc:title>
     </cc:Agent>
    </dc:rights>
    <dc:publisher>
     <cc:Agent>
      <dc:title>Andreas Neudecker</dc:title>
     </cc:Agent>
    </dc:publisher>
    <dc:identifier>ghost-jumping-pill-06</dc:identifier>
    <dc:description>Jumping Pill for McMinos.</dc:description>
   </cc:Work>
  </rdf:RDF>
 </metadata>
 <g id="layer1">
  <path id="path5070" stroke-linejoin="round" d="m14 12-1.5 1.5 2 2s-1.3333 0.66667-2 1c-0.66667 0.33333-2 1-2 1" stroke="#000" stroke-linecap="round" stroke-width="3" fill="none"/>
  <path id="path3101" stroke-linejoin="round" d="m14 12-1.5 1.5 2 2s-1.3333 0.66667-2 1c-0.66667 0.33333-2 1-2 1" stroke="#f00" stroke-linecap="round" fill="none"/>
  <path id="path5072" stroke-linejoin="round" d="m17 12 2 2-1.5 2s1.2885 1.2628 2 1.5c0.71151 0.23717 2 0 2 0" stroke="#000" stroke-linecap="round" stroke-width="3" fill="none"/>
  <path id="path3875" stroke-linejoin="round" d="m17 12 2 2-1.5 2s1.2885 1.2628 2 1.5c0.71151 0.23717 2 0 2 0" stroke="#f00" stroke-linecap="round" fill="none"/>
  <g id="g3526" transform="translate(0,-8)">
   <path id="path3524" stroke-linejoin="round" d="m15 11c-3 0-4 1.2757-4 4 0 3 1 5 4 5s5-2 5-5-2-4-5-4z" stroke="#000" stroke-linecap="round" stroke-width="2" fill="#0f0"/>
   <path id="path2735" d="m15 11c-3 0-4 1.2757-4 4 0 3 1 5 4 5s5-2 5-5-2-4-5-4z" fill="#0f0"/>
   <path id="path3507" d="m14 13-2.9375 1.2188c-0.021 0.245-0.062 0.506-0.062 0.781 0 3 1 5 4 5 1.2586 0 2.3235-0.36984 3.1562-1-0.876-0.047-2.731-0.25-3.468-1-0.984-1 0.312-2 0.312-2s-1.987 0.606-2.594-0.312c-0.606-0.919 1.594-2.688 1.594-2.688z" fill="#00c000"/>
   <path id="path3512" d="m15 11c-0.66765 0-1.2069 0.09048-1.6875 0.21875 0.249-0.023 1.688-0.137 1.688 0.781v2c0.04687-0.66393 0.25-2 1-2 0.98901 0 2.7728 0.03034 2.8125 0.03125-0.879-0.735-2.198-1.031-3.812-1.031z" fill="#80ff00"/>
   <path id="path3519" d="m18.719 11.938-0.094 0.062 0.563 0.406c-0.143-0.169-0.293-0.333-0.469-0.468zm0.46875 0.46875s-1.9088 0.43494-2.1875 1.1562c-0.27869 0.72131 1 0.875 1 0.875s-1 0.5625-1 1.5625 0.5 2.4375 0.5 2.4375c-0.000001 0.000001-0.5-1.9785 0.5-2.4375 1-0.45902 1.875 0.1875 1.875 0.1875 0.075-0.38 0.124-0.767 0.124-1.188 0-1.135-0.294-1.977-0.812-2.594z" fill="#80ff00"/>
  </g>
 </g>
</svg>
