<?xml version="1.0" encoding="UTF-8" standalone="no"?>
<!-- Created with Inkscape (http://www.inkscape.org/) -->
<svg id="svg3505" xmlns:rdf="http://www.w3.org/1999/02/22-rdf-syntax-ns#" xmlns="http://www.w3.org/2000/svg" height="32px" width="32px" xmlns:cc="http://creativecommons.org/ns#" xmlns:dc="http://purl.org/dc/elements/1.1/">
 <metadata id="metadata3510">
  <rdf:RDF>
   <cc:Work rdf:about="">
    <dc:format>image/svg+xml</dc:format>
    <dc:type rdf:resource="http://purl.org/dc/dcmitype/StillImage"/>
    <dc:title>McMinos right 06</dc:title>
    <dc:date>2010-04-26</dc:date>
    <dc:creator>
     <cc:Agent>
      <dc:title>Andreas Neudecker &lt;zapyon@gmx.net&gt;</dc:title>
     </cc:Agent>
    </dc:creator>
    <dc:rights>
     <cc:Agent>
      <dc:title>Copyright (C) 2010 by Andreas Neudecker</dc:title>
     </cc:Agent>
    </dc:rights>
    <dc:publisher>
     <cc:Agent>
      <dc:title>Andreas Neudecker</dc:title>
     </cc:Agent>
    </dc:publisher>
    <dc:identifier>mcminos-right-06</dc:identifier>
    <dc:description>McMinos moving right, animation step 06.</dc:description>
   </cc:Work>
  </rdf:RDF>
 </metadata>
 <g id="layer1">
  <g id="g3674" transform="matrix(-1 0 0 1 314 -80)">
   <path id="path2902" d="m1.6289 5.0453a6.9913 6.9913 0 1 1 0 5.9097l6.3363-2.955z" transform="matrix(2.0022 0 0 2.0022 282.05 79.982)" stroke="#000" stroke-linecap="round" stroke-width=".99890" fill="#f00"/>
   <path id="path3287" transform="matrix(2.0022 0 0 2.0022 282.05 79.982)" fill="#f00" d="m1.6289 5.0453a6.9913 6.9913 0 1 1 0 5.9097l6.3363-2.955z"/>
   <path id="path3289" d="m10 5a2 2 0 1 1 -4 0 2 2 0 1 1 4 0z" transform="matrix(1.9997 0 0 1.9997 282 80.002)" fill="#fff"/>
   <path id="path3291" d="m9 5a1 1 0 1 1 -2 0 1 1 0 1 1 2 0z" transform="matrix(1.9997 0 0 1.9997 280 80.002)"/>
  </g>
 </g>
</svg>
