<?xml version="1.0" encoding="UTF-8" standalone="no"?>
<!-- Created with Inkscape (http://www.inkscape.org/) -->
<svg id="svg3505" xmlns:rdf="http://www.w3.org/1999/02/22-rdf-syntax-ns#" xmlns="http://www.w3.org/2000/svg" height="32px" width="32px" version="1.1" xmlns:cc="http://creativecommons.org/ns#" xmlns:dc="http://purl.org/dc/elements/1.1/">
 <metadata id="metadata3510">
  <rdf:RDF>
   <cc:Work rdf:about="">
    <dc:format>image/svg+xml</dc:format>
    <dc:type rdf:resource="http://purl.org/dc/dcmitype/StillImage"/>
    <dc:title/>
    <dc:date>2010-04-26</dc:date>
    <dc:creator>
     <cc:Agent>
      <dc:title>Andreas Neudecker &lt;zapyon@gmx.net&gt;</dc:title>
     </cc:Agent>
    </dc:creator>
    <dc:rights>
     <cc:Agent>
      <dc:title>Copyright (C) 2010 by Andreas Neudecker</dc:title>
     </cc:Agent>
    </dc:rights>
    <dc:publisher>
     <cc:Agent>
      <dc:title>Andreas Neudecker</dc:title>
     </cc:Agent>
    </dc:publisher>
    <dc:identifier>vorlage-32x32-mcminos</dc:identifier>
    <dc:description>Vorlage für 32x32-Pixel-Icons für McMinos. Metadaten jeweils entsprechend anpassen!</dc:description>
   </cc:Work>
  </rdf:RDF>
 </metadata>
 <g id="layer1">
  <g id="g5380">
   <g id="g12609">
    <rect id="rect5378" height="32" width="32" y="0" x="0" fill="none"/>
    <path id="path4818" d="m274.66 136.06a14.367 15.001 0 1 1 -28.73 0 14.367 15.001 0 1 1 28.73 0z" transform="matrix(1.0441 0 0 .99994 -255.76 -120.06)"/>
    <path id="path3403" d="m14.957 8a6.9913 6.9913 0 1 1 -13.983 0 6.9913 6.9913 0 1 1 13.983 0z" transform="matrix(2.0025 0 0 2.0025 .049747 -.019905)" fill="#ff8000"/>
    <path id="path3429" d="m32.314 51.824a4.157 3.8239 0 1 1 -8.314 0" transform="matrix(3.1272 0 0 3.3997 -72.053 -160.18)" fill="#e1fff9"/>
    <path id="path3407" d="m10 5a2 2 0 1 1 -4 0 2 2 0 1 1 4 0z" transform="matrix(2 0 0 2 -7 -.0000051162)" fill="#fff"/>
    <path id="path3425" d="m10 5a2 2 0 1 1 -4 0 2 2 0 1 1 4 0z" transform="matrix(2 0 0 2 7 -.0000051162)" fill="#fff"/>
    <path id="path3409" d="m9 5a1 1 0 1 1 -2 0 1 1 0 1 1 2 0z" transform="matrix(2,0,0,2,-7,0)"/>
    <path id="path3427" d="m9 5a1 1 0 1 1 -2 0 1 1 0 1 1 2 0z" transform="matrix(2,0,0,2,7,0)"/>
    <path id="path3443" d="m24 51.824a4.157 0.76478 0 0 1 8.314 0" transform="matrix(3.3678 0 0 .0000017603 -78.827 16)" fill="#fff"/>
    <path id="rect3904" fill-opacity=".25098" fill="#81e6ff" d="m3 16c0 1.76 0.3663 3.438 1 4.969v-4.969h-1zm6 0v10.938c0.634 0.406 1.297 0.769 2 1.062v-12h-2zm7 0v13c0.678 0 1.35-0.056 2-0.156v-12.844h-2zm7 0v10.938c0.717-0.46 1.389-0.976 2-1.563v-9.375h-2z"/>
    <path id="rect3912" fill="#fff" d="m7 16v9.375c0.6115 0.587 1.2832 1.103 2 1.563v-10.938h-2zm7 0v12.844c0.65 0.1 1.322 0.156 2 0.156v-13h-2zm7 0v12c0.703-0.293 1.366-0.656 2-1.062v-10.938h-2zm7 0v4.969c0.634-1.531 1-3.209 1-4.969h-1z"/>
    <path id="path3963" d="m16 16-0.189-3.811-3.811-0.189 3.811-0.189 0.189-3.811 0.189 3.811 3.811 0.189-3.811 0.189z" transform="translate(-7 4)" fill="aqua"/>
    <path id="path5483" d="m5.1346 14.973-2.4613-1.19-1.2158 2.844-1.1378-3.06-2.2938-0.535 2.7882-0.497 0.4087-2.6498 0.5734 2.1998 3.1381-1.554-2.0631 1.861z" transform="matrix(-1 0 0 -1 21.673 26.783)" fill="#ff0"/>
    <path id="path5485" d="m4.9525 28.522-1.2896-0.372-1.7179 1.777-0.5014-1.725-1.0987-1.239 1.3613-0.571l0.17394-2.6695 1.1026 2.0489 2.4065-0.24059-1.4355 1.7151z" transform="matrix(-1 0 0 -1 29.706 30.392)" fill="#ff0"/>
   </g>
  </g>
 </g>
</svg>
