<?xml version="1.0" encoding="UTF-8" standalone="no"?>
<!-- Created with Inkscape (http://www.inkscape.org/) -->

<svg xmlns:dc="http://purl.org/dc/elements/1.1/" xmlns:cc="http://creativecommons.org/ns#" xmlns:rdf="http://www.w3.org/1999/02/22-rdf-syntax-ns#" xmlns:svg="http://www.w3.org/2000/svg" xmlns="http://www.w3.org/2000/svg" xmlns:sodipodi="http://sodipodi.sourceforge.net/DTD/sodipodi-0.dtd" xmlns:inkscape="http://www.inkscape.org/namespaces/inkscape" width="32px" height="32px" id="svg3505" sodipodi:version="0.32" inkscape:version="0.91 r13725" sodipodi:docname="00.svg" inkscape:output_extension="org.inkscape.output.svg.inkscape" version="1.1">
  <defs id="defs3507">
    <inkscape:perspective sodipodi:type="inkscape:persp3d" inkscape:vp_x="0 : 16 : 1" inkscape:vp_y="0 : 1000 : 0" inkscape:vp_z="32 : 16 : 1" inkscape:persp3d-origin="16 : 10.666667 : 1" id="perspective3513" />
    <inkscape:perspective id="perspective4690" inkscape:persp3d-origin="372.04724 : 350.78739 : 1" inkscape:vp_z="744.09448 : 526.18109 : 1" inkscape:vp_y="0 : 1000 : 0" inkscape:vp_x="0 : 526.18109 : 1" sodipodi:type="inkscape:persp3d" />
    <inkscape:perspective id="perspective7417" inkscape:persp3d-origin="372.04724 : 350.78739 : 1" inkscape:vp_z="744.09448 : 526.18109 : 1" inkscape:vp_y="0 : 1000 : 0" inkscape:vp_x="0 : 526.18109 : 1" sodipodi:type="inkscape:persp3d" />
  </defs>
  <sodipodi:namedview id="base" pagecolor="#ffffff" bordercolor="#666666" borderopacity="1.0" inkscape:pageopacity="0.0" inkscape:pageshadow="2" inkscape:zoom="16.96875" inkscape:cx="16" inkscape:cy="16" inkscape:current-layer="layer1" showgrid="true" inkscape:grid-bbox="true" inkscape:document-units="px" objecttolerance="13" gridtolerance="12" guidetolerance="8" inkscape:window-width="1280" inkscape:window-height="713" inkscape:window-x="0" inkscape:window-y="37" inkscape:object-paths="true" inkscape:object-nodes="true" inkscape:snap-bbox="true" inkscape:snap-guide="true" inkscape:snap-perpendicular="true" inkscape:snap-tangential="true" inkscape:snap-path-clip="false" inkscape:window-maximized="0">
    <inkscape:grid type="xygrid" id="grid3515" units="px" visible="true" enabled="true" spacingx="1px" spacingy="1px" empspacing="4" />
  </sodipodi:namedview>
  <metadata id="metadata3510">
    <rdf:RDF>
      <cc:Work rdf:about="">
        <dc:format>image/svg+xml</dc:format>
        <dc:type rdf:resource="http://purl.org/dc/dcmitype/StillImage" />
        <dc:title>Vorlage f端r 32x32-Pixel-Icons f端r McMinos</dc:title>
        <dc:date>2010-04-05</dc:date>
        <dc:creator>
          <cc:Agent>
            <dc:title>Andreas Neudecker &lt;zapyon@gmx.net&gt;</dc:title>
          </cc:Agent>
        </dc:creator>
        <dc:rights>
          <cc:Agent>
            <dc:title>Copyright (C) 2010 by Andreas Neudecker</dc:title>
          </cc:Agent>
        </dc:rights>
        <dc:publisher>
          <cc:Agent>
            <dc:title>Andreas Neudecker</dc:title>
          </cc:Agent>
        </dc:publisher>
        <dc:identifier>vorlage-32x32-mcminos</dc:identifier>
        <dc:description>Vorlage f端r 32x32-Pixel-Icons f端r McMinos. Metadaten jeweils entsprechend anpassen!</dc:description>
      </cc:Work>
    </rdf:RDF>
  </metadata>
  <g id="layer1" inkscape:label="Layer 1" inkscape:groupmode="layer">
    <g id="g49460">
      <rect y="0" x="0" height="32" width="32" id="rect49446" style="opacity:1;fill:none;fill-opacity:0.1254902;fill-rule:nonzero;stroke:none;stroke-width:2;stroke-linecap:butt;stroke-linejoin:miter;stroke-miterlimit:4;stroke-dasharray:none;stroke-dashoffset:0;stroke-opacity:1" />
      <path id="path7461" d="m 13.140625,1.3658588 c -0.30535,-0.00427 -0.633541,0.00968 -0.9375,0.03125 -1.215837,0.086268 -3.3845382,0.6127419 -4.65625,1.28125 -1.1390729,0.598783 -2.8324588,2.1747762 -3.21875,2.53125 -0.044982,0.04151 -0.28125,0.21875 -0.28125,0.21875 0,0 1.656352,0.6097025 2.78125,0.90625 1.1248983,0.2965475 3.586333,1.5194203 4.9375,1.40625 1.351166,-0.1131704 2.630856,-1.0805417 3.53125,-1.65625 0.900393,-0.5757082 2.468751,-2.0625001 2.46875,-2.0625 0.658485,0.09631 1.230978,0.1790165 1.5625,0.28125 1.348638,0.4158883 1.895562,1.1469694 1.96875,1.25 -0.788057,0.2904904 -1.495809,0.6133434 -1.96875,1.03125 -2,1.7672669 -3.375,6.6250002 -3.375,6.6250002 -0.620237,-0.575642 -1.97258,-1.625 -3.625,-1.625 -2.264203,0 -3.7676788,0.667526 -5,2 -1.2323212,1.332474 -1.9510637,4.22222 -2,6.40625 -0.048936,2.18403 0.4119495,5.972552 2,7.59375 1.5880505,1.621198 7,2 7,2 0,0 2.05315,0.941051 3,1 1.52675,0.09505 3.813997,0.120217 5.25,-0.53125 1.436003,-0.651468 3.276951,-2.488572 4.03125,-3.75 0.754299,-1.261428 1.149399,-3.062726 1.03125,-4.71875 -0.118149,-1.656024 -1.285326,-4.743081 -2.3125,-6 -1.027174,-1.256919 -2.3562,-2.083998 -4,-2.25 -1.152112,-0.116349 -2.899814,0.04335 -3.96875,0.15625 0.05882,-0.272921 0.79474,-3.6206105 2.34375,-4.9062502 1.613813,-1.3394249 3.315969,-1.7065305 4.96875,-2 1.652782,-0.2934695 3.28125,0.25 3.28125,0.25 l -0.625,-2.5625 c 0,1e-7 -1.857135,0.1725019 -3.84375,0.625 l 0.34375,-0.09375 c 0,1e-7 -2.931764,-1.0631467 -4.34375,-1.21875 -0.544034,-0.059953 -1.411229,-0.2116085 -2.375,-0.375 -0.474902,-0.5556957 -1.074987,-1.1831394 -1.5625,-1.40625 -0.629981,-0.2883108 -1.4902,-0.4246796 -2.40625,-0.4375 z" style="fill:lime;fill-opacity:1;fill-rule:nonzero;stroke:black;stroke-width:2;stroke-linecap:round;stroke-linejoin:miter;stroke-miterlimit:4;stroke-dasharray:none;stroke-dashoffset:0;stroke-opacity:1" inkscape:connector-curvature="0" />
      <path sodipodi:nodetypes="czzzzcszzzzzc" id="path7423" d="m 16.328125,13.584609 c 0,0 -1.735797,-2 -4,-2 -2.264203,0 -3.7676788,0.667526 -5,2 -1.2323212,1.332474 -1.9510637,4.225806 -2,6.409836 -0.048936,2.18403 0.4119495,5.968966 2,7.590164 1.5880505,1.621198 7,2 7,2 0,0 2.05315,0.941051 3,1 1.52675,0.09505 3.826292,0.110483 5.262295,-0.540984 1.436003,-0.651467 3.278488,-2.49267 4.032787,-3.754098 0.754299,-1.261428 1.150936,-3.048894 1.032787,-4.704918 -0.118149,-1.656024 -1.300695,-4.743081 -2.327869,-6 -1.027174,-1.256919 -2.3562,-2.096293 -4,-2.262295 -1.578875,-0.159446 -5,0.262295 -5,0.262295 z" style="fill:#41ff41;fill-opacity:1;fill-rule:nonzero;stroke:none;stroke-width:2;stroke-linecap:round;stroke-linejoin:round;stroke-miterlimit:4;stroke-dasharray:none;stroke-dashoffset:0;stroke-opacity:1" inkscape:connector-curvature="0" />
      <path id="path7431" d="m 27.328125,4.2685648 c 0,0 -6,0.5487771 -8,2.316044 -2,1.7672669 -3.366706,6.6312792 -3.366706,6.6312792 l 0.366706,0.368721 1,0 c 0,0 0.772373,-3.6605753 2.386186,-5.0000002 1.613814,-1.3394249 3.308251,-1.7065305 4.961032,-2 1.652782,-0.2934695 3.281914,0.2407955 3.281914,0.2407955 L 27.328125,4.2685648 Z" style="fill:#dc9100;fill-opacity:1;fill-rule:nonzero;stroke:none;stroke-width:2;stroke-linecap:round;stroke-linejoin:round;stroke-miterlimit:4;stroke-dasharray:none;stroke-dashoffset:0;stroke-opacity:1" inkscape:connector-curvature="0" />
      <path sodipodi:nodetypes="czzzczzzc" id="path7433" d="m 4.0519272,5.4271614 c 0,0 2.2341738,-2.0911252 3.5058858,-2.7596334 1.271712,-0.6685082 3.434415,-1.190259 4.650252,-1.2765269 1.215838,-0.086268 2.509151,0.024648 3.349125,0.4090628 0.839974,0.3844143 2.216252,2.2111698 2.216252,2.2111698 0,0 -1.578252,1.4927898 -2.478645,2.068498 C 14.394403,6.65544 13.124568,7.6343845 11.773402,7.7475549 10.422235,7.8607253 7.9488979,6.646559 6.8239996,6.3500115 5.6991014,6.0534641 4.0519272,5.4271614 4.0519272,5.4271614 Z" style="fill:#41ff41;fill-opacity:1;fill-rule:nonzero;stroke:none;stroke-width:2;stroke-linecap:round;stroke-linejoin:round;stroke-miterlimit:4;stroke-dasharray:none;stroke-dashoffset:0;stroke-opacity:1" inkscape:connector-curvature="0" />
      <path sodipodi:nodetypes="cszczscc" id="path7435" d="m 23.840578,4.8135322 c 0,0 -2.943251,-1.0733201 -4.355237,-1.2289234 -1.411986,-0.1556033 -4.692896,-1 -7.47971,-0.7661919 -2.7780988,0.2330769 -7.677506,2.4041925 -7.677506,2.4041925 0,0 5.2348831,-1.6380006 7.725074,-1.6380006 2.452029,0 6.121369,0.3771376 7.274926,0.7328675 1.450148,0.4471917 2,1.2671325 2,1.2671325 l 2.512453,-0.7710766 z" style="fill:#00c000;fill-opacity:1;fill-rule:nonzero;stroke:none;stroke-width:2;stroke-linecap:round;stroke-linejoin:round;stroke-miterlimit:4;stroke-dasharray:none;stroke-dashoffset:0;stroke-opacity:1" inkscape:connector-curvature="0" />
      <path sodipodi:nodetypes="cssscssscczssc" id="path7446" d="m 7.859375,13.053359 c -0.1874098,0.162444 -0.3561879,0.34196 -0.53125,0.53125 -1.2323212,1.332474 -1.9510637,4.22222 -2,6.40625 -0.048936,2.18403 0.4119495,5.972552 2,7.59375 1.5880505,1.621198 7,2 7,2 0,0 2.05315,0.941051 3,1 1.52675,0.09505 3.813997,0.120217 5.25,-0.53125 1.436003,-0.651468 3.276951,-2.488572 4.03125,-3.75 0.03693,-0.06176 0.0898,-0.123294 0.125,-0.1875 l 0,-0.03125 c 0,0 -1.396188,-3.224936 -2.755945,-4.5 -1.359757,-1.275064 -4.044496,-3 -6.181555,-4 -2.13706,-1 -3.482212,-2.539044 -4.8125,-3.53125 -1.0733,-0.800531 -3.9935558,-0.970125 -5.125,-1 z" style="fill:#01ff01;fill-opacity:1;fill-rule:nonzero;stroke:none;stroke-width:2;stroke-linecap:round;stroke-linejoin:round;stroke-miterlimit:4;stroke-dasharray:none;stroke-dashoffset:0;stroke-opacity:1" inkscape:connector-curvature="0" />
      <path id="path7437" d="m 5.515625,18.084609 c -0.1120091,0.662284 -0.1740104,1.30421 -0.1875,1.90625 -0.048936,2.18403 0.4119495,5.972552 2,7.59375 1.5880505,1.621198 7,2 7,2 0,0 2.05315,0.941051 3,1 1.52675,0.09505 3.813997,0.120217 5.25,-0.53125 1.102431,-0.500137 2.469718,-1.710609 3.375,-2.8125 -0.806599,0.256452 -3.866794,1.217825 -5.625,1.6875 -2,0.534265 -5.21875,-0.875 -5.21875,-0.875 0,0 -3.78125,-2.161028 -5.78125,-3.6875 -1.7070588,-1.302888 -3.3490548,-5.128889 -3.8125,-6.28125 z" style="fill:#00d200;fill-opacity:1;fill-rule:nonzero;stroke:none;stroke-width:2;stroke-linecap:round;stroke-linejoin:round;stroke-miterlimit:4;stroke-dasharray:none;stroke-dashoffset:0;stroke-opacity:1" inkscape:connector-curvature="0" />
      <path id="path7442" d="M 10.660446,18 C 9.9169311,17.268277 9.0140771,16.615922 7.9737153,16.404972 c -0.8426278,-0.182906 -1.5148032,0.50949 -1.9006731,1.174645 -0.5807381,0.995561 -0.9764046,2.213032 -0.5923201,3.350942 0.5564205,1.763835 1.8397526,3.197194 3.2645223,4.327615 0.9546277,0.712537 2.1016406,1.094657 3.1857856,1.560828 1.054498,0.394113 2.106086,0.853912 3.227156,1.014892 0.649867,-0.118318 -0.330001,-0.723008 -0.563312,-0.925849 C 13.802627,26.26335 12.916116,25.651292 12.421621,24.732844 12.216552,24.210729 12.196939,23.636528 11.987966,23.112701 11.712537,21.99462 11.699495,20.827926 11.374053,19.720213 11.253288,19.107362 11.115052,18.462394 10.660446,18 Z" style="fill:red;fill-opacity:0.3601286;fill-rule:nonzero;stroke:none;stroke-width:2;stroke-linecap:round;stroke-linejoin:round;stroke-miterlimit:4;stroke-dasharray:none;stroke-dashoffset:0;stroke-opacity:1" inkscape:connector-curvature="0" />
      <path sodipodi:nodetypes="czzzzzzz" id="path7444" d="m 20.897327,14.59805 c 1.883251,-0.119386 1.70338,0.573848 2.659769,1.39183 0.956389,0.817982 1.714567,2.795987 2,4.006988 0.285433,1.211001 0.837537,3.293433 0,3.816178 -0.837537,0.522745 -1.799154,-0.42532 -2.484547,-1.214996 -0.685393,-0.789676 -0.510665,-3.008242 -1.297501,-4 -0.786836,-0.991758 -0.756905,-0.973498 -1.564633,-1.654125 -0.807728,-0.680627 -1.196339,-2.226489 0.686912,-2.345875 z" style="fill:#cdffcd;fill-opacity:1;fill-rule:nonzero;stroke:none;stroke-width:2;stroke-linecap:round;stroke-linejoin:round;stroke-miterlimit:4;stroke-dasharray:none;stroke-dashoffset:0;stroke-opacity:1" inkscape:connector-curvature="0" />
      <path sodipodi:nodetypes="csccccccccsc" id="path7427" d="m 15.311594,28.584609 c -0.552,0 -1,0.448001 -1,1 0,0.01082 -3.42e-4,0.02051 0,0.03125 l -0.634663,0.96875 1.018791,-0.216282 0.40072,0.715152 0.538713,-0.641592 0.974548,0.39519 -0.266859,-1.221218 -0.03125,0 c 3.42e-4,-0.01074 0,-0.02043 0,-0.03125 0,-0.552 -0.448,-0.999999 -1,-1 z" style="fill:#805300;fill-opacity:1;fill-rule:nonzero;stroke:none;stroke-width:2;stroke-linecap:round;stroke-linejoin:round;stroke-miterlimit:4;stroke-dasharray:none;stroke-dashoffset:0;stroke-opacity:1" inkscape:connector-curvature="0" />
      <path sodipodi:nodetypes="cscscscscscscscscscsczzzcccssccsc" id="path7455" d="m 26.052912,5.2197043 c 1e-6,2e-7 -0.02144,0.8427353 -0.724787,0.9586545 -0.703347,0.1159191 -1,-0.59375 -1,-0.59375 -1e-6,-10e-8 0.11727,0.7468248 -0.4375,0.875 -0.55477,0.1281753 -0.934456,-0.6068383 -0.934456,-0.6068383 1e-6,0 0.289265,0.8034192 -0.128044,0.9193383 -0.417308,0.1159193 -0.835684,-0.607853 -0.835684,-0.607853 0,0 0.173346,0.5554485 -0.383066,0.764103 -0.556412,0.2086547 -0.842735,-0.34375 -0.842735,-0.34375 0,1e-7 0.260637,0.7437294 -0.09476,0.875 -0.355402,0.1312704 -0.756037,-0.3719559 -0.756037,-0.3719559 -10e-7,-2e-7 0.221743,0.7731838 -0.05646,1.0282059 -0.278206,0.2550222 -0.855824,-0.1844559 -0.855824,-0.1844559 0,1e-7 0.59204,0.4848822 0.324574,0.8094559 -0.219266,0.2660816 -1,-0.15625 -1,-0.15625 -1e-6,3e-7 0.713409,0.4663843 0.375,0.8125 -0.29812,0.3049089 -0.870941,-0.067522 -0.870941,-0.067522 1e-6,0 0.713944,0.3987595 0.495941,0.8175222 -0.209448,0.402329 -0.700588,0.21875 -0.700588,0.21875 -1e-6,-1e-6 0.545515,0.21875 0.450588,0.5 -0.07328,0.217112 -0.75,0.344765 -0.75,0.344765 -1e-6,0 0.307456,0.394779 0.28125,0.717735 -0.02621,0.322956 -0.715705,0.25 -0.715706,0.25 0,0 0.556241,0.281866 0.434456,0.614904 -0.121785,0.333039 -0.778206,0.791346 -0.778206,0.791346 l 0.684456,0 0.09375,0 c 0,0 0.761187,-3.6605752 2.375,-5.0000001 1.613813,-1.3394249 3.315969,-1.7065305 4.96875,-2 1.652782,-0.2934695 3.28125,0.25 3.28125,0.25 l -0.28125,-1.125 C 27.5401,5.9327532 27.315076,6.1576861 26.984375,6.0533588 26.322971,5.8447043 26.052912,5.2197043 26.052912,5.2197043 Z" style="fill:#805100;fill-opacity:1;fill-rule:nonzero;stroke:none;stroke-width:2;stroke-linecap:round;stroke-linejoin:round;stroke-miterlimit:4;stroke-dasharray:none;stroke-dashoffset:0;stroke-opacity:1" inkscape:connector-curvature="0" />
      <path style="fill:red;fill-opacity:0.50196078;fill-rule:nonzero;stroke:none;stroke-width:2;stroke-linecap:round;stroke-linejoin:round;stroke-miterlimit:4;stroke-dasharray:none;stroke-dashoffset:0;stroke-opacity:1" d="M 10,19 C 9.5496688,18.463848 9.0228325,17.997669 8.4615559,17.883772 c -0.4556194,-0.10168 -0.7480745,0.473396 -0.8932915,1.013051 -0.219019,0.807878 -0.3225755,1.780345 -0.025584,2.652141 0.4400189,1.353257 1.2317354,2.412038 2.0716718,3.226729 0.5589758,0.510739 1.1904568,0.753368 1.7962178,1.064884 0.584173,0.256572 1.172389,0.564703 1.771591,0.635511 C 13.511584,26.351475 12.948558,25.926397 12.809514,25.77911 12.341099,25.31348 11.826211,24.878038 11.490137,24.183464 11.338804,23.784873 11.279929,23.336378 11.126412,22.936638 10.887854,22.075015 10.78223,21.162418 10.518428,20.311372 10.403444,19.837604 10.276616,19.339558 10,19 Z" id="path7567" inkscape:connector-curvature="0" />
    </g>
  </g>
</svg>
