<?xml version="1.0" encoding="UTF-8" standalone="no"?>
<!-- Created with Inkscape (http://www.inkscape.org/) -->

<svg xmlns:dc="http://purl.org/dc/elements/1.1/" xmlns:cc="http://creativecommons.org/ns#" xmlns:rdf="http://www.w3.org/1999/02/22-rdf-syntax-ns#" xmlns:svg="http://www.w3.org/2000/svg" xmlns="http://www.w3.org/2000/svg" xmlns:sodipodi="http://sodipodi.sourceforge.net/DTD/sodipodi-0.dtd" xmlns:inkscape="http://www.inkscape.org/namespaces/inkscape" width="32px" height="32px" id="svg3505" sodipodi:version="0.32" inkscape:version="0.91 r13725" sodipodi:docname="04.svg" inkscape:output_extension="org.inkscape.output.svg.inkscape" version="1.1">
  <defs id="defs3507">
    <inkscape:perspective sodipodi:type="inkscape:persp3d" inkscape:vp_x="0 : 16 : 1" inkscape:vp_y="0 : 1000 : 0" inkscape:vp_z="32 : 16 : 1" inkscape:persp3d-origin="16 : 10.666667 : 1" id="perspective3513" />
    <inkscape:perspective id="perspective4690" inkscape:persp3d-origin="372.04724 : 350.78739 : 1" inkscape:vp_z="744.09448 : 526.18109 : 1" inkscape:vp_y="0 : 1000 : 0" inkscape:vp_x="0 : 526.18109 : 1" sodipodi:type="inkscape:persp3d" />
  </defs>
  <sodipodi:namedview id="base" pagecolor="#ffffff" bordercolor="#666666" borderopacity="1.0" inkscape:pageopacity="0.0" inkscape:pageshadow="2" inkscape:zoom="22.125" inkscape:cx="16" inkscape:cy="16" inkscape:current-layer="layer1" showgrid="true" inkscape:grid-bbox="true" inkscape:document-units="px" objecttolerance="10000" gridtolerance="10000" guidetolerance="10000" inkscape:window-width="1600" inkscape:window-height="878" inkscape:window-x="0" inkscape:window-y="0" inkscape:object-paths="true" inkscape:object-nodes="true" inkscape:snap-bbox="true" inkscape:snap-guide="true" inkscape:window-maximized="1" inkscape:snap-perpendicular="true" inkscape:snap-tangential="true">
    <inkscape:grid type="xygrid" id="grid3515" units="px" visible="true" enabled="true" spacingx="1px" spacingy="1px" empspacing="4" />
  </sodipodi:namedview>
  <metadata id="metadata3510">
    <rdf:RDF>
      <cc:Work rdf:about="">
        <dc:format>image/svg+xml</dc:format>
        <dc:type rdf:resource="http://purl.org/dc/dcmitype/StillImage" />
        <dc:title>McMinos right 04</dc:title>
        <dc:date>2010-04-26</dc:date>
        <dc:creator>
          <cc:Agent>
            <dc:title>Andreas Neudecker &lt;zapyon@gmx.net&gt;</dc:title>
          </cc:Agent>
        </dc:creator>
        <dc:rights>
          <cc:Agent>
            <dc:title>Copyright (C) 2010 by Andreas Neudecker</dc:title>
          </cc:Agent>
        </dc:rights>
        <dc:publisher>
          <cc:Agent>
            <dc:title>Andreas Neudecker</dc:title>
          </cc:Agent>
        </dc:publisher>
        <dc:identifier>mcminos-right-04</dc:identifier>
        <dc:description>McMinos moving right, animation step 04.</dc:description>
      </cc:Work>
    </rdf:RDF>
  </metadata>
  <g id="layer1" inkscape:label="Layer 1" inkscape:groupmode="layer">
    <g id="g5531">
      <rect y="0" x="0" height="32" width="32" id="rect5529" style="opacity:1;fill:none;fill-opacity:1;fill-rule:nonzero;stroke:none;stroke-width:1;stroke-linecap:round;stroke-linejoin:miter;stroke-miterlimit:4;stroke-dasharray:none;stroke-dashoffset:0;stroke-opacity:1" />
      <g transform="matrix(-1,0,0,1,249.99723,-80)" id="g3498">
        <path sodipodi:end="9.1629786" sodipodi:start="3.403392" sodipodi:type="arc" style="fill:#ff0000;fill-opacity:1;fill-rule:nonzero;stroke:#000000;stroke-width:0.99896228;stroke-linecap:round;stroke-linejoin:miter;stroke-miterlimit:4;stroke-dasharray:none;stroke-dashoffset:0;stroke-opacity:1" id="path3463" sodipodi:cx="7.9652176" sodipodi:cy="8" sodipodi:rx="6.9913044" sodipodi:ry="6.9913044" d="M 1.212136,6.1905176 A 6.9913044,6.9913044 0 0 1 8.8777658,1.0685072 6.9913044,6.9913044 0 0 1 14.956522,7.9999999 6.9913044,6.9913044 0 0 1 8.8777659,14.931493 6.9913044,6.9913044 0 0 1 1.2121361,9.8094825 L 7.9652176,8 Z" transform="matrix(2.0020776,0,0,2.0020776,218.05025,79.983379)" />
        <g id="g3253" transform="matrix(1.9995905,0,0,1.9995905,218.00051,80.003276)">
          <path sodipodi:end="9.1629786" sodipodi:start="3.403392" sodipodi:type="arc" style="fill:#ff0000;fill-opacity:1;fill-rule:nonzero;stroke:none;stroke-width:0.1;stroke-linecap:round;stroke-linejoin:round;stroke-miterlimit:4;stroke-dasharray:none;stroke-dashoffset:0;stroke-opacity:1" id="path3255" sodipodi:cx="7.9652176" sodipodi:cy="8" sodipodi:rx="6.9913044" sodipodi:ry="6.9913044" d="M 1.212136,6.1905176 A 6.9913044,6.9913044 0 0 1 8.8777658,1.0685072 6.9913044,6.9913044 0 0 1 14.956522,7.9999999 6.9913044,6.9913044 0 0 1 8.8777659,14.931493 6.9913044,6.9913044 0 0 1 1.2121361,9.8094825 L 7.9652176,8 Z" transform="matrix(1.0012438,0,0,1.0012438,2.4875454e-2,-9.9504e-3)" />
          <path sodipodi:type="arc" style="fill:#ffffff;fill-opacity:1;fill-rule:nonzero;stroke:none;stroke-width:0.1;stroke-linecap:round;stroke-linejoin:round;stroke-miterlimit:4;stroke-dasharray:none;stroke-dashoffset:0;stroke-opacity:1" id="path3257" sodipodi:cx="8" sodipodi:cy="5" sodipodi:rx="2" sodipodi:ry="2" d="M 10,5 A 2,2 0 0 1 8,7 2,2 0 0 1 6,5 2,2 0 0 1 8,3 2,2 0 0 1 10,5 Z" />
          <path sodipodi:type="arc" style="fill:#000000;fill-opacity:1;fill-rule:nonzero;stroke:none;stroke-width:0.1;stroke-linecap:round;stroke-linejoin:round;stroke-miterlimit:4;stroke-dasharray:none;stroke-dashoffset:0;stroke-opacity:1" id="path3259" sodipodi:cx="8" sodipodi:cy="5" sodipodi:rx="1" sodipodi:ry="1" d="M 9,5 A 1,1 0 0 1 8,6 1,1 0 0 1 7,5 1,1 0 0 1 8,4 1,1 0 0 1 9,5 Z" transform="translate(-1,0)" />
        </g>
      </g>
    </g>
  </g>
</svg>
