<?xml version="1.0" encoding="UTF-8" standalone="no"?>
<!-- Created with Inkscape (http://www.inkscape.org/) -->

<svg xmlns:dc="http://purl.org/dc/elements/1.1/" xmlns:cc="http://creativecommons.org/ns#" xmlns:rdf="http://www.w3.org/1999/02/22-rdf-syntax-ns#" xmlns:svg="http://www.w3.org/2000/svg" xmlns="http://www.w3.org/2000/svg" xmlns:sodipodi="http://sodipodi.sourceforge.net/DTD/sodipodi-0.dtd" xmlns:inkscape="http://www.inkscape.org/namespaces/inkscape" width="32px" height="32px" id="svg3505" sodipodi:version="0.32" inkscape:version="0.91 r13725" sodipodi:docname="08.svg" inkscape:output_extension="org.inkscape.output.svg.inkscape" version="1.1">
  <defs id="defs3507">
    <inkscape:perspective sodipodi:type="inkscape:persp3d" inkscape:vp_x="0 : 16 : 1" inkscape:vp_y="0 : 1000 : 0" inkscape:vp_z="32 : 16 : 1" inkscape:persp3d-origin="16 : 10.666667 : 1" id="perspective3513" />
    <inkscape:perspective id="perspective4690" inkscape:persp3d-origin="372.04724 : 350.78739 : 1" inkscape:vp_z="744.09448 : 526.18109 : 1" inkscape:vp_y="0 : 1000 : 0" inkscape:vp_x="0 : 526.18109 : 1" sodipodi:type="inkscape:persp3d" />
  </defs>
  <sodipodi:namedview id="base" pagecolor="#ffffff" bordercolor="#666666" borderopacity="1.0" inkscape:pageopacity="0.0" inkscape:pageshadow="2" inkscape:zoom="16.96875" inkscape:cx="14.968692" inkscape:cy="16" inkscape:current-layer="layer1" showgrid="true" inkscape:grid-bbox="true" inkscape:document-units="px" objecttolerance="10000" gridtolerance="10000" guidetolerance="10000" inkscape:window-width="1280" inkscape:window-height="713" inkscape:window-x="0" inkscape:window-y="37" inkscape:object-paths="true" inkscape:object-nodes="true" inkscape:snap-bbox="true" inkscape:snap-guide="true" inkscape:snap-perpendicular="true" inkscape:snap-tangential="true" inkscape:window-maximized="0">
    <inkscape:grid type="xygrid" id="grid3515" units="px" visible="true" enabled="true" spacingx="1px" spacingy="1px" empspacing="4" />
  </sodipodi:namedview>
  <metadata id="metadata3510">
    <rdf:RDF>
      <cc:Work rdf:about="">
        <dc:format>image/svg+xml</dc:format>
        <dc:type rdf:resource="http://purl.org/dc/dcmitype/StillImage" />
        <dc:title>McMinos right 08</dc:title>
        <dc:date>2010-04-26</dc:date>
        <dc:creator>
          <cc:Agent>
            <dc:title>Andreas Neudecker &lt;zapyon@gmx.net&gt;</dc:title>
          </cc:Agent>
        </dc:creator>
        <dc:rights>
          <cc:Agent>
            <dc:title>Copyright (C) 2010 by Andreas Neudecker</dc:title>
          </cc:Agent>
        </dc:rights>
        <dc:publisher>
          <cc:Agent>
            <dc:title>Andreas Neudecker</dc:title>
          </cc:Agent>
        </dc:publisher>
        <dc:identifier>mcminos-right-08</dc:identifier>
        <dc:description>McMinos moving right, animation step 08.</dc:description>
      </cc:Work>
    </rdf:RDF>
  </metadata>
  <g id="layer1" inkscape:label="Layer 1" inkscape:groupmode="layer">
    <g id="g4978">
      <rect y="0" x="0" height="32" width="32" id="rect4976" style="opacity:1;fill:none;fill-opacity:1;fill-rule:nonzero;stroke:none;stroke-width:2;stroke-linecap:butt;stroke-linejoin:miter;stroke-miterlimit:4;stroke-dasharray:none;stroke-dashoffset:0;stroke-opacity:1" />
      <g transform="matrix(-1,0,0,1,378.00077,-79.999703)" id="g3796">
        <path sodipodi:end="8.8139127" sodipodi:start="3.7524579" sodipodi:type="arc" style="fill:#ff0000;fill-opacity:1;fill-rule:nonzero;stroke:#000000;stroke-width:0.99870831;stroke-linecap:round;stroke-linejoin:miter;stroke-miterlimit:4;stroke-dasharray:none;stroke-dashoffset:0;stroke-opacity:1" id="path3794" sodipodi:cx="7.9652176" sodipodi:cy="8" sodipodi:rx="6.9913044" sodipodi:ry="6.9913044" d="M 2.2382763,3.9899525 A 6.9913044,6.9913044 0 0 1 10.067543,1.3322745 6.9913044,6.9913044 0 0 1 14.956522,7.9999999 6.9913044,6.9913044 0 0 1 10.067543,14.667725 6.9913044,6.9913044 0 0 1 2.2382764,12.010048 L 7.9652176,8 Z" transform="matrix(2.0025867,0,0,2.0025867,346.04953,79.979306)" />
        <path transform="matrix(2.0025867,0,0,2.0025867,346.04953,79.979306)" d="M 2.2382763,3.9899525 A 6.9913044,6.9913044 0 0 1 10.067543,1.3322745 6.9913044,6.9913044 0 0 1 14.956522,7.9999999 6.9913044,6.9913044 0 0 1 10.067543,14.667725 6.9913044,6.9913044 0 0 1 2.2382764,12.010048 L 7.9652176,8 Z" sodipodi:ry="6.9913044" sodipodi:rx="6.9913044" sodipodi:cy="8" sodipodi:cx="7.9652176" id="path3319" style="fill:#ff0000;fill-opacity:1;fill-rule:nonzero;stroke:none;stroke-width:0.1;stroke-linecap:round;stroke-linejoin:round;stroke-miterlimit:4;stroke-dasharray:none;stroke-dashoffset:0;stroke-opacity:1" sodipodi:type="arc" sodipodi:start="3.7524579" sodipodi:end="8.8139127" />
        <path d="M 10,5 A 2,2 0 0 1 8,7 2,2 0 0 1 6,5 2,2 0 0 1 8,3 2,2 0 0 1 10,5 Z" sodipodi:ry="2" sodipodi:rx="2" sodipodi:cy="5" sodipodi:cx="8" id="path3321" style="fill:#ffffff;fill-opacity:1;fill-rule:nonzero;stroke:none;stroke-width:0.1;stroke-linecap:round;stroke-linejoin:round;stroke-miterlimit:4;stroke-dasharray:none;stroke-dashoffset:0;stroke-opacity:1" sodipodi:type="arc" transform="matrix(2.000099,0,0,2.000099,345.99978,79.999208)" />
        <path transform="matrix(2.000099,0,0,2.000099,343.99968,79.999208)" d="M 9,5 A 1,1 0 0 1 8,6 1,1 0 0 1 7,5 1,1 0 0 1 8,4 1,1 0 0 1 9,5 Z" sodipodi:ry="1" sodipodi:rx="1" sodipodi:cy="5" sodipodi:cx="8" id="path3323" style="fill:#000000;fill-opacity:1;fill-rule:nonzero;stroke:none;stroke-width:0.1;stroke-linecap:round;stroke-linejoin:round;stroke-miterlimit:4;stroke-dasharray:none;stroke-dashoffset:0;stroke-opacity:1" sodipodi:type="arc" />
      </g>
    </g>
  </g>
</svg>
